<svg width="758" height="87" viewBox="0 0 758 87" fill="none" xmlns="http://www.w3.org/2000/svg">
<rect width="758" height="87" rx="18" fill="#D9D9D9"/>
<path d="M38.452 46.1172C38.102 46.1172 37.927 45.9422 37.927 45.5922V23.6052L35.113 23.7102C34.763 23.7102 34.588 23.5352 34.588 23.1852V18.6492C34.588 18.2992 34.763 18.1242 35.113 18.1242H44.395C44.745 18.1242 44.92 18.2992 44.92 18.6492V45.5922C44.92 45.9422 44.745 46.1172 44.395 46.1172H38.452Z" fill="#2ECC71"/>
<path d="M88.957 27.2559C88.9001 28.1104 88.8716 28.7451 88.8716 29.1602L88.8472 29.5508L88.8105 30.7104L88.7861 31.1011L88.7373 32.4561C88.721 32.7165 88.7129 32.9118 88.7129 33.042L88.6885 33.4326C88.6722 33.693 88.6641 33.8843 88.6641 34.0063L88.6396 34.3848C88.6315 34.515 88.6274 34.6452 88.6274 34.7754L88.603 35.1538L88.5664 36.4844V37.2168C88.5664 37.6074 88.7129 37.8719 89.0059 38.0103C89.2988 38.1405 89.7261 38.2056 90.2876 38.2056H90.8369C92.5785 38.2056 93.9538 37.5586 94.9629 36.2646C95.4023 35.7031 95.7604 34.9626 96.0371 34.043C96.3138 33.1234 96.4521 32.0898 96.4521 30.9424V30.7349C96.4521 27.7319 95.4674 25.7869 93.498 24.8999C92.9121 24.6395 92.2529 24.5093 91.5205 24.5093H90.959C90.0475 24.5093 89.486 24.6558 89.2744 24.9487C89.0628 25.2336 88.957 26.0026 88.957 27.2559ZM85.9297 23.8257C85.9297 23.4351 86.1901 23.1909 86.7109 23.0933C87.6387 22.9224 88.9896 22.8369 90.7637 22.8369H91.3496C95.1419 22.8369 97.6077 24.2855 98.7471 27.1826C99.1458 28.1917 99.3452 29.327 99.3452 30.5884V30.6616V30.9668C99.3452 32.277 99.1133 33.571 98.6494 34.8486C98.1855 36.1182 97.506 37.1354 96.6108 37.9004C95.7238 38.6654 94.7635 39.2065 93.73 39.5239C92.6965 39.8332 91.3496 39.9878 89.6895 39.9878H89.4087L89.1157 39.9756C87.3416 39.9756 86.2023 39.8942 85.6978 39.7314C85.4292 39.6419 85.2949 39.4466 85.2949 39.1455C85.2949 39.056 85.4007 38.7793 85.6123 38.3154C85.9948 37.4772 86.186 35.9676 86.186 33.7866L86.3325 30.0879L86.3569 29.5264L86.3936 27.5854C86.3936 26.4299 86.3773 25.7218 86.3447 25.4614C86.3122 25.201 86.2349 24.8918 86.1128 24.5337C85.9907 24.1756 85.9297 23.9396 85.9297 23.8257ZM105.998 24.1309V24.2773C105.998 24.6924 105.876 25.0464 105.632 25.3394C105.396 25.6242 105.03 25.7666 104.533 25.7666H104.338L103.959 25.7178C103.74 25.7178 103.528 25.616 103.325 25.4126C103.121 25.2091 103.02 24.904 103.02 24.4971V24.3506L103.081 23.9111C103.081 23.7402 103.182 23.5286 103.386 23.2764C103.597 23.0241 103.866 22.8979 104.191 22.8979L104.472 22.8613H104.716L105.058 22.9102C105.27 22.9102 105.477 23.016 105.681 23.2275C105.892 23.431 105.998 23.7321 105.998 24.1309ZM105.424 29.2822L105.29 32.5659L105.266 32.8955L105.229 33.8965V34.3726C105.229 35.5444 105.262 36.3135 105.327 36.6797C105.4 37.0459 105.534 37.404 105.729 37.7539C105.925 38.0957 106.022 38.3439 106.022 38.4985V38.6084C106.022 39.0072 105.819 39.3245 105.412 39.5605C105.005 39.7965 104.452 39.9146 103.752 39.9146H103.447C103.04 39.9146 102.731 39.825 102.519 39.646C102.307 39.4588 102.202 39.2594 102.202 39.0479V38.7793C102.202 38.6735 102.295 38.2992 102.482 37.6562C102.67 37.0052 102.763 36.1222 102.763 35.0073C102.788 34.6899 102.8 34.4702 102.8 34.3481L102.836 33.6768L102.861 33.3472C102.902 32.7775 102.922 32.334 102.922 32.0166L102.934 31.5283C102.934 30.918 102.832 30.3768 102.629 29.9048C102.434 29.4328 102.336 29.1398 102.336 29.0259C102.336 28.4399 102.889 28.147 103.996 28.147H104.436C104.851 28.147 105.119 28.2568 105.241 28.4766C105.363 28.6882 105.424 28.9567 105.424 29.2822ZM109.941 33.1885C109.444 32.6839 109.196 31.9759 109.196 31.0645C109.196 30.153 109.603 29.3717 110.417 28.7207C111.231 28.0615 112.24 27.7319 113.444 27.7319H113.762C114.828 27.7319 115.674 27.8825 116.301 28.1836C116.936 28.4847 117.253 28.9364 117.253 29.5386C117.253 30.1326 116.988 30.4297 116.459 30.4297C116.321 30.4297 115.931 30.2669 115.288 29.9414C114.645 29.6077 114.038 29.4409 113.469 29.4409C112.899 29.4409 112.439 29.5711 112.089 29.8315C111.748 30.0838 111.577 30.4338 111.577 30.8813C111.577 31.3289 111.817 31.7196 112.297 32.0532C112.574 32.2485 113.225 32.5578 114.25 32.981C115.284 33.4041 116.02 33.811 116.459 34.2017C117.167 34.8283 117.521 35.6299 117.521 36.6064C117.521 37.583 117.106 38.4212 116.276 39.1211C115.446 39.8128 114.368 40.1587 113.042 40.1587H112.724C111.389 40.1587 110.389 39.9674 109.721 39.585C109.054 39.1943 108.72 38.6898 108.72 38.0713C108.72 37.4447 108.981 37.1313 109.501 37.1313C109.672 37.1313 110.116 37.3511 110.832 37.7905C111.556 38.23 112.264 38.4497 112.956 38.4497C113.656 38.4497 114.181 38.3032 114.531 38.0103C114.881 37.7091 115.056 37.3348 115.056 36.8872C115.056 36.4315 114.836 36.0327 114.396 35.6909C114.16 35.5037 113.485 35.166 112.37 34.6777C111.255 34.1813 110.445 33.6849 109.941 33.1885ZM120.915 33.6523V32.7124C120.915 31.5812 120.854 30.7552 120.732 30.2344C120.61 29.7054 120.549 29.3351 120.549 29.1235C120.549 28.6271 120.911 28.3789 121.635 28.3789C122.36 28.3789 122.884 28.5132 123.21 28.7817C123.299 28.855 123.413 28.9974 123.552 29.209C123.698 29.4206 123.828 29.5264 123.942 29.5264C123.967 29.5264 124.321 29.3188 125.004 28.9038C125.688 28.4888 126.274 28.2812 126.762 28.2812H126.945C127.344 28.2812 127.661 28.3789 127.897 28.5742C128.133 28.7614 128.251 28.9933 128.251 29.27V29.4287C128.251 29.7624 128.133 30.0024 127.897 30.1489C127.67 30.2954 127.303 30.3687 126.799 30.3687C125.651 30.3687 124.813 30.7715 124.284 31.5771C123.763 32.3828 123.503 33.807 123.503 35.8496C123.503 36.1426 123.552 36.5942 123.649 37.2046C123.755 37.8149 123.808 38.2747 123.808 38.584C123.808 38.8932 123.641 39.1903 123.308 39.4751C122.974 39.7599 122.551 39.9023 122.038 39.9023H121.623C121.175 39.9023 120.83 39.7965 120.585 39.585C120.349 39.3652 120.231 39.1007 120.231 38.7915C120.231 38.4741 120.288 38.1527 120.402 37.8271C120.712 36.9482 120.866 35.9798 120.866 34.9219C120.899 34.3359 120.915 33.9128 120.915 33.6523ZM132.304 32.5781V32.7734C132.304 33.0176 132.528 33.1396 132.976 33.1396H133.269L133.342 33.1274L133.94 33.0786C134.567 32.9891 134.973 32.9443 135.161 32.9443C136.048 32.9443 136.715 32.7775 137.163 32.4438C137.374 32.2811 137.48 31.9922 137.48 31.5771V31.4429C137.48 30.8325 137.277 30.3483 136.87 29.9902C136.471 29.6322 135.991 29.4531 135.429 29.4531H135.344L135.271 29.4653C134.481 29.4653 133.789 29.799 133.195 30.4663C132.601 31.1336 132.304 31.8376 132.304 32.5781ZM134.965 40.1587H134.697C133.142 40.1587 131.905 39.6663 130.986 38.6816C130.066 37.6888 129.606 36.3664 129.606 34.7144V34.1772C129.606 33.3879 129.761 32.5863 130.07 31.7725C130.697 30.1449 131.718 29.0218 133.134 28.4033C133.883 28.0697 134.644 27.9028 135.417 27.9028H135.942C137.008 27.9028 137.907 28.2609 138.64 28.9771C139.38 29.6851 139.75 30.6006 139.75 31.7236V31.9678C139.75 32.7653 139.433 33.3309 138.798 33.6646C138.359 33.9006 137.333 34.1366 135.722 34.3726C134.111 34.6086 133.232 34.751 133.085 34.7998C132.597 34.9707 132.353 35.2962 132.353 35.7764C132.353 36.4437 132.638 37.0133 133.208 37.4854C133.777 37.9574 134.542 38.1934 135.502 38.1934C135.95 38.1934 136.56 38.0713 137.333 37.8271C138.107 37.583 138.554 37.4609 138.676 37.4609C139.091 37.4609 139.299 37.64 139.299 37.998C139.299 38.4782 138.831 38.9583 137.895 39.4385C136.959 39.9186 135.983 40.1587 134.965 40.1587ZM144.56 34.3481V34.7266C144.56 35.8171 144.768 36.6715 145.183 37.29C145.598 37.9085 146.118 38.2178 146.745 38.2178H147.172C148.076 38.2178 148.78 37.8394 149.284 37.0825C149.789 36.3175 150.041 35.2474 150.041 33.8721C150.057 33.7093 150.065 33.5832 150.065 33.4937L150.09 32.9932V32.2607C150.074 32.098 150.065 31.9759 150.065 31.8945C150.065 31.2516 149.911 30.7471 149.602 30.3809C149.292 30.0146 148.837 29.8315 148.234 29.8315H147.893C146.932 29.8315 146.135 30.2344 145.5 31.04C144.873 31.8457 144.56 32.9484 144.56 34.3481ZM151.652 28.8306C152.36 28.8306 152.714 29.3433 152.714 30.3687C152.714 30.6372 152.604 31.7603 152.385 33.7378C152.165 35.7153 152.055 37.3958 152.055 38.7793C152.055 40.179 151.962 41.2288 151.774 41.9287C151.376 43.4342 150.452 44.5003 149.003 45.127C148.247 45.4525 147.408 45.6152 146.489 45.6152C145.577 45.6152 144.764 45.4525 144.047 45.127C143.339 44.8014 142.985 44.4108 142.985 43.9551C142.985 43.4342 143.335 43.1738 144.035 43.1738C144.174 43.1738 144.548 43.2267 145.158 43.3325C145.769 43.4383 146.208 43.4912 146.477 43.4912C147.461 43.4912 148.267 43.182 148.894 42.5635C149.528 41.9531 149.846 41.1678 149.846 40.2075C149.846 39.703 149.659 39.4507 149.284 39.4507C149.219 39.4507 149.064 39.4751 148.82 39.5239C148.129 39.6623 147.498 39.7314 146.928 39.7314C145.48 39.7314 144.389 39.292 143.657 38.4131C143.315 38.0062 143.022 37.465 142.778 36.7896C142.542 36.106 142.424 35.3857 142.424 34.6289V34.2871C142.424 33.4896 142.554 32.7043 142.814 31.9312C143.083 31.1499 143.437 30.4948 143.876 29.9658C144.316 29.4287 144.89 29.0096 145.598 28.7085C146.306 28.4074 147.03 28.2568 147.771 28.2568H148.088C148.503 28.2568 149.036 28.3708 149.687 28.5986C150.346 28.8184 150.749 28.9282 150.896 28.9282C151.221 28.8631 151.473 28.8306 151.652 28.8306ZM159.807 38.4619H160.124C160.791 38.4619 161.377 38.2381 161.882 37.7905C162.395 37.3348 162.651 36.8099 162.651 36.2158L162.675 36.0571V35.8984L162.7 35.52V34.8242C162.7 34.3522 162.46 34.1162 161.979 34.1162H161.43L161.345 34.1284L160.869 34.165C160.641 34.1976 160.478 34.2139 160.38 34.2139C159.721 34.2139 159.111 34.4621 158.549 34.9585C158.159 35.3084 157.963 35.8049 157.963 36.4478V36.6919C157.963 37.2371 158.138 37.6685 158.488 37.9858C158.846 38.3032 159.286 38.4619 159.807 38.4619ZM157.084 30.6616C156.539 30.6616 156.267 30.3117 156.267 29.6118C156.267 29.091 156.706 28.6393 157.585 28.2568C158.472 27.8662 159.392 27.6709 160.344 27.6709H160.954C161.776 27.6709 162.5 27.8255 163.127 28.1348C163.754 28.4359 164.23 28.8468 164.555 29.3677C164.889 29.8885 165.092 30.568 165.166 31.4062C165.182 31.6016 165.19 32.5496 165.19 34.2505C165.19 35.9513 165.21 36.932 165.251 37.1924C165.3 37.4447 165.43 37.7539 165.642 38.1201C165.861 38.4863 165.971 38.7874 165.971 39.0234C165.971 39.2594 165.857 39.4629 165.629 39.6338C165.41 39.7965 165.088 39.8779 164.665 39.8779C164.242 39.8779 163.782 39.7762 163.286 39.5728C162.789 39.3612 162.427 39.2554 162.199 39.2554C162.175 39.2554 161.768 39.4019 160.979 39.6948C160.189 39.9797 159.522 40.1221 158.977 40.1221H158.708C157.797 40.1221 157.019 39.8332 156.376 39.2554C155.742 38.6776 155.424 37.8556 155.424 36.7896C155.424 35.7235 155.774 34.8934 156.474 34.2993C157.174 33.6971 158.024 33.2861 159.025 33.0664C159.326 33.0013 159.827 32.9159 160.527 32.8101C161.227 32.7043 161.703 32.5944 161.955 32.4805C162.395 32.277 162.614 31.8945 162.614 31.333C162.614 30.7633 162.427 30.3198 162.053 30.0024C161.678 29.6769 161.231 29.5142 160.71 29.5142C160.197 29.5142 159.522 29.7054 158.684 30.0879C157.845 30.4704 157.312 30.6616 157.084 30.6616ZM169.597 33.6523V32.7124C169.597 31.5812 169.536 30.7552 169.414 30.2344C169.292 29.7054 169.23 29.3351 169.23 29.1235C169.23 28.6271 169.593 28.3789 170.317 28.3789C171.041 28.3789 171.566 28.5132 171.892 28.7817C171.981 28.855 172.095 28.9974 172.233 29.209C172.38 29.4206 172.51 29.5264 172.624 29.5264C172.648 29.5264 173.002 29.3188 173.686 28.9038C174.37 28.4888 174.956 28.2812 175.444 28.2812H175.627C176.026 28.2812 176.343 28.3789 176.579 28.5742C176.815 28.7614 176.933 28.9933 176.933 29.27V29.4287C176.933 29.7624 176.815 30.0024 176.579 30.1489C176.351 30.2954 175.985 30.3687 175.48 30.3687C174.333 30.3687 173.495 30.7715 172.966 31.5771C172.445 32.3828 172.185 33.807 172.185 35.8496C172.185 36.1426 172.233 36.5942 172.331 37.2046C172.437 37.8149 172.49 38.2747 172.49 38.584C172.49 38.8932 172.323 39.1903 171.989 39.4751C171.656 39.7599 171.232 39.9023 170.72 39.9023H170.305C169.857 39.9023 169.511 39.7965 169.267 39.585C169.031 39.3652 168.913 39.1007 168.913 38.7915C168.913 38.4741 168.97 38.1527 169.084 37.8271C169.393 36.9482 169.548 35.9798 169.548 34.9219C169.58 34.3359 169.597 33.9128 169.597 33.6523ZM180.864 34.0796V35.0073C180.864 35.9757 181.083 36.7855 181.523 37.4365C181.971 38.0794 182.495 38.4009 183.098 38.4009H183.439C184.367 38.4009 185.083 38.0306 185.588 37.29C186.101 36.5495 186.357 35.4468 186.357 33.9819C186.373 33.8029 186.381 33.6727 186.381 33.5913L186.406 33.3472L186.418 32.8345V31.9678C186.418 30.3076 185.755 29.4775 184.428 29.4775H183.952C183.09 29.4775 182.357 29.9129 181.755 30.7837C181.161 31.6545 180.864 32.7531 180.864 34.0796ZM178.52 34.6411C178.52 33.7948 178.671 32.9321 178.972 32.0532C179.273 31.1743 179.696 30.4256 180.241 29.8071C180.786 29.1805 181.401 28.7288 182.084 28.4521C182.768 28.1673 183.578 28.0249 184.514 28.0249C185.458 28.0249 186.044 27.854 186.271 27.5122C186.499 27.1623 186.613 26.3932 186.613 25.2051C186.613 24.9854 186.577 24.6924 186.503 24.3262C186.43 23.96 186.394 23.7484 186.394 23.6914C186.394 23.3415 186.544 23.0241 186.845 22.7393C187.146 22.4463 187.541 22.2998 188.029 22.2998H188.273C188.656 22.2998 188.941 22.3893 189.128 22.5684C189.315 22.7474 189.409 23.1217 189.409 23.6914V24.8267L189.384 25.4004C189.376 25.5957 189.372 25.8805 189.372 26.2549C189.372 26.6211 189.311 27.8011 189.189 29.7949C189.067 31.7887 189.006 33.16 189.006 33.9087L188.994 34.2017C188.986 34.397 188.981 34.5841 188.981 34.7632L188.969 35.0439C188.969 35.0439 188.969 35.3613 188.969 35.9961C188.969 36.818 189.034 37.4365 189.165 37.8516C189.295 38.2666 189.36 38.5636 189.36 38.7427C189.36 38.9217 189.258 39.1089 189.055 39.3042C188.851 39.4995 188.534 39.5972 188.103 39.5972C187.679 39.5972 187.268 39.528 186.87 39.3896C186.471 39.2432 186.178 39.1699 185.991 39.1699C185.804 39.1699 185.559 39.2269 185.258 39.3408C184.347 39.6745 183.513 39.8413 182.756 39.8413C182.74 39.8413 182.723 39.8413 182.707 39.8413H182.426C181.197 39.8413 180.237 39.3937 179.545 38.4985C178.862 37.5952 178.52 36.4111 178.52 34.9463V34.6411ZM193.437 33.1885C192.941 32.6839 192.692 31.9759 192.692 31.0645C192.692 30.153 193.099 29.3717 193.913 28.7207C194.727 28.0615 195.736 27.7319 196.94 27.7319H197.258C198.324 27.7319 199.17 27.8825 199.797 28.1836C200.432 28.4847 200.749 28.9364 200.749 29.5386C200.749 30.1326 200.485 30.4297 199.956 30.4297C199.817 30.4297 199.427 30.2669 198.784 29.9414C198.141 29.6077 197.535 29.4409 196.965 29.4409C196.395 29.4409 195.935 29.5711 195.585 29.8315C195.244 30.0838 195.073 30.4338 195.073 30.8813C195.073 31.3289 195.313 31.7196 195.793 32.0532C196.07 32.2485 196.721 32.5578 197.746 32.981C198.78 33.4041 199.516 33.811 199.956 34.2017C200.664 34.8283 201.018 35.6299 201.018 36.6064C201.018 37.583 200.603 38.4212 199.772 39.1211C198.942 39.8128 197.864 40.1587 196.538 40.1587H196.22C194.886 40.1587 193.885 39.9674 193.217 39.585C192.55 39.1943 192.216 38.6898 192.216 38.0713C192.216 37.4447 192.477 37.1313 192.998 37.1313C193.168 37.1313 193.612 37.3511 194.328 37.7905C195.052 38.23 195.76 38.4497 196.452 38.4497C197.152 38.4497 197.677 38.3032 198.027 38.0103C198.377 37.7091 198.552 37.3348 198.552 36.8872C198.552 36.4315 198.332 36.0327 197.893 35.6909C197.657 35.5037 196.981 35.166 195.866 34.6777C194.751 34.1813 193.942 33.6849 193.437 33.1885ZM211.979 39.7681C211.019 39.7681 210.539 39.4263 210.539 38.7427C210.539 38.4334 210.612 37.9736 210.759 37.3633C210.913 36.7529 211.015 36.1914 211.064 35.6787C211.113 35.1579 211.198 33.4814 211.32 30.6494C211.451 27.8174 211.516 26.0921 211.516 25.4736V24.0332L211.442 23.0078C211.442 22.6253 211.792 22.4341 212.492 22.4341C213.2 22.4341 213.66 22.7067 213.872 23.252C213.977 23.5286 214.03 24.432 214.03 25.9619C214.03 27.4919 214.059 28.3626 214.116 28.5742C214.181 28.7858 214.348 28.8916 214.616 28.8916C214.649 28.8916 214.803 28.8428 215.08 28.7451L215.349 28.6475C216.219 28.3057 216.972 28.1348 217.607 28.1348C218.942 28.1348 219.89 28.6556 220.451 29.6973C220.826 30.389 221.013 31.8945 221.013 34.2139C221.013 35.3044 221.021 35.9513 221.037 36.1548C221.053 36.3582 221.106 36.7285 221.196 37.2656C221.285 37.7946 221.33 38.0876 221.33 38.1445C221.33 38.6247 221.22 38.9827 221 39.2188C220.789 39.4466 220.402 39.5605 219.841 39.5605C219.287 39.5605 218.925 39.3896 218.754 39.0479C218.665 38.8688 218.62 38.3521 218.62 37.4976L218.583 35.3491L218.62 33.4082C218.62 31.2354 217.985 30.1489 216.716 30.1489C215.593 30.1489 214.791 30.6209 214.311 31.5649C213.831 32.509 213.591 34.2586 213.591 36.814L213.627 38.1445C213.627 38.6003 213.485 38.9868 213.2 39.3042C212.915 39.6134 212.508 39.7681 211.979 39.7681ZM228.435 39.9512C228.435 39.528 228.146 38.7874 227.568 37.7295C226.99 36.6634 226.506 35.6706 226.115 34.751C224.781 31.6178 224.113 29.8071 224.113 29.3188C224.113 29.0991 224.239 28.8997 224.492 28.7207C224.752 28.5417 225.183 28.4521 225.786 28.4521C226.388 28.4521 226.811 28.7085 227.055 29.2212C227.08 29.2782 227.165 29.6322 227.312 30.2832C228.418 34.3278 229.11 36.4478 229.387 36.6431C229.81 36.6431 230.388 35.6543 231.12 33.6768C231.617 32.334 231.922 31.2069 232.036 30.2954C232.158 29.384 232.255 28.859 232.329 28.7207C232.556 28.2975 233.028 28.0859 233.745 28.0859C234.469 28.0859 234.831 28.3667 234.831 28.9282C234.831 29.327 234.685 29.86 234.392 30.5273C234.099 31.1947 233.822 31.9189 233.562 32.7002C232.072 37.1598 230.994 39.9756 230.327 41.1475C229.659 42.3275 228.955 43.2552 228.215 43.9307C227.474 44.6143 226.73 44.9561 225.981 44.9561C225.24 44.9561 224.87 44.7445 224.87 44.3213C224.87 43.9469 225.249 43.6051 226.005 43.2959C226.77 42.9867 227.303 42.6286 227.604 42.2217C228.158 41.4811 228.435 40.7243 228.435 39.9512ZM239.165 34.3481V34.7266C239.165 35.8171 239.372 36.6715 239.787 37.29C240.202 37.9085 240.723 38.2178 241.35 38.2178H241.777C242.68 38.2178 243.384 37.8394 243.889 37.0825C244.393 36.3175 244.646 35.2474 244.646 33.8721C244.662 33.7093 244.67 33.5832 244.67 33.4937L244.694 32.9932V32.2607C244.678 32.098 244.67 31.9759 244.67 31.8945C244.67 31.2516 244.515 30.7471 244.206 30.3809C243.897 30.0146 243.441 29.8315 242.839 29.8315H242.497C241.537 29.8315 240.739 30.2344 240.104 31.04C239.478 31.8457 239.165 32.9484 239.165 34.3481ZM246.257 28.8306C246.965 28.8306 247.319 29.3433 247.319 30.3687C247.319 30.6372 247.209 31.7603 246.989 33.7378C246.77 35.7153 246.66 37.3958 246.66 38.7793C246.66 40.179 246.566 41.2288 246.379 41.9287C245.98 43.4342 245.056 44.5003 243.608 45.127C242.851 45.4525 242.013 45.6152 241.093 45.6152C240.182 45.6152 239.368 45.4525 238.652 45.127C237.944 44.8014 237.59 44.4108 237.59 43.9551C237.59 43.4342 237.94 43.1738 238.64 43.1738C238.778 43.1738 239.152 43.2267 239.763 43.3325C240.373 43.4383 240.812 43.4912 241.081 43.4912C242.066 43.4912 242.871 43.182 243.498 42.5635C244.133 41.9531 244.45 41.1678 244.45 40.2075C244.45 39.703 244.263 39.4507 243.889 39.4507C243.824 39.4507 243.669 39.4751 243.425 39.5239C242.733 39.6623 242.102 39.7314 241.533 39.7314C240.084 39.7314 238.994 39.292 238.261 38.4131C237.919 38.0062 237.626 37.465 237.382 36.7896C237.146 36.106 237.028 35.3857 237.028 34.6289V34.2871C237.028 33.4896 237.159 32.7043 237.419 31.9312C237.688 31.1499 238.042 30.4948 238.481 29.9658C238.92 29.4287 239.494 29.0096 240.202 28.7085C240.91 28.4074 241.634 28.2568 242.375 28.2568H242.692C243.107 28.2568 243.64 28.3708 244.292 28.5986C244.951 28.8184 245.354 28.9282 245.5 28.9282C245.826 28.8631 246.078 28.8306 246.257 28.8306ZM254.533 24.1309V24.2773C254.533 24.6924 254.411 25.0464 254.167 25.3394C253.931 25.6242 253.565 25.7666 253.068 25.7666H252.873L252.495 25.7178C252.275 25.7178 252.063 25.616 251.86 25.4126C251.656 25.2091 251.555 24.904 251.555 24.4971V24.3506L251.616 23.9111C251.616 23.7402 251.717 23.5286 251.921 23.2764C252.132 23.0241 252.401 22.8979 252.727 22.8979L253.007 22.8613H253.251L253.593 22.9102C253.805 22.9102 254.012 23.016 254.216 23.2275C254.427 23.431 254.533 23.7321 254.533 24.1309ZM253.959 29.2822L253.825 32.5659L253.801 32.8955L253.764 33.8965V34.3726C253.764 35.5444 253.797 36.3135 253.862 36.6797C253.935 37.0459 254.069 37.404 254.265 37.7539C254.46 38.0957 254.558 38.3439 254.558 38.4985V38.6084C254.558 39.0072 254.354 39.3245 253.947 39.5605C253.54 39.7965 252.987 39.9146 252.287 39.9146H251.982C251.575 39.9146 251.266 39.825 251.054 39.646C250.843 39.4588 250.737 39.2594 250.737 39.0479V38.7793C250.737 38.6735 250.83 38.2992 251.018 37.6562C251.205 37.0052 251.298 36.1222 251.298 35.0073C251.323 34.6899 251.335 34.4702 251.335 34.3481L251.372 33.6768L251.396 33.3472C251.437 32.7775 251.457 32.334 251.457 32.0166L251.469 31.5283C251.469 30.918 251.368 30.3768 251.164 29.9048C250.969 29.4328 250.871 29.1398 250.871 29.0259C250.871 28.4399 251.424 28.147 252.531 28.147H252.971C253.386 28.147 253.654 28.2568 253.776 28.4766C253.898 28.6882 253.959 28.9567 253.959 29.2822ZM259.794 32.5781V32.7734C259.794 33.0176 260.018 33.1396 260.466 33.1396H260.759L260.832 33.1274L261.43 33.0786C262.057 32.9891 262.464 32.9443 262.651 32.9443C263.538 32.9443 264.205 32.7775 264.653 32.4438C264.864 32.2811 264.97 31.9922 264.97 31.5771V31.4429C264.97 30.8325 264.767 30.3483 264.36 29.9902C263.961 29.6322 263.481 29.4531 262.919 29.4531H262.834L262.761 29.4653C261.971 29.4653 261.28 29.799 260.686 30.4663C260.091 31.1336 259.794 31.8376 259.794 32.5781ZM262.456 40.1587H262.187C260.633 40.1587 259.396 39.6663 258.476 38.6816C257.556 37.6888 257.097 36.3664 257.097 34.7144V34.1772C257.097 33.3879 257.251 32.5863 257.561 31.7725C258.187 30.1449 259.208 29.0218 260.625 28.4033C261.373 28.0697 262.134 27.9028 262.907 27.9028H263.432C264.498 27.9028 265.397 28.2609 266.13 28.9771C266.87 29.6851 267.241 30.6006 267.241 31.7236V31.9678C267.241 32.7653 266.923 33.3309 266.289 33.6646C265.849 33.9006 264.824 34.1366 263.212 34.3726C261.601 34.6086 260.722 34.751 260.576 34.7998C260.087 34.9707 259.843 35.2962 259.843 35.7764C259.843 36.4437 260.128 37.0133 260.698 37.4854C261.267 37.9574 262.032 38.1934 262.993 38.1934C263.44 38.1934 264.051 38.0713 264.824 37.8271C265.597 37.583 266.044 37.4609 266.167 37.4609C266.582 37.4609 266.789 37.64 266.789 37.998C266.789 38.4782 266.321 38.9583 265.385 39.4385C264.449 39.9186 263.473 40.1587 262.456 40.1587ZM281.096 38.5352C281.096 39.1374 280.571 39.4385 279.521 39.4385C278.927 39.4385 278.528 39.2961 278.325 39.0112C278.227 38.8729 278.178 38.5474 278.178 38.0347L278.142 37.2534C278.085 36.3989 278.056 35.5404 278.056 34.6777C278.056 32.8141 277.893 31.5649 277.568 30.9302C277.25 30.2873 276.713 29.9658 275.957 29.9658C275.452 29.9658 274.984 30.1164 274.553 30.4175C274.13 30.7186 273.804 31.1377 273.576 31.6748C273.104 32.7734 272.868 34.8039 272.868 37.7661C272.868 38.4416 272.738 38.9176 272.478 39.1943C272.225 39.471 271.9 39.6094 271.501 39.6094H271.257C270.345 39.6094 269.89 39.2472 269.89 38.5229V38.23C269.89 38.1405 269.938 37.9451 270.036 37.644L270.231 37.0825C270.427 36.4233 270.524 35.0114 270.524 32.8467L270.585 29.2212C270.585 28.7573 270.838 28.5254 271.342 28.5254C271.847 28.5254 272.343 28.6922 272.832 29.0259C273.328 29.3595 273.641 29.5264 273.771 29.5264C273.91 29.5264 274.15 29.4328 274.492 29.2456C275.639 28.619 276.559 28.3057 277.25 28.3057H277.568C278.813 28.3057 279.688 28.8672 280.192 29.9902C280.437 30.5192 280.559 31.6585 280.559 33.4082V33.4937C280.559 33.6401 280.555 33.7866 280.546 33.9331C280.546 34.3319 280.546 34.5394 280.546 34.5557C280.546 34.7103 280.546 34.8608 280.546 35.0073C280.546 35.1213 280.546 35.2311 280.546 35.3369C280.546 35.9635 280.567 36.3908 280.607 36.6187C280.664 36.9279 280.758 37.2493 280.888 37.583C281.027 37.9492 281.096 38.2666 281.096 38.5352ZM286.162 32.5781V32.7734C286.162 33.0176 286.385 33.1396 286.833 33.1396H287.126L287.199 33.1274L287.797 33.0786C288.424 32.9891 288.831 32.9443 289.018 32.9443C289.905 32.9443 290.572 32.7775 291.02 32.4438C291.232 32.2811 291.337 31.9922 291.337 31.5771V31.4429C291.337 30.8325 291.134 30.3483 290.727 29.9902C290.328 29.6322 289.848 29.4531 289.287 29.4531H289.201L289.128 29.4653C288.339 29.4653 287.647 29.799 287.053 30.4663C286.459 31.1336 286.162 31.8376 286.162 32.5781ZM288.823 40.1587H288.554C287 40.1587 285.763 39.6663 284.843 38.6816C283.924 37.6888 283.464 36.3664 283.464 34.7144V34.1772C283.464 33.3879 283.618 32.5863 283.928 31.7725C284.554 30.1449 285.576 29.0218 286.992 28.4033C287.74 28.0697 288.501 27.9028 289.274 27.9028H289.799C290.865 27.9028 291.765 28.2609 292.497 28.9771C293.238 29.6851 293.608 30.6006 293.608 31.7236V31.9678C293.608 32.7653 293.291 33.3309 292.656 33.6646C292.216 33.9006 291.191 34.1366 289.58 34.3726C287.968 34.6086 287.089 34.751 286.943 34.7998C286.455 34.9707 286.21 35.2962 286.21 35.7764C286.21 36.4437 286.495 37.0133 287.065 37.4854C287.635 37.9574 288.4 38.1934 289.36 38.1934C289.807 38.1934 290.418 38.0713 291.191 37.8271C291.964 37.583 292.412 37.4609 292.534 37.4609C292.949 37.4609 293.156 37.64 293.156 37.998C293.156 38.4782 292.688 38.9583 291.752 39.4385C290.817 39.9186 289.84 40.1587 288.823 40.1587ZM297.978 40.1953H297.6C297.193 40.1953 296.875 40.1017 296.647 39.9146C296.428 39.7274 296.318 39.4792 296.318 39.1699C296.302 39.1048 296.293 39.0519 296.293 39.0112L296.269 38.8037V38.584L296.281 38.5352V38.4253C296.298 38.3602 296.306 38.3073 296.306 38.2666C296.306 37.9004 296.428 37.6156 296.672 37.4121C296.924 37.2005 297.201 37.0947 297.502 37.0947L297.758 37.0581H298.088C298.975 37.0581 299.418 37.522 299.418 38.4497V38.6206L299.37 39.0356C299.37 39.41 299.227 39.6989 298.942 39.9023C298.666 40.0977 298.344 40.1953 297.978 40.1953ZM309.294 32.395V32.0044C309.294 30.7104 309.497 29.4613 309.904 28.2568C310.669 26.0026 312.016 24.4198 313.945 23.5083C314.995 23.0119 316.081 22.7637 317.204 22.7637H317.583C319.283 22.7637 320.492 23.0119 321.208 23.5083C321.924 24.0047 322.282 24.6313 322.282 25.3882C322.282 25.8439 322.193 26.1491 322.014 26.3037C321.835 26.4583 321.66 26.5356 321.489 26.5356C321.326 26.5356 320.972 26.3485 320.427 25.9741C319.89 25.5998 319.369 25.3109 318.864 25.1074C318.36 24.8958 317.729 24.79 316.972 24.79C316.215 24.79 315.528 24.9772 314.909 25.3516C313.054 26.4827 312.122 28.8062 312.114 32.3218C312.114 33.2332 312.236 34.0552 312.48 34.7876C313.221 37.0011 314.698 38.1079 316.911 38.1079C317.985 38.1079 319.222 37.7173 320.622 36.936C321.062 36.6919 321.387 36.5698 321.599 36.5698C321.949 36.5698 322.124 36.7692 322.124 37.168C322.124 37.4202 322.01 37.701 321.782 38.0103C321.383 38.5636 320.862 38.999 320.219 39.3164C319.129 39.8617 317.916 40.1343 316.582 40.1343H316.191C314.108 40.1343 312.431 39.4385 311.162 38.0469C310.559 37.3877 310.096 36.5576 309.77 35.5566C309.453 34.5557 309.294 33.5018 309.294 32.395ZM325.676 33.6523V32.7124C325.676 31.5812 325.615 30.7552 325.493 30.2344C325.371 29.7054 325.31 29.3351 325.31 29.1235C325.31 28.6271 325.672 28.3789 326.396 28.3789C327.12 28.3789 327.645 28.5132 327.971 28.7817C328.06 28.855 328.174 28.9974 328.312 29.209C328.459 29.4206 328.589 29.5264 328.703 29.5264C328.728 29.5264 329.082 29.3188 329.765 28.9038C330.449 28.4888 331.035 28.2812 331.523 28.2812H331.706C332.105 28.2812 332.422 28.3789 332.658 28.5742C332.894 28.7614 333.012 28.9933 333.012 29.27V29.4287C333.012 29.7624 332.894 30.0024 332.658 30.1489C332.43 30.2954 332.064 30.3687 331.56 30.3687C330.412 30.3687 329.574 30.7715 329.045 31.5771C328.524 32.3828 328.264 33.807 328.264 35.8496C328.264 36.1426 328.312 36.5942 328.41 37.2046C328.516 37.8149 328.569 38.2747 328.569 38.584C328.569 38.8932 328.402 39.1903 328.068 39.4751C327.735 39.7599 327.312 39.9023 326.799 39.9023H326.384C325.936 39.9023 325.59 39.7965 325.346 39.585C325.11 39.3652 324.992 39.1007 324.992 38.7915C324.992 38.4741 325.049 38.1527 325.163 37.8271C325.472 36.9482 325.627 35.9798 325.627 34.9219C325.66 34.3359 325.676 33.9128 325.676 33.6523ZM337.065 32.5781V32.7734C337.065 33.0176 337.289 33.1396 337.736 33.1396H338.029L338.103 33.1274L338.701 33.0786C339.327 32.9891 339.734 32.9443 339.921 32.9443C340.808 32.9443 341.476 32.7775 341.923 32.4438C342.135 32.2811 342.241 31.9922 342.241 31.5771V31.4429C342.241 30.8325 342.037 30.3483 341.63 29.9902C341.232 29.6322 340.751 29.4531 340.19 29.4531H340.104L340.031 29.4653C339.242 29.4653 338.55 29.799 337.956 30.4663C337.362 31.1336 337.065 31.8376 337.065 32.5781ZM339.726 40.1587H339.458C337.903 40.1587 336.666 39.6663 335.747 38.6816C334.827 37.6888 334.367 36.3664 334.367 34.7144V34.1772C334.367 33.3879 334.522 32.5863 334.831 31.7725C335.458 30.1449 336.479 29.0218 337.895 28.4033C338.644 28.0697 339.405 27.9028 340.178 27.9028H340.703C341.769 27.9028 342.668 28.2609 343.4 28.9771C344.141 29.6851 344.511 30.6006 344.511 31.7236V31.9678C344.511 32.7653 344.194 33.3309 343.559 33.6646C343.12 33.9006 342.094 34.1366 340.483 34.3726C338.872 34.6086 337.993 34.751 337.846 34.7998C337.358 34.9707 337.114 35.2962 337.114 35.7764C337.114 36.4437 337.399 37.0133 337.968 37.4854C338.538 37.9574 339.303 38.1934 340.263 38.1934C340.711 38.1934 341.321 38.0713 342.094 37.8271C342.867 37.583 343.315 37.4609 343.437 37.4609C343.852 37.4609 344.06 37.64 344.06 37.998C344.06 38.4782 343.592 38.9583 342.656 39.4385C341.72 39.9186 340.743 40.1587 339.726 40.1587ZM351.066 38.4619H351.384C352.051 38.4619 352.637 38.2381 353.142 37.7905C353.654 37.3348 353.911 36.8099 353.911 36.2158L353.935 36.0571V35.8984L353.959 35.52V34.8242C353.959 34.3522 353.719 34.1162 353.239 34.1162H352.69L352.604 34.1284L352.128 34.165C351.901 34.1976 351.738 34.2139 351.64 34.2139C350.981 34.2139 350.371 34.4621 349.809 34.9585C349.418 35.3084 349.223 35.8049 349.223 36.4478V36.6919C349.223 37.2371 349.398 37.6685 349.748 37.9858C350.106 38.3032 350.546 38.4619 351.066 38.4619ZM348.344 30.6616C347.799 30.6616 347.526 30.3117 347.526 29.6118C347.526 29.091 347.966 28.6393 348.845 28.2568C349.732 27.8662 350.651 27.6709 351.604 27.6709H352.214C353.036 27.6709 353.76 27.8255 354.387 28.1348C355.013 28.4359 355.489 28.8468 355.815 29.3677C356.149 29.8885 356.352 30.568 356.425 31.4062C356.442 31.6016 356.45 32.5496 356.45 34.2505C356.45 35.9513 356.47 36.932 356.511 37.1924C356.56 37.4447 356.69 37.7539 356.901 38.1201C357.121 38.4863 357.231 38.7874 357.231 39.0234C357.231 39.2594 357.117 39.4629 356.889 39.6338C356.669 39.7965 356.348 39.8779 355.925 39.8779C355.502 39.8779 355.042 39.7762 354.545 39.5728C354.049 39.3612 353.687 39.2554 353.459 39.2554C353.435 39.2554 353.028 39.4019 352.238 39.6948C351.449 39.9797 350.782 40.1221 350.236 40.1221H349.968C349.056 40.1221 348.279 39.8332 347.636 39.2554C347.001 38.6776 346.684 37.8556 346.684 36.7896C346.684 35.7235 347.034 34.8934 347.734 34.2993C348.434 33.6971 349.284 33.2861 350.285 33.0664C350.586 33.0013 351.087 32.9159 351.787 32.8101C352.486 32.7043 352.963 32.5944 353.215 32.4805C353.654 32.277 353.874 31.8945 353.874 31.333C353.874 30.7633 353.687 30.3198 353.312 30.0024C352.938 29.6769 352.491 29.5142 351.97 29.5142C351.457 29.5142 350.782 29.7054 349.943 30.0879C349.105 30.4704 348.572 30.6616 348.344 30.6616ZM366.411 38.6938C366.411 39.0194 366.211 39.3123 365.812 39.5728C365.422 39.825 364.889 39.9512 364.213 39.9512C362.952 39.9512 362.065 39.4832 361.552 38.5474C361.235 37.9614 361.076 36.5902 361.076 34.4336C361.076 32.277 361.04 31.0238 360.966 30.6738C360.893 30.3239 360.69 29.9821 360.356 29.6484C360.022 29.3148 359.855 29.0584 359.855 28.8794C359.855 28.8143 360.25 28.387 361.04 27.5977C361.21 27.4268 361.381 27.0483 361.552 26.4624C361.731 25.8765 361.857 25.4899 361.931 25.3027C362.175 24.7168 362.496 24.4238 362.895 24.4238H363.09C363.44 24.4238 363.688 24.5581 363.835 24.8267C363.892 24.9325 363.977 25.3149 364.091 25.9741C364.213 26.6252 364.352 27.0443 364.506 27.2314C364.661 27.4186 365.048 27.6261 365.666 27.854C366.293 28.0737 366.606 28.3097 366.606 28.562V28.6963C366.606 29.0218 366.248 29.2985 365.532 29.5264C364.824 29.7461 364.368 30.1001 364.165 30.5884C363.766 31.5731 363.566 33.1763 363.566 35.3979C363.566 36.4396 363.745 37.1476 364.104 37.522C364.323 37.7498 364.763 37.9085 365.422 37.998C366.081 38.0876 366.411 38.3195 366.411 38.6938ZM371.391 32.5781V32.7734C371.391 33.0176 371.615 33.1396 372.062 33.1396H372.355L372.429 33.1274L373.027 33.0786C373.653 32.9891 374.06 32.9443 374.248 32.9443C375.135 32.9443 375.802 32.7775 376.25 32.4438C376.461 32.2811 376.567 31.9922 376.567 31.5771V31.4429C376.567 30.8325 376.363 30.3483 375.957 29.9902C375.558 29.6322 375.078 29.4531 374.516 29.4531H374.431L374.357 29.4653C373.568 29.4653 372.876 29.799 372.282 30.4663C371.688 31.1336 371.391 31.8376 371.391 32.5781ZM374.052 40.1587H373.784C372.229 40.1587 370.992 39.6663 370.073 38.6816C369.153 37.6888 368.693 36.3664 368.693 34.7144V34.1772C368.693 33.3879 368.848 32.5863 369.157 31.7725C369.784 30.1449 370.805 29.0218 372.221 28.4033C372.97 28.0697 373.731 27.9028 374.504 27.9028H375.029C376.095 27.9028 376.994 28.2609 377.727 28.9771C378.467 29.6851 378.837 30.6006 378.837 31.7236V31.9678C378.837 32.7653 378.52 33.3309 377.885 33.6646C377.446 33.9006 376.42 34.1366 374.809 34.3726C373.198 34.6086 372.319 34.751 372.172 34.7998C371.684 34.9707 371.44 35.2962 371.44 35.7764C371.44 36.4437 371.725 37.0133 372.294 37.4854C372.864 37.9574 373.629 38.1934 374.589 38.1934C375.037 38.1934 375.647 38.0713 376.42 37.8271C377.194 37.583 377.641 37.4609 377.763 37.4609C378.178 37.4609 378.386 37.64 378.386 37.998C378.386 38.4782 377.918 38.9583 376.982 39.4385C376.046 39.9186 375.069 40.1587 374.052 40.1587ZM382.353 33.1885C381.857 32.6839 381.608 31.9759 381.608 31.0645C381.608 30.153 382.015 29.3717 382.829 28.7207C383.643 28.0615 384.652 27.7319 385.856 27.7319H386.174C387.24 27.7319 388.086 27.8825 388.713 28.1836C389.348 28.4847 389.665 28.9364 389.665 29.5386C389.665 30.1326 389.401 30.4297 388.872 30.4297C388.733 30.4297 388.343 30.2669 387.7 29.9414C387.057 29.6077 386.451 29.4409 385.881 29.4409C385.311 29.4409 384.851 29.5711 384.501 29.8315C384.16 30.0838 383.989 30.4338 383.989 30.8813C383.989 31.3289 384.229 31.7196 384.709 32.0532C384.986 32.2485 385.637 32.5578 386.662 32.981C387.696 33.4041 388.432 33.811 388.872 34.2017C389.58 34.8283 389.934 35.6299 389.934 36.6064C389.934 37.583 389.519 38.4212 388.688 39.1211C387.858 39.8128 386.78 40.1587 385.454 40.1587H385.136C383.802 40.1587 382.801 39.9674 382.133 39.585C381.466 39.1943 381.132 38.6898 381.132 38.0713C381.132 37.4447 381.393 37.1313 381.914 37.1313C382.084 37.1313 382.528 37.3511 383.244 37.7905C383.968 38.23 384.676 38.4497 385.368 38.4497C386.068 38.4497 386.593 38.3032 386.943 38.0103C387.293 37.7091 387.468 37.3348 387.468 36.8872C387.468 36.4315 387.248 36.0327 386.809 35.6909C386.573 35.5037 385.897 35.166 384.782 34.6777C383.667 34.1813 382.858 33.6849 382.353 33.1885ZM401.518 34.0796V35.0073C401.518 35.9757 401.738 36.7855 402.177 37.4365C402.625 38.0794 403.15 38.4009 403.752 38.4009H404.094C405.021 38.4009 405.738 38.0306 406.242 37.29C406.755 36.5495 407.011 35.4468 407.011 33.9819C407.028 33.8029 407.036 33.6727 407.036 33.5913L407.06 33.3472L407.072 32.8345V31.9678C407.072 30.3076 406.409 29.4775 405.083 29.4775H404.606C403.744 29.4775 403.011 29.9129 402.409 30.7837C401.815 31.6545 401.518 32.7531 401.518 34.0796ZM399.174 34.6411C399.174 33.7948 399.325 32.9321 399.626 32.0532C399.927 31.1743 400.35 30.4256 400.896 29.8071C401.441 29.1805 402.055 28.7288 402.739 28.4521C403.422 28.1673 404.232 28.0249 405.168 28.0249C406.112 28.0249 406.698 27.854 406.926 27.5122C407.154 27.1623 407.268 26.3932 407.268 25.2051C407.268 24.9854 407.231 24.6924 407.158 24.3262C407.084 23.96 407.048 23.7484 407.048 23.6914C407.048 23.3415 407.198 23.0241 407.5 22.7393C407.801 22.4463 408.195 22.2998 408.684 22.2998H408.928C409.31 22.2998 409.595 22.3893 409.782 22.5684C409.969 22.7474 410.063 23.1217 410.063 23.6914V24.8267L410.039 25.4004C410.03 25.5957 410.026 25.8805 410.026 26.2549C410.026 26.6211 409.965 27.8011 409.843 29.7949C409.721 31.7887 409.66 33.16 409.66 33.9087L409.648 34.2017C409.64 34.397 409.636 34.5841 409.636 34.7632L409.624 35.0439C409.624 35.0439 409.624 35.3613 409.624 35.9961C409.624 36.818 409.689 37.4365 409.819 37.8516C409.949 38.2666 410.014 38.5636 410.014 38.7427C410.014 38.9217 409.912 39.1089 409.709 39.3042C409.506 39.4995 409.188 39.5972 408.757 39.5972C408.334 39.5972 407.923 39.528 407.524 39.3896C407.125 39.2432 406.832 39.1699 406.645 39.1699C406.458 39.1699 406.214 39.2269 405.913 39.3408C405.001 39.6745 404.167 39.8413 403.41 39.8413C403.394 39.8413 403.378 39.8413 403.361 39.8413H403.081C401.852 39.8413 400.891 39.3937 400.2 38.4985C399.516 37.5952 399.174 36.4111 399.174 34.9463V34.6411ZM417.155 24.1309V24.2773C417.155 24.6924 417.033 25.0464 416.789 25.3394C416.553 25.6242 416.187 25.7666 415.69 25.7666H415.495L415.117 25.7178C414.897 25.7178 414.685 25.616 414.482 25.4126C414.278 25.2091 414.177 24.904 414.177 24.4971V24.3506L414.238 23.9111C414.238 23.7402 414.34 23.5286 414.543 23.2764C414.755 23.0241 415.023 22.8979 415.349 22.8979L415.629 22.8613H415.874L416.215 22.9102C416.427 22.9102 416.634 23.016 416.838 23.2275C417.049 23.431 417.155 23.7321 417.155 24.1309ZM416.582 29.2822L416.447 32.5659L416.423 32.8955L416.386 33.8965V34.3726C416.386 35.5444 416.419 36.3135 416.484 36.6797C416.557 37.0459 416.691 37.404 416.887 37.7539C417.082 38.0957 417.18 38.3439 417.18 38.4985V38.6084C417.18 39.0072 416.976 39.3245 416.569 39.5605C416.162 39.7965 415.609 39.9146 414.909 39.9146H414.604C414.197 39.9146 413.888 39.825 413.676 39.646C413.465 39.4588 413.359 39.2594 413.359 39.0479V38.7793C413.359 38.6735 413.452 38.2992 413.64 37.6562C413.827 37.0052 413.92 36.1222 413.92 35.0073C413.945 34.6899 413.957 34.4702 413.957 34.3481L413.994 33.6768L414.018 33.3472C414.059 32.7775 414.079 32.334 414.079 32.0166L414.091 31.5283C414.091 30.918 413.99 30.3768 413.786 29.9048C413.591 29.4328 413.493 29.1398 413.493 29.0259C413.493 28.4399 414.047 28.147 415.153 28.147H415.593C416.008 28.147 416.276 28.2568 416.398 28.4766C416.521 28.6882 416.582 28.9567 416.582 29.2822ZM421.098 33.1885C420.602 32.6839 420.354 31.9759 420.354 31.0645C420.354 30.153 420.76 29.3717 421.574 28.7207C422.388 28.0615 423.397 27.7319 424.602 27.7319H424.919C425.985 27.7319 426.831 27.8825 427.458 28.1836C428.093 28.4847 428.41 28.9364 428.41 29.5386C428.41 30.1326 428.146 30.4297 427.617 30.4297C427.478 30.4297 427.088 30.2669 426.445 29.9414C425.802 29.6077 425.196 29.4409 424.626 29.4409C424.056 29.4409 423.597 29.5711 423.247 29.8315C422.905 30.0838 422.734 30.4338 422.734 30.8813C422.734 31.3289 422.974 31.7196 423.454 32.0532C423.731 32.2485 424.382 32.5578 425.407 32.981C426.441 33.4041 427.177 33.811 427.617 34.2017C428.325 34.8283 428.679 35.6299 428.679 36.6064C428.679 37.583 428.264 38.4212 427.434 39.1211C426.604 39.8128 425.525 40.1587 424.199 40.1587H423.881C422.547 40.1587 421.546 39.9674 420.878 39.585C420.211 39.1943 419.877 38.6898 419.877 38.0713C419.877 37.4447 420.138 37.1313 420.659 37.1313C420.83 37.1313 421.273 37.3511 421.989 37.7905C422.714 38.23 423.422 38.4497 424.113 38.4497C424.813 38.4497 425.338 38.3032 425.688 38.0103C426.038 37.7091 426.213 37.3348 426.213 36.8872C426.213 36.4315 425.993 36.0327 425.554 35.6909C425.318 35.5037 424.642 35.166 423.527 34.6777C422.412 34.1813 421.603 33.6849 421.098 33.1885ZM433.427 34.8486C433.427 35.9147 433.671 36.8018 434.16 37.5098C434.648 38.2178 435.246 38.5718 435.954 38.5718H436.32C437.159 38.5718 437.867 38.1486 438.444 37.3022C439.03 36.4559 439.323 35.3288 439.323 33.9209V33.1152C439.323 32.0247 439.083 31.1336 438.603 30.4419C438.131 29.742 437.521 29.3921 436.772 29.3921H436.528C435.657 29.3921 434.925 29.8234 434.331 30.686C433.745 31.5487 433.452 32.5781 433.452 33.7744L433.427 34.0552V34.8486ZM436.186 40.2319H435.795C434.371 40.2319 433.212 39.7355 432.316 38.7427C431.421 37.7498 430.974 36.342 430.974 34.519L430.986 34.3115C430.986 32.3096 431.515 30.7308 432.573 29.5752C433.126 28.9648 433.757 28.5173 434.465 28.2324C435.181 27.9395 435.861 27.793 436.503 27.793H437.102C437.818 27.793 438.505 27.9517 439.165 28.269C441.053 29.1805 441.997 30.8976 441.997 33.4204V33.6157C441.988 34.4377 441.854 35.2718 441.594 36.1182C441.073 37.7865 440.072 38.9665 438.591 39.6582C437.769 40.0407 436.967 40.2319 436.186 40.2319ZM445.305 33.6523V32.7124C445.305 31.5812 445.244 30.7552 445.122 30.2344C445 29.7054 444.938 29.3351 444.938 29.1235C444.938 28.6271 445.301 28.3789 446.025 28.3789C446.749 28.3789 447.274 28.5132 447.6 28.7817C447.689 28.855 447.803 28.9974 447.941 29.209C448.088 29.4206 448.218 29.5264 448.332 29.5264C448.356 29.5264 448.71 29.3188 449.394 28.9038C450.078 28.4888 450.664 28.2812 451.152 28.2812H451.335C451.734 28.2812 452.051 28.3789 452.287 28.5742C452.523 28.7614 452.641 28.9933 452.641 29.27V29.4287C452.641 29.7624 452.523 30.0024 452.287 30.1489C452.059 30.2954 451.693 30.3687 451.188 30.3687C450.041 30.3687 449.203 30.7715 448.674 31.5771C448.153 32.3828 447.893 33.807 447.893 35.8496C447.893 36.1426 447.941 36.5942 448.039 37.2046C448.145 37.8149 448.198 38.2747 448.198 38.584C448.198 38.8932 448.031 39.1903 447.697 39.4751C447.364 39.7599 446.94 39.9023 446.428 39.9023H446.013C445.565 39.9023 445.219 39.7965 444.975 39.585C444.739 39.3652 444.621 39.1007 444.621 38.7915C444.621 38.4741 444.678 38.1527 444.792 37.8271C445.101 36.9482 445.256 35.9798 445.256 34.9219C445.288 34.3359 445.305 33.9128 445.305 33.6523ZM456.572 34.0796V35.0073C456.572 35.9757 456.792 36.7855 457.231 37.4365C457.679 38.0794 458.203 38.4009 458.806 38.4009H459.147C460.075 38.4009 460.791 38.0306 461.296 37.29C461.809 36.5495 462.065 35.4468 462.065 33.9819C462.081 33.8029 462.089 33.6727 462.089 33.5913L462.114 33.3472L462.126 32.8345V31.9678C462.126 30.3076 461.463 29.4775 460.136 29.4775H459.66C458.798 29.4775 458.065 29.9129 457.463 30.7837C456.869 31.6545 456.572 32.7531 456.572 34.0796ZM454.228 34.6411C454.228 33.7948 454.379 32.9321 454.68 32.0532C454.981 31.1743 455.404 30.4256 455.949 29.8071C456.494 29.1805 457.109 28.7288 457.792 28.4521C458.476 28.1673 459.286 28.0249 460.222 28.0249C461.166 28.0249 461.752 27.854 461.979 27.5122C462.207 27.1623 462.321 26.3932 462.321 25.2051C462.321 24.9854 462.285 24.6924 462.211 24.3262C462.138 23.96 462.102 23.7484 462.102 23.6914C462.102 23.3415 462.252 23.0241 462.553 22.7393C462.854 22.4463 463.249 22.2998 463.737 22.2998H463.981C464.364 22.2998 464.649 22.3893 464.836 22.5684C465.023 22.7474 465.117 23.1217 465.117 23.6914V24.8267L465.092 25.4004C465.084 25.5957 465.08 25.8805 465.08 26.2549C465.08 26.6211 465.019 27.8011 464.897 29.7949C464.775 31.7887 464.714 33.16 464.714 33.9087L464.702 34.2017C464.694 34.397 464.689 34.5841 464.689 34.7632L464.677 35.0439C464.677 35.0439 464.677 35.3613 464.677 35.9961C464.677 36.818 464.742 37.4365 464.873 37.8516C465.003 38.2666 465.068 38.5636 465.068 38.7427C465.068 38.9217 464.966 39.1089 464.763 39.3042C464.559 39.4995 464.242 39.5972 463.811 39.5972C463.387 39.5972 462.976 39.528 462.578 39.3896C462.179 39.2432 461.886 39.1699 461.699 39.1699C461.512 39.1699 461.267 39.2269 460.966 39.3408C460.055 39.6745 459.221 39.8413 458.464 39.8413C458.448 39.8413 458.431 39.8413 458.415 39.8413H458.134C456.905 39.8413 455.945 39.3937 455.253 38.4985C454.57 37.5952 454.228 36.4111 454.228 34.9463V34.6411ZM470.463 32.5781V32.7734C470.463 33.0176 470.687 33.1396 471.135 33.1396H471.428L471.501 33.1274L472.099 33.0786C472.726 32.9891 473.133 32.9443 473.32 32.9443C474.207 32.9443 474.874 32.7775 475.322 32.4438C475.533 32.2811 475.639 31.9922 475.639 31.5771V31.4429C475.639 30.8325 475.436 30.3483 475.029 29.9902C474.63 29.6322 474.15 29.4531 473.588 29.4531H473.503L473.43 29.4653C472.64 29.4653 471.949 29.799 471.354 30.4663C470.76 31.1336 470.463 31.8376 470.463 32.5781ZM473.125 40.1587H472.856C471.302 40.1587 470.065 39.6663 469.145 38.6816C468.225 37.6888 467.766 36.3664 467.766 34.7144V34.1772C467.766 33.3879 467.92 32.5863 468.229 31.7725C468.856 30.1449 469.877 29.0218 471.293 28.4033C472.042 28.0697 472.803 27.9028 473.576 27.9028H474.101C475.167 27.9028 476.066 28.2609 476.799 28.9771C477.539 29.6851 477.91 30.6006 477.91 31.7236V31.9678C477.91 32.7653 477.592 33.3309 476.958 33.6646C476.518 33.9006 475.493 34.1366 473.881 34.3726C472.27 34.6086 471.391 34.751 471.245 34.7998C470.756 34.9707 470.512 35.2962 470.512 35.7764C470.512 36.4437 470.797 37.0133 471.367 37.4854C471.936 37.9574 472.701 38.1934 473.662 38.1934C474.109 38.1934 474.72 38.0713 475.493 37.8271C476.266 37.583 476.713 37.4609 476.835 37.4609C477.25 37.4609 477.458 37.64 477.458 37.998C477.458 38.4782 476.99 38.9583 476.054 39.4385C475.118 39.9186 474.142 40.1587 473.125 40.1587ZM481.34 33.6523V32.7124C481.34 31.5812 481.279 30.7552 481.157 30.2344C481.035 29.7054 480.974 29.3351 480.974 29.1235C480.974 28.6271 481.336 28.3789 482.06 28.3789C482.784 28.3789 483.309 28.5132 483.635 28.7817C483.724 28.855 483.838 28.9974 483.977 29.209C484.123 29.4206 484.253 29.5264 484.367 29.5264C484.392 29.5264 484.746 29.3188 485.429 28.9038C486.113 28.4888 486.699 28.2812 487.187 28.2812H487.37C487.769 28.2812 488.086 28.3789 488.322 28.5742C488.558 28.7614 488.676 28.9933 488.676 29.27V29.4287C488.676 29.7624 488.558 30.0024 488.322 30.1489C488.094 30.2954 487.728 30.3687 487.224 30.3687C486.076 30.3687 485.238 30.7715 484.709 31.5771C484.188 32.3828 483.928 33.807 483.928 35.8496C483.928 36.1426 483.977 36.5942 484.074 37.2046C484.18 37.8149 484.233 38.2747 484.233 38.584C484.233 38.8932 484.066 39.1903 483.732 39.4751C483.399 39.7599 482.976 39.9023 482.463 39.9023H482.048C481.6 39.9023 481.254 39.7965 481.01 39.585C480.774 39.3652 480.656 39.1007 480.656 38.7915C480.656 38.4741 480.713 38.1527 480.827 37.8271C481.136 36.9482 481.291 35.9798 481.291 34.9219C481.324 34.3359 481.34 33.9128 481.34 33.6523ZM491.435 40.1953H491.057C490.65 40.1953 490.332 40.1017 490.104 39.9146C489.885 39.7274 489.775 39.4792 489.775 39.1699C489.759 39.1048 489.75 39.0519 489.75 39.0112L489.726 38.8037V38.584L489.738 38.5352V38.4253C489.755 38.3602 489.763 38.3073 489.763 38.2666C489.763 37.9004 489.885 37.6156 490.129 37.4121C490.381 37.2005 490.658 37.0947 490.959 37.0947L491.215 37.0581H491.545C492.432 37.0581 492.875 37.522 492.875 38.4497V38.6206L492.827 39.0356C492.827 39.41 492.684 39.6989 492.399 39.9023C492.123 40.0977 491.801 40.1953 491.435 40.1953ZM504.46 26.2793L504.252 24.0942C504.252 23.9233 504.362 23.7524 504.582 23.5815C504.802 23.4025 505.127 23.313 505.559 23.313C506.543 23.313 507.337 23.7646 507.939 24.668C508.549 25.5713 509.493 27.6221 510.771 30.8203C511.324 32.1712 511.65 32.9362 511.748 33.1152L512.016 33.4692C512.195 33.4692 512.993 32.1427 514.409 29.4897C515.825 26.8286 516.708 25.2539 517.058 24.7656C517.757 23.7891 518.649 23.3008 519.731 23.3008C520.496 23.3008 520.878 23.5815 520.878 24.1431L520.805 24.5459L520.695 25.0342C520.606 25.5306 520.545 26.6374 520.512 28.3545C520.48 30.0635 520.431 31.7806 520.366 33.5059L520.305 35.4346C520.305 36.2565 520.349 36.8343 520.439 37.168L520.61 37.644C520.773 38.0835 520.854 38.4131 520.854 38.6328C520.854 38.8444 520.736 39.0438 520.5 39.231C520.264 39.4181 520 39.5117 519.707 39.5117H519.243C518.828 39.5117 518.453 39.3449 518.12 39.0112C517.786 38.6776 517.619 38.3276 517.619 37.9614C517.619 37.5871 517.656 37.0296 517.729 36.2891C517.81 35.5485 517.851 33.9657 517.851 31.5405C517.851 29.1073 517.778 27.8906 517.631 27.8906C517.412 27.8906 516.651 29.2741 515.349 32.041C514.055 34.8079 513.229 36.46 512.871 36.9971C512.513 37.5342 512.114 37.8027 511.674 37.8027C511.243 37.8027 510.869 37.4976 510.551 36.8872C510.429 36.6512 509.851 35.105 508.818 32.2485C507.792 29.384 507.158 27.9517 506.914 27.9517C506.808 27.9517 506.706 28.0941 506.608 28.3789C506.519 28.6556 506.352 29.9414 506.108 32.2363C505.872 34.5312 505.754 36.0775 505.754 36.875C505.754 37.6644 505.624 38.2585 505.363 38.6572C505.103 39.0479 504.651 39.2432 504.008 39.2432C503.365 39.2432 503.044 38.9339 503.044 38.3154C503.044 38.234 503.162 37.8841 503.398 37.2656C503.634 36.6471 503.793 35.9595 503.874 35.2026C504.265 31.6138 504.46 28.6393 504.46 26.2793ZM528.044 38.4619H528.361C529.029 38.4619 529.615 38.2381 530.119 37.7905C530.632 37.3348 530.888 36.8099 530.888 36.2158L530.913 36.0571V35.8984L530.937 35.52V34.8242C530.937 34.3522 530.697 34.1162 530.217 34.1162H529.667L529.582 34.1284L529.106 34.165C528.878 34.1976 528.715 34.2139 528.618 34.2139C527.958 34.2139 527.348 34.4621 526.787 34.9585C526.396 35.3084 526.201 35.8049 526.201 36.4478V36.6919C526.201 37.2371 526.376 37.6685 526.726 37.9858C527.084 38.3032 527.523 38.4619 528.044 38.4619ZM525.322 30.6616C524.777 30.6616 524.504 30.3117 524.504 29.6118C524.504 29.091 524.943 28.6393 525.822 28.2568C526.709 27.8662 527.629 27.6709 528.581 27.6709H529.191C530.013 27.6709 530.738 27.8255 531.364 28.1348C531.991 28.4359 532.467 28.8468 532.792 29.3677C533.126 29.8885 533.33 30.568 533.403 31.4062C533.419 31.6016 533.427 32.5496 533.427 34.2505C533.427 35.9513 533.448 36.932 533.488 37.1924C533.537 37.4447 533.667 37.7539 533.879 38.1201C534.099 38.4863 534.208 38.7874 534.208 39.0234C534.208 39.2594 534.095 39.4629 533.867 39.6338C533.647 39.7965 533.326 39.8779 532.902 39.8779C532.479 39.8779 532.019 39.7762 531.523 39.5728C531.027 39.3612 530.664 39.2554 530.437 39.2554C530.412 39.2554 530.005 39.4019 529.216 39.6948C528.426 39.9797 527.759 40.1221 527.214 40.1221H526.945C526.034 40.1221 525.257 39.8332 524.614 39.2554C523.979 38.6776 523.662 37.8556 523.662 36.7896C523.662 35.7235 524.012 34.8934 524.711 34.2993C525.411 33.6971 526.262 33.2861 527.263 33.0664C527.564 33.0013 528.064 32.9159 528.764 32.8101C529.464 32.7043 529.94 32.5944 530.192 32.4805C530.632 32.277 530.852 31.8945 530.852 31.333C530.852 30.7633 530.664 30.3198 530.29 30.0024C529.916 29.6769 529.468 29.5142 528.947 29.5142C528.435 29.5142 527.759 29.7054 526.921 30.0879C526.083 30.4704 525.55 30.6616 525.322 30.6616ZM541.386 34.6533C540.662 34.6533 540.3 35.6095 540.3 37.522C540.3 38.3521 540.129 38.9136 539.787 39.2065C539.445 39.4995 539.034 39.646 538.554 39.646C538.074 39.646 537.732 39.5646 537.529 39.4019C537.333 39.2391 537.236 38.9339 537.236 38.4863C537.236 38.4538 537.281 38.1323 537.37 37.522C537.46 36.9116 537.574 35.0155 537.712 31.8335C537.85 28.6434 537.919 26.6943 537.919 25.9863C537.919 25.2783 537.899 24.8185 537.858 24.6069C537.826 24.3872 537.769 24.1227 537.688 23.8135C537.614 23.5042 537.578 23.3089 537.578 23.2275C537.578 22.8695 537.696 22.6253 537.932 22.4951C538.176 22.3568 538.579 22.2876 539.14 22.2876C539.71 22.2876 540.084 22.4341 540.263 22.7271C540.45 23.02 540.544 23.61 540.544 24.4971L540.385 29.6729C540.385 31.154 540.556 31.8945 540.898 31.8945C541.167 31.8945 541.826 31.3411 542.875 30.2344C543.933 29.1276 544.475 28.5661 544.499 28.5498C544.825 28.3219 545.317 28.208 545.976 28.208C546.635 28.208 546.965 28.3708 546.965 28.6963C546.965 28.859 546.44 29.5467 545.39 30.7593C544.34 31.9718 543.815 32.863 543.815 33.4326C543.815 33.7419 544.414 34.7591 545.61 36.4844C546.041 37.1029 546.448 37.64 546.831 38.0957C547.221 38.5433 547.417 38.8647 547.417 39.0601C547.417 39.467 547.038 39.6704 546.281 39.6704C545.533 39.6704 544.955 39.4548 544.548 39.0234C544.45 38.9176 544.222 38.5596 543.864 37.9492C543.506 37.3389 543.254 36.9116 543.107 36.6675C542.269 35.3247 541.695 34.6533 541.386 34.6533ZM552.177 32.5781V32.7734C552.177 33.0176 552.401 33.1396 552.849 33.1396H553.142L553.215 33.1274L553.813 33.0786C554.44 32.9891 554.847 32.9443 555.034 32.9443C555.921 32.9443 556.588 32.7775 557.036 32.4438C557.247 32.2811 557.353 31.9922 557.353 31.5771V31.4429C557.353 30.8325 557.15 30.3483 556.743 29.9902C556.344 29.6322 555.864 29.4531 555.302 29.4531H555.217L555.144 29.4653C554.354 29.4653 553.662 29.799 553.068 30.4663C552.474 31.1336 552.177 31.8376 552.177 32.5781ZM554.838 40.1587H554.57C553.015 40.1587 551.778 39.6663 550.859 38.6816C549.939 37.6888 549.479 36.3664 549.479 34.7144V34.1772C549.479 33.3879 549.634 32.5863 549.943 31.7725C550.57 30.1449 551.591 29.0218 553.007 28.4033C553.756 28.0697 554.517 27.9028 555.29 27.9028H555.815C556.881 27.9028 557.78 28.2609 558.513 28.9771C559.253 29.6851 559.624 30.6006 559.624 31.7236V31.9678C559.624 32.7653 559.306 33.3309 558.671 33.6646C558.232 33.9006 557.207 34.1366 555.595 34.3726C553.984 34.6086 553.105 34.751 552.958 34.7998C552.47 34.9707 552.226 35.2962 552.226 35.7764C552.226 36.4437 552.511 37.0133 553.081 37.4854C553.65 37.9574 554.415 38.1934 555.375 38.1934C555.823 38.1934 556.433 38.0713 557.207 37.8271C557.98 37.583 558.427 37.4609 558.549 37.4609C558.964 37.4609 559.172 37.64 559.172 37.998C559.172 38.4782 558.704 38.9583 557.768 39.4385C556.832 39.9186 555.856 40.1587 554.838 40.1587ZM563.139 33.1885C562.643 32.6839 562.395 31.9759 562.395 31.0645C562.395 30.153 562.801 29.3717 563.615 28.7207C564.429 28.0615 565.438 27.7319 566.643 27.7319H566.96C568.026 27.7319 568.872 27.8825 569.499 28.1836C570.134 28.4847 570.451 28.9364 570.451 29.5386C570.451 30.1326 570.187 30.4297 569.658 30.4297C569.519 30.4297 569.129 30.2669 568.486 29.9414C567.843 29.6077 567.237 29.4409 566.667 29.4409C566.097 29.4409 565.638 29.5711 565.288 29.8315C564.946 30.0838 564.775 30.4338 564.775 30.8813C564.775 31.3289 565.015 31.7196 565.495 32.0532C565.772 32.2485 566.423 32.5578 567.448 32.981C568.482 33.4041 569.218 33.811 569.658 34.2017C570.366 34.8283 570.72 35.6299 570.72 36.6064C570.72 37.583 570.305 38.4212 569.475 39.1211C568.645 39.8128 567.566 40.1587 566.24 40.1587H565.922C564.588 40.1587 563.587 39.9674 562.919 39.585C562.252 39.1943 561.918 38.6898 561.918 38.0713C561.918 37.4447 562.179 37.1313 562.7 37.1313C562.871 37.1313 563.314 37.3511 564.03 37.7905C564.755 38.23 565.463 38.4497 566.154 38.4497C566.854 38.4497 567.379 38.3032 567.729 38.0103C568.079 37.7091 568.254 37.3348 568.254 36.8872C568.254 36.4315 568.034 36.0327 567.595 35.6909C567.359 35.5037 566.683 35.166 565.568 34.6777C564.453 34.1813 563.644 33.6849 563.139 33.1885ZM582.329 34.8486C582.329 35.9147 582.573 36.8018 583.061 37.5098C583.549 38.2178 584.147 38.5718 584.855 38.5718H585.222C586.06 38.5718 586.768 38.1486 587.346 37.3022C587.932 36.4559 588.225 35.3288 588.225 33.9209V33.1152C588.225 32.0247 587.985 31.1336 587.504 30.4419C587.032 29.742 586.422 29.3921 585.673 29.3921H585.429C584.558 29.3921 583.826 29.8234 583.232 30.686C582.646 31.5487 582.353 32.5781 582.353 33.7744L582.329 34.0552V34.8486ZM585.087 40.2319H584.697C583.273 40.2319 582.113 39.7355 581.218 38.7427C580.323 37.7498 579.875 36.342 579.875 34.519L579.887 34.3115C579.887 32.3096 580.416 30.7308 581.474 29.5752C582.028 28.9648 582.658 28.5173 583.366 28.2324C584.082 27.9395 584.762 27.793 585.405 27.793H586.003C586.719 27.793 587.407 27.9517 588.066 28.269C589.954 29.1805 590.898 30.8976 590.898 33.4204V33.6157C590.89 34.4377 590.756 35.2718 590.495 36.1182C589.974 37.7865 588.973 38.9665 587.492 39.6582C586.67 40.0407 585.869 40.2319 585.087 40.2319ZM599.76 38.6938C599.76 39.0194 599.561 39.3123 599.162 39.5728C598.771 39.825 598.238 39.9512 597.563 39.9512C596.302 39.9512 595.415 39.4832 594.902 38.5474C594.584 37.9614 594.426 36.5902 594.426 34.4336C594.426 32.277 594.389 31.0238 594.316 30.6738C594.243 30.3239 594.039 29.9821 593.706 29.6484C593.372 29.3148 593.205 29.0584 593.205 28.8794C593.205 28.8143 593.6 28.387 594.389 27.5977C594.56 27.4268 594.731 27.0483 594.902 26.4624C595.081 25.8765 595.207 25.4899 595.28 25.3027C595.524 24.7168 595.846 24.4238 596.245 24.4238H596.44C596.79 24.4238 597.038 24.5581 597.185 24.8267C597.242 24.9325 597.327 25.3149 597.441 25.9741C597.563 26.6252 597.701 27.0443 597.856 27.2314C598.011 27.4186 598.397 27.6261 599.016 27.854C599.642 28.0737 599.956 28.3097 599.956 28.562V28.6963C599.956 29.0218 599.597 29.2985 598.881 29.5264C598.173 29.7461 597.718 30.1001 597.514 30.5884C597.115 31.5731 596.916 33.1763 596.916 35.3979C596.916 36.4396 597.095 37.1476 597.453 37.522C597.673 37.7498 598.112 37.9085 598.771 37.998C599.431 38.0876 599.76 38.3195 599.76 38.6938ZM604.045 39.7681C603.085 39.7681 602.604 39.4263 602.604 38.7427C602.604 38.4334 602.678 37.9736 602.824 37.3633C602.979 36.7529 603.081 36.1914 603.129 35.6787C603.178 35.1579 603.264 33.4814 603.386 30.6494C603.516 27.8174 603.581 26.0921 603.581 25.4736V24.0332L603.508 23.0078C603.508 22.6253 603.858 22.4341 604.558 22.4341C605.266 22.4341 605.725 22.7067 605.937 23.252C606.043 23.5286 606.096 24.432 606.096 25.9619C606.096 27.4919 606.124 28.3626 606.181 28.5742C606.246 28.7858 606.413 28.8916 606.682 28.8916C606.714 28.8916 606.869 28.8428 607.146 28.7451L607.414 28.6475C608.285 28.3057 609.038 28.1348 609.672 28.1348C611.007 28.1348 611.955 28.6556 612.517 29.6973C612.891 30.389 613.078 31.8945 613.078 34.2139C613.078 35.3044 613.086 35.9513 613.103 36.1548C613.119 36.3582 613.172 36.7285 613.261 37.2656C613.351 37.7946 613.396 38.0876 613.396 38.1445C613.396 38.6247 613.286 38.9827 613.066 39.2188C612.854 39.4466 612.468 39.5605 611.906 39.5605C611.353 39.5605 610.991 39.3896 610.82 39.0479C610.73 38.8688 610.686 38.3521 610.686 37.4976L610.649 35.3491L610.686 33.4082C610.686 31.2354 610.051 30.1489 608.781 30.1489C607.658 30.1489 606.857 30.6209 606.376 31.5649C605.896 32.509 605.656 34.2586 605.656 36.814L605.693 38.1445C605.693 38.6003 605.55 38.9868 605.266 39.3042C604.981 39.6134 604.574 39.7681 604.045 39.7681ZM618.73 32.5781V32.7734C618.73 33.0176 618.954 33.1396 619.401 33.1396H619.694L619.768 33.1274L620.366 33.0786C620.992 32.9891 621.399 32.9443 621.586 32.9443C622.473 32.9443 623.141 32.7775 623.588 32.4438C623.8 32.2811 623.906 31.9922 623.906 31.5771V31.4429C623.906 30.8325 623.702 30.3483 623.295 29.9902C622.897 29.6322 622.417 29.4531 621.855 29.4531H621.77L621.696 29.4653C620.907 29.4653 620.215 29.799 619.621 30.4663C619.027 31.1336 618.73 31.8376 618.73 32.5781ZM621.391 40.1587H621.123C619.568 40.1587 618.331 39.6663 617.412 38.6816C616.492 37.6888 616.032 36.3664 616.032 34.7144V34.1772C616.032 33.3879 616.187 32.5863 616.496 31.7725C617.123 30.1449 618.144 29.0218 619.56 28.4033C620.309 28.0697 621.07 27.9028 621.843 27.9028H622.368C623.434 27.9028 624.333 28.2609 625.065 28.9771C625.806 29.6851 626.176 30.6006 626.176 31.7236V31.9678C626.176 32.7653 625.859 33.3309 625.224 33.6646C624.785 33.9006 623.759 34.1366 622.148 34.3726C620.537 34.6086 619.658 34.751 619.511 34.7998C619.023 34.9707 618.779 35.2962 618.779 35.7764C618.779 36.4437 619.064 37.0133 619.633 37.4854C620.203 37.9574 620.968 38.1934 621.928 38.1934C622.376 38.1934 622.986 38.0713 623.759 37.8271C624.532 37.583 624.98 37.4609 625.102 37.4609C625.517 37.4609 625.725 37.64 625.725 37.998C625.725 38.4782 625.257 38.9583 624.321 39.4385C623.385 39.9186 622.408 40.1587 621.391 40.1587ZM629.606 33.6523V32.7124C629.606 31.5812 629.545 30.7552 629.423 30.2344C629.301 29.7054 629.24 29.3351 629.24 29.1235C629.24 28.6271 629.602 28.3789 630.327 28.3789C631.051 28.3789 631.576 28.5132 631.901 28.7817C631.991 28.855 632.105 28.9974 632.243 29.209C632.39 29.4206 632.52 29.5264 632.634 29.5264C632.658 29.5264 633.012 29.3188 633.696 28.9038C634.379 28.4888 634.965 28.2812 635.454 28.2812H635.637C636.035 28.2812 636.353 28.3789 636.589 28.5742C636.825 28.7614 636.943 28.9933 636.943 29.27V29.4287C636.943 29.7624 636.825 30.0024 636.589 30.1489C636.361 30.2954 635.995 30.3687 635.49 30.3687C634.343 30.3687 633.505 30.7715 632.976 31.5771C632.455 32.3828 632.194 33.807 632.194 35.8496C632.194 36.1426 632.243 36.5942 632.341 37.2046C632.447 37.8149 632.5 38.2747 632.5 38.584C632.5 38.8932 632.333 39.1903 631.999 39.4751C631.665 39.7599 631.242 39.9023 630.729 39.9023H630.314C629.867 39.9023 629.521 39.7965 629.277 39.585C629.041 39.3652 628.923 39.1007 628.923 38.7915C628.923 38.4741 628.98 38.1527 629.094 37.8271C629.403 36.9482 629.558 35.9798 629.558 34.9219C629.59 34.3359 629.606 33.9128 629.606 33.6523ZM639.824 33.1885C639.327 32.6839 639.079 31.9759 639.079 31.0645C639.079 30.153 639.486 29.3717 640.3 28.7207C641.114 28.0615 642.123 27.7319 643.327 27.7319H643.645C644.711 27.7319 645.557 27.8825 646.184 28.1836C646.818 28.4847 647.136 28.9364 647.136 29.5386C647.136 30.1326 646.871 30.4297 646.342 30.4297C646.204 30.4297 645.813 30.2669 645.17 29.9414C644.528 29.6077 643.921 29.4409 643.352 29.4409C642.782 29.4409 642.322 29.5711 641.972 29.8315C641.63 30.0838 641.459 30.4338 641.459 30.8813C641.459 31.3289 641.7 31.7196 642.18 32.0532C642.456 32.2485 643.107 32.5578 644.133 32.981C645.166 33.4041 645.903 33.811 646.342 34.2017C647.05 34.8283 647.404 35.6299 647.404 36.6064C647.404 37.583 646.989 38.4212 646.159 39.1211C645.329 39.8128 644.251 40.1587 642.924 40.1587H642.607C641.272 40.1587 640.271 39.9674 639.604 39.585C638.937 39.1943 638.603 38.6898 638.603 38.0713C638.603 37.4447 638.863 37.1313 639.384 37.1313C639.555 37.1313 639.999 37.3511 640.715 37.7905C641.439 38.23 642.147 38.4497 642.839 38.4497C643.539 38.4497 644.064 38.3032 644.414 38.0103C644.764 37.7091 644.938 37.3348 644.938 36.8872C644.938 36.4315 644.719 36.0327 644.279 35.6909C644.043 35.5037 643.368 35.166 642.253 34.6777C641.138 34.1813 640.328 33.6849 639.824 33.1885ZM658.989 34.0796V35.0073C658.989 35.9757 659.208 36.7855 659.648 37.4365C660.096 38.0794 660.62 38.4009 661.223 38.4009H661.564C662.492 38.4009 663.208 38.0306 663.713 37.29C664.226 36.5495 664.482 35.4468 664.482 33.9819C664.498 33.8029 664.506 33.6727 664.506 33.5913L664.531 33.3472L664.543 32.8345V31.9678C664.543 30.3076 663.88 29.4775 662.553 29.4775H662.077C661.215 29.4775 660.482 29.9129 659.88 30.7837C659.286 31.6545 658.989 32.7531 658.989 34.0796ZM656.645 34.6411C656.645 33.7948 656.796 32.9321 657.097 32.0532C657.398 31.1743 657.821 30.4256 658.366 29.8071C658.911 29.1805 659.526 28.7288 660.209 28.4521C660.893 28.1673 661.703 28.0249 662.639 28.0249C663.583 28.0249 664.169 27.854 664.396 27.5122C664.624 27.1623 664.738 26.3932 664.738 25.2051C664.738 24.9854 664.702 24.6924 664.628 24.3262C664.555 23.96 664.519 23.7484 664.519 23.6914C664.519 23.3415 664.669 23.0241 664.97 22.7393C665.271 22.4463 665.666 22.2998 666.154 22.2998H666.398C666.781 22.2998 667.066 22.3893 667.253 22.5684C667.44 22.7474 667.534 23.1217 667.534 23.6914V24.8267L667.509 25.4004C667.501 25.5957 667.497 25.8805 667.497 26.2549C667.497 26.6211 667.436 27.8011 667.314 29.7949C667.192 31.7887 667.131 33.16 667.131 33.9087L667.119 34.2017C667.111 34.397 667.106 34.5841 667.106 34.7632L667.094 35.0439C667.094 35.0439 667.094 35.3613 667.094 35.9961C667.094 36.818 667.159 37.4365 667.29 37.8516C667.42 38.2666 667.485 38.5636 667.485 38.7427C667.485 38.9217 667.383 39.1089 667.18 39.3042C666.976 39.4995 666.659 39.5972 666.228 39.5972C665.804 39.5972 665.393 39.528 664.995 39.3896C664.596 39.2432 664.303 39.1699 664.116 39.1699C663.929 39.1699 663.684 39.2269 663.383 39.3408C662.472 39.6745 661.638 39.8413 660.881 39.8413C660.865 39.8413 660.848 39.8413 660.832 39.8413H660.551C659.322 39.8413 658.362 39.3937 657.67 38.4985C656.987 37.5952 656.645 36.4111 656.645 34.9463V34.6411ZM672.783 34.8486C672.783 35.9147 673.027 36.8018 673.515 37.5098C674.003 38.2178 674.602 38.5718 675.31 38.5718H675.676C676.514 38.5718 677.222 38.1486 677.8 37.3022C678.386 36.4559 678.679 35.3288 678.679 33.9209V33.1152C678.679 32.0247 678.439 31.1336 677.958 30.4419C677.486 29.742 676.876 29.3921 676.127 29.3921H675.883C675.013 29.3921 674.28 29.8234 673.686 30.686C673.1 31.5487 672.807 32.5781 672.807 33.7744L672.783 34.0552V34.8486ZM675.542 40.2319H675.151C673.727 40.2319 672.567 39.7355 671.672 38.7427C670.777 37.7498 670.329 36.342 670.329 34.519L670.341 34.3115C670.341 32.3096 670.87 30.7308 671.928 29.5752C672.482 28.9648 673.112 28.5173 673.82 28.2324C674.536 27.9395 675.216 27.793 675.859 27.793H676.457C677.173 27.793 677.861 27.9517 678.52 28.269C680.408 29.1805 681.352 30.8976 681.352 33.4204V33.6157C681.344 34.4377 681.21 35.2718 680.949 36.1182C680.428 37.7865 679.427 38.9665 677.946 39.6582C677.124 40.0407 676.323 40.2319 675.542 40.2319ZM323.759 68.6938C323.759 69.0194 323.56 69.3123 323.161 69.5728C322.771 69.825 322.237 69.9512 321.562 69.9512C320.301 69.9512 319.414 69.4832 318.901 68.5474C318.583 67.9614 318.425 66.5902 318.425 64.4336C318.425 62.277 318.388 61.0238 318.315 60.6738C318.242 60.3239 318.038 59.9821 317.705 59.6484C317.371 59.3148 317.204 59.0584 317.204 58.8794C317.204 58.8143 317.599 58.387 318.388 57.5977C318.559 57.4268 318.73 57.0483 318.901 56.4624C319.08 55.8765 319.206 55.4899 319.279 55.3027C319.523 54.7168 319.845 54.4238 320.244 54.4238H320.439C320.789 54.4238 321.037 54.5581 321.184 54.8267C321.241 54.9325 321.326 55.3149 321.44 55.9741C321.562 56.6252 321.7 57.0443 321.855 57.2314C322.01 57.4186 322.396 57.6261 323.015 57.854C323.641 58.0737 323.955 58.3097 323.955 58.562V58.6963C323.955 59.0218 323.597 59.2985 322.88 59.5264C322.172 59.7461 321.717 60.1001 321.513 60.5884C321.114 61.5731 320.915 63.1763 320.915 65.3979C320.915 66.4396 321.094 67.1476 321.452 67.522C321.672 67.7498 322.111 67.9085 322.771 67.998C323.43 68.0876 323.759 68.3195 323.759 68.6938ZM328.044 69.7681C327.084 69.7681 326.604 69.4263 326.604 68.7427C326.604 68.4334 326.677 67.9736 326.823 67.3633C326.978 66.7529 327.08 66.1914 327.128 65.6787C327.177 65.1579 327.263 63.4814 327.385 60.6494C327.515 57.8174 327.58 56.0921 327.58 55.4736V54.0332L327.507 53.0078C327.507 52.6253 327.857 52.4341 328.557 52.4341C329.265 52.4341 329.724 52.7067 329.936 53.252C330.042 53.5286 330.095 54.432 330.095 55.9619C330.095 57.4919 330.123 58.3626 330.18 58.5742C330.245 58.7858 330.412 58.8916 330.681 58.8916C330.713 58.8916 330.868 58.8428 331.145 58.7451L331.413 58.6475C332.284 58.3057 333.037 58.1348 333.671 58.1348C335.006 58.1348 335.954 58.6556 336.516 59.6973C336.89 60.389 337.077 61.8945 337.077 64.2139C337.077 65.3044 337.085 65.9513 337.102 66.1548C337.118 66.3582 337.171 66.7285 337.26 67.2656C337.35 67.7946 337.395 68.0876 337.395 68.1445C337.395 68.6247 337.285 68.9827 337.065 69.2188C336.853 69.4466 336.467 69.5605 335.905 69.5605C335.352 69.5605 334.99 69.3896 334.819 69.0479C334.729 68.8688 334.685 68.3521 334.685 67.4976L334.648 65.3491L334.685 63.4082C334.685 61.2354 334.05 60.1489 332.78 60.1489C331.657 60.1489 330.856 60.6209 330.375 61.5649C329.895 62.509 329.655 64.2586 329.655 66.814L329.692 68.1445C329.692 68.6003 329.549 68.9868 329.265 69.3042C328.98 69.6134 328.573 69.7681 328.044 69.7681ZM342.729 62.5781V62.7734C342.729 63.0176 342.953 63.1396 343.4 63.1396H343.693L343.767 63.1274L344.365 63.0786C344.991 62.9891 345.398 62.9443 345.585 62.9443C346.472 62.9443 347.14 62.7775 347.587 62.4438C347.799 62.2811 347.905 61.9922 347.905 61.5771V61.4429C347.905 60.8325 347.701 60.3483 347.294 59.9902C346.896 59.6322 346.416 59.4531 345.854 59.4531H345.769L345.695 59.4653C344.906 59.4653 344.214 59.799 343.62 60.4663C343.026 61.1336 342.729 61.8376 342.729 62.5781ZM345.39 70.1587H345.122C343.567 70.1587 342.33 69.6663 341.411 68.6816C340.491 67.6888 340.031 66.3664 340.031 64.7144V64.1772C340.031 63.3879 340.186 62.5863 340.495 61.7725C341.122 60.1449 342.143 59.0218 343.559 58.4033C344.308 58.0697 345.069 57.9028 345.842 57.9028H346.367C347.433 57.9028 348.332 58.2609 349.064 58.9771C349.805 59.6851 350.175 60.6006 350.175 61.7236V61.9678C350.175 62.7653 349.858 63.3309 349.223 63.6646C348.784 63.9006 347.758 64.1366 346.147 64.3726C344.536 64.6086 343.657 64.751 343.51 64.7998C343.022 64.9707 342.778 65.2962 342.778 65.7764C342.778 66.4437 343.063 67.0133 343.632 67.4854C344.202 67.9574 344.967 68.1934 345.927 68.1934C346.375 68.1934 346.985 68.0713 347.758 67.8271C348.531 67.583 348.979 67.4609 349.101 67.4609C349.516 67.4609 349.724 67.64 349.724 67.998C349.724 68.4782 349.256 68.9583 348.32 69.4385C347.384 69.9186 346.407 70.1587 345.39 70.1587ZM359.306 64.9219V64.3604C359.306 63.335 359.465 62.4276 359.782 61.6382C360.393 60.1082 361.328 59.0503 362.59 58.4644C363.412 58.0737 364.262 57.8784 365.141 57.8784H365.41C366.378 57.8784 367.18 58.0697 367.814 58.4521C368.449 58.8346 368.767 59.3026 368.767 59.856C368.767 60.4989 368.457 60.8203 367.839 60.8203C367.725 60.8203 367.326 60.6413 366.643 60.2832C365.959 59.9333 365.397 59.7583 364.958 59.7583C364.95 59.7583 364.942 59.7583 364.934 59.7583C363.973 59.7583 363.221 60.1733 362.675 61.0034C362.138 61.8335 361.87 62.9159 361.87 64.2505C361.87 65.5851 362.154 66.5739 362.724 67.2168C363.302 67.8597 364.104 68.1812 365.129 68.1812C365.552 68.1812 366.134 68.0632 366.875 67.8271C367.615 67.583 368.067 67.4609 368.229 67.4609C368.563 67.4609 368.73 67.6359 368.73 67.9858C368.73 68.4578 368.262 68.9339 367.326 69.4141C366.39 69.8942 365.471 70.1343 364.567 70.1343C362.15 70.1343 360.551 69.1821 359.77 67.2778C359.461 66.521 359.306 65.7357 359.306 64.9219ZM372.014 53.0322C372.014 52.4382 372.571 52.1411 373.686 52.1411H373.906C374.37 52.1411 374.687 52.255 374.858 52.4829C375.029 52.7026 375.114 53.134 375.114 53.7769L375.017 55.5957C374.992 55.8805 374.98 56.0352 374.98 56.0596L374.956 56.5234C374.939 56.8245 374.923 57.1297 374.907 57.439L374.87 57.9028L374.833 58.5986C374.703 61.0726 374.638 62.8996 374.638 64.0796C374.638 65.2515 374.691 66.0938 374.797 66.6064C374.903 67.1191 375.069 67.5545 375.297 67.9126C375.525 68.2707 375.639 68.5067 375.639 68.6206V68.7671C375.639 69.1252 375.46 69.41 375.102 69.6216C374.752 69.8332 374.276 69.939 373.674 69.939H373.039C372.665 69.939 372.335 69.8332 372.05 69.6216C371.774 69.4019 371.635 69.1536 371.635 68.877V68.5474L371.708 68.0347C371.806 67.3267 371.863 66.7977 371.879 66.4478C371.904 66.0897 371.94 65.5973 371.989 64.9707C372.038 64.3359 372.115 62.9891 372.221 60.9302C372.335 58.8631 372.392 57.7523 372.392 57.5977L372.441 56.6821L372.465 55.7788C372.465 54.9162 372.388 54.3018 372.233 53.9355C372.087 53.5612 372.014 53.2601 372.014 53.0322ZM380.693 62.5781V62.7734C380.693 63.0176 380.917 63.1396 381.364 63.1396H381.657L381.73 63.1274L382.329 63.0786C382.955 62.9891 383.362 62.9443 383.549 62.9443C384.436 62.9443 385.104 62.7775 385.551 62.4438C385.763 62.2811 385.869 61.9922 385.869 61.5771V61.4429C385.869 60.8325 385.665 60.3483 385.258 59.9902C384.86 59.6322 384.379 59.4531 383.818 59.4531H383.732L383.659 59.4653C382.87 59.4653 382.178 59.799 381.584 60.4663C380.99 61.1336 380.693 61.8376 380.693 62.5781ZM383.354 70.1587H383.085C381.531 70.1587 380.294 69.6663 379.375 68.6816C378.455 67.6888 377.995 66.3664 377.995 64.7144V64.1772C377.995 63.3879 378.15 62.5863 378.459 61.7725C379.086 60.1449 380.107 59.0218 381.523 58.4033C382.272 58.0697 383.033 57.9028 383.806 57.9028H384.331C385.397 57.9028 386.296 58.2609 387.028 58.9771C387.769 59.6851 388.139 60.6006 388.139 61.7236V61.9678C388.139 62.7653 387.822 63.3309 387.187 63.6646C386.748 63.9006 385.722 64.1366 384.111 64.3726C382.5 64.6086 381.621 64.751 381.474 64.7998C380.986 64.9707 380.742 65.2962 380.742 65.7764C380.742 66.4437 381.027 67.0133 381.596 67.4854C382.166 67.9574 382.931 68.1934 383.891 68.1934C384.339 68.1934 384.949 68.0713 385.722 67.8271C386.495 67.583 386.943 67.4609 387.065 67.4609C387.48 67.4609 387.688 67.64 387.688 67.998C387.688 68.4782 387.22 68.9583 386.284 69.4385C385.348 69.9186 384.371 70.1587 383.354 70.1587ZM394.694 68.4619H395.012C395.679 68.4619 396.265 68.2381 396.77 67.7905C397.282 67.3348 397.539 66.8099 397.539 66.2158L397.563 66.0571V65.8984L397.587 65.52V64.8242C397.587 64.3522 397.347 64.1162 396.867 64.1162H396.318L396.232 64.1284L395.756 64.165C395.528 64.1976 395.366 64.2139 395.268 64.2139C394.609 64.2139 393.999 64.4621 393.437 64.9585C393.046 65.3084 392.851 65.8049 392.851 66.4478V66.6919C392.851 67.2371 393.026 67.6685 393.376 67.9858C393.734 68.3032 394.174 68.4619 394.694 68.4619ZM391.972 60.6616C391.427 60.6616 391.154 60.3117 391.154 59.6118C391.154 59.091 391.594 58.6393 392.473 58.2568C393.36 57.8662 394.279 57.6709 395.231 57.6709H395.842C396.664 57.6709 397.388 57.8255 398.015 58.1348C398.641 58.4359 399.117 58.8468 399.443 59.3677C399.777 59.8885 399.98 60.568 400.053 61.4062C400.069 61.6016 400.078 62.5496 400.078 64.2505C400.078 65.9513 400.098 66.932 400.139 67.1924C400.188 67.4447 400.318 67.7539 400.529 68.1201C400.749 68.4863 400.859 68.7874 400.859 69.0234C400.859 69.2594 400.745 69.4629 400.517 69.6338C400.297 69.7965 399.976 69.8779 399.553 69.8779C399.13 69.8779 398.67 69.7762 398.173 69.5728C397.677 69.3612 397.315 69.2554 397.087 69.2554C397.062 69.2554 396.656 69.4019 395.866 69.6948C395.077 69.9797 394.41 70.1221 393.864 70.1221H393.596C392.684 70.1221 391.907 69.8332 391.264 69.2554C390.629 68.6776 390.312 67.8556 390.312 66.7896C390.312 65.7235 390.662 64.8934 391.362 64.2993C392.062 63.6971 392.912 63.2861 393.913 63.0664C394.214 63.0013 394.715 62.9159 395.415 62.8101C396.114 62.7043 396.59 62.5944 396.843 62.4805C397.282 62.277 397.502 61.8945 397.502 61.333C397.502 60.7633 397.315 60.3198 396.94 60.0024C396.566 59.6769 396.118 59.5142 395.598 59.5142C395.085 59.5142 394.41 59.7054 393.571 60.0879C392.733 60.4704 392.2 60.6616 391.972 60.6616ZM414.909 68.5352C414.909 69.1374 414.384 69.4385 413.334 69.4385C412.74 69.4385 412.342 69.2961 412.138 69.0112C412.041 68.8729 411.992 68.5474 411.992 68.0347L411.955 67.2534C411.898 66.3989 411.87 65.5404 411.87 64.6777C411.87 62.8141 411.707 61.5649 411.381 60.9302C411.064 60.2873 410.527 59.9658 409.77 59.9658C409.265 59.9658 408.798 60.1164 408.366 60.4175C407.943 60.7186 407.618 61.1377 407.39 61.6748C406.918 62.7734 406.682 64.8039 406.682 67.7661C406.682 68.4416 406.551 68.9176 406.291 69.1943C406.039 69.471 405.713 69.6094 405.314 69.6094H405.07C404.159 69.6094 403.703 69.2472 403.703 68.5229V68.23C403.703 68.1405 403.752 67.9451 403.85 67.644L404.045 67.0825C404.24 66.4233 404.338 65.0114 404.338 62.8467L404.399 59.2212C404.399 58.7573 404.651 58.5254 405.156 58.5254C405.66 58.5254 406.157 58.6922 406.645 59.0259C407.141 59.3595 407.455 59.5264 407.585 59.5264C407.723 59.5264 407.963 59.4328 408.305 59.2456C409.453 58.619 410.372 58.3057 411.064 58.3057H411.381C412.626 58.3057 413.501 58.8672 414.006 59.9902C414.25 60.5192 414.372 61.6585 414.372 63.4082V63.4937C414.372 63.6401 414.368 63.7866 414.36 63.9331C414.36 64.3319 414.36 64.5394 414.36 64.5557C414.36 64.7103 414.36 64.8608 414.36 65.0073C414.36 65.1213 414.36 65.2311 414.36 65.3369C414.36 65.9635 414.38 66.3908 414.421 66.6187C414.478 66.9279 414.571 67.2493 414.702 67.583C414.84 67.9492 414.909 68.2666 414.909 68.5352ZM417.778 59.0259C417.778 58.5132 418.209 58.2568 419.072 58.2568H419.353C419.89 58.2568 420.252 58.4725 420.439 58.9038C420.626 59.3351 420.72 60.1408 420.72 61.3208L420.573 65.3979C420.573 67.2941 421.253 68.2422 422.612 68.2422C423.108 68.2422 423.584 68.0672 424.04 67.7173C424.496 67.3674 424.833 66.9482 425.053 66.46C425.533 65.3857 425.773 63.4611 425.773 60.686L425.749 60.1489V59.6729C425.749 59.2415 425.847 58.9282 426.042 58.7329C426.237 58.5376 426.579 58.4399 427.067 58.4399C427.556 58.4399 427.877 58.5579 428.032 58.7939C428.186 59.0299 428.264 59.4124 428.264 59.9414L428.239 60.5884L428.19 63.4692C428.19 63.9331 428.219 64.6452 428.276 65.6055C428.333 66.5658 428.394 67.2697 428.459 67.7173C428.524 68.1567 428.557 68.4172 428.557 68.4985C428.557 69.2228 428.024 69.585 426.958 69.585C426.591 69.585 426.225 69.4507 425.859 69.1821C425.501 68.9054 425.244 68.7671 425.09 68.7671C424.943 68.7671 424.691 68.8566 424.333 69.0356C423.316 69.5483 422.449 69.8047 421.733 69.8047H421.428C420.264 69.8047 419.41 69.4466 418.864 68.7305C418.319 68.0143 418.046 66.7244 418.046 64.8608L418.168 61.1621C418.168 60.6982 418.103 60.2547 417.973 59.8315C417.843 59.4084 417.778 59.1398 417.778 59.0259ZM440.166 62.9565C440.166 61.8742 439.938 61.0278 439.482 60.4175C439.034 59.799 438.497 59.4897 437.871 59.4897H437.517C436.638 59.4897 435.942 59.8397 435.429 60.5396C434.917 61.2313 434.66 62.2526 434.66 63.6035L434.636 63.8477L434.587 65.1172V65.9717C434.587 66.8587 434.766 67.4854 435.124 67.8516C435.49 68.2096 436.007 68.3887 436.674 68.3887H436.906C437.826 68.3887 438.595 67.9655 439.213 67.1191C439.832 66.2728 440.141 65.2433 440.141 64.0308L440.166 63.7622V62.9565ZM433.525 58.3667L435.234 58.6597C435.413 58.6597 435.832 58.5417 436.491 58.3057C437.15 58.0697 437.797 57.9517 438.432 57.9517C439.718 57.9517 440.76 58.4033 441.557 59.3066C442.355 60.2018 442.753 61.4103 442.753 62.9321V63.2373C442.753 64.2627 442.583 65.2067 442.241 66.0693C441.541 67.8516 440.373 69.0031 438.737 69.5239C438.273 69.6704 437.651 69.7721 436.87 69.8291C436.097 69.8861 435.547 69.9878 435.222 70.1343C434.725 70.3621 434.477 70.7731 434.477 71.3672C434.477 71.6195 434.522 71.9613 434.611 72.3926C434.709 72.8239 434.758 73.2227 434.758 73.5889C434.758 73.9551 434.55 74.3132 434.135 74.6631C433.72 75.0212 433.203 75.2002 432.585 75.2002H432.329C431.596 75.2002 431.23 74.9316 431.23 74.3945V74.1626C431.23 74.0487 431.307 73.7272 431.462 73.1982C431.625 72.6774 431.739 72.1159 431.804 71.5137C431.869 70.9196 431.975 69.4344 432.121 67.0581C432.268 64.6818 432.341 63.0583 432.341 62.1875C432.341 61.3086 432.284 60.5721 432.17 59.978C432.064 59.384 432.011 59.0625 432.011 59.0137C432.011 58.5824 432.516 58.3667 433.525 58.3667ZM446.953 70.1953H446.574C446.167 70.1953 445.85 70.1017 445.622 69.9146C445.402 69.7274 445.292 69.4792 445.292 69.1699C445.276 69.1048 445.268 69.0519 445.268 69.0112L445.244 68.8037V68.584L445.256 68.5352V68.4253C445.272 68.3602 445.28 68.3073 445.28 68.2666C445.28 67.9004 445.402 67.6156 445.646 67.4121C445.899 67.2005 446.175 67.0947 446.477 67.0947L446.733 67.0581H447.062C447.95 67.0581 448.393 67.522 448.393 68.4497V68.6206L448.344 69.0356C448.344 69.41 448.202 69.6989 447.917 69.9023C447.64 70.0977 447.319 70.1953 446.953 70.1953Z" fill="black"/>
</svg>
