<svg width="759" height="87" viewBox="0 0 759 87" fill="none" xmlns="http://www.w3.org/2000/svg">
<rect x="0.110291" width="758" height="87" rx="18" fill="#D9D9D9"/>
<path d="M30.5917 53C30.2417 53 30.0667 52.825 30.0667 52.475V30.488L27.2527 30.593C26.9027 30.593 26.7277 30.418 26.7277 30.068V25.532C26.7277 25.182 26.9027 25.007 27.2527 25.007H36.5347C36.8847 25.007 37.0597 25.182 37.0597 25.532V52.475C37.0597 52.825 36.8847 53 36.5347 53H30.5917Z" fill="#2ECC71"/>
<path d="M86.8301 29.6221V29.2681C86.8301 28.381 86.5372 27.6893 85.9512 27.1929C85.3653 26.6965 84.5556 26.4482 83.522 26.4482H83.0826C82.3013 26.4482 81.7927 26.554 81.5567 26.7656C81.3207 26.9772 81.2027 27.4696 81.2027 28.2427L81.1783 28.4624L81.0196 31.9536V32.3809C81.0196 32.682 81.101 32.8854 81.2637 32.9912C81.4346 33.097 81.7561 33.1499 82.2281 33.1499L82.338 33.1377L82.7652 33.1255L83.1924 33.1011C84.2178 33.1011 85.0805 32.7796 85.7803 32.1367C86.4802 31.4857 86.8301 30.6475 86.8301 29.6221ZM80.9464 38.2036L81.2027 40.2422C81.2027 40.6979 81.0115 41.0601 80.629 41.3286C80.2546 41.5972 79.7541 41.7314 79.1275 41.7314C78.0045 41.7314 77.4429 41.2839 77.4429 40.3887C77.4429 40.2015 77.5569 39.8719 77.7847 39.3999C78.0126 38.9198 78.1509 38.4396 78.1998 37.9595C78.4114 35.8761 78.5172 33.3818 78.5172 30.4766L78.5294 30.1104C78.5375 29.8662 78.5416 29.6261 78.5416 29.3901L78.566 28.3037C78.566 27.3841 78.5416 26.7412 78.4927 26.375L78.4439 26.1187C78.4032 25.8826 78.3829 25.7321 78.3829 25.667C78.3829 25.3008 78.6514 25.0607 79.1885 24.9468C79.7256 24.8328 80.8283 24.7759 82.4966 24.7759H83.6441C86.3948 24.7759 88.1811 25.5815 89.003 27.1929C89.2878 27.7707 89.4302 28.4502 89.4302 29.2314C89.4302 30.6637 88.828 31.9699 87.6236 33.1499C86.9563 33.8009 86.6226 34.3258 86.6226 34.7246C86.6226 35.1234 87.119 36.2261 88.1119 38.0327C88.4374 38.6187 88.8443 39.1842 89.3326 39.7295C89.8209 40.2747 90.065 40.6613 90.065 40.8892V41.1333C90.065 41.5728 89.7069 41.7925 88.9908 41.7925C88.2746 41.7925 87.7416 41.6053 87.3917 41.231C87.0499 40.8485 86.4721 39.9045 85.6583 38.3989C84.8526 36.8934 84.4091 36.0918 84.3277 35.9941C83.8231 35.3919 83.2738 35.0908 82.6797 35.0908C82.0857 35.0908 81.6096 35.4001 81.2515 36.0186C81.0481 36.3685 80.9464 37.0968 80.9464 38.2036ZM94.9844 34.5781V34.7734C94.9844 35.0176 95.2082 35.1396 95.6558 35.1396H95.9488L96.022 35.1274L96.6202 35.0786C97.2468 34.9891 97.6537 34.9443 97.8409 34.9443C98.7279 34.9443 99.3952 34.7775 99.8428 34.4438C100.054 34.2811 100.16 33.9922 100.16 33.5771V33.4429C100.16 32.8325 99.9568 32.3483 99.5499 31.9902C99.1511 31.6322 98.671 31.4531 98.1094 31.4531H98.024L97.9507 31.4653C97.1614 31.4653 96.4696 31.799 95.8755 32.4663C95.2815 33.1336 94.9844 33.8376 94.9844 34.5781ZM97.6456 42.1587H97.377C95.8227 42.1587 94.5857 41.6663 93.6661 40.6816C92.7465 39.6888 92.2867 38.3664 92.2867 36.7144V36.1772C92.2867 35.3879 92.4413 34.5863 92.7505 33.7725C93.3772 32.1449 94.3985 31.0218 95.8145 30.4033C96.5632 30.0697 97.3241 29.9028 98.0972 29.9028H98.6221C99.6882 29.9028 100.587 30.2609 101.32 30.9771C102.06 31.6851 102.431 32.6006 102.431 33.7236V33.9678C102.431 34.7653 102.113 35.3309 101.479 35.6646C101.039 35.9006 100.014 36.1366 98.4024 36.3726C96.7911 36.6086 95.9122 36.751 95.7657 36.7998C95.2774 36.9707 95.0333 37.2962 95.0333 37.7764C95.0333 38.4437 95.3181 39.0133 95.8878 39.4854C96.4574 39.9574 97.2224 40.1934 98.1827 40.1934C98.6303 40.1934 99.2406 40.0713 100.014 39.8271C100.787 39.583 101.234 39.4609 101.357 39.4609C101.772 39.4609 101.979 39.64 101.979 39.998C101.979 40.4782 101.511 40.9583 100.575 41.4385C99.6394 41.9186 98.6628 42.1587 97.6456 42.1587ZM109.12 26.1675V26.5337C109.096 26.6313 109.084 26.7168 109.084 26.79C109.084 27.1318 108.937 27.4248 108.644 27.6689C108.359 27.9049 107.993 28.0229 107.545 28.0229H107.399C107.065 28.0229 106.785 27.9334 106.557 27.7544C106.329 27.5672 106.215 27.262 106.215 26.8389V26.4116C106.215 26.0047 106.349 25.667 106.618 25.3984C106.886 25.1299 107.171 24.9956 107.472 24.9956C107.521 24.9793 107.566 24.9712 107.607 24.9712L107.802 24.9468H107.985C108.359 24.9468 108.64 25.0688 108.827 25.313C109.023 25.549 109.12 25.8338 109.12 26.1675ZM104.128 46.9561H103.725C103.017 46.9561 102.663 46.7078 102.663 46.2114C102.663 45.8289 102.797 45.5319 103.065 45.3203C103.179 45.2308 103.371 45.1413 103.639 45.0518L104.372 44.8076C104.795 44.6204 105.12 44.2664 105.348 43.7456C105.869 42.533 106.129 40.3724 106.129 37.2637L106.19 36.1284C106.215 35.6727 106.227 35.0868 106.227 34.3706C106.227 33.6463 106.195 33.154 106.129 32.8936C106.072 32.6331 105.971 32.3076 105.824 31.917C105.686 31.5264 105.617 31.2171 105.617 30.9893C105.617 30.7614 105.743 30.5661 105.995 30.4033C106.247 30.2324 106.675 30.147 107.277 30.147H107.484C107.981 30.147 108.331 30.3626 108.534 30.7939C108.664 31.0625 108.73 31.5223 108.73 32.1733V33.272L108.681 34.627C108.664 34.9362 108.656 35.1641 108.656 35.3105L108.632 35.7622C108.616 36.0633 108.607 36.2871 108.607 36.4336L108.534 38.0205C108.534 41.1455 108.209 43.359 107.558 44.6611C107.232 45.3122 106.756 45.8574 106.129 46.2969C105.511 46.7363 104.844 46.9561 104.128 46.9561ZM114.223 34.5781V34.7734C114.223 35.0176 114.447 35.1396 114.894 35.1396H115.187L115.26 35.1274L115.858 35.0786C116.485 34.9891 116.892 34.9443 117.079 34.9443C117.966 34.9443 118.634 34.7775 119.081 34.4438C119.293 34.2811 119.398 33.9922 119.398 33.5771V33.4429C119.398 32.8325 119.195 32.3483 118.788 31.9902C118.389 31.6322 117.909 31.4531 117.348 31.4531H117.262L117.189 31.4653C116.4 31.4653 115.708 31.799 115.114 32.4663C114.52 33.1336 114.223 33.8376 114.223 34.5781ZM116.884 42.1587H116.615C115.061 42.1587 113.824 41.6663 112.904 40.6816C111.985 39.6888 111.525 38.3664 111.525 36.7144V36.1772C111.525 35.3879 111.68 34.5863 111.989 33.7725C112.615 32.1449 113.637 31.0218 115.053 30.4033C115.801 30.0697 116.562 29.9028 117.336 29.9028H117.86C118.926 29.9028 119.826 30.2609 120.558 30.9771C121.299 31.6851 121.669 32.6006 121.669 33.7236V33.9678C121.669 34.7653 121.352 35.3309 120.717 35.6646C120.277 35.9006 119.252 36.1366 117.641 36.3726C116.029 36.6086 115.15 36.751 115.004 36.7998C114.516 36.9707 114.272 37.2962 114.272 37.7764C114.272 38.4437 114.556 39.0133 115.126 39.4854C115.696 39.9574 116.461 40.1934 117.421 40.1934C117.869 40.1934 118.479 40.0713 119.252 39.8271C120.025 39.583 120.473 39.4609 120.595 39.4609C121.01 39.4609 121.217 39.64 121.217 39.998C121.217 40.4782 120.749 40.9583 119.814 41.4385C118.878 41.9186 117.901 42.1587 116.884 42.1587ZM123.94 36.9219V36.3604C123.94 35.335 124.098 34.4276 124.416 33.6382C125.026 32.1082 125.962 31.0503 127.223 30.4644C128.045 30.0737 128.896 29.8784 129.774 29.8784H130.043C131.011 29.8784 131.813 30.0697 132.448 30.4521C133.083 30.8346 133.4 31.3026 133.4 31.856C133.4 32.4989 133.091 32.8203 132.472 32.8203C132.358 32.8203 131.96 32.6413 131.276 32.2832C130.592 31.9333 130.031 31.7583 129.591 31.7583C129.583 31.7583 129.575 31.7583 129.567 31.7583C128.607 31.7583 127.854 32.1733 127.309 33.0034C126.772 33.8335 126.503 34.9159 126.503 36.2505C126.503 37.5851 126.788 38.5739 127.357 39.2168C127.935 39.8597 128.737 40.1812 129.762 40.1812C130.185 40.1812 130.767 40.0632 131.508 39.8271C132.248 39.583 132.7 39.4609 132.863 39.4609C133.197 39.4609 133.363 39.6359 133.363 39.9858C133.363 40.4578 132.895 40.9339 131.96 41.4141C131.024 41.8942 130.104 42.1343 129.201 42.1343C126.784 42.1343 125.185 41.1821 124.403 39.2778C124.094 38.521 123.94 37.7357 123.94 36.9219ZM142.348 40.6938C142.348 41.0194 142.148 41.3123 141.75 41.5728C141.359 41.825 140.826 41.9512 140.15 41.9512C138.889 41.9512 138.002 41.4832 137.489 40.5474C137.172 39.9614 137.013 38.5902 137.013 36.4336C137.013 34.277 136.977 33.0238 136.903 32.6738C136.83 32.3239 136.627 31.9821 136.293 31.6484C135.959 31.3148 135.793 31.0584 135.793 30.8794C135.793 30.8143 136.187 30.387 136.977 29.5977C137.148 29.4268 137.318 29.0483 137.489 28.4624C137.668 27.8765 137.794 27.4899 137.868 27.3027C138.112 26.7168 138.433 26.4238 138.832 26.4238H139.027C139.377 26.4238 139.626 26.5581 139.772 26.8267C139.829 26.9325 139.914 27.3149 140.028 27.9741C140.15 28.6252 140.289 29.0443 140.443 29.2314C140.598 29.4186 140.985 29.6261 141.603 29.854C142.23 30.0737 142.543 30.3097 142.543 30.562V30.6963C142.543 31.0218 142.185 31.2985 141.469 31.5264C140.761 31.7461 140.305 32.1001 140.102 32.5884C139.703 33.5731 139.503 35.1763 139.503 37.3979C139.503 38.4396 139.683 39.1476 140.041 39.522C140.26 39.7498 140.7 39.9085 141.359 39.998C142.018 40.0876 142.348 40.3195 142.348 40.6938ZM146.059 35.1885C145.562 34.6839 145.314 33.9759 145.314 33.0645C145.314 32.153 145.721 31.3717 146.535 30.7207C147.349 30.0615 148.358 29.7319 149.562 29.7319H149.879C150.946 29.7319 151.792 29.8825 152.419 30.1836C153.053 30.4847 153.371 30.9364 153.371 31.5386C153.371 32.1326 153.106 32.4297 152.577 32.4297C152.439 32.4297 152.048 32.2669 151.405 31.9414C150.762 31.6077 150.156 31.4409 149.586 31.4409C149.017 31.4409 148.557 31.5711 148.207 31.8315C147.865 32.0838 147.694 32.4338 147.694 32.8813C147.694 33.3289 147.934 33.7196 148.415 34.0532C148.691 34.2485 149.342 34.5578 150.368 34.981C151.401 35.4041 152.138 35.811 152.577 36.2017C153.285 36.8283 153.639 37.6299 153.639 38.6064C153.639 39.583 153.224 40.4212 152.394 41.1211C151.564 41.8128 150.486 42.1587 149.159 42.1587H148.842C147.507 42.1587 146.506 41.9674 145.839 41.585C145.172 41.1943 144.838 40.6898 144.838 40.0713C144.838 39.4447 145.098 39.1313 145.619 39.1313C145.79 39.1313 146.234 39.3511 146.95 39.7905C147.674 40.23 148.382 40.4497 149.074 40.4497C149.774 40.4497 150.299 40.3032 150.648 40.0103C150.998 39.7091 151.173 39.3348 151.173 38.8872C151.173 38.4315 150.954 38.0327 150.514 37.6909C150.278 37.5037 149.603 37.166 148.488 36.6777C147.373 36.1813 146.563 35.6849 146.059 35.1885ZM174.318 40.5352C174.318 41.1374 173.793 41.4385 172.743 41.4385C172.149 41.4385 171.75 41.2961 171.547 41.0112C171.449 40.8729 171.4 40.5474 171.4 40.0347L171.364 39.2534C171.307 38.3989 171.278 37.5404 171.278 36.6777C171.278 34.8141 171.116 33.5649 170.79 32.9302C170.473 32.2873 169.936 31.9658 169.179 31.9658C168.674 31.9658 168.206 32.1164 167.775 32.4175C167.352 32.7186 167.026 33.1377 166.798 33.6748C166.326 34.7734 166.09 36.8039 166.09 39.7661C166.09 40.4416 165.96 40.9176 165.7 41.1943C165.447 41.471 165.122 41.6094 164.723 41.6094H164.479C163.568 41.6094 163.112 41.2472 163.112 40.5229V40.23C163.112 40.1405 163.161 39.9451 163.258 39.644L163.454 39.0825C163.649 38.4233 163.747 37.0114 163.747 34.8467L163.808 31.2212C163.808 30.7573 164.06 30.5254 164.565 30.5254C165.069 30.5254 165.565 30.6922 166.054 31.0259C166.55 31.3595 166.864 31.5264 166.994 31.5264C167.132 31.5264 167.372 31.4328 167.714 31.2456C168.861 30.619 169.781 30.3057 170.473 30.3057H170.79C172.035 30.3057 172.91 30.8672 173.415 31.9902C173.659 32.5192 173.781 33.6585 173.781 35.4082V35.4937C173.781 35.6401 173.777 35.7866 173.769 35.9331C173.769 36.3319 173.769 36.5394 173.769 36.5557C173.769 36.7103 173.769 36.8608 173.769 37.0073C173.769 37.1213 173.769 37.2311 173.769 37.3369C173.769 37.9635 173.789 38.3908 173.83 38.6187C173.887 38.9279 173.98 39.2493 174.11 39.583C174.249 39.9492 174.318 40.2666 174.318 40.5352ZM179.384 34.5781V34.7734C179.384 35.0176 179.608 35.1396 180.055 35.1396H180.348L180.421 35.1274L181.02 35.0786C181.646 34.9891 182.053 34.9443 182.24 34.9443C183.127 34.9443 183.795 34.7775 184.242 34.4438C184.454 34.2811 184.56 33.9922 184.56 33.5771V33.4429C184.56 32.8325 184.356 32.3483 183.949 31.9902C183.551 31.6322 183.07 31.4531 182.509 31.4531H182.423L182.35 31.4653C181.561 31.4653 180.869 31.799 180.275 32.4663C179.681 33.1336 179.384 33.8376 179.384 34.5781ZM182.045 42.1587H181.776C180.222 42.1587 178.985 41.6663 178.065 40.6816C177.146 39.6888 176.686 38.3664 176.686 36.7144V36.1772C176.686 35.3879 176.841 34.5863 177.15 33.7725C177.777 32.1449 178.798 31.0218 180.214 30.4033C180.963 30.0697 181.724 29.9028 182.497 29.9028H183.022C184.088 29.9028 184.987 30.2609 185.719 30.9771C186.46 31.6851 186.83 32.6006 186.83 33.7236V33.9678C186.83 34.7653 186.513 35.3309 185.878 35.6646C185.439 35.9006 184.413 36.1366 182.802 36.3726C181.19 36.6086 180.312 36.751 180.165 36.7998C179.677 36.9707 179.433 37.2962 179.433 37.7764C179.433 38.4437 179.718 39.0133 180.287 39.4854C180.857 39.9574 181.622 40.1934 182.582 40.1934C183.03 40.1934 183.64 40.0713 184.413 39.8271C185.186 39.583 185.634 39.4609 185.756 39.4609C186.171 39.4609 186.378 39.64 186.378 39.998C186.378 40.4782 185.911 40.9583 184.975 41.4385C184.039 41.9186 183.062 42.1587 182.045 42.1587ZM200.978 41.3774C200.4 41.3774 199.9 41.0153 199.477 40.291C199.2 39.8109 198.76 38.8343 198.158 37.3613C197.564 35.8802 197.226 35.1396 197.145 35.1396C197.121 35.1396 196.783 35.8314 196.132 37.2148C195.481 38.5902 194.997 39.5342 194.679 40.0469C194.175 40.8525 193.69 41.2554 193.227 41.2554C192.934 41.2554 192.624 41.1414 192.299 40.9136C191.982 40.6776 191.725 40.2951 191.53 39.7661C191.505 39.701 191.318 39.0011 190.968 37.6665C190.627 36.3319 190.273 35.0786 189.906 33.9067C189.548 32.7349 189.369 31.9414 189.369 31.5264C189.369 31.1113 189.459 30.8143 189.638 30.6353C189.817 30.4562 190 30.3667 190.187 30.3667C190.944 30.3667 191.477 30.68 191.786 31.3066C191.9 31.5345 192.047 32.1042 192.226 33.0156C193.08 36.3604 193.654 38.1344 193.947 38.3379C194.256 38.3379 194.708 37.3044 195.302 35.2373C195.546 34.391 195.705 33.63 195.778 32.9546C195.859 32.2791 195.912 31.8885 195.937 31.7827L196.046 31.3921C196.291 30.7492 196.775 30.4277 197.499 30.4277C198.232 30.4277 198.74 30.798 199.025 31.5386C199.139 31.8397 199.245 32.3687 199.342 33.1255C199.44 33.8742 199.578 34.627 199.757 35.3838C200.205 37.3206 200.559 38.2891 200.819 38.2891C201.137 38.2891 201.633 37.2759 202.309 35.2495C202.52 34.6147 202.74 33.8376 202.968 32.918C203.204 31.9984 203.367 31.445 203.456 31.2578C203.749 30.68 204.213 30.3911 204.848 30.3911C205.181 30.3911 205.348 30.7166 205.348 31.3677C205.348 31.7502 204.933 33.2069 204.103 35.7378C203.273 38.2606 202.773 39.7051 202.602 40.0713C202.431 40.4294 202.187 40.7386 201.869 40.999C201.552 41.2513 201.255 41.3774 200.978 41.3774ZM218.776 26.1309V26.2773C218.776 26.6924 218.654 27.0464 218.41 27.3394C218.174 27.6242 217.808 27.7666 217.311 27.7666H217.116L216.737 27.7178C216.518 27.7178 216.306 27.616 216.103 27.4126C215.899 27.2091 215.797 26.904 215.797 26.4971V26.3506L215.858 25.9111C215.858 25.7402 215.96 25.5286 216.164 25.2764C216.375 25.0241 216.644 24.8979 216.969 24.8979L217.25 24.8613H217.494L217.836 24.9102C218.048 24.9102 218.255 25.016 218.459 25.2275C218.67 25.431 218.776 25.7321 218.776 26.1309ZM218.202 31.2822L218.068 34.5659L218.044 34.8955L218.007 35.8965V36.3726C218.007 37.5444 218.039 38.3135 218.105 38.6797C218.178 39.0459 218.312 39.404 218.507 39.7539C218.703 40.0957 218.8 40.3439 218.8 40.4985V40.6084C218.8 41.0072 218.597 41.3245 218.19 41.5605C217.783 41.7965 217.23 41.9146 216.53 41.9146H216.225C215.818 41.9146 215.509 41.825 215.297 41.646C215.085 41.4588 214.98 41.2594 214.98 41.0479V40.7793C214.98 40.6735 215.073 40.2992 215.26 39.6562C215.447 39.0052 215.541 38.1222 215.541 37.0073C215.565 36.6899 215.578 36.4702 215.578 36.3481L215.614 35.6768L215.639 35.3472C215.679 34.7775 215.7 34.334 215.7 34.0166L215.712 33.5283C215.712 32.918 215.61 32.3768 215.407 31.9048C215.211 31.4328 215.114 31.1398 215.114 31.0259C215.114 30.4399 215.667 30.147 216.774 30.147H217.213C217.628 30.147 217.897 30.2568 218.019 30.4766C218.141 30.6882 218.202 30.9567 218.202 31.2822ZM223.915 36.0796V37.0073C223.915 37.9757 224.135 38.7855 224.574 39.4365C225.022 40.0794 225.547 40.4009 226.149 40.4009H226.491C227.419 40.4009 228.135 40.0306 228.639 39.29C229.152 38.5495 229.408 37.4468 229.408 35.9819C229.425 35.8029 229.433 35.6727 229.433 35.5913L229.457 35.3472L229.469 34.8345V33.9678C229.469 32.3076 228.806 31.4775 227.48 31.4775H227.003C226.141 31.4775 225.408 31.9129 224.806 32.7837C224.212 33.6545 223.915 34.7531 223.915 36.0796ZM221.571 36.6411C221.571 35.7948 221.722 34.9321 222.023 34.0532C222.324 33.1743 222.747 32.4256 223.293 31.8071C223.838 31.1805 224.452 30.7288 225.136 30.4521C225.819 30.1673 226.629 30.0249 227.565 30.0249C228.509 30.0249 229.095 29.854 229.323 29.5122C229.551 29.1623 229.665 28.3932 229.665 27.2051C229.665 26.9854 229.628 26.6924 229.555 26.3262C229.482 25.96 229.445 25.7484 229.445 25.6914C229.445 25.3415 229.595 25.0241 229.897 24.7393C230.198 24.4463 230.592 24.2998 231.081 24.2998H231.325C231.707 24.2998 231.992 24.3893 232.179 24.5684C232.366 24.7474 232.46 25.1217 232.46 25.6914V26.8267L232.436 27.4004C232.427 27.5957 232.423 27.8805 232.423 28.2549C232.423 28.6211 232.362 29.8011 232.24 31.7949C232.118 33.7887 232.057 35.16 232.057 35.9087L232.045 36.2017C232.037 36.397 232.033 36.5841 232.033 36.7632L232.021 37.0439C232.021 37.0439 232.021 37.3613 232.021 37.9961C232.021 38.818 232.086 39.4365 232.216 39.8516C232.346 40.2666 232.411 40.5636 232.411 40.7427C232.411 40.9217 232.309 41.1089 232.106 41.3042C231.903 41.4995 231.585 41.5972 231.154 41.5972C230.731 41.5972 230.32 41.528 229.921 41.3896C229.522 41.2432 229.229 41.1699 229.042 41.1699C228.855 41.1699 228.611 41.2269 228.31 41.3408C227.398 41.6745 226.564 41.8413 225.807 41.8413C225.791 41.8413 225.775 41.8413 225.758 41.8413H225.478C224.249 41.8413 223.288 41.3937 222.597 40.4985C221.913 39.5952 221.571 38.4111 221.571 36.9463V36.6411ZM237.807 34.5781V34.7734C237.807 35.0176 238.03 35.1396 238.478 35.1396H238.771L238.844 35.1274L239.442 35.0786C240.069 34.9891 240.476 34.9443 240.663 34.9443C241.55 34.9443 242.218 34.7775 242.665 34.4438C242.877 34.2811 242.982 33.9922 242.982 33.5771V33.4429C242.982 32.8325 242.779 32.3483 242.372 31.9902C241.973 31.6322 241.493 31.4531 240.932 31.4531H240.846L240.773 31.4653C239.984 31.4653 239.292 31.799 238.698 32.4663C238.104 33.1336 237.807 33.8376 237.807 34.5781ZM240.468 42.1587H240.199C238.645 42.1587 237.408 41.6663 236.488 40.6816C235.569 39.6888 235.109 38.3664 235.109 36.7144V36.1772C235.109 35.3879 235.264 34.5863 235.573 33.7725C236.199 32.1449 237.221 31.0218 238.637 30.4033C239.385 30.0697 240.146 29.9028 240.919 29.9028H241.444C242.51 29.9028 243.41 30.2609 244.142 30.9771C244.883 31.6851 245.253 32.6006 245.253 33.7236V33.9678C245.253 34.7653 244.936 35.3309 244.301 35.6646C243.861 35.9006 242.836 36.1366 241.225 36.3726C239.613 36.6086 238.734 36.751 238.588 36.7998C238.1 36.9707 237.856 37.2962 237.856 37.7764C237.856 38.4437 238.14 39.0133 238.71 39.4854C239.28 39.9574 240.045 40.1934 241.005 40.1934C241.453 40.1934 242.063 40.0713 242.836 39.8271C243.609 39.583 244.057 39.4609 244.179 39.4609C244.594 39.4609 244.801 39.64 244.801 39.998C244.801 40.4782 244.333 40.9583 243.398 41.4385C242.462 41.9186 241.485 42.1587 240.468 42.1587ZM251.808 40.4619H252.126C252.793 40.4619 253.379 40.2381 253.883 39.7905C254.396 39.3348 254.652 38.8099 254.652 38.2158L254.677 38.0571V37.8984L254.701 37.52V36.8242C254.701 36.3522 254.461 36.1162 253.981 36.1162H253.432L253.346 36.1284L252.87 36.165C252.642 36.1976 252.48 36.2139 252.382 36.2139C251.723 36.2139 251.112 36.4621 250.551 36.9585C250.16 37.3084 249.965 37.8049 249.965 38.4478V38.6919C249.965 39.2371 250.14 39.6685 250.49 39.9858C250.848 40.3032 251.287 40.4619 251.808 40.4619ZM249.086 32.6616C248.541 32.6616 248.268 32.3117 248.268 31.6118C248.268 31.091 248.708 30.6393 249.586 30.2568C250.474 29.8662 251.393 29.6709 252.345 29.6709H252.956C253.778 29.6709 254.502 29.8255 255.128 30.1348C255.755 30.4359 256.231 30.8468 256.557 31.3677C256.89 31.8885 257.094 32.568 257.167 33.4062C257.183 33.6016 257.191 34.5496 257.191 36.2505C257.191 37.9513 257.212 38.932 257.253 39.1924C257.301 39.4447 257.432 39.7539 257.643 40.1201C257.863 40.4863 257.973 40.7874 257.973 41.0234C257.973 41.2594 257.859 41.4629 257.631 41.6338C257.411 41.7965 257.09 41.8779 256.667 41.8779C256.243 41.8779 255.784 41.7762 255.287 41.5728C254.791 41.3612 254.429 41.2554 254.201 41.2554C254.176 41.2554 253.769 41.4019 252.98 41.6948C252.191 41.9797 251.523 42.1221 250.978 42.1221H250.71C249.798 42.1221 249.021 41.8332 248.378 41.2554C247.743 40.6776 247.426 39.8556 247.426 38.7896C247.426 37.7235 247.776 36.8934 248.476 36.2993C249.176 35.6971 250.026 35.2861 251.027 35.0664C251.328 35.0013 251.829 34.9159 252.528 34.8101C253.228 34.7043 253.704 34.5944 253.957 34.4805C254.396 34.277 254.616 33.8945 254.616 33.333C254.616 32.7633 254.429 32.3198 254.054 32.0024C253.68 31.6769 253.232 31.5142 252.711 31.5142C252.199 31.5142 251.523 31.7054 250.685 32.0879C249.847 32.4704 249.314 32.6616 249.086 32.6616ZM261.684 35.1885C261.187 34.6839 260.939 33.9759 260.939 33.0645C260.939 32.153 261.346 31.3717 262.16 30.7207C262.974 30.0615 263.983 29.7319 265.187 29.7319H265.504C266.571 29.7319 267.417 29.8825 268.044 30.1836C268.678 30.4847 268.996 30.9364 268.996 31.5386C268.996 32.1326 268.731 32.4297 268.202 32.4297C268.064 32.4297 267.673 32.2669 267.03 31.9414C266.387 31.6077 265.781 31.4409 265.211 31.4409C264.642 31.4409 264.182 31.5711 263.832 31.8315C263.49 32.0838 263.319 32.4338 263.319 32.8813C263.319 33.3289 263.559 33.7196 264.04 34.0532C264.316 34.2485 264.967 34.5578 265.993 34.981C267.026 35.4041 267.763 35.811 268.202 36.2017C268.91 36.8283 269.264 37.6299 269.264 38.6064C269.264 39.583 268.849 40.4212 268.019 41.1211C267.189 41.8128 266.111 42.1587 264.784 42.1587H264.467C263.132 42.1587 262.131 41.9674 261.464 41.585C260.797 41.1943 260.463 40.6898 260.463 40.0713C260.463 39.4447 260.723 39.1313 261.244 39.1313C261.415 39.1313 261.859 39.3511 262.575 39.7905C263.299 40.23 264.007 40.4497 264.699 40.4497C265.399 40.4497 265.924 40.3032 266.273 40.0103C266.623 39.7091 266.798 39.3348 266.798 38.8872C266.798 38.4315 266.579 38.0327 266.139 37.6909C265.903 37.5037 265.228 37.166 264.113 36.6777C262.998 36.1813 262.188 35.6849 261.684 35.1885ZM273.598 42.1953H273.219C272.812 42.1953 272.495 42.1017 272.267 41.9146C272.047 41.7274 271.938 41.4792 271.938 41.1699C271.921 41.1048 271.913 41.0519 271.913 41.0112L271.889 40.8037V40.584L271.901 40.5352V40.4253C271.917 40.3602 271.925 40.3073 271.925 40.2666C271.925 39.9004 272.047 39.6156 272.292 39.4121C272.544 39.2005 272.821 39.0947 273.122 39.0947L273.378 39.0581H273.708C274.595 39.0581 275.038 39.522 275.038 40.4497V40.6206L274.989 41.0356C274.989 41.41 274.847 41.6989 274.562 41.9023C274.285 42.0977 273.964 42.1953 273.598 42.1953ZM294.35 29.1582V28.9385C294.35 28.1165 294.065 27.494 293.495 27.0708C292.934 26.6476 292.189 26.436 291.261 26.436H290.565C289.939 26.436 289.52 26.5093 289.308 26.6558C289.097 26.8022 288.991 27.0911 288.991 27.5225C288.958 27.7829 288.942 27.9456 288.942 28.0107L288.82 30.269V30.4766L288.783 31.0869V31.2944L288.771 31.4897C288.771 31.8071 288.84 32.0146 288.979 32.1123C289.125 32.21 289.406 32.2588 289.821 32.2588H290.321L290.419 32.2466H290.517L290.822 32.2344L291.432 32.1855C292.279 32.1855 292.974 31.8844 293.52 31.2822C294.073 30.68 294.35 29.972 294.35 29.1582ZM288.441 39.3877C288.441 39.7295 288.551 39.9614 288.771 40.0835C288.999 40.2056 289.548 40.2666 290.419 40.2666H290.651C292.051 40.2666 293.072 40.0143 293.715 39.5098C294.521 38.875 294.923 38.0164 294.923 36.9341V36.6899C294.923 35.7785 294.606 35.0583 293.971 34.5293C293.345 33.9922 292.454 33.7236 291.298 33.7236H290.26C290.016 33.748 289.76 33.7603 289.491 33.7603C288.922 33.7603 288.637 34.1794 288.637 35.0176C288.604 35.3268 288.588 35.5181 288.588 35.5913L288.49 37.4468V37.6787L288.441 38.936V39.3877ZM296.852 28.8408C296.852 30.1348 296.368 31.2131 295.399 32.0757C294.927 32.4907 294.691 32.7145 294.691 32.7471C294.691 32.7796 294.972 32.9831 295.534 33.3574C296.86 34.2282 297.523 35.4774 297.523 37.105C297.523 38.7244 296.82 39.994 295.412 40.9136C294.289 41.6541 292.502 42.0244 290.053 42.0244H289.76L289.467 42.0122H289.174C287.351 42.0122 286.232 41.9674 285.817 41.8779C285.402 41.7803 285.194 41.6175 285.194 41.3896V41.1943C285.194 40.999 285.316 40.6572 285.561 40.1689C285.675 39.8434 285.76 39.4121 285.817 38.875C286.045 36.7347 286.159 34.2892 286.159 31.5386L286.22 29.8052L286.244 29.2437L286.256 28.3892C286.256 27.6242 286.199 27.0382 286.086 26.6313L285.963 26.2285C285.906 26.0332 285.878 25.8501 285.878 25.6792C285.878 25.3781 286.098 25.1706 286.537 25.0566C286.977 24.9427 287.827 24.8857 289.088 24.8857L289.369 24.8735C289.565 24.8654 289.76 24.8613 289.955 24.8613L291.139 24.8369C294.948 24.8369 296.852 26.1715 296.852 28.8408ZM300.929 25.0322C300.929 24.4382 301.487 24.1411 302.602 24.1411H302.821C303.285 24.1411 303.603 24.255 303.773 24.4829C303.944 24.7026 304.03 25.134 304.03 25.7769L303.932 27.5957C303.908 27.8805 303.896 28.0352 303.896 28.0596L303.871 28.5234C303.855 28.8245 303.839 29.1297 303.822 29.439L303.786 29.9028L303.749 30.5986C303.619 33.0726 303.554 34.8996 303.554 36.0796C303.554 37.2515 303.607 38.0938 303.712 38.6064C303.818 39.1191 303.985 39.5545 304.213 39.9126C304.441 40.2707 304.555 40.5067 304.555 40.6206V40.7671C304.555 41.1252 304.376 41.41 304.018 41.6216C303.668 41.8332 303.192 41.939 302.589 41.939H301.955C301.58 41.939 301.251 41.8332 300.966 41.6216C300.689 41.4019 300.551 41.1536 300.551 40.877V40.5474L300.624 40.0347C300.722 39.3267 300.779 38.7977 300.795 38.4478C300.819 38.0897 300.856 37.5973 300.905 36.9707C300.954 36.3359 301.031 34.9891 301.137 32.9302C301.251 30.8631 301.308 29.7523 301.308 29.5977L301.357 28.6821L301.381 27.7788C301.381 26.9162 301.304 26.3018 301.149 25.9355C301.003 25.5612 300.929 25.2601 300.929 25.0322ZM309.511 36.8486C309.511 37.9147 309.755 38.8018 310.243 39.5098C310.732 40.2178 311.33 40.5718 312.038 40.5718H312.404C313.242 40.5718 313.95 40.1486 314.528 39.3022C315.114 38.4559 315.407 37.3288 315.407 35.9209V35.1152C315.407 34.0247 315.167 33.1336 314.687 32.4419C314.215 31.742 313.604 31.3921 312.856 31.3921H312.611C311.741 31.3921 311.008 31.8234 310.414 32.686C309.828 33.5487 309.535 34.5781 309.535 35.7744L309.511 36.0552V36.8486ZM312.27 42.2319H311.879C310.455 42.2319 309.295 41.7355 308.4 40.7427C307.505 39.7498 307.057 38.342 307.057 36.519L307.069 36.3115C307.069 34.3096 307.598 32.7308 308.656 31.5752C309.21 30.9648 309.84 30.5173 310.548 30.2324C311.265 29.9395 311.944 29.793 312.587 29.793H313.185C313.901 29.793 314.589 29.9517 315.248 30.269C317.136 31.1805 318.08 32.8976 318.08 35.4204V35.6157C318.072 36.4377 317.938 37.2718 317.677 38.1182C317.156 39.7865 316.155 40.9665 314.674 41.6582C313.852 42.0407 313.051 42.2319 312.27 42.2319ZM320.229 36.9219V36.3604C320.229 35.335 320.387 34.4276 320.705 33.6382C321.315 32.1082 322.251 31.0503 323.512 30.4644C324.334 30.0737 325.185 29.8784 326.064 29.8784H326.332C327.301 29.8784 328.102 30.0697 328.737 30.4521C329.372 30.8346 329.689 31.3026 329.689 31.856C329.689 32.4989 329.38 32.8203 328.761 32.8203C328.647 32.8203 328.249 32.6413 327.565 32.2832C326.881 31.9333 326.32 31.7583 325.88 31.7583C325.872 31.7583 325.864 31.7583 325.856 31.7583C324.896 31.7583 324.143 32.1733 323.598 33.0034C323.061 33.8335 322.792 34.9159 322.792 36.2505C322.792 37.5851 323.077 38.5739 323.647 39.2168C324.224 39.8597 325.026 40.1812 326.051 40.1812C326.475 40.1812 327.056 40.0632 327.797 39.8271C328.537 39.583 328.989 39.4609 329.152 39.4609C329.486 39.4609 329.652 39.6359 329.652 39.9858C329.652 40.4578 329.184 40.9339 328.249 41.4141C327.313 41.8942 326.393 42.1343 325.49 42.1343C323.073 42.1343 321.474 41.1821 320.692 39.2778C320.383 38.521 320.229 37.7357 320.229 36.9219ZM336.586 36.6533C335.862 36.6533 335.5 37.6095 335.5 39.522C335.5 40.3521 335.329 40.9136 334.987 41.2065C334.645 41.4995 334.234 41.646 333.754 41.646C333.274 41.646 332.932 41.5646 332.729 41.4019C332.533 41.2391 332.436 40.9339 332.436 40.4863C332.436 40.4538 332.48 40.1323 332.57 39.522C332.659 38.9116 332.773 37.0155 332.912 33.8335C333.05 30.6434 333.119 28.6943 333.119 27.9863C333.119 27.2783 333.099 26.8185 333.058 26.6069C333.026 26.3872 332.969 26.1227 332.887 25.8135C332.814 25.5042 332.777 25.3089 332.777 25.2275C332.777 24.8695 332.895 24.6253 333.131 24.4951C333.376 24.3568 333.778 24.2876 334.34 24.2876C334.91 24.2876 335.284 24.4341 335.463 24.7271C335.65 25.02 335.744 25.61 335.744 26.4971L335.585 31.6729C335.585 33.154 335.756 33.8945 336.098 33.8945C336.366 33.8945 337.025 33.3411 338.075 32.2344C339.133 31.1276 339.674 30.5661 339.699 30.5498C340.024 30.3219 340.517 30.208 341.176 30.208C341.835 30.208 342.165 30.3708 342.165 30.6963C342.165 30.859 341.64 31.5467 340.59 32.7593C339.54 33.9718 339.015 34.863 339.015 35.4326C339.015 35.7419 339.613 36.7591 340.81 38.4844C341.241 39.1029 341.648 39.64 342.03 40.0957C342.421 40.5433 342.616 40.8647 342.616 41.0601C342.616 41.467 342.238 41.6704 341.481 41.6704C340.732 41.6704 340.155 41.4548 339.748 41.0234C339.65 40.9176 339.422 40.5596 339.064 39.9492C338.706 39.3389 338.454 38.9116 338.307 38.6675C337.469 37.3247 336.895 36.6533 336.586 36.6533ZM346.303 35.1885C345.806 34.6839 345.558 33.9759 345.558 33.0645C345.558 32.153 345.965 31.3717 346.779 30.7207C347.593 30.0615 348.602 29.7319 349.806 29.7319H350.124C351.19 29.7319 352.036 29.8825 352.663 30.1836C353.297 30.4847 353.615 30.9364 353.615 31.5386C353.615 32.1326 353.35 32.4297 352.821 32.4297C352.683 32.4297 352.292 32.2669 351.649 31.9414C351.007 31.6077 350.4 31.4409 349.831 31.4409C349.261 31.4409 348.801 31.5711 348.451 31.8315C348.109 32.0838 347.939 32.4338 347.939 32.8813C347.939 33.3289 348.179 33.7196 348.659 34.0532C348.935 34.2485 349.586 34.5578 350.612 34.981C351.645 35.4041 352.382 35.811 352.821 36.2017C353.529 36.8283 353.883 37.6299 353.883 38.6064C353.883 39.583 353.468 40.4212 352.638 41.1211C351.808 41.8128 350.73 42.1587 349.403 42.1587H349.086C347.751 42.1587 346.75 41.9674 346.083 41.585C345.416 41.1943 345.082 40.6898 345.082 40.0713C345.082 39.4447 345.343 39.1313 345.863 39.1313C346.034 39.1313 346.478 39.3511 347.194 39.7905C347.918 40.23 348.626 40.4497 349.318 40.4497C350.018 40.4497 350.543 40.3032 350.893 40.0103C351.243 39.7091 351.418 39.3348 351.418 38.8872C351.418 38.4315 351.198 38.0327 350.758 37.6909C350.522 37.5037 349.847 37.166 348.732 36.6777C347.617 36.1813 346.807 35.6849 346.303 35.1885ZM367.336 26.1309V26.2773C367.336 26.6924 367.213 27.0464 366.969 27.3394C366.733 27.6242 366.367 27.7666 365.871 27.7666H365.675L365.297 27.7178C365.077 27.7178 364.866 27.616 364.662 27.4126C364.459 27.2091 364.357 26.904 364.357 26.4971V26.3506L364.418 25.9111C364.418 25.7402 364.52 25.5286 364.723 25.2764C364.935 25.0241 365.203 24.8979 365.529 24.8979L365.81 24.8613H366.054L366.396 24.9102C366.607 24.9102 366.815 25.016 367.018 25.2275C367.23 25.431 367.336 25.7321 367.336 26.1309ZM366.762 31.2822L366.628 34.5659L366.603 34.8955L366.566 35.8965V36.3726C366.566 37.5444 366.599 38.3135 366.664 38.6797C366.737 39.0459 366.872 39.404 367.067 39.7539C367.262 40.0957 367.36 40.3439 367.36 40.4985V40.6084C367.36 41.0072 367.156 41.3245 366.75 41.5605C366.343 41.7965 365.789 41.9146 365.089 41.9146H364.784C364.377 41.9146 364.068 41.825 363.857 41.646C363.645 41.4588 363.539 41.2594 363.539 41.0479V40.7793C363.539 40.6735 363.633 40.2992 363.82 39.6562C364.007 39.0052 364.101 38.1222 364.101 37.0073C364.125 36.6899 364.137 36.4702 364.137 36.3481L364.174 35.6768L364.198 35.3472C364.239 34.7775 364.259 34.334 364.259 34.0166L364.272 33.5283C364.272 32.918 364.17 32.3768 363.966 31.9048C363.771 31.4328 363.673 31.1398 363.673 31.0259C363.673 30.4399 364.227 30.147 365.334 30.147H365.773C366.188 30.147 366.457 30.2568 366.579 30.4766C366.701 30.6882 366.762 30.9567 366.762 31.2822ZM381.569 40.5352C381.569 41.1374 381.044 41.4385 379.994 41.4385C379.4 41.4385 379.001 41.2961 378.798 41.0112C378.7 40.8729 378.651 40.5474 378.651 40.0347L378.615 39.2534C378.558 38.3989 378.529 37.5404 378.529 36.6777C378.529 34.8141 378.367 33.5649 378.041 32.9302C377.724 32.2873 377.187 31.9658 376.43 31.9658C375.925 31.9658 375.457 32.1164 375.026 32.4175C374.603 32.7186 374.277 33.1377 374.049 33.6748C373.577 34.7734 373.341 36.8039 373.341 39.7661C373.341 40.4416 373.211 40.9176 372.951 41.1943C372.698 41.471 372.373 41.6094 371.974 41.6094H371.73C370.819 41.6094 370.363 41.2472 370.363 40.5229V40.23C370.363 40.1405 370.412 39.9451 370.509 39.644L370.705 39.0825C370.9 38.4233 370.998 37.0114 370.998 34.8467L371.059 31.2212C371.059 30.7573 371.311 30.5254 371.815 30.5254C372.32 30.5254 372.816 30.6922 373.305 31.0259C373.801 31.3595 374.114 31.5264 374.245 31.5264C374.383 31.5264 374.623 31.4328 374.965 31.2456C376.112 30.619 377.032 30.3057 377.724 30.3057H378.041C379.286 30.3057 380.161 30.8672 380.666 31.9902C380.91 32.5192 381.032 33.6585 381.032 35.4082V35.4937C381.032 35.6401 381.028 35.7866 381.02 35.9331C381.02 36.3319 381.02 36.5394 381.02 36.5557C381.02 36.7103 381.02 36.8608 381.02 37.0073C381.02 37.1213 381.02 37.2311 381.02 37.3369C381.02 37.9635 381.04 38.3908 381.081 38.6187C381.138 38.9279 381.231 39.2493 381.361 39.583C381.5 39.9492 381.569 40.2666 381.569 40.5352ZM395.607 40.5352C395.607 41.1374 395.082 41.4385 394.032 41.4385C393.438 41.4385 393.039 41.2961 392.836 41.0112C392.738 40.8729 392.69 40.5474 392.69 40.0347L392.653 39.2534C392.596 38.3989 392.567 37.5404 392.567 36.6777C392.567 34.8141 392.405 33.5649 392.079 32.9302C391.762 32.2873 391.225 31.9658 390.468 31.9658C389.963 31.9658 389.495 32.1164 389.064 32.4175C388.641 32.7186 388.315 33.1377 388.087 33.6748C387.615 34.7734 387.379 36.8039 387.379 39.7661C387.379 40.4416 387.249 40.9176 386.989 41.1943C386.737 41.471 386.411 41.6094 386.012 41.6094H385.768C384.857 41.6094 384.401 41.2472 384.401 40.5229V40.23C384.401 40.1405 384.45 39.9451 384.547 39.644L384.743 39.0825C384.938 38.4233 385.036 37.0114 385.036 34.8467L385.097 31.2212C385.097 30.7573 385.349 30.5254 385.854 30.5254C386.358 30.5254 386.855 30.6922 387.343 31.0259C387.839 31.3595 388.153 31.5264 388.283 31.5264C388.421 31.5264 388.661 31.4328 389.003 31.2456C390.15 30.619 391.07 30.3057 391.762 30.3057H392.079C393.324 30.3057 394.199 30.8672 394.704 31.9902C394.948 32.5192 395.07 33.6585 395.07 35.4082V35.4937C395.07 35.6401 395.066 35.7866 395.058 35.9331C395.058 36.3319 395.058 36.5394 395.058 36.5557C395.058 36.7103 395.058 36.8608 395.058 37.0073C395.058 37.1213 395.058 37.2311 395.058 37.3369C395.058 37.9635 395.078 38.3908 395.119 38.6187C395.176 38.9279 395.269 39.2493 395.399 39.583C395.538 39.9492 395.607 40.2666 395.607 40.5352ZM400.575 36.8486C400.575 37.9147 400.819 38.8018 401.308 39.5098C401.796 40.2178 402.394 40.5718 403.102 40.5718H403.468C404.307 40.5718 405.015 40.1486 405.592 39.3022C406.178 38.4559 406.471 37.3288 406.471 35.9209V35.1152C406.471 34.0247 406.231 33.1336 405.751 32.4419C405.279 31.742 404.669 31.3921 403.92 31.3921H403.676C402.805 31.3921 402.073 31.8234 401.479 32.686C400.893 33.5487 400.6 34.5781 400.6 35.7744L400.575 36.0552V36.8486ZM403.334 42.2319H402.943C401.519 42.2319 400.36 41.7355 399.464 40.7427C398.569 39.7498 398.122 38.342 398.122 36.519L398.134 36.3115C398.134 34.3096 398.663 32.7308 399.721 31.5752C400.274 30.9648 400.905 30.5173 401.613 30.2324C402.329 29.9395 403.009 29.793 403.651 29.793H404.25C404.966 29.793 405.653 29.9517 406.313 30.269C408.201 31.1805 409.145 32.8976 409.145 35.4204V35.6157C409.136 36.4377 409.002 37.2718 408.742 38.1182C408.221 39.7865 407.22 40.9665 405.739 41.6582C404.917 42.0407 404.115 42.2319 403.334 42.2319ZM416.066 41.9878C415.472 41.9878 414.996 41.6094 414.638 40.8525C414.369 40.2829 413.889 38.9198 413.197 36.7632C412.514 34.5985 412.062 33.3086 411.842 32.8936C411.297 31.86 411.024 31.2008 411.024 30.916C411.024 30.623 411.114 30.4115 411.293 30.2812C411.472 30.1429 411.85 30.0737 412.428 30.0737C413.356 30.0737 413.97 30.4155 414.272 31.0991C414.329 31.2212 414.418 31.5996 414.54 32.2344C414.662 32.861 414.784 33.4144 414.906 33.8945L415.15 34.9688C415.761 37.6543 416.229 38.9971 416.554 38.9971C416.774 38.9971 417.392 37.6258 418.41 34.8833C418.874 33.63 419.171 32.6453 419.301 31.9292C419.439 31.2049 419.529 30.8021 419.569 30.7207C419.805 30.2731 420.302 30.0493 421.059 30.0493H421.303C421.856 30.0493 422.133 30.3301 422.133 30.8916C422.133 31.2904 422.011 31.6973 421.767 32.1123C421.523 32.5273 420.953 33.805 420.058 35.9453C419.171 38.0775 418.516 39.526 418.092 40.291C417.669 41.0479 417.319 41.5199 417.043 41.707C416.774 41.8942 416.448 41.9878 416.066 41.9878ZM427.882 40.4619H428.2C428.867 40.4619 429.453 40.2381 429.958 39.7905C430.47 39.3348 430.727 38.8099 430.727 38.2158L430.751 38.0571V37.8984L430.775 37.52V36.8242C430.775 36.3522 430.535 36.1162 430.055 36.1162H429.506L429.42 36.1284L428.944 36.165C428.717 36.1976 428.554 36.2139 428.456 36.2139C427.797 36.2139 427.187 36.4621 426.625 36.9585C426.234 37.3084 426.039 37.8049 426.039 38.4478V38.6919C426.039 39.2371 426.214 39.6685 426.564 39.9858C426.922 40.3032 427.362 40.4619 427.882 40.4619ZM425.16 32.6616C424.615 32.6616 424.342 32.3117 424.342 31.6118C424.342 31.091 424.782 30.6393 425.661 30.2568C426.548 29.8662 427.467 29.6709 428.419 29.6709H429.03C429.852 29.6709 430.576 29.8255 431.203 30.1348C431.829 30.4359 432.305 30.8468 432.631 31.3677C432.965 31.8885 433.168 32.568 433.241 33.4062C433.258 33.6016 433.266 34.5496 433.266 36.2505C433.266 37.9513 433.286 38.932 433.327 39.1924C433.376 39.4447 433.506 39.7539 433.717 40.1201C433.937 40.4863 434.047 40.7874 434.047 41.0234C434.047 41.2594 433.933 41.4629 433.705 41.6338C433.485 41.7965 433.164 41.8779 432.741 41.8779C432.318 41.8779 431.858 41.7762 431.361 41.5728C430.865 41.3612 430.503 41.2554 430.275 41.2554C430.251 41.2554 429.844 41.4019 429.054 41.6948C428.265 41.9797 427.598 42.1221 427.052 42.1221H426.784C425.872 42.1221 425.095 41.8332 424.452 41.2554C423.817 40.6776 423.5 39.8556 423.5 38.7896C423.5 37.7235 423.85 36.8934 424.55 36.2993C425.25 35.6971 426.1 35.2861 427.101 35.0664C427.402 35.0013 427.903 34.9159 428.603 34.8101C429.302 34.7043 429.779 34.5944 430.031 34.4805C430.47 34.277 430.69 33.8945 430.69 33.333C430.69 32.7633 430.503 32.3198 430.128 32.0024C429.754 31.6769 429.307 31.5142 428.786 31.5142C428.273 31.5142 427.598 31.7054 426.759 32.0879C425.921 32.4704 425.388 32.6616 425.16 32.6616ZM443.227 40.6938C443.227 41.0194 443.027 41.3123 442.628 41.5728C442.238 41.825 441.705 41.9512 441.029 41.9512C439.768 41.9512 438.881 41.4832 438.368 40.5474C438.051 39.9614 437.892 38.5902 437.892 36.4336C437.892 34.277 437.856 33.0238 437.782 32.6738C437.709 32.3239 437.506 31.9821 437.172 31.6484C436.838 31.3148 436.671 31.0584 436.671 30.8794C436.671 30.8143 437.066 30.387 437.856 29.5977C438.026 29.4268 438.197 29.0483 438.368 28.4624C438.547 27.8765 438.673 27.4899 438.747 27.3027C438.991 26.7168 439.312 26.4238 439.711 26.4238H439.906C440.256 26.4238 440.504 26.5581 440.651 26.8267C440.708 26.9325 440.793 27.3149 440.907 27.9741C441.029 28.6252 441.168 29.0443 441.322 29.2314C441.477 29.4186 441.864 29.6261 442.482 29.854C443.109 30.0737 443.422 30.3097 443.422 30.562V30.6963C443.422 31.0218 443.064 31.2985 442.348 31.5264C441.64 31.7461 441.184 32.1001 440.981 32.5884C440.582 33.5731 440.382 35.1763 440.382 37.3979C440.382 38.4396 440.561 39.1476 440.919 39.522C441.139 39.7498 441.579 39.9085 442.238 39.998C442.897 40.0876 443.227 40.3195 443.227 40.6938ZM450.002 26.1309V26.2773C450.002 26.6924 449.879 27.0464 449.635 27.3394C449.399 27.6242 449.033 27.7666 448.537 27.7666H448.341L447.963 27.7178C447.743 27.7178 447.532 27.616 447.328 27.4126C447.125 27.2091 447.023 26.904 447.023 26.4971V26.3506L447.084 25.9111C447.084 25.7402 447.186 25.5286 447.389 25.2764C447.601 25.0241 447.869 24.8979 448.195 24.8979L448.476 24.8613H448.72L449.062 24.9102C449.273 24.9102 449.481 25.016 449.684 25.2275C449.896 25.431 450.002 25.7321 450.002 26.1309ZM449.428 31.2822L449.294 34.5659L449.269 34.8955L449.232 35.8965V36.3726C449.232 37.5444 449.265 38.3135 449.33 38.6797C449.403 39.0459 449.538 39.404 449.733 39.7539C449.928 40.0957 450.026 40.3439 450.026 40.4985V40.6084C450.026 41.0072 449.822 41.3245 449.416 41.5605C449.009 41.7965 448.455 41.9146 447.755 41.9146H447.45C447.043 41.9146 446.734 41.825 446.523 41.646C446.311 41.4588 446.205 41.2594 446.205 41.0479V40.7793C446.205 40.6735 446.299 40.2992 446.486 39.6562C446.673 39.0052 446.767 38.1222 446.767 37.0073C446.791 36.6899 446.803 36.4702 446.803 36.3481L446.84 35.6768L446.864 35.3472C446.905 34.7775 446.925 34.334 446.925 34.0166L446.938 33.5283C446.938 32.918 446.836 32.3768 446.632 31.9048C446.437 31.4328 446.339 31.1398 446.339 31.0259C446.339 30.4399 446.893 30.147 448 30.147H448.439C448.854 30.147 449.123 30.2568 449.245 30.4766C449.367 30.6882 449.428 30.9567 449.428 31.2822ZM455.165 36.8486C455.165 37.9147 455.409 38.8018 455.898 39.5098C456.386 40.2178 456.984 40.5718 457.692 40.5718H458.058C458.896 40.5718 459.604 40.1486 460.182 39.3022C460.768 38.4559 461.061 37.3288 461.061 35.9209V35.1152C461.061 34.0247 460.821 33.1336 460.341 32.4419C459.869 31.742 459.259 31.3921 458.51 31.3921H458.266C457.395 31.3921 456.662 31.8234 456.068 32.686C455.482 33.5487 455.19 34.5781 455.19 35.7744L455.165 36.0552V36.8486ZM457.924 42.2319H457.533C456.109 42.2319 454.949 41.7355 454.054 40.7427C453.159 39.7498 452.711 38.342 452.711 36.519L452.724 36.3115C452.724 34.3096 453.253 32.7308 454.311 31.5752C454.864 30.9648 455.495 30.5173 456.203 30.2324C456.919 29.9395 457.598 29.793 458.241 29.793H458.839C459.556 29.793 460.243 29.9517 460.902 30.269C462.79 31.1805 463.734 32.8976 463.734 35.4204V35.6157C463.726 36.4377 463.592 37.2718 463.332 38.1182C462.811 39.7865 461.81 40.9665 460.329 41.6582C459.507 42.0407 458.705 42.2319 457.924 42.2319ZM477.467 40.5352C477.467 41.1374 476.942 41.4385 475.893 41.4385C475.299 41.4385 474.9 41.2961 474.696 41.0112C474.599 40.8729 474.55 40.5474 474.55 40.0347L474.513 39.2534C474.456 38.3989 474.428 37.5404 474.428 36.6777C474.428 34.8141 474.265 33.5649 473.94 32.9302C473.622 32.2873 473.085 31.9658 472.328 31.9658C471.824 31.9658 471.356 32.1164 470.924 32.4175C470.501 32.7186 470.176 33.1377 469.948 33.6748C469.476 34.7734 469.24 36.8039 469.24 39.7661C469.24 40.4416 469.11 40.9176 468.849 41.1943C468.597 41.471 468.271 41.6094 467.873 41.6094H467.628C466.717 41.6094 466.261 41.2472 466.261 40.5229V40.23C466.261 40.1405 466.31 39.9451 466.408 39.644L466.603 39.0825C466.798 38.4233 466.896 37.0114 466.896 34.8467L466.957 31.2212C466.957 30.7573 467.209 30.5254 467.714 30.5254C468.218 30.5254 468.715 30.6922 469.203 31.0259C469.7 31.3595 470.013 31.5264 470.143 31.5264C470.281 31.5264 470.522 31.4328 470.863 31.2456C472.011 30.619 472.93 30.3057 473.622 30.3057H473.94C475.185 30.3057 476.059 30.8672 476.564 31.9902C476.808 32.5192 476.93 33.6585 476.93 35.4082V35.4937C476.93 35.6401 476.926 35.7866 476.918 35.9331C476.918 36.3319 476.918 36.5394 476.918 36.5557C476.918 36.7103 476.918 36.8608 476.918 37.0073C476.918 37.1213 476.918 37.2311 476.918 37.3369C476.918 37.9635 476.938 38.3908 476.979 38.6187C477.036 38.9279 477.13 39.2493 477.26 39.583C477.398 39.9492 477.467 40.2666 477.467 40.5352ZM482.069 42.1953H481.691C481.284 42.1953 480.967 42.1017 480.739 41.9146C480.519 41.7274 480.409 41.4792 480.409 41.1699C480.393 41.1048 480.385 41.0519 480.385 41.0112L480.36 40.8037V40.584L480.373 40.5352V40.4253C480.389 40.3602 480.397 40.3073 480.397 40.2666C480.397 39.9004 480.519 39.6156 480.763 39.4121C481.016 39.2005 481.292 39.0947 481.593 39.0947L481.85 39.0581H482.179C483.066 39.0581 483.51 39.522 483.51 40.4497V40.6206L483.461 41.0356C483.461 41.41 483.319 41.6989 483.034 41.9023C482.757 42.0977 482.436 42.1953 482.069 42.1953ZM503.065 29.6221V29.2681C503.065 28.381 502.773 27.6893 502.187 27.1929C501.601 26.6965 500.791 26.4482 499.757 26.4482H499.318C498.537 26.4482 498.028 26.554 497.792 26.7656C497.556 26.9772 497.438 27.4696 497.438 28.2427L497.414 28.4624L497.255 31.9536V32.3809C497.255 32.682 497.336 32.8854 497.499 32.9912C497.67 33.097 497.991 33.1499 498.463 33.1499L498.573 33.1377L499.001 33.1255L499.428 33.1011C500.453 33.1011 501.316 32.7796 502.016 32.1367C502.716 31.4857 503.065 30.6475 503.065 29.6221ZM497.182 38.2036L497.438 40.2422C497.438 40.6979 497.247 41.0601 496.864 41.3286C496.49 41.5972 495.989 41.7314 495.363 41.7314C494.24 41.7314 493.678 41.2839 493.678 40.3887C493.678 40.2015 493.792 39.8719 494.02 39.3999C494.248 38.9198 494.386 38.4396 494.435 37.9595C494.647 35.8761 494.753 33.3818 494.753 30.4766L494.765 30.1104C494.773 29.8662 494.777 29.6261 494.777 29.3901L494.801 28.3037C494.801 27.3841 494.777 26.7412 494.728 26.375L494.679 26.1187C494.639 25.8826 494.618 25.7321 494.618 25.667C494.618 25.3008 494.887 25.0607 495.424 24.9468C495.961 24.8328 497.064 24.7759 498.732 24.7759H499.879C502.63 24.7759 504.416 25.5815 505.238 27.1929C505.523 27.7707 505.666 28.4502 505.666 29.2314C505.666 30.6637 505.063 31.9699 503.859 33.1499C503.192 33.8009 502.858 34.3258 502.858 34.7246C502.858 35.1234 503.354 36.2261 504.347 38.0327C504.673 38.6187 505.08 39.1842 505.568 39.7295C506.056 40.2747 506.3 40.6613 506.3 40.8892V41.1333C506.3 41.5728 505.942 41.7925 505.226 41.7925C504.51 41.7925 503.977 41.6053 503.627 41.231C503.285 40.8485 502.707 39.9045 501.894 38.3989C501.088 36.8934 500.644 36.0918 500.563 35.9941C500.058 35.3919 499.509 35.0908 498.915 35.0908C498.321 35.0908 497.845 35.4001 497.487 36.0186C497.283 36.3685 497.182 37.0968 497.182 38.2036ZM511.22 34.5781V34.7734C511.22 35.0176 511.444 35.1396 511.891 35.1396H512.184L512.257 35.1274L512.856 35.0786C513.482 34.9891 513.889 34.9443 514.076 34.9443C514.963 34.9443 515.631 34.7775 516.078 34.4438C516.29 34.2811 516.396 33.9922 516.396 33.5771V33.4429C516.396 32.8325 516.192 32.3483 515.785 31.9902C515.386 31.6322 514.906 31.4531 514.345 31.4531H514.259L514.186 31.4653C513.397 31.4653 512.705 31.799 512.111 32.4663C511.517 33.1336 511.22 33.8376 511.22 34.5781ZM513.881 42.1587H513.612C512.058 42.1587 510.821 41.6663 509.901 40.6816C508.982 39.6888 508.522 38.3664 508.522 36.7144V36.1772C508.522 35.3879 508.677 34.5863 508.986 33.7725C509.613 32.1449 510.634 31.0218 512.05 30.4033C512.799 30.0697 513.559 29.9028 514.333 29.9028H514.857C515.924 29.9028 516.823 30.2609 517.555 30.9771C518.296 31.6851 518.666 32.6006 518.666 33.7236V33.9678C518.666 34.7653 518.349 35.3309 517.714 35.6646C517.274 35.9006 516.249 36.1366 514.638 36.3726C513.026 36.6086 512.148 36.751 512.001 36.7998C511.513 36.9707 511.269 37.2962 511.269 37.7764C511.269 38.4437 511.553 39.0133 512.123 39.4854C512.693 39.9574 513.458 40.1934 514.418 40.1934C514.866 40.1934 515.476 40.0713 516.249 39.8271C517.022 39.583 517.47 39.4609 517.592 39.4609C518.007 39.4609 518.214 39.64 518.214 39.998C518.214 40.4782 517.746 40.9583 516.811 41.4385C515.875 41.9186 514.898 42.1587 513.881 42.1587ZM522.182 35.1885C521.685 34.6839 521.437 33.9759 521.437 33.0645C521.437 32.153 521.844 31.3717 522.658 30.7207C523.472 30.0615 524.481 29.7319 525.685 29.7319H526.003C527.069 29.7319 527.915 29.8825 528.542 30.1836C529.176 30.4847 529.494 30.9364 529.494 31.5386C529.494 32.1326 529.229 32.4297 528.7 32.4297C528.562 32.4297 528.171 32.2669 527.528 31.9414C526.885 31.6077 526.279 31.4409 525.71 31.4409C525.14 31.4409 524.68 31.5711 524.33 31.8315C523.988 32.0838 523.817 32.4338 523.817 32.8813C523.817 33.3289 524.058 33.7196 524.538 34.0532C524.814 34.2485 525.465 34.5578 526.491 34.981C527.524 35.4041 528.261 35.811 528.7 36.2017C529.408 36.8283 529.762 37.6299 529.762 38.6064C529.762 39.583 529.347 40.4212 528.517 41.1211C527.687 41.8128 526.609 42.1587 525.282 42.1587H524.965C523.63 42.1587 522.629 41.9674 521.962 41.585C521.295 41.1943 520.961 40.6898 520.961 40.0713C520.961 39.4447 521.221 39.1313 521.742 39.1313C521.913 39.1313 522.357 39.3511 523.073 39.7905C523.797 40.23 524.505 40.4497 525.197 40.4497C525.897 40.4497 526.422 40.3032 526.772 40.0103C527.121 39.7091 527.296 39.3348 527.296 38.8872C527.296 38.4315 527.077 38.0327 526.637 37.6909C526.401 37.5037 525.726 37.166 524.611 36.6777C523.496 36.1813 522.686 35.6849 522.182 35.1885ZM536.354 26.1309V26.2773C536.354 26.6924 536.232 27.0464 535.988 27.3394C535.752 27.6242 535.386 27.7666 534.889 27.7666H534.694L534.315 27.7178C534.096 27.7178 533.884 27.616 533.681 27.4126C533.477 27.2091 533.376 26.904 533.376 26.4971V26.3506L533.437 25.9111C533.437 25.7402 533.538 25.5286 533.742 25.2764C533.953 25.0241 534.222 24.8979 534.547 24.8979L534.828 24.8613H535.072L535.414 24.9102C535.626 24.9102 535.833 25.016 536.037 25.2275C536.248 25.431 536.354 25.7321 536.354 26.1309ZM535.78 31.2822L535.646 34.5659L535.622 34.8955L535.585 35.8965V36.3726C535.585 37.5444 535.618 38.3135 535.683 38.6797C535.756 39.0459 535.89 39.404 536.086 39.7539C536.281 40.0957 536.378 40.3439 536.378 40.4985V40.6084C536.378 41.0072 536.175 41.3245 535.768 41.5605C535.361 41.7965 534.808 41.9146 534.108 41.9146H533.803C533.396 41.9146 533.087 41.825 532.875 41.646C532.663 41.4588 532.558 41.2594 532.558 41.0479V40.7793C532.558 40.6735 532.651 40.2992 532.838 39.6562C533.026 39.0052 533.119 38.1222 533.119 37.0073C533.144 36.6899 533.156 36.4702 533.156 36.3481L533.192 35.6768L533.217 35.3472C533.258 34.7775 533.278 34.334 533.278 34.0166L533.29 33.5283C533.29 32.918 533.188 32.3768 532.985 31.9048C532.79 31.4328 532.692 31.1398 532.692 31.0259C532.692 30.4399 533.245 30.147 534.352 30.147H534.792C535.207 30.147 535.475 30.2568 535.597 30.4766C535.719 30.6882 535.78 30.9567 535.78 31.2822ZM540.297 35.1885C539.801 34.6839 539.552 33.9759 539.552 33.0645C539.552 32.153 539.959 31.3717 540.773 30.7207C541.587 30.0615 542.596 29.7319 543.8 29.7319H544.118C545.184 29.7319 546.03 29.8825 546.657 30.1836C547.292 30.4847 547.609 30.9364 547.609 31.5386C547.609 32.1326 547.344 32.4297 546.815 32.4297C546.677 32.4297 546.287 32.2669 545.644 31.9414C545.001 31.6077 544.394 31.4409 543.825 31.4409C543.255 31.4409 542.795 31.5711 542.445 31.8315C542.104 32.0838 541.933 32.4338 541.933 32.8813C541.933 33.3289 542.173 33.7196 542.653 34.0532C542.93 34.2485 543.581 34.5578 544.606 34.981C545.64 35.4041 546.376 35.811 546.815 36.2017C547.523 36.8283 547.878 37.6299 547.878 38.6064C547.878 39.583 547.462 40.4212 546.632 41.1211C545.802 41.8128 544.724 42.1587 543.398 42.1587H543.08C541.746 42.1587 540.745 41.9674 540.077 41.585C539.41 41.1943 539.076 40.6898 539.076 40.0713C539.076 39.4447 539.337 39.1313 539.857 39.1313C540.028 39.1313 540.472 39.3511 541.188 39.7905C541.912 40.23 542.62 40.4497 543.312 40.4497C544.012 40.4497 544.537 40.3032 544.887 40.0103C545.237 39.7091 545.412 39.3348 545.412 38.8872C545.412 38.4315 545.192 38.0327 544.753 37.6909C544.516 37.5037 543.841 37.166 542.726 36.6777C541.611 36.1813 540.801 35.6849 540.297 35.1885ZM556.874 40.6938C556.874 41.0194 556.675 41.3123 556.276 41.5728C555.885 41.825 555.352 41.9512 554.677 41.9512C553.415 41.9512 552.528 41.4832 552.016 40.5474C551.698 39.9614 551.54 38.5902 551.54 36.4336C551.54 34.277 551.503 33.0238 551.43 32.6738C551.357 32.3239 551.153 31.9821 550.819 31.6484C550.486 31.3148 550.319 31.0584 550.319 30.8794C550.319 30.8143 550.714 30.387 551.503 29.5977C551.674 29.4268 551.845 29.0483 552.016 28.4624C552.195 27.8765 552.321 27.4899 552.394 27.3027C552.638 26.7168 552.96 26.4238 553.358 26.4238H553.554C553.904 26.4238 554.152 26.5581 554.298 26.8267C554.355 26.9325 554.441 27.3149 554.555 27.9741C554.677 28.6252 554.815 29.0443 554.97 29.2314C555.124 29.4186 555.511 29.6261 556.129 29.854C556.756 30.0737 557.069 30.3097 557.069 30.562V30.6963C557.069 31.0218 556.711 31.2985 555.995 31.5264C555.287 31.7461 554.831 32.1001 554.628 32.5884C554.229 33.5731 554.03 35.1763 554.03 37.3979C554.03 38.4396 554.209 39.1476 554.567 39.522C554.787 39.7498 555.226 39.9085 555.885 39.998C556.544 40.0876 556.874 40.3195 556.874 40.6938ZM560.585 35.1885C560.089 34.6839 559.84 33.9759 559.84 33.0645C559.84 32.153 560.247 31.3717 561.061 30.7207C561.875 30.0615 562.884 29.7319 564.088 29.7319H564.406C565.472 29.7319 566.318 29.8825 566.945 30.1836C567.58 30.4847 567.897 30.9364 567.897 31.5386C567.897 32.1326 567.633 32.4297 567.104 32.4297C566.965 32.4297 566.575 32.2669 565.932 31.9414C565.289 31.6077 564.683 31.4409 564.113 31.4409C563.543 31.4409 563.083 31.5711 562.733 31.8315C562.392 32.0838 562.221 32.4338 562.221 32.8813C562.221 33.3289 562.461 33.7196 562.941 34.0532C563.218 34.2485 563.869 34.5578 564.894 34.981C565.928 35.4041 566.664 35.811 567.104 36.2017C567.812 36.8283 568.166 37.6299 568.166 38.6064C568.166 39.583 567.751 40.4212 566.92 41.1211C566.09 41.8128 565.012 42.1587 563.686 42.1587H563.368C562.034 42.1587 561.033 41.9674 560.365 41.585C559.698 41.1943 559.364 40.6898 559.364 40.0713C559.364 39.4447 559.625 39.1313 560.146 39.1313C560.316 39.1313 560.76 39.3511 561.476 39.7905C562.2 40.23 562.908 40.4497 563.6 40.4497C564.3 40.4497 564.825 40.3032 565.175 40.0103C565.525 39.7091 565.7 39.3348 565.7 38.8872C565.7 38.4315 565.48 38.0327 565.041 37.6909C564.805 37.5037 564.129 37.166 563.014 36.6777C561.899 36.1813 561.09 35.6849 560.585 35.1885ZM581.544 40.4619H581.862C582.529 40.4619 583.115 40.2381 583.62 39.7905C584.132 39.3348 584.389 38.8099 584.389 38.2158L584.413 38.0571V37.8984L584.438 37.52V36.8242C584.438 36.3522 584.197 36.1162 583.717 36.1162H583.168L583.083 36.1284L582.607 36.165C582.379 36.1976 582.216 36.2139 582.118 36.2139C581.459 36.2139 580.849 36.4621 580.287 36.9585C579.897 37.3084 579.701 37.8049 579.701 38.4478V38.6919C579.701 39.2371 579.876 39.6685 580.226 39.9858C580.584 40.3032 581.024 40.4619 581.544 40.4619ZM578.822 32.6616C578.277 32.6616 578.004 32.3117 578.004 31.6118C578.004 31.091 578.444 30.6393 579.323 30.2568C580.21 29.8662 581.129 29.6709 582.082 29.6709H582.692C583.514 29.6709 584.238 29.8255 584.865 30.1348C585.491 30.4359 585.968 30.8468 586.293 31.3677C586.627 31.8885 586.83 32.568 586.903 33.4062C586.92 33.6016 586.928 34.5496 586.928 36.2505C586.928 37.9513 586.948 38.932 586.989 39.1924C587.038 39.4447 587.168 39.7539 587.379 40.1201C587.599 40.4863 587.709 40.7874 587.709 41.0234C587.709 41.2594 587.595 41.4629 587.367 41.6338C587.148 41.7965 586.826 41.8779 586.403 41.8779C585.98 41.8779 585.52 41.7762 585.023 41.5728C584.527 41.3612 584.165 41.2554 583.937 41.2554C583.913 41.2554 583.506 41.4019 582.716 41.6948C581.927 41.9797 581.26 42.1221 580.714 42.1221H580.446C579.534 42.1221 578.757 41.8332 578.114 41.2554C577.48 40.6776 577.162 39.8556 577.162 38.7896C577.162 37.7235 577.512 36.8934 578.212 36.2993C578.912 35.6971 579.762 35.2861 580.763 35.0664C581.064 35.0013 581.565 34.9159 582.265 34.8101C582.965 34.7043 583.441 34.5944 583.693 34.4805C584.132 34.277 584.352 33.8945 584.352 33.333C584.352 32.7633 584.165 32.3198 583.791 32.0024C583.416 31.6769 582.969 31.5142 582.448 31.5142C581.935 31.5142 581.26 31.7054 580.421 32.0879C579.583 32.4704 579.05 32.6616 578.822 32.6616ZM591.237 25.0322C591.237 24.4382 591.794 24.1411 592.909 24.1411H593.129C593.593 24.1411 593.91 24.255 594.081 24.4829C594.252 24.7026 594.337 25.134 594.337 25.7769L594.24 27.5957C594.215 27.8805 594.203 28.0352 594.203 28.0596L594.179 28.5234C594.162 28.8245 594.146 29.1297 594.13 29.439L594.093 29.9028L594.057 30.5986C593.926 33.0726 593.861 34.8996 593.861 36.0796C593.861 37.2515 593.914 38.0938 594.02 38.6064C594.126 39.1191 594.293 39.5545 594.521 39.9126C594.748 40.2707 594.862 40.5067 594.862 40.6206V40.7671C594.862 41.1252 594.683 41.41 594.325 41.6216C593.975 41.8332 593.499 41.939 592.897 41.939H592.262C591.888 41.939 591.558 41.8332 591.273 41.6216C590.997 41.4019 590.858 41.1536 590.858 40.877V40.5474L590.932 40.0347C591.029 39.3267 591.086 38.7977 591.103 38.4478C591.127 38.0897 591.164 37.5973 591.212 36.9707C591.261 36.3359 591.339 34.9891 591.444 32.9302C591.558 30.8631 591.615 29.7523 591.615 29.5977L591.664 28.6821L591.689 27.7788C591.689 26.9162 591.611 26.3018 591.457 25.9355C591.31 25.5612 591.237 25.2601 591.237 25.0322ZM598.415 25.0322C598.415 24.4382 598.972 24.1411 600.087 24.1411H600.307C600.771 24.1411 601.088 24.255 601.259 24.4829C601.43 24.7026 601.515 25.134 601.515 25.7769L601.418 27.5957C601.393 27.8805 601.381 28.0352 601.381 28.0596L601.357 28.5234C601.34 28.8245 601.324 29.1297 601.308 29.439L601.271 29.9028L601.234 30.5986C601.104 33.0726 601.039 34.8996 601.039 36.0796C601.039 37.2515 601.092 38.0938 601.198 38.6064C601.304 39.1191 601.47 39.5545 601.698 39.9126C601.926 40.2707 602.04 40.5067 602.04 40.6206V40.7671C602.04 41.1252 601.861 41.41 601.503 41.6216C601.153 41.8332 600.677 41.939 600.075 41.939H599.44C599.066 41.939 598.736 41.8332 598.451 41.6216C598.175 41.4019 598.036 41.1536 598.036 40.877V40.5474L598.109 40.0347C598.207 39.3267 598.264 38.7977 598.28 38.4478C598.305 38.0897 598.341 37.5973 598.39 36.9707C598.439 36.3359 598.516 34.9891 598.622 32.9302C598.736 30.8631 598.793 29.7523 598.793 29.5977L598.842 28.6821L598.866 27.7788C598.866 26.9162 598.789 26.3018 598.634 25.9355C598.488 25.5612 598.415 25.2601 598.415 25.0322ZM611.391 36.9219V36.3604C611.391 35.335 611.549 34.4276 611.867 33.6382C612.477 32.1082 613.413 31.0503 614.674 30.4644C615.496 30.0737 616.347 29.8784 617.226 29.8784H617.494C618.463 29.8784 619.264 30.0697 619.899 30.4521C620.534 30.8346 620.851 31.3026 620.851 31.856C620.851 32.4989 620.542 32.8203 619.923 32.8203C619.809 32.8203 619.411 32.6413 618.727 32.2832C618.044 31.9333 617.482 31.7583 617.043 31.7583C617.034 31.7583 617.026 31.7583 617.018 31.7583C616.058 31.7583 615.305 32.1733 614.76 33.0034C614.223 33.8335 613.954 34.9159 613.954 36.2505C613.954 37.5851 614.239 38.5739 614.809 39.2168C615.386 39.8597 616.188 40.1812 617.213 40.1812C617.637 40.1812 618.218 40.0632 618.959 39.8271C619.7 39.583 620.151 39.4609 620.314 39.4609C620.648 39.4609 620.815 39.6359 620.815 39.9858C620.815 40.4578 620.347 40.9339 619.411 41.4141C618.475 41.8942 617.555 42.1343 616.652 42.1343C614.235 42.1343 612.636 41.1821 611.855 39.2778C611.545 38.521 611.391 37.7357 611.391 36.9219ZM624.904 41.7681C623.944 41.7681 623.463 41.4263 623.463 40.7427C623.463 40.4334 623.537 39.9736 623.683 39.3633C623.838 38.7529 623.94 38.1914 623.988 37.6787C624.037 37.1579 624.123 35.4814 624.245 32.6494C624.375 29.8174 624.44 28.0921 624.44 27.4736V26.0332L624.367 25.0078C624.367 24.6253 624.717 24.4341 625.417 24.4341C626.125 24.4341 626.584 24.7067 626.796 25.252C626.902 25.5286 626.955 26.432 626.955 27.9619C626.955 29.4919 626.983 30.3626 627.04 30.5742C627.105 30.7858 627.272 30.8916 627.541 30.8916C627.573 30.8916 627.728 30.8428 628.004 30.7451L628.273 30.6475C629.144 30.3057 629.897 30.1348 630.531 30.1348C631.866 30.1348 632.814 30.6556 633.376 31.6973C633.75 32.389 633.937 33.8945 633.937 36.2139C633.937 37.3044 633.945 37.9513 633.961 38.1548C633.978 38.3582 634.031 38.7285 634.12 39.2656C634.21 39.7946 634.254 40.0876 634.254 40.1445C634.254 40.6247 634.145 40.9827 633.925 41.2188C633.713 41.4466 633.327 41.5605 632.765 41.5605C632.212 41.5605 631.85 41.3896 631.679 41.0479C631.589 40.8688 631.544 40.3521 631.544 39.4976L631.508 37.3491L631.544 35.4082C631.544 33.2354 630.91 32.1489 629.64 32.1489C628.517 32.1489 627.716 32.6209 627.235 33.5649C626.755 34.509 626.515 36.2586 626.515 38.814L626.552 40.1445C626.552 40.6003 626.409 40.9868 626.125 41.3042C625.84 41.6134 625.433 41.7681 624.904 41.7681ZM641.261 40.4619H641.579C642.246 40.4619 642.832 40.2381 643.336 39.7905C643.849 39.3348 644.106 38.8099 644.106 38.2158L644.13 38.0571V37.8984L644.154 37.52V36.8242C644.154 36.3522 643.914 36.1162 643.434 36.1162H642.885L642.799 36.1284L642.323 36.165C642.095 36.1976 641.933 36.2139 641.835 36.2139C641.176 36.2139 640.565 36.4621 640.004 36.9585C639.613 37.3084 639.418 37.8049 639.418 38.4478V38.6919C639.418 39.2371 639.593 39.6685 639.943 39.9858C640.301 40.3032 640.74 40.4619 641.261 40.4619ZM638.539 32.6616C637.994 32.6616 637.721 32.3117 637.721 31.6118C637.721 31.091 638.161 30.6393 639.04 30.2568C639.927 29.8662 640.846 29.6709 641.798 29.6709H642.409C643.231 29.6709 643.955 29.8255 644.582 30.1348C645.208 30.4359 645.684 30.8468 646.01 31.3677C646.343 31.8885 646.547 32.568 646.62 33.4062C646.636 33.6016 646.645 34.5496 646.645 36.2505C646.645 37.9513 646.665 38.932 646.706 39.1924C646.754 39.4447 646.885 39.7539 647.096 40.1201C647.316 40.4863 647.426 40.7874 647.426 41.0234C647.426 41.2594 647.312 41.4629 647.084 41.6338C646.864 41.7965 646.543 41.8779 646.12 41.8779C645.697 41.8779 645.237 41.7762 644.74 41.5728C644.244 41.3612 643.882 41.2554 643.654 41.2554C643.629 41.2554 643.223 41.4019 642.433 41.6948C641.644 41.9797 640.976 42.1221 640.431 42.1221H640.163C639.251 42.1221 638.474 41.8332 637.831 41.2554C637.196 40.6776 636.879 39.8556 636.879 38.7896C636.879 37.7235 637.229 36.8934 637.929 36.2993C638.629 35.6971 639.479 35.2861 640.48 35.0664C640.781 35.0013 641.282 34.9159 641.982 34.8101C642.681 34.7043 643.157 34.5944 643.41 34.4805C643.849 34.277 644.069 33.8945 644.069 33.333C644.069 32.7633 643.882 32.3198 643.507 32.0024C643.133 31.6769 642.685 31.5142 642.165 31.5142C641.652 31.5142 640.976 31.7054 640.138 32.0879C639.3 32.4704 638.767 32.6616 638.539 32.6616ZM661.476 40.5352C661.476 41.1374 660.951 41.4385 659.901 41.4385C659.307 41.4385 658.909 41.2961 658.705 41.0112C658.607 40.8729 658.559 40.5474 658.559 40.0347L658.522 39.2534C658.465 38.3989 658.437 37.5404 658.437 36.6777C658.437 34.8141 658.274 33.5649 657.948 32.9302C657.631 32.2873 657.094 31.9658 656.337 31.9658C655.832 31.9658 655.364 32.1164 654.933 32.4175C654.51 32.7186 654.184 33.1377 653.957 33.6748C653.485 34.7734 653.249 36.8039 653.249 39.7661C653.249 40.4416 653.118 40.9176 652.858 41.1943C652.606 41.471 652.28 41.6094 651.881 41.6094H651.637C650.726 41.6094 650.27 41.2472 650.27 40.5229V40.23C650.27 40.1405 650.319 39.9451 650.417 39.644L650.612 39.0825C650.807 38.4233 650.905 37.0114 650.905 34.8467L650.966 31.2212C650.966 30.7573 651.218 30.5254 651.723 30.5254C652.227 30.5254 652.724 30.6922 653.212 31.0259C653.708 31.3595 654.022 31.5264 654.152 31.5264C654.29 31.5264 654.53 31.4328 654.872 31.2456C656.02 30.619 656.939 30.3057 657.631 30.3057H657.948C659.193 30.3057 660.068 30.8672 660.573 31.9902C660.817 32.5192 660.939 33.6585 660.939 35.4082V35.4937C660.939 35.6401 660.935 35.7866 660.927 35.9331C660.927 36.3319 660.927 36.5394 660.927 36.5557C660.927 36.7103 660.927 36.8608 660.927 37.0073C660.927 37.1213 660.927 37.2311 660.927 37.3369C660.927 37.9635 660.947 38.3908 660.988 38.6187C661.045 38.9279 661.138 39.2493 661.269 39.583C661.407 39.9492 661.476 40.2666 661.476 40.5352ZM666.469 36.3481V36.7266C666.469 37.8171 666.676 38.6715 667.091 39.29C667.506 39.9085 668.027 40.2178 668.654 40.2178H669.081C669.984 40.2178 670.688 39.8394 671.193 39.0825C671.697 38.3175 671.95 37.2474 671.95 35.8721C671.966 35.7093 671.974 35.5832 671.974 35.4937L671.999 34.9932V34.2607C671.982 34.098 671.974 33.9759 671.974 33.8945C671.974 33.2516 671.82 32.7471 671.51 32.3809C671.201 32.0146 670.745 31.8315 670.143 31.8315H669.801C668.841 31.8315 668.044 32.2344 667.409 33.04C666.782 33.8457 666.469 34.9484 666.469 36.3481ZM673.561 30.8306C674.269 30.8306 674.623 31.3433 674.623 32.3687C674.623 32.6372 674.513 33.7603 674.294 35.7378C674.074 37.7153 673.964 39.3958 673.964 40.7793C673.964 42.179 673.87 43.2288 673.683 43.9287C673.284 45.4342 672.361 46.5003 670.912 47.127C670.155 47.4525 669.317 47.6152 668.398 47.6152C667.486 47.6152 666.672 47.4525 665.956 47.127C665.248 46.8014 664.894 46.4108 664.894 45.9551C664.894 45.4342 665.244 45.1738 665.944 45.1738C666.082 45.1738 666.457 45.2267 667.067 45.3325C667.677 45.4383 668.117 45.4912 668.385 45.4912C669.37 45.4912 670.176 45.182 670.802 44.5635C671.437 43.9531 671.754 43.1678 671.754 42.2075C671.754 41.703 671.567 41.4507 671.193 41.4507C671.128 41.4507 670.973 41.4751 670.729 41.5239C670.037 41.6623 669.407 41.7314 668.837 41.7314C667.388 41.7314 666.298 41.292 665.565 40.4131C665.224 40.0062 664.931 39.465 664.687 38.7896C664.451 38.106 664.333 37.3857 664.333 36.6289V36.2871C664.333 35.4896 664.463 34.7043 664.723 33.9312C664.992 33.1499 665.346 32.4948 665.785 31.9658C666.225 31.4287 666.798 31.0096 667.506 30.7085C668.214 30.4074 668.939 30.2568 669.679 30.2568H669.997C670.412 30.2568 670.945 30.3708 671.596 30.5986C672.255 30.8184 672.658 30.9282 672.804 30.9282C673.13 30.8631 673.382 30.8306 673.561 30.8306ZM680.043 34.5781V34.7734C680.043 35.0176 680.267 35.1396 680.714 35.1396H681.007L681.081 35.1274L681.679 35.0786C682.305 34.9891 682.712 34.9443 682.899 34.9443C683.787 34.9443 684.454 34.7775 684.901 34.4438C685.113 34.2811 685.219 33.9922 685.219 33.5771V33.4429C685.219 32.8325 685.015 32.3483 684.608 31.9902C684.21 31.6322 683.73 31.4531 683.168 31.4531H683.083L683.009 31.4653C682.22 31.4653 681.528 31.799 680.934 32.4663C680.34 33.1336 680.043 33.8376 680.043 34.5781ZM682.704 42.1587H682.436C680.881 42.1587 679.644 41.6663 678.725 40.6816C677.805 39.6888 677.345 38.3664 677.345 36.7144V36.1772C677.345 35.3879 677.5 34.5863 677.809 33.7725C678.436 32.1449 679.457 31.0218 680.873 30.4033C681.622 30.0697 682.383 29.9028 683.156 29.9028H683.681C684.747 29.9028 685.646 30.2609 686.378 30.9771C687.119 31.6851 687.489 32.6006 687.489 33.7236V33.9678C687.489 34.7653 687.172 35.3309 686.537 35.6646C686.098 35.9006 685.072 36.1366 683.461 36.3726C681.85 36.6086 680.971 36.751 680.824 36.7998C680.336 36.9707 680.092 37.2962 680.092 37.7764C680.092 38.4437 680.377 39.0133 680.946 39.4854C681.516 39.9574 682.281 40.1934 683.241 40.1934C683.689 40.1934 684.299 40.0713 685.072 39.8271C685.845 39.583 686.293 39.4609 686.415 39.4609C686.83 39.4609 687.038 39.64 687.038 39.998C687.038 40.4782 686.57 40.9583 685.634 41.4385C684.698 41.9186 683.721 42.1587 682.704 42.1587ZM691.859 42.1953H691.481C691.074 42.1953 690.757 42.1017 690.529 41.9146C690.309 41.7274 690.199 41.4792 690.199 41.1699C690.183 41.1048 690.175 41.0519 690.175 41.0112L690.15 40.8037V40.584L690.163 40.5352V40.4253C690.179 40.3602 690.187 40.3073 690.187 40.2666C690.187 39.9004 690.309 39.6156 690.553 39.4121C690.806 39.2005 691.082 39.0947 691.383 39.0947L691.64 39.0581H691.969C692.856 39.0581 693.3 39.522 693.3 40.4497V40.6206L693.251 41.0356C693.251 41.41 693.109 41.6989 692.824 41.9023C692.547 42.0977 692.226 42.1953 691.859 42.1953Z" fill="black"/>
</svg>
