<svg width="758" height="87" viewBox="0 0 758 87" fill="none" xmlns="http://www.w3.org/2000/svg">
<rect width="758" height="87" rx="18" fill="#D9D9D9"/>
<path d="M33.452 53.1172C33.102 53.1172 32.927 52.9422 32.927 52.5922V30.6052L30.113 30.7102C29.763 30.7102 29.588 30.5352 29.588 30.1852V25.6492C29.588 25.2992 29.763 25.1242 30.113 25.1242H39.395C39.745 25.1242 39.92 25.2992 39.92 25.6492V52.5922C39.92 52.9422 39.745 53.1172 39.395 53.1172H33.452Z" fill="#2ECC71"/>
<path d="M95.2192 25.9985L94.9751 24.4727C94.9751 23.9844 95.1908 23.6182 95.6221 23.374C96.0615 23.1217 96.6027 22.9956 97.2456 22.9956H97.6851C97.9455 22.9956 98.1896 23.077 98.4175 23.2397C98.6535 23.4025 98.7715 23.61 98.7715 23.8623C98.7715 24.1146 98.6657 24.4686 98.4541 24.9243C98.2425 25.3719 98.1042 25.9456 98.0391 26.6455C97.681 30.7389 97.502 33.9535 97.502 36.2891C97.502 36.8669 97.5549 37.3063 97.6606 37.6074L97.8193 37.9736C97.9821 38.3398 98.0635 38.5758 98.0635 38.6816C98.0635 39.1292 97.917 39.4385 97.624 39.6094C97.3311 39.7721 96.8794 39.8535 96.269 39.8535C95.6587 39.8535 95.1745 39.7314 94.8164 39.4873C94.4665 39.235 94.2915 38.9787 94.2915 38.7183C94.2915 38.4578 94.3851 37.9777 94.5723 37.2778C94.7594 36.5698 94.853 35.634 94.853 34.4702C94.853 33.3065 94.6984 32.6188 94.3892 32.4072C94.0799 32.1875 93.0545 32.0776 91.313 32.0776C89.5796 32.0776 88.4972 32.2892 88.0659 32.7124C87.6346 33.1356 87.4189 34.4458 87.4189 36.6431C87.4189 36.9523 87.4352 37.2331 87.4678 37.4854L87.5288 37.8516C87.5939 38.2259 87.6265 38.4497 87.6265 38.5229C87.6265 39.3612 86.8656 39.7803 85.3438 39.7803C84.8311 39.7803 84.4648 39.6867 84.2451 39.4995C84.0335 39.3042 83.9277 39.0885 83.9277 38.8525C83.9277 38.6084 84.0376 38.2666 84.2573 37.8271C84.4852 37.3796 84.6317 36.9157 84.6968 36.4355C85.0304 33.8314 85.1973 30.5151 85.1973 26.4868C85.1973 26.0067 85.0955 25.5306 84.8921 25.0586C84.6968 24.5785 84.5991 24.2936 84.5991 24.2041C84.5991 23.4717 85.181 23.1055 86.3447 23.1055C86.9714 23.1055 87.4515 23.2072 87.7852 23.4106C88.127 23.6141 88.2979 23.8379 88.2979 24.082C88.2979 24.318 88.2531 24.6029 88.1636 24.9365C88.0741 25.2702 88.0008 25.612 87.9438 25.9619C87.8869 26.3118 87.8584 26.971 87.8584 27.9395C87.8584 28.9079 88.0374 29.5264 88.3955 29.7949C88.7617 30.0635 89.8441 30.1978 91.6426 30.1978C93.4492 30.1978 94.4827 29.974 94.7432 29.5264C95.0605 28.973 95.2192 27.797 95.2192 25.9985ZM103.398 34.8486C103.398 35.9147 103.642 36.8018 104.13 37.5098C104.619 38.2178 105.217 38.5718 105.925 38.5718H106.291C107.129 38.5718 107.837 38.1486 108.415 37.3022C109.001 36.4559 109.294 35.3288 109.294 33.9209V33.1152C109.294 32.0247 109.054 31.1336 108.574 30.4419C108.102 29.742 107.491 29.3921 106.743 29.3921H106.499C105.628 29.3921 104.895 29.8234 104.301 30.686C103.715 31.5487 103.422 32.5781 103.422 33.7744L103.398 34.0552V34.8486ZM106.157 40.2319H105.766C104.342 40.2319 103.182 39.7355 102.287 38.7427C101.392 37.7498 100.944 36.342 100.944 34.519L100.957 34.3115C100.957 32.3096 101.486 30.7308 102.543 29.5752C103.097 28.9648 103.728 28.5173 104.436 28.2324C105.152 27.9395 105.831 27.793 106.474 27.793H107.072C107.788 27.793 108.476 27.9517 109.135 28.269C111.023 29.1805 111.967 30.8976 111.967 33.4204V33.6157C111.959 34.4377 111.825 35.2718 111.564 36.1182C111.044 37.7865 110.043 38.9665 108.562 39.6582C107.74 40.0407 106.938 40.2319 106.157 40.2319ZM115.41 33.1885C114.913 32.6839 114.665 31.9759 114.665 31.0645C114.665 30.153 115.072 29.3717 115.886 28.7207C116.7 28.0615 117.709 27.7319 118.913 27.7319H119.23C120.297 27.7319 121.143 27.8825 121.77 28.1836C122.404 28.4847 122.722 28.9364 122.722 29.5386C122.722 30.1326 122.457 30.4297 121.928 30.4297C121.79 30.4297 121.399 30.2669 120.756 29.9414C120.113 29.6077 119.507 29.4409 118.938 29.4409C118.368 29.4409 117.908 29.5711 117.558 29.8315C117.216 30.0838 117.045 30.4338 117.045 30.8813C117.045 31.3289 117.285 31.7196 117.766 32.0532C118.042 32.2485 118.693 32.5578 119.719 32.981C120.752 33.4041 121.489 33.811 121.928 34.2017C122.636 34.8283 122.99 35.6299 122.99 36.6064C122.99 37.583 122.575 38.4212 121.745 39.1211C120.915 39.8128 119.837 40.1587 118.51 40.1587H118.193C116.858 40.1587 115.857 39.9674 115.19 39.585C114.523 39.1943 114.189 38.6898 114.189 38.0713C114.189 37.4447 114.449 37.1313 114.97 37.1313C115.141 37.1313 115.585 37.3511 116.301 37.7905C117.025 38.23 117.733 38.4497 118.425 38.4497C119.125 38.4497 119.65 38.3032 120 38.0103C120.349 37.7091 120.524 37.3348 120.524 36.8872C120.524 36.4315 120.305 36.0327 119.865 35.6909C119.629 35.5037 118.954 35.166 117.839 34.6777C116.724 34.1813 115.914 33.6849 115.41 33.1885ZM131.987 38.6938C131.987 39.0194 131.787 39.3123 131.389 39.5728C130.998 39.825 130.465 39.9512 129.79 39.9512C128.528 39.9512 127.641 39.4832 127.128 38.5474C126.811 37.9614 126.652 36.5902 126.652 34.4336C126.652 32.277 126.616 31.0238 126.542 30.6738C126.469 30.3239 126.266 29.9821 125.932 29.6484C125.598 29.3148 125.432 29.0584 125.432 28.8794C125.432 28.8143 125.826 28.387 126.616 27.5977C126.787 27.4268 126.958 27.0483 127.128 26.4624C127.307 25.8765 127.434 25.4899 127.507 25.3027C127.751 24.7168 128.072 24.4238 128.471 24.4238H128.667C129.016 24.4238 129.265 24.5581 129.411 24.8267C129.468 24.9325 129.554 25.3149 129.667 25.9741C129.79 26.6252 129.928 27.0443 130.083 27.2314C130.237 27.4186 130.624 27.6261 131.242 27.854C131.869 28.0737 132.182 28.3097 132.182 28.562V28.6963C132.182 29.0218 131.824 29.2985 131.108 29.5264C130.4 29.7461 129.944 30.1001 129.741 30.5884C129.342 31.5731 129.143 33.1763 129.143 35.3979C129.143 36.4396 129.322 37.1476 129.68 37.522C129.899 37.7498 130.339 37.9085 130.998 37.998C131.657 38.0876 131.987 38.3195 131.987 38.6938ZM138.762 24.1309V24.2773C138.762 24.6924 138.64 25.0464 138.396 25.3394C138.16 25.6242 137.793 25.7666 137.297 25.7666H137.102L136.723 25.7178C136.503 25.7178 136.292 25.616 136.088 25.4126C135.885 25.2091 135.783 24.904 135.783 24.4971V24.3506L135.844 23.9111C135.844 23.7402 135.946 23.5286 136.149 23.2764C136.361 23.0241 136.63 22.8979 136.955 22.8979L137.236 22.8613H137.48L137.822 22.9102C138.033 22.9102 138.241 23.016 138.444 23.2275C138.656 23.431 138.762 23.7321 138.762 24.1309ZM138.188 29.2822L138.054 32.5659L138.029 32.8955L137.993 33.8965V34.3726C137.993 35.5444 138.025 36.3135 138.09 36.6797C138.164 37.0459 138.298 37.404 138.493 37.7539C138.688 38.0957 138.786 38.3439 138.786 38.4985V38.6084C138.786 39.0072 138.583 39.3245 138.176 39.5605C137.769 39.7965 137.215 39.9146 136.516 39.9146H136.21C135.804 39.9146 135.494 39.825 135.283 39.646C135.071 39.4588 134.965 39.2594 134.965 39.0479V38.7793C134.965 38.6735 135.059 38.2992 135.246 37.6562C135.433 37.0052 135.527 36.1222 135.527 35.0073C135.551 34.6899 135.563 34.4702 135.563 34.3481L135.6 33.6768L135.625 33.3472C135.665 32.7775 135.686 32.334 135.686 32.0166L135.698 31.5283C135.698 30.918 135.596 30.3768 135.393 29.9048C135.197 29.4328 135.1 29.1398 135.1 29.0259C135.1 28.4399 135.653 28.147 136.76 28.147H137.199C137.614 28.147 137.883 28.2568 138.005 28.4766C138.127 28.6882 138.188 28.9567 138.188 29.2822ZM142.473 23.0322C142.473 22.4382 143.03 22.1411 144.145 22.1411H144.365C144.829 22.1411 145.146 22.255 145.317 22.4829C145.488 22.7026 145.573 23.134 145.573 23.7769L145.476 25.5957C145.451 25.8805 145.439 26.0352 145.439 26.0596L145.415 26.5234C145.398 26.8245 145.382 27.1297 145.366 27.439L145.329 27.9028L145.292 28.5986C145.162 31.0726 145.097 32.8996 145.097 34.0796C145.097 35.2515 145.15 36.0938 145.256 36.6064C145.362 37.1191 145.528 37.5545 145.756 37.9126C145.984 38.2707 146.098 38.5067 146.098 38.6206V38.7671C146.098 39.1252 145.919 39.41 145.561 39.6216C145.211 39.8332 144.735 39.939 144.133 39.939H143.498C143.124 39.939 142.794 39.8332 142.509 39.6216C142.233 39.4019 142.094 39.1536 142.094 38.877V38.5474L142.167 38.0347C142.265 37.3267 142.322 36.7977 142.338 36.4478C142.363 36.0897 142.399 35.5973 142.448 34.9707C142.497 34.3359 142.574 32.9891 142.68 30.9302C142.794 28.8631 142.851 27.7523 142.851 27.5977L142.9 26.6821L142.924 25.7788C142.924 24.9162 142.847 24.3018 142.692 23.9355C142.546 23.5612 142.473 23.2601 142.473 23.0322ZM151.152 32.5781V32.7734C151.152 33.0176 151.376 33.1396 151.823 33.1396H152.116L152.189 33.1274L152.788 33.0786C153.414 32.9891 153.821 32.9443 154.008 32.9443C154.895 32.9443 155.563 32.7775 156.01 32.4438C156.222 32.2811 156.328 31.9922 156.328 31.5771V31.4429C156.328 30.8325 156.124 30.3483 155.717 29.9902C155.319 29.6322 154.838 29.4531 154.277 29.4531H154.191L154.118 29.4653C153.329 29.4653 152.637 29.799 152.043 30.4663C151.449 31.1336 151.152 31.8376 151.152 32.5781ZM153.813 40.1587H153.544C151.99 40.1587 150.753 39.6663 149.833 38.6816C148.914 37.6888 148.454 36.3664 148.454 34.7144V34.1772C148.454 33.3879 148.609 32.5863 148.918 31.7725C149.545 30.1449 150.566 29.0218 151.982 28.4033C152.731 28.0697 153.492 27.9028 154.265 27.9028H154.79C155.856 27.9028 156.755 28.2609 157.487 28.9771C158.228 29.6851 158.598 30.6006 158.598 31.7236V31.9678C158.598 32.7653 158.281 33.3309 157.646 33.6646C157.207 33.9006 156.181 34.1366 154.57 34.3726C152.958 34.6086 152.08 34.751 151.933 34.7998C151.445 34.9707 151.201 35.2962 151.201 35.7764C151.201 36.4437 151.486 37.0133 152.055 37.4854C152.625 37.9574 153.39 38.1934 154.35 38.1934C154.798 38.1934 155.408 38.0713 156.181 37.8271C156.954 37.583 157.402 37.4609 157.524 37.4609C157.939 37.4609 158.146 37.64 158.146 37.998C158.146 38.4782 157.679 38.9583 156.743 39.4385C155.807 39.9186 154.83 40.1587 153.813 40.1587ZM161.455 38.3643C161.455 37.9574 161.581 37.64 161.833 37.4121C162.085 37.1842 162.415 37.0703 162.822 37.0703H163.273C163.688 37.0703 163.994 37.168 164.189 37.3633C164.384 37.5586 164.482 37.937 164.482 38.4985V38.6816C164.482 39.7233 164.201 40.6999 163.64 41.6113C162.915 42.7913 162.264 43.3813 161.687 43.3813H161.601C161.259 43.3813 161.088 43.2349 161.088 42.9419C161.088 42.8361 161.263 42.5187 161.613 41.9897C161.963 41.4689 162.138 41.0783 162.138 40.8179C162.138 40.5656 162.028 40.2197 161.809 39.7803C161.589 39.3408 161.479 39.0112 161.479 38.7915L161.455 38.6206V38.3643ZM175.261 33.6523V32.7124C175.261 31.5812 175.2 30.7552 175.078 30.2344C174.956 29.7054 174.895 29.3351 174.895 29.1235C174.895 28.6271 175.257 28.3789 175.981 28.3789C176.705 28.3789 177.23 28.5132 177.556 28.7817C177.645 28.855 177.759 28.9974 177.897 29.209C178.044 29.4206 178.174 29.5264 178.288 29.5264C178.312 29.5264 178.667 29.3188 179.35 28.9038C180.034 28.4888 180.62 28.2812 181.108 28.2812H181.291C181.69 28.2812 182.007 28.3789 182.243 28.5742C182.479 28.7614 182.597 28.9933 182.597 29.27V29.4287C182.597 29.7624 182.479 30.0024 182.243 30.1489C182.015 30.2954 181.649 30.3687 181.145 30.3687C179.997 30.3687 179.159 30.7715 178.63 31.5771C178.109 32.3828 177.849 33.807 177.849 35.8496C177.849 36.1426 177.897 36.5942 177.995 37.2046C178.101 37.8149 178.154 38.2747 178.154 38.584C178.154 38.8932 177.987 39.1903 177.653 39.4751C177.32 39.7599 176.896 39.9023 176.384 39.9023H175.969C175.521 39.9023 175.175 39.7965 174.931 39.585C174.695 39.3652 174.577 39.1007 174.577 38.7915C174.577 38.4741 174.634 38.1527 174.748 37.8271C175.057 36.9482 175.212 35.9798 175.212 34.9219C175.244 34.3359 175.261 33.9128 175.261 33.6523ZM184.648 29.0259C184.648 28.5132 185.079 28.2568 185.942 28.2568H186.223C186.76 28.2568 187.122 28.4725 187.309 28.9038C187.496 29.3351 187.59 30.1408 187.59 31.3208L187.443 35.3979C187.443 37.2941 188.123 38.2422 189.482 38.2422C189.978 38.2422 190.454 38.0672 190.91 37.7173C191.366 37.3674 191.704 36.9482 191.923 36.46C192.403 35.3857 192.644 33.4611 192.644 30.686L192.619 30.1489V29.6729C192.619 29.2415 192.717 28.9282 192.912 28.7329C193.107 28.5376 193.449 28.4399 193.938 28.4399C194.426 28.4399 194.747 28.5579 194.902 28.7939C195.056 29.0299 195.134 29.4124 195.134 29.9414L195.109 30.5884L195.061 33.4692C195.061 33.9331 195.089 34.6452 195.146 35.6055C195.203 36.5658 195.264 37.2697 195.329 37.7173C195.394 38.1567 195.427 38.4172 195.427 38.4985C195.427 39.2228 194.894 39.585 193.828 39.585C193.461 39.585 193.095 39.4507 192.729 39.1821C192.371 38.9054 192.115 38.7671 191.96 38.7671C191.813 38.7671 191.561 38.8566 191.203 39.0356C190.186 39.5483 189.319 39.8047 188.603 39.8047H188.298C187.134 39.8047 186.28 39.4466 185.734 38.7305C185.189 38.0143 184.917 36.7244 184.917 34.8608L185.039 31.1621C185.039 30.6982 184.973 30.2547 184.843 29.8315C184.713 29.4084 184.648 29.1398 184.648 29.0259ZM200.566 34.0796V35.0073C200.566 35.9757 200.786 36.7855 201.225 37.4365C201.673 38.0794 202.198 38.4009 202.8 38.4009H203.142C204.069 38.4009 204.785 38.0306 205.29 37.29C205.803 36.5495 206.059 35.4468 206.059 33.9819C206.075 33.8029 206.083 33.6727 206.083 33.5913L206.108 33.3472L206.12 32.8345V31.9678C206.12 30.3076 205.457 29.4775 204.13 29.4775H203.654C202.792 29.4775 202.059 29.9129 201.457 30.7837C200.863 31.6545 200.566 32.7531 200.566 34.0796ZM198.222 34.6411C198.222 33.7948 198.373 32.9321 198.674 32.0532C198.975 31.1743 199.398 30.4256 199.943 29.8071C200.489 29.1805 201.103 28.7288 201.787 28.4521C202.47 28.1673 203.28 28.0249 204.216 28.0249C205.16 28.0249 205.746 27.854 205.974 27.5122C206.201 27.1623 206.315 26.3932 206.315 25.2051C206.315 24.9854 206.279 24.6924 206.206 24.3262C206.132 23.96 206.096 23.7484 206.096 23.6914C206.096 23.3415 206.246 23.0241 206.547 22.7393C206.848 22.4463 207.243 22.2998 207.731 22.2998H207.976C208.358 22.2998 208.643 22.3893 208.83 22.5684C209.017 22.7474 209.111 23.1217 209.111 23.6914V24.8267L209.086 25.4004C209.078 25.5957 209.074 25.8805 209.074 26.2549C209.074 26.6211 209.013 27.8011 208.891 29.7949C208.769 31.7887 208.708 33.16 208.708 33.9087L208.696 34.2017C208.688 34.397 208.684 34.5841 208.684 34.7632L208.671 35.0439C208.671 35.0439 208.671 35.3613 208.671 35.9961C208.671 36.818 208.736 37.4365 208.867 37.8516C208.997 38.2666 209.062 38.5636 209.062 38.7427C209.062 38.9217 208.96 39.1089 208.757 39.3042C208.553 39.4995 208.236 39.5972 207.805 39.5972C207.382 39.5972 206.971 39.528 206.572 39.3896C206.173 39.2432 205.88 39.1699 205.693 39.1699C205.506 39.1699 205.262 39.2269 204.96 39.3408C204.049 39.6745 203.215 39.8413 202.458 39.8413C202.442 39.8413 202.425 39.8413 202.409 39.8413H202.128C200.9 39.8413 199.939 39.3937 199.248 38.4985C198.564 37.5952 198.222 36.4111 198.222 34.9463V34.6411ZM214.458 32.5781V32.7734C214.458 33.0176 214.681 33.1396 215.129 33.1396H215.422L215.495 33.1274L216.093 33.0786C216.72 32.9891 217.127 32.9443 217.314 32.9443C218.201 32.9443 218.868 32.7775 219.316 32.4438C219.528 32.2811 219.633 31.9922 219.633 31.5771V31.4429C219.633 30.8325 219.43 30.3483 219.023 29.9902C218.624 29.6322 218.144 29.4531 217.583 29.4531H217.497L217.424 29.4653C216.634 29.4653 215.943 29.799 215.349 30.4663C214.755 31.1336 214.458 31.8376 214.458 32.5781ZM217.119 40.1587H216.85C215.296 40.1587 214.059 39.6663 213.139 38.6816C212.22 37.6888 211.76 36.3664 211.76 34.7144V34.1772C211.76 33.3879 211.914 32.5863 212.224 31.7725C212.85 30.1449 213.872 29.0218 215.288 28.4033C216.036 28.0697 216.797 27.9028 217.57 27.9028H218.095C219.161 27.9028 220.061 28.2609 220.793 28.9771C221.534 29.6851 221.904 30.6006 221.904 31.7236V31.9678C221.904 32.7653 221.586 33.3309 220.952 33.6646C220.512 33.9006 219.487 34.1366 217.875 34.3726C216.264 34.6086 215.385 34.751 215.239 34.7998C214.75 34.9707 214.506 35.2962 214.506 35.7764C214.506 36.4437 214.791 37.0133 215.361 37.4854C215.931 37.9574 216.695 38.1934 217.656 38.1934C218.103 38.1934 218.714 38.0713 219.487 37.8271C220.26 37.583 220.708 37.4609 220.83 37.4609C221.245 37.4609 221.452 37.64 221.452 37.998C221.452 38.4782 220.984 38.9583 220.048 39.4385C219.112 39.9186 218.136 40.1587 217.119 40.1587ZM224.76 38.3643C224.76 37.9574 224.886 37.64 225.139 37.4121C225.391 37.1842 225.721 37.0703 226.127 37.0703H226.579C226.994 37.0703 227.299 37.168 227.495 37.3633C227.69 37.5586 227.788 37.937 227.788 38.4985V38.6816C227.788 39.7233 227.507 40.6999 226.945 41.6113C226.221 42.7913 225.57 43.3813 224.992 43.3813H224.907C224.565 43.3813 224.394 43.2349 224.394 42.9419C224.394 42.8361 224.569 42.5187 224.919 41.9897C225.269 41.4689 225.444 41.0783 225.444 40.8179C225.444 40.5656 225.334 40.2197 225.114 39.7803C224.895 39.3408 224.785 39.0112 224.785 38.7915L224.76 38.6206V38.3643ZM239.921 34.8486C239.921 35.9147 240.166 36.8018 240.654 37.5098C241.142 38.2178 241.74 38.5718 242.448 38.5718H242.814C243.653 38.5718 244.361 38.1486 244.938 37.3022C245.524 36.4559 245.817 35.3288 245.817 33.9209V33.1152C245.817 32.0247 245.577 31.1336 245.097 30.4419C244.625 29.742 244.015 29.3921 243.266 29.3921H243.022C242.151 29.3921 241.419 29.8234 240.825 30.686C240.239 31.5487 239.946 32.5781 239.946 33.7744L239.921 34.0552V34.8486ZM242.68 40.2319H242.29C240.865 40.2319 239.706 39.7355 238.811 38.7427C237.915 37.7498 237.468 36.342 237.468 34.519L237.48 34.3115C237.48 32.3096 238.009 30.7308 239.067 29.5752C239.62 28.9648 240.251 28.5173 240.959 28.2324C241.675 27.9395 242.355 27.793 242.998 27.793H243.596C244.312 27.793 245 27.9517 245.659 28.269C247.547 29.1805 248.491 30.8976 248.491 33.4204V33.6157C248.483 34.4377 248.348 35.2718 248.088 36.1182C247.567 37.7865 246.566 38.9665 245.085 39.6582C244.263 40.0407 243.461 40.2319 242.68 40.2319ZM251.799 33.6523V32.7124C251.799 31.5812 251.738 30.7552 251.616 30.2344C251.494 29.7054 251.433 29.3351 251.433 29.1235C251.433 28.6271 251.795 28.3789 252.519 28.3789C253.243 28.3789 253.768 28.5132 254.094 28.7817C254.183 28.855 254.297 28.9974 254.436 29.209C254.582 29.4206 254.712 29.5264 254.826 29.5264C254.851 29.5264 255.205 29.3188 255.888 28.9038C256.572 28.4888 257.158 28.2812 257.646 28.2812H257.829C258.228 28.2812 258.545 28.3789 258.781 28.5742C259.017 28.7614 259.135 28.9933 259.135 29.27V29.4287C259.135 29.7624 259.017 30.0024 258.781 30.1489C258.553 30.2954 258.187 30.3687 257.683 30.3687C256.535 30.3687 255.697 30.7715 255.168 31.5771C254.647 32.3828 254.387 33.807 254.387 35.8496C254.387 36.1426 254.436 36.5942 254.533 37.2046C254.639 37.8149 254.692 38.2747 254.692 38.584C254.692 38.8932 254.525 39.1903 254.191 39.4751C253.858 39.7599 253.435 39.9023 252.922 39.9023H252.507C252.059 39.9023 251.713 39.7965 251.469 39.585C251.233 39.3652 251.115 39.1007 251.115 38.7915C251.115 38.4741 251.172 38.1527 251.286 37.8271C251.595 36.9482 251.75 35.9798 251.75 34.9219C251.783 34.3359 251.799 33.9128 251.799 33.6523ZM279.167 38.5352C279.167 39.1374 278.642 39.4385 277.592 39.4385C276.998 39.4385 276.599 39.2961 276.396 39.0112C276.298 38.8729 276.25 38.5474 276.25 38.0347L276.213 37.2534C276.156 36.3989 276.127 35.5404 276.127 34.6777C276.127 32.8141 275.965 31.5649 275.639 30.9302C275.322 30.2873 274.785 29.9658 274.028 29.9658C273.523 29.9658 273.055 30.1164 272.624 30.4175C272.201 30.7186 271.875 31.1377 271.647 31.6748C271.175 32.7734 270.939 34.8039 270.939 37.7661C270.939 38.4416 270.809 38.9176 270.549 39.1943C270.297 39.471 269.971 39.6094 269.572 39.6094H269.328C268.417 39.6094 267.961 39.2472 267.961 38.5229V38.23C267.961 38.1405 268.01 37.9451 268.107 37.644L268.303 37.0825C268.498 36.4233 268.596 35.0114 268.596 32.8467L268.657 29.2212C268.657 28.7573 268.909 28.5254 269.414 28.5254C269.918 28.5254 270.415 28.6922 270.903 29.0259C271.399 29.3595 271.713 29.5264 271.843 29.5264C271.981 29.5264 272.221 29.4328 272.563 29.2456C273.71 28.619 274.63 28.3057 275.322 28.3057H275.639C276.884 28.3057 277.759 28.8672 278.264 29.9902C278.508 30.5192 278.63 31.6585 278.63 33.4082V33.4937C278.63 33.6401 278.626 33.7866 278.618 33.9331C278.618 34.3319 278.618 34.5394 278.618 34.5557C278.618 34.7103 278.618 34.8608 278.618 35.0073C278.618 35.1213 278.618 35.2311 278.618 35.3369C278.618 35.9635 278.638 36.3908 278.679 36.6187C278.736 36.9279 278.829 37.2493 278.959 37.583C279.098 37.9492 279.167 38.2666 279.167 38.5352ZM284.233 32.5781V32.7734C284.233 33.0176 284.457 33.1396 284.904 33.1396H285.197L285.271 33.1274L285.869 33.0786C286.495 32.9891 286.902 32.9443 287.089 32.9443C287.976 32.9443 288.644 32.7775 289.091 32.4438C289.303 32.2811 289.409 31.9922 289.409 31.5771V31.4429C289.409 30.8325 289.205 30.3483 288.798 29.9902C288.4 29.6322 287.919 29.4531 287.358 29.4531H287.272L287.199 29.4653C286.41 29.4653 285.718 29.799 285.124 30.4663C284.53 31.1336 284.233 31.8376 284.233 32.5781ZM286.894 40.1587H286.625C285.071 40.1587 283.834 39.6663 282.915 38.6816C281.995 37.6888 281.535 36.3664 281.535 34.7144V34.1772C281.535 33.3879 281.69 32.5863 281.999 31.7725C282.626 30.1449 283.647 29.0218 285.063 28.4033C285.812 28.0697 286.573 27.9028 287.346 27.9028H287.871C288.937 27.9028 289.836 28.2609 290.568 28.9771C291.309 29.6851 291.679 30.6006 291.679 31.7236V31.9678C291.679 32.7653 291.362 33.3309 290.727 33.6646C290.288 33.9006 289.262 34.1366 287.651 34.3726C286.04 34.6086 285.161 34.751 285.014 34.7998C284.526 34.9707 284.282 35.2962 284.282 35.7764C284.282 36.4437 284.567 37.0133 285.136 37.4854C285.706 37.9574 286.471 38.1934 287.431 38.1934C287.879 38.1934 288.489 38.0713 289.262 37.8271C290.035 37.583 290.483 37.4609 290.605 37.4609C291.02 37.4609 291.228 37.64 291.228 37.998C291.228 38.4782 290.76 38.9583 289.824 39.4385C288.888 39.9186 287.911 40.1587 286.894 40.1587ZM296.489 34.3481V34.7266C296.489 35.8171 296.696 36.6715 297.111 37.29C297.526 37.9085 298.047 38.2178 298.674 38.2178H299.101C300.004 38.2178 300.708 37.8394 301.213 37.0825C301.717 36.3175 301.97 35.2474 301.97 33.8721C301.986 33.7093 301.994 33.5832 301.994 33.4937L302.019 32.9932V32.2607C302.002 32.098 301.994 31.9759 301.994 31.8945C301.994 31.2516 301.84 30.7471 301.53 30.3809C301.221 30.0146 300.765 29.8315 300.163 29.8315H299.821C298.861 29.8315 298.063 30.2344 297.429 31.04C296.802 31.8457 296.489 32.9484 296.489 34.3481ZM303.581 28.8306C304.289 28.8306 304.643 29.3433 304.643 30.3687C304.643 30.6372 304.533 31.7603 304.313 33.7378C304.094 35.7153 303.984 37.3958 303.984 38.7793C303.984 40.179 303.89 41.2288 303.703 41.9287C303.304 43.4342 302.381 44.5003 300.932 45.127C300.175 45.4525 299.337 45.6152 298.417 45.6152C297.506 45.6152 296.692 45.4525 295.976 45.127C295.268 44.8014 294.914 44.4108 294.914 43.9551C294.914 43.4342 295.264 43.1738 295.964 43.1738C296.102 43.1738 296.477 43.2267 297.087 43.3325C297.697 43.4383 298.137 43.4912 298.405 43.4912C299.39 43.4912 300.196 43.182 300.822 42.5635C301.457 41.9531 301.774 41.1678 301.774 40.2075C301.774 39.703 301.587 39.4507 301.213 39.4507C301.148 39.4507 300.993 39.4751 300.749 39.5239C300.057 39.6623 299.427 39.7314 298.857 39.7314C297.408 39.7314 296.318 39.292 295.585 38.4131C295.244 38.0062 294.951 37.465 294.707 36.7896C294.471 36.106 294.353 35.3857 294.353 34.6289V34.2871C294.353 33.4896 294.483 32.7043 294.743 31.9312C295.012 31.1499 295.366 30.4948 295.805 29.9658C296.245 29.4287 296.818 29.0096 297.526 28.7085C298.234 28.4074 298.959 28.2568 299.699 28.2568H300.017C300.432 28.2568 300.965 28.3708 301.616 28.5986C302.275 28.8184 302.678 28.9282 302.824 28.9282C303.15 28.8631 303.402 28.8306 303.581 28.8306ZM308.562 23.0322C308.562 22.4382 309.119 22.1411 310.234 22.1411H310.454C310.917 22.1411 311.235 22.255 311.406 22.4829C311.577 22.7026 311.662 23.134 311.662 23.7769L311.564 25.5957C311.54 25.8805 311.528 26.0352 311.528 26.0596L311.503 26.5234C311.487 26.8245 311.471 27.1297 311.455 27.439L311.418 27.9028L311.381 28.5986C311.251 31.0726 311.186 32.8996 311.186 34.0796C311.186 35.2515 311.239 36.0938 311.345 36.6064C311.451 37.1191 311.617 37.5545 311.845 37.9126C312.073 38.2707 312.187 38.5067 312.187 38.6206V38.7671C312.187 39.1252 312.008 39.41 311.65 39.6216C311.3 39.8332 310.824 39.939 310.222 39.939H309.587C309.213 39.939 308.883 39.8332 308.598 39.6216C308.321 39.4019 308.183 39.1536 308.183 38.877V38.5474L308.256 38.0347C308.354 37.3267 308.411 36.7977 308.427 36.4478C308.452 36.0897 308.488 35.5973 308.537 34.9707C308.586 34.3359 308.663 32.9891 308.769 30.9302C308.883 28.8631 308.94 27.7523 308.94 27.5977L308.989 26.6821L309.013 25.7788C309.013 24.9162 308.936 24.3018 308.781 23.9355C308.635 23.5612 308.562 23.2601 308.562 23.0322ZM319.035 24.1309V24.2773C319.035 24.6924 318.913 25.0464 318.669 25.3394C318.433 25.6242 318.067 25.7666 317.57 25.7666H317.375L316.997 25.7178C316.777 25.7178 316.565 25.616 316.362 25.4126C316.158 25.2091 316.057 24.904 316.057 24.4971V24.3506L316.118 23.9111C316.118 23.7402 316.219 23.5286 316.423 23.2764C316.634 23.0241 316.903 22.8979 317.229 22.8979L317.509 22.8613H317.753L318.095 22.9102C318.307 22.9102 318.514 23.016 318.718 23.2275C318.929 23.431 319.035 23.7321 319.035 24.1309ZM318.461 29.2822L318.327 32.5659L318.303 32.8955L318.266 33.8965V34.3726C318.266 35.5444 318.299 36.3135 318.364 36.6797C318.437 37.0459 318.571 37.404 318.767 37.7539C318.962 38.0957 319.06 38.3439 319.06 38.4985V38.6084C319.06 39.0072 318.856 39.3245 318.449 39.5605C318.042 39.7965 317.489 39.9146 316.789 39.9146H316.484C316.077 39.9146 315.768 39.825 315.556 39.646C315.345 39.4588 315.239 39.2594 315.239 39.0479V38.7793C315.239 38.6735 315.332 38.2992 315.52 37.6562C315.707 37.0052 315.8 36.1222 315.8 35.0073C315.825 34.6899 315.837 34.4702 315.837 34.3481L315.874 33.6768L315.898 33.3472C315.939 32.7775 315.959 32.334 315.959 32.0166L315.971 31.5283C315.971 30.918 315.869 30.3768 315.666 29.9048C315.471 29.4328 315.373 29.1398 315.373 29.0259C315.373 28.4399 315.926 28.147 317.033 28.147H317.473C317.888 28.147 318.156 28.2568 318.278 28.4766C318.4 28.6882 318.461 28.9567 318.461 29.2822ZM324.223 34.3481V34.7266C324.223 35.8171 324.431 36.6715 324.846 37.29C325.261 37.9085 325.782 38.2178 326.408 38.2178H326.835C327.739 38.2178 328.443 37.8394 328.947 37.0825C329.452 36.3175 329.704 35.2474 329.704 33.8721C329.72 33.7093 329.729 33.5832 329.729 33.4937L329.753 32.9932V32.2607C329.737 32.098 329.729 31.9759 329.729 31.8945C329.729 31.2516 329.574 30.7471 329.265 30.3809C328.955 30.0146 328.5 29.8315 327.897 29.8315H327.556C326.595 29.8315 325.798 30.2344 325.163 31.04C324.536 31.8457 324.223 32.9484 324.223 34.3481ZM331.315 28.8306C332.023 28.8306 332.377 29.3433 332.377 30.3687C332.377 30.6372 332.268 31.7603 332.048 33.7378C331.828 35.7153 331.718 37.3958 331.718 38.7793C331.718 40.179 331.625 41.2288 331.438 41.9287C331.039 43.4342 330.115 44.5003 328.667 45.127C327.91 45.4525 327.071 45.6152 326.152 45.6152C325.24 45.6152 324.427 45.4525 323.71 45.127C323.002 44.8014 322.648 44.4108 322.648 43.9551C322.648 43.4342 322.998 43.1738 323.698 43.1738C323.837 43.1738 324.211 43.2267 324.821 43.3325C325.432 43.4383 325.871 43.4912 326.14 43.4912C327.124 43.4912 327.93 43.182 328.557 42.5635C329.191 41.9531 329.509 41.1678 329.509 40.2075C329.509 39.703 329.322 39.4507 328.947 39.4507C328.882 39.4507 328.728 39.4751 328.483 39.5239C327.792 39.6623 327.161 39.7314 326.591 39.7314C325.143 39.7314 324.052 39.292 323.32 38.4131C322.978 38.0062 322.685 37.465 322.441 36.7896C322.205 36.106 322.087 35.3857 322.087 34.6289V34.2871C322.087 33.4896 322.217 32.7043 322.478 31.9312C322.746 31.1499 323.1 30.4948 323.54 29.9658C323.979 29.4287 324.553 29.0096 325.261 28.7085C325.969 28.4074 326.693 28.2568 327.434 28.2568H327.751C328.166 28.2568 328.699 28.3708 329.35 28.5986C330.009 28.8184 330.412 28.9282 330.559 28.9282C330.884 28.8631 331.136 28.8306 331.315 28.8306ZM337.797 32.5781V32.7734C337.797 33.0176 338.021 33.1396 338.469 33.1396H338.762L338.835 33.1274L339.433 33.0786C340.06 32.9891 340.467 32.9443 340.654 32.9443C341.541 32.9443 342.208 32.7775 342.656 32.4438C342.867 32.2811 342.973 31.9922 342.973 31.5771V31.4429C342.973 30.8325 342.77 30.3483 342.363 29.9902C341.964 29.6322 341.484 29.4531 340.922 29.4531H340.837L340.764 29.4653C339.974 29.4653 339.283 29.799 338.688 30.4663C338.094 31.1336 337.797 31.8376 337.797 32.5781ZM340.458 40.1587H340.19C338.636 40.1587 337.399 39.6663 336.479 38.6816C335.559 37.6888 335.1 36.3664 335.1 34.7144V34.1772C335.1 33.3879 335.254 32.5863 335.563 31.7725C336.19 30.1449 337.211 29.0218 338.627 28.4033C339.376 28.0697 340.137 27.9028 340.91 27.9028H341.435C342.501 27.9028 343.4 28.2609 344.133 28.9771C344.873 29.6851 345.244 30.6006 345.244 31.7236V31.9678C345.244 32.7653 344.926 33.3309 344.292 33.6646C343.852 33.9006 342.827 34.1366 341.215 34.3726C339.604 34.6086 338.725 34.751 338.579 34.7998C338.09 34.9707 337.846 35.2962 337.846 35.7764C337.846 36.4437 338.131 37.0133 338.701 37.4854C339.27 37.9574 340.035 38.1934 340.996 38.1934C341.443 38.1934 342.054 38.0713 342.827 37.8271C343.6 37.583 344.047 37.4609 344.169 37.4609C344.584 37.4609 344.792 37.64 344.792 37.998C344.792 38.4782 344.324 38.9583 343.388 39.4385C342.452 39.9186 341.476 40.1587 340.458 40.1587ZM359.099 38.5352C359.099 39.1374 358.574 39.4385 357.524 39.4385C356.93 39.4385 356.531 39.2961 356.328 39.0112C356.23 38.8729 356.181 38.5474 356.181 38.0347L356.145 37.2534C356.088 36.3989 356.059 35.5404 356.059 34.6777C356.059 32.8141 355.896 31.5649 355.571 30.9302C355.253 30.2873 354.716 29.9658 353.959 29.9658C353.455 29.9658 352.987 30.1164 352.556 30.4175C352.132 30.7186 351.807 31.1377 351.579 31.6748C351.107 32.7734 350.871 34.8039 350.871 37.7661C350.871 38.4416 350.741 38.9176 350.48 39.1943C350.228 39.471 349.903 39.6094 349.504 39.6094H349.26C348.348 39.6094 347.893 39.2472 347.893 38.5229V38.23C347.893 38.1405 347.941 37.9451 348.039 37.644L348.234 37.0825C348.43 36.4233 348.527 35.0114 348.527 32.8467L348.588 29.2212C348.588 28.7573 348.841 28.5254 349.345 28.5254C349.85 28.5254 350.346 28.6922 350.834 29.0259C351.331 29.3595 351.644 29.5264 351.774 29.5264C351.913 29.5264 352.153 29.4328 352.495 29.2456C353.642 28.619 354.562 28.3057 355.253 28.3057H355.571C356.816 28.3057 357.691 28.8672 358.195 29.9902C358.439 30.5192 358.562 31.6585 358.562 33.4082V33.4937C358.562 33.6401 358.557 33.7866 358.549 33.9331C358.549 34.3319 358.549 34.5394 358.549 34.5557C358.549 34.7103 358.549 34.8608 358.549 35.0073C358.549 35.1213 358.549 35.2311 358.549 35.3369C358.549 35.9635 358.57 36.3908 358.61 36.6187C358.667 36.9279 358.761 37.2493 358.891 37.583C359.029 37.9492 359.099 38.2666 359.099 38.5352ZM368.266 38.6938C368.266 39.0194 368.067 39.3123 367.668 39.5728C367.277 39.825 366.744 39.9512 366.069 39.9512C364.807 39.9512 363.92 39.4832 363.408 38.5474C363.09 37.9614 362.932 36.5902 362.932 34.4336C362.932 32.277 362.895 31.0238 362.822 30.6738C362.749 30.3239 362.545 29.9821 362.211 29.6484C361.878 29.3148 361.711 29.0584 361.711 28.8794C361.711 28.8143 362.106 28.387 362.895 27.5977C363.066 27.4268 363.237 27.0483 363.408 26.4624C363.587 25.8765 363.713 25.4899 363.786 25.3027C364.03 24.7168 364.352 24.4238 364.75 24.4238H364.946C365.296 24.4238 365.544 24.5581 365.69 24.8267C365.747 24.9325 365.833 25.3149 365.947 25.9741C366.069 26.6252 366.207 27.0443 366.362 27.2314C366.516 27.4186 366.903 27.6261 367.521 27.854C368.148 28.0737 368.461 28.3097 368.461 28.562V28.6963C368.461 29.0218 368.103 29.2985 367.387 29.5264C366.679 29.7461 366.223 30.1001 366.02 30.5884C365.621 31.5731 365.422 33.1763 365.422 35.3979C365.422 36.4396 365.601 37.1476 365.959 37.522C366.179 37.7498 366.618 37.9085 367.277 37.998C367.937 38.0876 368.266 38.3195 368.266 38.6938ZM372.832 40.1953H372.453C372.046 40.1953 371.729 40.1017 371.501 39.9146C371.281 39.7274 371.171 39.4792 371.171 39.1699C371.155 39.1048 371.147 39.0519 371.147 39.0112L371.123 38.8037V38.584L371.135 38.5352V38.4253C371.151 38.3602 371.159 38.3073 371.159 38.2666C371.159 37.9004 371.281 37.6156 371.525 37.4121C371.778 37.2005 372.054 37.0947 372.355 37.0947L372.612 37.0581H372.941C373.828 37.0581 374.272 37.522 374.272 38.4497V38.6206L374.223 39.0356C374.223 39.41 374.081 39.6989 373.796 39.9023C373.519 40.0977 373.198 40.1953 372.832 40.1953ZM388.151 27.2559C388.094 28.1104 388.066 28.7451 388.066 29.1602L388.042 29.5508L388.005 30.7104L387.98 31.1011L387.932 32.4561C387.915 32.7165 387.907 32.9118 387.907 33.042L387.883 33.4326C387.867 33.693 387.858 33.8843 387.858 34.0063L387.834 34.3848C387.826 34.515 387.822 34.6452 387.822 34.7754L387.797 35.1538L387.761 36.4844V37.2168C387.761 37.6074 387.907 37.8719 388.2 38.0103C388.493 38.1405 388.92 38.2056 389.482 38.2056H390.031C391.773 38.2056 393.148 37.5586 394.157 36.2646C394.597 35.7031 394.955 34.9626 395.231 34.043C395.508 33.1234 395.646 32.0898 395.646 30.9424V30.7349C395.646 27.7319 394.662 25.7869 392.692 24.8999C392.106 24.6395 391.447 24.5093 390.715 24.5093H390.153C389.242 24.5093 388.68 24.6558 388.469 24.9487C388.257 25.2336 388.151 26.0026 388.151 27.2559ZM385.124 23.8257C385.124 23.4351 385.384 23.1909 385.905 23.0933C386.833 22.9224 388.184 22.8369 389.958 22.8369H390.544C394.336 22.8369 396.802 24.2855 397.941 27.1826C398.34 28.1917 398.54 29.327 398.54 30.5884V30.6616V30.9668C398.54 32.277 398.308 33.571 397.844 34.8486C397.38 36.1182 396.7 37.1354 395.805 37.9004C394.918 38.6654 393.958 39.2065 392.924 39.5239C391.891 39.8332 390.544 39.9878 388.884 39.9878H388.603L388.31 39.9756C386.536 39.9756 385.397 39.8942 384.892 39.7314C384.624 39.6419 384.489 39.4466 384.489 39.1455C384.489 39.056 384.595 38.7793 384.807 38.3154C385.189 37.4772 385.38 35.9676 385.38 33.7866L385.527 30.0879L385.551 29.5264L385.588 27.5854C385.588 26.4299 385.572 25.7218 385.539 25.4614C385.507 25.201 385.429 24.8918 385.307 24.5337C385.185 24.1756 385.124 23.9396 385.124 23.8257ZM405.021 38.4619H405.339C406.006 38.4619 406.592 38.2381 407.097 37.7905C407.609 37.3348 407.866 36.8099 407.866 36.2158L407.89 36.0571V35.8984L407.915 35.52V34.8242C407.915 34.3522 407.674 34.1162 407.194 34.1162H406.645L406.56 34.1284L406.083 34.165C405.856 34.1976 405.693 34.2139 405.595 34.2139C404.936 34.2139 404.326 34.4621 403.764 34.9585C403.374 35.3084 403.178 35.8049 403.178 36.4478V36.6919C403.178 37.2371 403.353 37.6685 403.703 37.9858C404.061 38.3032 404.501 38.4619 405.021 38.4619ZM402.299 30.6616C401.754 30.6616 401.481 30.3117 401.481 29.6118C401.481 29.091 401.921 28.6393 402.8 28.2568C403.687 27.8662 404.606 27.6709 405.559 27.6709H406.169C406.991 27.6709 407.715 27.8255 408.342 28.1348C408.968 28.4359 409.444 28.8468 409.77 29.3677C410.104 29.8885 410.307 30.568 410.38 31.4062C410.397 31.6016 410.405 32.5496 410.405 34.2505C410.405 35.9513 410.425 36.932 410.466 37.1924C410.515 37.4447 410.645 37.7539 410.856 38.1201C411.076 38.4863 411.186 38.7874 411.186 39.0234C411.186 39.2594 411.072 39.4629 410.844 39.6338C410.625 39.7965 410.303 39.8779 409.88 39.8779C409.457 39.8779 408.997 39.7762 408.5 39.5728C408.004 39.3612 407.642 39.2554 407.414 39.2554C407.39 39.2554 406.983 39.4019 406.193 39.6948C405.404 39.9797 404.737 40.1221 404.191 40.1221H403.923C403.011 40.1221 402.234 39.8332 401.591 39.2554C400.957 38.6776 400.639 37.8556 400.639 36.7896C400.639 35.7235 400.989 34.8934 401.689 34.2993C402.389 33.6971 403.239 33.2861 404.24 33.0664C404.541 33.0013 405.042 32.9159 405.742 32.8101C406.442 32.7043 406.918 32.5944 407.17 32.4805C407.609 32.277 407.829 31.8945 407.829 31.333C407.829 30.7633 407.642 30.3198 407.268 30.0024C406.893 29.6769 406.446 29.5142 405.925 29.5142C405.412 29.5142 404.737 29.7054 403.898 30.0879C403.06 30.4704 402.527 30.6616 402.299 30.6616ZM419.121 28.7085C419.747 28.4725 420.39 28.3545 421.049 28.3545C421.708 28.3545 422.392 28.5498 423.1 28.9404C423.816 29.3311 424.207 29.5264 424.272 29.5264C424.337 29.5264 424.777 29.327 425.59 28.9282C426.404 28.5295 427.137 28.3301 427.788 28.3301C428.447 28.3301 428.988 28.4684 429.411 28.7451C429.842 29.0137 430.168 29.3351 430.388 29.7095C430.803 30.4256 431.01 32.0166 431.01 34.4824C431.01 35.5892 431.018 36.224 431.035 36.3867C431.059 36.5413 431.116 36.8221 431.206 37.229C431.303 37.6278 431.352 37.9574 431.352 38.2178C431.352 38.4701 431.246 38.7345 431.035 39.0112C430.823 39.2879 430.542 39.4263 430.192 39.4263C429.501 39.4263 429.09 39.1455 428.959 38.584C428.862 38.1771 428.748 36.9889 428.618 35.0195C428.496 33.0501 428.361 31.8945 428.215 31.5527C427.922 30.8366 427.299 30.4785 426.347 30.4785C425.737 30.4785 425.261 30.861 424.919 31.626C424.423 32.7246 424.174 34.2871 424.174 36.3135L424.296 38.0713C424.296 38.6898 424.069 39.1577 423.613 39.4751C423.32 39.6785 422.929 39.7803 422.441 39.7803C421.961 39.7803 421.643 39.7314 421.489 39.6338C421.22 39.471 421.086 39.1252 421.086 38.5962C421.086 38.4985 421.163 38.0998 421.318 37.3999C421.481 36.6919 421.562 35.5444 421.562 33.9575C421.562 32.3625 421.444 31.3493 421.208 30.918C420.972 30.4785 420.561 30.2588 419.975 30.2588C419.389 30.2588 418.868 30.4582 418.413 30.8569C417.965 31.2557 417.635 31.6911 417.424 32.1631C417.22 32.6351 417.037 33.7581 416.875 35.5322C416.72 37.3063 416.61 38.3236 416.545 38.584C416.431 39.0316 416.101 39.2554 415.556 39.2554C415.019 39.2554 414.649 39.0967 414.445 38.7793C414.25 38.4538 414.152 38.0591 414.152 37.5952L414.213 37.168L414.445 36.3257C414.543 35.9351 414.6 35.4793 414.616 34.9585C414.738 31.7277 414.832 29.8844 414.897 29.4287C414.962 28.973 415.255 28.7451 415.776 28.7451L417.595 29.0503C417.985 29.0503 418.494 28.9364 419.121 28.7085ZM438.273 38.4619H438.591C439.258 38.4619 439.844 38.2381 440.349 37.7905C440.861 37.3348 441.118 36.8099 441.118 36.2158L441.142 36.0571V35.8984L441.167 35.52V34.8242C441.167 34.3522 440.926 34.1162 440.446 34.1162H439.897L439.812 34.1284L439.335 34.165C439.108 34.1976 438.945 34.2139 438.847 34.2139C438.188 34.2139 437.578 34.4621 437.016 34.9585C436.625 35.3084 436.43 35.8049 436.43 36.4478V36.6919C436.43 37.2371 436.605 37.6685 436.955 37.9858C437.313 38.3032 437.753 38.4619 438.273 38.4619ZM435.551 30.6616C435.006 30.6616 434.733 30.3117 434.733 29.6118C434.733 29.091 435.173 28.6393 436.052 28.2568C436.939 27.8662 437.858 27.6709 438.811 27.6709H439.421C440.243 27.6709 440.967 27.8255 441.594 28.1348C442.22 28.4359 442.696 28.8468 443.022 29.3677C443.356 29.8885 443.559 30.568 443.632 31.4062C443.649 31.6016 443.657 32.5496 443.657 34.2505C443.657 35.9513 443.677 36.932 443.718 37.1924C443.767 37.4447 443.897 37.7539 444.108 38.1201C444.328 38.4863 444.438 38.7874 444.438 39.0234C444.438 39.2594 444.324 39.4629 444.096 39.6338C443.876 39.7965 443.555 39.8779 443.132 39.8779C442.709 39.8779 442.249 39.7762 441.752 39.5728C441.256 39.3612 440.894 39.2554 440.666 39.2554C440.642 39.2554 440.235 39.4019 439.445 39.6948C438.656 39.9797 437.989 40.1221 437.443 40.1221H437.175C436.263 40.1221 435.486 39.8332 434.843 39.2554C434.208 38.6776 433.891 37.8556 433.891 36.7896C433.891 35.7235 434.241 34.8934 434.941 34.2993C435.641 33.6971 436.491 33.2861 437.492 33.0664C437.793 33.0013 438.294 32.9159 438.994 32.8101C439.694 32.7043 440.17 32.5944 440.422 32.4805C440.861 32.277 441.081 31.8945 441.081 31.333C441.081 30.7633 440.894 30.3198 440.52 30.0024C440.145 29.6769 439.698 29.5142 439.177 29.5142C438.664 29.5142 437.989 29.7054 437.15 30.0879C436.312 30.4704 435.779 30.6616 435.551 30.6616ZM449.443 34.3481V34.7266C449.443 35.8171 449.65 36.6715 450.065 37.29C450.48 37.9085 451.001 38.2178 451.628 38.2178H452.055C452.958 38.2178 453.662 37.8394 454.167 37.0825C454.672 36.3175 454.924 35.2474 454.924 33.8721C454.94 33.7093 454.948 33.5832 454.948 33.4937L454.973 32.9932V32.2607C454.956 32.098 454.948 31.9759 454.948 31.8945C454.948 31.2516 454.794 30.7471 454.484 30.3809C454.175 30.0146 453.719 29.8315 453.117 29.8315H452.775C451.815 29.8315 451.018 30.2344 450.383 31.04C449.756 31.8457 449.443 32.9484 449.443 34.3481ZM456.535 28.8306C457.243 28.8306 457.597 29.3433 457.597 30.3687C457.597 30.6372 457.487 31.7603 457.268 33.7378C457.048 35.7153 456.938 37.3958 456.938 38.7793C456.938 40.179 456.844 41.2288 456.657 41.9287C456.258 43.4342 455.335 44.5003 453.886 45.127C453.129 45.4525 452.291 45.6152 451.372 45.6152C450.46 45.6152 449.646 45.4525 448.93 45.127C448.222 44.8014 447.868 44.4108 447.868 43.9551C447.868 43.4342 448.218 43.1738 448.918 43.1738C449.056 43.1738 449.431 43.2267 450.041 43.3325C450.651 43.4383 451.091 43.4912 451.359 43.4912C452.344 43.4912 453.15 43.182 453.776 42.5635C454.411 41.9531 454.729 41.1678 454.729 40.2075C454.729 39.703 454.541 39.4507 454.167 39.4507C454.102 39.4507 453.947 39.4751 453.703 39.5239C453.011 39.6623 452.381 39.7314 451.811 39.7314C450.362 39.7314 449.272 39.292 448.54 38.4131C448.198 38.0062 447.905 37.465 447.661 36.7896C447.425 36.106 447.307 35.3857 447.307 34.6289V34.2871C447.307 33.4896 447.437 32.7043 447.697 31.9312C447.966 31.1499 448.32 30.4948 448.759 29.9658C449.199 29.4287 449.772 29.0096 450.48 28.7085C451.188 28.4074 451.913 28.2568 452.653 28.2568H452.971C453.386 28.2568 453.919 28.3708 454.57 28.5986C455.229 28.8184 455.632 28.9282 455.778 28.9282C456.104 28.8631 456.356 28.8306 456.535 28.8306ZM463.017 32.5781V32.7734C463.017 33.0176 463.241 33.1396 463.688 33.1396H463.981L464.055 33.1274L464.653 33.0786C465.279 32.9891 465.686 32.9443 465.874 32.9443C466.761 32.9443 467.428 32.7775 467.875 32.4438C468.087 32.2811 468.193 31.9922 468.193 31.5771V31.4429C468.193 30.8325 467.989 30.3483 467.583 29.9902C467.184 29.6322 466.704 29.4531 466.142 29.4531H466.057L465.983 29.4653C465.194 29.4653 464.502 29.799 463.908 30.4663C463.314 31.1336 463.017 31.8376 463.017 32.5781ZM465.678 40.1587H465.41C463.855 40.1587 462.618 39.6663 461.699 38.6816C460.779 37.6888 460.319 36.3664 460.319 34.7144V34.1772C460.319 33.3879 460.474 32.5863 460.783 31.7725C461.41 30.1449 462.431 29.0218 463.847 28.4033C464.596 28.0697 465.357 27.9028 466.13 27.9028H466.655C467.721 27.9028 468.62 28.2609 469.353 28.9771C470.093 29.6851 470.463 30.6006 470.463 31.7236V31.9678C470.463 32.7653 470.146 33.3309 469.511 33.6646C469.072 33.9006 468.046 34.1366 466.435 34.3726C464.824 34.6086 463.945 34.751 463.798 34.7998C463.31 34.9707 463.066 35.2962 463.066 35.7764C463.066 36.4437 463.351 37.0133 463.92 37.4854C464.49 37.9574 465.255 38.1934 466.215 38.1934C466.663 38.1934 467.273 38.0713 468.046 37.8271C468.819 37.583 469.267 37.4609 469.389 37.4609C469.804 37.4609 470.012 37.64 470.012 37.998C470.012 38.4782 469.544 38.9583 468.608 39.4385C467.672 39.9186 466.695 40.1587 465.678 40.1587ZM473.979 33.1885C473.483 32.6839 473.234 31.9759 473.234 31.0645C473.234 30.153 473.641 29.3717 474.455 28.7207C475.269 28.0615 476.278 27.7319 477.482 27.7319H477.8C478.866 27.7319 479.712 27.8825 480.339 28.1836C480.974 28.4847 481.291 28.9364 481.291 29.5386C481.291 30.1326 481.027 30.4297 480.498 30.4297C480.359 30.4297 479.969 30.2669 479.326 29.9414C478.683 29.6077 478.076 29.4409 477.507 29.4409C476.937 29.4409 476.477 29.5711 476.127 29.8315C475.786 30.0838 475.615 30.4338 475.615 30.8813C475.615 31.3289 475.855 31.7196 476.335 32.0532C476.612 32.2485 477.263 32.5578 478.288 32.981C479.322 33.4041 480.058 33.811 480.498 34.2017C481.206 34.8283 481.56 35.6299 481.56 36.6064C481.56 37.583 481.145 38.4212 480.314 39.1211C479.484 39.8128 478.406 40.1587 477.08 40.1587H476.762C475.428 40.1587 474.427 39.9674 473.759 39.585C473.092 39.1943 472.758 38.6898 472.758 38.0713C472.758 37.4447 473.019 37.1313 473.54 37.1313C473.71 37.1313 474.154 37.3511 474.87 37.7905C475.594 38.23 476.302 38.4497 476.994 38.4497C477.694 38.4497 478.219 38.3032 478.569 38.0103C478.919 37.7091 479.094 37.3348 479.094 36.8872C479.094 36.4315 478.874 36.0327 478.435 35.6909C478.199 35.5037 477.523 35.166 476.408 34.6777C475.293 34.1813 474.484 33.6849 473.979 33.1885ZM495.952 38.4497H496.318C497.205 38.4497 497.95 38.0103 498.552 37.1313C499.162 36.2443 499.467 35.0399 499.467 33.5181V33.1274L499.455 32.9932L499.443 32.7368C499.435 32.6473 499.431 32.5618 499.431 32.4805C499.431 31.6911 499.211 30.9993 498.771 30.4053C498.332 29.8031 497.795 29.502 497.16 29.502H496.806C496.407 29.502 495.968 29.6403 495.488 29.917C495.016 30.1937 494.682 30.5192 494.487 30.8936C494.056 31.7074 493.84 32.9932 493.84 34.751V35.874C493.864 36.1182 493.876 36.3216 493.876 36.4844C493.876 37.0703 494.056 37.5464 494.414 37.9126C494.78 38.2707 495.292 38.4497 495.952 38.4497ZM494.353 27.7197C494.353 28.029 494.401 28.2609 494.499 28.4155C494.605 28.5701 494.877 28.6475 495.317 28.6475C495.325 28.6475 495.59 28.5864 496.11 28.4644C496.639 28.3423 497.185 28.2812 497.746 28.2812C498.959 28.2812 499.972 28.7614 500.786 29.7217C501.599 30.682 502.006 31.8538 502.006 33.2373V34.1162C502.006 34.7998 501.872 35.5241 501.604 36.2891C501.327 37.054 500.936 37.7173 500.432 38.2788C499.398 39.4181 498.125 39.9878 496.611 39.9878H496.342C495.919 39.9878 495.374 39.9064 494.707 39.7437C494.039 39.5809 493.604 39.4995 493.4 39.4995L492.583 39.5728C491.744 39.5728 491.325 39.1536 491.325 38.3154V37.8149C491.325 37.3185 491.423 35.5078 491.618 32.3828C491.822 29.2578 491.923 27.264 491.923 26.4014C491.923 25.5387 491.854 24.8226 491.716 24.2529C491.577 23.6833 491.508 23.374 491.508 23.3252C491.508 22.6416 491.895 22.2998 492.668 22.2998H492.912C493.571 22.2998 493.99 22.4585 494.169 22.7759C494.348 23.0851 494.438 23.6629 494.438 24.5093L494.377 26.4502L494.353 26.9995V27.7197ZM505.363 33.6523V32.7124C505.363 31.5812 505.302 30.7552 505.18 30.2344C505.058 29.7054 504.997 29.3351 504.997 29.1235C504.997 28.6271 505.359 28.3789 506.083 28.3789C506.808 28.3789 507.333 28.5132 507.658 28.7817C507.748 28.855 507.862 28.9974 508 29.209C508.146 29.4206 508.277 29.5264 508.391 29.5264C508.415 29.5264 508.769 29.3188 509.453 28.9038C510.136 28.4888 510.722 28.2812 511.21 28.2812H511.394C511.792 28.2812 512.11 28.3789 512.346 28.5742C512.582 28.7614 512.7 28.9933 512.7 29.27V29.4287C512.7 29.7624 512.582 30.0024 512.346 30.1489C512.118 30.2954 511.752 30.3687 511.247 30.3687C510.1 30.3687 509.261 30.7715 508.732 31.5771C508.212 32.3828 507.951 33.807 507.951 35.8496C507.951 36.1426 508 36.5942 508.098 37.2046C508.203 37.8149 508.256 38.2747 508.256 38.584C508.256 38.8932 508.09 39.1903 507.756 39.4751C507.422 39.7599 506.999 39.9023 506.486 39.9023H506.071C505.624 39.9023 505.278 39.7965 505.034 39.585C504.798 39.3652 504.68 39.1007 504.68 38.7915C504.68 38.4741 504.737 38.1527 504.851 37.8271C505.16 36.9482 505.314 35.9798 505.314 34.9219C505.347 34.3359 505.363 33.9128 505.363 33.6523ZM518.425 38.4619H518.742C519.41 38.4619 519.995 38.2381 520.5 37.7905C521.013 37.3348 521.269 36.8099 521.269 36.2158L521.293 36.0571V35.8984L521.318 35.52V34.8242C521.318 34.3522 521.078 34.1162 520.598 34.1162H520.048L519.963 34.1284L519.487 34.165C519.259 34.1976 519.096 34.2139 518.999 34.2139C518.339 34.2139 517.729 34.4621 517.167 34.9585C516.777 35.3084 516.582 35.8049 516.582 36.4478V36.6919C516.582 37.2371 516.757 37.6685 517.106 37.9858C517.465 38.3032 517.904 38.4619 518.425 38.4619ZM515.703 30.6616C515.157 30.6616 514.885 30.3117 514.885 29.6118C514.885 29.091 515.324 28.6393 516.203 28.2568C517.09 27.8662 518.01 27.6709 518.962 27.6709H519.572C520.394 27.6709 521.118 27.8255 521.745 28.1348C522.372 28.4359 522.848 28.8468 523.173 29.3677C523.507 29.8885 523.71 30.568 523.784 31.4062C523.8 31.6016 523.808 32.5496 523.808 34.2505C523.808 35.9513 523.828 36.932 523.869 37.1924C523.918 37.4447 524.048 37.7539 524.26 38.1201C524.479 38.4863 524.589 38.7874 524.589 39.0234C524.589 39.2594 524.475 39.4629 524.248 39.6338C524.028 39.7965 523.706 39.8779 523.283 39.8779C522.86 39.8779 522.4 39.7762 521.904 39.5728C521.407 39.3612 521.045 39.2554 520.817 39.2554C520.793 39.2554 520.386 39.4019 519.597 39.6948C518.807 39.9797 518.14 40.1221 517.595 40.1221H517.326C516.415 40.1221 515.638 39.8332 514.995 39.2554C514.36 38.6776 514.042 37.8556 514.042 36.7896C514.042 35.7235 514.392 34.8934 515.092 34.2993C515.792 33.6971 516.643 33.2861 517.644 33.0664C517.945 33.0013 518.445 32.9159 519.145 32.8101C519.845 32.7043 520.321 32.5944 520.573 32.4805C521.013 32.277 521.232 31.8945 521.232 31.333C521.232 30.7633 521.045 30.3198 520.671 30.0024C520.297 29.6769 519.849 29.5142 519.328 29.5142C518.815 29.5142 518.14 29.7054 517.302 30.0879C516.464 30.4704 515.931 30.6616 515.703 30.6616ZM538.64 38.5352C538.64 39.1374 538.115 39.4385 537.065 39.4385C536.471 39.4385 536.072 39.2961 535.869 39.0112C535.771 38.8729 535.722 38.5474 535.722 38.0347L535.686 37.2534C535.629 36.3989 535.6 35.5404 535.6 34.6777C535.6 32.8141 535.437 31.5649 535.112 30.9302C534.794 30.2873 534.257 29.9658 533.5 29.9658C532.996 29.9658 532.528 30.1164 532.097 30.4175C531.674 30.7186 531.348 31.1377 531.12 31.6748C530.648 32.7734 530.412 34.8039 530.412 37.7661C530.412 38.4416 530.282 38.9176 530.021 39.1943C529.769 39.471 529.444 39.6094 529.045 39.6094H528.801C527.889 39.6094 527.434 39.2472 527.434 38.5229V38.23C527.434 38.1405 527.482 37.9451 527.58 37.644L527.775 37.0825C527.971 36.4233 528.068 35.0114 528.068 32.8467L528.129 29.2212C528.129 28.7573 528.382 28.5254 528.886 28.5254C529.391 28.5254 529.887 28.6922 530.375 29.0259C530.872 29.3595 531.185 29.5264 531.315 29.5264C531.454 29.5264 531.694 29.4328 532.036 29.2456C533.183 28.619 534.103 28.3057 534.794 28.3057H535.112C536.357 28.3057 537.232 28.8672 537.736 29.9902C537.98 30.5192 538.103 31.6585 538.103 33.4082V33.4937C538.103 33.6401 538.098 33.7866 538.09 33.9331C538.09 34.3319 538.09 34.5394 538.09 34.5557C538.09 34.7103 538.09 34.8608 538.09 35.0073C538.09 35.1213 538.09 35.2311 538.09 35.3369C538.09 35.9635 538.111 36.3908 538.151 36.6187C538.208 36.9279 538.302 37.2493 538.432 37.583C538.57 37.9492 538.64 38.2666 538.64 38.5352ZM543.583 34.0796V35.0073C543.583 35.9757 543.803 36.7855 544.243 37.4365C544.69 38.0794 545.215 38.4009 545.817 38.4009H546.159C547.087 38.4009 547.803 38.0306 548.308 37.29C548.82 36.5495 549.077 35.4468 549.077 33.9819C549.093 33.8029 549.101 33.6727 549.101 33.5913L549.125 33.3472L549.138 32.8345V31.9678C549.138 30.3076 548.474 29.4775 547.148 29.4775H546.672C545.809 29.4775 545.077 29.9129 544.475 30.7837C543.881 31.6545 543.583 32.7531 543.583 34.0796ZM541.24 34.6411C541.24 33.7948 541.39 32.9321 541.691 32.0532C541.993 31.1743 542.416 30.4256 542.961 29.8071C543.506 29.1805 544.121 28.7288 544.804 28.4521C545.488 28.1673 546.298 28.0249 547.233 28.0249C548.177 28.0249 548.763 27.854 548.991 27.5122C549.219 27.1623 549.333 26.3932 549.333 25.2051C549.333 24.9854 549.296 24.6924 549.223 24.3262C549.15 23.96 549.113 23.7484 549.113 23.6914C549.113 23.3415 549.264 23.0241 549.565 22.7393C549.866 22.4463 550.261 22.2998 550.749 22.2998H550.993C551.376 22.2998 551.66 22.3893 551.848 22.5684C552.035 22.7474 552.128 23.1217 552.128 23.6914V24.8267L552.104 25.4004C552.096 25.5957 552.092 25.8805 552.092 26.2549C552.092 26.6211 552.031 27.8011 551.909 29.7949C551.787 31.7887 551.726 33.16 551.726 33.9087L551.713 34.2017C551.705 34.397 551.701 34.5841 551.701 34.7632L551.689 35.0439C551.689 35.0439 551.689 35.3613 551.689 35.9961C551.689 36.818 551.754 37.4365 551.884 37.8516C552.014 38.2666 552.08 38.5636 552.08 38.7427C552.08 38.9217 551.978 39.1089 551.774 39.3042C551.571 39.4995 551.254 39.5972 550.822 39.5972C550.399 39.5972 549.988 39.528 549.589 39.3896C549.191 39.2432 548.898 39.1699 548.71 39.1699C548.523 39.1699 548.279 39.2269 547.978 39.3408C547.067 39.6745 546.232 39.8413 545.476 39.8413C545.459 39.8413 545.443 39.8413 545.427 39.8413H545.146C543.917 39.8413 542.957 39.3937 542.265 38.4985C541.582 37.5952 541.24 36.4111 541.24 34.9463V34.6411ZM557.011 40.1953H556.633C556.226 40.1953 555.909 40.1017 555.681 39.9146C555.461 39.7274 555.351 39.4792 555.351 39.1699C555.335 39.1048 555.327 39.0519 555.327 39.0112L555.302 38.8037V38.584L555.314 38.5352V38.4253C555.331 38.3602 555.339 38.3073 555.339 38.2666C555.339 37.9004 555.461 37.6156 555.705 37.4121C555.957 37.2005 556.234 37.0947 556.535 37.0947L556.792 37.0581H557.121C558.008 37.0581 558.452 37.522 558.452 38.4497V38.6206L558.403 39.0356C558.403 39.41 558.26 39.6989 557.976 39.9023C557.699 40.0977 557.377 40.1953 557.011 40.1953ZM568.327 32.395V32.0044C568.327 30.7104 568.531 29.4613 568.938 28.2568C569.702 26.0026 571.049 24.4198 572.978 23.5083C574.028 23.0119 575.114 22.7637 576.237 22.7637H576.616C578.317 22.7637 579.525 23.0119 580.241 23.5083C580.957 24.0047 581.315 24.6313 581.315 25.3882C581.315 25.8439 581.226 26.1491 581.047 26.3037C580.868 26.4583 580.693 26.5356 580.522 26.5356C580.359 26.5356 580.005 26.3485 579.46 25.9741C578.923 25.5998 578.402 25.3109 577.897 25.1074C577.393 24.8958 576.762 24.79 576.005 24.79C575.249 24.79 574.561 24.9772 573.942 25.3516C572.087 26.4827 571.155 28.8062 571.147 32.3218C571.147 33.2332 571.269 34.0552 571.513 34.7876C572.254 37.0011 573.731 38.1079 575.944 38.1079C577.019 38.1079 578.256 37.7173 579.655 36.936C580.095 36.6919 580.42 36.5698 580.632 36.5698C580.982 36.5698 581.157 36.7692 581.157 37.168C581.157 37.4202 581.043 37.701 580.815 38.0103C580.416 38.5636 579.895 38.999 579.252 39.3164C578.162 39.8617 576.949 40.1343 575.615 40.1343H575.224C573.141 40.1343 571.464 39.4385 570.195 38.0469C569.593 37.3877 569.129 36.5576 568.803 35.5566C568.486 34.5557 568.327 33.5018 568.327 32.395ZM583.964 29.0259C583.964 28.5132 584.396 28.2568 585.258 28.2568H585.539C586.076 28.2568 586.438 28.4725 586.625 28.9038C586.813 29.3351 586.906 30.1408 586.906 31.3208L586.76 35.3979C586.76 37.2941 587.439 38.2422 588.798 38.2422C589.295 38.2422 589.771 38.0672 590.227 37.7173C590.682 37.3674 591.02 36.9482 591.24 36.46C591.72 35.3857 591.96 33.4611 591.96 30.686L591.936 30.1489V29.6729C591.936 29.2415 592.033 28.9282 592.229 28.7329C592.424 28.5376 592.766 28.4399 593.254 28.4399C593.742 28.4399 594.064 28.5579 594.218 28.7939C594.373 29.0299 594.45 29.4124 594.45 29.9414L594.426 30.5884L594.377 33.4692C594.377 33.9331 594.405 34.6452 594.462 35.6055C594.519 36.5658 594.58 37.2697 594.646 37.7173C594.711 38.1567 594.743 38.4172 594.743 38.4985C594.743 39.2228 594.21 39.585 593.144 39.585C592.778 39.585 592.412 39.4507 592.045 39.1821C591.687 38.9054 591.431 38.7671 591.276 38.7671C591.13 38.7671 590.878 38.8566 590.52 39.0356C589.502 39.5483 588.636 39.8047 587.919 39.8047H587.614C586.451 39.8047 585.596 39.4466 585.051 38.7305C584.506 38.0143 584.233 36.7244 584.233 34.8608L584.355 31.1621C584.355 30.6982 584.29 30.2547 584.16 29.8315C584.029 29.4084 583.964 29.1398 583.964 29.0259ZM598.686 33.1885C598.19 32.6839 597.941 31.9759 597.941 31.0645C597.941 30.153 598.348 29.3717 599.162 28.7207C599.976 28.0615 600.985 27.7319 602.189 27.7319H602.507C603.573 27.7319 604.419 27.8825 605.046 28.1836C605.681 28.4847 605.998 28.9364 605.998 29.5386C605.998 30.1326 605.734 30.4297 605.205 30.4297C605.066 30.4297 604.676 30.2669 604.033 29.9414C603.39 29.6077 602.784 29.4409 602.214 29.4409C601.644 29.4409 601.184 29.5711 600.834 29.8315C600.493 30.0838 600.322 30.4338 600.322 30.8813C600.322 31.3289 600.562 31.7196 601.042 32.0532C601.319 32.2485 601.97 32.5578 602.995 32.981C604.029 33.4041 604.765 33.811 605.205 34.2017C605.913 34.8283 606.267 35.6299 606.267 36.6064C606.267 37.583 605.852 38.4212 605.021 39.1211C604.191 39.8128 603.113 40.1587 601.787 40.1587H601.469C600.135 40.1587 599.134 39.9674 598.466 39.585C597.799 39.1943 597.465 38.6898 597.465 38.0713C597.465 37.4447 597.726 37.1313 598.247 37.1313C598.417 37.1313 598.861 37.3511 599.577 37.7905C600.301 38.23 601.009 38.4497 601.701 38.4497C602.401 38.4497 602.926 38.3032 603.276 38.0103C603.626 37.7091 603.801 37.3348 603.801 36.8872C603.801 36.4315 603.581 36.0327 603.142 35.6909C602.906 35.5037 602.23 35.166 601.115 34.6777C600 34.1813 599.191 33.6849 598.686 33.1885ZM615.263 38.6938C615.263 39.0194 615.064 39.3123 614.665 39.5728C614.274 39.825 613.741 39.9512 613.066 39.9512C611.805 39.9512 610.917 39.4832 610.405 38.5474C610.087 37.9614 609.929 36.5902 609.929 34.4336C609.929 32.277 609.892 31.0238 609.819 30.6738C609.746 30.3239 609.542 29.9821 609.208 29.6484C608.875 29.3148 608.708 29.0584 608.708 28.8794C608.708 28.8143 609.103 28.387 609.892 27.5977C610.063 27.4268 610.234 27.0483 610.405 26.4624C610.584 25.8765 610.71 25.4899 610.783 25.3027C611.027 24.7168 611.349 24.4238 611.748 24.4238H611.943C612.293 24.4238 612.541 24.5581 612.688 24.8267C612.744 24.9325 612.83 25.3149 612.944 25.9741C613.066 26.6252 613.204 27.0443 613.359 27.2314C613.514 27.4186 613.9 27.6261 614.519 27.854C615.145 28.0737 615.458 28.3097 615.458 28.562V28.6963C615.458 29.0218 615.1 29.2985 614.384 29.5264C613.676 29.7461 613.221 30.1001 613.017 30.5884C612.618 31.5731 612.419 33.1763 612.419 35.3979C612.419 36.4396 612.598 37.1476 612.956 37.522C613.176 37.7498 613.615 37.9085 614.274 37.998C614.934 38.0876 615.263 38.3195 615.263 38.6938ZM620.146 34.8486C620.146 35.9147 620.39 36.8018 620.878 37.5098C621.367 38.2178 621.965 38.5718 622.673 38.5718H623.039C623.877 38.5718 624.585 38.1486 625.163 37.3022C625.749 36.4559 626.042 35.3288 626.042 33.9209V33.1152C626.042 32.0247 625.802 31.1336 625.322 30.4419C624.85 29.742 624.239 29.3921 623.491 29.3921H623.247C622.376 29.3921 621.643 29.8234 621.049 30.686C620.463 31.5487 620.17 32.5781 620.17 33.7744L620.146 34.0552V34.8486ZM622.905 40.2319H622.514C621.09 40.2319 619.93 39.7355 619.035 38.7427C618.14 37.7498 617.692 36.342 617.692 34.519L617.705 34.3115C617.705 32.3096 618.234 30.7308 619.292 29.5752C619.845 28.9648 620.476 28.5173 621.184 28.2324C621.9 27.9395 622.579 27.793 623.222 27.793H623.82C624.536 27.793 625.224 27.9517 625.883 28.269C627.771 29.1805 628.715 30.8976 628.715 33.4204V33.6157C628.707 34.4377 628.573 35.2718 628.312 36.1182C627.792 37.7865 626.791 38.9665 625.31 39.6582C624.488 40.0407 623.686 40.2319 622.905 40.2319ZM636.333 28.7085C636.959 28.4725 637.602 28.3545 638.261 28.3545C638.92 28.3545 639.604 28.5498 640.312 28.9404C641.028 29.3311 641.419 29.5264 641.484 29.5264C641.549 29.5264 641.988 29.327 642.802 28.9282C643.616 28.5295 644.348 28.3301 645 28.3301C645.659 28.3301 646.2 28.4684 646.623 28.7451C647.054 29.0137 647.38 29.3351 647.6 29.7095C648.015 30.4256 648.222 32.0166 648.222 34.4824C648.222 35.5892 648.23 36.224 648.247 36.3867C648.271 36.5413 648.328 36.8221 648.417 37.229C648.515 37.6278 648.564 37.9574 648.564 38.2178C648.564 38.4701 648.458 38.7345 648.247 39.0112C648.035 39.2879 647.754 39.4263 647.404 39.4263C646.713 39.4263 646.302 39.1455 646.171 38.584C646.074 38.1771 645.96 36.9889 645.83 35.0195C645.708 33.0501 645.573 31.8945 645.427 31.5527C645.134 30.8366 644.511 30.4785 643.559 30.4785C642.949 30.4785 642.473 30.861 642.131 31.626C641.634 32.7246 641.386 34.2871 641.386 36.3135L641.508 38.0713C641.508 38.6898 641.28 39.1577 640.825 39.4751C640.532 39.6785 640.141 39.7803 639.653 39.7803C639.173 39.7803 638.855 39.7314 638.701 39.6338C638.432 39.471 638.298 39.1252 638.298 38.5962C638.298 38.4985 638.375 38.0998 638.53 37.3999C638.693 36.6919 638.774 35.5444 638.774 33.9575C638.774 32.3625 638.656 31.3493 638.42 30.918C638.184 30.4785 637.773 30.2588 637.187 30.2588C636.601 30.2588 636.08 30.4582 635.625 30.8569C635.177 31.2557 634.847 31.6911 634.636 32.1631C634.432 32.6351 634.249 33.7581 634.086 35.5322C633.932 37.3063 633.822 38.3236 633.757 38.584C633.643 39.0316 633.313 39.2554 632.768 39.2554C632.231 39.2554 631.861 39.0967 631.657 38.7793C631.462 38.4538 631.364 38.0591 631.364 37.5952L631.425 37.168L631.657 36.3257C631.755 35.9351 631.812 35.4793 631.828 34.9585C631.95 31.7277 632.044 29.8844 632.109 29.4287C632.174 28.973 632.467 28.7451 632.988 28.7451L634.807 29.0503C635.197 29.0503 635.706 28.9364 636.333 28.7085ZM653.813 32.5781V32.7734C653.813 33.0176 654.037 33.1396 654.484 33.1396H654.777L654.851 33.1274L655.449 33.0786C656.075 32.9891 656.482 32.9443 656.669 32.9443C657.556 32.9443 658.224 32.7775 658.671 32.4438C658.883 32.2811 658.989 31.9922 658.989 31.5771V31.4429C658.989 30.8325 658.785 30.3483 658.378 29.9902C657.98 29.6322 657.5 29.4531 656.938 29.4531H656.853L656.779 29.4653C655.99 29.4653 655.298 29.799 654.704 30.4663C654.11 31.1336 653.813 31.8376 653.813 32.5781ZM656.474 40.1587H656.206C654.651 40.1587 653.414 39.6663 652.495 38.6816C651.575 37.6888 651.115 36.3664 651.115 34.7144V34.1772C651.115 33.3879 651.27 32.5863 651.579 31.7725C652.206 30.1449 653.227 29.0218 654.643 28.4033C655.392 28.0697 656.153 27.9028 656.926 27.9028H657.451C658.517 27.9028 659.416 28.2609 660.148 28.9771C660.889 29.6851 661.259 30.6006 661.259 31.7236V31.9678C661.259 32.7653 660.942 33.3309 660.307 33.6646C659.868 33.9006 658.842 34.1366 657.231 34.3726C655.62 34.6086 654.741 34.751 654.594 34.7998C654.106 34.9707 653.862 35.2962 653.862 35.7764C653.862 36.4437 654.147 37.0133 654.716 37.4854C655.286 37.9574 656.051 38.1934 657.011 38.1934C657.459 38.1934 658.069 38.0713 658.842 37.8271C659.615 37.583 660.063 37.4609 660.185 37.4609C660.6 37.4609 660.808 37.64 660.808 37.998C660.808 38.4782 660.34 38.9583 659.404 39.4385C658.468 39.9186 657.491 40.1587 656.474 40.1587ZM664.689 33.6523V32.7124C664.689 31.5812 664.628 30.7552 664.506 30.2344C664.384 29.7054 664.323 29.3351 664.323 29.1235C664.323 28.6271 664.685 28.3789 665.41 28.3789C666.134 28.3789 666.659 28.5132 666.984 28.7817C667.074 28.855 667.188 28.9974 667.326 29.209C667.473 29.4206 667.603 29.5264 667.717 29.5264C667.741 29.5264 668.095 29.3188 668.779 28.9038C669.462 28.4888 670.048 28.2812 670.537 28.2812H670.72C671.118 28.2812 671.436 28.3789 671.672 28.5742C671.908 28.7614 672.026 28.9933 672.026 29.27V29.4287C672.026 29.7624 671.908 30.0024 671.672 30.1489C671.444 30.2954 671.078 30.3687 670.573 30.3687C669.426 30.3687 668.588 30.7715 668.059 31.5771C667.538 32.3828 667.277 33.807 667.277 35.8496C667.277 36.1426 667.326 36.5942 667.424 37.2046C667.53 37.8149 667.583 38.2747 667.583 38.584C667.583 38.8932 667.416 39.1903 667.082 39.4751C666.748 39.7599 666.325 39.9023 665.812 39.9023H665.397C664.95 39.9023 664.604 39.7965 664.36 39.585C664.124 39.3652 664.006 39.1007 664.006 38.7915C664.006 38.4741 664.063 38.1527 664.177 37.8271C664.486 36.9482 664.641 35.9798 664.641 34.9219C664.673 34.3359 664.689 33.9128 664.689 33.6523ZM674.907 33.1885C674.41 32.6839 674.162 31.9759 674.162 31.0645C674.162 30.153 674.569 29.3717 675.383 28.7207C676.197 28.0615 677.206 27.7319 678.41 27.7319H678.728C679.794 27.7319 680.64 27.8825 681.267 28.1836C681.901 28.4847 682.219 28.9364 682.219 29.5386C682.219 30.1326 681.954 30.4297 681.425 30.4297C681.287 30.4297 680.896 30.2669 680.253 29.9414C679.611 29.6077 679.004 29.4409 678.435 29.4409C677.865 29.4409 677.405 29.5711 677.055 29.8315C676.713 30.0838 676.542 30.4338 676.542 30.8813C676.542 31.3289 676.783 31.7196 677.263 32.0532C677.539 32.2485 678.19 32.5578 679.216 32.981C680.249 33.4041 680.986 33.811 681.425 34.2017C682.133 34.8283 682.487 35.6299 682.487 36.6064C682.487 37.583 682.072 38.4212 681.242 39.1211C680.412 39.8128 679.334 40.1587 678.007 40.1587H677.69C676.355 40.1587 675.354 39.9674 674.687 39.585C674.02 39.1943 673.686 38.6898 673.686 38.0713C673.686 37.4447 673.946 37.1313 674.467 37.1313C674.638 37.1313 675.082 37.3511 675.798 37.7905C676.522 38.23 677.23 38.4497 677.922 38.4497C678.622 38.4497 679.147 38.3032 679.497 38.0103C679.847 37.7091 680.021 37.3348 680.021 36.8872C680.021 36.4315 679.802 36.0327 679.362 35.6909C679.126 35.5037 678.451 35.166 677.336 34.6777C676.221 34.1813 675.411 33.6849 674.907 33.1885ZM324.296 68.4619H324.614C325.281 68.4619 325.867 68.2381 326.372 67.7905C326.884 67.3348 327.141 66.8099 327.141 66.2158L327.165 66.0571V65.8984L327.189 65.52V64.8242C327.189 64.3522 326.949 64.1162 326.469 64.1162H325.92L325.834 64.1284L325.358 64.165C325.131 64.1976 324.968 64.2139 324.87 64.2139C324.211 64.2139 323.601 64.4621 323.039 64.9585C322.648 65.3084 322.453 65.8049 322.453 66.4478V66.6919C322.453 67.2371 322.628 67.6685 322.978 67.9858C323.336 68.3032 323.776 68.4619 324.296 68.4619ZM321.574 60.6616C321.029 60.6616 320.756 60.3117 320.756 59.6118C320.756 59.091 321.196 58.6393 322.075 58.2568C322.962 57.8662 323.881 57.6709 324.833 57.6709H325.444C326.266 57.6709 326.99 57.8255 327.617 58.1348C328.243 58.4359 328.719 58.8468 329.045 59.3677C329.379 59.8885 329.582 60.568 329.655 61.4062C329.672 61.6016 329.68 62.5496 329.68 64.2505C329.68 65.9513 329.7 66.932 329.741 67.1924C329.79 67.4447 329.92 67.7539 330.131 68.1201C330.351 68.4863 330.461 68.7874 330.461 69.0234C330.461 69.2594 330.347 69.4629 330.119 69.6338C329.899 69.7965 329.578 69.8779 329.155 69.8779C328.732 69.8779 328.272 69.7762 327.775 69.5728C327.279 69.3612 326.917 69.2554 326.689 69.2554C326.665 69.2554 326.258 69.4019 325.468 69.6948C324.679 69.9797 324.012 70.1221 323.466 70.1221H323.198C322.286 70.1221 321.509 69.8332 320.866 69.2554C320.231 68.6776 319.914 67.8556 319.914 66.7896C319.914 65.7235 320.264 64.8934 320.964 64.2993C321.664 63.6971 322.514 63.2861 323.515 63.0664C323.816 63.0013 324.317 62.9159 325.017 62.8101C325.716 62.7043 326.193 62.5944 326.445 62.4805C326.884 62.277 327.104 61.8945 327.104 61.333C327.104 60.7633 326.917 60.3198 326.542 60.0024C326.168 59.6769 325.721 59.5142 325.2 59.5142C324.687 59.5142 324.012 59.7054 323.173 60.0879C322.335 60.4704 321.802 60.6616 321.574 60.6616ZM337.602 69.9878C337.008 69.9878 336.532 69.6094 336.174 68.8525C335.905 68.2829 335.425 66.9198 334.733 64.7632C334.05 62.5985 333.598 61.3086 333.378 60.8936C332.833 59.86 332.561 59.2008 332.561 58.916C332.561 58.623 332.65 58.4115 332.829 58.2812C333.008 58.1429 333.387 58.0737 333.964 58.0737C334.892 58.0737 335.507 58.4155 335.808 59.0991C335.865 59.2212 335.954 59.5996 336.076 60.2344C336.198 60.861 336.32 61.4144 336.442 61.8945L336.687 62.9688C337.297 65.6543 337.765 66.9971 338.09 66.9971C338.31 66.9971 338.929 65.6258 339.946 62.8833C340.41 61.63 340.707 60.6453 340.837 59.9292C340.975 59.2049 341.065 58.8021 341.105 58.7207C341.341 58.2731 341.838 58.0493 342.595 58.0493H342.839C343.392 58.0493 343.669 58.3301 343.669 58.8916C343.669 59.2904 343.547 59.6973 343.303 60.1123C343.059 60.5273 342.489 61.805 341.594 63.9453C340.707 66.0775 340.052 67.526 339.628 68.291C339.205 69.0479 338.855 69.5199 338.579 69.707C338.31 69.8942 337.985 69.9878 337.602 69.9878ZM347.648 64.8486C347.648 65.9147 347.893 66.8018 348.381 67.5098C348.869 68.2178 349.467 68.5718 350.175 68.5718H350.542C351.38 68.5718 352.088 68.1486 352.666 67.3022C353.251 66.4559 353.544 65.3288 353.544 63.9209V63.1152C353.544 62.0247 353.304 61.1336 352.824 60.4419C352.352 59.742 351.742 59.3921 350.993 59.3921H350.749C349.878 59.3921 349.146 59.8234 348.552 60.686C347.966 61.5487 347.673 62.5781 347.673 63.7744L347.648 64.0552V64.8486ZM350.407 70.2319H350.017C348.592 70.2319 347.433 69.7355 346.538 68.7427C345.642 67.7498 345.195 66.342 345.195 64.519L345.207 64.3115C345.207 62.3096 345.736 60.7308 346.794 59.5752C347.347 58.9648 347.978 58.5173 348.686 58.2324C349.402 57.9395 350.082 57.793 350.725 57.793H351.323C352.039 57.793 352.727 57.9517 353.386 58.269C355.274 59.1805 356.218 60.8976 356.218 63.4204V63.6157C356.21 64.4377 356.075 65.2718 355.815 66.1182C355.294 67.7865 354.293 68.9665 352.812 69.6582C351.99 70.0407 351.188 70.2319 350.407 70.2319ZM362.724 54.1309V54.2773C362.724 54.6924 362.602 55.0464 362.358 55.3394C362.122 55.6242 361.756 55.7666 361.259 55.7666H361.064L360.686 55.7178C360.466 55.7178 360.254 55.616 360.051 55.4126C359.847 55.2091 359.746 54.904 359.746 54.4971V54.3506L359.807 53.9111C359.807 53.7402 359.908 53.5286 360.112 53.2764C360.323 53.0241 360.592 52.8979 360.917 52.8979L361.198 52.8613H361.442L361.784 52.9102C361.996 52.9102 362.203 53.016 362.407 53.2275C362.618 53.431 362.724 53.7321 362.724 54.1309ZM362.15 59.2822L362.016 62.5659L361.992 62.8955L361.955 63.8965V64.3726C361.955 65.5444 361.988 66.3135 362.053 66.6797C362.126 67.0459 362.26 67.404 362.456 67.7539C362.651 68.0957 362.749 68.3439 362.749 68.4985V68.6084C362.749 69.0072 362.545 69.3245 362.138 69.5605C361.731 69.7965 361.178 69.9146 360.478 69.9146H360.173C359.766 69.9146 359.457 69.825 359.245 69.646C359.034 69.4588 358.928 69.2594 358.928 69.0479V68.7793C358.928 68.6735 359.021 68.2992 359.208 67.6562C359.396 67.0052 359.489 66.1222 359.489 65.0073C359.514 64.6899 359.526 64.4702 359.526 64.3481L359.562 63.6768L359.587 63.3472C359.628 62.7775 359.648 62.334 359.648 62.0166L359.66 61.5283C359.66 60.918 359.558 60.3768 359.355 59.9048C359.16 59.4328 359.062 59.1398 359.062 59.0259C359.062 58.4399 359.615 58.147 360.722 58.147H361.162C361.577 58.147 361.845 58.2568 361.967 58.4766C362.089 58.6882 362.15 58.9567 362.15 59.2822ZM367.863 64.0796V65.0073C367.863 65.9757 368.083 66.7855 368.522 67.4365C368.97 68.0794 369.495 68.4009 370.097 68.4009H370.439C371.367 68.4009 372.083 68.0306 372.587 67.29C373.1 66.5495 373.356 65.4468 373.356 63.9819C373.373 63.8029 373.381 63.6727 373.381 63.5913L373.405 63.3472L373.417 62.8345V61.9678C373.417 60.3076 372.754 59.4775 371.428 59.4775H370.952C370.089 59.4775 369.357 59.9129 368.754 60.7837C368.16 61.6545 367.863 62.7531 367.863 64.0796ZM365.52 64.6411C365.52 63.7948 365.67 62.9321 365.971 62.0532C366.272 61.1743 366.695 60.4256 367.241 59.8071C367.786 59.1805 368.4 58.7288 369.084 58.4521C369.768 58.1673 370.577 58.0249 371.513 58.0249C372.457 58.0249 373.043 57.854 373.271 57.5122C373.499 57.1623 373.613 56.3932 373.613 55.2051C373.613 54.9854 373.576 54.6924 373.503 54.3262C373.43 53.96 373.393 53.7484 373.393 53.6914C373.393 53.3415 373.544 53.0241 373.845 52.7393C374.146 52.4463 374.541 52.2998 375.029 52.2998H375.273C375.655 52.2998 375.94 52.3893 376.127 52.5684C376.315 52.7474 376.408 53.1217 376.408 53.6914V54.8267L376.384 55.4004C376.376 55.5957 376.372 55.8805 376.372 56.2549C376.372 56.6211 376.311 57.8011 376.188 59.7949C376.066 61.7887 376.005 63.16 376.005 63.9087L375.993 64.2017C375.985 64.397 375.981 64.5841 375.981 64.7632L375.969 65.0439C375.969 65.0439 375.969 65.3613 375.969 65.9961C375.969 66.818 376.034 67.4365 376.164 67.8516C376.294 68.2666 376.359 68.5636 376.359 68.7427C376.359 68.9217 376.258 69.1089 376.054 69.3042C375.851 69.4995 375.533 69.5972 375.102 69.5972C374.679 69.5972 374.268 69.528 373.869 69.3896C373.47 69.2432 373.177 69.1699 372.99 69.1699C372.803 69.1699 372.559 69.2269 372.258 69.3408C371.346 69.6745 370.512 69.8413 369.755 69.8413C369.739 69.8413 369.723 69.8413 369.707 69.8413H369.426C368.197 69.8413 367.237 69.3937 366.545 68.4985C365.861 67.5952 365.52 66.4111 365.52 64.9463V64.6411ZM392.766 68.6938C392.766 69.0194 392.566 69.3123 392.167 69.5728C391.777 69.825 391.244 69.9512 390.568 69.9512C389.307 69.9512 388.42 69.4832 387.907 68.5474C387.59 67.9614 387.431 66.5902 387.431 64.4336C387.431 62.277 387.395 61.0238 387.321 60.6738C387.248 60.3239 387.045 59.9821 386.711 59.6484C386.377 59.3148 386.21 59.0584 386.21 58.8794C386.21 58.8143 386.605 58.387 387.395 57.5977C387.565 57.4268 387.736 57.0483 387.907 56.4624C388.086 55.8765 388.212 55.4899 388.286 55.3027C388.53 54.7168 388.851 54.4238 389.25 54.4238H389.445C389.795 54.4238 390.043 54.5581 390.19 54.8267C390.247 54.9325 390.332 55.3149 390.446 55.9741C390.568 56.6252 390.707 57.0443 390.861 57.2314C391.016 57.4186 391.403 57.6261 392.021 57.854C392.648 58.0737 392.961 58.3097 392.961 58.562V58.6963C392.961 59.0218 392.603 59.2985 391.887 59.5264C391.179 59.7461 390.723 60.1001 390.52 60.5884C390.121 61.5731 389.921 63.1763 389.921 65.3979C389.921 66.4396 390.1 67.1476 390.458 67.522C390.678 67.7498 391.118 67.9085 391.777 67.998C392.436 68.0876 392.766 68.3195 392.766 68.6938ZM397.05 69.7681C396.09 69.7681 395.61 69.4263 395.61 68.7427C395.61 68.4334 395.683 67.9736 395.83 67.3633C395.984 66.7529 396.086 66.1914 396.135 65.6787C396.184 65.1579 396.269 63.4814 396.391 60.6494C396.521 57.8174 396.586 56.0921 396.586 55.4736V54.0332L396.513 53.0078C396.513 52.6253 396.863 52.4341 397.563 52.4341C398.271 52.4341 398.731 52.7067 398.942 53.252C399.048 53.5286 399.101 54.432 399.101 55.9619C399.101 57.4919 399.13 58.3626 399.187 58.5742C399.252 58.7858 399.418 58.8916 399.687 58.8916C399.72 58.8916 399.874 58.8428 400.151 58.7451L400.419 58.6475C401.29 58.3057 402.043 58.1348 402.678 58.1348C404.012 58.1348 404.96 58.6556 405.522 59.6973C405.896 60.389 406.083 61.8945 406.083 64.2139C406.083 65.3044 406.092 65.9513 406.108 66.1548C406.124 66.3582 406.177 66.7285 406.267 67.2656C406.356 67.7946 406.401 68.0876 406.401 68.1445C406.401 68.6247 406.291 68.9827 406.071 69.2188C405.86 69.4466 405.473 69.5605 404.912 69.5605C404.358 69.5605 403.996 69.3896 403.825 69.0479C403.736 68.8688 403.691 68.3521 403.691 67.4976L403.654 65.3491L403.691 63.4082C403.691 61.2354 403.056 60.1489 401.787 60.1489C400.664 60.1489 399.862 60.6209 399.382 61.5649C398.902 62.509 398.662 64.2586 398.662 66.814L398.698 68.1445C398.698 68.6003 398.556 68.9868 398.271 69.3042C397.986 69.6134 397.579 69.7681 397.05 69.7681ZM411.735 62.5781V62.7734C411.735 63.0176 411.959 63.1396 412.407 63.1396H412.7L412.773 63.1274L413.371 63.0786C413.998 62.9891 414.405 62.9443 414.592 62.9443C415.479 62.9443 416.146 62.7775 416.594 62.4438C416.805 62.2811 416.911 61.9922 416.911 61.5771V61.4429C416.911 60.8325 416.708 60.3483 416.301 59.9902C415.902 59.6322 415.422 59.4531 414.86 59.4531H414.775L414.702 59.4653C413.912 59.4653 413.221 59.799 412.626 60.4663C412.032 61.1336 411.735 61.8376 411.735 62.5781ZM414.396 70.1587H414.128C412.574 70.1587 411.337 69.6663 410.417 68.6816C409.497 67.6888 409.038 66.3664 409.038 64.7144V64.1772C409.038 63.3879 409.192 62.5863 409.501 61.7725C410.128 60.1449 411.149 59.0218 412.565 58.4033C413.314 58.0697 414.075 57.9028 414.848 57.9028H415.373C416.439 57.9028 417.338 58.2609 418.071 58.9771C418.811 59.6851 419.182 60.6006 419.182 61.7236V61.9678C419.182 62.7653 418.864 63.3309 418.229 63.6646C417.79 63.9006 416.765 64.1366 415.153 64.3726C413.542 64.6086 412.663 64.751 412.517 64.7998C412.028 64.9707 411.784 65.2962 411.784 65.7764C411.784 66.4437 412.069 67.0133 412.639 67.4854C413.208 67.9574 413.973 68.1934 414.934 68.1934C415.381 68.1934 415.992 68.0713 416.765 67.8271C417.538 67.583 417.985 67.4609 418.107 67.4609C418.522 67.4609 418.73 67.64 418.73 67.998C418.73 68.4782 418.262 68.9583 417.326 69.4385C416.39 69.9186 415.414 70.1587 414.396 70.1587ZM426.921 58.7085C427.548 58.4725 428.19 58.3545 428.85 58.3545C429.509 58.3545 430.192 58.5498 430.9 58.9404C431.617 59.3311 432.007 59.5264 432.072 59.5264C432.137 59.5264 432.577 59.327 433.391 58.9282C434.204 58.5295 434.937 58.3301 435.588 58.3301C436.247 58.3301 436.788 58.4684 437.211 58.7451C437.643 59.0137 437.968 59.3351 438.188 59.7095C438.603 60.4256 438.811 62.0166 438.811 64.4824C438.811 65.5892 438.819 66.224 438.835 66.3867C438.859 66.5413 438.916 66.8221 439.006 67.229C439.104 67.6278 439.152 67.9574 439.152 68.2178C439.152 68.4701 439.047 68.7345 438.835 69.0112C438.623 69.2879 438.343 69.4263 437.993 69.4263C437.301 69.4263 436.89 69.1455 436.76 68.584C436.662 68.1771 436.548 66.9889 436.418 65.0195C436.296 63.0501 436.162 61.8945 436.015 61.5527C435.722 60.8366 435.1 60.4785 434.147 60.4785C433.537 60.4785 433.061 60.861 432.719 61.626C432.223 62.7246 431.975 64.2871 431.975 66.3135L432.097 68.0713C432.097 68.6898 431.869 69.1577 431.413 69.4751C431.12 69.6785 430.729 69.7803 430.241 69.7803C429.761 69.7803 429.444 69.7314 429.289 69.6338C429.021 69.471 428.886 69.1252 428.886 68.5962C428.886 68.4985 428.964 68.0998 429.118 67.3999C429.281 66.6919 429.362 65.5444 429.362 63.9575C429.362 62.3625 429.244 61.3493 429.008 60.918C428.772 60.4785 428.361 60.2588 427.775 60.2588C427.189 60.2588 426.669 60.4582 426.213 60.8569C425.765 61.2557 425.436 61.6911 425.224 62.1631C425.021 62.6351 424.838 63.7581 424.675 65.5322C424.52 67.3063 424.41 68.3236 424.345 68.584C424.231 69.0316 423.902 69.2554 423.356 69.2554C422.819 69.2554 422.449 69.0967 422.246 68.7793C422.05 68.4538 421.953 68.0591 421.953 67.5952L422.014 67.168L422.246 66.3257C422.343 65.9351 422.4 65.4793 422.417 64.9585C422.539 61.7277 422.632 59.8844 422.697 59.4287C422.762 58.973 423.055 58.7451 423.576 58.7451L425.395 59.0503C425.786 59.0503 426.294 58.9364 426.921 58.7085ZM443.938 70.1953H443.559C443.152 70.1953 442.835 70.1017 442.607 69.9146C442.387 69.7274 442.277 69.4792 442.277 69.1699C442.261 69.1048 442.253 69.0519 442.253 69.0112L442.229 68.8037V68.584L442.241 68.5352V68.4253C442.257 68.3602 442.265 68.3073 442.265 68.2666C442.265 67.9004 442.387 67.6156 442.631 67.4121C442.884 67.2005 443.16 67.0947 443.461 67.0947L443.718 67.0581H444.047C444.934 67.0581 445.378 67.522 445.378 68.4497V68.6206L445.329 69.0356C445.329 69.41 445.187 69.6989 444.902 69.9023C444.625 70.0977 444.304 70.1953 443.938 70.1953Z" fill="black"/>
</svg>
