<svg width="758" height="87" viewBox="0 0 758 87" fill="none" xmlns="http://www.w3.org/2000/svg">
<rect width="758" height="87" rx="18" fill="#D9D9D9"/>
<path d="M29.452 53.1172C29.102 53.1172 28.927 52.9422 28.927 52.5922V30.6052L26.113 30.7102C25.763 30.7102 25.588 30.5352 25.588 30.1852V25.6492C25.588 25.2992 25.763 25.1242 26.113 25.1242H35.395C35.745 25.1242 35.92 25.2992 35.92 25.6492V52.5922C35.92 52.9422 35.745 53.1172 35.395 53.1172H29.452Z" fill="#2ECC71"/>
<path d="M88.6562 32.6221V32.2681C88.6562 31.381 88.3633 30.6893 87.7773 30.1929C87.1914 29.6965 86.3817 29.4482 85.3481 29.4482H84.9087C84.1274 29.4482 83.6188 29.554 83.3828 29.7656C83.1468 29.9772 83.0288 30.4696 83.0288 31.2427L83.0044 31.4624L82.8457 34.9536V35.3809C82.8457 35.682 82.9271 35.8854 83.0898 35.9912C83.2607 36.097 83.5822 36.1499 84.0542 36.1499L84.1641 36.1377L84.5913 36.1255L85.0186 36.1011C86.0439 36.1011 86.9066 35.7796 87.6064 35.1367C88.3063 34.4857 88.6562 33.6475 88.6562 32.6221ZM82.7725 41.2036L83.0288 43.2422C83.0288 43.6979 82.8376 44.0601 82.4551 44.3286C82.0807 44.5972 81.5802 44.7314 80.9536 44.7314C79.8306 44.7314 79.269 44.2839 79.269 43.3887C79.269 43.2015 79.383 42.8719 79.6108 42.3999C79.8387 41.9198 79.9771 41.4396 80.0259 40.9595C80.2375 38.8761 80.3433 36.3818 80.3433 33.4766L80.3555 33.1104C80.3636 32.8662 80.3677 32.6261 80.3677 32.3901L80.3921 31.3037C80.3921 30.3841 80.3677 29.7412 80.3188 29.375L80.27 29.1187C80.2293 28.8826 80.209 28.7321 80.209 28.667C80.209 28.3008 80.4775 28.0607 81.0146 27.9468C81.5518 27.8328 82.6545 27.7759 84.3228 27.7759H85.4702C88.2209 27.7759 90.0072 28.5815 90.8291 30.1929C91.1139 30.7707 91.2563 31.4502 91.2563 32.2314C91.2563 33.6637 90.6541 34.9699 89.4497 36.1499C88.7824 36.8009 88.4487 37.3258 88.4487 37.7246C88.4487 38.1234 88.9451 39.2261 89.938 41.0327C90.2635 41.6187 90.6704 42.1842 91.1587 42.7295C91.647 43.2747 91.8911 43.6613 91.8911 43.8892V44.1333C91.8911 44.5728 91.533 44.7925 90.8169 44.7925C90.1007 44.7925 89.5677 44.6053 89.2178 44.231C88.876 43.8485 88.2982 42.9045 87.4844 41.3989C86.6787 39.8934 86.2352 39.0918 86.1538 38.9941C85.6493 38.3919 85.0999 38.0908 84.5059 38.0908C83.9118 38.0908 83.4357 38.4001 83.0776 39.0186C82.8742 39.3685 82.7725 40.0968 82.7725 41.2036ZM96.8105 37.5781V37.7734C96.8105 38.0176 97.0343 38.1396 97.4819 38.1396H97.7749L97.8481 38.1274L98.4463 38.0786C99.0729 37.9891 99.4798 37.9443 99.667 37.9443C100.554 37.9443 101.221 37.7775 101.669 37.4438C101.881 37.2811 101.986 36.9922 101.986 36.5771V36.4429C101.986 35.8325 101.783 35.3483 101.376 34.9902C100.977 34.6322 100.497 34.4531 99.9355 34.4531H99.8501L99.7769 34.4653C98.9875 34.4653 98.2957 34.799 97.7017 35.4663C97.1076 36.1336 96.8105 36.8376 96.8105 37.5781ZM99.4717 45.1587H99.2031C97.6488 45.1587 96.4118 44.6663 95.4922 43.6816C94.5726 42.6888 94.1128 41.3664 94.1128 39.7144V39.1772C94.1128 38.3879 94.2674 37.5863 94.5767 36.7725C95.2033 35.1449 96.2246 34.0218 97.6406 33.4033C98.3893 33.0697 99.1502 32.9028 99.9233 32.9028H100.448C101.514 32.9028 102.414 33.2609 103.146 33.9771C103.887 34.6851 104.257 35.6006 104.257 36.7236V36.9678C104.257 37.7653 103.939 38.3309 103.305 38.6646C102.865 38.9006 101.84 39.1366 100.229 39.3726C98.6172 39.6086 97.7383 39.751 97.5918 39.7998C97.1035 39.9707 96.8594 40.2962 96.8594 40.7764C96.8594 41.4437 97.1442 42.0133 97.7139 42.4854C98.2835 42.9574 99.0485 43.1934 100.009 43.1934C100.456 43.1934 101.067 43.0713 101.84 42.8271C102.613 42.583 103.061 42.4609 103.183 42.4609C103.598 42.4609 103.805 42.64 103.805 42.998C103.805 43.4782 103.337 43.9583 102.401 44.4385C101.465 44.9186 100.489 45.1587 99.4717 45.1587ZM115.487 37.9565C115.487 36.8742 115.259 36.0278 114.804 35.4175C114.356 34.799 113.819 34.4897 113.192 34.4897H112.838C111.959 34.4897 111.264 34.8397 110.751 35.5396C110.238 36.2313 109.982 37.2526 109.982 38.6035L109.958 38.8477L109.909 40.1172V40.9717C109.909 41.8587 110.088 42.4854 110.446 42.8516C110.812 43.2096 111.329 43.3887 111.996 43.3887H112.228C113.148 43.3887 113.917 42.9655 114.535 42.1191C115.154 41.2728 115.463 40.2433 115.463 39.0308L115.487 38.7622V37.9565ZM108.847 33.3667L110.556 33.6597C110.735 33.6597 111.154 33.5417 111.813 33.3057C112.472 33.0697 113.119 32.9517 113.754 32.9517C115.04 32.9517 116.081 33.4033 116.879 34.3066C117.676 35.2018 118.075 36.4103 118.075 37.9321V38.2373C118.075 39.2627 117.904 40.2067 117.562 41.0693C116.863 42.8516 115.695 44.0031 114.059 44.5239C113.595 44.6704 112.973 44.7721 112.191 44.8291C111.418 44.8861 110.869 44.9878 110.543 45.1343C110.047 45.3621 109.799 45.7731 109.799 46.3672C109.799 46.6195 109.844 46.9613 109.933 47.3926C110.031 47.8239 110.08 48.2227 110.08 48.5889C110.08 48.9551 109.872 49.3132 109.457 49.6631C109.042 50.0212 108.525 50.2002 107.907 50.2002H107.65C106.918 50.2002 106.552 49.9316 106.552 49.3945V49.1626C106.552 49.0487 106.629 48.7272 106.784 48.1982C106.946 47.6774 107.06 47.1159 107.125 46.5137C107.191 45.9196 107.296 44.4344 107.443 42.0581C107.589 39.6818 107.663 38.0583 107.663 37.1875C107.663 36.3086 107.606 35.5721 107.492 34.978C107.386 34.384 107.333 34.0625 107.333 34.0137C107.333 33.5824 107.838 33.3667 108.847 33.3667ZM122.836 37.5781V37.7734C122.836 38.0176 123.06 38.1396 123.507 38.1396H123.8L123.874 38.1274L124.472 38.0786C125.098 37.9891 125.505 37.9443 125.692 37.9443C126.579 37.9443 127.247 37.7775 127.694 37.4438C127.906 37.2811 128.012 36.9922 128.012 36.5771V36.4429C128.012 35.8325 127.808 35.3483 127.401 34.9902C127.003 34.6322 126.522 34.4531 125.961 34.4531H125.875L125.802 34.4653C125.013 34.4653 124.321 34.799 123.727 35.4663C123.133 36.1336 122.836 36.8376 122.836 37.5781ZM125.497 45.1587H125.229C123.674 45.1587 122.437 44.6663 121.518 43.6816C120.598 42.6888 120.138 41.3664 120.138 39.7144V39.1772C120.138 38.3879 120.293 37.5863 120.602 36.7725C121.229 35.1449 122.25 34.0218 123.666 33.4033C124.415 33.0697 125.176 32.9028 125.949 32.9028H126.474C127.54 32.9028 128.439 33.2609 129.171 33.9771C129.912 34.6851 130.282 35.6006 130.282 36.7236V36.9678C130.282 37.7653 129.965 38.3309 129.33 38.6646C128.891 38.9006 127.865 39.1366 126.254 39.3726C124.643 39.6086 123.764 39.751 123.617 39.7998C123.129 39.9707 122.885 40.2962 122.885 40.7764C122.885 41.4437 123.17 42.0133 123.739 42.4854C124.309 42.9574 125.074 43.1934 126.034 43.1934C126.482 43.1934 127.092 43.0713 127.865 42.8271C128.638 42.583 129.086 42.4609 129.208 42.4609C129.623 42.4609 129.831 42.64 129.831 42.998C129.831 43.4782 129.363 43.9583 128.427 44.4385C127.491 44.9186 126.514 45.1587 125.497 45.1587ZM136.837 43.4619H137.155C137.822 43.4619 138.408 43.2381 138.913 42.7905C139.425 42.3348 139.682 41.8099 139.682 41.2158L139.706 41.0571V40.8984L139.73 40.52V39.8242C139.73 39.3522 139.49 39.1162 139.01 39.1162H138.461L138.375 39.1284L137.899 39.165C137.672 39.1976 137.509 39.2139 137.411 39.2139C136.752 39.2139 136.142 39.4621 135.58 39.9585C135.189 40.3084 134.994 40.8049 134.994 41.4478V41.6919C134.994 42.2371 135.169 42.6685 135.519 42.9858C135.877 43.3032 136.317 43.4619 136.837 43.4619ZM134.115 35.6616C133.57 35.6616 133.297 35.3117 133.297 34.6118C133.297 34.091 133.737 33.6393 134.616 33.2568C135.503 32.8662 136.422 32.6709 137.375 32.6709H137.985C138.807 32.6709 139.531 32.8255 140.158 33.1348C140.784 33.4359 141.26 33.8468 141.586 34.3677C141.92 34.8885 142.123 35.568 142.196 36.4062C142.213 36.6016 142.221 37.5496 142.221 39.2505C142.221 40.9513 142.241 41.932 142.282 42.1924C142.331 42.4447 142.461 42.7539 142.672 43.1201C142.892 43.4863 143.002 43.7874 143.002 44.0234C143.002 44.2594 142.888 44.4629 142.66 44.6338C142.44 44.7965 142.119 44.8779 141.696 44.8779C141.273 44.8779 140.813 44.7762 140.316 44.5728C139.82 44.3612 139.458 44.2554 139.23 44.2554C139.206 44.2554 138.799 44.4019 138.009 44.6948C137.22 44.9797 136.553 45.1221 136.007 45.1221H135.739C134.827 45.1221 134.05 44.8332 133.407 44.2554C132.772 43.6776 132.455 42.8556 132.455 41.7896C132.455 40.7235 132.805 39.8934 133.505 39.2993C134.205 38.6971 135.055 38.2861 136.056 38.0664C136.357 38.0013 136.858 37.9159 137.558 37.8101C138.257 37.7043 138.734 37.5944 138.986 37.4805C139.425 37.277 139.645 36.8945 139.645 36.333C139.645 35.7633 139.458 35.3198 139.083 35.0024C138.709 34.6769 138.262 34.5142 137.741 34.5142C137.228 34.5142 136.553 34.7054 135.714 35.0879C134.876 35.4704 134.343 35.6616 134.115 35.6616ZM152.182 43.6938C152.182 44.0194 151.982 44.3123 151.583 44.5728C151.193 44.825 150.66 44.9512 149.984 44.9512C148.723 44.9512 147.836 44.4832 147.323 43.5474C147.006 42.9614 146.847 41.5902 146.847 39.4336C146.847 37.277 146.811 36.0238 146.737 35.6738C146.664 35.3239 146.461 34.9821 146.127 34.6484C145.793 34.3148 145.626 34.0584 145.626 33.8794C145.626 33.8143 146.021 33.387 146.811 32.5977C146.981 32.4268 147.152 32.0483 147.323 31.4624C147.502 30.8765 147.628 30.4899 147.702 30.3027C147.946 29.7168 148.267 29.4238 148.666 29.4238H148.861C149.211 29.4238 149.459 29.5581 149.606 29.8267C149.663 29.9325 149.748 30.3149 149.862 30.9741C149.984 31.6252 150.123 32.0443 150.277 32.2314C150.432 32.4186 150.819 32.6261 151.437 32.854C152.064 33.0737 152.377 33.3097 152.377 33.562V33.6963C152.377 34.0218 152.019 34.2985 151.303 34.5264C150.595 34.7461 150.139 35.1001 149.936 35.5884C149.537 36.5731 149.337 38.1763 149.337 40.3979C149.337 41.4396 149.516 42.1476 149.875 42.522C150.094 42.7498 150.534 42.9085 151.193 42.998C151.852 43.0876 152.182 43.3195 152.182 43.6938ZM157.162 37.5781V37.7734C157.162 38.0176 157.386 38.1396 157.833 38.1396H158.126L158.2 38.1274L158.798 38.0786C159.424 37.9891 159.831 37.9443 160.019 37.9443C160.906 37.9443 161.573 37.7775 162.021 37.4438C162.232 37.2811 162.338 36.9922 162.338 36.5771V36.4429C162.338 35.8325 162.134 35.3483 161.728 34.9902C161.329 34.6322 160.849 34.4531 160.287 34.4531H160.202L160.128 34.4653C159.339 34.4653 158.647 34.799 158.053 35.4663C157.459 36.1336 157.162 36.8376 157.162 37.5781ZM159.823 45.1587H159.555C158 45.1587 156.763 44.6663 155.844 43.6816C154.924 42.6888 154.464 41.3664 154.464 39.7144V39.1772C154.464 38.3879 154.619 37.5863 154.928 36.7725C155.555 35.1449 156.576 34.0218 157.992 33.4033C158.741 33.0697 159.502 32.9028 160.275 32.9028H160.8C161.866 32.9028 162.765 33.2609 163.498 33.9771C164.238 34.6851 164.608 35.6006 164.608 36.7236V36.9678C164.608 37.7653 164.291 38.3309 163.656 38.6646C163.217 38.9006 162.191 39.1366 160.58 39.3726C158.969 39.6086 158.09 39.751 157.943 39.7998C157.455 39.9707 157.211 40.2962 157.211 40.7764C157.211 41.4437 157.496 42.0133 158.065 42.4854C158.635 42.9574 159.4 43.1934 160.36 43.1934C160.808 43.1934 161.418 43.0713 162.191 42.8271C162.965 42.583 163.412 42.4609 163.534 42.4609C163.949 42.4609 164.157 42.64 164.157 42.998C164.157 43.4782 163.689 43.9583 162.753 44.4385C161.817 44.9186 160.84 45.1587 159.823 45.1587ZM169.369 39.0796V40.0073C169.369 40.9757 169.589 41.7855 170.028 42.4365C170.476 43.0794 171.001 43.4009 171.603 43.4009H171.945C172.873 43.4009 173.589 43.0306 174.093 42.29C174.606 41.5495 174.862 40.4468 174.862 38.9819C174.879 38.8029 174.887 38.6727 174.887 38.5913L174.911 38.3472L174.923 37.8345V36.9678C174.923 35.3076 174.26 34.4775 172.934 34.4775H172.458C171.595 34.4775 170.862 34.9129 170.26 35.7837C169.666 36.6545 169.369 37.7531 169.369 39.0796ZM167.025 39.6411C167.025 38.7948 167.176 37.9321 167.477 37.0532C167.778 36.1743 168.201 35.4256 168.747 34.8071C169.292 34.1805 169.906 33.7288 170.59 33.4521C171.273 33.1673 172.083 33.0249 173.019 33.0249C173.963 33.0249 174.549 32.854 174.777 32.5122C175.005 32.1623 175.119 31.3932 175.119 30.2051C175.119 29.9854 175.082 29.6924 175.009 29.3262C174.936 28.96 174.899 28.7484 174.899 28.6914C174.899 28.3415 175.049 28.0241 175.351 27.7393C175.652 27.4463 176.046 27.2998 176.535 27.2998H176.779C177.161 27.2998 177.446 27.3893 177.633 27.5684C177.82 27.7474 177.914 28.1217 177.914 28.6914V29.8267L177.89 30.4004C177.882 30.5957 177.877 30.8805 177.877 31.2549C177.877 31.6211 177.816 32.8011 177.694 34.7949C177.572 36.7887 177.511 38.16 177.511 38.9087L177.499 39.2017C177.491 39.397 177.487 39.5841 177.487 39.7632L177.475 40.0439C177.475 40.0439 177.475 40.3613 177.475 40.9961C177.475 41.818 177.54 42.4365 177.67 42.8516C177.8 43.2666 177.865 43.5636 177.865 43.7427C177.865 43.9217 177.764 44.1089 177.56 44.3042C177.357 44.4995 177.039 44.5972 176.608 44.5972C176.185 44.5972 175.774 44.528 175.375 44.3896C174.976 44.2432 174.683 44.1699 174.496 44.1699C174.309 44.1699 174.065 44.2269 173.764 44.3408C172.852 44.6745 172.018 44.8413 171.261 44.8413C171.245 44.8413 171.229 44.8413 171.212 44.8413H170.932C169.703 44.8413 168.743 44.3937 168.051 43.4985C167.367 42.5952 167.025 41.4111 167.025 39.9463V39.6411ZM192.428 44.9878C191.834 44.9878 191.358 44.6094 191 43.8525C190.731 43.2829 190.251 41.9198 189.56 39.7632C188.876 37.5985 188.424 36.3086 188.205 35.8936C187.659 34.86 187.387 34.2008 187.387 33.916C187.387 33.623 187.476 33.4115 187.655 33.2812C187.834 33.1429 188.213 33.0737 188.791 33.0737C189.718 33.0737 190.333 33.4155 190.634 34.0991C190.691 34.2212 190.78 34.5996 190.902 35.2344C191.024 35.861 191.146 36.4144 191.269 36.8945L191.513 37.9688C192.123 40.6543 192.591 41.9971 192.917 41.9971C193.136 41.9971 193.755 40.6258 194.772 37.8833C195.236 36.63 195.533 35.6453 195.663 34.9292C195.801 34.2049 195.891 33.8021 195.932 33.7207C196.168 33.2731 196.664 33.0493 197.421 33.0493H197.665C198.218 33.0493 198.495 33.3301 198.495 33.8916C198.495 34.2904 198.373 34.6973 198.129 35.1123C197.885 35.5273 197.315 36.805 196.42 38.9453C195.533 41.0775 194.878 42.526 194.455 43.291C194.031 44.0479 193.681 44.5199 193.405 44.707C193.136 44.8942 192.811 44.9878 192.428 44.9878ZM204.513 29.1309V29.2773C204.513 29.6924 204.391 30.0464 204.147 30.3394C203.911 30.6242 203.545 30.7666 203.048 30.7666H202.853L202.475 30.7178C202.255 30.7178 202.043 30.616 201.84 30.4126C201.636 30.2091 201.535 29.904 201.535 29.4971V29.3506L201.596 28.9111C201.596 28.7402 201.697 28.5286 201.901 28.2764C202.112 28.0241 202.381 27.8979 202.707 27.8979L202.987 27.8613H203.231L203.573 27.9102C203.785 27.9102 203.992 28.016 204.196 28.2275C204.407 28.431 204.513 28.7321 204.513 29.1309ZM203.939 34.2822L203.805 37.5659L203.781 37.8955L203.744 38.8965V39.3726C203.744 40.5444 203.777 41.3135 203.842 41.6797C203.915 42.0459 204.049 42.404 204.245 42.7539C204.44 43.0957 204.538 43.3439 204.538 43.4985V43.6084C204.538 44.0072 204.334 44.3245 203.927 44.5605C203.52 44.7965 202.967 44.9146 202.267 44.9146H201.962C201.555 44.9146 201.246 44.825 201.034 44.646C200.823 44.4588 200.717 44.2594 200.717 44.0479V43.7793C200.717 43.6735 200.81 43.2992 200.998 42.6562C201.185 42.0052 201.278 41.1222 201.278 40.0073C201.303 39.6899 201.315 39.4702 201.315 39.3481L201.352 38.6768L201.376 38.3472C201.417 37.7775 201.437 37.334 201.437 37.0166L201.449 36.5283C201.449 35.918 201.347 35.3768 201.144 34.9048C200.949 34.4328 200.851 34.1398 200.851 34.0259C200.851 33.4399 201.404 33.147 202.511 33.147H202.951C203.366 33.147 203.634 33.2568 203.756 33.4766C203.878 33.6882 203.939 33.9567 203.939 34.2822ZM209.677 39.8486C209.677 40.9147 209.921 41.8018 210.409 42.5098C210.897 43.2178 211.496 43.5718 212.204 43.5718H212.57C213.408 43.5718 214.116 43.1486 214.694 42.3022C215.28 41.4559 215.573 40.3288 215.573 38.9209V38.1152C215.573 37.0247 215.333 36.1336 214.853 35.4419C214.381 34.742 213.77 34.3921 213.021 34.3921H212.777C211.907 34.3921 211.174 34.8234 210.58 35.686C209.994 36.5487 209.701 37.5781 209.701 38.7744L209.677 39.0552V39.8486ZM212.436 45.2319H212.045C210.621 45.2319 209.461 44.7355 208.566 43.7427C207.671 42.7498 207.223 41.342 207.223 39.519L207.235 39.3115C207.235 37.3096 207.764 35.7308 208.822 34.5752C209.376 33.9648 210.006 33.5173 210.714 33.2324C211.431 32.9395 212.11 32.793 212.753 32.793H213.351C214.067 32.793 214.755 32.9517 215.414 33.269C217.302 34.1805 218.246 35.8976 218.246 38.4204V38.6157C218.238 39.4377 218.104 40.2718 217.843 41.1182C217.322 42.7865 216.321 43.9665 214.84 44.6582C214.018 45.0407 213.217 45.2319 212.436 45.2319ZM221.457 28.0322C221.457 27.4382 222.014 27.1411 223.129 27.1411H223.349C223.812 27.1411 224.13 27.255 224.301 27.4829C224.472 27.7026 224.557 28.134 224.557 28.7769L224.459 30.5957C224.435 30.8805 224.423 31.0352 224.423 31.0596L224.398 31.5234C224.382 31.8245 224.366 32.1297 224.35 32.439L224.313 32.9028L224.276 33.5986C224.146 36.0726 224.081 37.8996 224.081 39.0796C224.081 40.2515 224.134 41.0938 224.24 41.6064C224.346 42.1191 224.512 42.5545 224.74 42.9126C224.968 43.2707 225.082 43.5067 225.082 43.6206V43.7671C225.082 44.1252 224.903 44.41 224.545 44.6216C224.195 44.8332 223.719 44.939 223.117 44.939H222.482C222.108 44.939 221.778 44.8332 221.493 44.6216C221.216 44.4019 221.078 44.1536 221.078 43.877V43.5474L221.151 43.0347C221.249 42.3267 221.306 41.7977 221.322 41.4478C221.347 41.0897 221.383 40.5973 221.432 39.9707C221.481 39.3359 221.558 37.9891 221.664 35.9302C221.778 33.8631 221.835 32.7523 221.835 32.5977L221.884 31.6821L221.908 30.7788C221.908 29.9162 221.831 29.3018 221.676 28.9355C221.53 28.5612 221.457 28.2601 221.457 28.0322ZM231.857 43.4619H232.174C232.842 43.4619 233.428 43.2381 233.932 42.7905C234.445 42.3348 234.701 41.8099 234.701 41.2158L234.726 41.0571V40.8984L234.75 40.52V39.8242C234.75 39.3522 234.51 39.1162 234.03 39.1162H233.48L233.395 39.1284L232.919 39.165C232.691 39.1976 232.528 39.2139 232.431 39.2139C231.771 39.2139 231.161 39.4621 230.6 39.9585C230.209 40.3084 230.014 40.8049 230.014 41.4478V41.6919C230.014 42.2371 230.189 42.6685 230.539 42.9858C230.897 43.3032 231.336 43.4619 231.857 43.4619ZM229.135 35.6616C228.59 35.6616 228.317 35.3117 228.317 34.6118C228.317 34.091 228.756 33.6393 229.635 33.2568C230.522 32.8662 231.442 32.6709 232.394 32.6709H233.004C233.826 32.6709 234.551 32.8255 235.177 33.1348C235.804 33.4359 236.28 33.8468 236.605 34.3677C236.939 34.8885 237.143 35.568 237.216 36.4062C237.232 36.6016 237.24 37.5496 237.24 39.2505C237.24 40.9513 237.261 41.932 237.301 42.1924C237.35 42.4447 237.48 42.7539 237.692 43.1201C237.912 43.4863 238.021 43.7874 238.021 44.0234C238.021 44.2594 237.908 44.4629 237.68 44.6338C237.46 44.7965 237.139 44.8779 236.715 44.8779C236.292 44.8779 235.832 44.7762 235.336 44.5728C234.84 44.3612 234.477 44.2554 234.25 44.2554C234.225 44.2554 233.818 44.4019 233.029 44.6948C232.239 44.9797 231.572 45.1221 231.027 45.1221H230.758C229.847 45.1221 229.07 44.8332 228.427 44.2554C227.792 43.6776 227.475 42.8556 227.475 41.7896C227.475 40.7235 227.825 39.8934 228.524 39.2993C229.224 38.6971 230.075 38.2861 231.076 38.0664C231.377 38.0013 231.877 37.9159 232.577 37.8101C233.277 37.7043 233.753 37.5944 234.005 37.4805C234.445 37.277 234.665 36.8945 234.665 36.333C234.665 35.7633 234.477 35.3198 234.103 35.0024C233.729 34.6769 233.281 34.5142 232.76 34.5142C232.248 34.5142 231.572 34.7054 230.734 35.0879C229.896 35.4704 229.363 35.6616 229.135 35.6616ZM247.201 43.6938C247.201 44.0194 247.002 44.3123 246.603 44.5728C246.212 44.825 245.679 44.9512 245.004 44.9512C243.743 44.9512 242.855 44.4832 242.343 43.5474C242.025 42.9614 241.867 41.5902 241.867 39.4336C241.867 37.277 241.83 36.0238 241.757 35.6738C241.684 35.3239 241.48 34.9821 241.146 34.6484C240.813 34.3148 240.646 34.0584 240.646 33.8794C240.646 33.8143 241.041 33.387 241.83 32.5977C242.001 32.4268 242.172 32.0483 242.343 31.4624C242.522 30.8765 242.648 30.4899 242.721 30.3027C242.965 29.7168 243.287 29.4238 243.686 29.4238H243.881C244.231 29.4238 244.479 29.5581 244.625 29.8267C244.682 29.9325 244.768 30.3149 244.882 30.9741C245.004 31.6252 245.142 32.0443 245.297 32.2314C245.451 32.4186 245.838 32.6261 246.457 32.854C247.083 33.0737 247.396 33.3097 247.396 33.562V33.6963C247.396 34.0218 247.038 34.2985 246.322 34.5264C245.614 34.7461 245.159 35.1001 244.955 35.5884C244.556 36.5731 244.357 38.1763 244.357 40.3979C244.357 41.4396 244.536 42.1476 244.894 42.522C245.114 42.7498 245.553 42.9085 246.212 42.998C246.872 43.0876 247.201 43.3195 247.201 43.6938ZM253.976 29.1309V29.2773C253.976 29.6924 253.854 30.0464 253.61 30.3394C253.374 30.6242 253.008 30.7666 252.511 30.7666H252.316L251.938 30.7178C251.718 30.7178 251.506 30.616 251.303 30.4126C251.099 30.2091 250.998 29.904 250.998 29.4971V29.3506L251.059 28.9111C251.059 28.7402 251.16 28.5286 251.364 28.2764C251.575 28.0241 251.844 27.8979 252.169 27.8979L252.45 27.8613H252.694L253.036 27.9102C253.248 27.9102 253.455 28.016 253.659 28.2275C253.87 28.431 253.976 28.7321 253.976 29.1309ZM253.402 34.2822L253.268 37.5659L253.244 37.8955L253.207 38.8965V39.3726C253.207 40.5444 253.24 41.3135 253.305 41.6797C253.378 42.0459 253.512 42.404 253.708 42.7539C253.903 43.0957 254 43.3439 254 43.4985V43.6084C254 44.0072 253.797 44.3245 253.39 44.5605C252.983 44.7965 252.43 44.9146 251.73 44.9146H251.425C251.018 44.9146 250.709 44.825 250.497 44.646C250.285 44.4588 250.18 44.2594 250.18 44.0479V43.7793C250.18 43.6735 250.273 43.2992 250.46 42.6562C250.648 42.0052 250.741 41.1222 250.741 40.0073C250.766 39.6899 250.778 39.4702 250.778 39.3481L250.814 38.6768L250.839 38.3472C250.88 37.7775 250.9 37.334 250.9 37.0166L250.912 36.5283C250.912 35.918 250.81 35.3768 250.607 34.9048C250.412 34.4328 250.314 34.1398 250.314 34.0259C250.314 33.4399 250.867 33.147 251.974 33.147H252.414C252.829 33.147 253.097 33.2568 253.219 33.4766C253.341 33.6882 253.402 33.9567 253.402 34.2822ZM259.14 39.8486C259.14 40.9147 259.384 41.8018 259.872 42.5098C260.36 43.2178 260.958 43.5718 261.667 43.5718H262.033C262.871 43.5718 263.579 43.1486 264.157 42.3022C264.743 41.4559 265.036 40.3288 265.036 38.9209V38.1152C265.036 37.0247 264.796 36.1336 264.315 35.4419C263.843 34.742 263.233 34.3921 262.484 34.3921H262.24C261.369 34.3921 260.637 34.8234 260.043 35.686C259.457 36.5487 259.164 37.5781 259.164 38.7744L259.14 39.0552V39.8486ZM261.898 45.2319H261.508C260.084 45.2319 258.924 44.7355 258.029 43.7427C257.134 42.7498 256.686 41.342 256.686 39.519L256.698 39.3115C256.698 37.3096 257.227 35.7308 258.285 34.5752C258.839 33.9648 259.469 33.5173 260.177 33.2324C260.893 32.9395 261.573 32.793 262.216 32.793H262.814C263.53 32.793 264.218 32.9517 264.877 33.269C266.765 34.1805 267.709 35.8976 267.709 38.4204V38.6157C267.701 39.4377 267.567 40.2718 267.306 41.1182C266.785 42.7865 265.784 43.9665 264.303 44.6582C263.481 45.0407 262.68 45.2319 261.898 45.2319ZM281.442 43.5352C281.442 44.1374 280.917 44.4385 279.867 44.4385C279.273 44.4385 278.874 44.2961 278.671 44.0112C278.573 43.8729 278.524 43.5474 278.524 43.0347L278.488 42.2534C278.431 41.3989 278.402 40.5404 278.402 39.6777C278.402 37.8141 278.24 36.5649 277.914 35.9302C277.597 35.2873 277.06 34.9658 276.303 34.9658C275.798 34.9658 275.33 35.1164 274.899 35.4175C274.476 35.7186 274.15 36.1377 273.922 36.6748C273.45 37.7734 273.214 39.8039 273.214 42.7661C273.214 43.4416 273.084 43.9176 272.824 44.1943C272.571 44.471 272.246 44.6094 271.847 44.6094H271.603C270.692 44.6094 270.236 44.2472 270.236 43.5229V43.23C270.236 43.1405 270.285 42.9451 270.382 42.644L270.578 42.0825C270.773 41.4233 270.871 40.0114 270.871 37.8467L270.932 34.2212C270.932 33.7573 271.184 33.5254 271.688 33.5254C272.193 33.5254 272.689 33.6922 273.178 34.0259C273.674 34.3595 273.987 34.5264 274.118 34.5264C274.256 34.5264 274.496 34.4328 274.838 34.2456C275.985 33.619 276.905 33.3057 277.597 33.3057H277.914C279.159 33.3057 280.034 33.8672 280.539 34.9902C280.783 35.5192 280.905 36.6585 280.905 38.4082V38.4937C280.905 38.6401 280.901 38.7866 280.893 38.9331C280.893 39.3319 280.893 39.5394 280.893 39.5557C280.893 39.7103 280.893 39.8608 280.893 40.0073C280.893 40.1213 280.893 40.2311 280.893 40.3369C280.893 40.9635 280.913 41.3908 280.954 41.6187C281.011 41.9279 281.104 42.2493 281.234 42.583C281.373 42.9492 281.442 43.2666 281.442 43.5352ZM285.189 38.1885C284.693 37.6839 284.445 36.9759 284.445 36.0645C284.445 35.153 284.852 34.3717 285.666 33.7207C286.479 33.0615 287.488 32.7319 288.693 32.7319H289.01C290.076 32.7319 290.923 32.8825 291.549 33.1836C292.184 33.4847 292.501 33.9364 292.501 34.5386C292.501 35.1326 292.237 35.4297 291.708 35.4297C291.57 35.4297 291.179 35.2669 290.536 34.9414C289.893 34.6077 289.287 34.4409 288.717 34.4409C288.148 34.4409 287.688 34.5711 287.338 34.8315C286.996 35.0838 286.825 35.4338 286.825 35.8813C286.825 36.3289 287.065 36.7196 287.545 37.0532C287.822 37.2485 288.473 37.5578 289.499 37.981C290.532 38.4041 291.269 38.811 291.708 39.2017C292.416 39.8283 292.77 40.6299 292.77 41.6064C292.77 42.583 292.355 43.4212 291.525 44.1211C290.695 44.8128 289.617 45.1587 288.29 45.1587H287.973C286.638 45.1587 285.637 44.9674 284.97 44.585C284.302 44.1943 283.969 43.6898 283.969 43.0713C283.969 42.4447 284.229 42.1313 284.75 42.1313C284.921 42.1313 285.364 42.3511 286.081 42.7905C286.805 43.23 287.513 43.4497 288.205 43.4497C288.904 43.4497 289.429 43.3032 289.779 43.0103C290.129 42.7091 290.304 42.3348 290.304 41.8872C290.304 41.4315 290.084 41.0327 289.645 40.6909C289.409 40.5037 288.734 40.166 287.619 39.6777C286.504 39.1813 285.694 38.6849 285.189 38.1885ZM297.104 45.1953H296.725C296.318 45.1953 296.001 45.1017 295.773 44.9146C295.553 44.7274 295.443 44.4792 295.443 44.1699C295.427 44.1048 295.419 44.0519 295.419 44.0112L295.395 43.8037V43.584L295.407 43.5352V43.4253C295.423 43.3602 295.431 43.3073 295.431 43.2666C295.431 42.9004 295.553 42.6156 295.797 42.4121C296.05 42.2005 296.326 42.0947 296.627 42.0947L296.884 42.0581H297.213C298.1 42.0581 298.544 42.522 298.544 43.4497V43.6206L298.495 44.0356C298.495 44.41 298.353 44.6989 298.068 44.9023C297.791 45.0977 297.47 45.1953 297.104 45.1953ZM312.423 32.2559C312.366 33.1104 312.338 33.7451 312.338 34.1602L312.313 34.5508L312.277 35.7104L312.252 36.1011L312.204 37.4561C312.187 37.7165 312.179 37.9118 312.179 38.042L312.155 38.4326C312.139 38.693 312.13 38.8843 312.13 39.0063L312.106 39.3848C312.098 39.515 312.094 39.6452 312.094 39.7754L312.069 40.1538L312.033 41.4844V42.2168C312.033 42.6074 312.179 42.8719 312.472 43.0103C312.765 43.1405 313.192 43.2056 313.754 43.2056H314.303C316.045 43.2056 317.42 42.5586 318.429 41.2646C318.869 40.7031 319.227 39.9626 319.503 39.043C319.78 38.1234 319.918 37.0898 319.918 35.9424V35.7349C319.918 32.7319 318.934 30.7869 316.964 29.8999C316.378 29.6395 315.719 29.5093 314.987 29.5093H314.425C313.514 29.5093 312.952 29.6558 312.741 29.9487C312.529 30.2336 312.423 31.0026 312.423 32.2559ZM309.396 28.8257C309.396 28.4351 309.656 28.1909 310.177 28.0933C311.105 27.9224 312.456 27.8369 314.23 27.8369H314.816C318.608 27.8369 321.074 29.2855 322.213 32.1826C322.612 33.1917 322.812 34.327 322.812 35.5884V35.6616V35.9668C322.812 37.277 322.58 38.571 322.116 39.8486C321.652 41.1182 320.972 42.1354 320.077 42.9004C319.19 43.6654 318.23 44.2065 317.196 44.5239C316.163 44.8332 314.816 44.9878 313.156 44.9878H312.875L312.582 44.9756C310.808 44.9756 309.669 44.8942 309.164 44.7314C308.896 44.6419 308.761 44.4466 308.761 44.1455C308.761 44.056 308.867 43.7793 309.079 43.3154C309.461 42.4772 309.652 40.9676 309.652 38.7866L309.799 35.0879L309.823 34.5264L309.86 32.5854C309.86 31.4299 309.844 30.7218 309.811 30.4614C309.778 30.201 309.701 29.8918 309.579 29.5337C309.457 29.1756 309.396 28.9396 309.396 28.8257ZM329.464 29.1309V29.2773C329.464 29.6924 329.342 30.0464 329.098 30.3394C328.862 30.6242 328.496 30.7666 328 30.7666H327.804L327.426 30.7178C327.206 30.7178 326.994 30.616 326.791 30.4126C326.588 30.2091 326.486 29.904 326.486 29.4971V29.3506L326.547 28.9111C326.547 28.7402 326.649 28.5286 326.852 28.2764C327.064 28.0241 327.332 27.8979 327.658 27.8979L327.938 27.8613H328.183L328.524 27.9102C328.736 27.9102 328.944 28.016 329.147 28.2275C329.359 28.431 329.464 28.7321 329.464 29.1309ZM328.891 34.2822L328.756 37.5659L328.732 37.8955L328.695 38.8965V39.3726C328.695 40.5444 328.728 41.3135 328.793 41.6797C328.866 42.0459 329 42.404 329.196 42.7539C329.391 43.0957 329.489 43.3439 329.489 43.4985V43.6084C329.489 44.0072 329.285 44.3245 328.878 44.5605C328.472 44.7965 327.918 44.9146 327.218 44.9146H326.913C326.506 44.9146 326.197 44.825 325.985 44.646C325.774 44.4588 325.668 44.2594 325.668 44.0479V43.7793C325.668 43.6735 325.762 43.2992 325.949 42.6562C326.136 42.0052 326.229 41.1222 326.229 40.0073C326.254 39.6899 326.266 39.4702 326.266 39.3481L326.303 38.6768L326.327 38.3472C326.368 37.7775 326.388 37.334 326.388 37.0166L326.4 36.5283C326.4 35.918 326.299 35.3768 326.095 34.9048C325.9 34.4328 325.802 34.1398 325.802 34.0259C325.802 33.4399 326.356 33.147 327.462 33.147H327.902C328.317 33.147 328.585 33.2568 328.708 33.4766C328.83 33.6882 328.891 33.9567 328.891 34.2822ZM333.407 38.1885C332.911 37.6839 332.663 36.9759 332.663 36.0645C332.663 35.153 333.069 34.3717 333.883 33.7207C334.697 33.0615 335.706 32.7319 336.911 32.7319H337.228C338.294 32.7319 339.14 32.8825 339.767 33.1836C340.402 33.4847 340.719 33.9364 340.719 34.5386C340.719 35.1326 340.455 35.4297 339.926 35.4297C339.787 35.4297 339.397 35.2669 338.754 34.9414C338.111 34.6077 337.505 34.4409 336.935 34.4409C336.365 34.4409 335.906 34.5711 335.556 34.8315C335.214 35.0838 335.043 35.4338 335.043 35.8813C335.043 36.3289 335.283 36.7196 335.763 37.0532C336.04 37.2485 336.691 37.5578 337.716 37.981C338.75 38.4041 339.486 38.811 339.926 39.2017C340.634 39.8283 340.988 40.6299 340.988 41.6064C340.988 42.583 340.573 43.4212 339.743 44.1211C338.913 44.8128 337.834 45.1587 336.508 45.1587H336.19C334.856 45.1587 333.855 44.9674 333.188 44.585C332.52 44.1943 332.187 43.6898 332.187 43.0713C332.187 42.4447 332.447 42.1313 332.968 42.1313C333.139 42.1313 333.582 42.3511 334.298 42.7905C335.023 43.23 335.731 43.4497 336.422 43.4497C337.122 43.4497 337.647 43.3032 337.997 43.0103C338.347 42.7091 338.522 42.3348 338.522 41.8872C338.522 41.4315 338.302 41.0327 337.863 40.6909C337.627 40.5037 336.951 40.166 335.836 39.6777C334.722 39.1813 333.912 38.6849 333.407 38.1885ZM344.381 38.6523V37.7124C344.381 36.5812 344.32 35.7552 344.198 35.2344C344.076 34.7054 344.015 34.3351 344.015 34.1235C344.015 33.6271 344.377 33.3789 345.102 33.3789C345.826 33.3789 346.351 33.5132 346.676 33.7817C346.766 33.855 346.88 33.9974 347.018 34.209C347.165 34.4206 347.295 34.5264 347.409 34.5264C347.433 34.5264 347.787 34.3188 348.471 33.9038C349.154 33.4888 349.74 33.2812 350.229 33.2812H350.412C350.81 33.2812 351.128 33.3789 351.364 33.5742C351.6 33.7614 351.718 33.9933 351.718 34.27V34.4287C351.718 34.7624 351.6 35.0024 351.364 35.1489C351.136 35.2954 350.77 35.3687 350.265 35.3687C349.118 35.3687 348.279 35.7715 347.75 36.5771C347.23 37.3828 346.969 38.807 346.969 40.8496C346.969 41.1426 347.018 41.5942 347.116 42.2046C347.222 42.8149 347.274 43.2747 347.274 43.584C347.274 43.8932 347.108 44.1903 346.774 44.4751C346.44 44.7599 346.017 44.9023 345.504 44.9023H345.089C344.642 44.9023 344.296 44.7965 344.052 44.585C343.816 44.3652 343.698 44.1007 343.698 43.7915C343.698 43.4741 343.755 43.1527 343.869 42.8271C344.178 41.9482 344.333 40.9798 344.333 39.9219C344.365 39.3359 344.381 38.9128 344.381 38.6523ZM353.769 34.0259C353.769 33.5132 354.2 33.2568 355.062 33.2568H355.343C355.88 33.2568 356.243 33.4725 356.43 33.9038C356.617 34.3351 356.71 35.1408 356.71 36.3208L356.564 40.3979C356.564 42.2941 357.243 43.2422 358.603 43.2422C359.099 43.2422 359.575 43.0672 360.031 42.7173C360.486 42.3674 360.824 41.9482 361.044 41.46C361.524 40.3857 361.764 38.4611 361.764 35.686L361.74 35.1489V34.6729C361.74 34.2415 361.837 33.9282 362.033 33.7329C362.228 33.5376 362.57 33.4399 363.058 33.4399C363.546 33.4399 363.868 33.5579 364.022 33.7939C364.177 34.0299 364.254 34.4124 364.254 34.9414L364.23 35.5884L364.181 38.4692C364.181 38.9331 364.21 39.6452 364.267 40.6055C364.324 41.5658 364.385 42.2697 364.45 42.7173C364.515 43.1567 364.547 43.4172 364.547 43.4985C364.547 44.2228 364.014 44.585 362.948 44.585C362.582 44.585 362.216 44.4507 361.85 44.1821C361.492 43.9054 361.235 43.7671 361.081 43.7671C360.934 43.7671 360.682 43.8566 360.324 44.0356C359.306 44.5483 358.44 44.8047 357.724 44.8047H357.418C356.255 44.8047 355.4 44.4466 354.855 43.7305C354.31 43.0143 354.037 41.7244 354.037 39.8608L354.159 36.1621C354.159 35.6982 354.094 35.2547 353.964 34.8315C353.834 34.4084 353.769 34.1398 353.769 34.0259ZM376.156 37.9565C376.156 36.8742 375.928 36.0278 375.473 35.4175C375.025 34.799 374.488 34.4897 373.861 34.4897H373.507C372.628 34.4897 371.933 34.8397 371.42 35.5396C370.907 36.2313 370.651 37.2526 370.651 38.6035L370.626 38.8477L370.578 40.1172V40.9717C370.578 41.8587 370.757 42.4854 371.115 42.8516C371.481 43.2096 371.998 43.3887 372.665 43.3887H372.897C373.817 43.3887 374.586 42.9655 375.204 42.1191C375.823 41.2728 376.132 40.2433 376.132 39.0308L376.156 38.7622V37.9565ZM369.516 33.3667L371.225 33.6597C371.404 33.6597 371.823 33.5417 372.482 33.3057C373.141 33.0697 373.788 32.9517 374.423 32.9517C375.709 32.9517 376.75 33.4033 377.548 34.3066C378.345 35.2018 378.744 36.4103 378.744 37.9321V38.2373C378.744 39.2627 378.573 40.2067 378.231 41.0693C377.532 42.8516 376.364 44.0031 374.728 44.5239C374.264 44.6704 373.642 44.7721 372.86 44.8291C372.087 44.8861 371.538 44.9878 371.212 45.1343C370.716 45.3621 370.468 45.7731 370.468 46.3672C370.468 46.6195 370.513 46.9613 370.602 47.3926C370.7 47.8239 370.749 48.2227 370.749 48.5889C370.749 48.9551 370.541 49.3132 370.126 49.6631C369.711 50.0212 369.194 50.2002 368.576 50.2002H368.319C367.587 50.2002 367.221 49.9316 367.221 49.3945V49.1626C367.221 49.0487 367.298 48.7272 367.453 48.1982C367.615 47.6774 367.729 47.1159 367.794 46.5137C367.86 45.9196 367.965 44.4344 368.112 42.0581C368.258 39.6818 368.332 38.0583 368.332 37.1875C368.332 36.3086 368.275 35.5721 368.161 34.978C368.055 34.384 368.002 34.0625 368.002 34.0137C368.002 33.5824 368.507 33.3667 369.516 33.3667ZM387.655 43.6938C387.655 44.0194 387.456 44.3123 387.057 44.5728C386.667 44.825 386.133 44.9512 385.458 44.9512C384.197 44.9512 383.31 44.4832 382.797 43.5474C382.479 42.9614 382.321 41.5902 382.321 39.4336C382.321 37.277 382.284 36.0238 382.211 35.6738C382.138 35.3239 381.934 34.9821 381.601 34.6484C381.267 34.3148 381.1 34.0584 381.1 33.8794C381.1 33.8143 381.495 33.387 382.284 32.5977C382.455 32.4268 382.626 32.0483 382.797 31.4624C382.976 30.8765 383.102 30.4899 383.175 30.3027C383.419 29.7168 383.741 29.4238 384.14 29.4238H384.335C384.685 29.4238 384.933 29.5581 385.08 29.8267C385.137 29.9325 385.222 30.3149 385.336 30.9741C385.458 31.6252 385.596 32.0443 385.751 32.2314C385.906 32.4186 386.292 32.6261 386.911 32.854C387.537 33.0737 387.851 33.3097 387.851 33.562V33.6963C387.851 34.0218 387.493 34.2985 386.776 34.5264C386.068 34.7461 385.613 35.1001 385.409 35.5884C385.01 36.5731 384.811 38.1763 384.811 40.3979C384.811 41.4396 384.99 42.1476 385.348 42.522C385.568 42.7498 386.007 42.9085 386.667 42.998C387.326 43.0876 387.655 43.3195 387.655 43.6938ZM394.43 29.1309V29.2773C394.43 29.6924 394.308 30.0464 394.064 30.3394C393.828 30.6242 393.462 30.7666 392.965 30.7666H392.77L392.392 30.7178C392.172 30.7178 391.96 30.616 391.757 30.4126C391.553 30.2091 391.452 29.904 391.452 29.4971V29.3506L391.513 28.9111C391.513 28.7402 391.614 28.5286 391.818 28.2764C392.029 28.0241 392.298 27.8979 392.624 27.8979L392.904 27.8613H393.148L393.49 27.9102C393.702 27.9102 393.909 28.016 394.113 28.2275C394.324 28.431 394.43 28.7321 394.43 29.1309ZM393.856 34.2822L393.722 37.5659L393.698 37.8955L393.661 38.8965V39.3726C393.661 40.5444 393.694 41.3135 393.759 41.6797C393.832 42.0459 393.966 42.404 394.162 42.7539C394.357 43.0957 394.455 43.3439 394.455 43.4985V43.6084C394.455 44.0072 394.251 44.3245 393.844 44.5605C393.437 44.7965 392.884 44.9146 392.184 44.9146H391.879C391.472 44.9146 391.163 44.825 390.951 44.646C390.74 44.4588 390.634 44.2594 390.634 44.0479V43.7793C390.634 43.6735 390.727 43.2992 390.915 42.6562C391.102 42.0052 391.195 41.1222 391.195 40.0073C391.22 39.6899 391.232 39.4702 391.232 39.3481L391.269 38.6768L391.293 38.3472C391.334 37.7775 391.354 37.334 391.354 37.0166L391.366 36.5283C391.366 35.918 391.264 35.3768 391.061 34.9048C390.866 34.4328 390.768 34.1398 390.768 34.0259C390.768 33.4399 391.321 33.147 392.428 33.147H392.868C393.283 33.147 393.551 33.2568 393.673 33.4766C393.795 33.6882 393.856 33.9567 393.856 34.2822ZM401.95 44.9878C401.356 44.9878 400.88 44.6094 400.521 43.8525C400.253 43.2829 399.773 41.9198 399.081 39.7632C398.397 37.5985 397.946 36.3086 397.726 35.8936C397.181 34.86 396.908 34.2008 396.908 33.916C396.908 33.623 396.998 33.4115 397.177 33.2812C397.356 33.1429 397.734 33.0737 398.312 33.0737C399.24 33.0737 399.854 33.4155 400.155 34.0991C400.212 34.2212 400.302 34.5996 400.424 35.2344C400.546 35.861 400.668 36.4144 400.79 36.8945L401.034 37.9688C401.645 40.6543 402.112 41.9971 402.438 41.9971C402.658 41.9971 403.276 40.6258 404.293 37.8833C404.757 36.63 405.054 35.6453 405.185 34.9292C405.323 34.2049 405.412 33.8021 405.453 33.7207C405.689 33.2731 406.186 33.0493 406.942 33.0493H407.187C407.74 33.0493 408.017 33.3301 408.017 33.8916C408.017 34.2904 407.895 34.6973 407.65 35.1123C407.406 35.5273 406.837 36.805 405.941 38.9453C405.054 41.0775 404.399 42.526 403.976 43.291C403.553 44.0479 403.203 44.5199 402.926 44.707C402.658 44.8942 402.332 44.9878 401.95 44.9878ZM412.094 37.5781V37.7734C412.094 38.0176 412.318 38.1396 412.765 38.1396H413.058L413.131 38.1274L413.729 38.0786C414.356 37.9891 414.763 37.9443 414.95 37.9443C415.837 37.9443 416.505 37.7775 416.952 37.4438C417.164 37.2811 417.27 36.9922 417.27 36.5771V36.4429C417.27 35.8325 417.066 35.3483 416.659 34.9902C416.26 34.6322 415.78 34.4531 415.219 34.4531H415.133L415.06 34.4653C414.271 34.4653 413.579 34.799 412.985 35.4663C412.391 36.1336 412.094 36.8376 412.094 37.5781ZM414.755 45.1587H414.486C412.932 45.1587 411.695 44.6663 410.775 43.6816C409.856 42.6888 409.396 41.3664 409.396 39.7144V39.1772C409.396 38.3879 409.551 37.5863 409.86 36.7725C410.486 35.1449 411.508 34.0218 412.924 33.4033C413.673 33.0697 414.433 32.9028 415.207 32.9028H415.731C416.798 32.9028 417.697 33.2609 418.429 33.9771C419.17 34.6851 419.54 35.6006 419.54 36.7236V36.9678C419.54 37.7653 419.223 38.3309 418.588 38.6646C418.148 38.9006 417.123 39.1366 415.512 39.3726C413.9 39.6086 413.021 39.751 412.875 39.7998C412.387 39.9707 412.143 40.2962 412.143 40.7764C412.143 41.4437 412.427 42.0133 412.997 42.4854C413.567 42.9574 414.332 43.1934 415.292 43.1934C415.74 43.1934 416.35 43.0713 417.123 42.8271C417.896 42.583 418.344 42.4609 418.466 42.4609C418.881 42.4609 419.088 42.64 419.088 42.998C419.088 43.4782 418.62 43.9583 417.685 44.4385C416.749 44.9186 415.772 45.1587 414.755 45.1587ZM435.434 43.6938C435.434 44.0194 435.234 44.3123 434.835 44.5728C434.445 44.825 433.912 44.9512 433.236 44.9512C431.975 44.9512 431.088 44.4832 430.575 43.5474C430.258 42.9614 430.099 41.5902 430.099 39.4336C430.099 37.277 430.062 36.0238 429.989 35.6738C429.916 35.3239 429.713 34.9821 429.379 34.6484C429.045 34.3148 428.878 34.0584 428.878 33.8794C428.878 33.8143 429.273 33.387 430.062 32.5977C430.233 32.4268 430.404 32.0483 430.575 31.4624C430.754 30.8765 430.88 30.4899 430.954 30.3027C431.198 29.7168 431.519 29.4238 431.918 29.4238H432.113C432.463 29.4238 432.711 29.5581 432.858 29.8267C432.915 29.9325 433 30.3149 433.114 30.9741C433.236 31.6252 433.375 32.0443 433.529 32.2314C433.684 32.4186 434.07 32.6261 434.689 32.854C435.316 33.0737 435.629 33.3097 435.629 33.562V33.6963C435.629 34.0218 435.271 34.2985 434.555 34.5264C433.847 34.7461 433.391 35.1001 433.188 35.5884C432.789 36.5731 432.589 38.1763 432.589 40.3979C432.589 41.4396 432.768 42.1476 433.126 42.522C433.346 42.7498 433.786 42.9085 434.445 42.998C435.104 43.0876 435.434 43.3195 435.434 43.6938ZM440.316 39.8486C440.316 40.9147 440.561 41.8018 441.049 42.5098C441.537 43.2178 442.135 43.5718 442.843 43.5718H443.209C444.048 43.5718 444.756 43.1486 445.333 42.3022C445.919 41.4559 446.212 40.3288 446.212 38.9209V38.1152C446.212 37.0247 445.972 36.1336 445.492 35.4419C445.02 34.742 444.41 34.3921 443.661 34.3921H443.417C442.546 34.3921 441.814 34.8234 441.22 35.686C440.634 36.5487 440.341 37.5781 440.341 38.7744L440.316 39.0552V39.8486ZM443.075 45.2319H442.685C441.26 45.2319 440.101 44.7355 439.206 43.7427C438.31 42.7498 437.863 41.342 437.863 39.519L437.875 39.3115C437.875 37.3096 438.404 35.7308 439.462 34.5752C440.015 33.9648 440.646 33.5173 441.354 33.2324C442.07 32.9395 442.75 32.793 443.393 32.793H443.991C444.707 32.793 445.395 32.9517 446.054 33.269C447.942 34.1805 448.886 35.8976 448.886 38.4204V38.6157C448.878 39.4377 448.743 40.2718 448.483 41.1182C447.962 42.7865 446.961 43.9665 445.48 44.6582C444.658 45.0407 443.856 45.2319 443.075 45.2319ZM457.895 39.9219V39.3604C457.895 38.335 458.053 37.4276 458.371 36.6382C458.981 35.1082 459.917 34.0503 461.178 33.4644C462 33.0737 462.851 32.8784 463.729 32.8784H463.998C464.966 32.8784 465.768 33.0697 466.403 33.4521C467.038 33.8346 467.355 34.3026 467.355 34.856C467.355 35.4989 467.046 35.8203 466.427 35.8203C466.313 35.8203 465.915 35.6413 465.231 35.2832C464.547 34.9333 463.986 34.7583 463.546 34.7583C463.538 34.7583 463.53 34.7583 463.522 34.7583C462.562 34.7583 461.809 35.1733 461.264 36.0034C460.727 36.8335 460.458 37.9159 460.458 39.2505C460.458 40.5851 460.743 41.5739 461.312 42.2168C461.89 42.8597 462.692 43.1812 463.717 43.1812C464.14 43.1812 464.722 43.0632 465.463 42.8271C466.203 42.583 466.655 42.4609 466.818 42.4609C467.152 42.4609 467.318 42.6359 467.318 42.9858C467.318 43.4578 466.85 43.9339 465.915 44.4141C464.979 44.8942 464.059 45.1343 463.156 45.1343C460.739 45.1343 459.14 44.1821 458.358 42.2778C458.049 41.521 457.895 40.7357 457.895 39.9219ZM470.004 34.0259C470.004 33.5132 470.435 33.2568 471.298 33.2568H471.579C472.116 33.2568 472.478 33.4725 472.665 33.9038C472.852 34.3351 472.946 35.1408 472.946 36.3208L472.799 40.3979C472.799 42.2941 473.479 43.2422 474.838 43.2422C475.334 43.2422 475.81 43.0672 476.266 42.7173C476.722 42.3674 477.06 41.9482 477.279 41.46C477.759 40.3857 478 38.4611 478 35.686L477.975 35.1489V34.6729C477.975 34.2415 478.073 33.9282 478.268 33.7329C478.463 33.5376 478.805 33.4399 479.293 33.4399C479.782 33.4399 480.103 33.5579 480.258 33.7939C480.412 34.0299 480.49 34.4124 480.49 34.9414L480.465 35.5884L480.417 38.4692C480.417 38.9331 480.445 39.6452 480.502 40.6055C480.559 41.5658 480.62 42.2697 480.685 42.7173C480.75 43.1567 480.783 43.4172 480.783 43.4985C480.783 44.2228 480.25 44.585 479.184 44.585C478.817 44.585 478.451 44.4507 478.085 44.1821C477.727 43.9054 477.471 43.7671 477.316 43.7671C477.169 43.7671 476.917 43.8566 476.559 44.0356C475.542 44.5483 474.675 44.8047 473.959 44.8047H473.654C472.49 44.8047 471.636 44.4466 471.09 43.7305C470.545 43.0143 470.272 41.7244 470.272 39.8608L470.395 36.1621C470.395 35.6982 470.329 35.2547 470.199 34.8315C470.069 34.4084 470.004 34.1398 470.004 34.0259ZM484.494 28.0322C484.494 27.4382 485.051 27.1411 486.166 27.1411H486.386C486.85 27.1411 487.167 27.255 487.338 27.4829C487.509 27.7026 487.594 28.134 487.594 28.7769L487.497 30.5957C487.472 30.8805 487.46 31.0352 487.46 31.0596L487.436 31.5234C487.419 31.8245 487.403 32.1297 487.387 32.439L487.35 32.9028L487.313 33.5986C487.183 36.0726 487.118 37.8996 487.118 39.0796C487.118 40.2515 487.171 41.0938 487.277 41.6064C487.383 42.1191 487.549 42.5545 487.777 42.9126C488.005 43.2707 488.119 43.5067 488.119 43.6206V43.7671C488.119 44.1252 487.94 44.41 487.582 44.6216C487.232 44.8332 486.756 44.939 486.154 44.939H485.519C485.145 44.939 484.815 44.8332 484.53 44.6216C484.254 44.4019 484.115 44.1536 484.115 43.877V43.5474L484.188 43.0347C484.286 42.3267 484.343 41.7977 484.359 41.4478C484.384 41.0897 484.42 40.5973 484.469 39.9707C484.518 39.3359 484.595 37.9891 484.701 35.9302C484.815 33.8631 484.872 32.7523 484.872 32.5977L484.921 31.6821L484.945 30.7788C484.945 29.9162 484.868 29.3018 484.713 28.9355C484.567 28.5612 484.494 28.2601 484.494 28.0322ZM497.323 43.6938C497.323 44.0194 497.124 44.3123 496.725 44.5728C496.334 44.825 495.801 44.9512 495.126 44.9512C493.865 44.9512 492.978 44.4832 492.465 43.5474C492.147 42.9614 491.989 41.5902 491.989 39.4336C491.989 37.277 491.952 36.0238 491.879 35.6738C491.806 35.3239 491.602 34.9821 491.269 34.6484C490.935 34.3148 490.768 34.0584 490.768 33.8794C490.768 33.8143 491.163 33.387 491.952 32.5977C492.123 32.4268 492.294 32.0483 492.465 31.4624C492.644 30.8765 492.77 30.4899 492.843 30.3027C493.087 29.7168 493.409 29.4238 493.808 29.4238H494.003C494.353 29.4238 494.601 29.5581 494.748 29.8267C494.805 29.9325 494.89 30.3149 495.004 30.9741C495.126 31.6252 495.264 32.0443 495.419 32.2314C495.574 32.4186 495.96 32.6261 496.579 32.854C497.205 33.0737 497.519 33.3097 497.519 33.562V33.6963C497.519 34.0218 497.16 34.2985 496.444 34.5264C495.736 34.7461 495.281 35.1001 495.077 35.5884C494.678 36.5731 494.479 38.1763 494.479 40.3979C494.479 41.4396 494.658 42.1476 495.016 42.522C495.236 42.7498 495.675 42.9085 496.334 42.998C496.994 43.0876 497.323 43.3195 497.323 43.6938ZM500.204 34.0259C500.204 33.5132 500.635 33.2568 501.498 33.2568H501.779C502.316 33.2568 502.678 33.4725 502.865 33.9038C503.052 34.3351 503.146 35.1408 503.146 36.3208L503 40.3979C503 42.2941 503.679 43.2422 505.038 43.2422C505.535 43.2422 506.011 43.0672 506.466 42.7173C506.922 42.3674 507.26 41.9482 507.479 41.46C507.96 40.3857 508.2 38.4611 508.2 35.686L508.175 35.1489V34.6729C508.175 34.2415 508.273 33.9282 508.468 33.7329C508.664 33.5376 509.005 33.4399 509.494 33.4399C509.982 33.4399 510.303 33.5579 510.458 33.7939C510.613 34.0299 510.69 34.4124 510.69 34.9414L510.666 35.5884L510.617 38.4692C510.617 38.9331 510.645 39.6452 510.702 40.6055C510.759 41.5658 510.82 42.2697 510.885 42.7173C510.95 43.1567 510.983 43.4172 510.983 43.4985C510.983 44.2228 510.45 44.585 509.384 44.585C509.018 44.585 508.651 44.4507 508.285 44.1821C507.927 43.9054 507.671 43.7671 507.516 43.7671C507.37 43.7671 507.117 43.8566 506.759 44.0356C505.742 44.5483 504.875 44.8047 504.159 44.8047H503.854C502.69 44.8047 501.836 44.4466 501.291 43.7305C500.745 43.0143 500.473 41.7244 500.473 39.8608L500.595 36.1621C500.595 35.6982 500.53 35.2547 500.399 34.8315C500.269 34.4084 500.204 34.1398 500.204 34.0259ZM514.792 38.6523V37.7124C514.792 36.5812 514.73 35.7552 514.608 35.2344C514.486 34.7054 514.425 34.3351 514.425 34.1235C514.425 33.6271 514.787 33.3789 515.512 33.3789C516.236 33.3789 516.761 33.5132 517.086 33.7817C517.176 33.855 517.29 33.9974 517.428 34.209C517.575 34.4206 517.705 34.5264 517.819 34.5264C517.843 34.5264 518.197 34.3188 518.881 33.9038C519.564 33.4888 520.15 33.2812 520.639 33.2812H520.822C521.221 33.2812 521.538 33.3789 521.774 33.5742C522.01 33.7614 522.128 33.9933 522.128 34.27V34.4287C522.128 34.7624 522.01 35.0024 521.774 35.1489C521.546 35.2954 521.18 35.3687 520.675 35.3687C519.528 35.3687 518.69 35.7715 518.161 36.5771C517.64 37.3828 517.379 38.807 517.379 40.8496C517.379 41.1426 517.428 41.5942 517.526 42.2046C517.632 42.8149 517.685 43.2747 517.685 43.584C517.685 43.8932 517.518 44.1903 517.184 44.4751C516.85 44.7599 516.427 44.9023 515.915 44.9023H515.5C515.052 44.9023 514.706 44.7965 514.462 44.585C514.226 44.3652 514.108 44.1007 514.108 43.7915C514.108 43.4741 514.165 43.1527 514.279 42.8271C514.588 41.9482 514.743 40.9798 514.743 39.9219C514.775 39.3359 514.792 38.9128 514.792 38.6523ZM526.181 37.5781V37.7734C526.181 38.0176 526.404 38.1396 526.852 38.1396H527.145L527.218 38.1274L527.816 38.0786C528.443 37.9891 528.85 37.9443 529.037 37.9443C529.924 37.9443 530.591 37.7775 531.039 37.4438C531.251 37.2811 531.356 36.9922 531.356 36.5771V36.4429C531.356 35.8325 531.153 35.3483 530.746 34.9902C530.347 34.6322 529.867 34.4531 529.306 34.4531H529.22L529.147 34.4653C528.358 34.4653 527.666 34.799 527.072 35.4663C526.478 36.1336 526.181 36.8376 526.181 37.5781ZM528.842 45.1587H528.573C527.019 45.1587 525.782 44.6663 524.862 43.6816C523.943 42.6888 523.483 41.3664 523.483 39.7144V39.1772C523.483 38.3879 523.638 37.5863 523.947 36.7725C524.573 35.1449 525.595 34.0218 527.011 33.4033C527.759 33.0697 528.52 32.9028 529.293 32.9028H529.818C530.884 32.9028 531.784 33.2609 532.516 33.9771C533.257 34.6851 533.627 35.6006 533.627 36.7236V36.9678C533.627 37.7653 533.31 38.3309 532.675 38.6646C532.235 38.9006 531.21 39.1366 529.599 39.3726C527.987 39.6086 527.108 39.751 526.962 39.7998C526.474 39.9707 526.229 40.2962 526.229 40.7764C526.229 41.4437 526.514 42.0133 527.084 42.4854C527.654 42.9574 528.419 43.1934 529.379 43.1934C529.826 43.1934 530.437 43.0713 531.21 42.8271C531.983 42.583 532.431 42.4609 532.553 42.4609C532.968 42.4609 533.175 42.64 533.175 42.998C533.175 43.4782 532.707 43.9583 531.771 44.4385C530.836 44.9186 529.859 45.1587 528.842 45.1587ZM537.997 45.1953H537.619C537.212 45.1953 536.894 45.1017 536.667 44.9146C536.447 44.7274 536.337 44.4792 536.337 44.1699C536.321 44.1048 536.312 44.0519 536.312 44.0112L536.288 43.8037V43.584L536.3 43.5352V43.4253C536.317 43.3602 536.325 43.3073 536.325 43.2666C536.325 42.9004 536.447 42.6156 536.691 42.4121C536.943 42.2005 537.22 42.0947 537.521 42.0947L537.777 42.0581H538.107C538.994 42.0581 539.438 42.522 539.438 43.4497V43.6206L539.389 44.0356C539.389 44.41 539.246 44.6989 538.961 44.9023C538.685 45.0977 538.363 45.1953 537.997 45.1953ZM558.993 32.6221V32.2681C558.993 31.381 558.7 30.6893 558.114 30.1929C557.528 29.6965 556.719 29.4482 555.685 29.4482H555.246C554.464 29.4482 553.956 29.554 553.72 29.7656C553.484 29.9772 553.366 30.4696 553.366 31.2427L553.341 31.4624L553.183 34.9536V35.3809C553.183 35.682 553.264 35.8854 553.427 35.9912C553.598 36.097 553.919 36.1499 554.391 36.1499L554.501 36.1377L554.928 36.1255L555.355 36.1011C556.381 36.1011 557.243 35.7796 557.943 35.1367C558.643 34.4857 558.993 33.6475 558.993 32.6221ZM553.109 41.2036L553.366 43.2422C553.366 43.6979 553.174 44.0601 552.792 44.3286C552.418 44.5972 551.917 44.7314 551.291 44.7314C550.167 44.7314 549.606 44.2839 549.606 43.3887C549.606 43.2015 549.72 42.8719 549.948 42.3999C550.176 41.9198 550.314 41.4396 550.363 40.9595C550.574 38.8761 550.68 36.3818 550.68 33.4766L550.692 33.1104C550.701 32.8662 550.705 32.6261 550.705 32.3901L550.729 31.3037C550.729 30.3841 550.705 29.7412 550.656 29.375L550.607 29.1187C550.566 28.8826 550.546 28.7321 550.546 28.667C550.546 28.3008 550.814 28.0607 551.352 27.9468C551.889 27.8328 552.991 27.7759 554.66 27.7759H555.807C558.558 27.7759 560.344 28.5815 561.166 30.1929C561.451 30.7707 561.593 31.4502 561.593 32.2314C561.593 33.6637 560.991 34.9699 559.787 36.1499C559.119 36.8009 558.786 37.3258 558.786 37.7246C558.786 38.1234 559.282 39.2261 560.275 41.0327C560.6 41.6187 561.007 42.1842 561.496 42.7295C561.984 43.2747 562.228 43.6613 562.228 43.8892V44.1333C562.228 44.5728 561.87 44.7925 561.154 44.7925C560.438 44.7925 559.905 44.6053 559.555 44.231C559.213 43.8485 558.635 42.9045 557.821 41.3989C557.016 39.8934 556.572 39.0918 556.491 38.9941C555.986 38.3919 555.437 38.0908 554.843 38.0908C554.249 38.0908 553.773 38.4001 553.415 39.0186C553.211 39.3685 553.109 40.0968 553.109 41.2036ZM567.147 37.5781V37.7734C567.147 38.0176 567.371 38.1396 567.819 38.1396H568.112L568.185 38.1274L568.783 38.0786C569.41 37.9891 569.817 37.9443 570.004 37.9443C570.891 37.9443 571.558 37.7775 572.006 37.4438C572.217 37.2811 572.323 36.9922 572.323 36.5771V36.4429C572.323 35.8325 572.12 35.3483 571.713 34.9902C571.314 34.6322 570.834 34.4531 570.272 34.4531H570.187L570.114 34.4653C569.324 34.4653 568.633 34.799 568.039 35.4663C567.444 36.1336 567.147 36.8376 567.147 37.5781ZM569.809 45.1587H569.54C567.986 45.1587 566.749 44.6663 565.829 43.6816C564.91 42.6888 564.45 41.3664 564.45 39.7144V39.1772C564.45 38.3879 564.604 37.5863 564.914 36.7725C565.54 35.1449 566.562 34.0218 567.978 33.4033C568.726 33.0697 569.487 32.9028 570.26 32.9028H570.785C571.851 32.9028 572.75 33.2609 573.483 33.9771C574.223 34.6851 574.594 35.6006 574.594 36.7236V36.9678C574.594 37.7653 574.276 38.3309 573.642 38.6646C573.202 38.9006 572.177 39.1366 570.565 39.3726C568.954 39.6086 568.075 39.751 567.929 39.7998C567.44 39.9707 567.196 40.2962 567.196 40.7764C567.196 41.4437 567.481 42.0133 568.051 42.4854C568.62 42.9574 569.385 43.1934 570.346 43.1934C570.793 43.1934 571.404 43.0713 572.177 42.8271C572.95 42.583 573.397 42.4609 573.52 42.4609C573.935 42.4609 574.142 42.64 574.142 42.998C574.142 43.4782 573.674 43.9583 572.738 44.4385C571.802 44.9186 570.826 45.1587 569.809 45.1587ZM578.109 38.1885C577.613 37.6839 577.365 36.9759 577.365 36.0645C577.365 35.153 577.772 34.3717 578.585 33.7207C579.399 33.0615 580.408 32.7319 581.613 32.7319H581.93C582.996 32.7319 583.843 32.8825 584.469 33.1836C585.104 33.4847 585.421 33.9364 585.421 34.5386C585.421 35.1326 585.157 35.4297 584.628 35.4297C584.49 35.4297 584.099 35.2669 583.456 34.9414C582.813 34.6077 582.207 34.4409 581.637 34.4409C581.068 34.4409 580.608 34.5711 580.258 34.8315C579.916 35.0838 579.745 35.4338 579.745 35.8813C579.745 36.3289 579.985 36.7196 580.465 37.0532C580.742 37.2485 581.393 37.5578 582.418 37.981C583.452 38.4041 584.188 38.811 584.628 39.2017C585.336 39.8283 585.69 40.6299 585.69 41.6064C585.69 42.583 585.275 43.4212 584.445 44.1211C583.615 44.8128 582.536 45.1587 581.21 45.1587H580.893C579.558 45.1587 578.557 44.9674 577.89 44.585C577.222 44.1943 576.889 43.6898 576.889 43.0713C576.889 42.4447 577.149 42.1313 577.67 42.1313C577.841 42.1313 578.284 42.3511 579 42.7905C579.725 43.23 580.433 43.4497 581.125 43.4497C581.824 43.4497 582.349 43.3032 582.699 43.0103C583.049 42.7091 583.224 42.3348 583.224 41.8872C583.224 41.4315 583.004 41.0327 582.565 40.6909C582.329 40.5037 581.653 40.166 580.539 39.6777C579.424 39.1813 578.614 38.6849 578.109 38.1885ZM592.282 29.1309V29.2773C592.282 29.6924 592.16 30.0464 591.916 30.3394C591.68 30.6242 591.313 30.7666 590.817 30.7666H590.622L590.243 30.7178C590.023 30.7178 589.812 30.616 589.608 30.4126C589.405 30.2091 589.303 29.904 589.303 29.4971V29.3506L589.364 28.9111C589.364 28.7402 589.466 28.5286 589.669 28.2764C589.881 28.0241 590.15 27.8979 590.475 27.8979L590.756 27.8613H591L591.342 27.9102C591.553 27.9102 591.761 28.016 591.964 28.2275C592.176 28.431 592.282 28.7321 592.282 29.1309ZM591.708 34.2822L591.574 37.5659L591.549 37.8955L591.513 38.8965V39.3726C591.513 40.5444 591.545 41.3135 591.61 41.6797C591.684 42.0459 591.818 42.404 592.013 42.7539C592.208 43.0957 592.306 43.3439 592.306 43.4985V43.6084C592.306 44.0072 592.103 44.3245 591.696 44.5605C591.289 44.7965 590.736 44.9146 590.036 44.9146H589.73C589.324 44.9146 589.014 44.825 588.803 44.646C588.591 44.4588 588.485 44.2594 588.485 44.0479V43.7793C588.485 43.6735 588.579 43.2992 588.766 42.6562C588.953 42.0052 589.047 41.1222 589.047 40.0073C589.071 39.6899 589.083 39.4702 589.083 39.3481L589.12 38.6768L589.145 38.3472C589.185 37.7775 589.206 37.334 589.206 37.0166L589.218 36.5283C589.218 35.918 589.116 35.3768 588.913 34.9048C588.717 34.4328 588.62 34.1398 588.62 34.0259C588.62 33.4399 589.173 33.147 590.28 33.147H590.719C591.134 33.147 591.403 33.2568 591.525 33.4766C591.647 33.6882 591.708 33.9567 591.708 34.2822ZM596.225 38.1885C595.728 37.6839 595.48 36.9759 595.48 36.0645C595.48 35.153 595.887 34.3717 596.701 33.7207C597.514 33.0615 598.524 32.7319 599.728 32.7319H600.045C601.111 32.7319 601.958 32.8825 602.584 33.1836C603.219 33.4847 603.537 33.9364 603.537 34.5386C603.537 35.1326 603.272 35.4297 602.743 35.4297C602.605 35.4297 602.214 35.2669 601.571 34.9414C600.928 34.6077 600.322 34.4409 599.752 34.4409C599.183 34.4409 598.723 34.5711 598.373 34.8315C598.031 35.0838 597.86 35.4338 597.86 35.8813C597.86 36.3289 598.1 36.7196 598.581 37.0532C598.857 37.2485 599.508 37.5578 600.534 37.981C601.567 38.4041 602.304 38.811 602.743 39.2017C603.451 39.8283 603.805 40.6299 603.805 41.6064C603.805 42.583 603.39 43.4212 602.56 44.1211C601.73 44.8128 600.652 45.1587 599.325 45.1587H599.008C597.673 45.1587 596.672 44.9674 596.005 44.585C595.338 44.1943 595.004 43.6898 595.004 43.0713C595.004 42.4447 595.264 42.1313 595.785 42.1313C595.956 42.1313 596.4 42.3511 597.116 42.7905C597.84 43.23 598.548 43.4497 599.24 43.4497C599.94 43.4497 600.465 43.3032 600.814 43.0103C601.164 42.7091 601.339 42.3348 601.339 41.8872C601.339 41.4315 601.12 41.0327 600.68 40.6909C600.444 40.5037 599.769 40.166 598.654 39.6777C597.539 39.1813 596.729 38.6849 596.225 38.1885ZM612.802 43.6938C612.802 44.0194 612.602 44.3123 612.204 44.5728C611.813 44.825 611.28 44.9512 610.604 44.9512C609.343 44.9512 608.456 44.4832 607.943 43.5474C607.626 42.9614 607.467 41.5902 607.467 39.4336C607.467 37.277 607.431 36.0238 607.357 35.6738C607.284 35.3239 607.081 34.9821 606.747 34.6484C606.413 34.3148 606.247 34.0584 606.247 33.8794C606.247 33.8143 606.641 33.387 607.431 32.5977C607.602 32.4268 607.772 32.0483 607.943 31.4624C608.122 30.8765 608.249 30.4899 608.322 30.3027C608.566 29.7168 608.887 29.4238 609.286 29.4238H609.481C609.831 29.4238 610.08 29.5581 610.226 29.8267C610.283 29.9325 610.368 30.3149 610.482 30.9741C610.604 31.6252 610.743 32.0443 610.897 32.2314C611.052 32.4186 611.439 32.6261 612.057 32.854C612.684 33.0737 612.997 33.3097 612.997 33.562V33.6963C612.997 34.0218 612.639 34.2985 611.923 34.5264C611.215 34.7461 610.759 35.1001 610.556 35.5884C610.157 36.5731 609.958 38.1763 609.958 40.3979C609.958 41.4396 610.137 42.1476 610.495 42.522C610.714 42.7498 611.154 42.9085 611.813 42.998C612.472 43.0876 612.802 43.3195 612.802 43.6938ZM619.455 43.4619H619.772C620.439 43.4619 621.025 43.2381 621.53 42.7905C622.042 42.3348 622.299 41.8099 622.299 41.2158L622.323 41.0571V40.8984L622.348 40.52V39.8242C622.348 39.3522 622.108 39.1162 621.627 39.1162H621.078L620.993 39.1284L620.517 39.165C620.289 39.1976 620.126 39.2139 620.028 39.2139C619.369 39.2139 618.759 39.4621 618.197 39.9585C617.807 40.3084 617.611 40.8049 617.611 41.4478V41.6919C617.611 42.2371 617.786 42.6685 618.136 42.9858C618.494 43.3032 618.934 43.4619 619.455 43.4619ZM616.732 35.6616C616.187 35.6616 615.915 35.3117 615.915 34.6118C615.915 34.091 616.354 33.6393 617.233 33.2568C618.12 32.8662 619.04 32.6709 619.992 32.6709H620.602C621.424 32.6709 622.148 32.8255 622.775 33.1348C623.402 33.4359 623.878 33.8468 624.203 34.3677C624.537 34.8885 624.74 35.568 624.813 36.4062C624.83 36.6016 624.838 37.5496 624.838 39.2505C624.838 40.9513 624.858 41.932 624.899 42.1924C624.948 42.4447 625.078 42.7539 625.29 43.1201C625.509 43.4863 625.619 43.7874 625.619 44.0234C625.619 44.2594 625.505 44.4629 625.277 44.6338C625.058 44.7965 624.736 44.8779 624.313 44.8779C623.89 44.8779 623.43 44.7762 622.934 44.5728C622.437 44.3612 622.075 44.2554 621.847 44.2554C621.823 44.2554 621.416 44.4019 620.626 44.6948C619.837 44.9797 619.17 45.1221 618.625 45.1221H618.356C617.444 45.1221 616.667 44.8332 616.024 44.2554C615.39 43.6776 615.072 42.8556 615.072 41.7896C615.072 40.7235 615.422 39.8934 616.122 39.2993C616.822 38.6971 617.672 38.2861 618.673 38.0664C618.974 38.0013 619.475 37.9159 620.175 37.8101C620.875 37.7043 621.351 37.5944 621.603 37.4805C622.042 37.277 622.262 36.8945 622.262 36.333C622.262 35.7633 622.075 35.3198 621.701 35.0024C621.326 34.6769 620.879 34.5142 620.358 34.5142C619.845 34.5142 619.17 34.7054 618.332 35.0879C617.493 35.4704 616.96 35.6616 616.732 35.6616ZM639.669 43.5352C639.669 44.1374 639.145 44.4385 638.095 44.4385C637.501 44.4385 637.102 44.2961 636.898 44.0112C636.801 43.8729 636.752 43.5474 636.752 43.0347L636.715 42.2534C636.658 41.3989 636.63 40.5404 636.63 39.6777C636.63 37.8141 636.467 36.5649 636.142 35.9302C635.824 35.2873 635.287 34.9658 634.53 34.9658C634.026 34.9658 633.558 35.1164 633.126 35.4175C632.703 35.7186 632.378 36.1377 632.15 36.6748C631.678 37.7734 631.442 39.8039 631.442 42.7661C631.442 43.4416 631.312 43.9176 631.051 44.1943C630.799 44.471 630.473 44.6094 630.075 44.6094H629.831C628.919 44.6094 628.463 44.2472 628.463 43.5229V43.23C628.463 43.1405 628.512 42.9451 628.61 42.644L628.805 42.0825C629 41.4233 629.098 40.0114 629.098 37.8467L629.159 34.2212C629.159 33.7573 629.411 33.5254 629.916 33.5254C630.421 33.5254 630.917 33.6922 631.405 34.0259C631.902 34.3595 632.215 34.5264 632.345 34.5264C632.484 34.5264 632.724 34.4328 633.065 34.2456C634.213 33.619 635.132 33.3057 635.824 33.3057H636.142C637.387 33.3057 638.262 33.8672 638.766 34.9902C639.01 35.5192 639.132 36.6585 639.132 38.4082V38.4937C639.132 38.6401 639.128 38.7866 639.12 38.9331C639.12 39.3319 639.12 39.5394 639.12 39.5557C639.12 39.7103 639.12 39.8608 639.12 40.0073C639.12 40.1213 639.12 40.2311 639.12 40.3369C639.12 40.9635 639.14 41.3908 639.181 41.6187C639.238 41.9279 639.332 42.2493 639.462 42.583C639.6 42.9492 639.669 43.2666 639.669 43.5352ZM648.837 43.6938C648.837 44.0194 648.638 44.3123 648.239 44.5728C647.848 44.825 647.315 44.9512 646.64 44.9512C645.378 44.9512 644.491 44.4832 643.979 43.5474C643.661 42.9614 643.502 41.5902 643.502 39.4336C643.502 37.277 643.466 36.0238 643.393 35.6738C643.319 35.3239 643.116 34.9821 642.782 34.6484C642.449 34.3148 642.282 34.0584 642.282 33.8794C642.282 33.8143 642.676 33.387 643.466 32.5977C643.637 32.4268 643.808 32.0483 643.979 31.4624C644.158 30.8765 644.284 30.4899 644.357 30.3027C644.601 29.7168 644.923 29.4238 645.321 29.4238H645.517C645.867 29.4238 646.115 29.5581 646.261 29.8267C646.318 29.9325 646.404 30.3149 646.518 30.9741C646.64 31.6252 646.778 32.0443 646.933 32.2314C647.087 32.4186 647.474 32.6261 648.092 32.854C648.719 33.0737 649.032 33.3097 649.032 33.562V33.6963C649.032 34.0218 648.674 34.2985 647.958 34.5264C647.25 34.7461 646.794 35.1001 646.591 35.5884C646.192 36.5731 645.993 38.1763 645.993 40.3979C645.993 41.4396 646.172 42.1476 646.53 42.522C646.75 42.7498 647.189 42.9085 647.848 42.998C648.507 43.0876 648.837 43.3195 648.837 43.6938ZM664.877 43.6938C664.877 44.0194 664.678 44.3123 664.279 44.5728C663.888 44.825 663.355 44.9512 662.68 44.9512C661.418 44.9512 660.531 44.4832 660.019 43.5474C659.701 42.9614 659.542 41.5902 659.542 39.4336C659.542 37.277 659.506 36.0238 659.433 35.6738C659.359 35.3239 659.156 34.9821 658.822 34.6484C658.489 34.3148 658.322 34.0584 658.322 33.8794C658.322 33.8143 658.716 33.387 659.506 32.5977C659.677 32.4268 659.848 32.0483 660.019 31.4624C660.198 30.8765 660.324 30.4899 660.397 30.3027C660.641 29.7168 660.963 29.4238 661.361 29.4238H661.557C661.907 29.4238 662.155 29.5581 662.301 29.8267C662.358 29.9325 662.444 30.3149 662.558 30.9741C662.68 31.6252 662.818 32.0443 662.973 32.2314C663.127 32.4186 663.514 32.6261 664.132 32.854C664.759 33.0737 665.072 33.3097 665.072 33.562V33.6963C665.072 34.0218 664.714 34.2985 663.998 34.5264C663.29 34.7461 662.834 35.1001 662.631 35.5884C662.232 36.5731 662.033 38.1763 662.033 40.3979C662.033 41.4396 662.212 42.1476 662.57 42.522C662.79 42.7498 663.229 42.9085 663.888 42.998C664.547 43.0876 664.877 43.3195 664.877 43.6938ZM669.76 39.8486C669.76 40.9147 670.004 41.8018 670.492 42.5098C670.98 43.2178 671.579 43.5718 672.287 43.5718H672.653C673.491 43.5718 674.199 43.1486 674.777 42.3022C675.363 41.4559 675.656 40.3288 675.656 38.9209V38.1152C675.656 37.0247 675.416 36.1336 674.936 35.4419C674.464 34.742 673.853 34.3921 673.104 34.3921H672.86C671.99 34.3921 671.257 34.8234 670.663 35.686C670.077 36.5487 669.784 37.5781 669.784 38.7744L669.76 39.0552V39.8486ZM672.519 45.2319H672.128C670.704 45.2319 669.544 44.7355 668.649 43.7427C667.754 42.7498 667.306 41.342 667.306 39.519L667.318 39.3115C667.318 37.3096 667.847 35.7308 668.905 34.5752C669.459 33.9648 670.089 33.5173 670.797 33.2324C671.514 32.9395 672.193 32.793 672.836 32.793H673.434C674.15 32.793 674.838 32.9517 675.497 33.269C677.385 34.1805 678.329 35.8976 678.329 38.4204V38.6157C678.321 39.4377 678.187 40.2718 677.926 41.1182C677.405 42.7865 676.404 43.9665 674.923 44.6582C674.101 45.0407 673.3 45.2319 672.519 45.2319ZM337.24 69.9219V69.3604C337.24 68.335 337.399 67.4276 337.716 66.6382C338.327 65.1082 339.263 64.0503 340.524 63.4644C341.346 63.0737 342.196 62.8784 343.075 62.8784H343.344C344.312 62.8784 345.114 63.0697 345.749 63.4521C346.383 63.8346 346.701 64.3026 346.701 64.856C346.701 65.4989 346.391 65.8203 345.773 65.8203C345.659 65.8203 345.26 65.6413 344.577 65.2832C343.893 64.9333 343.332 64.7583 342.892 64.7583C342.884 64.7583 342.876 64.7583 342.868 64.7583C341.907 64.7583 341.155 65.1733 340.609 66.0034C340.072 66.8335 339.804 67.9159 339.804 69.2505C339.804 70.5851 340.089 71.5739 340.658 72.2168C341.236 72.8597 342.038 73.1812 343.063 73.1812C343.486 73.1812 344.068 73.0632 344.809 72.8271C345.549 72.583 346.001 72.4609 346.164 72.4609C346.497 72.4609 346.664 72.6359 346.664 72.9858C346.664 73.4578 346.196 73.9339 345.26 74.4141C344.324 74.8942 343.405 75.1343 342.501 75.1343C340.084 75.1343 338.485 74.1821 337.704 72.2778C337.395 71.521 337.24 70.7357 337.24 69.9219ZM350.753 74.7681C349.793 74.7681 349.313 74.4263 349.313 73.7427C349.313 73.4334 349.386 72.9736 349.533 72.3633C349.687 71.7529 349.789 71.1914 349.838 70.6787C349.887 70.1579 349.972 68.4814 350.094 65.6494C350.224 62.8174 350.29 61.0921 350.29 60.4736V59.0332L350.216 58.0078C350.216 57.6253 350.566 57.4341 351.266 57.4341C351.974 57.4341 352.434 57.7067 352.646 58.252C352.751 58.5286 352.804 59.432 352.804 60.9619C352.804 62.4919 352.833 63.3626 352.89 63.5742C352.955 63.7858 353.122 63.8916 353.39 63.8916C353.423 63.8916 353.577 63.8428 353.854 63.7451L354.123 63.6475C354.993 63.3057 355.746 63.1348 356.381 63.1348C357.715 63.1348 358.664 63.6556 359.225 64.6973C359.599 65.389 359.787 66.8945 359.787 69.2139C359.787 70.3044 359.795 70.9513 359.811 71.1548C359.827 71.3582 359.88 71.7285 359.97 72.2656C360.059 72.7946 360.104 73.0876 360.104 73.1445C360.104 73.6247 359.994 73.9827 359.774 74.2188C359.563 74.4466 359.176 74.5605 358.615 74.5605C358.061 74.5605 357.699 74.3896 357.528 74.0479C357.439 73.8688 357.394 73.3521 357.394 72.4976L357.357 70.3491L357.394 68.4082C357.394 66.2354 356.759 65.1489 355.49 65.1489C354.367 65.1489 353.565 65.6209 353.085 66.5649C352.605 67.509 352.365 69.2586 352.365 71.814L352.401 73.1445C352.401 73.6003 352.259 73.9868 351.974 74.3042C351.689 74.6134 351.282 74.7681 350.753 74.7681ZM367.111 73.4619H367.428C368.096 73.4619 368.681 73.2381 369.186 72.7905C369.699 72.3348 369.955 71.8099 369.955 71.2158L369.979 71.0571V70.8984L370.004 70.52V69.8242C370.004 69.3522 369.764 69.1162 369.284 69.1162H368.734L368.649 69.1284L368.173 69.165C367.945 69.1976 367.782 69.2139 367.685 69.2139C367.025 69.2139 366.415 69.4621 365.854 69.9585C365.463 70.3084 365.268 70.8049 365.268 71.4478V71.6919C365.268 72.2371 365.443 72.6685 365.792 72.9858C366.151 73.3032 366.59 73.4619 367.111 73.4619ZM364.389 65.6616C363.843 65.6616 363.571 65.3117 363.571 64.6118C363.571 64.091 364.01 63.6393 364.889 63.2568C365.776 62.8662 366.696 62.6709 367.648 62.6709H368.258C369.08 62.6709 369.805 62.8255 370.431 63.1348C371.058 63.4359 371.534 63.8468 371.859 64.3677C372.193 64.8885 372.396 65.568 372.47 66.4062C372.486 66.6016 372.494 67.5496 372.494 69.2505C372.494 70.9513 372.514 71.932 372.555 72.1924C372.604 72.4447 372.734 72.7539 372.946 73.1201C373.166 73.4863 373.275 73.7874 373.275 74.0234C373.275 74.2594 373.161 74.4629 372.934 74.6338C372.714 74.7965 372.392 74.8779 371.969 74.8779C371.546 74.8779 371.086 74.7762 370.59 74.5728C370.093 74.3612 369.731 74.2554 369.503 74.2554C369.479 74.2554 369.072 74.4019 368.283 74.6948C367.493 74.9797 366.826 75.1221 366.281 75.1221H366.012C365.101 75.1221 364.324 74.8332 363.681 74.2554C363.046 73.6776 362.729 72.8556 362.729 71.7896C362.729 70.7235 363.078 69.8934 363.778 69.2993C364.478 68.6971 365.329 68.2861 366.33 68.0664C366.631 68.0013 367.131 67.9159 367.831 67.8101C368.531 67.7043 369.007 67.5944 369.259 67.4805C369.699 67.277 369.918 66.8945 369.918 66.333C369.918 65.7633 369.731 65.3198 369.357 65.0024C368.983 64.6769 368.535 64.5142 368.014 64.5142C367.501 64.5142 366.826 64.7054 365.988 65.0879C365.15 65.4704 364.617 65.6616 364.389 65.6616ZM387.326 73.5352C387.326 74.1374 386.801 74.4385 385.751 74.4385C385.157 74.4385 384.758 74.2961 384.555 74.0112C384.457 73.8729 384.408 73.5474 384.408 73.0347L384.372 72.2534C384.315 71.3989 384.286 70.5404 384.286 69.6777C384.286 67.8141 384.123 66.5649 383.798 65.9302C383.48 65.2873 382.943 64.9658 382.187 64.9658C381.682 64.9658 381.214 65.1164 380.783 65.4175C380.36 65.7186 380.034 66.1377 379.806 66.6748C379.334 67.7734 379.098 69.8039 379.098 72.7661C379.098 73.4416 378.968 73.9176 378.708 74.1943C378.455 74.471 378.13 74.6094 377.731 74.6094H377.487C376.575 74.6094 376.12 74.2472 376.12 73.5229V73.23C376.12 73.1405 376.168 72.9451 376.266 72.644L376.461 72.0825C376.657 71.4233 376.754 70.0114 376.754 67.8467L376.815 64.2212C376.815 63.7573 377.068 63.5254 377.572 63.5254C378.077 63.5254 378.573 63.6922 379.062 64.0259C379.558 64.3595 379.871 64.5264 380.001 64.5264C380.14 64.5264 380.38 64.4328 380.722 64.2456C381.869 63.619 382.789 63.3057 383.48 63.3057H383.798C385.043 63.3057 385.918 63.8672 386.422 64.9902C386.667 65.5192 386.789 66.6585 386.789 68.4082V68.4937C386.789 68.6401 386.785 68.7866 386.776 68.9331C386.776 69.3319 386.776 69.5394 386.776 69.5557C386.776 69.7103 386.776 69.8608 386.776 70.0073C386.776 70.1213 386.776 70.2311 386.776 70.3369C386.776 70.9635 386.797 71.3908 386.837 71.6187C386.894 71.9279 386.988 72.2493 387.118 72.583C387.257 72.9492 387.326 73.2666 387.326 73.5352ZM392.318 69.3481V69.7266C392.318 70.8171 392.526 71.6715 392.941 72.29C393.356 72.9085 393.877 73.2178 394.503 73.2178H394.931C395.834 73.2178 396.538 72.8394 397.042 72.0825C397.547 71.3175 397.799 70.2474 397.799 68.8721C397.816 68.7093 397.824 68.5832 397.824 68.4937L397.848 67.9932V67.2607C397.832 67.098 397.824 66.9759 397.824 66.8945C397.824 66.2516 397.669 65.7471 397.36 65.3809C397.051 65.0146 396.595 64.8315 395.993 64.8315H395.651C394.691 64.8315 393.893 65.2344 393.258 66.04C392.632 66.8457 392.318 67.9484 392.318 69.3481ZM399.411 63.8306C400.119 63.8306 400.473 64.3433 400.473 65.3687C400.473 65.6372 400.363 66.7603 400.143 68.7378C399.923 70.7153 399.813 72.3958 399.813 73.7793C399.813 75.179 399.72 76.2288 399.533 76.9287C399.134 78.4342 398.21 79.5003 396.762 80.127C396.005 80.4525 395.167 80.6152 394.247 80.6152C393.336 80.6152 392.522 80.4525 391.806 80.127C391.098 79.8014 390.744 79.4108 390.744 78.9551C390.744 78.4342 391.094 78.1738 391.793 78.1738C391.932 78.1738 392.306 78.2267 392.917 78.3325C393.527 78.4383 393.966 78.4912 394.235 78.4912C395.22 78.4912 396.025 78.182 396.652 77.5635C397.287 76.9531 397.604 76.1678 397.604 75.2075C397.604 74.703 397.417 74.4507 397.042 74.4507C396.977 74.4507 396.823 74.4751 396.579 74.5239C395.887 74.6623 395.256 74.7314 394.687 74.7314C393.238 74.7314 392.147 74.292 391.415 73.4131C391.073 73.0062 390.78 72.465 390.536 71.7896C390.3 71.106 390.182 70.3857 390.182 69.6289V69.2871C390.182 68.4896 390.312 67.7043 390.573 66.9312C390.841 66.1499 391.195 65.4948 391.635 64.9658C392.074 64.4287 392.648 64.0096 393.356 63.7085C394.064 63.4074 394.788 63.2568 395.529 63.2568H395.846C396.261 63.2568 396.794 63.3708 397.445 63.5986C398.104 63.8184 398.507 63.9282 398.654 63.9282C398.979 63.8631 399.232 63.8306 399.411 63.8306ZM405.893 67.5781V67.7734C405.893 68.0176 406.116 68.1396 406.564 68.1396H406.857L406.93 68.1274L407.528 68.0786C408.155 67.9891 408.562 67.9443 408.749 67.9443C409.636 67.9443 410.303 67.7775 410.751 67.4438C410.963 67.2811 411.068 66.9922 411.068 66.5771V66.4429C411.068 65.8325 410.865 65.3483 410.458 64.9902C410.059 64.6322 409.579 64.4531 409.018 64.4531H408.932L408.859 64.4653C408.069 64.4653 407.378 64.799 406.784 65.4663C406.19 66.1336 405.893 66.8376 405.893 67.5781ZM408.554 75.1587H408.285C406.731 75.1587 405.494 74.6663 404.574 73.6816C403.655 72.6888 403.195 71.3664 403.195 69.7144V69.1772C403.195 68.3879 403.349 67.5863 403.659 66.7725C404.285 65.1449 405.307 64.0218 406.723 63.4033C407.471 63.0697 408.232 62.9028 409.005 62.9028H409.53C410.596 62.9028 411.496 63.2609 412.228 63.9771C412.969 64.6851 413.339 65.6006 413.339 66.7236V66.9678C413.339 67.7653 413.021 68.3309 412.387 68.6646C411.947 68.9006 410.922 69.1366 409.311 69.3726C407.699 69.6086 406.82 69.751 406.674 69.7998C406.186 69.9707 405.941 70.2962 405.941 70.7764C405.941 71.4437 406.226 72.0133 406.796 72.4854C407.366 72.9574 408.131 73.1934 409.091 73.1934C409.538 73.1934 410.149 73.0713 410.922 72.8271C411.695 72.583 412.143 72.4609 412.265 72.4609C412.68 72.4609 412.887 72.64 412.887 72.998C412.887 73.4782 412.419 73.9583 411.483 74.4385C410.548 74.9186 409.571 75.1587 408.554 75.1587ZM417.709 75.1953H417.331C416.924 75.1953 416.606 75.1017 416.378 74.9146C416.159 74.7274 416.049 74.4792 416.049 74.1699C416.033 74.1048 416.024 74.0519 416.024 74.0112L416 73.8037V73.584L416.012 73.5352V73.4253C416.028 73.3602 416.037 73.3073 416.037 73.2666C416.037 72.9004 416.159 72.6156 416.403 72.4121C416.655 72.2005 416.932 72.0947 417.233 72.0947L417.489 72.0581H417.819C418.706 72.0581 419.149 72.522 419.149 73.4497V73.6206L419.101 74.0356C419.101 74.41 418.958 74.6989 418.673 74.9023C418.397 75.0977 418.075 75.1953 417.709 75.1953Z" fill="black"/>
</svg>
