<svg width="758" height="87" viewBox="0 0 758 87" fill="none" xmlns="http://www.w3.org/2000/svg">
<rect width="758" height="87" rx="18" fill="#D9D9D9"/>
<path d="M29.452 53.1172C29.102 53.1172 28.927 52.9422 28.927 52.5922V30.6052L26.113 30.7102C25.763 30.7102 25.588 30.5352 25.588 30.1852V25.6492C25.588 25.2992 25.763 25.1242 26.113 25.1242H35.395C35.745 25.1242 35.92 25.2992 35.92 25.6492V52.5922C35.92 52.9422 35.745 53.1172 35.395 53.1172H29.452Z" fill="#2ECC71"/>
<path d="M99.875 28.5825C99.875 27.7443 100.477 27.3252 101.682 27.3252C101.958 27.3252 102.227 27.431 102.487 27.6426C102.748 27.8542 102.878 28.1471 102.878 28.5215C102.878 28.8958 102.76 29.3923 102.524 30.0107C102.288 30.6292 102.141 31.2152 102.084 31.7686C102.028 32.3219 101.901 34.2425 101.706 37.5303C101.511 40.818 101.385 42.584 101.328 42.8281C101.214 43.3164 100.974 43.5605 100.607 43.5605C99.8831 43.5605 99.1507 43.0845 98.4102 42.1323C98.2393 41.9126 97.1203 40.11 95.0532 36.7246C92.9943 33.3311 91.7858 31.6343 91.4277 31.6343L91.269 31.7319C91.2039 31.8296 91.147 32.0737 91.0981 32.4644C90.8377 34.6942 90.7075 37.1071 90.7075 39.7031C90.7075 39.9798 90.7238 40.2809 90.7563 40.6064L90.8052 41.0215C90.854 41.4284 90.8784 41.6807 90.8784 41.7783C90.8784 42.3398 90.6872 42.7915 90.3047 43.1333C89.9303 43.4751 89.4909 43.646 88.9863 43.646H88.5713C88.0586 43.646 87.8022 43.4548 87.8022 43.0723C87.8022 42.6816 87.9121 42.2463 88.1318 41.7661C88.3516 41.286 88.498 40.7407 88.5713 40.1304C88.9212 37.1925 89.0962 34.0391 89.0962 30.6699C89.0962 30.0921 89.0555 29.612 88.9741 29.2295L88.8643 28.8145L88.7422 28.436C88.6771 28.2082 88.6445 27.9844 88.6445 27.7646C88.6445 27.4635 88.9334 27.313 89.5112 27.313C90.618 27.313 91.6068 27.8013 92.4775 28.7778C93.3564 29.7463 94.6789 31.6628 96.4448 34.5273C98.2108 37.3919 99.1629 38.8242 99.3013 38.8242L99.4722 38.7754C99.521 38.7021 99.5698 38.4417 99.6187 37.9941C99.9198 35.1702 100.07 32.6922 100.07 30.5601C100.07 30.3729 100.05 30.0881 100.009 29.7056L99.9604 29.3149C99.9035 28.9162 99.875 28.672 99.875 28.5825ZM107.492 36.5781V36.7734C107.492 37.0176 107.716 37.1396 108.164 37.1396H108.457L108.53 37.1274L109.128 37.0786C109.755 36.9891 110.161 36.9443 110.349 36.9443C111.236 36.9443 111.903 36.7775 112.351 36.4438C112.562 36.2811 112.668 35.9922 112.668 35.5771V35.4429C112.668 34.8325 112.465 34.3483 112.058 33.9902C111.659 33.6322 111.179 33.4531 110.617 33.4531H110.532L110.458 33.4653C109.669 33.4653 108.977 33.799 108.383 34.4663C107.789 35.1336 107.492 35.8376 107.492 36.5781ZM110.153 44.1587H109.885C108.33 44.1587 107.093 43.6663 106.174 42.6816C105.254 41.6888 104.794 40.3664 104.794 38.7144V38.1772C104.794 37.3879 104.949 36.5863 105.258 35.7725C105.885 34.1449 106.906 33.0218 108.322 32.4033C109.071 32.0697 109.832 31.9028 110.605 31.9028H111.13C112.196 31.9028 113.095 32.2609 113.828 32.9771C114.568 33.6851 114.938 34.6006 114.938 35.7236V35.9678C114.938 36.7653 114.621 37.3309 113.986 37.6646C113.547 37.9006 112.521 38.1366 110.91 38.3726C109.299 38.6086 108.42 38.751 108.273 38.7998C107.785 38.9707 107.541 39.2962 107.541 39.7764C107.541 40.4437 107.826 41.0133 108.396 41.4854C108.965 41.9574 109.73 42.1934 110.69 42.1934C111.138 42.1934 111.748 42.0713 112.521 41.8271C113.295 41.583 113.742 41.4609 113.864 41.4609C114.279 41.4609 114.487 41.64 114.487 41.998C114.487 42.4782 114.019 42.9583 113.083 43.4385C112.147 43.9186 111.171 44.1587 110.153 44.1587ZM119.748 38.3481V38.7266C119.748 39.8171 119.956 40.6715 120.371 41.29C120.786 41.9085 121.306 42.2178 121.933 42.2178H122.36C123.264 42.2178 123.968 41.8394 124.472 41.0825C124.977 40.3175 125.229 39.2474 125.229 37.8721C125.245 37.7093 125.253 37.5832 125.253 37.4937L125.278 36.9932V36.2607C125.262 36.098 125.253 35.9759 125.253 35.8945C125.253 35.2516 125.099 34.7471 124.79 34.3809C124.48 34.0146 124.025 33.8315 123.422 33.8315H123.081C122.12 33.8315 121.323 34.2344 120.688 35.04C120.061 35.8457 119.748 36.9484 119.748 38.3481ZM126.84 32.8306C127.548 32.8306 127.902 33.3433 127.902 34.3687C127.902 34.6372 127.792 35.7603 127.573 37.7378C127.353 39.7153 127.243 41.3958 127.243 42.7793C127.243 44.179 127.15 45.2288 126.962 45.9287C126.564 47.4342 125.64 48.5003 124.191 49.127C123.435 49.4525 122.596 49.6152 121.677 49.6152C120.765 49.6152 119.951 49.4525 119.235 49.127C118.527 48.8014 118.173 48.4108 118.173 47.9551C118.173 47.4342 118.523 47.1738 119.223 47.1738C119.361 47.1738 119.736 47.2267 120.346 47.3325C120.957 47.4383 121.396 47.4912 121.665 47.4912C122.649 47.4912 123.455 47.182 124.082 46.5635C124.716 45.9531 125.034 45.1678 125.034 44.2075C125.034 43.703 124.847 43.4507 124.472 43.4507C124.407 43.4507 124.252 43.4751 124.008 43.5239C123.317 43.6623 122.686 43.7314 122.116 43.7314C120.668 43.7314 119.577 43.292 118.845 42.4131C118.503 42.0062 118.21 41.465 117.966 40.7896C117.73 40.106 117.612 39.3857 117.612 38.6289V38.2871C117.612 37.4896 117.742 36.7043 118.002 35.9312C118.271 35.1499 118.625 34.4948 119.064 33.9658C119.504 33.4287 120.078 33.0096 120.786 32.7085C121.494 32.4074 122.218 32.2568 122.958 32.2568H123.276C123.691 32.2568 124.224 32.3708 124.875 32.5986C125.534 32.8184 125.937 32.9282 126.083 32.9282C126.409 32.8631 126.661 32.8306 126.84 32.8306ZM131.821 27.0322C131.821 26.4382 132.378 26.1411 133.493 26.1411H133.713C134.177 26.1411 134.494 26.255 134.665 26.4829C134.836 26.7026 134.921 27.134 134.921 27.7769L134.824 29.5957C134.799 29.8805 134.787 30.0352 134.787 30.0596L134.763 30.5234C134.746 30.8245 134.73 31.1297 134.714 31.439L134.677 31.9028L134.641 32.5986C134.51 35.0726 134.445 36.8996 134.445 38.0796C134.445 39.2515 134.498 40.0938 134.604 40.6064C134.71 41.1191 134.877 41.5545 135.104 41.9126C135.332 42.2707 135.446 42.5067 135.446 42.6206V42.7671C135.446 43.1252 135.267 43.41 134.909 43.6216C134.559 43.8332 134.083 43.939 133.481 43.939H132.846C132.472 43.939 132.142 43.8332 131.857 43.6216C131.581 43.4019 131.442 43.1536 131.442 42.877V42.5474L131.516 42.0347C131.613 41.3267 131.67 40.7977 131.687 40.4478C131.711 40.0897 131.748 39.5973 131.796 38.9707C131.845 38.3359 131.923 36.9891 132.028 34.9302C132.142 32.8631 132.199 31.7523 132.199 31.5977L132.248 30.6821L132.272 29.7788C132.272 28.9162 132.195 28.3018 132.041 27.9355C131.894 27.5612 131.821 27.2601 131.821 27.0322ZM142.294 28.1309V28.2773C142.294 28.6924 142.172 29.0464 141.928 29.3394C141.692 29.6242 141.326 29.7666 140.83 29.7666H140.634L140.256 29.7178C140.036 29.7178 139.825 29.616 139.621 29.4126C139.418 29.2091 139.316 28.904 139.316 28.4971V28.3506L139.377 27.9111C139.377 27.7402 139.479 27.5286 139.682 27.2764C139.894 27.0241 140.162 26.8979 140.488 26.8979L140.769 26.8613H141.013L141.354 26.9102C141.566 26.9102 141.774 27.016 141.977 27.2275C142.189 27.431 142.294 27.7321 142.294 28.1309ZM141.721 33.2822L141.586 36.5659L141.562 36.8955L141.525 37.8965V38.3726C141.525 39.5444 141.558 40.3135 141.623 40.6797C141.696 41.0459 141.831 41.404 142.026 41.7539C142.221 42.0957 142.319 42.3439 142.319 42.4985V42.6084C142.319 43.0072 142.115 43.3245 141.708 43.5605C141.302 43.7965 140.748 43.9146 140.048 43.9146H139.743C139.336 43.9146 139.027 43.825 138.815 43.646C138.604 43.4588 138.498 43.2594 138.498 43.0479V42.7793C138.498 42.6735 138.592 42.2992 138.779 41.6562C138.966 41.0052 139.06 40.1222 139.06 39.0073C139.084 38.6899 139.096 38.4702 139.096 38.3481L139.133 37.6768L139.157 37.3472C139.198 36.7775 139.218 36.334 139.218 36.0166L139.23 35.5283C139.23 34.918 139.129 34.3768 138.925 33.9048C138.73 33.4328 138.632 33.1398 138.632 33.0259C138.632 32.4399 139.186 32.147 140.292 32.147H140.732C141.147 32.147 141.416 32.2568 141.538 32.4766C141.66 32.6882 141.721 32.9567 141.721 33.2822ZM147.482 38.3481V38.7266C147.482 39.8171 147.69 40.6715 148.105 41.29C148.52 41.9085 149.041 42.2178 149.667 42.2178H150.095C150.998 42.2178 151.702 41.8394 152.207 41.0825C152.711 40.3175 152.963 39.2474 152.963 37.8721C152.98 37.7093 152.988 37.5832 152.988 37.4937L153.012 36.9932V36.2607C152.996 36.098 152.988 35.9759 152.988 35.8945C152.988 35.2516 152.833 34.7471 152.524 34.3809C152.215 34.0146 151.759 33.8315 151.157 33.8315H150.815C149.855 33.8315 149.057 34.2344 148.422 35.04C147.796 35.8457 147.482 36.9484 147.482 38.3481ZM154.575 32.8306C155.283 32.8306 155.637 33.3433 155.637 34.3687C155.637 34.6372 155.527 35.7603 155.307 37.7378C155.087 39.7153 154.978 41.3958 154.978 42.7793C154.978 44.179 154.884 45.2288 154.697 45.9287C154.298 47.4342 153.374 48.5003 151.926 49.127C151.169 49.4525 150.331 49.6152 149.411 49.6152C148.5 49.6152 147.686 49.4525 146.97 49.127C146.262 48.8014 145.908 48.4108 145.908 47.9551C145.908 47.4342 146.258 47.1738 146.958 47.1738C147.096 47.1738 147.47 47.2267 148.081 47.3325C148.691 47.4383 149.13 47.4912 149.399 47.4912C150.384 47.4912 151.189 47.182 151.816 46.5635C152.451 45.9531 152.768 45.1678 152.768 44.2075C152.768 43.703 152.581 43.4507 152.207 43.4507C152.141 43.4507 151.987 43.4751 151.743 43.5239C151.051 43.6623 150.42 43.7314 149.851 43.7314C148.402 43.7314 147.312 43.292 146.579 42.4131C146.237 42.0062 145.944 41.465 145.7 40.7896C145.464 40.106 145.346 39.3857 145.346 38.6289V38.2871C145.346 37.4896 145.476 36.7043 145.737 35.9312C146.005 35.1499 146.359 34.4948 146.799 33.9658C147.238 33.4287 147.812 33.0096 148.52 32.7085C149.228 32.4074 149.952 32.2568 150.693 32.2568H151.01C151.425 32.2568 151.958 32.3708 152.609 32.5986C153.269 32.8184 153.671 32.9282 153.818 32.9282C154.143 32.8631 154.396 32.8306 154.575 32.8306ZM161.057 36.5781V36.7734C161.057 37.0176 161.28 37.1396 161.728 37.1396H162.021L162.094 37.1274L162.692 37.0786C163.319 36.9891 163.726 36.9443 163.913 36.9443C164.8 36.9443 165.467 36.7775 165.915 36.4438C166.127 36.2811 166.232 35.9922 166.232 35.5771V35.4429C166.232 34.8325 166.029 34.3483 165.622 33.9902C165.223 33.6322 164.743 33.4531 164.182 33.4531H164.096L164.023 33.4653C163.234 33.4653 162.542 33.799 161.948 34.4663C161.354 35.1336 161.057 35.8376 161.057 36.5781ZM163.718 44.1587H163.449C161.895 44.1587 160.658 43.6663 159.738 42.6816C158.819 41.6888 158.359 40.3664 158.359 38.7144V38.1772C158.359 37.3879 158.514 36.5863 158.823 35.7725C159.449 34.1449 160.471 33.0218 161.887 32.4033C162.635 32.0697 163.396 31.9028 164.169 31.9028H164.694C165.76 31.9028 166.66 32.2609 167.392 32.9771C168.133 33.6851 168.503 34.6006 168.503 35.7236V35.9678C168.503 36.7653 168.186 37.3309 167.551 37.6646C167.111 37.9006 166.086 38.1366 164.475 38.3726C162.863 38.6086 161.984 38.751 161.838 38.7998C161.35 38.9707 161.105 39.2962 161.105 39.7764C161.105 40.4437 161.39 41.0133 161.96 41.4854C162.53 41.9574 163.295 42.1934 164.255 42.1934C164.702 42.1934 165.313 42.0713 166.086 41.8271C166.859 41.583 167.307 41.4609 167.429 41.4609C167.844 41.4609 168.051 41.64 168.051 41.998C168.051 42.4782 167.583 42.9583 166.647 43.4385C165.712 43.9186 164.735 44.1587 163.718 44.1587ZM182.358 42.5352C182.358 43.1374 181.833 43.4385 180.783 43.4385C180.189 43.4385 179.79 43.2961 179.587 43.0112C179.489 42.8729 179.44 42.5474 179.44 42.0347L179.404 41.2534C179.347 40.3989 179.318 39.5404 179.318 38.6777C179.318 36.8141 179.156 35.5649 178.83 34.9302C178.513 34.2873 177.976 33.9658 177.219 33.9658C176.714 33.9658 176.246 34.1164 175.815 34.4175C175.392 34.7186 175.066 35.1377 174.838 35.6748C174.366 36.7734 174.13 38.8039 174.13 41.7661C174.13 42.4416 174 42.9176 173.74 43.1943C173.487 43.471 173.162 43.6094 172.763 43.6094H172.519C171.608 43.6094 171.152 43.2472 171.152 42.5229V42.23C171.152 42.1405 171.201 41.9451 171.298 41.644L171.494 41.0825C171.689 40.4233 171.787 39.0114 171.787 36.8467L171.848 33.2212C171.848 32.7573 172.1 32.5254 172.604 32.5254C173.109 32.5254 173.605 32.6922 174.094 33.0259C174.59 33.3595 174.903 33.5264 175.034 33.5264C175.172 33.5264 175.412 33.4328 175.754 33.2456C176.901 32.619 177.821 32.3057 178.513 32.3057H178.83C180.075 32.3057 180.95 32.8672 181.455 33.9902C181.699 34.5192 181.821 35.6585 181.821 37.4082V37.4937C181.821 37.6401 181.817 37.7866 181.809 37.9331C181.809 38.3319 181.809 38.5394 181.809 38.5557C181.809 38.7103 181.809 38.8608 181.809 39.0073C181.809 39.1213 181.809 39.2311 181.809 39.3369C181.809 39.9635 181.829 40.3908 181.87 40.6187C181.927 40.9279 182.02 41.2493 182.15 41.583C182.289 41.9492 182.358 42.2666 182.358 42.5352ZM191.525 42.6938C191.525 43.0194 191.326 43.3123 190.927 43.5728C190.537 43.825 190.004 43.9512 189.328 43.9512C188.067 43.9512 187.18 43.4832 186.667 42.5474C186.35 41.9614 186.191 40.5902 186.191 38.4336C186.191 36.277 186.154 35.0238 186.081 34.6738C186.008 34.3239 185.804 33.9821 185.471 33.6484C185.137 33.3148 184.97 33.0584 184.97 32.8794C184.97 32.8143 185.365 32.387 186.154 31.5977C186.325 31.4268 186.496 31.0483 186.667 30.4624C186.846 29.8765 186.972 29.4899 187.045 29.3027C187.29 28.7168 187.611 28.4238 188.01 28.4238H188.205C188.555 28.4238 188.803 28.5581 188.95 28.8267C189.007 28.9325 189.092 29.3149 189.206 29.9741C189.328 30.6252 189.466 31.0443 189.621 31.2314C189.776 31.4186 190.162 31.6261 190.781 31.854C191.407 32.0737 191.721 32.3097 191.721 32.562V32.6963C191.721 33.0218 191.363 33.2985 190.646 33.5264C189.938 33.7461 189.483 34.1001 189.279 34.5884C188.881 35.5731 188.681 37.1763 188.681 39.3979C188.681 40.4396 188.86 41.1476 189.218 41.522C189.438 41.7498 189.877 41.9085 190.537 41.998C191.196 42.0876 191.525 42.3195 191.525 42.6938ZM212.778 43.3774C212.2 43.3774 211.7 43.0153 211.276 42.291C211 41.8109 210.56 40.8343 209.958 39.3613C209.364 37.8802 209.026 37.1396 208.945 37.1396C208.92 37.1396 208.583 37.8314 207.932 39.2148C207.281 40.5902 206.796 41.5342 206.479 42.0469C205.974 42.8525 205.49 43.2554 205.026 43.2554C204.733 43.2554 204.424 43.1414 204.099 42.9136C203.781 42.6776 203.525 42.2951 203.33 41.7661C203.305 41.701 203.118 41.0011 202.768 39.6665C202.426 38.3319 202.072 37.0786 201.706 35.9067C201.348 34.7349 201.169 33.9414 201.169 33.5264C201.169 33.1113 201.258 32.8143 201.438 32.6353C201.617 32.4562 201.8 32.3667 201.987 32.3667C202.744 32.3667 203.277 32.68 203.586 33.3066C203.7 33.5345 203.846 34.1042 204.025 35.0156C204.88 38.3604 205.454 40.1344 205.747 40.3379C206.056 40.3379 206.507 39.3044 207.102 37.2373C207.346 36.391 207.504 35.63 207.578 34.9546C207.659 34.2791 207.712 33.8885 207.736 33.7827L207.846 33.3921C208.09 32.7492 208.575 32.4277 209.299 32.4277C210.031 32.4277 210.54 32.798 210.825 33.5386C210.939 33.8397 211.044 34.3687 211.142 35.1255C211.24 35.8742 211.378 36.627 211.557 37.3838C212.005 39.3206 212.359 40.2891 212.619 40.2891C212.937 40.2891 213.433 39.2759 214.108 37.2495C214.32 36.6147 214.54 35.8376 214.768 34.918C215.004 33.9984 215.166 33.445 215.256 33.2578C215.549 32.68 216.013 32.3911 216.647 32.3911C216.981 32.3911 217.148 32.7166 217.148 33.3677C217.148 33.7502 216.733 35.2069 215.903 37.7378C215.073 40.2606 214.572 41.7051 214.401 42.0713C214.23 42.4294 213.986 42.7386 213.669 42.999C213.352 43.2513 213.055 43.3774 212.778 43.3774ZM223.715 28.1309V28.2773C223.715 28.6924 223.593 29.0464 223.349 29.3394C223.113 29.6242 222.747 29.7666 222.25 29.7666H222.055L221.677 29.7178C221.457 29.7178 221.245 29.616 221.042 29.4126C220.839 29.2091 220.737 28.904 220.737 28.4971V28.3506L220.798 27.9111C220.798 27.7402 220.9 27.5286 221.103 27.2764C221.315 27.0241 221.583 26.8979 221.909 26.8979L222.189 26.8613H222.434L222.775 26.9102C222.987 26.9102 223.194 27.016 223.398 27.2275C223.61 27.431 223.715 27.7321 223.715 28.1309ZM223.142 33.2822L223.007 36.5659L222.983 36.8955L222.946 37.8965V38.3726C222.946 39.5444 222.979 40.3135 223.044 40.6797C223.117 41.0459 223.251 41.404 223.447 41.7539C223.642 42.0957 223.74 42.3439 223.74 42.4985V42.6084C223.74 43.0072 223.536 43.3245 223.129 43.5605C222.722 43.7965 222.169 43.9146 221.469 43.9146H221.164C220.757 43.9146 220.448 43.825 220.236 43.646C220.025 43.4588 219.919 43.2594 219.919 43.0479V42.7793C219.919 42.6735 220.013 42.2992 220.2 41.6562C220.387 41.0052 220.48 40.1222 220.48 39.0073C220.505 38.6899 220.517 38.4702 220.517 38.3481L220.554 37.6768L220.578 37.3472C220.619 36.7775 220.639 36.334 220.639 36.0166L220.651 35.5283C220.651 34.918 220.55 34.3768 220.346 33.9048C220.151 33.4328 220.053 33.1398 220.053 33.0259C220.053 32.4399 220.607 32.147 221.713 32.147H222.153C222.568 32.147 222.836 32.2568 222.958 32.4766C223.081 32.6882 223.142 32.9567 223.142 33.2822ZM233.127 42.6938C233.127 43.0194 232.928 43.3123 232.529 43.5728C232.138 43.825 231.605 43.9512 230.93 43.9512C229.668 43.9512 228.781 43.4832 228.269 42.5474C227.951 41.9614 227.792 40.5902 227.792 38.4336C227.792 36.277 227.756 35.0238 227.683 34.6738C227.609 34.3239 227.406 33.9821 227.072 33.6484C226.739 33.3148 226.572 33.0584 226.572 32.8794C226.572 32.8143 226.966 32.387 227.756 31.5977C227.927 31.4268 228.098 31.0483 228.269 30.4624C228.448 29.8765 228.574 29.4899 228.647 29.3027C228.891 28.7168 229.213 28.4238 229.611 28.4238H229.807C230.157 28.4238 230.405 28.5581 230.551 28.8267C230.608 28.9325 230.694 29.3149 230.808 29.9741C230.93 30.6252 231.068 31.0443 231.223 31.2314C231.377 31.4186 231.764 31.6261 232.382 31.854C233.009 32.0737 233.322 32.3097 233.322 32.562V32.6963C233.322 33.0218 232.964 33.2985 232.248 33.5264C231.54 33.7461 231.084 34.1001 230.881 34.5884C230.482 35.5731 230.283 37.1763 230.283 39.3979C230.283 40.4396 230.462 41.1476 230.82 41.522C231.04 41.7498 231.479 41.9085 232.138 41.998C232.797 42.0876 233.127 42.3195 233.127 42.6938ZM237.412 43.7681C236.451 43.7681 235.971 43.4263 235.971 42.7427C235.971 42.4334 236.044 41.9736 236.191 41.3633C236.346 40.7529 236.447 40.1914 236.496 39.6787C236.545 39.1579 236.63 37.4814 236.752 34.6494C236.883 31.8174 236.948 30.0921 236.948 29.4736V28.0332L236.875 27.0078C236.875 26.6253 237.224 26.4341 237.924 26.4341C238.632 26.4341 239.092 26.7067 239.304 27.252C239.41 27.5286 239.462 28.432 239.462 29.9619C239.462 31.4919 239.491 32.3626 239.548 32.5742C239.613 32.7858 239.78 32.8916 240.048 32.8916C240.081 32.8916 240.236 32.8428 240.512 32.7451L240.781 32.6475C241.652 32.3057 242.404 32.1348 243.039 32.1348C244.374 32.1348 245.322 32.6556 245.883 33.6973C246.258 34.389 246.445 35.8945 246.445 38.2139C246.445 39.3044 246.453 39.9513 246.469 40.1548C246.486 40.3582 246.538 40.7285 246.628 41.2656C246.717 41.7946 246.762 42.0876 246.762 42.1445C246.762 42.6247 246.652 42.9827 246.433 43.2188C246.221 43.4466 245.834 43.5605 245.273 43.5605C244.72 43.5605 244.357 43.3896 244.187 43.0479C244.097 42.8688 244.052 42.3521 244.052 41.4976L244.016 39.3491L244.052 37.4082C244.052 35.2354 243.417 34.1489 242.148 34.1489C241.025 34.1489 240.223 34.6209 239.743 35.5649C239.263 36.509 239.023 38.2586 239.023 40.814L239.06 42.1445C239.06 42.6003 238.917 42.9868 238.632 43.3042C238.347 43.6134 237.941 43.7681 237.412 43.7681ZM257.639 37.1885C257.142 36.6839 256.894 35.9759 256.894 35.0645C256.894 34.153 257.301 33.3717 258.115 32.7207C258.929 32.0615 259.938 31.7319 261.142 31.7319H261.459C262.526 31.7319 263.372 31.8825 263.999 32.1836C264.633 32.4847 264.951 32.9364 264.951 33.5386C264.951 34.1326 264.686 34.4297 264.157 34.4297C264.019 34.4297 263.628 34.2669 262.985 33.9414C262.342 33.6077 261.736 33.4409 261.167 33.4409C260.597 33.4409 260.137 33.5711 259.787 33.8315C259.445 34.0838 259.274 34.4338 259.274 34.8813C259.274 35.3289 259.514 35.7196 259.995 36.0532C260.271 36.2485 260.922 36.5578 261.948 36.981C262.981 37.4041 263.718 37.811 264.157 38.2017C264.865 38.8283 265.219 39.6299 265.219 40.6064C265.219 41.583 264.804 42.4212 263.974 43.1211C263.144 43.8128 262.066 44.1587 260.739 44.1587H260.422C259.087 44.1587 258.086 43.9674 257.419 43.585C256.752 43.1943 256.418 42.6898 256.418 42.0713C256.418 41.4447 256.678 41.1313 257.199 41.1313C257.37 41.1313 257.814 41.3511 258.53 41.7905C259.254 42.23 259.962 42.4497 260.654 42.4497C261.354 42.4497 261.879 42.3032 262.229 42.0103C262.578 41.7091 262.753 41.3348 262.753 40.8872C262.753 40.4315 262.534 40.0327 262.094 39.6909C261.858 39.5037 261.183 39.166 260.068 38.6777C258.953 38.1813 258.143 37.6849 257.639 37.1885ZM274.216 42.6938C274.216 43.0194 274.016 43.3123 273.618 43.5728C273.227 43.825 272.694 43.9512 272.019 43.9512C270.757 43.9512 269.87 43.4832 269.357 42.5474C269.04 41.9614 268.881 40.5902 268.881 38.4336C268.881 36.277 268.845 35.0238 268.771 34.6738C268.698 34.3239 268.495 33.9821 268.161 33.6484C267.827 33.3148 267.661 33.0584 267.661 32.8794C267.661 32.8143 268.055 32.387 268.845 31.5977C269.016 31.4268 269.187 31.0483 269.357 30.4624C269.536 29.8765 269.663 29.4899 269.736 29.3027C269.98 28.7168 270.301 28.4238 270.7 28.4238H270.896C271.245 28.4238 271.494 28.5581 271.64 28.8267C271.697 28.9325 271.783 29.3149 271.896 29.9741C272.019 30.6252 272.157 31.0443 272.312 31.2314C272.466 31.4186 272.853 31.6261 273.471 31.854C274.098 32.0737 274.411 32.3097 274.411 32.562V32.6963C274.411 33.0218 274.053 33.2985 273.337 33.5264C272.629 33.7461 272.173 34.1001 271.97 34.5884C271.571 35.5731 271.372 37.1763 271.372 39.3979C271.372 40.4396 271.551 41.1476 271.909 41.522C272.128 41.7498 272.568 41.9085 273.227 41.998C273.886 42.0876 274.216 42.3195 274.216 42.6938ZM279.099 38.8486C279.099 39.9147 279.343 40.8018 279.831 41.5098C280.319 42.2178 280.917 42.5718 281.625 42.5718H281.992C282.83 42.5718 283.538 42.1486 284.116 41.3022C284.702 40.4559 284.995 39.3288 284.995 37.9209V37.1152C284.995 36.0247 284.755 35.1336 284.274 34.4419C283.802 33.742 283.192 33.3921 282.443 33.3921H282.199C281.328 33.3921 280.596 33.8234 280.002 34.686C279.416 35.5487 279.123 36.5781 279.123 37.7744L279.099 38.0552V38.8486ZM281.857 44.2319H281.467C280.043 44.2319 278.883 43.7355 277.988 42.7427C277.093 41.7498 276.645 40.342 276.645 38.519L276.657 38.3115C276.657 36.3096 277.186 34.7308 278.244 33.5752C278.798 32.9648 279.428 32.5173 280.136 32.2324C280.852 31.9395 281.532 31.793 282.175 31.793H282.773C283.489 31.793 284.177 31.9517 284.836 32.269C286.724 33.1805 287.668 34.8976 287.668 37.4204V37.6157C287.66 38.4377 287.526 39.2718 287.265 40.1182C286.744 41.7865 285.743 42.9665 284.262 43.6582C283.44 44.0407 282.639 44.2319 281.857 44.2319ZM289.816 38.9219V38.3604C289.816 37.335 289.975 36.4276 290.292 35.6382C290.903 34.1082 291.839 33.0503 293.1 32.4644C293.922 32.0737 294.772 31.8784 295.651 31.8784H295.92C296.888 31.8784 297.69 32.0697 298.325 32.4521C298.959 32.8346 299.277 33.3026 299.277 33.856C299.277 34.4989 298.968 34.8203 298.349 34.8203C298.235 34.8203 297.836 34.6413 297.153 34.2832C296.469 33.9333 295.908 33.7583 295.468 33.7583C295.46 33.7583 295.452 33.7583 295.444 33.7583C294.484 33.7583 293.731 34.1733 293.186 35.0034C292.648 35.8335 292.38 36.9159 292.38 38.2505C292.38 39.5851 292.665 40.5739 293.234 41.2168C293.812 41.8597 294.614 42.1812 295.639 42.1812C296.062 42.1812 296.644 42.0632 297.385 41.8271C298.125 41.583 298.577 41.4609 298.74 41.4609C299.073 41.4609 299.24 41.6359 299.24 41.9858C299.24 42.4578 298.772 42.9339 297.836 43.4141C296.901 43.8942 295.981 44.1343 295.078 44.1343C292.661 44.1343 291.062 43.1821 290.28 41.2778C289.971 40.521 289.816 39.7357 289.816 38.9219ZM306.174 38.6533C305.45 38.6533 305.087 39.6095 305.087 41.522C305.087 42.3521 304.917 42.9136 304.575 43.2065C304.233 43.4995 303.822 43.646 303.342 43.646C302.862 43.646 302.52 43.5646 302.316 43.4019C302.121 43.2391 302.023 42.9339 302.023 42.4863C302.023 42.4538 302.068 42.1323 302.158 41.522C302.247 40.9116 302.361 39.0155 302.5 35.8335C302.638 32.6434 302.707 30.6943 302.707 29.9863C302.707 29.2783 302.687 28.8185 302.646 28.6069C302.613 28.3872 302.556 28.1227 302.475 27.8135C302.402 27.5042 302.365 27.3089 302.365 27.2275C302.365 26.8695 302.483 26.6253 302.719 26.4951C302.963 26.3568 303.366 26.2876 303.928 26.2876C304.497 26.2876 304.872 26.4341 305.051 26.7271C305.238 27.02 305.332 27.61 305.332 28.4971L305.173 33.6729C305.173 35.154 305.344 35.8945 305.686 35.8945C305.954 35.8945 306.613 35.3411 307.663 34.2344C308.721 33.1276 309.262 32.5661 309.287 32.5498C309.612 32.3219 310.104 32.208 310.764 32.208C311.423 32.208 311.752 32.3708 311.752 32.6963C311.752 32.859 311.228 33.5467 310.178 34.7593C309.128 35.9718 308.603 36.863 308.603 37.4326C308.603 37.7419 309.201 38.7591 310.397 40.4844C310.829 41.1029 311.236 41.64 311.618 42.0957C312.009 42.5433 312.204 42.8647 312.204 43.0601C312.204 43.467 311.826 43.6704 311.069 43.6704C310.32 43.6704 309.742 43.4548 309.335 43.0234C309.238 42.9176 309.01 42.5596 308.652 41.9492C308.294 41.3389 308.042 40.9116 307.895 40.6675C307.057 39.3247 306.483 38.6533 306.174 38.6533ZM316.794 44.1953H316.416C316.009 44.1953 315.691 44.1017 315.463 43.9146C315.244 43.7274 315.134 43.4792 315.134 43.1699C315.118 43.1048 315.109 43.0519 315.109 43.0112L315.085 42.8037V42.584L315.097 42.5352V42.4253C315.113 42.3602 315.122 42.3073 315.122 42.2666C315.122 41.9004 315.244 41.6156 315.488 41.4121C315.74 41.2005 316.017 41.0947 316.318 41.0947L316.574 41.0581H316.904C317.791 41.0581 318.234 41.522 318.234 42.4497V42.6206L318.186 43.0356C318.186 43.41 318.043 43.6989 317.758 43.9023C317.482 44.0977 317.16 44.1953 316.794 44.1953ZM328.11 36.395V36.0044C328.11 34.7104 328.313 33.4613 328.72 32.2568C329.485 30.0026 330.832 28.4198 332.761 27.5083C333.811 27.0119 334.897 26.7637 336.02 26.7637H336.398C338.099 26.7637 339.308 27.0119 340.024 27.5083C340.74 28.0047 341.098 28.6313 341.098 29.3882C341.098 29.8439 341.009 30.1491 340.83 30.3037C340.651 30.4583 340.476 30.5356 340.305 30.5356C340.142 30.5356 339.788 30.3485 339.243 29.9741C338.706 29.5998 338.185 29.3109 337.68 29.1074C337.176 28.8958 336.545 28.79 335.788 28.79C335.031 28.79 334.344 28.9772 333.725 29.3516C331.87 30.4827 330.938 32.8062 330.93 36.3218C330.93 37.2332 331.052 38.0552 331.296 38.7876C332.036 41.0011 333.514 42.1079 335.727 42.1079C336.801 42.1079 338.038 41.7173 339.438 40.936C339.877 40.6919 340.203 40.5698 340.415 40.5698C340.764 40.5698 340.939 40.7692 340.939 41.168C340.939 41.4202 340.826 41.701 340.598 42.0103C340.199 42.5636 339.678 42.999 339.035 43.3164C337.945 43.8617 336.732 44.1343 335.397 44.1343H335.007C332.924 44.1343 331.247 43.4385 329.978 42.0469C329.375 41.3877 328.911 40.5576 328.586 39.5566C328.269 38.5557 328.11 37.5018 328.11 36.395ZM347.568 42.4619H347.885C348.553 42.4619 349.139 42.2381 349.643 41.7905C350.156 41.3348 350.412 40.8099 350.412 40.2158L350.437 40.0571V39.8984L350.461 39.52V38.8242C350.461 38.3522 350.221 38.1162 349.741 38.1162H349.191L349.106 38.1284L348.63 38.165C348.402 38.1976 348.239 38.2139 348.142 38.2139C347.482 38.2139 346.872 38.4621 346.311 38.9585C345.92 39.3084 345.725 39.8049 345.725 40.4478V40.6919C345.725 41.2371 345.9 41.6685 346.25 41.9858C346.608 42.3032 347.047 42.4619 347.568 42.4619ZM344.846 34.6616C344.3 34.6616 344.028 34.3117 344.028 33.6118C344.028 33.091 344.467 32.6393 345.346 32.2568C346.233 31.8662 347.153 31.6709 348.105 31.6709H348.715C349.537 31.6709 350.262 31.8255 350.888 32.1348C351.515 32.4359 351.991 32.8468 352.316 33.3677C352.65 33.8885 352.854 34.568 352.927 35.4062C352.943 35.6016 352.951 36.5496 352.951 38.2505C352.951 39.9513 352.972 40.932 353.012 41.1924C353.061 41.4447 353.191 41.7539 353.403 42.1201C353.623 42.4863 353.732 42.7874 353.732 43.0234C353.732 43.2594 353.618 43.4629 353.391 43.6338C353.171 43.7965 352.849 43.8779 352.426 43.8779C352.003 43.8779 351.543 43.7762 351.047 43.5728C350.55 43.3612 350.188 43.2554 349.96 43.2554C349.936 43.2554 349.529 43.4019 348.74 43.6948C347.95 43.9797 347.283 44.1221 346.738 44.1221H346.469C345.558 44.1221 344.781 43.8332 344.138 43.2554C343.503 42.6776 343.186 41.8556 343.186 40.7896C343.186 39.7235 343.535 38.8934 344.235 38.2993C344.935 37.6971 345.786 37.2861 346.787 37.0664C347.088 37.0013 347.588 36.9159 348.288 36.8101C348.988 36.7043 349.464 36.5944 349.716 36.4805C350.156 36.277 350.375 35.8945 350.375 35.333C350.375 34.7633 350.188 34.3198 349.814 34.0024C349.44 33.6769 348.992 33.5142 348.471 33.5142C347.958 33.5142 347.283 33.7054 346.445 34.0879C345.607 34.4704 345.074 34.6616 344.846 34.6616ZM356.613 33.0259C356.613 32.5132 357.045 32.2568 357.907 32.2568H358.188C358.725 32.2568 359.087 32.4725 359.274 32.9038C359.462 33.3351 359.555 34.1408 359.555 35.3208L359.409 39.3979C359.409 41.2941 360.088 42.2422 361.447 42.2422C361.944 42.2422 362.42 42.0672 362.875 41.7173C363.331 41.3674 363.669 40.9482 363.889 40.46C364.369 39.3857 364.609 37.4611 364.609 34.686L364.584 34.1489V33.6729C364.584 33.2415 364.682 32.9282 364.877 32.7329C365.073 32.5376 365.415 32.4399 365.903 32.4399C366.391 32.4399 366.713 32.5579 366.867 32.7939C367.022 33.0299 367.099 33.4124 367.099 33.9414L367.075 34.5884L367.026 37.4692C367.026 37.9331 367.054 38.6452 367.111 39.6055C367.168 40.5658 367.229 41.2697 367.294 41.7173C367.36 42.1567 367.392 42.4172 367.392 42.4985C367.392 43.2228 366.859 43.585 365.793 43.585C365.427 43.585 365.061 43.4507 364.694 43.1821C364.336 42.9054 364.08 42.7671 363.925 42.7671C363.779 42.7671 363.527 42.8566 363.168 43.0356C362.151 43.5483 361.285 43.8047 360.568 43.8047H360.263C359.099 43.8047 358.245 43.4466 357.7 42.7305C357.154 42.0143 356.882 40.7244 356.882 38.8608L357.004 35.1621C357.004 34.6982 356.939 34.2547 356.809 33.8315C356.678 33.4084 356.613 33.1398 356.613 33.0259ZM371.335 37.1885C370.839 36.6839 370.59 35.9759 370.59 35.0645C370.59 34.153 370.997 33.3717 371.811 32.7207C372.625 32.0615 373.634 31.7319 374.838 31.7319H375.156C376.222 31.7319 377.068 31.8825 377.695 32.1836C378.33 32.4847 378.647 32.9364 378.647 33.5386C378.647 34.1326 378.382 34.4297 377.854 34.4297C377.715 34.4297 377.325 34.2669 376.682 33.9414C376.039 33.6077 375.432 33.4409 374.863 33.4409C374.293 33.4409 373.833 33.5711 373.483 33.8315C373.142 34.0838 372.971 34.4338 372.971 34.8813C372.971 35.3289 373.211 35.7196 373.691 36.0532C373.968 36.2485 374.619 36.5578 375.644 36.981C376.678 37.4041 377.414 37.811 377.854 38.2017C378.562 38.8283 378.916 39.6299 378.916 40.6064C378.916 41.583 378.5 42.4212 377.67 43.1211C376.84 43.8128 375.762 44.1587 374.436 44.1587H374.118C372.784 44.1587 371.783 43.9674 371.115 43.585C370.448 43.1943 370.114 42.6898 370.114 42.0713C370.114 41.4447 370.375 41.1313 370.896 41.1313C371.066 41.1313 371.51 41.3511 372.226 41.7905C372.95 42.23 373.658 42.4497 374.35 42.4497C375.05 42.4497 375.575 42.3032 375.925 42.0103C376.275 41.7091 376.45 41.3348 376.45 40.8872C376.45 40.4315 376.23 40.0327 375.791 39.6909C375.555 39.5037 374.879 39.166 373.764 38.6777C372.649 38.1813 371.84 37.6849 371.335 37.1885ZM383.762 36.5781V36.7734C383.762 37.0176 383.986 37.1396 384.433 37.1396H384.726L384.799 37.1274L385.397 37.0786C386.024 36.9891 386.431 36.9443 386.618 36.9443C387.505 36.9443 388.173 36.7775 388.62 36.4438C388.832 36.2811 388.938 35.9922 388.938 35.5771V35.4429C388.938 34.8325 388.734 34.3483 388.327 33.9902C387.928 33.6322 387.448 33.4531 386.887 33.4531H386.801L386.728 33.4653C385.939 33.4653 385.247 33.799 384.653 34.4663C384.059 35.1336 383.762 35.8376 383.762 36.5781ZM386.423 44.1587H386.154C384.6 44.1587 383.363 43.6663 382.443 42.6816C381.524 41.6888 381.064 40.3664 381.064 38.7144V38.1772C381.064 37.3879 381.219 36.5863 381.528 35.7725C382.154 34.1449 383.176 33.0218 384.592 32.4033C385.34 32.0697 386.101 31.9028 386.875 31.9028H387.399C388.465 31.9028 389.365 32.2609 390.097 32.9771C390.838 33.6851 391.208 34.6006 391.208 35.7236V35.9678C391.208 36.7653 390.891 37.3309 390.256 37.6646C389.816 37.9006 388.791 38.1366 387.18 38.3726C385.568 38.6086 384.689 38.751 384.543 38.7998C384.055 38.9707 383.811 39.2962 383.811 39.7764C383.811 40.4437 384.095 41.0133 384.665 41.4854C385.235 41.9574 386 42.1934 386.96 42.1934C387.408 42.1934 388.018 42.0713 388.791 41.8271C389.564 41.583 390.012 41.4609 390.134 41.4609C390.549 41.4609 390.756 41.64 390.756 41.998C390.756 42.4782 390.288 42.9583 389.353 43.4385C388.417 43.9186 387.44 44.1587 386.423 44.1587ZM394.724 37.1885C394.227 36.6839 393.979 35.9759 393.979 35.0645C393.979 34.153 394.386 33.3717 395.2 32.7207C396.014 32.0615 397.023 31.7319 398.227 31.7319H398.544C399.611 31.7319 400.457 31.8825 401.083 32.1836C401.718 32.4847 402.036 32.9364 402.036 33.5386C402.036 34.1326 401.771 34.4297 401.242 34.4297C401.104 34.4297 400.713 34.2669 400.07 33.9414C399.427 33.6077 398.821 33.4409 398.251 33.4409C397.682 33.4409 397.222 33.5711 396.872 33.8315C396.53 34.0838 396.359 34.4338 396.359 34.8813C396.359 35.3289 396.599 35.7196 397.08 36.0532C397.356 36.2485 398.007 36.5578 399.033 36.981C400.066 37.4041 400.803 37.811 401.242 38.2017C401.95 38.8283 402.304 39.6299 402.304 40.6064C402.304 41.583 401.889 42.4212 401.059 43.1211C400.229 43.8128 399.151 44.1587 397.824 44.1587H397.507C396.172 44.1587 395.171 43.9674 394.504 43.585C393.837 43.1943 393.503 42.6898 393.503 42.0713C393.503 41.4447 393.763 41.1313 394.284 41.1313C394.455 41.1313 394.899 41.3511 395.615 41.7905C396.339 42.23 397.047 42.4497 397.739 42.4497C398.439 42.4497 398.964 42.3032 399.313 42.0103C399.663 41.7091 399.838 41.3348 399.838 40.8872C399.838 40.4315 399.619 40.0327 399.179 39.6909C398.943 39.5037 398.268 39.166 397.153 38.6777C396.038 38.1813 395.228 37.6849 394.724 37.1885ZM412.46 27.0322C412.46 26.4382 413.018 26.1411 414.133 26.1411H414.353C414.816 26.1411 415.134 26.255 415.305 26.4829C415.476 26.7026 415.561 27.134 415.561 27.7769L415.463 29.5957C415.439 29.8805 415.427 30.0352 415.427 30.0596L415.402 30.5234C415.386 30.8245 415.37 31.1297 415.354 31.439L415.317 31.9028L415.28 32.5986C415.15 35.0726 415.085 36.8996 415.085 38.0796C415.085 39.2515 415.138 40.0938 415.244 40.6064C415.349 41.1191 415.516 41.5545 415.744 41.9126C415.972 42.2707 416.086 42.5067 416.086 42.6206V42.7671C416.086 43.1252 415.907 43.41 415.549 43.6216C415.199 43.8332 414.723 43.939 414.121 43.939H413.486C413.111 43.939 412.782 43.8332 412.497 43.6216C412.22 43.4019 412.082 43.1536 412.082 42.877V42.5474L412.155 42.0347C412.253 41.3267 412.31 40.7977 412.326 40.4478C412.351 40.0897 412.387 39.5973 412.436 38.9707C412.485 38.3359 412.562 36.9891 412.668 34.9302C412.782 32.8631 412.839 31.7523 412.839 31.5977L412.888 30.6821L412.912 29.7788C412.912 28.9162 412.835 28.3018 412.68 27.9355C412.534 27.5612 412.46 27.2601 412.46 27.0322ZM421.042 38.8486C421.042 39.9147 421.286 40.8018 421.774 41.5098C422.263 42.2178 422.861 42.5718 423.569 42.5718H423.935C424.773 42.5718 425.481 42.1486 426.059 41.3022C426.645 40.4559 426.938 39.3288 426.938 37.9209V37.1152C426.938 36.0247 426.698 35.1336 426.218 34.4419C425.746 33.742 425.135 33.3921 424.387 33.3921H424.143C423.272 33.3921 422.539 33.8234 421.945 34.686C421.359 35.5487 421.066 36.5781 421.066 37.7744L421.042 38.0552V38.8486ZM423.801 44.2319H423.41C421.986 44.2319 420.826 43.7355 419.931 42.7427C419.036 41.7498 418.588 40.342 418.588 38.519L418.601 38.3115C418.601 36.3096 419.13 34.7308 420.188 33.5752C420.741 32.9648 421.372 32.5173 422.08 32.2324C422.796 31.9395 423.475 31.793 424.118 31.793H424.716C425.432 31.793 426.12 31.9517 426.779 32.269C428.667 33.1805 429.611 34.8976 429.611 37.4204V37.6157C429.603 38.4377 429.469 39.2718 429.208 40.1182C428.688 41.7865 427.687 42.9665 426.206 43.6582C425.384 44.0407 424.582 44.2319 423.801 44.2319ZM433.054 37.1885C432.557 36.6839 432.309 35.9759 432.309 35.0645C432.309 34.153 432.716 33.3717 433.53 32.7207C434.344 32.0615 435.353 31.7319 436.557 31.7319H436.875C437.941 31.7319 438.787 31.8825 439.414 32.1836C440.048 32.4847 440.366 32.9364 440.366 33.5386C440.366 34.1326 440.101 34.4297 439.572 34.4297C439.434 34.4297 439.043 34.2669 438.4 33.9414C437.757 33.6077 437.151 33.4409 436.582 33.4409C436.012 33.4409 435.552 33.5711 435.202 33.8315C434.86 34.0838 434.689 34.4338 434.689 34.8813C434.689 35.3289 434.93 35.7196 435.41 36.0532C435.686 36.2485 436.337 36.5578 437.363 36.981C438.396 37.4041 439.133 37.811 439.572 38.2017C440.28 38.8283 440.634 39.6299 440.634 40.6064C440.634 41.583 440.219 42.4212 439.389 43.1211C438.559 43.8128 437.481 44.1587 436.154 44.1587H435.837C434.502 44.1587 433.501 43.9674 432.834 43.585C432.167 43.1943 431.833 42.6898 431.833 42.0713C431.833 41.4447 432.093 41.1313 432.614 41.1313C432.785 41.1313 433.229 41.3511 433.945 41.7905C434.669 42.23 435.377 42.4497 436.069 42.4497C436.769 42.4497 437.294 42.3032 437.644 42.0103C437.993 41.7091 438.168 41.3348 438.168 40.8872C438.168 40.4315 437.949 40.0327 437.509 39.6909C437.273 39.5037 436.598 39.166 435.483 38.6777C434.368 38.1813 433.558 37.6849 433.054 37.1885ZM444.113 37.1885C443.617 36.6839 443.369 35.9759 443.369 35.0645C443.369 34.153 443.776 33.3717 444.589 32.7207C445.403 32.0615 446.412 31.7319 447.617 31.7319H447.934C449 31.7319 449.847 31.8825 450.473 32.1836C451.108 32.4847 451.425 32.9364 451.425 33.5386C451.425 34.1326 451.161 34.4297 450.632 34.4297C450.493 34.4297 450.103 34.2669 449.46 33.9414C448.817 33.6077 448.211 33.4409 447.641 33.4409C447.071 33.4409 446.612 33.5711 446.262 33.8315C445.92 34.0838 445.749 34.4338 445.749 34.8813C445.749 35.3289 445.989 35.7196 446.469 36.0532C446.746 36.2485 447.397 36.5578 448.422 36.981C449.456 37.4041 450.192 37.811 450.632 38.2017C451.34 38.8283 451.694 39.6299 451.694 40.6064C451.694 41.583 451.279 42.4212 450.449 43.1211C449.619 43.8128 448.54 44.1587 447.214 44.1587H446.896C445.562 44.1587 444.561 43.9674 443.894 43.585C443.226 43.1943 442.893 42.6898 442.893 42.0713C442.893 41.4447 443.153 41.1313 443.674 41.1313C443.845 41.1313 444.288 41.3511 445.004 41.7905C445.729 42.23 446.437 42.4497 447.128 42.4497C447.828 42.4497 448.353 42.3032 448.703 42.0103C449.053 41.7091 449.228 41.3348 449.228 40.8872C449.228 40.4315 449.008 40.0327 448.569 39.6909C448.333 39.5037 447.657 39.166 446.542 38.6777C445.428 38.1813 444.618 37.6849 444.113 37.1885ZM456.54 36.5781V36.7734C456.54 37.0176 456.764 37.1396 457.211 37.1396H457.504L457.578 37.1274L458.176 37.0786C458.802 36.9891 459.209 36.9443 459.396 36.9443C460.284 36.9443 460.951 36.7775 461.398 36.4438C461.61 36.2811 461.716 35.9922 461.716 35.5771V35.4429C461.716 34.8325 461.512 34.3483 461.105 33.9902C460.707 33.6322 460.227 33.4531 459.665 33.4531H459.58L459.506 33.4653C458.717 33.4653 458.025 33.799 457.431 34.4663C456.837 35.1336 456.54 35.8376 456.54 36.5781ZM459.201 44.1587H458.933C457.378 44.1587 456.141 43.6663 455.222 42.6816C454.302 41.6888 453.842 40.3664 453.842 38.7144V38.1772C453.842 37.3879 453.997 36.5863 454.306 35.7725C454.933 34.1449 455.954 33.0218 457.37 32.4033C458.119 32.0697 458.88 31.9028 459.653 31.9028H460.178C461.244 31.9028 462.143 32.2609 462.875 32.9771C463.616 33.6851 463.986 34.6006 463.986 35.7236V35.9678C463.986 36.7653 463.669 37.3309 463.034 37.6646C462.595 37.9006 461.569 38.1366 459.958 38.3726C458.347 38.6086 457.468 38.751 457.321 38.7998C456.833 38.9707 456.589 39.2962 456.589 39.7764C456.589 40.4437 456.874 41.0133 457.443 41.4854C458.013 41.9574 458.778 42.1934 459.738 42.1934C460.186 42.1934 460.796 42.0713 461.569 41.8271C462.342 41.583 462.79 41.4609 462.912 41.4609C463.327 41.4609 463.535 41.64 463.535 41.998C463.535 42.4782 463.067 42.9583 462.131 43.4385C461.195 43.9186 460.218 44.1587 459.201 44.1587ZM467.502 37.1885C467.006 36.6839 466.757 35.9759 466.757 35.0645C466.757 34.153 467.164 33.3717 467.978 32.7207C468.792 32.0615 469.801 31.7319 471.005 31.7319H471.323C472.389 31.7319 473.235 31.8825 473.862 32.1836C474.497 32.4847 474.814 32.9364 474.814 33.5386C474.814 34.1326 474.549 34.4297 474.021 34.4297C473.882 34.4297 473.492 34.2669 472.849 33.9414C472.206 33.6077 471.599 33.4409 471.03 33.4409C470.46 33.4409 470 33.5711 469.65 33.8315C469.309 34.0838 469.138 34.4338 469.138 34.8813C469.138 35.3289 469.378 35.7196 469.858 36.0532C470.135 36.2485 470.786 36.5578 471.811 36.981C472.845 37.4041 473.581 37.811 474.021 38.2017C474.729 38.8283 475.083 39.6299 475.083 40.6064C475.083 41.583 474.667 42.4212 473.837 43.1211C473.007 43.8128 471.929 44.1587 470.603 44.1587H470.285C468.951 44.1587 467.95 43.9674 467.282 43.585C466.615 43.1943 466.281 42.6898 466.281 42.0713C466.281 41.4447 466.542 41.1313 467.062 41.1313C467.233 41.1313 467.677 41.3511 468.393 41.7905C469.117 42.23 469.825 42.4497 470.517 42.4497C471.217 42.4497 471.742 42.3032 472.092 42.0103C472.442 41.7091 472.617 41.3348 472.617 40.8872C472.617 40.4315 472.397 40.0327 471.958 39.6909C471.722 39.5037 471.046 39.166 469.931 38.6777C468.816 38.1813 468.007 37.6849 467.502 37.1885ZM479.416 44.1953H479.038C478.631 44.1953 478.313 44.1017 478.085 43.9146C477.866 43.7274 477.756 43.4792 477.756 43.1699C477.74 43.1048 477.731 43.0519 477.731 43.0112L477.707 42.8037V42.584L477.719 42.5352V42.4253C477.736 42.3602 477.744 42.3073 477.744 42.2666C477.744 41.9004 477.866 41.6156 478.11 41.4121C478.362 41.2005 478.639 41.0947 478.94 41.0947L479.196 41.0581H479.526C480.413 41.0581 480.856 41.522 480.856 42.4497V42.6206L480.808 43.0356C480.808 43.41 480.665 43.6989 480.38 43.9023C480.104 44.0977 479.782 44.1953 479.416 44.1953ZM494.736 31.2559C494.679 32.1104 494.65 32.7451 494.65 33.1602L494.626 33.5508L494.589 34.7104L494.565 35.1011L494.516 36.4561C494.5 36.7165 494.492 36.9118 494.492 37.042L494.467 37.4326C494.451 37.693 494.443 37.8843 494.443 38.0063L494.418 38.3848C494.41 38.515 494.406 38.6452 494.406 38.7754L494.382 39.1538L494.345 40.4844V41.2168C494.345 41.6074 494.492 41.8719 494.785 42.0103C495.078 42.1405 495.505 42.2056 496.066 42.2056H496.616C498.357 42.2056 499.733 41.5586 500.742 40.2646C501.181 39.7031 501.539 38.9626 501.816 38.043C502.093 37.1234 502.231 36.0898 502.231 34.9424V34.7349C502.231 31.7319 501.246 29.7869 499.277 28.8999C498.691 28.6395 498.032 28.5093 497.299 28.5093H496.738C495.826 28.5093 495.265 28.6558 495.053 28.9487C494.842 29.2336 494.736 30.0026 494.736 31.2559ZM491.708 27.8257C491.708 27.4351 491.969 27.1909 492.49 27.0933C493.417 26.9224 494.768 26.8369 496.542 26.8369H497.128C500.921 26.8369 503.387 28.2855 504.526 31.1826C504.925 32.1917 505.124 33.327 505.124 34.5884V34.6616V34.9668C505.124 36.277 504.892 37.571 504.428 38.8486C503.964 40.1182 503.285 41.1354 502.39 41.9004C501.503 42.6654 500.542 43.2065 499.509 43.5239C498.475 43.8332 497.128 43.9878 495.468 43.9878H495.188L494.895 43.9756C493.12 43.9756 491.981 43.8942 491.477 43.7314C491.208 43.6419 491.074 43.4466 491.074 43.1455C491.074 43.056 491.18 42.7793 491.391 42.3154C491.774 41.4772 491.965 39.9676 491.965 37.7866L492.111 34.0879L492.136 33.5264L492.172 31.5854C492.172 30.4299 492.156 29.7218 492.124 29.4614C492.091 29.201 492.014 28.8918 491.892 28.5337C491.77 28.1756 491.708 27.9396 491.708 27.8257ZM509.885 38.8486C509.885 39.9147 510.129 40.8018 510.617 41.5098C511.105 42.2178 511.704 42.5718 512.412 42.5718H512.778C513.616 42.5718 514.324 42.1486 514.902 41.3022C515.488 40.4559 515.781 39.3288 515.781 37.9209V37.1152C515.781 36.0247 515.541 35.1336 515.061 34.4419C514.589 33.742 513.978 33.3921 513.229 33.3921H512.985C512.115 33.3921 511.382 33.8234 510.788 34.686C510.202 35.5487 509.909 36.5781 509.909 37.7744L509.885 38.0552V38.8486ZM512.644 44.2319H512.253C510.829 44.2319 509.669 43.7355 508.774 42.7427C507.879 41.7498 507.431 40.342 507.431 38.519L507.443 38.3115C507.443 36.3096 507.972 34.7308 509.03 33.5752C509.584 32.9648 510.214 32.5173 510.922 32.2324C511.639 31.9395 512.318 31.793 512.961 31.793H513.559C514.275 31.793 514.963 31.9517 515.622 32.269C517.51 33.1805 518.454 34.8976 518.454 37.4204V37.6157C518.446 38.4377 518.312 39.2718 518.051 40.1182C517.53 41.7865 516.529 42.9665 515.048 43.6582C514.226 44.0407 513.425 44.2319 512.644 44.2319ZM523.215 36.5781V36.7734C523.215 37.0176 523.439 37.1396 523.886 37.1396H524.179L524.252 37.1274L524.851 37.0786C525.477 36.9891 525.884 36.9443 526.071 36.9443C526.958 36.9443 527.626 36.7775 528.073 36.4438C528.285 36.2811 528.391 35.9922 528.391 35.5771V35.4429C528.391 34.8325 528.187 34.3483 527.78 33.9902C527.382 33.6322 526.901 33.4531 526.34 33.4531H526.254L526.181 33.4653C525.392 33.4653 524.7 33.799 524.106 34.4663C523.512 35.1336 523.215 35.8376 523.215 36.5781ZM525.876 44.1587H525.607C524.053 44.1587 522.816 43.6663 521.896 42.6816C520.977 41.6888 520.517 40.3664 520.517 38.7144V38.1772C520.517 37.3879 520.672 36.5863 520.981 35.7725C521.608 34.1449 522.629 33.0218 524.045 32.4033C524.794 32.0697 525.555 31.9028 526.328 31.9028H526.853C527.919 31.9028 528.818 32.2609 529.55 32.9771C530.291 33.6851 530.661 34.6006 530.661 35.7236V35.9678C530.661 36.7653 530.344 37.3309 529.709 37.6646C529.27 37.9006 528.244 38.1366 526.633 38.3726C525.021 38.6086 524.143 38.751 523.996 38.7998C523.508 38.9707 523.264 39.2962 523.264 39.7764C523.264 40.4437 523.549 41.0133 524.118 41.4854C524.688 41.9574 525.453 42.1934 526.413 42.1934C526.861 42.1934 527.471 42.0713 528.244 41.8271C529.017 41.583 529.465 41.4609 529.587 41.4609C530.002 41.4609 530.209 41.64 530.209 41.998C530.209 42.4782 529.742 42.9583 528.806 43.4385C527.87 43.9186 526.893 44.1587 525.876 44.1587ZM534.177 37.1885C533.68 36.6839 533.432 35.9759 533.432 35.0645C533.432 34.153 533.839 33.3717 534.653 32.7207C535.467 32.0615 536.476 31.7319 537.68 31.7319H537.998C539.064 31.7319 539.91 31.8825 540.537 32.1836C541.171 32.4847 541.489 32.9364 541.489 33.5386C541.489 34.1326 541.224 34.4297 540.695 34.4297C540.557 34.4297 540.166 34.2669 539.523 33.9414C538.881 33.6077 538.274 33.4409 537.705 33.4409C537.135 33.4409 536.675 33.5711 536.325 33.8315C535.983 34.0838 535.812 34.4338 535.812 34.8813C535.812 35.3289 536.053 35.7196 536.533 36.0532C536.809 36.2485 537.46 36.5578 538.486 36.981C539.519 37.4041 540.256 37.811 540.695 38.2017C541.403 38.8283 541.757 39.6299 541.757 40.6064C541.757 41.583 541.342 42.4212 540.512 43.1211C539.682 43.8128 538.604 44.1587 537.277 44.1587H536.96C535.625 44.1587 534.624 43.9674 533.957 43.585C533.29 43.1943 532.956 42.6898 532.956 42.0713C532.956 41.4447 533.216 41.1313 533.737 41.1313C533.908 41.1313 534.352 41.3511 535.068 41.7905C535.792 42.23 536.5 42.4497 537.192 42.4497C537.892 42.4497 538.417 42.3032 538.767 42.0103C539.117 41.7091 539.292 41.3348 539.292 40.8872C539.292 40.4315 539.072 40.0327 538.632 39.6909C538.396 39.5037 537.721 39.166 536.606 38.6777C535.491 38.1813 534.681 37.6849 534.177 37.1885ZM555.576 42.5352C555.576 43.1374 555.051 43.4385 554.001 43.4385C553.407 43.4385 553.008 43.2961 552.805 43.0112C552.707 42.8729 552.658 42.5474 552.658 42.0347L552.622 41.2534C552.565 40.3989 552.536 39.5404 552.536 38.6777C552.536 36.8141 552.373 35.5649 552.048 34.9302C551.73 34.2873 551.193 33.9658 550.437 33.9658C549.932 33.9658 549.464 34.1164 549.033 34.4175C548.61 34.7186 548.284 35.1377 548.056 35.6748C547.584 36.7734 547.348 38.8039 547.348 41.7661C547.348 42.4416 547.218 42.9176 546.958 43.1943C546.705 43.471 546.38 43.6094 545.981 43.6094H545.737C544.825 43.6094 544.37 43.2472 544.37 42.5229V42.23C544.37 42.1405 544.418 41.9451 544.516 41.644L544.711 41.0825C544.907 40.4233 545.004 39.0114 545.004 36.8467L545.065 33.2212C545.065 32.7573 545.318 32.5254 545.822 32.5254C546.327 32.5254 546.823 32.6922 547.312 33.0259C547.808 33.3595 548.121 33.5264 548.251 33.5264C548.39 33.5264 548.63 33.4328 548.972 33.2456C550.119 32.619 551.039 32.3057 551.73 32.3057H552.048C553.293 32.3057 554.168 32.8672 554.672 33.9902C554.917 34.5192 555.039 35.6585 555.039 37.4082V37.4937C555.039 37.6401 555.035 37.7866 555.026 37.9331C555.026 38.3319 555.026 38.5394 555.026 38.5557C555.026 38.7103 555.026 38.8608 555.026 39.0073C555.026 39.1213 555.026 39.2311 555.026 39.3369C555.026 39.9635 555.047 40.3908 555.087 40.6187C555.144 40.9279 555.238 41.2493 555.368 41.583C555.507 41.9492 555.576 42.2666 555.576 42.5352ZM558.615 31.7808V31.6587C558.615 31.6424 558.77 31.3657 559.079 30.8286C559.396 30.2915 559.555 29.8602 559.555 29.5347C559.555 29.4614 559.441 29.1807 559.213 28.6924C558.994 28.196 558.884 27.7524 558.884 27.3618C558.884 26.9712 559.006 26.666 559.25 26.4463C559.502 26.2266 559.836 26.1167 560.251 26.1167H560.593C560.967 26.1167 561.256 26.2184 561.459 26.4219C561.663 26.6253 561.765 26.8939 561.765 27.2275C561.781 27.3415 561.789 27.4269 561.789 27.4839V27.8257L561.777 28.082L561.752 28.4238C561.752 29.1888 561.435 30.0107 560.8 30.8896C560.166 31.7604 559.632 32.1958 559.201 32.1958H559.055C558.762 32.1958 558.615 32.0575 558.615 31.7808ZM570.676 42.6938C570.676 43.0194 570.476 43.3123 570.078 43.5728C569.687 43.825 569.154 43.9512 568.479 43.9512C567.217 43.9512 566.33 43.4832 565.817 42.5474C565.5 41.9614 565.341 40.5902 565.341 38.4336C565.341 36.277 565.305 35.0238 565.231 34.6738C565.158 34.3239 564.955 33.9821 564.621 33.6484C564.287 33.3148 564.121 33.0584 564.121 32.8794C564.121 32.8143 564.515 32.387 565.305 31.5977C565.476 31.4268 565.646 31.0483 565.817 30.4624C565.996 29.8765 566.123 29.4899 566.196 29.3027C566.44 28.7168 566.761 28.4238 567.16 28.4238H567.355C567.705 28.4238 567.954 28.5581 568.1 28.8267C568.157 28.9325 568.243 29.3149 568.356 29.9741C568.479 30.6252 568.617 31.0443 568.771 31.2314C568.926 31.4186 569.313 31.6261 569.931 31.854C570.558 32.0737 570.871 32.3097 570.871 32.562V32.6963C570.871 33.0218 570.513 33.2985 569.797 33.5264C569.089 33.7461 568.633 34.1001 568.43 34.5884C568.031 35.5731 567.832 37.1763 567.832 39.3979C567.832 40.4396 568.011 41.1476 568.369 41.522C568.588 41.7498 569.028 41.9085 569.687 41.998C570.346 42.0876 570.676 42.3195 570.676 42.6938ZM581.015 27.0322C581.015 26.4382 581.573 26.1411 582.688 26.1411H582.907C583.371 26.1411 583.688 26.255 583.859 26.4829C584.03 26.7026 584.116 27.134 584.116 27.7769L584.018 29.5957C583.994 29.8805 583.981 30.0352 583.981 30.0596L583.957 30.5234C583.941 30.8245 583.924 31.1297 583.908 31.439L583.872 31.9028L583.835 32.5986C583.705 35.0726 583.64 36.8996 583.64 38.0796C583.64 39.2515 583.693 40.0938 583.798 40.6064C583.904 41.1191 584.071 41.5545 584.299 41.9126C584.527 42.2707 584.641 42.5067 584.641 42.6206V42.7671C584.641 43.1252 584.462 43.41 584.104 43.6216C583.754 43.8332 583.278 43.939 582.675 43.939H582.041C581.666 43.939 581.337 43.8332 581.052 43.6216C580.775 43.4019 580.637 43.1536 580.637 42.877V42.5474L580.71 42.0347C580.808 41.3267 580.865 40.7977 580.881 40.4478C580.905 40.0897 580.942 39.5973 580.991 38.9707C581.04 38.3359 581.117 36.9891 581.223 34.9302C581.337 32.8631 581.394 31.7523 581.394 31.5977L581.442 30.6821L581.467 29.7788C581.467 28.9162 581.389 28.3018 581.235 27.9355C581.088 27.5612 581.015 27.2601 581.015 27.0322ZM589.694 36.5781V36.7734C589.694 37.0176 589.918 37.1396 590.366 37.1396H590.659L590.732 37.1274L591.33 37.0786C591.957 36.9891 592.364 36.9443 592.551 36.9443C593.438 36.9443 594.105 36.7775 594.553 36.4438C594.764 36.2811 594.87 35.9922 594.87 35.5771V35.4429C594.87 34.8325 594.667 34.3483 594.26 33.9902C593.861 33.6322 593.381 33.4531 592.819 33.4531H592.734L592.661 33.4653C591.871 33.4653 591.18 33.799 590.585 34.4663C589.991 35.1336 589.694 35.8376 589.694 36.5781ZM592.355 44.1587H592.087C590.533 44.1587 589.296 43.6663 588.376 42.6816C587.456 41.6888 586.997 40.3664 586.997 38.7144V38.1772C586.997 37.3879 587.151 36.5863 587.46 35.7725C588.087 34.1449 589.108 33.0218 590.524 32.4033C591.273 32.0697 592.034 31.9028 592.807 31.9028H593.332C594.398 31.9028 595.297 32.2609 596.03 32.9771C596.77 33.6851 597.141 34.6006 597.141 35.7236V35.9678C597.141 36.7653 596.823 37.3309 596.188 37.6646C595.749 37.9006 594.724 38.1366 593.112 38.3726C591.501 38.6086 590.622 38.751 590.476 38.7998C589.987 38.9707 589.743 39.2962 589.743 39.7764C589.743 40.4437 590.028 41.0133 590.598 41.4854C591.167 41.9574 591.932 42.1934 592.893 42.1934C593.34 42.1934 593.951 42.0713 594.724 41.8271C595.497 41.583 595.944 41.4609 596.066 41.4609C596.481 41.4609 596.689 41.64 596.689 41.998C596.689 42.4782 596.221 42.9583 595.285 43.4385C594.349 43.9186 593.373 44.1587 592.355 44.1587ZM603.696 42.4619H604.013C604.681 42.4619 605.266 42.2381 605.771 41.7905C606.284 41.3348 606.54 40.8099 606.54 40.2158L606.564 40.0571V39.8984L606.589 39.52V38.8242C606.589 38.3522 606.349 38.1162 605.869 38.1162H605.319L605.234 38.1284L604.758 38.165C604.53 38.1976 604.367 38.2139 604.27 38.2139C603.61 38.2139 603 38.4621 602.438 38.9585C602.048 39.3084 601.853 39.8049 601.853 40.4478V40.6919C601.853 41.2371 602.028 41.6685 602.377 41.9858C602.736 42.3032 603.175 42.4619 603.696 42.4619ZM600.974 34.6616C600.428 34.6616 600.156 34.3117 600.156 33.6118C600.156 33.091 600.595 32.6393 601.474 32.2568C602.361 31.8662 603.281 31.6709 604.233 31.6709H604.843C605.665 31.6709 606.389 31.8255 607.016 32.1348C607.643 32.4359 608.119 32.8468 608.444 33.3677C608.778 33.8885 608.981 34.568 609.055 35.4062C609.071 35.6016 609.079 36.5496 609.079 38.2505C609.079 39.9513 609.099 40.932 609.14 41.1924C609.189 41.4447 609.319 41.7539 609.531 42.1201C609.75 42.4863 609.86 42.7874 609.86 43.0234C609.86 43.2594 609.746 43.4629 609.519 43.6338C609.299 43.7965 608.977 43.8779 608.554 43.8779C608.131 43.8779 607.671 43.7762 607.175 43.5728C606.678 43.3612 606.316 43.2554 606.088 43.2554C606.064 43.2554 605.657 43.4019 604.868 43.6948C604.078 43.9797 603.411 44.1221 602.866 44.1221H602.597C601.686 44.1221 600.909 43.8332 600.266 43.2554C599.631 42.6776 599.313 41.8556 599.313 40.7896C599.313 39.7235 599.663 38.8934 600.363 38.2993C601.063 37.6971 601.914 37.2861 602.915 37.0664C603.216 37.0013 603.716 36.9159 604.416 36.8101C605.116 36.7043 605.592 36.5944 605.844 36.4805C606.284 36.277 606.503 35.8945 606.503 35.333C606.503 34.7633 606.316 34.3198 605.942 34.0024C605.568 33.6769 605.12 33.5142 604.599 33.5142C604.086 33.5142 603.411 33.7054 602.573 34.0879C601.735 34.4704 601.201 34.6616 600.974 34.6616ZM613.486 37.6523V36.7124C613.486 35.5812 613.425 34.7552 613.303 34.2344C613.181 33.7054 613.12 33.3351 613.12 33.1235C613.12 32.6271 613.482 32.3789 614.206 32.3789C614.93 32.3789 615.455 32.5132 615.781 32.7817C615.87 32.855 615.984 32.9974 616.123 33.209C616.269 33.4206 616.399 33.5264 616.513 33.5264C616.538 33.5264 616.892 33.3188 617.575 32.9038C618.259 32.4888 618.845 32.2812 619.333 32.2812H619.516C619.915 32.2812 620.232 32.3789 620.468 32.5742C620.704 32.7614 620.822 32.9933 620.822 33.27V33.4287C620.822 33.7624 620.704 34.0024 620.468 34.1489C620.24 34.2954 619.874 34.3687 619.37 34.3687C618.222 34.3687 617.384 34.7715 616.855 35.5771C616.334 36.3828 616.074 37.807 616.074 39.8496C616.074 40.1426 616.123 40.5942 616.22 41.2046C616.326 41.8149 616.379 42.2747 616.379 42.584C616.379 42.8932 616.212 43.1903 615.878 43.4751C615.545 43.7599 615.122 43.9023 614.609 43.9023H614.194C613.746 43.9023 613.4 43.7965 613.156 43.585C612.92 43.3652 612.802 43.1007 612.802 42.7915C612.802 42.4741 612.859 42.1527 612.973 41.8271C613.282 40.9482 613.437 39.9798 613.437 38.9219C613.47 38.3359 613.486 37.9128 613.486 37.6523ZM633.994 42.5352C633.994 43.1374 633.469 43.4385 632.419 43.4385C631.825 43.4385 631.426 43.2961 631.223 43.0112C631.125 42.8729 631.076 42.5474 631.076 42.0347L631.04 41.2534C630.983 40.3989 630.954 39.5404 630.954 38.6777C630.954 36.8141 630.791 35.5649 630.466 34.9302C630.148 34.2873 629.611 33.9658 628.854 33.9658C628.35 33.9658 627.882 34.1164 627.451 34.4175C627.028 34.7186 626.702 35.1377 626.474 35.6748C626.002 36.7734 625.766 38.8039 625.766 41.7661C625.766 42.4416 625.636 42.9176 625.375 43.1943C625.123 43.471 624.798 43.6094 624.399 43.6094H624.155C623.243 43.6094 622.788 43.2472 622.788 42.5229V42.23C622.788 42.1405 622.836 41.9451 622.934 41.644L623.129 41.0825C623.325 40.4233 623.422 39.0114 623.422 36.8467L623.483 33.2212C623.483 32.7573 623.736 32.5254 624.24 32.5254C624.745 32.5254 625.241 32.6922 625.729 33.0259C626.226 33.3595 626.539 33.5264 626.669 33.5264C626.808 33.5264 627.048 33.4328 627.39 33.2456C628.537 32.619 629.457 32.3057 630.148 32.3057H630.466C631.711 32.3057 632.586 32.8672 633.09 33.9902C633.334 34.5192 633.457 35.6585 633.457 37.4082V37.4937C633.457 37.6401 633.452 37.7866 633.444 37.9331C633.444 38.3319 633.444 38.5394 633.444 38.5557C633.444 38.7103 633.444 38.8608 633.444 39.0073C633.444 39.1213 633.444 39.2311 633.444 39.3369C633.444 39.9635 633.465 40.3908 633.505 40.6187C633.562 40.9279 633.656 41.2493 633.786 41.583C633.924 41.9492 633.994 42.2666 633.994 42.5352ZM645.615 44.8911H645.334C644.927 44.8911 644.581 44.7731 644.296 44.5371C644.02 44.3011 643.881 44.0203 643.881 43.6948C643.881 43.3693 643.979 42.9543 644.174 42.4497C644.378 41.937 644.524 41.3145 644.614 40.582C644.711 39.8415 644.76 38.7591 644.76 37.335C644.76 35.9108 644.691 35.0034 644.553 34.6128C644.528 34.5477 644.414 34.332 644.211 33.9658C644.007 33.5915 643.906 33.2741 643.906 33.0137C643.906 32.7533 644.04 32.4196 644.309 32.0127C644.585 31.6058 644.768 31.3047 644.858 31.1094C645.957 28.79 646.53 27.6019 646.579 27.5449C647.425 26.5602 648.569 26.0679 650.009 26.0679C650.677 26.0679 651.189 26.1818 651.547 26.4097C651.905 26.6375 652.084 26.9346 652.084 27.3008C652.084 27.6589 651.873 27.9193 651.45 28.082C651.336 28.1227 651.185 28.1431 650.998 28.1431C650.86 28.1349 650.701 28.1227 650.522 28.1064C650.099 28.0576 649.79 28.0332 649.594 28.0332C649.065 28.0332 648.634 28.2611 648.3 28.7168C647.975 29.1644 647.812 29.6812 647.812 30.2671C647.812 30.853 647.93 31.2803 648.166 31.5488C648.239 31.6302 648.585 31.8337 649.204 32.1592C649.83 32.4766 650.144 32.798 650.144 33.1235C650.144 33.3026 649.794 33.5793 649.094 33.9536C648.597 34.214 648.231 34.6779 647.995 35.3452C647.482 36.7775 647.226 38.6615 647.226 40.9971L647.458 43.0601C647.458 43.6216 647.291 44.0651 646.958 44.3906C646.632 44.7243 646.184 44.8911 645.615 44.8911ZM653.574 37.6523V36.7124C653.574 35.5812 653.513 34.7552 653.391 34.2344C653.269 33.7054 653.208 33.3351 653.208 33.1235C653.208 32.6271 653.57 32.3789 654.294 32.3789C655.018 32.3789 655.543 32.5132 655.869 32.7817C655.958 32.855 656.072 32.9974 656.21 33.209C656.357 33.4206 656.487 33.5264 656.601 33.5264C656.625 33.5264 656.979 33.3188 657.663 32.9038C658.347 32.4888 658.933 32.2812 659.421 32.2812H659.604C660.003 32.2812 660.32 32.3789 660.556 32.5742C660.792 32.7614 660.91 32.9933 660.91 33.27V33.4287C660.91 33.7624 660.792 34.0024 660.556 34.1489C660.328 34.2954 659.962 34.3687 659.458 34.3687C658.31 34.3687 657.472 34.7715 656.943 35.5771C656.422 36.3828 656.162 37.807 656.162 39.8496C656.162 40.1426 656.21 40.5942 656.308 41.2046C656.414 41.8149 656.467 42.2747 656.467 42.584C656.467 42.8932 656.3 43.1903 655.966 43.4751C655.633 43.7599 655.209 43.9023 654.697 43.9023H654.282C653.834 43.9023 653.488 43.7965 653.244 43.585C653.008 43.3652 652.89 43.1007 652.89 42.7915C652.89 42.4741 652.947 42.1527 653.061 41.8271C653.37 40.9482 653.525 39.9798 653.525 38.9219C653.557 38.3359 653.574 37.9128 653.574 37.6523ZM664.865 38.8486C664.865 39.9147 665.109 40.8018 665.598 41.5098C666.086 42.2178 666.684 42.5718 667.392 42.5718H667.758C668.597 42.5718 669.305 42.1486 669.882 41.3022C670.468 40.4559 670.761 39.3288 670.761 37.9209V37.1152C670.761 36.0247 670.521 35.1336 670.041 34.4419C669.569 33.742 668.959 33.3921 668.21 33.3921H667.966C667.095 33.3921 666.363 33.8234 665.769 34.686C665.183 35.5487 664.89 36.5781 664.89 37.7744L664.865 38.0552V38.8486ZM667.624 44.2319H667.233C665.809 44.2319 664.65 43.7355 663.754 42.7427C662.859 41.7498 662.412 40.342 662.412 38.519L662.424 38.3115C662.424 36.3096 662.953 34.7308 664.011 33.5752C664.564 32.9648 665.195 32.5173 665.903 32.2324C666.619 31.9395 667.299 31.793 667.941 31.793H668.54C669.256 31.793 669.943 31.9517 670.603 32.269C672.491 33.1805 673.435 34.8976 673.435 37.4204V37.6157C673.426 38.4377 673.292 39.2718 673.032 40.1182C672.511 41.7865 671.51 42.9665 670.029 43.6582C669.207 44.0407 668.405 44.2319 667.624 44.2319ZM681.052 32.7085C681.678 32.4725 682.321 32.3545 682.98 32.3545C683.64 32.3545 684.323 32.5498 685.031 32.9404C685.747 33.3311 686.138 33.5264 686.203 33.5264C686.268 33.5264 686.708 33.327 687.521 32.9282C688.335 32.5295 689.068 32.3301 689.719 32.3301C690.378 32.3301 690.919 32.4684 691.342 32.7451C691.774 33.0137 692.099 33.3351 692.319 33.7095C692.734 34.4256 692.941 36.0166 692.941 38.4824C692.941 39.5892 692.95 40.224 692.966 40.3867C692.99 40.5413 693.047 40.8221 693.137 41.229C693.234 41.6278 693.283 41.9574 693.283 42.2178C693.283 42.4701 693.177 42.7345 692.966 43.0112C692.754 43.2879 692.473 43.4263 692.124 43.4263C691.432 43.4263 691.021 43.1455 690.891 42.584C690.793 42.1771 690.679 40.9889 690.549 39.0195C690.427 37.0501 690.292 35.8945 690.146 35.5527C689.853 34.8366 689.23 34.4785 688.278 34.4785C687.668 34.4785 687.192 34.861 686.85 35.626C686.354 36.7246 686.105 38.2871 686.105 40.3135L686.228 42.0713C686.228 42.6898 686 43.1577 685.544 43.4751C685.251 43.6785 684.86 43.7803 684.372 43.7803C683.892 43.7803 683.575 43.7314 683.42 43.6338C683.151 43.471 683.017 43.1252 683.017 42.5962C683.017 42.4985 683.094 42.0998 683.249 41.3999C683.412 40.6919 683.493 39.5444 683.493 37.9575C683.493 36.3625 683.375 35.3493 683.139 34.918C682.903 34.4785 682.492 34.2588 681.906 34.2588C681.32 34.2588 680.799 34.4582 680.344 34.8569C679.896 35.2557 679.567 35.6911 679.355 36.1631C679.152 36.6351 678.968 37.7581 678.806 39.5322C678.651 41.3063 678.541 42.3236 678.476 42.584C678.362 43.0316 678.033 43.2554 677.487 43.2554C676.95 43.2554 676.58 43.0967 676.376 42.7793C676.181 42.4538 676.083 42.0591 676.083 41.5952L676.145 41.168L676.376 40.3257C676.474 39.9351 676.531 39.4793 676.547 38.9585C676.669 35.7277 676.763 33.8844 676.828 33.4287C676.893 32.973 677.186 32.7451 677.707 32.7451L679.526 33.0503C679.917 33.0503 680.425 32.9364 681.052 32.7085ZM345.505 62.7085C346.132 62.4725 346.774 62.3545 347.434 62.3545C348.093 62.3545 348.776 62.5498 349.484 62.9404C350.201 63.3311 350.591 63.5264 350.656 63.5264C350.721 63.5264 351.161 63.327 351.975 62.9282C352.788 62.5295 353.521 62.3301 354.172 62.3301C354.831 62.3301 355.372 62.4684 355.795 62.7451C356.227 63.0137 356.552 63.3351 356.772 63.7095C357.187 64.4256 357.395 66.0166 357.395 68.4824C357.395 69.5892 357.403 70.224 357.419 70.3867C357.443 70.5413 357.5 70.8221 357.59 71.229C357.688 71.6278 357.736 71.9574 357.736 72.2178C357.736 72.4701 357.631 72.7345 357.419 73.0112C357.207 73.2879 356.927 73.4263 356.577 73.4263C355.885 73.4263 355.474 73.1455 355.344 72.584C355.246 72.1771 355.132 70.9889 355.002 69.0195C354.88 67.0501 354.746 65.8945 354.599 65.5527C354.306 64.8366 353.684 64.4785 352.731 64.4785C352.121 64.4785 351.645 64.861 351.303 65.626C350.807 66.7246 350.559 68.2871 350.559 70.3135L350.681 72.0713C350.681 72.6898 350.453 73.1577 349.997 73.4751C349.704 73.6785 349.313 73.7803 348.825 73.7803C348.345 73.7803 348.028 73.7314 347.873 73.6338C347.604 73.471 347.47 73.1252 347.47 72.5962C347.47 72.4985 347.548 72.0998 347.702 71.3999C347.865 70.6919 347.946 69.5444 347.946 67.9575C347.946 66.3625 347.828 65.3493 347.592 64.918C347.356 64.4785 346.945 64.2588 346.359 64.2588C345.773 64.2588 345.253 64.4582 344.797 64.8569C344.349 65.2557 344.02 65.6911 343.808 66.1631C343.605 66.6351 343.422 67.7581 343.259 69.5322C343.104 71.3063 342.994 72.3236 342.929 72.584C342.815 73.0316 342.486 73.2554 341.94 73.2554C341.403 73.2554 341.033 73.0967 340.83 72.7793C340.634 72.4538 340.537 72.0591 340.537 71.5952L340.598 71.168L340.83 70.3257C340.927 69.9351 340.984 69.4793 341 68.9585C341.123 65.7277 341.216 63.8844 341.281 63.4287C341.346 62.973 341.639 62.7451 342.16 62.7451L343.979 63.0503C344.37 63.0503 344.878 62.9364 345.505 62.7085ZM364.731 58.1309V58.2773C364.731 58.6924 364.609 59.0464 364.365 59.3394C364.129 59.6242 363.763 59.7666 363.266 59.7666H363.071L362.692 59.7178C362.473 59.7178 362.261 59.616 362.058 59.4126C361.854 59.2091 361.752 58.904 361.752 58.4971V58.3506L361.813 57.9111C361.813 57.7402 361.915 57.5286 362.119 57.2764C362.33 57.0241 362.599 56.8979 362.924 56.8979L363.205 56.8613H363.449L363.791 56.9102C364.003 56.9102 364.21 57.016 364.414 57.2275C364.625 57.431 364.731 57.7321 364.731 58.1309ZM364.157 63.2822L364.023 66.5659L363.999 66.8955L363.962 67.8965V68.3726C363.962 69.5444 363.994 70.3135 364.06 70.6797C364.133 71.0459 364.267 71.404 364.462 71.7539C364.658 72.0957 364.755 72.3439 364.755 72.4985V72.6084C364.755 73.0072 364.552 73.3245 364.145 73.5605C363.738 73.7965 363.185 73.9146 362.485 73.9146H362.18C361.773 73.9146 361.464 73.825 361.252 73.646C361.04 73.4588 360.935 73.2594 360.935 73.0479V72.7793C360.935 72.6735 361.028 72.2992 361.215 71.6562C361.403 71.0052 361.496 70.1222 361.496 69.0073C361.521 68.6899 361.533 68.4702 361.533 68.3481L361.569 67.6768L361.594 67.3472C361.634 66.7775 361.655 66.334 361.655 66.0166L361.667 65.5283C361.667 64.918 361.565 64.3768 361.362 63.9048C361.167 63.4328 361.069 63.1398 361.069 63.0259C361.069 62.4399 361.622 62.147 362.729 62.147H363.168C363.583 62.147 363.852 62.2568 363.974 62.4766C364.096 62.6882 364.157 62.9567 364.157 63.2822ZM368.674 67.1885C368.177 66.6839 367.929 65.9759 367.929 65.0645C367.929 64.153 368.336 63.3717 369.15 62.7207C369.964 62.0615 370.973 61.7319 372.177 61.7319H372.495C373.561 61.7319 374.407 61.8825 375.034 62.1836C375.668 62.4847 375.986 62.9364 375.986 63.5386C375.986 64.1326 375.721 64.4297 375.192 64.4297C375.054 64.4297 374.663 64.2669 374.021 63.9414C373.378 63.6077 372.771 63.4409 372.202 63.4409C371.632 63.4409 371.172 63.5711 370.822 63.8315C370.48 64.0838 370.31 64.4338 370.31 64.8813C370.31 65.3289 370.55 65.7196 371.03 66.0532C371.306 66.2485 371.958 66.5578 372.983 66.981C374.016 67.4041 374.753 67.811 375.192 68.2017C375.9 68.8283 376.254 69.6299 376.254 70.6064C376.254 71.583 375.839 72.4212 375.009 73.1211C374.179 73.8128 373.101 74.1587 371.774 74.1587H371.457C370.122 74.1587 369.121 73.9674 368.454 73.585C367.787 73.1943 367.453 72.6898 367.453 72.0713C367.453 71.4447 367.714 71.1313 368.234 71.1313C368.405 71.1313 368.849 71.3511 369.565 71.7905C370.289 72.23 370.997 72.4497 371.689 72.4497C372.389 72.4497 372.914 72.3032 373.264 72.0103C373.614 71.7091 373.789 71.3348 373.789 70.8872C373.789 70.4315 373.569 70.0327 373.129 69.6909C372.893 69.5037 372.218 69.166 371.103 68.6777C369.988 68.1813 369.178 67.6849 368.674 67.1885ZM385.251 72.6938C385.251 73.0194 385.052 73.3123 384.653 73.5728C384.262 73.825 383.729 73.9512 383.054 73.9512C381.792 73.9512 380.905 73.4832 380.393 72.5474C380.075 71.9614 379.917 70.5902 379.917 68.4336C379.917 66.277 379.88 65.0238 379.807 64.6738C379.733 64.3239 379.53 63.9821 379.196 63.6484C378.863 63.3148 378.696 63.0584 378.696 62.8794C378.696 62.8143 379.09 62.387 379.88 61.5977C380.051 61.4268 380.222 61.0483 380.393 60.4624C380.572 59.8765 380.698 59.4899 380.771 59.3027C381.015 58.7168 381.337 58.4238 381.735 58.4238H381.931C382.281 58.4238 382.529 58.5581 382.675 58.8267C382.732 58.9325 382.818 59.3149 382.932 59.9741C383.054 60.6252 383.192 61.0443 383.347 61.2314C383.501 61.4186 383.888 61.6261 384.506 61.854C385.133 62.0737 385.446 62.3097 385.446 62.562V62.6963C385.446 63.0218 385.088 63.2985 384.372 63.5264C383.664 63.7461 383.208 64.1001 383.005 64.5884C382.606 65.5731 382.407 67.1763 382.407 69.3979C382.407 70.4396 382.586 71.1476 382.944 71.522C383.164 71.7498 383.603 71.9085 384.262 71.998C384.921 72.0876 385.251 72.3195 385.251 72.6938ZM391.904 72.4619H392.221C392.889 72.4619 393.474 72.2381 393.979 71.7905C394.492 71.3348 394.748 70.8099 394.748 70.2158L394.772 70.0571V69.8984L394.797 69.52V68.8242C394.797 68.3522 394.557 68.1162 394.077 68.1162H393.527L393.442 68.1284L392.966 68.165C392.738 68.1976 392.575 68.2139 392.478 68.2139C391.818 68.2139 391.208 68.4621 390.646 68.9585C390.256 69.3084 390.061 69.8049 390.061 70.4478V70.6919C390.061 71.2371 390.236 71.6685 390.585 71.9858C390.944 72.3032 391.383 72.4619 391.904 72.4619ZM389.182 64.6616C388.636 64.6616 388.364 64.3117 388.364 63.6118C388.364 63.091 388.803 62.6393 389.682 62.2568C390.569 61.8662 391.489 61.6709 392.441 61.6709H393.051C393.873 61.6709 394.597 61.8255 395.224 62.1348C395.851 62.4359 396.327 62.8468 396.652 63.3677C396.986 63.8885 397.189 64.568 397.263 65.4062C397.279 65.6016 397.287 66.5496 397.287 68.2505C397.287 69.9513 397.307 70.932 397.348 71.1924C397.397 71.4447 397.527 71.7539 397.739 72.1201C397.958 72.4863 398.068 72.7874 398.068 73.0234C398.068 73.2594 397.954 73.4629 397.727 73.6338C397.507 73.7965 397.185 73.8779 396.762 73.8779C396.339 73.8779 395.879 73.7762 395.383 73.5728C394.886 73.3612 394.524 73.2554 394.296 73.2554C394.272 73.2554 393.865 73.4019 393.076 73.6948C392.286 73.9797 391.619 74.1221 391.074 74.1221H390.805C389.894 74.1221 389.117 73.8332 388.474 73.2554C387.839 72.6776 387.521 71.8556 387.521 70.7896C387.521 69.7235 387.871 68.8934 388.571 68.2993C389.271 67.6971 390.122 67.2861 391.123 67.0664C391.424 67.0013 391.924 66.9159 392.624 66.8101C393.324 66.7043 393.8 66.5944 394.052 66.4805C394.492 66.277 394.711 65.8945 394.711 65.333C394.711 64.7633 394.524 64.3198 394.15 64.0024C393.776 63.6769 393.328 63.5142 392.807 63.5142C392.294 63.5142 391.619 63.7054 390.781 64.0879C389.943 64.4704 389.41 64.6616 389.182 64.6616ZM405.246 68.6533C404.522 68.6533 404.16 69.6095 404.16 71.522C404.16 72.3521 403.989 72.9136 403.647 73.2065C403.305 73.4995 402.894 73.646 402.414 73.646C401.934 73.646 401.592 73.5646 401.389 73.4019C401.193 73.2391 401.096 72.9339 401.096 72.4863C401.096 72.4538 401.14 72.1323 401.23 71.522C401.319 70.9116 401.433 69.0155 401.572 65.8335C401.71 62.6434 401.779 60.6943 401.779 59.9863C401.779 59.2783 401.759 58.8185 401.718 58.6069C401.686 58.3872 401.629 58.1227 401.547 57.8135C401.474 57.5042 401.438 57.3089 401.438 57.2275C401.438 56.8695 401.556 56.6253 401.792 56.4951C402.036 56.3568 402.438 56.2876 403 56.2876C403.57 56.2876 403.944 56.4341 404.123 56.7271C404.31 57.02 404.404 57.61 404.404 58.4971L404.245 63.6729C404.245 65.154 404.416 65.8945 404.758 65.8945C405.026 65.8945 405.686 65.3411 406.735 64.2344C407.793 63.1276 408.334 62.5661 408.359 62.5498C408.684 62.3219 409.177 62.208 409.836 62.208C410.495 62.208 410.825 62.3708 410.825 62.6963C410.825 62.859 410.3 63.5467 409.25 64.7593C408.2 65.9718 407.675 66.863 407.675 67.4326C407.675 67.7419 408.273 68.7591 409.47 70.4844C409.901 71.1029 410.308 71.64 410.69 72.0957C411.081 72.5433 411.276 72.8647 411.276 73.0601C411.276 73.467 410.898 73.6704 410.141 73.6704C409.392 73.6704 408.815 73.4548 408.408 73.0234C408.31 72.9176 408.082 72.5596 407.724 71.9492C407.366 71.3389 407.114 70.9116 406.967 70.6675C406.129 69.3247 405.555 68.6533 405.246 68.6533ZM416.037 66.5781V66.7734C416.037 67.0176 416.261 67.1396 416.708 67.1396H417.001L417.075 67.1274L417.673 67.0786C418.299 66.9891 418.706 66.9443 418.894 66.9443C419.781 66.9443 420.448 66.7775 420.896 66.4438C421.107 66.2811 421.213 65.9922 421.213 65.5771V65.4429C421.213 64.8325 421.009 64.3483 420.603 63.9902C420.204 63.6322 419.724 63.4531 419.162 63.4531H419.077L419.003 63.4653C418.214 63.4653 417.522 63.799 416.928 64.4663C416.334 65.1336 416.037 65.8376 416.037 66.5781ZM418.698 74.1587H418.43C416.875 74.1587 415.638 73.6663 414.719 72.6816C413.799 71.6888 413.339 70.3664 413.339 68.7144V68.1772C413.339 67.3879 413.494 66.5863 413.803 65.7725C414.43 64.1449 415.451 63.0218 416.867 62.4033C417.616 62.0697 418.377 61.9028 419.15 61.9028H419.675C420.741 61.9028 421.64 62.2609 422.373 62.9771C423.113 63.6851 423.483 64.6006 423.483 65.7236V65.9678C423.483 66.7653 423.166 67.3309 422.531 67.6646C422.092 67.9006 421.066 68.1366 419.455 68.3726C417.844 68.6086 416.965 68.751 416.818 68.7998C416.33 68.9707 416.086 69.2962 416.086 69.7764C416.086 70.4437 416.371 71.0133 416.94 71.4854C417.51 71.9574 418.275 72.1934 419.235 72.1934C419.683 72.1934 420.293 72.0713 421.066 71.8271C421.84 71.583 422.287 71.4609 422.409 71.4609C422.824 71.4609 423.032 71.64 423.032 71.998C423.032 72.4782 422.564 72.9583 421.628 73.4385C420.692 73.9186 419.715 74.1587 418.698 74.1587ZM426.999 67.1885C426.503 66.6839 426.254 65.9759 426.254 65.0645C426.254 64.153 426.661 63.3717 427.475 62.7207C428.289 62.0615 429.298 61.7319 430.502 61.7319H430.82C431.886 61.7319 432.732 61.8825 433.359 62.1836C433.994 62.4847 434.311 62.9364 434.311 63.5386C434.311 64.1326 434.047 64.4297 433.518 64.4297C433.379 64.4297 432.989 64.2669 432.346 63.9414C431.703 63.6077 431.097 63.4409 430.527 63.4409C429.957 63.4409 429.497 63.5711 429.147 63.8315C428.806 64.0838 428.635 64.4338 428.635 64.8813C428.635 65.3289 428.875 65.7196 429.355 66.0532C429.632 66.2485 430.283 66.5578 431.308 66.981C432.342 67.4041 433.078 67.811 433.518 68.2017C434.226 68.8283 434.58 69.6299 434.58 70.6064C434.58 71.583 434.165 72.4212 433.334 73.1211C432.504 73.8128 431.426 74.1587 430.1 74.1587H429.782C428.448 74.1587 427.447 73.9674 426.779 73.585C426.112 73.1943 425.778 72.6898 425.778 72.0713C425.778 71.4447 426.039 71.1313 426.56 71.1313C426.73 71.1313 427.174 71.3511 427.89 71.7905C428.614 72.23 429.322 72.4497 430.014 72.4497C430.714 72.4497 431.239 72.3032 431.589 72.0103C431.939 71.7091 432.114 71.3348 432.114 70.8872C432.114 70.4315 431.894 70.0327 431.455 69.6909C431.219 69.5037 430.543 69.166 429.428 68.6777C428.313 68.1813 427.504 67.6849 426.999 67.1885ZM438.913 74.1953H438.535C438.128 74.1953 437.81 74.1017 437.583 73.9146C437.363 73.7274 437.253 73.4792 437.253 73.1699C437.237 73.1048 437.229 73.0519 437.229 73.0112L437.204 72.8037V72.584L437.216 72.5352V72.4253C437.233 72.3602 437.241 72.3073 437.241 72.2666C437.241 71.9004 437.363 71.6156 437.607 71.4121C437.859 71.2005 438.136 71.0947 438.437 71.0947L438.693 71.0581H439.023C439.91 71.0581 440.354 71.522 440.354 72.4497V72.6206L440.305 73.0356C440.305 73.41 440.162 73.6989 439.877 73.9023C439.601 74.0977 439.279 74.1953 438.913 74.1953Z" fill="black"/>
</svg>
