<svg width="759" height="87" viewBox="0 0 759 87" fill="none" xmlns="http://www.w3.org/2000/svg">
<rect x="0.183838" width="758.367" height="87" rx="18" fill="#D9D9D9"/>
<path d="M23.0329 48C22.6829 48 22.5079 47.825 22.5079 47.475V25.488L19.6939 25.593C19.3439 25.593 19.1689 25.418 19.1689 25.068V20.532C19.1689 20.182 19.3439 20.007 19.6939 20.007H28.9759C29.3259 20.007 29.5009 20.182 29.5009 20.532V47.475C29.5009 47.825 29.3259 48 28.9759 48H23.0329Z" fill="#2ECC71"/>
<path d="M74.2007 31.395V31.0044C74.2007 29.7104 74.4042 28.4613 74.8111 27.2568C75.5761 25.0026 76.9229 23.4198 78.8516 22.5083C79.9014 22.0119 80.9879 21.7637 82.1109 21.7637H82.4893C84.1902 21.7637 85.3987 22.0119 86.1148 22.5083C86.831 23.0047 87.189 23.6313 87.189 24.3882C87.189 24.8439 87.0995 25.1491 86.9205 25.3037C86.7414 25.4583 86.5665 25.5356 86.3956 25.5356C86.2328 25.5356 85.8788 25.3485 85.3336 24.9741C84.7964 24.5998 84.2756 24.3109 83.7711 24.1074C83.2665 23.8958 82.6358 23.79 81.879 23.79C81.1221 23.79 80.4345 23.9772 79.816 24.3516C77.9605 25.4827 77.0287 27.8062 77.0206 31.3218C77.0206 32.2332 77.1426 33.0552 77.3868 33.7876C78.1273 36.0011 79.6044 37.1079 81.8179 37.1079C82.8922 37.1079 84.1291 36.7173 85.5289 35.936C85.9683 35.6919 86.2938 35.5698 86.5054 35.5698C86.8554 35.5698 87.0303 35.7692 87.0303 36.168C87.0303 36.4202 86.9164 36.701 86.6885 37.0103C86.2898 37.5636 85.7689 37.999 85.126 38.3164C84.0355 38.8617 82.823 39.1343 81.4883 39.1343H81.0977C79.0144 39.1343 77.338 38.4385 76.0684 37.0469C75.4662 36.3877 75.0023 35.5576 74.6768 34.5566C74.3594 33.5557 74.2007 32.5018 74.2007 31.395ZM91.3394 38.7681C90.3791 38.7681 89.899 38.4263 89.899 37.7427C89.899 37.4334 89.9722 36.9736 90.1187 36.3633C90.2733 35.7529 90.3751 35.1914 90.4239 34.6787C90.4727 34.1579 90.5582 32.4814 90.6802 29.6494C90.8104 26.8174 90.8755 25.0921 90.8755 24.4736V23.0332L90.8023 22.0078C90.8023 21.6253 91.1522 21.4341 91.8521 21.4341C92.5601 21.4341 93.0199 21.7067 93.2315 22.252C93.3373 22.5286 93.3902 23.432 93.3902 24.9619C93.3902 26.4919 93.4187 27.3626 93.4756 27.5742C93.5408 27.7858 93.7076 27.8916 93.9761 27.8916C94.0087 27.8916 94.1633 27.8428 94.44 27.7451L94.7086 27.6475C95.5793 27.3057 96.3321 27.1348 96.9669 27.1348C98.3015 27.1348 99.2496 27.6556 99.8111 28.6973C100.185 29.389 100.373 30.8945 100.373 33.2139C100.373 34.3044 100.381 34.9513 100.397 35.1548C100.413 35.3582 100.466 35.7285 100.556 36.2656C100.645 36.7946 100.69 37.0876 100.69 37.1445C100.69 37.6247 100.58 37.9827 100.36 38.2188C100.149 38.4466 99.7623 38.5605 99.2007 38.5605C98.6474 38.5605 98.2852 38.3896 98.1143 38.0479C98.0248 37.8688 97.98 37.3521 97.98 36.4976L97.9434 34.3491L97.98 32.4082C97.98 30.2354 97.3453 29.1489 96.0757 29.1489C94.9527 29.1489 94.1511 29.6209 93.671 30.5649C93.1908 31.509 92.9507 33.2586 92.9507 35.814L92.9874 37.1445C92.9874 37.6003 92.845 37.9868 92.5601 38.3042C92.2753 38.6134 91.8684 38.7681 91.3394 38.7681ZM104.572 32.6523V31.7124C104.572 30.5812 104.511 29.7552 104.389 29.2344C104.267 28.7054 104.206 28.3351 104.206 28.1235C104.206 27.6271 104.568 27.3789 105.292 27.3789C106.016 27.3789 106.541 27.5132 106.867 27.7817C106.956 27.855 107.07 27.9974 107.209 28.209C107.355 28.4206 107.485 28.5264 107.599 28.5264C107.624 28.5264 107.978 28.3188 108.661 27.9038C109.345 27.4888 109.931 27.2812 110.419 27.2812H110.602C111.001 27.2812 111.318 27.3789 111.554 27.5742C111.79 27.7614 111.908 27.9933 111.908 28.27V28.4287C111.908 28.7624 111.79 29.0024 111.554 29.1489C111.326 29.2954 110.96 29.3687 110.456 29.3687C109.308 29.3687 108.47 29.7715 107.941 30.5771C107.42 31.3828 107.16 32.807 107.16 34.8496C107.16 35.1426 107.209 35.5942 107.306 36.2046C107.412 36.8149 107.465 37.2747 107.465 37.584C107.465 37.8932 107.298 38.1903 106.964 38.4751C106.631 38.7599 106.208 38.9023 105.695 38.9023H105.28C104.832 38.9023 104.486 38.7965 104.242 38.585C104.006 38.3652 103.888 38.1007 103.888 37.7915C103.888 37.4741 103.945 37.1527 104.059 36.8271C104.368 35.9482 104.523 34.9798 104.523 33.9219C104.556 33.3359 104.572 32.9128 104.572 32.6523ZM115.863 33.8486C115.863 34.9147 116.107 35.8018 116.596 36.5098C117.084 37.2178 117.682 37.5718 118.39 37.5718H118.756C119.595 37.5718 120.303 37.1486 120.88 36.3022C121.466 35.4559 121.759 34.3288 121.759 32.9209V32.1152C121.759 31.0247 121.519 30.1336 121.039 29.4419C120.567 28.742 119.957 28.3921 119.208 28.3921H118.964C118.093 28.3921 117.361 28.8234 116.767 29.686C116.181 30.5487 115.888 31.5781 115.888 32.7744L115.863 33.0552V33.8486ZM118.622 39.2319H118.232C116.807 39.2319 115.648 38.7355 114.753 37.7427C113.857 36.7498 113.41 35.342 113.41 33.519L113.422 33.3115C113.422 31.3096 113.951 29.7308 115.009 28.5752C115.562 27.9648 116.193 27.5173 116.901 27.2324C117.617 26.9395 118.297 26.793 118.94 26.793H119.538C120.254 26.793 120.941 26.9517 121.601 27.269C123.489 28.1805 124.433 29.8976 124.433 32.4204V32.6157C124.425 33.4377 124.29 34.2718 124.03 35.1182C123.509 36.7865 122.508 37.9665 121.027 38.6582C120.205 39.0407 119.403 39.2319 118.622 39.2319ZM138.166 37.5352C138.166 38.1374 137.641 38.4385 136.591 38.4385C135.997 38.4385 135.598 38.2961 135.395 38.0112C135.297 37.8729 135.248 37.5474 135.248 37.0347L135.211 36.2534C135.155 35.3989 135.126 34.5404 135.126 33.6777C135.126 31.8141 134.963 30.5649 134.638 29.9302C134.32 29.2873 133.783 28.9658 133.026 28.9658C132.522 28.9658 132.054 29.1164 131.623 29.4175C131.199 29.7186 130.874 30.1377 130.646 30.6748C130.174 31.7734 129.938 33.8039 129.938 36.7661C129.938 37.4416 129.808 37.9176 129.547 38.1943C129.295 38.471 128.97 38.6094 128.571 38.6094H128.327C127.415 38.6094 126.96 38.2472 126.96 37.5229V37.23C126.96 37.1405 127.008 36.9451 127.106 36.644L127.301 36.0825C127.497 35.4233 127.594 34.0114 127.594 31.8467L127.655 28.2212C127.655 27.7573 127.908 27.5254 128.412 27.5254C128.917 27.5254 129.413 27.6922 129.901 28.0259C130.398 28.3595 130.711 28.5264 130.841 28.5264C130.98 28.5264 131.22 28.4328 131.562 28.2456C132.709 27.619 133.629 27.3057 134.32 27.3057H134.638C135.883 27.3057 136.758 27.8672 137.262 28.9902C137.506 29.5192 137.628 30.6585 137.628 32.4082V32.4937C137.628 32.6401 137.624 32.7866 137.616 32.9331C137.616 33.3319 137.616 33.5394 137.616 33.5557C137.616 33.7103 137.616 33.8608 137.616 34.0073C137.616 34.1213 137.616 34.2311 137.616 34.3369C137.616 34.9635 137.637 35.3908 137.677 35.6187C137.734 35.9279 137.828 36.2493 137.958 36.583C138.096 36.9492 138.166 37.2666 138.166 37.5352ZM144.977 23.1309V23.2773C144.977 23.6924 144.855 24.0464 144.611 24.3394C144.375 24.6242 144.009 24.7666 143.512 24.7666H143.317L142.939 24.7178C142.719 24.7178 142.507 24.616 142.304 24.4126C142.1 24.2091 141.999 23.904 141.999 23.4971V23.3506L142.06 22.9111C142.06 22.7402 142.161 22.5286 142.365 22.2764C142.576 22.0241 142.845 21.8979 143.17 21.8979L143.451 21.8613H143.695L144.037 21.9102C144.249 21.9102 144.456 22.016 144.66 22.2275C144.871 22.431 144.977 22.7321 144.977 23.1309ZM144.403 28.2822L144.269 31.5659L144.245 31.8955L144.208 32.8965V33.3726C144.208 34.5444 144.241 35.3135 144.306 35.6797C144.379 36.0459 144.513 36.404 144.709 36.7539C144.904 37.0957 145.002 37.3439 145.002 37.4985V37.6084C145.002 38.0072 144.798 38.3245 144.391 38.5605C143.984 38.7965 143.431 38.9146 142.731 38.9146H142.426C142.019 38.9146 141.71 38.825 141.498 38.646C141.287 38.4588 141.181 38.2594 141.181 38.0479V37.7793C141.181 37.6735 141.274 37.2992 141.461 36.6562C141.649 36.0052 141.742 35.1222 141.742 34.0073C141.767 33.6899 141.779 33.4702 141.779 33.3481L141.815 32.6768L141.84 32.3472C141.881 31.7775 141.901 31.334 141.901 31.0166L141.913 30.5283C141.913 29.918 141.811 29.3768 141.608 28.9048C141.413 28.4328 141.315 28.1398 141.315 28.0259C141.315 27.4399 141.868 27.147 142.975 27.147H143.415C143.83 27.147 144.098 27.2568 144.22 27.4766C144.342 27.6882 144.403 27.9567 144.403 28.2822ZM147.626 33.9219V33.3604C147.626 32.335 147.785 31.4276 148.102 30.6382C148.712 29.1082 149.648 28.0503 150.91 27.4644C151.732 27.0737 152.582 26.8784 153.461 26.8784H153.73C154.698 26.8784 155.5 27.0697 156.134 27.4521C156.769 27.8346 157.086 28.3026 157.086 28.856C157.086 29.4989 156.777 29.8203 156.159 29.8203C156.045 29.8203 155.646 29.6413 154.962 29.2832C154.279 28.9333 153.717 28.7583 153.278 28.7583C153.27 28.7583 153.262 28.7583 153.253 28.7583C152.293 28.7583 151.54 29.1733 150.995 30.0034C150.458 30.8335 150.19 31.9159 150.19 33.2505C150.19 34.5851 150.474 35.5739 151.044 36.2168C151.622 36.8597 152.423 37.1812 153.449 37.1812C153.872 37.1812 154.454 37.0632 155.194 36.8271C155.935 36.583 156.387 36.4609 156.549 36.4609C156.883 36.4609 157.05 36.6359 157.05 36.9858C157.05 37.4578 156.582 37.9339 155.646 38.4141C154.71 38.8942 153.791 39.1343 152.887 39.1343C150.47 39.1343 148.871 38.1821 148.09 36.2778C147.781 35.521 147.626 34.7357 147.626 33.9219ZM163.556 37.4619H163.874C164.541 37.4619 165.127 37.2381 165.631 36.7905C166.144 36.3348 166.4 35.8099 166.4 35.2158L166.425 35.0571V34.8984L166.449 34.52V33.8242C166.449 33.3522 166.209 33.1162 165.729 33.1162H165.18L165.094 33.1284L164.618 33.165C164.39 33.1976 164.228 33.2139 164.13 33.2139C163.471 33.2139 162.86 33.4621 162.299 33.9585C161.908 34.3084 161.713 34.8049 161.713 35.4478V35.6919C161.713 36.2371 161.888 36.6685 162.238 36.9858C162.596 37.3032 163.035 37.4619 163.556 37.4619ZM160.834 29.6616C160.289 29.6616 160.016 29.3117 160.016 28.6118C160.016 28.091 160.456 27.6393 161.335 27.2568C162.222 26.8662 163.141 26.6709 164.093 26.6709H164.704C165.526 26.6709 166.25 26.8255 166.877 27.1348C167.503 27.4359 167.979 27.8468 168.305 28.3677C168.638 28.8885 168.842 29.568 168.915 30.4062C168.931 30.6016 168.94 31.5496 168.94 33.2505C168.94 34.9513 168.96 35.932 169.001 36.1924C169.049 36.4447 169.18 36.7539 169.391 37.1201C169.611 37.4863 169.721 37.7874 169.721 38.0234C169.721 38.2594 169.607 38.4629 169.379 38.6338C169.159 38.7965 168.838 38.8779 168.415 38.8779C167.991 38.8779 167.532 38.7762 167.035 38.5728C166.539 38.3612 166.177 38.2554 165.949 38.2554C165.924 38.2554 165.517 38.4019 164.728 38.6948C163.939 38.9797 163.271 39.1221 162.726 39.1221H162.458C161.546 39.1221 160.769 38.8332 160.126 38.2554C159.491 37.6776 159.174 36.8556 159.174 35.7896C159.174 34.7235 159.524 33.8934 160.224 33.2993C160.924 32.6971 161.774 32.2861 162.775 32.0664C163.076 32.0013 163.577 31.9159 164.276 31.8101C164.976 31.7043 165.452 31.5944 165.705 31.4805C166.144 31.277 166.364 30.8945 166.364 30.333C166.364 29.7633 166.177 29.3198 165.802 29.0024C165.428 28.6769 164.98 28.5142 164.46 28.5142C163.947 28.5142 163.271 28.7054 162.433 29.0879C161.595 29.4704 161.062 29.6616 160.834 29.6616ZM173.249 22.0322C173.249 21.4382 173.806 21.1411 174.921 21.1411H175.141C175.605 21.1411 175.922 21.255 176.093 21.4829C176.264 21.7026 176.349 22.134 176.349 22.7769L176.252 24.5957C176.227 24.8805 176.215 25.0352 176.215 25.0596L176.19 25.5234C176.174 25.8245 176.158 26.1297 176.142 26.439L176.105 26.9028L176.068 27.5986C175.938 30.0726 175.873 31.8996 175.873 33.0796C175.873 34.2515 175.926 35.0938 176.032 35.6064C176.138 36.1191 176.304 36.5545 176.532 36.9126C176.76 37.2707 176.874 37.5067 176.874 37.6206V37.7671C176.874 38.1252 176.695 38.41 176.337 38.6216C175.987 38.8332 175.511 38.939 174.909 38.939H174.274C173.9 38.939 173.57 38.8332 173.285 38.6216C173.009 38.4019 172.87 38.1536 172.87 37.877V37.5474L172.943 37.0347C173.041 36.3267 173.098 35.7977 173.114 35.4478C173.139 35.0897 173.175 34.5973 173.224 33.9707C173.273 33.3359 173.35 31.9891 173.456 29.9302C173.57 27.8631 173.627 26.7523 173.627 26.5977L173.676 25.6821L173.7 24.7788C173.7 23.9162 173.623 23.3018 173.468 22.9355C173.322 22.5612 173.249 22.2601 173.249 22.0322ZM180.426 22.0322C180.426 21.4382 180.984 21.1411 182.099 21.1411H182.318C182.782 21.1411 183.1 21.255 183.271 21.4829C183.441 21.7026 183.527 22.134 183.527 22.7769L183.429 24.5957C183.405 24.8805 183.393 25.0352 183.393 25.0596L183.368 25.5234C183.352 25.8245 183.336 26.1297 183.319 26.439L183.283 26.9028L183.246 27.5986C183.116 30.0726 183.051 31.8996 183.051 33.0796C183.051 34.2515 183.104 35.0938 183.21 35.6064C183.315 36.1191 183.482 36.5545 183.71 36.9126C183.938 37.2707 184.052 37.5067 184.052 37.6206V37.7671C184.052 38.1252 183.873 38.41 183.515 38.6216C183.165 38.8332 182.689 38.939 182.086 38.939H181.452C181.077 38.939 180.748 38.8332 180.463 38.6216C180.186 38.4019 180.048 38.1536 180.048 37.877V37.5474L180.121 37.0347C180.219 36.3267 180.276 35.7977 180.292 35.4478C180.316 35.0897 180.353 34.5973 180.402 33.9707C180.451 33.3359 180.528 31.9891 180.634 29.9302C180.748 27.8631 180.805 26.7523 180.805 26.5977L180.854 25.6821L180.878 24.7788C180.878 23.9162 180.801 23.3018 180.646 22.9355C180.5 22.5612 180.426 22.2601 180.426 22.0322ZM190.973 38.9512C190.973 38.528 190.684 37.7874 190.107 36.7295C189.529 35.6634 189.044 34.6706 188.654 33.751C187.319 30.6178 186.652 28.8071 186.652 28.3188C186.652 28.0991 186.778 27.8997 187.03 27.7207C187.291 27.5417 187.722 27.4521 188.324 27.4521C188.926 27.4521 189.35 27.7085 189.594 28.2212C189.618 28.2782 189.704 28.6322 189.85 29.2832C190.957 33.3278 191.649 35.4478 191.925 35.6431C192.349 35.6431 192.926 34.6543 193.659 32.6768C194.155 31.334 194.46 30.2069 194.574 29.2954C194.696 28.384 194.794 27.859 194.867 27.7207C195.095 27.2975 195.567 27.0859 196.283 27.0859C197.008 27.0859 197.37 27.3667 197.37 27.9282C197.37 28.327 197.223 28.86 196.93 29.5273C196.637 30.1947 196.361 30.9189 196.1 31.7002C194.611 36.1598 193.533 38.9756 192.865 40.1475C192.198 41.3275 191.494 42.2552 190.753 42.9307C190.013 43.6143 189.268 43.9561 188.52 43.9561C187.779 43.9561 187.409 43.7445 187.409 43.3213C187.409 42.9469 187.787 42.6051 188.544 42.2959C189.309 41.9867 189.842 41.6286 190.143 41.2217C190.697 40.4811 190.973 39.7243 190.973 38.9512ZM206.586 28.0259C206.586 27.5132 207.017 27.2568 207.88 27.2568H208.161C208.698 27.2568 209.06 27.4725 209.247 27.9038C209.434 28.3351 209.528 29.1408 209.528 30.3208L209.381 34.3979C209.381 36.2941 210.061 37.2422 211.42 37.2422C211.916 37.2422 212.392 37.0672 212.848 36.7173C213.304 36.3674 213.642 35.9482 213.861 35.46C214.342 34.3857 214.582 32.4611 214.582 29.686L214.557 29.1489V28.6729C214.557 28.2415 214.655 27.9282 214.85 27.7329C215.045 27.5376 215.387 27.4399 215.876 27.4399C216.364 27.4399 216.685 27.5579 216.84 27.7939C216.995 28.0299 217.072 28.4124 217.072 28.9414L217.047 29.5884L216.999 32.4692C216.999 32.9331 217.027 33.6452 217.084 34.6055C217.141 35.5658 217.202 36.2697 217.267 36.7173C217.332 37.1567 217.365 37.4172 217.365 37.4985C217.365 38.2228 216.832 38.585 215.766 38.585C215.399 38.585 215.033 38.4507 214.667 38.1821C214.309 37.9054 214.053 37.7671 213.898 37.7671C213.752 37.7671 213.499 37.8566 213.141 38.0356C212.124 38.5483 211.257 38.8047 210.541 38.8047H210.236C209.072 38.8047 208.218 38.4466 207.672 37.7305C207.127 37.0143 206.855 35.7244 206.855 33.8608L206.977 30.1621C206.977 29.6982 206.912 29.2547 206.781 28.8315C206.651 28.4084 206.586 28.1398 206.586 28.0259ZM231.598 37.5352C231.598 38.1374 231.073 38.4385 230.023 38.4385C229.429 38.4385 229.031 38.2961 228.827 38.0112C228.73 37.8729 228.681 37.5474 228.681 37.0347L228.644 36.2534C228.587 35.3989 228.559 34.5404 228.559 33.6777C228.559 31.8141 228.396 30.5649 228.07 29.9302C227.753 29.2873 227.216 28.9658 226.459 28.9658C225.954 28.9658 225.487 29.1164 225.055 29.4175C224.632 29.7186 224.307 30.1377 224.079 30.6748C223.607 31.7734 223.371 33.8039 223.371 36.7661C223.371 37.4416 223.24 37.9176 222.98 38.1943C222.728 38.471 222.402 38.6094 222.003 38.6094H221.759C220.848 38.6094 220.392 38.2472 220.392 37.5229V37.23C220.392 37.1405 220.441 36.9451 220.539 36.644L220.734 36.0825C220.929 35.4233 221.027 34.0114 221.027 31.8467L221.088 28.2212C221.088 27.7573 221.34 27.5254 221.845 27.5254C222.349 27.5254 222.846 27.6922 223.334 28.0259C223.83 28.3595 224.144 28.5264 224.274 28.5264C224.412 28.5264 224.652 28.4328 224.994 28.2456C226.142 27.619 227.061 27.3057 227.753 27.3057H228.07C229.315 27.3057 230.19 27.8672 230.695 28.9902C230.939 29.5192 231.061 30.6585 231.061 32.4082V32.4937C231.061 32.6401 231.057 32.7866 231.049 32.9331C231.049 33.3319 231.049 33.5394 231.049 33.5557C231.049 33.7103 231.049 33.8608 231.049 34.0073C231.049 34.1213 231.049 34.2311 231.049 34.3369C231.049 34.9635 231.069 35.3908 231.11 35.6187C231.167 35.9279 231.26 36.2493 231.391 36.583C231.529 36.9492 231.598 37.2666 231.598 37.5352ZM235.211 32.6523V31.7124C235.211 30.5812 235.15 29.7552 235.028 29.2344C234.906 28.7054 234.845 28.3351 234.845 28.1235C234.845 27.6271 235.207 27.3789 235.932 27.3789C236.656 27.3789 237.181 27.5132 237.506 27.7817C237.596 27.855 237.71 27.9974 237.848 28.209C237.995 28.4206 238.125 28.5264 238.239 28.5264C238.263 28.5264 238.617 28.3188 239.301 27.9038C239.984 27.4888 240.57 27.2812 241.059 27.2812H241.242C241.641 27.2812 241.958 27.3789 242.194 27.5742C242.43 27.7614 242.548 27.9933 242.548 28.27V28.4287C242.548 28.7624 242.43 29.0024 242.194 29.1489C241.966 29.2954 241.6 29.3687 241.095 29.3687C239.948 29.3687 239.11 29.7715 238.581 30.5771C238.06 31.3828 237.799 32.807 237.799 34.8496C237.799 35.1426 237.848 35.5942 237.946 36.2046C238.052 36.8149 238.105 37.2747 238.105 37.584C238.105 37.8932 237.938 38.1903 237.604 38.4751C237.27 38.7599 236.847 38.9023 236.335 38.9023H235.919C235.472 38.9023 235.126 38.7965 234.882 38.585C234.646 38.3652 234.528 38.1007 234.528 37.7915C234.528 37.4741 234.585 37.1527 234.699 36.8271C235.008 35.9482 235.163 34.9798 235.163 33.9219C235.195 33.3359 235.211 32.9128 235.211 32.6523ZM246.601 31.5781V31.7734C246.601 32.0176 246.824 32.1396 247.272 32.1396H247.565L247.638 32.1274L248.236 32.0786C248.863 31.9891 249.27 31.9443 249.457 31.9443C250.344 31.9443 251.011 31.7775 251.459 31.4438C251.671 31.2811 251.776 30.9922 251.776 30.5771V30.4429C251.776 29.8325 251.573 29.3483 251.166 28.9902C250.767 28.6322 250.287 28.4531 249.726 28.4531H249.64L249.567 28.4653C248.778 28.4653 248.086 28.799 247.492 29.4663C246.898 30.1336 246.601 30.8376 246.601 31.5781ZM249.262 39.1587H248.993C247.439 39.1587 246.202 38.6663 245.282 37.6816C244.363 36.6888 243.903 35.3664 243.903 33.7144V33.1772C243.903 32.3879 244.058 31.5863 244.367 30.7725C244.993 29.1449 246.015 28.0218 247.431 27.4033C248.179 27.0697 248.94 26.9028 249.713 26.9028H250.238C251.304 26.9028 252.204 27.2609 252.936 27.9771C253.677 28.6851 254.047 29.6006 254.047 30.7236V30.9678C254.047 31.7653 253.73 32.3309 253.095 32.6646C252.655 32.9006 251.63 33.1366 250.019 33.3726C248.407 33.6086 247.528 33.751 247.382 33.7998C246.894 33.9707 246.649 34.2962 246.649 34.7764C246.649 35.4437 246.934 36.0133 247.504 36.4854C248.074 36.9574 248.839 37.1934 249.799 37.1934C250.246 37.1934 250.857 37.0713 251.63 36.8271C252.403 36.583 252.851 36.4609 252.973 36.4609C253.388 36.4609 253.595 36.64 253.595 36.998C253.595 37.4782 253.127 37.9583 252.191 38.4385C251.256 38.9186 250.279 39.1587 249.262 39.1587ZM257.379 22.0322C257.379 21.4382 257.937 21.1411 259.052 21.1411H259.272C259.735 21.1411 260.053 21.255 260.224 21.4829C260.395 21.7026 260.48 22.134 260.48 22.7769L260.382 24.5957C260.358 24.8805 260.346 25.0352 260.346 25.0596L260.321 25.5234C260.305 25.8245 260.289 26.1297 260.273 26.439L260.236 26.9028L260.199 27.5986C260.069 30.0726 260.004 31.8996 260.004 33.0796C260.004 34.2515 260.057 35.0938 260.163 35.6064C260.268 36.1191 260.435 36.5545 260.663 36.9126C260.891 37.2707 261.005 37.5067 261.005 37.6206V37.7671C261.005 38.1252 260.826 38.41 260.468 38.6216C260.118 38.8332 259.642 38.939 259.04 38.939H258.405C258.03 38.939 257.701 38.8332 257.416 38.6216C257.139 38.4019 257.001 38.1536 257.001 37.877V37.5474L257.074 37.0347C257.172 36.3267 257.229 35.7977 257.245 35.4478C257.27 35.0897 257.306 34.5973 257.355 33.9707C257.404 33.3359 257.481 31.9891 257.587 29.9302C257.701 27.8631 257.758 26.7523 257.758 26.5977L257.807 25.6821L257.831 24.7788C257.831 23.9162 257.754 23.3018 257.599 22.9355C257.453 22.5612 257.379 22.2601 257.379 22.0322ZM267.853 23.1309V23.2773C267.853 23.6924 267.731 24.0464 267.487 24.3394C267.251 24.6242 266.885 24.7666 266.388 24.7666H266.193L265.815 24.7178C265.595 24.7178 265.383 24.616 265.18 24.4126C264.976 24.2091 264.875 23.904 264.875 23.4971V23.3506L264.936 22.9111C264.936 22.7402 265.037 22.5286 265.241 22.2764C265.452 22.0241 265.721 21.8979 266.046 21.8979L266.327 21.8613H266.571L266.913 21.9102C267.125 21.9102 267.332 22.016 267.536 22.2275C267.747 22.431 267.853 22.7321 267.853 23.1309ZM267.279 28.2822L267.145 31.5659L267.121 31.8955L267.084 32.8965V33.3726C267.084 34.5444 267.117 35.3135 267.182 35.6797C267.255 36.0459 267.389 36.404 267.585 36.7539C267.78 37.0957 267.878 37.3439 267.878 37.4985V37.6084C267.878 38.0072 267.674 38.3245 267.267 38.5605C266.86 38.7965 266.307 38.9146 265.607 38.9146H265.302C264.895 38.9146 264.586 38.825 264.374 38.646C264.162 38.4588 264.057 38.2594 264.057 38.0479V37.7793C264.057 37.6735 264.15 37.2992 264.337 36.6562C264.525 36.0052 264.618 35.1222 264.618 34.0073C264.643 33.6899 264.655 33.4702 264.655 33.3481L264.691 32.6768L264.716 32.3472C264.757 31.7775 264.777 31.334 264.777 31.0166L264.789 30.5283C264.789 29.918 264.687 29.3768 264.484 28.9048C264.289 28.4328 264.191 28.1398 264.191 28.0259C264.191 27.4399 264.744 27.147 265.851 27.147H266.291C266.706 27.147 266.974 27.2568 267.096 27.4766C267.218 27.6882 267.279 27.9567 267.279 28.2822ZM274.787 37.4619H275.104C275.771 37.4619 276.357 37.2381 276.862 36.7905C277.375 36.3348 277.631 35.8099 277.631 35.2158L277.655 35.0571V34.8984L277.68 34.52V33.8242C277.68 33.3522 277.44 33.1162 276.96 33.1162H276.41L276.325 33.1284L275.849 33.165C275.621 33.1976 275.458 33.2139 275.36 33.2139C274.701 33.2139 274.091 33.4621 273.529 33.9585C273.139 34.3084 272.943 34.8049 272.943 35.4478V35.6919C272.943 36.2371 273.118 36.6685 273.468 36.9858C273.826 37.3032 274.266 37.4619 274.787 37.4619ZM272.065 29.6616C271.519 29.6616 271.247 29.3117 271.247 28.6118C271.247 28.091 271.686 27.6393 272.565 27.2568C273.452 26.8662 274.372 26.6709 275.324 26.6709H275.934C276.756 26.6709 277.48 26.8255 278.107 27.1348C278.734 27.4359 279.21 27.8468 279.535 28.3677C279.869 28.8885 280.072 29.568 280.146 30.4062C280.162 30.6016 280.17 31.5496 280.17 33.2505C280.17 34.9513 280.19 35.932 280.231 36.1924C280.28 36.4447 280.41 36.7539 280.622 37.1201C280.841 37.4863 280.951 37.7874 280.951 38.0234C280.951 38.2594 280.837 38.4629 280.609 38.6338C280.39 38.7965 280.068 38.8779 279.645 38.8779C279.222 38.8779 278.762 38.7762 278.266 38.5728C277.769 38.3612 277.407 38.2554 277.179 38.2554C277.155 38.2554 276.748 38.4019 275.959 38.6948C275.169 38.9797 274.502 39.1221 273.957 39.1221H273.688C272.777 39.1221 271.999 38.8332 271.357 38.2554C270.722 37.6776 270.404 36.8556 270.404 35.7896C270.404 34.7235 270.754 33.8934 271.454 33.2993C272.154 32.6971 273.004 32.2861 274.005 32.0664C274.307 32.0013 274.807 31.9159 275.507 31.8101C276.207 31.7043 276.683 31.5944 276.935 31.4805C277.375 31.277 277.594 30.8945 277.594 30.333C277.594 29.7633 277.407 29.3198 277.033 29.0024C276.658 28.6769 276.211 28.5142 275.69 28.5142C275.177 28.5142 274.502 28.7054 273.664 29.0879C272.825 29.4704 272.292 29.6616 272.065 29.6616ZM288.666 37.4497H289.032C289.919 37.4497 290.664 37.0103 291.266 36.1313C291.877 35.2443 292.182 34.0399 292.182 32.5181V32.1274L292.169 31.9932L292.157 31.7368C292.149 31.6473 292.145 31.5618 292.145 31.4805C292.145 30.6911 291.925 29.9993 291.486 29.4053C291.046 28.8031 290.509 28.502 289.875 28.502H289.521C289.122 28.502 288.682 28.6403 288.202 28.917C287.73 29.1937 287.397 29.5192 287.201 29.8936C286.77 30.7074 286.554 31.9932 286.554 33.751V34.874C286.579 35.1182 286.591 35.3216 286.591 35.4844C286.591 36.0703 286.77 36.5464 287.128 36.9126C287.494 37.2707 288.007 37.4497 288.666 37.4497ZM287.067 26.7197C287.067 27.029 287.116 27.2609 287.213 27.4155C287.319 27.5701 287.592 27.6475 288.031 27.6475C288.039 27.6475 288.304 27.5864 288.825 27.4644C289.354 27.3423 289.899 27.2812 290.461 27.2812C291.673 27.2812 292.686 27.7614 293.5 28.7217C294.314 29.682 294.721 30.8538 294.721 32.2373V33.1162C294.721 33.7998 294.586 34.5241 294.318 35.2891C294.041 36.054 293.651 36.7173 293.146 37.2788C292.113 38.4181 290.839 38.9878 289.325 38.9878H289.057C288.634 38.9878 288.088 38.9064 287.421 38.7437C286.754 38.5809 286.318 38.4995 286.115 38.4995L285.297 38.5728C284.459 38.5728 284.04 38.1536 284.04 37.3154V36.8149C284.04 36.3185 284.137 34.5078 284.333 31.3828C284.536 28.2578 284.638 26.264 284.638 25.4014C284.638 24.5387 284.569 23.8226 284.43 23.2529C284.292 22.6833 284.223 22.374 284.223 22.3252C284.223 21.6416 284.609 21.2998 285.382 21.2998H285.627C286.286 21.2998 286.705 21.4585 286.884 21.7759C287.063 22.0851 287.152 22.6629 287.152 23.5093L287.091 25.4502L287.067 25.9995V26.7197ZM297.98 22.0322C297.98 21.4382 298.537 21.1411 299.652 21.1411H299.872C300.336 21.1411 300.653 21.255 300.824 21.4829C300.995 21.7026 301.081 22.134 301.081 22.7769L300.983 24.5957C300.959 24.8805 300.946 25.0352 300.946 25.0596L300.922 25.5234C300.906 25.8245 300.889 26.1297 300.873 26.439L300.836 26.9028L300.8 27.5986C300.67 30.0726 300.605 31.8996 300.605 33.0796C300.605 34.2515 300.657 35.0938 300.763 35.6064C300.869 36.1191 301.036 36.5545 301.264 36.9126C301.492 37.2707 301.606 37.5067 301.606 37.6206V37.7671C301.606 38.1252 301.426 38.41 301.068 38.6216C300.718 38.8332 300.242 38.939 299.64 38.939H299.005C298.631 38.939 298.301 38.8332 298.017 38.6216C297.74 38.4019 297.602 38.1536 297.602 37.877V37.5474L297.675 37.0347C297.773 36.3267 297.829 35.7977 297.846 35.4478C297.87 35.0897 297.907 34.5973 297.956 33.9707C298.004 33.3359 298.082 31.9891 298.188 29.9302C298.301 27.8631 298.358 26.7523 298.358 26.5977L298.407 25.6821L298.432 24.7788C298.432 23.9162 298.354 23.3018 298.2 22.9355C298.053 22.5612 297.98 22.2601 297.98 22.0322ZM306.659 31.5781V31.7734C306.659 32.0176 306.883 32.1396 307.331 32.1396H307.624L307.697 32.1274L308.295 32.0786C308.922 31.9891 309.329 31.9443 309.516 31.9443C310.403 31.9443 311.07 31.7775 311.518 31.4438C311.729 31.2811 311.835 30.9922 311.835 30.5771V30.4429C311.835 29.8325 311.632 29.3483 311.225 28.9902C310.826 28.6322 310.346 28.4531 309.784 28.4531H309.699L309.626 28.4653C308.836 28.4653 308.144 28.799 307.55 29.4663C306.956 30.1336 306.659 30.8376 306.659 31.5781ZM309.32 39.1587H309.052C307.497 39.1587 306.26 38.6663 305.341 37.6816C304.421 36.6888 303.961 35.3664 303.961 33.7144V33.1772C303.961 32.3879 304.116 31.5863 304.425 30.7725C305.052 29.1449 306.073 28.0218 307.489 27.4033C308.238 27.0697 308.999 26.9028 309.772 26.9028H310.297C311.363 26.9028 312.262 27.2609 312.995 27.9771C313.735 28.6851 314.106 29.6006 314.106 30.7236V30.9678C314.106 31.7653 313.788 32.3309 313.153 32.6646C312.714 32.9006 311.689 33.1366 310.077 33.3726C308.466 33.6086 307.587 33.751 307.44 33.7998C306.952 33.9707 306.708 34.2962 306.708 34.7764C306.708 35.4437 306.993 36.0133 307.563 36.4854C308.132 36.9574 308.897 37.1934 309.857 37.1934C310.305 37.1934 310.915 37.0713 311.689 36.8271C312.462 36.583 312.909 36.4609 313.031 36.4609C313.446 36.4609 313.654 36.64 313.654 36.998C313.654 37.4782 313.186 37.9583 312.25 38.4385C311.314 38.9186 310.338 39.1587 309.32 39.1587ZM318.476 39.1953H318.097C317.69 39.1953 317.373 39.1017 317.145 38.9146C316.925 38.7274 316.815 38.4792 316.815 38.1699C316.799 38.1048 316.791 38.0519 316.791 38.0112L316.767 37.8037V37.584L316.779 37.5352V37.4253C316.795 37.3602 316.803 37.3073 316.803 37.2666C316.803 36.9004 316.925 36.6156 317.169 36.4121C317.422 36.2005 317.698 36.0947 318 36.0947L318.256 36.0581H318.586C319.473 36.0581 319.916 36.522 319.916 37.4497V37.6206L319.867 38.0356C319.867 38.41 319.725 38.6989 319.44 38.9023C319.163 39.0977 318.842 39.1953 318.476 39.1953ZM333.795 26.2559C333.739 27.1104 333.71 27.7451 333.71 28.1602L333.686 28.5508L333.649 29.7104L333.625 30.1011L333.576 31.4561C333.559 31.7165 333.551 31.9118 333.551 32.042L333.527 32.4326C333.511 32.693 333.503 32.8843 333.503 33.0063L333.478 33.3848C333.47 33.515 333.466 33.6452 333.466 33.7754L333.441 34.1538L333.405 35.4844V36.2168C333.405 36.6074 333.551 36.8719 333.844 37.0103C334.137 37.1405 334.565 37.2056 335.126 37.2056H335.675C337.417 37.2056 338.792 36.5586 339.801 35.2646C340.241 34.7031 340.599 33.9626 340.876 33.043C341.152 32.1234 341.291 31.0898 341.291 29.9424V29.7349C341.291 26.7319 340.306 24.7869 338.336 23.8999C337.751 23.6395 337.091 23.5093 336.359 23.5093H335.797C334.886 23.5093 334.324 23.6558 334.113 23.9487C333.901 24.2336 333.795 25.0026 333.795 26.2559ZM330.768 22.8257C330.768 22.4351 331.029 22.1909 331.549 22.0933C332.477 21.9224 333.828 21.8369 335.602 21.8369H336.188C339.98 21.8369 342.446 23.2855 343.586 26.1826C343.984 27.1917 344.184 28.327 344.184 29.5884V29.6616V29.9668C344.184 31.277 343.952 32.571 343.488 33.8486C343.024 35.1182 342.344 36.1354 341.449 36.9004C340.562 37.6654 339.602 38.2065 338.568 38.5239C337.535 38.8332 336.188 38.9878 334.528 38.9878H334.247L333.954 38.9756C332.18 38.9756 331.041 38.8942 330.536 38.7314C330.268 38.6419 330.133 38.4466 330.133 38.1455C330.133 38.056 330.239 37.7793 330.451 37.3154C330.833 36.4772 331.024 34.9676 331.024 32.7866L331.171 29.0879L331.195 28.5264L331.232 26.5854C331.232 25.4299 331.216 24.7218 331.183 24.4614C331.151 24.201 331.073 23.8918 330.951 23.5337C330.829 23.1756 330.768 22.9396 330.768 22.8257ZM350.836 23.1309V23.2773C350.836 23.6924 350.714 24.0464 350.47 24.3394C350.234 24.6242 349.868 24.7666 349.372 24.7666H349.176L348.798 24.7178C348.578 24.7178 348.367 24.616 348.163 24.4126C347.96 24.2091 347.858 23.904 347.858 23.4971V23.3506L347.919 22.9111C347.919 22.7402 348.021 22.5286 348.224 22.2764C348.436 22.0241 348.704 21.8979 349.03 21.8979L349.311 21.8613H349.555L349.897 21.9102C350.108 21.9102 350.316 22.016 350.519 22.2275C350.731 22.431 350.836 22.7321 350.836 23.1309ZM350.263 28.2822L350.128 31.5659L350.104 31.8955L350.067 32.8965V33.3726C350.067 34.5444 350.1 35.3135 350.165 35.6797C350.238 36.0459 350.373 36.404 350.568 36.7539C350.763 37.0957 350.861 37.3439 350.861 37.4985V37.6084C350.861 38.0072 350.657 38.3245 350.251 38.5605C349.844 38.7965 349.29 38.9146 348.59 38.9146H348.285C347.878 38.9146 347.569 38.825 347.357 38.646C347.146 38.4588 347.04 38.2594 347.04 38.0479V37.7793C347.04 37.6735 347.134 37.2992 347.321 36.6562C347.508 36.0052 347.602 35.1222 347.602 34.0073C347.626 33.6899 347.638 33.4702 347.638 33.3481L347.675 32.6768L347.699 32.3472C347.74 31.7775 347.76 31.334 347.76 31.0166L347.773 30.5283C347.773 29.918 347.671 29.3768 347.467 28.9048C347.272 28.4328 347.174 28.1398 347.174 28.0259C347.174 27.4399 347.728 27.147 348.835 27.147H349.274C349.689 27.147 349.958 27.2568 350.08 27.4766C350.202 27.6882 350.263 27.9567 350.263 28.2822ZM354.779 32.1885C354.283 31.6839 354.035 30.9759 354.035 30.0645C354.035 29.153 354.442 28.3717 355.255 27.7207C356.069 27.0615 357.078 26.7319 358.283 26.7319H358.6C359.666 26.7319 360.513 26.8825 361.139 27.1836C361.774 27.4847 362.091 27.9364 362.091 28.5386C362.091 29.1326 361.827 29.4297 361.298 29.4297C361.16 29.4297 360.769 29.2669 360.126 28.9414C359.483 28.6077 358.877 28.4409 358.307 28.4409C357.738 28.4409 357.278 28.5711 356.928 28.8315C356.586 29.0838 356.415 29.4338 356.415 29.8813C356.415 30.3289 356.655 30.7196 357.135 31.0532C357.412 31.2485 358.063 31.5578 359.088 31.981C360.122 32.4041 360.858 32.811 361.298 33.2017C362.006 33.8283 362.36 34.6299 362.36 35.6064C362.36 36.583 361.945 37.4212 361.115 38.1211C360.285 38.8128 359.206 39.1587 357.88 39.1587H357.563C356.228 39.1587 355.227 38.9674 354.56 38.585C353.892 38.1943 353.559 37.6898 353.559 37.0713C353.559 36.4447 353.819 36.1313 354.34 36.1313C354.511 36.1313 354.954 36.3511 355.67 36.7905C356.395 37.23 357.103 37.4497 357.794 37.4497C358.494 37.4497 359.019 37.3032 359.369 37.0103C359.719 36.7091 359.894 36.3348 359.894 35.8872C359.894 35.4315 359.674 35.0327 359.235 34.6909C358.999 34.5037 358.323 34.166 357.209 33.6777C356.094 33.1813 355.284 32.6849 354.779 32.1885ZM365.753 32.6523V31.7124C365.753 30.5812 365.692 29.7552 365.57 29.2344C365.448 28.7054 365.387 28.3351 365.387 28.1235C365.387 27.6271 365.749 27.3789 366.474 27.3789C367.198 27.3789 367.723 27.5132 368.048 27.7817C368.138 27.855 368.252 27.9974 368.39 28.209C368.537 28.4206 368.667 28.5264 368.781 28.5264C368.805 28.5264 369.159 28.3188 369.843 27.9038C370.526 27.4888 371.112 27.2812 371.601 27.2812H371.784C372.183 27.2812 372.5 27.3789 372.736 27.5742C372.972 27.7614 373.09 27.9933 373.09 28.27V28.4287C373.09 28.7624 372.972 29.0024 372.736 29.1489C372.508 29.2954 372.142 29.3687 371.637 29.3687C370.49 29.3687 369.652 29.7715 369.123 30.5771C368.602 31.3828 368.341 32.807 368.341 34.8496C368.341 35.1426 368.39 35.5942 368.488 36.2046C368.594 36.8149 368.647 37.2747 368.647 37.584C368.647 37.8932 368.48 38.1903 368.146 38.4751C367.812 38.7599 367.389 38.9023 366.877 38.9023H366.461C366.014 38.9023 365.668 38.7965 365.424 38.585C365.188 38.3652 365.07 38.1007 365.07 37.7915C365.07 37.4741 365.127 37.1527 365.241 36.8271C365.55 35.9482 365.705 34.9798 365.705 33.9219C365.737 33.3359 365.753 32.9128 365.753 32.6523ZM377.143 31.5781V31.7734C377.143 32.0176 377.366 32.1396 377.814 32.1396H378.107L378.18 32.1274L378.778 32.0786C379.405 31.9891 379.812 31.9443 379.999 31.9443C380.886 31.9443 381.553 31.7775 382.001 31.4438C382.213 31.2811 382.318 30.9922 382.318 30.5771V30.4429C382.318 29.8325 382.115 29.3483 381.708 28.9902C381.309 28.6322 380.829 28.4531 380.268 28.4531H380.182L380.109 28.4653C379.32 28.4653 378.628 28.799 378.034 29.4663C377.44 30.1336 377.143 30.8376 377.143 31.5781ZM379.804 39.1587H379.535C377.981 39.1587 376.744 38.6663 375.824 37.6816C374.905 36.6888 374.445 35.3664 374.445 33.7144V33.1772C374.445 32.3879 374.6 31.5863 374.909 30.7725C375.535 29.1449 376.557 28.0218 377.973 27.4033C378.721 27.0697 379.482 26.9028 380.255 26.9028H380.78C381.846 26.9028 382.746 27.2609 383.478 27.9771C384.219 28.6851 384.589 29.6006 384.589 30.7236V30.9678C384.589 31.7653 384.272 32.3309 383.637 32.6646C383.197 32.9006 382.172 33.1366 380.561 33.3726C378.949 33.6086 378.07 33.751 377.924 33.7998C377.436 33.9707 377.191 34.2962 377.191 34.7764C377.191 35.4437 377.476 36.0133 378.046 36.4854C378.616 36.9574 379.381 37.1934 380.341 37.1934C380.788 37.1934 381.399 37.0713 382.172 36.8271C382.945 36.583 383.393 36.4609 383.515 36.4609C383.93 36.4609 384.137 36.64 384.137 36.998C384.137 37.4782 383.669 37.9583 382.733 38.4385C381.798 38.9186 380.821 39.1587 379.804 39.1587ZM389.398 33.3481V33.7266C389.398 34.8171 389.606 35.6715 390.021 36.29C390.436 36.9085 390.957 37.2178 391.584 37.2178H392.011C392.914 37.2178 393.618 36.8394 394.123 36.0825C394.627 35.3175 394.879 34.2474 394.879 32.8721C394.896 32.7093 394.904 32.5832 394.904 32.4937L394.928 31.9932V31.2607C394.912 31.098 394.904 30.9759 394.904 30.8945C394.904 30.2516 394.749 29.7471 394.44 29.3809C394.131 29.0146 393.675 28.8315 393.073 28.8315H392.731C391.771 28.8315 390.973 29.2344 390.338 30.04C389.712 30.8457 389.398 31.9484 389.398 33.3481ZM396.491 27.8306C397.199 27.8306 397.553 28.3433 397.553 29.3687C397.553 29.6372 397.443 30.7603 397.223 32.7378C397.003 34.7153 396.894 36.3958 396.894 37.7793C396.894 39.179 396.8 40.2288 396.613 40.9287C396.214 42.4342 395.29 43.5003 393.842 44.127C393.085 44.4525 392.247 44.6152 391.327 44.6152C390.416 44.6152 389.602 44.4525 388.886 44.127C388.178 43.8014 387.824 43.4108 387.824 42.9551C387.824 42.4342 388.174 42.1738 388.874 42.1738C389.012 42.1738 389.386 42.2267 389.997 42.3325C390.607 42.4383 391.046 42.4912 391.315 42.4912C392.3 42.4912 393.105 42.182 393.732 41.5635C394.367 40.9531 394.684 40.1678 394.684 39.2075C394.684 38.703 394.497 38.4507 394.123 38.4507C394.058 38.4507 393.903 38.4751 393.659 38.5239C392.967 38.6623 392.336 38.7314 391.767 38.7314C390.318 38.7314 389.228 38.292 388.495 37.4131C388.153 37.0062 387.86 36.465 387.616 35.7896C387.38 35.106 387.262 34.3857 387.262 33.6289V33.2871C387.262 32.4896 387.392 31.7043 387.653 30.9312C387.921 30.1499 388.275 29.4948 388.715 28.9658C389.154 28.4287 389.728 28.0096 390.436 27.7085C391.144 27.4074 391.868 27.2568 392.609 27.2568H392.926C393.341 27.2568 393.874 27.3708 394.525 27.5986C395.185 27.8184 395.587 27.9282 395.734 27.9282C396.059 27.8631 396.312 27.8306 396.491 27.8306ZM404.645 37.4619H404.962C405.63 37.4619 406.216 37.2381 406.72 36.7905C407.233 36.3348 407.489 35.8099 407.489 35.2158L407.514 35.0571V34.8984L407.538 34.52V33.8242C407.538 33.3522 407.298 33.1162 406.818 33.1162H406.269L406.183 33.1284L405.707 33.165C405.479 33.1976 405.316 33.2139 405.219 33.2139C404.56 33.2139 403.949 33.4621 403.388 33.9585C402.997 34.3084 402.802 34.8049 402.802 35.4478V35.6919C402.802 36.2371 402.977 36.6685 403.327 36.9858C403.685 37.3032 404.124 37.4619 404.645 37.4619ZM401.923 29.6616C401.378 29.6616 401.105 29.3117 401.105 28.6118C401.105 28.091 401.544 27.6393 402.423 27.2568C403.31 26.8662 404.23 26.6709 405.182 26.6709H405.793C406.614 26.6709 407.339 26.8255 407.965 27.1348C408.592 27.4359 409.068 27.8468 409.394 28.3677C409.727 28.8885 409.931 29.568 410.004 30.4062C410.02 30.6016 410.028 31.5496 410.028 33.2505C410.028 34.9513 410.049 35.932 410.089 36.1924C410.138 36.4447 410.268 36.7539 410.48 37.1201C410.7 37.4863 410.81 37.7874 410.81 38.0234C410.81 38.2594 410.696 38.4629 410.468 38.6338C410.248 38.7965 409.927 38.8779 409.503 38.8779C409.08 38.8779 408.621 38.7762 408.124 38.5728C407.628 38.3612 407.266 38.2554 407.038 38.2554C407.013 38.2554 406.606 38.4019 405.817 38.6948C405.028 38.9797 404.36 39.1221 403.815 39.1221H403.546C402.635 39.1221 401.858 38.8332 401.215 38.2554C400.58 37.6776 400.263 36.8556 400.263 35.7896C400.263 34.7235 400.613 33.8934 401.313 33.2993C402.012 32.6971 402.863 32.2861 403.864 32.0664C404.165 32.0013 404.665 31.9159 405.365 31.8101C406.065 31.7043 406.541 31.5944 406.794 31.4805C407.233 31.277 407.453 30.8945 407.453 30.333C407.453 29.7633 407.266 29.3198 406.891 29.0024C406.517 28.6769 406.069 28.5142 405.548 28.5142C405.036 28.5142 404.36 28.7054 403.522 29.0879C402.684 29.4704 402.151 29.6616 401.923 29.6616ZM414.435 32.6523V31.7124C414.435 30.5812 414.374 29.7552 414.252 29.2344C414.13 28.7054 414.069 28.3351 414.069 28.1235C414.069 27.6271 414.431 27.3789 415.155 27.3789C415.88 27.3789 416.405 27.5132 416.73 27.7817C416.82 27.855 416.933 27.9974 417.072 28.209C417.218 28.4206 417.349 28.5264 417.462 28.5264C417.487 28.5264 417.841 28.3188 418.524 27.9038C419.208 27.4888 419.794 27.2812 420.282 27.2812H420.465C420.864 27.2812 421.182 27.3789 421.418 27.5742C421.654 27.7614 421.772 27.9933 421.772 28.27V28.4287C421.772 28.7624 421.654 29.0024 421.418 29.1489C421.19 29.2954 420.823 29.3687 420.319 29.3687C419.171 29.3687 418.333 29.7715 417.804 30.5771C417.283 31.3828 417.023 32.807 417.023 34.8496C417.023 35.1426 417.072 35.5942 417.169 36.2046C417.275 36.8149 417.328 37.2747 417.328 37.584C417.328 37.8932 417.161 38.1903 416.828 38.4751C416.494 38.7599 416.071 38.9023 415.558 38.9023H415.143C414.696 38.9023 414.35 38.7965 414.106 38.585C413.87 38.3652 413.752 38.1007 413.752 37.7915C413.752 37.4741 413.808 37.1527 413.922 36.8271C414.232 35.9482 414.386 34.9798 414.386 33.9219C414.419 33.3359 414.435 32.9128 414.435 32.6523ZM425.702 33.0796V34.0073C425.702 34.9757 425.922 35.7855 426.361 36.4365C426.809 37.0794 427.334 37.4009 427.936 37.4009H428.278C429.206 37.4009 429.922 37.0306 430.426 36.29C430.939 35.5495 431.195 34.4468 431.195 32.9819C431.212 32.8029 431.22 32.6727 431.22 32.5913L431.244 32.3472L431.256 31.8345V30.9678C431.256 29.3076 430.593 28.4775 429.267 28.4775H428.791C427.928 28.4775 427.196 28.9129 426.593 29.7837C425.999 30.6545 425.702 31.7531 425.702 33.0796ZM423.358 33.6411C423.358 32.7948 423.509 31.9321 423.81 31.0532C424.111 30.1743 424.534 29.4256 425.08 28.8071C425.625 28.1805 426.239 27.7288 426.923 27.4521C427.607 27.1673 428.416 27.0249 429.352 27.0249C430.296 27.0249 430.882 26.854 431.11 26.5122C431.338 26.1623 431.452 25.3932 431.452 24.2051C431.452 23.9854 431.415 23.6924 431.342 23.3262C431.269 22.96 431.232 22.7484 431.232 22.6914C431.232 22.3415 431.383 22.0241 431.684 21.7393C431.985 21.4463 432.379 21.2998 432.868 21.2998H433.112C433.494 21.2998 433.779 21.3893 433.966 21.5684C434.154 21.7474 434.247 22.1217 434.247 22.6914V23.8267L434.223 24.4004C434.215 24.5957 434.211 24.8805 434.211 25.2549C434.211 25.6211 434.149 26.8011 434.027 28.7949C433.905 30.7887 433.844 32.16 433.844 32.9087L433.832 33.2017C433.824 33.397 433.82 33.5841 433.82 33.7632L433.808 34.0439C433.808 34.0439 433.808 34.3613 433.808 34.9961C433.808 35.818 433.873 36.4365 434.003 36.8516C434.133 37.2666 434.198 37.5636 434.198 37.7427C434.198 37.9217 434.097 38.1089 433.893 38.3042C433.69 38.4995 433.372 38.5972 432.941 38.5972C432.518 38.5972 432.107 38.528 431.708 38.3896C431.309 38.2432 431.016 38.1699 430.829 38.1699C430.642 38.1699 430.398 38.2269 430.097 38.3408C429.185 38.6745 428.351 38.8413 427.594 38.8413C427.578 38.8413 427.562 38.8413 427.545 38.8413H427.265C426.036 38.8413 425.076 38.3937 424.384 37.4985C423.7 36.5952 423.358 35.4111 423.358 33.9463V33.6411ZM438.275 32.1885C437.779 31.6839 437.531 30.9759 437.531 30.0645C437.531 29.153 437.938 28.3717 438.752 27.7207C439.565 27.0615 440.574 26.7319 441.779 26.7319H442.096C443.162 26.7319 444.009 26.8825 444.635 27.1836C445.27 27.4847 445.587 27.9364 445.587 28.5386C445.587 29.1326 445.323 29.4297 444.794 29.4297C444.656 29.4297 444.265 29.2669 443.622 28.9414C442.979 28.6077 442.373 28.4409 441.803 28.4409C441.234 28.4409 440.774 28.5711 440.424 28.8315C440.082 29.0838 439.911 29.4338 439.911 29.8813C439.911 30.3289 440.151 30.7196 440.631 31.0532C440.908 31.2485 441.559 31.5578 442.585 31.981C443.618 32.4041 444.355 32.811 444.794 33.2017C445.502 33.8283 445.856 34.6299 445.856 35.6064C445.856 36.583 445.441 37.4212 444.611 38.1211C443.781 38.8128 442.703 39.1587 441.376 39.1587H441.059C439.724 39.1587 438.723 38.9674 438.056 38.585C437.388 38.1943 437.055 37.6898 437.055 37.0713C437.055 36.4447 437.315 36.1313 437.836 36.1313C438.007 36.1313 438.45 36.3511 439.167 36.7905C439.891 37.23 440.599 37.4497 441.291 37.4497C441.99 37.4497 442.515 37.3032 442.865 37.0103C443.215 36.7091 443.39 36.3348 443.39 35.8872C443.39 35.4315 443.17 35.0327 442.731 34.6909C442.495 34.5037 441.82 34.166 440.705 33.6777C439.59 33.1813 438.78 32.6849 438.275 32.1885ZM456.244 32.1885C455.748 31.6839 455.5 30.9759 455.5 30.0645C455.5 29.153 455.906 28.3717 456.72 27.7207C457.534 27.0615 458.543 26.7319 459.748 26.7319H460.065C461.131 26.7319 461.977 26.8825 462.604 27.1836C463.239 27.4847 463.556 27.9364 463.556 28.5386C463.556 29.1326 463.292 29.4297 462.763 29.4297C462.624 29.4297 462.234 29.2669 461.591 28.9414C460.948 28.6077 460.342 28.4409 459.772 28.4409C459.202 28.4409 458.743 28.5711 458.393 28.8315C458.051 29.0838 457.88 29.4338 457.88 29.8813C457.88 30.3289 458.12 30.7196 458.6 31.0532C458.877 31.2485 459.528 31.5578 460.553 31.981C461.587 32.4041 462.323 32.811 462.763 33.2017C463.471 33.8283 463.825 34.6299 463.825 35.6064C463.825 36.583 463.41 37.4212 462.58 38.1211C461.75 38.8128 460.671 39.1587 459.345 39.1587H459.027C457.693 39.1587 456.692 38.9674 456.024 38.585C455.357 38.1943 455.023 37.6898 455.023 37.0713C455.023 36.4447 455.284 36.1313 455.805 36.1313C455.976 36.1313 456.419 36.3511 457.135 36.7905C457.86 37.23 458.568 37.4497 459.259 37.4497C459.959 37.4497 460.484 37.3032 460.834 37.0103C461.184 36.7091 461.359 36.3348 461.359 35.8872C461.359 35.4315 461.139 35.0327 460.7 34.6909C460.464 34.5037 459.788 34.166 458.673 33.6777C457.558 33.1813 456.749 32.6849 456.244 32.1885ZM466.059 33.9219V33.3604C466.059 32.335 466.217 31.4276 466.535 30.6382C467.145 29.1082 468.081 28.0503 469.342 27.4644C470.164 27.0737 471.015 26.8784 471.894 26.8784H472.162C473.131 26.8784 473.932 27.0697 474.567 27.4521C475.202 27.8346 475.519 28.3026 475.519 28.856C475.519 29.4989 475.21 29.8203 474.591 29.8203C474.477 29.8203 474.079 29.6413 473.395 29.2832C472.711 28.9333 472.15 28.7583 471.711 28.7583C471.702 28.7583 471.694 28.7583 471.686 28.7583C470.726 28.7583 469.973 29.1733 469.428 30.0034C468.891 30.8335 468.622 31.9159 468.622 33.2505C468.622 34.5851 468.907 35.5739 469.477 36.2168C470.054 36.8597 470.856 37.1812 471.881 37.1812C472.305 37.1812 472.886 37.0632 473.627 36.8271C474.368 36.583 474.819 36.4609 474.982 36.4609C475.316 36.4609 475.482 36.6359 475.482 36.9858C475.482 37.4578 475.015 37.9339 474.079 38.4141C473.143 38.8942 472.223 39.1343 471.32 39.1343C468.903 39.1343 467.304 38.1821 466.523 36.2778C466.213 35.521 466.059 34.7357 466.059 33.9219ZM479.572 38.7681C478.612 38.7681 478.131 38.4263 478.131 37.7427C478.131 37.4334 478.205 36.9736 478.351 36.3633C478.506 35.7529 478.607 35.1914 478.656 34.6787C478.705 34.1579 478.791 32.4814 478.913 29.6494C479.043 26.8174 479.108 25.0921 479.108 24.4736V23.0332L479.035 22.0078C479.035 21.6253 479.385 21.4341 480.085 21.4341C480.793 21.4341 481.252 21.7067 481.464 22.252C481.57 22.5286 481.623 23.432 481.623 24.9619C481.623 26.4919 481.651 27.3626 481.708 27.5742C481.773 27.7858 481.94 27.8916 482.209 27.8916C482.241 27.8916 482.396 27.8428 482.672 27.7451L482.941 27.6475C483.812 27.3057 484.565 27.1348 485.199 27.1348C486.534 27.1348 487.482 27.6556 488.044 28.6973C488.418 29.389 488.605 30.8945 488.605 33.2139C488.605 34.3044 488.613 34.9513 488.629 35.1548C488.646 35.3582 488.699 35.7285 488.788 36.2656C488.878 36.7946 488.922 37.0876 488.922 37.1445C488.922 37.6247 488.813 37.9827 488.593 38.2188C488.381 38.4466 487.995 38.5605 487.433 38.5605C486.88 38.5605 486.518 38.3896 486.347 38.0479C486.257 37.8688 486.212 37.3521 486.212 36.4976L486.176 34.3491L486.212 32.4082C486.212 30.2354 485.578 29.1489 484.308 29.1489C483.185 29.1489 482.384 29.6209 481.903 30.5649C481.423 31.509 481.183 33.2586 481.183 35.814L481.22 37.1445C481.22 37.6003 481.077 37.9868 480.793 38.3042C480.508 38.6134 480.101 38.7681 479.572 38.7681ZM494.257 31.5781V31.7734C494.257 32.0176 494.481 32.1396 494.928 32.1396H495.221L495.294 32.1274L495.893 32.0786C496.519 31.9891 496.926 31.9443 497.113 31.9443C498 31.9443 498.668 31.7775 499.115 31.4438C499.327 31.2811 499.433 30.9922 499.433 30.5771V30.4429C499.433 29.8325 499.229 29.3483 498.822 28.9902C498.424 28.6322 497.943 28.4531 497.382 28.4531H497.296L497.223 28.4653C496.434 28.4653 495.742 28.799 495.148 29.4663C494.554 30.1336 494.257 30.8376 494.257 31.5781ZM496.918 39.1587H496.649C495.095 39.1587 493.858 38.6663 492.939 37.6816C492.019 36.6888 491.559 35.3664 491.559 33.7144V33.1772C491.559 32.3879 491.714 31.5863 492.023 30.7725C492.65 29.1449 493.671 28.0218 495.087 27.4033C495.836 27.0697 496.597 26.9028 497.37 26.9028H497.895C498.961 26.9028 499.86 27.2609 500.592 27.9771C501.333 28.6851 501.703 29.6006 501.703 30.7236V30.9678C501.703 31.7653 501.386 32.3309 500.751 32.6646C500.312 32.9006 499.286 33.1366 497.675 33.3726C496.064 33.6086 495.185 33.751 495.038 33.7998C494.55 33.9707 494.306 34.2962 494.306 34.7764C494.306 35.4437 494.591 36.0133 495.16 36.4854C495.73 36.9574 496.495 37.1934 497.455 37.1934C497.903 37.1934 498.513 37.0713 499.286 36.8271C500.059 36.583 500.507 36.4609 500.629 36.4609C501.044 36.4609 501.252 36.64 501.252 36.998C501.252 37.4782 500.784 37.9583 499.848 38.4385C498.912 38.9186 497.935 39.1587 496.918 39.1587ZM506.464 33.0796V34.0073C506.464 34.9757 506.684 35.7855 507.123 36.4365C507.571 37.0794 508.096 37.4009 508.698 37.4009H509.04C509.967 37.4009 510.683 37.0306 511.188 36.29C511.701 35.5495 511.957 34.4468 511.957 32.9819C511.973 32.8029 511.982 32.6727 511.982 32.5913L512.006 32.3472L512.018 31.8345V30.9678C512.018 29.3076 511.355 28.4775 510.028 28.4775H509.552C508.69 28.4775 507.957 28.9129 507.355 29.7837C506.761 30.6545 506.464 31.7531 506.464 33.0796ZM504.12 33.6411C504.12 32.7948 504.271 31.9321 504.572 31.0532C504.873 30.1743 505.296 29.4256 505.841 28.8071C506.387 28.1805 507.001 27.7288 507.685 27.4521C508.368 27.1673 509.178 27.0249 510.114 27.0249C511.058 27.0249 511.644 26.854 511.872 26.5122C512.1 26.1623 512.213 25.3932 512.213 24.2051C512.213 23.9854 512.177 23.6924 512.104 23.3262C512.03 22.96 511.994 22.7484 511.994 22.6914C511.994 22.3415 512.144 22.0241 512.445 21.7393C512.746 21.4463 513.141 21.2998 513.629 21.2998H513.874C514.256 21.2998 514.541 21.3893 514.728 21.5684C514.915 21.7474 515.009 22.1217 515.009 22.6914V23.8267L514.984 24.4004C514.976 24.5957 514.972 24.8805 514.972 25.2549C514.972 25.6211 514.911 26.8011 514.789 28.7949C514.667 30.7887 514.606 32.16 514.606 32.9087L514.594 33.2017C514.586 33.397 514.582 33.5841 514.582 33.7632L514.569 34.0439C514.569 34.0439 514.569 34.3613 514.569 34.9961C514.569 35.818 514.635 36.4365 514.765 36.8516C514.895 37.2666 514.96 37.5636 514.96 37.7427C514.96 37.9217 514.858 38.1089 514.655 38.3042C514.451 38.4995 514.134 38.5972 513.703 38.5972C513.28 38.5972 512.869 38.528 512.47 38.3896C512.071 38.2432 511.778 38.1699 511.591 38.1699C511.404 38.1699 511.16 38.2269 510.858 38.3408C509.947 38.6745 509.113 38.8413 508.356 38.8413C508.34 38.8413 508.323 38.8413 508.307 38.8413H508.026C506.798 38.8413 505.837 38.3937 505.146 37.4985C504.462 36.5952 504.12 35.4111 504.12 33.9463V33.6411ZM518.207 28.0259C518.207 27.5132 518.638 27.2568 519.501 27.2568H519.782C520.319 27.2568 520.681 27.4725 520.868 27.9038C521.055 28.3351 521.149 29.1408 521.149 30.3208L521.003 34.3979C521.003 36.2941 521.682 37.2422 523.041 37.2422C523.537 37.2422 524.014 37.0672 524.469 36.7173C524.925 36.3674 525.263 35.9482 525.482 35.46C525.963 34.3857 526.203 32.4611 526.203 29.686L526.178 29.1489V28.6729C526.178 28.2415 526.276 27.9282 526.471 27.7329C526.667 27.5376 527.008 27.4399 527.497 27.4399C527.985 27.4399 528.306 27.5579 528.461 27.7939C528.616 28.0299 528.693 28.4124 528.693 28.9414L528.669 29.5884L528.62 32.4692C528.62 32.9331 528.648 33.6452 528.705 34.6055C528.762 35.5658 528.823 36.2697 528.888 36.7173C528.953 37.1567 528.986 37.4172 528.986 37.4985C528.986 38.2228 528.453 38.585 527.387 38.585C527.021 38.585 526.654 38.4507 526.288 38.1821C525.93 37.9054 525.674 37.7671 525.519 37.7671C525.373 37.7671 525.12 37.8566 524.762 38.0356C523.745 38.5483 522.878 38.8047 522.162 38.8047H521.857C520.693 38.8047 519.839 38.4466 519.294 37.7305C518.748 37.0143 518.476 35.7244 518.476 33.8608L518.598 30.1621C518.598 29.6982 518.533 29.2547 518.402 28.8315C518.272 28.4084 518.207 28.1398 518.207 28.0259ZM532.697 22.0322C532.697 21.4382 533.254 21.1411 534.369 21.1411H534.589C535.053 21.1411 535.37 21.255 535.541 21.4829C535.712 21.7026 535.797 22.134 535.797 22.7769L535.7 24.5957C535.675 24.8805 535.663 25.0352 535.663 25.0596L535.639 25.5234C535.622 25.8245 535.606 26.1297 535.59 26.439L535.553 26.9028L535.517 27.5986C535.386 30.0726 535.321 31.8996 535.321 33.0796C535.321 34.2515 535.374 35.0938 535.48 35.6064C535.586 36.1191 535.753 36.5545 535.981 36.9126C536.208 37.2707 536.322 37.5067 536.322 37.6206V37.7671C536.322 38.1252 536.143 38.41 535.785 38.6216C535.435 38.8332 534.959 38.939 534.357 38.939H533.722C533.348 38.939 533.018 38.8332 532.733 38.6216C532.457 38.4019 532.318 38.1536 532.318 37.877V37.5474L532.392 37.0347C532.489 36.3267 532.546 35.7977 532.563 35.4478C532.587 35.0897 532.624 34.5973 532.672 33.9707C532.721 33.3359 532.799 31.9891 532.904 29.9302C533.018 27.8631 533.075 26.7523 533.075 26.5977L533.124 25.6821L533.148 24.7788C533.148 23.9162 533.071 23.3018 532.917 22.9355C532.77 22.5612 532.697 22.2601 532.697 22.0322ZM541.376 31.5781V31.7734C541.376 32.0176 541.6 32.1396 542.047 32.1396H542.34L542.414 32.1274L543.012 32.0786C543.638 31.9891 544.045 31.9443 544.232 31.9443C545.12 31.9443 545.787 31.7775 546.234 31.4438C546.446 31.2811 546.552 30.9922 546.552 30.5771V30.4429C546.552 29.8325 546.348 29.3483 545.941 28.9902C545.543 28.6322 545.063 28.4531 544.501 28.4531H544.416L544.342 28.4653C543.553 28.4653 542.861 28.799 542.267 29.4663C541.673 30.1336 541.376 30.8376 541.376 31.5781ZM544.037 39.1587H543.769C542.214 39.1587 540.977 38.6663 540.058 37.6816C539.138 36.6888 538.678 35.3664 538.678 33.7144V33.1772C538.678 32.3879 538.833 31.5863 539.142 30.7725C539.769 29.1449 540.79 28.0218 542.206 27.4033C542.955 27.0697 543.716 26.9028 544.489 26.9028H545.014C546.08 26.9028 546.979 27.2609 547.711 27.9771C548.452 28.6851 548.822 29.6006 548.822 30.7236V30.9678C548.822 31.7653 548.505 32.3309 547.87 32.6646C547.431 32.9006 546.405 33.1366 544.794 33.3726C543.183 33.6086 542.304 33.751 542.157 33.7998C541.669 33.9707 541.425 34.2962 541.425 34.7764C541.425 35.4437 541.71 36.0133 542.279 36.4854C542.849 36.9574 543.614 37.1934 544.574 37.1934C545.022 37.1934 545.632 37.0713 546.405 36.8271C547.178 36.583 547.626 36.4609 547.748 36.4609C548.163 36.4609 548.371 36.64 548.371 36.998C548.371 37.4782 547.903 37.9583 546.967 38.4385C546.031 38.9186 545.054 39.1587 544.037 39.1587ZM552.338 32.1885C551.842 31.6839 551.593 30.9759 551.593 30.0645C551.593 29.153 552 28.3717 552.814 27.7207C553.628 27.0615 554.637 26.7319 555.841 26.7319H556.159C557.225 26.7319 558.071 26.8825 558.698 27.1836C559.333 27.4847 559.65 27.9364 559.65 28.5386C559.65 29.1326 559.385 29.4297 558.857 29.4297C558.718 29.4297 558.328 29.2669 557.685 28.9414C557.042 28.6077 556.435 28.4409 555.866 28.4409C555.296 28.4409 554.836 28.5711 554.486 28.8315C554.145 29.0838 553.974 29.4338 553.974 29.8813C553.974 30.3289 554.214 30.7196 554.694 31.0532C554.971 31.2485 555.622 31.5578 556.647 31.981C557.681 32.4041 558.417 32.811 558.857 33.2017C559.565 33.8283 559.919 34.6299 559.919 35.6064C559.919 36.583 559.503 37.4212 558.673 38.1211C557.843 38.8128 556.765 39.1587 555.439 39.1587H555.121C553.787 39.1587 552.786 38.9674 552.118 38.585C551.451 38.1943 551.117 37.6898 551.117 37.0713C551.117 36.4447 551.378 36.1313 551.898 36.1313C552.069 36.1313 552.513 36.3511 553.229 36.7905C553.953 37.23 554.661 37.4497 555.353 37.4497C556.053 37.4497 556.578 37.3032 556.928 37.0103C557.278 36.7091 557.453 36.3348 557.453 35.8872C557.453 35.4315 557.233 35.0327 556.794 34.6909C556.558 34.5037 555.882 34.166 554.767 33.6777C553.652 33.1813 552.843 32.6849 552.338 32.1885ZM564.252 39.1953H563.874C563.467 39.1953 563.149 39.1017 562.921 38.9146C562.702 38.7274 562.592 38.4792 562.592 38.1699C562.576 38.1048 562.567 38.0519 562.567 38.0112L562.543 37.8037V37.584L562.555 37.5352V37.4253C562.572 37.3602 562.58 37.3073 562.58 37.2666C562.58 36.9004 562.702 36.6156 562.946 36.4121C563.198 36.2005 563.475 36.0947 563.776 36.0947L564.032 36.0581H564.362C565.249 36.0581 565.692 36.522 565.692 37.4497V37.6206L565.644 38.0356C565.644 38.41 565.501 38.6989 565.216 38.9023C564.94 39.0977 564.618 39.1953 564.252 39.1953ZM585.004 26.1582V25.9385C585.004 25.1165 584.719 24.494 584.149 24.0708C583.588 23.6476 582.843 23.436 581.916 23.436H581.22C580.593 23.436 580.174 23.5093 579.962 23.6558C579.751 23.8022 579.645 24.0911 579.645 24.5225C579.613 24.7829 579.596 24.9456 579.596 25.0107L579.474 27.269V27.4766L579.438 28.0869V28.2944L579.425 28.4897C579.425 28.8071 579.495 29.0146 579.633 29.1123C579.779 29.21 580.06 29.2588 580.475 29.2588H580.976L581.073 29.2466H581.171L581.476 29.2344L582.086 29.1855C582.933 29.1855 583.629 28.8844 584.174 28.2822C584.727 27.68 585.004 26.972 585.004 26.1582ZM579.096 36.3877C579.096 36.7295 579.206 36.9614 579.425 37.0835C579.653 37.2056 580.203 37.2666 581.073 37.2666H581.305C582.705 37.2666 583.726 37.0143 584.369 36.5098C585.175 35.875 585.578 35.0164 585.578 33.9341V33.6899C585.578 32.7785 585.26 32.0583 584.626 31.5293C583.999 30.9922 583.108 30.7236 581.952 30.7236H580.915C580.67 30.748 580.414 30.7603 580.146 30.7603C579.576 30.7603 579.291 31.1794 579.291 32.0176C579.259 32.3268 579.242 32.5181 579.242 32.5913L579.145 34.4468V34.6787L579.096 35.936V36.3877ZM587.506 25.8408C587.506 27.1348 587.022 28.2131 586.054 29.0757C585.582 29.4907 585.346 29.7145 585.346 29.7471C585.346 29.7796 585.627 29.9831 586.188 30.3574C587.515 31.2282 588.178 32.4774 588.178 34.105C588.178 35.7244 587.474 36.994 586.066 37.9136C584.943 38.6541 583.157 39.0244 580.707 39.0244H580.414L580.121 39.0122H579.828C578.005 39.0122 576.886 38.9674 576.471 38.8779C576.056 38.7803 575.849 38.6175 575.849 38.3896V38.1943C575.849 37.999 575.971 37.6572 576.215 37.1689C576.329 36.8434 576.414 36.4121 576.471 35.875C576.699 33.7347 576.813 31.2892 576.813 28.5386L576.874 26.8052L576.898 26.2437L576.911 25.3892C576.911 24.6242 576.854 24.0382 576.74 23.6313L576.618 23.2285C576.561 23.0332 576.532 22.8501 576.532 22.6792C576.532 22.3781 576.752 22.1706 577.191 22.0566C577.631 21.9427 578.481 21.8857 579.743 21.8857L580.023 21.8735C580.219 21.8654 580.414 21.8613 580.609 21.8613L581.794 21.8369C585.602 21.8369 587.506 23.1715 587.506 25.8408ZM591.681 32.6523V31.7124C591.681 30.5812 591.62 29.7552 591.498 29.2344C591.376 28.7054 591.315 28.3351 591.315 28.1235C591.315 27.6271 591.677 27.3789 592.401 27.3789C593.126 27.3789 593.651 27.5132 593.976 27.7817C594.066 27.855 594.18 27.9974 594.318 28.209C594.464 28.4206 594.595 28.5264 594.709 28.5264C594.733 28.5264 595.087 28.3188 595.771 27.9038C596.454 27.4888 597.04 27.2812 597.528 27.2812H597.711C598.11 27.2812 598.428 27.3789 598.664 27.5742C598.9 27.7614 599.018 27.9933 599.018 28.27V28.4287C599.018 28.7624 598.9 29.0024 598.664 29.1489C598.436 29.2954 598.07 29.3687 597.565 29.3687C596.418 29.3687 595.579 29.7715 595.05 30.5771C594.53 31.3828 594.269 32.807 594.269 34.8496C594.269 35.1426 594.318 35.5942 594.416 36.2046C594.521 36.8149 594.574 37.2747 594.574 37.584C594.574 37.8932 594.407 38.1903 594.074 38.4751C593.74 38.7599 593.317 38.9023 592.804 38.9023H592.389C591.942 38.9023 591.596 38.7965 591.352 38.585C591.116 38.3652 590.998 38.1007 590.998 37.7915C590.998 37.4741 591.055 37.1527 591.169 36.8271C591.478 35.9482 591.632 34.9798 591.632 33.9219C591.665 33.3359 591.681 32.9128 591.681 32.6523ZM603.07 31.5781V31.7734C603.07 32.0176 603.294 32.1396 603.742 32.1396H604.035L604.108 32.1274L604.706 32.0786C605.333 31.9891 605.74 31.9443 605.927 31.9443C606.814 31.9443 607.481 31.7775 607.929 31.4438C608.14 31.2811 608.246 30.9922 608.246 30.5771V30.4429C608.246 29.8325 608.043 29.3483 607.636 28.9902C607.237 28.6322 606.757 28.4531 606.195 28.4531H606.11L606.037 28.4653C605.247 28.4653 604.556 28.799 603.961 29.4663C603.367 30.1336 603.07 30.8376 603.07 31.5781ZM605.732 39.1587H605.463C603.909 39.1587 602.672 38.6663 601.752 37.6816C600.832 36.6888 600.373 35.3664 600.373 33.7144V33.1772C600.373 32.3879 600.527 31.5863 600.836 30.7725C601.463 29.1449 602.484 28.0218 603.9 27.4033C604.649 27.0697 605.41 26.9028 606.183 26.9028H606.708C607.774 26.9028 608.673 27.2609 609.406 27.9771C610.146 28.6851 610.517 29.6006 610.517 30.7236V30.9678C610.517 31.7653 610.199 32.3309 609.565 32.6646C609.125 32.9006 608.1 33.1366 606.488 33.3726C604.877 33.6086 603.998 33.751 603.852 33.7998C603.363 33.9707 603.119 34.2962 603.119 34.7764C603.119 35.4437 603.404 36.0133 603.974 36.4854C604.543 36.9574 605.308 37.1934 606.269 37.1934C606.716 37.1934 607.327 37.0713 608.1 36.8271C608.873 36.583 609.32 36.4609 609.442 36.4609C609.857 36.4609 610.065 36.64 610.065 36.998C610.065 37.4782 609.597 37.9583 608.661 38.4385C607.725 38.9186 606.749 39.1587 605.732 39.1587ZM617.072 37.4619H617.389C618.057 37.4619 618.642 37.2381 619.147 36.7905C619.66 36.3348 619.916 35.8099 619.916 35.2158L619.94 35.0571V34.8984L619.965 34.52V33.8242C619.965 33.3522 619.725 33.1162 619.245 33.1162H618.695L618.61 33.1284L618.134 33.165C617.906 33.1976 617.743 33.2139 617.646 33.2139C616.986 33.2139 616.376 33.4621 615.815 33.9585C615.424 34.3084 615.229 34.8049 615.229 35.4478V35.6919C615.229 36.2371 615.404 36.6685 615.753 36.9858C616.112 37.3032 616.551 37.4619 617.072 37.4619ZM614.35 29.6616C613.804 29.6616 613.532 29.3117 613.532 28.6118C613.532 28.091 613.971 27.6393 614.85 27.2568C615.737 26.8662 616.657 26.6709 617.609 26.6709H618.219C619.041 26.6709 619.766 26.8255 620.392 27.1348C621.019 27.4359 621.495 27.8468 621.82 28.3677C622.154 28.8885 622.357 29.568 622.431 30.4062C622.447 30.6016 622.455 31.5496 622.455 33.2505C622.455 34.9513 622.475 35.932 622.516 36.1924C622.565 36.4447 622.695 36.7539 622.907 37.1201C623.127 37.4863 623.236 37.7874 623.236 38.0234C623.236 38.2594 623.122 38.4629 622.895 38.6338C622.675 38.7965 622.353 38.8779 621.93 38.8779C621.507 38.8779 621.047 38.7762 620.551 38.5728C620.054 38.3612 619.692 38.2554 619.464 38.2554C619.44 38.2554 619.033 38.4019 618.244 38.6948C617.454 38.9797 616.787 39.1221 616.242 39.1221H615.973C615.062 39.1221 614.285 38.8332 613.642 38.2554C613.007 37.6776 612.69 36.8556 612.69 35.7896C612.69 34.7235 613.039 33.8934 613.739 33.2993C614.439 32.6971 615.29 32.2861 616.291 32.0664C616.592 32.0013 617.092 31.9159 617.792 31.8101C618.492 31.7043 618.968 31.5944 619.22 31.4805C619.66 31.277 619.879 30.8945 619.879 30.333C619.879 29.7633 619.692 29.3198 619.318 29.0024C618.944 28.6769 618.496 28.5142 617.975 28.5142C617.462 28.5142 616.787 28.7054 615.949 29.0879C615.111 29.4704 614.578 29.6616 614.35 29.6616ZM630.414 33.6533C629.69 33.6533 629.328 34.6095 629.328 36.522C629.328 37.3521 629.157 37.9136 628.815 38.2065C628.473 38.4995 628.062 38.646 627.582 38.646C627.102 38.646 626.76 38.5646 626.557 38.4019C626.361 38.2391 626.264 37.9339 626.264 37.4863C626.264 37.4538 626.308 37.1323 626.398 36.522C626.488 35.9116 626.601 34.0155 626.74 30.8335C626.878 27.6434 626.947 25.6943 626.947 24.9863C626.947 24.2783 626.927 23.8185 626.886 23.6069C626.854 23.3872 626.797 23.1227 626.715 22.8135C626.642 22.5042 626.606 22.3089 626.606 22.2275C626.606 21.8695 626.724 21.6253 626.96 21.4951C627.204 21.3568 627.607 21.2876 628.168 21.2876C628.738 21.2876 629.112 21.4341 629.291 21.7271C629.478 22.02 629.572 22.61 629.572 23.4971L629.413 28.6729C629.413 30.154 629.584 30.8945 629.926 30.8945C630.194 30.8945 630.854 30.3411 631.903 29.2344C632.961 28.1276 633.503 27.5661 633.527 27.5498C633.852 27.3219 634.345 27.208 635.004 27.208C635.663 27.208 635.993 27.3708 635.993 27.6963C635.993 27.859 635.468 28.5467 634.418 29.7593C633.368 30.9718 632.843 31.863 632.843 32.4326C632.843 32.7419 633.441 33.7591 634.638 35.4844C635.069 36.1029 635.476 36.64 635.858 37.0957C636.249 37.5433 636.444 37.8647 636.444 38.0601C636.444 38.467 636.066 38.6704 635.309 38.6704C634.56 38.6704 633.983 38.4548 633.576 38.0234C633.478 37.9176 633.25 37.5596 632.892 36.9492C632.534 36.3389 632.282 35.9116 632.135 35.6675C631.297 34.3247 630.723 33.6533 630.414 33.6533ZM640.131 32.1885C639.635 31.6839 639.386 30.9759 639.386 30.0645C639.386 29.153 639.793 28.3717 640.607 27.7207C641.421 27.0615 642.43 26.7319 643.634 26.7319H643.952C645.018 26.7319 645.864 26.8825 646.491 27.1836C647.126 27.4847 647.443 27.9364 647.443 28.5386C647.443 29.1326 647.178 29.4297 646.649 29.4297C646.511 29.4297 646.121 29.2669 645.478 28.9414C644.835 28.6077 644.228 28.4409 643.659 28.4409C643.089 28.4409 642.629 28.5711 642.279 28.8315C641.938 29.0838 641.767 29.4338 641.767 29.8813C641.767 30.3289 642.007 30.7196 642.487 31.0532C642.764 31.2485 643.415 31.5578 644.44 31.981C645.474 32.4041 646.21 32.811 646.649 33.2017C647.357 33.8283 647.711 34.6299 647.711 35.6064C647.711 36.583 647.296 37.4212 646.466 38.1211C645.636 38.8128 644.558 39.1587 643.232 39.1587H642.914C641.579 39.1587 640.579 38.9674 639.911 38.585C639.244 38.1943 638.91 37.6898 638.91 37.0713C638.91 36.4447 639.171 36.1313 639.691 36.1313C639.862 36.1313 640.306 36.3511 641.022 36.7905C641.746 37.23 642.454 37.4497 643.146 37.4497C643.846 37.4497 644.371 37.3032 644.721 37.0103C645.071 36.7091 645.246 36.3348 645.246 35.8872C645.246 35.4315 645.026 35.0327 644.586 34.6909C644.35 34.5037 643.675 34.166 642.56 33.6777C641.445 33.1813 640.635 32.6849 640.131 32.1885ZM663.568 37.6938C663.568 38.0194 663.369 38.3123 662.97 38.5728C662.58 38.825 662.047 38.9512 661.371 38.9512C660.11 38.9512 659.223 38.4832 658.71 37.5474C658.393 36.9614 658.234 35.5902 658.234 33.4336C658.234 31.277 658.197 30.0238 658.124 29.6738C658.051 29.3239 657.847 28.9821 657.514 28.6484C657.18 28.3148 657.013 28.0584 657.013 27.8794C657.013 27.8143 657.408 27.387 658.197 26.5977C658.368 26.4268 658.539 26.0483 658.71 25.4624C658.889 24.8765 659.015 24.4899 659.088 24.3027C659.333 23.7168 659.654 23.4238 660.053 23.4238H660.248C660.598 23.4238 660.846 23.5581 660.993 23.8267C661.05 23.9325 661.135 24.3149 661.249 24.9741C661.371 25.6252 661.51 26.0443 661.664 26.2314C661.819 26.4186 662.205 26.6261 662.824 26.854C663.45 27.0737 663.764 27.3097 663.764 27.562V27.6963C663.764 28.0218 663.406 28.2985 662.69 28.5264C661.982 28.7461 661.526 29.1001 661.322 29.5884C660.924 30.5731 660.724 32.1763 660.724 34.3979C660.724 35.4396 660.903 36.1476 661.261 36.522C661.481 36.7498 661.92 36.9085 662.58 36.998C663.239 37.0876 663.568 37.3195 663.568 37.6938ZM668.549 31.5781V31.7734C668.549 32.0176 668.773 32.1396 669.22 32.1396H669.513L669.586 32.1274L670.185 32.0786C670.811 31.9891 671.218 31.9443 671.405 31.9443C672.292 31.9443 672.96 31.7775 673.407 31.4438C673.619 31.2811 673.725 30.9922 673.725 30.5771V30.4429C673.725 29.8325 673.521 29.3483 673.114 28.9902C672.716 28.6322 672.235 28.4531 671.674 28.4531H671.588L671.515 28.4653C670.726 28.4653 670.034 28.799 669.44 29.4663C668.846 30.1336 668.549 30.8376 668.549 31.5781ZM671.21 39.1587H670.941C669.387 39.1587 668.15 38.6663 667.231 37.6816C666.311 36.6888 665.851 35.3664 665.851 33.7144V33.1772C665.851 32.3879 666.006 31.5863 666.315 30.7725C666.942 29.1449 667.963 28.0218 669.379 27.4033C670.128 27.0697 670.889 26.9028 671.662 26.9028H672.187C673.253 26.9028 674.152 27.2609 674.884 27.9771C675.625 28.6851 675.995 29.6006 675.995 30.7236V30.9678C675.995 31.7653 675.678 32.3309 675.043 32.6646C674.604 32.9006 673.578 33.1366 671.967 33.3726C670.356 33.6086 669.477 33.751 669.33 33.7998C668.842 33.9707 668.598 34.2962 668.598 34.7764C668.598 35.4437 668.883 36.0133 669.452 36.4854C670.022 36.9574 670.787 37.1934 671.747 37.1934C672.195 37.1934 672.805 37.0713 673.578 36.8271C674.351 36.583 674.799 36.4609 674.921 36.4609C675.336 36.4609 675.544 36.64 675.544 36.998C675.544 37.4782 675.076 37.9583 674.14 38.4385C673.204 38.9186 672.227 39.1587 671.21 39.1587ZM682.55 37.4619H682.868C683.535 37.4619 684.121 37.2381 684.626 36.7905C685.138 36.3348 685.395 35.8099 685.395 35.2158L685.419 35.0571V34.8984L685.443 34.52V33.8242C685.443 33.3522 685.203 33.1162 684.723 33.1162H684.174L684.088 33.1284L683.612 33.165C683.385 33.1976 683.222 33.2139 683.124 33.2139C682.465 33.2139 681.855 33.4621 681.293 33.9585C680.902 34.3084 680.707 34.8049 680.707 35.4478V35.6919C680.707 36.2371 680.882 36.6685 681.232 36.9858C681.59 37.3032 682.03 37.4619 682.55 37.4619ZM679.828 29.6616C679.283 29.6616 679.01 29.3117 679.01 28.6118C679.01 28.091 679.45 27.6393 680.329 27.2568C681.216 26.8662 682.135 26.6709 683.087 26.6709H683.698C684.52 26.6709 685.244 26.8255 685.871 27.1348C686.497 27.4359 686.973 27.8468 687.299 28.3677C687.633 28.8885 687.836 29.568 687.909 30.4062C687.926 30.6016 687.934 31.5496 687.934 33.2505C687.934 34.9513 687.954 35.932 687.995 36.1924C688.044 36.4447 688.174 36.7539 688.385 37.1201C688.605 37.4863 688.715 37.7874 688.715 38.0234C688.715 38.2594 688.601 38.4629 688.373 38.6338C688.153 38.7965 687.832 38.8779 687.409 38.8779C686.986 38.8779 686.526 38.7762 686.029 38.5728C685.533 38.3612 685.171 38.2554 684.943 38.2554C684.919 38.2554 684.512 38.4019 683.722 38.6948C682.933 38.9797 682.266 39.1221 681.72 39.1221H681.452C680.54 39.1221 679.763 38.8332 679.12 38.2554C678.485 37.6776 678.168 36.8556 678.168 35.7896C678.168 34.7235 678.518 33.8934 679.218 33.2993C679.918 32.6971 680.768 32.2861 681.769 32.0664C682.07 32.0013 682.571 31.9159 683.271 31.8101C683.97 31.7043 684.447 31.5944 684.699 31.4805C685.138 31.277 685.358 30.8945 685.358 30.333C685.358 29.7633 685.171 29.3198 684.796 29.0024C684.422 28.6769 683.975 28.5142 683.454 28.5142C682.941 28.5142 682.266 28.7054 681.427 29.0879C680.589 29.4704 680.056 29.6616 679.828 29.6616ZM696.649 27.7085C697.276 27.4725 697.919 27.3545 698.578 27.3545C699.237 27.3545 699.921 27.5498 700.629 27.9404C701.345 28.3311 701.736 28.5264 701.801 28.5264C701.866 28.5264 702.305 28.327 703.119 27.9282C703.933 27.5295 704.665 27.3301 705.316 27.3301C705.976 27.3301 706.517 27.4684 706.94 27.7451C707.371 28.0137 707.697 28.3351 707.917 28.7095C708.332 29.4256 708.539 31.0166 708.539 33.4824C708.539 34.5892 708.547 35.224 708.564 35.3867C708.588 35.5413 708.645 35.8221 708.734 36.229C708.832 36.6278 708.881 36.9574 708.881 37.2178C708.881 37.4701 708.775 37.7345 708.564 38.0112C708.352 38.2879 708.071 38.4263 707.721 38.4263C707.03 38.4263 706.619 38.1455 706.488 37.584C706.391 37.1771 706.277 35.9889 706.147 34.0195C706.024 32.0501 705.89 30.8945 705.744 30.5527C705.451 29.8366 704.828 29.4785 703.876 29.4785C703.266 29.4785 702.79 29.861 702.448 30.626C701.951 31.7246 701.703 33.2871 701.703 35.3135L701.825 37.0713C701.825 37.6898 701.597 38.1577 701.142 38.4751C700.849 38.6785 700.458 38.7803 699.97 38.7803C699.49 38.7803 699.172 38.7314 699.018 38.6338C698.749 38.471 698.615 38.1252 698.615 37.5962C698.615 37.4985 698.692 37.0998 698.847 36.3999C699.01 35.6919 699.091 34.5444 699.091 32.9575C699.091 31.3625 698.973 30.3493 698.737 29.918C698.501 29.4785 698.09 29.2588 697.504 29.2588C696.918 29.2588 696.397 29.4582 695.941 29.8569C695.494 30.2557 695.164 30.6911 694.953 31.1631C694.749 31.6351 694.566 32.7581 694.403 34.5322C694.249 36.3063 694.139 37.3236 694.074 37.584C693.96 38.0316 693.63 38.2554 693.085 38.2554C692.548 38.2554 692.178 38.0967 691.974 37.7793C691.779 37.4538 691.681 37.0591 691.681 36.5952L691.742 36.168L691.974 35.3257C692.072 34.9351 692.129 34.4793 692.145 33.9585C692.267 30.7277 692.361 28.8844 692.426 28.4287C692.491 27.973 692.784 27.7451 693.305 27.7451L695.124 28.0503C695.514 28.0503 696.023 27.9364 696.649 27.7085ZM372.76 67.6938C372.76 68.0194 372.561 68.3123 372.162 68.5728C371.772 68.825 371.239 68.9512 370.563 68.9512C369.302 68.9512 368.415 68.4832 367.902 67.5474C367.585 66.9614 367.426 65.5902 367.426 63.4336C367.426 61.277 367.389 60.0238 367.316 59.6738C367.243 59.3239 367.039 58.9821 366.706 58.6484C366.372 58.3148 366.205 58.0584 366.205 57.8794C366.205 57.8143 366.6 57.387 367.389 56.5977C367.56 56.4268 367.731 56.0483 367.902 55.4624C368.081 54.8765 368.207 54.4899 368.28 54.3027C368.524 53.7168 368.846 53.4238 369.245 53.4238H369.44C369.79 53.4238 370.038 53.5581 370.185 53.8267C370.242 53.9325 370.327 54.3149 370.441 54.9741C370.563 55.6252 370.701 56.0443 370.856 56.2314C371.011 56.4186 371.397 56.6261 372.016 56.854C372.642 57.0737 372.956 57.3097 372.956 57.562V57.6963C372.956 58.0218 372.598 58.2985 371.881 58.5264C371.173 58.7461 370.718 59.1001 370.514 59.5884C370.115 60.5731 369.916 62.1763 369.916 64.3979C369.916 65.4396 370.095 66.1476 370.453 66.522C370.673 66.7498 371.112 66.9085 371.772 66.998C372.431 67.0876 372.76 67.3195 372.76 67.6938ZM376.337 62.6523V61.7124C376.337 60.5812 376.276 59.7552 376.154 59.2344C376.032 58.7054 375.971 58.3351 375.971 58.1235C375.971 57.6271 376.333 57.3789 377.057 57.3789C377.781 57.3789 378.306 57.5132 378.632 57.7817C378.721 57.855 378.835 57.9974 378.974 58.209C379.12 58.4206 379.25 58.5264 379.364 58.5264C379.389 58.5264 379.743 58.3188 380.426 57.9038C381.11 57.4888 381.696 57.2812 382.184 57.2812H382.367C382.766 57.2812 383.083 57.3789 383.319 57.5742C383.555 57.7614 383.673 57.9933 383.673 58.27V58.4287C383.673 58.7624 383.555 59.0024 383.319 59.1489C383.092 59.2954 382.725 59.3687 382.221 59.3687C381.073 59.3687 380.235 59.7715 379.706 60.5771C379.185 61.3828 378.925 62.807 378.925 64.8496C378.925 65.1426 378.974 65.5942 379.071 66.2046C379.177 66.8149 379.23 67.2747 379.23 67.584C379.23 67.8932 379.063 68.1903 378.73 68.4751C378.396 68.7599 377.973 68.9023 377.46 68.9023H377.045C376.597 68.9023 376.252 68.7965 376.007 68.585C375.771 68.3652 375.653 68.1007 375.653 67.7915C375.653 67.4741 375.71 67.1527 375.824 66.8271C376.134 65.9482 376.288 64.9798 376.288 63.9219C376.321 63.3359 376.337 62.9128 376.337 62.6523ZM385.724 58.0259C385.724 57.5132 386.155 57.2568 387.018 57.2568H387.299C387.836 57.2568 388.198 57.4725 388.385 57.9038C388.572 58.3351 388.666 59.1408 388.666 60.3208L388.52 64.3979C388.52 66.2941 389.199 67.2422 390.558 67.2422C391.055 67.2422 391.531 67.0672 391.986 66.7173C392.442 66.3674 392.78 65.9482 393 65.46C393.48 64.3857 393.72 62.4611 393.72 59.686L393.695 59.1489V58.6729C393.695 58.2415 393.793 57.9282 393.988 57.7329C394.184 57.5376 394.525 57.4399 395.014 57.4399C395.502 57.4399 395.823 57.5579 395.978 57.7939C396.133 58.0299 396.21 58.4124 396.21 58.9414L396.186 59.5884L396.137 62.4692C396.137 62.9331 396.165 63.6452 396.222 64.6055C396.279 65.5658 396.34 66.2697 396.405 66.7173C396.47 67.1567 396.503 67.4172 396.503 67.4985C396.503 68.2228 395.97 68.585 394.904 68.585C394.538 68.585 394.171 68.4507 393.805 68.1821C393.447 67.9054 393.191 67.7671 393.036 67.7671C392.89 67.7671 392.637 67.8566 392.279 68.0356C391.262 68.5483 390.395 68.8047 389.679 68.8047H389.374C388.21 68.8047 387.356 68.4466 386.811 67.7305C386.265 67.0143 385.993 65.7244 385.993 63.8608L386.115 60.1621C386.115 59.6982 386.05 59.2547 385.919 58.8315C385.789 58.4084 385.724 58.1398 385.724 58.0259ZM400.446 62.1885C399.949 61.6839 399.701 60.9759 399.701 60.0645C399.701 59.153 400.108 58.3717 400.922 57.7207C401.736 57.0615 402.745 56.7319 403.949 56.7319H404.267C405.333 56.7319 406.179 56.8825 406.806 57.1836C407.44 57.4847 407.758 57.9364 407.758 58.5386C407.758 59.1326 407.493 59.4297 406.964 59.4297C406.826 59.4297 406.435 59.2669 405.793 58.9414C405.15 58.6077 404.543 58.4409 403.974 58.4409C403.404 58.4409 402.944 58.5711 402.594 58.8315C402.253 59.0838 402.082 59.4338 402.082 59.8813C402.082 60.3289 402.322 60.7196 402.802 61.0532C403.079 61.2485 403.73 61.5578 404.755 61.981C405.788 62.4041 406.525 62.811 406.964 63.2017C407.672 63.8283 408.026 64.6299 408.026 65.6064C408.026 66.583 407.611 67.4212 406.781 68.1211C405.951 68.8128 404.873 69.1587 403.546 69.1587H403.229C401.894 69.1587 400.893 68.9674 400.226 68.585C399.559 68.1943 399.225 67.6898 399.225 67.0713C399.225 66.4447 399.486 66.1313 400.006 66.1313C400.177 66.1313 400.621 66.3511 401.337 66.7905C402.061 67.23 402.769 67.4497 403.461 67.4497C404.161 67.4497 404.686 67.3032 405.036 67.0103C405.386 66.7091 405.561 66.3348 405.561 65.8872C405.561 65.4315 405.341 65.0327 404.901 64.6909C404.665 64.5037 403.99 64.166 402.875 63.6777C401.76 63.1813 400.95 62.6849 400.446 62.1885ZM417.023 67.6938C417.023 68.0194 416.824 68.3123 416.425 68.5728C416.034 68.825 415.501 68.9512 414.826 68.9512C413.564 68.9512 412.677 68.4832 412.165 67.5474C411.847 66.9614 411.689 65.5902 411.689 63.4336C411.689 61.277 411.652 60.0238 411.579 59.6738C411.505 59.3239 411.302 58.9821 410.968 58.6484C410.635 58.3148 410.468 58.0584 410.468 57.8794C410.468 57.8143 410.863 57.387 411.652 56.5977C411.823 56.4268 411.994 56.0483 412.165 55.4624C412.344 54.8765 412.47 54.4899 412.543 54.3027C412.787 53.7168 413.109 53.4238 413.507 53.4238H413.703C414.053 53.4238 414.301 53.5581 414.447 53.8267C414.504 53.9325 414.59 54.3149 414.704 54.9741C414.826 55.6252 414.964 56.0443 415.119 56.2314C415.273 56.4186 415.66 56.6261 416.278 56.854C416.905 57.0737 417.218 57.3097 417.218 57.562V57.6963C417.218 58.0218 416.86 58.2985 416.144 58.5264C415.436 58.7461 414.98 59.1001 414.777 59.5884C414.378 60.5731 414.179 62.1763 414.179 64.3979C414.179 65.4396 414.358 66.1476 414.716 66.522C414.936 66.7498 415.375 66.9085 416.034 66.998C416.693 67.0876 417.023 67.3195 417.023 67.6938Z" fill="black"/>
</svg>
