<svg width="758" height="87" viewBox="0 0 758 87" fill="none" xmlns="http://www.w3.org/2000/svg">
<rect width="758" height="87" rx="18" fill="#D9D9D9"/>
<path d="M36.058 54.1172C35.708 54.1172 35.533 53.9422 35.533 53.5922L35.512 46.7672C35.512 46.6272 35.54 46.5152 35.596 46.4312C35.652 46.3332 35.729 46.2212 35.827 46.0952L42.463 38.0102V33.7472L35.827 31.1852C35.617 31.1152 35.512 30.9052 35.512 30.5552V26.6492C35.512 26.2992 35.687 26.1242 36.037 26.1242H41.35C41.546 26.1242 41.7 26.1522 41.812 26.2082C41.924 26.2642 42.05 26.3272 42.19 26.3972L49.12 29.4422C49.302 29.5122 49.407 29.6102 49.435 29.7362C49.463 29.8622 49.477 30.0442 49.477 30.2822V39.3542C49.477 39.4942 49.442 39.5992 49.372 39.6692C49.316 39.7252 49.232 39.8302 49.12 39.9842L42.547 47.9852V48.8252H50.065C50.415 48.8252 50.59 49.0002 50.59 49.3502V53.5922C50.59 53.9422 50.415 54.1172 50.065 54.1172H36.058Z" fill="#2ECC71"/>
<path d="M91.9756 46.3896C91.6908 46.5931 91.2472 46.6948 90.645 46.6948C90.0428 46.6948 89.6074 46.5809 89.3389 46.353C89.0703 46.117 88.936 45.8118 88.936 45.4375V45.1567C88.936 45.0103 89.0337 44.6969 89.229 44.2168C89.4325 43.7285 89.5545 43.2443 89.5952 42.7642C89.88 39.4601 90.0225 37.0065 90.0225 35.4033C90.0225 33.8001 90.0062 32.8643 89.9736 32.5957C89.9411 32.3271 89.8638 32.0057 89.7417 31.6313C89.6278 31.257 89.5708 31.0617 89.5708 31.0454C89.5708 30.6141 89.8475 30.3496 90.4009 30.252C92.061 29.959 94.4862 29.8125 97.6763 29.8125H98.4331C99.0353 29.8125 99.4666 29.8939 99.7271 30.0566C99.9956 30.2194 100.13 30.5246 100.13 30.9722V31.2651C100.13 31.8592 99.8532 32.1562 99.2998 32.1562C99.1777 32.1562 98.9255 32.1074 98.543 32.0098C98.1605 31.9121 97.8024 31.8348 97.4688 31.7778C97.1432 31.7127 96.4474 31.6802 95.3813 31.6802C94.3234 31.6802 93.6317 31.9284 93.3062 32.4248C92.9888 32.9212 92.8301 33.8978 92.8301 35.3545C92.8301 36.1032 92.9481 36.6037 93.1841 36.856C93.4282 37.1001 93.9897 37.2222 94.8687 37.2222C95.0884 37.2222 95.418 37.1774 95.8574 37.0879C96.2969 36.9984 96.6753 36.9536 96.9927 36.9536C97.3101 36.9536 97.5908 37.092 97.835 37.3687C98.0872 37.6453 98.2134 38.036 98.2134 38.5405C98.2134 39.2648 97.839 39.627 97.0903 39.627L95.6743 39.5049C95.0558 39.5049 94.5024 39.6107 94.0142 39.8223C93.5259 40.0257 93.1922 40.2739 93.0132 40.5669C92.5737 41.283 92.354 42.4793 92.354 44.1558L92.415 45.5962C92.415 45.9136 92.2686 46.1781 91.9756 46.3896ZM102.657 40.6523V39.7124C102.657 38.5812 102.596 37.7552 102.474 37.2344C102.352 36.7054 102.291 36.3351 102.291 36.1235C102.291 35.6271 102.653 35.3789 103.377 35.3789C104.101 35.3789 104.626 35.5132 104.952 35.7817C105.041 35.855 105.155 35.9974 105.293 36.209C105.44 36.4206 105.57 36.5264 105.684 36.5264C105.708 36.5264 106.062 36.3188 106.746 35.9038C107.43 35.4888 108.016 35.2812 108.504 35.2812H108.687C109.086 35.2812 109.403 35.3789 109.639 35.5742C109.875 35.7614 109.993 35.9933 109.993 36.27V36.4287C109.993 36.7624 109.875 37.0024 109.639 37.1489C109.411 37.2954 109.045 37.3687 108.541 37.3687C107.393 37.3687 106.555 37.7715 106.026 38.5771C105.505 39.3828 105.245 40.807 105.245 42.8496C105.245 43.1426 105.293 43.5942 105.391 44.2046C105.497 44.8149 105.55 45.2747 105.55 45.584C105.55 45.8932 105.383 46.1903 105.049 46.4751C104.716 46.7599 104.292 46.9023 103.78 46.9023H103.365C102.917 46.9023 102.571 46.7965 102.327 46.585C102.091 46.3652 101.973 46.1007 101.973 45.7915C101.973 45.4741 102.03 45.1527 102.144 44.8271C102.453 43.9482 102.608 42.9798 102.608 41.9219C102.64 41.3359 102.657 40.9128 102.657 40.6523ZM114.046 39.5781V39.7734C114.046 40.0176 114.27 40.1396 114.717 40.1396H115.01L115.083 40.1274L115.682 40.0786C116.308 39.9891 116.715 39.9443 116.902 39.9443C117.789 39.9443 118.457 39.7775 118.904 39.4438C119.116 39.2811 119.222 38.9922 119.222 38.5771V38.4429C119.222 37.8325 119.018 37.3483 118.611 36.9902C118.213 36.6322 117.732 36.4531 117.171 36.4531H117.085L117.012 36.4653C116.223 36.4653 115.531 36.799 114.937 37.4663C114.343 38.1336 114.046 38.8376 114.046 39.5781ZM116.707 47.1587H116.438C114.884 47.1587 113.647 46.6663 112.728 45.6816C111.808 44.6888 111.348 43.3664 111.348 41.7144V41.1772C111.348 40.3879 111.503 39.5863 111.812 38.7725C112.439 37.1449 113.46 36.0218 114.876 35.4033C115.625 35.0697 116.386 34.9028 117.159 34.9028H117.684C118.75 34.9028 119.649 35.2609 120.381 35.9771C121.122 36.6851 121.492 37.6006 121.492 38.7236V38.9678C121.492 39.7653 121.175 40.3309 120.54 40.6646C120.101 40.9006 119.075 41.1366 117.464 41.3726C115.853 41.6086 114.974 41.751 114.827 41.7998C114.339 41.9707 114.095 42.2962 114.095 42.7764C114.095 43.4437 114.38 44.0133 114.949 44.4854C115.519 44.9574 116.284 45.1934 117.244 45.1934C117.692 45.1934 118.302 45.0713 119.075 44.8271C119.848 44.583 120.296 44.4609 120.418 44.4609C120.833 44.4609 121.041 44.64 121.041 44.998C121.041 45.4782 120.573 45.9583 119.637 46.4385C118.701 46.9186 117.724 47.1587 116.707 47.1587ZM129.793 36.4531H129.549C129.085 36.4531 128.637 36.5874 128.206 36.856C126.953 37.6372 126.326 39.216 126.326 41.5923V41.7266C126.326 42.8984 126.558 43.8221 127.022 44.4976C127.486 45.1649 128.056 45.4985 128.731 45.4985H128.963C129.874 45.4985 130.574 45.1649 131.062 44.4976C131.559 43.8221 131.807 42.8293 131.807 41.519C131.823 41.3563 131.832 41.2301 131.832 41.1406L131.88 39.8589V39.7368C131.88 38.4917 131.722 37.6331 131.404 37.1611C131.095 36.6891 130.558 36.4531 129.793 36.4531ZM132.784 52.249C131.709 52.249 131.172 51.7607 131.172 50.7842C131.172 50.7272 131.229 50.4058 131.343 49.8198C131.457 49.2257 131.518 48.6479 131.526 48.0864C131.518 47.5575 131.417 47.1953 131.221 47C131.026 46.8047 130.717 46.703 130.293 46.6948C130.204 46.6948 130.07 46.707 129.891 46.7314L129.427 46.8047C129.118 46.8372 128.723 46.8535 128.243 46.8535C127.771 46.8535 127.266 46.7396 126.729 46.5117C125.647 46.056 124.857 45.1852 124.361 43.8994C124.068 43.1507 123.921 42.4102 123.921 41.6777V41.0796C123.921 39.2404 124.442 37.7552 125.484 36.624C126.526 35.4847 127.856 34.915 129.476 34.915C129.939 34.915 130.546 35.0249 131.294 35.2446C132.043 35.4644 132.426 35.5742 132.442 35.5742L133.443 35.4521C133.817 35.4521 134.11 35.562 134.322 35.7817C134.533 36.0015 134.639 36.2497 134.639 36.5264C134.639 36.8031 134.607 37.3361 134.542 38.1255C134.476 38.9149 134.44 39.7246 134.432 40.5547L134.419 40.8354C134.314 42.3898 134.261 43.6268 134.261 44.5464L134.236 45.1201C134.22 45.5026 134.212 45.7834 134.212 45.9624L134.175 46.8047C134.175 46.9919 134.175 47.179 134.175 47.3662L134.163 47.9155C134.163 48.7131 134.216 49.3031 134.322 49.6855L134.444 50.125C134.517 50.418 134.554 50.6458 134.554 50.8086C134.554 51.7689 134.045 52.249 133.028 52.249H132.784ZM137.874 36.0259C137.874 35.5132 138.305 35.2568 139.168 35.2568H139.449C139.986 35.2568 140.348 35.4725 140.535 35.9038C140.722 36.3351 140.816 37.1408 140.816 38.3208L140.669 42.3979C140.669 44.2941 141.349 45.2422 142.708 45.2422C143.204 45.2422 143.681 45.0672 144.136 44.7173C144.592 44.3674 144.93 43.9482 145.149 43.46C145.63 42.3857 145.87 40.4611 145.87 37.686L145.845 37.1489V36.6729C145.845 36.2415 145.943 35.9282 146.138 35.7329C146.333 35.5376 146.675 35.4399 147.164 35.4399C147.652 35.4399 147.973 35.5579 148.128 35.7939C148.283 36.0299 148.36 36.4124 148.36 36.9414L148.335 37.5884L148.287 40.4692C148.287 40.9331 148.315 41.6452 148.372 42.6055C148.429 43.5658 148.49 44.2697 148.555 44.7173C148.62 45.1567 148.653 45.4172 148.653 45.4985C148.653 46.2228 148.12 46.585 147.054 46.585C146.688 46.585 146.321 46.4507 145.955 46.1821C145.597 45.9054 145.341 45.7671 145.186 45.7671C145.04 45.7671 144.787 45.8566 144.429 46.0356C143.412 46.5483 142.545 46.8047 141.829 46.8047H141.524C140.36 46.8047 139.506 46.4466 138.96 45.7305C138.415 45.0143 138.143 43.7244 138.143 41.8608L138.265 38.1621C138.265 37.6982 138.2 37.2547 138.069 36.8315C137.939 36.4084 137.874 36.1398 137.874 36.0259ZM153.914 39.5781V39.7734C153.914 40.0176 154.138 40.1396 154.585 40.1396H154.878L154.952 40.1274L155.55 40.0786C156.176 39.9891 156.583 39.9443 156.771 39.9443C157.658 39.9443 158.325 39.7775 158.772 39.4438C158.984 39.2811 159.09 38.9922 159.09 38.5771V38.4429C159.09 37.8325 158.886 37.3483 158.479 36.9902C158.081 36.6322 157.601 36.4531 157.039 36.4531H156.954L156.88 36.4653C156.091 36.4653 155.399 36.799 154.805 37.4663C154.211 38.1336 153.914 38.8376 153.914 39.5781ZM156.575 47.1587H156.307C154.752 47.1587 153.515 46.6663 152.596 45.6816C151.676 44.6888 151.216 43.3664 151.216 41.7144V41.1772C151.216 40.3879 151.371 39.5863 151.68 38.7725C152.307 37.1449 153.328 36.0218 154.744 35.4033C155.493 35.0697 156.254 34.9028 157.027 34.9028H157.552C158.618 34.9028 159.517 35.2609 160.25 35.9771C160.99 36.6851 161.36 37.6006 161.36 38.7236V38.9678C161.36 39.7653 161.043 40.3309 160.408 40.6646C159.969 40.9006 158.943 41.1366 157.332 41.3726C155.721 41.6086 154.842 41.751 154.695 41.7998C154.207 41.9707 153.963 42.2962 153.963 42.7764C153.963 43.4437 154.248 44.0133 154.817 44.4854C155.387 44.9574 156.152 45.1934 157.112 45.1934C157.56 45.1934 158.17 45.0713 158.943 44.8271C159.716 44.583 160.164 44.4609 160.286 44.4609C160.701 44.4609 160.909 44.64 160.909 44.998C160.909 45.4782 160.441 45.9583 159.505 46.4385C158.569 46.9186 157.592 47.1587 156.575 47.1587ZM175.215 45.5352C175.215 46.1374 174.69 46.4385 173.641 46.4385C173.047 46.4385 172.648 46.2961 172.444 46.0112C172.347 45.8729 172.298 45.5474 172.298 45.0347L172.261 44.2534C172.204 43.3989 172.176 42.5404 172.176 41.6777C172.176 39.8141 172.013 38.5649 171.688 37.9302C171.37 37.2873 170.833 36.9658 170.076 36.9658C169.572 36.9658 169.104 37.1164 168.672 37.4175C168.249 37.7186 167.924 38.1377 167.696 38.6748C167.224 39.7734 166.988 41.8039 166.988 44.7661C166.988 45.4416 166.858 45.9176 166.597 46.1943C166.345 46.471 166.019 46.6094 165.621 46.6094H165.376C164.465 46.6094 164.009 46.2472 164.009 45.5229V45.23C164.009 45.1405 164.058 44.9451 164.156 44.644L164.351 44.0825C164.546 43.4233 164.644 42.0114 164.644 39.8467L164.705 36.2212C164.705 35.7573 164.957 35.5254 165.462 35.5254C165.966 35.5254 166.463 35.6922 166.951 36.0259C167.448 36.3595 167.761 36.5264 167.891 36.5264C168.029 36.5264 168.27 36.4328 168.611 36.2456C169.759 35.619 170.678 35.3057 171.37 35.3057H171.688C172.933 35.3057 173.807 35.8672 174.312 36.9902C174.556 37.5192 174.678 38.6585 174.678 40.4082V40.4937C174.678 40.6401 174.674 40.7866 174.666 40.9331C174.666 41.3319 174.666 41.5394 174.666 41.5557C174.666 41.7103 174.666 41.8608 174.666 42.0073C174.666 42.1213 174.666 42.2311 174.666 42.3369C174.666 42.9635 174.686 43.3908 174.727 43.6187C174.784 43.9279 174.878 44.2493 175.008 44.583C175.146 44.9492 175.215 45.2666 175.215 45.5352ZM184.383 45.6938C184.383 46.0194 184.183 46.3123 183.785 46.5728C183.394 46.825 182.861 46.9512 182.186 46.9512C180.924 46.9512 180.037 46.4832 179.524 45.5474C179.207 44.9614 179.048 43.5902 179.048 41.4336C179.048 39.277 179.012 38.0238 178.938 37.6738C178.865 37.3239 178.662 36.9821 178.328 36.6484C177.994 36.3148 177.828 36.0584 177.828 35.8794C177.828 35.8143 178.222 35.387 179.012 34.5977C179.183 34.4268 179.354 34.0483 179.524 33.4624C179.703 32.8765 179.83 32.4899 179.903 32.3027C180.147 31.7168 180.468 31.4238 180.867 31.4238H181.062C181.412 31.4238 181.661 31.5581 181.807 31.8267C181.864 31.9325 181.95 32.3149 182.063 32.9741C182.186 33.6252 182.324 34.0443 182.479 34.2314C182.633 34.4186 183.02 34.6261 183.638 34.854C184.265 35.0737 184.578 35.3097 184.578 35.562V35.6963C184.578 36.0218 184.22 36.2985 183.504 36.5264C182.796 36.7461 182.34 37.1001 182.137 37.5884C181.738 38.5731 181.539 40.1763 181.539 42.3979C181.539 43.4396 181.718 44.1476 182.076 44.522C182.295 44.7498 182.735 44.9085 183.394 44.998C184.053 45.0876 184.383 45.3195 184.383 45.6938ZM187.862 30.0322C187.862 29.4382 188.419 29.1411 189.534 29.1411H189.754C190.218 29.1411 190.535 29.255 190.706 29.4829C190.877 29.7026 190.962 30.134 190.962 30.7769L190.865 32.5957C190.84 32.8805 190.828 33.0352 190.828 33.0596L190.804 33.5234C190.787 33.8245 190.771 34.1297 190.755 34.439L190.718 34.9028L190.682 35.5986C190.551 38.0726 190.486 39.8996 190.486 41.0796C190.486 42.2515 190.539 43.0938 190.645 43.6064C190.751 44.1191 190.918 44.5545 191.146 44.9126C191.373 45.2707 191.487 45.5067 191.487 45.6206V45.7671C191.487 46.1252 191.308 46.41 190.95 46.6216C190.6 46.8332 190.124 46.939 189.522 46.939H188.887C188.513 46.939 188.183 46.8332 187.898 46.6216C187.622 46.4019 187.483 46.1536 187.483 45.877V45.5474L187.557 45.0347C187.654 44.3267 187.711 43.7977 187.728 43.4478C187.752 43.0897 187.789 42.5973 187.837 41.9707C187.886 41.3359 187.964 39.9891 188.069 37.9302C188.183 35.8631 188.24 34.7523 188.24 34.5977L188.289 33.6821L188.313 32.7788C188.313 31.9162 188.236 31.3018 188.082 30.9355C187.935 30.5612 187.862 30.2601 187.862 30.0322ZM198.409 46.9512C198.409 46.528 198.12 45.7874 197.542 44.7295C196.964 43.6634 196.48 42.6706 196.089 41.751C194.755 38.6178 194.087 36.8071 194.087 36.3188C194.087 36.0991 194.214 35.8997 194.466 35.7207C194.726 35.5417 195.158 35.4521 195.76 35.4521C196.362 35.4521 196.785 35.7085 197.029 36.2212C197.054 36.2782 197.139 36.6322 197.286 37.2832C198.392 41.3278 199.084 43.4478 199.361 43.6431C199.784 43.6431 200.362 42.6543 201.094 40.6768C201.591 39.334 201.896 38.2069 202.01 37.2954C202.132 36.384 202.229 35.859 202.303 35.7207C202.531 35.2975 203.003 35.0859 203.719 35.0859C204.443 35.0859 204.805 35.3667 204.805 35.9282C204.805 36.327 204.659 36.86 204.366 37.5273C204.073 38.1947 203.796 38.9189 203.536 39.7002C202.046 44.1598 200.968 46.9756 200.301 48.1475C199.633 49.3275 198.93 50.2552 198.189 50.9307C197.448 51.6143 196.704 51.9561 195.955 51.9561C195.215 51.9561 194.844 51.7445 194.844 51.3213C194.844 50.9469 195.223 50.6051 195.979 50.2959C196.744 49.9867 197.278 49.6286 197.579 49.2217C198.132 48.4811 198.409 47.7243 198.409 46.9512ZM219.026 35.7085C219.653 35.4725 220.296 35.3545 220.955 35.3545C221.614 35.3545 222.298 35.5498 223.006 35.9404C223.722 36.3311 224.113 36.5264 224.178 36.5264C224.243 36.5264 224.682 36.327 225.496 35.9282C226.31 35.5295 227.042 35.3301 227.693 35.3301C228.353 35.3301 228.894 35.4684 229.317 35.7451C229.748 36.0137 230.074 36.3351 230.293 36.7095C230.708 37.4256 230.916 39.0166 230.916 41.4824C230.916 42.5892 230.924 43.224 230.94 43.3867C230.965 43.5413 231.022 43.8221 231.111 44.229C231.209 44.6278 231.258 44.9574 231.258 45.2178C231.258 45.4701 231.152 45.7345 230.94 46.0112C230.729 46.2879 230.448 46.4263 230.098 46.4263C229.406 46.4263 228.995 46.1455 228.865 45.584C228.768 45.1771 228.654 43.9889 228.523 42.0195C228.401 40.0501 228.267 38.8945 228.121 38.5527C227.828 37.8366 227.205 37.4785 226.253 37.4785C225.643 37.4785 225.167 37.861 224.825 38.626C224.328 39.7246 224.08 41.2871 224.08 43.3135L224.202 45.0713C224.202 45.6898 223.974 46.1577 223.519 46.4751C223.226 46.6785 222.835 46.7803 222.347 46.7803C221.867 46.7803 221.549 46.7314 221.395 46.6338C221.126 46.471 220.992 46.1252 220.992 45.5962C220.992 45.4985 221.069 45.0998 221.224 44.3999C221.386 43.6919 221.468 42.5444 221.468 40.9575C221.468 39.3625 221.35 38.3493 221.114 37.918C220.878 37.4785 220.467 37.2588 219.881 37.2588C219.295 37.2588 218.774 37.4582 218.318 37.8569C217.871 38.2557 217.541 38.6911 217.33 39.1631C217.126 39.6351 216.943 40.7581 216.78 42.5322C216.626 44.3063 216.516 45.3236 216.451 45.584C216.337 46.0316 216.007 46.2554 215.462 46.2554C214.925 46.2554 214.555 46.0967 214.351 45.7793C214.156 45.4538 214.058 45.0591 214.058 44.5952L214.119 44.168L214.351 43.3257C214.449 42.9351 214.506 42.4793 214.522 41.9585C214.644 38.7277 214.738 36.8844 214.803 36.4287C214.868 35.973 215.161 35.7451 215.682 35.7451L217.5 36.0503C217.891 36.0503 218.4 35.9364 219.026 35.7085ZM238.252 31.1309V31.2773C238.252 31.6924 238.13 32.0464 237.886 32.3394C237.65 32.6242 237.284 32.7666 236.788 32.7666H236.592L236.214 32.7178C235.994 32.7178 235.783 32.616 235.579 32.4126C235.376 32.2091 235.274 31.904 235.274 31.4971V31.3506L235.335 30.9111C235.335 30.7402 235.437 30.5286 235.64 30.2764C235.852 30.0241 236.12 29.8979 236.446 29.8979L236.727 29.8613H236.971L237.312 29.9102C237.524 29.9102 237.732 30.016 237.935 30.2275C238.147 30.431 238.252 30.7321 238.252 31.1309ZM237.679 36.2822L237.544 39.5659L237.52 39.8955L237.483 40.8965V41.3726C237.483 42.5444 237.516 43.3135 237.581 43.6797C237.654 44.0459 237.789 44.404 237.984 44.7539C238.179 45.0957 238.277 45.3439 238.277 45.4985V45.6084C238.277 46.0072 238.073 46.3245 237.667 46.5605C237.26 46.7965 236.706 46.9146 236.006 46.9146H235.701C235.294 46.9146 234.985 46.825 234.773 46.646C234.562 46.4588 234.456 46.2594 234.456 46.0479V45.7793C234.456 45.6735 234.55 45.2992 234.737 44.6562C234.924 44.0052 235.018 43.1222 235.018 42.0073C235.042 41.6899 235.054 41.4702 235.054 41.3481L235.091 40.6768L235.115 40.3472C235.156 39.7775 235.176 39.334 235.176 39.0166L235.188 38.5283C235.188 37.918 235.087 37.3768 234.883 36.9048C234.688 36.4328 234.59 36.1398 234.59 36.0259C234.59 35.4399 235.144 35.147 236.25 35.147H236.69C237.105 35.147 237.374 35.2568 237.496 35.4766C237.618 35.6882 237.679 35.9567 237.679 36.2822ZM242.195 40.1885C241.699 39.6839 241.451 38.9759 241.451 38.0645C241.451 37.153 241.858 36.3717 242.671 35.7207C243.485 35.0615 244.494 34.7319 245.699 34.7319H246.016C247.082 34.7319 247.929 34.8825 248.555 35.1836C249.19 35.4847 249.507 35.9364 249.507 36.5386C249.507 37.1326 249.243 37.4297 248.714 37.4297C248.576 37.4297 248.185 37.2669 247.542 36.9414C246.899 36.6077 246.293 36.4409 245.723 36.4409C245.153 36.4409 244.694 36.5711 244.344 36.8315C244.002 37.0838 243.831 37.4338 243.831 37.8813C243.831 38.3289 244.071 38.7196 244.551 39.0532C244.828 39.2485 245.479 39.5578 246.504 39.981C247.538 40.4041 248.274 40.811 248.714 41.2017C249.422 41.8283 249.776 42.6299 249.776 43.6064C249.776 44.583 249.361 45.4212 248.531 46.1211C247.701 46.8128 246.622 47.1587 245.296 47.1587H244.979C243.644 47.1587 242.643 46.9674 241.976 46.585C241.308 46.1943 240.975 45.6898 240.975 45.0713C240.975 44.4447 241.235 44.1313 241.756 44.1313C241.927 44.1313 242.37 44.3511 243.086 44.7905C243.811 45.23 244.519 45.4497 245.21 45.4497C245.91 45.4497 246.435 45.3032 246.785 45.0103C247.135 44.7091 247.31 44.3348 247.31 43.8872C247.31 43.4315 247.09 43.0327 246.651 42.6909C246.415 42.5037 245.739 42.166 244.625 41.6777C243.51 41.1813 242.7 40.6849 242.195 40.1885ZM253.255 40.1885C252.758 39.6839 252.51 38.9759 252.51 38.0645C252.51 37.153 252.917 36.3717 253.731 35.7207C254.545 35.0615 255.554 34.7319 256.758 34.7319H257.076C258.142 34.7319 258.988 34.8825 259.615 35.1836C260.25 35.4847 260.567 35.9364 260.567 36.5386C260.567 37.1326 260.302 37.4297 259.773 37.4297C259.635 37.4297 259.244 37.2669 258.602 36.9414C257.959 36.6077 257.352 36.4409 256.783 36.4409C256.213 36.4409 255.753 36.5711 255.403 36.8315C255.062 37.0838 254.891 37.4338 254.891 37.8813C254.891 38.3289 255.131 38.7196 255.611 39.0532C255.888 39.2485 256.539 39.5578 257.564 39.981C258.597 40.4041 259.334 40.811 259.773 41.2017C260.481 41.8283 260.835 42.6299 260.835 43.6064C260.835 44.583 260.42 45.4212 259.59 46.1211C258.76 46.8128 257.682 47.1587 256.355 47.1587H256.038C254.703 47.1587 253.702 46.9674 253.035 46.585C252.368 46.1943 252.034 45.6898 252.034 45.0713C252.034 44.4447 252.295 44.1313 252.815 44.1313C252.986 44.1313 253.43 44.3511 254.146 44.7905C254.87 45.23 255.578 45.4497 256.27 45.4497C256.97 45.4497 257.495 45.3032 257.845 45.0103C258.195 44.7091 258.37 44.3348 258.37 43.8872C258.37 43.4315 258.15 43.0327 257.71 42.6909C257.474 42.5037 256.799 42.166 255.684 41.6777C254.569 41.1813 253.759 40.6849 253.255 40.1885ZM265.682 39.5781V39.7734C265.682 40.0176 265.905 40.1396 266.353 40.1396H266.646L266.719 40.1274L267.317 40.0786C267.944 39.9891 268.351 39.9443 268.538 39.9443C269.425 39.9443 270.092 39.7775 270.54 39.4438C270.752 39.2811 270.857 38.9922 270.857 38.5771V38.4429C270.857 37.8325 270.654 37.3483 270.247 36.9902C269.848 36.6322 269.368 36.4531 268.807 36.4531H268.721L268.648 36.4653C267.859 36.4653 267.167 36.799 266.573 37.4663C265.979 38.1336 265.682 38.8376 265.682 39.5781ZM268.343 47.1587H268.074C266.52 47.1587 265.283 46.6663 264.363 45.6816C263.444 44.6888 262.984 43.3664 262.984 41.7144V41.1772C262.984 40.3879 263.139 39.5863 263.448 38.7725C264.074 37.1449 265.096 36.0218 266.512 35.4033C267.26 35.0697 268.021 34.9028 268.794 34.9028H269.319C270.385 34.9028 271.285 35.2609 272.017 35.9771C272.758 36.6851 273.128 37.6006 273.128 38.7236V38.9678C273.128 39.7653 272.811 40.3309 272.176 40.6646C271.736 40.9006 270.711 41.1366 269.1 41.3726C267.488 41.6086 266.609 41.751 266.463 41.7998C265.975 41.9707 265.73 42.2962 265.73 42.7764C265.73 43.4437 266.015 44.0133 266.585 44.4854C267.155 44.9574 267.92 45.1934 268.88 45.1934C269.327 45.1934 269.938 45.0713 270.711 44.8271C271.484 44.583 271.932 44.4609 272.054 44.4609C272.469 44.4609 272.676 44.64 272.676 44.998C272.676 45.4782 272.208 45.9583 271.272 46.4385C270.337 46.9186 269.36 47.1587 268.343 47.1587ZM276.644 40.1885C276.147 39.6839 275.899 38.9759 275.899 38.0645C275.899 37.153 276.306 36.3717 277.12 35.7207C277.933 35.0615 278.943 34.7319 280.147 34.7319H280.464C281.53 34.7319 282.377 34.8825 283.003 35.1836C283.638 35.4847 283.956 35.9364 283.956 36.5386C283.956 37.1326 283.691 37.4297 283.162 37.4297C283.024 37.4297 282.633 37.2669 281.99 36.9414C281.347 36.6077 280.741 36.4409 280.171 36.4409C279.602 36.4409 279.142 36.5711 278.792 36.8315C278.45 37.0838 278.279 37.4338 278.279 37.8813C278.279 38.3289 278.519 38.7196 279 39.0532C279.276 39.2485 279.927 39.5578 280.953 39.981C281.986 40.4041 282.723 40.811 283.162 41.2017C283.87 41.8283 284.224 42.6299 284.224 43.6064C284.224 44.583 283.809 45.4212 282.979 46.1211C282.149 46.8128 281.071 47.1587 279.744 47.1587H279.427C278.092 47.1587 277.091 46.9674 276.424 46.585C275.757 46.1943 275.423 45.6898 275.423 45.0713C275.423 44.4447 275.683 44.1313 276.204 44.1313C276.375 44.1313 276.819 44.3511 277.535 44.7905C278.259 45.23 278.967 45.4497 279.659 45.4497C280.359 45.4497 280.883 45.3032 281.233 45.0103C281.583 44.7091 281.758 44.3348 281.758 43.8872C281.758 43.4315 281.539 43.0327 281.099 42.6909C280.863 42.5037 280.188 42.166 279.073 41.6777C277.958 41.1813 277.148 40.6849 276.644 40.1885ZM298.616 45.4497H298.982C299.869 45.4497 300.614 45.0103 301.216 44.1313C301.827 43.2443 302.132 42.0399 302.132 40.5181V40.1274L302.12 39.9932L302.107 39.7368C302.099 39.6473 302.095 39.5618 302.095 39.4805C302.095 38.6911 301.875 37.9993 301.436 37.4053C300.997 36.8031 300.459 36.502 299.825 36.502H299.471C299.072 36.502 298.632 36.6403 298.152 36.917C297.68 37.1937 297.347 37.5192 297.151 37.8936C296.72 38.7074 296.504 39.9932 296.504 41.751V42.874C296.529 43.1182 296.541 43.3216 296.541 43.4844C296.541 44.0703 296.72 44.5464 297.078 44.9126C297.444 45.2707 297.957 45.4497 298.616 45.4497ZM297.017 34.7197C297.017 35.029 297.066 35.2609 297.164 35.4155C297.269 35.5701 297.542 35.6475 297.981 35.6475C297.99 35.6475 298.254 35.5864 298.775 35.4644C299.304 35.3423 299.849 35.2812 300.411 35.2812C301.623 35.2812 302.636 35.7614 303.45 36.7217C304.264 37.682 304.671 38.8538 304.671 40.2373V41.1162C304.671 41.7998 304.537 42.5241 304.268 43.2891C303.991 44.054 303.601 44.7173 303.096 45.2788C302.063 46.4181 300.789 46.9878 299.275 46.9878H299.007C298.584 46.9878 298.038 46.9064 297.371 46.7437C296.704 46.5809 296.268 46.4995 296.065 46.4995L295.247 46.5728C294.409 46.5728 293.99 46.1536 293.99 45.3154V44.8149C293.99 44.3185 294.087 42.5078 294.283 39.3828C294.486 36.2578 294.588 34.264 294.588 33.4014C294.588 32.5387 294.519 31.8226 294.38 31.2529C294.242 30.6833 294.173 30.374 294.173 30.3252C294.173 29.6416 294.559 29.2998 295.333 29.2998H295.577C296.236 29.2998 296.655 29.4585 296.834 29.7759C297.013 30.0851 297.103 30.6629 297.103 31.5093L297.042 33.4502L297.017 33.9995V34.7197ZM311.104 45.4619H311.421C312.089 45.4619 312.675 45.2381 313.179 44.7905C313.692 44.3348 313.948 43.8099 313.948 43.2158L313.973 43.0571V42.8984L313.997 42.52V41.8242C313.997 41.3522 313.757 41.1162 313.277 41.1162H312.728L312.642 41.1284L312.166 41.165C311.938 41.1976 311.775 41.2139 311.678 41.2139C311.019 41.2139 310.408 41.4621 309.847 41.9585C309.456 42.3084 309.261 42.8049 309.261 43.4478V43.6919C309.261 44.2371 309.436 44.6685 309.786 44.9858C310.144 45.3032 310.583 45.4619 311.104 45.4619ZM308.382 37.6616C307.837 37.6616 307.564 37.3117 307.564 36.6118C307.564 36.091 308.003 35.6393 308.882 35.2568C309.769 34.8662 310.689 34.6709 311.641 34.6709H312.251C313.073 34.6709 313.798 34.8255 314.424 35.1348C315.051 35.4359 315.527 35.8468 315.853 36.3677C316.186 36.8885 316.39 37.568 316.463 38.4062C316.479 38.6016 316.487 39.5496 316.487 41.2505C316.487 42.9513 316.508 43.932 316.548 44.1924C316.597 44.4447 316.727 44.7539 316.939 45.1201C317.159 45.4863 317.269 45.7874 317.269 46.0234C317.269 46.2594 317.155 46.4629 316.927 46.6338C316.707 46.7965 316.386 46.8779 315.962 46.8779C315.539 46.8779 315.079 46.7762 314.583 46.5728C314.087 46.3612 313.724 46.2554 313.497 46.2554C313.472 46.2554 313.065 46.4019 312.276 46.6948C311.486 46.9797 310.819 47.1221 310.274 47.1221H310.005C309.094 47.1221 308.317 46.8332 307.674 46.2554C307.039 45.6776 306.722 44.8556 306.722 43.7896C306.722 42.7235 307.072 41.8934 307.771 41.2993C308.471 40.6971 309.322 40.2861 310.323 40.0664C310.624 40.0013 311.124 39.9159 311.824 39.8101C312.524 39.7043 313 39.5944 313.252 39.4805C313.692 39.277 313.912 38.8945 313.912 38.333C313.912 37.7633 313.724 37.3198 313.35 37.0024C312.976 36.6769 312.528 36.5142 312.007 36.5142C311.495 36.5142 310.819 36.7054 309.981 37.0879C309.143 37.4704 308.61 37.6616 308.382 37.6616ZM320.979 40.1885C320.483 39.6839 320.235 38.9759 320.235 38.0645C320.235 37.153 320.642 36.3717 321.456 35.7207C322.269 35.0615 323.278 34.7319 324.483 34.7319H324.8C325.866 34.7319 326.713 34.8825 327.339 35.1836C327.974 35.4847 328.292 35.9364 328.292 36.5386C328.292 37.1326 328.027 37.4297 327.498 37.4297C327.36 37.4297 326.969 37.2669 326.326 36.9414C325.683 36.6077 325.077 36.4409 324.507 36.4409C323.938 36.4409 323.478 36.5711 323.128 36.8315C322.786 37.0838 322.615 37.4338 322.615 37.8813C322.615 38.3289 322.855 38.7196 323.335 39.0532C323.612 39.2485 324.263 39.5578 325.289 39.981C326.322 40.4041 327.059 40.811 327.498 41.2017C328.206 41.8283 328.56 42.6299 328.56 43.6064C328.56 44.583 328.145 45.4212 327.315 46.1211C326.485 46.8128 325.407 47.1587 324.08 47.1587H323.763C322.428 47.1587 321.427 46.9674 320.76 46.585C320.092 46.1943 319.759 45.6898 319.759 45.0713C319.759 44.4447 320.019 44.1313 320.54 44.1313C320.711 44.1313 321.154 44.3511 321.871 44.7905C322.595 45.23 323.303 45.4497 323.995 45.4497C324.694 45.4497 325.219 45.3032 325.569 45.0103C325.919 44.7091 326.094 44.3348 326.094 43.8872C326.094 43.4315 325.875 43.0327 325.435 42.6909C325.199 42.5037 324.524 42.166 323.409 41.6777C322.294 41.1813 321.484 40.6849 320.979 40.1885ZM335.152 31.1309V31.2773C335.152 31.6924 335.03 32.0464 334.786 32.3394C334.55 32.6242 334.183 32.7666 333.687 32.7666H333.492L333.113 32.7178C332.894 32.7178 332.682 32.616 332.479 32.4126C332.275 32.2091 332.173 31.904 332.173 31.4971V31.3506L332.234 30.9111C332.234 30.7402 332.336 30.5286 332.54 30.2764C332.751 30.0241 333.02 29.8979 333.345 29.8979L333.626 29.8613H333.87L334.212 29.9102C334.424 29.9102 334.631 30.016 334.834 30.2275C335.046 30.431 335.152 30.7321 335.152 31.1309ZM334.578 36.2822L334.444 39.5659L334.419 39.8955L334.383 40.8965V41.3726C334.383 42.5444 334.415 43.3135 334.48 43.6797C334.554 44.0459 334.688 44.404 334.883 44.7539C335.079 45.0957 335.176 45.3439 335.176 45.4985V45.6084C335.176 46.0072 334.973 46.3245 334.566 46.5605C334.159 46.7965 333.606 46.9146 332.906 46.9146H332.601C332.194 46.9146 331.884 46.825 331.673 46.646C331.461 46.4588 331.355 46.2594 331.355 46.0479V45.7793C331.355 45.6735 331.449 45.2992 331.636 44.6562C331.823 44.0052 331.917 43.1222 331.917 42.0073C331.941 41.6899 331.954 41.4702 331.954 41.3481L331.99 40.6768L332.015 40.3472C332.055 39.7775 332.076 39.334 332.076 39.0166L332.088 38.5283C332.088 37.918 331.986 37.3768 331.783 36.9048C331.587 36.4328 331.49 36.1398 331.49 36.0259C331.49 35.4399 332.043 35.147 333.15 35.147H333.589C334.004 35.147 334.273 35.2568 334.395 35.4766C334.517 35.6882 334.578 35.9567 334.578 36.2822ZM337.801 41.9219V41.3604C337.801 40.335 337.959 39.4276 338.277 38.6382C338.887 37.1082 339.823 36.0503 341.084 35.4644C341.906 35.0737 342.757 34.8784 343.636 34.8784H343.904C344.873 34.8784 345.674 35.0697 346.309 35.4521C346.944 35.8346 347.261 36.3026 347.261 36.856C347.261 37.4989 346.952 37.8203 346.333 37.8203C346.22 37.8203 345.821 37.6413 345.137 37.2832C344.454 36.9333 343.892 36.7583 343.453 36.7583C343.444 36.7583 343.436 36.7583 343.428 36.7583C342.468 36.7583 341.715 37.1733 341.17 38.0034C340.633 38.8335 340.364 39.9159 340.364 41.2505C340.364 42.5851 340.649 43.5739 341.219 44.2168C341.797 44.8597 342.598 45.1812 343.624 45.1812C344.047 45.1812 344.629 45.0632 345.369 44.8271C346.11 44.583 346.561 44.4609 346.724 44.4609C347.058 44.4609 347.225 44.6359 347.225 44.9858C347.225 45.4578 346.757 45.9339 345.821 46.4141C344.885 46.8942 343.965 47.1343 343.062 47.1343C340.645 47.1343 339.046 46.1821 338.265 44.2778C337.955 43.521 337.801 42.7357 337.801 41.9219ZM356.771 36.0259C356.771 35.5132 357.202 35.2568 358.064 35.2568H358.345C358.882 35.2568 359.244 35.4725 359.432 35.9038C359.619 36.3351 359.712 37.1408 359.712 38.3208L359.566 42.3979C359.566 44.2941 360.245 45.2422 361.604 45.2422C362.101 45.2422 362.577 45.0672 363.033 44.7173C363.488 44.3674 363.826 43.9482 364.046 43.46C364.526 42.3857 364.766 40.4611 364.766 37.686L364.742 37.1489V36.6729C364.742 36.2415 364.839 35.9282 365.035 35.7329C365.23 35.5376 365.572 35.4399 366.06 35.4399C366.548 35.4399 366.87 35.5579 367.024 35.7939C367.179 36.0299 367.256 36.4124 367.256 36.9414L367.232 37.5884L367.183 40.4692C367.183 40.9331 367.212 41.6452 367.269 42.6055C367.326 43.5658 367.387 44.2697 367.452 44.7173C367.517 45.1567 367.549 45.4172 367.549 45.4985C367.549 46.2228 367.016 46.585 365.95 46.585C365.584 46.585 365.218 46.4507 364.852 46.1821C364.493 45.9054 364.237 45.7671 364.083 45.7671C363.936 45.7671 363.684 45.8566 363.326 46.0356C362.308 46.5483 361.442 46.8047 360.726 46.8047H360.42C359.257 46.8047 358.402 46.4466 357.857 45.7305C357.312 45.0143 357.039 43.7244 357.039 41.8608L357.161 38.1621C357.161 37.6982 357.096 37.2547 356.966 36.8315C356.836 36.4084 356.771 36.1398 356.771 36.0259ZM379.158 39.9565C379.158 38.8742 378.93 38.0278 378.475 37.4175C378.027 36.799 377.49 36.4897 376.863 36.4897H376.509C375.63 36.4897 374.935 36.8397 374.422 37.5396C373.909 38.2313 373.653 39.2526 373.653 40.6035L373.628 40.8477L373.58 42.1172V42.9717C373.58 43.8587 373.759 44.4854 374.117 44.8516C374.483 45.2096 375 45.3887 375.667 45.3887H375.899C376.819 45.3887 377.588 44.9655 378.206 44.1191C378.825 43.2728 379.134 42.2433 379.134 41.0308L379.158 40.7622V39.9565ZM372.518 35.3667L374.227 35.6597C374.406 35.6597 374.825 35.5417 375.484 35.3057C376.143 35.0697 376.79 34.9517 377.425 34.9517C378.711 34.9517 379.752 35.4033 380.55 36.3066C381.347 37.2018 381.746 38.4103 381.746 39.9321V40.2373C381.746 41.2627 381.575 42.2067 381.233 43.0693C380.534 44.8516 379.366 46.0031 377.73 46.5239C377.266 46.6704 376.644 46.7721 375.862 46.8291C375.089 46.8861 374.54 46.9878 374.214 47.1343C373.718 47.3621 373.47 47.7731 373.47 48.3672C373.47 48.6195 373.514 48.9613 373.604 49.3926C373.702 49.8239 373.75 50.2227 373.75 50.5889C373.75 50.9551 373.543 51.3132 373.128 51.6631C372.713 52.0212 372.196 52.2002 371.578 52.2002H371.321C370.589 52.2002 370.223 51.9316 370.223 51.3945V51.1626C370.223 51.0487 370.3 50.7272 370.455 50.1982C370.617 49.6774 370.731 49.1159 370.796 48.5137C370.861 47.9196 370.967 46.4344 371.114 44.0581C371.26 41.6818 371.333 40.0583 371.333 39.1875C371.333 38.3086 371.277 37.5721 371.163 36.978C371.057 36.384 371.004 36.0625 371.004 36.0137C371.004 35.5824 371.508 35.3667 372.518 35.3667ZM388.606 41.6533C387.882 41.6533 387.52 42.6095 387.52 44.522C387.52 45.3521 387.349 45.9136 387.007 46.2065C386.666 46.4995 386.255 46.646 385.774 46.646C385.294 46.646 384.952 46.5646 384.749 46.4019C384.554 46.2391 384.456 45.9339 384.456 45.4863C384.456 45.4538 384.501 45.1323 384.59 44.522C384.68 43.9116 384.794 42.0155 384.932 38.8335C385.07 35.6434 385.14 33.6943 385.14 32.9863C385.14 32.2783 385.119 31.8185 385.079 31.6069C385.046 31.3872 384.989 31.1227 384.908 30.8135C384.834 30.5042 384.798 30.3089 384.798 30.2275C384.798 29.8695 384.916 29.6253 385.152 29.4951C385.396 29.3568 385.799 29.2876 386.36 29.2876C386.93 29.2876 387.304 29.4341 387.483 29.7271C387.671 30.02 387.764 30.61 387.764 31.4971L387.605 36.6729C387.605 38.154 387.776 38.8945 388.118 38.8945C388.387 38.8945 389.046 38.3411 390.096 37.2344C391.154 36.1276 391.695 35.5661 391.719 35.5498C392.045 35.3219 392.537 35.208 393.196 35.208C393.855 35.208 394.185 35.3708 394.185 35.6963C394.185 35.859 393.66 36.5467 392.61 37.7593C391.561 38.9718 391.036 39.863 391.036 40.4326C391.036 40.7419 391.634 41.7591 392.83 43.4844C393.261 44.1029 393.668 44.64 394.051 45.0957C394.441 45.5433 394.637 45.8647 394.637 46.0601C394.637 46.467 394.258 46.6704 393.501 46.6704C392.753 46.6704 392.175 46.4548 391.768 46.0234C391.67 45.9176 391.443 45.5596 391.084 44.9492C390.726 44.3389 390.474 43.9116 390.328 43.6675C389.489 42.3247 388.916 41.6533 388.606 41.6533ZM399.397 39.5781V39.7734C399.397 40.0176 399.621 40.1396 400.069 40.1396H400.362L400.435 40.1274L401.033 40.0786C401.66 39.9891 402.067 39.9443 402.254 39.9443C403.141 39.9443 403.808 39.7775 404.256 39.4438C404.467 39.2811 404.573 38.9922 404.573 38.5771V38.4429C404.573 37.8325 404.37 37.3483 403.963 36.9902C403.564 36.6322 403.084 36.4531 402.522 36.4531H402.437L402.364 36.4653C401.574 36.4653 400.883 36.799 400.289 37.4663C399.694 38.1336 399.397 38.8376 399.397 39.5781ZM402.059 47.1587H401.79C400.236 47.1587 398.999 46.6663 398.079 45.6816C397.16 44.6888 396.7 43.3664 396.7 41.7144V41.1772C396.7 40.3879 396.854 39.5863 397.164 38.7725C397.79 37.1449 398.812 36.0218 400.228 35.4033C400.976 35.0697 401.737 34.9028 402.51 34.9028H403.035C404.101 34.9028 405 35.2609 405.733 35.9771C406.473 36.6851 406.844 37.6006 406.844 38.7236V38.9678C406.844 39.7653 406.526 40.3309 405.892 40.6646C405.452 40.9006 404.427 41.1366 402.815 41.3726C401.204 41.6086 400.325 41.751 400.179 41.7998C399.69 41.9707 399.446 42.2962 399.446 42.7764C399.446 43.4437 399.731 44.0133 400.301 44.4854C400.87 44.9574 401.635 45.1934 402.596 45.1934C403.043 45.1934 403.654 45.0713 404.427 44.8271C405.2 44.583 405.647 44.4609 405.77 44.4609C406.185 44.4609 406.392 44.64 406.392 44.998C406.392 45.4782 405.924 45.9583 404.988 46.4385C404.052 46.9186 403.076 47.1587 402.059 47.1587ZM411.727 39.5781V39.7734C411.727 40.0176 411.95 40.1396 412.398 40.1396H412.691L412.764 40.1274L413.362 40.0786C413.989 39.9891 414.396 39.9443 414.583 39.9443C415.47 39.9443 416.137 39.7775 416.585 39.4438C416.797 39.2811 416.902 38.9922 416.902 38.5771V38.4429C416.902 37.8325 416.699 37.3483 416.292 36.9902C415.893 36.6322 415.413 36.4531 414.852 36.4531H414.766L414.693 36.4653C413.903 36.4653 413.212 36.799 412.618 37.4663C412.024 38.1336 411.727 38.8376 411.727 39.5781ZM414.388 47.1587H414.119C412.565 47.1587 411.328 46.6663 410.408 45.6816C409.489 44.6888 409.029 43.3664 409.029 41.7144V41.1772C409.029 40.3879 409.183 39.5863 409.493 38.7725C410.119 37.1449 411.141 36.0218 412.557 35.4033C413.305 35.0697 414.066 34.9028 414.839 34.9028H415.364C416.43 34.9028 417.33 35.2609 418.062 35.9771C418.803 36.6851 419.173 37.6006 419.173 38.7236V38.9678C419.173 39.7653 418.855 40.3309 418.221 40.6646C417.781 40.9006 416.756 41.1366 415.145 41.3726C413.533 41.6086 412.654 41.751 412.508 41.7998C412.02 41.9707 411.775 42.2962 411.775 42.7764C411.775 43.4437 412.06 44.0133 412.63 44.4854C413.2 44.9574 413.965 45.1934 414.925 45.1934C415.372 45.1934 415.983 45.0713 416.756 44.8271C417.529 44.583 417.977 44.4609 418.099 44.4609C418.514 44.4609 418.721 44.64 418.721 44.998C418.721 45.4782 418.253 45.9583 417.317 46.4385C416.382 46.9186 415.405 47.1587 414.388 47.1587ZM430.403 39.9565C430.403 38.8742 430.175 38.0278 429.72 37.4175C429.272 36.799 428.735 36.4897 428.108 36.4897H427.754C426.875 36.4897 426.18 36.8397 425.667 37.5396C425.154 38.2313 424.898 39.2526 424.898 40.6035L424.874 40.8477L424.825 42.1172V42.9717C424.825 43.8587 425.004 44.4854 425.362 44.8516C425.728 45.2096 426.245 45.3887 426.912 45.3887H427.144C428.064 45.3887 428.833 44.9655 429.451 44.1191C430.07 43.2728 430.379 42.2433 430.379 41.0308L430.403 40.7622V39.9565ZM423.763 35.3667L425.472 35.6597C425.651 35.6597 426.07 35.5417 426.729 35.3057C427.388 35.0697 428.035 34.9517 428.67 34.9517C429.956 34.9517 430.997 35.4033 431.795 36.3066C432.592 37.2018 432.991 38.4103 432.991 39.9321V40.2373C432.991 41.2627 432.82 42.2067 432.479 43.0693C431.779 44.8516 430.611 46.0031 428.975 46.5239C428.511 46.6704 427.889 46.7721 427.107 46.8291C426.334 46.8861 425.785 46.9878 425.459 47.1343C424.963 47.3621 424.715 47.7731 424.715 48.3672C424.715 48.6195 424.76 48.9613 424.849 49.3926C424.947 49.8239 424.996 50.2227 424.996 50.5889C424.996 50.9551 424.788 51.3132 424.373 51.6631C423.958 52.0212 423.441 52.2002 422.823 52.2002H422.566C421.834 52.2002 421.468 51.9316 421.468 51.3945V51.1626C421.468 51.0487 421.545 50.7272 421.7 50.1982C421.862 49.6774 421.976 49.1159 422.042 48.5137C422.107 47.9196 422.212 46.4344 422.359 44.0581C422.505 41.6818 422.579 40.0583 422.579 39.1875C422.579 38.3086 422.522 37.5721 422.408 36.978C422.302 36.384 422.249 36.0625 422.249 36.0137C422.249 35.5824 422.754 35.3667 423.763 35.3667ZM437.19 47.1953H436.812C436.405 47.1953 436.088 47.1017 435.86 46.9146C435.64 46.7274 435.53 46.4792 435.53 46.1699C435.514 46.1048 435.506 46.0519 435.506 46.0112L435.481 45.8037V45.584L435.494 45.5352V45.4253C435.51 45.3602 435.518 45.3073 435.518 45.2666C435.518 44.9004 435.64 44.6156 435.884 44.4121C436.137 44.2005 436.413 44.0947 436.714 44.0947L436.971 44.0581H437.3C438.187 44.0581 438.631 44.522 438.631 45.4497V45.6206L438.582 46.0356C438.582 46.41 438.44 46.6989 438.155 46.9023C437.878 47.0977 437.557 47.1953 437.19 47.1953ZM460.604 37.4053C460.604 37.3809 460.604 37.3564 460.604 37.332C460.604 36.624 460.494 35.8631 460.274 35.0493C459.875 33.5438 459.196 32.5062 458.235 31.9365C457.649 31.5866 457.072 31.4116 456.502 31.4116H455.928C455.245 31.4116 454.594 31.6232 453.975 32.0464C452.819 32.8358 452.026 34.0443 451.595 35.6719C451.326 36.681 451.192 37.6779 451.192 38.6626V39.4805C451.192 41.1732 451.583 42.5973 452.364 43.7529C453.153 44.9004 454.227 45.4741 455.586 45.4741H455.782C456.449 45.4741 457.084 45.3073 457.686 44.9736C458.817 44.3389 459.643 43.1426 460.164 41.3848C460.441 40.4652 460.579 39.5496 460.579 38.6382L460.604 38.2231V37.4053ZM463.484 37.3076V38.1255C463.484 39.3381 463.293 40.5303 462.911 41.7021C462.178 43.9564 460.888 45.5433 459.041 46.4629C457.967 47 456.872 47.2686 455.757 47.2686H455.208C454.305 47.2686 453.422 47.0732 452.559 46.6826C450.842 45.9176 449.678 44.5993 449.068 42.7275C448.71 41.6289 448.531 40.4977 448.531 39.334V38.7847C448.531 37.6291 448.722 36.445 449.104 35.2324C449.495 34.0199 450.049 33.0026 450.765 32.1807C451.481 31.3506 452.311 30.724 453.255 30.3008C454.199 29.8776 455.163 29.666 456.148 29.666H456.697C457.739 29.666 458.671 29.8654 459.493 30.2642C461.096 31.0454 462.211 32.2702 462.837 33.9385C463.269 35.0859 463.484 36.209 463.484 37.3076ZM477.315 45.5352C477.315 46.1374 476.79 46.4385 475.74 46.4385C475.146 46.4385 474.747 46.2961 474.544 46.0112C474.446 45.8729 474.397 45.5474 474.397 45.0347L474.361 44.2534C474.304 43.3989 474.275 42.5404 474.275 41.6777C474.275 39.8141 474.113 38.5649 473.787 37.9302C473.47 37.2873 472.933 36.9658 472.176 36.9658C471.671 36.9658 471.203 37.1164 470.772 37.4175C470.349 37.7186 470.023 38.1377 469.795 38.6748C469.323 39.7734 469.087 41.8039 469.087 44.7661C469.087 45.4416 468.957 45.9176 468.697 46.1943C468.444 46.471 468.119 46.6094 467.72 46.6094H467.476C466.565 46.6094 466.109 46.2472 466.109 45.5229V45.23C466.109 45.1405 466.158 44.9451 466.255 44.644L466.451 44.0825C466.646 43.4233 466.744 42.0114 466.744 39.8467L466.805 36.2212C466.805 35.7573 467.057 35.5254 467.562 35.5254C468.066 35.5254 468.562 35.6922 469.051 36.0259C469.547 36.3595 469.861 36.5264 469.991 36.5264C470.129 36.5264 470.369 36.4328 470.711 36.2456C471.858 35.619 472.778 35.3057 473.47 35.3057H473.787C475.032 35.3057 475.907 35.8672 476.412 36.9902C476.656 37.5192 476.778 38.6585 476.778 40.4082V40.4937C476.778 40.6401 476.774 40.7866 476.766 40.9331C476.766 41.3319 476.766 41.5394 476.766 41.5557C476.766 41.7103 476.766 41.8608 476.766 42.0073C476.766 42.1213 476.766 42.2311 476.766 42.3369C476.766 42.9635 476.786 43.3908 476.827 43.6187C476.884 43.9279 476.977 44.2493 477.107 44.583C477.246 44.9492 477.315 45.2666 477.315 45.5352ZM480.831 30.0322C480.831 29.4382 481.388 29.1411 482.503 29.1411H482.723C483.187 29.1411 483.504 29.255 483.675 29.4829C483.846 29.7026 483.931 30.134 483.931 30.7769L483.833 32.5957C483.809 32.8805 483.797 33.0352 483.797 33.0596L483.772 33.5234C483.756 33.8245 483.74 34.1297 483.724 34.439L483.687 34.9028L483.65 35.5986C483.52 38.0726 483.455 39.8996 483.455 41.0796C483.455 42.2515 483.508 43.0938 483.614 43.6064C483.72 44.1191 483.886 44.5545 484.114 44.9126C484.342 45.2707 484.456 45.5067 484.456 45.6206V45.7671C484.456 46.1252 484.277 46.41 483.919 46.6216C483.569 46.8332 483.093 46.939 482.491 46.939H481.856C481.482 46.939 481.152 46.8332 480.867 46.6216C480.59 46.4019 480.452 46.1536 480.452 45.877V45.5474L480.525 45.0347C480.623 44.3267 480.68 43.7977 480.696 43.4478C480.721 43.0897 480.757 42.5973 480.806 41.9707C480.855 41.3359 480.932 39.9891 481.038 37.9302C481.152 35.8631 481.209 34.7523 481.209 34.5977L481.258 33.6821L481.282 32.7788C481.282 31.9162 481.205 31.3018 481.05 30.9355C480.904 30.5612 480.831 30.2601 480.831 30.0322ZM491.377 46.9512C491.377 46.528 491.089 45.7874 490.511 44.7295C489.933 43.6634 489.449 42.6706 489.058 41.751C487.723 38.6178 487.056 36.8071 487.056 36.3188C487.056 36.0991 487.182 35.8997 487.435 35.7207C487.695 35.5417 488.126 35.4521 488.729 35.4521C489.331 35.4521 489.754 35.7085 489.998 36.2212C490.022 36.2782 490.108 36.6322 490.254 37.2832C491.361 41.3278 492.053 43.4478 492.33 43.6431C492.753 43.6431 493.331 42.6543 494.063 40.6768C494.559 39.334 494.865 38.2069 494.979 37.2954C495.101 36.384 495.198 35.859 495.271 35.7207C495.499 35.2975 495.971 35.0859 496.688 35.0859C497.412 35.0859 497.774 35.3667 497.774 35.9282C497.774 36.327 497.627 36.86 497.334 37.5273C497.042 38.1947 496.765 38.9189 496.504 39.7002C495.015 44.1598 493.937 46.9756 493.27 48.1475C492.602 49.3275 491.898 50.2552 491.158 50.9307C490.417 51.6143 489.673 51.9561 488.924 51.9561C488.183 51.9561 487.813 51.7445 487.813 51.3213C487.813 50.9469 488.191 50.6051 488.948 50.2959C489.713 49.9867 490.246 49.6286 490.547 49.2217C491.101 48.4811 491.377 47.7243 491.377 46.9512ZM506.526 41.9219V41.3604C506.526 40.335 506.685 39.4276 507.002 38.6382C507.613 37.1082 508.549 36.0503 509.81 35.4644C510.632 35.0737 511.482 34.8784 512.361 34.8784H512.63C513.598 34.8784 514.4 35.0697 515.035 35.4521C515.669 35.8346 515.987 36.3026 515.987 36.856C515.987 37.4989 515.678 37.8203 515.059 37.8203C514.945 37.8203 514.546 37.6413 513.863 37.2832C513.179 36.9333 512.618 36.7583 512.178 36.7583C512.17 36.7583 512.162 36.7583 512.154 36.7583C511.194 36.7583 510.441 37.1733 509.896 38.0034C509.358 38.8335 509.09 39.9159 509.09 41.2505C509.09 42.5851 509.375 43.5739 509.944 44.2168C510.522 44.8597 511.324 45.1812 512.349 45.1812C512.772 45.1812 513.354 45.0632 514.095 44.8271C514.835 44.583 515.287 44.4609 515.45 44.4609C515.783 44.4609 515.95 44.6359 515.95 44.9858C515.95 45.4578 515.482 45.9339 514.546 46.4141C513.611 46.8942 512.691 47.1343 511.788 47.1343C509.371 47.1343 507.771 46.1821 506.99 44.2778C506.681 43.521 506.526 42.7357 506.526 41.9219ZM519.234 30.0322C519.234 29.4382 519.791 29.1411 520.906 29.1411H521.126C521.59 29.1411 521.907 29.255 522.078 29.4829C522.249 29.7026 522.334 30.134 522.334 30.7769L522.237 32.5957C522.212 32.8805 522.2 33.0352 522.2 33.0596L522.176 33.5234C522.16 33.8245 522.143 34.1297 522.127 34.439L522.09 34.9028L522.054 35.5986C521.924 38.0726 521.858 39.8996 521.858 41.0796C521.858 42.2515 521.911 43.0938 522.017 43.6064C522.123 44.1191 522.29 44.5545 522.518 44.9126C522.745 45.2707 522.859 45.5067 522.859 45.6206V45.7671C522.859 46.1252 522.68 46.41 522.322 46.6216C521.972 46.8332 521.496 46.939 520.894 46.939H520.259C519.885 46.939 519.555 46.8332 519.271 46.6216C518.994 46.4019 518.855 46.1536 518.855 45.877V45.5474L518.929 45.0347C519.026 44.3267 519.083 43.7977 519.1 43.4478C519.124 43.0897 519.161 42.5973 519.209 41.9707C519.258 41.3359 519.336 39.9891 519.441 37.9302C519.555 35.8631 519.612 34.7523 519.612 34.5977L519.661 33.6821L519.686 32.7788C519.686 31.9162 519.608 31.3018 519.454 30.9355C519.307 30.5612 519.234 30.2601 519.234 30.0322ZM527.913 39.5781V39.7734C527.913 40.0176 528.137 40.1396 528.584 40.1396H528.877L528.951 40.1274L529.549 40.0786C530.175 39.9891 530.582 39.9443 530.77 39.9443C531.657 39.9443 532.324 39.7775 532.771 39.4438C532.983 39.2811 533.089 38.9922 533.089 38.5771V38.4429C533.089 37.8325 532.885 37.3483 532.479 36.9902C532.08 36.6322 531.6 36.4531 531.038 36.4531H530.953L530.879 36.4653C530.09 36.4653 529.398 36.799 528.804 37.4663C528.21 38.1336 527.913 38.8376 527.913 39.5781ZM530.574 47.1587H530.306C528.751 47.1587 527.514 46.6663 526.595 45.6816C525.675 44.6888 525.215 43.3664 525.215 41.7144V41.1772C525.215 40.3879 525.37 39.5863 525.679 38.7725C526.306 37.1449 527.327 36.0218 528.743 35.4033C529.492 35.0697 530.253 34.9028 531.026 34.9028H531.551C532.617 34.9028 533.516 35.2609 534.249 35.9771C534.989 36.6851 535.359 37.6006 535.359 38.7236V38.9678C535.359 39.7653 535.042 40.3309 534.407 40.6646C533.968 40.9006 532.942 41.1366 531.331 41.3726C529.72 41.6086 528.841 41.751 528.694 41.7998C528.206 41.9707 527.962 42.2962 527.962 42.7764C527.962 43.4437 528.247 44.0133 528.816 44.4854C529.386 44.9574 530.151 45.1934 531.111 45.1934C531.559 45.1934 532.169 45.0713 532.942 44.8271C533.715 44.583 534.163 44.4609 534.285 44.4609C534.7 44.4609 534.908 44.64 534.908 44.998C534.908 45.4782 534.44 45.9583 533.504 46.4385C532.568 46.9186 531.591 47.1587 530.574 47.1587ZM541.915 45.4619H542.232C542.899 45.4619 543.485 45.2381 543.99 44.7905C544.502 44.3348 544.759 43.8099 544.759 43.2158L544.783 43.0571V42.8984L544.808 42.52V41.8242C544.808 41.3522 544.568 41.1162 544.087 41.1162H543.538L543.453 41.1284L542.977 41.165C542.749 41.1976 542.586 41.2139 542.488 41.2139C541.829 41.2139 541.219 41.4621 540.657 41.9585C540.267 42.3084 540.071 42.8049 540.071 43.4478V43.6919C540.071 44.2371 540.246 44.6685 540.596 44.9858C540.954 45.3032 541.394 45.4619 541.915 45.4619ZM539.192 37.6616C538.647 37.6616 538.375 37.3117 538.375 36.6118C538.375 36.091 538.814 35.6393 539.693 35.2568C540.58 34.8662 541.5 34.6709 542.452 34.6709H543.062C543.884 34.6709 544.608 34.8255 545.235 35.1348C545.861 35.4359 546.338 35.8468 546.663 36.3677C546.997 36.8885 547.2 37.568 547.273 38.4062C547.29 38.6016 547.298 39.5496 547.298 41.2505C547.298 42.9513 547.318 43.932 547.359 44.1924C547.408 44.4447 547.538 44.7539 547.75 45.1201C547.969 45.4863 548.079 45.7874 548.079 46.0234C548.079 46.2594 547.965 46.4629 547.737 46.6338C547.518 46.7965 547.196 46.8779 546.773 46.8779C546.35 46.8779 545.89 46.7762 545.394 46.5728C544.897 46.3612 544.535 46.2554 544.307 46.2554C544.283 46.2554 543.876 46.4019 543.086 46.6948C542.297 46.9797 541.63 47.1221 541.084 47.1221H540.816C539.904 47.1221 539.127 46.8332 538.484 46.2554C537.85 45.6776 537.532 44.8556 537.532 43.7896C537.532 42.7235 537.882 41.8934 538.582 41.2993C539.282 40.6971 540.132 40.2861 541.133 40.0664C541.434 40.0013 541.935 39.9159 542.635 39.8101C543.335 39.7043 543.811 39.5944 544.063 39.4805C544.502 39.277 544.722 38.8945 544.722 38.333C544.722 37.7633 544.535 37.3198 544.161 37.0024C543.786 36.6769 543.339 36.5142 542.818 36.5142C542.305 36.5142 541.63 36.7054 540.792 37.0879C539.953 37.4704 539.42 37.6616 539.192 37.6616ZM562.129 45.5352C562.129 46.1374 561.604 46.4385 560.555 46.4385C559.961 46.4385 559.562 46.2961 559.358 46.0112C559.261 45.8729 559.212 45.5474 559.212 45.0347L559.175 44.2534C559.118 43.3989 559.09 42.5404 559.09 41.6777C559.09 39.8141 558.927 38.5649 558.602 37.9302C558.284 37.2873 557.747 36.9658 556.99 36.9658C556.486 36.9658 556.018 37.1164 555.586 37.4175C555.163 37.7186 554.838 38.1377 554.61 38.6748C554.138 39.7734 553.902 41.8039 553.902 44.7661C553.902 45.4416 553.772 45.9176 553.511 46.1943C553.259 46.471 552.933 46.6094 552.535 46.6094H552.291C551.379 46.6094 550.923 46.2472 550.923 45.5229V45.23C550.923 45.1405 550.972 44.9451 551.07 44.644L551.265 44.0825C551.46 43.4233 551.558 42.0114 551.558 39.8467L551.619 36.2212C551.619 35.7573 551.871 35.5254 552.376 35.5254C552.881 35.5254 553.377 35.6922 553.865 36.0259C554.362 36.3595 554.675 36.5264 554.805 36.5264C554.944 36.5264 555.184 36.4328 555.525 36.2456C556.673 35.619 557.592 35.3057 558.284 35.3057H558.602C559.847 35.3057 560.722 35.8672 561.226 36.9902C561.47 37.5192 561.592 38.6585 561.592 40.4082V40.4937C561.592 40.6401 561.588 40.7866 561.58 40.9331C561.58 41.3319 561.58 41.5394 561.58 41.5557C561.58 41.7103 561.58 41.8608 561.58 42.0073C561.58 42.1213 561.58 42.2311 561.58 42.3369C561.58 42.9635 561.6 43.3908 561.641 43.6187C561.698 43.9279 561.792 44.2493 561.922 44.583C562.06 44.9492 562.129 45.2666 562.129 45.5352ZM565.877 40.1885C565.381 39.6839 565.132 38.9759 565.132 38.0645C565.132 37.153 565.539 36.3717 566.353 35.7207C567.167 35.0615 568.176 34.7319 569.38 34.7319H569.698C570.764 34.7319 571.61 34.8825 572.237 35.1836C572.872 35.4847 573.189 35.9364 573.189 36.5386C573.189 37.1326 572.924 37.4297 572.396 37.4297C572.257 37.4297 571.867 37.2669 571.224 36.9414C570.581 36.6077 569.974 36.4409 569.405 36.4409C568.835 36.4409 568.375 36.5711 568.025 36.8315C567.684 37.0838 567.513 37.4338 567.513 37.8813C567.513 38.3289 567.753 38.7196 568.233 39.0532C568.51 39.2485 569.161 39.5578 570.186 39.981C571.22 40.4041 571.956 40.811 572.396 41.2017C573.104 41.8283 573.458 42.6299 573.458 43.6064C573.458 44.583 573.042 45.4212 572.212 46.1211C571.382 46.8128 570.304 47.1587 568.978 47.1587H568.66C567.326 47.1587 566.325 46.9674 565.657 46.585C564.99 46.1943 564.656 45.6898 564.656 45.0713C564.656 44.4447 564.917 44.1313 565.438 44.1313C565.608 44.1313 566.052 44.3511 566.768 44.7905C567.492 45.23 568.2 45.4497 568.892 45.4497C569.592 45.4497 570.117 45.3032 570.467 45.0103C570.817 44.7091 570.992 44.3348 570.992 43.8872C570.992 43.4315 570.772 43.0327 570.333 42.6909C570.097 42.5037 569.421 42.166 568.306 41.6777C567.191 41.1813 566.382 40.6849 565.877 40.1885ZM594.527 46.3774C593.949 46.3774 593.449 46.0153 593.025 45.291C592.749 44.8109 592.309 43.8343 591.707 42.3613C591.113 40.8802 590.775 40.1396 590.694 40.1396C590.669 40.1396 590.332 40.8314 589.681 42.2148C589.03 43.5902 588.545 44.5342 588.228 45.0469C587.723 45.8525 587.239 46.2554 586.775 46.2554C586.482 46.2554 586.173 46.1414 585.848 45.9136C585.53 45.6776 585.274 45.2951 585.079 44.7661C585.054 44.701 584.867 44.0011 584.517 42.6665C584.175 41.3319 583.821 40.0786 583.455 38.9067C583.097 37.7349 582.918 36.9414 582.918 36.5264C582.918 36.1113 583.007 35.8143 583.187 35.6353C583.366 35.4562 583.549 35.3667 583.736 35.3667C584.493 35.3667 585.026 35.68 585.335 36.3066C585.449 36.5345 585.595 37.1042 585.774 38.0156C586.629 41.3604 587.203 43.1344 587.496 43.3379C587.805 43.3379 588.257 42.3044 588.851 40.2373C589.095 39.391 589.253 38.63 589.327 37.9546C589.408 37.2791 589.461 36.8885 589.485 36.7827L589.595 36.3921C589.839 35.7492 590.324 35.4277 591.048 35.4277C591.78 35.4277 592.289 35.798 592.574 36.5386C592.688 36.8397 592.793 37.3687 592.891 38.1255C592.989 38.8742 593.127 39.627 593.306 40.3838C593.754 42.3206 594.108 43.2891 594.368 43.2891C594.686 43.2891 595.182 42.2759 595.857 40.2495C596.069 39.6147 596.289 38.8376 596.517 37.918C596.753 36.9984 596.915 36.445 597.005 36.2578C597.298 35.68 597.762 35.3911 598.396 35.3911C598.73 35.3911 598.897 35.7166 598.897 36.3677C598.897 36.7502 598.482 38.2069 597.652 40.7378C596.822 43.2606 596.321 44.7051 596.15 45.0713C595.979 45.4294 595.735 45.7386 595.418 45.999C595.101 46.2513 594.804 46.3774 594.527 46.3774ZM602.974 46.7681C602.014 46.7681 601.534 46.4263 601.534 45.7427C601.534 45.4334 601.607 44.9736 601.753 44.3633C601.908 43.7529 602.01 43.1914 602.059 42.6787C602.107 42.1579 602.193 40.4814 602.315 37.6494C602.445 34.8174 602.51 33.0921 602.51 32.4736V31.0332L602.437 30.0078C602.437 29.6253 602.787 29.4341 603.487 29.4341C604.195 29.4341 604.655 29.7067 604.866 30.252C604.972 30.5286 605.025 31.432 605.025 32.9619C605.025 34.4919 605.053 35.3626 605.11 35.5742C605.175 35.7858 605.342 35.8916 605.611 35.8916C605.643 35.8916 605.798 35.8428 606.075 35.7451L606.343 35.6475C607.214 35.3057 607.967 35.1348 608.602 35.1348C609.936 35.1348 610.884 35.6556 611.446 36.6973C611.82 37.389 612.007 38.8945 612.007 41.2139C612.007 42.3044 612.015 42.9513 612.032 43.1548C612.048 43.3582 612.101 43.7285 612.19 44.2656C612.28 44.7946 612.325 45.0876 612.325 45.1445C612.325 45.6247 612.215 45.9827 611.995 46.2188C611.784 46.4466 611.397 46.5605 610.835 46.5605C610.282 46.5605 609.92 46.3896 609.749 46.0479C609.66 45.8688 609.615 45.3521 609.615 44.4976L609.578 42.3491L609.615 40.4082C609.615 38.2354 608.98 37.1489 607.71 37.1489C606.587 37.1489 605.786 37.6209 605.306 38.5649C604.826 39.509 604.585 41.2586 604.585 43.814L604.622 45.1445C604.622 45.6003 604.48 45.9868 604.195 46.3042C603.91 46.6134 603.503 46.7681 602.974 46.7681ZM617.659 39.5781V39.7734C617.659 40.0176 617.883 40.1396 618.331 40.1396H618.624L618.697 40.1274L619.295 40.0786C619.922 39.9891 620.328 39.9443 620.516 39.9443C621.403 39.9443 622.07 39.7775 622.518 39.4438C622.729 39.2811 622.835 38.9922 622.835 38.5771V38.4429C622.835 37.8325 622.632 37.3483 622.225 36.9902C621.826 36.6322 621.346 36.4531 620.784 36.4531H620.699L620.625 36.4653C619.836 36.4653 619.144 36.799 618.55 37.4663C617.956 38.1336 617.659 38.8376 617.659 39.5781ZM620.32 47.1587H620.052C618.497 47.1587 617.26 46.6663 616.341 45.6816C615.421 44.6888 614.961 43.3664 614.961 41.7144V41.1772C614.961 40.3879 615.116 39.5863 615.425 38.7725C616.052 37.1449 617.073 36.0218 618.489 35.4033C619.238 35.0697 619.999 34.9028 620.772 34.9028H621.297C622.363 34.9028 623.262 35.2609 623.995 35.9771C624.735 36.6851 625.105 37.6006 625.105 38.7236V38.9678C625.105 39.7653 624.788 40.3309 624.153 40.6646C623.714 40.9006 622.688 41.1366 621.077 41.3726C619.466 41.6086 618.587 41.751 618.44 41.7998C617.952 41.9707 617.708 42.2962 617.708 42.7764C617.708 43.4437 617.993 44.0133 618.562 44.4854C619.132 44.9574 619.897 45.1934 620.857 45.1934C621.305 45.1934 621.915 45.0713 622.688 44.8271C623.462 44.583 623.909 44.4609 624.031 44.4609C624.446 44.4609 624.654 44.64 624.654 44.998C624.654 45.4782 624.186 45.9583 623.25 46.4385C622.314 46.9186 621.338 47.1587 620.32 47.1587ZM638.96 45.5352C638.96 46.1374 638.436 46.4385 637.386 46.4385C636.792 46.4385 636.393 46.2961 636.189 46.0112C636.092 45.8729 636.043 45.5474 636.043 45.0347L636.006 44.2534C635.949 43.3989 635.921 42.5404 635.921 41.6777C635.921 39.8141 635.758 38.5649 635.433 37.9302C635.115 37.2873 634.578 36.9658 633.821 36.9658C633.317 36.9658 632.849 37.1164 632.417 37.4175C631.994 37.7186 631.669 38.1377 631.441 38.6748C630.969 39.7734 630.733 41.8039 630.733 44.7661C630.733 45.4416 630.603 45.9176 630.342 46.1943C630.09 46.471 629.764 46.6094 629.366 46.6094H629.122C628.21 46.6094 627.754 46.2472 627.754 45.5229V45.23C627.754 45.1405 627.803 44.9451 627.901 44.644L628.096 44.0825C628.292 43.4233 628.389 42.0114 628.389 39.8467L628.45 36.2212C628.45 35.7573 628.702 35.5254 629.207 35.5254C629.712 35.5254 630.208 35.6922 630.696 36.0259C631.193 36.3595 631.506 36.5264 631.636 36.5264C631.775 36.5264 632.015 36.4328 632.356 36.2456C633.504 35.619 634.424 35.3057 635.115 35.3057H635.433C636.678 35.3057 637.553 35.8672 638.057 36.9902C638.301 37.5192 638.423 38.6585 638.423 40.4082V40.4937C638.423 40.6401 638.419 40.7866 638.411 40.9331C638.411 41.3319 638.411 41.5394 638.411 41.5557C638.411 41.7103 638.411 41.8608 638.411 42.0073C638.411 42.1213 638.411 42.2311 638.411 42.3369C638.411 42.9635 638.431 43.3908 638.472 43.6187C638.529 43.9279 638.623 44.2493 638.753 44.583C638.891 44.9492 638.96 45.2666 638.96 45.5352ZM655.037 45.6938C655.037 46.0194 654.838 46.3123 654.439 46.5728C654.048 46.825 653.515 46.9512 652.84 46.9512C651.578 46.9512 650.691 46.4832 650.179 45.5474C649.861 44.9614 649.703 43.5902 649.703 41.4336C649.703 39.277 649.666 38.0238 649.593 37.6738C649.52 37.3239 649.316 36.9821 648.982 36.6484C648.649 36.3148 648.482 36.0584 648.482 35.8794C648.482 35.8143 648.877 35.387 649.666 34.5977C649.837 34.4268 650.008 34.0483 650.179 33.4624C650.358 32.8765 650.484 32.4899 650.557 32.3027C650.801 31.7168 651.123 31.4238 651.521 31.4238H651.717C652.067 31.4238 652.315 31.5581 652.461 31.8267C652.518 31.9325 652.604 32.3149 652.718 32.9741C652.84 33.6252 652.978 34.0443 653.133 34.2314C653.287 34.4186 653.674 34.6261 654.292 34.854C654.919 35.0737 655.232 35.3097 655.232 35.562V35.6963C655.232 36.0218 654.874 36.2985 654.158 36.5264C653.45 36.7461 652.994 37.1001 652.791 37.5884C652.392 38.5731 652.193 40.1763 652.193 42.3979C652.193 43.4396 652.372 44.1476 652.73 44.522C652.95 44.7498 653.389 44.9085 654.048 44.998C654.708 45.0876 655.037 45.3195 655.037 45.6938ZM659.92 41.8486C659.92 42.9147 660.164 43.8018 660.652 44.5098C661.141 45.2178 661.739 45.5718 662.447 45.5718H662.813C663.651 45.5718 664.359 45.1486 664.937 44.3022C665.523 43.4559 665.816 42.3288 665.816 40.9209V40.1152C665.816 39.0247 665.576 38.1336 665.096 37.4419C664.624 36.742 664.013 36.3921 663.265 36.3921H663.021C662.15 36.3921 661.417 36.8234 660.823 37.686C660.237 38.5487 659.944 39.5781 659.944 40.7744L659.92 41.0552V41.8486ZM662.679 47.2319H662.288C660.864 47.2319 659.704 46.7355 658.809 45.7427C657.914 44.7498 657.466 43.342 657.466 41.519L657.479 41.3115C657.479 39.3096 658.007 37.7308 659.065 36.5752C659.619 35.9648 660.25 35.5173 660.958 35.2324C661.674 34.9395 662.353 34.793 662.996 34.793H663.594C664.31 34.793 664.998 34.9517 665.657 35.269C667.545 36.1805 668.489 37.8976 668.489 40.4204V40.6157C668.481 41.4377 668.347 42.2718 668.086 43.1182C667.566 44.7865 666.565 45.9665 665.083 46.6582C664.262 47.0407 663.46 47.2319 662.679 47.2319ZM671.7 30.0322C671.7 29.4382 672.257 29.1411 673.372 29.1411H673.592C674.056 29.1411 674.373 29.255 674.544 29.4829C674.715 29.7026 674.8 30.134 674.8 30.7769L674.703 32.5957C674.678 32.8805 674.666 33.0352 674.666 33.0596L674.642 33.5234C674.625 33.8245 674.609 34.1297 674.593 34.439L674.556 34.9028L674.52 35.5986C674.389 38.0726 674.324 39.8996 674.324 41.0796C674.324 42.2515 674.377 43.0938 674.483 43.6064C674.589 44.1191 674.756 44.5545 674.983 44.9126C675.211 45.2707 675.325 45.5067 675.325 45.6206V45.7671C675.325 46.1252 675.146 46.41 674.788 46.6216C674.438 46.8332 673.962 46.939 673.36 46.939H672.725C672.351 46.939 672.021 46.8332 671.736 46.6216C671.46 46.4019 671.321 46.1536 671.321 45.877V45.5474L671.395 45.0347C671.492 44.3267 671.549 43.7977 671.565 43.4478C671.59 43.0897 671.626 42.5973 671.675 41.9707C671.724 41.3359 671.801 39.9891 671.907 37.9302C672.021 35.8631 672.078 34.7523 672.078 34.5977L672.127 33.6821L672.151 32.7788C672.151 31.9162 672.074 31.3018 671.919 30.9355C671.773 30.5612 671.7 30.2601 671.7 30.0322ZM680.306 41.0796V42.0073C680.306 42.9757 680.525 43.7855 680.965 44.4365C681.412 45.0794 681.937 45.4009 682.54 45.4009H682.881C683.809 45.4009 684.525 45.0306 685.03 44.29C685.542 43.5495 685.799 42.4468 685.799 40.9819C685.815 40.8029 685.823 40.6727 685.823 40.5913L685.848 40.3472L685.86 39.8345V38.9678C685.86 37.3076 685.197 36.4775 683.87 36.4775H683.394C682.531 36.4775 681.799 36.9129 681.197 37.7837C680.603 38.6545 680.306 39.7531 680.306 41.0796ZM677.962 41.6411C677.962 40.7948 678.112 39.9321 678.414 39.0532C678.715 38.1743 679.138 37.4256 679.683 36.8071C680.228 36.1805 680.843 35.7288 681.526 35.4521C682.21 35.1673 683.02 35.0249 683.956 35.0249C684.9 35.0249 685.486 34.854 685.713 34.5122C685.941 34.1623 686.055 33.3932 686.055 32.2051C686.055 31.9854 686.019 31.6924 685.945 31.3262C685.872 30.96 685.835 30.7484 685.835 30.6914C685.835 30.3415 685.986 30.0241 686.287 29.7393C686.588 29.4463 686.983 29.2998 687.471 29.2998H687.715C688.098 29.2998 688.383 29.3893 688.57 29.5684C688.757 29.7474 688.851 30.1217 688.851 30.6914V31.8267L688.826 32.4004C688.818 32.5957 688.814 32.8805 688.814 33.2549C688.814 33.6211 688.753 34.8011 688.631 36.7949C688.509 38.7887 688.448 40.16 688.448 40.9087L688.436 41.2017C688.427 41.397 688.423 41.5841 688.423 41.7632L688.411 42.0439C688.411 42.0439 688.411 42.3613 688.411 42.9961C688.411 43.818 688.476 44.4365 688.606 44.8516C688.737 45.2666 688.802 45.5636 688.802 45.7427C688.802 45.9217 688.7 46.1089 688.497 46.3042C688.293 46.4995 687.976 46.5972 687.544 46.5972C687.121 46.5972 686.71 46.528 686.312 46.3896C685.913 46.2432 685.62 46.1699 685.433 46.1699C685.245 46.1699 685.001 46.2269 684.7 46.3408C683.789 46.6745 682.955 46.8413 682.198 46.8413C682.181 46.8413 682.165 46.8413 682.149 46.8413H681.868C680.639 46.8413 679.679 46.3937 678.987 45.4985C678.304 44.5952 677.962 43.4111 677.962 41.9463V41.6411ZM693.733 47.1953H693.355C692.948 47.1953 692.631 47.1017 692.403 46.9146C692.183 46.7274 692.073 46.4792 692.073 46.1699C692.057 46.1048 692.049 46.0519 692.049 46.0112L692.024 45.8037V45.584L692.037 45.5352V45.4253C692.053 45.3602 692.061 45.3073 692.061 45.2666C692.061 44.9004 692.183 44.6156 692.427 44.4121C692.68 44.2005 692.956 44.0947 693.257 44.0947L693.514 44.0581H693.843C694.73 44.0581 695.174 44.522 695.174 45.4497V45.6206L695.125 46.0356C695.125 46.41 694.983 46.6989 694.698 46.9023C694.421 47.0977 694.1 47.1953 693.733 47.1953Z" fill="black"/>
</svg>
