<svg width="759" height="87" viewBox="0 0 759 87" fill="none" xmlns="http://www.w3.org/2000/svg">
<rect x="0.110291" width="758" height="87" rx="18" fill="#D9D9D9"/>
<path d="M27.7197 54.1177C27.3697 54.1177 27.1947 53.9427 27.1947 53.5927L27.1737 46.7677C27.1737 46.6277 27.2017 46.5157 27.2577 46.4317C27.3137 46.3337 27.3907 46.2217 27.4887 46.0957L34.1247 38.0107V33.7477L27.4887 31.1857C27.2787 31.1157 27.1737 30.9057 27.1737 30.5557V26.6497C27.1737 26.2997 27.3487 26.1247 27.6987 26.1247H33.0117C33.2077 26.1247 33.3617 26.1527 33.4737 26.2087C33.5857 26.2647 33.7117 26.3277 33.8517 26.3977L40.7817 29.4427C40.9637 29.5127 41.0687 29.6107 41.0967 29.7367C41.1247 29.8627 41.1387 30.0447 41.1387 30.2827V39.3547C41.1387 39.4947 41.1037 39.5997 41.0337 39.6697C40.9777 39.7257 40.8937 39.8307 40.7817 39.9847L34.2087 47.9857V48.8257H41.7267C42.0767 48.8257 42.2517 49.0007 42.2517 49.3507V53.5927C42.2517 53.9427 42.0767 54.1177 41.7267 54.1177H27.7197Z" fill="#2ECC71"/>
<path d="M70.4263 34.6221V34.2681C70.4263 33.381 70.1333 32.6893 69.5474 32.1929C68.9614 31.6965 68.1517 31.4482 67.1182 31.4482H66.6787C65.8975 31.4482 65.3888 31.554 65.1528 31.7656C64.9168 31.9772 64.7988 32.4696 64.7988 33.2427L64.7744 33.4624L64.6157 36.9536V37.3809C64.6157 37.682 64.6971 37.8854 64.8599 37.9912C65.0308 38.097 65.3522 38.1499 65.8242 38.1499L65.9341 38.1377L66.3613 38.1255L66.7886 38.1011C67.814 38.1011 68.6766 37.7796 69.3765 37.1367C70.0763 36.4857 70.4263 35.6475 70.4263 34.6221ZM64.5425 43.2036L64.7988 45.2422C64.7988 45.6979 64.6076 46.0601 64.2251 46.3286C63.8507 46.5972 63.3503 46.7314 62.7236 46.7314C61.6006 46.7314 61.0391 46.2839 61.0391 45.3887C61.0391 45.2015 61.153 44.8719 61.3809 44.3999C61.6087 43.9198 61.7471 43.4396 61.7959 42.9595C62.0075 40.8761 62.1133 38.3818 62.1133 35.4766L62.1255 35.1104C62.1336 34.8662 62.1377 34.6261 62.1377 34.3901L62.1621 33.3037C62.1621 32.3841 62.1377 31.7412 62.0889 31.375L62.04 31.1187C61.9993 30.8826 61.979 30.7321 61.979 30.667C61.979 30.3008 62.2476 30.0607 62.7847 29.9468C63.3218 29.8328 64.4245 29.7759 66.0928 29.7759H67.2402C69.9909 29.7759 71.7772 30.5815 72.5991 32.1929C72.884 32.7707 73.0264 33.4502 73.0264 34.2314C73.0264 35.6637 72.4242 36.9699 71.2197 38.1499C70.5524 38.8009 70.2188 39.3258 70.2188 39.7246C70.2188 40.1234 70.7152 41.2261 71.708 43.0327C72.0335 43.6187 72.4404 44.1842 72.9287 44.7295C73.417 45.2747 73.6611 45.6613 73.6611 45.8892V46.1333C73.6611 46.5728 73.3031 46.7925 72.5869 46.7925C71.8708 46.7925 71.3377 46.6053 70.9878 46.231C70.646 45.8485 70.0682 44.9045 69.2544 43.3989C68.4487 41.8934 68.0052 41.0918 67.9238 40.9941C67.4193 40.3919 66.87 40.0908 66.2759 40.0908C65.6818 40.0908 65.2057 40.4001 64.8477 41.0186C64.6442 41.3685 64.5425 42.0968 64.5425 43.2036ZM80.3506 45.4619H80.668C81.3353 45.4619 81.9212 45.2381 82.4258 44.7905C82.9385 44.3348 83.1948 43.8099 83.1948 43.2158L83.2192 43.0571V42.8984L83.2437 42.52V41.8242C83.2437 41.3522 83.0036 41.1162 82.5234 41.1162H81.9741L81.8887 41.1284L81.4126 41.165C81.1847 41.1976 81.022 41.2139 80.9243 41.2139C80.2651 41.2139 79.6548 41.4621 79.0933 41.9585C78.7026 42.3084 78.5073 42.8049 78.5073 43.4478V43.6919C78.5073 44.2371 78.6823 44.6685 79.0322 44.9858C79.3903 45.3032 79.8298 45.4619 80.3506 45.4619ZM77.6284 37.6616C77.0832 37.6616 76.8105 37.3117 76.8105 36.6118C76.8105 36.091 77.25 35.6393 78.1289 35.2568C79.016 34.8662 79.9355 34.6709 80.8877 34.6709H81.498C82.32 34.6709 83.0443 34.8255 83.6709 35.1348C84.2975 35.4359 84.7736 35.8468 85.0991 36.3677C85.4328 36.8885 85.6362 37.568 85.7095 38.4062C85.7257 38.6016 85.7339 39.5496 85.7339 41.2505C85.7339 42.9513 85.7542 43.932 85.7949 44.1924C85.8438 44.4447 85.974 44.7539 86.1855 45.1201C86.4053 45.4863 86.5151 45.7874 86.5151 46.0234C86.5151 46.2594 86.4012 46.4629 86.1733 46.6338C85.9536 46.7965 85.6322 46.8779 85.209 46.8779C84.7858 46.8779 84.326 46.7762 83.8296 46.5728C83.3332 46.3612 82.971 46.2554 82.7432 46.2554C82.7188 46.2554 82.3118 46.4019 81.5225 46.6948C80.7331 46.9797 80.0658 47.1221 79.5205 47.1221H79.252C78.3405 47.1221 77.5633 46.8332 76.9204 46.2554C76.2856 45.6776 75.9683 44.8556 75.9683 43.7896C75.9683 42.7235 76.3182 41.8934 77.0181 41.2993C77.7179 40.6971 78.5684 40.2861 79.5693 40.0664C79.8704 40.0013 80.3709 39.9159 81.0708 39.8101C81.7707 39.7043 82.2467 39.5944 82.499 39.4805C82.9385 39.277 83.1582 38.8945 83.1582 38.333C83.1582 37.7633 82.971 37.3198 82.5967 37.0024C82.2223 36.6769 81.7747 36.5142 81.2539 36.5142C80.7412 36.5142 80.0658 36.7054 79.2275 37.0879C78.3893 37.4704 77.8563 37.6616 77.6284 37.6616ZM90.1406 40.6523V39.7124C90.1406 38.5812 90.0796 37.7552 89.9575 37.2344C89.8354 36.7054 89.7744 36.3351 89.7744 36.1235C89.7744 35.6271 90.1366 35.3789 90.8608 35.3789C91.5851 35.3789 92.11 35.5132 92.4355 35.7817C92.5251 35.855 92.639 35.9974 92.7773 36.209C92.9238 36.4206 93.054 36.5264 93.168 36.5264C93.1924 36.5264 93.5464 36.3188 94.23 35.9038C94.9136 35.4888 95.4995 35.2812 95.9878 35.2812H96.1709C96.5697 35.2812 96.887 35.3789 97.123 35.5742C97.359 35.7614 97.4771 35.9933 97.4771 36.27V36.4287C97.4771 36.7624 97.359 37.0024 97.123 37.1489C96.8952 37.2954 96.529 37.3687 96.0244 37.3687C94.877 37.3687 94.0387 37.7715 93.5098 38.5771C92.9889 39.3828 92.7285 40.807 92.7285 42.8496C92.7285 43.1426 92.7773 43.5942 92.875 44.2046C92.9808 44.8149 93.0337 45.2747 93.0337 45.584C93.0337 45.8932 92.8669 46.1903 92.5332 46.4751C92.1995 46.7599 91.7764 46.9023 91.2637 46.9023H90.8486C90.401 46.9023 90.0552 46.7965 89.811 46.585C89.575 46.3652 89.457 46.1007 89.457 45.7915C89.457 45.4741 89.514 45.1527 89.6279 44.8271C89.9372 43.9482 90.0918 42.9798 90.0918 41.9219C90.1243 41.3359 90.1406 40.9128 90.1406 40.6523ZM101.53 39.5781V39.7734C101.53 40.0176 101.754 40.1396 102.201 40.1396H102.494L102.567 40.1274L103.166 40.0786C103.792 39.9891 104.199 39.9443 104.386 39.9443C105.273 39.9443 105.941 39.7775 106.388 39.4438C106.6 39.2811 106.706 38.9922 106.706 38.5771V38.4429C106.706 37.8325 106.502 37.3483 106.095 36.9902C105.696 36.6322 105.216 36.4531 104.655 36.4531H104.569L104.496 36.4653C103.707 36.4653 103.015 36.799 102.421 37.4663C101.827 38.1336 101.53 38.8376 101.53 39.5781ZM104.191 47.1587H103.922C102.368 47.1587 101.131 46.6663 100.211 45.6816C99.2918 44.6888 98.832 43.3664 98.832 41.7144V41.1772C98.832 40.3879 98.9867 39.5863 99.2959 38.7725C99.9225 37.1449 100.944 36.0218 102.36 35.4033C103.109 35.0697 103.869 34.9028 104.643 34.9028H105.167C106.234 34.9028 107.133 35.2609 107.865 35.9771C108.606 36.6851 108.976 37.6006 108.976 38.7236V38.9678C108.976 39.7653 108.659 40.3309 108.024 40.6646C107.584 40.9006 106.559 41.1366 104.948 41.3726C103.336 41.6086 102.458 41.751 102.311 41.7998C101.823 41.9707 101.579 42.2962 101.579 42.7764C101.579 43.4437 101.863 44.0133 102.433 44.4854C103.003 44.9574 103.768 45.1934 104.728 45.1934C105.176 45.1934 105.786 45.0713 106.559 44.8271C107.332 44.583 107.78 44.4609 107.902 44.4609C108.317 44.4609 108.524 44.64 108.524 44.998C108.524 45.4782 108.056 45.9583 107.121 46.4385C106.185 46.9186 105.208 47.1587 104.191 47.1587ZM112.309 30.0322C112.309 29.4382 112.866 29.1411 113.981 29.1411H114.201C114.665 29.1411 114.982 29.255 115.153 29.4829C115.324 29.7026 115.409 30.134 115.409 30.7769L115.312 32.5957C115.287 32.8805 115.275 33.0352 115.275 33.0596L115.25 33.5234C115.234 33.8245 115.218 34.1297 115.202 34.439L115.165 34.9028L115.128 35.5986C114.998 38.0726 114.933 39.8996 114.933 41.0796C114.933 42.2515 114.986 43.0938 115.092 43.6064C115.198 44.1191 115.364 44.5545 115.592 44.9126C115.82 45.2707 115.934 45.5067 115.934 45.6206V45.7671C115.934 46.1252 115.755 46.41 115.397 46.6216C115.047 46.8332 114.571 46.939 113.969 46.939H113.334C112.96 46.939 112.63 46.8332 112.345 46.6216C112.069 46.4019 111.93 46.1536 111.93 45.877V45.5474L112.003 45.0347C112.101 44.3267 112.158 43.7977 112.174 43.4478C112.199 43.0897 112.235 42.5973 112.284 41.9707C112.333 41.3359 112.41 39.9891 112.516 37.9302C112.63 35.8631 112.687 34.7523 112.687 34.5977L112.736 33.6821L112.76 32.7788C112.76 31.9162 112.683 31.3018 112.528 30.9355C112.382 30.5612 112.309 30.2601 112.309 30.0322ZM122.855 46.9512C122.855 46.528 122.567 45.7874 121.989 44.7295C121.411 43.6634 120.927 42.6706 120.536 41.751C119.201 38.6178 118.534 36.8071 118.534 36.3188C118.534 36.0991 118.66 35.8997 118.913 35.7207C119.173 35.5417 119.604 35.4521 120.207 35.4521C120.809 35.4521 121.232 35.7085 121.476 36.2212C121.5 36.2782 121.586 36.6322 121.732 37.2832C122.839 41.3278 123.531 43.4478 123.808 43.6431C124.231 43.6431 124.809 42.6543 125.541 40.6768C126.037 39.334 126.343 38.2069 126.457 37.2954C126.579 36.384 126.676 35.859 126.75 35.7207C126.977 35.2975 127.449 35.0859 128.166 35.0859C128.89 35.0859 129.252 35.3667 129.252 35.9282C129.252 36.327 129.105 36.86 128.812 37.5273C128.52 38.1947 128.243 38.9189 127.982 39.7002C126.493 44.1598 125.415 46.9756 124.748 48.1475C124.08 49.3275 123.376 50.2552 122.636 50.9307C121.895 51.6143 121.151 51.9561 120.402 51.9561C119.661 51.9561 119.291 51.7445 119.291 51.3213C119.291 50.9469 119.669 50.6051 120.426 50.2959C121.191 49.9867 121.724 49.6286 122.025 49.2217C122.579 48.4811 122.855 47.7243 122.855 46.9512ZM140.519 41.8486C140.519 42.9147 140.763 43.8018 141.251 44.5098C141.74 45.2178 142.338 45.5718 143.046 45.5718H143.412C144.25 45.5718 144.958 45.1486 145.536 44.3022C146.122 43.4559 146.415 42.3288 146.415 40.9209V40.1152C146.415 39.0247 146.175 38.1336 145.695 37.4419C145.223 36.742 144.612 36.3921 143.864 36.3921H143.62C142.749 36.3921 142.016 36.8234 141.422 37.686C140.836 38.5487 140.543 39.5781 140.543 40.7744L140.519 41.0552V41.8486ZM143.278 47.2319H142.887C141.463 47.2319 140.303 46.7355 139.408 45.7427C138.513 44.7498 138.065 43.342 138.065 41.519L138.078 41.3115C138.078 39.3096 138.607 37.7308 139.665 36.5752C140.218 35.9648 140.849 35.5173 141.557 35.2324C142.273 34.9395 142.952 34.793 143.595 34.793H144.193C144.91 34.793 145.597 34.9517 146.256 35.269C148.144 36.1805 149.088 37.8976 149.088 40.4204V40.6157C149.08 41.4377 148.946 42.2718 148.686 43.1182C148.165 44.7865 147.164 45.9665 145.683 46.6582C144.861 47.0407 144.059 47.2319 143.278 47.2319ZM153.495 47.8911H153.214C152.807 47.8911 152.462 47.7731 152.177 47.5371C151.9 47.3011 151.762 47.0203 151.762 46.6948C151.762 46.3693 151.859 45.9543 152.055 45.4497C152.258 44.937 152.405 44.3145 152.494 43.582C152.592 42.8415 152.641 41.7591 152.641 40.335C152.641 38.9108 152.571 38.0034 152.433 37.6128C152.409 37.5477 152.295 37.332 152.091 36.9658C151.888 36.5915 151.786 36.2741 151.786 36.0137C151.786 35.7533 151.92 35.4196 152.189 35.0127C152.466 34.6058 152.649 34.3047 152.738 34.1094C153.837 31.79 154.411 30.6019 154.459 30.5449C155.306 29.5602 156.449 29.0679 157.89 29.0679C158.557 29.0679 159.07 29.1818 159.428 29.4097C159.786 29.6375 159.965 29.9346 159.965 30.3008C159.965 30.6589 159.753 30.9193 159.33 31.082C159.216 31.1227 159.066 31.1431 158.878 31.1431C158.74 31.1349 158.581 31.1227 158.402 31.1064C157.979 31.0576 157.67 31.0332 157.475 31.0332C156.946 31.0332 156.514 31.2611 156.181 31.7168C155.855 32.1644 155.692 32.6812 155.692 33.2671C155.692 33.853 155.81 34.2803 156.046 34.5488C156.12 34.6302 156.465 34.8337 157.084 35.1592C157.711 35.4766 158.024 35.798 158.024 36.1235C158.024 36.3026 157.674 36.5793 156.974 36.9536C156.478 37.214 156.111 37.6779 155.875 38.3452C155.363 39.7775 155.106 41.6615 155.106 43.9971L155.338 46.0601C155.338 46.6216 155.172 47.0651 154.838 47.3906C154.512 47.7243 154.065 47.8911 153.495 47.8911ZM162.602 47.8911H162.321C161.914 47.8911 161.568 47.7731 161.283 47.5371C161.007 47.3011 160.868 47.0203 160.868 46.6948C160.868 46.3693 160.966 45.9543 161.161 45.4497C161.365 44.937 161.511 44.3145 161.601 43.582C161.698 42.8415 161.747 41.7591 161.747 40.335C161.747 38.9108 161.678 38.0034 161.54 37.6128C161.515 37.5477 161.401 37.332 161.198 36.9658C160.994 36.5915 160.893 36.2741 160.893 36.0137C160.893 35.7533 161.027 35.4196 161.295 35.0127C161.572 34.6058 161.755 34.3047 161.845 34.1094C162.943 31.79 163.517 30.6019 163.566 30.5449C164.412 29.5602 165.556 29.0679 166.996 29.0679C167.663 29.0679 168.176 29.1818 168.534 29.4097C168.892 29.6375 169.071 29.9346 169.071 30.3008C169.071 30.6589 168.86 30.9193 168.437 31.082C168.323 31.1227 168.172 31.1431 167.985 31.1431C167.847 31.1349 167.688 31.1227 167.509 31.1064C167.086 31.0576 166.776 31.0332 166.581 31.0332C166.052 31.0332 165.621 31.2611 165.287 31.7168C164.962 32.1644 164.799 32.6812 164.799 33.2671C164.799 33.853 164.917 34.2803 165.153 34.5488C165.226 34.6302 165.572 34.8337 166.19 35.1592C166.817 35.4766 167.13 35.798 167.13 36.1235C167.13 36.3026 166.78 36.5793 166.081 36.9536C165.584 37.214 165.218 37.6779 164.982 38.3452C164.469 39.7775 164.213 41.6615 164.213 43.9971L164.445 46.0601C164.445 46.6216 164.278 47.0651 163.944 47.3906C163.619 47.7243 163.171 47.8911 162.602 47.8911ZM171.867 39.5781V39.7734C171.867 40.0176 172.09 40.1396 172.538 40.1396H172.831L172.904 40.1274L173.502 40.0786C174.129 39.9891 174.536 39.9443 174.723 39.9443C175.61 39.9443 176.278 39.7775 176.725 39.4438C176.937 39.2811 177.042 38.9922 177.042 38.5771V38.4429C177.042 37.8325 176.839 37.3483 176.432 36.9902C176.033 36.6322 175.553 36.4531 174.992 36.4531H174.906L174.833 36.4653C174.044 36.4653 173.352 36.799 172.758 37.4663C172.164 38.1336 171.867 38.8376 171.867 39.5781ZM174.528 47.1587H174.259C172.705 47.1587 171.468 46.6663 170.548 45.6816C169.629 44.6888 169.169 43.3664 169.169 41.7144V41.1772C169.169 40.3879 169.324 39.5863 169.633 38.7725C170.259 37.1449 171.281 36.0218 172.697 35.4033C173.445 35.0697 174.206 34.9028 174.979 34.9028H175.504C176.57 34.9028 177.47 35.2609 178.202 35.9771C178.943 36.6851 179.313 37.6006 179.313 38.7236V38.9678C179.313 39.7653 178.996 40.3309 178.361 40.6646C177.921 40.9006 176.896 41.1366 175.285 41.3726C173.673 41.6086 172.794 41.751 172.648 41.7998C172.16 41.9707 171.916 42.2962 171.916 42.7764C171.916 43.4437 172.2 44.0133 172.77 44.4854C173.34 44.9574 174.105 45.1934 175.065 45.1934C175.513 45.1934 176.123 45.0713 176.896 44.8271C177.669 44.583 178.117 44.4609 178.239 44.4609C178.654 44.4609 178.861 44.64 178.861 44.998C178.861 45.4782 178.393 45.9583 177.458 46.4385C176.522 46.9186 175.545 47.1587 174.528 47.1587ZM182.743 40.6523V39.7124C182.743 38.5812 182.682 37.7552 182.56 37.2344C182.438 36.7054 182.377 36.3351 182.377 36.1235C182.377 35.6271 182.739 35.3789 183.463 35.3789C184.188 35.3789 184.713 35.5132 185.038 35.7817C185.128 35.855 185.242 35.9974 185.38 36.209C185.526 36.4206 185.657 36.5264 185.771 36.5264C185.795 36.5264 186.149 36.3188 186.833 35.9038C187.516 35.4888 188.102 35.2812 188.59 35.2812H188.773C189.172 35.2812 189.49 35.3789 189.726 35.5742C189.962 35.7614 190.08 35.9933 190.08 36.27V36.4287C190.08 36.7624 189.962 37.0024 189.726 37.1489C189.498 37.2954 189.132 37.3687 188.627 37.3687C187.479 37.3687 186.641 37.7715 186.112 38.5771C185.591 39.3828 185.331 40.807 185.331 42.8496C185.331 43.1426 185.38 43.5942 185.478 44.2046C185.583 44.8149 185.636 45.2747 185.636 45.584C185.636 45.8932 185.469 46.1903 185.136 46.4751C184.802 46.7599 184.379 46.9023 183.866 46.9023H183.451C183.004 46.9023 182.658 46.7965 182.414 46.585C182.178 46.3652 182.06 46.1007 182.06 45.7915C182.06 45.4741 182.117 45.1527 182.23 44.8271C182.54 43.9482 182.694 42.9798 182.694 41.9219C182.727 41.3359 182.743 40.9128 182.743 40.6523ZM192.96 40.1885C192.464 39.6839 192.216 38.9759 192.216 38.0645C192.216 37.153 192.623 36.3717 193.437 35.7207C194.25 35.0615 195.259 34.7319 196.464 34.7319H196.781C197.847 34.7319 198.694 34.8825 199.32 35.1836C199.955 35.4847 200.272 35.9364 200.272 36.5386C200.272 37.1326 200.008 37.4297 199.479 37.4297C199.341 37.4297 198.95 37.2669 198.307 36.9414C197.664 36.6077 197.058 36.4409 196.488 36.4409C195.919 36.4409 195.459 36.5711 195.109 36.8315C194.767 37.0838 194.596 37.4338 194.596 37.8813C194.596 38.3289 194.836 38.7196 195.316 39.0532C195.593 39.2485 196.244 39.5578 197.27 39.981C198.303 40.4041 199.04 40.811 199.479 41.2017C200.187 41.8283 200.541 42.6299 200.541 43.6064C200.541 44.583 200.126 45.4212 199.296 46.1211C198.466 46.8128 197.388 47.1587 196.061 47.1587H195.744C194.409 47.1587 193.408 46.9674 192.741 46.585C192.073 46.1943 191.74 45.6898 191.74 45.0713C191.74 44.4447 192 44.1313 192.521 44.1313C192.692 44.1313 193.135 44.3511 193.852 44.7905C194.576 45.23 195.284 45.4497 195.976 45.4497C196.675 45.4497 197.2 45.3032 197.55 45.0103C197.9 44.7091 198.075 44.3348 198.075 43.8872C198.075 43.4315 197.855 43.0327 197.416 42.6909C197.18 42.5037 196.505 42.166 195.39 41.6777C194.275 41.1813 193.465 40.6849 192.96 40.1885ZM213.993 31.1309V31.2773C213.993 31.6924 213.871 32.0464 213.627 32.3394C213.391 32.6242 213.025 32.7666 212.528 32.7666H212.333L211.955 32.7178C211.735 32.7178 211.523 32.616 211.32 32.4126C211.116 32.2091 211.015 31.904 211.015 31.4971V31.3506L211.076 30.9111C211.076 30.7402 211.177 30.5286 211.381 30.2764C211.592 30.0241 211.861 29.8979 212.187 29.8979L212.467 29.8613H212.711L213.053 29.9102C213.265 29.9102 213.472 30.016 213.676 30.2275C213.887 30.431 213.993 30.7321 213.993 31.1309ZM213.419 36.2822L213.285 39.5659L213.261 39.8955L213.224 40.8965V41.3726C213.224 42.5444 213.257 43.3135 213.322 43.6797C213.395 44.0459 213.529 44.404 213.725 44.7539C213.92 45.0957 214.018 45.3439 214.018 45.4985V45.6084C214.018 46.0072 213.814 46.3245 213.407 46.5605C213 46.7965 212.447 46.9146 211.747 46.9146H211.442C211.035 46.9146 210.726 46.825 210.514 46.646C210.303 46.4588 210.197 46.2594 210.197 46.0479V45.7793C210.197 45.6735 210.29 45.2992 210.478 44.6562C210.665 44.0052 210.758 43.1222 210.758 42.0073C210.783 41.6899 210.795 41.4702 210.795 41.3481L210.832 40.6768L210.856 40.3472C210.897 39.7775 210.917 39.334 210.917 39.0166L210.929 38.5283C210.929 37.918 210.827 37.3768 210.624 36.9048C210.429 36.4328 210.331 36.1398 210.331 36.0259C210.331 35.4399 210.884 35.147 211.991 35.147H212.431C212.846 35.147 213.114 35.2568 213.236 35.4766C213.358 35.6882 213.419 35.9567 213.419 36.2822ZM228.227 45.5352C228.227 46.1374 227.702 46.4385 226.652 46.4385C226.058 46.4385 225.659 46.2961 225.456 46.0112C225.358 45.8729 225.309 45.5474 225.309 45.0347L225.272 44.2534C225.215 43.3989 225.187 42.5404 225.187 41.6777C225.187 39.8141 225.024 38.5649 224.699 37.9302C224.381 37.2873 223.844 36.9658 223.087 36.9658C222.583 36.9658 222.115 37.1164 221.684 37.4175C221.26 37.7186 220.935 38.1377 220.707 38.6748C220.235 39.7734 219.999 41.8039 219.999 44.7661C219.999 45.4416 219.869 45.9176 219.608 46.1943C219.356 46.471 219.031 46.6094 218.632 46.6094H218.388C217.476 46.6094 217.021 46.2472 217.021 45.5229V45.23C217.021 45.1405 217.069 44.9451 217.167 44.644L217.362 44.0825C217.558 43.4233 217.655 42.0114 217.655 39.8467L217.716 36.2212C217.716 35.7573 217.969 35.5254 218.473 35.5254C218.978 35.5254 219.474 35.6922 219.962 36.0259C220.459 36.3595 220.772 36.5264 220.902 36.5264C221.041 36.5264 221.281 36.4328 221.623 36.2456C222.77 35.619 223.69 35.3057 224.381 35.3057H224.699C225.944 35.3057 226.819 35.8672 227.323 36.9902C227.567 37.5192 227.689 38.6585 227.689 40.4082V40.4937C227.689 40.6401 227.685 40.7866 227.677 40.9331C227.677 41.3319 227.677 41.5394 227.677 41.5557C227.677 41.7103 227.677 41.8608 227.677 42.0073C227.677 42.1213 227.677 42.2311 227.677 42.3369C227.677 42.9635 227.698 43.3908 227.738 43.6187C227.795 43.9279 227.889 44.2493 228.019 44.583C228.157 44.9492 228.227 45.2666 228.227 45.5352ZM239.64 39.9565C239.64 38.8742 239.412 38.0278 238.957 37.4175C238.509 36.799 237.972 36.4897 237.345 36.4897H236.991C236.112 36.4897 235.417 36.8397 234.904 37.5396C234.391 38.2313 234.135 39.2526 234.135 40.6035L234.11 40.8477L234.062 42.1172V42.9717C234.062 43.8587 234.241 44.4854 234.599 44.8516C234.965 45.2096 235.482 45.3887 236.149 45.3887H236.381C237.3 45.3887 238.069 44.9655 238.688 44.1191C239.306 43.2728 239.616 42.2433 239.616 41.0308L239.64 40.7622V39.9565ZM233 35.3667L234.708 35.6597C234.888 35.6597 235.307 35.5417 235.966 35.3057C236.625 35.0697 237.272 34.9517 237.907 34.9517C239.193 34.9517 240.234 35.4033 241.032 36.3066C241.829 37.2018 242.228 38.4103 242.228 39.9321V40.2373C242.228 41.2627 242.057 42.2067 241.715 43.0693C241.015 44.8516 239.848 46.0031 238.212 46.5239C237.748 46.6704 237.125 46.7721 236.344 46.8291C235.571 46.8861 235.022 46.9878 234.696 47.1343C234.2 47.3621 233.952 47.7731 233.952 48.3672C233.952 48.6195 233.996 48.9613 234.086 49.3926C234.184 49.8239 234.232 50.2227 234.232 50.5889C234.232 50.9551 234.025 51.3132 233.61 51.6631C233.195 52.0212 232.678 52.2002 232.06 52.2002H231.803C231.071 52.2002 230.705 51.9316 230.705 51.3945V51.1626C230.705 51.0487 230.782 50.7272 230.937 50.1982C231.099 49.6774 231.213 49.1159 231.278 48.5137C231.343 47.9196 231.449 46.4344 231.596 44.0581C231.742 41.6818 231.815 40.0583 231.815 39.1875C231.815 38.3086 231.758 37.5721 231.645 36.978C231.539 36.384 231.486 36.0625 231.486 36.0137C231.486 35.5824 231.99 35.3667 233 35.3667ZM244.84 36.0259C244.84 35.5132 245.272 35.2568 246.134 35.2568H246.415C246.952 35.2568 247.314 35.4725 247.501 35.9038C247.689 36.3351 247.782 37.1408 247.782 38.3208L247.636 42.3979C247.636 44.2941 248.315 45.2422 249.674 45.2422C250.171 45.2422 250.647 45.0672 251.103 44.7173C251.558 44.3674 251.896 43.9482 252.116 43.46C252.596 42.3857 252.836 40.4611 252.836 37.686L252.812 37.1489V36.6729C252.812 36.2415 252.909 35.9282 253.104 35.7329C253.3 35.5376 253.642 35.4399 254.13 35.4399C254.618 35.4399 254.94 35.5579 255.094 35.7939C255.249 36.0299 255.326 36.4124 255.326 36.9414L255.302 37.5884L255.253 40.4692C255.253 40.9331 255.281 41.6452 255.338 42.6055C255.395 43.5658 255.456 44.2697 255.521 44.7173C255.587 45.1567 255.619 45.4172 255.619 45.4985C255.619 46.2228 255.086 46.585 254.02 46.585C253.654 46.585 253.288 46.4507 252.921 46.1821C252.563 45.9054 252.307 45.7671 252.152 45.7671C252.006 45.7671 251.754 45.8566 251.396 46.0356C250.378 46.5483 249.512 46.8047 248.795 46.8047H248.49C247.326 46.8047 246.472 46.4466 245.927 45.7305C245.382 45.0143 245.109 43.7244 245.109 41.8608L245.231 38.1621C245.231 37.6982 245.166 37.2547 245.036 36.8315C244.905 36.4084 244.84 36.1398 244.84 36.0259ZM265.031 45.6938C265.031 46.0194 264.831 46.3123 264.433 46.5728C264.042 46.825 263.509 46.9512 262.833 46.9512C261.572 46.9512 260.685 46.4832 260.172 45.5474C259.855 44.9614 259.696 43.5902 259.696 41.4336C259.696 39.277 259.66 38.0238 259.586 37.6738C259.513 37.3239 259.31 36.9821 258.976 36.6484C258.642 36.3148 258.476 36.0584 258.476 35.8794C258.476 35.8143 258.87 35.387 259.66 34.5977C259.831 34.4268 260.001 34.0483 260.172 33.4624C260.351 32.8765 260.478 32.4899 260.551 32.3027C260.795 31.7168 261.116 31.4238 261.515 31.4238H261.71C262.06 31.4238 262.309 31.5581 262.455 31.8267C262.512 31.9325 262.597 32.3149 262.711 32.9741C262.833 33.6252 262.972 34.0443 263.126 34.2314C263.281 34.4186 263.668 34.6261 264.286 34.854C264.913 35.0737 265.226 35.3097 265.226 35.562V35.6963C265.226 36.0218 264.868 36.2985 264.152 36.5264C263.444 36.7461 262.988 37.1001 262.785 37.5884C262.386 38.5731 262.187 40.1763 262.187 42.3979C262.187 43.4396 262.366 44.1476 262.724 44.522C262.943 44.7498 263.383 44.9085 264.042 44.998C264.701 45.0876 265.031 45.3195 265.031 45.6938ZM269.596 47.1953H269.218C268.811 47.1953 268.493 47.1017 268.266 46.9146C268.046 46.7274 267.936 46.4792 267.936 46.1699C267.92 46.1048 267.912 46.0519 267.912 46.0112L267.887 45.8037V45.584L267.899 45.5352V45.4253C267.916 45.3602 267.924 45.3073 267.924 45.2666C267.924 44.9004 268.046 44.6156 268.29 44.4121C268.542 44.2005 268.819 44.0947 269.12 44.0947L269.376 44.0581H269.706C270.593 44.0581 271.037 44.522 271.037 45.4497V45.6206L270.988 46.0356C270.988 46.41 270.845 46.6989 270.561 46.9023C270.284 47.0977 269.962 47.1953 269.596 47.1953ZM293.253 31.5825C293.253 30.7443 293.856 30.3252 295.06 30.3252C295.337 30.3252 295.605 30.431 295.866 30.6426C296.126 30.8542 296.256 31.1471 296.256 31.5215C296.256 31.8958 296.138 32.3923 295.902 33.0107C295.666 33.6292 295.52 34.2152 295.463 34.7686C295.406 35.3219 295.28 37.2425 295.084 40.5303C294.889 43.818 294.763 45.584 294.706 45.8281C294.592 46.3164 294.352 46.5605 293.986 46.5605C293.262 46.5605 292.529 46.0845 291.789 45.1323C291.618 44.9126 290.499 43.11 288.432 39.7246C286.373 36.3311 285.164 34.6343 284.806 34.6343L284.647 34.7319C284.582 34.8296 284.525 35.0737 284.477 35.4644C284.216 37.6942 284.086 40.1071 284.086 42.7031C284.086 42.9798 284.102 43.2809 284.135 43.6064L284.184 44.0215C284.232 44.4284 284.257 44.6807 284.257 44.7783C284.257 45.3398 284.066 45.7915 283.683 46.1333C283.309 46.4751 282.869 46.646 282.365 46.646H281.95C281.437 46.646 281.181 46.4548 281.181 46.0723C281.181 45.6816 281.291 45.2463 281.51 44.7661C281.73 44.286 281.876 43.7407 281.95 43.1304C282.3 40.1925 282.475 37.0391 282.475 33.6699C282.475 33.0921 282.434 32.612 282.353 32.2295L282.243 31.8145L282.121 31.436C282.056 31.2082 282.023 30.9844 282.023 30.7646C282.023 30.4635 282.312 30.313 282.89 30.313C283.996 30.313 284.985 30.8013 285.856 31.7778C286.735 32.7463 288.057 34.6628 289.823 37.5273C291.589 40.3919 292.541 41.8242 292.68 41.8242L292.851 41.7754C292.899 41.7021 292.948 41.4417 292.997 40.9941C293.298 38.1702 293.449 35.6922 293.449 33.5601C293.449 33.3729 293.428 33.0881 293.388 32.7056L293.339 32.3149C293.282 31.9162 293.253 31.672 293.253 31.5825ZM300.871 39.5781V39.7734C300.871 40.0176 301.094 40.1396 301.542 40.1396H301.835L301.908 40.1274L302.506 40.0786C303.133 39.9891 303.54 39.9443 303.727 39.9443C304.614 39.9443 305.281 39.7775 305.729 39.4438C305.941 39.2811 306.046 38.9922 306.046 38.5771V38.4429C306.046 37.8325 305.843 37.3483 305.436 36.9902C305.037 36.6322 304.557 36.4531 303.996 36.4531H303.91L303.837 36.4653C303.048 36.4653 302.356 36.799 301.762 37.4663C301.168 38.1336 300.871 38.8376 300.871 39.5781ZM303.532 47.1587H303.263C301.709 47.1587 300.472 46.6663 299.552 45.6816C298.633 44.6888 298.173 43.3664 298.173 41.7144V41.1772C298.173 40.3879 298.327 39.5863 298.637 38.7725C299.263 37.1449 300.285 36.0218 301.701 35.4033C302.449 35.0697 303.21 34.9028 303.983 34.9028H304.508C305.574 34.9028 306.474 35.2609 307.206 35.9771C307.947 36.6851 308.317 37.6006 308.317 38.7236V38.9678C308.317 39.7653 308 40.3309 307.365 40.6646C306.925 40.9006 305.9 41.1366 304.289 41.3726C302.677 41.6086 301.798 41.751 301.652 41.7998C301.164 41.9707 300.919 42.2962 300.919 42.7764C300.919 43.4437 301.204 44.0133 301.774 44.4854C302.344 44.9574 303.109 45.1934 304.069 45.1934C304.516 45.1934 305.127 45.0713 305.9 44.8271C306.673 44.583 307.121 44.4609 307.243 44.4609C307.658 44.4609 307.865 44.64 307.865 44.998C307.865 45.4782 307.397 45.9583 306.461 46.4385C305.526 46.9186 304.549 47.1587 303.532 47.1587ZM313.2 39.5781V39.7734C313.2 40.0176 313.424 40.1396 313.871 40.1396H314.164L314.237 40.1274L314.835 40.0786C315.462 39.9891 315.869 39.9443 316.056 39.9443C316.943 39.9443 317.611 39.7775 318.058 39.4438C318.27 39.2811 318.375 38.9922 318.375 38.5771V38.4429C318.375 37.8325 318.172 37.3483 317.765 36.9902C317.366 36.6322 316.886 36.4531 316.325 36.4531H316.239L316.166 36.4653C315.377 36.4653 314.685 36.799 314.091 37.4663C313.497 38.1336 313.2 38.8376 313.2 39.5781ZM315.861 47.1587H315.592C314.038 47.1587 312.801 46.6663 311.881 45.6816C310.962 44.6888 310.502 43.3664 310.502 41.7144V41.1772C310.502 40.3879 310.657 39.5863 310.966 38.7725C311.592 37.1449 312.614 36.0218 314.03 35.4033C314.778 35.0697 315.539 34.9028 316.312 34.9028H316.837C317.903 34.9028 318.803 35.2609 319.535 35.9771C320.276 36.6851 320.646 37.6006 320.646 38.7236V38.9678C320.646 39.7653 320.329 40.3309 319.694 40.6646C319.254 40.9006 318.229 41.1366 316.618 41.3726C315.006 41.6086 314.127 41.751 313.981 41.7998C313.493 41.9707 313.249 42.2962 313.249 42.7764C313.249 43.4437 313.533 44.0133 314.103 44.4854C314.673 44.9574 315.438 45.1934 316.398 45.1934C316.846 45.1934 317.456 45.0713 318.229 44.8271C319.002 44.583 319.45 44.4609 319.572 44.4609C319.987 44.4609 320.194 44.64 320.194 44.998C320.194 45.4782 319.726 45.9583 318.791 46.4385C317.855 46.9186 316.878 47.1587 315.861 47.1587ZM325.407 41.0796V42.0073C325.407 42.9757 325.626 43.7855 326.066 44.4365C326.514 45.0794 327.038 45.4009 327.641 45.4009H327.982C328.91 45.4009 329.626 45.0306 330.131 44.29C330.644 43.5495 330.9 42.4468 330.9 40.9819C330.916 40.8029 330.924 40.6727 330.924 40.5913L330.949 40.3472L330.961 39.8345V38.9678C330.961 37.3076 330.298 36.4775 328.971 36.4775H328.495C327.632 36.4775 326.9 36.9129 326.298 37.7837C325.704 38.6545 325.407 39.7531 325.407 41.0796ZM323.063 41.6411C323.063 40.7948 323.214 39.9321 323.515 39.0532C323.816 38.1743 324.239 37.4256 324.784 36.8071C325.329 36.1805 325.944 35.7288 326.627 35.4521C327.311 35.1673 328.121 35.0249 329.057 35.0249C330.001 35.0249 330.587 34.854 330.814 34.5122C331.042 34.1623 331.156 33.3932 331.156 32.2051C331.156 31.9854 331.12 31.6924 331.046 31.3262C330.973 30.96 330.937 30.7484 330.937 30.6914C330.937 30.3415 331.087 30.0241 331.388 29.7393C331.689 29.4463 332.084 29.2998 332.572 29.2998H332.816C333.199 29.2998 333.484 29.3893 333.671 29.5684C333.858 29.7474 333.952 30.1217 333.952 30.6914V31.8267L333.927 32.4004C333.919 32.5957 333.915 32.8805 333.915 33.2549C333.915 33.6211 333.854 34.8011 333.732 36.7949C333.61 38.7887 333.549 40.16 333.549 40.9087L333.537 41.2017C333.528 41.397 333.524 41.5841 333.524 41.7632L333.512 42.0439C333.512 42.0439 333.512 42.3613 333.512 42.9961C333.512 43.818 333.577 44.4365 333.708 44.8516C333.838 45.2666 333.903 45.5636 333.903 45.7427C333.903 45.9217 333.801 46.1089 333.598 46.3042C333.394 46.4995 333.077 46.5972 332.646 46.5972C332.222 46.5972 331.811 46.528 331.413 46.3896C331.014 46.2432 330.721 46.1699 330.534 46.1699C330.347 46.1699 330.102 46.2269 329.801 46.3408C328.89 46.6745 328.056 46.8413 327.299 46.8413C327.283 46.8413 327.266 46.8413 327.25 46.8413H326.969C325.74 46.8413 324.78 46.3937 324.088 45.4985C323.405 44.5952 323.063 43.4111 323.063 41.9463V41.6411ZM337.98 40.1885C337.484 39.6839 337.235 38.9759 337.235 38.0645C337.235 37.153 337.642 36.3717 338.456 35.7207C339.27 35.0615 340.279 34.7319 341.483 34.7319H341.801C342.867 34.7319 343.713 34.8825 344.34 35.1836C344.975 35.4847 345.292 35.9364 345.292 36.5386C345.292 37.1326 345.028 37.4297 344.499 37.4297C344.36 37.4297 343.97 37.2669 343.327 36.9414C342.684 36.6077 342.077 36.4409 341.508 36.4409C340.938 36.4409 340.478 36.5711 340.128 36.8315C339.787 37.0838 339.616 37.4338 339.616 37.8813C339.616 38.3289 339.856 38.7196 340.336 39.0532C340.613 39.2485 341.264 39.5578 342.289 39.981C343.323 40.4041 344.059 40.811 344.499 41.2017C345.207 41.8283 345.561 42.6299 345.561 43.6064C345.561 44.583 345.146 45.4212 344.315 46.1211C343.485 46.8128 342.407 47.1587 341.081 47.1587H340.763C339.429 47.1587 338.428 46.9674 337.76 46.585C337.093 46.1943 336.759 45.6898 336.759 45.0713C336.759 44.4447 337.02 44.1313 337.541 44.1313C337.711 44.1313 338.155 44.3511 338.871 44.7905C339.595 45.23 340.303 45.4497 340.995 45.4497C341.695 45.4497 342.22 45.3032 342.57 45.0103C342.92 44.7091 343.095 44.3348 343.095 43.8872C343.095 43.4315 342.875 43.0327 342.436 42.6909C342.2 42.5037 341.524 42.166 340.409 41.6777C339.294 41.1813 338.485 40.6849 337.98 40.1885ZM356.522 46.7681C355.562 46.7681 355.082 46.4263 355.082 45.7427C355.082 45.4334 355.155 44.9736 355.302 44.3633C355.456 43.7529 355.558 43.1914 355.607 42.6787C355.656 42.1579 355.741 40.4814 355.863 37.6494C355.993 34.8174 356.059 33.0921 356.059 32.4736V31.0332L355.985 30.0078C355.985 29.6253 356.335 29.4341 357.035 29.4341C357.743 29.4341 358.203 29.7067 358.415 30.252C358.52 30.5286 358.573 31.432 358.573 32.9619C358.573 34.4919 358.602 35.3626 358.659 35.5742C358.724 35.7858 358.891 35.8916 359.159 35.8916C359.192 35.8916 359.346 35.8428 359.623 35.7451L359.892 35.6475C360.762 35.3057 361.515 35.1348 362.15 35.1348C363.485 35.1348 364.433 35.6556 364.994 36.6973C365.368 37.389 365.556 38.8945 365.556 41.2139C365.556 42.3044 365.564 42.9513 365.58 43.1548C365.596 43.3582 365.649 43.7285 365.739 44.2656C365.828 44.7946 365.873 45.0876 365.873 45.1445C365.873 45.6247 365.763 45.9827 365.543 46.2188C365.332 46.4466 364.945 46.5605 364.384 46.5605C363.83 46.5605 363.468 46.3896 363.297 46.0479C363.208 45.8688 363.163 45.3521 363.163 44.4976L363.126 42.3491L363.163 40.4082C363.163 38.2354 362.528 37.1489 361.259 37.1489C360.136 37.1489 359.334 37.6209 358.854 38.5649C358.374 39.509 358.134 41.2586 358.134 43.814L358.17 45.1445C358.17 45.6003 358.028 45.9868 357.743 46.3042C357.458 46.6134 357.051 46.7681 356.522 46.7681ZM371.208 39.5781V39.7734C371.208 40.0176 371.431 40.1396 371.879 40.1396H372.172L372.245 40.1274L372.843 40.0786C373.47 39.9891 373.877 39.9443 374.064 39.9443C374.951 39.9443 375.618 39.7775 376.066 39.4438C376.278 39.2811 376.383 38.9922 376.383 38.5771V38.4429C376.383 37.8325 376.18 37.3483 375.773 36.9902C375.374 36.6322 374.894 36.4531 374.333 36.4531H374.247L374.174 36.4653C373.384 36.4653 372.693 36.799 372.099 37.4663C371.505 38.1336 371.208 38.8376 371.208 39.5781ZM373.869 47.1587H373.6C372.046 47.1587 370.809 46.6663 369.889 45.6816C368.97 44.6888 368.51 43.3664 368.51 41.7144V41.1772C368.51 40.3879 368.664 39.5863 368.974 38.7725C369.6 37.1449 370.622 36.0218 372.038 35.4033C372.786 35.0697 373.547 34.9028 374.32 34.9028H374.845C375.911 34.9028 376.811 35.2609 377.543 35.9771C378.284 36.6851 378.654 37.6006 378.654 38.7236V38.9678C378.654 39.7653 378.336 40.3309 377.702 40.6646C377.262 40.9006 376.237 41.1366 374.625 41.3726C373.014 41.6086 372.135 41.751 371.989 41.7998C371.5 41.9707 371.256 42.2962 371.256 42.7764C371.256 43.4437 371.541 44.0133 372.111 44.4854C372.681 44.9574 373.445 45.1934 374.406 45.1934C374.853 45.1934 375.464 45.0713 376.237 44.8271C377.01 44.583 377.458 44.4609 377.58 44.4609C377.995 44.4609 378.202 44.64 378.202 44.998C378.202 45.4782 377.734 45.9583 376.798 46.4385C375.862 46.9186 374.886 47.1587 373.869 47.1587ZM385.209 45.4619H385.526C386.194 45.4619 386.78 45.2381 387.284 44.7905C387.797 44.3348 388.053 43.8099 388.053 43.2158L388.078 43.0571V42.8984L388.102 42.52V41.8242C388.102 41.3522 387.862 41.1162 387.382 41.1162H386.833L386.747 41.1284L386.271 41.165C386.043 41.1976 385.88 41.2139 385.783 41.2139C385.124 41.2139 384.513 41.4621 383.952 41.9585C383.561 42.3084 383.366 42.8049 383.366 43.4478V43.6919C383.366 44.2371 383.541 44.6685 383.891 44.9858C384.249 45.3032 384.688 45.4619 385.209 45.4619ZM382.487 37.6616C381.942 37.6616 381.669 37.3117 381.669 36.6118C381.669 36.091 382.108 35.6393 382.987 35.2568C383.874 34.8662 384.794 34.6709 385.746 34.6709H386.356C387.178 34.6709 387.903 34.8255 388.529 35.1348C389.156 35.4359 389.632 35.8468 389.958 36.3677C390.291 36.8885 390.495 37.568 390.568 38.4062C390.584 38.6016 390.592 39.5496 390.592 41.2505C390.592 42.9513 390.613 43.932 390.653 44.1924C390.702 44.4447 390.832 44.7539 391.044 45.1201C391.264 45.4863 391.374 45.7874 391.374 46.0234C391.374 46.2594 391.26 46.4629 391.032 46.6338C390.812 46.7965 390.491 46.8779 390.067 46.8779C389.644 46.8779 389.184 46.7762 388.688 46.5728C388.192 46.3612 387.829 46.2554 387.602 46.2554C387.577 46.2554 387.17 46.4019 386.381 46.6948C385.591 46.9797 384.924 47.1221 384.379 47.1221H384.11C383.199 47.1221 382.422 46.8332 381.779 46.2554C381.144 45.6776 380.827 44.8556 380.827 43.7896C380.827 42.7235 381.177 41.8934 381.876 41.2993C382.576 40.6971 383.427 40.2861 384.428 40.0664C384.729 40.0013 385.229 39.9159 385.929 39.8101C386.629 39.7043 387.105 39.5944 387.357 39.4805C387.797 39.277 388.017 38.8945 388.017 38.333C388.017 37.7633 387.829 37.3198 387.455 37.0024C387.081 36.6769 386.633 36.5142 386.112 36.5142C385.6 36.5142 384.924 36.7054 384.086 37.0879C383.248 37.4704 382.715 37.6616 382.487 37.6616ZM398.515 46.9878C397.921 46.9878 397.444 46.6094 397.086 45.8525C396.818 45.2829 396.338 43.9198 395.646 41.7632C394.962 39.5985 394.511 38.3086 394.291 37.8936C393.746 36.86 393.473 36.2008 393.473 35.916C393.473 35.623 393.563 35.4115 393.742 35.2812C393.921 35.1429 394.299 35.0737 394.877 35.0737C395.805 35.0737 396.419 35.4155 396.72 36.0991C396.777 36.2212 396.867 36.5996 396.989 37.2344C397.111 37.861 397.233 38.4144 397.355 38.8945L397.599 39.9688C398.209 42.6543 398.677 43.9971 399.003 43.9971C399.223 43.9971 399.841 42.6258 400.858 39.8833C401.322 38.63 401.619 37.6453 401.75 36.9292C401.888 36.2049 401.977 35.8021 402.018 35.7207C402.254 35.2731 402.75 35.0493 403.507 35.0493H403.751C404.305 35.0493 404.582 35.3301 404.582 35.8916C404.582 36.2904 404.459 36.6973 404.215 37.1123C403.971 37.5273 403.402 38.805 402.506 40.9453C401.619 43.0775 400.964 44.526 400.541 45.291C400.118 46.0479 399.768 46.5199 399.491 46.707C399.223 46.8942 398.897 46.9878 398.515 46.9878ZM410.771 46.9512C410.771 46.528 410.482 45.7874 409.904 44.7295C409.326 43.6634 408.842 42.6706 408.451 41.751C407.117 38.6178 406.449 36.8071 406.449 36.3188C406.449 36.0991 406.575 35.8997 406.828 35.7207C407.088 35.5417 407.519 35.4521 408.122 35.4521C408.724 35.4521 409.147 35.7085 409.391 36.2212C409.416 36.2782 409.501 36.6322 409.647 37.2832C410.754 41.3278 411.446 43.4478 411.723 43.6431C412.146 43.6431 412.724 42.6543 413.456 40.6768C413.952 39.334 414.258 38.2069 414.372 37.2954C414.494 36.384 414.591 35.859 414.665 35.7207C414.892 35.2975 415.364 35.0859 416.081 35.0859C416.805 35.0859 417.167 35.3667 417.167 35.9282C417.167 36.327 417.021 36.86 416.728 37.5273C416.435 38.1947 416.158 38.9189 415.897 39.7002C414.408 44.1598 413.33 46.9756 412.663 48.1475C411.995 49.3275 411.291 50.2552 410.551 50.9307C409.81 51.6143 409.066 51.9561 408.317 51.9561C407.576 51.9561 407.206 51.7445 407.206 51.3213C407.206 50.9469 407.584 50.6051 408.341 50.2959C409.106 49.9867 409.639 49.6286 409.94 49.2217C410.494 48.4811 410.771 47.7243 410.771 46.9512ZM428.41 41.0796V42.0073C428.41 42.9757 428.629 43.7855 429.069 44.4365C429.516 45.0794 430.041 45.4009 430.644 45.4009H430.985C431.913 45.4009 432.629 45.0306 433.134 44.29C433.646 43.5495 433.903 42.4468 433.903 40.9819C433.919 40.8029 433.927 40.6727 433.927 40.5913L433.952 40.3472L433.964 39.8345V38.9678C433.964 37.3076 433.301 36.4775 431.974 36.4775H431.498C430.635 36.4775 429.903 36.9129 429.301 37.7837C428.707 38.6545 428.41 39.7531 428.41 41.0796ZM426.066 41.6411C426.066 40.7948 426.216 39.9321 426.518 39.0532C426.819 38.1743 427.242 37.4256 427.787 36.8071C428.332 36.1805 428.947 35.7288 429.63 35.4521C430.314 35.1673 431.124 35.0249 432.06 35.0249C433.004 35.0249 433.59 34.854 433.817 34.5122C434.045 34.1623 434.159 33.3932 434.159 32.2051C434.159 31.9854 434.123 31.6924 434.049 31.3262C433.976 30.96 433.939 30.7484 433.939 30.6914C433.939 30.3415 434.09 30.0241 434.391 29.7393C434.692 29.4463 435.087 29.2998 435.575 29.2998H435.819C436.202 29.2998 436.487 29.3893 436.674 29.5684C436.861 29.7474 436.955 30.1217 436.955 30.6914V31.8267L436.93 32.4004C436.922 32.5957 436.918 32.8805 436.918 33.2549C436.918 33.6211 436.857 34.8011 436.735 36.7949C436.613 38.7887 436.552 40.16 436.552 40.9087L436.54 41.2017C436.531 41.397 436.527 41.5841 436.527 41.7632L436.515 42.0439C436.515 42.0439 436.515 42.3613 436.515 42.9961C436.515 43.818 436.58 44.4365 436.71 44.8516C436.841 45.2666 436.906 45.5636 436.906 45.7427C436.906 45.9217 436.804 46.1089 436.601 46.3042C436.397 46.4995 436.08 46.5972 435.648 46.5972C435.225 46.5972 434.814 46.528 434.416 46.3896C434.017 46.2432 433.724 46.1699 433.537 46.1699C433.349 46.1699 433.105 46.2269 432.804 46.3408C431.893 46.6745 431.059 46.8413 430.302 46.8413C430.285 46.8413 430.269 46.8413 430.253 46.8413H429.972C428.743 46.8413 427.783 46.3937 427.091 45.4985C426.408 44.5952 426.066 43.4111 426.066 41.9463V41.6411ZM444.047 31.1309V31.2773C444.047 31.6924 443.925 32.0464 443.681 32.3394C443.445 32.6242 443.078 32.7666 442.582 32.7666H442.387L442.008 32.7178C441.789 32.7178 441.577 32.616 441.374 32.4126C441.17 32.2091 441.068 31.904 441.068 31.4971V31.3506L441.129 30.9111C441.129 30.7402 441.231 30.5286 441.435 30.2764C441.646 30.0241 441.915 29.8979 442.24 29.8979L442.521 29.8613H442.765L443.107 29.9102C443.319 29.9102 443.526 30.016 443.729 30.2275C443.941 30.431 444.047 30.7321 444.047 31.1309ZM443.473 36.2822L443.339 39.5659L443.314 39.8955L443.278 40.8965V41.3726C443.278 42.5444 443.31 43.3135 443.375 43.6797C443.449 44.0459 443.583 44.404 443.778 44.7539C443.974 45.0957 444.071 45.3439 444.071 45.4985V45.6084C444.071 46.0072 443.868 46.3245 443.461 46.5605C443.054 46.7965 442.501 46.9146 441.801 46.9146H441.496C441.089 46.9146 440.779 46.825 440.568 46.646C440.356 46.4588 440.25 46.2594 440.25 46.0479V45.7793C440.25 45.6735 440.344 45.2992 440.531 44.6562C440.718 44.0052 440.812 43.1222 440.812 42.0073C440.836 41.6899 440.849 41.4702 440.849 41.3481L440.885 40.6768L440.91 40.3472C440.95 39.7775 440.971 39.334 440.971 39.0166L440.983 38.5283C440.983 37.918 440.881 37.3768 440.678 36.9048C440.482 36.4328 440.385 36.1398 440.385 36.0259C440.385 35.4399 440.938 35.147 442.045 35.147H442.484C442.899 35.147 443.168 35.2568 443.29 35.4766C443.412 35.6882 443.473 35.9567 443.473 36.2822ZM447.855 40.6523V39.7124C447.855 38.5812 447.794 37.7552 447.672 37.2344C447.55 36.7054 447.489 36.3351 447.489 36.1235C447.489 35.6271 447.851 35.3789 448.576 35.3789C449.3 35.3789 449.825 35.5132 450.15 35.7817C450.24 35.855 450.354 35.9974 450.492 36.209C450.639 36.4206 450.769 36.5264 450.883 36.5264C450.907 36.5264 451.261 36.3188 451.945 35.9038C452.628 35.4888 453.214 35.2812 453.703 35.2812H453.886C454.285 35.2812 454.602 35.3789 454.838 35.5742C455.074 35.7614 455.192 35.9933 455.192 36.27V36.4287C455.192 36.7624 455.074 37.0024 454.838 37.1489C454.61 37.2954 454.244 37.3687 453.739 37.3687C452.592 37.3687 451.754 37.7715 451.225 38.5771C450.704 39.3828 450.443 40.807 450.443 42.8496C450.443 43.1426 450.492 43.5942 450.59 44.2046C450.696 44.8149 450.749 45.2747 450.749 45.584C450.749 45.8932 450.582 46.1903 450.248 46.4751C449.914 46.7599 449.491 46.9023 448.979 46.9023H448.563C448.116 46.9023 447.77 46.7965 447.526 46.585C447.29 46.3652 447.172 46.1007 447.172 45.7915C447.172 45.4741 447.229 45.1527 447.343 44.8271C447.652 43.9482 447.807 42.9798 447.807 41.9219C447.839 41.3359 447.855 40.9128 447.855 40.6523ZM459.245 39.5781V39.7734C459.245 40.0176 459.468 40.1396 459.916 40.1396H460.209L460.282 40.1274L460.88 40.0786C461.507 39.9891 461.914 39.9443 462.101 39.9443C462.988 39.9443 463.655 39.7775 464.103 39.4438C464.315 39.2811 464.42 38.9922 464.42 38.5771V38.4429C464.42 37.8325 464.217 37.3483 463.81 36.9902C463.411 36.6322 462.931 36.4531 462.37 36.4531H462.284L462.211 36.4653C461.422 36.4653 460.73 36.799 460.136 37.4663C459.542 38.1336 459.245 38.8376 459.245 39.5781ZM461.906 47.1587H461.637C460.083 47.1587 458.846 46.6663 457.926 45.6816C457.007 44.6888 456.547 43.3664 456.547 41.7144V41.1772C456.547 40.3879 456.701 39.5863 457.011 38.7725C457.637 37.1449 458.659 36.0218 460.075 35.4033C460.823 35.0697 461.584 34.9028 462.357 34.9028H462.882C463.948 34.9028 464.848 35.2609 465.58 35.9771C466.321 36.6851 466.691 37.6006 466.691 38.7236V38.9678C466.691 39.7653 466.374 40.3309 465.739 40.6646C465.299 40.9006 464.274 41.1366 462.663 41.3726C461.051 41.6086 460.172 41.751 460.026 41.7998C459.538 41.9707 459.293 42.2962 459.293 42.7764C459.293 43.4437 459.578 44.0133 460.148 44.4854C460.718 44.9574 461.483 45.1934 462.443 45.1934C462.89 45.1934 463.501 45.0713 464.274 44.8271C465.047 44.583 465.495 44.4609 465.617 44.4609C466.032 44.4609 466.239 44.64 466.239 44.998C466.239 45.4782 465.771 45.9583 464.835 46.4385C463.9 46.9186 462.923 47.1587 461.906 47.1587ZM468.961 41.9219V41.3604C468.961 40.335 469.12 39.4276 469.438 38.6382C470.048 37.1082 470.984 36.0503 472.245 35.4644C473.067 35.0737 473.917 34.8784 474.796 34.8784H475.065C476.033 34.8784 476.835 35.0697 477.47 35.4521C478.104 35.8346 478.422 36.3026 478.422 36.856C478.422 37.4989 478.113 37.8203 477.494 37.8203C477.38 37.8203 476.981 37.6413 476.298 37.2832C475.614 36.9333 475.053 36.7583 474.613 36.7583C474.605 36.7583 474.597 36.7583 474.589 36.7583C473.629 36.7583 472.876 37.1733 472.331 38.0034C471.793 38.8335 471.525 39.9159 471.525 41.2505C471.525 42.5851 471.81 43.5739 472.379 44.2168C472.957 44.8597 473.759 45.1812 474.784 45.1812C475.207 45.1812 475.789 45.0632 476.53 44.8271C477.27 44.583 477.722 44.4609 477.885 44.4609C478.218 44.4609 478.385 44.6359 478.385 44.9858C478.385 45.4578 477.917 45.9339 476.981 46.4141C476.046 46.8942 475.126 47.1343 474.223 47.1343C471.806 47.1343 470.207 46.1821 469.425 44.2778C469.116 43.521 468.961 42.7357 468.961 41.9219ZM487.37 45.6938C487.37 46.0194 487.17 46.3123 486.771 46.5728C486.381 46.825 485.848 46.9512 485.172 46.9512C483.911 46.9512 483.024 46.4832 482.511 45.5474C482.194 44.9614 482.035 43.5902 482.035 41.4336C482.035 39.277 481.999 38.0238 481.925 37.6738C481.852 37.3239 481.649 36.9821 481.315 36.6484C480.981 36.3148 480.814 36.0584 480.814 35.8794C480.814 35.8143 481.209 35.387 481.999 34.5977C482.169 34.4268 482.34 34.0483 482.511 33.4624C482.69 32.8765 482.816 32.4899 482.89 32.3027C483.134 31.7168 483.455 31.4238 483.854 31.4238H484.049C484.399 31.4238 484.647 31.5581 484.794 31.8267C484.851 31.9325 484.936 32.3149 485.05 32.9741C485.172 33.6252 485.311 34.0443 485.465 34.2314C485.62 34.4186 486.007 34.6261 486.625 34.854C487.252 35.0737 487.565 35.3097 487.565 35.562V35.6963C487.565 36.0218 487.207 36.2985 486.491 36.5264C485.783 36.7461 485.327 37.1001 485.124 37.5884C484.725 38.5731 484.525 40.1763 484.525 42.3979C484.525 43.4396 484.704 44.1476 485.062 44.522C485.282 44.7498 485.722 44.9085 486.381 44.998C487.04 45.0876 487.37 45.3195 487.37 45.6938ZM494.145 31.1309V31.2773C494.145 31.6924 494.022 32.0464 493.778 32.3394C493.542 32.6242 493.176 32.7666 492.68 32.7666H492.484L492.106 32.7178C491.886 32.7178 491.675 32.616 491.471 32.4126C491.268 32.2091 491.166 31.904 491.166 31.4971V31.3506L491.227 30.9111C491.227 30.7402 491.329 30.5286 491.532 30.2764C491.744 30.0241 492.012 29.8979 492.338 29.8979L492.619 29.8613H492.863L493.205 29.9102C493.416 29.9102 493.624 30.016 493.827 30.2275C494.039 30.431 494.145 30.7321 494.145 31.1309ZM493.571 36.2822L493.437 39.5659L493.412 39.8955L493.375 40.8965V41.3726C493.375 42.5444 493.408 43.3135 493.473 43.6797C493.546 44.0459 493.681 44.404 493.876 44.7539C494.071 45.0957 494.169 45.3439 494.169 45.4985V45.6084C494.169 46.0072 493.965 46.3245 493.559 46.5605C493.152 46.7965 492.598 46.9146 491.898 46.9146H491.593C491.186 46.9146 490.877 46.825 490.666 46.646C490.454 46.4588 490.348 46.2594 490.348 46.0479V45.7793C490.348 45.6735 490.442 45.2992 490.629 44.6562C490.816 44.0052 490.91 43.1222 490.91 42.0073C490.934 41.6899 490.946 41.4702 490.946 41.3481L490.983 40.6768L491.007 40.3472C491.048 39.7775 491.068 39.334 491.068 39.0166L491.081 38.5283C491.081 37.918 490.979 37.3768 490.775 36.9048C490.58 36.4328 490.482 36.1398 490.482 36.0259C490.482 35.4399 491.036 35.147 492.143 35.147H492.582C492.997 35.147 493.266 35.2568 493.388 35.4766C493.51 35.6882 493.571 35.9567 493.571 36.2822ZM499.308 41.8486C499.308 42.9147 499.552 43.8018 500.041 44.5098C500.529 45.2178 501.127 45.5718 501.835 45.5718H502.201C503.039 45.5718 503.747 45.1486 504.325 44.3022C504.911 43.4559 505.204 42.3288 505.204 40.9209V40.1152C505.204 39.0247 504.964 38.1336 504.484 37.4419C504.012 36.742 503.402 36.3921 502.653 36.3921H502.409C501.538 36.3921 500.806 36.8234 500.211 37.686C499.625 38.5487 499.333 39.5781 499.333 40.7744L499.308 41.0552V41.8486ZM502.067 47.2319H501.676C500.252 47.2319 499.092 46.7355 498.197 45.7427C497.302 44.7498 496.854 43.342 496.854 41.519L496.867 41.3115C496.867 39.3096 497.396 37.7308 498.454 36.5752C499.007 35.9648 499.638 35.5173 500.346 35.2324C501.062 34.9395 501.741 34.793 502.384 34.793H502.982C503.699 34.793 504.386 34.9517 505.045 35.269C506.933 36.1805 507.877 37.8976 507.877 40.4204V40.6157C507.869 41.4377 507.735 42.2718 507.475 43.1182C506.954 44.7865 505.953 45.9665 504.472 46.6582C503.65 47.0407 502.848 47.2319 502.067 47.2319ZM521.61 45.5352C521.61 46.1374 521.085 46.4385 520.036 46.4385C519.442 46.4385 519.043 46.2961 518.839 46.0112C518.742 45.8729 518.693 45.5474 518.693 45.0347L518.656 44.2534C518.599 43.3989 518.571 42.5404 518.571 41.6777C518.571 39.8141 518.408 38.5649 518.083 37.9302C517.765 37.2873 517.228 36.9658 516.471 36.9658C515.967 36.9658 515.499 37.1164 515.067 37.4175C514.644 37.7186 514.319 38.1377 514.091 38.6748C513.619 39.7734 513.383 41.8039 513.383 44.7661C513.383 45.4416 513.253 45.9176 512.992 46.1943C512.74 46.471 512.414 46.6094 512.016 46.6094H511.771C510.86 46.6094 510.404 46.2472 510.404 45.5229V45.23C510.404 45.1405 510.453 44.9451 510.551 44.644L510.746 44.0825C510.941 43.4233 511.039 42.0114 511.039 39.8467L511.1 36.2212C511.1 35.7573 511.352 35.5254 511.857 35.5254C512.361 35.5254 512.858 35.6922 513.346 36.0259C513.843 36.3595 514.156 36.5264 514.286 36.5264C514.424 36.5264 514.665 36.4328 515.006 36.2456C516.154 35.619 517.073 35.3057 517.765 35.3057H518.083C519.328 35.3057 520.202 35.8672 520.707 36.9902C520.951 37.5192 521.073 38.6585 521.073 40.4082V40.4937C521.073 40.6401 521.069 40.7866 521.061 40.9331C521.061 41.3319 521.061 41.5394 521.061 41.5557C521.061 41.7103 521.061 41.8608 521.061 42.0073C521.061 42.1213 521.061 42.2311 521.061 42.3369C521.061 42.9635 521.081 43.3908 521.122 43.6187C521.179 43.9279 521.273 44.2493 521.403 44.583C521.541 44.9492 521.61 45.2666 521.61 45.5352ZM526.212 47.1953H525.834C525.427 47.1953 525.11 47.1017 524.882 46.9146C524.662 46.7274 524.552 46.4792 524.552 46.1699C524.536 46.1048 524.528 46.0519 524.528 46.0112L524.503 45.8037V45.584L524.516 45.5352V45.4253C524.532 45.3602 524.54 45.3073 524.54 45.2666C524.54 44.9004 524.662 44.6156 524.906 44.4121C525.159 44.2005 525.435 44.0947 525.736 44.0947L525.993 44.0581H526.322C527.209 44.0581 527.653 44.522 527.653 45.4497V45.6206L527.604 46.0356C527.604 46.41 527.462 46.6989 527.177 46.9023C526.9 47.0977 526.579 47.1953 526.212 47.1953ZM547.208 34.6221V34.2681C547.208 33.381 546.916 32.6893 546.33 32.1929C545.744 31.6965 544.934 31.4482 543.9 31.4482H543.461C542.68 31.4482 542.171 31.554 541.935 31.7656C541.699 31.9772 541.581 32.4696 541.581 33.2427L541.557 33.4624L541.398 36.9536V37.3809C541.398 37.682 541.479 37.8854 541.642 37.9912C541.813 38.097 542.134 38.1499 542.606 38.1499L542.716 38.1377L543.144 38.1255L543.571 38.1011C544.596 38.1011 545.459 37.7796 546.159 37.1367C546.859 36.4857 547.208 35.6475 547.208 34.6221ZM541.325 43.2036L541.581 45.2422C541.581 45.6979 541.39 46.0601 541.007 46.3286C540.633 46.5972 540.132 46.7314 539.506 46.7314C538.383 46.7314 537.821 46.2839 537.821 45.3887C537.821 45.2015 537.935 44.8719 538.163 44.3999C538.391 43.9198 538.529 43.4396 538.578 42.9595C538.79 40.8761 538.896 38.3818 538.896 35.4766L538.908 35.1104C538.916 34.8662 538.92 34.6261 538.92 34.3901L538.944 33.3037C538.944 32.3841 538.92 31.7412 538.871 31.375L538.822 31.1187C538.782 30.8826 538.761 30.7321 538.761 30.667C538.761 30.3008 539.03 30.0607 539.567 29.9468C540.104 29.8328 541.207 29.7759 542.875 29.7759H544.022C546.773 29.7759 548.559 30.5815 549.381 32.1929C549.666 32.7707 549.809 33.4502 549.809 34.2314C549.809 35.6637 549.206 36.9699 548.002 38.1499C547.335 38.8009 547.001 39.3258 547.001 39.7246C547.001 40.1234 547.497 41.2261 548.49 43.0327C548.816 43.6187 549.223 44.1842 549.711 44.7295C550.199 45.2747 550.443 45.6613 550.443 45.8892V46.1333C550.443 46.5728 550.085 46.7925 549.369 46.7925C548.653 46.7925 548.12 46.6053 547.77 46.231C547.428 45.8485 546.85 44.9045 546.037 43.3989C545.231 41.8934 544.787 41.0918 544.706 40.9941C544.201 40.3919 543.652 40.0908 543.058 40.0908C542.464 40.0908 541.988 40.4001 541.63 41.0186C541.426 41.3685 541.325 42.0968 541.325 43.2036ZM557.353 31.1309V31.2773C557.353 31.6924 557.23 32.0464 556.986 32.3394C556.75 32.6242 556.384 32.7666 555.888 32.7666H555.692L555.314 32.7178C555.094 32.7178 554.883 32.616 554.679 32.4126C554.476 32.2091 554.374 31.904 554.374 31.4971V31.3506L554.435 30.9111C554.435 30.7402 554.537 30.5286 554.74 30.2764C554.952 30.0241 555.22 29.8979 555.546 29.8979L555.827 29.8613H556.071L556.413 29.9102C556.624 29.9102 556.832 30.016 557.035 30.2275C557.247 30.431 557.353 30.7321 557.353 31.1309ZM556.779 36.2822L556.645 39.5659L556.62 39.8955L556.583 40.8965V41.3726C556.583 42.5444 556.616 43.3135 556.681 43.6797C556.754 44.0459 556.889 44.404 557.084 44.7539C557.279 45.0957 557.377 45.3439 557.377 45.4985V45.6084C557.377 46.0072 557.174 46.3245 556.767 46.5605C556.36 46.7965 555.806 46.9146 555.106 46.9146H554.801C554.394 46.9146 554.085 46.825 553.874 46.646C553.662 46.4588 553.556 46.2594 553.556 46.0479V45.7793C553.556 45.6735 553.65 45.2992 553.837 44.6562C554.024 44.0052 554.118 43.1222 554.118 42.0073C554.142 41.6899 554.154 41.4702 554.154 41.3481L554.191 40.6768L554.215 40.3472C554.256 39.7775 554.276 39.334 554.276 39.0166L554.289 38.5283C554.289 37.918 554.187 37.3768 553.983 36.9048C553.788 36.4328 553.69 36.1398 553.69 36.0259C553.69 35.4399 554.244 35.147 555.351 35.147H555.79C556.205 35.147 556.474 35.2568 556.596 35.4766C556.718 35.6882 556.779 35.9567 556.779 36.2822ZM562.541 41.3481V41.7266C562.541 42.8171 562.748 43.6715 563.163 44.29C563.578 44.9085 564.099 45.2178 564.726 45.2178H565.153C566.056 45.2178 566.76 44.8394 567.265 44.0825C567.769 43.3175 568.021 42.2474 568.021 40.8721C568.038 40.7093 568.046 40.5832 568.046 40.4937L568.07 39.9932V39.2607C568.054 39.098 568.046 38.9759 568.046 38.8945C568.046 38.2516 567.891 37.7471 567.582 37.3809C567.273 37.0146 566.817 36.8315 566.215 36.8315H565.873C564.913 36.8315 564.115 37.2344 563.48 38.04C562.854 38.8457 562.541 39.9484 562.541 41.3481ZM569.633 35.8306C570.341 35.8306 570.695 36.3433 570.695 37.3687C570.695 37.6372 570.585 38.7603 570.365 40.7378C570.146 42.7153 570.036 44.3958 570.036 45.7793C570.036 47.179 569.942 48.2288 569.755 48.9287C569.356 50.4342 568.432 51.5003 566.984 52.127C566.227 52.4525 565.389 52.6152 564.469 52.6152C563.558 52.6152 562.744 52.4525 562.028 52.127C561.32 51.8014 560.966 51.4108 560.966 50.9551C560.966 50.4342 561.316 50.1738 562.016 50.1738C562.154 50.1738 562.528 50.2267 563.139 50.3325C563.749 50.4383 564.188 50.4912 564.457 50.4912C565.442 50.4912 566.247 50.182 566.874 49.5635C567.509 48.9531 567.826 48.1678 567.826 47.2075C567.826 46.703 567.639 46.4507 567.265 46.4507C567.2 46.4507 567.045 46.4751 566.801 46.5239C566.109 46.6623 565.478 46.7314 564.909 46.7314C563.46 46.7314 562.37 46.292 561.637 45.4131C561.295 45.0062 561.002 44.465 560.758 43.7896C560.522 43.106 560.404 42.3857 560.404 41.6289V41.2871C560.404 40.4896 560.535 39.7043 560.795 38.9312C561.063 38.1499 561.417 37.4948 561.857 36.9658C562.296 36.4287 562.87 36.0096 563.578 35.7085C564.286 35.4074 565.01 35.2568 565.751 35.2568H566.068C566.483 35.2568 567.016 35.3708 567.667 35.5986C568.327 35.8184 568.729 35.9282 568.876 35.9282C569.201 35.8631 569.454 35.8306 569.633 35.8306ZM577.909 31.1309V31.2773C577.909 31.6924 577.787 32.0464 577.543 32.3394C577.307 32.6242 576.941 32.7666 576.444 32.7666H576.249L575.871 32.7178C575.651 32.7178 575.439 32.616 575.236 32.4126C575.032 32.2091 574.931 31.904 574.931 31.4971V31.3506L574.992 30.9111C574.992 30.7402 575.093 30.5286 575.297 30.2764C575.508 30.0241 575.777 29.8979 576.103 29.8979L576.383 29.8613H576.627L576.969 29.9102C577.181 29.9102 577.388 30.016 577.592 30.2275C577.803 30.431 577.909 30.7321 577.909 31.1309ZM577.335 36.2822L577.201 39.5659L577.177 39.8955L577.14 40.8965V41.3726C577.14 42.5444 577.173 43.3135 577.238 43.6797C577.311 44.0459 577.445 44.404 577.641 44.7539C577.836 45.0957 577.934 45.3439 577.934 45.4985V45.6084C577.934 46.0072 577.73 46.3245 577.323 46.5605C576.916 46.7965 576.363 46.9146 575.663 46.9146H575.358C574.951 46.9146 574.642 46.825 574.43 46.646C574.219 46.4588 574.113 46.2594 574.113 46.0479V45.7793C574.113 45.6735 574.206 45.2992 574.394 44.6562C574.581 44.0052 574.674 43.1222 574.674 42.0073C574.699 41.6899 574.711 41.4702 574.711 41.3481L574.748 40.6768L574.772 40.3472C574.813 39.7775 574.833 39.334 574.833 39.0166L574.845 38.5283C574.845 37.918 574.743 37.3768 574.54 36.9048C574.345 36.4328 574.247 36.1398 574.247 36.0259C574.247 35.4399 574.8 35.147 575.907 35.147H576.347C576.762 35.147 577.03 35.2568 577.152 35.4766C577.274 35.6882 577.335 35.9567 577.335 36.2822ZM583.048 41.0796V42.0073C583.048 42.9757 583.268 43.7855 583.708 44.4365C584.155 45.0794 584.68 45.4009 585.282 45.4009H585.624C586.552 45.4009 587.268 45.0306 587.772 44.29C588.285 43.5495 588.542 42.4468 588.542 40.9819C588.558 40.8029 588.566 40.6727 588.566 40.5913L588.59 40.3472L588.603 39.8345V38.9678C588.603 37.3076 587.939 36.4775 586.613 36.4775H586.137C585.274 36.4775 584.542 36.9129 583.939 37.7837C583.345 38.6545 583.048 39.7531 583.048 41.0796ZM580.705 41.6411C580.705 40.7948 580.855 39.9321 581.156 39.0532C581.457 38.1743 581.881 37.4256 582.426 36.8071C582.971 36.1805 583.585 35.7288 584.269 35.4521C584.953 35.1673 585.762 35.0249 586.698 35.0249C587.642 35.0249 588.228 34.854 588.456 34.5122C588.684 34.1623 588.798 33.3932 588.798 32.2051C588.798 31.9854 588.761 31.6924 588.688 31.3262C588.615 30.96 588.578 30.7484 588.578 30.6914C588.578 30.3415 588.729 30.0241 589.03 29.7393C589.331 29.4463 589.726 29.2998 590.214 29.2998H590.458C590.84 29.2998 591.125 29.3893 591.312 29.5684C591.5 29.7474 591.593 30.1217 591.593 30.6914V31.8267L591.569 32.4004C591.561 32.5957 591.557 32.8805 591.557 33.2549C591.557 33.6211 591.496 34.8011 591.374 36.7949C591.251 38.7887 591.19 40.16 591.19 40.9087L591.178 41.2017C591.17 41.397 591.166 41.5841 591.166 41.7632L591.154 42.0439C591.154 42.0439 591.154 42.3613 591.154 42.9961C591.154 43.818 591.219 44.4365 591.349 44.8516C591.479 45.2666 591.544 45.5636 591.544 45.7427C591.544 45.9217 591.443 46.1089 591.239 46.3042C591.036 46.4995 590.718 46.5972 590.287 46.5972C589.864 46.5972 589.453 46.528 589.054 46.3896C588.655 46.2432 588.362 46.1699 588.175 46.1699C587.988 46.1699 587.744 46.2269 587.443 46.3408C586.531 46.6745 585.697 46.8413 584.94 46.8413C584.924 46.8413 584.908 46.8413 584.892 46.8413H584.611C583.382 46.8413 582.422 46.3937 581.73 45.4985C581.046 44.5952 580.705 43.4111 580.705 41.9463V41.6411ZM605.546 31.1309V31.2773C605.546 31.6924 605.424 32.0464 605.18 32.3394C604.944 32.6242 604.577 32.7666 604.081 32.7666H603.886L603.507 32.7178C603.288 32.7178 603.076 32.616 602.873 32.4126C602.669 32.2091 602.567 31.904 602.567 31.4971V31.3506L602.628 30.9111C602.628 30.7402 602.73 30.5286 602.934 30.2764C603.145 30.0241 603.414 29.8979 603.739 29.8979L604.02 29.8613H604.264L604.606 29.9102C604.818 29.9102 605.025 30.016 605.229 30.2275C605.44 30.431 605.546 30.7321 605.546 31.1309ZM604.972 36.2822L604.838 39.5659L604.813 39.8955L604.777 40.8965V41.3726C604.777 42.5444 604.809 43.3135 604.875 43.6797C604.948 44.0459 605.082 44.404 605.277 44.7539C605.473 45.0957 605.57 45.3439 605.57 45.4985V45.6084C605.57 46.0072 605.367 46.3245 604.96 46.5605C604.553 46.7965 604 46.9146 603.3 46.9146H602.995C602.588 46.9146 602.278 46.825 602.067 46.646C601.855 46.4588 601.75 46.2594 601.75 46.0479V45.7793C601.75 45.6735 601.843 45.2992 602.03 44.6562C602.217 44.0052 602.311 43.1222 602.311 42.0073C602.335 41.6899 602.348 41.4702 602.348 41.3481L602.384 40.6768L602.409 40.3472C602.449 39.7775 602.47 39.334 602.47 39.0166L602.482 38.5283C602.482 37.918 602.38 37.3768 602.177 36.9048C601.981 36.4328 601.884 36.1398 601.884 36.0259C601.884 35.4399 602.437 35.147 603.544 35.147H603.983C604.398 35.147 604.667 35.2568 604.789 35.4766C604.911 35.6882 604.972 35.9567 604.972 36.2822ZM619.779 45.5352C619.779 46.1374 619.254 46.4385 618.205 46.4385C617.611 46.4385 617.212 46.2961 617.008 46.0112C616.911 45.8729 616.862 45.5474 616.862 45.0347L616.825 44.2534C616.768 43.3989 616.74 42.5404 616.74 41.6777C616.74 39.8141 616.577 38.5649 616.251 37.9302C615.934 37.2873 615.397 36.9658 614.64 36.9658C614.136 36.9658 613.668 37.1164 613.236 37.4175C612.813 37.7186 612.488 38.1377 612.26 38.6748C611.788 39.7734 611.552 41.8039 611.552 44.7661C611.552 45.4416 611.422 45.9176 611.161 46.1943C610.909 46.471 610.583 46.6094 610.185 46.6094H609.94C609.029 46.6094 608.573 46.2472 608.573 45.5229V45.23C608.573 45.1405 608.622 44.9451 608.72 44.644L608.915 44.0825C609.11 43.4233 609.208 42.0114 609.208 39.8467L609.269 36.2212C609.269 35.7573 609.521 35.5254 610.026 35.5254C610.53 35.5254 611.027 35.6922 611.515 36.0259C612.012 36.3595 612.325 36.5264 612.455 36.5264C612.593 36.5264 612.833 36.4328 613.175 36.2456C614.323 35.619 615.242 35.3057 615.934 35.3057H616.251C617.497 35.3057 618.371 35.8672 618.876 36.9902C619.12 37.5192 619.242 38.6585 619.242 40.4082V40.4937C619.242 40.6401 619.238 40.7866 619.23 40.9331C619.23 41.3319 619.23 41.5394 619.23 41.5557C619.23 41.7103 619.23 41.8608 619.23 42.0073C619.23 42.1213 619.23 42.2311 619.23 42.3369C619.23 42.9635 619.25 43.3908 619.291 43.6187C619.348 43.9279 619.442 44.2493 619.572 44.583C619.71 44.9492 619.779 45.2666 619.779 45.5352ZM633.378 45.4619H633.695C634.363 45.4619 634.949 45.2381 635.453 44.7905C635.966 44.3348 636.222 43.8099 636.222 43.2158L636.247 43.0571V42.8984L636.271 42.52V41.8242C636.271 41.3522 636.031 41.1162 635.551 41.1162H635.001L634.916 41.1284L634.44 41.165C634.212 41.1976 634.049 41.2139 633.952 41.2139C633.292 41.2139 632.682 41.4621 632.121 41.9585C631.73 42.3084 631.535 42.8049 631.535 43.4478V43.6919C631.535 44.2371 631.71 44.6685 632.06 44.9858C632.418 45.3032 632.857 45.4619 633.378 45.4619ZM630.656 37.6616C630.111 37.6616 629.838 37.3117 629.838 36.6118C629.838 36.091 630.277 35.6393 631.156 35.2568C632.043 34.8662 632.963 34.6709 633.915 34.6709H634.525C635.347 34.6709 636.072 34.8255 636.698 35.1348C637.325 35.4359 637.801 35.8468 638.126 36.3677C638.46 36.8885 638.664 37.568 638.737 38.4062C638.753 38.6016 638.761 39.5496 638.761 41.2505C638.761 42.9513 638.782 43.932 638.822 44.1924C638.871 44.4447 639.001 44.7539 639.213 45.1201C639.433 45.4863 639.542 45.7874 639.542 46.0234C639.542 46.2594 639.429 46.4629 639.201 46.6338C638.981 46.7965 638.66 46.8779 638.236 46.8779C637.813 46.8779 637.353 46.7762 636.857 46.5728C636.361 46.3612 635.998 46.2554 635.771 46.2554C635.746 46.2554 635.339 46.4019 634.55 46.6948C633.76 46.9797 633.093 47.1221 632.548 47.1221H632.279C631.368 47.1221 630.591 46.8332 629.948 46.2554C629.313 45.6776 628.996 44.8556 628.996 43.7896C628.996 42.7235 629.346 41.8934 630.045 41.2993C630.745 40.6971 631.596 40.2861 632.597 40.0664C632.898 40.0013 633.398 39.9159 634.098 39.8101C634.798 39.7043 635.274 39.5944 635.526 39.4805C635.966 39.277 636.186 38.8945 636.186 38.333C636.186 37.7633 635.998 37.3198 635.624 37.0024C635.25 36.6769 634.802 36.5142 634.281 36.5142C633.769 36.5142 633.093 36.7054 632.255 37.0879C631.417 37.4704 630.884 37.6616 630.656 37.6616ZM650.968 39.9565C650.968 38.8742 650.74 38.0278 650.285 37.4175C649.837 36.799 649.3 36.4897 648.673 36.4897H648.319C647.44 36.4897 646.745 36.8397 646.232 37.5396C645.719 38.2313 645.463 39.2526 645.463 40.6035L645.438 40.8477L645.39 42.1172V42.9717C645.39 43.8587 645.569 44.4854 645.927 44.8516C646.293 45.2096 646.81 45.3887 647.477 45.3887H647.709C648.629 45.3887 649.398 44.9655 650.016 44.1191C650.635 43.2728 650.944 42.2433 650.944 41.0308L650.968 40.7622V39.9565ZM644.328 35.3667L646.037 35.6597C646.216 35.6597 646.635 35.5417 647.294 35.3057C647.953 35.0697 648.6 34.9517 649.235 34.9517C650.521 34.9517 651.562 35.4033 652.36 36.3066C653.157 37.2018 653.556 38.4103 653.556 39.9321V40.2373C653.556 41.2627 653.385 42.2067 653.043 43.0693C652.344 44.8516 651.176 46.0031 649.54 46.5239C649.076 46.6704 648.454 46.7721 647.672 46.8291C646.899 46.8861 646.35 46.9878 646.024 47.1343C645.528 47.3621 645.28 47.7731 645.28 48.3672C645.28 48.6195 645.325 48.9613 645.414 49.3926C645.512 49.8239 645.561 50.2227 645.561 50.5889C645.561 50.9551 645.353 51.3132 644.938 51.6631C644.523 52.0212 644.006 52.2002 643.388 52.2002H643.131C642.399 52.2002 642.033 51.9316 642.033 51.3945V51.1626C642.033 51.0487 642.11 50.7272 642.265 50.1982C642.427 49.6774 642.541 49.1159 642.606 48.5137C642.672 47.9196 642.777 46.4344 642.924 44.0581C643.07 41.6818 643.144 40.0583 643.144 39.1875C643.144 38.3086 643.087 37.5721 642.973 36.978C642.867 36.384 642.814 36.0625 642.814 36.0137C642.814 35.5824 643.319 35.3667 644.328 35.3667ZM664.665 39.9565C664.665 38.8742 664.437 38.0278 663.981 37.4175C663.533 36.799 662.996 36.4897 662.37 36.4897H662.016C661.137 36.4897 660.441 36.8397 659.928 37.5396C659.416 38.2313 659.159 39.2526 659.159 40.6035L659.135 40.8477L659.086 42.1172V42.9717C659.086 43.8587 659.265 44.4854 659.623 44.8516C659.989 45.2096 660.506 45.3887 661.173 45.3887H661.405C662.325 45.3887 663.094 44.9655 663.712 44.1191C664.331 43.2728 664.64 42.2433 664.64 41.0308L664.665 40.7622V39.9565ZM658.024 35.3667L659.733 35.6597C659.912 35.6597 660.331 35.5417 660.99 35.3057C661.649 35.0697 662.296 34.9517 662.931 34.9517C664.217 34.9517 665.259 35.4033 666.056 36.3066C666.854 37.2018 667.252 38.4103 667.252 39.9321V40.2373C667.252 41.2627 667.082 42.2067 666.74 43.0693C666.04 44.8516 664.872 46.0031 663.236 46.5239C662.772 46.6704 662.15 46.7721 661.369 46.8291C660.596 46.8861 660.046 46.9878 659.721 47.1343C659.224 47.3621 658.976 47.7731 658.976 48.3672C658.976 48.6195 659.021 48.9613 659.11 49.3926C659.208 49.8239 659.257 50.2227 659.257 50.5889C659.257 50.9551 659.049 51.3132 658.634 51.6631C658.219 52.0212 657.702 52.2002 657.084 52.2002H656.828C656.095 52.2002 655.729 51.9316 655.729 51.3945V51.1626C655.729 51.0487 655.806 50.7272 655.961 50.1982C656.124 49.6774 656.238 49.1159 656.303 48.5137C656.368 47.9196 656.474 46.4344 656.62 44.0581C656.767 41.6818 656.84 40.0583 656.84 39.1875C656.84 38.3086 656.783 37.5721 656.669 36.978C656.563 36.384 656.51 36.0625 656.51 36.0137C656.51 35.5824 657.015 35.3667 658.024 35.3667ZM670.561 40.6523V39.7124C670.561 38.5812 670.5 37.7552 670.377 37.2344C670.255 36.7054 670.194 36.3351 670.194 36.1235C670.194 35.6271 670.556 35.3789 671.281 35.3789C672.005 35.3789 672.53 35.5132 672.855 35.7817C672.945 35.855 673.059 35.9974 673.197 36.209C673.344 36.4206 673.474 36.5264 673.588 36.5264C673.612 36.5264 673.966 36.3188 674.65 35.9038C675.333 35.4888 675.919 35.2812 676.408 35.2812H676.591C676.99 35.2812 677.307 35.3789 677.543 35.5742C677.779 35.7614 677.897 35.9933 677.897 36.27V36.4287C677.897 36.7624 677.779 37.0024 677.543 37.1489C677.315 37.2954 676.949 37.3687 676.444 37.3687C675.297 37.3687 674.459 37.7715 673.93 38.5771C673.409 39.3828 673.148 40.807 673.148 42.8496C673.148 43.1426 673.197 43.5942 673.295 44.2046C673.401 44.8149 673.454 45.2747 673.454 45.584C673.454 45.8932 673.287 46.1903 672.953 46.4751C672.619 46.7599 672.196 46.9023 671.684 46.9023H671.269C670.821 46.9023 670.475 46.7965 670.231 46.585C669.995 46.3652 669.877 46.1007 669.877 45.7915C669.877 45.4741 669.934 45.1527 670.048 44.8271C670.357 43.9482 670.512 42.9798 670.512 41.9219C670.544 41.3359 670.561 40.9128 670.561 40.6523ZM681.852 41.8486C681.852 42.9147 682.096 43.8018 682.584 44.5098C683.073 45.2178 683.671 45.5718 684.379 45.5718H684.745C685.583 45.5718 686.291 45.1486 686.869 44.3022C687.455 43.4559 687.748 42.3288 687.748 40.9209V40.1152C687.748 39.0247 687.508 38.1336 687.028 37.4419C686.556 36.742 685.945 36.3921 685.197 36.3921H684.953C684.082 36.3921 683.349 36.8234 682.755 37.686C682.169 38.5487 681.876 39.5781 681.876 40.7744L681.852 41.0552V41.8486ZM684.611 47.2319H684.22C682.796 47.2319 681.636 46.7355 680.741 45.7427C679.846 44.7498 679.398 43.342 679.398 41.519L679.411 41.3115C679.411 39.3096 679.94 37.7308 680.998 36.5752C681.551 35.9648 682.182 35.5173 682.89 35.2324C683.606 34.9395 684.285 34.793 684.928 34.793H685.526C686.243 34.793 686.93 34.9517 687.589 35.269C689.477 36.1805 690.421 37.8976 690.421 40.4204V40.6157C690.413 41.4377 690.279 42.2718 690.019 43.1182C689.498 44.7865 688.497 45.9665 687.016 46.6582C686.194 47.0407 685.392 47.2319 684.611 47.2319ZM696.854 45.4619H697.172C697.839 45.4619 698.425 45.2381 698.93 44.7905C699.442 44.3348 699.699 43.8099 699.699 43.2158L699.723 43.0571V42.8984L699.748 42.52V41.8242C699.748 41.3522 699.507 41.1162 699.027 41.1162H698.478L698.393 41.1284L697.917 41.165C697.689 41.1976 697.526 41.2139 697.428 41.2139C696.769 41.2139 696.159 41.4621 695.597 41.9585C695.207 42.3084 695.011 42.8049 695.011 43.4478V43.6919C695.011 44.2371 695.186 44.6685 695.536 44.9858C695.894 45.3032 696.334 45.4619 696.854 45.4619ZM694.132 37.6616C693.587 37.6616 693.314 37.3117 693.314 36.6118C693.314 36.091 693.754 35.6393 694.633 35.2568C695.52 34.8662 696.439 34.6709 697.392 34.6709H698.002C698.824 34.6709 699.548 34.8255 700.175 35.1348C700.801 35.4359 701.278 35.8468 701.603 36.3677C701.937 36.8885 702.14 37.568 702.213 38.4062C702.23 38.6016 702.238 39.5496 702.238 41.2505C702.238 42.9513 702.258 43.932 702.299 44.1924C702.348 44.4447 702.478 44.7539 702.689 45.1201C702.909 45.4863 703.019 45.7874 703.019 46.0234C703.019 46.2594 702.905 46.4629 702.677 46.6338C702.458 46.7965 702.136 46.8779 701.713 46.8779C701.29 46.8779 700.83 46.7762 700.333 46.5728C699.837 46.3612 699.475 46.2554 699.247 46.2554C699.223 46.2554 698.816 46.4019 698.026 46.6948C697.237 46.9797 696.57 47.1221 696.024 47.1221H695.756C694.844 47.1221 694.067 46.8332 693.424 46.2554C692.79 45.6776 692.472 44.8556 692.472 43.7896C692.472 42.7235 692.822 41.8934 693.522 41.2993C694.222 40.6971 695.072 40.2861 696.073 40.0664C696.374 40.0013 696.875 39.9159 697.575 39.8101C698.275 39.7043 698.751 39.5944 699.003 39.4805C699.442 39.277 699.662 38.8945 699.662 38.333C699.662 37.7633 699.475 37.3198 699.101 37.0024C698.726 36.6769 698.279 36.5142 697.758 36.5142C697.245 36.5142 696.57 36.7054 695.731 37.0879C694.893 37.4704 694.36 37.6616 694.132 37.6616ZM705.485 41.9219V41.3604C705.485 40.335 705.644 39.4276 705.961 38.6382C706.571 37.1082 707.507 36.0503 708.769 35.4644C709.59 35.0737 710.441 34.8784 711.32 34.8784H711.588C712.557 34.8784 713.358 35.0697 713.993 35.4521C714.628 35.8346 714.945 36.3026 714.945 36.856C714.945 37.4989 714.636 37.8203 714.018 37.8203C713.904 37.8203 713.505 37.6413 712.821 37.2832C712.138 36.9333 711.576 36.7583 711.137 36.7583C711.129 36.7583 711.12 36.7583 711.112 36.7583C710.152 36.7583 709.399 37.1733 708.854 38.0034C708.317 38.8335 708.048 39.9159 708.048 41.2505C708.048 42.5851 708.333 43.5739 708.903 44.2168C709.481 44.8597 710.282 45.1812 711.308 45.1812C711.731 45.1812 712.313 45.0632 713.053 44.8271C713.794 44.583 714.245 44.4609 714.408 44.4609C714.742 44.4609 714.909 44.6359 714.909 44.9858C714.909 45.4578 714.441 45.9339 713.505 46.4141C712.569 46.8942 711.649 47.1343 710.746 47.1343C708.329 47.1343 706.73 46.1821 705.949 44.2778C705.639 43.521 705.485 42.7357 705.485 41.9219ZM718.998 46.7681C718.038 46.7681 717.558 46.4263 717.558 45.7427C717.558 45.4334 717.631 44.9736 717.777 44.3633C717.932 43.7529 718.034 43.1914 718.083 42.6787C718.131 42.1579 718.217 40.4814 718.339 37.6494C718.469 34.8174 718.534 33.0921 718.534 32.4736V31.0332L718.461 30.0078C718.461 29.6253 718.811 29.4341 719.511 29.4341C720.219 29.4341 720.679 29.7067 720.89 30.252C720.996 30.5286 721.049 31.432 721.049 32.9619C721.049 34.4919 721.077 35.3626 721.134 35.5742C721.199 35.7858 721.366 35.8916 721.635 35.8916C721.667 35.8916 721.822 35.8428 722.099 35.7451L722.367 35.6475C723.238 35.3057 723.991 35.1348 724.625 35.1348C725.96 35.1348 726.908 35.6556 727.47 36.6973C727.844 37.389 728.031 38.8945 728.031 41.2139C728.031 42.3044 728.039 42.9513 728.056 43.1548C728.072 43.3582 728.125 43.7285 728.214 44.2656C728.304 44.7946 728.349 45.0876 728.349 45.1445C728.349 45.6247 728.239 45.9827 728.019 46.2188C727.807 46.4466 727.421 46.5605 726.859 46.5605C726.306 46.5605 725.944 46.3896 725.773 46.0479C725.683 45.8688 725.639 45.3521 725.639 44.4976L725.602 42.3491L725.639 40.4082C725.639 38.2354 725.004 37.1489 723.734 37.1489C722.611 37.1489 721.81 37.6209 721.33 38.5649C720.849 39.509 720.609 41.2586 720.609 43.814L720.646 45.1445C720.646 45.6003 720.504 45.9868 720.219 46.3042C719.934 46.6134 719.527 46.7681 718.998 46.7681ZM733.219 47.1953H732.841C732.434 47.1953 732.117 47.1017 731.889 46.9146C731.669 46.7274 731.559 46.4792 731.559 46.1699C731.543 46.1048 731.535 46.0519 731.535 46.0112L731.51 45.8037V45.584L731.522 45.5352V45.4253C731.539 45.3602 731.547 45.3073 731.547 45.2666C731.547 44.9004 731.669 44.6156 731.913 44.4121C732.165 44.2005 732.442 44.0947 732.743 44.0947L733 44.0581H733.329C734.216 44.0581 734.66 44.522 734.66 45.4497V45.6206L734.611 46.0356C734.611 46.41 734.468 46.6989 734.184 46.9023C733.907 47.0977 733.585 47.1953 733.219 47.1953Z" fill="black"/>
</svg>
