<svg width="758" height="87" viewBox="0 0 758 87" fill="none" xmlns="http://www.w3.org/2000/svg">
<rect width="758" height="87" rx="18" fill="#D9D9D9"/>
<path d="M29.058 47.1172C28.708 47.1172 28.533 46.9422 28.533 46.5922L28.512 39.7672C28.512 39.6272 28.54 39.5152 28.596 39.4312C28.652 39.3332 28.729 39.2212 28.827 39.0952L35.463 31.0102V26.7472L28.827 24.1852C28.617 24.1152 28.512 23.9052 28.512 23.5552V19.6492C28.512 19.2992 28.687 19.1242 29.037 19.1242H34.35C34.546 19.1242 34.7 19.1522 34.812 19.2082C34.924 19.2642 35.05 19.3272 35.19 19.3972L42.12 22.4422C42.302 22.5122 42.407 22.6102 42.435 22.7362C42.463 22.8622 42.477 23.0442 42.477 23.2822V32.3542C42.477 32.4942 42.442 32.5992 42.372 32.6692C42.316 32.7252 42.232 32.8302 42.12 32.9842L35.547 40.9852V41.8252H43.065C43.415 41.8252 43.59 42.0002 43.59 42.3502V46.5922C43.59 46.9422 43.415 47.1172 43.065 47.1172H29.058Z" fill="#2ECC71"/>
<path d="M75.7734 24.1421C76.7093 24.1421 77.1772 24.5286 77.1772 25.3018C77.1772 25.3587 77.1325 25.6029 77.043 26.0342C76.9535 26.4655 76.8639 27.7635 76.7744 29.9282C76.6849 32.0848 76.6401 33.7775 76.6401 35.0063C76.6401 36.2271 76.9331 37.2321 77.519 38.0215C78.0968 38.8027 78.9025 39.1934 79.936 39.1934C81.9217 39.1934 83.2401 38.3063 83.8911 36.5322C84.0783 36.0114 84.2655 34.8721 84.4526 33.1143C84.6479 31.3564 84.7456 29.265 84.7456 26.8398C84.7456 26.7422 84.7253 26.5021 84.6846 26.1196L84.5747 25.1675C84.5747 24.8257 84.6724 24.5612 84.8677 24.374C85.063 24.1868 85.4211 24.0933 85.9419 24.0933C86.4709 24.0933 86.8371 24.1665 87.0405 24.313C87.4637 24.6222 87.6753 25.1146 87.6753 25.79C87.6753 25.8307 87.4922 26.437 87.126 27.6089C86.9958 28.0321 86.894 29.0697 86.8208 30.7217C86.7557 32.3737 86.7028 33.5049 86.6621 34.1152C86.54 35.8486 86.2756 37.1548 85.8687 38.0337C85.4618 38.9045 84.7619 39.6125 83.769 40.1577C82.7762 40.6948 81.5596 40.9634 80.1191 40.9634H79.6675C77.6737 40.9634 76.1803 40.3327 75.1875 39.0713C74.7074 38.4609 74.394 37.7692 74.2476 36.9961C74.1011 36.2148 74.0278 35.2627 74.0278 34.1396L74.04 33.688C74.0645 32.7847 74.0889 31.8895 74.1133 31.0024C74.1377 30.1073 74.1499 29.3423 74.1499 28.7075C74.1499 28.0646 74.1051 27.5926 74.0156 27.2915L73.7715 26.6689C73.6657 26.3597 73.6128 26.1359 73.6128 25.9976C73.6128 25.2407 73.8732 24.6873 74.394 24.3374C74.5894 24.2072 75.0492 24.1421 75.7734 24.1421ZM101.225 39.5352C101.225 40.1374 100.7 40.4385 99.6504 40.4385C99.0563 40.4385 98.6576 40.2961 98.4541 40.0112C98.3564 39.8729 98.3076 39.5474 98.3076 39.0347L98.271 38.2534C98.214 37.3989 98.1855 36.5404 98.1855 35.6777C98.1855 33.8141 98.0228 32.5649 97.6973 31.9302C97.3799 31.2873 96.8428 30.9658 96.0859 30.9658C95.5814 30.9658 95.1134 31.1164 94.6821 31.4175C94.259 31.7186 93.9334 32.1377 93.7056 32.6748C93.2336 33.7734 92.9976 35.8039 92.9976 38.7661C92.9976 39.4416 92.8674 39.9176 92.6069 40.1943C92.3547 40.471 92.0291 40.6094 91.6304 40.6094H91.3862C90.4748 40.6094 90.019 40.2472 90.019 39.5229V39.23C90.019 39.1405 90.0679 38.9451 90.1655 38.644L90.3608 38.0825C90.5562 37.4233 90.6538 36.0114 90.6538 33.8467L90.7148 30.2212C90.7148 29.7573 90.9671 29.5254 91.4717 29.5254C91.9762 29.5254 92.4727 29.6922 92.9609 30.0259C93.4574 30.3595 93.7707 30.5264 93.9009 30.5264C94.0392 30.5264 94.2793 30.4328 94.6211 30.2456C95.7686 29.619 96.6882 29.3057 97.3799 29.3057H97.6973C98.9424 29.3057 99.8172 29.8672 100.322 30.9902C100.566 31.5192 100.688 32.6585 100.688 34.4082V34.4937C100.688 34.6401 100.684 34.7866 100.676 34.9331C100.676 35.3319 100.676 35.5394 100.676 35.5557C100.676 35.7103 100.676 35.8608 100.676 36.0073C100.676 36.1213 100.676 36.2311 100.676 36.3369C100.676 36.9635 100.696 37.3908 100.737 37.6187C100.794 37.9279 100.887 38.2493 101.018 38.583C101.156 38.9492 101.225 39.2666 101.225 39.5352ZM105.986 41.8911H105.705C105.298 41.8911 104.952 41.7731 104.667 41.5371C104.391 41.3011 104.252 41.0203 104.252 40.6948C104.252 40.3693 104.35 39.9543 104.545 39.4497C104.749 38.937 104.895 38.3145 104.985 37.582C105.083 36.8415 105.131 35.7591 105.131 34.335C105.131 32.9108 105.062 32.0034 104.924 31.6128C104.899 31.5477 104.785 31.332 104.582 30.9658C104.379 30.5915 104.277 30.2741 104.277 30.0137C104.277 29.7533 104.411 29.4196 104.68 29.0127C104.956 28.6058 105.139 28.3047 105.229 28.1094C106.328 25.79 106.901 24.6019 106.95 24.5449C107.797 23.5602 108.94 23.0679 110.38 23.0679C111.048 23.0679 111.56 23.1818 111.918 23.4097C112.277 23.6375 112.456 23.9346 112.456 24.3008C112.456 24.6589 112.244 24.9193 111.821 25.082C111.707 25.1227 111.556 25.1431 111.369 25.1431C111.231 25.1349 111.072 25.1227 110.893 25.1064C110.47 25.0576 110.161 25.0332 109.965 25.0332C109.436 25.0332 109.005 25.2611 108.671 25.7168C108.346 26.1644 108.183 26.6812 108.183 27.2671C108.183 27.853 108.301 28.2803 108.537 28.5488C108.61 28.6302 108.956 28.8337 109.575 29.1592C110.201 29.4766 110.515 29.798 110.515 30.1235C110.515 30.3026 110.165 30.5793 109.465 30.9536C108.968 31.214 108.602 31.6779 108.366 32.3452C107.854 33.7775 107.597 35.6615 107.597 37.9971L107.829 40.0601C107.829 40.6216 107.662 41.0651 107.329 41.3906C107.003 41.7243 106.556 41.8911 105.986 41.8911ZM113.945 34.6523V33.7124C113.945 32.5812 113.884 31.7552 113.762 31.2344C113.64 30.7054 113.579 30.3351 113.579 30.1235C113.579 29.6271 113.941 29.3789 114.665 29.3789C115.389 29.3789 115.914 29.5132 116.24 29.7817C116.329 29.855 116.443 29.9974 116.582 30.209C116.728 30.4206 116.858 30.5264 116.972 30.5264C116.997 30.5264 117.351 30.3188 118.034 29.9038C118.718 29.4888 119.304 29.2812 119.792 29.2812H119.975C120.374 29.2812 120.691 29.3789 120.927 29.5742C121.163 29.7614 121.281 29.9933 121.281 30.27V30.4287C121.281 30.7624 121.163 31.0024 120.927 31.1489C120.699 31.2954 120.333 31.3687 119.829 31.3687C118.681 31.3687 117.843 31.7715 117.314 32.5771C116.793 33.3828 116.533 34.807 116.533 36.8496C116.533 37.1426 116.582 37.5942 116.679 38.2046C116.785 38.8149 116.838 39.2747 116.838 39.584C116.838 39.8932 116.671 40.1903 116.337 40.4751C116.004 40.7599 115.581 40.9023 115.068 40.9023H114.653C114.205 40.9023 113.859 40.7965 113.615 40.585C113.379 40.3652 113.261 40.1007 113.261 39.7915C113.261 39.4741 113.318 39.1527 113.432 38.8271C113.741 37.9482 113.896 36.9798 113.896 35.9219C113.929 35.3359 113.945 34.9128 113.945 34.6523ZM127.226 25.1309V25.2773C127.226 25.6924 127.104 26.0464 126.86 26.3394C126.624 26.6242 126.258 26.7666 125.761 26.7666H125.566L125.188 26.7178C124.968 26.7178 124.756 26.616 124.553 26.4126C124.349 26.2091 124.248 25.904 124.248 25.4971V25.3506L124.309 24.9111C124.309 24.7402 124.41 24.5286 124.614 24.2764C124.825 24.0241 125.094 23.8979 125.419 23.8979L125.7 23.8613H125.944L126.286 23.9102C126.498 23.9102 126.705 24.016 126.909 24.2275C127.12 24.431 127.226 24.7321 127.226 25.1309ZM126.652 30.2822L126.518 33.5659L126.494 33.8955L126.457 34.8965V35.3726C126.457 36.5444 126.49 37.3135 126.555 37.6797C126.628 38.0459 126.762 38.404 126.958 38.7539C127.153 39.0957 127.25 39.3439 127.25 39.4985V39.6084C127.25 40.0072 127.047 40.3245 126.64 40.5605C126.233 40.7965 125.68 40.9146 124.98 40.9146H124.675C124.268 40.9146 123.959 40.825 123.747 40.646C123.535 40.4588 123.43 40.2594 123.43 40.0479V39.7793C123.43 39.6735 123.523 39.2992 123.71 38.6562C123.898 38.0052 123.991 37.1222 123.991 36.0073C124.016 35.6899 124.028 35.4702 124.028 35.3481L124.064 34.6768L124.089 34.3472C124.13 33.7775 124.15 33.334 124.15 33.0166L124.162 32.5283C124.162 31.918 124.06 31.3768 123.857 30.9048C123.662 30.4328 123.564 30.1398 123.564 30.0259C123.564 29.4399 124.117 29.147 125.224 29.147H125.664C126.079 29.147 126.347 29.2568 126.469 29.4766C126.591 29.6882 126.652 29.9567 126.652 30.2822ZM132.487 33.5781V33.7734C132.487 34.0176 132.711 34.1396 133.159 34.1396H133.452L133.525 34.1274L134.123 34.0786C134.75 33.9891 135.157 33.9443 135.344 33.9443C136.231 33.9443 136.898 33.7775 137.346 33.4438C137.557 33.2811 137.663 32.9922 137.663 32.5771V32.4429C137.663 31.8325 137.46 31.3483 137.053 30.9902C136.654 30.6322 136.174 30.4531 135.612 30.4531H135.527L135.454 30.4653C134.664 30.4653 133.972 30.799 133.378 31.4663C132.784 32.1336 132.487 32.8376 132.487 33.5781ZM135.148 41.1587H134.88C133.326 41.1587 132.089 40.6663 131.169 39.6816C130.249 38.6888 129.79 37.3664 129.79 35.7144V35.1772C129.79 34.3879 129.944 33.5863 130.253 32.7725C130.88 31.1449 131.901 30.0218 133.317 29.4033C134.066 29.0697 134.827 28.9028 135.6 28.9028H136.125C137.191 28.9028 138.09 29.2609 138.823 29.9771C139.563 30.6851 139.934 31.6006 139.934 32.7236V32.9678C139.934 33.7653 139.616 34.3309 138.981 34.6646C138.542 34.9006 137.517 35.1366 135.905 35.3726C134.294 35.6086 133.415 35.751 133.269 35.7998C132.78 35.9707 132.536 36.2962 132.536 36.7764C132.536 37.4437 132.821 38.0133 133.391 38.4854C133.96 38.9574 134.725 39.1934 135.686 39.1934C136.133 39.1934 136.743 39.0713 137.517 38.8271C138.29 38.583 138.737 38.4609 138.859 38.4609C139.274 38.4609 139.482 38.64 139.482 38.998C139.482 39.4782 139.014 39.9583 138.078 40.4385C137.142 40.9186 136.166 41.1587 135.148 41.1587ZM153.789 39.5352C153.789 40.1374 153.264 40.4385 152.214 40.4385C151.62 40.4385 151.221 40.2961 151.018 40.0112C150.92 39.8729 150.871 39.5474 150.871 39.0347L150.834 38.2534C150.778 37.3989 150.749 36.5404 150.749 35.6777C150.749 33.8141 150.586 32.5649 150.261 31.9302C149.943 31.2873 149.406 30.9658 148.649 30.9658C148.145 30.9658 147.677 31.1164 147.246 31.4175C146.822 31.7186 146.497 32.1377 146.269 32.6748C145.797 33.7734 145.561 35.8039 145.561 38.7661C145.561 39.4416 145.431 39.9176 145.17 40.1943C144.918 40.471 144.593 40.6094 144.194 40.6094H143.95C143.038 40.6094 142.583 40.2472 142.583 39.5229V39.23C142.583 39.1405 142.631 38.9451 142.729 38.644L142.924 38.0825C143.12 37.4233 143.217 36.0114 143.217 33.8467L143.278 30.2212C143.278 29.7573 143.531 29.5254 144.035 29.5254C144.54 29.5254 145.036 29.6922 145.524 30.0259C146.021 30.3595 146.334 30.5264 146.464 30.5264C146.603 30.5264 146.843 30.4328 147.185 30.2456C148.332 29.619 149.252 29.3057 149.943 29.3057H150.261C151.506 29.3057 152.381 29.8672 152.885 30.9902C153.129 31.5192 153.251 32.6585 153.251 34.4082V34.4937C153.251 34.6401 153.247 34.7866 153.239 34.9331C153.239 35.3319 153.239 35.5394 153.239 35.5557C153.239 35.7103 153.239 35.8608 153.239 36.0073C153.239 36.1213 153.239 36.2311 153.239 36.3369C153.239 36.9635 153.26 37.3908 153.3 37.6187C153.357 37.9279 153.451 38.2493 153.581 38.583C153.719 38.9492 153.789 39.2666 153.789 39.5352ZM158.732 35.0796V36.0073C158.732 36.9757 158.952 37.7855 159.392 38.4365C159.839 39.0794 160.364 39.4009 160.966 39.4009H161.308C162.236 39.4009 162.952 39.0306 163.457 38.29C163.969 37.5495 164.226 36.4468 164.226 34.9819C164.242 34.8029 164.25 34.6727 164.25 34.5913L164.274 34.3472L164.287 33.8345V32.9678C164.287 31.3076 163.623 30.4775 162.297 30.4775H161.821C160.958 30.4775 160.226 30.9129 159.624 31.7837C159.029 32.6545 158.732 33.7531 158.732 35.0796ZM156.389 35.6411C156.389 34.7948 156.539 33.9321 156.84 33.0532C157.141 32.1743 157.565 31.4256 158.11 30.8071C158.655 30.1805 159.27 29.7288 159.953 29.4521C160.637 29.1673 161.446 29.0249 162.382 29.0249C163.326 29.0249 163.912 28.854 164.14 28.5122C164.368 28.1623 164.482 27.3932 164.482 26.2051C164.482 25.9854 164.445 25.6924 164.372 25.3262C164.299 24.96 164.262 24.7484 164.262 24.6914C164.262 24.3415 164.413 24.0241 164.714 23.7393C165.015 23.4463 165.41 23.2998 165.898 23.2998H166.142C166.525 23.2998 166.809 23.3893 166.997 23.5684C167.184 23.7474 167.277 24.1217 167.277 24.6914V25.8267L167.253 26.4004C167.245 26.5957 167.241 26.8805 167.241 27.2549C167.241 27.6211 167.18 28.8011 167.058 30.7949C166.936 32.7887 166.875 34.16 166.875 34.9087L166.862 35.2017C166.854 35.397 166.85 35.5841 166.85 35.7632L166.838 36.0439C166.838 36.0439 166.838 36.3613 166.838 36.9961C166.838 37.818 166.903 38.4365 167.033 38.8516C167.163 39.2666 167.229 39.5636 167.229 39.7427C167.229 39.9217 167.127 40.1089 166.923 40.3042C166.72 40.4995 166.403 40.5972 165.971 40.5972C165.548 40.5972 165.137 40.528 164.738 40.3896C164.34 40.2432 164.047 40.1699 163.859 40.1699C163.672 40.1699 163.428 40.2269 163.127 40.3408C162.215 40.6745 161.381 40.8413 160.625 40.8413C160.608 40.8413 160.592 40.8413 160.576 40.8413H160.295C159.066 40.8413 158.106 40.3937 157.414 39.4985C156.73 38.5952 156.389 37.4111 156.389 35.9463V35.6411ZM171.074 24.0322C171.074 23.4382 171.631 23.1411 172.746 23.1411H172.966C173.43 23.1411 173.747 23.255 173.918 23.4829C174.089 23.7026 174.174 24.134 174.174 24.7769L174.077 26.5957C174.052 26.8805 174.04 27.0352 174.04 27.0596L174.016 27.5234C173.999 27.8245 173.983 28.1297 173.967 28.439L173.93 28.9028L173.894 29.5986C173.763 32.0726 173.698 33.8996 173.698 35.0796C173.698 36.2515 173.751 37.0938 173.857 37.6064C173.963 38.1191 174.13 38.5545 174.357 38.9126C174.585 39.2707 174.699 39.5067 174.699 39.6206V39.7671C174.699 40.1252 174.52 40.41 174.162 40.6216C173.812 40.8332 173.336 40.939 172.734 40.939H172.099C171.725 40.939 171.395 40.8332 171.11 40.6216C170.834 40.4019 170.695 40.1536 170.695 39.877V39.5474L170.769 39.0347C170.866 38.3267 170.923 37.7977 170.939 37.4478C170.964 37.0897 171 36.5973 171.049 35.9707C171.098 35.3359 171.175 33.9891 171.281 31.9302C171.395 29.8631 171.452 28.7523 171.452 28.5977L171.501 27.6821L171.525 26.7788C171.525 25.9162 171.448 25.3018 171.293 24.9355C171.147 24.5612 171.074 24.2601 171.074 24.0322ZM181.621 40.9512C181.621 40.528 181.332 39.7874 180.754 38.7295C180.176 37.6634 179.692 36.6706 179.301 35.751C177.967 32.6178 177.299 30.8071 177.299 30.3188C177.299 30.0991 177.425 29.8997 177.678 29.7207C177.938 29.5417 178.369 29.4521 178.972 29.4521C179.574 29.4521 179.997 29.7085 180.241 30.2212C180.266 30.2782 180.351 30.6322 180.498 31.2832C181.604 35.3278 182.296 37.4478 182.573 37.6431C182.996 37.6431 183.574 36.6543 184.306 34.6768C184.803 33.334 185.108 32.2069 185.222 31.2954C185.344 30.384 185.441 29.859 185.515 29.7207C185.743 29.2975 186.215 29.0859 186.931 29.0859C187.655 29.0859 188.017 29.3667 188.017 29.9282C188.017 30.327 187.871 30.86 187.578 31.5273C187.285 32.1947 187.008 32.9189 186.748 33.7002C185.258 38.1598 184.18 40.9756 183.513 42.1475C182.845 43.3275 182.141 44.2552 181.401 44.9307C180.66 45.6143 179.916 45.9561 179.167 45.9561C178.426 45.9561 178.056 45.7445 178.056 45.3213C178.056 44.9469 178.435 44.6051 179.191 44.2959C179.956 43.9867 180.489 43.6286 180.791 43.2217C181.344 42.4811 181.621 41.7243 181.621 40.9512ZM190.104 39.3643C190.104 38.9574 190.231 38.64 190.483 38.4121C190.735 38.1842 191.065 38.0703 191.472 38.0703H191.923C192.338 38.0703 192.644 38.168 192.839 38.3633C193.034 38.5586 193.132 38.937 193.132 39.4985V39.6816C193.132 40.7233 192.851 41.6999 192.29 42.6113C191.565 43.7913 190.914 44.3813 190.336 44.3813H190.251C189.909 44.3813 189.738 44.2349 189.738 43.9419C189.738 43.8361 189.913 43.5187 190.263 42.9897C190.613 42.4689 190.788 42.0783 190.788 41.8179C190.788 41.5656 190.678 41.2197 190.458 40.7803C190.239 40.3408 190.129 40.0112 190.129 39.7915L190.104 39.6206V39.3643ZM207.109 25.1309V25.2773C207.109 25.6924 206.987 26.0464 206.743 26.3394C206.507 26.6242 206.14 26.7666 205.644 26.7666H205.449L205.07 26.7178C204.851 26.7178 204.639 26.616 204.436 26.4126C204.232 26.2091 204.13 25.904 204.13 25.4971V25.3506L204.191 24.9111C204.191 24.7402 204.293 24.5286 204.497 24.2764C204.708 24.0241 204.977 23.8979 205.302 23.8979L205.583 23.8613H205.827L206.169 23.9102C206.381 23.9102 206.588 24.016 206.792 24.2275C207.003 24.431 207.109 24.7321 207.109 25.1309ZM206.535 30.2822L206.401 33.5659L206.376 33.8955L206.34 34.8965V35.3726C206.34 36.5444 206.372 37.3135 206.438 37.6797C206.511 38.0459 206.645 38.404 206.84 38.7539C207.036 39.0957 207.133 39.3439 207.133 39.4985V39.6084C207.133 40.0072 206.93 40.3245 206.523 40.5605C206.116 40.7965 205.563 40.9146 204.863 40.9146H204.558C204.151 40.9146 203.841 40.825 203.63 40.646C203.418 40.4588 203.312 40.2594 203.312 40.0479V39.7793C203.312 39.6735 203.406 39.2992 203.593 38.6562C203.78 38.0052 203.874 37.1222 203.874 36.0073C203.898 35.6899 203.911 35.4702 203.911 35.3481L203.947 34.6768L203.972 34.3472C204.012 33.7775 204.033 33.334 204.033 33.0166L204.045 32.5283C204.045 31.918 203.943 31.3768 203.74 30.9048C203.544 30.4328 203.447 30.1398 203.447 30.0259C203.447 29.4399 204 29.147 205.107 29.147H205.546C205.961 29.147 206.23 29.2568 206.352 29.4766C206.474 29.6882 206.535 29.9567 206.535 30.2822ZM215.227 29.7085C215.853 29.4725 216.496 29.3545 217.155 29.3545C217.814 29.3545 218.498 29.5498 219.206 29.9404C219.922 30.3311 220.313 30.5264 220.378 30.5264C220.443 30.5264 220.882 30.327 221.696 29.9282C222.51 29.5295 223.243 29.3301 223.894 29.3301C224.553 29.3301 225.094 29.4684 225.517 29.7451C225.948 30.0137 226.274 30.3351 226.494 30.7095C226.909 31.4256 227.116 33.0166 227.116 35.4824C227.116 36.5892 227.124 37.224 227.141 37.3867C227.165 37.5413 227.222 37.8221 227.312 38.229C227.409 38.6278 227.458 38.9574 227.458 39.2178C227.458 39.4701 227.352 39.7345 227.141 40.0112C226.929 40.2879 226.648 40.4263 226.298 40.4263C225.607 40.4263 225.196 40.1455 225.065 39.584C224.968 39.1771 224.854 37.9889 224.724 36.0195C224.602 34.0501 224.467 32.8945 224.321 32.5527C224.028 31.8366 223.405 31.4785 222.453 31.4785C221.843 31.4785 221.367 31.861 221.025 32.626C220.528 33.7246 220.28 35.2871 220.28 37.3135L220.402 39.0713C220.402 39.6898 220.174 40.1577 219.719 40.4751C219.426 40.6785 219.035 40.7803 218.547 40.7803C218.067 40.7803 217.749 40.7314 217.595 40.6338C217.326 40.471 217.192 40.1252 217.192 39.5962C217.192 39.4985 217.269 39.0998 217.424 38.3999C217.587 37.6919 217.668 36.5444 217.668 34.9575C217.668 33.3625 217.55 32.3493 217.314 31.918C217.078 31.4785 216.667 31.2588 216.081 31.2588C215.495 31.2588 214.974 31.4582 214.519 31.8569C214.071 32.2557 213.741 32.6911 213.53 33.1631C213.326 33.6351 213.143 34.7581 212.98 36.5322C212.826 38.3063 212.716 39.3236 212.651 39.584C212.537 40.0316 212.207 40.2554 211.662 40.2554C211.125 40.2554 210.755 40.0967 210.551 39.7793C210.356 39.4538 210.258 39.0591 210.258 38.5952L210.319 38.168L210.551 37.3257C210.649 36.9351 210.706 36.4793 210.722 35.9585C210.844 32.7277 210.938 30.8844 211.003 30.4287C211.068 29.973 211.361 29.7451 211.882 29.7451L213.701 30.0503C214.091 30.0503 214.6 29.9364 215.227 29.7085ZM239.055 33.9565C239.055 32.8742 238.827 32.0278 238.371 31.4175C237.924 30.799 237.386 30.4897 236.76 30.4897H236.406C235.527 30.4897 234.831 30.8397 234.318 31.5396C233.806 32.2313 233.549 33.2526 233.549 34.6035L233.525 34.8477L233.476 36.1172V36.9717C233.476 37.8587 233.655 38.4854 234.013 38.8516C234.379 39.2096 234.896 39.3887 235.563 39.3887H235.795C236.715 39.3887 237.484 38.9655 238.103 38.1191C238.721 37.2728 239.03 36.2433 239.03 35.0308L239.055 34.7622V33.9565ZM232.414 29.3667L234.123 29.6597C234.302 29.6597 234.721 29.5417 235.38 29.3057C236.04 29.0697 236.687 28.9517 237.321 28.9517C238.607 28.9517 239.649 29.4033 240.446 30.3066C241.244 31.2018 241.643 32.4103 241.643 33.9321V34.2373C241.643 35.2627 241.472 36.2067 241.13 37.0693C240.43 38.8516 239.262 40.0031 237.626 40.5239C237.163 40.6704 236.54 40.7721 235.759 40.8291C234.986 40.8861 234.436 40.9878 234.111 41.1343C233.614 41.3621 233.366 41.7731 233.366 42.3672C233.366 42.6195 233.411 42.9613 233.5 43.3926C233.598 43.8239 233.647 44.2227 233.647 44.5889C233.647 44.9551 233.439 45.3132 233.024 45.6631C232.609 46.0212 232.093 46.2002 231.474 46.2002H231.218C230.485 46.2002 230.119 45.9316 230.119 45.3945V45.1626C230.119 45.0487 230.196 44.7272 230.351 44.1982C230.514 43.6774 230.628 43.1159 230.693 42.5137C230.758 41.9196 230.864 40.4344 231.01 38.0581C231.157 35.6818 231.23 34.0583 231.23 33.1875C231.23 32.3086 231.173 31.5721 231.059 30.978C230.953 30.384 230.9 30.0625 230.9 30.0137C230.9 29.5824 231.405 29.3667 232.414 29.3667ZM248.076 39.4619H248.393C249.06 39.4619 249.646 39.2381 250.151 38.7905C250.664 38.3348 250.92 37.8099 250.92 37.2158L250.944 37.0571V36.8984L250.969 36.52V35.8242C250.969 35.3522 250.729 35.1162 250.249 35.1162H249.699L249.614 35.1284L249.138 35.165C248.91 35.1976 248.747 35.2139 248.649 35.2139C247.99 35.2139 247.38 35.4621 246.818 35.9585C246.428 36.3084 246.232 36.8049 246.232 37.4478V37.6919C246.232 38.2371 246.407 38.6685 246.757 38.9858C247.115 39.3032 247.555 39.4619 248.076 39.4619ZM245.354 31.6616C244.808 31.6616 244.536 31.3117 244.536 30.6118C244.536 30.091 244.975 29.6393 245.854 29.2568C246.741 28.8662 247.661 28.6709 248.613 28.6709H249.223C250.045 28.6709 250.769 28.8255 251.396 29.1348C252.023 29.4359 252.499 29.8468 252.824 30.3677C253.158 30.8885 253.361 31.568 253.435 32.4062C253.451 32.6016 253.459 33.5496 253.459 35.2505C253.459 36.9513 253.479 37.932 253.52 38.1924C253.569 38.4447 253.699 38.7539 253.911 39.1201C254.13 39.4863 254.24 39.7874 254.24 40.0234C254.24 40.2594 254.126 40.4629 253.898 40.6338C253.679 40.7965 253.357 40.8779 252.934 40.8779C252.511 40.8779 252.051 40.7762 251.555 40.5728C251.058 40.3612 250.696 40.2554 250.468 40.2554C250.444 40.2554 250.037 40.4019 249.248 40.6948C248.458 40.9797 247.791 41.1221 247.246 41.1221H246.977C246.066 41.1221 245.288 40.8332 244.646 40.2554C244.011 39.6776 243.693 38.8556 243.693 37.7896C243.693 36.7235 244.043 35.8934 244.743 35.2993C245.443 34.6971 246.293 34.2861 247.294 34.0664C247.596 34.0013 248.096 33.9159 248.796 33.8101C249.496 33.7043 249.972 33.5944 250.224 33.4805C250.664 33.277 250.883 32.8945 250.883 32.333C250.883 31.7633 250.696 31.3198 250.322 31.0024C249.947 30.6769 249.5 30.5142 248.979 30.5142C248.466 30.5142 247.791 30.7054 246.953 31.0879C246.114 31.4704 245.581 31.6616 245.354 31.6616ZM263.42 39.6938C263.42 40.0194 263.221 40.3123 262.822 40.5728C262.431 40.825 261.898 40.9512 261.223 40.9512C259.961 40.9512 259.074 40.4832 258.562 39.5474C258.244 38.9614 258.085 37.5902 258.085 35.4336C258.085 33.277 258.049 32.0238 257.976 31.6738C257.902 31.3239 257.699 30.9821 257.365 30.6484C257.032 30.3148 256.865 30.0584 256.865 29.8794C256.865 29.8143 257.259 29.387 258.049 28.5977C258.22 28.4268 258.391 28.0483 258.562 27.4624C258.741 26.8765 258.867 26.4899 258.94 26.3027C259.184 25.7168 259.506 25.4238 259.904 25.4238H260.1C260.45 25.4238 260.698 25.5581 260.844 25.8267C260.901 25.9325 260.987 26.3149 261.101 26.9741C261.223 27.6252 261.361 28.0443 261.516 28.2314C261.67 28.4186 262.057 28.6261 262.675 28.854C263.302 29.0737 263.615 29.3097 263.615 29.562V29.6963C263.615 30.0218 263.257 30.2985 262.541 30.5264C261.833 30.7461 261.377 31.1001 261.174 31.5884C260.775 32.5731 260.576 34.1763 260.576 36.3979C260.576 37.4396 260.755 38.1476 261.113 38.522C261.333 38.7498 261.772 38.9085 262.431 38.998C263.09 39.0876 263.42 39.3195 263.42 39.6938ZM270.195 25.1309V25.2773C270.195 25.6924 270.073 26.0464 269.829 26.3394C269.593 26.6242 269.226 26.7666 268.73 26.7666H268.535L268.156 26.7178C267.937 26.7178 267.725 26.616 267.521 26.4126C267.318 26.2091 267.216 25.904 267.216 25.4971V25.3506L267.277 24.9111C267.277 24.7402 267.379 24.5286 267.583 24.2764C267.794 24.0241 268.063 23.8979 268.388 23.8979L268.669 23.8613H268.913L269.255 23.9102C269.466 23.9102 269.674 24.016 269.877 24.2275C270.089 24.431 270.195 24.7321 270.195 25.1309ZM269.621 30.2822L269.487 33.5659L269.462 33.8955L269.426 34.8965V35.3726C269.426 36.5444 269.458 37.3135 269.523 37.6797C269.597 38.0459 269.731 38.404 269.926 38.7539C270.122 39.0957 270.219 39.3439 270.219 39.4985V39.6084C270.219 40.0072 270.016 40.3245 269.609 40.5605C269.202 40.7965 268.649 40.9146 267.949 40.9146H267.644C267.237 40.9146 266.927 40.825 266.716 40.646C266.504 40.4588 266.398 40.2594 266.398 40.0479V39.7793C266.398 39.6735 266.492 39.2992 266.679 38.6562C266.866 38.0052 266.96 37.1222 266.96 36.0073C266.984 35.6899 266.997 35.4702 266.997 35.3481L267.033 34.6768L267.058 34.3472C267.098 33.7775 267.119 33.334 267.119 33.0166L267.131 32.5283C267.131 31.918 267.029 31.3768 266.826 30.9048C266.63 30.4328 266.533 30.1398 266.533 30.0259C266.533 29.4399 267.086 29.147 268.193 29.147H268.632C269.047 29.147 269.316 29.2568 269.438 29.4766C269.56 29.6882 269.621 29.9567 269.621 30.2822ZM275.456 33.5781V33.7734C275.456 34.0176 275.68 34.1396 276.127 34.1396H276.42L276.494 34.1274L277.092 34.0786C277.718 33.9891 278.125 33.9443 278.312 33.9443C279.2 33.9443 279.867 33.7775 280.314 33.4438C280.526 33.2811 280.632 32.9922 280.632 32.5771V32.4429C280.632 31.8325 280.428 31.3483 280.021 30.9902C279.623 30.6322 279.143 30.4531 278.581 30.4531H278.496L278.422 30.4653C277.633 30.4653 276.941 30.799 276.347 31.4663C275.753 32.1336 275.456 32.8376 275.456 33.5781ZM278.117 41.1587H277.849C276.294 41.1587 275.057 40.6663 274.138 39.6816C273.218 38.6888 272.758 37.3664 272.758 35.7144V35.1772C272.758 34.3879 272.913 33.5863 273.222 32.7725C273.849 31.1449 274.87 30.0218 276.286 29.4033C277.035 29.0697 277.796 28.9028 278.569 28.9028H279.094C280.16 28.9028 281.059 29.2609 281.792 29.9771C282.532 30.6851 282.902 31.6006 282.902 32.7236V32.9678C282.902 33.7653 282.585 34.3309 281.95 34.6646C281.511 34.9006 280.485 35.1366 278.874 35.3726C277.263 35.6086 276.384 35.751 276.237 35.7998C275.749 35.9707 275.505 36.2962 275.505 36.7764C275.505 37.4437 275.79 38.0133 276.359 38.4854C276.929 38.9574 277.694 39.1934 278.654 39.1934C279.102 39.1934 279.712 39.0713 280.485 38.8271C281.258 38.583 281.706 38.4609 281.828 38.4609C282.243 38.4609 282.451 38.64 282.451 38.998C282.451 39.4782 281.983 39.9583 281.047 40.4385C280.111 40.9186 279.134 41.1587 278.117 41.1587ZM296.757 39.5352C296.757 40.1374 296.232 40.4385 295.183 40.4385C294.589 40.4385 294.19 40.2961 293.986 40.0112C293.889 39.8729 293.84 39.5474 293.84 39.0347L293.803 38.2534C293.746 37.3989 293.718 36.5404 293.718 35.6777C293.718 33.8141 293.555 32.5649 293.229 31.9302C292.912 31.2873 292.375 30.9658 291.618 30.9658C291.114 30.9658 290.646 31.1164 290.214 31.4175C289.791 31.7186 289.466 32.1377 289.238 32.6748C288.766 33.7734 288.53 35.8039 288.53 38.7661C288.53 39.4416 288.4 39.9176 288.139 40.1943C287.887 40.471 287.561 40.6094 287.163 40.6094H286.918C286.007 40.6094 285.551 40.2472 285.551 39.5229V39.23C285.551 39.1405 285.6 38.9451 285.698 38.644L285.893 38.0825C286.088 37.4233 286.186 36.0114 286.186 33.8467L286.247 30.2212C286.247 29.7573 286.499 29.5254 287.004 29.5254C287.508 29.5254 288.005 29.6922 288.493 30.0259C288.99 30.3595 289.303 30.5264 289.433 30.5264C289.571 30.5264 289.812 30.4328 290.153 30.2456C291.301 29.619 292.22 29.3057 292.912 29.3057H293.229C294.475 29.3057 295.349 29.8672 295.854 30.9902C296.098 31.5192 296.22 32.6585 296.22 34.4082V34.4937C296.22 34.6401 296.216 34.7866 296.208 34.9331C296.208 35.3319 296.208 35.5394 296.208 35.5557C296.208 35.7103 296.208 35.8608 296.208 36.0073C296.208 36.1213 296.208 36.2311 296.208 36.3369C296.208 36.9635 296.228 37.3908 296.269 37.6187C296.326 37.9279 296.42 38.2493 296.55 38.583C296.688 38.9492 296.757 39.2666 296.757 39.5352ZM305.925 39.6938C305.925 40.0194 305.725 40.3123 305.327 40.5728C304.936 40.825 304.403 40.9512 303.728 40.9512C302.466 40.9512 301.579 40.4832 301.066 39.5474C300.749 38.9614 300.59 37.5902 300.59 35.4336C300.59 33.277 300.554 32.0238 300.48 31.6738C300.407 31.3239 300.204 30.9821 299.87 30.6484C299.536 30.3148 299.37 30.0584 299.37 29.8794C299.37 29.8143 299.764 29.387 300.554 28.5977C300.725 28.4268 300.896 28.0483 301.066 27.4624C301.245 26.8765 301.372 26.4899 301.445 26.3027C301.689 25.7168 302.01 25.4238 302.409 25.4238H302.604C302.954 25.4238 303.203 25.5581 303.349 25.8267C303.406 25.9325 303.492 26.3149 303.605 26.9741C303.728 27.6252 303.866 28.0443 304.021 28.2314C304.175 28.4186 304.562 28.6261 305.18 28.854C305.807 29.0737 306.12 29.3097 306.12 29.562V29.6963C306.12 30.0218 305.762 30.2985 305.046 30.5264C304.338 30.7461 303.882 31.1001 303.679 31.5884C303.28 32.5731 303.081 34.1763 303.081 36.3979C303.081 37.4396 303.26 38.1476 303.618 38.522C303.837 38.7498 304.277 38.9085 304.936 38.998C305.595 39.0876 305.925 39.3195 305.925 39.6938ZM308.928 39.3643C308.928 38.9574 309.054 38.64 309.306 38.4121C309.558 38.1842 309.888 38.0703 310.295 38.0703H310.747C311.162 38.0703 311.467 38.168 311.662 38.3633C311.857 38.5586 311.955 38.937 311.955 39.4985V39.6816C311.955 40.7233 311.674 41.6999 311.113 42.6113C310.389 43.7913 309.737 44.3813 309.16 44.3813H309.074C308.732 44.3813 308.562 44.2349 308.562 43.9419C308.562 43.8361 308.736 43.5187 309.086 42.9897C309.436 42.4689 309.611 42.0783 309.611 41.8179C309.611 41.5656 309.501 41.2197 309.282 40.7803C309.062 40.3408 308.952 40.0112 308.952 39.7915L308.928 39.6206V39.3643ZM324.089 35.8486C324.089 36.9147 324.333 37.8018 324.821 38.5098C325.31 39.2178 325.908 39.5718 326.616 39.5718H326.982C327.82 39.5718 328.528 39.1486 329.106 38.3022C329.692 37.4559 329.985 36.3288 329.985 34.9209V34.1152C329.985 33.0247 329.745 32.1336 329.265 31.4419C328.793 30.742 328.182 30.3921 327.434 30.3921H327.189C326.319 30.3921 325.586 30.8234 324.992 31.686C324.406 32.5487 324.113 33.5781 324.113 34.7744L324.089 35.0552V35.8486ZM326.848 41.2319H326.457C325.033 41.2319 323.873 40.7355 322.978 39.7427C322.083 38.7498 321.635 37.342 321.635 35.519L321.647 35.3115C321.647 33.3096 322.176 31.7308 323.234 30.5752C323.788 29.9648 324.418 29.5173 325.126 29.2324C325.843 28.9395 326.522 28.793 327.165 28.793H327.763C328.479 28.793 329.167 28.9517 329.826 29.269C331.714 30.1805 332.658 31.8976 332.658 34.4204V34.6157C332.65 35.4377 332.516 36.2718 332.255 37.1182C331.735 38.7865 330.734 39.9665 329.252 40.6582C328.431 41.0407 327.629 41.2319 326.848 41.2319ZM335.966 34.6523V33.7124C335.966 32.5812 335.905 31.7552 335.783 31.2344C335.661 30.7054 335.6 30.3351 335.6 30.1235C335.6 29.6271 335.962 29.3789 336.687 29.3789C337.411 29.3789 337.936 29.5132 338.261 29.7817C338.351 29.855 338.465 29.9974 338.603 30.209C338.75 30.4206 338.88 30.5264 338.994 30.5264C339.018 30.5264 339.372 30.3188 340.056 29.9038C340.739 29.4888 341.325 29.2812 341.813 29.2812H341.997C342.395 29.2812 342.713 29.3789 342.949 29.5742C343.185 29.7614 343.303 29.9933 343.303 30.27V30.4287C343.303 30.7624 343.185 31.0024 342.949 31.1489C342.721 31.2954 342.355 31.3687 341.85 31.3687C340.703 31.3687 339.864 31.7715 339.335 32.5771C338.815 33.3828 338.554 34.807 338.554 36.8496C338.554 37.1426 338.603 37.5942 338.701 38.2046C338.806 38.8149 338.859 39.2747 338.859 39.584C338.859 39.8932 338.693 40.1903 338.359 40.4751C338.025 40.7599 337.602 40.9023 337.089 40.9023H336.674C336.227 40.9023 335.881 40.7965 335.637 40.585C335.401 40.3652 335.283 40.1007 335.283 39.7915C335.283 39.4741 335.34 39.1527 335.454 38.8271C335.763 37.9482 335.917 36.9798 335.917 35.9219C335.95 35.3359 335.966 34.9128 335.966 34.6523ZM354.362 33.5781V33.7734C354.362 34.0176 354.586 34.1396 355.034 34.1396H355.327L355.4 34.1274L355.998 34.0786C356.625 33.9891 357.032 33.9443 357.219 33.9443C358.106 33.9443 358.773 33.7775 359.221 33.4438C359.432 33.2811 359.538 32.9922 359.538 32.5771V32.4429C359.538 31.8325 359.335 31.3483 358.928 30.9902C358.529 30.6322 358.049 30.4531 357.487 30.4531H357.402L357.329 30.4653C356.539 30.4653 355.847 30.799 355.253 31.4663C354.659 32.1336 354.362 32.8376 354.362 33.5781ZM357.023 41.1587H356.755C355.201 41.1587 353.964 40.6663 353.044 39.6816C352.124 38.6888 351.665 37.3664 351.665 35.7144V35.1772C351.665 34.3879 351.819 33.5863 352.128 32.7725C352.755 31.1449 353.776 30.0218 355.192 29.4033C355.941 29.0697 356.702 28.9028 357.475 28.9028H358C359.066 28.9028 359.965 29.2609 360.698 29.9771C361.438 30.6851 361.809 31.6006 361.809 32.7236V32.9678C361.809 33.7653 361.491 34.3309 360.856 34.6646C360.417 34.9006 359.392 35.1366 357.78 35.3726C356.169 35.6086 355.29 35.751 355.144 35.7998C354.655 35.9707 354.411 36.2962 354.411 36.7764C354.411 37.4437 354.696 38.0133 355.266 38.4854C355.835 38.9574 356.6 39.1934 357.561 39.1934C358.008 39.1934 358.618 39.0713 359.392 38.8271C360.165 38.583 360.612 38.4609 360.734 38.4609C361.149 38.4609 361.357 38.64 361.357 38.998C361.357 39.4782 360.889 39.9583 359.953 40.4385C359.017 40.9186 358.041 41.1587 357.023 41.1587ZM368.364 39.4619H368.681C369.348 39.4619 369.934 39.2381 370.439 38.7905C370.952 38.3348 371.208 37.8099 371.208 37.2158L371.232 37.0571V36.8984L371.257 36.52V35.8242C371.257 35.3522 371.017 35.1162 370.537 35.1162H369.987L369.902 35.1284L369.426 35.165C369.198 35.1976 369.035 35.2139 368.938 35.2139C368.278 35.2139 367.668 35.4621 367.106 35.9585C366.716 36.3084 366.521 36.8049 366.521 37.4478V37.6919C366.521 38.2371 366.695 38.6685 367.045 38.9858C367.403 39.3032 367.843 39.4619 368.364 39.4619ZM365.642 31.6616C365.096 31.6616 364.824 31.3117 364.824 30.6118C364.824 30.091 365.263 29.6393 366.142 29.2568C367.029 28.8662 367.949 28.6709 368.901 28.6709H369.511C370.333 28.6709 371.057 28.8255 371.684 29.1348C372.311 29.4359 372.787 29.8468 373.112 30.3677C373.446 30.8885 373.649 31.568 373.723 32.4062C373.739 32.6016 373.747 33.5496 373.747 35.2505C373.747 36.9513 373.767 37.932 373.808 38.1924C373.857 38.4447 373.987 38.7539 374.199 39.1201C374.418 39.4863 374.528 39.7874 374.528 40.0234C374.528 40.2594 374.414 40.4629 374.187 40.6338C373.967 40.7965 373.645 40.8779 373.222 40.8779C372.799 40.8779 372.339 40.7762 371.843 40.5728C371.346 40.3612 370.984 40.2554 370.756 40.2554C370.732 40.2554 370.325 40.4019 369.536 40.6948C368.746 40.9797 368.079 41.1221 367.534 41.1221H367.265C366.354 41.1221 365.576 40.8332 364.934 40.2554C364.299 39.6776 363.981 38.8556 363.981 37.7896C363.981 36.7235 364.331 35.8934 365.031 35.2993C365.731 34.6971 366.582 34.2861 367.583 34.0664C367.884 34.0013 368.384 33.9159 369.084 33.8101C369.784 33.7043 370.26 33.5944 370.512 33.4805C370.952 33.277 371.171 32.8945 371.171 32.333C371.171 31.7633 370.984 31.3198 370.61 31.0024C370.236 30.6769 369.788 30.5142 369.267 30.5142C368.754 30.5142 368.079 30.7054 367.241 31.0879C366.403 31.4704 365.869 31.6616 365.642 31.6616ZM378.239 34.1885C377.743 33.6839 377.495 32.9759 377.495 32.0645C377.495 31.153 377.902 30.3717 378.715 29.7207C379.529 29.0615 380.538 28.7319 381.743 28.7319H382.06C383.126 28.7319 383.972 28.8825 384.599 29.1836C385.234 29.4847 385.551 29.9364 385.551 30.5386C385.551 31.1326 385.287 31.4297 384.758 31.4297C384.619 31.4297 384.229 31.2669 383.586 30.9414C382.943 30.6077 382.337 30.4409 381.767 30.4409C381.197 30.4409 380.738 30.5711 380.388 30.8315C380.046 31.0838 379.875 31.4338 379.875 31.8813C379.875 32.3289 380.115 32.7196 380.595 33.0532C380.872 33.2485 381.523 33.5578 382.548 33.981C383.582 34.4041 384.318 34.811 384.758 35.2017C385.466 35.8283 385.82 36.6299 385.82 37.6064C385.82 38.583 385.405 39.4212 384.575 40.1211C383.745 40.8128 382.666 41.1587 381.34 41.1587H381.022C379.688 41.1587 378.687 40.9674 378.02 40.585C377.352 40.1943 377.019 39.6898 377.019 39.0713C377.019 38.4447 377.279 38.1313 377.8 38.1313C377.971 38.1313 378.414 38.3511 379.13 38.7905C379.855 39.23 380.563 39.4497 381.254 39.4497C381.954 39.4497 382.479 39.3032 382.829 39.0103C383.179 38.7091 383.354 38.3348 383.354 37.8872C383.354 37.4315 383.134 37.0327 382.695 36.6909C382.459 36.5037 381.783 36.166 380.668 35.6777C379.554 35.1813 378.744 34.6849 378.239 34.1885ZM392.412 25.1309V25.2773C392.412 25.6924 392.29 26.0464 392.045 26.3394C391.809 26.6242 391.443 26.7666 390.947 26.7666H390.751L390.373 26.7178C390.153 26.7178 389.942 26.616 389.738 26.4126C389.535 26.2091 389.433 25.904 389.433 25.4971V25.3506L389.494 24.9111C389.494 24.7402 389.596 24.5286 389.799 24.2764C390.011 24.0241 390.279 23.8979 390.605 23.8979L390.886 23.8613H391.13L391.472 23.9102C391.683 23.9102 391.891 24.016 392.094 24.2275C392.306 24.431 392.412 24.7321 392.412 25.1309ZM391.838 30.2822L391.704 33.5659L391.679 33.8955L391.643 34.8965V35.3726C391.643 36.5444 391.675 37.3135 391.74 37.6797C391.813 38.0459 391.948 38.404 392.143 38.7539C392.338 39.0957 392.436 39.3439 392.436 39.4985V39.6084C392.436 40.0072 392.233 40.3245 391.826 40.5605C391.419 40.7965 390.865 40.9146 390.166 40.9146H389.86C389.453 40.9146 389.144 40.825 388.933 40.646C388.721 40.4588 388.615 40.2594 388.615 40.0479V39.7793C388.615 39.6735 388.709 39.2992 388.896 38.6562C389.083 38.0052 389.177 37.1222 389.177 36.0073C389.201 35.6899 389.213 35.4702 389.213 35.3481L389.25 34.6768L389.274 34.3472C389.315 33.7775 389.335 33.334 389.335 33.0166L389.348 32.5283C389.348 31.918 389.246 31.3768 389.042 30.9048C388.847 30.4328 388.75 30.1398 388.75 30.0259C388.75 29.4399 389.303 29.147 390.41 29.147H390.849C391.264 29.147 391.533 29.2568 391.655 29.4766C391.777 29.6882 391.838 29.9567 391.838 30.2822ZM396.123 24.0322C396.123 23.4382 396.68 23.1411 397.795 23.1411H398.015C398.479 23.1411 398.796 23.255 398.967 23.4829C399.138 23.7026 399.223 24.134 399.223 24.7769L399.125 26.5957C399.101 26.8805 399.089 27.0352 399.089 27.0596L399.064 27.5234C399.048 27.8245 399.032 28.1297 399.016 28.439L398.979 28.9028L398.942 29.5986C398.812 32.0726 398.747 33.8996 398.747 35.0796C398.747 36.2515 398.8 37.0938 398.906 37.6064C399.012 38.1191 399.178 38.5545 399.406 38.9126C399.634 39.2707 399.748 39.5067 399.748 39.6206V39.7671C399.748 40.1252 399.569 40.41 399.211 40.6216C398.861 40.8332 398.385 40.939 397.783 40.939H397.148C396.774 40.939 396.444 40.8332 396.159 40.6216C395.882 40.4019 395.744 40.1536 395.744 39.877V39.5474L395.817 39.0347C395.915 38.3267 395.972 37.7977 395.988 37.4478C396.013 37.0897 396.049 36.5973 396.098 35.9707C396.147 35.3359 396.224 33.9891 396.33 31.9302C396.444 29.8631 396.501 28.7523 396.501 28.5977L396.55 27.6821L396.574 26.7788C396.574 25.9162 396.497 25.3018 396.342 24.9355C396.196 24.5612 396.123 24.2601 396.123 24.0322ZM406.669 40.9512C406.669 40.528 406.381 39.7874 405.803 38.7295C405.225 37.6634 404.741 36.6706 404.35 35.751C403.015 32.6178 402.348 30.8071 402.348 30.3188C402.348 30.0991 402.474 29.8997 402.727 29.7207C402.987 29.5417 403.418 29.4521 404.021 29.4521C404.623 29.4521 405.046 29.7085 405.29 30.2212C405.314 30.2782 405.4 30.6322 405.546 31.2832C406.653 35.3278 407.345 37.4478 407.622 37.6431C408.045 37.6431 408.623 36.6543 409.355 34.6768C409.851 33.334 410.157 32.2069 410.271 31.2954C410.393 30.384 410.49 29.859 410.563 29.7207C410.791 29.2975 411.263 29.0859 411.979 29.0859C412.704 29.0859 413.066 29.3667 413.066 29.9282C413.066 30.327 412.919 30.86 412.626 31.5273C412.333 32.1947 412.057 32.9189 411.796 33.7002C410.307 38.1598 409.229 40.9756 408.562 42.1475C407.894 43.3275 407.19 44.2552 406.45 44.9307C405.709 45.6143 404.965 45.9561 404.216 45.9561C403.475 45.9561 403.105 45.7445 403.105 45.3213C403.105 44.9469 403.483 44.6051 404.24 44.2959C405.005 43.9867 405.538 43.6286 405.839 43.2217C406.393 42.4811 406.669 41.7243 406.669 40.9512ZM424.125 41.8911H423.845C423.438 41.8911 423.092 41.7731 422.807 41.5371C422.53 41.3011 422.392 41.0203 422.392 40.6948C422.392 40.3693 422.49 39.9543 422.685 39.4497C422.889 38.937 423.035 38.3145 423.125 37.582C423.222 36.8415 423.271 35.7591 423.271 34.335C423.271 32.9108 423.202 32.0034 423.063 31.6128C423.039 31.5477 422.925 31.332 422.722 30.9658C422.518 30.5915 422.417 30.2741 422.417 30.0137C422.417 29.7533 422.551 29.4196 422.819 29.0127C423.096 28.6058 423.279 28.3047 423.369 28.1094C424.467 25.79 425.041 24.6019 425.09 24.5449C425.936 23.5602 427.08 23.0679 428.52 23.0679C429.187 23.0679 429.7 23.1818 430.058 23.4097C430.416 23.6375 430.595 23.9346 430.595 24.3008C430.595 24.6589 430.384 24.9193 429.96 25.082C429.847 25.1227 429.696 25.1431 429.509 25.1431C429.37 25.1349 429.212 25.1227 429.033 25.1064C428.61 25.0576 428.3 25.0332 428.105 25.0332C427.576 25.0332 427.145 25.2611 426.811 25.7168C426.486 26.1644 426.323 26.6812 426.323 27.2671C426.323 27.853 426.441 28.2803 426.677 28.5488C426.75 28.6302 427.096 28.8337 427.714 29.1592C428.341 29.4766 428.654 29.798 428.654 30.1235C428.654 30.3026 428.304 30.5793 427.604 30.9536C427.108 31.214 426.742 31.6779 426.506 32.3452C425.993 33.7775 425.737 35.6615 425.737 37.9971L425.969 40.0601C425.969 40.6216 425.802 41.0651 425.468 41.3906C425.143 41.7243 424.695 41.8911 424.125 41.8911ZM432.084 34.6523V33.7124C432.084 32.5812 432.023 31.7552 431.901 31.2344C431.779 30.7054 431.718 30.3351 431.718 30.1235C431.718 29.6271 432.08 29.3789 432.805 29.3789C433.529 29.3789 434.054 29.5132 434.379 29.7817C434.469 29.855 434.583 29.9974 434.721 30.209C434.868 30.4206 434.998 30.5264 435.112 30.5264C435.136 30.5264 435.49 30.3188 436.174 29.9038C436.857 29.4888 437.443 29.2812 437.932 29.2812H438.115C438.514 29.2812 438.831 29.3789 439.067 29.5742C439.303 29.7614 439.421 29.9933 439.421 30.27V30.4287C439.421 30.7624 439.303 31.0024 439.067 31.1489C438.839 31.2954 438.473 31.3687 437.968 31.3687C436.821 31.3687 435.983 31.7715 435.454 32.5771C434.933 33.3828 434.672 34.807 434.672 36.8496C434.672 37.1426 434.721 37.5942 434.819 38.2046C434.925 38.8149 434.978 39.2747 434.978 39.584C434.978 39.8932 434.811 40.1903 434.477 40.4751C434.143 40.7599 433.72 40.9023 433.208 40.9023H432.792C432.345 40.9023 431.999 40.7965 431.755 40.585C431.519 40.3652 431.401 40.1007 431.401 39.7915C431.401 39.4741 431.458 39.1527 431.572 38.8271C431.881 37.9482 432.036 36.9798 432.036 35.9219C432.068 35.3359 432.084 34.9128 432.084 34.6523ZM441.472 30.0259C441.472 29.5132 441.903 29.2568 442.766 29.2568H443.046C443.583 29.2568 443.946 29.4725 444.133 29.9038C444.32 30.3351 444.414 31.1408 444.414 32.3208L444.267 36.3979C444.267 38.2941 444.947 39.2422 446.306 39.2422C446.802 39.2422 447.278 39.0672 447.734 38.7173C448.19 38.3674 448.527 37.9482 448.747 37.46C449.227 36.3857 449.467 34.4611 449.467 31.686L449.443 31.1489V30.6729C449.443 30.2415 449.541 29.9282 449.736 29.7329C449.931 29.5376 450.273 29.4399 450.761 29.4399C451.25 29.4399 451.571 29.5579 451.726 29.7939C451.88 30.0299 451.958 30.4124 451.958 30.9414L451.933 31.5884L451.884 34.4692C451.884 34.9331 451.913 35.6452 451.97 36.6055C452.027 37.5658 452.088 38.2697 452.153 38.7173C452.218 39.1567 452.25 39.4172 452.25 39.4985C452.25 40.2228 451.717 40.585 450.651 40.585C450.285 40.585 449.919 40.4507 449.553 40.1821C449.195 39.9054 448.938 39.7671 448.784 39.7671C448.637 39.7671 448.385 39.8566 448.027 40.0356C447.01 40.5483 446.143 40.8047 445.427 40.8047H445.122C443.958 40.8047 443.103 40.4466 442.558 39.7305C442.013 39.0143 441.74 37.7244 441.74 35.8608L441.862 32.1621C441.862 31.6982 441.797 31.2547 441.667 30.8315C441.537 30.4084 441.472 30.1398 441.472 30.0259ZM456.193 34.1885C455.697 33.6839 455.449 32.9759 455.449 32.0645C455.449 31.153 455.856 30.3717 456.669 29.7207C457.483 29.0615 458.492 28.7319 459.697 28.7319H460.014C461.08 28.7319 461.927 28.8825 462.553 29.1836C463.188 29.4847 463.505 29.9364 463.505 30.5386C463.505 31.1326 463.241 31.4297 462.712 31.4297C462.574 31.4297 462.183 31.2669 461.54 30.9414C460.897 30.6077 460.291 30.4409 459.721 30.4409C459.152 30.4409 458.692 30.5711 458.342 30.8315C458 31.0838 457.829 31.4338 457.829 31.8813C457.829 32.3289 458.069 32.7196 458.549 33.0532C458.826 33.2485 459.477 33.5578 460.502 33.981C461.536 34.4041 462.272 34.811 462.712 35.2017C463.42 35.8283 463.774 36.6299 463.774 37.6064C463.774 38.583 463.359 39.4212 462.529 40.1211C461.699 40.8128 460.62 41.1587 459.294 41.1587H458.977C457.642 41.1587 456.641 40.9674 455.974 40.585C455.306 40.1943 454.973 39.6898 454.973 39.0713C454.973 38.4447 455.233 38.1313 455.754 38.1313C455.925 38.1313 456.368 38.3511 457.084 38.7905C457.809 39.23 458.517 39.4497 459.208 39.4497C459.908 39.4497 460.433 39.3032 460.783 39.0103C461.133 38.7091 461.308 38.3348 461.308 37.8872C461.308 37.4315 461.088 37.0327 460.649 36.6909C460.413 36.5037 459.737 36.166 458.623 35.6777C457.508 35.1813 456.698 34.6849 456.193 34.1885ZM472.771 39.6938C472.771 40.0194 472.571 40.3123 472.172 40.5728C471.782 40.825 471.249 40.9512 470.573 40.9512C469.312 40.9512 468.425 40.4832 467.912 39.5474C467.595 38.9614 467.436 37.5902 467.436 35.4336C467.436 33.277 467.399 32.0238 467.326 31.6738C467.253 31.3239 467.049 30.9821 466.716 30.6484C466.382 30.3148 466.215 30.0584 466.215 29.8794C466.215 29.8143 466.61 29.387 467.399 28.5977C467.57 28.4268 467.741 28.0483 467.912 27.4624C468.091 26.8765 468.217 26.4899 468.291 26.3027C468.535 25.7168 468.856 25.4238 469.255 25.4238H469.45C469.8 25.4238 470.048 25.5581 470.195 25.8267C470.252 25.9325 470.337 26.3149 470.451 26.9741C470.573 27.6252 470.712 28.0443 470.866 28.2314C471.021 28.4186 471.407 28.6261 472.026 28.854C472.653 29.0737 472.966 29.3097 472.966 29.562V29.6963C472.966 30.0218 472.608 30.2985 471.892 30.5264C471.184 30.7461 470.728 31.1001 470.524 31.5884C470.126 32.5731 469.926 34.1763 469.926 36.3979C469.926 37.4396 470.105 38.1476 470.463 38.522C470.683 38.7498 471.123 38.9085 471.782 38.998C472.441 39.0876 472.771 39.3195 472.771 39.6938ZM476.347 34.6523V33.7124C476.347 32.5812 476.286 31.7552 476.164 31.2344C476.042 30.7054 475.981 30.3351 475.981 30.1235C475.981 29.6271 476.343 29.3789 477.067 29.3789C477.792 29.3789 478.317 29.5132 478.642 29.7817C478.732 29.855 478.846 29.9974 478.984 30.209C479.13 30.4206 479.261 30.5264 479.375 30.5264C479.399 30.5264 479.753 30.3188 480.437 29.9038C481.12 29.4888 481.706 29.2812 482.194 29.2812H482.377C482.776 29.2812 483.094 29.3789 483.33 29.5742C483.566 29.7614 483.684 29.9933 483.684 30.27V30.4287C483.684 30.7624 483.566 31.0024 483.33 31.1489C483.102 31.2954 482.736 31.3687 482.231 31.3687C481.083 31.3687 480.245 31.7715 479.716 32.5771C479.195 33.3828 478.935 34.807 478.935 36.8496C478.935 37.1426 478.984 37.5942 479.082 38.2046C479.187 38.8149 479.24 39.2747 479.24 39.584C479.24 39.8932 479.073 40.1903 478.74 40.4751C478.406 40.7599 477.983 40.9023 477.47 40.9023H477.055C476.608 40.9023 476.262 40.7965 476.018 40.585C475.782 40.3652 475.664 40.1007 475.664 39.7915C475.664 39.4741 475.721 39.1527 475.834 38.8271C476.144 37.9482 476.298 36.9798 476.298 35.9219C476.331 35.3359 476.347 34.9128 476.347 34.6523ZM489.409 39.4619H489.726C490.393 39.4619 490.979 39.2381 491.484 38.7905C491.997 38.3348 492.253 37.8099 492.253 37.2158L492.277 37.0571V36.8984L492.302 36.52V35.8242C492.302 35.3522 492.062 35.1162 491.582 35.1162H491.032L490.947 35.1284L490.471 35.165C490.243 35.1976 490.08 35.2139 489.982 35.2139C489.323 35.2139 488.713 35.4621 488.151 35.9585C487.761 36.3084 487.565 36.8049 487.565 37.4478V37.6919C487.565 38.2371 487.74 38.6685 488.09 38.9858C488.448 39.3032 488.888 39.4619 489.409 39.4619ZM486.687 31.6616C486.141 31.6616 485.869 31.3117 485.869 30.6118C485.869 30.091 486.308 29.6393 487.187 29.2568C488.074 28.8662 488.994 28.6709 489.946 28.6709H490.556C491.378 28.6709 492.102 28.8255 492.729 29.1348C493.356 29.4359 493.832 29.8468 494.157 30.3677C494.491 30.8885 494.694 31.568 494.768 32.4062C494.784 32.6016 494.792 33.5496 494.792 35.2505C494.792 36.9513 494.812 37.932 494.853 38.1924C494.902 38.4447 495.032 38.7539 495.244 39.1201C495.463 39.4863 495.573 39.7874 495.573 40.0234C495.573 40.2594 495.459 40.4629 495.231 40.6338C495.012 40.7965 494.69 40.8779 494.267 40.8779C493.844 40.8779 493.384 40.7762 492.888 40.5728C492.391 40.3612 492.029 40.2554 491.801 40.2554C491.777 40.2554 491.37 40.4019 490.581 40.6948C489.791 40.9797 489.124 41.1221 488.579 41.1221H488.31C487.399 41.1221 486.621 40.8332 485.979 40.2554C485.344 39.6776 485.026 38.8556 485.026 37.7896C485.026 36.7235 485.376 35.8934 486.076 35.2993C486.776 34.6971 487.626 34.2861 488.627 34.0664C488.929 34.0013 489.429 33.9159 490.129 33.8101C490.829 33.7043 491.305 33.5944 491.557 33.4805C491.997 33.277 492.216 32.8945 492.216 32.333C492.216 31.7633 492.029 31.3198 491.655 31.0024C491.28 30.6769 490.833 30.5142 490.312 30.5142C489.799 30.5142 489.124 30.7054 488.286 31.0879C487.447 31.4704 486.914 31.6616 486.687 31.6616ZM504.753 39.6938C504.753 40.0194 504.554 40.3123 504.155 40.5728C503.764 40.825 503.231 40.9512 502.556 40.9512C501.294 40.9512 500.407 40.4832 499.895 39.5474C499.577 38.9614 499.418 37.5902 499.418 35.4336C499.418 33.277 499.382 32.0238 499.309 31.6738C499.235 31.3239 499.032 30.9821 498.698 30.6484C498.365 30.3148 498.198 30.0584 498.198 29.8794C498.198 29.8143 498.592 29.387 499.382 28.5977C499.553 28.4268 499.724 28.0483 499.895 27.4624C500.074 26.8765 500.2 26.4899 500.273 26.3027C500.517 25.7168 500.839 25.4238 501.237 25.4238H501.433C501.783 25.4238 502.031 25.5581 502.177 25.8267C502.234 25.9325 502.32 26.3149 502.434 26.9741C502.556 27.6252 502.694 28.0443 502.849 28.2314C503.003 28.4186 503.39 28.6261 504.008 28.854C504.635 29.0737 504.948 29.3097 504.948 29.562V29.6963C504.948 30.0218 504.59 30.2985 503.874 30.5264C503.166 30.7461 502.71 31.1001 502.507 31.5884C502.108 32.5731 501.909 34.1763 501.909 36.3979C501.909 37.4396 502.088 38.1476 502.446 38.522C502.666 38.7498 503.105 38.9085 503.764 38.998C504.423 39.0876 504.753 39.3195 504.753 39.6938ZM509.733 33.5781V33.7734C509.733 34.0176 509.957 34.1396 510.405 34.1396H510.698L510.771 34.1274L511.369 34.0786C511.996 33.9891 512.403 33.9443 512.59 33.9443C513.477 33.9443 514.144 33.7775 514.592 33.4438C514.803 33.2811 514.909 32.9922 514.909 32.5771V32.4429C514.909 31.8325 514.706 31.3483 514.299 30.9902C513.9 30.6322 513.42 30.4531 512.858 30.4531H512.773L512.7 30.4653C511.91 30.4653 511.219 30.799 510.625 31.4663C510.03 32.1336 509.733 32.8376 509.733 33.5781ZM512.395 41.1587H512.126C510.572 41.1587 509.335 40.6663 508.415 39.6816C507.495 38.6888 507.036 37.3664 507.036 35.7144V35.1772C507.036 34.3879 507.19 33.5863 507.5 32.7725C508.126 31.1449 509.147 30.0218 510.563 29.4033C511.312 29.0697 512.073 28.9028 512.846 28.9028H513.371C514.437 28.9028 515.336 29.2609 516.069 29.9771C516.809 30.6851 517.18 31.6006 517.18 32.7236V32.9678C517.18 33.7653 516.862 34.3309 516.228 34.6646C515.788 34.9006 514.763 35.1366 513.151 35.3726C511.54 35.6086 510.661 35.751 510.515 35.7998C510.026 35.9707 509.782 36.2962 509.782 36.7764C509.782 37.4437 510.067 38.0133 510.637 38.4854C511.206 38.9574 511.971 39.1934 512.932 39.1934C513.379 39.1934 513.99 39.0713 514.763 38.8271C515.536 38.583 515.983 38.4609 516.105 38.4609C516.521 38.4609 516.728 38.64 516.728 38.998C516.728 39.4782 516.26 39.9583 515.324 40.4385C514.388 40.9186 513.412 41.1587 512.395 41.1587ZM521.94 35.0796V36.0073C521.94 36.9757 522.16 37.7855 522.6 38.4365C523.047 39.0794 523.572 39.4009 524.174 39.4009H524.516C525.444 39.4009 526.16 39.0306 526.665 38.29C527.177 37.5495 527.434 36.4468 527.434 34.9819C527.45 34.8029 527.458 34.6727 527.458 34.5913L527.482 34.3472L527.495 33.8345V32.9678C527.495 31.3076 526.831 30.4775 525.505 30.4775H525.029C524.166 30.4775 523.434 30.9129 522.832 31.7837C522.237 32.6545 521.94 33.7531 521.94 35.0796ZM519.597 35.6411C519.597 34.7948 519.747 33.9321 520.048 33.0532C520.349 32.1743 520.773 31.4256 521.318 30.8071C521.863 30.1805 522.478 29.7288 523.161 29.4521C523.845 29.1673 524.654 29.0249 525.59 29.0249C526.534 29.0249 527.12 28.854 527.348 28.5122C527.576 28.1623 527.69 27.3932 527.69 26.2051C527.69 25.9854 527.653 25.6924 527.58 25.3262C527.507 24.96 527.47 24.7484 527.47 24.6914C527.47 24.3415 527.621 24.0241 527.922 23.7393C528.223 23.4463 528.618 23.2998 529.106 23.2998H529.35C529.733 23.2998 530.017 23.3893 530.205 23.5684C530.392 23.7474 530.485 24.1217 530.485 24.6914V25.8267L530.461 26.4004C530.453 26.5957 530.449 26.8805 530.449 27.2549C530.449 27.6211 530.388 28.8011 530.266 30.7949C530.144 32.7887 530.083 34.16 530.083 34.9087L530.07 35.2017C530.062 35.397 530.058 35.5841 530.058 35.7632L530.046 36.0439C530.046 36.0439 530.046 36.3613 530.046 36.9961C530.046 37.818 530.111 38.4365 530.241 38.8516C530.371 39.2666 530.437 39.5636 530.437 39.7427C530.437 39.9217 530.335 40.1089 530.131 40.3042C529.928 40.4995 529.611 40.5972 529.179 40.5972C528.756 40.5972 528.345 40.528 527.946 40.3896C527.548 40.2432 527.255 40.1699 527.067 40.1699C526.88 40.1699 526.636 40.2269 526.335 40.3408C525.424 40.6745 524.589 40.8413 523.833 40.8413C523.816 40.8413 523.8 40.8413 523.784 40.8413H523.503C522.274 40.8413 521.314 40.3937 520.622 39.4985C519.938 38.5952 519.597 37.4111 519.597 35.9463V35.6411ZM535.368 41.1953H534.99C534.583 41.1953 534.265 41.1017 534.038 40.9146C533.818 40.7274 533.708 40.4792 533.708 40.1699C533.692 40.1048 533.684 40.0519 533.684 40.0112L533.659 39.8037V39.584L533.671 39.5352V39.4253C533.688 39.3602 533.696 39.3073 533.696 39.2666C533.696 38.9004 533.818 38.6156 534.062 38.4121C534.314 38.2005 534.591 38.0947 534.892 38.0947L535.148 38.0581H535.478C536.365 38.0581 536.809 38.522 536.809 39.4497V39.6206L536.76 40.0356C536.76 40.41 536.617 40.6989 536.333 40.9023C536.056 41.0977 535.734 41.1953 535.368 41.1953ZM546.684 33.395V33.0044C546.684 31.7104 546.888 30.4613 547.294 29.2568C548.059 27.0026 549.406 25.4198 551.335 24.5083C552.385 24.0119 553.471 23.7637 554.594 23.7637H554.973C556.674 23.7637 557.882 24.0119 558.598 24.5083C559.314 25.0047 559.672 25.6313 559.672 26.3882C559.672 26.8439 559.583 27.1491 559.404 27.3037C559.225 27.4583 559.05 27.5356 558.879 27.5356C558.716 27.5356 558.362 27.3485 557.817 26.9741C557.28 26.5998 556.759 26.3109 556.254 26.1074C555.75 25.8958 555.119 25.79 554.362 25.79C553.605 25.79 552.918 25.9772 552.299 26.3516C550.444 27.4827 549.512 29.8062 549.504 33.3218C549.504 34.2332 549.626 35.0552 549.87 35.7876C550.611 38.0011 552.088 39.1079 554.301 39.1079C555.375 39.1079 556.612 38.7173 558.012 37.936C558.452 37.6919 558.777 37.5698 558.989 37.5698C559.339 37.5698 559.514 37.7692 559.514 38.168C559.514 38.4202 559.4 38.701 559.172 39.0103C558.773 39.5636 558.252 39.999 557.609 40.3164C556.519 40.8617 555.306 41.1343 553.972 41.1343H553.581C551.498 41.1343 549.821 40.4385 548.552 39.0469C547.95 38.3877 547.486 37.5576 547.16 36.5566C546.843 35.5557 546.684 34.5018 546.684 33.395ZM564.323 35.8486C564.323 36.9147 564.567 37.8018 565.056 38.5098C565.544 39.2178 566.142 39.5718 566.85 39.5718H567.216C568.055 39.5718 568.763 39.1486 569.34 38.3022C569.926 37.4559 570.219 36.3288 570.219 34.9209V34.1152C570.219 33.0247 569.979 32.1336 569.499 31.4419C569.027 30.742 568.417 30.3921 567.668 30.3921H567.424C566.553 30.3921 565.821 30.8234 565.227 31.686C564.641 32.5487 564.348 33.5781 564.348 34.7744L564.323 35.0552V35.8486ZM567.082 41.2319H566.691C565.267 41.2319 564.108 40.7355 563.212 39.7427C562.317 38.7498 561.87 37.342 561.87 35.519L561.882 35.3115C561.882 33.3096 562.411 31.7308 563.469 30.5752C564.022 29.9648 564.653 29.5173 565.361 29.2324C566.077 28.9395 566.757 28.793 567.399 28.793H567.998C568.714 28.793 569.401 28.9517 570.061 29.269C571.949 30.1805 572.893 31.8976 572.893 34.4204V34.6157C572.884 35.4377 572.75 36.2718 572.49 37.1182C571.969 38.7865 570.968 39.9665 569.487 40.6582C568.665 41.0407 567.863 41.2319 567.082 41.2319ZM580.51 29.7085C581.136 29.4725 581.779 29.3545 582.438 29.3545C583.098 29.3545 583.781 29.5498 584.489 29.9404C585.205 30.3311 585.596 30.5264 585.661 30.5264C585.726 30.5264 586.166 30.327 586.979 29.9282C587.793 29.5295 588.526 29.3301 589.177 29.3301C589.836 29.3301 590.377 29.4684 590.8 29.7451C591.232 30.0137 591.557 30.3351 591.777 30.7095C592.192 31.4256 592.399 33.0166 592.399 35.4824C592.399 36.5892 592.408 37.224 592.424 37.3867C592.448 37.5413 592.505 37.8221 592.595 38.229C592.692 38.6278 592.741 38.9574 592.741 39.2178C592.741 39.4701 592.635 39.7345 592.424 40.0112C592.212 40.2879 591.931 40.4263 591.582 40.4263C590.89 40.4263 590.479 40.1455 590.349 39.584C590.251 39.1771 590.137 37.9889 590.007 36.0195C589.885 34.0501 589.75 32.8945 589.604 32.5527C589.311 31.8366 588.688 31.4785 587.736 31.4785C587.126 31.4785 586.65 31.861 586.308 32.626C585.812 33.7246 585.563 35.2871 585.563 37.3135L585.686 39.0713C585.686 39.6898 585.458 40.1577 585.002 40.4751C584.709 40.6785 584.318 40.7803 583.83 40.7803C583.35 40.7803 583.033 40.7314 582.878 40.6338C582.609 40.471 582.475 40.1252 582.475 39.5962C582.475 39.4985 582.552 39.0998 582.707 38.3999C582.87 37.6919 582.951 36.5444 582.951 34.9575C582.951 33.3625 582.833 32.3493 582.597 31.918C582.361 31.4785 581.95 31.2588 581.364 31.2588C580.778 31.2588 580.257 31.4582 579.802 31.8569C579.354 32.2557 579.025 32.6911 578.813 33.1631C578.61 33.6351 578.426 34.7581 578.264 36.5322C578.109 38.3063 577.999 39.3236 577.934 39.584C577.82 40.0316 577.491 40.2554 576.945 40.2554C576.408 40.2554 576.038 40.0967 575.834 39.7793C575.639 39.4538 575.542 39.0591 575.542 38.5952L575.603 38.168L575.834 37.3257C575.932 36.9351 575.989 36.4793 576.005 35.9585C576.127 32.7277 576.221 30.8844 576.286 30.4287C576.351 29.973 576.644 29.7451 577.165 29.7451L578.984 30.0503C579.375 30.0503 579.883 29.9364 580.51 29.7085ZM604.338 33.9565C604.338 32.8742 604.11 32.0278 603.654 31.4175C603.207 30.799 602.67 30.4897 602.043 30.4897H601.689C600.81 30.4897 600.114 30.8397 599.602 31.5396C599.089 32.2313 598.833 33.2526 598.833 34.6035L598.808 34.8477L598.759 36.1172V36.9717C598.759 37.8587 598.938 38.4854 599.296 38.8516C599.663 39.2096 600.179 39.3887 600.847 39.3887H601.079C601.998 39.3887 602.767 38.9655 603.386 38.1191C604.004 37.2728 604.313 36.2433 604.313 35.0308L604.338 34.7622V33.9565ZM597.697 29.3667L599.406 29.6597C599.585 29.6597 600.004 29.5417 600.664 29.3057C601.323 29.0697 601.97 28.9517 602.604 28.9517C603.89 28.9517 604.932 29.4033 605.729 30.3066C606.527 31.2018 606.926 32.4103 606.926 33.9321V34.2373C606.926 35.2627 606.755 36.2067 606.413 37.0693C605.713 38.8516 604.545 40.0031 602.91 40.5239C602.446 40.6704 601.823 40.7721 601.042 40.8291C600.269 40.8861 599.72 40.9878 599.394 41.1343C598.898 41.3621 598.649 41.7731 598.649 42.3672C598.649 42.6195 598.694 42.9613 598.784 43.3926C598.881 43.8239 598.93 44.2227 598.93 44.5889C598.93 44.9551 598.723 45.3132 598.308 45.6631C597.893 46.0212 597.376 46.2002 596.757 46.2002H596.501C595.769 46.2002 595.402 45.9316 595.402 45.3945V45.1626C595.402 45.0487 595.48 44.7272 595.634 44.1982C595.797 43.6774 595.911 43.1159 595.976 42.5137C596.041 41.9196 596.147 40.4344 596.293 38.0581C596.44 35.6818 596.513 34.0583 596.513 33.1875C596.513 32.3086 596.456 31.5721 596.342 30.978C596.236 30.384 596.184 30.0625 596.184 30.0137C596.184 29.5824 596.688 29.3667 597.697 29.3667ZM610.136 24.0322C610.136 23.4382 610.694 23.1411 611.809 23.1411H612.028C612.492 23.1411 612.81 23.255 612.98 23.4829C613.151 23.7026 613.237 24.134 613.237 24.7769L613.139 26.5957C613.115 26.8805 613.103 27.0352 613.103 27.0596L613.078 27.5234C613.062 27.8245 613.046 28.1297 613.029 28.439L612.993 28.9028L612.956 29.5986C612.826 32.0726 612.761 33.8996 612.761 35.0796C612.761 36.2515 612.814 37.0938 612.919 37.6064C613.025 38.1191 613.192 38.5545 613.42 38.9126C613.648 39.2707 613.762 39.5067 613.762 39.6206V39.7671C613.762 40.1252 613.583 40.41 613.225 40.6216C612.875 40.8332 612.399 40.939 611.796 40.939H611.162C610.787 40.939 610.458 40.8332 610.173 40.6216C609.896 40.4019 609.758 40.1536 609.758 39.877V39.5474L609.831 39.0347C609.929 38.3267 609.986 37.7977 610.002 37.4478C610.026 37.0897 610.063 36.5973 610.112 35.9707C610.161 35.3359 610.238 33.9891 610.344 31.9302C610.458 29.8631 610.515 28.7523 610.515 28.5977L610.563 27.6821L610.588 26.7788C610.588 25.9162 610.511 25.3018 610.356 24.9355C610.209 24.5612 610.136 24.2601 610.136 24.0322ZM620.537 39.4619H620.854C621.521 39.4619 622.107 39.2381 622.612 38.7905C623.125 38.3348 623.381 37.8099 623.381 37.2158L623.405 37.0571V36.8984L623.43 36.52V35.8242C623.43 35.3522 623.19 35.1162 622.709 35.1162H622.16L622.075 35.1284L621.599 35.165C621.371 35.1976 621.208 35.2139 621.11 35.2139C620.451 35.2139 619.841 35.4621 619.279 35.9585C618.889 36.3084 618.693 36.8049 618.693 37.4478V37.6919C618.693 38.2371 618.868 38.6685 619.218 38.9858C619.576 39.3032 620.016 39.4619 620.537 39.4619ZM617.814 31.6616C617.269 31.6616 616.997 31.3117 616.997 30.6118C616.997 30.091 617.436 29.6393 618.315 29.2568C619.202 28.8662 620.122 28.6709 621.074 28.6709H621.684C622.506 28.6709 623.23 28.8255 623.857 29.1348C624.484 29.4359 624.96 29.8468 625.285 30.3677C625.619 30.8885 625.822 31.568 625.896 32.4062C625.912 32.6016 625.92 33.5496 625.92 35.2505C625.92 36.9513 625.94 37.932 625.981 38.1924C626.03 38.4447 626.16 38.7539 626.372 39.1201C626.591 39.4863 626.701 39.7874 626.701 40.0234C626.701 40.2594 626.587 40.4629 626.359 40.6338C626.14 40.7965 625.818 40.8779 625.395 40.8779C624.972 40.8779 624.512 40.7762 624.016 40.5728C623.519 40.3612 623.157 40.2554 622.929 40.2554C622.905 40.2554 622.498 40.4019 621.708 40.6948C620.919 40.9797 620.252 41.1221 619.707 41.1221H619.438C618.527 41.1221 617.749 40.8332 617.106 40.2554C616.472 39.6776 616.154 38.8556 616.154 37.7896C616.154 36.7235 616.504 35.8934 617.204 35.2993C617.904 34.6971 618.754 34.2861 619.755 34.0664C620.056 34.0013 620.557 33.9159 621.257 33.8101C621.957 33.7043 622.433 33.5944 622.685 33.4805C623.125 33.277 623.344 32.8945 623.344 32.333C623.344 31.7633 623.157 31.3198 622.783 31.0024C622.408 30.6769 621.961 30.5142 621.44 30.5142C620.927 30.5142 620.252 30.7054 619.414 31.0879C618.575 31.4704 618.042 31.6616 617.814 31.6616ZM633.525 25.1309V25.2773C633.525 25.6924 633.403 26.0464 633.159 26.3394C632.923 26.6242 632.556 26.7666 632.06 26.7666H631.865L631.486 26.7178C631.267 26.7178 631.055 26.616 630.852 26.4126C630.648 26.2091 630.546 25.904 630.546 25.4971V25.3506L630.607 24.9111C630.607 24.7402 630.709 24.5286 630.913 24.2764C631.124 24.0241 631.393 23.8979 631.718 23.8979L631.999 23.8613H632.243L632.585 23.9102C632.797 23.9102 633.004 24.016 633.208 24.2275C633.419 24.431 633.525 24.7321 633.525 25.1309ZM632.951 30.2822L632.817 33.5659L632.792 33.8955L632.756 34.8965V35.3726C632.756 36.5444 632.788 37.3135 632.854 37.6797C632.927 38.0459 633.061 38.404 633.256 38.7539C633.452 39.0957 633.549 39.3439 633.549 39.4985V39.6084C633.549 40.0072 633.346 40.3245 632.939 40.5605C632.532 40.7965 631.979 40.9146 631.279 40.9146H630.974C630.567 40.9146 630.257 40.825 630.046 40.646C629.834 40.4588 629.729 40.2594 629.729 40.0479V39.7793C629.729 39.6735 629.822 39.2992 630.009 38.6562C630.196 38.0052 630.29 37.1222 630.29 36.0073C630.314 35.6899 630.327 35.4702 630.327 35.3481L630.363 34.6768L630.388 34.3472C630.428 33.7775 630.449 33.334 630.449 33.0166L630.461 32.5283C630.461 31.918 630.359 31.3768 630.156 30.9048C629.96 30.4328 629.863 30.1398 629.863 30.0259C629.863 29.4399 630.416 29.147 631.523 29.147H631.962C632.377 29.147 632.646 29.2568 632.768 29.4766C632.89 29.6882 632.951 29.9567 632.951 30.2822ZM647.758 39.5352C647.758 40.1374 647.233 40.4385 646.184 40.4385C645.59 40.4385 645.191 40.2961 644.987 40.0112C644.89 39.8729 644.841 39.5474 644.841 39.0347L644.804 38.2534C644.747 37.3989 644.719 36.5404 644.719 35.6777C644.719 33.8141 644.556 32.5649 644.23 31.9302C643.913 31.2873 643.376 30.9658 642.619 30.9658C642.115 30.9658 641.647 31.1164 641.215 31.4175C640.792 31.7186 640.467 32.1377 640.239 32.6748C639.767 33.7734 639.531 35.8039 639.531 38.7661C639.531 39.4416 639.401 39.9176 639.14 40.1943C638.888 40.471 638.562 40.6094 638.164 40.6094H637.919C637.008 40.6094 636.552 40.2472 636.552 39.5229V39.23C636.552 39.1405 636.601 38.9451 636.699 38.644L636.894 38.0825C637.089 37.4233 637.187 36.0114 637.187 33.8467L637.248 30.2212C637.248 29.7573 637.5 29.5254 638.005 29.5254C638.509 29.5254 639.006 29.6922 639.494 30.0259C639.991 30.3595 640.304 30.5264 640.434 30.5264C640.572 30.5264 640.812 30.4328 641.154 30.2456C642.302 29.619 643.221 29.3057 643.913 29.3057H644.23C645.476 29.3057 646.35 29.8672 646.855 30.9902C647.099 31.5192 647.221 32.6585 647.221 34.4082V34.4937C647.221 34.6401 647.217 34.7866 647.209 34.9331C647.209 35.3319 647.209 35.5394 647.209 35.5557C647.209 35.7103 647.209 35.8608 647.209 36.0073C647.209 36.1213 647.209 36.2311 647.209 36.3369C647.209 36.9635 647.229 37.3908 647.27 37.6187C647.327 37.9279 647.421 38.2493 647.551 38.583C647.689 38.9492 647.758 39.2666 647.758 39.5352ZM656.926 39.6938C656.926 40.0194 656.726 40.3123 656.328 40.5728C655.937 40.825 655.404 40.9512 654.729 40.9512C653.467 40.9512 652.58 40.4832 652.067 39.5474C651.75 38.9614 651.591 37.5902 651.591 35.4336C651.591 33.277 651.555 32.0238 651.481 31.6738C651.408 31.3239 651.205 30.9821 650.871 30.6484C650.537 30.3148 650.371 30.0584 650.371 29.8794C650.371 29.8143 650.765 29.387 651.555 28.5977C651.726 28.4268 651.896 28.0483 652.067 27.4624C652.246 26.8765 652.373 26.4899 652.446 26.3027C652.69 25.7168 653.011 25.4238 653.41 25.4238H653.605C653.955 25.4238 654.204 25.5581 654.35 25.8267C654.407 25.9325 654.493 26.3149 654.606 26.9741C654.729 27.6252 654.867 28.0443 655.021 28.2314C655.176 28.4186 655.563 28.6261 656.181 28.854C656.808 29.0737 657.121 29.3097 657.121 29.562V29.6963C657.121 30.0218 656.763 30.2985 656.047 30.5264C655.339 30.7461 654.883 31.1001 654.68 31.5884C654.281 32.5731 654.082 34.1763 654.082 36.3979C654.082 37.4396 654.261 38.1476 654.619 38.522C654.838 38.7498 655.278 38.9085 655.937 38.998C656.596 39.0876 656.926 39.3195 656.926 39.6938ZM660.637 34.1885C660.14 33.6839 659.892 32.9759 659.892 32.0645C659.892 31.153 660.299 30.3717 661.113 29.7207C661.927 29.0615 662.936 28.7319 664.14 28.7319H664.458C665.524 28.7319 666.37 28.8825 666.997 29.1836C667.631 29.4847 667.949 29.9364 667.949 30.5386C667.949 31.1326 667.684 31.4297 667.155 31.4297C667.017 31.4297 666.626 31.2669 665.983 30.9414C665.34 30.6077 664.734 30.4409 664.165 30.4409C663.595 30.4409 663.135 30.5711 662.785 30.8315C662.443 31.0838 662.272 31.4338 662.272 31.8813C662.272 32.3289 662.513 32.7196 662.993 33.0532C663.269 33.2485 663.92 33.5578 664.946 33.981C665.979 34.4041 666.716 34.811 667.155 35.2017C667.863 35.8283 668.217 36.6299 668.217 37.6064C668.217 38.583 667.802 39.4212 666.972 40.1211C666.142 40.8128 665.064 41.1587 663.737 41.1587H663.42C662.085 41.1587 661.084 40.9674 660.417 40.585C659.75 40.1943 659.416 39.6898 659.416 39.0713C659.416 38.4447 659.676 38.1313 660.197 38.1313C660.368 38.1313 660.812 38.3511 661.528 38.7905C662.252 39.23 662.96 39.4497 663.652 39.4497C664.352 39.4497 664.877 39.3032 665.227 39.0103C665.576 38.7091 665.751 38.3348 665.751 37.8872C665.751 37.4315 665.532 37.0327 665.092 36.6909C664.856 36.5037 664.181 36.166 663.066 35.6777C661.951 35.1813 661.141 34.6849 660.637 34.1885ZM341.179 65.8486C341.179 66.9147 341.423 67.8018 341.911 68.5098C342.399 69.2178 342.998 69.5718 343.706 69.5718H344.072C344.91 69.5718 345.618 69.1486 346.196 68.3022C346.782 67.4559 347.075 66.3288 347.075 64.9209V64.1152C347.075 63.0247 346.835 62.1336 346.354 61.4419C345.882 60.742 345.272 60.3921 344.523 60.3921H344.279C343.409 60.3921 342.676 60.8234 342.082 61.686C341.496 62.5487 341.203 63.5781 341.203 64.7744L341.179 65.0552V65.8486ZM343.938 71.2319H343.547C342.123 71.2319 340.963 70.7355 340.068 69.7427C339.173 68.7498 338.725 67.342 338.725 65.519L338.737 65.3115C338.737 63.3096 339.266 61.7308 340.324 60.5752C340.878 59.9648 341.508 59.5173 342.216 59.2324C342.932 58.9395 343.612 58.793 344.255 58.793H344.853C345.569 58.793 346.257 58.9517 346.916 59.269C348.804 60.1805 349.748 61.8976 349.748 64.4204V64.6157C349.74 65.4377 349.606 66.2718 349.345 67.1182C348.824 68.7865 347.823 69.9665 346.342 70.6582C345.52 71.0407 344.719 71.2319 343.938 71.2319ZM351.896 65.9219V65.3604C351.896 64.335 352.055 63.4276 352.373 62.6382C352.983 61.1082 353.919 60.0503 355.18 59.4644C356.002 59.0737 356.853 58.8784 357.731 58.8784H358C358.968 58.8784 359.77 59.0697 360.405 59.4521C361.04 59.8346 361.357 60.3026 361.357 60.856C361.357 61.4989 361.048 61.8203 360.429 61.8203C360.315 61.8203 359.917 61.6413 359.233 61.2832C358.549 60.9333 357.988 60.7583 357.548 60.7583C357.54 60.7583 357.532 60.7583 357.524 60.7583C356.564 60.7583 355.811 61.1733 355.266 62.0034C354.729 62.8335 354.46 63.9159 354.46 65.2505C354.46 66.5851 354.745 67.5739 355.314 68.2168C355.892 68.8597 356.694 69.1812 357.719 69.1812C358.142 69.1812 358.724 69.0632 359.465 68.8271C360.205 68.583 360.657 68.4609 360.82 68.4609C361.153 68.4609 361.32 68.6359 361.32 68.9858C361.32 69.4578 360.852 69.9339 359.917 70.4141C358.981 70.8942 358.061 71.1343 357.158 71.1343C354.741 71.1343 353.142 70.1821 352.36 68.2778C352.051 67.521 351.896 66.7357 351.896 65.9219ZM363.493 65.9219V65.3604C363.493 64.335 363.652 63.4276 363.969 62.6382C364.58 61.1082 365.515 60.0503 366.777 59.4644C367.599 59.0737 368.449 58.8784 369.328 58.8784H369.597C370.565 58.8784 371.367 59.0697 372.001 59.4521C372.636 59.8346 372.954 60.3026 372.954 60.856C372.954 61.4989 372.644 61.8203 372.026 61.8203C371.912 61.8203 371.513 61.6413 370.83 61.2832C370.146 60.9333 369.584 60.7583 369.145 60.7583C369.137 60.7583 369.129 60.7583 369.121 60.7583C368.16 60.7583 367.408 61.1733 366.862 62.0034C366.325 62.8335 366.057 63.9159 366.057 65.2505C366.057 66.5851 366.341 67.5739 366.911 68.2168C367.489 68.8597 368.291 69.1812 369.316 69.1812C369.739 69.1812 370.321 69.0632 371.062 68.8271C371.802 68.583 372.254 68.4609 372.417 68.4609C372.75 68.4609 372.917 68.6359 372.917 68.9858C372.917 69.4578 372.449 69.9339 371.513 70.4141C370.577 70.8942 369.658 71.1343 368.754 71.1343C366.337 71.1343 364.738 70.1821 363.957 68.2778C363.648 67.521 363.493 66.7357 363.493 65.9219ZM375.603 60.0259C375.603 59.5132 376.034 59.2568 376.896 59.2568H377.177C377.714 59.2568 378.076 59.4725 378.264 59.9038C378.451 60.3351 378.544 61.1408 378.544 62.3208L378.398 66.3979C378.398 68.2941 379.077 69.2422 380.437 69.2422C380.933 69.2422 381.409 69.0672 381.865 68.7173C382.32 68.3674 382.658 67.9482 382.878 67.46C383.358 66.3857 383.598 64.4611 383.598 61.686L383.574 61.1489V60.6729C383.574 60.2415 383.671 59.9282 383.867 59.7329C384.062 59.5376 384.404 59.4399 384.892 59.4399C385.38 59.4399 385.702 59.5579 385.856 59.7939C386.011 60.0299 386.088 60.4124 386.088 60.9414L386.064 61.5884L386.015 64.4692C386.015 64.9331 386.044 65.6452 386.101 66.6055C386.158 67.5658 386.219 68.2697 386.284 68.7173C386.349 69.1567 386.381 69.4172 386.381 69.4985C386.381 70.2228 385.848 70.585 384.782 70.585C384.416 70.585 384.05 70.4507 383.684 70.1821C383.326 69.9054 383.069 69.7671 382.915 69.7671C382.768 69.7671 382.516 69.8566 382.158 70.0356C381.14 70.5483 380.274 70.8047 379.558 70.8047H379.252C378.089 70.8047 377.234 70.4466 376.689 69.7305C376.144 69.0143 375.871 67.7244 375.871 65.8608L375.993 62.1621C375.993 61.6982 375.928 61.2547 375.798 60.8315C375.668 60.4084 375.603 60.1398 375.603 60.0259ZM390.19 64.6523V63.7124C390.19 62.5812 390.129 61.7552 390.007 61.2344C389.885 60.7054 389.824 60.3351 389.824 60.1235C389.824 59.6271 390.186 59.3789 390.91 59.3789C391.634 59.3789 392.159 59.5132 392.485 59.7817C392.574 59.855 392.688 59.9974 392.827 60.209C392.973 60.4206 393.103 60.5264 393.217 60.5264C393.242 60.5264 393.596 60.3188 394.279 59.9038C394.963 59.4888 395.549 59.2812 396.037 59.2812H396.22C396.619 59.2812 396.936 59.3789 397.172 59.5742C397.408 59.7614 397.526 59.9933 397.526 60.27V60.4287C397.526 60.7624 397.408 61.0024 397.172 61.1489C396.944 61.2954 396.578 61.3687 396.074 61.3687C394.926 61.3687 394.088 61.7715 393.559 62.5771C393.038 63.3828 392.778 64.807 392.778 66.8496C392.778 67.1426 392.827 67.5942 392.924 68.2046C393.03 68.8149 393.083 69.2747 393.083 69.584C393.083 69.8932 392.916 70.1903 392.583 70.4751C392.249 70.7599 391.826 70.9023 391.313 70.9023H390.898C390.45 70.9023 390.104 70.7965 389.86 70.585C389.624 70.3652 389.506 70.1007 389.506 69.7915C389.506 69.4741 389.563 69.1527 389.677 68.8271C389.986 67.9482 390.141 66.9798 390.141 65.9219C390.174 65.3359 390.19 64.9128 390.19 64.6523ZM400.285 71.1953H399.907C399.5 71.1953 399.182 71.1017 398.955 70.9146C398.735 70.7274 398.625 70.4792 398.625 70.1699C398.609 70.1048 398.601 70.0519 398.601 70.0112L398.576 69.8037V69.584L398.588 69.5352V69.4253C398.605 69.3602 398.613 69.3073 398.613 69.2666C398.613 68.9004 398.735 68.6156 398.979 68.4121C399.231 68.2005 399.508 68.0947 399.809 68.0947L400.065 68.0581H400.395C401.282 68.0581 401.726 68.522 401.726 69.4497V69.6206L401.677 70.0356C401.677 70.41 401.534 70.6989 401.25 70.9023C400.973 71.0977 400.651 71.1953 400.285 71.1953Z" fill="black"/>
</svg>
