<svg width="758" height="87" viewBox="0 0 758 87" fill="none" xmlns="http://www.w3.org/2000/svg">
<rect width="758" height="87" rx="18" fill="#D9D9D9"/>
<path d="M27.058 54.1172C26.708 54.1172 26.533 53.9422 26.533 53.5922L26.512 46.7672C26.512 46.6272 26.54 46.5152 26.596 46.4312C26.652 46.3332 26.729 46.2212 26.827 46.0952L33.463 38.0102V33.7472L26.827 31.1852C26.617 31.1152 26.512 30.9052 26.512 30.5552V26.6492C26.512 26.2992 26.687 26.1242 27.037 26.1242H32.35C32.546 26.1242 32.7 26.1522 32.812 26.2082C32.924 26.2642 33.05 26.3272 33.19 26.3972L40.12 29.4422C40.302 29.5122 40.407 29.6102 40.435 29.7362C40.463 29.8622 40.477 30.0442 40.477 30.2822V39.3542C40.477 39.4942 40.442 39.5992 40.372 39.6692C40.316 39.7252 40.232 39.8302 40.12 39.9842L33.547 47.9852V48.8252H41.065C41.415 48.8252 41.59 49.0002 41.59 49.3502V53.5922C41.59 53.9422 41.415 54.1172 41.065 54.1172H27.058Z" fill="#2ECC71"/>
<path d="M76.3726 33.6626C77.5688 33.6626 78.5332 33.3208 79.2656 32.6372C80.0062 31.9536 80.3765 31.0422 80.3765 29.9028V29.3779C80.3765 28.4095 80.0591 27.6608 79.4243 27.1318C78.7977 26.5947 77.9717 26.3262 76.9463 26.3262H76.6045C75.7907 26.3262 75.2658 26.432 75.0298 26.6436C74.8019 26.8551 74.688 27.3027 74.688 27.9863C74.6717 28.1491 74.6636 28.2671 74.6636 28.3403L74.6147 29.1826C74.6147 29.264 74.6147 29.3454 74.6147 29.4268L74.5293 30.9893L74.5171 31.1113C74.5171 31.1927 74.5171 31.2741 74.5171 31.3555L74.4561 32.4175V32.8691C74.4561 33.3818 74.8019 33.6382 75.4937 33.6382L75.7012 33.6626H76.3726ZM72.4297 41.7437C71.4206 41.7437 70.916 41.3571 70.916 40.584C70.916 40.4701 71.0259 40.0957 71.2456 39.4609C71.4735 38.8262 71.6444 37.8496 71.7583 36.5312C71.8722 35.2048 71.9292 34.0247 71.9292 32.9912L71.9658 32.1611C71.9902 31.6077 72.0024 31.2456 72.0024 31.0747L72.0146 30.8062V29.2192C72.0146 27.7381 71.974 26.79 71.8926 26.375C71.8193 25.96 71.7827 25.6995 71.7827 25.5938C71.7827 25.252 72.1489 25.0282 72.8813 24.9224C73.9393 24.7677 75.4041 24.6904 77.2759 24.6904C80.0916 24.6904 81.9023 25.549 82.708 27.2661C83.0091 27.9009 83.1597 28.5438 83.1597 29.1948V29.5C83.1597 31.0544 82.6388 32.328 81.5972 33.3208C81.117 33.7847 80.6003 34.1387 80.0469 34.3828C79.5016 34.6188 78.7529 34.8345 77.8008 35.0298C75.5303 35.4937 74.395 36.3929 74.395 37.7275C74.395 38.0693 74.4398 38.46 74.5293 38.8994C74.6188 39.3307 74.6636 39.6359 74.6636 39.8149C74.6636 40.3439 74.4642 40.7996 74.0654 41.1821C73.6748 41.5565 73.2109 41.7437 72.6738 41.7437H72.4297ZM88.7017 40.4619H89.019C89.6864 40.4619 90.2723 40.2381 90.7769 39.7905C91.2896 39.3348 91.5459 38.8099 91.5459 38.2158L91.5703 38.0571V37.8984L91.5947 37.52V36.8242C91.5947 36.3522 91.3547 36.1162 90.8745 36.1162H90.3252L90.2397 36.1284L89.7637 36.165C89.5358 36.1976 89.373 36.2139 89.2754 36.2139C88.6162 36.2139 88.0059 36.4621 87.4443 36.9585C87.0537 37.3084 86.8584 37.8049 86.8584 38.4478V38.6919C86.8584 39.2371 87.0334 39.6685 87.3833 39.9858C87.7414 40.3032 88.1808 40.4619 88.7017 40.4619ZM85.9795 32.6616C85.4342 32.6616 85.1616 32.3117 85.1616 31.6118C85.1616 31.091 85.6011 30.6393 86.48 30.2568C87.367 29.8662 88.2866 29.6709 89.2388 29.6709H89.8491C90.6711 29.6709 91.3953 29.8255 92.022 30.1348C92.6486 30.4359 93.1247 30.8468 93.4502 31.3677C93.7839 31.8885 93.9873 32.568 94.0605 33.4062C94.0768 33.6016 94.085 34.5496 94.085 36.2505C94.085 37.9513 94.1053 38.932 94.146 39.1924C94.1948 39.4447 94.325 39.7539 94.5366 40.1201C94.7563 40.4863 94.8662 40.7874 94.8662 41.0234C94.8662 41.2594 94.7523 41.4629 94.5244 41.6338C94.3047 41.7965 93.9832 41.8779 93.5601 41.8779C93.1369 41.8779 92.6771 41.7762 92.1807 41.5728C91.6842 41.3612 91.3221 41.2554 91.0942 41.2554C91.0698 41.2554 90.6629 41.4019 89.8735 41.6948C89.0841 41.9797 88.4168 42.1221 87.8716 42.1221H87.603C86.6916 42.1221 85.9144 41.8332 85.2715 41.2554C84.6367 40.6776 84.3193 39.8556 84.3193 38.7896C84.3193 37.7235 84.6693 36.8934 85.3691 36.2993C86.069 35.6971 86.9194 35.2861 87.9204 35.0664C88.2215 35.0013 88.722 34.9159 89.4219 34.8101C90.1217 34.7043 90.5978 34.5944 90.8501 34.4805C91.2896 34.277 91.5093 33.8945 91.5093 33.333C91.5093 32.7633 91.3221 32.3198 90.9478 32.0024C90.5734 31.6769 90.1258 31.5142 89.605 31.5142C89.0923 31.5142 88.4168 31.7054 87.5786 32.0879C86.7404 32.4704 86.2074 32.6616 85.9795 32.6616ZM104.046 40.6938C104.046 41.0194 103.847 41.3123 103.448 41.5728C103.057 41.825 102.524 41.9512 101.849 41.9512C100.587 41.9512 99.7002 41.4832 99.1875 40.5474C98.8701 39.9614 98.7114 38.5902 98.7114 36.4336C98.7114 34.277 98.6748 33.0238 98.6016 32.6738C98.5283 32.3239 98.3249 31.9821 97.9912 31.6484C97.6576 31.3148 97.4907 31.0584 97.4907 30.8794C97.4907 30.8143 97.8854 30.387 98.6748 29.5977C98.8457 29.4268 99.0166 29.0483 99.1875 28.4624C99.3665 27.8765 99.4927 27.4899 99.5659 27.3027C99.8101 26.7168 100.132 26.4238 100.53 26.4238H100.726C101.076 26.4238 101.324 26.5581 101.47 26.8267C101.527 26.9325 101.613 27.3149 101.727 27.9741C101.849 28.6252 101.987 29.0443 102.142 29.2314C102.296 29.4186 102.683 29.6261 103.301 29.854C103.928 30.0737 104.241 30.3097 104.241 30.562V30.6963C104.241 31.0218 103.883 31.2985 103.167 31.5264C102.459 31.7461 102.003 32.1001 101.8 32.5884C101.401 33.5731 101.202 35.1763 101.202 37.3979C101.202 38.4396 101.381 39.1476 101.739 39.522C101.958 39.7498 102.398 39.9085 103.057 39.998C103.716 40.0876 104.046 40.3195 104.046 40.6938ZM113.226 40.6938C113.226 41.0194 113.026 41.3123 112.627 41.5728C112.237 41.825 111.704 41.9512 111.028 41.9512C109.767 41.9512 108.88 41.4832 108.367 40.5474C108.05 39.9614 107.891 38.5902 107.891 36.4336C107.891 34.277 107.854 33.0238 107.781 32.6738C107.708 32.3239 107.505 31.9821 107.171 31.6484C106.837 31.3148 106.67 31.0584 106.67 30.8794C106.67 30.8143 107.065 30.387 107.854 29.5977C108.025 29.4268 108.196 29.0483 108.367 28.4624C108.546 27.8765 108.672 27.4899 108.746 27.3027C108.99 26.7168 109.311 26.4238 109.71 26.4238H109.905C110.255 26.4238 110.503 26.5581 110.65 26.8267C110.707 26.9325 110.792 27.3149 110.906 27.9741C111.028 28.6252 111.167 29.0443 111.321 29.2314C111.476 29.4186 111.862 29.6261 112.481 29.854C113.108 30.0737 113.421 30.3097 113.421 30.562V30.6963C113.421 31.0218 113.063 31.2985 112.347 31.5264C111.639 31.7461 111.183 32.1001 110.979 32.5884C110.581 33.5731 110.381 35.1763 110.381 37.3979C110.381 38.4396 110.56 39.1476 110.918 39.522C111.138 39.7498 111.578 39.9085 112.237 39.998C112.896 40.0876 113.226 40.3195 113.226 40.6938ZM118.206 34.5781V34.7734C118.206 35.0176 118.43 35.1396 118.877 35.1396H119.17L119.244 35.1274L119.842 35.0786C120.468 34.9891 120.875 34.9443 121.062 34.9443C121.95 34.9443 122.617 34.7775 123.064 34.4438C123.276 34.2811 123.382 33.9922 123.382 33.5771V33.4429C123.382 32.8325 123.178 32.3483 122.771 31.9902C122.373 31.6322 121.893 31.4531 121.331 31.4531H121.246L121.172 31.4653C120.383 31.4653 119.691 31.799 119.097 32.4663C118.503 33.1336 118.206 33.8376 118.206 34.5781ZM120.867 42.1587H120.599C119.044 42.1587 117.807 41.6663 116.888 40.6816C115.968 39.6888 115.508 38.3664 115.508 36.7144V36.1772C115.508 35.3879 115.663 34.5863 115.972 33.7725C116.599 32.1449 117.62 31.0218 119.036 30.4033C119.785 30.0697 120.546 29.9028 121.319 29.9028H121.844C122.91 29.9028 123.809 30.2609 124.542 30.9771C125.282 31.6851 125.652 32.6006 125.652 33.7236V33.9678C125.652 34.7653 125.335 35.3309 124.7 35.6646C124.261 35.9006 123.235 36.1366 121.624 36.3726C120.013 36.6086 119.134 36.751 118.987 36.7998C118.499 36.9707 118.255 37.2962 118.255 37.7764C118.255 38.4437 118.54 39.0133 119.109 39.4854C119.679 39.9574 120.444 40.1934 121.404 40.1934C121.852 40.1934 122.462 40.0713 123.235 39.8271C124.008 39.583 124.456 39.4609 124.578 39.4609C124.993 39.4609 125.201 39.64 125.201 39.998C125.201 40.4782 124.733 40.9583 123.797 41.4385C122.861 41.9186 121.884 42.1587 120.867 42.1587ZM129.083 35.6523V34.7124C129.083 33.5812 129.021 32.7552 128.899 32.2344C128.777 31.7054 128.716 31.3351 128.716 31.1235C128.716 30.6271 129.078 30.3789 129.803 30.3789C130.527 30.3789 131.052 30.5132 131.377 30.7817C131.467 30.855 131.581 30.9974 131.719 31.209C131.866 31.4206 131.996 31.5264 132.11 31.5264C132.134 31.5264 132.488 31.3188 133.172 30.9038C133.855 30.4888 134.441 30.2812 134.93 30.2812H135.113C135.512 30.2812 135.829 30.3789 136.065 30.5742C136.301 30.7614 136.419 30.9933 136.419 31.27V31.4287C136.419 31.7624 136.301 32.0024 136.065 32.1489C135.837 32.2954 135.471 32.3687 134.966 32.3687C133.819 32.3687 132.981 32.7715 132.452 33.5771C131.931 34.3828 131.67 35.807 131.67 37.8496C131.67 38.1426 131.719 38.5942 131.817 39.2046C131.923 39.8149 131.976 40.2747 131.976 40.584C131.976 40.8932 131.809 41.1903 131.475 41.4751C131.141 41.7599 130.718 41.9023 130.206 41.9023H129.791C129.343 41.9023 128.997 41.7965 128.753 41.585C128.517 41.3652 128.399 41.1007 128.399 40.7915C128.399 40.4741 128.456 40.1527 128.57 39.8271C128.879 38.9482 129.034 37.9798 129.034 36.9219C129.066 36.3359 129.083 35.9128 129.083 35.6523ZM149.59 40.5352C149.59 41.1374 149.065 41.4385 148.016 41.4385C147.422 41.4385 147.023 41.2961 146.819 41.0112C146.722 40.8729 146.673 40.5474 146.673 40.0347L146.636 39.2534C146.579 38.3989 146.551 37.5404 146.551 36.6777C146.551 34.8141 146.388 33.5649 146.062 32.9302C145.745 32.2873 145.208 31.9658 144.451 31.9658C143.947 31.9658 143.479 32.1164 143.047 32.4175C142.624 32.7186 142.299 33.1377 142.071 33.6748C141.599 34.7734 141.363 36.8039 141.363 39.7661C141.363 40.4416 141.233 40.9176 140.972 41.1943C140.72 41.471 140.394 41.6094 139.996 41.6094H139.751C138.84 41.6094 138.384 41.2472 138.384 40.5229V40.23C138.384 40.1405 138.433 39.9451 138.531 39.644L138.726 39.0825C138.921 38.4233 139.019 37.0114 139.019 34.8467L139.08 31.2212C139.08 30.7573 139.332 30.5254 139.837 30.5254C140.341 30.5254 140.838 30.6922 141.326 31.0259C141.823 31.3595 142.136 31.5264 142.266 31.5264C142.404 31.5264 142.645 31.4328 142.986 31.2456C144.134 30.619 145.053 30.3057 145.745 30.3057H146.062C147.308 30.3057 148.182 30.8672 148.687 31.9902C148.931 32.5192 149.053 33.6585 149.053 35.4082V35.4937C149.053 35.6401 149.049 35.7866 149.041 35.9331C149.041 36.3319 149.041 36.5394 149.041 36.5557C149.041 36.7103 149.041 36.8608 149.041 37.0073C149.041 37.1213 149.041 37.2311 149.041 37.3369C149.041 37.9635 149.061 38.3908 149.102 38.6187C149.159 38.9279 149.253 39.2493 149.383 39.583C149.521 39.9492 149.59 40.2666 149.59 40.5352ZM161.419 36.8486C161.419 37.9147 161.663 38.8018 162.151 39.5098C162.64 40.2178 163.238 40.5718 163.946 40.5718H164.312C165.15 40.5718 165.858 40.1486 166.436 39.3022C167.022 38.4559 167.315 37.3288 167.315 35.9209V35.1152C167.315 34.0247 167.075 33.1336 166.595 32.4419C166.123 31.742 165.512 31.3921 164.764 31.3921H164.52C163.649 31.3921 162.916 31.8234 162.322 32.686C161.736 33.5487 161.443 34.5781 161.443 35.7744L161.419 36.0552V36.8486ZM164.178 42.2319H163.787C162.363 42.2319 161.203 41.7355 160.308 40.7427C159.413 39.7498 158.965 38.342 158.965 36.519L158.978 36.3115C158.978 34.3096 159.507 32.7308 160.564 31.5752C161.118 30.9648 161.749 30.5173 162.457 30.2324C163.173 29.9395 163.852 29.793 164.495 29.793H165.093C165.809 29.793 166.497 29.9517 167.156 30.269C169.044 31.1805 169.988 32.8976 169.988 35.4204V35.6157C169.98 36.4377 169.846 37.2718 169.585 38.1182C169.065 39.7865 168.064 40.9665 166.583 41.6582C165.761 42.0407 164.959 42.2319 164.178 42.2319ZM174.395 42.8911H174.114C173.707 42.8911 173.361 42.7731 173.077 42.5371C172.8 42.3011 172.662 42.0203 172.662 41.6948C172.662 41.3693 172.759 40.9543 172.955 40.4497C173.158 39.937 173.305 39.3145 173.394 38.582C173.492 37.8415 173.541 36.7591 173.541 35.335C173.541 33.9108 173.471 33.0034 173.333 32.6128C173.309 32.5477 173.195 32.332 172.991 31.9658C172.788 31.5915 172.686 31.2741 172.686 31.0137C172.686 30.7533 172.82 30.4196 173.089 30.0127C173.366 29.6058 173.549 29.3047 173.638 29.1094C174.737 26.79 175.311 25.6019 175.359 25.5449C176.206 24.5602 177.349 24.0679 178.79 24.0679C179.457 24.0679 179.97 24.1818 180.328 24.4097C180.686 24.6375 180.865 24.9346 180.865 25.3008C180.865 25.6589 180.653 25.9193 180.23 26.082C180.116 26.1227 179.965 26.1431 179.778 26.1431C179.64 26.1349 179.481 26.1227 179.302 26.1064C178.879 26.0576 178.57 26.0332 178.375 26.0332C177.846 26.0332 177.414 26.2611 177.081 26.7168C176.755 27.1644 176.592 27.6812 176.592 28.2671C176.592 28.853 176.71 29.2803 176.946 29.5488C177.02 29.6302 177.365 29.8337 177.984 30.1592C178.611 30.4766 178.924 30.798 178.924 31.1235C178.924 31.3026 178.574 31.5793 177.874 31.9536C177.378 32.214 177.011 32.6779 176.775 33.3452C176.263 34.7775 176.006 36.6615 176.006 38.9971L176.238 41.0601C176.238 41.6216 176.071 42.0651 175.738 42.3906C175.412 42.7243 174.965 42.8911 174.395 42.8911ZM192.413 26.1309V26.2773C192.413 26.6924 192.291 27.0464 192.046 27.3394C191.81 27.6242 191.444 27.7666 190.948 27.7666H190.752L190.374 27.7178C190.154 27.7178 189.943 27.616 189.739 27.4126C189.536 27.2091 189.434 26.904 189.434 26.4971V26.3506L189.495 25.9111C189.495 25.7402 189.597 25.5286 189.8 25.2764C190.012 25.0241 190.28 24.8979 190.606 24.8979L190.887 24.8613H191.131L191.473 24.9102C191.684 24.9102 191.892 25.016 192.095 25.2275C192.307 25.431 192.413 25.7321 192.413 26.1309ZM191.839 31.2822L191.705 34.5659L191.68 34.8955L191.644 35.8965V36.3726C191.644 37.5444 191.676 38.3135 191.741 38.6797C191.814 39.0459 191.949 39.404 192.144 39.7539C192.339 40.0957 192.437 40.3439 192.437 40.4985V40.6084C192.437 41.0072 192.234 41.3245 191.827 41.5605C191.42 41.7965 190.866 41.9146 190.167 41.9146H189.861C189.454 41.9146 189.145 41.825 188.934 41.646C188.722 41.4588 188.616 41.2594 188.616 41.0479V40.7793C188.616 40.6735 188.71 40.2992 188.897 39.6562C189.084 39.0052 189.178 38.1222 189.178 37.0073C189.202 36.6899 189.214 36.4702 189.214 36.3481L189.251 35.6768L189.275 35.3472C189.316 34.7775 189.336 34.334 189.336 34.0166L189.349 33.5283C189.349 32.918 189.247 32.3768 189.043 31.9048C188.848 31.4328 188.75 31.1398 188.75 31.0259C188.75 30.4399 189.304 30.147 190.411 30.147H190.85C191.265 30.147 191.534 30.2568 191.656 30.4766C191.778 30.6882 191.839 30.9567 191.839 31.2822ZM206.646 40.5352C206.646 41.1374 206.121 41.4385 205.071 41.4385C204.477 41.4385 204.078 41.2961 203.875 41.0112C203.777 40.8729 203.729 40.5474 203.729 40.0347L203.692 39.2534C203.635 38.3989 203.606 37.5404 203.606 36.6777C203.606 34.8141 203.444 33.5649 203.118 32.9302C202.801 32.2873 202.264 31.9658 201.507 31.9658C201.002 31.9658 200.534 32.1164 200.103 32.4175C199.68 32.7186 199.354 33.1377 199.126 33.6748C198.654 34.7734 198.418 36.8039 198.418 39.7661C198.418 40.4416 198.288 40.9176 198.028 41.1943C197.776 41.471 197.45 41.6094 197.051 41.6094H196.807C195.896 41.6094 195.44 41.2472 195.44 40.5229V40.23C195.44 40.1405 195.489 39.9451 195.586 39.644L195.782 39.0825C195.977 38.4233 196.075 37.0114 196.075 34.8467L196.136 31.2212C196.136 30.7573 196.388 30.5254 196.893 30.5254C197.397 30.5254 197.894 30.6922 198.382 31.0259C198.878 31.3595 199.192 31.5264 199.322 31.5264C199.46 31.5264 199.7 31.4328 200.042 31.2456C201.189 30.619 202.109 30.3057 202.801 30.3057H203.118C204.363 30.3057 205.238 30.8672 205.743 31.9902C205.987 32.5192 206.109 33.6585 206.109 35.4082V35.4937C206.109 35.6401 206.105 35.7866 206.097 35.9331C206.097 36.3319 206.097 36.5394 206.097 36.5557C206.097 36.7103 206.097 36.8608 206.097 37.0073C206.097 37.1213 206.097 37.2311 206.097 37.3369C206.097 37.9635 206.117 38.3908 206.158 38.6187C206.215 38.9279 206.308 39.2493 206.438 39.583C206.577 39.9492 206.646 40.2666 206.646 40.5352ZM211.407 42.8911H211.126C210.719 42.8911 210.373 42.7731 210.088 42.5371C209.812 42.3011 209.673 42.0203 209.673 41.6948C209.673 41.3693 209.771 40.9543 209.966 40.4497C210.17 39.937 210.316 39.3145 210.406 38.582C210.503 37.8415 210.552 36.7591 210.552 35.335C210.552 33.9108 210.483 33.0034 210.345 32.6128C210.32 32.5477 210.206 32.332 210.003 31.9658C209.799 31.5915 209.698 31.2741 209.698 31.0137C209.698 30.7533 209.832 30.4196 210.101 30.0127C210.377 29.6058 210.56 29.3047 210.65 29.1094C211.749 26.79 212.322 25.6019 212.371 25.5449C213.217 24.5602 214.361 24.0679 215.801 24.0679C216.469 24.0679 216.981 24.1818 217.339 24.4097C217.697 24.6375 217.876 24.9346 217.876 25.3008C217.876 25.6589 217.665 25.9193 217.242 26.082C217.128 26.1227 216.977 26.1431 216.79 26.1431C216.652 26.1349 216.493 26.1227 216.314 26.1064C215.891 26.0576 215.582 26.0332 215.386 26.0332C214.857 26.0332 214.426 26.2611 214.092 26.7168C213.767 27.1644 213.604 27.6812 213.604 28.2671C213.604 28.853 213.722 29.2803 213.958 29.5488C214.031 29.6302 214.377 29.8337 214.996 30.1592C215.622 30.4766 215.936 30.798 215.936 31.1235C215.936 31.3026 215.586 31.5793 214.886 31.9536C214.389 32.214 214.023 32.6779 213.787 33.3452C213.274 34.7775 213.018 36.6615 213.018 38.9971L213.25 41.0601C213.25 41.6216 213.083 42.0651 212.75 42.3906C212.424 42.7243 211.976 42.8911 211.407 42.8911ZM219.366 35.6523V34.7124C219.366 33.5812 219.305 32.7552 219.183 32.2344C219.061 31.7054 219 31.3351 219 31.1235C219 30.6271 219.362 30.3789 220.086 30.3789C220.81 30.3789 221.335 30.5132 221.661 30.7817C221.75 30.855 221.864 30.9974 222.002 31.209C222.149 31.4206 222.279 31.5264 222.393 31.5264C222.417 31.5264 222.771 31.3188 223.455 30.9038C224.139 30.4888 224.725 30.2812 225.213 30.2812H225.396C225.795 30.2812 226.112 30.3789 226.348 30.5742C226.584 30.7614 226.702 30.9933 226.702 31.27V31.4287C226.702 31.7624 226.584 32.0024 226.348 32.1489C226.12 32.2954 225.754 32.3687 225.25 32.3687C224.102 32.3687 223.264 32.7715 222.735 33.5771C222.214 34.3828 221.954 35.807 221.954 37.8496C221.954 38.1426 222.002 38.5942 222.1 39.2046C222.206 39.8149 222.259 40.2747 222.259 40.584C222.259 40.8932 222.092 41.1903 221.758 41.4751C221.425 41.7599 221.001 41.9023 220.489 41.9023H220.074C219.626 41.9023 219.28 41.7965 219.036 41.585C218.8 41.3652 218.682 41.1007 218.682 40.7915C218.682 40.4741 218.739 40.1527 218.853 39.8271C219.162 38.9482 219.317 37.9798 219.317 36.9219C219.349 36.3359 219.366 35.9128 219.366 35.6523ZM232.427 40.4619H232.745C233.412 40.4619 233.998 40.2381 234.502 39.7905C235.015 39.3348 235.271 38.8099 235.271 38.2158L235.296 38.0571V37.8984L235.32 37.52V36.8242C235.32 36.3522 235.08 36.1162 234.6 36.1162H234.051L233.965 36.1284L233.489 36.165C233.261 36.1976 233.099 36.2139 233.001 36.2139C232.342 36.2139 231.731 36.4621 231.17 36.9585C230.779 37.3084 230.584 37.8049 230.584 38.4478V38.6919C230.584 39.2371 230.759 39.6685 231.109 39.9858C231.467 40.3032 231.906 40.4619 232.427 40.4619ZM229.705 32.6616C229.16 32.6616 228.887 32.3117 228.887 31.6118C228.887 31.091 229.327 30.6393 230.206 30.2568C231.093 29.8662 232.012 29.6709 232.964 29.6709H233.575C234.397 29.6709 235.121 29.8255 235.748 30.1348C236.374 30.4359 236.85 30.8468 237.176 31.3677C237.509 31.8885 237.713 32.568 237.786 33.4062C237.802 33.6016 237.811 34.5496 237.811 36.2505C237.811 37.9513 237.831 38.932 237.872 39.1924C237.92 39.4447 238.051 39.7539 238.262 40.1201C238.482 40.4863 238.592 40.7874 238.592 41.0234C238.592 41.2594 238.478 41.4629 238.25 41.6338C238.03 41.7965 237.709 41.8779 237.286 41.8779C236.862 41.8779 236.403 41.7762 235.906 41.5728C235.41 41.3612 235.048 41.2554 234.82 41.2554C234.795 41.2554 234.389 41.4019 233.599 41.6948C232.81 41.9797 232.142 42.1221 231.597 42.1221H231.329C230.417 42.1221 229.64 41.8332 228.997 41.2554C228.362 40.6776 228.045 39.8556 228.045 38.7896C228.045 37.7235 228.395 36.8934 229.095 36.2993C229.795 35.6971 230.645 35.2861 231.646 35.0664C231.947 35.0013 232.448 34.9159 233.147 34.8101C233.847 34.7043 234.323 34.5944 234.576 34.4805C235.015 34.277 235.235 33.8945 235.235 33.333C235.235 32.7633 235.048 32.3198 234.673 32.0024C234.299 31.6769 233.851 31.5142 233.331 31.5142C232.818 31.5142 232.142 31.7054 231.304 32.0879C230.466 32.4704 229.933 32.6616 229.705 32.6616ZM241.058 36.9219V36.3604C241.058 35.335 241.216 34.4276 241.534 33.6382C242.144 32.1082 243.08 31.0503 244.341 30.4644C245.163 30.0737 246.014 29.8784 246.893 29.8784H247.161C248.13 29.8784 248.931 30.0697 249.566 30.4521C250.201 30.8346 250.518 31.3026 250.518 31.856C250.518 32.4989 250.209 32.8203 249.59 32.8203C249.476 32.8203 249.078 32.6413 248.394 32.2832C247.71 31.9333 247.149 31.7583 246.709 31.7583C246.701 31.7583 246.693 31.7583 246.685 31.7583C245.725 31.7583 244.972 32.1733 244.427 33.0034C243.89 33.8335 243.621 34.9159 243.621 36.2505C243.621 37.5851 243.906 38.5739 244.476 39.2168C245.053 39.8597 245.855 40.1812 246.88 40.1812C247.304 40.1812 247.885 40.0632 248.626 39.8271C249.367 39.583 249.818 39.4609 249.981 39.4609C250.315 39.4609 250.481 39.6359 250.481 39.9858C250.481 40.4578 250.014 40.9339 249.078 41.4141C248.142 41.8942 247.222 42.1343 246.319 42.1343C243.902 42.1343 242.303 41.1821 241.521 39.2778C241.212 38.521 241.058 37.7357 241.058 36.9219ZM259.466 40.6938C259.466 41.0194 259.266 41.3123 258.868 41.5728C258.477 41.825 257.944 41.9512 257.269 41.9512C256.007 41.9512 255.12 41.4832 254.607 40.5474C254.29 39.9614 254.131 38.5902 254.131 36.4336C254.131 34.277 254.095 33.0238 254.021 32.6738C253.948 32.3239 253.745 31.9821 253.411 31.6484C253.077 31.3148 252.911 31.0584 252.911 30.8794C252.911 30.8143 253.305 30.387 254.095 29.5977C254.266 29.4268 254.437 29.0483 254.607 28.4624C254.786 27.8765 254.913 27.4899 254.986 27.3027C255.23 26.7168 255.551 26.4238 255.95 26.4238H256.146C256.495 26.4238 256.744 26.5581 256.89 26.8267C256.947 26.9325 257.033 27.3149 257.146 27.9741C257.269 28.6252 257.407 29.0443 257.562 29.2314C257.716 29.4186 258.103 29.6261 258.721 29.854C259.348 30.0737 259.661 30.3097 259.661 30.562V30.6963C259.661 31.0218 259.303 31.2985 258.587 31.5264C257.879 31.7461 257.423 32.1001 257.22 32.5884C256.821 33.5731 256.622 35.1763 256.622 37.3979C256.622 38.4396 256.801 39.1476 257.159 39.522C257.378 39.7498 257.818 39.9085 258.477 39.998C259.136 40.0876 259.466 40.3195 259.466 40.6938ZM266.241 26.1309V26.2773C266.241 26.6924 266.119 27.0464 265.875 27.3394C265.639 27.6242 265.272 27.7666 264.776 27.7666H264.581L264.202 27.7178C263.982 27.7178 263.771 27.616 263.567 27.4126C263.364 27.2091 263.262 26.904 263.262 26.4971V26.3506L263.323 25.9111C263.323 25.7402 263.425 25.5286 263.628 25.2764C263.84 25.0241 264.109 24.8979 264.434 24.8979L264.715 24.8613H264.959L265.301 24.9102C265.512 24.9102 265.72 25.016 265.923 25.2275C266.135 25.431 266.241 25.7321 266.241 26.1309ZM265.667 31.2822L265.533 34.5659L265.508 34.8955L265.472 35.8965V36.3726C265.472 37.5444 265.504 38.3135 265.569 38.6797C265.643 39.0459 265.777 39.404 265.972 39.7539C266.167 40.0957 266.265 40.3439 266.265 40.4985V40.6084C266.265 41.0072 266.062 41.3245 265.655 41.5605C265.248 41.7965 264.694 41.9146 263.995 41.9146H263.689C263.283 41.9146 262.973 41.825 262.762 41.646C262.55 41.4588 262.444 41.2594 262.444 41.0479V40.7793C262.444 40.6735 262.538 40.2992 262.725 39.6562C262.912 39.0052 263.006 38.1222 263.006 37.0073C263.03 36.6899 263.042 36.4702 263.042 36.3481L263.079 35.6768L263.104 35.3472C263.144 34.7775 263.165 34.334 263.165 34.0166L263.177 33.5283C263.177 32.918 263.075 32.3768 262.872 31.9048C262.676 31.4328 262.579 31.1398 262.579 31.0259C262.579 30.4399 263.132 30.147 264.239 30.147H264.678C265.093 30.147 265.362 30.2568 265.484 30.4766C265.606 30.6882 265.667 30.9567 265.667 31.2822ZM271.404 36.8486C271.404 37.9147 271.648 38.8018 272.137 39.5098C272.625 40.2178 273.223 40.5718 273.931 40.5718H274.297C275.136 40.5718 275.844 40.1486 276.421 39.3022C277.007 38.4559 277.3 37.3288 277.3 35.9209V35.1152C277.3 34.0247 277.06 33.1336 276.58 32.4419C276.108 31.742 275.498 31.3921 274.749 31.3921H274.505C273.634 31.3921 272.902 31.8234 272.308 32.686C271.722 33.5487 271.429 34.5781 271.429 35.7744L271.404 36.0552V36.8486ZM274.163 42.2319H273.772C272.348 42.2319 271.189 41.7355 270.293 40.7427C269.398 39.7498 268.951 38.342 268.951 36.519L268.963 36.3115C268.963 34.3096 269.492 32.7308 270.55 31.5752C271.103 30.9648 271.734 30.5173 272.442 30.2324C273.158 29.9395 273.838 29.793 274.48 29.793H275.079C275.795 29.793 276.482 29.9517 277.142 30.269C279.03 31.1805 279.974 32.8976 279.974 35.4204V35.6157C279.965 36.4377 279.831 37.2718 279.571 38.1182C279.05 39.7865 278.049 40.9665 276.568 41.6582C275.746 42.0407 274.944 42.2319 274.163 42.2319ZM293.707 40.5352C293.707 41.1374 293.182 41.4385 292.132 41.4385C291.538 41.4385 291.139 41.2961 290.936 41.0112C290.838 40.8729 290.789 40.5474 290.789 40.0347L290.752 39.2534C290.695 38.3989 290.667 37.5404 290.667 36.6777C290.667 34.8141 290.504 33.5649 290.179 32.9302C289.861 32.2873 289.324 31.9658 288.567 31.9658C288.063 31.9658 287.595 32.1164 287.164 32.4175C286.74 32.7186 286.415 33.1377 286.187 33.6748C285.715 34.7734 285.479 36.8039 285.479 39.7661C285.479 40.4416 285.349 40.9176 285.088 41.1943C284.836 41.471 284.511 41.6094 284.112 41.6094H283.868C282.956 41.6094 282.5 41.2472 282.5 40.5229V40.23C282.5 40.1405 282.549 39.9451 282.647 39.644L282.842 39.0825C283.038 38.4233 283.135 37.0114 283.135 34.8467L283.196 31.2212C283.196 30.7573 283.449 30.5254 283.953 30.5254C284.458 30.5254 284.954 30.6922 285.442 31.0259C285.939 31.3595 286.252 31.5264 286.382 31.5264C286.521 31.5264 286.761 31.4328 287.103 31.2456C288.25 30.619 289.17 30.3057 289.861 30.3057H290.179C291.424 30.3057 292.299 30.8672 292.803 31.9902C293.047 32.5192 293.169 33.6585 293.169 35.4082V35.4937C293.169 35.6401 293.165 35.7866 293.157 35.9331C293.157 36.3319 293.157 36.5394 293.157 36.5557C293.157 36.7103 293.157 36.8608 293.157 37.0073C293.157 37.1213 293.157 37.2311 293.157 37.3369C293.157 37.9635 293.178 38.3908 293.218 38.6187C293.275 38.9279 293.369 39.2493 293.499 39.583C293.637 39.9492 293.707 40.2666 293.707 40.5352ZM297.454 35.1885C296.958 34.6839 296.709 33.9759 296.709 33.0645C296.709 32.153 297.116 31.3717 297.93 30.7207C298.744 30.0615 299.753 29.7319 300.958 29.7319H301.275C302.341 29.7319 303.187 29.8825 303.814 30.1836C304.449 30.4847 304.766 30.9364 304.766 31.5386C304.766 32.1326 304.502 32.4297 303.973 32.4297C303.834 32.4297 303.444 32.2669 302.801 31.9414C302.158 31.6077 301.552 31.4409 300.982 31.4409C300.412 31.4409 299.952 31.5711 299.603 31.8315C299.261 32.0838 299.09 32.4338 299.09 32.8813C299.09 33.3289 299.33 33.7196 299.81 34.0532C300.087 34.2485 300.738 34.5578 301.763 34.981C302.797 35.4041 303.533 35.811 303.973 36.2017C304.681 36.8283 305.035 37.6299 305.035 38.6064C305.035 39.583 304.62 40.4212 303.79 41.1211C302.959 41.8128 301.881 42.1587 300.555 42.1587H300.237C298.903 42.1587 297.902 41.9674 297.234 41.585C296.567 41.1943 296.233 40.6898 296.233 40.0713C296.233 39.4447 296.494 39.1313 297.015 39.1313C297.186 39.1313 297.629 39.3511 298.345 39.7905C299.069 40.23 299.778 40.4497 300.469 40.4497C301.169 40.4497 301.694 40.3032 302.044 40.0103C302.394 39.7091 302.569 39.3348 302.569 38.8872C302.569 38.4315 302.349 38.0327 301.91 37.6909C301.674 37.5037 300.998 37.166 299.883 36.6777C298.768 36.1813 297.959 35.6849 297.454 35.1885ZM309.368 42.1953H308.99C308.583 42.1953 308.265 42.1017 308.038 41.9146C307.818 41.7274 307.708 41.4792 307.708 41.1699C307.692 41.1048 307.684 41.0519 307.684 41.0112L307.659 40.8037V40.584L307.671 40.5352V40.4253C307.688 40.3602 307.696 40.3073 307.696 40.2666C307.696 39.9004 307.818 39.6156 308.062 39.4121C308.314 39.2005 308.591 39.0947 308.892 39.0947L309.148 39.0581H309.478C310.365 39.0581 310.809 39.522 310.809 40.4497V40.6206L310.76 41.0356C310.76 41.41 310.617 41.6989 310.333 41.9023C310.056 42.0977 309.734 42.1953 309.368 42.1953ZM324.688 29.2559C324.631 30.1104 324.603 30.7451 324.603 31.1602L324.578 31.5508L324.542 32.7104L324.517 33.1011L324.468 34.4561C324.452 34.7165 324.444 34.9118 324.444 35.042L324.419 35.4326C324.403 35.693 324.395 35.8843 324.395 36.0063L324.371 36.3848C324.362 36.515 324.358 36.6452 324.358 36.7754L324.334 37.1538L324.297 38.4844V39.2168C324.297 39.6074 324.444 39.8719 324.737 40.0103C325.03 40.1405 325.457 40.2056 326.019 40.2056H326.568C328.309 40.2056 329.685 39.5586 330.694 38.2646C331.133 37.7031 331.491 36.9626 331.768 36.043C332.045 35.1234 332.183 34.0898 332.183 32.9424V32.7349C332.183 29.7319 331.198 27.7869 329.229 26.8999C328.643 26.6395 327.984 26.5093 327.251 26.5093H326.69C325.778 26.5093 325.217 26.6558 325.005 26.9487C324.794 27.2336 324.688 28.0026 324.688 29.2559ZM321.661 25.8257C321.661 25.4351 321.921 25.1909 322.442 25.0933C323.37 24.9224 324.721 24.8369 326.495 24.8369H327.081C330.873 24.8369 333.339 26.2855 334.478 29.1826C334.877 30.1917 335.076 31.327 335.076 32.5884V32.6616V32.9668C335.076 34.277 334.844 35.571 334.38 36.8486C333.917 38.1182 333.237 39.1354 332.342 39.9004C331.455 40.6654 330.494 41.2065 329.461 41.5239C328.427 41.8332 327.081 41.9878 325.42 41.9878H325.14L324.847 41.9756C323.073 41.9756 321.933 41.8942 321.429 41.7314C321.16 41.6419 321.026 41.4466 321.026 41.1455C321.026 41.056 321.132 40.7793 321.343 40.3154C321.726 39.4772 321.917 37.9676 321.917 35.7866L322.063 32.0879L322.088 31.5264L322.125 29.5854C322.125 28.4299 322.108 27.7218 322.076 27.4614C322.043 27.201 321.966 26.8918 321.844 26.5337C321.722 26.1756 321.661 25.9396 321.661 25.8257ZM339.983 34.5781V34.7734C339.983 35.0176 340.207 35.1396 340.655 35.1396H340.948L341.021 35.1274L341.619 35.0786C342.246 34.9891 342.653 34.9443 342.84 34.9443C343.727 34.9443 344.394 34.7775 344.842 34.4438C345.053 34.2811 345.159 33.9922 345.159 33.5771V33.4429C345.159 32.8325 344.956 32.3483 344.549 31.9902C344.15 31.6322 343.67 31.4531 343.108 31.4531H343.023L342.95 31.4653C342.16 31.4653 341.469 31.799 340.875 32.4663C340.28 33.1336 339.983 33.8376 339.983 34.5781ZM342.645 42.1587H342.376C340.822 42.1587 339.585 41.6663 338.665 40.6816C337.745 39.6888 337.286 38.3664 337.286 36.7144V36.1772C337.286 35.3879 337.44 34.5863 337.75 33.7725C338.376 32.1449 339.397 31.0218 340.813 30.4033C341.562 30.0697 342.323 29.9028 343.096 29.9028H343.621C344.687 29.9028 345.586 30.2609 346.319 30.9771C347.059 31.6851 347.43 32.6006 347.43 33.7236V33.9678C347.43 34.7653 347.112 35.3309 346.478 35.6646C346.038 35.9006 345.013 36.1366 343.401 36.3726C341.79 36.6086 340.911 36.751 340.765 36.7998C340.276 36.9707 340.032 37.2962 340.032 37.7764C340.032 38.4437 340.317 39.0133 340.887 39.4854C341.456 39.9574 342.221 40.1934 343.182 40.1934C343.629 40.1934 344.24 40.0713 345.013 39.8271C345.786 39.583 346.233 39.4609 346.355 39.4609C346.771 39.4609 346.978 39.64 346.978 39.998C346.978 40.4782 346.51 40.9583 345.574 41.4385C344.638 41.9186 343.662 42.1587 342.645 42.1587ZM352.007 42.8911H351.727C351.32 42.8911 350.974 42.7731 350.689 42.5371C350.412 42.3011 350.274 42.0203 350.274 41.6948C350.274 41.3693 350.372 40.9543 350.567 40.4497C350.77 39.937 350.917 39.3145 351.006 38.582C351.104 37.8415 351.153 36.7591 351.153 35.335C351.153 33.9108 351.084 33.0034 350.945 32.6128C350.921 32.5477 350.807 32.332 350.604 31.9658C350.4 31.5915 350.298 31.2741 350.298 31.0137C350.298 30.7533 350.433 30.4196 350.701 30.0127C350.978 29.6058 351.161 29.3047 351.25 29.1094C352.349 26.79 352.923 25.6019 352.972 25.5449C353.818 24.5602 354.961 24.0679 356.402 24.0679C357.069 24.0679 357.582 24.1818 357.94 24.4097C358.298 24.6375 358.477 24.9346 358.477 25.3008C358.477 25.6589 358.265 25.9193 357.842 26.082C357.728 26.1227 357.578 26.1431 357.391 26.1431C357.252 26.1349 357.094 26.1227 356.915 26.1064C356.491 26.0576 356.182 26.0332 355.987 26.0332C355.458 26.0332 355.027 26.2611 354.693 26.7168C354.367 27.1644 354.205 27.6812 354.205 28.2671C354.205 28.853 354.323 29.2803 354.559 29.5488C354.632 29.6302 354.978 29.8337 355.596 30.1592C356.223 30.4766 356.536 30.798 356.536 31.1235C356.536 31.3026 356.186 31.5793 355.486 31.9536C354.99 32.214 354.624 32.6779 354.388 33.3452C353.875 34.7775 353.619 36.6615 353.619 38.9971L353.851 41.0601C353.851 41.6216 353.684 42.0651 353.35 42.3906C353.025 42.7243 352.577 42.8911 352.007 42.8911ZM361.272 34.5781V34.7734C361.272 35.0176 361.496 35.1396 361.944 35.1396H362.237L362.31 35.1274L362.908 35.0786C363.535 34.9891 363.942 34.9443 364.129 34.9443C365.016 34.9443 365.683 34.7775 366.131 34.4438C366.342 34.2811 366.448 33.9922 366.448 33.5771V33.4429C366.448 32.8325 366.245 32.3483 365.838 31.9902C365.439 31.6322 364.959 31.4531 364.397 31.4531H364.312L364.239 31.4653C363.449 31.4653 362.758 31.799 362.164 32.4663C361.569 33.1336 361.272 33.8376 361.272 34.5781ZM363.934 42.1587H363.665C362.111 42.1587 360.874 41.6663 359.954 40.6816C359.035 39.6888 358.575 38.3664 358.575 36.7144V36.1772C358.575 35.3879 358.729 34.5863 359.039 33.7725C359.665 32.1449 360.687 31.0218 362.103 30.4033C362.851 30.0697 363.612 29.9028 364.385 29.9028H364.91C365.976 29.9028 366.875 30.2609 367.608 30.9771C368.348 31.6851 368.719 32.6006 368.719 33.7236V33.9678C368.719 34.7653 368.401 35.3309 367.767 35.6646C367.327 35.9006 366.302 36.1366 364.69 36.3726C363.079 36.6086 362.2 36.751 362.054 36.7998C361.565 36.9707 361.321 37.2962 361.321 37.7764C361.321 38.4437 361.606 39.0133 362.176 39.4854C362.745 39.9574 363.51 40.1934 364.471 40.1934C364.918 40.1934 365.529 40.0713 366.302 39.8271C367.075 39.583 367.522 39.4609 367.645 39.4609C368.06 39.4609 368.267 39.64 368.267 39.998C368.267 40.4782 367.799 40.9583 366.863 41.4385C365.927 41.9186 364.951 42.1587 363.934 42.1587ZM382.574 40.5352C382.574 41.1374 382.049 41.4385 380.999 41.4385C380.405 41.4385 380.006 41.2961 379.803 41.0112C379.705 40.8729 379.656 40.5474 379.656 40.0347L379.62 39.2534C379.563 38.3989 379.534 37.5404 379.534 36.6777C379.534 34.8141 379.371 33.5649 379.046 32.9302C378.729 32.2873 378.191 31.9658 377.435 31.9658C376.93 31.9658 376.462 32.1164 376.031 32.4175C375.608 32.7186 375.282 33.1377 375.054 33.6748C374.582 34.7734 374.346 36.8039 374.346 39.7661C374.346 40.4416 374.216 40.9176 373.956 41.1943C373.703 41.471 373.378 41.6094 372.979 41.6094H372.735C371.823 41.6094 371.368 41.2472 371.368 40.5229V40.23C371.368 40.1405 371.417 39.9451 371.514 39.644L371.709 39.0825C371.905 38.4233 372.002 37.0114 372.002 34.8467L372.063 31.2212C372.063 30.7573 372.316 30.5254 372.82 30.5254C373.325 30.5254 373.821 30.6922 374.31 31.0259C374.806 31.3595 375.119 31.5264 375.25 31.5264C375.388 31.5264 375.628 31.4328 375.97 31.2456C377.117 30.619 378.037 30.3057 378.729 30.3057H379.046C380.291 30.3057 381.166 30.8672 381.67 31.9902C381.915 32.5192 382.037 33.6585 382.037 35.4082V35.4937C382.037 35.6401 382.033 35.7866 382.024 35.9331C382.024 36.3319 382.024 36.5394 382.024 36.5557C382.024 36.7103 382.024 36.8608 382.024 37.0073C382.024 37.1213 382.024 37.2311 382.024 37.3369C382.024 37.9635 382.045 38.3908 382.085 38.6187C382.142 38.9279 382.236 39.2493 382.366 39.583C382.505 39.9492 382.574 40.2666 382.574 40.5352ZM386.321 35.1885C385.825 34.6839 385.577 33.9759 385.577 33.0645C385.577 32.153 385.984 31.3717 386.797 30.7207C387.611 30.0615 388.62 29.7319 389.825 29.7319H390.142C391.208 29.7319 392.055 29.8825 392.681 30.1836C393.316 30.4847 393.633 30.9364 393.633 31.5386C393.633 32.1326 393.369 32.4297 392.84 32.4297C392.701 32.4297 392.311 32.2669 391.668 31.9414C391.025 31.6077 390.419 31.4409 389.849 31.4409C389.279 31.4409 388.82 31.5711 388.47 31.8315C388.128 32.0838 387.957 32.4338 387.957 32.8813C387.957 33.3289 388.197 33.7196 388.677 34.0532C388.954 34.2485 389.605 34.5578 390.63 34.981C391.664 35.4041 392.4 35.811 392.84 36.2017C393.548 36.8283 393.902 37.6299 393.902 38.6064C393.902 39.583 393.487 40.4212 392.657 41.1211C391.827 41.8128 390.748 42.1587 389.422 42.1587H389.104C387.77 42.1587 386.769 41.9674 386.102 41.585C385.434 41.1943 385.101 40.6898 385.101 40.0713C385.101 39.4447 385.361 39.1313 385.882 39.1313C386.053 39.1313 386.496 39.3511 387.212 39.7905C387.937 40.23 388.645 40.4497 389.336 40.4497C390.036 40.4497 390.561 40.3032 390.911 40.0103C391.261 39.7091 391.436 39.3348 391.436 38.8872C391.436 38.4315 391.216 38.0327 390.777 37.6909C390.541 37.5037 389.865 37.166 388.75 36.6777C387.636 36.1813 386.826 35.6849 386.321 35.1885ZM400.494 26.1309V26.2773C400.494 26.6924 400.372 27.0464 400.127 27.3394C399.891 27.6242 399.525 27.7666 399.029 27.7666H398.833L398.455 27.7178C398.235 27.7178 398.024 27.616 397.82 27.4126C397.617 27.2091 397.515 26.904 397.515 26.4971V26.3506L397.576 25.9111C397.576 25.7402 397.678 25.5286 397.881 25.2764C398.093 25.0241 398.361 24.8979 398.687 24.8979L398.968 24.8613H399.212L399.554 24.9102C399.765 24.9102 399.973 25.016 400.176 25.2275C400.388 25.431 400.494 25.7321 400.494 26.1309ZM399.92 31.2822L399.786 34.5659L399.761 34.8955L399.725 35.8965V36.3726C399.725 37.5444 399.757 38.3135 399.822 38.6797C399.896 39.0459 400.03 39.404 400.225 39.7539C400.42 40.0957 400.518 40.3439 400.518 40.4985V40.6084C400.518 41.0072 400.315 41.3245 399.908 41.5605C399.501 41.7965 398.947 41.9146 398.248 41.9146H397.942C397.535 41.9146 397.226 41.825 397.015 41.646C396.803 41.4588 396.697 41.2594 396.697 41.0479V40.7793C396.697 40.6735 396.791 40.2992 396.978 39.6562C397.165 39.0052 397.259 38.1222 397.259 37.0073C397.283 36.6899 397.295 36.4702 397.295 36.3481L397.332 35.6768L397.356 35.3472C397.397 34.7775 397.417 34.334 397.417 34.0166L397.43 33.5283C397.43 32.918 397.328 32.3768 397.125 31.9048C396.929 31.4328 396.832 31.1398 396.832 31.0259C396.832 30.4399 397.385 30.147 398.492 30.147H398.931C399.346 30.147 399.615 30.2568 399.737 30.4766C399.859 30.6882 399.92 30.9567 399.92 31.2822ZM408.013 41.9878C407.419 41.9878 406.943 41.6094 406.585 40.8525C406.316 40.2829 405.836 38.9198 405.145 36.7632C404.461 34.5985 404.009 33.3086 403.79 32.8936C403.244 31.86 402.972 31.2008 402.972 30.916C402.972 30.623 403.061 30.4115 403.24 30.2812C403.419 30.1429 403.798 30.0737 404.375 30.0737C405.303 30.0737 405.918 30.4155 406.219 31.0991C406.276 31.2212 406.365 31.5996 406.487 32.2344C406.609 32.861 406.731 33.4144 406.854 33.8945L407.098 34.9688C407.708 37.6543 408.176 38.9971 408.501 38.9971C408.721 38.9971 409.34 37.6258 410.357 34.8833C410.821 33.63 411.118 32.6453 411.248 31.9292C411.386 31.2049 411.476 30.8021 411.517 30.7207C411.753 30.2731 412.249 30.0493 413.006 30.0493H413.25C413.803 30.0493 414.08 30.3301 414.08 30.8916C414.08 31.2904 413.958 31.6973 413.714 32.1123C413.47 32.5273 412.9 33.805 412.005 35.9453C411.118 38.0775 410.463 39.526 410.04 40.291C409.616 41.0479 409.266 41.5199 408.99 41.707C408.721 41.8942 408.396 41.9878 408.013 41.9878ZM418.157 34.5781V34.7734C418.157 35.0176 418.381 35.1396 418.829 35.1396H419.122L419.195 35.1274L419.793 35.0786C420.42 34.9891 420.826 34.9443 421.014 34.9443C421.901 34.9443 422.568 34.7775 423.016 34.4438C423.227 34.2811 423.333 33.9922 423.333 33.5771V33.4429C423.333 32.8325 423.13 32.3483 422.723 31.9902C422.324 31.6322 421.844 31.4531 421.282 31.4531H421.197L421.124 31.4653C420.334 31.4653 419.642 31.799 419.048 32.4663C418.454 33.1336 418.157 33.8376 418.157 34.5781ZM420.818 42.1587H420.55C418.995 42.1587 417.758 41.6663 416.839 40.6816C415.919 39.6888 415.459 38.3664 415.459 36.7144V36.1772C415.459 35.3879 415.614 34.5863 415.923 33.7725C416.55 32.1449 417.571 31.0218 418.987 30.4033C419.736 30.0697 420.497 29.9028 421.27 29.9028H421.795C422.861 29.9028 423.76 30.2609 424.493 30.9771C425.233 31.6851 425.604 32.6006 425.604 33.7236V33.9678C425.604 34.7653 425.286 35.3309 424.651 35.6646C424.212 35.9006 423.187 36.1366 421.575 36.3726C419.964 36.6086 419.085 36.751 418.938 36.7998C418.45 36.9707 418.206 37.2962 418.206 37.7764C418.206 38.4437 418.491 39.0133 419.061 39.4854C419.63 39.9574 420.395 40.1934 421.355 40.1934C421.803 40.1934 422.413 40.0713 423.187 39.8271C423.96 39.583 424.407 39.4609 424.529 39.4609C424.944 39.4609 425.152 39.64 425.152 39.998C425.152 40.4782 424.684 40.9583 423.748 41.4385C422.812 41.9186 421.836 42.1587 420.818 42.1587ZM439.458 40.5352C439.458 41.1374 438.934 41.4385 437.884 41.4385C437.29 41.4385 436.891 41.2961 436.688 41.0112C436.59 40.8729 436.541 40.5474 436.541 40.0347L436.504 39.2534C436.447 38.3989 436.419 37.5404 436.419 36.6777C436.419 34.8141 436.256 33.5649 435.931 32.9302C435.613 32.2873 435.076 31.9658 434.319 31.9658C433.815 31.9658 433.347 32.1164 432.916 32.4175C432.492 32.7186 432.167 33.1377 431.939 33.6748C431.467 34.7734 431.231 36.8039 431.231 39.7661C431.231 40.4416 431.101 40.9176 430.84 41.1943C430.588 41.471 430.263 41.6094 429.864 41.6094H429.62C428.708 41.6094 428.252 41.2472 428.252 40.5229V40.23C428.252 40.1405 428.301 39.9451 428.399 39.644L428.594 39.0825C428.79 38.4233 428.887 37.0114 428.887 34.8467L428.948 31.2212C428.948 30.7573 429.201 30.5254 429.705 30.5254C430.21 30.5254 430.706 30.6922 431.194 31.0259C431.691 31.3595 432.004 31.5264 432.134 31.5264C432.273 31.5264 432.513 31.4328 432.854 31.2456C434.002 30.619 434.922 30.3057 435.613 30.3057H435.931C437.176 30.3057 438.051 30.8672 438.555 31.9902C438.799 32.5192 438.921 33.6585 438.921 35.4082V35.4937C438.921 35.6401 438.917 35.7866 438.909 35.9331C438.909 36.3319 438.909 36.5394 438.909 36.5557C438.909 36.7103 438.909 36.8608 438.909 37.0073C438.909 37.1213 438.909 37.2311 438.909 37.3369C438.909 37.9635 438.93 38.3908 438.97 38.6187C439.027 38.9279 439.121 39.2493 439.251 39.583C439.389 39.9492 439.458 40.2666 439.458 40.5352ZM444.524 34.5781V34.7734C444.524 35.0176 444.748 35.1396 445.196 35.1396H445.489L445.562 35.1274L446.16 35.0786C446.787 34.9891 447.194 34.9443 447.381 34.9443C448.268 34.9443 448.935 34.7775 449.383 34.4438C449.594 34.2811 449.7 33.9922 449.7 33.5771V33.4429C449.7 32.8325 449.497 32.3483 449.09 31.9902C448.691 31.6322 448.211 31.4531 447.649 31.4531H447.564L447.491 31.4653C446.701 31.4653 446.01 31.799 445.416 32.4663C444.821 33.1336 444.524 33.8376 444.524 34.5781ZM447.186 42.1587H446.917C445.363 42.1587 444.126 41.6663 443.206 40.6816C442.286 39.6888 441.827 38.3664 441.827 36.7144V36.1772C441.827 35.3879 441.981 34.5863 442.291 33.7725C442.917 32.1449 443.938 31.0218 445.354 30.4033C446.103 30.0697 446.864 29.9028 447.637 29.9028H448.162C449.228 29.9028 450.127 30.2609 450.86 30.9771C451.6 31.6851 451.971 32.6006 451.971 33.7236V33.9678C451.971 34.7653 451.653 35.3309 451.019 35.6646C450.579 35.9006 449.554 36.1366 447.942 36.3726C446.331 36.6086 445.452 36.751 445.306 36.7998C444.817 36.9707 444.573 37.2962 444.573 37.7764C444.573 38.4437 444.858 39.0133 445.428 39.4854C445.997 39.9574 446.762 40.1934 447.723 40.1934C448.17 40.1934 448.781 40.0713 449.554 39.8271C450.327 39.583 450.774 39.4609 450.896 39.4609C451.312 39.4609 451.519 39.64 451.519 39.998C451.519 40.4782 451.051 40.9583 450.115 41.4385C449.179 41.9186 448.203 42.1587 447.186 42.1587ZM455.486 35.1885C454.99 34.6839 454.742 33.9759 454.742 33.0645C454.742 32.153 455.149 31.3717 455.962 30.7207C456.776 30.0615 457.785 29.7319 458.99 29.7319H459.307C460.373 29.7319 461.22 29.8825 461.846 30.1836C462.481 30.4847 462.798 30.9364 462.798 31.5386C462.798 32.1326 462.534 32.4297 462.005 32.4297C461.867 32.4297 461.476 32.2669 460.833 31.9414C460.19 31.6077 459.584 31.4409 459.014 31.4409C458.444 31.4409 457.985 31.5711 457.635 31.8315C457.293 32.0838 457.122 32.4338 457.122 32.8813C457.122 33.3289 457.362 33.7196 457.842 34.0532C458.119 34.2485 458.77 34.5578 459.795 34.981C460.829 35.4041 461.565 35.811 462.005 36.2017C462.713 36.8283 463.067 37.6299 463.067 38.6064C463.067 39.583 462.652 40.4212 461.822 41.1211C460.992 41.8128 459.913 42.1587 458.587 42.1587H458.27C456.935 42.1587 455.934 41.9674 455.267 41.585C454.599 41.1943 454.266 40.6898 454.266 40.0713C454.266 39.4447 454.526 39.1313 455.047 39.1313C455.218 39.1313 455.661 39.3511 456.377 39.7905C457.102 40.23 457.81 40.4497 458.501 40.4497C459.201 40.4497 459.726 40.3032 460.076 40.0103C460.426 39.7091 460.601 39.3348 460.601 38.8872C460.601 38.4315 460.381 38.0327 459.942 37.6909C459.706 37.5037 459.03 37.166 457.916 36.6777C456.801 36.1813 455.991 35.6849 455.486 35.1885ZM466.546 35.1885C466.049 34.6839 465.801 33.9759 465.801 33.0645C465.801 32.153 466.208 31.3717 467.022 30.7207C467.836 30.0615 468.845 29.7319 470.049 29.7319H470.367C471.433 29.7319 472.279 29.8825 472.906 30.1836C473.541 30.4847 473.858 30.9364 473.858 31.5386C473.858 32.1326 473.593 32.4297 473.064 32.4297C472.926 32.4297 472.535 32.2669 471.893 31.9414C471.25 31.6077 470.643 31.4409 470.074 31.4409C469.504 31.4409 469.044 31.5711 468.694 31.8315C468.353 32.0838 468.182 32.4338 468.182 32.8813C468.182 33.3289 468.422 33.7196 468.902 34.0532C469.179 34.2485 469.83 34.5578 470.855 34.981C471.889 35.4041 472.625 35.811 473.064 36.2017C473.772 36.8283 474.126 37.6299 474.126 38.6064C474.126 39.583 473.711 40.4212 472.881 41.1211C472.051 41.8128 470.973 42.1587 469.646 42.1587H469.329C467.994 42.1587 466.993 41.9674 466.326 41.585C465.659 41.1943 465.325 40.6898 465.325 40.0713C465.325 39.4447 465.586 39.1313 466.106 39.1313C466.277 39.1313 466.721 39.3511 467.437 39.7905C468.161 40.23 468.869 40.4497 469.561 40.4497C470.261 40.4497 470.786 40.3032 471.136 40.0103C471.486 39.7091 471.661 39.3348 471.661 38.8872C471.661 38.4315 471.441 38.0327 471.001 37.6909C470.765 37.5037 470.09 37.166 468.975 36.6777C467.86 36.1813 467.05 35.6849 466.546 35.1885ZM478.46 42.1953H478.082C477.675 42.1953 477.357 42.1017 477.129 41.9146C476.91 41.7274 476.8 41.4792 476.8 41.1699C476.784 41.1048 476.775 41.0519 476.775 41.0112L476.751 40.8037V40.584L476.763 40.5352V40.4253C476.779 40.3602 476.788 40.3073 476.788 40.2666C476.788 39.9004 476.91 39.6156 477.154 39.4121C477.406 39.2005 477.683 39.0947 477.984 39.0947L478.24 39.0581H478.57C479.457 39.0581 479.9 39.522 479.9 40.4497V40.6206L479.852 41.0356C479.852 41.41 479.709 41.6989 479.424 41.9023C479.148 42.0977 478.826 42.1953 478.46 42.1953ZM502.117 26.5825C502.117 25.7443 502.719 25.3252 503.924 25.3252C504.201 25.3252 504.469 25.431 504.729 25.6426C504.99 25.8542 505.12 26.1471 505.12 26.5215C505.12 26.8958 505.002 27.3923 504.766 28.0107C504.53 28.6292 504.384 29.2152 504.327 29.7686C504.27 30.3219 504.144 32.2425 503.948 35.5303C503.753 38.818 503.627 40.584 503.57 40.8281C503.456 41.3164 503.216 41.5605 502.85 41.5605C502.125 41.5605 501.393 41.0845 500.652 40.1323C500.481 39.9126 499.362 38.11 497.295 34.7246C495.236 31.3311 494.028 29.6343 493.67 29.6343L493.511 29.7319C493.446 29.8296 493.389 30.0737 493.34 30.4644C493.08 32.6942 492.95 35.1071 492.95 37.7031C492.95 37.9798 492.966 38.2809 492.999 38.6064L493.047 39.0215C493.096 39.4284 493.121 39.6807 493.121 39.7783C493.121 40.3398 492.929 40.7915 492.547 41.1333C492.173 41.4751 491.733 41.646 491.229 41.646H490.813C490.301 41.646 490.044 41.4548 490.044 41.0723C490.044 40.6816 490.154 40.2463 490.374 39.7661C490.594 39.286 490.74 38.7407 490.813 38.1304C491.163 35.1925 491.338 32.0391 491.338 28.6699C491.338 28.0921 491.298 27.612 491.216 27.2295L491.106 26.8145L490.984 26.436C490.919 26.2082 490.887 25.9844 490.887 25.7646C490.887 25.4635 491.176 25.313 491.753 25.313C492.86 25.313 493.849 25.8013 494.72 26.7778C495.599 27.7463 496.921 29.6628 498.687 32.5273C500.453 35.3919 501.405 36.8242 501.543 36.8242L501.714 36.7754C501.763 36.7021 501.812 36.4417 501.861 35.9941C502.162 33.1702 502.312 30.6922 502.312 28.5601C502.312 28.3729 502.292 28.0881 502.251 27.7056L502.203 27.3149C502.146 26.9162 502.117 26.672 502.117 26.5825ZM509.734 34.5781V34.7734C509.734 35.0176 509.958 35.1396 510.406 35.1396H510.699L510.772 35.1274L511.37 35.0786C511.997 34.9891 512.404 34.9443 512.591 34.9443C513.478 34.9443 514.145 34.7775 514.593 34.4438C514.804 34.2811 514.91 33.9922 514.91 33.5771V33.4429C514.91 32.8325 514.707 32.3483 514.3 31.9902C513.901 31.6322 513.421 31.4531 512.859 31.4531H512.774L512.701 31.4653C511.911 31.4653 511.22 31.799 510.625 32.4663C510.031 33.1336 509.734 33.8376 509.734 34.5781ZM512.396 42.1587H512.127C510.573 42.1587 509.336 41.6663 508.416 40.6816C507.496 39.6888 507.037 38.3664 507.037 36.7144V36.1772C507.037 35.3879 507.191 34.5863 507.5 33.7725C508.127 32.1449 509.148 31.0218 510.564 30.4033C511.313 30.0697 512.074 29.9028 512.847 29.9028H513.372C514.438 29.9028 515.337 30.2609 516.07 30.9771C516.81 31.6851 517.181 32.6006 517.181 33.7236V33.9678C517.181 34.7653 516.863 35.3309 516.229 35.6646C515.789 35.9006 514.764 36.1366 513.152 36.3726C511.541 36.6086 510.662 36.751 510.516 36.7998C510.027 36.9707 509.783 37.2962 509.783 37.7764C509.783 38.4437 510.068 39.0133 510.638 39.4854C511.207 39.9574 511.972 40.1934 512.933 40.1934C513.38 40.1934 513.991 40.0713 514.764 39.8271C515.537 39.583 515.984 39.4609 516.106 39.4609C516.521 39.4609 516.729 39.64 516.729 39.998C516.729 40.4782 516.261 40.9583 515.325 41.4385C514.389 41.9186 513.413 42.1587 512.396 42.1587ZM522.063 34.5781V34.7734C522.063 35.0176 522.287 35.1396 522.735 35.1396H523.028L523.101 35.1274L523.699 35.0786C524.326 34.9891 524.733 34.9443 524.92 34.9443C525.807 34.9443 526.474 34.7775 526.922 34.4438C527.133 34.2811 527.239 33.9922 527.239 33.5771V33.4429C527.239 32.8325 527.036 32.3483 526.629 31.9902C526.23 31.6322 525.75 31.4531 525.188 31.4531H525.103L525.03 31.4653C524.24 31.4653 523.549 31.799 522.955 32.4663C522.361 33.1336 522.063 33.8376 522.063 34.5781ZM524.725 42.1587H524.456C522.902 42.1587 521.665 41.6663 520.745 40.6816C519.826 39.6888 519.366 38.3664 519.366 36.7144V36.1772C519.366 35.3879 519.52 34.5863 519.83 33.7725C520.456 32.1449 521.478 31.0218 522.894 30.4033C523.642 30.0697 524.403 29.9028 525.176 29.9028H525.701C526.767 29.9028 527.667 30.2609 528.399 30.9771C529.139 31.6851 529.51 32.6006 529.51 33.7236V33.9678C529.51 34.7653 529.192 35.3309 528.558 35.6646C528.118 35.9006 527.093 36.1366 525.481 36.3726C523.87 36.6086 522.991 36.751 522.845 36.7998C522.356 36.9707 522.112 37.2962 522.112 37.7764C522.112 38.4437 522.397 39.0133 522.967 39.4854C523.536 39.9574 524.301 40.1934 525.262 40.1934C525.709 40.1934 526.32 40.0713 527.093 39.8271C527.866 39.583 528.313 39.4609 528.436 39.4609C528.851 39.4609 529.058 39.64 529.058 39.998C529.058 40.4782 528.59 40.9583 527.654 41.4385C526.718 41.9186 525.742 42.1587 524.725 42.1587ZM534.271 36.0796V37.0073C534.271 37.9757 534.49 38.7855 534.93 39.4365C535.377 40.0794 535.902 40.4009 536.504 40.4009H536.846C537.774 40.4009 538.49 40.0306 538.995 39.29C539.507 38.5495 539.764 37.4468 539.764 35.9819C539.78 35.8029 539.788 35.6727 539.788 35.5913L539.812 35.3472L539.825 34.8345V33.9678C539.825 32.3076 539.161 31.4775 537.835 31.4775H537.359C536.496 31.4775 535.764 31.9129 535.162 32.7837C534.568 33.6545 534.271 34.7531 534.271 36.0796ZM531.927 36.6411C531.927 35.7948 532.077 34.9321 532.378 34.0532C532.68 33.1743 533.103 32.4256 533.648 31.8071C534.193 31.1805 534.808 30.7288 535.491 30.4521C536.175 30.1673 536.985 30.0249 537.92 30.0249C538.864 30.0249 539.45 29.854 539.678 29.5122C539.906 29.1623 540.02 28.3932 540.02 27.2051C540.02 26.9854 539.983 26.6924 539.91 26.3262C539.837 25.96 539.8 25.7484 539.8 25.6914C539.8 25.3415 539.951 25.0241 540.252 24.7393C540.553 24.4463 540.948 24.2998 541.436 24.2998H541.68C542.063 24.2998 542.347 24.3893 542.535 24.5684C542.722 24.7474 542.815 25.1217 542.815 25.6914V26.8267L542.791 27.4004C542.783 27.5957 542.779 27.8805 542.779 28.2549C542.779 28.6211 542.718 29.8011 542.596 31.7949C542.474 33.7887 542.413 35.16 542.413 35.9087L542.4 36.2017C542.392 36.397 542.388 36.5841 542.388 36.7632L542.376 37.0439C542.376 37.0439 542.376 37.3613 542.376 37.9961C542.376 38.818 542.441 39.4365 542.571 39.8516C542.701 40.2666 542.767 40.5636 542.767 40.7427C542.767 40.9217 542.665 41.1089 542.461 41.3042C542.258 41.4995 541.941 41.5972 541.509 41.5972C541.086 41.5972 540.675 41.528 540.276 41.3896C539.878 41.2432 539.585 41.1699 539.397 41.1699C539.21 41.1699 538.966 41.2269 538.665 41.3408C537.754 41.6745 536.919 41.8413 536.163 41.8413C536.146 41.8413 536.13 41.8413 536.114 41.8413H535.833C534.604 41.8413 533.644 41.3937 532.952 40.4985C532.269 39.5952 531.927 38.4111 531.927 36.9463V36.6411ZM546.844 35.1885C546.347 34.6839 546.099 33.9759 546.099 33.0645C546.099 32.153 546.506 31.3717 547.32 30.7207C548.134 30.0615 549.143 29.7319 550.347 29.7319H550.665C551.731 29.7319 552.577 29.8825 553.204 30.1836C553.838 30.4847 554.156 30.9364 554.156 31.5386C554.156 32.1326 553.891 32.4297 553.362 32.4297C553.224 32.4297 552.833 32.2669 552.19 31.9414C551.548 31.6077 550.941 31.4409 550.372 31.4409C549.802 31.4409 549.342 31.5711 548.992 31.8315C548.65 32.0838 548.479 32.4338 548.479 32.8813C548.479 33.3289 548.72 33.7196 549.2 34.0532C549.476 34.2485 550.127 34.5578 551.153 34.981C552.186 35.4041 552.923 35.811 553.362 36.2017C554.07 36.8283 554.424 37.6299 554.424 38.6064C554.424 39.583 554.009 40.4212 553.179 41.1211C552.349 41.8128 551.271 42.1587 549.944 42.1587H549.627C548.292 42.1587 547.291 41.9674 546.624 41.585C545.957 41.1943 545.623 40.6898 545.623 40.0713C545.623 39.4447 545.883 39.1313 546.404 39.1313C546.575 39.1313 547.019 39.3511 547.735 39.7905C548.459 40.23 549.167 40.4497 549.859 40.4497C550.559 40.4497 551.084 40.3032 551.434 40.0103C551.784 39.7091 551.958 39.3348 551.958 38.8872C551.958 38.4315 551.739 38.0327 551.299 37.6909C551.063 37.5037 550.388 37.166 549.273 36.6777C548.158 36.1813 547.348 35.6849 546.844 35.1885ZM564.812 35.1885C564.316 34.6839 564.068 33.9759 564.068 33.0645C564.068 32.153 564.475 31.3717 565.289 30.7207C566.102 30.0615 567.111 29.7319 568.316 29.7319H568.633C569.699 29.7319 570.546 29.8825 571.172 30.1836C571.807 30.4847 572.125 30.9364 572.125 31.5386C572.125 32.1326 571.86 32.4297 571.331 32.4297C571.193 32.4297 570.802 32.2669 570.159 31.9414C569.516 31.6077 568.91 31.4409 568.34 31.4409C567.771 31.4409 567.311 31.5711 566.961 31.8315C566.619 32.0838 566.448 32.4338 566.448 32.8813C566.448 33.3289 566.688 33.7196 567.168 34.0532C567.445 34.2485 568.096 34.5578 569.122 34.981C570.155 35.4041 570.892 35.811 571.331 36.2017C572.039 36.8283 572.393 37.6299 572.393 38.6064C572.393 39.583 571.978 40.4212 571.148 41.1211C570.318 41.8128 569.24 42.1587 567.913 42.1587H567.596C566.261 42.1587 565.26 41.9674 564.593 41.585C563.925 41.1943 563.592 40.6898 563.592 40.0713C563.592 39.4447 563.852 39.1313 564.373 39.1313C564.544 39.1313 564.987 39.3511 565.704 39.7905C566.428 40.23 567.136 40.4497 567.828 40.4497C568.528 40.4497 569.052 40.3032 569.402 40.0103C569.752 39.7091 569.927 39.3348 569.927 38.8872C569.927 38.4315 569.708 38.0327 569.268 37.6909C569.032 37.5037 568.357 37.166 567.242 36.6777C566.127 36.1813 565.317 35.6849 564.812 35.1885ZM575.042 31.0259C575.042 30.5132 575.473 30.2568 576.336 30.2568H576.617C577.154 30.2568 577.516 30.4725 577.703 30.9038C577.89 31.3351 577.984 32.1408 577.984 33.3208L577.837 37.3979C577.837 39.2941 578.517 40.2422 579.876 40.2422C580.372 40.2422 580.848 40.0672 581.304 39.7173C581.76 39.3674 582.098 38.9482 582.317 38.46C582.798 37.3857 583.038 35.4611 583.038 32.686L583.013 32.1489V31.6729C583.013 31.2415 583.111 30.9282 583.306 30.7329C583.501 30.5376 583.843 30.4399 584.332 30.4399C584.82 30.4399 585.141 30.5579 585.296 30.7939C585.451 31.0299 585.528 31.4124 585.528 31.9414L585.503 32.5884L585.455 35.4692C585.455 35.9331 585.483 36.6452 585.54 37.6055C585.597 38.5658 585.658 39.2697 585.723 39.7173C585.788 40.1567 585.821 40.4172 585.821 40.4985C585.821 41.2228 585.288 41.585 584.222 41.585C583.855 41.585 583.489 41.4507 583.123 41.1821C582.765 40.9054 582.509 40.7671 582.354 40.7671C582.208 40.7671 581.955 40.8566 581.597 41.0356C580.58 41.5483 579.713 41.8047 578.997 41.8047H578.692C577.528 41.8047 576.674 41.4466 576.128 40.7305C575.583 40.0143 575.311 38.7244 575.311 36.8608L575.433 33.1621C575.433 32.6982 575.368 32.2547 575.237 31.8315C575.107 31.4084 575.042 31.1398 575.042 31.0259ZM597.43 34.9565C597.43 33.8742 597.202 33.0278 596.746 32.4175C596.299 31.799 595.761 31.4897 595.135 31.4897H594.781C593.902 31.4897 593.206 31.8397 592.693 32.5396C592.181 33.2313 591.924 34.2526 591.924 35.6035L591.9 35.8477L591.851 37.1172V37.9717C591.851 38.8587 592.03 39.4854 592.388 39.8516C592.754 40.2096 593.271 40.3887 593.938 40.3887H594.17C595.09 40.3887 595.859 39.9655 596.478 39.1191C597.096 38.2728 597.405 37.2433 597.405 36.0308L597.43 35.7622V34.9565ZM590.789 30.3667L592.498 30.6597C592.677 30.6597 593.096 30.5417 593.755 30.3057C594.415 30.0697 595.062 29.9517 595.696 29.9517C596.982 29.9517 598.024 30.4033 598.821 31.3066C599.619 32.2018 600.018 33.4103 600.018 34.9321V35.2373C600.018 36.2627 599.847 37.2067 599.505 38.0693C598.805 39.8516 597.637 41.0031 596.001 41.5239C595.538 41.6704 594.915 41.7721 594.134 41.8291C593.361 41.8861 592.811 41.9878 592.486 42.1343C591.989 42.3621 591.741 42.7731 591.741 43.3672C591.741 43.6195 591.786 43.9613 591.875 44.3926C591.973 44.8239 592.022 45.2227 592.022 45.5889C592.022 45.9551 591.814 46.3132 591.399 46.6631C590.984 47.0212 590.468 47.2002 589.849 47.2002H589.593C588.86 47.2002 588.494 46.9316 588.494 46.3945V46.1626C588.494 46.0487 588.571 45.7272 588.726 45.1982C588.889 44.6774 589.003 44.1159 589.068 43.5137C589.133 42.9196 589.239 41.4344 589.385 39.0581C589.532 36.6818 589.605 35.0583 589.605 34.1875C589.605 33.3086 589.548 32.5721 589.434 31.978C589.328 31.384 589.275 31.0625 589.275 31.0137C589.275 30.5824 589.78 30.3667 590.789 30.3667ZM604.778 34.5781V34.7734C604.778 35.0176 605.002 35.1396 605.45 35.1396H605.743L605.816 35.1274L606.414 35.0786C607.041 34.9891 607.448 34.9443 607.635 34.9443C608.522 34.9443 609.189 34.7775 609.637 34.4438C609.848 34.2811 609.954 33.9922 609.954 33.5771V33.4429C609.954 32.8325 609.751 32.3483 609.344 31.9902C608.945 31.6322 608.465 31.4531 607.903 31.4531H607.818L607.745 31.4653C606.955 31.4653 606.264 31.799 605.669 32.4663C605.075 33.1336 604.778 33.8376 604.778 34.5781ZM607.439 42.1587H607.171C605.617 42.1587 604.38 41.6663 603.46 40.6816C602.54 39.6888 602.081 38.3664 602.081 36.7144V36.1772C602.081 35.3879 602.235 34.5863 602.544 33.7725C603.171 32.1449 604.192 31.0218 605.608 30.4033C606.357 30.0697 607.118 29.9028 607.891 29.9028H608.416C609.482 29.9028 610.381 30.2609 611.114 30.9771C611.854 31.6851 612.225 32.6006 612.225 33.7236V33.9678C612.225 34.7653 611.907 35.3309 611.272 35.6646C610.833 35.9006 609.808 36.1366 608.196 36.3726C606.585 36.6086 605.706 36.751 605.56 36.7998C605.071 36.9707 604.827 37.2962 604.827 37.7764C604.827 38.4437 605.112 39.0133 605.682 39.4854C606.251 39.9574 607.016 40.1934 607.977 40.1934C608.424 40.1934 609.035 40.0713 609.808 39.8271C610.581 39.583 611.028 39.4609 611.15 39.4609C611.565 39.4609 611.773 39.64 611.773 39.998C611.773 40.4782 611.305 40.9583 610.369 41.4385C609.433 41.9186 608.457 42.1587 607.439 42.1587ZM615.655 35.6523V34.7124C615.655 33.5812 615.594 32.7552 615.472 32.2344C615.35 31.7054 615.289 31.3351 615.289 31.1235C615.289 30.6271 615.651 30.3789 616.375 30.3789C617.099 30.3789 617.624 30.5132 617.95 30.7817C618.039 30.855 618.153 30.9974 618.292 31.209C618.438 31.4206 618.568 31.5264 618.682 31.5264C618.707 31.5264 619.061 31.3188 619.744 30.9038C620.428 30.4888 621.014 30.2812 621.502 30.2812H621.685C622.084 30.2812 622.401 30.3789 622.637 30.5742C622.873 30.7614 622.991 30.9933 622.991 31.27V31.4287C622.991 31.7624 622.873 32.0024 622.637 32.1489C622.409 32.2954 622.043 32.3687 621.539 32.3687C620.391 32.3687 619.553 32.7715 619.024 33.5771C618.503 34.3828 618.243 35.807 618.243 37.8496C618.243 38.1426 618.292 38.5942 618.389 39.2046C618.495 39.8149 618.548 40.2747 618.548 40.584C618.548 40.8932 618.381 41.1903 618.047 41.4751C617.714 41.7599 617.291 41.9023 616.778 41.9023H616.363C615.915 41.9023 615.569 41.7965 615.325 41.585C615.089 41.3652 614.971 41.1007 614.971 40.7915C614.971 40.4741 615.028 40.1527 615.142 39.8271C615.451 38.9482 615.606 37.9798 615.606 36.9219C615.639 36.3359 615.655 35.9128 615.655 35.6523ZM629.546 41.9878C628.952 41.9878 628.476 41.6094 628.118 40.8525C627.85 40.2829 627.369 38.9198 626.678 36.7632C625.994 34.5985 625.542 33.3086 625.323 32.8936C624.778 31.86 624.505 31.2008 624.505 30.916C624.505 30.623 624.594 30.4115 624.773 30.2812C624.952 30.1429 625.331 30.0737 625.909 30.0737C626.836 30.0737 627.451 30.4155 627.752 31.0991C627.809 31.2212 627.898 31.5996 628.021 32.2344C628.143 32.861 628.265 33.4144 628.387 33.8945L628.631 34.9688C629.241 37.6543 629.709 38.9971 630.035 38.9971C630.254 38.9971 630.873 37.6258 631.89 34.8833C632.354 33.63 632.651 32.6453 632.781 31.9292C632.92 31.2049 633.009 30.8021 633.05 30.7207C633.286 30.2731 633.782 30.0493 634.539 30.0493H634.783C635.337 30.0493 635.613 30.3301 635.613 30.8916C635.613 31.2904 635.491 31.6973 635.247 32.1123C635.003 32.5273 634.433 33.805 633.538 35.9453C632.651 38.0775 631.996 39.526 631.573 40.291C631.15 41.0479 630.8 41.5199 630.523 41.707C630.254 41.8942 629.929 41.9878 629.546 41.9878ZM641.631 26.1309V26.2773C641.631 26.6924 641.509 27.0464 641.265 27.3394C641.029 27.6242 640.663 27.7666 640.167 27.7666H639.971L639.593 27.7178C639.373 27.7178 639.161 27.616 638.958 27.4126C638.755 27.2091 638.653 26.904 638.653 26.4971V26.3506L638.714 25.9111C638.714 25.7402 638.816 25.5286 639.019 25.2764C639.231 25.0241 639.499 24.8979 639.825 24.8979L640.105 24.8613H640.35L640.691 24.9102C640.903 24.9102 641.111 25.016 641.314 25.2275C641.526 25.431 641.631 25.7321 641.631 26.1309ZM641.058 31.2822L640.923 34.5659L640.899 34.8955L640.862 35.8965V36.3726C640.862 37.5444 640.895 38.3135 640.96 38.6797C641.033 39.0459 641.167 39.404 641.363 39.7539C641.558 40.0957 641.656 40.3439 641.656 40.4985V40.6084C641.656 41.0072 641.452 41.3245 641.045 41.5605C640.639 41.7965 640.085 41.9146 639.385 41.9146H639.08C638.673 41.9146 638.364 41.825 638.152 41.646C637.941 41.4588 637.835 41.2594 637.835 41.0479V40.7793C637.835 40.6735 637.929 40.2992 638.116 39.6562C638.303 39.0052 638.396 38.1222 638.396 37.0073C638.421 36.6899 638.433 36.4702 638.433 36.3481L638.47 35.6768L638.494 35.3472C638.535 34.7775 638.555 34.334 638.555 34.0166L638.567 33.5283C638.567 32.918 638.466 32.3768 638.262 31.9048C638.067 31.4328 637.969 31.1398 637.969 31.0259C637.969 30.4399 638.523 30.147 639.629 30.147H640.069C640.484 30.147 640.752 30.2568 640.875 30.4766C640.997 30.6882 641.058 30.9567 641.058 31.2822ZM645.574 35.1885C645.078 34.6839 644.83 33.9759 644.83 33.0645C644.83 32.153 645.236 31.3717 646.05 30.7207C646.864 30.0615 647.873 29.7319 649.078 29.7319H649.395C650.461 29.7319 651.307 29.8825 651.934 30.1836C652.569 30.4847 652.886 30.9364 652.886 31.5386C652.886 32.1326 652.622 32.4297 652.093 32.4297C651.954 32.4297 651.564 32.2669 650.921 31.9414C650.278 31.6077 649.672 31.4409 649.102 31.4409C648.532 31.4409 648.073 31.5711 647.723 31.8315C647.381 32.0838 647.21 32.4338 647.21 32.8813C647.21 33.3289 647.45 33.7196 647.93 34.0532C648.207 34.2485 648.858 34.5578 649.883 34.981C650.917 35.4041 651.653 35.811 652.093 36.2017C652.801 36.8283 653.155 37.6299 653.155 38.6064C653.155 39.583 652.74 40.4212 651.91 41.1211C651.08 41.8128 650.001 42.1587 648.675 42.1587H648.357C647.023 42.1587 646.022 41.9674 645.354 41.585C644.687 41.1943 644.354 40.6898 644.354 40.0713C644.354 39.4447 644.614 39.1313 645.135 39.1313C645.306 39.1313 645.749 39.3511 646.465 39.7905C647.19 40.23 647.898 40.4497 648.589 40.4497C649.289 40.4497 649.814 40.3032 650.164 40.0103C650.514 39.7091 650.689 39.3348 650.689 38.8872C650.689 38.4315 650.469 38.0327 650.03 37.6909C649.794 37.5037 649.118 37.166 648.003 36.6777C646.889 36.1813 646.079 35.6849 645.574 35.1885ZM659.747 26.1309V26.2773C659.747 26.6924 659.625 27.0464 659.38 27.3394C659.144 27.6242 658.778 27.7666 658.282 27.7666H658.086L657.708 27.7178C657.488 27.7178 657.277 27.616 657.073 27.4126C656.87 27.2091 656.768 26.904 656.768 26.4971V26.3506L656.829 25.9111C656.829 25.7402 656.931 25.5286 657.134 25.2764C657.346 25.0241 657.614 24.8979 657.94 24.8979L658.221 24.8613H658.465L658.807 24.9102C659.018 24.9102 659.226 25.016 659.429 25.2275C659.641 25.431 659.747 25.7321 659.747 26.1309ZM659.173 31.2822L659.039 34.5659L659.014 34.8955L658.978 35.8965V36.3726C658.978 37.5444 659.01 38.3135 659.075 38.6797C659.148 39.0459 659.283 39.404 659.478 39.7539C659.673 40.0957 659.771 40.3439 659.771 40.4985V40.6084C659.771 41.0072 659.568 41.3245 659.161 41.5605C658.754 41.7965 658.2 41.9146 657.5 41.9146H657.195C656.788 41.9146 656.479 41.825 656.268 41.646C656.056 41.4588 655.95 41.2594 655.95 41.0479V40.7793C655.95 40.6735 656.044 40.2992 656.231 39.6562C656.418 39.0052 656.512 38.1222 656.512 37.0073C656.536 36.6899 656.548 36.4702 656.548 36.3481L656.585 35.6768L656.609 35.3472C656.65 34.7775 656.67 34.334 656.67 34.0166L656.683 33.5283C656.683 32.918 656.581 32.3768 656.377 31.9048C656.182 31.4328 656.084 31.1398 656.084 31.0259C656.084 30.4399 656.638 30.147 657.745 30.147H658.184C658.599 30.147 658.868 30.2568 658.99 30.4766C659.112 30.6882 659.173 30.9567 659.173 31.2822ZM664.91 36.8486C664.91 37.9147 665.154 38.8018 665.643 39.5098C666.131 40.2178 666.729 40.5718 667.437 40.5718H667.803C668.641 40.5718 669.349 40.1486 669.927 39.3022C670.513 38.4559 670.806 37.3288 670.806 35.9209V35.1152C670.806 34.0247 670.566 33.1336 670.086 32.4419C669.614 31.742 669.004 31.3921 668.255 31.3921H668.011C667.14 31.3921 666.408 31.8234 665.813 32.686C665.228 33.5487 664.935 34.5781 664.935 35.7744L664.91 36.0552V36.8486ZM667.669 42.2319H667.278C665.854 42.2319 664.694 41.7355 663.799 40.7427C662.904 39.7498 662.457 38.342 662.457 36.519L662.469 36.3115C662.469 34.3096 662.998 32.7308 664.056 31.5752C664.609 30.9648 665.24 30.5173 665.948 30.2324C666.664 29.9395 667.343 29.793 667.986 29.793H668.584C669.301 29.793 669.988 29.9517 670.647 30.269C672.535 31.1805 673.479 32.8976 673.479 35.4204V35.6157C673.471 36.4377 673.337 37.2718 673.077 38.1182C672.556 39.7865 671.555 40.9665 670.074 41.6582C669.252 42.0407 668.45 42.2319 667.669 42.2319ZM687.212 40.5352C687.212 41.1374 686.688 41.4385 685.638 41.4385C685.044 41.4385 684.645 41.2961 684.441 41.0112C684.344 40.8729 684.295 40.5474 684.295 40.0347L684.258 39.2534C684.201 38.3989 684.173 37.5404 684.173 36.6777C684.173 34.8141 684.01 33.5649 683.685 32.9302C683.367 32.2873 682.83 31.9658 682.073 31.9658C681.569 31.9658 681.101 32.1164 680.669 32.4175C680.246 32.7186 679.921 33.1377 679.693 33.6748C679.221 34.7734 678.985 36.8039 678.985 39.7661C678.985 40.4416 678.855 40.9176 678.594 41.1943C678.342 41.471 678.016 41.6094 677.618 41.6094H677.374C676.462 41.6094 676.006 41.2472 676.006 40.5229V40.23C676.006 40.1405 676.055 39.9451 676.153 39.644L676.348 39.0825C676.543 38.4233 676.641 37.0114 676.641 34.8467L676.702 31.2212C676.702 30.7573 676.954 30.5254 677.459 30.5254C677.964 30.5254 678.46 30.6922 678.948 31.0259C679.445 31.3595 679.758 31.5264 679.888 31.5264C680.027 31.5264 680.267 31.4328 680.608 31.2456C681.756 30.619 682.675 30.3057 683.367 30.3057H683.685C684.93 30.3057 685.805 30.8672 686.309 31.9902C686.553 32.5192 686.675 33.6585 686.675 35.4082V35.4937C686.675 35.6401 686.671 35.7866 686.663 35.9331C686.663 36.3319 686.663 36.5394 686.663 36.5557C686.663 36.7103 686.663 36.8608 686.663 37.0073C686.663 37.1213 686.663 37.2311 686.663 37.3369C686.663 37.9635 686.683 38.3908 686.724 38.6187C686.781 38.9279 686.875 39.2493 687.005 39.583C687.143 39.9492 687.212 40.2666 687.212 40.5352ZM691.814 42.1953H691.436C691.029 42.1953 690.712 42.1017 690.484 41.9146C690.264 41.7274 690.154 41.4792 690.154 41.1699C690.138 41.1048 690.13 41.0519 690.13 41.0112L690.105 40.8037V40.584L690.118 40.5352V40.4253C690.134 40.3602 690.142 40.3073 690.142 40.2666C690.142 39.9004 690.264 39.6156 690.508 39.4121C690.761 39.2005 691.037 39.0947 691.338 39.0947L691.595 39.0581H691.924C692.811 39.0581 693.255 39.522 693.255 40.4497V40.6206L693.206 41.0356C693.206 41.41 693.064 41.6989 692.779 41.9023C692.502 42.0977 692.181 42.1953 691.814 42.1953Z" fill="black"/>
</svg>
