<svg width="758" height="87" viewBox="0 0 758 87" fill="none" xmlns="http://www.w3.org/2000/svg">
<rect width="758" height="87" rx="18" fill="#D9D9D9"/>
<path d="M27.058 47.1172C26.708 47.1172 26.533 46.9422 26.533 46.5922L26.512 39.7672C26.512 39.6272 26.54 39.5152 26.596 39.4312C26.652 39.3332 26.729 39.2212 26.827 39.0952L33.463 31.0102V26.7472L26.827 24.1852C26.617 24.1152 26.512 23.9052 26.512 23.5552V19.6492C26.512 19.2992 26.687 19.1242 27.037 19.1242H32.35C32.546 19.1242 32.7 19.1522 32.812 19.2082C32.924 19.2642 33.05 19.3272 33.19 19.3972L40.12 22.4422C40.302 22.5122 40.407 22.6102 40.435 22.7362C40.463 22.8622 40.477 23.0442 40.477 23.2822V32.3542C40.477 32.4942 40.442 32.5992 40.372 32.6692C40.316 32.7252 40.232 32.8302 40.12 32.9842L33.547 40.9852V41.8252H41.065C41.415 41.8252 41.59 42.0002 41.59 42.3502V46.5922C41.59 46.9422 41.415 47.1172 41.065 47.1172H27.058Z" fill="#2ECC71"/>
<path d="M84.8027 41.3896C84.5179 41.5931 84.0744 41.6948 83.4722 41.6948C82.87 41.6948 82.4346 41.5809 82.166 41.353C81.8975 41.117 81.7632 40.8118 81.7632 40.4375V40.1567C81.7632 40.0103 81.8608 39.6969 82.0562 39.2168C82.2596 38.7285 82.3817 38.2443 82.4224 37.7642C82.7072 34.4601 82.8496 32.0065 82.8496 30.4033C82.8496 28.8001 82.8333 27.8643 82.8008 27.5957C82.7682 27.3271 82.6909 27.0057 82.5688 26.6313C82.4549 26.257 82.3979 26.0617 82.3979 26.0454C82.3979 25.6141 82.6746 25.3496 83.228 25.252C84.8882 24.959 87.3133 24.8125 90.5034 24.8125H91.2603C91.8625 24.8125 92.2938 24.8939 92.5542 25.0566C92.8228 25.2194 92.957 25.5246 92.957 25.9722V26.2651C92.957 26.8592 92.6803 27.1562 92.127 27.1562C92.0049 27.1562 91.7526 27.1074 91.3701 27.0098C90.9876 26.9121 90.6296 26.8348 90.2959 26.7778C89.9704 26.7127 89.2746 26.6802 88.2085 26.6802C87.1506 26.6802 86.4588 26.9284 86.1333 27.4248C85.8159 27.9212 85.6572 28.8978 85.6572 30.3545C85.6572 31.1032 85.7752 31.6037 86.0112 31.856C86.2554 32.1001 86.8169 32.2222 87.6958 32.2222C87.9155 32.2222 88.2451 32.1774 88.6846 32.0879C89.124 31.9984 89.5024 31.9536 89.8198 31.9536C90.1372 31.9536 90.418 32.092 90.6621 32.3687C90.9144 32.6453 91.0405 33.036 91.0405 33.5405C91.0405 34.2648 90.6662 34.627 89.9175 34.627L88.5015 34.5049C87.883 34.5049 87.3296 34.6107 86.8413 34.8223C86.353 35.0257 86.0194 35.2739 85.8403 35.5669C85.4009 36.283 85.1812 37.4793 85.1812 39.1558L85.2422 40.5962C85.2422 40.9136 85.0957 41.1781 84.8027 41.3896ZM95.4839 35.6523V34.7124C95.4839 33.5812 95.4229 32.7552 95.3008 32.2344C95.1787 31.7054 95.1177 31.3351 95.1177 31.1235C95.1177 30.6271 95.4798 30.3789 96.2041 30.3789C96.9284 30.3789 97.4533 30.5132 97.7788 30.7817C97.8683 30.855 97.9823 30.9974 98.1206 31.209C98.2671 31.4206 98.3973 31.5264 98.5112 31.5264C98.5356 31.5264 98.8896 31.3188 99.5732 30.9038C100.257 30.4888 100.843 30.2812 101.331 30.2812H101.514C101.913 30.2812 102.23 30.3789 102.466 30.5742C102.702 30.7614 102.82 30.9933 102.82 31.27V31.4287C102.82 31.7624 102.702 32.0024 102.466 32.1489C102.238 32.2954 101.872 32.3687 101.368 32.3687C100.22 32.3687 99.382 32.7715 98.853 33.5771C98.3322 34.3828 98.0718 35.807 98.0718 37.8496C98.0718 38.1426 98.1206 38.5942 98.2183 39.2046C98.3241 39.8149 98.377 40.2747 98.377 40.584C98.377 40.8932 98.2101 41.1903 97.8765 41.4751C97.5428 41.7599 97.1196 41.9023 96.6069 41.9023H96.1919C95.7443 41.9023 95.3984 41.7965 95.1543 41.585C94.9183 41.3652 94.8003 41.1007 94.8003 40.7915C94.8003 40.4741 94.8573 40.1527 94.9712 39.8271C95.2804 38.9482 95.4351 37.9798 95.4351 36.9219C95.4676 36.3359 95.4839 35.9128 95.4839 35.6523ZM106.873 34.5781V34.7734C106.873 35.0176 107.097 35.1396 107.544 35.1396H107.837L107.911 35.1274L108.509 35.0786C109.135 34.9891 109.542 34.9443 109.729 34.9443C110.617 34.9443 111.284 34.7775 111.731 34.4438C111.943 34.2811 112.049 33.9922 112.049 33.5771V33.4429C112.049 32.8325 111.845 32.3483 111.438 31.9902C111.04 31.6322 110.56 31.4531 109.998 31.4531H109.913L109.839 31.4653C109.05 31.4653 108.358 31.799 107.764 32.4663C107.17 33.1336 106.873 33.8376 106.873 34.5781ZM109.534 42.1587H109.266C107.711 42.1587 106.474 41.6663 105.555 40.6816C104.635 39.6888 104.175 38.3664 104.175 36.7144V36.1772C104.175 35.3879 104.33 34.5863 104.639 33.7725C105.266 32.1449 106.287 31.0218 107.703 30.4033C108.452 30.0697 109.213 29.9028 109.986 29.9028H110.511C111.577 29.9028 112.476 30.2609 113.208 30.9771C113.949 31.6851 114.319 32.6006 114.319 33.7236V33.9678C114.319 34.7653 114.002 35.3309 113.367 35.6646C112.928 35.9006 111.902 36.1366 110.291 36.3726C108.68 36.6086 107.801 36.751 107.654 36.7998C107.166 36.9707 106.922 37.2962 106.922 37.7764C106.922 38.4437 107.207 39.0133 107.776 39.4854C108.346 39.9574 109.111 40.1934 110.071 40.1934C110.519 40.1934 111.129 40.0713 111.902 39.8271C112.675 39.583 113.123 39.4609 113.245 39.4609C113.66 39.4609 113.868 39.64 113.868 39.998C113.868 40.4782 113.4 40.9583 112.464 41.4385C111.528 41.9186 110.551 42.1587 109.534 42.1587ZM122.62 31.4531H122.376C121.912 31.4531 121.465 31.5874 121.033 31.856C119.78 32.6372 119.153 34.216 119.153 36.5923V36.7266C119.153 37.8984 119.385 38.8221 119.849 39.4976C120.313 40.1649 120.883 40.4985 121.558 40.4985H121.79C122.701 40.4985 123.401 40.1649 123.89 39.4976C124.386 38.8221 124.634 37.8293 124.634 36.519C124.651 36.3563 124.659 36.2301 124.659 36.1406L124.708 34.8589V34.7368C124.708 33.4917 124.549 32.6331 124.231 32.1611C123.922 31.6891 123.385 31.4531 122.62 31.4531ZM125.611 47.249C124.537 47.249 124 46.7607 124 45.7842C124 45.7272 124.056 45.4058 124.17 44.8198C124.284 44.2257 124.345 43.6479 124.354 43.0864C124.345 42.5575 124.244 42.1953 124.048 42C123.853 41.8047 123.544 41.703 123.121 41.6948C123.031 41.6948 122.897 41.707 122.718 41.7314L122.254 41.8047C121.945 41.8372 121.55 41.8535 121.07 41.8535C120.598 41.8535 120.093 41.7396 119.556 41.5117C118.474 41.056 117.684 40.1852 117.188 38.8994C116.895 38.1507 116.749 37.4102 116.749 36.6777V36.0796C116.749 34.2404 117.269 32.7552 118.311 31.624C119.353 30.4847 120.683 29.915 122.303 29.915C122.767 29.915 123.373 30.0249 124.122 30.2446C124.87 30.4644 125.253 30.5742 125.269 30.5742L126.27 30.4521C126.644 30.4521 126.937 30.562 127.149 30.7817C127.361 31.0015 127.466 31.2497 127.466 31.5264C127.466 31.8031 127.434 32.3361 127.369 33.1255C127.304 33.9149 127.267 34.7246 127.259 35.5547L127.247 35.8354C127.141 37.3898 127.088 38.6268 127.088 39.5464L127.063 40.1201C127.047 40.5026 127.039 40.7834 127.039 40.9624L127.002 41.8047C127.002 41.9919 127.002 42.179 127.002 42.3662L126.99 42.9155C126.99 43.7131 127.043 44.3031 127.149 44.6855L127.271 45.125C127.344 45.418 127.381 45.6458 127.381 45.8086C127.381 46.7689 126.872 47.249 125.855 47.249H125.611ZM130.701 31.0259C130.701 30.5132 131.132 30.2568 131.995 30.2568H132.276C132.813 30.2568 133.175 30.4725 133.362 30.9038C133.549 31.3351 133.643 32.1408 133.643 33.3208L133.497 37.3979C133.497 39.2941 134.176 40.2422 135.535 40.2422C136.032 40.2422 136.508 40.0672 136.963 39.7173C137.419 39.3674 137.757 38.9482 137.977 38.46C138.457 37.3857 138.697 35.4611 138.697 32.686L138.672 32.1489V31.6729C138.672 31.2415 138.77 30.9282 138.965 30.7329C139.161 30.5376 139.502 30.4399 139.991 30.4399C140.479 30.4399 140.8 30.5579 140.955 30.7939C141.11 31.0299 141.187 31.4124 141.187 31.9414L141.163 32.5884L141.114 35.4692C141.114 35.9331 141.142 36.6452 141.199 37.6055C141.256 38.5658 141.317 39.2697 141.382 39.7173C141.447 40.1567 141.48 40.4172 141.48 40.4985C141.48 41.2228 140.947 41.585 139.881 41.585C139.515 41.585 139.148 41.4507 138.782 41.1821C138.424 40.9054 138.168 40.7671 138.013 40.7671C137.867 40.7671 137.614 40.8566 137.256 41.0356C136.239 41.5483 135.372 41.8047 134.656 41.8047H134.351C133.187 41.8047 132.333 41.4466 131.788 40.7305C131.242 40.0143 130.97 38.7244 130.97 36.8608L131.092 33.1621C131.092 32.6982 131.027 32.2547 130.896 31.8315C130.766 31.4084 130.701 31.1398 130.701 31.0259ZM146.741 34.5781V34.7734C146.741 35.0176 146.965 35.1396 147.413 35.1396H147.706L147.779 35.1274L148.377 35.0786C149.004 34.9891 149.41 34.9443 149.598 34.9443C150.485 34.9443 151.152 34.7775 151.6 34.4438C151.811 34.2811 151.917 33.9922 151.917 33.5771V33.4429C151.917 32.8325 151.714 32.3483 151.307 31.9902C150.908 31.6322 150.428 31.4531 149.866 31.4531H149.781L149.708 31.4653C148.918 31.4653 148.226 31.799 147.632 32.4663C147.038 33.1336 146.741 33.8376 146.741 34.5781ZM149.402 42.1587H149.134C147.579 42.1587 146.342 41.6663 145.423 40.6816C144.503 39.6888 144.043 38.3664 144.043 36.7144V36.1772C144.043 35.3879 144.198 34.5863 144.507 33.7725C145.134 32.1449 146.155 31.0218 147.571 30.4033C148.32 30.0697 149.081 29.9028 149.854 29.9028H150.379C151.445 29.9028 152.344 30.2609 153.077 30.9771C153.817 31.6851 154.188 32.6006 154.188 33.7236V33.9678C154.188 34.7653 153.87 35.3309 153.235 35.6646C152.796 35.9006 151.771 36.1366 150.159 36.3726C148.548 36.6086 147.669 36.751 147.522 36.7998C147.034 36.9707 146.79 37.2962 146.79 37.7764C146.79 38.4437 147.075 39.0133 147.645 39.4854C148.214 39.9574 148.979 40.1934 149.939 40.1934C150.387 40.1934 150.997 40.0713 151.771 39.8271C152.544 39.583 152.991 39.4609 153.113 39.4609C153.528 39.4609 153.736 39.64 153.736 39.998C153.736 40.4782 153.268 40.9583 152.332 41.4385C151.396 41.9186 150.42 42.1587 149.402 42.1587ZM168.042 40.5352C168.042 41.1374 167.518 41.4385 166.468 41.4385C165.874 41.4385 165.475 41.2961 165.271 41.0112C165.174 40.8729 165.125 40.5474 165.125 40.0347L165.088 39.2534C165.031 38.3989 165.003 37.5404 165.003 36.6777C165.003 34.8141 164.84 33.5649 164.515 32.9302C164.197 32.2873 163.66 31.9658 162.903 31.9658C162.399 31.9658 161.931 32.1164 161.5 32.4175C161.076 32.7186 160.751 33.1377 160.523 33.6748C160.051 34.7734 159.815 36.8039 159.815 39.7661C159.815 40.4416 159.685 40.9176 159.424 41.1943C159.172 41.471 158.847 41.6094 158.448 41.6094H158.204C157.292 41.6094 156.836 41.2472 156.836 40.5229V40.23C156.836 40.1405 156.885 39.9451 156.983 39.644L157.178 39.0825C157.374 38.4233 157.471 37.0114 157.471 34.8467L157.532 31.2212C157.532 30.7573 157.785 30.5254 158.289 30.5254C158.794 30.5254 159.29 30.6922 159.778 31.0259C160.275 31.3595 160.588 31.5264 160.718 31.5264C160.857 31.5264 161.097 31.4328 161.438 31.2456C162.586 30.619 163.506 30.3057 164.197 30.3057H164.515C165.76 30.3057 166.635 30.8672 167.139 31.9902C167.383 32.5192 167.505 33.6585 167.505 35.4082V35.4937C167.505 35.6401 167.501 35.7866 167.493 35.9331C167.493 36.3319 167.493 36.5394 167.493 36.5557C167.493 36.7103 167.493 36.8608 167.493 37.0073C167.493 37.1213 167.493 37.2311 167.493 37.3369C167.493 37.9635 167.514 38.3908 167.554 38.6187C167.611 38.9279 167.705 39.2493 167.835 39.583C167.973 39.9492 168.042 40.2666 168.042 40.5352ZM177.21 40.6938C177.21 41.0194 177.011 41.3123 176.612 41.5728C176.221 41.825 175.688 41.9512 175.013 41.9512C173.751 41.9512 172.864 41.4832 172.352 40.5474C172.034 39.9614 171.875 38.5902 171.875 36.4336C171.875 34.277 171.839 33.0238 171.766 32.6738C171.692 32.3239 171.489 31.9821 171.155 31.6484C170.822 31.3148 170.655 31.0584 170.655 30.8794C170.655 30.8143 171.049 30.387 171.839 29.5977C172.01 29.4268 172.181 29.0483 172.352 28.4624C172.531 27.8765 172.657 27.4899 172.73 27.3027C172.974 26.7168 173.296 26.4238 173.694 26.4238H173.89C174.24 26.4238 174.488 26.5581 174.634 26.8267C174.691 26.9325 174.777 27.3149 174.891 27.9741C175.013 28.6252 175.151 29.0443 175.306 29.2314C175.46 29.4186 175.847 29.6261 176.465 29.854C177.092 30.0737 177.405 30.3097 177.405 30.562V30.6963C177.405 31.0218 177.047 31.2985 176.331 31.5264C175.623 31.7461 175.167 32.1001 174.964 32.5884C174.565 33.5731 174.366 35.1763 174.366 37.3979C174.366 38.4396 174.545 39.1476 174.903 39.522C175.123 39.7498 175.562 39.9085 176.221 39.998C176.88 40.0876 177.21 40.3195 177.21 40.6938ZM180.689 25.0322C180.689 24.4382 181.246 24.1411 182.361 24.1411H182.581C183.045 24.1411 183.362 24.255 183.533 24.4829C183.704 24.7026 183.79 25.134 183.79 25.7769L183.692 27.5957C183.667 27.8805 183.655 28.0352 183.655 28.0596L183.631 28.5234C183.615 28.8245 183.598 29.1297 183.582 29.439L183.545 29.9028L183.509 30.5986C183.379 33.0726 183.313 34.8996 183.313 36.0796C183.313 37.2515 183.366 38.0938 183.472 38.6064C183.578 39.1191 183.745 39.5545 183.973 39.9126C184.201 40.2707 184.314 40.5067 184.314 40.6206V40.7671C184.314 41.1252 184.135 41.41 183.777 41.6216C183.427 41.8332 182.951 41.939 182.349 41.939H181.714C181.34 41.939 181.01 41.8332 180.726 41.6216C180.449 41.4019 180.311 41.1536 180.311 40.877V40.5474L180.384 40.0347C180.481 39.3267 180.538 38.7977 180.555 38.4478C180.579 38.0897 180.616 37.5973 180.665 36.9707C180.713 36.3359 180.791 34.9891 180.896 32.9302C181.01 30.8631 181.067 29.7523 181.067 29.5977L181.116 28.6821L181.141 27.7788C181.141 26.9162 181.063 26.3018 180.909 25.9355C180.762 25.5612 180.689 25.2601 180.689 25.0322ZM191.236 41.9512C191.236 41.528 190.947 40.7874 190.369 39.7295C189.791 38.6634 189.307 37.6706 188.917 36.751C187.582 33.6178 186.915 31.8071 186.915 31.3188C186.915 31.0991 187.041 30.8997 187.293 30.7207C187.553 30.5417 187.985 30.4521 188.587 30.4521C189.189 30.4521 189.612 30.7085 189.856 31.2212C189.881 31.2782 189.966 31.6322 190.113 32.2832C191.22 36.3278 191.911 38.4478 192.188 38.6431C192.611 38.6431 193.189 37.6543 193.921 35.6768C194.418 34.334 194.723 33.2069 194.837 32.2954C194.959 31.384 195.057 30.859 195.13 30.7207C195.358 30.2975 195.83 30.0859 196.546 30.0859C197.27 30.0859 197.632 30.3667 197.632 30.9282C197.632 31.327 197.486 31.86 197.193 32.5273C196.9 33.1947 196.623 33.9189 196.363 34.7002C194.874 39.1598 193.795 41.9756 193.128 43.1475C192.461 44.3275 191.757 45.2552 191.016 45.9307C190.276 46.6143 189.531 46.9561 188.782 46.9561C188.042 46.9561 187.671 46.7445 187.671 46.3213C187.671 45.9469 188.05 45.6051 188.807 45.2959C189.572 44.9867 190.105 44.6286 190.406 44.2217C190.959 43.4811 191.236 42.7243 191.236 41.9512ZM207.679 35.1885C207.182 34.6839 206.934 33.9759 206.934 33.0645C206.934 32.153 207.341 31.3717 208.155 30.7207C208.969 30.0615 209.978 29.7319 211.182 29.7319H211.5C212.566 29.7319 213.412 29.8825 214.039 30.1836C214.673 30.4847 214.991 30.9364 214.991 31.5386C214.991 32.1326 214.726 32.4297 214.197 32.4297C214.059 32.4297 213.668 32.2669 213.025 31.9414C212.382 31.6077 211.776 31.4409 211.207 31.4409C210.637 31.4409 210.177 31.5711 209.827 31.8315C209.485 32.0838 209.314 32.4338 209.314 32.8813C209.314 33.3289 209.555 33.7196 210.035 34.0532C210.311 34.2485 210.962 34.5578 211.988 34.981C213.021 35.4041 213.758 35.811 214.197 36.2017C214.905 36.8283 215.259 37.6299 215.259 38.6064C215.259 39.583 214.844 40.4212 214.014 41.1211C213.184 41.8128 212.106 42.1587 210.779 42.1587H210.462C209.127 42.1587 208.126 41.9674 207.459 41.585C206.792 41.1943 206.458 40.6898 206.458 40.0713C206.458 39.4447 206.718 39.1313 207.239 39.1313C207.41 39.1313 207.854 39.3511 208.57 39.7905C209.294 40.23 210.002 40.4497 210.694 40.4497C211.394 40.4497 211.919 40.3032 212.269 40.0103C212.618 39.7091 212.793 39.3348 212.793 38.8872C212.793 38.4315 212.574 38.0327 212.134 37.6909C211.898 37.5037 211.223 37.166 210.108 36.6777C208.993 36.1813 208.183 35.6849 207.679 35.1885ZM219.361 41.7681C218.401 41.7681 217.92 41.4263 217.92 40.7427C217.92 40.4334 217.994 39.9736 218.14 39.3633C218.295 38.7529 218.396 38.1914 218.445 37.6787C218.494 37.1579 218.58 35.4814 218.702 32.6494C218.832 29.8174 218.897 28.0921 218.897 27.4736V26.0332L218.824 25.0078C218.824 24.6253 219.174 24.4341 219.874 24.4341C220.582 24.4341 221.041 24.7067 221.253 25.252C221.359 25.5286 221.412 26.432 221.412 27.9619C221.412 29.4919 221.44 30.3626 221.497 30.5742C221.562 30.7858 221.729 30.8916 221.998 30.8916C222.03 30.8916 222.185 30.8428 222.461 30.7451L222.73 30.6475C223.601 30.3057 224.354 30.1348 224.988 30.1348C226.323 30.1348 227.271 30.6556 227.833 31.6973C228.207 32.389 228.394 33.8945 228.394 36.2139C228.394 37.3044 228.402 37.9513 228.418 38.1548C228.435 38.3582 228.488 38.7285 228.577 39.2656C228.667 39.7946 228.711 40.0876 228.711 40.1445C228.711 40.6247 228.602 40.9827 228.382 41.2188C228.17 41.4466 227.784 41.5605 227.222 41.5605C226.669 41.5605 226.307 41.3896 226.136 41.0479C226.046 40.8688 226.001 40.3521 226.001 39.4976L225.965 37.3491L226.001 35.4082C226.001 33.2354 225.367 32.1489 224.097 32.1489C222.974 32.1489 222.173 32.6209 221.692 33.5649C221.212 34.509 220.972 36.2586 220.972 38.814L221.009 40.1445C221.009 40.6003 220.866 40.9868 220.582 41.3042C220.297 41.6134 219.89 41.7681 219.361 41.7681ZM233.948 36.8486C233.948 37.9147 234.192 38.8018 234.681 39.5098C235.169 40.2178 235.767 40.5718 236.475 40.5718H236.841C237.68 40.5718 238.388 40.1486 238.965 39.3022C239.551 38.4559 239.844 37.3288 239.844 35.9209V35.1152C239.844 34.0247 239.604 33.1336 239.124 32.4419C238.652 31.742 238.042 31.3921 237.293 31.3921H237.049C236.178 31.3921 235.446 31.8234 234.852 32.686C234.266 33.5487 233.973 34.5781 233.973 35.7744L233.948 36.0552V36.8486ZM236.707 42.2319H236.316C234.892 42.2319 233.733 41.7355 232.837 40.7427C231.942 39.7498 231.495 38.342 231.495 36.519L231.507 36.3115C231.507 34.3096 232.036 32.7308 233.094 31.5752C233.647 30.9648 234.278 30.5173 234.986 30.2324C235.702 29.9395 236.382 29.793 237.024 29.793H237.623C238.339 29.793 239.026 29.9517 239.686 30.269C241.574 31.1805 242.518 32.8976 242.518 35.4204V35.6157C242.509 36.4377 242.375 37.2718 242.115 38.1182C241.594 39.7865 240.593 40.9665 239.112 41.6582C238.29 42.0407 237.488 42.2319 236.707 42.2319ZM256.495 41.3774C255.917 41.3774 255.416 41.0153 254.993 40.291C254.716 39.8109 254.277 38.8343 253.675 37.3613C253.081 35.8802 252.743 35.1396 252.662 35.1396C252.637 35.1396 252.299 35.8314 251.648 37.2148C250.997 38.5902 250.513 39.5342 250.196 40.0469C249.691 40.8525 249.207 41.2554 248.743 41.2554C248.45 41.2554 248.141 41.1414 247.815 40.9136C247.498 40.6776 247.242 40.2951 247.046 39.7661C247.022 39.701 246.835 39.0011 246.485 37.6665C246.143 36.3319 245.789 35.0786 245.423 33.9067C245.065 32.7349 244.886 31.9414 244.886 31.5264C244.886 31.1113 244.975 30.8143 245.154 30.6353C245.333 30.4562 245.516 30.3667 245.704 30.3667C246.46 30.3667 246.993 30.68 247.303 31.3066C247.417 31.5345 247.563 32.1042 247.742 33.0156C248.597 36.3604 249.17 38.1344 249.463 38.3379C249.773 38.3379 250.224 37.3044 250.818 35.2373C251.062 34.391 251.221 33.63 251.294 32.9546C251.376 32.2791 251.429 31.8885 251.453 31.7827L251.563 31.3921C251.807 30.7492 252.291 30.4277 253.016 30.4277C253.748 30.4277 254.257 30.798 254.542 31.5386C254.655 31.8397 254.761 32.3687 254.859 33.1255C254.957 33.8742 255.095 34.627 255.274 35.3838C255.722 37.3206 256.076 38.2891 256.336 38.2891C256.653 38.2891 257.15 37.2759 257.825 35.2495C258.037 34.6147 258.257 33.8376 258.484 32.918C258.72 31.9984 258.883 31.445 258.973 31.2578C259.266 30.68 259.729 30.3911 260.364 30.3911C260.698 30.3911 260.865 30.7166 260.865 31.3677C260.865 31.7502 260.45 33.2069 259.62 35.7378C258.79 38.2606 258.289 39.7051 258.118 40.0713C257.947 40.4294 257.703 40.7386 257.386 40.999C257.068 41.2513 256.771 41.3774 256.495 41.3774ZM264.319 35.1885C263.823 34.6839 263.575 33.9759 263.575 33.0645C263.575 32.153 263.982 31.3717 264.795 30.7207C265.609 30.0615 266.618 29.7319 267.823 29.7319H268.14C269.206 29.7319 270.053 29.8825 270.679 30.1836C271.314 30.4847 271.631 30.9364 271.631 31.5386C271.631 32.1326 271.367 32.4297 270.838 32.4297C270.7 32.4297 270.309 32.2669 269.666 31.9414C269.023 31.6077 268.417 31.4409 267.847 31.4409C267.278 31.4409 266.818 31.5711 266.468 31.8315C266.126 32.0838 265.955 32.4338 265.955 32.8813C265.955 33.3289 266.195 33.7196 266.675 34.0532C266.952 34.2485 267.603 34.5578 268.628 34.981C269.662 35.4041 270.398 35.811 270.838 36.2017C271.546 36.8283 271.9 37.6299 271.9 38.6064C271.9 39.583 271.485 40.4212 270.655 41.1211C269.825 41.8128 268.746 42.1587 267.42 42.1587H267.103C265.768 42.1587 264.767 41.9674 264.1 41.585C263.432 41.1943 263.099 40.6898 263.099 40.0713C263.099 39.4447 263.359 39.1313 263.88 39.1313C264.051 39.1313 264.494 39.3511 265.21 39.7905C265.935 40.23 266.643 40.4497 267.334 40.4497C268.034 40.4497 268.559 40.3032 268.909 40.0103C269.259 39.7091 269.434 39.3348 269.434 38.8872C269.434 38.4315 269.214 38.0327 268.775 37.6909C268.539 37.5037 267.863 37.166 266.749 36.6777C265.634 36.1813 264.824 35.6849 264.319 35.1885ZM281.458 31.0259C281.458 30.5132 281.889 30.2568 282.752 30.2568H283.033C283.57 30.2568 283.932 30.4725 284.119 30.9038C284.306 31.3351 284.4 32.1408 284.4 33.3208L284.253 37.3979C284.253 39.2941 284.933 40.2422 286.292 40.2422C286.788 40.2422 287.264 40.0672 287.72 39.7173C288.176 39.3674 288.514 38.9482 288.733 38.46C289.214 37.3857 289.454 35.4611 289.454 32.686L289.429 32.1489V31.6729C289.429 31.2415 289.527 30.9282 289.722 30.7329C289.917 30.5376 290.259 30.4399 290.748 30.4399C291.236 30.4399 291.557 30.5579 291.712 30.7939C291.867 31.0299 291.944 31.4124 291.944 31.9414L291.919 32.5884L291.871 35.4692C291.871 35.9331 291.899 36.6452 291.956 37.6055C292.013 38.5658 292.074 39.2697 292.139 39.7173C292.204 40.1567 292.237 40.4172 292.237 40.4985C292.237 41.2228 291.704 41.585 290.638 41.585C290.271 41.585 289.905 41.4507 289.539 41.1821C289.181 40.9054 288.925 40.7671 288.77 40.7671C288.624 40.7671 288.371 40.8566 288.013 41.0356C286.996 41.5483 286.129 41.8047 285.413 41.8047H285.108C283.944 41.8047 283.09 41.4466 282.544 40.7305C281.999 40.0143 281.727 38.7244 281.727 36.8608L281.849 33.1621C281.849 32.6982 281.784 32.2547 281.653 31.8315C281.523 31.4084 281.458 31.1398 281.458 31.0259ZM303.846 34.9565C303.846 33.8742 303.618 33.0278 303.162 32.4175C302.715 31.799 302.177 31.4897 301.551 31.4897H301.197C300.318 31.4897 299.622 31.8397 299.109 32.5396C298.597 33.2313 298.34 34.2526 298.34 35.6035L298.316 35.8477L298.267 37.1172V37.9717C298.267 38.8587 298.446 39.4854 298.804 39.8516C299.17 40.2096 299.687 40.3887 300.354 40.3887H300.586C301.506 40.3887 302.275 39.9655 302.894 39.1191C303.512 38.2728 303.821 37.2433 303.821 36.0308L303.846 35.7622V34.9565ZM297.205 30.3667L298.914 30.6597C299.093 30.6597 299.512 30.5417 300.171 30.3057C300.831 30.0697 301.478 29.9517 302.112 29.9517C303.398 29.9517 304.44 30.4033 305.237 31.3066C306.035 32.2018 306.434 33.4103 306.434 34.9321V35.2373C306.434 36.2627 306.263 37.2067 305.921 38.0693C305.221 39.8516 304.053 41.0031 302.417 41.5239C301.954 41.6704 301.331 41.7721 300.55 41.8291C299.777 41.8861 299.227 41.9878 298.902 42.1343C298.405 42.3621 298.157 42.7731 298.157 43.3672C298.157 43.6195 298.202 43.9613 298.292 44.3926C298.389 44.8239 298.438 45.2227 298.438 45.5889C298.438 45.9551 298.23 46.3132 297.815 46.6631C297.4 47.0212 296.884 47.2002 296.265 47.2002H296.009C295.276 47.2002 294.91 46.9316 294.91 46.3945V46.1626C294.91 46.0487 294.987 45.7272 295.142 45.1982C295.305 44.6774 295.419 44.1159 295.484 43.5137C295.549 42.9196 295.655 41.4344 295.801 39.0581C295.948 36.6818 296.021 35.0583 296.021 34.1875C296.021 33.3086 295.964 32.5721 295.85 31.978C295.744 31.384 295.691 31.0625 295.691 31.0137C295.691 30.5824 296.196 30.3667 297.205 30.3667ZM315.906 31.0259C315.906 30.5132 316.338 30.2568 317.2 30.2568H317.481C318.018 30.2568 318.38 30.4725 318.567 30.9038C318.755 31.3351 318.848 32.1408 318.848 33.3208L318.702 37.3979C318.702 39.2941 319.381 40.2422 320.74 40.2422C321.237 40.2422 321.713 40.0672 322.168 39.7173C322.624 39.3674 322.962 38.9482 323.182 38.46C323.662 37.3857 323.902 35.4611 323.902 32.686L323.877 32.1489V31.6729C323.877 31.2415 323.975 30.9282 324.17 30.7329C324.366 30.5376 324.708 30.4399 325.196 30.4399C325.684 30.4399 326.006 30.5579 326.16 30.7939C326.315 31.0299 326.392 31.4124 326.392 31.9414L326.368 32.5884L326.319 35.4692C326.319 35.9331 326.347 36.6452 326.404 37.6055C326.461 38.5658 326.522 39.2697 326.587 39.7173C326.653 40.1567 326.685 40.4172 326.685 40.4985C326.685 41.2228 326.152 41.585 325.086 41.585C324.72 41.585 324.354 41.4507 323.987 41.1821C323.629 40.9054 323.373 40.7671 323.218 40.7671C323.072 40.7671 322.819 40.8566 322.461 41.0356C321.444 41.5483 320.577 41.8047 319.861 41.8047H319.556C318.392 41.8047 317.538 41.4466 316.993 40.7305C316.447 40.0143 316.175 38.7244 316.175 36.8608L316.297 33.1621C316.297 32.6982 316.232 32.2547 316.102 31.8315C315.971 31.4084 315.906 31.1398 315.906 31.0259ZM340.918 40.5352C340.918 41.1374 340.394 41.4385 339.344 41.4385C338.75 41.4385 338.351 41.2961 338.147 41.0112C338.05 40.8729 338.001 40.5474 338.001 40.0347L337.964 39.2534C337.907 38.3989 337.879 37.5404 337.879 36.6777C337.879 34.8141 337.716 33.5649 337.391 32.9302C337.073 32.2873 336.536 31.9658 335.779 31.9658C335.275 31.9658 334.807 32.1164 334.375 32.4175C333.952 32.7186 333.627 33.1377 333.399 33.6748C332.927 34.7734 332.691 36.8039 332.691 39.7661C332.691 40.4416 332.561 40.9176 332.3 41.1943C332.048 41.471 331.722 41.6094 331.324 41.6094H331.08C330.168 41.6094 329.712 41.2472 329.712 40.5229V40.23C329.712 40.1405 329.761 39.9451 329.859 39.644L330.054 39.0825C330.25 38.4233 330.347 37.0114 330.347 34.8467L330.408 31.2212C330.408 30.7573 330.66 30.5254 331.165 30.5254C331.67 30.5254 332.166 30.6922 332.654 31.0259C333.151 31.3595 333.464 31.5264 333.594 31.5264C333.733 31.5264 333.973 31.4328 334.314 31.2456C335.462 30.619 336.382 30.3057 337.073 30.3057H337.391C338.636 30.3057 339.511 30.8672 340.015 31.9902C340.259 32.5192 340.381 33.6585 340.381 35.4082V35.4937C340.381 35.6401 340.377 35.7866 340.369 35.9331C340.369 36.3319 340.369 36.5394 340.369 36.5557C340.369 36.7103 340.369 36.8608 340.369 37.0073C340.369 37.1213 340.369 37.2311 340.369 37.3369C340.369 37.9635 340.389 38.3908 340.43 38.6187C340.487 38.9279 340.581 39.2493 340.711 39.583C340.849 39.9492 340.918 40.2666 340.918 40.5352ZM350.086 40.6938C350.086 41.0194 349.887 41.3123 349.488 41.5728C349.097 41.825 348.564 41.9512 347.889 41.9512C346.627 41.9512 345.74 41.4832 345.228 40.5474C344.91 39.9614 344.751 38.5902 344.751 36.4336C344.751 34.277 344.715 33.0238 344.642 32.6738C344.568 32.3239 344.365 31.9821 344.031 31.6484C343.698 31.3148 343.531 31.0584 343.531 30.8794C343.531 30.8143 343.925 30.387 344.715 29.5977C344.886 29.4268 345.057 29.0483 345.228 28.4624C345.407 27.8765 345.533 27.4899 345.606 27.3027C345.85 26.7168 346.172 26.4238 346.57 26.4238H346.766C347.116 26.4238 347.364 26.5581 347.51 26.8267C347.567 26.9325 347.653 27.3149 347.767 27.9741C347.889 28.6252 348.027 29.0443 348.182 29.2314C348.336 29.4186 348.723 29.6261 349.341 29.854C349.968 30.0737 350.281 30.3097 350.281 30.562V30.6963C350.281 31.0218 349.923 31.2985 349.207 31.5264C348.499 31.7461 348.043 32.1001 347.84 32.5884C347.441 33.5731 347.242 35.1763 347.242 37.3979C347.242 38.4396 347.421 39.1476 347.779 39.522C347.999 39.7498 348.438 39.9085 349.097 39.998C349.756 40.0876 350.086 40.3195 350.086 40.6938ZM356.861 26.1309V26.2773C356.861 26.6924 356.739 27.0464 356.495 27.3394C356.259 27.6242 355.892 27.7666 355.396 27.7666H355.201L354.822 27.7178C354.603 27.7178 354.391 27.616 354.188 27.4126C353.984 27.2091 353.882 26.904 353.882 26.4971V26.3506L353.943 25.9111C353.943 25.7402 354.045 25.5286 354.249 25.2764C354.46 25.0241 354.729 24.8979 355.054 24.8979L355.335 24.8613H355.579L355.921 24.9102C356.132 24.9102 356.34 25.016 356.543 25.2275C356.755 25.431 356.861 25.7321 356.861 26.1309ZM356.287 31.2822L356.153 34.5659L356.128 34.8955L356.092 35.8965V36.3726C356.092 37.5444 356.124 38.3135 356.189 38.6797C356.263 39.0459 356.397 39.404 356.592 39.7539C356.788 40.0957 356.885 40.3439 356.885 40.4985V40.6084C356.885 41.0072 356.682 41.3245 356.275 41.5605C355.868 41.7965 355.315 41.9146 354.615 41.9146H354.31C353.903 41.9146 353.593 41.825 353.382 41.646C353.17 41.4588 353.064 41.2594 353.064 41.0479V40.7793C353.064 40.6735 353.158 40.2992 353.345 39.6562C353.532 39.0052 353.626 38.1222 353.626 37.0073C353.65 36.6899 353.663 36.4702 353.663 36.3481L353.699 35.6768L353.724 35.3472C353.764 34.7775 353.785 34.334 353.785 34.0166L353.797 33.5283C353.797 32.918 353.695 32.3768 353.492 31.9048C353.296 31.4328 353.199 31.1398 353.199 31.0259C353.199 30.4399 353.752 30.147 354.859 30.147H355.298C355.713 30.147 355.982 30.2568 356.104 30.4766C356.226 30.6882 356.287 30.9567 356.287 31.2822ZM362 36.0796V37.0073C362 37.9757 362.22 38.7855 362.659 39.4365C363.107 40.0794 363.632 40.4009 364.234 40.4009H364.576C365.503 40.4009 366.22 40.0306 366.724 39.29C367.237 38.5495 367.493 37.4468 367.493 35.9819C367.509 35.8029 367.518 35.6727 367.518 35.5913L367.542 35.3472L367.554 34.8345V33.9678C367.554 32.3076 366.891 31.4775 365.564 31.4775H365.088C364.226 31.4775 363.493 31.9129 362.891 32.7837C362.297 33.6545 362 34.7531 362 36.0796ZM359.656 36.6411C359.656 35.7948 359.807 34.9321 360.108 34.0532C360.409 33.1743 360.832 32.4256 361.377 31.8071C361.923 31.1805 362.537 30.7288 363.221 30.4521C363.904 30.1673 364.714 30.0249 365.65 30.0249C366.594 30.0249 367.18 29.854 367.408 29.5122C367.636 29.1623 367.75 28.3932 367.75 27.2051C367.75 26.9854 367.713 26.6924 367.64 26.3262C367.566 25.96 367.53 25.7484 367.53 25.6914C367.53 25.3415 367.68 25.0241 367.981 24.7393C368.283 24.4463 368.677 24.2998 369.166 24.2998H369.41C369.792 24.2998 370.077 24.3893 370.264 24.5684C370.451 24.7474 370.545 25.1217 370.545 25.6914V26.8267L370.521 27.4004C370.512 27.5957 370.508 27.8805 370.508 28.2549C370.508 28.6211 370.447 29.8011 370.325 31.7949C370.203 33.7887 370.142 35.16 370.142 35.9087L370.13 36.2017C370.122 36.397 370.118 36.5841 370.118 36.7632L370.105 37.0439C370.105 37.0439 370.105 37.3613 370.105 37.9961C370.105 38.818 370.171 39.4365 370.301 39.8516C370.431 40.2666 370.496 40.5636 370.496 40.7427C370.496 40.9217 370.394 41.1089 370.191 41.3042C369.987 41.4995 369.67 41.5972 369.239 41.5972C368.816 41.5972 368.405 41.528 368.006 41.3896C367.607 41.2432 367.314 41.1699 367.127 41.1699C366.94 41.1699 366.696 41.2269 366.395 41.3408C365.483 41.6745 364.649 41.8413 363.892 41.8413C363.876 41.8413 363.86 41.8413 363.843 41.8413H363.562C362.334 41.8413 361.373 41.3937 360.682 40.4985C359.998 39.5952 359.656 38.4111 359.656 36.9463V36.6411ZM377.759 41.9512C377.759 41.528 377.47 40.7874 376.893 39.7295C376.315 38.6634 375.831 37.6706 375.44 36.751C374.105 33.6178 373.438 31.8071 373.438 31.3188C373.438 31.0991 373.564 30.8997 373.816 30.7207C374.077 30.5417 374.508 30.4521 375.11 30.4521C375.713 30.4521 376.136 30.7085 376.38 31.2212C376.404 31.2782 376.49 31.6322 376.636 32.2832C377.743 36.3278 378.435 38.4478 378.711 38.6431C379.135 38.6431 379.712 37.6543 380.445 35.6768C380.941 34.334 381.246 33.2069 381.36 32.2954C381.482 31.384 381.58 30.859 381.653 30.7207C381.881 30.2975 382.353 30.0859 383.069 30.0859C383.794 30.0859 384.156 30.3667 384.156 30.9282C384.156 31.327 384.009 31.86 383.716 32.5273C383.423 33.1947 383.147 33.9189 382.886 34.7002C381.397 39.1598 380.319 41.9756 379.651 43.1475C378.984 44.3275 378.28 45.2552 377.54 45.9307C376.799 46.6143 376.054 46.9561 375.306 46.9561C374.565 46.9561 374.195 46.7445 374.195 46.3213C374.195 45.9469 374.573 45.6051 375.33 45.2959C376.095 44.9867 376.628 44.6286 376.929 44.2217C377.483 43.4811 377.759 42.7243 377.759 41.9512ZM387.464 42.1953H387.085C386.679 42.1953 386.361 42.1017 386.133 41.9146C385.914 41.7274 385.804 41.4792 385.804 41.1699C385.787 41.1048 385.779 41.0519 385.779 41.0112L385.755 40.8037V40.584L385.767 40.5352V40.4253C385.783 40.3602 385.792 40.3073 385.792 40.2666C385.792 39.9004 385.914 39.6156 386.158 39.4121C386.41 39.2005 386.687 39.0947 386.988 39.0947L387.244 39.0581H387.574C388.461 39.0581 388.904 39.522 388.904 40.4497V40.6206L388.855 41.0356C388.855 41.41 388.713 41.6989 388.428 41.9023C388.152 42.0977 387.83 42.1953 387.464 42.1953ZM408.216 29.1582V28.9385C408.216 28.1165 407.931 27.494 407.361 27.0708C406.8 26.6476 406.055 26.436 405.127 26.436H404.432C403.805 26.436 403.386 26.5093 403.174 26.6558C402.963 26.8022 402.857 27.0911 402.857 27.5225C402.824 27.7829 402.808 27.9456 402.808 28.0107L402.686 30.269V30.4766L402.649 31.0869V31.2944L402.637 31.4897C402.637 31.8071 402.706 32.0146 402.845 32.1123C402.991 32.21 403.272 32.2588 403.687 32.2588H404.188L404.285 32.2466H404.383L404.688 32.2344L405.298 32.1855C406.145 32.1855 406.84 31.8844 407.386 31.2822C407.939 30.68 408.216 29.972 408.216 29.1582ZM402.308 39.3877C402.308 39.7295 402.417 39.9614 402.637 40.0835C402.865 40.2056 403.414 40.2666 404.285 40.2666H404.517C405.917 40.2666 406.938 40.0143 407.581 39.5098C408.387 38.875 408.79 38.0164 408.79 36.9341V36.6899C408.79 35.7785 408.472 35.0583 407.837 34.5293C407.211 33.9922 406.32 33.7236 405.164 33.7236H404.126C403.882 33.748 403.626 33.7603 403.357 33.7603C402.788 33.7603 402.503 34.1794 402.503 35.0176C402.47 35.3268 402.454 35.5181 402.454 35.5913L402.356 37.4468V37.6787L402.308 38.936V39.3877ZM410.718 28.8408C410.718 30.1348 410.234 31.2131 409.266 32.0757C408.794 32.4907 408.558 32.7145 408.558 32.7471C408.558 32.7796 408.838 32.9831 409.4 33.3574C410.726 34.2282 411.39 35.4774 411.39 37.105C411.39 38.7244 410.686 39.994 409.278 40.9136C408.155 41.6541 406.368 42.0244 403.919 42.0244H403.626L403.333 42.0122H403.04C401.217 42.0122 400.098 41.9674 399.683 41.8779C399.268 41.7803 399.061 41.6175 399.061 41.3896V41.1943C399.061 40.999 399.183 40.6572 399.427 40.1689C399.541 39.8434 399.626 39.4121 399.683 38.875C399.911 36.7347 400.025 34.2892 400.025 31.5386L400.086 29.8052L400.11 29.2437L400.123 28.3892C400.123 27.6242 400.066 27.0382 399.952 26.6313L399.83 26.2285C399.773 26.0332 399.744 25.8501 399.744 25.6792C399.744 25.3781 399.964 25.1706 400.403 25.0566C400.843 24.9427 401.693 24.8857 402.955 24.8857L403.235 24.8735C403.431 24.8654 403.626 24.8613 403.821 24.8613L405.005 24.8369C408.814 24.8369 410.718 26.1715 410.718 28.8408ZM416.297 36.8486C416.297 37.9147 416.541 38.8018 417.029 39.5098C417.518 40.2178 418.116 40.5718 418.824 40.5718H419.19C420.028 40.5718 420.736 40.1486 421.314 39.3022C421.9 38.4559 422.193 37.3288 422.193 35.9209V35.1152C422.193 34.0247 421.953 33.1336 421.473 32.4419C421.001 31.742 420.39 31.3921 419.642 31.3921H419.397C418.527 31.3921 417.794 31.8234 417.2 32.686C416.614 33.5487 416.321 34.5781 416.321 35.7744L416.297 36.0552V36.8486ZM419.056 42.2319H418.665C417.241 42.2319 416.081 41.7355 415.186 40.7427C414.291 39.7498 413.843 38.342 413.843 36.519L413.855 36.3115C413.855 34.3096 414.384 32.7308 415.442 31.5752C415.996 30.9648 416.626 30.5173 417.334 30.2324C418.051 29.9395 418.73 29.793 419.373 29.793H419.971C420.687 29.793 421.375 29.9517 422.034 30.269C423.922 31.1805 424.866 32.8976 424.866 35.4204V35.6157C424.858 36.4377 424.724 37.2718 424.463 38.1182C423.943 39.7865 422.942 40.9665 421.46 41.6582C420.639 42.0407 419.837 42.2319 419.056 42.2319ZM429.505 36.0796V37.0073C429.505 37.9757 429.725 38.7855 430.164 39.4365C430.612 40.0794 431.137 40.4009 431.739 40.4009H432.081C433.008 40.4009 433.724 40.0306 434.229 39.29C434.742 38.5495 434.998 37.4468 434.998 35.9819C435.014 35.8029 435.022 35.6727 435.022 35.5913L435.047 35.3472L435.059 34.8345V33.9678C435.059 32.3076 434.396 31.4775 433.069 31.4775H432.593C431.731 31.4775 430.998 31.9129 430.396 32.7837C429.802 33.6545 429.505 34.7531 429.505 36.0796ZM427.161 36.6411C427.161 35.7948 427.312 34.9321 427.613 34.0532C427.914 33.1743 428.337 32.4256 428.882 31.8071C429.428 31.1805 430.042 30.7288 430.726 30.4521C431.409 30.1673 432.219 30.0249 433.155 30.0249C434.099 30.0249 434.685 29.854 434.913 29.5122C435.14 29.1623 435.254 28.3932 435.254 27.2051C435.254 26.9854 435.218 26.6924 435.145 26.3262C435.071 25.96 435.035 25.7484 435.035 25.6914C435.035 25.3415 435.185 25.0241 435.486 24.7393C435.787 24.4463 436.182 24.2998 436.67 24.2998H436.915C437.297 24.2998 437.582 24.3893 437.769 24.5684C437.956 24.7474 438.05 25.1217 438.05 25.6914V26.8267L438.025 27.4004C438.017 27.5957 438.013 27.8805 438.013 28.2549C438.013 28.6211 437.952 29.8011 437.83 31.7949C437.708 33.7887 437.647 35.16 437.647 35.9087L437.635 36.2017C437.627 36.397 437.623 36.5841 437.623 36.7632L437.61 37.0439C437.61 37.0439 437.61 37.3613 437.61 37.9961C437.61 38.818 437.675 39.4365 437.806 39.8516C437.936 40.2666 438.001 40.5636 438.001 40.7427C438.001 40.9217 437.899 41.1089 437.696 41.3042C437.492 41.4995 437.175 41.5972 436.744 41.5972C436.32 41.5972 435.91 41.528 435.511 41.3896C435.112 41.2432 434.819 41.1699 434.632 41.1699C434.445 41.1699 434.201 41.2269 433.899 41.3408C432.988 41.6745 432.154 41.8413 431.397 41.8413C431.381 41.8413 431.364 41.8413 431.348 41.8413H431.067C429.839 41.8413 428.878 41.3937 428.187 40.4985C427.503 39.5952 427.161 38.4111 427.161 36.9463V36.6411ZM445.264 41.9512C445.264 41.528 444.975 40.7874 444.397 39.7295C443.82 38.6634 443.335 37.6706 442.945 36.751C441.61 33.6178 440.943 31.8071 440.943 31.3188C440.943 31.0991 441.069 30.8997 441.321 30.7207C441.582 30.5417 442.013 30.4521 442.615 30.4521C443.217 30.4521 443.641 30.7085 443.885 31.2212C443.909 31.2782 443.995 31.6322 444.141 32.2832C445.248 36.3278 445.94 38.4478 446.216 38.6431C446.639 38.6431 447.217 37.6543 447.95 35.6768C448.446 34.334 448.751 33.2069 448.865 32.2954C448.987 31.384 449.085 30.859 449.158 30.7207C449.386 30.2975 449.858 30.0859 450.574 30.0859C451.299 30.0859 451.661 30.3667 451.661 30.9282C451.661 31.327 451.514 31.86 451.221 32.5273C450.928 33.1947 450.652 33.9189 450.391 34.7002C448.902 39.1598 447.824 41.9756 447.156 43.1475C446.489 44.3275 445.785 45.2552 445.044 45.9307C444.304 46.6143 443.559 46.9561 442.811 46.9561C442.07 46.9561 441.7 46.7445 441.7 46.3213C441.7 45.9469 442.078 45.6051 442.835 45.2959C443.6 44.9867 444.133 44.6286 444.434 44.2217C444.987 43.4811 445.264 42.7243 445.264 41.9512ZM462.928 36.8486C462.928 37.9147 463.172 38.8018 463.66 39.5098C464.148 40.2178 464.747 40.5718 465.455 40.5718H465.821C466.659 40.5718 467.367 40.1486 467.945 39.3022C468.531 38.4559 468.824 37.3288 468.824 35.9209V35.1152C468.824 34.0247 468.584 33.1336 468.104 32.4419C467.632 31.742 467.021 31.3921 466.272 31.3921H466.028C465.158 31.3921 464.425 31.8234 463.831 32.686C463.245 33.5487 462.952 34.5781 462.952 35.7744L462.928 36.0552V36.8486ZM465.687 42.2319H465.296C463.872 42.2319 462.712 41.7355 461.817 40.7427C460.922 39.7498 460.474 38.342 460.474 36.519L460.486 36.3115C460.486 34.3096 461.015 32.7308 462.073 31.5752C462.627 30.9648 463.257 30.5173 463.965 30.2324C464.681 29.9395 465.361 29.793 466.004 29.793H466.602C467.318 29.793 468.006 29.9517 468.665 30.269C470.553 31.1805 471.497 32.8976 471.497 35.4204V35.6157C471.489 36.4377 471.355 37.2718 471.094 38.1182C470.573 39.7865 469.572 40.9665 468.091 41.6582C467.269 42.0407 466.468 42.2319 465.687 42.2319ZM476.136 36.0796V37.0073C476.136 37.9757 476.355 38.7855 476.795 39.4365C477.243 40.0794 477.767 40.4009 478.37 40.4009H478.711C479.639 40.4009 480.355 40.0306 480.86 39.29C481.373 38.5495 481.629 37.4468 481.629 35.9819C481.645 35.8029 481.653 35.6727 481.653 35.5913L481.678 35.3472L481.69 34.8345V33.9678C481.69 32.3076 481.027 31.4775 479.7 31.4775H479.224C478.361 31.4775 477.629 31.9129 477.027 32.7837C476.433 33.6545 476.136 34.7531 476.136 36.0796ZM473.792 36.6411C473.792 35.7948 473.943 34.9321 474.244 34.0532C474.545 33.1743 474.968 32.4256 475.513 31.8071C476.058 31.1805 476.673 30.7288 477.356 30.4521C478.04 30.1673 478.85 30.0249 479.786 30.0249C480.73 30.0249 481.316 29.854 481.543 29.5122C481.771 29.1623 481.885 28.3932 481.885 27.2051C481.885 26.9854 481.849 26.6924 481.775 26.3262C481.702 25.96 481.666 25.7484 481.666 25.6914C481.666 25.3415 481.816 25.0241 482.117 24.7393C482.418 24.4463 482.813 24.2998 483.301 24.2998H483.545C483.928 24.2998 484.213 24.3893 484.4 24.5684C484.587 24.7474 484.681 25.1217 484.681 25.6914V26.8267L484.656 27.4004C484.648 27.5957 484.644 27.8805 484.644 28.2549C484.644 28.6211 484.583 29.8011 484.461 31.7949C484.339 33.7887 484.278 35.16 484.278 35.9087L484.266 36.2017C484.257 36.397 484.253 36.5841 484.253 36.7632L484.241 37.0439C484.241 37.0439 484.241 37.3613 484.241 37.9961C484.241 38.818 484.306 39.4365 484.437 39.8516C484.567 40.2666 484.632 40.5636 484.632 40.7427C484.632 40.9217 484.53 41.1089 484.327 41.3042C484.123 41.4995 483.806 41.5972 483.375 41.5972C482.951 41.5972 482.54 41.528 482.142 41.3896C481.743 41.2432 481.45 41.1699 481.263 41.1699C481.076 41.1699 480.831 41.2269 480.53 41.3408C479.619 41.6745 478.785 41.8413 478.028 41.8413C478.012 41.8413 477.995 41.8413 477.979 41.8413H477.698C476.469 41.8413 475.509 41.3937 474.817 40.4985C474.134 39.5952 473.792 38.4111 473.792 36.9463V36.6411ZM489.93 36.8486C489.93 37.9147 490.174 38.8018 490.662 39.5098C491.15 40.2178 491.749 40.5718 492.457 40.5718H492.823C493.661 40.5718 494.369 40.1486 494.947 39.3022C495.533 38.4559 495.826 37.3288 495.826 35.9209V35.1152C495.826 34.0247 495.586 33.1336 495.105 32.4419C494.633 31.742 494.023 31.3921 493.274 31.3921H493.03C492.16 31.3921 491.427 31.8234 490.833 32.686C490.247 33.5487 489.954 34.5781 489.954 35.7744L489.93 36.0552V36.8486ZM492.688 42.2319H492.298C490.874 42.2319 489.714 41.7355 488.819 40.7427C487.924 39.7498 487.476 38.342 487.476 36.519L487.488 36.3115C487.488 34.3096 488.017 32.7308 489.075 31.5752C489.629 30.9648 490.259 30.5173 490.967 30.2324C491.683 29.9395 492.363 29.793 493.006 29.793H493.604C494.32 29.793 495.008 29.9517 495.667 30.269C497.555 31.1805 498.499 32.8976 498.499 35.4204V35.6157C498.491 36.4377 498.357 37.2718 498.096 38.1182C497.575 39.7865 496.574 40.9665 495.093 41.6582C494.271 42.0407 493.47 42.2319 492.688 42.2319ZM501.807 35.6523V34.7124C501.807 33.5812 501.746 32.7552 501.624 32.2344C501.502 31.7054 501.441 31.3351 501.441 31.1235C501.441 30.6271 501.803 30.3789 502.527 30.3789C503.252 30.3789 503.777 30.5132 504.102 30.7817C504.192 30.855 504.306 30.9974 504.444 31.209C504.59 31.4206 504.721 31.5264 504.834 31.5264C504.859 31.5264 505.213 31.3188 505.896 30.9038C506.58 30.4888 507.166 30.2812 507.654 30.2812H507.837C508.236 30.2812 508.554 30.3789 508.79 30.5742C509.026 30.7614 509.144 30.9933 509.144 31.27V31.4287C509.144 31.7624 509.026 32.0024 508.79 32.1489C508.562 32.2954 508.195 32.3687 507.691 32.3687C506.543 32.3687 505.705 32.7715 505.176 33.5771C504.655 34.3828 504.395 35.807 504.395 37.8496C504.395 38.1426 504.444 38.5942 504.542 39.2046C504.647 39.8149 504.7 40.2747 504.7 40.584C504.7 40.8932 504.533 41.1903 504.2 41.4751C503.866 41.7599 503.443 41.9023 502.93 41.9023H502.515C502.068 41.9023 501.722 41.7965 501.478 41.585C501.242 41.3652 501.124 41.1007 501.124 40.7915C501.124 40.4741 501.181 40.1527 501.294 39.8271C501.604 38.9482 501.758 37.9798 501.758 36.9219C501.791 36.3359 501.807 35.9128 501.807 35.6523ZM510.975 40.3643C510.975 39.9574 511.101 39.64 511.353 39.4121C511.605 39.1842 511.935 39.0703 512.342 39.0703H512.793C513.208 39.0703 513.514 39.168 513.709 39.3633C513.904 39.5586 514.002 39.937 514.002 40.4985V40.6816C514.002 41.7233 513.721 42.6999 513.16 43.6113C512.435 44.7913 511.784 45.3813 511.207 45.3813H511.121C510.779 45.3813 510.608 45.2349 510.608 44.9419C510.608 44.8361 510.783 44.5187 511.133 43.9897C511.483 43.4689 511.658 43.0783 511.658 42.8179C511.658 42.5656 511.548 42.2197 511.329 41.7803C511.109 41.3408 510.999 41.0112 510.999 40.7915L510.975 40.6206V40.3643ZM529.09 30.7085C529.716 30.4725 530.359 30.3545 531.019 30.3545C531.678 30.3545 532.361 30.5498 533.069 30.9404C533.785 31.3311 534.176 31.5264 534.241 31.5264C534.306 31.5264 534.746 31.327 535.56 30.9282C536.373 30.5295 537.106 30.3301 537.757 30.3301C538.416 30.3301 538.957 30.4684 539.38 30.7451C539.812 31.0137 540.137 31.3351 540.357 31.7095C540.772 32.4256 540.979 34.0166 540.979 36.4824C540.979 37.5892 540.988 38.224 541.004 38.3867C541.028 38.5413 541.085 38.8221 541.175 39.229C541.272 39.6278 541.321 39.9574 541.321 40.2178C541.321 40.4701 541.215 40.7345 541.004 41.0112C540.792 41.2879 540.512 41.4263 540.162 41.4263C539.47 41.4263 539.059 41.1455 538.929 40.584C538.831 40.1771 538.717 38.9889 538.587 37.0195C538.465 35.0501 538.331 33.8945 538.184 33.5527C537.891 32.8366 537.269 32.4785 536.316 32.4785C535.706 32.4785 535.23 32.861 534.888 33.626C534.392 34.7246 534.144 36.2871 534.144 38.3135L534.266 40.0713C534.266 40.6898 534.038 41.1577 533.582 41.4751C533.289 41.6785 532.898 41.7803 532.41 41.7803C531.93 41.7803 531.613 41.7314 531.458 41.6338C531.189 41.471 531.055 41.1252 531.055 40.5962C531.055 40.4985 531.132 40.0998 531.287 39.3999C531.45 38.6919 531.531 37.5444 531.531 35.9575C531.531 34.3625 531.413 33.3493 531.177 32.918C530.941 32.4785 530.53 32.2588 529.944 32.2588C529.358 32.2588 528.838 32.4582 528.382 32.8569C527.934 33.2557 527.605 33.6911 527.393 34.1631C527.19 34.6351 527.007 35.7581 526.844 37.5322C526.689 39.3063 526.579 40.3236 526.514 40.584C526.4 41.0316 526.071 41.2554 525.525 41.2554C524.988 41.2554 524.618 41.0967 524.415 40.7793C524.219 40.4538 524.122 40.0591 524.122 39.5952L524.183 39.168L524.415 38.3257C524.512 37.9351 524.569 37.4793 524.585 36.9585C524.708 33.7277 524.801 31.8844 524.866 31.4287C524.931 30.973 525.224 30.7451 525.745 30.7451L527.564 31.0503C527.955 31.0503 528.463 30.9364 529.09 30.7085ZM546.57 34.5781V34.7734C546.57 35.0176 546.794 35.1396 547.242 35.1396H547.535L547.608 35.1274L548.206 35.0786C548.833 34.9891 549.24 34.9443 549.427 34.9443C550.314 34.9443 550.981 34.7775 551.429 34.4438C551.64 34.2811 551.746 33.9922 551.746 33.5771V33.4429C551.746 32.8325 551.543 32.3483 551.136 31.9902C550.737 31.6322 550.257 31.4531 549.695 31.4531H549.61L549.537 31.4653C548.747 31.4653 548.056 31.799 547.461 32.4663C546.867 33.1336 546.57 33.8376 546.57 34.5781ZM549.231 42.1587H548.963C547.409 42.1587 546.172 41.6663 545.252 40.6816C544.332 39.6888 543.873 38.3664 543.873 36.7144V36.1772C543.873 35.3879 544.027 34.5863 544.336 33.7725C544.963 32.1449 545.984 31.0218 547.4 30.4033C548.149 30.0697 548.91 29.9028 549.683 29.9028H550.208C551.274 29.9028 552.173 30.2609 552.906 30.9771C553.646 31.6851 554.017 32.6006 554.017 33.7236V33.9678C554.017 34.7653 553.699 35.3309 553.064 35.6646C552.625 35.9006 551.6 36.1366 549.988 36.3726C548.377 36.6086 547.498 36.751 547.352 36.7998C546.863 36.9707 546.619 37.2962 546.619 37.7764C546.619 38.4437 546.904 39.0133 547.474 39.4854C548.043 39.9574 548.808 40.1934 549.769 40.1934C550.216 40.1934 550.826 40.0713 551.6 39.8271C552.373 39.583 552.82 39.4609 552.942 39.4609C553.357 39.4609 553.565 39.64 553.565 39.998C553.565 40.4782 553.097 40.9583 552.161 41.4385C551.225 41.9186 550.249 42.1587 549.231 42.1587ZM557.532 35.1885C557.036 34.6839 556.788 33.9759 556.788 33.0645C556.788 32.153 557.194 31.3717 558.008 30.7207C558.822 30.0615 559.831 29.7319 561.036 29.7319H561.353C562.419 29.7319 563.265 29.8825 563.892 30.1836C564.527 30.4847 564.844 30.9364 564.844 31.5386C564.844 32.1326 564.58 32.4297 564.051 32.4297C563.912 32.4297 563.522 32.2669 562.879 31.9414C562.236 31.6077 561.63 31.4409 561.06 31.4409C560.49 31.4409 560.031 31.5711 559.681 31.8315C559.339 32.0838 559.168 32.4338 559.168 32.8813C559.168 33.3289 559.408 33.7196 559.888 34.0532C560.165 34.2485 560.816 34.5578 561.841 34.981C562.875 35.4041 563.611 35.811 564.051 36.2017C564.759 36.8283 565.113 37.6299 565.113 38.6064C565.113 39.583 564.698 40.4212 563.868 41.1211C563.038 41.8128 561.959 42.1587 560.633 42.1587H560.315C558.981 42.1587 557.98 41.9674 557.312 41.585C556.645 41.1943 556.312 40.6898 556.312 40.0713C556.312 39.4447 556.572 39.1313 557.093 39.1313C557.264 39.1313 557.707 39.3511 558.423 39.7905C559.148 40.23 559.856 40.4497 560.547 40.4497C561.247 40.4497 561.772 40.3032 562.122 40.0103C562.472 39.7091 562.647 39.3348 562.647 38.8872C562.647 38.4315 562.427 38.0327 561.988 37.6909C561.752 37.5037 561.076 37.166 559.961 36.6777C558.847 36.1813 558.037 35.6849 557.532 35.1885ZM568.592 35.1885C568.095 34.6839 567.847 33.9759 567.847 33.0645C567.847 32.153 568.254 31.3717 569.068 30.7207C569.882 30.0615 570.891 29.7319 572.095 29.7319H572.413C573.479 29.7319 574.325 29.8825 574.952 30.1836C575.586 30.4847 575.904 30.9364 575.904 31.5386C575.904 32.1326 575.639 32.4297 575.11 32.4297C574.972 32.4297 574.581 32.2669 573.938 31.9414C573.296 31.6077 572.689 31.4409 572.12 31.4409C571.55 31.4409 571.09 31.5711 570.74 31.8315C570.398 32.0838 570.228 32.4338 570.228 32.8813C570.228 33.3289 570.468 33.7196 570.948 34.0532C571.224 34.2485 571.875 34.5578 572.901 34.981C573.934 35.4041 574.671 35.811 575.11 36.2017C575.818 36.8283 576.172 37.6299 576.172 38.6064C576.172 39.583 575.757 40.4212 574.927 41.1211C574.097 41.8128 573.019 42.1587 571.692 42.1587H571.375C570.04 42.1587 569.039 41.9674 568.372 41.585C567.705 41.1943 567.371 40.6898 567.371 40.0713C567.371 39.4447 567.632 39.1313 568.152 39.1313C568.323 39.1313 568.767 39.3511 569.483 39.7905C570.207 40.23 570.915 40.4497 571.607 40.4497C572.307 40.4497 572.832 40.3032 573.182 40.0103C573.532 39.7091 573.707 39.3348 573.707 38.8872C573.707 38.4315 573.487 38.0327 573.047 37.6909C572.811 37.5037 572.136 37.166 571.021 36.6777C569.906 36.1813 569.096 35.6849 568.592 35.1885ZM582.935 41.9512C582.935 41.528 582.646 40.7874 582.068 39.7295C581.491 38.6634 581.006 37.6706 580.616 36.751C579.281 33.6178 578.614 31.8071 578.614 31.3188C578.614 31.0991 578.74 30.8997 578.992 30.7207C579.253 30.5417 579.684 30.4521 580.286 30.4521C580.888 30.4521 581.312 30.7085 581.556 31.2212C581.58 31.2782 581.666 31.6322 581.812 32.2832C582.919 36.3278 583.611 38.4478 583.887 38.6431C584.31 38.6431 584.888 37.6543 585.621 35.6768C586.117 34.334 586.422 33.2069 586.536 32.2954C586.658 31.384 586.756 30.859 586.829 30.7207C587.057 30.2975 587.529 30.0859 588.245 30.0859C588.969 30.0859 589.332 30.3667 589.332 30.9282C589.332 31.327 589.185 31.86 588.892 32.5273C588.599 33.1947 588.322 33.9189 588.062 34.7002C586.573 39.1598 585.494 41.9756 584.827 43.1475C584.16 44.3275 583.456 45.2552 582.715 45.9307C581.975 46.6143 581.23 46.9561 580.481 46.9561C579.741 46.9561 579.371 46.7445 579.371 46.3213C579.371 45.9469 579.749 45.6051 580.506 45.2959C581.271 44.9867 581.804 44.6286 582.105 44.2217C582.658 43.4811 582.935 42.7243 582.935 41.9512ZM602.369 40.4619H602.686C603.353 40.4619 603.939 40.2381 604.444 39.7905C604.957 39.3348 605.213 38.8099 605.213 38.2158L605.237 38.0571V37.8984L605.262 37.52V36.8242C605.262 36.3522 605.022 36.1162 604.542 36.1162H603.992L603.907 36.1284L603.431 36.165C603.203 36.1976 603.04 36.2139 602.942 36.2139C602.283 36.2139 601.673 36.4621 601.111 36.9585C600.721 37.3084 600.525 37.8049 600.525 38.4478V38.6919C600.525 39.2371 600.7 39.6685 601.05 39.9858C601.408 40.3032 601.848 40.4619 602.369 40.4619ZM599.646 32.6616C599.101 32.6616 598.829 32.3117 598.829 31.6118C598.829 31.091 599.268 30.6393 600.147 30.2568C601.034 29.8662 601.954 29.6709 602.906 29.6709H603.516C604.338 29.6709 605.062 29.8255 605.689 30.1348C606.316 30.4359 606.792 30.8468 607.117 31.3677C607.451 31.8885 607.654 32.568 607.728 33.4062C607.744 33.6016 607.752 34.5496 607.752 36.2505C607.752 37.9513 607.772 38.932 607.813 39.1924C607.862 39.4447 607.992 39.7539 608.204 40.1201C608.423 40.4863 608.533 40.7874 608.533 41.0234C608.533 41.2594 608.419 41.4629 608.191 41.6338C607.972 41.7965 607.65 41.8779 607.227 41.8779C606.804 41.8779 606.344 41.7762 605.848 41.5728C605.351 41.3612 604.989 41.2554 604.761 41.2554C604.737 41.2554 604.33 41.4019 603.541 41.6948C602.751 41.9797 602.084 42.1221 601.539 42.1221H601.27C600.359 42.1221 599.581 41.8332 598.938 41.2554C598.304 40.6776 597.986 39.8556 597.986 38.7896C597.986 37.7235 598.336 36.8934 599.036 36.2993C599.736 35.6971 600.586 35.2861 601.587 35.0664C601.889 35.0013 602.389 34.9159 603.089 34.8101C603.789 34.7043 604.265 34.5944 604.517 34.4805C604.957 34.277 605.176 33.8945 605.176 33.333C605.176 32.7633 604.989 32.3198 604.615 32.0024C604.24 31.6769 603.793 31.5142 603.272 31.5142C602.759 31.5142 602.084 31.7054 601.246 32.0879C600.407 32.4704 599.874 32.6616 599.646 32.6616ZM617.713 40.6938C617.713 41.0194 617.514 41.3123 617.115 41.5728C616.724 41.825 616.191 41.9512 615.516 41.9512C614.254 41.9512 613.367 41.4832 612.854 40.5474C612.537 39.9614 612.378 38.5902 612.378 36.4336C612.378 34.277 612.342 33.0238 612.269 32.6738C612.195 32.3239 611.992 31.9821 611.658 31.6484C611.325 31.3148 611.158 31.0584 611.158 30.8794C611.158 30.8143 611.552 30.387 612.342 29.5977C612.513 29.4268 612.684 29.0483 612.854 28.4624C613.034 27.8765 613.16 27.4899 613.233 27.3027C613.477 26.7168 613.799 26.4238 614.197 26.4238H614.393C614.743 26.4238 614.991 26.5581 615.137 26.8267C615.194 26.9325 615.28 27.3149 615.394 27.9741C615.516 28.6252 615.654 29.0443 615.809 29.2314C615.963 29.4186 616.35 29.6261 616.968 29.854C617.595 30.0737 617.908 30.3097 617.908 30.562V30.6963C617.908 31.0218 617.55 31.2985 616.834 31.5264C616.126 31.7461 615.67 32.1001 615.467 32.5884C615.068 33.5731 614.869 35.1763 614.869 37.3979C614.869 38.4396 615.048 39.1476 615.406 39.522C615.625 39.7498 616.065 39.9085 616.724 39.998C617.383 40.0876 617.713 40.3195 617.713 40.6938ZM626.893 40.6938C626.893 41.0194 626.693 41.3123 626.294 41.5728C625.904 41.825 625.371 41.9512 624.695 41.9512C623.434 41.9512 622.547 41.4832 622.034 40.5474C621.717 39.9614 621.558 38.5902 621.558 36.4336C621.558 34.277 621.521 33.0238 621.448 32.6738C621.375 32.3239 621.172 31.9821 620.838 31.6484C620.504 31.3148 620.337 31.0584 620.337 30.8794C620.337 30.8143 620.732 30.387 621.521 29.5977C621.692 29.4268 621.863 29.0483 622.034 28.4624C622.213 27.8765 622.339 27.4899 622.413 27.3027C622.657 26.7168 622.978 26.4238 623.377 26.4238H623.572C623.922 26.4238 624.17 26.5581 624.317 26.8267C624.374 26.9325 624.459 27.3149 624.573 27.9741C624.695 28.6252 624.834 29.0443 624.988 29.2314C625.143 29.4186 625.529 29.6261 626.148 29.854C626.775 30.0737 627.088 30.3097 627.088 30.562V30.6963C627.088 31.0218 626.73 31.2985 626.014 31.5264C625.306 31.7461 624.85 32.1001 624.646 32.5884C624.248 33.5731 624.048 35.1763 624.048 37.3979C624.048 38.4396 624.227 39.1476 624.585 39.522C624.805 39.7498 625.245 39.9085 625.904 39.998C626.563 40.0876 626.893 40.3195 626.893 40.6938ZM633.667 26.1309V26.2773C633.667 26.6924 633.545 27.0464 633.301 27.3394C633.065 27.6242 632.699 27.7666 632.203 27.7666H632.007L631.629 27.7178C631.409 27.7178 631.198 27.616 630.994 27.4126C630.791 27.2091 630.689 26.904 630.689 26.4971V26.3506L630.75 25.9111C630.75 25.7402 630.852 25.5286 631.055 25.2764C631.267 25.0241 631.535 24.8979 631.861 24.8979L632.142 24.8613H632.386L632.728 24.9102C632.939 24.9102 633.147 25.016 633.35 25.2275C633.562 25.431 633.667 25.7321 633.667 26.1309ZM633.094 31.2822L632.959 34.5659L632.935 34.8955L632.898 35.8965V36.3726C632.898 37.5444 632.931 38.3135 632.996 38.6797C633.069 39.0459 633.204 39.404 633.399 39.7539C633.594 40.0957 633.692 40.3439 633.692 40.4985V40.6084C633.692 41.0072 633.488 41.3245 633.082 41.5605C632.675 41.7965 632.121 41.9146 631.421 41.9146H631.116C630.709 41.9146 630.4 41.825 630.188 41.646C629.977 41.4588 629.871 41.2594 629.871 41.0479V40.7793C629.871 40.6735 629.965 40.2992 630.152 39.6562C630.339 39.0052 630.433 38.1222 630.433 37.0073C630.457 36.6899 630.469 36.4702 630.469 36.3481L630.506 35.6768L630.53 35.3472C630.571 34.7775 630.591 34.334 630.591 34.0166L630.604 33.5283C630.604 32.918 630.502 32.3768 630.298 31.9048C630.103 31.4328 630.005 31.1398 630.005 31.0259C630.005 30.4399 630.559 30.147 631.666 30.147H632.105C632.52 30.147 632.789 30.2568 632.911 30.4766C633.033 30.6882 633.094 30.9567 633.094 31.2822ZM637.476 35.6523V34.7124C637.476 33.5812 637.415 32.7552 637.293 32.2344C637.171 31.7054 637.11 31.3351 637.11 31.1235C637.11 30.6271 637.472 30.3789 638.196 30.3789C638.921 30.3789 639.445 30.5132 639.771 30.7817C639.861 30.855 639.974 30.9974 640.113 31.209C640.259 31.4206 640.389 31.5264 640.503 31.5264C640.528 31.5264 640.882 31.3188 641.565 30.9038C642.249 30.4888 642.835 30.2812 643.323 30.2812H643.506C643.905 30.2812 644.222 30.3789 644.458 30.5742C644.694 30.7614 644.812 30.9933 644.812 31.27V31.4287C644.812 31.7624 644.694 32.0024 644.458 32.1489C644.231 32.2954 643.864 32.3687 643.36 32.3687C642.212 32.3687 641.374 32.7715 640.845 33.5771C640.324 34.3828 640.064 35.807 640.064 37.8496C640.064 38.1426 640.113 38.5942 640.21 39.2046C640.316 39.8149 640.369 40.2747 640.369 40.584C640.369 40.8932 640.202 41.1903 639.869 41.4751C639.535 41.7599 639.112 41.9023 638.599 41.9023H638.184C637.736 41.9023 637.391 41.7965 637.146 41.585C636.91 41.3652 636.792 41.1007 636.792 40.7915C636.792 40.4741 636.849 40.1527 636.963 39.8271C637.273 38.9482 637.427 37.9798 637.427 36.9219C637.46 36.3359 637.476 35.9128 637.476 35.6523ZM648.865 34.5781V34.7734C648.865 35.0176 649.089 35.1396 649.537 35.1396H649.83L649.903 35.1274L650.501 35.0786C651.128 34.9891 651.535 34.9443 651.722 34.9443C652.609 34.9443 653.276 34.7775 653.724 34.4438C653.935 34.2811 654.041 33.9922 654.041 33.5771V33.4429C654.041 32.8325 653.838 32.3483 653.431 31.9902C653.032 31.6322 652.552 31.4531 651.99 31.4531H651.905L651.832 31.4653C651.042 31.4653 650.35 31.799 649.756 32.4663C649.162 33.1336 648.865 33.8376 648.865 34.5781ZM651.526 42.1587H651.258C649.703 42.1587 648.466 41.6663 647.547 40.6816C646.627 39.6888 646.167 38.3664 646.167 36.7144V36.1772C646.167 35.3879 646.322 34.5863 646.631 33.7725C647.258 32.1449 648.279 31.0218 649.695 30.4033C650.444 30.0697 651.205 29.9028 651.978 29.9028H652.503C653.569 29.9028 654.468 30.2609 655.201 30.9771C655.941 31.6851 656.312 32.6006 656.312 33.7236V33.9678C656.312 34.7653 655.994 35.3309 655.359 35.6646C654.92 35.9006 653.895 36.1366 652.283 36.3726C650.672 36.6086 649.793 36.751 649.646 36.7998C649.158 36.9707 648.914 37.2962 648.914 37.7764C648.914 38.4437 649.199 39.0133 649.769 39.4854C650.338 39.9574 651.103 40.1934 652.063 40.1934C652.511 40.1934 653.121 40.0713 653.895 39.8271C654.668 39.583 655.115 39.4609 655.237 39.4609C655.652 39.4609 655.86 39.64 655.86 39.998C655.86 40.4782 655.392 40.9583 654.456 41.4385C653.52 41.9186 652.544 42.1587 651.526 42.1587ZM659.168 40.3643C659.168 39.9574 659.294 39.64 659.546 39.4121C659.799 39.1842 660.128 39.0703 660.535 39.0703H660.987C661.402 39.0703 661.707 39.168 661.902 39.3633C662.098 39.5586 662.195 39.937 662.195 40.4985V40.6816C662.195 41.7233 661.915 42.6999 661.353 43.6113C660.629 44.7913 659.978 45.3813 659.4 45.3813H659.314C658.973 45.3813 658.802 45.2349 658.802 44.9419C658.802 44.8361 658.977 44.5187 659.327 43.9897C659.677 43.4689 659.852 43.0783 659.852 42.8179C659.852 42.5656 659.742 42.2197 659.522 41.7803C659.302 41.3408 659.192 41.0112 659.192 40.7915L659.168 40.6206V40.3643ZM674.329 36.8486C674.329 37.9147 674.573 38.8018 675.062 39.5098C675.55 40.2178 676.148 40.5718 676.856 40.5718H677.222C678.06 40.5718 678.768 40.1486 679.346 39.3022C679.932 38.4559 680.225 37.3288 680.225 35.9209V35.1152C680.225 34.0247 679.985 33.1336 679.505 32.4419C679.033 31.742 678.423 31.3921 677.674 31.3921H677.43C676.559 31.3921 675.826 31.8234 675.232 32.686C674.646 33.5487 674.354 34.5781 674.354 35.7744L674.329 36.0552V36.8486ZM677.088 42.2319H676.697C675.273 42.2319 674.113 41.7355 673.218 40.7427C672.323 39.7498 671.875 38.342 671.875 36.519L671.888 36.3115C671.888 34.3096 672.417 32.7308 673.475 31.5752C674.028 30.9648 674.659 30.5173 675.367 30.2324C676.083 29.9395 676.762 29.793 677.405 29.793H678.003C678.72 29.793 679.407 29.9517 680.066 30.269C681.954 31.1805 682.898 32.8976 682.898 35.4204V35.6157C682.89 36.4377 682.756 37.2718 682.496 38.1182C681.975 39.7865 680.974 40.9665 679.493 41.6582C678.671 42.0407 677.869 42.2319 677.088 42.2319ZM686.207 35.6523V34.7124C686.207 33.5812 686.146 32.7552 686.023 32.2344C685.901 31.7054 685.84 31.3351 685.84 31.1235C685.84 30.6271 686.202 30.3789 686.927 30.3789C687.651 30.3789 688.176 30.5132 688.501 30.7817C688.591 30.855 688.705 30.9974 688.843 31.209C688.99 31.4206 689.12 31.5264 689.234 31.5264C689.258 31.5264 689.612 31.3188 690.296 30.9038C690.979 30.4888 691.565 30.2812 692.054 30.2812H692.237C692.636 30.2812 692.953 30.3789 693.189 30.5742C693.425 30.7614 693.543 30.9933 693.543 31.27V31.4287C693.543 31.7624 693.425 32.0024 693.189 32.1489C692.961 32.2954 692.595 32.3687 692.09 32.3687C690.943 32.3687 690.105 32.7715 689.576 33.5771C689.055 34.3828 688.794 35.807 688.794 37.8496C688.794 38.1426 688.843 38.5942 688.941 39.2046C689.047 39.8149 689.1 40.2747 689.1 40.584C689.1 40.8932 688.933 41.1903 688.599 41.4751C688.265 41.7599 687.842 41.9023 687.33 41.9023H686.915C686.467 41.9023 686.121 41.7965 685.877 41.585C685.641 41.3652 685.523 41.1007 685.523 40.7915C685.523 40.4741 685.58 40.1527 685.694 39.8271C686.003 38.9482 686.158 37.9798 686.158 36.9219C686.19 36.3359 686.207 35.9128 686.207 35.6523ZM290.955 64.9565C290.955 63.8742 290.727 63.0278 290.271 62.4175C289.824 61.799 289.287 61.4897 288.66 61.4897H288.306C287.427 61.4897 286.731 61.8397 286.219 62.5396C285.706 63.2313 285.45 64.2526 285.45 65.6035L285.425 65.8477L285.376 67.1172V67.9717C285.376 68.8587 285.556 69.4854 285.914 69.8516C286.28 70.2096 286.797 70.3887 287.464 70.3887H287.696C288.615 70.3887 289.384 69.9655 290.003 69.1191C290.621 68.2728 290.931 67.2433 290.931 66.0308L290.955 65.7622V64.9565ZM284.314 60.3667L286.023 60.6597C286.202 60.6597 286.622 60.5417 287.281 60.3057C287.94 60.0697 288.587 59.9517 289.222 59.9517C290.507 59.9517 291.549 60.4033 292.347 61.3066C293.144 62.2018 293.543 63.4103 293.543 64.9321V65.2373C293.543 66.2627 293.372 67.2067 293.03 68.0693C292.33 69.8516 291.163 71.0031 289.527 71.5239C289.063 71.6704 288.44 71.7721 287.659 71.8291C286.886 71.8861 286.337 71.9878 286.011 72.1343C285.515 72.3621 285.267 72.7731 285.267 73.3672C285.267 73.6195 285.311 73.9613 285.401 74.3926C285.499 74.8239 285.547 75.2227 285.547 75.5889C285.547 75.9551 285.34 76.3132 284.925 76.6631C284.51 77.0212 283.993 77.2002 283.375 77.2002H283.118C282.386 77.2002 282.02 76.9316 282.02 76.3945V76.1626C282.02 76.0487 282.097 75.7272 282.251 75.1982C282.414 74.6774 282.528 74.1159 282.593 73.5137C282.658 72.9196 282.764 71.4344 282.911 69.0581C283.057 66.6818 283.13 65.0583 283.13 64.1875C283.13 63.3086 283.073 62.5721 282.959 61.978C282.854 61.384 282.801 61.0625 282.801 61.0137C282.801 60.5824 283.305 60.3667 284.314 60.3667ZM298.206 66.8486C298.206 67.9147 298.45 68.8018 298.938 69.5098C299.427 70.2178 300.025 70.5718 300.733 70.5718H301.099C301.937 70.5718 302.645 70.1486 303.223 69.3022C303.809 68.4559 304.102 67.3288 304.102 65.9209V65.1152C304.102 64.0247 303.862 63.1336 303.382 62.4419C302.91 61.742 302.299 61.3921 301.551 61.3921H301.307C300.436 61.3921 299.703 61.8234 299.109 62.686C298.523 63.5487 298.23 64.5781 298.23 65.7744L298.206 66.0552V66.8486ZM300.965 72.2319H300.574C299.15 72.2319 297.99 71.7355 297.095 70.7427C296.2 69.7498 295.752 68.342 295.752 66.519L295.765 66.3115C295.765 64.3096 296.294 62.7308 297.352 61.5752C297.905 60.9648 298.536 60.5173 299.244 60.2324C299.96 59.9395 300.639 59.793 301.282 59.793H301.88C302.597 59.793 303.284 59.9517 303.943 60.269C305.831 61.1805 306.775 62.8976 306.775 65.4204V65.6157C306.767 66.4377 306.633 67.2718 306.373 68.1182C305.852 69.7865 304.851 70.9665 303.37 71.6582C302.548 72.0407 301.746 72.2319 300.965 72.2319ZM311.438 66.8486C311.438 67.9147 311.683 68.8018 312.171 69.5098C312.659 70.2178 313.257 70.5718 313.965 70.5718H314.332C315.17 70.5718 315.878 70.1486 316.456 69.3022C317.042 68.4559 317.334 67.3288 317.334 65.9209V65.1152C317.334 64.0247 317.094 63.1336 316.614 62.4419C316.142 61.742 315.532 61.3921 314.783 61.3921H314.539C313.668 61.3921 312.936 61.8234 312.342 62.686C311.756 63.5487 311.463 64.5781 311.463 65.7744L311.438 66.0552V66.8486ZM314.197 72.2319H313.807C312.382 72.2319 311.223 71.7355 310.328 70.7427C309.432 69.7498 308.985 68.342 308.985 66.519L308.997 66.3115C308.997 64.3096 309.526 62.7308 310.584 61.5752C311.137 60.9648 311.768 60.5173 312.476 60.2324C313.192 59.9395 313.872 59.793 314.515 59.793H315.113C315.829 59.793 316.517 59.9517 317.176 60.269C319.064 61.1805 320.008 62.8976 320.008 65.4204V65.6157C320 66.4377 319.865 67.2718 319.605 68.1182C319.084 69.7865 318.083 70.9665 316.602 71.6582C315.78 72.0407 314.979 72.2319 314.197 72.2319ZM323.316 65.6523V64.7124C323.316 63.5812 323.255 62.7552 323.133 62.2344C323.011 61.7054 322.95 61.3351 322.95 61.1235C322.95 60.6271 323.312 60.3789 324.036 60.3789C324.76 60.3789 325.285 60.5132 325.611 60.7817C325.7 60.855 325.814 60.9974 325.953 61.209C326.099 61.4206 326.229 61.5264 326.343 61.5264C326.368 61.5264 326.722 61.3188 327.405 60.9038C328.089 60.4888 328.675 60.2812 329.163 60.2812H329.346C329.745 60.2812 330.062 60.3789 330.298 60.5742C330.534 60.7614 330.652 60.9933 330.652 61.27V61.4287C330.652 61.7624 330.534 62.0024 330.298 62.1489C330.07 62.2954 329.704 62.3687 329.2 62.3687C328.052 62.3687 327.214 62.7715 326.685 63.5771C326.164 64.3828 325.904 65.807 325.904 67.8496C325.904 68.1426 325.953 68.5942 326.05 69.2046C326.156 69.8149 326.209 70.2747 326.209 70.584C326.209 70.8932 326.042 71.1903 325.708 71.4751C325.375 71.7599 324.952 71.9023 324.439 71.9023H324.024C323.576 71.9023 323.23 71.7965 322.986 71.585C322.75 71.3652 322.632 71.1007 322.632 70.7915C322.632 70.4741 322.689 70.1527 322.803 69.8271C323.112 68.9482 323.267 67.9798 323.267 66.9219C323.3 66.3359 323.316 65.9128 323.316 65.6523ZM340.967 71.7681C340.007 71.7681 339.527 71.4263 339.527 70.7427C339.527 70.4334 339.6 69.9736 339.747 69.3633C339.901 68.7529 340.003 68.1914 340.052 67.6787C340.101 67.1579 340.186 65.4814 340.308 62.6494C340.438 59.8174 340.503 58.0921 340.503 57.4736V56.0332L340.43 55.0078C340.43 54.6253 340.78 54.4341 341.48 54.4341C342.188 54.4341 342.648 54.7067 342.859 55.252C342.965 55.5286 343.018 56.432 343.018 57.9619C343.018 59.4919 343.047 60.3626 343.104 60.5742C343.169 60.7858 343.335 60.8916 343.604 60.8916C343.637 60.8916 343.791 60.8428 344.068 60.7451L344.336 60.6475C345.207 60.3057 345.96 60.1348 346.595 60.1348C347.929 60.1348 348.877 60.6556 349.439 61.6973C349.813 62.389 350 63.8945 350 66.2139C350 67.3044 350.009 67.9513 350.025 68.1548C350.041 68.3582 350.094 68.7285 350.184 69.2656C350.273 69.7946 350.318 70.0876 350.318 70.1445C350.318 70.6247 350.208 70.9827 349.988 71.2188C349.777 71.4466 349.39 71.5605 348.829 71.5605C348.275 71.5605 347.913 71.3896 347.742 71.0479C347.653 70.8688 347.608 70.3521 347.608 69.4976L347.571 67.3491L347.608 65.4082C347.608 63.2354 346.973 62.1489 345.704 62.1489C344.581 62.1489 343.779 62.6209 343.299 63.5649C342.819 64.509 342.579 66.2586 342.579 68.814L342.615 70.1445C342.615 70.6003 342.473 70.9868 342.188 71.3042C341.903 71.6134 341.496 71.7681 340.967 71.7681ZM357.422 71.9512C357.422 71.528 357.133 70.7874 356.556 69.7295C355.978 68.6634 355.494 67.6706 355.103 66.751C353.768 63.6178 353.101 61.8071 353.101 61.3188C353.101 61.0991 353.227 60.8997 353.479 60.7207C353.74 60.5417 354.171 60.4521 354.773 60.4521C355.376 60.4521 355.799 60.7085 356.043 61.2212C356.067 61.2782 356.153 61.6322 356.299 62.2832C357.406 66.3278 358.098 68.4478 358.375 68.6431C358.798 68.6431 359.375 67.6543 360.108 65.6768C360.604 64.334 360.91 63.2069 361.023 62.2954C361.146 61.384 361.243 60.859 361.316 60.7207C361.544 60.2975 362.016 60.0859 362.732 60.0859C363.457 60.0859 363.819 60.3667 363.819 60.9282C363.819 61.327 363.672 61.86 363.379 62.5273C363.086 63.1947 362.81 63.9189 362.549 64.7002C361.06 69.1598 359.982 71.9756 359.314 73.1475C358.647 74.3275 357.943 75.2552 357.203 75.9307C356.462 76.6143 355.717 76.9561 354.969 76.9561C354.228 76.9561 353.858 76.7445 353.858 76.3213C353.858 75.9469 354.236 75.6051 354.993 75.2959C355.758 74.9867 356.291 74.6286 356.592 74.2217C357.146 73.4811 357.422 72.7243 357.422 71.9512ZM368.152 66.3481V66.7266C368.152 67.8171 368.36 68.6715 368.775 69.29C369.19 69.9085 369.711 70.2178 370.337 70.2178H370.765C371.668 70.2178 372.372 69.8394 372.876 69.0825C373.381 68.3175 373.633 67.2474 373.633 65.8721C373.65 65.7093 373.658 65.5832 373.658 65.4937L373.682 64.9932V64.2607C373.666 64.098 373.658 63.9759 373.658 63.8945C373.658 63.2516 373.503 62.7471 373.194 62.3809C372.885 62.0146 372.429 61.8315 371.827 61.8315H371.485C370.525 61.8315 369.727 62.2344 369.092 63.04C368.466 63.8457 368.152 64.9484 368.152 66.3481ZM375.245 60.8306C375.953 60.8306 376.307 61.3433 376.307 62.3687C376.307 62.6372 376.197 63.7603 375.977 65.7378C375.757 67.7153 375.647 69.3958 375.647 70.7793C375.647 72.179 375.554 73.2288 375.367 73.9287C374.968 75.4342 374.044 76.5003 372.596 77.127C371.839 77.4525 371.001 77.6152 370.081 77.6152C369.17 77.6152 368.356 77.4525 367.64 77.127C366.932 76.8014 366.578 76.4108 366.578 75.9551C366.578 75.4342 366.928 75.1738 367.627 75.1738C367.766 75.1738 368.14 75.2267 368.75 75.3325C369.361 75.4383 369.8 75.4912 370.069 75.4912C371.054 75.4912 371.859 75.182 372.486 74.5635C373.121 73.9531 373.438 73.1678 373.438 72.2075C373.438 71.703 373.251 71.4507 372.876 71.4507C372.811 71.4507 372.657 71.4751 372.413 71.5239C371.721 71.6623 371.09 71.7314 370.521 71.7314C369.072 71.7314 367.981 71.292 367.249 70.4131C366.907 70.0062 366.614 69.465 366.37 68.7896C366.134 68.106 366.016 67.3857 366.016 66.6289V66.2871C366.016 65.4896 366.146 64.7043 366.407 63.9312C366.675 63.1499 367.029 62.4948 367.469 61.9658C367.908 61.4287 368.482 61.0096 369.19 60.7085C369.898 60.4074 370.622 60.2568 371.363 60.2568H371.68C372.095 60.2568 372.628 60.3708 373.279 60.5986C373.938 60.8184 374.341 60.9282 374.488 60.9282C374.813 60.8631 375.066 60.8306 375.245 60.8306ZM383.521 56.1309V56.2773C383.521 56.6924 383.399 57.0464 383.155 57.3394C382.919 57.6242 382.553 57.7666 382.056 57.7666H381.861L381.482 57.7178C381.263 57.7178 381.051 57.616 380.848 57.4126C380.644 57.2091 380.542 56.904 380.542 56.4971V56.3506L380.604 55.9111C380.604 55.7402 380.705 55.5286 380.909 55.2764C381.12 55.0241 381.389 54.8979 381.714 54.8979L381.995 54.8613H382.239L382.581 54.9102C382.793 54.9102 383 55.016 383.204 55.2275C383.415 55.431 383.521 55.7321 383.521 56.1309ZM382.947 61.2822L382.813 64.5659L382.789 64.8955L382.752 65.8965V66.3726C382.752 67.5444 382.785 68.3135 382.85 68.6797C382.923 69.0459 383.057 69.404 383.252 69.7539C383.448 70.0957 383.545 70.3439 383.545 70.4985V70.6084C383.545 71.0072 383.342 71.3245 382.935 71.5605C382.528 71.7965 381.975 71.9146 381.275 71.9146H380.97C380.563 71.9146 380.254 71.825 380.042 71.646C379.83 71.4588 379.725 71.2594 379.725 71.0479V70.7793C379.725 70.6735 379.818 70.2992 380.005 69.6562C380.193 69.0052 380.286 68.1222 380.286 67.0073C380.311 66.6899 380.323 66.4702 380.323 66.3481L380.359 65.6768L380.384 65.3472C380.424 64.7775 380.445 64.334 380.445 64.0166L380.457 63.5283C380.457 62.918 380.355 62.3768 380.152 61.9048C379.957 61.4328 379.859 61.1398 379.859 61.0259C379.859 60.4399 380.412 60.147 381.519 60.147H381.958C382.374 60.147 382.642 60.2568 382.764 60.4766C382.886 60.6882 382.947 60.9567 382.947 61.2822ZM388.782 64.5781V64.7734C388.782 65.0176 389.006 65.1396 389.454 65.1396H389.747L389.82 65.1274L390.418 65.0786C391.045 64.9891 391.451 64.9443 391.639 64.9443C392.526 64.9443 393.193 64.7775 393.641 64.4438C393.852 64.2811 393.958 63.9922 393.958 63.5771V63.4429C393.958 62.8325 393.755 62.3483 393.348 61.9902C392.949 61.6322 392.469 61.4531 391.907 61.4531H391.822L391.749 61.4653C390.959 61.4653 390.267 61.799 389.673 62.4663C389.079 63.1336 388.782 63.8376 388.782 64.5781ZM391.443 72.1587H391.175C389.62 72.1587 388.383 71.6663 387.464 70.6816C386.544 69.6888 386.084 68.3664 386.084 66.7144V66.1772C386.084 65.3879 386.239 64.5863 386.548 63.7725C387.175 62.1449 388.196 61.0218 389.612 60.4033C390.361 60.0697 391.122 59.9028 391.895 59.9028H392.42C393.486 59.9028 394.385 60.2609 395.118 60.9771C395.858 61.6851 396.229 62.6006 396.229 63.7236V63.9678C396.229 64.7653 395.911 65.3309 395.276 65.6646C394.837 65.9006 393.812 66.1366 392.2 66.3726C390.589 66.6086 389.71 66.751 389.563 66.7998C389.075 66.9707 388.831 67.2962 388.831 67.7764C388.831 68.4437 389.116 69.0133 389.686 69.4854C390.255 69.9574 391.02 70.1934 391.98 70.1934C392.428 70.1934 393.038 70.0713 393.812 69.8271C394.585 69.583 395.032 69.4609 395.154 69.4609C395.569 69.4609 395.777 69.64 395.777 69.998C395.777 70.4782 395.309 70.9583 394.373 71.4385C393.437 71.9186 392.461 72.1587 391.443 72.1587ZM410.083 70.5352C410.083 71.1374 409.559 71.4385 408.509 71.4385C407.915 71.4385 407.516 71.2961 407.312 71.0112C407.215 70.8729 407.166 70.5474 407.166 70.0347L407.129 69.2534C407.072 68.3989 407.044 67.5404 407.044 66.6777C407.044 64.8141 406.881 63.5649 406.556 62.9302C406.238 62.2873 405.701 61.9658 404.944 61.9658C404.44 61.9658 403.972 62.1164 403.541 62.4175C403.117 62.7186 402.792 63.1377 402.564 63.6748C402.092 64.7734 401.856 66.8039 401.856 69.7661C401.856 70.4416 401.726 70.9176 401.465 71.1943C401.213 71.471 400.888 71.6094 400.489 71.6094H400.245C399.333 71.6094 398.877 71.2472 398.877 70.5229V70.23C398.877 70.1405 398.926 69.9451 399.024 69.644L399.219 69.0825C399.415 68.4233 399.512 67.0114 399.512 64.8467L399.573 61.2212C399.573 60.7573 399.826 60.5254 400.33 60.5254C400.835 60.5254 401.331 60.6922 401.819 61.0259C402.316 61.3595 402.629 61.5264 402.759 61.5264C402.898 61.5264 403.138 61.4328 403.479 61.2456C404.627 60.619 405.547 60.3057 406.238 60.3057H406.556C407.801 60.3057 408.676 60.8672 409.18 61.9902C409.424 62.5192 409.546 63.6585 409.546 65.4082V65.4937C409.546 65.6401 409.542 65.7866 409.534 65.9331C409.534 66.3319 409.534 66.5394 409.534 66.5557C409.534 66.7103 409.534 66.8608 409.534 67.0073C409.534 67.1213 409.534 67.2311 409.534 67.3369C409.534 67.9635 409.555 68.3908 409.595 68.6187C409.652 68.9279 409.746 69.2493 409.876 69.583C410.014 69.9492 410.083 70.2666 410.083 70.5352ZM415.149 64.5781V64.7734C415.149 65.0176 415.373 65.1396 415.821 65.1396H416.114L416.187 65.1274L416.785 65.0786C417.412 64.9891 417.819 64.9443 418.006 64.9443C418.893 64.9443 419.56 64.7775 420.008 64.4438C420.219 64.2811 420.325 63.9922 420.325 63.5771V63.4429C420.325 62.8325 420.122 62.3483 419.715 61.9902C419.316 61.6322 418.836 61.4531 418.274 61.4531H418.189L418.116 61.4653C417.326 61.4653 416.635 61.799 416.041 62.4663C415.446 63.1336 415.149 63.8376 415.149 64.5781ZM417.811 72.1587H417.542C415.988 72.1587 414.751 71.6663 413.831 70.6816C412.911 69.6888 412.452 68.3664 412.452 66.7144V66.1772C412.452 65.3879 412.606 64.5863 412.916 63.7725C413.542 62.1449 414.563 61.0218 415.979 60.4033C416.728 60.0697 417.489 59.9028 418.262 59.9028H418.787C419.853 59.9028 420.752 60.2609 421.485 60.9771C422.225 61.6851 422.596 62.6006 422.596 63.7236V63.9678C422.596 64.7653 422.278 65.3309 421.644 65.6646C421.204 65.9006 420.179 66.1366 418.567 66.3726C416.956 66.6086 416.077 66.751 415.931 66.7998C415.442 66.9707 415.198 67.2962 415.198 67.7764C415.198 68.4437 415.483 69.0133 416.053 69.4854C416.622 69.9574 417.387 70.1934 418.348 70.1934C418.795 70.1934 419.406 70.0713 420.179 69.8271C420.952 69.583 421.399 69.4609 421.521 69.4609C421.937 69.4609 422.144 69.64 422.144 69.998C422.144 70.4782 421.676 70.9583 420.74 71.4385C419.804 71.9186 418.828 72.1587 417.811 72.1587ZM443.311 70.5352C443.311 71.1374 442.786 71.4385 441.736 71.4385C441.142 71.4385 440.743 71.2961 440.54 71.0112C440.442 70.8729 440.394 70.5474 440.394 70.0347L440.357 69.2534C440.3 68.3989 440.271 67.5404 440.271 66.6777C440.271 64.8141 440.109 63.5649 439.783 62.9302C439.466 62.2873 438.929 61.9658 438.172 61.9658C437.667 61.9658 437.199 62.1164 436.768 62.4175C436.345 62.7186 436.019 63.1377 435.792 63.6748C435.319 64.7734 435.083 66.8039 435.083 69.7661C435.083 70.4416 434.953 70.9176 434.693 71.1943C434.441 71.471 434.115 71.6094 433.716 71.6094H433.472C432.561 71.6094 432.105 71.2472 432.105 70.5229V70.23C432.105 70.1405 432.154 69.9451 432.251 69.644L432.447 69.0825C432.642 68.4233 432.74 67.0114 432.74 64.8467L432.801 61.2212C432.801 60.7573 433.053 60.5254 433.558 60.5254C434.062 60.5254 434.559 60.6922 435.047 61.0259C435.543 61.3595 435.857 61.5264 435.987 61.5264C436.125 61.5264 436.365 61.4328 436.707 61.2456C437.854 60.619 438.774 60.3057 439.466 60.3057H439.783C441.028 60.3057 441.903 60.8672 442.408 61.9902C442.652 62.5192 442.774 63.6585 442.774 65.4082V65.4937C442.774 65.6401 442.77 65.7866 442.762 65.9331C442.762 66.3319 442.762 66.5394 442.762 66.5557C442.762 66.7103 442.762 66.8608 442.762 67.0073C442.762 67.1213 442.762 67.2311 442.762 67.3369C442.762 67.9635 442.782 68.3908 442.823 68.6187C442.88 68.9279 442.973 69.2493 443.104 69.583C443.242 69.9492 443.311 70.2666 443.311 70.5352ZM448.279 66.8486C448.279 67.9147 448.523 68.8018 449.012 69.5098C449.5 70.2178 450.098 70.5718 450.806 70.5718H451.172C452.011 70.5718 452.719 70.1486 453.296 69.3022C453.882 68.4559 454.175 67.3288 454.175 65.9209V65.1152C454.175 64.0247 453.935 63.1336 453.455 62.4419C452.983 61.742 452.373 61.3921 451.624 61.3921H451.38C450.509 61.3921 449.777 61.8234 449.183 62.686C448.597 63.5487 448.304 64.5781 448.304 65.7744L448.279 66.0552V66.8486ZM451.038 72.2319H450.647C449.223 72.2319 448.064 71.7355 447.168 70.7427C446.273 69.7498 445.826 68.342 445.826 66.519L445.838 66.3115C445.838 64.3096 446.367 62.7308 447.425 61.5752C447.978 60.9648 448.609 60.5173 449.317 60.2324C450.033 59.9395 450.713 59.793 451.355 59.793H451.954C452.67 59.793 453.357 59.9517 454.017 60.269C455.905 61.1805 456.849 62.8976 456.849 65.4204V65.6157C456.84 66.4377 456.706 67.2718 456.446 68.1182C455.925 69.7865 454.924 70.9665 453.443 71.6582C452.621 72.0407 451.819 72.2319 451.038 72.2319ZM465.711 70.6938C465.711 71.0194 465.512 71.3123 465.113 71.5728C464.722 71.825 464.189 71.9512 463.514 71.9512C462.252 71.9512 461.365 71.4832 460.853 70.5474C460.535 69.9614 460.376 68.5902 460.376 66.4336C460.376 64.277 460.34 63.0238 460.267 62.6738C460.193 62.3239 459.99 61.9821 459.656 61.6484C459.323 61.3148 459.156 61.0584 459.156 60.8794C459.156 60.8143 459.55 60.387 460.34 59.5977C460.511 59.4268 460.682 59.0483 460.853 58.4624C461.032 57.8765 461.158 57.4899 461.231 57.3027C461.475 56.7168 461.797 56.4238 462.195 56.4238H462.391C462.741 56.4238 462.989 56.5581 463.135 56.8267C463.192 56.9325 463.278 57.3149 463.392 57.9741C463.514 58.6252 463.652 59.0443 463.807 59.2314C463.961 59.4186 464.348 59.6261 464.966 59.854C465.593 60.0737 465.906 60.3097 465.906 60.562V60.6963C465.906 61.0218 465.548 61.2985 464.832 61.5264C464.124 61.7461 463.668 62.1001 463.465 62.5884C463.066 63.5731 462.867 65.1763 462.867 67.3979C462.867 68.4396 463.046 69.1476 463.404 69.522C463.624 69.7498 464.063 69.9085 464.722 69.998C465.381 70.0876 465.711 70.3195 465.711 70.6938ZM470.691 64.5781V64.7734C470.691 65.0176 470.915 65.1396 471.363 65.1396H471.656L471.729 65.1274L472.327 65.0786C472.954 64.9891 473.361 64.9443 473.548 64.9443C474.435 64.9443 475.102 64.7775 475.55 64.4438C475.761 64.2811 475.867 63.9922 475.867 63.5771V63.4429C475.867 62.8325 475.664 62.3483 475.257 61.9902C474.858 61.6322 474.378 61.4531 473.816 61.4531H473.731L473.658 61.4653C472.868 61.4653 472.177 61.799 471.583 62.4663C470.988 63.1336 470.691 63.8376 470.691 64.5781ZM473.353 72.1587H473.084C471.53 72.1587 470.293 71.6663 469.373 70.6816C468.453 69.6888 467.994 68.3664 467.994 66.7144V66.1772C467.994 65.3879 468.148 64.5863 468.458 63.7725C469.084 62.1449 470.105 61.0218 471.521 60.4033C472.27 60.0697 473.031 59.9028 473.804 59.9028H474.329C475.395 59.9028 476.294 60.2609 477.027 60.9771C477.767 61.6851 478.138 62.6006 478.138 63.7236V63.9678C478.138 64.7653 477.82 65.3309 477.186 65.6646C476.746 65.9006 475.721 66.1366 474.109 66.3726C472.498 66.6086 471.619 66.751 471.473 66.7998C470.984 66.9707 470.74 67.2962 470.74 67.7764C470.74 68.4437 471.025 69.0133 471.595 69.4854C472.164 69.9574 472.929 70.1934 473.89 70.1934C474.337 70.1934 474.948 70.0713 475.721 69.8271C476.494 69.583 476.941 69.4609 477.063 69.4609C477.479 69.4609 477.686 69.64 477.686 69.998C477.686 70.4782 477.218 70.9583 476.282 71.4385C475.346 71.9186 474.37 72.1587 473.353 72.1587ZM482.898 66.0796V67.0073C482.898 67.9757 483.118 68.7855 483.558 69.4365C484.005 70.0794 484.53 70.4009 485.132 70.4009H485.474C486.402 70.4009 487.118 70.0306 487.623 69.29C488.135 68.5495 488.392 67.4468 488.392 65.9819C488.408 65.8029 488.416 65.6727 488.416 65.5913L488.44 65.3472L488.453 64.8345V63.9678C488.453 62.3076 487.789 61.4775 486.463 61.4775H485.987C485.124 61.4775 484.392 61.9129 483.79 62.7837C483.195 63.6545 482.898 64.7531 482.898 66.0796ZM480.555 66.6411C480.555 65.7948 480.705 64.9321 481.006 64.0532C481.307 63.1743 481.731 62.4256 482.276 61.8071C482.821 61.1805 483.436 60.7288 484.119 60.4521C484.803 60.1673 485.612 60.0249 486.548 60.0249C487.492 60.0249 488.078 59.854 488.306 59.5122C488.534 59.1623 488.648 58.3932 488.648 57.2051C488.648 56.9854 488.611 56.6924 488.538 56.3262C488.465 55.96 488.428 55.7484 488.428 55.6914C488.428 55.3415 488.579 55.0241 488.88 54.7393C489.181 54.4463 489.576 54.2998 490.064 54.2998H490.308C490.691 54.2998 490.975 54.3893 491.163 54.5684C491.35 54.7474 491.443 55.1217 491.443 55.6914V56.8267L491.419 57.4004C491.411 57.5957 491.407 57.8805 491.407 58.2549C491.407 58.6211 491.346 59.8011 491.224 61.7949C491.102 63.7887 491.041 65.16 491.041 65.9087L491.028 66.2017C491.02 66.397 491.016 66.5841 491.016 66.7632L491.004 67.0439C491.004 67.0439 491.004 67.3613 491.004 67.9961C491.004 68.818 491.069 69.4365 491.199 69.8516C491.329 70.2666 491.395 70.5636 491.395 70.7427C491.395 70.9217 491.293 71.1089 491.089 71.3042C490.886 71.4995 490.569 71.5972 490.137 71.5972C489.714 71.5972 489.303 71.528 488.904 71.3896C488.506 71.2432 488.213 71.1699 488.025 71.1699C487.838 71.1699 487.594 71.2269 487.293 71.3408C486.382 71.6745 485.547 71.8413 484.791 71.8413C484.774 71.8413 484.758 71.8413 484.742 71.8413H484.461C483.232 71.8413 482.272 71.3937 481.58 70.4985C480.896 69.5952 480.555 68.4111 480.555 66.9463V66.6411Z" fill="black"/>
</svg>
