<svg width="758" height="87" viewBox="0 0 758 87" fill="none" xmlns="http://www.w3.org/2000/svg">
<rect width="758" height="87" rx="18" fill="#D9D9D9"/>
<path d="M27.058 54.1172C26.708 54.1172 26.533 53.9422 26.533 53.5922L26.512 46.7672C26.512 46.6272 26.54 46.5152 26.596 46.4312C26.652 46.3332 26.729 46.2212 26.827 46.0952L33.463 38.0102V33.7472L26.827 31.1852C26.617 31.1152 26.512 30.9052 26.512 30.5552V26.6492C26.512 26.2992 26.687 26.1242 27.037 26.1242H32.35C32.546 26.1242 32.7 26.1522 32.812 26.2082C32.924 26.2642 33.05 26.3272 33.19 26.3972L40.12 29.4422C40.302 29.5122 40.407 29.6102 40.435 29.7362C40.463 29.8622 40.477 30.0442 40.477 30.2822V39.3542C40.477 39.4942 40.442 39.5992 40.372 39.6692C40.316 39.7252 40.232 39.8302 40.12 39.9842L33.547 47.9852V48.8252H41.065C41.415 48.8252 41.59 49.0002 41.59 49.3502V53.5922C41.59 53.9422 41.415 54.1172 41.065 54.1172H27.058Z" fill="#2ECC71"/>
<path d="M92.7222 44.3896C92.4373 44.5931 91.9938 44.6948 91.3916 44.6948C90.7894 44.6948 90.354 44.5809 90.0854 44.353C89.8169 44.117 89.6826 43.8118 89.6826 43.4375V43.1567C89.6826 43.0103 89.7803 42.6969 89.9756 42.2168C90.179 41.7285 90.3011 41.2443 90.3418 40.7642C90.6266 37.4601 90.769 35.0065 90.769 33.4033C90.769 31.8001 90.7528 30.8643 90.7202 30.5957C90.6877 30.3271 90.6104 30.0057 90.4883 29.6313C90.3743 29.257 90.3174 29.0617 90.3174 29.0454C90.3174 28.6141 90.5941 28.3496 91.1475 28.252C92.8076 27.959 95.2327 27.8125 98.4229 27.8125H99.1797C99.7819 27.8125 100.213 27.8939 100.474 28.0566C100.742 28.2194 100.876 28.5246 100.876 28.9722V29.2651C100.876 29.8592 100.6 30.1562 100.046 30.1562C99.9243 30.1562 99.672 30.1074 99.2896 30.0098C98.9071 29.9121 98.549 29.8348 98.2153 29.7778C97.8898 29.7127 97.194 29.6802 96.1279 29.6802C95.07 29.6802 94.3783 29.9284 94.0527 30.4248C93.7354 30.9212 93.5767 31.8978 93.5767 33.3545C93.5767 34.1032 93.6947 34.6037 93.9307 34.856C94.1748 35.1001 94.7363 35.2222 95.6152 35.2222C95.835 35.2222 96.1646 35.1774 96.604 35.0879C97.0435 34.9984 97.4219 34.9536 97.7393 34.9536C98.0566 34.9536 98.3374 35.092 98.5815 35.3687C98.8338 35.6453 98.96 36.036 98.96 36.5405C98.96 37.2648 98.5856 37.627 97.8369 37.627L96.4209 37.5049C95.8024 37.5049 95.249 37.6107 94.7607 37.8223C94.2725 38.0257 93.9388 38.2739 93.7598 38.5669C93.3203 39.283 93.1006 40.4793 93.1006 42.1558L93.1616 43.5962C93.1616 43.9136 93.0151 44.1781 92.7222 44.3896ZM103.403 38.6523V37.7124C103.403 36.5812 103.342 35.7552 103.22 35.2344C103.098 34.7054 103.037 34.3351 103.037 34.1235C103.037 33.6271 103.399 33.3789 104.124 33.3789C104.848 33.3789 105.373 33.5132 105.698 33.7817C105.788 33.855 105.902 33.9974 106.04 34.209C106.187 34.4206 106.317 34.5264 106.431 34.5264C106.455 34.5264 106.809 34.3188 107.493 33.9038C108.176 33.4888 108.762 33.2812 109.25 33.2812H109.434C109.832 33.2812 110.15 33.3789 110.386 33.5742C110.622 33.7614 110.74 33.9933 110.74 34.27V34.4287C110.74 34.7624 110.622 35.0024 110.386 35.1489C110.158 35.2954 109.792 35.3687 109.287 35.3687C108.14 35.3687 107.301 35.7715 106.772 36.5771C106.252 37.3828 105.991 38.807 105.991 40.8496C105.991 41.1426 106.04 41.5942 106.138 42.2046C106.243 42.8149 106.296 43.2747 106.296 43.584C106.296 43.8932 106.13 44.1903 105.796 44.4751C105.462 44.7599 105.039 44.9023 104.526 44.9023H104.111C103.664 44.9023 103.318 44.7965 103.074 44.585C102.838 44.3652 102.72 44.1007 102.72 43.7915C102.72 43.4741 102.777 43.1527 102.891 42.8271C103.2 41.9482 103.354 40.9798 103.354 39.9219C103.387 39.3359 103.403 38.9128 103.403 38.6523ZM114.792 37.5781V37.7734C114.792 38.0176 115.016 38.1396 115.464 38.1396H115.757L115.83 38.1274L116.428 38.0786C117.055 37.9891 117.462 37.9443 117.649 37.9443C118.536 37.9443 119.203 37.7775 119.651 37.4438C119.862 37.2811 119.968 36.9922 119.968 36.5771V36.4429C119.968 35.8325 119.765 35.3483 119.358 34.9902C118.959 34.6322 118.479 34.4531 117.917 34.4531H117.832L117.759 34.4653C116.969 34.4653 116.278 34.799 115.684 35.4663C115.09 36.1336 114.792 36.8376 114.792 37.5781ZM117.454 45.1587H117.185C115.631 45.1587 114.394 44.6663 113.474 43.6816C112.555 42.6888 112.095 41.3664 112.095 39.7144V39.1772C112.095 38.3879 112.249 37.5863 112.559 36.7725C113.185 35.1449 114.207 34.0218 115.623 33.4033C116.371 33.0697 117.132 32.9028 117.905 32.9028H118.43C119.496 32.9028 120.396 33.2609 121.128 33.9771C121.868 34.6851 122.239 35.6006 122.239 36.7236V36.9678C122.239 37.7653 121.921 38.3309 121.287 38.6646C120.847 38.9006 119.822 39.1366 118.21 39.3726C116.599 39.6086 115.72 39.751 115.574 39.7998C115.085 39.9707 114.841 40.2962 114.841 40.7764C114.841 41.4437 115.126 42.0133 115.696 42.4854C116.265 42.9574 117.03 43.1934 117.991 43.1934C118.438 43.1934 119.049 43.0713 119.822 42.8271C120.595 42.583 121.042 42.4609 121.165 42.4609C121.58 42.4609 121.787 42.64 121.787 42.998C121.787 43.4782 121.319 43.9583 120.383 44.4385C119.447 44.9186 118.471 45.1587 117.454 45.1587ZM130.54 34.4531H130.295C129.832 34.4531 129.384 34.5874 128.953 34.856C127.699 35.6372 127.073 37.216 127.073 39.5923V39.7266C127.073 40.8984 127.305 41.8221 127.769 42.4976C128.232 43.1649 128.802 43.4985 129.478 43.4985H129.709C130.621 43.4985 131.321 43.1649 131.809 42.4976C132.306 41.8221 132.554 40.8293 132.554 39.519C132.57 39.3563 132.578 39.2301 132.578 39.1406L132.627 37.8589V37.7368C132.627 36.4917 132.468 35.6331 132.151 35.1611C131.842 34.6891 131.305 34.4531 130.54 34.4531ZM133.53 50.249C132.456 50.249 131.919 49.7607 131.919 48.7842C131.919 48.7272 131.976 48.4058 132.09 47.8198C132.204 47.2257 132.265 46.6479 132.273 46.0864C132.265 45.5575 132.163 45.1953 131.968 45C131.772 44.8047 131.463 44.703 131.04 44.6948C130.951 44.6948 130.816 44.707 130.637 44.7314L130.173 44.8047C129.864 44.8372 129.469 44.8535 128.989 44.8535C128.517 44.8535 128.013 44.7396 127.476 44.5117C126.393 44.056 125.604 43.1852 125.107 41.8994C124.814 41.1507 124.668 40.4102 124.668 39.6777V39.0796C124.668 37.2404 125.189 35.7552 126.23 34.624C127.272 33.4847 128.603 32.915 130.222 32.915C130.686 32.915 131.292 33.0249 132.041 33.2446C132.79 33.4644 133.172 33.5742 133.188 33.5742L134.189 33.4521C134.564 33.4521 134.857 33.562 135.068 33.7817C135.28 34.0015 135.386 34.2497 135.386 34.5264C135.386 34.8031 135.353 35.3361 135.288 36.1255C135.223 36.9149 135.186 37.7246 135.178 38.5547L135.166 38.8354C135.06 40.3898 135.007 41.6268 135.007 42.5464L134.983 43.1201C134.967 43.5026 134.958 43.7834 134.958 43.9624L134.922 44.8047C134.922 44.9919 134.922 45.179 134.922 45.3662L134.91 45.9155C134.91 46.7131 134.963 47.3031 135.068 47.6855L135.19 48.125C135.264 48.418 135.3 48.6458 135.3 48.8086C135.3 49.7689 134.792 50.249 133.774 50.249H133.53ZM138.621 34.0259C138.621 33.5132 139.052 33.2568 139.915 33.2568H140.195C140.732 33.2568 141.095 33.4725 141.282 33.9038C141.469 34.3351 141.562 35.1408 141.562 36.3208L141.416 40.3979C141.416 42.2941 142.096 43.2422 143.455 43.2422C143.951 43.2422 144.427 43.0672 144.883 42.7173C145.339 42.3674 145.676 41.9482 145.896 41.46C146.376 40.3857 146.616 38.4611 146.616 35.686L146.592 35.1489V34.6729C146.592 34.2415 146.689 33.9282 146.885 33.7329C147.08 33.5376 147.422 33.4399 147.91 33.4399C148.398 33.4399 148.72 33.5579 148.875 33.7939C149.029 34.0299 149.106 34.4124 149.106 34.9414L149.082 35.5884L149.033 38.4692C149.033 38.9331 149.062 39.6452 149.119 40.6055C149.176 41.5658 149.237 42.2697 149.302 42.7173C149.367 43.1567 149.399 43.4172 149.399 43.4985C149.399 44.2228 148.866 44.585 147.8 44.585C147.434 44.585 147.068 44.4507 146.702 44.1821C146.344 43.9054 146.087 43.7671 145.933 43.7671C145.786 43.7671 145.534 43.8566 145.176 44.0356C144.159 44.5483 143.292 44.8047 142.576 44.8047H142.271C141.107 44.8047 140.252 44.4466 139.707 43.7305C139.162 43.0143 138.889 41.7244 138.889 39.8608L139.011 36.1621C139.011 35.6982 138.946 35.2547 138.816 34.8315C138.686 34.4084 138.621 34.1398 138.621 34.0259ZM154.661 37.5781V37.7734C154.661 38.0176 154.884 38.1396 155.332 38.1396H155.625L155.698 38.1274L156.296 38.0786C156.923 37.9891 157.33 37.9443 157.517 37.9443C158.404 37.9443 159.071 37.7775 159.519 37.4438C159.731 37.2811 159.836 36.9922 159.836 36.5771V36.4429C159.836 35.8325 159.633 35.3483 159.226 34.9902C158.827 34.6322 158.347 34.4531 157.786 34.4531H157.7L157.627 34.4653C156.838 34.4653 156.146 34.799 155.552 35.4663C154.958 36.1336 154.661 36.8376 154.661 37.5781ZM157.322 45.1587H157.053C155.499 45.1587 154.262 44.6663 153.342 43.6816C152.423 42.6888 151.963 41.3664 151.963 39.7144V39.1772C151.963 38.3879 152.118 37.5863 152.427 36.7725C153.053 35.1449 154.075 34.0218 155.491 33.4033C156.239 33.0697 157 32.9028 157.773 32.9028H158.298C159.364 32.9028 160.264 33.2609 160.996 33.9771C161.737 34.6851 162.107 35.6006 162.107 36.7236V36.9678C162.107 37.7653 161.79 38.3309 161.155 38.6646C160.715 38.9006 159.69 39.1366 158.079 39.3726C156.467 39.6086 155.588 39.751 155.442 39.7998C154.954 39.9707 154.709 40.2962 154.709 40.7764C154.709 41.4437 154.994 42.0133 155.564 42.4854C156.134 42.9574 156.899 43.1934 157.859 43.1934C158.306 43.1934 158.917 43.0713 159.69 42.8271C160.463 42.583 160.911 42.4609 161.033 42.4609C161.448 42.4609 161.655 42.64 161.655 42.998C161.655 43.4782 161.187 43.9583 160.251 44.4385C159.316 44.9186 158.339 45.1587 157.322 45.1587ZM175.962 43.5352C175.962 44.1374 175.437 44.4385 174.387 44.4385C173.793 44.4385 173.394 44.2961 173.191 44.0112C173.093 43.8729 173.044 43.5474 173.044 43.0347L173.008 42.2534C172.951 41.3989 172.922 40.5404 172.922 39.6777C172.922 37.8141 172.76 36.5649 172.434 35.9302C172.117 35.2873 171.58 34.9658 170.823 34.9658C170.318 34.9658 169.85 35.1164 169.419 35.4175C168.996 35.7186 168.67 36.1377 168.442 36.6748C167.97 37.7734 167.734 39.8039 167.734 42.7661C167.734 43.4416 167.604 43.9176 167.344 44.1943C167.091 44.471 166.766 44.6094 166.367 44.6094H166.123C165.212 44.6094 164.756 44.2472 164.756 43.5229V43.23C164.756 43.1405 164.805 42.9451 164.902 42.644L165.098 42.0825C165.293 41.4233 165.391 40.0114 165.391 37.8467L165.452 34.2212C165.452 33.7573 165.704 33.5254 166.208 33.5254C166.713 33.5254 167.209 33.6922 167.698 34.0259C168.194 34.3595 168.507 34.5264 168.638 34.5264C168.776 34.5264 169.016 34.4328 169.358 34.2456C170.505 33.619 171.425 33.3057 172.117 33.3057H172.434C173.679 33.3057 174.554 33.8672 175.059 34.9902C175.303 35.5192 175.425 36.6585 175.425 38.4082V38.4937C175.425 38.6401 175.421 38.7866 175.413 38.9331C175.413 39.3319 175.413 39.5394 175.413 39.5557C175.413 39.7103 175.413 39.8608 175.413 40.0073C175.413 40.1213 175.413 40.2311 175.413 40.3369C175.413 40.9635 175.433 41.3908 175.474 41.6187C175.531 41.9279 175.624 42.2493 175.754 42.583C175.893 42.9492 175.962 43.2666 175.962 43.5352ZM185.129 43.6938C185.129 44.0194 184.93 44.3123 184.531 44.5728C184.141 44.825 183.608 44.9512 182.932 44.9512C181.671 44.9512 180.784 44.4832 180.271 43.5474C179.954 42.9614 179.795 41.5902 179.795 39.4336C179.795 37.277 179.758 36.0238 179.685 35.6738C179.612 35.3239 179.408 34.9821 179.075 34.6484C178.741 34.3148 178.574 34.0584 178.574 33.8794C178.574 33.8143 178.969 33.387 179.758 32.5977C179.929 32.4268 180.1 32.0483 180.271 31.4624C180.45 30.8765 180.576 30.4899 180.649 30.3027C180.894 29.7168 181.215 29.4238 181.614 29.4238H181.809C182.159 29.4238 182.407 29.5581 182.554 29.8267C182.611 29.9325 182.696 30.3149 182.81 30.9741C182.932 31.6252 183.07 32.0443 183.225 32.2314C183.38 32.4186 183.766 32.6261 184.385 32.854C185.011 33.0737 185.325 33.3097 185.325 33.562V33.6963C185.325 34.0218 184.967 34.2985 184.25 34.5264C183.542 34.7461 183.087 35.1001 182.883 35.5884C182.485 36.5731 182.285 38.1763 182.285 40.3979C182.285 41.4396 182.464 42.1476 182.822 42.522C183.042 42.7498 183.481 42.9085 184.141 42.998C184.8 43.0876 185.129 43.3195 185.129 43.6938ZM188.608 28.0322C188.608 27.4382 189.166 27.1411 190.281 27.1411H190.5C190.964 27.1411 191.282 27.255 191.453 27.4829C191.624 27.7026 191.709 28.134 191.709 28.7769L191.611 30.5957C191.587 30.8805 191.575 31.0352 191.575 31.0596L191.55 31.5234C191.534 31.8245 191.518 32.1297 191.501 32.439L191.465 32.9028L191.428 33.5986C191.298 36.0726 191.233 37.8996 191.233 39.0796C191.233 40.2515 191.286 41.0938 191.392 41.6064C191.497 42.1191 191.664 42.5545 191.892 42.9126C192.12 43.2707 192.234 43.5067 192.234 43.6206V43.7671C192.234 44.1252 192.055 44.41 191.697 44.6216C191.347 44.8332 190.871 44.939 190.269 44.939H189.634C189.259 44.939 188.93 44.8332 188.645 44.6216C188.368 44.4019 188.23 44.1536 188.23 43.877V43.5474L188.303 43.0347C188.401 42.3267 188.458 41.7977 188.474 41.4478C188.499 41.0897 188.535 40.5973 188.584 39.9707C188.633 39.3359 188.71 37.9891 188.816 35.9302C188.93 33.8631 188.987 32.7523 188.987 32.5977L189.036 31.6821L189.06 30.7788C189.06 29.9162 188.983 29.3018 188.828 28.9355C188.682 28.5612 188.608 28.2601 188.608 28.0322ZM199.155 44.9512C199.155 44.528 198.866 43.7874 198.289 42.7295C197.711 41.6634 197.227 40.6706 196.836 39.751C195.501 36.6178 194.834 34.8071 194.834 34.3188C194.834 34.0991 194.96 33.8997 195.212 33.7207C195.473 33.5417 195.904 33.4521 196.506 33.4521C197.109 33.4521 197.532 33.7085 197.776 34.2212C197.8 34.2782 197.886 34.6322 198.032 35.2832C199.139 39.3278 199.831 41.4478 200.107 41.6431C200.531 41.6431 201.108 40.6543 201.841 38.6768C202.337 37.334 202.642 36.2069 202.756 35.2954C202.878 34.384 202.976 33.859 203.049 33.7207C203.277 33.2975 203.749 33.0859 204.465 33.0859C205.19 33.0859 205.552 33.3667 205.552 33.9282C205.552 34.327 205.405 34.86 205.112 35.5273C204.819 36.1947 204.543 36.9189 204.282 37.7002C202.793 42.1598 201.715 44.9756 201.047 46.1475C200.38 47.3275 199.676 48.2552 198.936 48.9307C198.195 49.6143 197.45 49.9561 196.702 49.9561C195.961 49.9561 195.591 49.7445 195.591 49.3213C195.591 48.9469 195.969 48.6051 196.726 48.2959C197.491 47.9867 198.024 47.6286 198.325 47.2217C198.879 46.4811 199.155 45.7243 199.155 44.9512ZM219.773 33.7085C220.4 33.4725 221.042 33.3545 221.702 33.3545C222.361 33.3545 223.044 33.5498 223.752 33.9404C224.469 34.3311 224.859 34.5264 224.924 34.5264C224.989 34.5264 225.429 34.327 226.243 33.9282C227.056 33.5295 227.789 33.3301 228.44 33.3301C229.099 33.3301 229.64 33.4684 230.063 33.7451C230.495 34.0137 230.82 34.3351 231.04 34.7095C231.455 35.4256 231.663 37.0166 231.663 39.4824C231.663 40.5892 231.671 41.224 231.687 41.3867C231.711 41.5413 231.768 41.8221 231.858 42.229C231.956 42.6278 232.004 42.9574 232.004 43.2178C232.004 43.4701 231.899 43.7345 231.687 44.0112C231.475 44.2879 231.195 44.4263 230.845 44.4263C230.153 44.4263 229.742 44.1455 229.612 43.584C229.514 43.1771 229.4 41.9889 229.27 40.0195C229.148 38.0501 229.014 36.8945 228.867 36.5527C228.574 35.8366 227.952 35.4785 227 35.4785C226.389 35.4785 225.913 35.861 225.571 36.626C225.075 37.7246 224.827 39.2871 224.827 41.3135L224.949 43.0713C224.949 43.6898 224.721 44.1577 224.265 44.4751C223.972 44.6785 223.582 44.7803 223.093 44.7803C222.613 44.7803 222.296 44.7314 222.141 44.6338C221.873 44.471 221.738 44.1252 221.738 43.5962C221.738 43.4985 221.816 43.0998 221.97 42.3999C222.133 41.6919 222.214 40.5444 222.214 38.9575C222.214 37.3625 222.096 36.3493 221.86 35.918C221.624 35.4785 221.213 35.2588 220.627 35.2588C220.042 35.2588 219.521 35.4582 219.065 35.8569C218.617 36.2557 218.288 36.6911 218.076 37.1631C217.873 37.6351 217.69 38.7581 217.527 40.5322C217.372 42.3063 217.262 43.3236 217.197 43.584C217.083 44.0316 216.754 44.2554 216.208 44.2554C215.671 44.2554 215.301 44.0967 215.098 43.7793C214.902 43.4538 214.805 43.0591 214.805 42.5952L214.866 42.168L215.098 41.3257C215.195 40.9351 215.252 40.4793 215.269 39.9585C215.391 36.7277 215.484 34.8844 215.549 34.4287C215.614 33.973 215.907 33.7451 216.428 33.7451L218.247 34.0503C218.638 34.0503 219.146 33.9364 219.773 33.7085ZM238.999 29.1309V29.2773C238.999 29.6924 238.877 30.0464 238.633 30.3394C238.397 30.6242 238.031 30.7666 237.534 30.7666H237.339L236.96 30.7178C236.741 30.7178 236.529 30.616 236.326 30.4126C236.122 30.2091 236.021 29.904 236.021 29.4971V29.3506L236.082 28.9111C236.082 28.7402 236.183 28.5286 236.387 28.2764C236.598 28.0241 236.867 27.8979 237.192 27.8979L237.473 27.8613H237.717L238.059 27.9102C238.271 27.9102 238.478 28.016 238.682 28.2275C238.893 28.431 238.999 28.7321 238.999 29.1309ZM238.425 34.2822L238.291 37.5659L238.267 37.8955L238.23 38.8965V39.3726C238.23 40.5444 238.263 41.3135 238.328 41.6797C238.401 42.0459 238.535 42.404 238.73 42.7539C238.926 43.0957 239.023 43.3439 239.023 43.4985V43.6084C239.023 44.0072 238.82 44.3245 238.413 44.5605C238.006 44.7965 237.453 44.9146 236.753 44.9146H236.448C236.041 44.9146 235.732 44.825 235.52 44.646C235.308 44.4588 235.203 44.2594 235.203 44.0479V43.7793C235.203 43.6735 235.296 43.2992 235.483 42.6562C235.671 42.0052 235.764 41.1222 235.764 40.0073C235.789 39.6899 235.801 39.4702 235.801 39.3481L235.837 38.6768L235.862 38.3472C235.903 37.7775 235.923 37.334 235.923 37.0166L235.935 36.5283C235.935 35.918 235.833 35.3768 235.63 34.9048C235.435 34.4328 235.337 34.1398 235.337 34.0259C235.337 33.4399 235.89 33.147 236.997 33.147H237.437C237.852 33.147 238.12 33.2568 238.242 33.4766C238.364 33.6882 238.425 33.9567 238.425 34.2822ZM242.942 38.1885C242.445 37.6839 242.197 36.9759 242.197 36.0645C242.197 35.153 242.604 34.3717 243.418 33.7207C244.232 33.0615 245.241 32.7319 246.445 32.7319H246.763C247.829 32.7319 248.675 32.8825 249.302 33.1836C249.937 33.4847 250.254 33.9364 250.254 34.5386C250.254 35.1326 249.989 35.4297 249.46 35.4297C249.322 35.4297 248.931 35.2669 248.289 34.9414C247.646 34.6077 247.039 34.4409 246.47 34.4409C245.9 34.4409 245.44 34.5711 245.09 34.8315C244.749 35.0838 244.578 35.4338 244.578 35.8813C244.578 36.3289 244.818 36.7196 245.298 37.0532C245.575 37.2485 246.226 37.5578 247.251 37.981C248.285 38.4041 249.021 38.811 249.46 39.2017C250.168 39.8283 250.522 40.6299 250.522 41.6064C250.522 42.583 250.107 43.4212 249.277 44.1211C248.447 44.8128 247.369 45.1587 246.042 45.1587H245.725C244.39 45.1587 243.389 44.9674 242.722 44.585C242.055 44.1943 241.721 43.6898 241.721 43.0713C241.721 42.4447 241.982 42.1313 242.502 42.1313C242.673 42.1313 243.117 42.3511 243.833 42.7905C244.557 43.23 245.265 43.4497 245.957 43.4497C246.657 43.4497 247.182 43.3032 247.532 43.0103C247.882 42.7091 248.057 42.3348 248.057 41.8872C248.057 41.4315 247.837 41.0327 247.397 40.6909C247.161 40.5037 246.486 40.166 245.371 39.6777C244.256 39.1813 243.446 38.6849 242.942 38.1885ZM252.756 39.9219V39.3604C252.756 38.335 252.915 37.4276 253.232 36.6382C253.843 35.1082 254.779 34.0503 256.04 33.4644C256.862 33.0737 257.712 32.8784 258.591 32.8784H258.86C259.828 32.8784 260.63 33.0697 261.265 33.4521C261.899 33.8346 262.217 34.3026 262.217 34.856C262.217 35.4989 261.908 35.8203 261.289 35.8203C261.175 35.8203 260.776 35.6413 260.093 35.2832C259.409 34.9333 258.848 34.7583 258.408 34.7583C258.4 34.7583 258.392 34.7583 258.384 34.7583C257.424 34.7583 256.671 35.1733 256.125 36.0034C255.588 36.8335 255.32 37.9159 255.32 39.2505C255.32 40.5851 255.605 41.5739 256.174 42.2168C256.752 42.8597 257.554 43.1812 258.579 43.1812C259.002 43.1812 259.584 43.0632 260.325 42.8271C261.065 42.583 261.517 42.4609 261.68 42.4609C262.013 42.4609 262.18 42.6359 262.18 42.9858C262.18 43.4578 261.712 43.9339 260.776 44.4141C259.84 44.8942 258.921 45.1343 258.018 45.1343C255.601 45.1343 254.001 44.1821 253.22 42.2778C252.911 41.521 252.756 40.7357 252.756 39.9219ZM266.868 39.8486C266.868 40.9147 267.112 41.8018 267.6 42.5098C268.088 43.2178 268.687 43.5718 269.395 43.5718H269.761C270.599 43.5718 271.307 43.1486 271.885 42.3022C272.471 41.4559 272.764 40.3288 272.764 38.9209V38.1152C272.764 37.0247 272.524 36.1336 272.043 35.4419C271.571 34.742 270.961 34.3921 270.212 34.3921H269.968C269.097 34.3921 268.365 34.8234 267.771 35.686C267.185 36.5487 266.892 37.5781 266.892 38.7744L266.868 39.0552V39.8486ZM269.626 45.2319H269.236C267.812 45.2319 266.652 44.7355 265.757 43.7427C264.862 42.7498 264.414 41.342 264.414 39.519L264.426 39.3115C264.426 37.3096 264.955 35.7308 266.013 34.5752C266.567 33.9648 267.197 33.5173 267.905 33.2324C268.621 32.9395 269.301 32.793 269.944 32.793H270.542C271.258 32.793 271.946 32.9517 272.605 33.269C274.493 34.1805 275.437 35.8976 275.437 38.4204V38.6157C275.429 39.4377 275.295 40.2718 275.034 41.1182C274.513 42.7865 273.512 43.9665 272.031 44.6582C271.209 45.0407 270.408 45.2319 269.626 45.2319ZM278.049 34.0259C278.049 33.5132 278.481 33.2568 279.343 33.2568H279.624C280.161 33.2568 280.523 33.4725 280.71 33.9038C280.898 34.3351 280.991 35.1408 280.991 36.3208L280.845 40.3979C280.845 42.2941 281.524 43.2422 282.883 43.2422C283.38 43.2422 283.856 43.0672 284.312 42.7173C284.767 42.3674 285.105 41.9482 285.325 41.46C285.805 40.3857 286.045 38.4611 286.045 35.686L286.021 35.1489V34.6729C286.021 34.2415 286.118 33.9282 286.313 33.7329C286.509 33.5376 286.851 33.4399 287.339 33.4399C287.827 33.4399 288.149 33.5579 288.303 33.7939C288.458 34.0299 288.535 34.4124 288.535 34.9414L288.511 35.5884L288.462 38.4692C288.462 38.9331 288.49 39.6452 288.547 40.6055C288.604 41.5658 288.665 42.2697 288.73 42.7173C288.796 43.1567 288.828 43.4172 288.828 43.4985C288.828 44.2228 288.295 44.585 287.229 44.585C286.863 44.585 286.497 44.4507 286.13 44.1821C285.772 43.9054 285.516 43.7671 285.361 43.7671C285.215 43.7671 284.963 43.8566 284.604 44.0356C283.587 44.5483 282.721 44.8047 282.004 44.8047H281.699C280.535 44.8047 279.681 44.4466 279.136 43.7305C278.59 43.0143 278.318 41.7244 278.318 39.8608L278.44 36.1621C278.44 35.6982 278.375 35.2547 278.245 34.8315C278.114 34.4084 278.049 34.1398 278.049 34.0259ZM303.062 43.5352C303.062 44.1374 302.537 44.4385 301.487 44.4385C300.893 44.4385 300.494 44.2961 300.291 44.0112C300.193 43.8729 300.144 43.5474 300.144 43.0347L300.107 42.2534C300.05 41.3989 300.022 40.5404 300.022 39.6777C300.022 37.8141 299.859 36.5649 299.534 35.9302C299.216 35.2873 298.679 34.9658 297.922 34.9658C297.418 34.9658 296.95 35.1164 296.519 35.4175C296.095 35.7186 295.77 36.1377 295.542 36.6748C295.07 37.7734 294.834 39.8039 294.834 42.7661C294.834 43.4416 294.704 43.9176 294.443 44.1943C294.191 44.471 293.866 44.6094 293.467 44.6094H293.223C292.311 44.6094 291.855 44.2472 291.855 43.5229V43.23C291.855 43.1405 291.904 42.9451 292.002 42.644L292.197 42.0825C292.393 41.4233 292.49 40.0114 292.49 37.8467L292.551 34.2212C292.551 33.7573 292.804 33.5254 293.308 33.5254C293.813 33.5254 294.309 33.6922 294.797 34.0259C295.294 34.3595 295.607 34.5264 295.737 34.5264C295.876 34.5264 296.116 34.4328 296.458 34.2456C297.605 33.619 298.525 33.3057 299.216 33.3057H299.534C300.779 33.3057 301.654 33.8672 302.158 34.9902C302.402 35.5192 302.524 36.6585 302.524 38.4082V38.4937C302.524 38.6401 302.52 38.7866 302.512 38.9331C302.512 39.3319 302.512 39.5394 302.512 39.5557C302.512 39.7103 302.512 39.8608 302.512 40.0073C302.512 40.1213 302.512 40.2311 302.512 40.3369C302.512 40.9635 302.533 41.3908 302.573 41.6187C302.63 41.9279 302.724 42.2493 302.854 42.583C302.992 42.9492 303.062 43.2666 303.062 43.5352ZM312.229 43.6938C312.229 44.0194 312.03 44.3123 311.631 44.5728C311.24 44.825 310.707 44.9512 310.032 44.9512C308.77 44.9512 307.883 44.4832 307.371 43.5474C307.053 42.9614 306.895 41.5902 306.895 39.4336C306.895 37.277 306.858 36.0238 306.785 35.6738C306.711 35.3239 306.508 34.9821 306.174 34.6484C305.841 34.3148 305.674 34.0584 305.674 33.8794C305.674 33.8143 306.069 33.387 306.858 32.5977C307.029 32.4268 307.2 32.0483 307.371 31.4624C307.55 30.8765 307.676 30.4899 307.749 30.3027C307.993 29.7168 308.315 29.4238 308.713 29.4238H308.909C309.259 29.4238 309.507 29.5581 309.653 29.8267C309.71 29.9325 309.796 30.3149 309.91 30.9741C310.032 31.6252 310.17 32.0443 310.325 32.2314C310.479 32.4186 310.866 32.6261 311.484 32.854C312.111 33.0737 312.424 33.3097 312.424 33.562V33.6963C312.424 34.0218 312.066 34.2985 311.35 34.5264C310.642 34.7461 310.186 35.1001 309.983 35.5884C309.584 36.5731 309.385 38.1763 309.385 40.3979C309.385 41.4396 309.564 42.1476 309.922 42.522C310.142 42.7498 310.581 42.9085 311.24 42.998C311.899 43.0876 312.229 43.3195 312.229 43.6938ZM315.94 38.1885C315.444 37.6839 315.195 36.9759 315.195 36.0645C315.195 35.153 315.602 34.3717 316.416 33.7207C317.23 33.0615 318.239 32.7319 319.443 32.7319H319.761C320.827 32.7319 321.673 32.8825 322.3 33.1836C322.935 33.4847 323.252 33.9364 323.252 34.5386C323.252 35.1326 322.987 35.4297 322.458 35.4297C322.32 35.4297 321.93 35.2669 321.287 34.9414C320.644 34.6077 320.037 34.4409 319.468 34.4409C318.898 34.4409 318.438 34.5711 318.088 34.8315C317.747 35.0838 317.576 35.4338 317.576 35.8813C317.576 36.3289 317.816 36.7196 318.296 37.0532C318.573 37.2485 319.224 37.5578 320.249 37.981C321.283 38.4041 322.019 38.811 322.458 39.2017C323.167 39.8283 323.521 40.6299 323.521 41.6064C323.521 42.583 323.105 43.4212 322.275 44.1211C321.445 44.8128 320.367 45.1587 319.041 45.1587H318.723C317.389 45.1587 316.388 44.9674 315.72 44.585C315.053 44.1943 314.719 43.6898 314.719 43.0713C314.719 42.4447 314.98 42.1313 315.5 42.1313C315.671 42.1313 316.115 42.3511 316.831 42.7905C317.555 43.23 318.263 43.4497 318.955 43.4497C319.655 43.4497 320.18 43.3032 320.53 43.0103C320.88 42.7091 321.055 42.3348 321.055 41.8872C321.055 41.4315 320.835 41.0327 320.396 40.6909C320.16 40.5037 319.484 40.166 318.369 39.6777C317.254 39.1813 316.444 38.6849 315.94 38.1885ZM326.34 43.3643C326.34 42.9574 326.466 42.64 326.719 42.4121C326.971 42.1842 327.301 42.0703 327.708 42.0703H328.159C328.574 42.0703 328.879 42.168 329.075 42.3633C329.27 42.5586 329.368 42.937 329.368 43.4985V43.6816C329.368 44.7233 329.087 45.6999 328.525 46.6113C327.801 47.7913 327.15 48.3813 326.572 48.3813H326.487C326.145 48.3813 325.974 48.2349 325.974 47.9419C325.974 47.8361 326.149 47.5187 326.499 46.9897C326.849 46.4689 327.024 46.0783 327.024 45.8179C327.024 45.5656 326.914 45.2197 326.694 44.7803C326.475 44.3408 326.365 44.0112 326.365 43.7915L326.34 43.6206V43.3643ZM340.049 28.0322C340.049 27.4382 340.606 27.1411 341.721 27.1411H341.941C342.405 27.1411 342.722 27.255 342.893 27.4829C343.064 27.7026 343.149 28.134 343.149 28.7769L343.052 30.5957C343.027 30.8805 343.015 31.0352 343.015 31.0596L342.991 31.5234C342.974 31.8245 342.958 32.1297 342.942 32.439L342.905 32.9028L342.869 33.5986C342.738 36.0726 342.673 37.8996 342.673 39.0796C342.673 40.2515 342.726 41.0938 342.832 41.6064C342.938 42.1191 343.105 42.5545 343.333 42.9126C343.56 43.2707 343.674 43.5067 343.674 43.6206V43.7671C343.674 44.1252 343.495 44.41 343.137 44.6216C342.787 44.8332 342.311 44.939 341.709 44.939H341.074C340.7 44.939 340.37 44.8332 340.085 44.6216C339.809 44.4019 339.67 44.1536 339.67 43.877V43.5474L339.744 43.0347C339.841 42.3267 339.898 41.7977 339.915 41.4478C339.939 41.0897 339.976 40.5973 340.024 39.9707C340.073 39.3359 340.151 37.9891 340.256 35.9302C340.37 33.8631 340.427 32.7523 340.427 32.5977L340.476 31.6821L340.5 30.7788C340.5 29.9162 340.423 29.3018 340.269 28.9355C340.122 28.5612 340.049 28.2601 340.049 28.0322ZM348.63 39.8486C348.63 40.9147 348.875 41.8018 349.363 42.5098C349.851 43.2178 350.449 43.5718 351.157 43.5718H351.523C352.362 43.5718 353.07 43.1486 353.647 42.3022C354.233 41.4559 354.526 40.3288 354.526 38.9209V38.1152C354.526 37.0247 354.286 36.1336 353.806 35.4419C353.334 34.742 352.724 34.3921 351.975 34.3921H351.731C350.86 34.3921 350.128 34.8234 349.534 35.686C348.948 36.5487 348.655 37.5781 348.655 38.7744L348.63 39.0552V39.8486ZM351.389 45.2319H350.999C349.574 45.2319 348.415 44.7355 347.52 43.7427C346.624 42.7498 346.177 41.342 346.177 39.519L346.189 39.3115C346.189 37.3096 346.718 35.7308 347.776 34.5752C348.329 33.9648 348.96 33.5173 349.668 33.2324C350.384 32.9395 351.064 32.793 351.707 32.793H352.305C353.021 32.793 353.708 32.9517 354.368 33.269C356.256 34.1805 357.2 35.8976 357.2 38.4204V38.6157C357.192 39.4377 357.057 40.2718 356.797 41.1182C356.276 42.7865 355.275 43.9665 353.794 44.6582C352.972 45.0407 352.17 45.2319 351.389 45.2319ZM360.642 38.1885C360.146 37.6839 359.897 36.9759 359.897 36.0645C359.897 35.153 360.304 34.3717 361.118 33.7207C361.932 33.0615 362.941 32.7319 364.146 32.7319H364.463C365.529 32.7319 366.375 32.8825 367.002 33.1836C367.637 33.4847 367.954 33.9364 367.954 34.5386C367.954 35.1326 367.69 35.4297 367.161 35.4297C367.022 35.4297 366.632 35.2669 365.989 34.9414C365.346 34.6077 364.74 34.4409 364.17 34.4409C363.6 34.4409 363.14 34.5711 362.791 34.8315C362.449 35.0838 362.278 35.4338 362.278 35.8813C362.278 36.3289 362.518 36.7196 362.998 37.0532C363.275 37.2485 363.926 37.5578 364.951 37.981C365.985 38.4041 366.721 38.811 367.161 39.2017C367.869 39.8283 368.223 40.6299 368.223 41.6064C368.223 42.583 367.808 43.4212 366.978 44.1211C366.147 44.8128 365.069 45.1587 363.743 45.1587H363.425C362.091 45.1587 361.09 44.9674 360.422 44.585C359.755 44.1943 359.421 43.6898 359.421 43.0713C359.421 42.4447 359.682 42.1313 360.203 42.1313C360.374 42.1313 360.817 42.3511 361.533 42.7905C362.257 43.23 362.965 43.4497 363.657 43.4497C364.357 43.4497 364.882 43.3032 365.232 43.0103C365.582 42.7091 365.757 42.3348 365.757 41.8872C365.757 41.4315 365.537 41.0327 365.098 40.6909C364.862 40.5037 364.186 40.166 363.071 39.6777C361.956 39.1813 361.147 38.6849 360.642 38.1885ZM373.069 37.5781V37.7734C373.069 38.0176 373.293 38.1396 373.74 38.1396H374.033L374.106 38.1274L374.705 38.0786C375.331 37.9891 375.738 37.9443 375.925 37.9443C376.812 37.9443 377.48 37.7775 377.927 37.4438C378.139 37.2811 378.245 36.9922 378.245 36.5771V36.4429C378.245 35.8325 378.041 35.3483 377.634 34.9902C377.236 34.6322 376.755 34.4531 376.194 34.4531H376.108L376.035 34.4653C375.246 34.4653 374.554 34.799 373.96 35.4663C373.366 36.1336 373.069 36.8376 373.069 37.5781ZM375.73 45.1587H375.461C373.907 45.1587 372.67 44.6663 371.75 43.6816C370.831 42.6888 370.371 41.3664 370.371 39.7144V39.1772C370.371 38.3879 370.526 37.5863 370.835 36.7725C371.462 35.1449 372.483 34.0218 373.899 33.4033C374.648 33.0697 375.409 32.9028 376.182 32.9028H376.707C377.773 32.9028 378.672 33.2609 379.404 33.9771C380.145 34.6851 380.515 35.6006 380.515 36.7236V36.9678C380.515 37.7653 380.198 38.3309 379.563 38.6646C379.124 38.9006 378.098 39.1366 376.487 39.3726C374.875 39.6086 373.997 39.751 373.85 39.7998C373.362 39.9707 373.118 40.2962 373.118 40.7764C373.118 41.4437 373.403 42.0133 373.972 42.4854C374.542 42.9574 375.307 43.1934 376.267 43.1934C376.715 43.1934 377.325 43.0713 378.098 42.8271C378.871 42.583 379.319 42.4609 379.441 42.4609C379.856 42.4609 380.063 42.64 380.063 42.998C380.063 43.4782 379.596 43.9583 378.66 44.4385C377.724 44.9186 376.747 45.1587 375.73 45.1587ZM384.031 38.1885C383.534 37.6839 383.286 36.9759 383.286 36.0645C383.286 35.153 383.693 34.3717 384.507 33.7207C385.321 33.0615 386.33 32.7319 387.534 32.7319H387.852C388.918 32.7319 389.764 32.8825 390.391 33.1836C391.025 33.4847 391.343 33.9364 391.343 34.5386C391.343 35.1326 391.078 35.4297 390.549 35.4297C390.411 35.4297 390.02 35.2669 389.377 34.9414C388.735 34.6077 388.128 34.4409 387.559 34.4409C386.989 34.4409 386.529 34.5711 386.179 34.8315C385.837 35.0838 385.667 35.4338 385.667 35.8813C385.667 36.3289 385.907 36.7196 386.387 37.0532C386.663 37.2485 387.314 37.5578 388.34 37.981C389.373 38.4041 390.11 38.811 390.549 39.2017C391.257 39.8283 391.611 40.6299 391.611 41.6064C391.611 42.583 391.196 43.4212 390.366 44.1211C389.536 44.8128 388.458 45.1587 387.131 45.1587H386.814C385.479 45.1587 384.478 44.9674 383.811 44.585C383.144 44.1943 382.81 43.6898 382.81 43.0713C382.81 42.4447 383.07 42.1313 383.591 42.1313C383.762 42.1313 384.206 42.3511 384.922 42.7905C385.646 43.23 386.354 43.4497 387.046 43.4497C387.746 43.4497 388.271 43.3032 388.621 43.0103C388.971 42.7091 389.146 42.3348 389.146 41.8872C389.146 41.4315 388.926 41.0327 388.486 40.6909C388.25 40.5037 387.575 40.166 386.46 39.6777C385.345 39.1813 384.535 38.6849 384.031 38.1885ZM405.063 29.1309V29.2773C405.063 29.6924 404.941 30.0464 404.697 30.3394C404.461 30.6242 404.095 30.7666 403.599 30.7666H403.403L403.025 30.7178C402.805 30.7178 402.594 30.616 402.39 30.4126C402.187 30.2091 402.085 29.904 402.085 29.4971V29.3506L402.146 28.9111C402.146 28.7402 402.248 28.5286 402.451 28.2764C402.663 28.0241 402.931 27.8979 403.257 27.8979L403.538 27.8613H403.782L404.124 27.9102C404.335 27.9102 404.543 28.016 404.746 28.2275C404.958 28.431 405.063 28.7321 405.063 29.1309ZM404.49 34.2822L404.355 37.5659L404.331 37.8955L404.294 38.8965V39.3726C404.294 40.5444 404.327 41.3135 404.392 41.6797C404.465 42.0459 404.6 42.404 404.795 42.7539C404.99 43.0957 405.088 43.3439 405.088 43.4985V43.6084C405.088 44.0072 404.884 44.3245 404.478 44.5605C404.071 44.7965 403.517 44.9146 402.817 44.9146H402.512C402.105 44.9146 401.796 44.825 401.584 44.646C401.373 44.4588 401.267 44.2594 401.267 44.0479V43.7793C401.267 43.6735 401.361 43.2992 401.548 42.6562C401.735 42.0052 401.829 41.1222 401.829 40.0073C401.853 39.6899 401.865 39.4702 401.865 39.3481L401.902 38.6768L401.926 38.3472C401.967 37.7775 401.987 37.334 401.987 37.0166L402 36.5283C402 35.918 401.898 35.3768 401.694 34.9048C401.499 34.4328 401.401 34.1398 401.401 34.0259C401.401 33.4399 401.955 33.147 403.062 33.147H403.501C403.916 33.147 404.185 33.2568 404.307 33.4766C404.429 33.6882 404.49 33.9567 404.49 34.2822ZM414.475 43.6938C414.475 44.0194 414.276 44.3123 413.877 44.5728C413.486 44.825 412.953 44.9512 412.278 44.9512C411.016 44.9512 410.129 44.4832 409.617 43.5474C409.299 42.9614 409.141 41.5902 409.141 39.4336C409.141 37.277 409.104 36.0238 409.031 35.6738C408.958 35.3239 408.754 34.9821 408.42 34.6484C408.087 34.3148 407.92 34.0584 407.92 33.8794C407.92 33.8143 408.315 33.387 409.104 32.5977C409.275 32.4268 409.446 32.0483 409.617 31.4624C409.796 30.8765 409.922 30.4899 409.995 30.3027C410.239 29.7168 410.561 29.4238 410.959 29.4238H411.155C411.505 29.4238 411.753 29.5581 411.899 29.8267C411.956 29.9325 412.042 30.3149 412.156 30.9741C412.278 31.6252 412.416 32.0443 412.571 32.2314C412.725 32.4186 413.112 32.6261 413.73 32.854C414.357 33.0737 414.67 33.3097 414.67 33.562V33.6963C414.67 34.0218 414.312 34.2985 413.596 34.5264C412.888 34.7461 412.432 35.1001 412.229 35.5884C411.83 36.5731 411.631 38.1763 411.631 40.3979C411.631 41.4396 411.81 42.1476 412.168 42.522C412.388 42.7498 412.827 42.9085 413.486 42.998C414.146 43.0876 414.475 43.3195 414.475 43.6938ZM419.456 37.5781V37.7734C419.456 38.0176 419.679 38.1396 420.127 38.1396H420.42L420.493 38.1274L421.091 38.0786C421.718 37.9891 422.125 37.9443 422.312 37.9443C423.199 37.9443 423.866 37.7775 424.314 37.4438C424.526 37.2811 424.631 36.9922 424.631 36.5771V36.4429C424.631 35.8325 424.428 35.3483 424.021 34.9902C423.622 34.6322 423.142 34.4531 422.581 34.4531H422.495L422.422 34.4653C421.632 34.4653 420.941 34.799 420.347 35.4663C419.753 36.1336 419.456 36.8376 419.456 37.5781ZM422.117 45.1587H421.848C420.294 45.1587 419.057 44.6663 418.137 43.6816C417.218 42.6888 416.758 41.3664 416.758 39.7144V39.1772C416.758 38.3879 416.912 37.5863 417.222 36.7725C417.848 35.1449 418.87 34.0218 420.286 33.4033C421.034 33.0697 421.795 32.9028 422.568 32.9028H423.093C424.159 32.9028 425.059 33.2609 425.791 33.9771C426.532 34.6851 426.902 35.6006 426.902 36.7236V36.9678C426.902 37.7653 426.584 38.3309 425.95 38.6646C425.51 38.9006 424.485 39.1366 422.874 39.3726C421.262 39.6086 420.383 39.751 420.237 39.7998C419.749 39.9707 419.504 40.2962 419.504 40.7764C419.504 41.4437 419.789 42.0133 420.359 42.4854C420.929 42.9574 421.694 43.1934 422.654 43.1934C423.101 43.1934 423.712 43.0713 424.485 42.8271C425.258 42.583 425.706 42.4609 425.828 42.4609C426.243 42.4609 426.45 42.64 426.45 42.998C426.45 43.4782 425.982 43.9583 425.046 44.4385C424.111 44.9186 423.134 45.1587 422.117 45.1587ZM434.641 33.7085C435.268 33.4725 435.911 33.3545 436.57 33.3545C437.229 33.3545 437.913 33.5498 438.621 33.9404C439.337 34.3311 439.727 34.5264 439.792 34.5264C439.858 34.5264 440.297 34.327 441.111 33.9282C441.925 33.5295 442.657 33.3301 443.308 33.3301C443.967 33.3301 444.508 33.4684 444.932 33.7451C445.363 34.0137 445.688 34.3351 445.908 34.7095C446.323 35.4256 446.531 37.0166 446.531 39.4824C446.531 40.5892 446.539 41.224 446.555 41.3867C446.58 41.5413 446.637 41.8221 446.726 42.229C446.824 42.6278 446.873 42.9574 446.873 43.2178C446.873 43.4701 446.767 43.7345 446.555 44.0112C446.344 44.2879 446.063 44.4263 445.713 44.4263C445.021 44.4263 444.61 44.1455 444.48 43.584C444.382 43.1771 444.268 41.9889 444.138 40.0195C444.016 38.0501 443.882 36.8945 443.735 36.5527C443.442 35.8366 442.82 35.4785 441.868 35.4785C441.257 35.4785 440.781 35.861 440.439 36.626C439.943 37.7246 439.695 39.2871 439.695 41.3135L439.817 43.0713C439.817 43.6898 439.589 44.1577 439.133 44.4751C438.84 44.6785 438.45 44.7803 437.961 44.7803C437.481 44.7803 437.164 44.7314 437.009 44.6338C436.741 44.471 436.606 44.1252 436.606 43.5962C436.606 43.4985 436.684 43.0998 436.838 42.3999C437.001 41.6919 437.083 40.5444 437.083 38.9575C437.083 37.3625 436.965 36.3493 436.729 35.918C436.493 35.4785 436.082 35.2588 435.496 35.2588C434.91 35.2588 434.389 35.4582 433.933 35.8569C433.486 36.2557 433.156 36.6911 432.944 37.1631C432.741 37.6351 432.558 38.7581 432.395 40.5322C432.24 42.3063 432.131 43.3236 432.065 43.584C431.951 44.0316 431.622 44.2554 431.077 44.2554C430.54 44.2554 430.169 44.0967 429.966 43.7793C429.771 43.4538 429.673 43.0591 429.673 42.5952L429.734 42.168L429.966 41.3257C430.063 40.9351 430.12 40.4793 430.137 39.9585C430.259 36.7277 430.352 34.8844 430.417 34.4287C430.483 33.973 430.776 33.7451 431.296 33.7451L433.115 34.0503C433.506 34.0503 434.014 33.9364 434.641 33.7085ZM450.803 38.1885C450.307 37.6839 450.059 36.9759 450.059 36.0645C450.059 35.153 450.465 34.3717 451.279 33.7207C452.093 33.0615 453.102 32.7319 454.307 32.7319H454.624C455.69 32.7319 456.536 32.8825 457.163 33.1836C457.798 33.4847 458.115 33.9364 458.115 34.5386C458.115 35.1326 457.851 35.4297 457.322 35.4297C457.183 35.4297 456.793 35.2669 456.15 34.9414C455.507 34.6077 454.901 34.4409 454.331 34.4409C453.761 34.4409 453.302 34.5711 452.952 34.8315C452.61 35.0838 452.439 35.4338 452.439 35.8813C452.439 36.3289 452.679 36.7196 453.159 37.0532C453.436 37.2485 454.087 37.5578 455.112 37.981C456.146 38.4041 456.882 38.811 457.322 39.2017C458.03 39.8283 458.384 40.6299 458.384 41.6064C458.384 42.583 457.969 43.4212 457.139 44.1211C456.309 44.8128 455.23 45.1587 453.904 45.1587H453.586C452.252 45.1587 451.251 44.9674 450.583 44.585C449.916 44.1943 449.583 43.6898 449.583 43.0713C449.583 42.4447 449.843 42.1313 450.364 42.1313C450.535 42.1313 450.978 42.3511 451.694 42.7905C452.419 43.23 453.127 43.4497 453.818 43.4497C454.518 43.4497 455.043 43.3032 455.393 43.0103C455.743 42.7091 455.918 42.3348 455.918 41.8872C455.918 41.4315 455.698 41.0327 455.259 40.6909C455.023 40.5037 454.347 40.166 453.232 39.6777C452.118 39.1813 451.308 38.6849 450.803 38.1885ZM461.204 43.3643C461.204 42.9574 461.33 42.64 461.582 42.4121C461.834 42.1842 462.164 42.0703 462.571 42.0703H463.022C463.438 42.0703 463.743 42.168 463.938 42.3633C464.133 42.5586 464.231 42.937 464.231 43.4985V43.6816C464.231 44.7233 463.95 45.6999 463.389 46.6113C462.664 47.7913 462.013 48.3813 461.436 48.3813H461.35C461.008 48.3813 460.837 48.2349 460.837 47.9419C460.837 47.8361 461.012 47.5187 461.362 46.9897C461.712 46.4689 461.887 46.0783 461.887 45.8179C461.887 45.5656 461.777 45.2197 461.558 44.7803C461.338 44.3408 461.228 44.0112 461.228 43.7915L461.204 43.6206V43.3643ZM476.365 39.8486C476.365 40.9147 476.609 41.8018 477.097 42.5098C477.585 43.2178 478.184 43.5718 478.892 43.5718H479.258C480.096 43.5718 480.804 43.1486 481.382 42.3022C481.968 41.4559 482.261 40.3288 482.261 38.9209V38.1152C482.261 37.0247 482.021 36.1336 481.541 35.4419C481.069 34.742 480.458 34.3921 479.709 34.3921H479.465C478.595 34.3921 477.862 34.8234 477.268 35.686C476.682 36.5487 476.389 37.5781 476.389 38.7744L476.365 39.0552V39.8486ZM479.124 45.2319H478.733C477.309 45.2319 476.149 44.7355 475.254 43.7427C474.359 42.7498 473.911 41.342 473.911 39.519L473.923 39.3115C473.923 37.3096 474.452 35.7308 475.51 34.5752C476.064 33.9648 476.694 33.5173 477.402 33.2324C478.118 32.9395 478.798 32.793 479.441 32.793H480.039C480.755 32.793 481.443 32.9517 482.102 33.269C483.99 34.1805 484.934 35.8976 484.934 38.4204V38.6157C484.926 39.4377 484.792 40.2718 484.531 41.1182C484.01 42.7865 483.009 43.9665 481.528 44.6582C480.706 45.0407 479.905 45.2319 479.124 45.2319ZM488.242 38.6523V37.7124C488.242 36.5812 488.181 35.7552 488.059 35.2344C487.937 34.7054 487.876 34.3351 487.876 34.1235C487.876 33.6271 488.238 33.3789 488.962 33.3789C489.687 33.3789 490.212 33.5132 490.537 33.7817C490.627 33.855 490.741 33.9974 490.879 34.209C491.025 34.4206 491.156 34.5264 491.27 34.5264C491.294 34.5264 491.648 34.3188 492.332 33.9038C493.015 33.4888 493.601 33.2812 494.089 33.2812H494.272C494.671 33.2812 494.989 33.3789 495.225 33.5742C495.461 33.7614 495.579 33.9933 495.579 34.27V34.4287C495.579 34.7624 495.461 35.0024 495.225 35.1489C494.997 35.2954 494.631 35.3687 494.126 35.3687C492.979 35.3687 492.14 35.7715 491.611 36.5771C491.09 37.3828 490.83 38.807 490.83 40.8496C490.83 41.1426 490.879 41.5942 490.977 42.2046C491.082 42.8149 491.135 43.2747 491.135 43.584C491.135 43.8932 490.968 44.1903 490.635 44.4751C490.301 44.7599 489.878 44.9023 489.365 44.9023H488.95C488.503 44.9023 488.157 44.7965 487.913 44.585C487.677 44.3652 487.559 44.1007 487.559 43.7915C487.559 43.4741 487.616 43.1527 487.729 42.8271C488.039 41.9482 488.193 40.9798 488.193 39.9219C488.226 39.3359 488.242 38.9128 488.242 38.6523ZM509.495 33.7085C510.121 33.4725 510.764 33.3545 511.423 33.3545C512.083 33.3545 512.766 33.5498 513.474 33.9404C514.19 34.3311 514.581 34.5264 514.646 34.5264C514.711 34.5264 515.151 34.327 515.964 33.9282C516.778 33.5295 517.511 33.3301 518.162 33.3301C518.821 33.3301 519.362 33.4684 519.785 33.7451C520.216 34.0137 520.542 34.3351 520.762 34.7095C521.177 35.4256 521.384 37.0166 521.384 39.4824C521.384 40.5892 521.392 41.224 521.409 41.3867C521.433 41.5413 521.49 41.8221 521.58 42.229C521.677 42.6278 521.726 42.9574 521.726 43.2178C521.726 43.4701 521.62 43.7345 521.409 44.0112C521.197 44.2879 520.916 44.4263 520.566 44.4263C519.875 44.4263 519.464 44.1455 519.333 43.584C519.236 43.1771 519.122 41.9889 518.992 40.0195C518.87 38.0501 518.735 36.8945 518.589 36.5527C518.296 35.8366 517.673 35.4785 516.721 35.4785C516.111 35.4785 515.635 35.861 515.293 36.626C514.797 37.7246 514.548 39.2871 514.548 41.3135L514.67 43.0713C514.67 43.6898 514.443 44.1577 513.987 44.4751C513.694 44.6785 513.303 44.7803 512.815 44.7803C512.335 44.7803 512.017 44.7314 511.863 44.6338C511.594 44.471 511.46 44.1252 511.46 43.5962C511.46 43.4985 511.537 43.0998 511.692 42.3999C511.855 41.6919 511.936 40.5444 511.936 38.9575C511.936 37.3625 511.818 36.3493 511.582 35.918C511.346 35.4785 510.935 35.2588 510.349 35.2588C509.763 35.2588 509.242 35.4582 508.787 35.8569C508.339 36.2557 508.009 36.6911 507.798 37.1631C507.594 37.6351 507.411 38.7581 507.249 40.5322C507.094 42.3063 506.984 43.3236 506.919 43.584C506.805 44.0316 506.475 44.2554 505.93 44.2554C505.393 44.2554 505.023 44.0967 504.819 43.7793C504.624 43.4538 504.526 43.0591 504.526 42.5952L504.587 42.168L504.819 41.3257C504.917 40.9351 504.974 40.4793 504.99 39.9585C505.112 36.7277 505.206 34.8844 505.271 34.4287C505.336 33.973 505.629 33.7451 506.15 33.7451L507.969 34.0503C508.359 34.0503 508.868 33.9364 509.495 33.7085ZM528.721 29.1309V29.2773C528.721 29.6924 528.599 30.0464 528.354 30.3394C528.118 30.6242 527.752 30.7666 527.256 30.7666H527.061L526.682 30.7178C526.462 30.7178 526.251 30.616 526.047 30.4126C525.844 30.2091 525.742 29.904 525.742 29.4971V29.3506L525.803 28.9111C525.803 28.7402 525.905 28.5286 526.108 28.2764C526.32 28.0241 526.589 27.8979 526.914 27.8979L527.195 27.8613H527.439L527.781 27.9102C527.992 27.9102 528.2 28.016 528.403 28.2275C528.615 28.431 528.721 28.7321 528.721 29.1309ZM528.147 34.2822L528.013 37.5659L527.988 37.8955L527.952 38.8965V39.3726C527.952 40.5444 527.984 41.3135 528.049 41.6797C528.123 42.0459 528.257 42.404 528.452 42.7539C528.647 43.0957 528.745 43.3439 528.745 43.4985V43.6084C528.745 44.0072 528.542 44.3245 528.135 44.5605C527.728 44.7965 527.174 44.9146 526.475 44.9146H526.169C525.763 44.9146 525.453 44.825 525.242 44.646C525.03 44.4588 524.924 44.2594 524.924 44.0479V43.7793C524.924 43.6735 525.018 43.2992 525.205 42.6562C525.392 42.0052 525.486 41.1222 525.486 40.0073C525.51 39.6899 525.522 39.4702 525.522 39.3481L525.559 38.6768L525.583 38.3472C525.624 37.7775 525.645 37.334 525.645 37.0166L525.657 36.5283C525.657 35.918 525.555 35.3768 525.352 34.9048C525.156 34.4328 525.059 34.1398 525.059 34.0259C525.059 33.4399 525.612 33.147 526.719 33.147H527.158C527.573 33.147 527.842 33.2568 527.964 33.4766C528.086 33.6882 528.147 33.9567 528.147 34.2822ZM532.664 38.1885C532.167 37.6839 531.919 36.9759 531.919 36.0645C531.919 35.153 532.326 34.3717 533.14 33.7207C533.953 33.0615 534.963 32.7319 536.167 32.7319H536.484C537.55 32.7319 538.397 32.8825 539.023 33.1836C539.658 33.4847 539.976 33.9364 539.976 34.5386C539.976 35.1326 539.711 35.4297 539.182 35.4297C539.044 35.4297 538.653 35.2669 538.01 34.9414C537.367 34.6077 536.761 34.4409 536.191 34.4409C535.622 34.4409 535.162 34.5711 534.812 34.8315C534.47 35.0838 534.299 35.4338 534.299 35.8813C534.299 36.3289 534.539 36.7196 535.02 37.0532C535.296 37.2485 535.947 37.5578 536.973 37.981C538.006 38.4041 538.743 38.811 539.182 39.2017C539.89 39.8283 540.244 40.6299 540.244 41.6064C540.244 42.583 539.829 43.4212 538.999 44.1211C538.169 44.8128 537.091 45.1587 535.764 45.1587H535.447C534.112 45.1587 533.111 44.9674 532.444 44.585C531.777 44.1943 531.443 43.6898 531.443 43.0713C531.443 42.4447 531.703 42.1313 532.224 42.1313C532.395 42.1313 532.839 42.3511 533.555 42.7905C534.279 43.23 534.987 43.4497 535.679 43.4497C536.379 43.4497 536.903 43.3032 537.253 43.0103C537.603 42.7091 537.778 42.3348 537.778 41.8872C537.778 41.4315 537.559 41.0327 537.119 40.6909C536.883 40.5037 536.208 40.166 535.093 39.6777C533.978 39.1813 533.168 38.6849 532.664 38.1885ZM551.438 37.9565C551.438 36.8742 551.21 36.0278 550.754 35.4175C550.307 34.799 549.77 34.4897 549.143 34.4897H548.789C547.91 34.4897 547.214 34.8397 546.702 35.5396C546.189 36.2313 545.933 37.2526 545.933 38.6035L545.908 38.8477L545.859 40.1172V40.9717C545.859 41.8587 546.038 42.4854 546.396 42.8516C546.763 43.2096 547.279 43.3887 547.947 43.3887H548.179C549.098 43.3887 549.867 42.9655 550.486 42.1191C551.104 41.2728 551.414 40.2433 551.414 39.0308L551.438 38.7622V37.9565ZM544.797 33.3667L546.506 33.6597C546.685 33.6597 547.104 33.5417 547.764 33.3057C548.423 33.0697 549.07 32.9517 549.705 32.9517C550.99 32.9517 552.032 33.4033 552.83 34.3066C553.627 35.2018 554.026 36.4103 554.026 37.9321V38.2373C554.026 39.2627 553.855 40.2067 553.513 41.0693C552.813 42.8516 551.646 44.0031 550.01 44.5239C549.546 44.6704 548.923 44.7721 548.142 44.8291C547.369 44.8861 546.82 44.9878 546.494 45.1343C545.998 45.3621 545.75 45.7731 545.75 46.3672C545.75 46.6195 545.794 46.9613 545.884 47.3926C545.981 47.8239 546.03 48.2227 546.03 48.5889C546.03 48.9551 545.823 49.3132 545.408 49.6631C544.993 50.0212 544.476 50.2002 543.857 50.2002H543.601C542.869 50.2002 542.502 49.9316 542.502 49.3945V49.1626C542.502 49.0487 542.58 48.7272 542.734 48.1982C542.897 47.6774 543.011 47.1159 543.076 46.5137C543.141 45.9196 543.247 44.4344 543.394 42.0581C543.54 39.6818 543.613 38.0583 543.613 37.1875C543.613 36.3086 543.556 35.5721 543.442 34.978C543.337 34.384 543.284 34.0625 543.284 34.0137C543.284 33.5824 543.788 33.3667 544.797 33.3667ZM557.236 28.0322C557.236 27.4382 557.794 27.1411 558.909 27.1411H559.128C559.592 27.1411 559.91 27.255 560.081 27.4829C560.251 27.7026 560.337 28.134 560.337 28.7769L560.239 30.5957C560.215 30.8805 560.203 31.0352 560.203 31.0596L560.178 31.5234C560.162 31.8245 560.146 32.1297 560.129 32.439L560.093 32.9028L560.056 33.5986C559.926 36.0726 559.861 37.8996 559.861 39.0796C559.861 40.2515 559.914 41.0938 560.02 41.6064C560.125 42.1191 560.292 42.5545 560.52 42.9126C560.748 43.2707 560.862 43.5067 560.862 43.6206V43.7671C560.862 44.1252 560.683 44.41 560.325 44.6216C559.975 44.8332 559.499 44.939 558.896 44.939H558.262C557.887 44.939 557.558 44.8332 557.273 44.6216C556.996 44.4019 556.858 44.1536 556.858 43.877V43.5474L556.931 43.0347C557.029 42.3267 557.086 41.7977 557.102 41.4478C557.126 41.0897 557.163 40.5973 557.212 39.9707C557.261 39.3359 557.338 37.9891 557.444 35.9302C557.558 33.8631 557.615 32.7523 557.615 32.5977L557.664 31.6821L557.688 30.7788C557.688 29.9162 557.611 29.3018 557.456 28.9355C557.31 28.5612 557.236 28.2601 557.236 28.0322ZM567.637 43.4619H567.954C568.621 43.4619 569.207 43.2381 569.712 42.7905C570.225 42.3348 570.481 41.8099 570.481 41.2158L570.505 41.0571V40.8984L570.53 40.52V39.8242C570.53 39.3522 570.29 39.1162 569.81 39.1162H569.26L569.175 39.1284L568.699 39.165C568.471 39.1976 568.308 39.2139 568.21 39.2139C567.551 39.2139 566.941 39.4621 566.379 39.9585C565.989 40.3084 565.793 40.8049 565.793 41.4478V41.6919C565.793 42.2371 565.968 42.6685 566.318 42.9858C566.676 43.3032 567.116 43.4619 567.637 43.4619ZM564.915 35.6616C564.369 35.6616 564.097 35.3117 564.097 34.6118C564.097 34.091 564.536 33.6393 565.415 33.2568C566.302 32.8662 567.222 32.6709 568.174 32.6709H568.784C569.606 32.6709 570.33 32.8255 570.957 33.1348C571.584 33.4359 572.06 33.8468 572.385 34.3677C572.719 34.8885 572.922 35.568 572.996 36.4062C573.012 36.6016 573.02 37.5496 573.02 39.2505C573.02 40.9513 573.04 41.932 573.081 42.1924C573.13 42.4447 573.26 42.7539 573.472 43.1201C573.691 43.4863 573.801 43.7874 573.801 44.0234C573.801 44.2594 573.687 44.4629 573.459 44.6338C573.24 44.7965 572.918 44.8779 572.495 44.8779C572.072 44.8779 571.612 44.7762 571.116 44.5728C570.619 44.3612 570.257 44.2554 570.029 44.2554C570.005 44.2554 569.598 44.4019 568.809 44.6948C568.019 44.9797 567.352 45.1221 566.807 45.1221H566.538C565.627 45.1221 564.849 44.8332 564.207 44.2554C563.572 43.6776 563.254 42.8556 563.254 41.7896C563.254 40.7235 563.604 39.8934 564.304 39.2993C565.004 38.6971 565.854 38.2861 566.855 38.0664C567.157 38.0013 567.657 37.9159 568.357 37.8101C569.057 37.7043 569.533 37.5944 569.785 37.4805C570.225 37.277 570.444 36.8945 570.444 36.333C570.444 35.7633 570.257 35.3198 569.883 35.0024C569.508 34.6769 569.061 34.5142 568.54 34.5142C568.027 34.5142 567.352 34.7054 566.514 35.0879C565.675 35.4704 565.142 35.6616 564.915 35.6616ZM576.267 39.9219V39.3604C576.267 38.335 576.426 37.4276 576.743 36.6382C577.354 35.1082 578.289 34.0503 579.551 33.4644C580.373 33.0737 581.223 32.8784 582.102 32.8784H582.371C583.339 32.8784 584.141 33.0697 584.775 33.4521C585.41 33.8346 585.728 34.3026 585.728 34.856C585.728 35.4989 585.418 35.8203 584.8 35.8203C584.686 35.8203 584.287 35.6413 583.604 35.2832C582.92 34.9333 582.358 34.7583 581.919 34.7583C581.911 34.7583 581.903 34.7583 581.895 34.7583C580.934 34.7583 580.181 35.1733 579.636 36.0034C579.099 36.8335 578.831 37.9159 578.831 39.2505C578.831 40.5851 579.115 41.5739 579.685 42.2168C580.263 42.8597 581.064 43.1812 582.09 43.1812C582.513 43.1812 583.095 43.0632 583.835 42.8271C584.576 42.583 585.028 42.4609 585.19 42.4609C585.524 42.4609 585.691 42.6359 585.691 42.9858C585.691 43.4578 585.223 43.9339 584.287 44.4141C583.351 44.8942 582.432 45.1343 581.528 45.1343C579.111 45.1343 577.512 44.1821 576.731 42.2778C576.422 41.521 576.267 40.7357 576.267 39.9219ZM590.476 37.5781V37.7734C590.476 38.0176 590.7 38.1396 591.147 38.1396H591.44L591.514 38.1274L592.112 38.0786C592.738 37.9891 593.145 37.9443 593.333 37.9443C594.22 37.9443 594.887 37.7775 595.334 37.4438C595.546 37.2811 595.652 36.9922 595.652 36.5771V36.4429C595.652 35.8325 595.448 35.3483 595.042 34.9902C594.643 34.6322 594.163 34.4531 593.601 34.4531H593.516L593.442 34.4653C592.653 34.4653 591.961 34.799 591.367 35.4663C590.773 36.1336 590.476 36.8376 590.476 37.5781ZM593.137 45.1587H592.869C591.314 45.1587 590.077 44.6663 589.158 43.6816C588.238 42.6888 587.778 41.3664 587.778 39.7144V39.1772C587.778 38.3879 587.933 37.5863 588.242 36.7725C588.869 35.1449 589.89 34.0218 591.306 33.4033C592.055 33.0697 592.816 32.9028 593.589 32.9028H594.114C595.18 32.9028 596.079 33.2609 596.812 33.9771C597.552 34.6851 597.922 35.6006 597.922 36.7236V36.9678C597.922 37.7653 597.605 38.3309 596.97 38.6646C596.531 38.9006 595.505 39.1366 593.894 39.3726C592.283 39.6086 591.404 39.751 591.257 39.7998C590.769 39.9707 590.525 40.2962 590.525 40.7764C590.525 41.4437 590.81 42.0133 591.379 42.4854C591.949 42.9574 592.714 43.1934 593.674 43.1934C594.122 43.1934 594.732 43.0713 595.505 42.8271C596.278 42.583 596.726 42.4609 596.848 42.4609C597.263 42.4609 597.471 42.64 597.471 42.998C597.471 43.4782 597.003 43.9583 596.067 44.4385C595.131 44.9186 594.154 45.1587 593.137 45.1587ZM601.438 38.1885C600.942 37.6839 600.693 36.9759 600.693 36.0645C600.693 35.153 601.1 34.3717 601.914 33.7207C602.728 33.0615 603.737 32.7319 604.941 32.7319H605.259C606.325 32.7319 607.171 32.8825 607.798 33.1836C608.433 33.4847 608.75 33.9364 608.75 34.5386C608.75 35.1326 608.486 35.4297 607.957 35.4297C607.818 35.4297 607.428 35.2669 606.785 34.9414C606.142 34.6077 605.535 34.4409 604.966 34.4409C604.396 34.4409 603.936 34.5711 603.586 34.8315C603.245 35.0838 603.074 35.4338 603.074 35.8813C603.074 36.3289 603.314 36.7196 603.794 37.0532C604.071 37.2485 604.722 37.5578 605.747 37.981C606.781 38.4041 607.517 38.811 607.957 39.2017C608.665 39.8283 609.019 40.6299 609.019 41.6064C609.019 42.583 608.604 43.4212 607.773 44.1211C606.943 44.8128 605.865 45.1587 604.539 45.1587H604.221C602.887 45.1587 601.886 44.9674 601.218 44.585C600.551 44.1943 600.217 43.6898 600.217 43.0713C600.217 42.4447 600.478 42.1313 600.999 42.1313C601.169 42.1313 601.613 42.3511 602.329 42.7905C603.053 43.23 603.761 43.4497 604.453 43.4497C605.153 43.4497 605.678 43.3032 606.028 43.0103C606.378 42.7091 606.553 42.3348 606.553 41.8872C606.553 41.4315 606.333 41.0327 605.894 40.6909C605.658 40.5037 604.982 40.166 603.867 39.6777C602.752 39.1813 601.943 38.6849 601.438 38.1885ZM624.875 43.6938C624.875 44.0194 624.676 44.3123 624.277 44.5728C623.887 44.825 623.354 44.9512 622.678 44.9512C621.417 44.9512 620.53 44.4832 620.017 43.5474C619.7 42.9614 619.541 41.5902 619.541 39.4336C619.541 37.277 619.504 36.0238 619.431 35.6738C619.358 35.3239 619.154 34.9821 618.821 34.6484C618.487 34.3148 618.32 34.0584 618.32 33.8794C618.32 33.8143 618.715 33.387 619.504 32.5977C619.675 32.4268 619.846 32.0483 620.017 31.4624C620.196 30.8765 620.322 30.4899 620.396 30.3027C620.64 29.7168 620.961 29.4238 621.36 29.4238H621.555C621.905 29.4238 622.153 29.5581 622.3 29.8267C622.357 29.9325 622.442 30.3149 622.556 30.9741C622.678 31.6252 622.817 32.0443 622.971 32.2314C623.126 32.4186 623.512 32.6261 624.131 32.854C624.757 33.0737 625.071 33.3097 625.071 33.562V33.6963C625.071 34.0218 624.713 34.2985 623.997 34.5264C623.289 34.7461 622.833 35.1001 622.629 35.5884C622.231 36.5731 622.031 38.1763 622.031 40.3979C622.031 41.4396 622.21 42.1476 622.568 42.522C622.788 42.7498 623.228 42.9085 623.887 42.998C624.546 43.0876 624.875 43.3195 624.875 43.6938ZM629.16 44.7681C628.2 44.7681 627.72 44.4263 627.72 43.7427C627.72 43.4334 627.793 42.9736 627.939 42.3633C628.094 41.7529 628.196 41.1914 628.245 40.6787C628.293 40.1579 628.379 38.4814 628.501 35.6494C628.631 32.8174 628.696 31.0921 628.696 30.4736V29.0332L628.623 28.0078C628.623 27.6253 628.973 27.4341 629.673 27.4341C630.381 27.4341 630.841 27.7067 631.052 28.252C631.158 28.5286 631.211 29.432 631.211 30.9619C631.211 32.4919 631.239 33.3626 631.296 33.5742C631.361 33.7858 631.528 33.8916 631.797 33.8916C631.829 33.8916 631.984 33.8428 632.261 33.7451L632.529 33.6475C633.4 33.3057 634.153 33.1348 634.788 33.1348C636.122 33.1348 637.07 33.6556 637.632 34.6973C638.006 35.389 638.193 36.8945 638.193 39.2139C638.193 40.3044 638.201 40.9513 638.218 41.1548C638.234 41.3582 638.287 41.7285 638.376 42.2656C638.466 42.7946 638.511 43.0876 638.511 43.1445C638.511 43.6247 638.401 43.9827 638.181 44.2188C637.97 44.4466 637.583 44.5605 637.021 44.5605C636.468 44.5605 636.106 44.3896 635.935 44.0479C635.846 43.8688 635.801 43.3521 635.801 42.4976L635.764 40.3491L635.801 38.4082C635.801 36.2354 635.166 35.1489 633.896 35.1489C632.773 35.1489 631.972 35.6209 631.492 36.5649C631.012 37.509 630.771 39.2586 630.771 41.814L630.808 43.1445C630.808 43.6003 630.666 43.9868 630.381 44.3042C630.096 44.6134 629.689 44.7681 629.16 44.7681ZM645.591 29.1309V29.2773C645.591 29.6924 645.469 30.0464 645.225 30.3394C644.989 30.6242 644.622 30.7666 644.126 30.7666H643.931L643.552 30.7178C643.333 30.7178 643.121 30.616 642.917 30.4126C642.714 30.2091 642.612 29.904 642.612 29.4971V29.3506L642.673 28.9111C642.673 28.7402 642.775 28.5286 642.979 28.2764C643.19 28.0241 643.459 27.8979 643.784 27.8979L644.065 27.8613H644.309L644.651 27.9102C644.862 27.9102 645.07 28.016 645.273 28.2275C645.485 28.431 645.591 28.7321 645.591 29.1309ZM645.017 34.2822L644.883 37.5659L644.858 37.8955L644.822 38.8965V39.3726C644.822 40.5444 644.854 41.3135 644.919 41.6797C644.993 42.0459 645.127 42.404 645.322 42.7539C645.518 43.0957 645.615 43.3439 645.615 43.4985V43.6084C645.615 44.0072 645.412 44.3245 645.005 44.5605C644.598 44.7965 644.045 44.9146 643.345 44.9146H643.04C642.633 44.9146 642.323 44.825 642.112 44.646C641.9 44.4588 641.794 44.2594 641.794 44.0479V43.7793C641.794 43.6735 641.888 43.2992 642.075 42.6562C642.262 42.0052 642.356 41.1222 642.356 40.0073C642.38 39.6899 642.393 39.4702 642.393 39.3481L642.429 38.6768L642.454 38.3472C642.494 37.7775 642.515 37.334 642.515 37.0166L642.527 36.5283C642.527 35.918 642.425 35.3768 642.222 34.9048C642.026 34.4328 641.929 34.1398 641.929 34.0259C641.929 33.4399 642.482 33.147 643.589 33.147H644.028C644.443 33.147 644.712 33.2568 644.834 33.4766C644.956 33.6882 645.017 33.9567 645.017 34.2822ZM659.824 43.5352C659.824 44.1374 659.299 44.4385 658.25 44.4385C657.655 44.4385 657.257 44.2961 657.053 44.0112C656.956 43.8729 656.907 43.5474 656.907 43.0347L656.87 42.2534C656.813 41.3989 656.785 40.5404 656.785 39.6777C656.785 37.8141 656.622 36.5649 656.296 35.9302C655.979 35.2873 655.442 34.9658 654.685 34.9658C654.181 34.9658 653.713 35.1164 653.281 35.4175C652.858 35.7186 652.533 36.1377 652.305 36.6748C651.833 37.7734 651.597 39.8039 651.597 42.7661C651.597 43.4416 651.466 43.9176 651.206 44.1943C650.954 44.471 650.628 44.6094 650.229 44.6094H649.985C649.074 44.6094 648.618 44.2472 648.618 43.5229V43.23C648.618 43.1405 648.667 42.9451 648.765 42.644L648.96 42.0825C649.155 41.4233 649.253 40.0114 649.253 37.8467L649.314 34.2212C649.314 33.7573 649.566 33.5254 650.071 33.5254C650.575 33.5254 651.072 33.6922 651.56 34.0259C652.056 34.3595 652.37 34.5264 652.5 34.5264C652.638 34.5264 652.878 34.4328 653.22 34.2456C654.368 33.619 655.287 33.3057 655.979 33.3057H656.296C657.542 33.3057 658.416 33.8672 658.921 34.9902C659.165 35.5192 659.287 36.6585 659.287 38.4082V38.4937C659.287 38.6401 659.283 38.7866 659.275 38.9331C659.275 39.3319 659.275 39.5394 659.275 39.5557C659.275 39.7103 659.275 39.8608 659.275 40.0073C659.275 40.1213 659.275 40.2311 659.275 40.3369C659.275 40.9635 659.295 41.3908 659.336 41.6187C659.393 41.9279 659.486 42.2493 659.617 42.583C659.755 42.9492 659.824 43.2666 659.824 43.5352ZM664.817 39.3481V39.7266C664.817 40.8171 665.024 41.6715 665.439 42.29C665.854 42.9085 666.375 43.2178 667.002 43.2178H667.429C668.333 43.2178 669.036 42.8394 669.541 42.0825C670.046 41.3175 670.298 40.2474 670.298 38.8721C670.314 38.7093 670.322 38.5832 670.322 38.4937L670.347 37.9932V37.2607C670.33 37.098 670.322 36.9759 670.322 36.8945C670.322 36.2516 670.168 35.7471 669.858 35.3809C669.549 35.0146 669.093 34.8315 668.491 34.8315H668.149C667.189 34.8315 666.392 35.2344 665.757 36.04C665.13 36.8457 664.817 37.9484 664.817 39.3481ZM671.909 33.8306C672.617 33.8306 672.971 34.3433 672.971 35.3687C672.971 35.6372 672.861 36.7603 672.642 38.7378C672.422 40.7153 672.312 42.3958 672.312 43.7793C672.312 45.179 672.218 46.2288 672.031 46.9287C671.632 48.4342 670.709 49.5003 669.26 50.127C668.503 50.4525 667.665 50.6152 666.746 50.6152C665.834 50.6152 665.02 50.4525 664.304 50.127C663.596 49.8014 663.242 49.4108 663.242 48.9551C663.242 48.4342 663.592 48.1738 664.292 48.1738C664.43 48.1738 664.805 48.2267 665.415 48.3325C666.025 48.4383 666.465 48.4912 666.733 48.4912C667.718 48.4912 668.524 48.182 669.15 47.5635C669.785 46.9531 670.103 46.1678 670.103 45.2075C670.103 44.703 669.915 44.4507 669.541 44.4507C669.476 44.4507 669.321 44.4751 669.077 44.5239C668.385 44.6623 667.755 44.7314 667.185 44.7314C665.736 44.7314 664.646 44.292 663.914 43.4131C663.572 43.0062 663.279 42.465 663.035 41.7896C662.799 41.106 662.681 40.3857 662.681 39.6289V39.2871C662.681 38.4896 662.811 37.7043 663.071 36.9312C663.34 36.1499 663.694 35.4948 664.133 34.9658C664.573 34.4287 665.146 34.0096 665.854 33.7085C666.562 33.4074 667.287 33.2568 668.027 33.2568H668.345C668.76 33.2568 669.293 33.3708 669.944 33.5986C670.603 33.8184 671.006 33.9282 671.152 33.9282C671.478 33.8631 671.73 33.8306 671.909 33.8306ZM677.073 38.1885C676.576 37.6839 676.328 36.9759 676.328 36.0645C676.328 35.153 676.735 34.3717 677.549 33.7207C678.363 33.0615 679.372 32.7319 680.576 32.7319H680.894C681.96 32.7319 682.806 32.8825 683.433 33.1836C684.067 33.4847 684.385 33.9364 684.385 34.5386C684.385 35.1326 684.12 35.4297 683.591 35.4297C683.453 35.4297 683.062 35.2669 682.419 34.9414C681.777 34.6077 681.17 34.4409 680.601 34.4409C680.031 34.4409 679.571 34.5711 679.221 34.8315C678.879 35.0838 678.708 35.4338 678.708 35.8813C678.708 36.3289 678.949 36.7196 679.429 37.0532C679.705 37.2485 680.356 37.5578 681.382 37.981C682.415 38.4041 683.152 38.811 683.591 39.2017C684.299 39.8283 684.653 40.6299 684.653 41.6064C684.653 42.583 684.238 43.4212 683.408 44.1211C682.578 44.8128 681.5 45.1587 680.173 45.1587H679.856C678.521 45.1587 677.52 44.9674 676.853 44.585C676.186 44.1943 675.852 43.6898 675.852 43.0713C675.852 42.4447 676.112 42.1313 676.633 42.1313C676.804 42.1313 677.248 42.3511 677.964 42.7905C678.688 43.23 679.396 43.4497 680.088 43.4497C680.788 43.4497 681.313 43.3032 681.663 43.0103C682.013 42.7091 682.188 42.3348 682.188 41.8872C682.188 41.4315 681.968 41.0327 681.528 40.6909C681.292 40.5037 680.617 40.166 679.502 39.6777C678.387 39.1813 677.577 38.6849 677.073 38.1885ZM688.987 45.1953H688.608C688.201 45.1953 687.884 45.1017 687.656 44.9146C687.437 44.7274 687.327 44.4792 687.327 44.1699C687.31 44.1048 687.302 44.0519 687.302 44.0112L687.278 43.8037V43.584L687.29 43.5352V43.4253C687.306 43.3602 687.314 43.3073 687.314 43.2666C687.314 42.9004 687.437 42.6156 687.681 42.4121C687.933 42.2005 688.21 42.0947 688.511 42.0947L688.767 42.0581H689.097C689.984 42.0581 690.427 42.522 690.427 43.4497V43.6206L690.378 44.0356C690.378 44.41 690.236 44.6989 689.951 44.9023C689.674 45.0977 689.353 45.1953 688.987 45.1953Z" fill="black"/>
</svg>
