<svg width="759" height="87" viewBox="0 0 759 87" fill="none" xmlns="http://www.w3.org/2000/svg">
<rect x="0.110321" width="758.367" height="87" rx="18" fill="#D9D9D9"/>
<path d="M19.5433 50C19.1933 50 19.0183 49.825 19.0183 49.475L18.9973 42.65C18.9973 42.51 19.0253 42.398 19.0813 42.314C19.1373 42.216 19.2143 42.104 19.3123 41.978L25.9483 33.893V29.63L19.3123 27.068C19.1023 26.998 18.9973 26.788 18.9973 26.438V22.532C18.9973 22.182 19.1723 22.007 19.5223 22.007H24.8353C25.0313 22.007 25.1853 22.035 25.2973 22.091C25.4093 22.147 25.5353 22.21 25.6753 22.28L32.6053 25.325C32.7873 25.395 32.8923 25.493 32.9203 25.619C32.9483 25.745 32.9623 25.927 32.9623 26.165V35.237C32.9623 35.377 32.9273 35.482 32.8573 35.552C32.8013 35.608 32.7173 35.713 32.6053 35.867L26.0323 43.868V44.708H33.5503C33.9003 44.708 34.0753 44.883 34.0753 45.233V49.475C34.0753 49.825 33.9003 50 33.5503 50H19.5433Z" fill="#2ECC71"/>
<path d="M87.0648 39.3896C86.78 39.5931 86.3365 39.6948 85.7343 39.6948C85.1321 39.6948 84.6967 39.5809 84.4281 39.353C84.1596 39.117 84.0253 38.8118 84.0253 38.4375V38.1567C84.0253 38.0103 84.123 37.6969 84.3183 37.2168C84.5217 36.7285 84.6438 36.2443 84.6845 35.7642C84.9693 32.4601 85.1117 30.0065 85.1117 28.4033C85.1117 26.8001 85.0954 25.8643 85.0629 25.5957C85.0303 25.3271 84.953 25.0057 84.831 24.6313C84.717 24.257 84.6601 24.0617 84.6601 24.0454C84.6601 23.6141 84.9368 23.3496 85.4901 23.252C87.1503 22.959 89.5754 22.8125 92.7655 22.8125H93.5224C94.1246 22.8125 94.5559 22.8939 94.8163 23.0566C95.0849 23.2194 95.2191 23.5246 95.2191 23.9722V24.2651C95.2191 24.8592 94.9425 25.1562 94.3891 25.1562C94.267 25.1562 94.0147 25.1074 93.6322 25.0098C93.2497 24.9121 92.8917 24.8348 92.558 24.7778C92.2325 24.7127 91.5367 24.6802 90.4706 24.6802C89.4127 24.6802 88.7209 24.9284 88.3954 25.4248C88.078 25.9212 87.9193 26.8978 87.9193 28.3545C87.9193 29.1032 88.0373 29.6037 88.2733 29.856C88.5175 30.1001 89.079 30.2222 89.9579 30.2222C90.1776 30.2222 90.5072 30.1774 90.9467 30.0879C91.3861 29.9984 91.7646 29.9536 92.0819 29.9536C92.3993 29.9536 92.6801 30.092 92.9242 30.3687C93.1765 30.6453 93.3026 31.036 93.3026 31.5405C93.3026 32.2648 92.9283 32.627 92.1796 32.627L90.7636 32.5049C90.1451 32.5049 89.5917 32.6107 89.1034 32.8223C88.6151 33.0257 88.2815 33.2739 88.1024 33.5669C87.663 34.283 87.4433 35.4793 87.4433 37.1558L87.5043 38.5962C87.5043 38.9136 87.3578 39.1781 87.0648 39.3896ZM97.746 33.6523V32.7124C97.746 31.5812 97.685 30.7552 97.5629 30.2344C97.4408 29.7054 97.3798 29.3351 97.3798 29.1235C97.3798 28.6271 97.7419 28.3789 98.4662 28.3789C99.1905 28.3789 99.7154 28.5132 100.041 28.7817C100.13 28.855 100.244 28.9974 100.383 29.209C100.529 29.4206 100.659 29.5264 100.773 29.5264C100.798 29.5264 101.152 29.3188 101.835 28.9038C102.519 28.4888 103.105 28.2812 103.593 28.2812H103.776C104.175 28.2812 104.492 28.3789 104.728 28.5742C104.964 28.7614 105.082 28.9933 105.082 29.27V29.4287C105.082 29.7624 104.964 30.0024 104.728 30.1489C104.501 30.2954 104.134 30.3687 103.63 30.3687C102.482 30.3687 101.644 30.7715 101.115 31.5771C100.594 32.3828 100.334 33.807 100.334 35.8496C100.334 36.1426 100.383 36.5942 100.48 37.2046C100.586 37.8149 100.639 38.2747 100.639 38.584C100.639 38.8932 100.472 39.1903 100.139 39.4751C99.8049 39.7599 99.3817 39.9023 98.869 39.9023H98.454C98.0064 39.9023 97.6606 39.7965 97.4164 39.585C97.1804 39.3652 97.0624 39.1007 97.0624 38.7915C97.0624 38.4741 97.1194 38.1527 97.2333 37.8271C97.5426 36.9482 97.6972 35.9798 97.6972 34.9219C97.7297 34.3359 97.746 33.9128 97.746 33.6523ZM109.135 32.5781V32.7734C109.135 33.0176 109.359 33.1396 109.807 33.1396H110.1L110.173 33.1274L110.771 33.0786C111.398 32.9891 111.804 32.9443 111.992 32.9443C112.879 32.9443 113.546 32.7775 113.994 32.4438C114.205 32.2811 114.311 31.9922 114.311 31.5771V31.4429C114.311 30.8325 114.107 30.3483 113.701 29.9902C113.302 29.6322 112.822 29.4531 112.26 29.4531H112.175L112.101 29.4653C111.312 29.4653 110.62 29.799 110.026 30.4663C109.432 31.1336 109.135 31.8376 109.135 32.5781ZM111.796 40.1587H111.528C109.973 40.1587 108.736 39.6663 107.817 38.6816C106.897 37.6888 106.437 36.3664 106.437 34.7144V34.1772C106.437 33.3879 106.592 32.5863 106.901 31.7725C107.528 30.1449 108.549 29.0218 109.965 28.4033C110.714 28.0697 111.475 27.9028 112.248 27.9028H112.773C113.839 27.9028 114.738 28.2609 115.471 28.9771C116.211 29.6851 116.581 30.6006 116.581 31.7236V31.9678C116.581 32.7653 116.264 33.3309 115.629 33.6646C115.19 33.9006 114.164 34.1366 112.553 34.3726C110.942 34.6086 110.063 34.751 109.916 34.7998C109.428 34.9707 109.184 35.2962 109.184 35.7764C109.184 36.4437 109.469 37.0133 110.038 37.4854C110.608 37.9574 111.373 38.1934 112.333 38.1934C112.781 38.1934 113.391 38.0713 114.164 37.8271C114.938 37.583 115.385 37.4609 115.507 37.4609C115.922 37.4609 116.13 37.64 116.13 37.998C116.13 38.4782 115.662 38.9583 114.726 39.4385C113.79 39.9186 112.814 40.1587 111.796 40.1587ZM124.882 29.4531H124.638C124.174 29.4531 123.727 29.5874 123.295 29.856C122.042 30.6372 121.415 32.216 121.415 34.5923V34.7266C121.415 35.8984 121.647 36.8221 122.111 37.4976C122.575 38.1649 123.145 38.4985 123.82 38.4985H124.052C124.964 38.4985 125.663 38.1649 126.152 37.4976C126.648 36.8221 126.896 35.8293 126.896 34.519C126.913 34.3563 126.921 34.2301 126.921 34.1406L126.97 32.8589V32.7368C126.97 31.4917 126.811 30.6331 126.494 30.1611C126.184 29.6891 125.647 29.4531 124.882 29.4531ZM127.873 45.249C126.799 45.249 126.262 44.7607 126.262 43.7842C126.262 43.7272 126.319 43.4058 126.433 42.8198C126.546 42.2257 126.607 41.6479 126.616 41.0864C126.607 40.5575 126.506 40.1953 126.31 40C126.115 39.8047 125.806 39.703 125.383 39.6948C125.293 39.6948 125.159 39.707 124.98 39.7314L124.516 39.8047C124.207 39.8372 123.812 39.8535 123.332 39.8535C122.86 39.8535 122.355 39.7396 121.818 39.5117C120.736 39.056 119.947 38.1852 119.45 36.8994C119.157 36.1507 119.011 35.4102 119.011 34.6777V34.0796C119.011 32.2404 119.531 30.7552 120.573 29.624C121.615 28.4847 122.945 27.915 124.565 27.915C125.029 27.915 125.635 28.0249 126.384 28.2446C127.132 28.4644 127.515 28.5742 127.531 28.5742L128.532 28.4521C128.906 28.4521 129.199 28.562 129.411 28.7817C129.623 29.0015 129.728 29.2497 129.728 29.5264C129.728 29.8031 129.696 30.3361 129.631 31.1255C129.566 31.9149 129.529 32.7246 129.521 33.5547L129.509 33.8354C129.403 35.3898 129.35 36.6268 129.35 37.5464L129.326 38.1201C129.309 38.5026 129.301 38.7834 129.301 38.9624L129.265 39.8047C129.265 39.9919 129.265 40.179 129.265 40.3662L129.252 40.9155C129.252 41.7131 129.305 42.3031 129.411 42.6855L129.533 43.125C129.606 43.418 129.643 43.6458 129.643 43.8086C129.643 44.7689 129.134 45.249 128.117 45.249H127.873ZM132.963 29.0259C132.963 28.5132 133.395 28.2568 134.257 28.2568H134.538C135.075 28.2568 135.437 28.4725 135.624 28.9038C135.812 29.3351 135.905 30.1408 135.905 31.3208L135.759 35.3979C135.759 37.2941 136.438 38.2422 137.797 38.2422C138.294 38.2422 138.77 38.0672 139.225 37.7173C139.681 37.3674 140.019 36.9482 140.239 36.46C140.719 35.3857 140.959 33.4611 140.959 30.686L140.934 30.1489V29.6729C140.934 29.2415 141.032 28.9282 141.227 28.7329C141.423 28.5376 141.765 28.4399 142.253 28.4399C142.741 28.4399 143.063 28.5579 143.217 28.7939C143.372 29.0299 143.449 29.4124 143.449 29.9414L143.425 30.5884L143.376 33.4692C143.376 33.9331 143.404 34.6452 143.461 35.6055C143.518 36.5658 143.579 37.2697 143.644 37.7173C143.71 38.1567 143.742 38.4172 143.742 38.4985C143.742 39.2228 143.209 39.585 142.143 39.585C141.777 39.585 141.411 39.4507 141.044 39.1821C140.686 38.9054 140.43 38.7671 140.275 38.7671C140.129 38.7671 139.877 38.8566 139.518 39.0356C138.501 39.5483 137.635 39.8047 136.918 39.8047H136.613C135.449 39.8047 134.595 39.4466 134.05 38.7305C133.504 38.0143 133.232 36.7244 133.232 34.8608L133.354 31.1621C133.354 30.6982 133.289 30.2547 133.159 29.8315C133.028 29.4084 132.963 29.1398 132.963 29.0259ZM149.003 32.5781V32.7734C149.003 33.0176 149.227 33.1396 149.675 33.1396H149.968L150.041 33.1274L150.639 33.0786C151.266 32.9891 151.673 32.9443 151.86 32.9443C152.747 32.9443 153.414 32.7775 153.862 32.4438C154.073 32.2811 154.179 31.9922 154.179 31.5771V31.4429C154.179 30.8325 153.976 30.3483 153.569 29.9902C153.17 29.6322 152.69 29.4531 152.128 29.4531H152.043L151.97 29.4653C151.18 29.4653 150.489 29.799 149.894 30.4663C149.3 31.1336 149.003 31.8376 149.003 32.5781ZM151.664 40.1587H151.396C149.842 40.1587 148.605 39.6663 147.685 38.6816C146.765 37.6888 146.306 36.3664 146.306 34.7144V34.1772C146.306 33.3879 146.46 32.5863 146.769 31.7725C147.396 30.1449 148.417 29.0218 149.833 28.4033C150.582 28.0697 151.343 27.9028 152.116 27.9028H152.641C153.707 27.9028 154.606 28.2609 155.339 28.9771C156.079 29.6851 156.45 30.6006 156.45 31.7236V31.9678C156.45 32.7653 156.132 33.3309 155.497 33.6646C155.058 33.9006 154.033 34.1366 152.421 34.3726C150.81 34.6086 149.931 34.751 149.785 34.7998C149.296 34.9707 149.052 35.2962 149.052 35.7764C149.052 36.4437 149.337 37.0133 149.907 37.4854C150.476 37.9574 151.241 38.1934 152.202 38.1934C152.649 38.1934 153.26 38.0713 154.033 37.8271C154.806 37.583 155.253 37.4609 155.375 37.4609C155.79 37.4609 155.998 37.64 155.998 37.998C155.998 38.4782 155.53 38.9583 154.594 39.4385C153.658 39.9186 152.682 40.1587 151.664 40.1587ZM170.305 38.5352C170.305 39.1374 169.78 39.4385 168.73 39.4385C168.136 39.4385 167.737 39.2961 167.534 39.0112C167.436 38.8729 167.387 38.5474 167.387 38.0347L167.35 37.2534C167.294 36.3989 167.265 35.5404 167.265 34.6777C167.265 32.8141 167.102 31.5649 166.777 30.9302C166.459 30.2873 165.922 29.9658 165.165 29.9658C164.661 29.9658 164.193 30.1164 163.762 30.4175C163.338 30.7186 163.013 31.1377 162.785 31.6748C162.313 32.7734 162.077 34.8039 162.077 37.7661C162.077 38.4416 161.947 38.9176 161.686 39.1943C161.434 39.471 161.109 39.6094 160.71 39.6094H160.466C159.554 39.6094 159.099 39.2472 159.099 38.5229V38.23C159.099 38.1405 159.147 37.9451 159.245 37.644L159.44 37.0825C159.636 36.4233 159.733 35.0114 159.733 32.8467L159.794 29.2212C159.794 28.7573 160.047 28.5254 160.551 28.5254C161.056 28.5254 161.552 28.6922 162.04 29.0259C162.537 29.3595 162.85 29.5264 162.98 29.5264C163.119 29.5264 163.359 29.4328 163.701 29.2456C164.848 28.619 165.768 28.3057 166.459 28.3057H166.777C168.022 28.3057 168.897 28.8672 169.401 29.9902C169.645 30.5192 169.767 31.6585 169.767 33.4082V33.4937C169.767 33.6401 169.763 33.7866 169.755 33.9331C169.755 34.3319 169.755 34.5394 169.755 34.5557C169.755 34.7103 169.755 34.8608 169.755 35.0073C169.755 35.1213 169.755 35.2311 169.755 35.3369C169.755 35.9635 169.776 36.3908 169.816 36.6187C169.873 36.9279 169.967 37.2493 170.097 37.583C170.235 37.9492 170.305 38.2666 170.305 38.5352ZM179.472 38.6938C179.472 39.0194 179.273 39.3123 178.874 39.5728C178.483 39.825 177.95 39.9512 177.275 39.9512C176.013 39.9512 175.126 39.4832 174.614 38.5474C174.296 37.9614 174.138 36.5902 174.138 34.4336C174.138 32.277 174.101 31.0238 174.028 30.6738C173.954 30.3239 173.751 29.9821 173.417 29.6484C173.084 29.3148 172.917 29.0584 172.917 28.8794C172.917 28.8143 173.312 28.387 174.101 27.5977C174.272 27.4268 174.443 27.0483 174.614 26.4624C174.793 25.8765 174.919 25.4899 174.992 25.3027C175.236 24.7168 175.558 24.4238 175.956 24.4238H176.152C176.502 24.4238 176.75 24.5581 176.896 24.8267C176.953 24.9325 177.039 25.3149 177.153 25.9741C177.275 26.6252 177.413 27.0443 177.568 27.2314C177.722 27.4186 178.109 27.6261 178.727 27.854C179.354 28.0737 179.667 28.3097 179.667 28.562V28.6963C179.667 29.0218 179.309 29.2985 178.593 29.5264C177.885 29.7461 177.429 30.1001 177.226 30.5884C176.827 31.5731 176.628 33.1763 176.628 35.3979C176.628 36.4396 176.807 37.1476 177.165 37.522C177.385 37.7498 177.824 37.9085 178.483 37.998C179.142 38.0876 179.472 38.3195 179.472 38.6938ZM182.951 23.0322C182.951 22.4382 183.509 22.1411 184.623 22.1411H184.843C185.307 22.1411 185.624 22.255 185.795 22.4829C185.966 22.7026 186.052 23.134 186.052 23.7769L185.954 25.5957C185.93 25.8805 185.917 26.0352 185.917 26.0596L185.893 26.5234C185.877 26.8245 185.86 27.1297 185.844 27.439L185.808 27.9028L185.771 28.5986C185.641 31.0726 185.576 32.8996 185.576 34.0796C185.576 35.2515 185.628 36.0938 185.734 36.6064C185.84 37.1191 186.007 37.5545 186.235 37.9126C186.463 38.2707 186.577 38.5067 186.577 38.6206V38.7671C186.577 39.1252 186.398 39.41 186.039 39.6216C185.69 39.8332 185.213 39.939 184.611 39.939H183.976C183.602 39.939 183.273 39.8332 182.988 39.6216C182.711 39.4019 182.573 39.1536 182.573 38.877V38.5474L182.646 38.0347C182.744 37.3267 182.801 36.7977 182.817 36.4478C182.841 36.0897 182.878 35.5973 182.927 34.9707C182.975 34.3359 183.053 32.9891 183.159 30.9302C183.273 28.8631 183.329 27.7523 183.329 27.5977L183.378 26.6821L183.403 25.7788C183.403 24.9162 183.325 24.3018 183.171 23.9355C183.024 23.5612 182.951 23.2601 182.951 23.0322ZM193.498 39.9512C193.498 39.528 193.209 38.7874 192.631 37.7295C192.053 36.6634 191.569 35.6706 191.179 34.751C189.844 31.6178 189.177 29.8071 189.177 29.3188C189.177 29.0991 189.303 28.8997 189.555 28.7207C189.816 28.5417 190.247 28.4521 190.849 28.4521C191.451 28.4521 191.874 28.7085 192.119 29.2212C192.143 29.2782 192.228 29.6322 192.375 30.2832C193.482 34.3278 194.173 36.4478 194.45 36.6431C194.873 36.6431 195.451 35.6543 196.184 33.6768C196.68 32.334 196.985 31.2069 197.099 30.2954C197.221 29.384 197.319 28.859 197.392 28.7207C197.62 28.2975 198.092 28.0859 198.808 28.0859C199.532 28.0859 199.894 28.3667 199.894 28.9282C199.894 29.327 199.748 29.86 199.455 30.5273C199.162 31.1947 198.885 31.9189 198.625 32.7002C197.136 37.1598 196.057 39.9756 195.39 41.1475C194.723 42.3275 194.019 43.2552 193.278 43.9307C192.538 44.6143 191.793 44.9561 191.044 44.9561C190.304 44.9561 189.934 44.7445 189.934 44.3213C189.934 43.9469 190.312 43.6051 191.069 43.2959C191.834 42.9867 192.367 42.6286 192.668 42.2217C193.221 41.4811 193.498 40.7243 193.498 39.9512ZM209.709 23.0322C209.709 22.4382 210.266 22.1411 211.381 22.1411H211.601C212.065 22.1411 212.382 22.255 212.553 22.4829C212.724 22.7026 212.809 23.134 212.809 23.7769L212.712 25.5957C212.687 25.8805 212.675 26.0352 212.675 26.0596L212.651 26.5234C212.635 26.8245 212.618 27.1297 212.602 27.439L212.565 27.9028L212.529 28.5986C212.399 31.0726 212.333 32.8996 212.333 34.0796C212.333 35.2515 212.386 36.0938 212.492 36.6064C212.598 37.1191 212.765 37.5545 212.993 37.9126C213.22 38.2707 213.334 38.5067 213.334 38.6206V38.7671C213.334 39.1252 213.155 39.41 212.797 39.6216C212.447 39.8332 211.971 39.939 211.369 39.939H210.734C210.36 39.939 210.03 39.8332 209.746 39.6216C209.469 39.4019 209.33 39.1536 209.33 38.877V38.5474L209.404 38.0347C209.501 37.3267 209.558 36.7977 209.575 36.4478C209.599 36.0897 209.636 35.5973 209.684 34.9707C209.733 34.3359 209.811 32.9891 209.916 30.9302C210.03 28.8631 210.087 27.7523 210.087 27.5977L210.136 26.6821L210.161 25.7788C210.161 24.9162 210.083 24.3018 209.929 23.9355C209.782 23.5612 209.709 23.2601 209.709 23.0322ZM220.109 38.4619H220.427C221.094 38.4619 221.68 38.2381 222.184 37.7905C222.697 37.3348 222.954 36.8099 222.954 36.2158L222.978 36.0571V35.8984L223.002 35.52V34.8242C223.002 34.3522 222.762 34.1162 222.282 34.1162H221.733L221.647 34.1284L221.171 34.165C220.943 34.1976 220.781 34.2139 220.683 34.2139C220.024 34.2139 219.413 34.4621 218.852 34.9585C218.461 35.3084 218.266 35.8049 218.266 36.4478V36.6919C218.266 37.2371 218.441 37.6685 218.791 37.9858C219.149 38.3032 219.588 38.4619 220.109 38.4619ZM217.387 30.6616C216.842 30.6616 216.569 30.3117 216.569 29.6118C216.569 29.091 217.009 28.6393 217.888 28.2568C218.775 27.8662 219.694 27.6709 220.646 27.6709H221.257C222.079 27.6709 222.803 27.8255 223.43 28.1348C224.056 28.4359 224.532 28.8468 224.858 29.3677C225.191 29.8885 225.395 30.568 225.468 31.4062C225.484 31.6016 225.493 32.5496 225.493 34.2505C225.493 35.9513 225.513 36.932 225.554 37.1924C225.602 37.4447 225.733 37.7539 225.944 38.1201C226.164 38.4863 226.274 38.7874 226.274 39.0234C226.274 39.2594 226.16 39.4629 225.932 39.6338C225.712 39.7965 225.391 39.8779 224.968 39.8779C224.545 39.8779 224.085 39.7762 223.588 39.5728C223.092 39.3612 222.73 39.2554 222.502 39.2554C222.477 39.2554 222.071 39.4019 221.281 39.6948C220.492 39.9797 219.824 40.1221 219.279 40.1221H219.011C218.099 40.1221 217.322 39.8332 216.679 39.2554C216.044 38.6776 215.727 37.8556 215.727 36.7896C215.727 35.7235 216.077 34.8934 216.777 34.2993C217.477 33.6971 218.327 33.2861 219.328 33.0664C219.629 33.0013 220.13 32.9159 220.829 32.8101C221.529 32.7043 222.005 32.5944 222.258 32.4805C222.697 32.277 222.917 31.8945 222.917 31.333C222.917 30.7633 222.73 30.3198 222.355 30.0024C221.981 29.6769 221.533 29.5142 221.013 29.5142C220.5 29.5142 219.824 29.7054 218.986 30.0879C218.148 30.4704 217.615 30.6616 217.387 30.6616ZM235.454 38.6938C235.454 39.0194 235.254 39.3123 234.855 39.5728C234.465 39.825 233.932 39.9512 233.256 39.9512C231.995 39.9512 231.108 39.4832 230.595 38.5474C230.278 37.9614 230.119 36.5902 230.119 34.4336C230.119 32.277 230.082 31.0238 230.009 30.6738C229.936 30.3239 229.732 29.9821 229.399 29.6484C229.065 29.3148 228.898 29.0584 228.898 28.8794C228.898 28.8143 229.293 28.387 230.082 27.5977C230.253 27.4268 230.424 27.0483 230.595 26.4624C230.774 25.8765 230.9 25.4899 230.974 25.3027C231.218 24.7168 231.539 24.4238 231.938 24.4238H232.133C232.483 24.4238 232.731 24.5581 232.878 24.8267C232.935 24.9325 233.02 25.3149 233.134 25.9741C233.256 26.6252 233.395 27.0443 233.549 27.2314C233.704 27.4186 234.09 27.6261 234.709 27.854C235.336 28.0737 235.649 28.3097 235.649 28.562V28.6963C235.649 29.0218 235.291 29.2985 234.575 29.5264C233.867 29.7461 233.411 30.1001 233.207 30.5884C232.809 31.5731 232.609 33.1763 232.609 35.3979C232.609 36.4396 232.788 37.1476 233.146 37.522C233.366 37.7498 233.806 37.9085 234.465 37.998C235.124 38.0876 235.454 38.3195 235.454 38.6938ZM240.434 32.5781V32.7734C240.434 33.0176 240.658 33.1396 241.105 33.1396H241.398L241.472 33.1274L242.07 33.0786C242.696 32.9891 243.103 32.9443 243.29 32.9443C244.177 32.9443 244.845 32.7775 245.292 32.4438C245.504 32.2811 245.61 31.9922 245.61 31.5771V31.4429C245.61 30.8325 245.406 30.3483 244.999 29.9902C244.601 29.6322 244.121 29.4531 243.559 29.4531H243.474L243.4 29.4653C242.611 29.4653 241.919 29.799 241.325 30.4663C240.731 31.1336 240.434 31.8376 240.434 32.5781ZM243.095 40.1587H242.827C241.272 40.1587 240.035 39.6663 239.116 38.6816C238.196 37.6888 237.736 36.3664 237.736 34.7144V34.1772C237.736 33.3879 237.891 32.5863 238.2 31.7725C238.827 30.1449 239.848 29.0218 241.264 28.4033C242.013 28.0697 242.774 27.9028 243.547 27.9028H244.072C245.138 27.9028 246.037 28.2609 246.769 28.9771C247.51 29.6851 247.88 30.6006 247.88 31.7236V31.9678C247.88 32.7653 247.563 33.3309 246.928 33.6646C246.489 33.9006 245.463 34.1366 243.852 34.3726C242.241 34.6086 241.362 34.751 241.215 34.7998C240.727 34.9707 240.483 35.2962 240.483 35.7764C240.483 36.4437 240.768 37.0133 241.337 37.4854C241.907 37.9574 242.672 38.1934 243.632 38.1934C244.08 38.1934 244.69 38.0713 245.463 37.8271C246.236 37.583 246.684 37.4609 246.806 37.4609C247.221 37.4609 247.429 37.64 247.429 37.998C247.429 38.4782 246.961 38.9583 246.025 39.4385C245.089 39.9186 244.112 40.1587 243.095 40.1587ZM259.526 34.8486C259.526 35.9147 259.77 36.8018 260.258 37.5098C260.746 38.2178 261.345 38.5718 262.053 38.5718H262.419C263.257 38.5718 263.965 38.1486 264.543 37.3022C265.129 36.4559 265.422 35.3288 265.422 33.9209V33.1152C265.422 32.0247 265.182 31.1336 264.702 30.4419C264.23 29.742 263.619 29.3921 262.871 29.3921H262.626C261.756 29.3921 261.023 29.8234 260.429 30.686C259.843 31.5487 259.55 32.5781 259.55 33.7744L259.526 34.0552V34.8486ZM262.285 40.2319H261.894C260.47 40.2319 259.31 39.7355 258.415 38.7427C257.52 37.7498 257.072 36.342 257.072 34.519L257.084 34.3115C257.084 32.3096 257.613 30.7308 258.671 29.5752C259.225 28.9648 259.855 28.5173 260.563 28.2324C261.28 27.9395 261.959 27.793 262.602 27.793H263.2C263.916 27.793 264.604 27.9517 265.263 28.269C267.151 29.1805 268.095 30.8976 268.095 33.4204V33.6157C268.087 34.4377 267.953 35.2718 267.692 36.1182C267.171 37.7865 266.17 38.9665 264.689 39.6582C263.867 40.0407 263.066 40.2319 262.285 40.2319ZM271.403 33.6523V32.7124C271.403 31.5812 271.342 30.7552 271.22 30.2344C271.098 29.7054 271.037 29.3351 271.037 29.1235C271.037 28.6271 271.399 28.3789 272.123 28.3789C272.848 28.3789 273.373 28.5132 273.698 28.7817C273.788 28.855 273.902 28.9974 274.04 29.209C274.186 29.4206 274.317 29.5264 274.431 29.5264C274.455 29.5264 274.809 29.3188 275.493 28.9038C276.176 28.4888 276.762 28.2812 277.25 28.2812H277.434C277.832 28.2812 278.15 28.3789 278.386 28.5742C278.622 28.7614 278.74 28.9933 278.74 29.27V29.4287C278.74 29.7624 278.622 30.0024 278.386 30.1489C278.158 30.2954 277.792 30.3687 277.287 30.3687C276.14 30.3687 275.301 30.7715 274.772 31.5771C274.252 32.3828 273.991 33.807 273.991 35.8496C273.991 36.1426 274.04 36.5942 274.138 37.2046C274.243 37.8149 274.296 38.2747 274.296 38.584C274.296 38.8932 274.129 39.1903 273.796 39.4751C273.462 39.7599 273.039 39.9023 272.526 39.9023H272.111C271.664 39.9023 271.318 39.7965 271.074 39.585C270.838 39.3652 270.72 39.1007 270.72 38.7915C270.72 38.4741 270.777 38.1527 270.891 37.8271C271.2 36.9482 271.354 35.9798 271.354 34.9219C271.387 34.3359 271.403 33.9128 271.403 33.6523ZM291.472 38.4619H291.789C292.456 38.4619 293.042 38.2381 293.547 37.7905C294.059 37.3348 294.316 36.8099 294.316 36.2158L294.34 36.0571V35.8984L294.365 35.52V34.8242C294.365 34.3522 294.125 34.1162 293.644 34.1162H293.095L293.01 34.1284L292.534 34.165C292.306 34.1976 292.143 34.2139 292.045 34.2139C291.386 34.2139 290.776 34.4621 290.214 34.9585C289.824 35.3084 289.628 35.8049 289.628 36.4478V36.6919C289.628 37.2371 289.803 37.6685 290.153 37.9858C290.511 38.3032 290.951 38.4619 291.472 38.4619ZM288.749 30.6616C288.204 30.6616 287.932 30.3117 287.932 29.6118C287.932 29.091 288.371 28.6393 289.25 28.2568C290.137 27.8662 291.057 27.6709 292.009 27.6709H292.619C293.441 27.6709 294.165 27.8255 294.792 28.1348C295.419 28.4359 295.895 28.8468 296.22 29.3677C296.554 29.8885 296.757 30.568 296.83 31.4062C296.847 31.6016 296.855 32.5496 296.855 34.2505C296.855 35.9513 296.875 36.932 296.916 37.1924C296.965 37.4447 297.095 37.7539 297.307 38.1201C297.526 38.4863 297.636 38.7874 297.636 39.0234C297.636 39.2594 297.522 39.4629 297.294 39.6338C297.075 39.7965 296.753 39.8779 296.33 39.8779C295.907 39.8779 295.447 39.7762 294.951 39.5728C294.454 39.3612 294.092 39.2554 293.864 39.2554C293.84 39.2554 293.433 39.4019 292.643 39.6948C291.854 39.9797 291.187 40.1221 290.642 40.1221H290.373C289.461 40.1221 288.684 39.8332 288.041 39.2554C287.407 38.6776 287.089 37.8556 287.089 36.7896C287.089 35.7235 287.439 34.8934 288.139 34.2993C288.839 33.6971 289.689 33.2861 290.69 33.0664C290.991 33.0013 291.492 32.9159 292.192 32.8101C292.892 32.7043 293.368 32.5944 293.62 32.4805C294.059 32.277 294.279 31.8945 294.279 31.333C294.279 30.7633 294.092 30.3198 293.718 30.0024C293.343 29.6769 292.896 29.5142 292.375 29.5142C291.862 29.5142 291.187 29.7054 290.349 30.0879C289.51 30.4704 288.977 30.6616 288.749 30.6616ZM305.351 38.4497H305.717C306.604 38.4497 307.349 38.0103 307.951 37.1313C308.561 36.2443 308.867 35.0399 308.867 33.5181V33.1274L308.854 32.9932L308.842 32.7368C308.834 32.6473 308.83 32.5618 308.83 32.4805C308.83 31.6911 308.61 30.9993 308.171 30.4053C307.731 29.8031 307.194 29.502 306.559 29.502H306.205C305.807 29.502 305.367 29.6403 304.887 29.917C304.415 30.1937 304.081 30.5192 303.886 30.8936C303.455 31.7074 303.239 32.9932 303.239 34.751V35.874C303.264 36.1182 303.276 36.3216 303.276 36.4844C303.276 37.0703 303.455 37.5464 303.813 37.9126C304.179 38.2707 304.692 38.4497 305.351 38.4497ZM303.752 27.7197C303.752 28.029 303.801 28.2609 303.898 28.4155C304.004 28.5701 304.277 28.6475 304.716 28.6475C304.724 28.6475 304.989 28.5864 305.51 28.4644C306.039 28.3423 306.584 28.2812 307.145 28.2812C308.358 28.2812 309.371 28.7614 310.185 29.7217C310.999 30.682 311.406 31.8538 311.406 33.2373V34.1162C311.406 34.7998 311.271 35.5241 311.003 36.2891C310.726 37.054 310.336 37.7173 309.831 38.2788C308.797 39.4181 307.524 39.9878 306.01 39.9878H305.742C305.318 39.9878 304.773 39.9064 304.106 39.7437C303.439 39.5809 303.003 39.4995 302.8 39.4995L301.982 39.5728C301.144 39.5728 300.725 39.1536 300.725 38.3154V37.8149C300.725 37.3185 300.822 35.5078 301.017 32.3828C301.221 29.2578 301.323 27.264 301.323 26.4014C301.323 25.5387 301.253 24.8226 301.115 24.2529C300.977 23.6833 300.908 23.374 300.908 23.3252C300.908 22.6416 301.294 22.2998 302.067 22.2998H302.311C302.971 22.2998 303.39 22.4585 303.569 22.7759C303.748 23.0851 303.837 23.6629 303.837 24.5093L303.776 26.4502L303.752 26.9995V27.7197ZM314.848 33.1885C314.352 32.6839 314.103 31.9759 314.103 31.0645C314.103 30.153 314.51 29.3717 315.324 28.7207C316.138 28.0615 317.147 27.7319 318.351 27.7319H318.669C319.735 27.7319 320.581 27.8825 321.208 28.1836C321.843 28.4847 322.16 28.9364 322.16 29.5386C322.16 30.1326 321.896 30.4297 321.367 30.4297C321.228 30.4297 320.838 30.2669 320.195 29.9414C319.552 29.6077 318.946 29.4409 318.376 29.4409C317.806 29.4409 317.346 29.5711 316.996 29.8315C316.655 30.0838 316.484 30.4338 316.484 30.8813C316.484 31.3289 316.724 31.7196 317.204 32.0532C317.481 32.2485 318.132 32.5578 319.157 32.981C320.191 33.4041 320.927 33.811 321.367 34.2017C322.075 34.8283 322.429 35.6299 322.429 36.6064C322.429 37.583 322.014 38.4212 321.184 39.1211C320.353 39.8128 319.275 40.1587 317.949 40.1587H317.631C316.297 40.1587 315.296 39.9674 314.628 39.585C313.961 39.1943 313.627 38.6898 313.627 38.0713C313.627 37.4447 313.888 37.1313 314.409 37.1313C314.579 37.1313 315.023 37.3511 315.739 37.7905C316.463 38.23 317.171 38.4497 317.863 38.4497C318.563 38.4497 319.088 38.3032 319.438 38.0103C319.788 37.7091 319.963 37.3348 319.963 36.8872C319.963 36.4315 319.743 36.0327 319.304 35.6909C319.068 35.5037 318.392 35.166 317.277 34.6777C316.162 34.1813 315.353 33.6849 314.848 33.1885ZM327.275 32.5781V32.7734C327.275 33.0176 327.499 33.1396 327.946 33.1396H328.239L328.312 33.1274L328.911 33.0786C329.537 32.9891 329.944 32.9443 330.131 32.9443C331.018 32.9443 331.686 32.7775 332.133 32.4438C332.345 32.2811 332.451 31.9922 332.451 31.5771V31.4429C332.451 30.8325 332.247 30.3483 331.84 29.9902C331.441 29.6322 330.961 29.4531 330.4 29.4531H330.314L330.241 29.4653C329.452 29.4653 328.76 29.799 328.166 30.4663C327.572 31.1336 327.275 31.8376 327.275 32.5781ZM329.936 40.1587H329.667C328.113 40.1587 326.876 39.6663 325.956 38.6816C325.037 37.6888 324.577 36.3664 324.577 34.7144V34.1772C324.577 33.3879 324.732 32.5863 325.041 31.7725C325.668 30.1449 326.689 29.0218 328.105 28.4033C328.854 28.0697 329.614 27.9028 330.388 27.9028H330.913C331.979 27.9028 332.878 28.2609 333.61 28.9771C334.351 29.6851 334.721 30.6006 334.721 31.7236V31.9678C334.721 32.7653 334.404 33.3309 333.769 33.6646C333.329 33.9006 332.304 34.1366 330.693 34.3726C329.081 34.6086 328.203 34.751 328.056 34.7998C327.568 34.9707 327.324 35.2962 327.324 35.7764C327.324 36.4437 327.608 37.0133 328.178 37.4854C328.748 37.9574 329.513 38.1934 330.473 38.1934C330.921 38.1934 331.531 38.0713 332.304 37.8271C333.077 37.583 333.525 37.4609 333.647 37.4609C334.062 37.4609 334.269 37.64 334.269 37.998C334.269 38.4782 333.802 38.9583 332.866 39.4385C331.93 39.9186 330.953 40.1587 329.936 40.1587ZM348.576 38.5352C348.576 39.1374 348.051 39.4385 347.001 39.4385C346.407 39.4385 346.009 39.2961 345.805 39.0112C345.707 38.8729 345.659 38.5474 345.659 38.0347L345.622 37.2534C345.565 36.3989 345.537 35.5404 345.537 34.6777C345.537 32.8141 345.374 31.5649 345.048 30.9302C344.731 30.2873 344.194 29.9658 343.437 29.9658C342.932 29.9658 342.464 30.1164 342.033 30.4175C341.61 30.7186 341.284 31.1377 341.057 31.6748C340.585 32.7734 340.349 34.8039 340.349 37.7661C340.349 38.4416 340.218 38.9176 339.958 39.1943C339.706 39.471 339.38 39.6094 338.981 39.6094H338.737C337.826 39.6094 337.37 39.2472 337.37 38.5229V38.23C337.37 38.1405 337.419 37.9451 337.517 37.644L337.712 37.0825C337.907 36.4233 338.005 35.0114 338.005 32.8467L338.066 29.2212C338.066 28.7573 338.318 28.5254 338.823 28.5254C339.327 28.5254 339.824 28.6922 340.312 29.0259C340.808 29.3595 341.122 29.5264 341.252 29.5264C341.39 29.5264 341.63 29.4328 341.972 29.2456C343.12 28.619 344.039 28.3057 344.731 28.3057H345.048C346.293 28.3057 347.168 28.8672 347.673 29.9902C347.917 30.5192 348.039 31.6585 348.039 33.4082V33.4937C348.039 33.6401 348.035 33.7866 348.027 33.9331C348.027 34.3319 348.027 34.5394 348.027 34.5557C348.027 34.7103 348.027 34.8608 348.027 35.0073C348.027 35.1213 348.027 35.2311 348.027 35.3369C348.027 35.9635 348.047 36.3908 348.088 36.6187C348.145 36.9279 348.238 37.2493 348.369 37.583C348.507 37.9492 348.576 38.2666 348.576 38.5352ZM357.744 38.6938C357.744 39.0194 357.544 39.3123 357.145 39.5728C356.755 39.825 356.222 39.9512 355.546 39.9512C354.285 39.9512 353.398 39.4832 352.885 38.5474C352.568 37.9614 352.409 36.5902 352.409 34.4336C352.409 32.277 352.372 31.0238 352.299 30.6738C352.226 30.3239 352.023 29.9821 351.689 29.6484C351.355 29.3148 351.188 29.0584 351.188 28.8794C351.188 28.8143 351.583 28.387 352.372 27.5977C352.543 27.4268 352.714 27.0483 352.885 26.4624C353.064 25.8765 353.19 25.4899 353.264 25.3027C353.508 24.7168 353.829 24.4238 354.228 24.4238H354.423C354.773 24.4238 355.021 24.5581 355.168 24.8267C355.225 24.9325 355.31 25.3149 355.424 25.9741C355.546 26.6252 355.685 27.0443 355.839 27.2314C355.994 27.4186 356.38 27.6261 356.999 27.854C357.626 28.0737 357.939 28.3097 357.939 28.562V28.6963C357.939 29.0218 357.581 29.2985 356.865 29.5264C356.157 29.7461 355.701 30.1001 355.497 30.5884C355.099 31.5731 354.899 33.1763 354.899 35.3979C354.899 36.4396 355.078 37.1476 355.436 37.522C355.656 37.7498 356.096 37.9085 356.755 37.998C357.414 38.0876 357.744 38.3195 357.744 38.6938ZM362.309 40.1953H361.931C361.524 40.1953 361.206 40.1017 360.978 39.9146C360.759 39.7274 360.649 39.4792 360.649 39.1699C360.633 39.1048 360.624 39.0519 360.624 39.0112L360.6 38.8037V38.584L360.612 38.5352V38.4253C360.628 38.3602 360.637 38.3073 360.637 38.2666C360.637 37.9004 360.759 37.6156 361.003 37.4121C361.255 37.2005 361.532 37.0947 361.833 37.0947L362.089 37.0581H362.419C363.306 37.0581 363.749 37.522 363.749 38.4497V38.6206L363.701 39.0356C363.701 39.41 363.558 39.6989 363.273 39.9023C362.997 40.0977 362.675 40.1953 362.309 40.1953ZM384.611 24.1431C385.246 24.1431 385.726 24.554 386.052 25.376C386.1 25.5062 386.198 26.0352 386.345 26.9629C386.491 27.8825 386.853 29.4002 387.431 31.5161C388.009 33.632 388.379 34.6899 388.542 34.6899C388.753 34.6899 389.335 33.3228 390.288 30.5884C390.589 29.7257 390.922 28.6353 391.288 27.3169C391.655 25.9904 391.911 25.1522 392.058 24.8022C392.407 23.9803 392.977 23.5693 393.767 23.5693C394.125 23.5693 394.304 23.903 394.304 24.5703C394.304 24.79 393.758 26.7025 392.668 30.3076C391.586 33.9128 390.878 36.0653 390.544 36.7651C389.901 38.116 389.14 38.7915 388.261 38.7915C387.675 38.7915 387.114 38.2259 386.577 37.0947C386.153 36.1914 385.551 34.4784 384.77 31.9556L384.233 30.1978L384.05 29.7949C383.928 29.7949 383.431 30.8203 382.56 32.8711C381.698 34.9219 381.055 36.3053 380.632 37.0215C379.989 38.1038 379.395 38.645 378.85 38.645C378.508 38.645 378.166 38.4823 377.824 38.1567C377.49 37.8312 377.226 37.4325 377.031 36.9604C376.835 36.4803 376.315 34.4458 375.468 30.8569C374.63 27.2681 374.211 25.3271 374.211 25.0342V24.6802C374.211 24.4767 374.292 24.2692 374.455 24.0576C374.618 23.8379 374.862 23.728 375.187 23.728C376.034 23.728 376.673 24.3424 377.104 25.5713C377.185 25.791 377.34 26.4176 377.568 27.4512C377.796 28.4766 378.154 29.9455 378.642 31.8579C379.13 33.7703 379.472 34.7266 379.667 34.7266C379.96 34.7266 380.445 33.6686 381.12 31.5527C381.795 29.4368 382.198 27.8743 382.329 26.8652C382.467 25.848 382.621 25.1969 382.792 24.9121C383.093 24.3994 383.7 24.1431 384.611 24.1431ZM398.051 32.5781V32.7734C398.051 33.0176 398.275 33.1396 398.723 33.1396H399.016L399.089 33.1274L399.687 33.0786C400.314 32.9891 400.72 32.9443 400.908 32.9443C401.795 32.9443 402.462 32.7775 402.91 32.4438C403.121 32.2811 403.227 31.9922 403.227 31.5771V31.4429C403.227 30.8325 403.024 30.3483 402.617 29.9902C402.218 29.6322 401.738 29.4531 401.176 29.4531H401.091L401.017 29.4653C400.228 29.4653 399.536 29.799 398.942 30.4663C398.348 31.1336 398.051 31.8376 398.051 32.5781ZM400.712 40.1587H400.444C398.889 40.1587 397.652 39.6663 396.733 38.6816C395.813 37.6888 395.353 36.3664 395.353 34.7144V34.1772C395.353 33.3879 395.508 32.5863 395.817 31.7725C396.444 30.1449 397.465 29.0218 398.881 28.4033C399.63 28.0697 400.391 27.9028 401.164 27.9028H401.689C402.755 27.9028 403.654 28.2609 404.387 28.9771C405.127 29.6851 405.497 30.6006 405.497 31.7236V31.9678C405.497 32.7653 405.18 33.3309 404.545 33.6646C404.106 33.9006 403.08 34.1366 401.469 34.3726C399.858 34.6086 398.979 34.751 398.832 34.7998C398.344 34.9707 398.1 35.2962 398.1 35.7764C398.1 36.4437 398.385 37.0133 398.954 37.4854C399.524 37.9574 400.289 38.1934 401.249 38.1934C401.697 38.1934 402.307 38.0713 403.08 37.8271C403.854 37.583 404.301 37.4609 404.423 37.4609C404.838 37.4609 405.046 37.64 405.046 37.998C405.046 38.4782 404.578 38.9583 403.642 39.4385C402.706 39.9186 401.73 40.1587 400.712 40.1587ZM412.053 38.4619H412.37C413.037 38.4619 413.623 38.2381 414.128 37.7905C414.641 37.3348 414.897 36.8099 414.897 36.2158L414.921 36.0571V35.8984L414.946 35.52V34.8242C414.946 34.3522 414.706 34.1162 414.225 34.1162H413.676L413.591 34.1284L413.115 34.165C412.887 34.1976 412.724 34.2139 412.626 34.2139C411.967 34.2139 411.357 34.4621 410.795 34.9585C410.405 35.3084 410.209 35.8049 410.209 36.4478V36.6919C410.209 37.2371 410.384 37.6685 410.734 37.9858C411.092 38.3032 411.532 38.4619 412.053 38.4619ZM409.33 30.6616C408.785 30.6616 408.513 30.3117 408.513 29.6118C408.513 29.091 408.952 28.6393 409.831 28.2568C410.718 27.8662 411.638 27.6709 412.59 27.6709H413.2C414.022 27.6709 414.746 27.8255 415.373 28.1348C416 28.4359 416.476 28.8468 416.801 29.3677C417.135 29.8885 417.338 30.568 417.412 31.4062C417.428 31.6016 417.436 32.5496 417.436 34.2505C417.436 35.9513 417.456 36.932 417.497 37.1924C417.546 37.4447 417.676 37.7539 417.888 38.1201C418.107 38.4863 418.217 38.7874 418.217 39.0234C418.217 39.2594 418.103 39.4629 417.875 39.6338C417.656 39.7965 417.334 39.8779 416.911 39.8779C416.488 39.8779 416.028 39.7762 415.532 39.5728C415.035 39.3612 414.673 39.2554 414.445 39.2554C414.421 39.2554 414.014 39.4019 413.225 39.6948C412.435 39.9797 411.768 40.1221 411.223 40.1221H410.954C410.043 40.1221 409.265 39.8332 408.622 39.2554C407.988 38.6776 407.67 37.8556 407.67 36.7896C407.67 35.7235 408.02 34.8934 408.72 34.2993C409.42 33.6971 410.27 33.2861 411.271 33.0664C411.572 33.0013 412.073 32.9159 412.773 32.8101C413.473 32.7043 413.949 32.5944 414.201 32.4805C414.641 32.277 414.86 31.8945 414.86 31.333C414.86 30.7633 414.673 30.3198 414.299 30.0024C413.924 29.6769 413.477 29.5142 412.956 29.5142C412.443 29.5142 411.768 29.7054 410.93 30.0879C410.091 30.4704 409.558 30.6616 409.33 30.6616ZM425.395 34.6533C424.671 34.6533 424.309 35.6095 424.309 37.522C424.309 38.3521 424.138 38.9136 423.796 39.2065C423.454 39.4995 423.043 39.646 422.563 39.646C422.083 39.646 421.741 39.5646 421.538 39.4019C421.342 39.2391 421.245 38.9339 421.245 38.4863C421.245 38.4538 421.289 38.1323 421.379 37.522C421.468 36.9116 421.582 35.0155 421.721 31.8335C421.859 28.6434 421.928 26.6943 421.928 25.9863C421.928 25.2783 421.908 24.8185 421.867 24.6069C421.835 24.3872 421.778 24.1227 421.696 23.8135C421.623 23.5042 421.586 23.3089 421.586 23.2275C421.586 22.8695 421.704 22.6253 421.94 22.4951C422.184 22.3568 422.587 22.2876 423.149 22.2876C423.718 22.2876 424.093 22.4341 424.272 22.7271C424.459 23.02 424.553 23.61 424.553 24.4971L424.394 29.6729C424.394 31.154 424.565 31.8945 424.907 31.8945C425.175 31.8945 425.834 31.3411 426.884 30.2344C427.942 29.1276 428.483 28.5661 428.508 28.5498C428.833 28.3219 429.326 28.208 429.985 28.208C430.644 28.208 430.974 28.3708 430.974 28.6963C430.974 28.859 430.449 29.5467 429.399 30.7593C428.349 31.9718 427.824 32.863 427.824 33.4326C427.824 33.7419 428.422 34.7591 429.619 36.4844C430.05 37.1029 430.457 37.64 430.839 38.0957C431.23 38.5433 431.425 38.8647 431.425 39.0601C431.425 39.467 431.047 39.6704 430.29 39.6704C429.541 39.6704 428.963 39.4548 428.557 39.0234C428.459 38.9176 428.231 38.5596 427.873 37.9492C427.515 37.3389 427.263 36.9116 427.116 36.6675C426.278 35.3247 425.704 34.6533 425.395 34.6533ZM447.49 38.6938C447.49 39.0194 447.29 39.3123 446.892 39.5728C446.501 39.825 445.968 39.9512 445.292 39.9512C444.031 39.9512 443.144 39.4832 442.631 38.5474C442.314 37.9614 442.155 36.5902 442.155 34.4336C442.155 32.277 442.119 31.0238 442.045 30.6738C441.972 30.3239 441.769 29.9821 441.435 29.6484C441.101 29.3148 440.934 29.0584 440.934 28.8794C440.934 28.8143 441.329 28.387 442.119 27.5977C442.289 27.4268 442.46 27.0483 442.631 26.4624C442.81 25.8765 442.936 25.4899 443.01 25.3027C443.254 24.7168 443.575 24.4238 443.974 24.4238H444.169C444.519 24.4238 444.767 24.5581 444.914 24.8267C444.971 24.9325 445.056 25.3149 445.17 25.9741C445.292 26.6252 445.431 27.0443 445.585 27.2314C445.74 27.4186 446.127 27.6261 446.745 27.854C447.372 28.0737 447.685 28.3097 447.685 28.562V28.6963C447.685 29.0218 447.327 29.2985 446.611 29.5264C445.903 29.7461 445.447 30.1001 445.244 30.5884C444.845 31.5731 444.645 33.1763 444.645 35.3979C444.645 36.4396 444.824 37.1476 445.183 37.522C445.402 37.7498 445.842 37.9085 446.501 37.998C447.16 38.0876 447.49 38.3195 447.49 38.6938ZM454.265 24.1309V24.2773C454.265 24.6924 454.142 25.0464 453.898 25.3394C453.662 25.6242 453.296 25.7666 452.8 25.7666H452.604L452.226 25.7178C452.006 25.7178 451.795 25.616 451.591 25.4126C451.388 25.2091 451.286 24.904 451.286 24.4971V24.3506L451.347 23.9111C451.347 23.7402 451.449 23.5286 451.652 23.2764C451.864 23.0241 452.132 22.8979 452.458 22.8979L452.739 22.8613H452.983L453.325 22.9102C453.536 22.9102 453.744 23.016 453.947 23.2275C454.159 23.431 454.265 23.7321 454.265 24.1309ZM453.691 29.2822L453.557 32.5659L453.532 32.8955L453.496 33.8965V34.3726C453.496 35.5444 453.528 36.3135 453.593 36.6797C453.666 37.0459 453.801 37.404 453.996 37.7539C454.191 38.0957 454.289 38.3439 454.289 38.4985V38.6084C454.289 39.0072 454.086 39.3245 453.679 39.5605C453.272 39.7965 452.718 39.9146 452.018 39.9146H451.713C451.306 39.9146 450.997 39.825 450.786 39.646C450.574 39.4588 450.468 39.2594 450.468 39.0479V38.7793C450.468 38.6735 450.562 38.2992 450.749 37.6562C450.936 37.0052 451.03 36.1222 451.03 35.0073C451.054 34.6899 451.066 34.4702 451.066 34.3481L451.103 33.6768L451.127 33.3472C451.168 32.7775 451.188 32.334 451.188 32.0166L451.201 31.5283C451.201 30.918 451.099 30.3768 450.895 29.9048C450.7 29.4328 450.602 29.1398 450.602 29.0259C450.602 28.4399 451.156 28.147 452.263 28.147H452.702C453.117 28.147 453.386 28.2568 453.508 28.4766C453.63 28.6882 453.691 28.9567 453.691 29.2822ZM462.382 28.7085C463.009 28.4725 463.652 28.3545 464.311 28.3545C464.97 28.3545 465.654 28.5498 466.362 28.9404C467.078 29.3311 467.468 29.5264 467.534 29.5264C467.599 29.5264 468.038 29.327 468.852 28.9282C469.666 28.5295 470.398 28.3301 471.049 28.3301C471.708 28.3301 472.25 28.4684 472.673 28.7451C473.104 29.0137 473.43 29.3351 473.649 29.7095C474.064 30.4256 474.272 32.0166 474.272 34.4824C474.272 35.5892 474.28 36.224 474.296 36.3867C474.321 36.5413 474.378 36.8221 474.467 37.229C474.565 37.6278 474.614 37.9574 474.614 38.2178C474.614 38.4701 474.508 38.7345 474.296 39.0112C474.085 39.2879 473.804 39.4263 473.454 39.4263C472.762 39.4263 472.351 39.1455 472.221 38.584C472.123 38.1771 472.01 36.9889 471.879 35.0195C471.757 33.0501 471.623 31.8945 471.476 31.5527C471.184 30.8366 470.561 30.4785 469.609 30.4785C468.998 30.4785 468.522 30.861 468.181 31.626C467.684 32.7246 467.436 34.2871 467.436 36.3135L467.558 38.0713C467.558 38.6898 467.33 39.1577 466.874 39.4751C466.581 39.6785 466.191 39.7803 465.703 39.7803C465.222 39.7803 464.905 39.7314 464.75 39.6338C464.482 39.471 464.348 39.1252 464.348 38.5962C464.348 38.4985 464.425 38.0998 464.579 37.3999C464.742 36.6919 464.824 35.5444 464.824 33.9575C464.824 32.3625 464.706 31.3493 464.47 30.918C464.234 30.4785 463.823 30.2588 463.237 30.2588C462.651 30.2588 462.13 30.4582 461.674 30.8569C461.227 31.2557 460.897 31.6911 460.685 32.1631C460.482 32.6351 460.299 33.7581 460.136 35.5322C459.982 37.3063 459.872 38.3236 459.807 38.584C459.693 39.0316 459.363 39.2554 458.818 39.2554C458.281 39.2554 457.91 39.0967 457.707 38.7793C457.512 38.4538 457.414 38.0591 457.414 37.5952L457.475 37.168L457.707 36.3257C457.805 35.9351 457.862 35.4793 457.878 34.9585C458 31.7277 458.093 29.8844 458.159 29.4287C458.224 28.973 458.517 28.7451 459.038 28.7451L460.856 29.0503C461.247 29.0503 461.756 28.9364 462.382 28.7085ZM479.863 32.5781V32.7734C479.863 33.0176 480.086 33.1396 480.534 33.1396H480.827L480.9 33.1274L481.498 33.0786C482.125 32.9891 482.532 32.9443 482.719 32.9443C483.606 32.9443 484.274 32.7775 484.721 32.4438C484.933 32.2811 485.038 31.9922 485.038 31.5771V31.4429C485.038 30.8325 484.835 30.3483 484.428 29.9902C484.029 29.6322 483.549 29.4531 482.988 29.4531H482.902L482.829 29.4653C482.04 29.4653 481.348 29.799 480.754 30.4663C480.16 31.1336 479.863 31.8376 479.863 32.5781ZM482.524 40.1587H482.255C480.701 40.1587 479.464 39.6663 478.544 38.6816C477.625 37.6888 477.165 36.3664 477.165 34.7144V34.1772C477.165 33.3879 477.32 32.5863 477.629 31.7725C478.255 30.1449 479.277 29.0218 480.693 28.4033C481.441 28.0697 482.202 27.9028 482.975 27.9028H483.5C484.566 27.9028 485.466 28.2609 486.198 28.9771C486.939 29.6851 487.309 30.6006 487.309 31.7236V31.9678C487.309 32.7653 486.992 33.3309 486.357 33.6646C485.917 33.9006 484.892 34.1366 483.281 34.3726C481.669 34.6086 480.79 34.751 480.644 34.7998C480.156 34.9707 479.912 35.2962 479.912 35.7764C479.912 36.4437 480.196 37.0133 480.766 37.4854C481.336 37.9574 482.101 38.1934 483.061 38.1934C483.509 38.1934 484.119 38.0713 484.892 37.8271C485.665 37.583 486.113 37.4609 486.235 37.4609C486.65 37.4609 486.857 37.64 486.857 37.998C486.857 38.4782 486.389 38.9583 485.454 39.4385C484.518 39.9186 483.541 40.1587 482.524 40.1587ZM500.725 38.4619H501.042C501.709 38.4619 502.295 38.2381 502.8 37.7905C503.312 37.3348 503.569 36.8099 503.569 36.2158L503.593 36.0571V35.8984L503.618 35.52V34.8242C503.618 34.3522 503.378 34.1162 502.897 34.1162H502.348L502.263 34.1284L501.787 34.165C501.559 34.1976 501.396 34.2139 501.298 34.2139C500.639 34.2139 500.029 34.4621 499.467 34.9585C499.077 35.3084 498.881 35.8049 498.881 36.4478V36.6919C498.881 37.2371 499.056 37.6685 499.406 37.9858C499.764 38.3032 500.204 38.4619 500.725 38.4619ZM498.002 30.6616C497.457 30.6616 497.184 30.3117 497.184 29.6118C497.184 29.091 497.624 28.6393 498.503 28.2568C499.39 27.8662 500.309 27.6709 501.262 27.6709H501.872C502.694 27.6709 503.418 27.8255 504.045 28.1348C504.671 28.4359 505.148 28.8468 505.473 29.3677C505.807 29.8885 506.01 30.568 506.083 31.4062C506.1 31.6016 506.108 32.5496 506.108 34.2505C506.108 35.9513 506.128 36.932 506.169 37.1924C506.218 37.4447 506.348 37.7539 506.559 38.1201C506.779 38.4863 506.889 38.7874 506.889 39.0234C506.889 39.2594 506.775 39.4629 506.547 39.6338C506.328 39.7965 506.006 39.8779 505.583 39.8779C505.16 39.8779 504.7 39.7762 504.204 39.5728C503.707 39.3612 503.345 39.2554 503.117 39.2554C503.093 39.2554 502.686 39.4019 501.896 39.6948C501.107 39.9797 500.44 40.1221 499.894 40.1221H499.626C498.714 40.1221 497.937 39.8332 497.294 39.2554C496.66 38.6776 496.342 37.8556 496.342 36.7896C496.342 35.7235 496.692 34.8934 497.392 34.2993C498.092 33.6971 498.942 33.2861 499.943 33.0664C500.244 33.0013 500.745 32.9159 501.445 32.8101C502.145 32.7043 502.621 32.5944 502.873 32.4805C503.312 32.277 503.532 31.8945 503.532 31.333C503.532 30.7633 503.345 30.3198 502.971 30.0024C502.596 29.6769 502.149 29.5142 501.628 29.5142C501.115 29.5142 500.44 29.7054 499.601 30.0879C498.763 30.4704 498.23 30.6616 498.002 30.6616ZM521.135 39.3774C520.557 39.3774 520.056 39.0153 519.633 38.291C519.357 37.8109 518.917 36.8343 518.315 35.3613C517.721 33.8802 517.383 33.1396 517.302 33.1396C517.277 33.1396 516.94 33.8314 516.288 35.2148C515.637 36.5902 515.153 37.5342 514.836 38.0469C514.331 38.8525 513.847 39.2554 513.383 39.2554C513.09 39.2554 512.781 39.1414 512.455 38.9136C512.138 38.6776 511.882 38.2951 511.686 37.7661C511.662 37.701 511.475 37.0011 511.125 35.6665C510.783 34.3319 510.429 33.0786 510.063 31.9067C509.705 30.7349 509.526 29.9414 509.526 29.5264C509.526 29.1113 509.615 28.8143 509.794 28.6353C509.973 28.4562 510.156 28.3667 510.344 28.3667C511.1 28.3667 511.634 28.68 511.943 29.3066C512.057 29.5345 512.203 30.1042 512.382 31.0156C513.237 34.3604 513.81 36.1344 514.103 36.3379C514.413 36.3379 514.864 35.3044 515.458 33.2373C515.703 32.391 515.861 31.63 515.934 30.9546C516.016 30.2791 516.069 29.8885 516.093 29.7827L516.203 29.3921C516.447 28.7492 516.931 28.4277 517.656 28.4277C518.388 28.4277 518.897 28.798 519.182 29.5386C519.295 29.8397 519.401 30.3687 519.499 31.1255C519.597 31.8742 519.735 32.627 519.914 33.3838C520.362 35.3206 520.716 36.2891 520.976 36.2891C521.293 36.2891 521.79 35.2759 522.465 33.2495C522.677 32.6147 522.897 31.8376 523.124 30.918C523.36 29.9984 523.523 29.445 523.613 29.2578C523.906 28.68 524.37 28.3911 525.004 28.3911C525.338 28.3911 525.505 28.7166 525.505 29.3677C525.505 29.7502 525.09 31.2069 524.26 33.7378C523.43 36.2606 522.929 37.7051 522.758 38.0713C522.587 38.4294 522.343 38.7386 522.026 38.999C521.708 39.2513 521.411 39.3774 521.135 39.3774ZM531.852 38.4619H532.17C532.837 38.4619 533.423 38.2381 533.928 37.7905C534.44 37.3348 534.697 36.8099 534.697 36.2158L534.721 36.0571V35.8984L534.746 35.52V34.8242C534.746 34.3522 534.505 34.1162 534.025 34.1162H533.476L533.391 34.1284L532.914 34.165C532.687 34.1976 532.524 34.2139 532.426 34.2139C531.767 34.2139 531.157 34.4621 530.595 34.9585C530.204 35.3084 530.009 35.8049 530.009 36.4478V36.6919C530.009 37.2371 530.184 37.6685 530.534 37.9858C530.892 38.3032 531.332 38.4619 531.852 38.4619ZM529.13 30.6616C528.585 30.6616 528.312 30.3117 528.312 29.6118C528.312 29.091 528.752 28.6393 529.631 28.2568C530.518 27.8662 531.437 27.6709 532.39 27.6709H533C533.822 27.6709 534.546 27.8255 535.173 28.1348C535.799 28.4359 536.275 28.8468 536.601 29.3677C536.935 29.8885 537.138 30.568 537.211 31.4062C537.228 31.6016 537.236 32.5496 537.236 34.2505C537.236 35.9513 537.256 36.932 537.297 37.1924C537.346 37.4447 537.476 37.7539 537.687 38.1201C537.907 38.4863 538.017 38.7874 538.017 39.0234C538.017 39.2594 537.903 39.4629 537.675 39.6338C537.455 39.7965 537.134 39.8779 536.711 39.8779C536.288 39.8779 535.828 39.7762 535.331 39.5728C534.835 39.3612 534.473 39.2554 534.245 39.2554C534.221 39.2554 533.814 39.4019 533.024 39.6948C532.235 39.9797 531.568 40.1221 531.022 40.1221H530.754C529.842 40.1221 529.065 39.8332 528.422 39.2554C527.788 38.6776 527.47 37.8556 527.47 36.7896C527.47 35.7235 527.82 34.8934 528.52 34.2993C529.22 33.6971 530.07 33.2861 531.071 33.0664C531.372 33.0013 531.873 32.9159 532.573 32.8101C533.273 32.7043 533.749 32.5944 534.001 32.4805C534.44 32.277 534.66 31.8945 534.66 31.333C534.66 30.7633 534.473 30.3198 534.099 30.0024C533.724 29.6769 533.277 29.5142 532.756 29.5142C532.243 29.5142 531.568 29.7054 530.729 30.0879C529.891 30.4704 529.358 30.6616 529.13 30.6616ZM541.642 33.6523V32.7124C541.642 31.5812 541.581 30.7552 541.459 30.2344C541.337 29.7054 541.276 29.3351 541.276 29.1235C541.276 28.6271 541.638 28.3789 542.363 28.3789C543.087 28.3789 543.612 28.5132 543.937 28.7817C544.027 28.855 544.141 28.9974 544.279 29.209C544.426 29.4206 544.556 29.5264 544.67 29.5264C544.694 29.5264 545.048 29.3188 545.732 28.9038C546.415 28.4888 547.001 28.2812 547.49 28.2812H547.673C548.072 28.2812 548.389 28.3789 548.625 28.5742C548.861 28.7614 548.979 28.9933 548.979 29.27V29.4287C548.979 29.7624 548.861 30.0024 548.625 30.1489C548.397 30.2954 548.031 30.3687 547.526 30.3687C546.379 30.3687 545.541 30.7715 545.012 31.5771C544.491 32.3828 544.23 33.807 544.23 35.8496C544.23 36.1426 544.279 36.5942 544.377 37.2046C544.483 37.8149 544.536 38.2747 544.536 38.584C544.536 38.8932 544.369 39.1903 544.035 39.4751C543.701 39.7599 543.278 39.9023 542.766 39.9023H542.35C541.903 39.9023 541.557 39.7965 541.313 39.585C541.077 39.3652 540.959 39.1007 540.959 38.7915C540.959 38.4741 541.016 38.1527 541.13 37.8271C541.439 36.9482 541.594 35.9798 541.594 34.9219C541.626 34.3359 541.642 33.9128 541.642 33.6523ZM553.032 32.5781V32.7734C553.032 33.0176 553.255 33.1396 553.703 33.1396H553.996L554.069 33.1274L554.667 33.0786C555.294 32.9891 555.701 32.9443 555.888 32.9443C556.775 32.9443 557.442 32.7775 557.89 32.4438C558.102 32.2811 558.207 31.9922 558.207 31.5771V31.4429C558.207 30.8325 558.004 30.3483 557.597 29.9902C557.198 29.6322 556.718 29.4531 556.157 29.4531H556.071L555.998 29.4653C555.209 29.4653 554.517 29.799 553.923 30.4663C553.329 31.1336 553.032 31.8376 553.032 32.5781ZM555.693 40.1587H555.424C553.87 40.1587 552.633 39.6663 551.713 38.6816C550.794 37.6888 550.334 36.3664 550.334 34.7144V34.1772C550.334 33.3879 550.489 32.5863 550.798 31.7725C551.424 30.1449 552.446 29.0218 553.862 28.4033C554.61 28.0697 555.371 27.9028 556.144 27.9028H556.669C557.735 27.9028 558.635 28.2609 559.367 28.9771C560.108 29.6851 560.478 30.6006 560.478 31.7236V31.9678C560.478 32.7653 560.161 33.3309 559.526 33.6646C559.086 33.9006 558.061 34.1366 556.45 34.3726C554.838 34.6086 553.959 34.751 553.813 34.7998C553.325 34.9707 553.08 35.2962 553.08 35.7764C553.08 36.4437 553.365 37.0133 553.935 37.4854C554.505 37.9574 555.27 38.1934 556.23 38.1934C556.677 38.1934 557.288 38.0713 558.061 37.8271C558.834 37.583 559.282 37.4609 559.404 37.4609C559.819 37.4609 560.026 37.64 560.026 37.998C560.026 38.4782 559.558 38.9583 558.622 39.4385C557.687 39.9186 556.71 40.1587 555.693 40.1587ZM574.333 38.5352C574.333 39.1374 573.808 39.4385 572.758 39.4385C572.164 39.4385 571.765 39.2961 571.562 39.0112C571.464 38.8729 571.415 38.5474 571.415 38.0347L571.379 37.2534C571.322 36.3989 571.293 35.5404 571.293 34.6777C571.293 32.8141 571.131 31.5649 570.805 30.9302C570.488 30.2873 569.951 29.9658 569.194 29.9658C568.689 29.9658 568.221 30.1164 567.79 30.4175C567.367 30.7186 567.041 31.1377 566.813 31.6748C566.341 32.7734 566.105 34.8039 566.105 37.7661C566.105 38.4416 565.975 38.9176 565.715 39.1943C565.462 39.471 565.137 39.6094 564.738 39.6094H564.494C563.583 39.6094 563.127 39.2472 563.127 38.5229V38.23C563.127 38.1405 563.176 37.9451 563.273 37.644L563.469 37.0825C563.664 36.4233 563.762 35.0114 563.762 32.8467L563.823 29.2212C563.823 28.7573 564.075 28.5254 564.579 28.5254C565.084 28.5254 565.58 28.6922 566.069 29.0259C566.565 29.3595 566.878 29.5264 567.009 29.5264C567.147 29.5264 567.387 29.4328 567.729 29.2456C568.876 28.619 569.796 28.3057 570.488 28.3057H570.805C572.05 28.3057 572.925 28.8672 573.43 29.9902C573.674 30.5192 573.796 31.6585 573.796 33.4082V33.4937C573.796 33.6401 573.792 33.7866 573.784 33.9331C573.784 34.3319 573.784 34.5394 573.784 34.5557C573.784 34.7103 573.784 34.8608 573.784 35.0073C573.784 35.1213 573.784 35.2311 573.784 35.3369C573.784 35.9635 573.804 36.3908 573.845 36.6187C573.902 36.9279 573.995 37.2493 574.125 37.583C574.264 37.9492 574.333 38.2666 574.333 38.5352ZM579.399 32.5781V32.7734C579.399 33.0176 579.623 33.1396 580.07 33.1396H580.363L580.436 33.1274L581.035 33.0786C581.661 32.9891 582.068 32.9443 582.255 32.9443C583.142 32.9443 583.81 32.7775 584.257 32.4438C584.469 32.2811 584.575 31.9922 584.575 31.5771V31.4429C584.575 30.8325 584.371 30.3483 583.964 29.9902C583.566 29.6322 583.085 29.4531 582.524 29.4531H582.438L582.365 29.4653C581.576 29.4653 580.884 29.799 580.29 30.4663C579.696 31.1336 579.399 31.8376 579.399 32.5781ZM582.06 40.1587H581.791C580.237 40.1587 579 39.6663 578.08 38.6816C577.161 37.6888 576.701 36.3664 576.701 34.7144V34.1772C576.701 33.3879 576.856 32.5863 577.165 31.7725C577.792 30.1449 578.813 29.0218 580.229 28.4033C580.978 28.0697 581.739 27.9028 582.512 27.9028H583.037C584.103 27.9028 585.002 28.2609 585.734 28.9771C586.475 29.6851 586.845 30.6006 586.845 31.7236V31.9678C586.845 32.7653 586.528 33.3309 585.893 33.6646C585.454 33.9006 584.428 34.1366 582.817 34.3726C581.205 34.6086 580.327 34.751 580.18 34.7998C579.692 34.9707 579.448 35.2962 579.448 35.7764C579.448 36.4437 579.732 37.0133 580.302 37.4854C580.872 37.9574 581.637 38.1934 582.597 38.1934C583.045 38.1934 583.655 38.0713 584.428 37.8271C585.201 37.583 585.649 37.4609 585.771 37.4609C586.186 37.4609 586.393 37.64 586.393 37.998C586.393 38.4782 585.926 38.9583 584.99 39.4385C584.054 39.9186 583.077 40.1587 582.06 40.1587ZM590.361 33.1885C589.864 32.6839 589.616 31.9759 589.616 31.0645C589.616 30.153 590.023 29.3717 590.837 28.7207C591.651 28.0615 592.66 27.7319 593.864 27.7319H594.182C595.248 27.7319 596.094 27.8825 596.721 28.1836C597.355 28.4847 597.673 28.9364 597.673 29.5386C597.673 30.1326 597.408 30.4297 596.879 30.4297C596.741 30.4297 596.35 30.2669 595.707 29.9414C595.065 29.6077 594.458 29.4409 593.889 29.4409C593.319 29.4409 592.859 29.5711 592.509 29.8315C592.167 30.0838 591.996 30.4338 591.996 30.8813C591.996 31.3289 592.237 31.7196 592.717 32.0532C592.993 32.2485 593.644 32.5578 594.67 32.981C595.703 33.4041 596.44 33.811 596.879 34.2017C597.587 34.8283 597.941 35.6299 597.941 36.6064C597.941 37.583 597.526 38.4212 596.696 39.1211C595.866 39.8128 594.788 40.1587 593.461 40.1587H593.144C591.809 40.1587 590.808 39.9674 590.141 39.585C589.474 39.1943 589.14 38.6898 589.14 38.0713C589.14 37.4447 589.4 37.1313 589.921 37.1313C590.092 37.1313 590.536 37.3511 591.252 37.7905C591.976 38.23 592.684 38.4497 593.376 38.4497C594.076 38.4497 594.601 38.3032 594.951 38.0103C595.301 37.7091 595.475 37.3348 595.475 36.8872C595.475 36.4315 595.256 36.0327 594.816 35.6909C594.58 35.5037 593.905 35.166 592.79 34.6777C591.675 34.1813 590.865 33.6849 590.361 33.1885ZM601.42 33.1885C600.924 32.6839 600.676 31.9759 600.676 31.0645C600.676 30.153 601.083 29.3717 601.896 28.7207C602.71 28.0615 603.719 27.7319 604.924 27.7319H605.241C606.307 27.7319 607.154 27.8825 607.78 28.1836C608.415 28.4847 608.732 28.9364 608.732 29.5386C608.732 30.1326 608.468 30.4297 607.939 30.4297C607.801 30.4297 607.41 30.2669 606.767 29.9414C606.124 29.6077 605.518 29.4409 604.948 29.4409C604.378 29.4409 603.919 29.5711 603.569 29.8315C603.227 30.0838 603.056 30.4338 603.056 30.8813C603.056 31.3289 603.296 31.7196 603.776 32.0532C604.053 32.2485 604.704 32.5578 605.729 32.981C606.763 33.4041 607.499 33.811 607.939 34.2017C608.647 34.8283 609.001 35.6299 609.001 36.6064C609.001 37.583 608.586 38.4212 607.756 39.1211C606.926 39.8128 605.847 40.1587 604.521 40.1587H604.204C602.869 40.1587 601.868 39.9674 601.201 39.585C600.533 39.1943 600.2 38.6898 600.2 38.0713C600.2 37.4447 600.46 37.1313 600.981 37.1313C601.152 37.1313 601.595 37.3511 602.311 37.7905C603.036 38.23 603.744 38.4497 604.435 38.4497C605.135 38.4497 605.66 38.3032 606.01 38.0103C606.36 37.7091 606.535 37.3348 606.535 36.8872C606.535 36.4315 606.315 36.0327 605.876 35.6909C605.64 35.5037 604.964 35.166 603.85 34.6777C602.735 34.1813 601.925 33.6849 601.42 33.1885ZM613.334 40.1953H612.956C612.549 40.1953 612.232 40.1017 612.004 39.9146C611.784 39.7274 611.674 39.4792 611.674 39.1699C611.658 39.1048 611.65 39.0519 611.65 39.0112L611.625 38.8037V38.584L611.638 38.5352V38.4253C611.654 38.3602 611.662 38.3073 611.662 38.2666C611.662 37.9004 611.784 37.6156 612.028 37.4121C612.281 37.2005 612.557 37.0947 612.858 37.0947L613.115 37.0581H613.444C614.331 37.0581 614.775 37.522 614.775 38.4497V38.6206L614.726 39.0356C614.726 39.41 614.584 39.6989 614.299 39.9023C614.022 40.0977 613.701 40.1953 613.334 40.1953ZM632.231 32.981C633.24 32.981 633.745 32.8507 633.745 32.5903V32.5049C633.745 32.3665 633.472 31.215 632.927 29.0503C632.381 26.8774 632.015 25.791 631.828 25.791H631.779C631.763 25.791 631.608 26.1084 631.315 26.7432C629.802 29.9902 629.045 31.9678 629.045 32.6758V32.749C629.045 32.8711 629.199 32.9321 629.509 32.9321L629.704 32.9565L630.595 32.981H632.231ZM631.95 22.8491H632.231C632.923 22.8491 633.541 23.4798 634.086 24.7412C635.014 26.8652 636.068 30.2954 637.248 35.0317C637.403 35.634 637.63 36.2362 637.932 36.8384C638.241 37.4406 638.395 37.8231 638.395 37.9858C638.395 38.4497 638.241 38.8566 637.932 39.2065C637.622 39.5565 637.256 39.7314 636.833 39.7314H636.564C635.856 39.7314 635.413 39.5076 635.234 39.0601C635.201 38.9868 635.165 38.7793 635.124 38.4375C635.091 38.0876 635.043 37.762 634.977 37.4609C634.75 36.403 634.465 35.6787 634.123 35.2881C633.789 34.8893 632.841 34.6899 631.279 34.6899C629.716 34.6899 628.748 34.869 628.373 35.2271C628.007 35.5851 627.625 36.3175 627.226 37.4243C627.104 37.7661 627.006 38.1445 626.933 38.5596C626.868 38.9746 626.799 39.2432 626.725 39.3652C626.579 39.6012 626.278 39.7192 625.822 39.7192C625.375 39.7192 625.017 39.5646 624.748 39.2554C624.479 38.9461 624.345 38.584 624.345 38.1689C624.345 37.7458 624.557 37.2412 624.98 36.6553C625.395 36.0693 626.172 34.279 627.311 31.2842C629.102 26.5641 630.306 23.9111 630.925 23.3252C631.267 23.0078 631.608 22.8491 631.95 22.8491ZM642.985 40.8911H642.704C642.298 40.8911 641.952 40.7731 641.667 40.5371C641.39 40.3011 641.252 40.0203 641.252 39.6948C641.252 39.3693 641.35 38.9543 641.545 38.4497C641.748 37.937 641.895 37.3145 641.984 36.582C642.082 35.8415 642.131 34.7591 642.131 33.335C642.131 31.9108 642.062 31.0034 641.923 30.6128C641.899 30.5477 641.785 30.332 641.581 29.9658C641.378 29.5915 641.276 29.2741 641.276 29.0137C641.276 28.7533 641.411 28.4196 641.679 28.0127C641.956 27.6058 642.139 27.3047 642.228 27.1094C643.327 24.79 643.901 23.6019 643.95 23.5449C644.796 22.5602 645.939 22.0679 647.38 22.0679C648.047 22.0679 648.56 22.1818 648.918 22.4097C649.276 22.6375 649.455 22.9346 649.455 23.3008C649.455 23.6589 649.243 23.9193 648.82 24.082C648.706 24.1227 648.556 24.1431 648.369 24.1431C648.23 24.1349 648.072 24.1227 647.892 24.1064C647.469 24.0576 647.16 24.0332 646.965 24.0332C646.436 24.0332 646.004 24.2611 645.671 24.7168C645.345 25.1644 645.183 25.6812 645.183 26.2671C645.183 26.853 645.301 27.2803 645.537 27.5488C645.61 27.6302 645.956 27.8337 646.574 28.1592C647.201 28.4766 647.514 28.798 647.514 29.1235C647.514 29.3026 647.164 29.5793 646.464 29.9536C645.968 30.214 645.602 30.6779 645.366 31.3452C644.853 32.7775 644.597 34.6615 644.597 36.9971L644.829 39.0601C644.829 39.6216 644.662 40.0651 644.328 40.3906C644.003 40.7243 643.555 40.8911 642.985 40.8911ZM652.092 40.8911H651.811C651.404 40.8911 651.058 40.7731 650.773 40.5371C650.497 40.3011 650.358 40.0203 650.358 39.6948C650.358 39.3693 650.456 38.9543 650.651 38.4497C650.855 37.937 651.001 37.3145 651.091 36.582C651.188 35.8415 651.237 34.7591 651.237 33.335C651.237 31.9108 651.168 31.0034 651.03 30.6128C651.005 30.5477 650.891 30.332 650.688 29.9658C650.484 29.5915 650.383 29.2741 650.383 29.0137C650.383 28.7533 650.517 28.4196 650.786 28.0127C651.062 27.6058 651.245 27.3047 651.335 27.1094C652.434 24.79 653.007 23.6019 653.056 23.5449C653.902 22.5602 655.046 22.0679 656.486 22.0679C657.154 22.0679 657.666 22.1818 658.024 22.4097C658.382 22.6375 658.561 22.9346 658.561 23.3008C658.561 23.6589 658.35 23.9193 657.927 24.082C657.813 24.1227 657.662 24.1431 657.475 24.1431C657.337 24.1349 657.178 24.1227 656.999 24.1064C656.576 24.0576 656.267 24.0332 656.071 24.0332C655.542 24.0332 655.111 24.2611 654.777 24.7168C654.452 25.1644 654.289 25.6812 654.289 26.2671C654.289 26.853 654.407 27.2803 654.643 27.5488C654.716 27.6302 655.062 27.8337 655.681 28.1592C656.307 28.4766 656.621 28.798 656.621 29.1235C656.621 29.3026 656.271 29.5793 655.571 29.9536C655.074 30.214 654.708 30.6779 654.472 31.3452C653.959 32.7775 653.703 34.6615 653.703 36.9971L653.935 39.0601C653.935 39.6216 653.768 40.0651 653.434 40.3906C653.109 40.7243 652.661 40.8911 652.092 40.8911ZM661.357 32.5781V32.7734C661.357 33.0176 661.581 33.1396 662.028 33.1396H662.321L662.394 33.1274L662.993 33.0786C663.619 32.9891 664.026 32.9443 664.213 32.9443C665.1 32.9443 665.768 32.7775 666.215 32.4438C666.427 32.2811 666.533 31.9922 666.533 31.5771V31.4429C666.533 30.8325 666.329 30.3483 665.922 29.9902C665.524 29.6322 665.043 29.4531 664.482 29.4531H664.396L664.323 29.4653C663.534 29.4653 662.842 29.799 662.248 30.4663C661.654 31.1336 661.357 31.8376 661.357 32.5781ZM664.018 40.1587H663.749C662.195 40.1587 660.958 39.6663 660.038 38.6816C659.119 37.6888 658.659 36.3664 658.659 34.7144V34.1772C658.659 33.3879 658.814 32.5863 659.123 31.7725C659.75 30.1449 660.771 29.0218 662.187 28.4033C662.936 28.0697 663.697 27.9028 664.47 27.9028H664.995C666.061 27.9028 666.96 28.2609 667.692 28.9771C668.433 29.6851 668.803 30.6006 668.803 31.7236V31.9678C668.803 32.7653 668.486 33.3309 667.851 33.6646C667.412 33.9006 666.386 34.1366 664.775 34.3726C663.163 34.6086 662.285 34.751 662.138 34.7998C661.65 34.9707 661.406 35.2962 661.406 35.7764C661.406 36.4437 661.691 37.0133 662.26 37.4854C662.83 37.9574 663.595 38.1934 664.555 38.1934C665.003 38.1934 665.613 38.0713 666.386 37.8271C667.159 37.583 667.607 37.4609 667.729 37.4609C668.144 37.4609 668.351 37.64 668.351 37.998C668.351 38.4782 667.884 38.9583 666.948 39.4385C666.012 39.9186 665.035 40.1587 664.018 40.1587ZM671.074 34.9219V34.3604C671.074 33.335 671.232 32.4276 671.55 31.6382C672.16 30.1082 673.096 29.0503 674.357 28.4644C675.179 28.0737 676.03 27.8784 676.909 27.8784H677.177C678.146 27.8784 678.947 28.0697 679.582 28.4521C680.217 28.8346 680.534 29.3026 680.534 29.856C680.534 30.4989 680.225 30.8203 679.606 30.8203C679.492 30.8203 679.094 30.6413 678.41 30.2832C677.726 29.9333 677.165 29.7583 676.725 29.7583C676.717 29.7583 676.709 29.7583 676.701 29.7583C675.741 29.7583 674.988 30.1733 674.443 31.0034C673.906 31.8335 673.637 32.9159 673.637 34.2505C673.637 35.5851 673.922 36.5739 674.492 37.2168C675.069 37.8597 675.871 38.1812 676.896 38.1812C677.32 38.1812 677.901 38.0632 678.642 37.8271C679.383 37.583 679.834 37.4609 679.997 37.4609C680.331 37.4609 680.497 37.6359 680.497 37.9858C680.497 38.4578 680.03 38.9339 679.094 39.4141C678.158 39.8942 677.238 40.1343 676.335 40.1343C673.918 40.1343 672.319 39.1821 671.538 37.2778C671.228 36.521 671.074 35.7357 671.074 34.9219ZM689.482 38.6938C689.482 39.0194 689.282 39.3123 688.884 39.5728C688.493 39.825 687.96 39.9512 687.285 39.9512C686.023 39.9512 685.136 39.4832 684.623 38.5474C684.306 37.9614 684.147 36.5902 684.147 34.4336C684.147 32.277 684.111 31.0238 684.038 30.6738C683.964 30.3239 683.761 29.9821 683.427 29.6484C683.093 29.3148 682.927 29.0584 682.927 28.8794C682.927 28.8143 683.321 28.387 684.111 27.5977C684.282 27.4268 684.453 27.0483 684.623 26.4624C684.802 25.8765 684.929 25.4899 685.002 25.3027C685.246 24.7168 685.567 24.4238 685.966 24.4238H686.162C686.511 24.4238 686.76 24.5581 686.906 24.8267C686.963 24.9325 687.049 25.3149 687.163 25.9741C687.285 26.6252 687.423 27.0443 687.578 27.2314C687.732 27.4186 688.119 27.6261 688.737 27.854C689.364 28.0737 689.677 28.3097 689.677 28.562V28.6963C689.677 29.0218 689.319 29.2985 688.603 29.5264C687.895 29.7461 687.439 30.1001 687.236 30.5884C686.837 31.5731 686.638 33.1763 686.638 35.3979C686.638 36.4396 686.817 37.1476 687.175 37.522C687.394 37.7498 687.834 37.9085 688.493 37.998C689.152 38.0876 689.482 38.3195 689.482 38.6938ZM693.193 33.1885C692.696 32.6839 692.448 31.9759 692.448 31.0645C692.448 30.153 692.855 29.3717 693.669 28.7207C694.483 28.0615 695.492 27.7319 696.696 27.7319H697.014C698.08 27.7319 698.926 27.8825 699.553 28.1836C700.187 28.4847 700.505 28.9364 700.505 29.5386C700.505 30.1326 700.24 30.4297 699.711 30.4297C699.573 30.4297 699.182 30.2669 698.539 29.9414C697.897 29.6077 697.29 29.4409 696.721 29.4409C696.151 29.4409 695.691 29.5711 695.341 29.8315C694.999 30.0838 694.829 30.4338 694.829 30.8813C694.829 31.3289 695.069 31.7196 695.549 32.0532C695.825 32.2485 696.476 32.5578 697.502 32.981C698.535 33.4041 699.272 33.811 699.711 34.2017C700.419 34.8283 700.773 35.6299 700.773 36.6064C700.773 37.583 700.358 38.4212 699.528 39.1211C698.698 39.8128 697.62 40.1587 696.293 40.1587H695.976C694.641 40.1587 693.64 39.9674 692.973 39.585C692.306 39.1943 691.972 38.6898 691.972 38.0713C691.972 37.4447 692.232 37.1313 692.753 37.1313C692.924 37.1313 693.368 37.3511 694.084 37.7905C694.808 38.23 695.516 38.4497 696.208 38.4497C696.908 38.4497 697.433 38.3032 697.783 38.0103C698.133 37.7091 698.308 37.3348 698.308 36.8872C698.308 36.4315 698.088 36.0327 697.648 35.6909C697.412 35.5037 696.737 35.166 695.622 34.6777C694.507 34.1813 693.697 33.6849 693.193 33.1885ZM325.871 68.6938C325.871 69.0194 325.672 69.3123 325.273 69.5728C324.882 69.825 324.349 69.9512 323.674 69.9512C322.412 69.9512 321.525 69.4832 321.013 68.5474C320.695 67.9614 320.537 66.5902 320.537 64.4336C320.537 62.277 320.5 61.0238 320.427 60.6738C320.353 60.3239 320.15 59.9821 319.816 59.6484C319.483 59.3148 319.316 59.0584 319.316 58.8794C319.316 58.8143 319.711 58.387 320.5 57.5977C320.671 57.4268 320.842 57.0483 321.013 56.4624C321.192 55.8765 321.318 55.4899 321.391 55.3027C321.635 54.7168 321.957 54.4238 322.355 54.4238H322.551C322.901 54.4238 323.149 54.5581 323.295 54.8267C323.352 54.9325 323.438 55.3149 323.552 55.9741C323.674 56.6252 323.812 57.0443 323.967 57.2314C324.121 57.4186 324.508 57.6261 325.126 57.854C325.753 58.0737 326.066 58.3097 326.066 58.562V58.6963C326.066 59.0218 325.708 59.2985 324.992 59.5264C324.284 59.7461 323.828 60.1001 323.625 60.5884C323.226 61.5731 323.027 63.1763 323.027 65.3979C323.027 66.4396 323.206 67.1476 323.564 67.522C323.784 67.7498 324.223 67.9085 324.882 67.998C325.541 68.0876 325.871 68.3195 325.871 68.6938ZM330.851 62.5781V62.7734C330.851 63.0176 331.075 63.1396 331.523 63.1396H331.816L331.889 63.1274L332.487 63.0786C333.114 62.9891 333.521 62.9443 333.708 62.9443C334.595 62.9443 335.262 62.7775 335.71 62.4438C335.921 62.2811 336.027 61.9922 336.027 61.5771V61.4429C336.027 60.8325 335.824 60.3483 335.417 59.9902C335.018 59.6322 334.538 59.4531 333.976 59.4531H333.891L333.818 59.4653C333.028 59.4653 332.337 59.799 331.743 60.4663C331.149 61.1336 330.851 61.8376 330.851 62.5781ZM333.513 70.1587H333.244C331.69 70.1587 330.453 69.6663 329.533 68.6816C328.614 67.6888 328.154 66.3664 328.154 64.7144V64.1772C328.154 63.3879 328.308 62.5863 328.618 61.7725C329.244 60.1449 330.266 59.0218 331.682 58.4033C332.43 58.0697 333.191 57.9028 333.964 57.9028H334.489C335.555 57.9028 336.454 58.2609 337.187 58.9771C337.927 59.6851 338.298 60.6006 338.298 61.7236V61.9678C338.298 62.7653 337.98 63.3309 337.346 63.6646C336.906 63.9006 335.881 64.1366 334.269 64.3726C332.658 64.6086 331.779 64.751 331.633 64.7998C331.144 64.9707 330.9 65.2962 330.9 65.7764C330.9 66.4437 331.185 67.0133 331.755 67.4854C332.324 67.9574 333.089 68.1934 334.05 68.1934C334.497 68.1934 335.108 68.0713 335.881 67.8271C336.654 67.583 337.101 67.4609 337.224 67.4609C337.639 67.4609 337.846 67.64 337.846 67.998C337.846 68.4782 337.378 68.9583 336.442 69.4385C335.506 69.9186 334.53 70.1587 333.513 70.1587ZM344.853 68.4619H345.17C345.838 68.4619 346.424 68.2381 346.928 67.7905C347.441 67.3348 347.697 66.8099 347.697 66.2158L347.722 66.0571V65.8984L347.746 65.52V64.8242C347.746 64.3522 347.506 64.1162 347.026 64.1162H346.476L346.391 64.1284L345.915 64.165C345.687 64.1976 345.524 64.2139 345.427 64.2139C344.767 64.2139 344.157 64.4621 343.596 64.9585C343.205 65.3084 343.01 65.8049 343.01 66.4478V66.6919C343.01 67.2371 343.185 67.6685 343.535 67.9858C343.893 68.3032 344.332 68.4619 344.853 68.4619ZM342.131 60.6616C341.586 60.6616 341.313 60.3117 341.313 59.6118C341.313 59.091 341.752 58.6393 342.631 58.2568C343.518 57.8662 344.438 57.6709 345.39 57.6709H346C346.822 57.6709 347.547 57.8255 348.173 58.1348C348.8 58.4359 349.276 58.8468 349.601 59.3677C349.935 59.8885 350.139 60.568 350.212 61.4062C350.228 61.6016 350.236 62.5496 350.236 64.2505C350.236 65.9513 350.257 66.932 350.297 67.1924C350.346 67.4447 350.476 67.7539 350.688 68.1201C350.908 68.4863 351.017 68.7874 351.017 69.0234C351.017 69.2594 350.904 69.4629 350.676 69.6338C350.456 69.7965 350.135 69.8779 349.711 69.8779C349.288 69.8779 348.828 69.7762 348.332 69.5728C347.836 69.3612 347.473 69.2554 347.246 69.2554C347.221 69.2554 346.814 69.4019 346.025 69.6948C345.235 69.9797 344.568 70.1221 344.023 70.1221H343.754C342.843 70.1221 342.066 69.8332 341.423 69.2554C340.788 68.6776 340.471 67.8556 340.471 66.7896C340.471 65.7235 340.821 64.8934 341.52 64.2993C342.22 63.6971 343.071 63.2861 344.072 63.0664C344.373 63.0013 344.873 62.9159 345.573 62.8101C346.273 62.7043 346.749 62.5944 347.001 62.4805C347.441 62.277 347.661 61.8945 347.661 61.333C347.661 60.7633 347.473 60.3198 347.099 60.0024C346.725 59.6769 346.277 59.5142 345.756 59.5142C345.244 59.5142 344.568 59.7054 343.73 60.0879C342.892 60.4704 342.359 60.6616 342.131 60.6616ZM358.952 58.7085C359.579 58.4725 360.222 58.3545 360.881 58.3545C361.54 58.3545 362.224 58.5498 362.932 58.9404C363.648 59.3311 364.038 59.5264 364.103 59.5264C364.169 59.5264 364.608 59.327 365.422 58.9282C366.236 58.5295 366.968 58.3301 367.619 58.3301C368.278 58.3301 368.819 58.4684 369.243 58.7451C369.674 59.0137 369.999 59.3351 370.219 59.7095C370.634 60.4256 370.842 62.0166 370.842 64.4824C370.842 65.5892 370.85 66.224 370.866 66.3867C370.891 66.5413 370.947 66.8221 371.037 67.229C371.135 67.6278 371.184 67.9574 371.184 68.2178C371.184 68.4701 371.078 68.7345 370.866 69.0112C370.655 69.2879 370.374 69.4263 370.024 69.4263C369.332 69.4263 368.921 69.1455 368.791 68.584C368.693 68.1771 368.579 66.9889 368.449 65.0195C368.327 63.0501 368.193 61.8945 368.046 61.5527C367.753 60.8366 367.131 60.4785 366.179 60.4785C365.568 60.4785 365.092 60.861 364.75 61.626C364.254 62.7246 364.006 64.2871 364.006 66.3135L364.128 68.0713C364.128 68.6898 363.9 69.1577 363.444 69.4751C363.151 69.6785 362.761 69.7803 362.272 69.7803C361.792 69.7803 361.475 69.7314 361.32 69.6338C361.052 69.471 360.917 69.1252 360.917 68.5962C360.917 68.4985 360.995 68.0998 361.149 67.3999C361.312 66.6919 361.393 65.5444 361.393 63.9575C361.393 62.3625 361.275 61.3493 361.039 60.918C360.803 60.4785 360.392 60.2588 359.807 60.2588C359.221 60.2588 358.7 60.4582 358.244 60.8569C357.796 61.2557 357.467 61.6911 357.255 62.1631C357.052 62.6351 356.869 63.7581 356.706 65.5322C356.551 67.3063 356.441 68.3236 356.376 68.584C356.262 69.0316 355.933 69.2554 355.388 69.2554C354.85 69.2554 354.48 69.0967 354.277 68.7793C354.081 68.4538 353.984 68.0591 353.984 67.5952L354.045 67.168L354.277 66.3257C354.374 65.9351 354.431 65.4793 354.448 64.9585C354.57 61.7277 354.663 59.8844 354.728 59.4287C354.794 58.973 355.086 58.7451 355.607 58.7451L357.426 59.0503C357.817 59.0503 358.325 58.9364 358.952 58.7085ZM381.84 63.6523V62.7124C381.84 61.5812 381.779 60.7552 381.657 60.2344C381.535 59.7054 381.474 59.3351 381.474 59.1235C381.474 58.6271 381.836 58.3789 382.56 58.3789C383.285 58.3789 383.81 58.5132 384.135 58.7817C384.225 58.855 384.339 58.9974 384.477 59.209C384.623 59.4206 384.754 59.5264 384.868 59.5264C384.892 59.5264 385.246 59.3188 385.93 58.9038C386.613 58.4888 387.199 58.2812 387.687 58.2812H387.871C388.269 58.2812 388.587 58.3789 388.823 58.5742C389.059 58.7614 389.177 58.9933 389.177 59.27V59.4287C389.177 59.7624 389.059 60.0024 388.823 60.1489C388.595 60.2954 388.229 60.3687 387.724 60.3687C386.577 60.3687 385.738 60.7715 385.209 61.5771C384.689 62.3828 384.428 63.807 384.428 65.8496C384.428 66.1426 384.477 66.5942 384.575 67.2046C384.68 67.8149 384.733 68.2747 384.733 68.584C384.733 68.8932 384.566 69.1903 384.233 69.4751C383.899 69.7599 383.476 69.9023 382.963 69.9023H382.548C382.101 69.9023 381.755 69.7965 381.511 69.585C381.275 69.3652 381.157 69.1007 381.157 68.7915C381.157 68.4741 381.214 68.1527 381.328 67.8271C381.637 66.9482 381.791 65.9798 381.791 64.9219C381.824 64.3359 381.84 63.9128 381.84 63.6523ZM392.631 69.7681C391.671 69.7681 391.191 69.4263 391.191 68.7427C391.191 68.4334 391.264 67.9736 391.411 67.3633C391.565 66.7529 391.667 66.1914 391.716 65.6787C391.765 65.1579 391.85 63.4814 391.972 60.6494C392.102 57.8174 392.167 56.0921 392.167 55.4736V54.0332L392.094 53.0078C392.094 52.6253 392.444 52.4341 393.144 52.4341C393.852 52.4341 394.312 52.7067 394.523 53.252C394.629 53.5286 394.682 54.432 394.682 55.9619C394.682 57.4919 394.711 58.3626 394.767 58.5742C394.833 58.7858 394.999 58.8916 395.268 58.8916C395.301 58.8916 395.455 58.8428 395.732 58.7451L396 58.6475C396.871 58.3057 397.624 58.1348 398.259 58.1348C399.593 58.1348 400.541 58.6556 401.103 59.6973C401.477 60.389 401.664 61.8945 401.664 64.2139C401.664 65.3044 401.673 65.9513 401.689 66.1548C401.705 66.3582 401.758 66.7285 401.848 67.2656C401.937 67.7946 401.982 68.0876 401.982 68.1445C401.982 68.6247 401.872 68.9827 401.652 69.2188C401.441 69.4466 401.054 69.5605 400.493 69.5605C399.939 69.5605 399.577 69.3896 399.406 69.0479C399.317 68.8688 399.272 68.3521 399.272 67.4976L399.235 65.3491L399.272 63.4082C399.272 61.2354 398.637 60.1489 397.368 60.1489C396.245 60.1489 395.443 60.6209 394.963 61.5649C394.483 62.509 394.243 64.2586 394.243 66.814L394.279 68.1445C394.279 68.6003 394.137 68.9868 393.852 69.3042C393.567 69.6134 393.16 69.7681 392.631 69.7681ZM409.086 69.9512C409.086 69.528 408.797 68.7874 408.22 67.7295C407.642 66.6634 407.158 65.6706 406.767 64.751C405.432 61.6178 404.765 59.8071 404.765 59.3188C404.765 59.0991 404.891 58.8997 405.143 58.7207C405.404 58.5417 405.835 58.4521 406.437 58.4521C407.04 58.4521 407.463 58.7085 407.707 59.2212C407.731 59.2782 407.817 59.6322 407.963 60.2832C409.07 64.3278 409.762 66.4478 410.038 66.6431C410.462 66.6431 411.039 65.6543 411.772 63.6768C412.268 62.334 412.573 61.2069 412.687 60.2954C412.809 59.384 412.907 58.859 412.98 58.7207C413.208 58.2975 413.68 58.0859 414.396 58.0859C415.121 58.0859 415.483 58.3667 415.483 58.9282C415.483 59.327 415.336 59.86 415.043 60.5273C414.75 61.1947 414.474 61.9189 414.213 62.7002C412.724 67.1598 411.646 69.9756 410.978 71.1475C410.311 72.3275 409.607 73.2552 408.867 73.9307C408.126 74.6143 407.381 74.9561 406.633 74.9561C405.892 74.9561 405.522 74.7445 405.522 74.3213C405.522 73.9469 405.9 73.6051 406.657 73.2959C407.422 72.9867 407.955 72.6286 408.256 72.2217C408.81 71.4811 409.086 70.7243 409.086 69.9512ZM424.138 68.6938C424.138 69.0194 423.938 69.3123 423.539 69.5728C423.149 69.825 422.616 69.9512 421.94 69.9512C420.679 69.9512 419.792 69.4832 419.279 68.5474C418.962 67.9614 418.803 66.5902 418.803 64.4336C418.803 62.277 418.767 61.0238 418.693 60.6738C418.62 60.3239 418.417 59.9821 418.083 59.6484C417.749 59.3148 417.582 59.0584 417.582 58.8794C417.582 58.8143 417.977 58.387 418.767 57.5977C418.937 57.4268 419.108 57.0483 419.279 56.4624C419.458 55.8765 419.584 55.4899 419.658 55.3027C419.902 54.7168 420.223 54.4238 420.622 54.4238H420.817C421.167 54.4238 421.415 54.5581 421.562 54.8267C421.619 54.9325 421.704 55.3149 421.818 55.9741C421.94 56.6252 422.079 57.0443 422.233 57.2314C422.388 57.4186 422.774 57.6261 423.393 57.854C424.02 58.0737 424.333 58.3097 424.333 58.562V58.6963C424.333 59.0218 423.975 59.2985 423.259 59.5264C422.551 59.7461 422.095 60.1001 421.892 60.5884C421.493 61.5731 421.293 63.1763 421.293 65.3979C421.293 66.4396 421.472 67.1476 421.83 67.522C422.05 67.7498 422.49 67.9085 423.149 67.998C423.808 68.0876 424.138 68.3195 424.138 68.6938ZM428.422 69.7681C427.462 69.7681 426.982 69.4263 426.982 68.7427C426.982 68.4334 427.055 67.9736 427.202 67.3633C427.356 66.7529 427.458 66.1914 427.507 65.6787C427.556 65.1579 427.641 63.4814 427.763 60.6494C427.893 57.8174 427.958 56.0921 427.958 55.4736V54.0332L427.885 53.0078C427.885 52.6253 428.235 52.4341 428.935 52.4341C429.643 52.4341 430.103 52.7067 430.314 53.252C430.42 53.5286 430.473 54.432 430.473 55.9619C430.473 57.4919 430.502 58.3626 430.559 58.5742C430.624 58.7858 430.79 58.8916 431.059 58.8916C431.092 58.8916 431.246 58.8428 431.523 58.7451L431.791 58.6475C432.662 58.3057 433.415 58.1348 434.05 58.1348C435.384 58.1348 436.332 58.6556 436.894 59.6973C437.268 60.389 437.455 61.8945 437.455 64.2139C437.455 65.3044 437.464 65.9513 437.48 66.1548C437.496 66.3582 437.549 66.7285 437.639 67.2656C437.728 67.7946 437.773 68.0876 437.773 68.1445C437.773 68.6247 437.663 68.9827 437.443 69.2188C437.232 69.4466 436.845 69.5605 436.284 69.5605C435.73 69.5605 435.368 69.3896 435.197 69.0479C435.108 68.8688 435.063 68.3521 435.063 67.4976L435.026 65.3491L435.063 63.4082C435.063 61.2354 434.428 60.1489 433.159 60.1489C432.036 60.1489 431.234 60.6209 430.754 61.5649C430.274 62.509 430.034 64.2586 430.034 66.814L430.07 68.1445C430.07 68.6003 429.928 68.9868 429.643 69.3042C429.358 69.6134 428.951 69.7681 428.422 69.7681ZM445.964 58.7085C446.59 58.4725 447.233 58.3545 447.892 58.3545C448.552 58.3545 449.235 58.5498 449.943 58.9404C450.659 59.3311 451.05 59.5264 451.115 59.5264C451.18 59.5264 451.62 59.327 452.434 58.9282C453.247 58.5295 453.98 58.3301 454.631 58.3301C455.29 58.3301 455.831 58.4684 456.254 58.7451C456.686 59.0137 457.011 59.3351 457.231 59.7095C457.646 60.4256 457.853 62.0166 457.853 64.4824C457.853 65.5892 457.862 66.224 457.878 66.3867C457.902 66.5413 457.959 66.8221 458.049 67.229C458.146 67.6278 458.195 67.9574 458.195 68.2178C458.195 68.4701 458.089 68.7345 457.878 69.0112C457.666 69.2879 457.385 69.4263 457.036 69.4263C456.344 69.4263 455.933 69.1455 455.803 68.584C455.705 68.1771 455.591 66.9889 455.461 65.0195C455.339 63.0501 455.204 61.8945 455.058 61.5527C454.765 60.8366 454.142 60.4785 453.19 60.4785C452.58 60.4785 452.104 60.861 451.762 61.626C451.266 62.7246 451.017 64.2871 451.017 66.3135L451.14 68.0713C451.14 68.6898 450.912 69.1577 450.456 69.4751C450.163 69.6785 449.772 69.7803 449.284 69.7803C448.804 69.7803 448.487 69.7314 448.332 69.6338C448.063 69.471 447.929 69.1252 447.929 68.5962C447.929 68.4985 448.006 68.0998 448.161 67.3999C448.324 66.6919 448.405 65.5444 448.405 63.9575C448.405 62.3625 448.287 61.3493 448.051 60.918C447.815 60.4785 447.404 60.2588 446.818 60.2588C446.232 60.2588 445.711 60.4582 445.256 60.8569C444.808 61.2557 444.479 61.6911 444.267 62.1631C444.064 62.6351 443.88 63.7581 443.718 65.5322C443.563 67.3063 443.453 68.3236 443.388 68.584C443.274 69.0316 442.945 69.2554 442.399 69.2554C441.862 69.2554 441.492 69.0967 441.288 68.7793C441.093 68.4538 440.996 68.0591 440.996 67.5952L441.057 67.168L441.288 66.3257C441.386 65.9351 441.443 65.4793 441.459 64.9585C441.581 61.7277 441.675 59.8844 441.74 59.4287C441.805 58.973 442.098 58.7451 442.619 58.7451L444.438 59.0503C444.829 59.0503 445.337 58.9364 445.964 58.7085ZM462.98 70.1953H462.602C462.195 70.1953 461.878 70.1017 461.65 69.9146C461.43 69.7274 461.32 69.4792 461.32 69.1699C461.304 69.1048 461.296 69.0519 461.296 69.0112L461.271 68.8037V68.584L461.284 68.5352V68.4253C461.3 68.3602 461.308 68.3073 461.308 68.2666C461.308 67.9004 461.43 67.6156 461.674 67.4121C461.927 67.2005 462.203 67.0947 462.504 67.0947L462.761 67.0581H463.09C463.977 67.0581 464.421 67.522 464.421 68.4497V68.6206L464.372 69.0356C464.372 69.41 464.23 69.6989 463.945 69.9023C463.668 70.0977 463.347 70.1953 462.98 70.1953Z" fill="black"/>
</svg>
