<svg width="758" height="87" viewBox="0 0 758 87" fill="none" xmlns="http://www.w3.org/2000/svg">
<rect width="758" height="87" rx="18" fill="#D9D9D9"/>
<path d="M42.045 54.1172C41.695 54.1172 41.52 53.9422 41.52 53.5922V49.3922C41.52 49.0422 41.695 48.8672 42.045 48.8672H50.865V42.5672H43.788C43.438 42.5672 43.263 42.3922 43.263 42.0422V37.8422C43.263 37.4922 43.438 37.3172 43.788 37.3172H50.865V31.7102H42.045C41.695 31.7102 41.52 31.5352 41.52 31.1852V26.6492C41.52 26.2992 41.695 26.1242 42.045 26.1242H52.482C52.804 26.1242 53.084 26.2362 53.322 26.4602L57.522 30.6602C57.746 30.8982 57.858 31.1782 57.858 31.5002V35.7002C57.858 35.9942 57.788 36.2042 57.648 36.3302L54.918 39.4592V40.7822L57.648 43.8902C57.788 44.0302 57.858 44.2402 57.858 44.5202V48.7202C57.858 49.0562 57.746 49.3362 57.522 49.5602L53.322 53.7602C53.084 53.9982 52.804 54.1172 52.482 54.1172H42.045Z" fill="#2ECC71"/>
<path d="M78.3638 33.2793L78.1562 31.0942C78.1562 30.9233 78.2661 30.7524 78.4858 30.5815C78.7056 30.4025 79.0311 30.313 79.4624 30.313C80.4471 30.313 81.2406 30.7646 81.8428 31.668C82.4531 32.5713 83.3971 34.6221 84.6748 37.8203C85.2282 39.1712 85.5537 39.9362 85.6514 40.1152L85.9199 40.4692C86.099 40.4692 86.8965 39.1427 88.3125 36.4897C89.7285 33.8286 90.6115 32.2539 90.9614 31.7656C91.6613 30.7891 92.5524 30.3008 93.6348 30.3008C94.3997 30.3008 94.7822 30.5815 94.7822 31.1431L94.709 31.5459L94.5991 32.0342C94.5096 32.5306 94.4486 33.6374 94.416 35.3545C94.3835 37.0635 94.3346 38.7806 94.2695 40.5059L94.2085 42.4346C94.2085 43.2565 94.2533 43.8343 94.3428 44.168L94.5137 44.644C94.6764 45.0835 94.7578 45.4131 94.7578 45.6328C94.7578 45.8444 94.6398 46.0438 94.4038 46.231C94.1678 46.4181 93.9033 46.5117 93.6104 46.5117H93.1465C92.7314 46.5117 92.3571 46.3449 92.0234 46.0112C91.6898 45.6776 91.5229 45.3276 91.5229 44.9614C91.5229 44.5871 91.5596 44.0296 91.6328 43.2891C91.7142 42.5485 91.7549 40.9657 91.7549 38.5405C91.7549 36.1073 91.6816 34.8906 91.5352 34.8906C91.3154 34.8906 90.5545 36.2741 89.2524 39.041C87.9585 41.8079 87.1325 43.46 86.7744 43.9971C86.4163 44.5342 86.0176 44.8027 85.5781 44.8027C85.1468 44.8027 84.7725 44.4976 84.4551 43.8872C84.333 43.6512 83.7552 42.105 82.7217 39.2485C81.6963 36.384 81.0615 34.9517 80.8174 34.9517C80.7116 34.9517 80.6099 35.0941 80.5122 35.3789C80.4227 35.6556 80.2559 36.9414 80.0117 39.2363C79.7757 41.5312 79.6577 43.0775 79.6577 43.875C79.6577 44.6644 79.5275 45.2585 79.2671 45.6572C79.0067 46.0479 78.555 46.2432 77.9121 46.2432C77.2692 46.2432 76.9478 45.9339 76.9478 45.3154C76.9478 45.234 77.0658 44.8841 77.3018 44.2656C77.5378 43.6471 77.6965 42.9595 77.7778 42.2026C78.1685 38.6138 78.3638 35.6393 78.3638 33.2793ZM100.227 39.5781V39.7734C100.227 40.0176 100.45 40.1396 100.898 40.1396H101.191L101.264 40.1274L101.862 40.0786C102.489 39.9891 102.896 39.9443 103.083 39.9443C103.97 39.9443 104.637 39.7775 105.085 39.4438C105.297 39.2811 105.402 38.9922 105.402 38.5771V38.4429C105.402 37.8325 105.199 37.3483 104.792 36.9902C104.393 36.6322 103.913 36.4531 103.352 36.4531H103.266L103.193 36.4653C102.403 36.4653 101.712 36.799 101.118 37.4663C100.524 38.1336 100.227 38.8376 100.227 39.5781ZM102.888 47.1587H102.619C101.065 47.1587 99.8278 46.6663 98.9082 45.6816C97.9886 44.6888 97.5288 43.3664 97.5288 41.7144V41.1772C97.5288 40.3879 97.6834 39.5863 97.9927 38.7725C98.6193 37.1449 99.6406 36.0218 101.057 35.4033C101.805 35.0697 102.566 34.9028 103.339 34.9028H103.864C104.93 34.9028 105.83 35.2609 106.562 35.9771C107.303 36.6851 107.673 37.6006 107.673 38.7236V38.9678C107.673 39.7653 107.355 40.3309 106.721 40.6646C106.281 40.9006 105.256 41.1366 103.645 41.3726C102.033 41.6086 101.154 41.751 101.008 41.7998C100.52 41.9707 100.275 42.2962 100.275 42.7764C100.275 43.4437 100.56 44.0133 101.13 44.4854C101.7 44.9574 102.465 45.1934 103.425 45.1934C103.872 45.1934 104.483 45.0713 105.256 44.8271C106.029 44.583 106.477 44.4609 106.599 44.4609C107.014 44.4609 107.221 44.64 107.221 44.998C107.221 45.4782 106.753 45.9583 105.817 46.4385C104.882 46.9186 103.905 47.1587 102.888 47.1587ZM112.556 39.5781V39.7734C112.556 40.0176 112.779 40.1396 113.227 40.1396H113.52L113.593 40.1274L114.191 40.0786C114.818 39.9891 115.225 39.9443 115.412 39.9443C116.299 39.9443 116.966 39.7775 117.414 39.4438C117.626 39.2811 117.731 38.9922 117.731 38.5771V38.4429C117.731 37.8325 117.528 37.3483 117.121 36.9902C116.722 36.6322 116.242 36.4531 115.681 36.4531H115.595L115.522 36.4653C114.733 36.4653 114.041 36.799 113.447 37.4663C112.853 38.1336 112.556 38.8376 112.556 39.5781ZM115.217 47.1587H114.948C113.394 47.1587 112.157 46.6663 111.237 45.6816C110.318 44.6888 109.858 43.3664 109.858 41.7144V41.1772C109.858 40.3879 110.013 39.5863 110.322 38.7725C110.948 37.1449 111.97 36.0218 113.386 35.4033C114.134 35.0697 114.895 34.9028 115.668 34.9028H116.193C117.259 34.9028 118.159 35.2609 118.891 35.9771C119.632 36.6851 120.002 37.6006 120.002 38.7236V38.9678C120.002 39.7653 119.685 40.3309 119.05 40.6646C118.61 40.9006 117.585 41.1366 115.974 41.3726C114.362 41.6086 113.483 41.751 113.337 41.7998C112.849 41.9707 112.604 42.2962 112.604 42.7764C112.604 43.4437 112.889 44.0133 113.459 44.4854C114.029 44.9574 114.794 45.1934 115.754 45.1934C116.201 45.1934 116.812 45.0713 117.585 44.8271C118.358 44.583 118.806 44.4609 118.928 44.4609C119.343 44.4609 119.55 44.64 119.55 44.998C119.55 45.4782 119.082 45.9583 118.146 46.4385C117.211 46.9186 116.234 47.1587 115.217 47.1587ZM129.035 45.6938C129.035 46.0194 128.836 46.3123 128.437 46.5728C128.046 46.825 127.513 46.9512 126.838 46.9512C125.576 46.9512 124.689 46.4832 124.177 45.5474C123.859 44.9614 123.701 43.5902 123.701 41.4336C123.701 39.277 123.664 38.0238 123.591 37.6738C123.518 37.3239 123.314 36.9821 122.98 36.6484C122.647 36.3148 122.48 36.0584 122.48 35.8794C122.48 35.8143 122.875 35.387 123.664 34.5977C123.835 34.4268 124.006 34.0483 124.177 33.4624C124.356 32.8765 124.482 32.4899 124.555 32.3027C124.799 31.7168 125.121 31.4238 125.52 31.4238H125.715C126.065 31.4238 126.313 31.5581 126.459 31.8267C126.516 31.9325 126.602 32.3149 126.716 32.9741C126.838 33.6252 126.976 34.0443 127.131 34.2314C127.285 34.4186 127.672 34.6261 128.291 34.854C128.917 35.0737 129.23 35.3097 129.23 35.562V35.6963C129.23 36.0218 128.872 36.2985 128.156 36.5264C127.448 36.7461 126.993 37.1001 126.789 37.5884C126.39 38.5731 126.191 40.1763 126.191 42.3979C126.191 43.4396 126.37 44.1476 126.728 44.522C126.948 44.7498 127.387 44.9085 128.046 44.998C128.706 45.0876 129.035 45.3195 129.035 45.6938ZM132.746 40.1885C132.25 39.6839 132.001 38.9759 132.001 38.0645C132.001 37.153 132.408 36.3717 133.222 35.7207C134.036 35.0615 135.045 34.7319 136.25 34.7319H136.567C137.633 34.7319 138.479 34.8825 139.106 35.1836C139.741 35.4847 140.058 35.9364 140.058 36.5386C140.058 37.1326 139.794 37.4297 139.265 37.4297C139.126 37.4297 138.736 37.2669 138.093 36.9414C137.45 36.6077 136.844 36.4409 136.274 36.4409C135.704 36.4409 135.244 36.5711 134.895 36.8315C134.553 37.0838 134.382 37.4338 134.382 37.8813C134.382 38.3289 134.622 38.7196 135.102 39.0532C135.379 39.2485 136.03 39.5578 137.055 39.981C138.089 40.4041 138.825 40.811 139.265 41.2017C139.973 41.8283 140.327 42.6299 140.327 43.6064C140.327 44.583 139.912 45.4212 139.082 46.1211C138.251 46.8128 137.173 47.1587 135.847 47.1587H135.529C134.195 47.1587 133.194 46.9674 132.526 46.585C131.859 46.1943 131.525 45.6898 131.525 45.0713C131.525 44.4447 131.786 44.1313 132.307 44.1313C132.478 44.1313 132.921 44.3511 133.637 44.7905C134.361 45.23 135.069 45.4497 135.761 45.4497C136.461 45.4497 136.986 45.3032 137.336 45.0103C137.686 44.7091 137.861 44.3348 137.861 43.8872C137.861 43.4315 137.641 43.0327 137.202 42.6909C136.966 42.5037 136.29 42.166 135.175 41.6777C134.06 41.1813 133.251 40.6849 132.746 40.1885ZM149.421 41.9219V41.3604C149.421 40.335 149.58 39.4276 149.897 38.6382C150.507 37.1082 151.443 36.0503 152.705 35.4644C153.527 35.0737 154.377 34.8784 155.256 34.8784H155.524C156.493 34.8784 157.294 35.0697 157.929 35.4521C158.564 35.8346 158.881 36.3026 158.881 36.856C158.881 37.4989 158.572 37.8203 157.954 37.8203C157.84 37.8203 157.441 37.6413 156.757 37.2832C156.074 36.9333 155.512 36.7583 155.073 36.7583C155.065 36.7583 155.056 36.7583 155.048 36.7583C154.088 36.7583 153.335 37.1733 152.79 38.0034C152.253 38.8335 151.984 39.9159 151.984 41.2505C151.984 42.5851 152.269 43.5739 152.839 44.2168C153.417 44.8597 154.218 45.1812 155.244 45.1812C155.667 45.1812 156.249 45.0632 156.989 44.8271C157.73 44.583 158.181 44.4609 158.344 44.4609C158.678 44.4609 158.845 44.6359 158.845 44.9858C158.845 45.4578 158.377 45.9339 157.441 46.4141C156.505 46.8942 155.585 47.1343 154.682 47.1343C152.265 47.1343 150.666 46.1821 149.885 44.2778C149.576 43.521 149.421 42.7357 149.421 41.9219ZM162.128 30.0322C162.128 29.4382 162.686 29.1411 163.801 29.1411H164.021C164.484 29.1411 164.802 29.255 164.973 29.4829C165.144 29.7026 165.229 30.134 165.229 30.7769L165.131 32.5957C165.107 32.8805 165.095 33.0352 165.095 33.0596L165.07 33.5234C165.054 33.8245 165.038 34.1297 165.021 34.439L164.985 34.9028L164.948 35.5986C164.818 38.0726 164.753 39.8996 164.753 41.0796C164.753 42.2515 164.806 43.0938 164.912 43.6064C165.017 44.1191 165.184 44.5545 165.412 44.9126C165.64 45.2707 165.754 45.5067 165.754 45.6206V45.7671C165.754 46.1252 165.575 46.41 165.217 46.6216C164.867 46.8332 164.391 46.939 163.789 46.939H163.154C162.779 46.939 162.45 46.8332 162.165 46.6216C161.888 46.4019 161.75 46.1536 161.75 45.877V45.5474L161.823 45.0347C161.921 44.3267 161.978 43.7977 161.994 43.4478C162.019 43.0897 162.055 42.5973 162.104 41.9707C162.153 41.3359 162.23 39.9891 162.336 37.9302C162.45 35.8631 162.507 34.7523 162.507 34.5977L162.556 33.6821L162.58 32.7788C162.58 31.9162 162.503 31.3018 162.348 30.9355C162.202 30.5612 162.128 30.2601 162.128 30.0322ZM170.808 39.5781V39.7734C170.808 40.0176 171.031 40.1396 171.479 40.1396H171.772L171.845 40.1274L172.443 40.0786C173.07 39.9891 173.477 39.9443 173.664 39.9443C174.551 39.9443 175.218 39.7775 175.666 39.4438C175.878 39.2811 175.983 38.9922 175.983 38.5771V38.4429C175.983 37.8325 175.78 37.3483 175.373 36.9902C174.974 36.6322 174.494 36.4531 173.933 36.4531H173.847L173.774 36.4653C172.985 36.4653 172.293 36.799 171.699 37.4663C171.105 38.1336 170.808 38.8376 170.808 39.5781ZM173.469 47.1587H173.2C171.646 47.1587 170.409 46.6663 169.489 45.6816C168.57 44.6888 168.11 43.3664 168.11 41.7144V41.1772C168.11 40.3879 168.264 39.5863 168.574 38.7725C169.2 37.1449 170.222 36.0218 171.638 35.4033C172.386 35.0697 173.147 34.9028 173.92 34.9028H174.445C175.511 34.9028 176.411 35.2609 177.143 35.9771C177.884 36.6851 178.254 37.6006 178.254 38.7236V38.9678C178.254 39.7653 177.937 40.3309 177.302 40.6646C176.862 40.9006 175.837 41.1366 174.226 41.3726C172.614 41.6086 171.735 41.751 171.589 41.7998C171.101 41.9707 170.856 42.2962 170.856 42.7764C170.856 43.4437 171.141 44.0133 171.711 44.4854C172.281 44.9574 173.046 45.1934 174.006 45.1934C174.453 45.1934 175.064 45.0713 175.837 44.8271C176.61 44.583 177.058 44.4609 177.18 44.4609C177.595 44.4609 177.802 44.64 177.802 44.998C177.802 45.4782 177.334 45.9583 176.398 46.4385C175.463 46.9186 174.486 47.1587 173.469 47.1587ZM184.809 45.4619H185.126C185.794 45.4619 186.38 45.2381 186.884 44.7905C187.397 44.3348 187.653 43.8099 187.653 43.2158L187.678 43.0571V42.8984L187.702 42.52V41.8242C187.702 41.3522 187.462 41.1162 186.982 41.1162H186.433L186.347 41.1284L185.871 41.165C185.643 41.1976 185.48 41.2139 185.383 41.2139C184.724 41.2139 184.113 41.4621 183.552 41.9585C183.161 42.3084 182.966 42.8049 182.966 43.4478V43.6919C182.966 44.2371 183.141 44.6685 183.491 44.9858C183.849 45.3032 184.288 45.4619 184.809 45.4619ZM182.087 37.6616C181.542 37.6616 181.269 37.3117 181.269 36.6118C181.269 36.091 181.708 35.6393 182.587 35.2568C183.474 34.8662 184.394 34.6709 185.346 34.6709H185.957C186.778 34.6709 187.503 34.8255 188.129 35.1348C188.756 35.4359 189.232 35.8468 189.558 36.3677C189.891 36.8885 190.095 37.568 190.168 38.4062C190.184 38.6016 190.192 39.5496 190.192 41.2505C190.192 42.9513 190.213 43.932 190.253 44.1924C190.302 44.4447 190.432 44.7539 190.644 45.1201C190.864 45.4863 190.974 45.7874 190.974 46.0234C190.974 46.2594 190.86 46.4629 190.632 46.6338C190.412 46.7965 190.091 46.8779 189.667 46.8779C189.244 46.8779 188.785 46.7762 188.288 46.5728C187.792 46.3612 187.43 46.2554 187.202 46.2554C187.177 46.2554 186.77 46.4019 185.981 46.6948C185.192 46.9797 184.524 47.1221 183.979 47.1221H183.71C182.799 47.1221 182.022 46.8332 181.379 46.2554C180.744 45.6776 180.427 44.8556 180.427 43.7896C180.427 42.7235 180.777 41.8934 181.477 41.2993C182.176 40.6971 183.027 40.2861 184.028 40.0664C184.329 40.0013 184.829 39.9159 185.529 39.8101C186.229 39.7043 186.705 39.5944 186.958 39.4805C187.397 39.277 187.617 38.8945 187.617 38.333C187.617 37.7633 187.43 37.3198 187.055 37.0024C186.681 36.6769 186.233 36.5142 185.712 36.5142C185.2 36.5142 184.524 36.7054 183.686 37.0879C182.848 37.4704 182.315 37.6616 182.087 37.6616ZM205.024 45.5352C205.024 46.1374 204.499 46.4385 203.449 46.4385C202.855 46.4385 202.456 46.2961 202.253 46.0112C202.155 45.8729 202.106 45.5474 202.106 45.0347L202.07 44.2534C202.013 43.3989 201.984 42.5404 201.984 41.6777C201.984 39.8141 201.822 38.5649 201.496 37.9302C201.179 37.2873 200.642 36.9658 199.885 36.9658C199.38 36.9658 198.912 37.1164 198.481 37.4175C198.058 37.7186 197.732 38.1377 197.504 38.6748C197.032 39.7734 196.796 41.8039 196.796 44.7661C196.796 45.4416 196.666 45.9176 196.406 46.1943C196.153 46.471 195.828 46.6094 195.429 46.6094H195.185C194.274 46.6094 193.818 46.2472 193.818 45.5229V45.23C193.818 45.1405 193.867 44.9451 193.964 44.644L194.16 44.0825C194.355 43.4233 194.453 42.0114 194.453 39.8467L194.514 36.2212C194.514 35.7573 194.766 35.5254 195.271 35.5254C195.775 35.5254 196.271 35.6922 196.76 36.0259C197.256 36.3595 197.569 36.5264 197.7 36.5264C197.838 36.5264 198.078 36.4328 198.42 36.2456C199.567 35.619 200.487 35.3057 201.179 35.3057H201.496C202.741 35.3057 203.616 35.8672 204.121 36.9902C204.365 37.5192 204.487 38.6585 204.487 40.4082V40.4937C204.487 40.6401 204.483 40.7866 204.475 40.9331C204.475 41.3319 204.475 41.5394 204.475 41.5557C204.475 41.7103 204.475 41.8608 204.475 42.0073C204.475 42.1213 204.475 42.2311 204.475 42.3369C204.475 42.9635 204.495 43.3908 204.536 43.6187C204.593 43.9279 204.686 44.2493 204.816 44.583C204.955 44.9492 205.024 45.2666 205.024 45.5352ZM208.54 30.0322C208.54 29.4382 209.097 29.1411 210.212 29.1411H210.432C210.896 29.1411 211.213 29.255 211.384 29.4829C211.555 29.7026 211.64 30.134 211.64 30.7769L211.542 32.5957C211.518 32.8805 211.506 33.0352 211.506 33.0596L211.481 33.5234C211.465 33.8245 211.449 34.1297 211.433 34.439L211.396 34.9028L211.359 35.5986C211.229 38.0726 211.164 39.8996 211.164 41.0796C211.164 42.2515 211.217 43.0938 211.323 43.6064C211.429 44.1191 211.595 44.5545 211.823 44.9126C212.051 45.2707 212.165 45.5067 212.165 45.6206V45.7671C212.165 46.1252 211.986 46.41 211.628 46.6216C211.278 46.8332 210.802 46.939 210.2 46.939H209.565C209.191 46.939 208.861 46.8332 208.576 46.6216C208.299 46.4019 208.161 46.1536 208.161 45.877V45.5474L208.234 45.0347C208.332 44.3267 208.389 43.7977 208.405 43.4478C208.43 43.0897 208.466 42.5973 208.515 41.9707C208.564 41.3359 208.641 39.9891 208.747 37.9302C208.861 35.8631 208.918 34.7523 208.918 34.5977L208.967 33.6821L208.991 32.7788C208.991 31.9162 208.914 31.3018 208.759 30.9355C208.613 30.5612 208.54 30.2601 208.54 30.0322ZM219.013 31.1309V31.2773C219.013 31.6924 218.891 32.0464 218.647 32.3394C218.411 32.6242 218.045 32.7666 217.548 32.7666H217.353L216.975 32.7178C216.755 32.7178 216.543 32.616 216.34 32.4126C216.136 32.2091 216.035 31.904 216.035 31.4971V31.3506L216.096 30.9111C216.096 30.7402 216.197 30.5286 216.401 30.2764C216.612 30.0241 216.881 29.8979 217.207 29.8979L217.487 29.8613H217.731L218.073 29.9102C218.285 29.9102 218.492 30.016 218.696 30.2275C218.907 30.431 219.013 30.7321 219.013 31.1309ZM218.439 36.2822L218.305 39.5659L218.281 39.8955L218.244 40.8965V41.3726C218.244 42.5444 218.277 43.3135 218.342 43.6797C218.415 44.0459 218.549 44.404 218.745 44.7539C218.94 45.0957 219.038 45.3439 219.038 45.4985V45.6084C219.038 46.0072 218.834 46.3245 218.427 46.5605C218.02 46.7965 217.467 46.9146 216.767 46.9146H216.462C216.055 46.9146 215.746 46.825 215.534 46.646C215.323 46.4588 215.217 46.2594 215.217 46.0479V45.7793C215.217 45.6735 215.31 45.2992 215.498 44.6562C215.685 44.0052 215.778 43.1222 215.778 42.0073C215.803 41.6899 215.815 41.4702 215.815 41.3481L215.852 40.6768L215.876 40.3472C215.917 39.7775 215.937 39.334 215.937 39.0166L215.949 38.5283C215.949 37.918 215.847 37.3768 215.644 36.9048C215.449 36.4328 215.351 36.1398 215.351 36.0259C215.351 35.4399 215.904 35.147 217.011 35.147H217.451C217.866 35.147 218.134 35.2568 218.256 35.4766C218.378 35.6882 218.439 35.9567 218.439 36.2822ZM233.247 45.5352C233.247 46.1374 232.722 46.4385 231.672 46.4385C231.078 46.4385 230.679 46.2961 230.476 46.0112C230.378 45.8729 230.329 45.5474 230.329 45.0347L230.292 44.2534C230.236 43.3989 230.207 42.5404 230.207 41.6777C230.207 39.8141 230.044 38.5649 229.719 37.9302C229.401 37.2873 228.864 36.9658 228.107 36.9658C227.603 36.9658 227.135 37.1164 226.704 37.4175C226.28 37.7186 225.955 38.1377 225.727 38.6748C225.255 39.7734 225.019 41.8039 225.019 44.7661C225.019 45.4416 224.889 45.9176 224.628 46.1943C224.376 46.471 224.051 46.6094 223.652 46.6094H223.408C222.496 46.6094 222.041 46.2472 222.041 45.5229V45.23C222.041 45.1405 222.089 44.9451 222.187 44.644L222.382 44.0825C222.578 43.4233 222.675 42.0114 222.675 39.8467L222.736 36.2212C222.736 35.7573 222.989 35.5254 223.493 35.5254C223.998 35.5254 224.494 35.6922 224.982 36.0259C225.479 36.3595 225.792 36.5264 225.922 36.5264C226.061 36.5264 226.301 36.4328 226.643 36.2456C227.79 35.619 228.71 35.3057 229.401 35.3057H229.719C230.964 35.3057 231.839 35.8672 232.343 36.9902C232.587 37.5192 232.709 38.6585 232.709 40.4082V40.4937C232.709 40.6401 232.705 40.7866 232.697 40.9331C232.697 41.3319 232.697 41.5394 232.697 41.5557C232.697 41.7103 232.697 41.8608 232.697 42.0073C232.697 42.1213 232.697 42.2311 232.697 42.3369C232.697 42.9635 232.718 43.3908 232.758 43.6187C232.815 43.9279 232.909 44.2493 233.039 44.583C233.177 44.9492 233.247 45.2666 233.247 45.5352ZM238.312 39.5781V39.7734C238.312 40.0176 238.536 40.1396 238.984 40.1396H239.277L239.35 40.1274L239.948 40.0786C240.575 39.9891 240.982 39.9443 241.169 39.9443C242.056 39.9443 242.723 39.7775 243.171 39.4438C243.382 39.2811 243.488 38.9922 243.488 38.5771V38.4429C243.488 37.8325 243.285 37.3483 242.878 36.9902C242.479 36.6322 241.999 36.4531 241.438 36.4531H241.352L241.279 36.4653C240.489 36.4653 239.798 36.799 239.204 37.4663C238.61 38.1336 238.312 38.8376 238.312 39.5781ZM240.974 47.1587H240.705C239.151 47.1587 237.914 46.6663 236.994 45.6816C236.075 44.6888 235.615 43.3664 235.615 41.7144V41.1772C235.615 40.3879 235.769 39.5863 236.079 38.7725C236.705 37.1449 237.727 36.0218 239.143 35.4033C239.891 35.0697 240.652 34.9028 241.425 34.9028H241.95C243.016 34.9028 243.916 35.2609 244.648 35.9771C245.389 36.6851 245.759 37.6006 245.759 38.7236V38.9678C245.759 39.7653 245.441 40.3309 244.807 40.6646C244.367 40.9006 243.342 41.1366 241.73 41.3726C240.119 41.6086 239.24 41.751 239.094 41.7998C238.605 41.9707 238.361 42.2962 238.361 42.7764C238.361 43.4437 238.646 44.0133 239.216 44.4854C239.785 44.9574 240.55 45.1934 241.511 45.1934C241.958 45.1934 242.569 45.0713 243.342 44.8271C244.115 44.583 244.562 44.4609 244.685 44.4609C245.1 44.4609 245.307 44.64 245.307 44.998C245.307 45.4782 244.839 45.9583 243.903 46.4385C242.967 46.9186 241.991 47.1587 240.974 47.1587ZM249.274 40.1885C248.778 39.6839 248.53 38.9759 248.53 38.0645C248.53 37.153 248.937 36.3717 249.75 35.7207C250.564 35.0615 251.573 34.7319 252.778 34.7319H253.095C254.161 34.7319 255.008 34.8825 255.634 35.1836C256.269 35.4847 256.586 35.9364 256.586 36.5386C256.586 37.1326 256.322 37.4297 255.793 37.4297C255.655 37.4297 255.264 37.2669 254.621 36.9414C253.978 36.6077 253.372 36.4409 252.802 36.4409C252.233 36.4409 251.773 36.5711 251.423 36.8315C251.081 37.0838 250.91 37.4338 250.91 37.8813C250.91 38.3289 251.15 38.7196 251.63 39.0532C251.907 39.2485 252.558 39.5578 253.583 39.981C254.617 40.4041 255.354 40.811 255.793 41.2017C256.501 41.8283 256.855 42.6299 256.855 43.6064C256.855 44.583 256.44 45.4212 255.61 46.1211C254.78 46.8128 253.701 47.1587 252.375 47.1587H252.058C250.723 47.1587 249.722 46.9674 249.055 46.585C248.387 46.1943 248.054 45.6898 248.054 45.0713C248.054 44.4447 248.314 44.1313 248.835 44.1313C249.006 44.1313 249.449 44.3511 250.166 44.7905C250.89 45.23 251.598 45.4497 252.29 45.4497C252.989 45.4497 253.514 45.3032 253.864 45.0103C254.214 44.7091 254.389 44.3348 254.389 43.8872C254.389 43.4315 254.169 43.0327 253.73 42.6909C253.494 42.5037 252.819 42.166 251.704 41.6777C250.589 41.1813 249.779 40.6849 249.274 40.1885ZM260.334 40.1885C259.838 39.6839 259.589 38.9759 259.589 38.0645C259.589 37.153 259.996 36.3717 260.81 35.7207C261.624 35.0615 262.633 34.7319 263.837 34.7319H264.155C265.221 34.7319 266.067 34.8825 266.694 35.1836C267.329 35.4847 267.646 35.9364 267.646 36.5386C267.646 37.1326 267.382 37.4297 266.853 37.4297C266.714 37.4297 266.324 37.2669 265.681 36.9414C265.038 36.6077 264.431 36.4409 263.862 36.4409C263.292 36.4409 262.832 36.5711 262.482 36.8315C262.141 37.0838 261.97 37.4338 261.97 37.8813C261.97 38.3289 262.21 38.7196 262.69 39.0532C262.967 39.2485 263.618 39.5578 264.643 39.981C265.677 40.4041 266.413 40.811 266.853 41.2017C267.561 41.8283 267.915 42.6299 267.915 43.6064C267.915 44.583 267.5 45.4212 266.669 46.1211C265.839 46.8128 264.761 47.1587 263.435 47.1587H263.117C261.783 47.1587 260.782 46.9674 260.114 46.585C259.447 46.1943 259.113 45.6898 259.113 45.0713C259.113 44.4447 259.374 44.1313 259.895 44.1313C260.065 44.1313 260.509 44.3511 261.225 44.7905C261.949 45.23 262.657 45.4497 263.349 45.4497C264.049 45.4497 264.574 45.3032 264.924 45.0103C265.274 44.7091 265.449 44.3348 265.449 43.8872C265.449 43.4315 265.229 43.0327 264.79 42.6909C264.554 42.5037 263.878 42.166 262.763 41.6777C261.648 41.1813 260.839 40.6849 260.334 40.1885ZM278.303 40.1885C277.806 39.6839 277.558 38.9759 277.558 38.0645C277.558 37.153 277.965 36.3717 278.779 35.7207C279.593 35.0615 280.602 34.7319 281.806 34.7319H282.124C283.19 34.7319 284.036 34.8825 284.663 35.1836C285.297 35.4847 285.615 35.9364 285.615 36.5386C285.615 37.1326 285.35 37.4297 284.821 37.4297C284.683 37.4297 284.292 37.2669 283.649 36.9414C283.007 36.6077 282.4 36.4409 281.831 36.4409C281.261 36.4409 280.801 36.5711 280.451 36.8315C280.109 37.0838 279.938 37.4338 279.938 37.8813C279.938 38.3289 280.179 38.7196 280.659 39.0532C280.935 39.2485 281.586 39.5578 282.612 39.981C283.645 40.4041 284.382 40.811 284.821 41.2017C285.529 41.8283 285.883 42.6299 285.883 43.6064C285.883 44.583 285.468 45.4212 284.638 46.1211C283.808 46.8128 282.73 47.1587 281.403 47.1587H281.086C279.751 47.1587 278.75 46.9674 278.083 46.585C277.416 46.1943 277.082 45.6898 277.082 45.0713C277.082 44.4447 277.342 44.1313 277.863 44.1313C278.034 44.1313 278.478 44.3511 279.194 44.7905C279.918 45.23 280.626 45.4497 281.318 45.4497C282.018 45.4497 282.543 45.3032 282.893 45.0103C283.243 44.7091 283.417 44.3348 283.417 43.8872C283.417 43.4315 283.198 43.0327 282.758 42.6909C282.522 42.5037 281.847 42.166 280.732 41.6777C279.617 41.1813 278.807 40.6849 278.303 40.1885ZM294.88 45.6938C294.88 46.0194 294.681 46.3123 294.282 46.5728C293.891 46.825 293.358 46.9512 292.683 46.9512C291.421 46.9512 290.534 46.4832 290.021 45.5474C289.704 44.9614 289.545 43.5902 289.545 41.4336C289.545 39.277 289.509 38.0238 289.436 37.6738C289.362 37.3239 289.159 36.9821 288.825 36.6484C288.492 36.3148 288.325 36.0584 288.325 35.8794C288.325 35.8143 288.719 35.387 289.509 34.5977C289.68 34.4268 289.851 34.0483 290.021 33.4624C290.201 32.8765 290.327 32.4899 290.4 32.3027C290.644 31.7168 290.965 31.4238 291.364 31.4238H291.56C291.91 31.4238 292.158 31.5581 292.304 31.8267C292.361 31.9325 292.447 32.3149 292.561 32.9741C292.683 33.6252 292.821 34.0443 292.976 34.2314C293.13 34.4186 293.517 34.6261 294.135 34.854C294.762 35.0737 295.075 35.3097 295.075 35.562V35.6963C295.075 36.0218 294.717 36.2985 294.001 36.5264C293.293 36.7461 292.837 37.1001 292.634 37.5884C292.235 38.5731 292.036 40.1763 292.036 42.3979C292.036 43.4396 292.215 44.1476 292.573 44.522C292.792 44.7498 293.232 44.9085 293.891 44.998C294.55 45.0876 294.88 45.3195 294.88 45.6938ZM301.533 45.4619H301.85C302.517 45.4619 303.103 45.2381 303.608 44.7905C304.121 44.3348 304.377 43.8099 304.377 43.2158L304.401 43.0571V42.8984L304.426 42.52V41.8242C304.426 41.3522 304.186 41.1162 303.706 41.1162H303.156L303.071 41.1284L302.595 41.165C302.367 41.1976 302.204 41.2139 302.106 41.2139C301.447 41.2139 300.837 41.4621 300.275 41.9585C299.885 42.3084 299.689 42.8049 299.689 43.4478V43.6919C299.689 44.2371 299.864 44.6685 300.214 44.9858C300.572 45.3032 301.012 45.4619 301.533 45.4619ZM298.811 37.6616C298.265 37.6616 297.993 37.3117 297.993 36.6118C297.993 36.091 298.432 35.6393 299.311 35.2568C300.198 34.8662 301.118 34.6709 302.07 34.6709H302.68C303.502 34.6709 304.226 34.8255 304.853 35.1348C305.48 35.4359 305.956 35.8468 306.281 36.3677C306.615 36.8885 306.818 37.568 306.892 38.4062C306.908 38.6016 306.916 39.5496 306.916 41.2505C306.916 42.9513 306.936 43.932 306.977 44.1924C307.026 44.4447 307.156 44.7539 307.368 45.1201C307.587 45.4863 307.697 45.7874 307.697 46.0234C307.697 46.2594 307.583 46.4629 307.355 46.6338C307.136 46.7965 306.814 46.8779 306.391 46.8779C305.968 46.8779 305.508 46.7762 305.012 46.5728C304.515 46.3612 304.153 46.2554 303.925 46.2554C303.901 46.2554 303.494 46.4019 302.705 46.6948C301.915 46.9797 301.248 47.1221 300.703 47.1221H300.434C299.523 47.1221 298.745 46.8332 298.103 46.2554C297.468 45.6776 297.15 44.8556 297.15 43.7896C297.15 42.7235 297.5 41.8934 298.2 41.2993C298.9 40.6971 299.75 40.2861 300.751 40.0664C301.053 40.0013 301.553 39.9159 302.253 39.8101C302.953 39.7043 303.429 39.5944 303.681 39.4805C304.121 39.277 304.34 38.8945 304.34 38.333C304.34 37.7633 304.153 37.3198 303.779 37.0024C303.404 36.6769 302.957 36.5142 302.436 36.5142C301.923 36.5142 301.248 36.7054 300.41 37.0879C299.571 37.4704 299.038 37.6616 298.811 37.6616ZM321.748 45.5352C321.748 46.1374 321.223 46.4385 320.173 46.4385C319.579 46.4385 319.18 46.2961 318.977 46.0112C318.879 45.8729 318.83 45.5474 318.83 45.0347L318.793 44.2534C318.736 43.3989 318.708 42.5404 318.708 41.6777C318.708 39.8141 318.545 38.5649 318.22 37.9302C317.902 37.2873 317.365 36.9658 316.608 36.9658C316.104 36.9658 315.636 37.1164 315.205 37.4175C314.781 37.7186 314.456 38.1377 314.228 38.6748C313.756 39.7734 313.52 41.8039 313.52 44.7661C313.52 45.4416 313.39 45.9176 313.129 46.1943C312.877 46.471 312.552 46.6094 312.153 46.6094H311.909C310.997 46.6094 310.542 46.2472 310.542 45.5229V45.23C310.542 45.1405 310.59 44.9451 310.688 44.644L310.883 44.0825C311.079 43.4233 311.176 42.0114 311.176 39.8467L311.237 36.2212C311.237 35.7573 311.49 35.5254 311.994 35.5254C312.499 35.5254 312.995 35.6922 313.483 36.0259C313.98 36.3595 314.293 36.5264 314.423 36.5264C314.562 36.5264 314.802 36.4328 315.144 36.2456C316.291 35.619 317.211 35.3057 317.902 35.3057H318.22C319.465 35.3057 320.34 35.8672 320.844 36.9902C321.088 37.5192 321.21 38.6585 321.21 40.4082V40.4937C321.21 40.6401 321.206 40.7866 321.198 40.9331C321.198 41.3319 321.198 41.5394 321.198 41.5557C321.198 41.7103 321.198 41.8608 321.198 42.0073C321.198 42.1213 321.198 42.2311 321.198 42.3369C321.198 42.9635 321.219 43.3908 321.259 43.6187C321.316 43.9279 321.41 44.2493 321.54 44.583C321.678 44.9492 321.748 45.2666 321.748 45.5352ZM326.691 41.0796V42.0073C326.691 42.9757 326.911 43.7855 327.351 44.4365C327.798 45.0794 328.323 45.4009 328.925 45.4009H329.267C330.195 45.4009 330.911 45.0306 331.416 44.29C331.928 43.5495 332.185 42.4468 332.185 40.9819C332.201 40.8029 332.209 40.6727 332.209 40.5913L332.233 40.3472L332.246 39.8345V38.9678C332.246 37.3076 331.582 36.4775 330.256 36.4775H329.78C328.917 36.4775 328.185 36.9129 327.583 37.7837C326.988 38.6545 326.691 39.7531 326.691 41.0796ZM324.348 41.6411C324.348 40.7948 324.498 39.9321 324.799 39.0532C325.1 38.1743 325.524 37.4256 326.069 36.8071C326.614 36.1805 327.229 35.7288 327.912 35.4521C328.596 35.1673 329.405 35.0249 330.341 35.0249C331.285 35.0249 331.871 34.854 332.099 34.5122C332.327 34.1623 332.441 33.3932 332.441 32.2051C332.441 31.9854 332.404 31.6924 332.331 31.3262C332.258 30.96 332.221 30.7484 332.221 30.6914C332.221 30.3415 332.372 30.0241 332.673 29.7393C332.974 29.4463 333.369 29.2998 333.857 29.2998H334.101C334.484 29.2998 334.768 29.3893 334.956 29.5684C335.143 29.7474 335.236 30.1217 335.236 30.6914V31.8267L335.212 32.4004C335.204 32.5957 335.2 32.8805 335.2 33.2549C335.2 33.6211 335.139 34.8011 335.017 36.7949C334.895 38.7887 334.833 40.16 334.833 40.9087L334.821 41.2017C334.813 41.397 334.809 41.5841 334.809 41.7632L334.797 42.0439C334.797 42.0439 334.797 42.3613 334.797 42.9961C334.797 43.818 334.862 44.4365 334.992 44.8516C335.122 45.2666 335.188 45.5636 335.188 45.7427C335.188 45.9217 335.086 46.1089 334.882 46.3042C334.679 46.4995 334.361 46.5972 333.93 46.5972C333.507 46.5972 333.096 46.528 332.697 46.3896C332.299 46.2432 332.006 46.1699 331.818 46.1699C331.631 46.1699 331.387 46.2269 331.086 46.3408C330.174 46.6745 329.34 46.8413 328.583 46.8413C328.567 46.8413 328.551 46.8413 328.535 46.8413H328.254C327.025 46.8413 326.065 46.3937 325.373 45.4985C324.689 44.5952 324.348 43.4111 324.348 41.9463V41.6411ZM342.255 45.4619H342.573C343.24 45.4619 343.826 45.2381 344.331 44.7905C344.843 44.3348 345.1 43.8099 345.1 43.2158L345.124 43.0571V42.8984L345.148 42.52V41.8242C345.148 41.3522 344.908 41.1162 344.428 41.1162H343.879L343.793 41.1284L343.317 41.165C343.09 41.1976 342.927 41.2139 342.829 41.2139C342.17 41.2139 341.56 41.4621 340.998 41.9585C340.607 42.3084 340.412 42.8049 340.412 43.4478V43.6919C340.412 44.2371 340.587 44.6685 340.937 44.9858C341.295 45.3032 341.735 45.4619 342.255 45.4619ZM339.533 37.6616C338.988 37.6616 338.715 37.3117 338.715 36.6118C338.715 36.091 339.155 35.6393 340.034 35.2568C340.921 34.8662 341.84 34.6709 342.792 34.6709H343.403C344.225 34.6709 344.949 34.8255 345.576 35.1348C346.202 35.4359 346.678 35.8468 347.004 36.3677C347.338 36.8885 347.541 37.568 347.614 38.4062C347.631 38.6016 347.639 39.5496 347.639 41.2505C347.639 42.9513 347.659 43.932 347.7 44.1924C347.749 44.4447 347.879 44.7539 348.09 45.1201C348.31 45.4863 348.42 45.7874 348.42 46.0234C348.42 46.2594 348.306 46.4629 348.078 46.6338C347.858 46.7965 347.537 46.8779 347.114 46.8779C346.691 46.8779 346.231 46.7762 345.734 46.5728C345.238 46.3612 344.876 46.2554 344.648 46.2554C344.624 46.2554 344.217 46.4019 343.427 46.6948C342.638 46.9797 341.971 47.1221 341.425 47.1221H341.157C340.245 47.1221 339.468 46.8332 338.825 46.2554C338.19 45.6776 337.873 44.8556 337.873 43.7896C337.873 42.7235 338.223 41.8934 338.923 41.2993C339.623 40.6971 340.473 40.2861 341.474 40.0664C341.775 40.0013 342.276 39.9159 342.976 39.8101C343.675 39.7043 344.152 39.5944 344.404 39.4805C344.843 39.277 345.063 38.8945 345.063 38.333C345.063 37.7633 344.876 37.3198 344.501 37.0024C344.127 36.6769 343.68 36.5142 343.159 36.5142C342.646 36.5142 341.971 36.7054 341.132 37.0879C340.294 37.4704 339.761 37.6616 339.533 37.6616ZM352.045 40.6523V39.7124C352.045 38.5812 351.984 37.7552 351.862 37.2344C351.74 36.7054 351.679 36.3351 351.679 36.1235C351.679 35.6271 352.041 35.3789 352.766 35.3789C353.49 35.3789 354.015 35.5132 354.34 35.7817C354.43 35.855 354.544 35.9974 354.682 36.209C354.829 36.4206 354.959 36.5264 355.073 36.5264C355.097 36.5264 355.451 36.3188 356.135 35.9038C356.818 35.4888 357.404 35.2812 357.893 35.2812H358.076C358.474 35.2812 358.792 35.3789 359.028 35.5742C359.264 35.7614 359.382 35.9933 359.382 36.27V36.4287C359.382 36.7624 359.264 37.0024 359.028 37.1489C358.8 37.2954 358.434 37.3687 357.929 37.3687C356.782 37.3687 355.944 37.7715 355.415 38.5771C354.894 39.3828 354.633 40.807 354.633 42.8496C354.633 43.1426 354.682 43.5942 354.78 44.2046C354.886 44.8149 354.938 45.2747 354.938 45.584C354.938 45.8932 354.772 46.1903 354.438 46.4751C354.104 46.7599 353.681 46.9023 353.168 46.9023H352.753C352.306 46.9023 351.96 46.7965 351.716 46.585C351.48 46.3652 351.362 46.1007 351.362 45.7915C351.362 45.4741 351.419 45.1527 351.533 44.8271C351.842 43.9482 351.997 42.9798 351.997 41.9219C352.029 41.3359 352.045 40.9128 352.045 40.6523ZM363.312 41.0796V42.0073C363.312 42.9757 363.532 43.7855 363.972 44.4365C364.419 45.0794 364.944 45.4009 365.546 45.4009H365.888C366.816 45.4009 367.532 45.0306 368.037 44.29C368.549 43.5495 368.806 42.4468 368.806 40.9819C368.822 40.8029 368.83 40.6727 368.83 40.5913L368.854 40.3472L368.867 39.8345V38.9678C368.867 37.3076 368.203 36.4775 366.877 36.4775H366.401C365.538 36.4775 364.806 36.9129 364.204 37.7837C363.61 38.6545 363.312 39.7531 363.312 41.0796ZM360.969 41.6411C360.969 40.7948 361.119 39.9321 361.42 39.0532C361.722 38.1743 362.145 37.4256 362.69 36.8071C363.235 36.1805 363.85 35.7288 364.533 35.4521C365.217 35.1673 366.027 35.0249 366.962 35.0249C367.906 35.0249 368.492 34.854 368.72 34.5122C368.948 34.1623 369.062 33.3932 369.062 32.2051C369.062 31.9854 369.025 31.6924 368.952 31.3262C368.879 30.96 368.842 30.7484 368.842 30.6914C368.842 30.3415 368.993 30.0241 369.294 29.7393C369.595 29.4463 369.99 29.2998 370.478 29.2998H370.722C371.105 29.2998 371.389 29.3893 371.577 29.5684C371.764 29.7474 371.857 30.1217 371.857 30.6914V31.8267L371.833 32.4004C371.825 32.5957 371.821 32.8805 371.821 33.2549C371.821 33.6211 371.76 34.8011 371.638 36.7949C371.516 38.7887 371.455 40.16 371.455 40.9087L371.442 41.2017C371.434 41.397 371.43 41.5841 371.43 41.7632L371.418 42.0439C371.418 42.0439 371.418 42.3613 371.418 42.9961C371.418 43.818 371.483 44.4365 371.613 44.8516C371.743 45.2666 371.809 45.5636 371.809 45.7427C371.809 45.9217 371.707 46.1089 371.503 46.3042C371.3 46.4995 370.983 46.5972 370.551 46.5972C370.128 46.5972 369.717 46.528 369.318 46.3896C368.92 46.2432 368.627 46.1699 368.439 46.1699C368.252 46.1699 368.008 46.2269 367.707 46.3408C366.796 46.6745 365.961 46.8413 365.205 46.8413C365.188 46.8413 365.172 46.8413 365.156 46.8413H364.875C363.646 46.8413 362.686 46.3937 361.994 45.4985C361.311 44.5952 360.969 43.4111 360.969 41.9463V41.6411ZM375.886 40.1885C375.389 39.6839 375.141 38.9759 375.141 38.0645C375.141 37.153 375.548 36.3717 376.362 35.7207C377.176 35.0615 378.185 34.7319 379.389 34.7319H379.707C380.773 34.7319 381.619 34.8825 382.246 35.1836C382.88 35.4847 383.198 35.9364 383.198 36.5386C383.198 37.1326 382.933 37.4297 382.404 37.4297C382.266 37.4297 381.875 37.2669 381.232 36.9414C380.59 36.6077 379.983 36.4409 379.414 36.4409C378.844 36.4409 378.384 36.5711 378.034 36.8315C377.692 37.0838 377.521 37.4338 377.521 37.8813C377.521 38.3289 377.762 38.7196 378.242 39.0532C378.518 39.2485 379.169 39.5578 380.195 39.981C381.228 40.4041 381.965 40.811 382.404 41.2017C383.112 41.8283 383.466 42.6299 383.466 43.6064C383.466 44.583 383.051 45.4212 382.221 46.1211C381.391 46.8128 380.313 47.1587 378.986 47.1587H378.669C377.334 47.1587 376.333 46.9674 375.666 46.585C374.999 46.1943 374.665 45.6898 374.665 45.0713C374.665 44.4447 374.925 44.1313 375.446 44.1313C375.617 44.1313 376.061 44.3511 376.777 44.7905C377.501 45.23 378.209 45.4497 378.901 45.4497C379.601 45.4497 380.126 45.3032 380.476 45.0103C380.826 44.7091 381 44.3348 381 43.8872C381 43.4315 380.781 43.0327 380.341 42.6909C380.105 42.5037 379.43 42.166 378.315 41.6777C377.2 41.1813 376.39 40.6849 375.886 40.1885ZM387.8 47.1953H387.421C387.014 47.1953 386.697 47.1017 386.469 46.9146C386.25 46.7274 386.14 46.4792 386.14 46.1699C386.123 46.1048 386.115 46.0519 386.115 46.0112L386.091 45.8037V45.584L386.103 45.5352V45.4253C386.119 45.3602 386.127 45.3073 386.127 45.2666C386.127 44.9004 386.25 44.6156 386.494 44.4121C386.746 44.2005 387.023 44.0947 387.324 44.0947L387.58 44.0581H387.91C388.797 44.0581 389.24 44.522 389.24 45.4497V45.6206L389.191 46.0356C389.191 46.41 389.049 46.6989 388.764 46.9023C388.487 47.0977 388.166 47.1953 387.8 47.1953ZM411.457 31.5825C411.457 30.7443 412.059 30.3252 413.264 30.3252C413.54 30.3252 413.809 30.431 414.069 30.6426C414.33 30.8542 414.46 31.1471 414.46 31.5215C414.46 31.8958 414.342 32.3923 414.106 33.0107C413.87 33.6292 413.723 34.2152 413.667 34.7686C413.61 35.3219 413.483 37.2425 413.288 40.5303C413.093 43.818 412.967 45.584 412.91 45.8281C412.796 46.3164 412.556 46.5605 412.189 46.5605C411.465 46.5605 410.733 46.0845 409.992 45.1323C409.821 44.9126 408.702 43.11 406.635 39.7246C404.576 36.3311 403.368 34.6343 403.01 34.6343L402.851 34.7319C402.786 34.8296 402.729 35.0737 402.68 35.4644C402.42 37.6942 402.29 40.1071 402.29 42.7031C402.29 42.9798 402.306 43.2809 402.338 43.6064L402.387 44.0215C402.436 44.4284 402.46 44.6807 402.46 44.7783C402.46 45.3398 402.269 45.7915 401.887 46.1333C401.512 46.4751 401.073 46.646 400.568 46.646H400.153C399.641 46.646 399.384 46.4548 399.384 46.0723C399.384 45.6816 399.494 45.2463 399.714 44.7661C399.934 44.286 400.08 43.7407 400.153 43.1304C400.503 40.1925 400.678 37.0391 400.678 33.6699C400.678 33.0921 400.638 32.612 400.556 32.2295L400.446 31.8145L400.324 31.436C400.259 31.2082 400.227 30.9844 400.227 30.7646C400.227 30.4635 400.515 30.313 401.093 30.313C402.2 30.313 403.189 30.8013 404.06 31.7778C404.938 32.7463 406.261 34.6628 408.027 37.5273C409.793 40.3919 410.745 41.8242 410.883 41.8242L411.054 41.7754C411.103 41.7021 411.152 41.4417 411.201 40.9941C411.502 38.1702 411.652 35.6922 411.652 33.5601C411.652 33.3729 411.632 33.0881 411.591 32.7056L411.542 32.3149C411.486 31.9162 411.457 31.672 411.457 31.5825ZM419.074 39.5781V39.7734C419.074 40.0176 419.298 40.1396 419.746 40.1396H420.039L420.112 40.1274L420.71 40.0786C421.337 39.9891 421.743 39.9443 421.931 39.9443C422.818 39.9443 423.485 39.7775 423.933 39.4438C424.144 39.2811 424.25 38.9922 424.25 38.5771V38.4429C424.25 37.8325 424.047 37.3483 423.64 36.9902C423.241 36.6322 422.761 36.4531 422.199 36.4531H422.114L422.041 36.4653C421.251 36.4653 420.559 36.799 419.965 37.4663C419.371 38.1336 419.074 38.8376 419.074 39.5781ZM421.735 47.1587H421.467C419.912 47.1587 418.675 46.6663 417.756 45.6816C416.836 44.6888 416.376 43.3664 416.376 41.7144V41.1772C416.376 40.3879 416.531 39.5863 416.84 38.7725C417.467 37.1449 418.488 36.0218 419.904 35.4033C420.653 35.0697 421.414 34.9028 422.187 34.9028H422.712C423.778 34.9028 424.677 35.2609 425.41 35.9771C426.15 36.6851 426.521 37.6006 426.521 38.7236V38.9678C426.521 39.7653 426.203 40.3309 425.568 40.6646C425.129 40.9006 424.104 41.1366 422.492 41.3726C420.881 41.6086 420.002 41.751 419.855 41.7998C419.367 41.9707 419.123 42.2962 419.123 42.7764C419.123 43.4437 419.408 44.0133 419.978 44.4854C420.547 44.9574 421.312 45.1934 422.272 45.1934C422.72 45.1934 423.33 45.0713 424.104 44.8271C424.877 44.583 425.324 44.4609 425.446 44.4609C425.861 44.4609 426.069 44.64 426.069 44.998C426.069 45.4782 425.601 45.9583 424.665 46.4385C423.729 46.9186 422.753 47.1587 421.735 47.1587ZM431.403 39.5781V39.7734C431.403 40.0176 431.627 40.1396 432.075 40.1396H432.368L432.441 40.1274L433.039 40.0786C433.666 39.9891 434.073 39.9443 434.26 39.9443C435.147 39.9443 435.814 39.7775 436.262 39.4438C436.473 39.2811 436.579 38.9922 436.579 38.5771V38.4429C436.579 37.8325 436.376 37.3483 435.969 36.9902C435.57 36.6322 435.09 36.4531 434.528 36.4531H434.443L434.37 36.4653C433.58 36.4653 432.889 36.799 432.294 37.4663C431.7 38.1336 431.403 38.8376 431.403 39.5781ZM434.064 47.1587H433.796C432.242 47.1587 431.005 46.6663 430.085 45.6816C429.165 44.6888 428.706 43.3664 428.706 41.7144V41.1772C428.706 40.3879 428.86 39.5863 429.169 38.7725C429.796 37.1449 430.817 36.0218 432.233 35.4033C432.982 35.0697 433.743 34.9028 434.516 34.9028H435.041C436.107 34.9028 437.006 35.2609 437.739 35.9771C438.479 36.6851 438.85 37.6006 438.85 38.7236V38.9678C438.85 39.7653 438.532 40.3309 437.897 40.6646C437.458 40.9006 436.433 41.1366 434.821 41.3726C433.21 41.6086 432.331 41.751 432.185 41.7998C431.696 41.9707 431.452 42.2962 431.452 42.7764C431.452 43.4437 431.737 44.0133 432.307 44.4854C432.876 44.9574 433.641 45.1934 434.602 45.1934C435.049 45.1934 435.66 45.0713 436.433 44.8271C437.206 44.583 437.653 44.4609 437.775 44.4609C438.19 44.4609 438.398 44.64 438.398 44.998C438.398 45.4782 437.93 45.9583 436.994 46.4385C436.058 46.9186 435.082 47.1587 434.064 47.1587ZM443.61 41.0796V42.0073C443.61 42.9757 443.83 43.7855 444.27 44.4365C444.717 45.0794 445.242 45.4009 445.844 45.4009H446.186C447.114 45.4009 447.83 45.0306 448.334 44.29C448.847 43.5495 449.104 42.4468 449.104 40.9819C449.12 40.8029 449.128 40.6727 449.128 40.5913L449.152 40.3472L449.165 39.8345V38.9678C449.165 37.3076 448.501 36.4775 447.175 36.4775H446.699C445.836 36.4775 445.104 36.9129 444.501 37.7837C443.907 38.6545 443.61 39.7531 443.61 41.0796ZM441.267 41.6411C441.267 40.7948 441.417 39.9321 441.718 39.0532C442.019 38.1743 442.443 37.4256 442.988 36.8071C443.533 36.1805 444.147 35.7288 444.831 35.4521C445.515 35.1673 446.324 35.0249 447.26 35.0249C448.204 35.0249 448.79 34.854 449.018 34.5122C449.246 34.1623 449.36 33.3932 449.36 32.2051C449.36 31.9854 449.323 31.6924 449.25 31.3262C449.177 30.96 449.14 30.7484 449.14 30.6914C449.14 30.3415 449.291 30.0241 449.592 29.7393C449.893 29.4463 450.288 29.2998 450.776 29.2998H451.02C451.403 29.2998 451.687 29.3893 451.875 29.5684C452.062 29.7474 452.155 30.1217 452.155 30.6914V31.8267L452.131 32.4004C452.123 32.5957 452.119 32.8805 452.119 33.2549C452.119 33.6211 452.058 34.8011 451.936 36.7949C451.813 38.7887 451.752 40.16 451.752 40.9087L451.74 41.2017C451.732 41.397 451.728 41.5841 451.728 41.7632L451.716 42.0439C451.716 42.0439 451.716 42.3613 451.716 42.9961C451.716 43.818 451.781 44.4365 451.911 44.8516C452.041 45.2666 452.106 45.5636 452.106 45.7427C452.106 45.9217 452.005 46.1089 451.801 46.3042C451.598 46.4995 451.28 46.5972 450.849 46.5972C450.426 46.5972 450.015 46.528 449.616 46.3896C449.217 46.2432 448.924 46.1699 448.737 46.1699C448.55 46.1699 448.306 46.2269 448.005 46.3408C447.093 46.6745 446.259 46.8413 445.502 46.8413C445.486 46.8413 445.47 46.8413 445.454 46.8413H445.173C443.944 46.8413 442.984 46.3937 442.292 45.4985C441.608 44.5952 441.267 43.4111 441.267 41.9463V41.6411ZM456.184 40.1885C455.687 39.6839 455.439 38.9759 455.439 38.0645C455.439 37.153 455.846 36.3717 456.66 35.7207C457.473 35.0615 458.483 34.7319 459.687 34.7319H460.004C461.07 34.7319 461.917 34.8825 462.543 35.1836C463.178 35.4847 463.496 35.9364 463.496 36.5386C463.496 37.1326 463.231 37.4297 462.702 37.4297C462.564 37.4297 462.173 37.2669 461.53 36.9414C460.887 36.6077 460.281 36.4409 459.711 36.4409C459.142 36.4409 458.682 36.5711 458.332 36.8315C457.99 37.0838 457.819 37.4338 457.819 37.8813C457.819 38.3289 458.059 38.7196 458.54 39.0532C458.816 39.2485 459.467 39.5578 460.493 39.981C461.526 40.4041 462.263 40.811 462.702 41.2017C463.41 41.8283 463.764 42.6299 463.764 43.6064C463.764 44.583 463.349 45.4212 462.519 46.1211C461.689 46.8128 460.611 47.1587 459.284 47.1587H458.967C457.632 47.1587 456.631 46.9674 455.964 46.585C455.297 46.1943 454.963 45.6898 454.963 45.0713C454.963 44.4447 455.223 44.1313 455.744 44.1313C455.915 44.1313 456.359 44.3511 457.075 44.7905C457.799 45.23 458.507 45.4497 459.199 45.4497C459.899 45.4497 460.424 45.3032 460.773 45.0103C461.123 44.7091 461.298 44.3348 461.298 43.8872C461.298 43.4315 461.079 43.0327 460.639 42.6909C460.403 42.5037 459.728 42.166 458.613 41.6777C457.498 41.1813 456.688 40.6849 456.184 40.1885ZM475.373 41.8486C475.373 42.9147 475.617 43.8018 476.105 44.5098C476.594 45.2178 477.192 45.5718 477.9 45.5718H478.266C479.104 45.5718 479.812 45.1486 480.39 44.3022C480.976 43.4559 481.269 42.3288 481.269 40.9209V40.1152C481.269 39.0247 481.029 38.1336 480.549 37.4419C480.077 36.742 479.466 36.3921 478.718 36.3921H478.474C477.603 36.3921 476.87 36.8234 476.276 37.686C475.69 38.5487 475.397 39.5781 475.397 40.7744L475.373 41.0552V41.8486ZM478.132 47.2319H477.741C476.317 47.2319 475.157 46.7355 474.262 45.7427C473.367 44.7498 472.919 43.342 472.919 41.519L472.932 41.3115C472.932 39.3096 473.461 37.7308 474.519 36.5752C475.072 35.9648 475.703 35.5173 476.411 35.2324C477.127 34.9395 477.806 34.793 478.449 34.793H479.047C479.764 34.793 480.451 34.9517 481.11 35.269C482.998 36.1805 483.942 37.8976 483.942 40.4204V40.6157C483.934 41.4377 483.8 42.2718 483.54 43.1182C483.019 44.7865 482.018 45.9665 480.537 46.6582C479.715 47.0407 478.913 47.2319 478.132 47.2319ZM486.091 41.9219V41.3604C486.091 40.335 486.25 39.4276 486.567 38.6382C487.177 37.1082 488.113 36.0503 489.375 35.4644C490.196 35.0737 491.047 34.8784 491.926 34.8784H492.194C493.163 34.8784 493.964 35.0697 494.599 35.4521C495.234 35.8346 495.551 36.3026 495.551 36.856C495.551 37.4989 495.242 37.8203 494.624 37.8203C494.51 37.8203 494.111 37.6413 493.427 37.2832C492.744 36.9333 492.182 36.7583 491.743 36.7583C491.735 36.7583 491.726 36.7583 491.718 36.7583C490.758 36.7583 490.005 37.1733 489.46 38.0034C488.923 38.8335 488.654 39.9159 488.654 41.2505C488.654 42.5851 488.939 43.5739 489.509 44.2168C490.087 44.8597 490.888 45.1812 491.914 45.1812C492.337 45.1812 492.919 45.0632 493.659 44.8271C494.4 44.583 494.851 44.4609 495.014 44.4609C495.348 44.4609 495.515 44.6359 495.515 44.9858C495.515 45.4578 495.047 45.9339 494.111 46.4141C493.175 46.8942 492.255 47.1343 491.352 47.1343C488.935 47.1343 487.336 46.1821 486.555 44.2778C486.245 43.521 486.091 42.7357 486.091 41.9219ZM497.688 41.9219V41.3604C497.688 40.335 497.846 39.4276 498.164 38.6382C498.774 37.1082 499.71 36.0503 500.971 35.4644C501.793 35.0737 502.644 34.8784 503.522 34.8784H503.791C504.759 34.8784 505.561 35.0697 506.196 35.4521C506.831 35.8346 507.148 36.3026 507.148 36.856C507.148 37.4989 506.839 37.8203 506.22 37.8203C506.106 37.8203 505.708 37.6413 505.024 37.2832C504.34 36.9333 503.779 36.7583 503.339 36.7583C503.331 36.7583 503.323 36.7583 503.315 36.7583C502.355 36.7583 501.602 37.1733 501.057 38.0034C500.52 38.8335 500.251 39.9159 500.251 41.2505C500.251 42.5851 500.536 43.5739 501.105 44.2168C501.683 44.8597 502.485 45.1812 503.51 45.1812C503.933 45.1812 504.515 45.0632 505.256 44.8271C505.996 44.583 506.448 44.4609 506.611 44.4609C506.944 44.4609 507.111 44.6359 507.111 44.9858C507.111 45.4578 506.643 45.9339 505.708 46.4141C504.772 46.8942 503.852 47.1343 502.949 47.1343C500.532 47.1343 498.933 46.1821 498.151 44.2778C497.842 43.521 497.688 42.7357 497.688 41.9219ZM513.618 45.4619H513.935C514.602 45.4619 515.188 45.2381 515.693 44.7905C516.206 44.3348 516.462 43.8099 516.462 43.2158L516.486 43.0571V42.8984L516.511 42.52V41.8242C516.511 41.3522 516.271 41.1162 515.791 41.1162H515.241L515.156 41.1284L514.68 41.165C514.452 41.1976 514.289 41.2139 514.191 41.2139C513.532 41.2139 512.922 41.4621 512.36 41.9585C511.97 42.3084 511.774 42.8049 511.774 43.4478V43.6919C511.774 44.2371 511.949 44.6685 512.299 44.9858C512.657 45.3032 513.097 45.4619 513.618 45.4619ZM510.896 37.6616C510.35 37.6616 510.078 37.3117 510.078 36.6118C510.078 36.091 510.517 35.6393 511.396 35.2568C512.283 34.8662 513.203 34.6709 514.155 34.6709H514.765C515.587 34.6709 516.311 34.8255 516.938 35.1348C517.565 35.4359 518.041 35.8468 518.366 36.3677C518.7 36.8885 518.903 37.568 518.977 38.4062C518.993 38.6016 519.001 39.5496 519.001 41.2505C519.001 42.9513 519.021 43.932 519.062 44.1924C519.111 44.4447 519.241 44.7539 519.453 45.1201C519.672 45.4863 519.782 45.7874 519.782 46.0234C519.782 46.2594 519.668 46.4629 519.44 46.6338C519.221 46.7965 518.899 46.8779 518.476 46.8779C518.053 46.8779 517.593 46.7762 517.097 46.5728C516.6 46.3612 516.238 46.2554 516.01 46.2554C515.986 46.2554 515.579 46.4019 514.79 46.6948C514 46.9797 513.333 47.1221 512.788 47.1221H512.519C511.608 47.1221 510.83 46.8332 510.188 46.2554C509.553 45.6776 509.235 44.8556 509.235 43.7896C509.235 42.7235 509.585 41.8934 510.285 41.2993C510.985 40.6971 511.835 40.2861 512.836 40.0664C513.138 40.0013 513.638 39.9159 514.338 39.8101C515.038 39.7043 515.514 39.5944 515.766 39.4805C516.206 39.277 516.425 38.8945 516.425 38.333C516.425 37.7633 516.238 37.3198 515.864 37.0024C515.489 36.6769 515.042 36.5142 514.521 36.5142C514.008 36.5142 513.333 36.7054 512.495 37.0879C511.656 37.4704 511.123 37.6616 510.896 37.6616ZM523.493 40.1885C522.997 39.6839 522.749 38.9759 522.749 38.0645C522.749 37.153 523.155 36.3717 523.969 35.7207C524.783 35.0615 525.792 34.7319 526.997 34.7319H527.314C528.38 34.7319 529.226 34.8825 529.853 35.1836C530.488 35.4847 530.805 35.9364 530.805 36.5386C530.805 37.1326 530.541 37.4297 530.012 37.4297C529.873 37.4297 529.483 37.2669 528.84 36.9414C528.197 36.6077 527.591 36.4409 527.021 36.4409C526.451 36.4409 525.992 36.5711 525.642 36.8315C525.3 37.0838 525.129 37.4338 525.129 37.8813C525.129 38.3289 525.369 38.7196 525.849 39.0532C526.126 39.2485 526.777 39.5578 527.802 39.981C528.836 40.4041 529.572 40.811 530.012 41.2017C530.72 41.8283 531.074 42.6299 531.074 43.6064C531.074 44.583 530.659 45.4212 529.829 46.1211C528.999 46.8128 527.92 47.1587 526.594 47.1587H526.276C524.942 47.1587 523.941 46.9674 523.273 46.585C522.606 46.1943 522.272 45.6898 522.272 45.0713C522.272 44.4447 522.533 44.1313 523.054 44.1313C523.225 44.1313 523.668 44.3511 524.384 44.7905C525.109 45.23 525.817 45.4497 526.508 45.4497C527.208 45.4497 527.733 45.3032 528.083 45.0103C528.433 44.7091 528.608 44.3348 528.608 43.8872C528.608 43.4315 528.388 43.0327 527.949 42.6909C527.713 42.5037 527.037 42.166 525.922 41.6777C524.807 41.1813 523.998 40.6849 523.493 40.1885ZM537.666 31.1309V31.2773C537.666 31.6924 537.543 32.0464 537.299 32.3394C537.063 32.6242 536.697 32.7666 536.201 32.7666H536.005L535.627 32.7178C535.407 32.7178 535.196 32.616 534.992 32.4126C534.789 32.2091 534.687 31.904 534.687 31.4971V31.3506L534.748 30.9111C534.748 30.7402 534.85 30.5286 535.053 30.2764C535.265 30.0241 535.533 29.8979 535.859 29.8979L536.14 29.8613H536.384L536.726 29.9102C536.937 29.9102 537.145 30.016 537.348 30.2275C537.56 30.431 537.666 30.7321 537.666 31.1309ZM537.092 36.2822L536.958 39.5659L536.933 39.8955L536.896 40.8965V41.3726C536.896 42.5444 536.929 43.3135 536.994 43.6797C537.067 44.0459 537.202 44.404 537.397 44.7539C537.592 45.0957 537.69 45.3439 537.69 45.4985V45.6084C537.69 46.0072 537.486 46.3245 537.08 46.5605C536.673 46.7965 536.119 46.9146 535.419 46.9146H535.114C534.707 46.9146 534.398 46.825 534.187 46.646C533.975 46.4588 533.869 46.2594 533.869 46.0479V45.7793C533.869 45.6735 533.963 45.2992 534.15 44.6562C534.337 44.0052 534.431 43.1222 534.431 42.0073C534.455 41.6899 534.467 41.4702 534.467 41.3481L534.504 40.6768L534.528 40.3472C534.569 39.7775 534.589 39.334 534.589 39.0166L534.602 38.5283C534.602 37.918 534.5 37.3768 534.296 36.9048C534.101 36.4328 534.003 36.1398 534.003 36.0259C534.003 35.4399 534.557 35.147 535.664 35.147H536.103C536.518 35.147 536.787 35.2568 536.909 35.4766C537.031 35.6882 537.092 35.9567 537.092 36.2822ZM542.829 41.8486C542.829 42.9147 543.073 43.8018 543.562 44.5098C544.05 45.2178 544.648 45.5718 545.356 45.5718H545.722C546.56 45.5718 547.268 45.1486 547.846 44.3022C548.432 43.4559 548.725 42.3288 548.725 40.9209V40.1152C548.725 39.0247 548.485 38.1336 548.005 37.4419C547.533 36.742 546.923 36.3921 546.174 36.3921H545.93C545.059 36.3921 544.326 36.8234 543.732 37.686C543.146 38.5487 542.854 39.5781 542.854 40.7744L542.829 41.0552V41.8486ZM545.588 47.2319H545.197C543.773 47.2319 542.613 46.7355 541.718 45.7427C540.823 44.7498 540.375 43.342 540.375 41.519L540.388 41.3115C540.388 39.3096 540.917 37.7308 541.975 36.5752C542.528 35.9648 543.159 35.5173 543.867 35.2324C544.583 34.9395 545.262 34.793 545.905 34.793H546.503C547.22 34.793 547.907 34.9517 548.566 35.269C550.454 36.1805 551.398 37.8976 551.398 40.4204V40.6157C551.39 41.4377 551.256 42.2718 550.996 43.1182C550.475 44.7865 549.474 45.9665 547.993 46.6582C547.171 47.0407 546.369 47.2319 545.588 47.2319ZM565.131 45.5352C565.131 46.1374 564.606 46.4385 563.557 46.4385C562.963 46.4385 562.564 46.2961 562.36 46.0112C562.263 45.8729 562.214 45.5474 562.214 45.0347L562.177 44.2534C562.12 43.3989 562.092 42.5404 562.092 41.6777C562.092 39.8141 561.929 38.5649 561.604 37.9302C561.286 37.2873 560.749 36.9658 559.992 36.9658C559.488 36.9658 559.02 37.1164 558.588 37.4175C558.165 37.7186 557.84 38.1377 557.612 38.6748C557.14 39.7734 556.904 41.8039 556.904 44.7661C556.904 45.4416 556.774 45.9176 556.513 46.1943C556.261 46.471 555.935 46.6094 555.537 46.6094H555.292C554.381 46.6094 553.925 46.2472 553.925 45.5229V45.23C553.925 45.1405 553.974 44.9451 554.072 44.644L554.267 44.0825C554.462 43.4233 554.56 42.0114 554.56 39.8467L554.621 36.2212C554.621 35.7573 554.873 35.5254 555.378 35.5254C555.882 35.5254 556.379 35.6922 556.867 36.0259C557.364 36.3595 557.677 36.5264 557.807 36.5264C557.945 36.5264 558.186 36.4328 558.527 36.2456C559.675 35.619 560.594 35.3057 561.286 35.3057H561.604C562.849 35.3057 563.723 35.8672 564.228 36.9902C564.472 37.5192 564.594 38.6585 564.594 40.4082V40.4937C564.594 40.6401 564.59 40.7866 564.582 40.9331C564.582 41.3319 564.582 41.5394 564.582 41.5557C564.582 41.7103 564.582 41.8608 564.582 42.0073C564.582 42.1213 564.582 42.2311 564.582 42.3369C564.582 42.9635 564.602 43.3908 564.643 43.6187C564.7 43.9279 564.794 44.2493 564.924 44.583C565.062 44.9492 565.131 45.2666 565.131 45.5352ZM571.87 45.4619H572.187C572.854 45.4619 573.44 45.2381 573.945 44.7905C574.458 44.3348 574.714 43.8099 574.714 43.2158L574.738 43.0571V42.8984L574.763 42.52V41.8242C574.763 41.3522 574.523 41.1162 574.042 41.1162H573.493L573.408 41.1284L572.932 41.165C572.704 41.1976 572.541 41.2139 572.443 41.2139C571.784 41.2139 571.174 41.4621 570.612 41.9585C570.222 42.3084 570.026 42.8049 570.026 43.4478V43.6919C570.026 44.2371 570.201 44.6685 570.551 44.9858C570.909 45.3032 571.349 45.4619 571.87 45.4619ZM569.147 37.6616C568.602 37.6616 568.33 37.3117 568.33 36.6118C568.33 36.091 568.769 35.6393 569.648 35.2568C570.535 34.8662 571.455 34.6709 572.407 34.6709H573.017C573.839 34.6709 574.563 34.8255 575.19 35.1348C575.817 35.4359 576.293 35.8468 576.618 36.3677C576.952 36.8885 577.155 37.568 577.229 38.4062C577.245 38.6016 577.253 39.5496 577.253 41.2505C577.253 42.9513 577.273 43.932 577.314 44.1924C577.363 44.4447 577.493 44.7539 577.705 45.1201C577.924 45.4863 578.034 45.7874 578.034 46.0234C578.034 46.2594 577.92 46.4629 577.692 46.6338C577.473 46.7965 577.151 46.8779 576.728 46.8779C576.305 46.8779 575.845 46.7762 575.349 46.5728C574.852 46.3612 574.49 46.2554 574.262 46.2554C574.238 46.2554 573.831 46.4019 573.042 46.6948C572.252 46.9797 571.585 47.1221 571.04 47.1221H570.771C569.86 47.1221 569.082 46.8332 568.439 46.2554C567.805 45.6776 567.487 44.8556 567.487 43.7896C567.487 42.7235 567.837 41.8934 568.537 41.2993C569.237 40.6971 570.087 40.2861 571.088 40.0664C571.389 40.0013 571.89 39.9159 572.59 39.8101C573.29 39.7043 573.766 39.5944 574.018 39.4805C574.458 39.277 574.677 38.8945 574.677 38.333C574.677 37.7633 574.49 37.3198 574.116 37.0024C573.741 36.6769 573.294 36.5142 572.773 36.5142C572.26 36.5142 571.585 36.7054 570.747 37.0879C569.908 37.4704 569.375 37.6616 569.147 37.6616ZM581.562 30.0322C581.562 29.4382 582.119 29.1411 583.234 29.1411H583.454C583.918 29.1411 584.235 29.255 584.406 29.4829C584.577 29.7026 584.663 30.134 584.663 30.7769L584.565 32.5957C584.541 32.8805 584.528 33.0352 584.528 33.0596L584.504 33.5234C584.488 33.8245 584.471 34.1297 584.455 34.439L584.418 34.9028L584.382 35.5986C584.252 38.0726 584.187 39.8996 584.187 41.0796C584.187 42.2515 584.239 43.0938 584.345 43.6064C584.451 44.1191 584.618 44.5545 584.846 44.9126C585.074 45.2707 585.188 45.5067 585.188 45.6206V45.7671C585.188 46.1252 585.008 46.41 584.65 46.6216C584.3 46.8332 583.824 46.939 583.222 46.939H582.587C582.213 46.939 581.883 46.8332 581.599 46.6216C581.322 46.4019 581.184 46.1536 581.184 45.877V45.5474L581.257 45.0347C581.354 44.3267 581.411 43.7977 581.428 43.4478C581.452 43.0897 581.489 42.5973 581.538 41.9707C581.586 41.3359 581.664 39.9891 581.77 37.9302C581.883 35.8631 581.94 34.7523 581.94 34.5977L581.989 33.6821L582.014 32.7788C582.014 31.9162 581.936 31.3018 581.782 30.9355C581.635 30.5612 581.562 30.2601 581.562 30.0322ZM595.698 40.6523V39.7124C595.698 38.5812 595.637 37.7552 595.515 37.2344C595.393 36.7054 595.332 36.3351 595.332 36.1235C595.332 35.6271 595.694 35.3789 596.418 35.3789C597.142 35.3789 597.667 35.5132 597.993 35.7817C598.082 35.855 598.196 35.9974 598.334 36.209C598.481 36.4206 598.611 36.5264 598.725 36.5264C598.75 36.5264 599.104 36.3188 599.787 35.9038C600.471 35.4888 601.057 35.2812 601.545 35.2812H601.728C602.127 35.2812 602.444 35.3789 602.68 35.5742C602.916 35.7614 603.034 35.9933 603.034 36.27V36.4287C603.034 36.7624 602.916 37.0024 602.68 37.1489C602.452 37.2954 602.086 37.3687 601.582 37.3687C600.434 37.3687 599.596 37.7715 599.067 38.5771C598.546 39.3828 598.286 40.807 598.286 42.8496C598.286 43.1426 598.334 43.5942 598.432 44.2046C598.538 44.8149 598.591 45.2747 598.591 45.584C598.591 45.8932 598.424 46.1903 598.09 46.4751C597.757 46.7599 597.333 46.9023 596.821 46.9023H596.406C595.958 46.9023 595.612 46.7965 595.368 46.585C595.132 46.3652 595.014 46.1007 595.014 45.7915C595.014 45.4741 595.071 45.1527 595.185 44.8271C595.494 43.9482 595.649 42.9798 595.649 41.9219C595.681 41.3359 595.698 40.9128 595.698 40.6523ZM607.087 39.5781V39.7734C607.087 40.0176 607.311 40.1396 607.758 40.1396H608.051L608.125 40.1274L608.723 40.0786C609.349 39.9891 609.756 39.9443 609.943 39.9443C610.83 39.9443 611.498 39.7775 611.945 39.4438C612.157 39.2811 612.263 38.9922 612.263 38.5771V38.4429C612.263 37.8325 612.059 37.3483 611.652 36.9902C611.254 36.6322 610.773 36.4531 610.212 36.4531H610.126L610.053 36.4653C609.264 36.4653 608.572 36.799 607.978 37.4663C607.384 38.1336 607.087 38.8376 607.087 39.5781ZM609.748 47.1587H609.479C607.925 47.1587 606.688 46.6663 605.769 45.6816C604.849 44.6888 604.389 43.3664 604.389 41.7144V41.1772C604.389 40.3879 604.544 39.5863 604.853 38.7725C605.48 37.1449 606.501 36.0218 607.917 35.4033C608.666 35.0697 609.427 34.9028 610.2 34.9028H610.725C611.791 34.9028 612.69 35.2609 613.422 35.9771C614.163 36.6851 614.533 37.6006 614.533 38.7236V38.9678C614.533 39.7653 614.216 40.3309 613.581 40.6646C613.142 40.9006 612.116 41.1366 610.505 41.3726C608.894 41.6086 608.015 41.751 607.868 41.7998C607.38 41.9707 607.136 42.2962 607.136 42.7764C607.136 43.4437 607.421 44.0133 607.99 44.4854C608.56 44.9574 609.325 45.1934 610.285 45.1934C610.733 45.1934 611.343 45.0713 612.116 44.8271C612.889 44.583 613.337 44.4609 613.459 44.4609C613.874 44.4609 614.082 44.64 614.082 44.998C614.082 45.4782 613.614 45.9583 612.678 46.4385C611.742 46.9186 610.765 47.1587 609.748 47.1587ZM622.272 35.7085C622.899 35.4725 623.542 35.3545 624.201 35.3545C624.86 35.3545 625.544 35.5498 626.252 35.9404C626.968 36.3311 627.359 36.5264 627.424 36.5264C627.489 36.5264 627.928 36.327 628.742 35.9282C629.556 35.5295 630.288 35.3301 630.939 35.3301C631.599 35.3301 632.14 35.4684 632.563 35.7451C632.994 36.0137 633.32 36.3351 633.54 36.7095C633.955 37.4256 634.162 39.0166 634.162 41.4824C634.162 42.5892 634.17 43.224 634.187 43.3867C634.211 43.5413 634.268 43.8221 634.357 44.229C634.455 44.6278 634.504 44.9574 634.504 45.2178C634.504 45.4701 634.398 45.7345 634.187 46.0112C633.975 46.2879 633.694 46.4263 633.344 46.4263C632.653 46.4263 632.242 46.1455 632.111 45.584C632.014 45.1771 631.9 43.9889 631.77 42.0195C631.647 40.0501 631.513 38.8945 631.367 38.5527C631.074 37.8366 630.451 37.4785 629.499 37.4785C628.889 37.4785 628.413 37.861 628.071 38.626C627.574 39.7246 627.326 41.2871 627.326 43.3135L627.448 45.0713C627.448 45.6898 627.22 46.1577 626.765 46.4751C626.472 46.6785 626.081 46.7803 625.593 46.7803C625.113 46.7803 624.795 46.7314 624.641 46.6338C624.372 46.471 624.238 46.1252 624.238 45.5962C624.238 45.4985 624.315 45.0998 624.47 44.3999C624.632 43.6919 624.714 42.5444 624.714 40.9575C624.714 39.3625 624.596 38.3493 624.36 37.918C624.124 37.4785 623.713 37.2588 623.127 37.2588C622.541 37.2588 622.02 37.4582 621.564 37.8569C621.117 38.2557 620.787 38.6911 620.576 39.1631C620.372 39.6351 620.189 40.7581 620.026 42.5322C619.872 44.3063 619.762 45.3236 619.697 45.584C619.583 46.0316 619.253 46.2554 618.708 46.2554C618.171 46.2554 617.801 46.0967 617.597 45.7793C617.402 45.4538 617.304 45.0591 617.304 44.5952L617.365 44.168L617.597 43.3257C617.695 42.9351 617.752 42.4793 617.768 41.9585C617.89 38.7277 617.984 36.8844 618.049 36.4287C618.114 35.973 618.407 35.7451 618.928 35.7451L620.747 36.0503C621.137 36.0503 621.646 35.9364 622.272 35.7085ZM641.499 31.1309V31.2773C641.499 31.6924 641.376 32.0464 641.132 32.3394C640.896 32.6242 640.53 32.7666 640.034 32.7666H639.838L639.46 32.7178C639.24 32.7178 639.029 32.616 638.825 32.4126C638.622 32.2091 638.52 31.904 638.52 31.4971V31.3506L638.581 30.9111C638.581 30.7402 638.683 30.5286 638.886 30.2764C639.098 30.0241 639.366 29.8979 639.692 29.8979L639.973 29.8613H640.217L640.559 29.9102C640.77 29.9102 640.978 30.016 641.181 30.2275C641.393 30.431 641.499 30.7321 641.499 31.1309ZM640.925 36.2822L640.791 39.5659L640.766 39.8955L640.729 40.8965V41.3726C640.729 42.5444 640.762 43.3135 640.827 43.6797C640.9 44.0459 641.035 44.404 641.23 44.7539C641.425 45.0957 641.523 45.3439 641.523 45.4985V45.6084C641.523 46.0072 641.319 46.3245 640.913 46.5605C640.506 46.7965 639.952 46.9146 639.252 46.9146H638.947C638.54 46.9146 638.231 46.825 638.02 46.646C637.808 46.4588 637.702 46.2594 637.702 46.0479V45.7793C637.702 45.6735 637.796 45.2992 637.983 44.6562C638.17 44.0052 638.264 43.1222 638.264 42.0073C638.288 41.6899 638.3 41.4702 638.3 41.3481L638.337 40.6768L638.361 40.3472C638.402 39.7775 638.422 39.334 638.422 39.0166L638.435 38.5283C638.435 37.918 638.333 37.3768 638.129 36.9048C637.934 36.4328 637.836 36.1398 637.836 36.0259C637.836 35.4399 638.39 35.147 639.497 35.147H639.936C640.351 35.147 640.62 35.2568 640.742 35.4766C640.864 35.6882 640.925 35.9567 640.925 36.2822ZM655.732 45.5352C655.732 46.1374 655.207 46.4385 654.157 46.4385C653.563 46.4385 653.164 46.2961 652.961 46.0112C652.863 45.8729 652.814 45.5474 652.814 45.0347L652.778 44.2534C652.721 43.3989 652.692 42.5404 652.692 41.6777C652.692 39.8141 652.53 38.5649 652.204 37.9302C651.887 37.2873 651.35 36.9658 650.593 36.9658C650.088 36.9658 649.62 37.1164 649.189 37.4175C648.766 37.7186 648.44 38.1377 648.212 38.6748C647.74 39.7734 647.504 41.8039 647.504 44.7661C647.504 45.4416 647.374 45.9176 647.114 46.1943C646.861 46.471 646.536 46.6094 646.137 46.6094H645.893C644.982 46.6094 644.526 46.2472 644.526 45.5229V45.23C644.526 45.1405 644.575 44.9451 644.672 44.644L644.868 44.0825C645.063 43.4233 645.161 42.0114 645.161 39.8467L645.222 36.2212C645.222 35.7573 645.474 35.5254 645.979 35.5254C646.483 35.5254 646.979 35.6922 647.468 36.0259C647.964 36.3595 648.278 36.5264 648.408 36.5264C648.546 36.5264 648.786 36.4328 649.128 36.2456C650.275 35.619 651.195 35.3057 651.887 35.3057H652.204C653.449 35.3057 654.324 35.8672 654.829 36.9902C655.073 37.5192 655.195 38.6585 655.195 40.4082V40.4937C655.195 40.6401 655.191 40.7866 655.183 40.9331C655.183 41.3319 655.183 41.5394 655.183 41.5557C655.183 41.7103 655.183 41.8608 655.183 42.0073C655.183 42.1213 655.183 42.2311 655.183 42.3369C655.183 42.9635 655.203 43.3908 655.244 43.6187C655.301 43.9279 655.394 44.2493 655.524 44.583C655.663 44.9492 655.732 45.2666 655.732 45.5352ZM660.676 41.0796V42.0073C660.676 42.9757 660.896 43.7855 661.335 44.4365C661.783 45.0794 662.307 45.4009 662.91 45.4009H663.251C664.179 45.4009 664.895 45.0306 665.4 44.29C665.913 43.5495 666.169 42.4468 666.169 40.9819C666.185 40.8029 666.193 40.6727 666.193 40.5913L666.218 40.3472L666.23 39.8345V38.9678C666.23 37.3076 665.567 36.4775 664.24 36.4775H663.764C662.902 36.4775 662.169 36.9129 661.567 37.7837C660.973 38.6545 660.676 39.7531 660.676 41.0796ZM658.332 41.6411C658.332 40.7948 658.483 39.9321 658.784 39.0532C659.085 38.1743 659.508 37.4256 660.053 36.8071C660.598 36.1805 661.213 35.7288 661.896 35.4521C662.58 35.1673 663.39 35.0249 664.326 35.0249C665.27 35.0249 665.856 34.854 666.083 34.5122C666.311 34.1623 666.425 33.3932 666.425 32.2051C666.425 31.9854 666.389 31.6924 666.315 31.3262C666.242 30.96 666.206 30.7484 666.206 30.6914C666.206 30.3415 666.356 30.0241 666.657 29.7393C666.958 29.4463 667.353 29.2998 667.841 29.2998H668.085C668.468 29.2998 668.753 29.3893 668.94 29.5684C669.127 29.7474 669.221 30.1217 669.221 30.6914V31.8267L669.196 32.4004C669.188 32.5957 669.184 32.8805 669.184 33.2549C669.184 33.6211 669.123 34.8011 669.001 36.7949C668.879 38.7887 668.818 40.16 668.818 40.9087L668.806 41.2017C668.798 41.397 668.793 41.5841 668.793 41.7632L668.781 42.0439C668.781 42.0439 668.781 42.3613 668.781 42.9961C668.781 43.818 668.846 44.4365 668.977 44.8516C669.107 45.2666 669.172 45.5636 669.172 45.7427C669.172 45.9217 669.07 46.1089 668.867 46.3042C668.663 46.4995 668.346 46.5972 667.915 46.5972C667.491 46.5972 667.08 46.528 666.682 46.3896C666.283 46.2432 665.99 46.1699 665.803 46.1699C665.616 46.1699 665.371 46.2269 665.07 46.3408C664.159 46.6745 663.325 46.8413 662.568 46.8413C662.552 46.8413 662.535 46.8413 662.519 46.8413H662.238C661.009 46.8413 660.049 46.3937 659.357 45.4985C658.674 44.5952 658.332 43.4111 658.332 41.9463V41.6411ZM674.567 39.5781V39.7734C674.567 40.0176 674.791 40.1396 675.239 40.1396H675.532L675.605 40.1274L676.203 40.0786C676.83 39.9891 677.237 39.9443 677.424 39.9443C678.311 39.9443 678.978 39.7775 679.426 39.4438C679.637 39.2811 679.743 38.9922 679.743 38.5771V38.4429C679.743 37.8325 679.54 37.3483 679.133 36.9902C678.734 36.6322 678.254 36.4531 677.692 36.4531H677.607L677.534 36.4653C676.744 36.4653 676.053 36.799 675.458 37.4663C674.864 38.1336 674.567 38.8376 674.567 39.5781ZM677.229 47.1587H676.96C675.406 47.1587 674.169 46.6663 673.249 45.6816C672.329 44.6888 671.87 43.3664 671.87 41.7144V41.1772C671.87 40.3879 672.024 39.5863 672.333 38.7725C672.96 37.1449 673.981 36.0218 675.397 35.4033C676.146 35.0697 676.907 34.9028 677.68 34.9028H678.205C679.271 34.9028 680.17 35.2609 680.903 35.9771C681.643 36.6851 682.014 37.6006 682.014 38.7236V38.9678C682.014 39.7653 681.696 40.3309 681.062 40.6646C680.622 40.9006 679.597 41.1366 677.985 41.3726C676.374 41.6086 675.495 41.751 675.349 41.7998C674.86 41.9707 674.616 42.2962 674.616 42.7764C674.616 43.4437 674.901 44.0133 675.471 44.4854C676.04 44.9574 676.805 45.1934 677.766 45.1934C678.213 45.1934 678.824 45.0713 679.597 44.8271C680.37 44.583 680.817 44.4609 680.939 44.4609C681.354 44.4609 681.562 44.64 681.562 44.998C681.562 45.4782 681.094 45.9583 680.158 46.4385C679.222 46.9186 678.246 47.1587 677.229 47.1587ZM685.444 40.6523V39.7124C685.444 38.5812 685.383 37.7552 685.261 37.2344C685.139 36.7054 685.078 36.3351 685.078 36.1235C685.078 35.6271 685.44 35.3789 686.164 35.3789C686.888 35.3789 687.413 35.5132 687.739 35.7817C687.828 35.855 687.942 35.9974 688.081 36.209C688.227 36.4206 688.357 36.5264 688.471 36.5264C688.496 36.5264 688.85 36.3188 689.533 35.9038C690.217 35.4888 690.803 35.2812 691.291 35.2812H691.474C691.873 35.2812 692.19 35.3789 692.426 35.5742C692.662 35.7614 692.78 35.9933 692.78 36.27V36.4287C692.78 36.7624 692.662 37.0024 692.426 37.1489C692.198 37.2954 691.832 37.3687 691.328 37.3687C690.18 37.3687 689.342 37.7715 688.813 38.5771C688.292 39.3828 688.032 40.807 688.032 42.8496C688.032 43.1426 688.081 43.5942 688.178 44.2046C688.284 44.8149 688.337 45.2747 688.337 45.584C688.337 45.8932 688.17 46.1903 687.836 46.4751C687.503 46.7599 687.08 46.9023 686.567 46.9023H686.152C685.704 46.9023 685.358 46.7965 685.114 46.585C684.878 46.3652 684.76 46.1007 684.76 45.7915C684.76 45.4741 684.817 45.1527 684.931 44.8271C685.24 43.9482 685.395 42.9798 685.395 41.9219C685.428 41.3359 685.444 40.9128 685.444 40.6523ZM695.661 40.1885C695.165 39.6839 694.917 38.9759 694.917 38.0645C694.917 37.153 695.323 36.3717 696.137 35.7207C696.951 35.0615 697.96 34.7319 699.165 34.7319H699.482C700.548 34.7319 701.394 34.8825 702.021 35.1836C702.656 35.4847 702.973 35.9364 702.973 36.5386C702.973 37.1326 702.709 37.4297 702.18 37.4297C702.041 37.4297 701.651 37.2669 701.008 36.9414C700.365 36.6077 699.759 36.4409 699.189 36.4409C698.619 36.4409 698.16 36.5711 697.81 36.8315C697.468 37.0838 697.297 37.4338 697.297 37.8813C697.297 38.3289 697.537 38.7196 698.017 39.0532C698.294 39.2485 698.945 39.5578 699.97 39.981C701.004 40.4041 701.74 40.811 702.18 41.2017C702.888 41.8283 703.242 42.6299 703.242 43.6064C703.242 44.583 702.827 45.4212 701.997 46.1211C701.167 46.8128 700.088 47.1587 698.762 47.1587H698.444C697.11 47.1587 696.109 46.9674 695.441 46.585C694.774 46.1943 694.44 45.6898 694.44 45.0713C694.44 44.4447 694.701 44.1313 695.222 44.1313C695.393 44.1313 695.836 44.3511 696.552 44.7905C697.277 45.23 697.985 45.4497 698.676 45.4497C699.376 45.4497 699.901 45.3032 700.251 45.0103C700.601 44.7091 700.776 44.3348 700.776 43.8872C700.776 43.4315 700.556 43.0327 700.117 42.6909C699.881 42.5037 699.205 42.166 698.09 41.6777C696.975 41.1813 696.166 40.6849 695.661 40.1885ZM707.575 47.1953H707.197C706.79 47.1953 706.472 47.1017 706.245 46.9146C706.025 46.7274 705.915 46.4792 705.915 46.1699C705.899 46.1048 705.891 46.0519 705.891 46.0112L705.866 45.8037V45.584L705.878 45.5352V45.4253C705.895 45.3602 705.903 45.3073 705.903 45.2666C705.903 44.9004 706.025 44.6156 706.269 44.4121C706.521 44.2005 706.798 44.0947 707.099 44.0947L707.355 44.0581H707.685C708.572 44.0581 709.016 44.522 709.016 45.4497V45.6206L708.967 46.0356C708.967 46.41 708.824 46.6989 708.54 46.9023C708.263 47.0977 707.941 47.1953 707.575 47.1953Z" fill="black"/>
</svg>
