<svg width="758" height="87" viewBox="0 0 758 87" fill="none" xmlns="http://www.w3.org/2000/svg">
<rect width="758" height="87" rx="18" fill="#D9D9D9"/>
<path d="M33.7067 54.1177C33.3567 54.1177 33.1817 53.9427 33.1817 53.5927V49.3927C33.1817 49.0427 33.3567 48.8677 33.7067 48.8677H42.5267V42.5677H35.4497C35.0997 42.5677 34.9247 42.3927 34.9247 42.0427V37.8427C34.9247 37.4927 35.0997 37.3177 35.4497 37.3177H42.5267V31.7107H33.7067C33.3567 31.7107 33.1817 31.5357 33.1817 31.1857V26.6497C33.1817 26.2997 33.3567 26.1247 33.7067 26.1247H44.1437C44.4657 26.1247 44.7457 26.2367 44.9837 26.4607L49.1837 30.6607C49.4077 30.8987 49.5197 31.1787 49.5197 31.5007V35.7007C49.5197 35.9947 49.4497 36.2047 49.3097 36.3307L46.5797 39.4597V40.7827L49.3097 43.8907C49.4497 44.0307 49.5197 44.2407 49.5197 44.5207V48.7207C49.5197 49.0567 49.4077 49.3367 49.1837 49.5607L44.9837 53.7607C44.7457 53.9987 44.4657 54.1177 44.1437 54.1177H33.7067Z" fill="#2ECC71"/>
<path d="M84.61 44.3896C84.3252 44.5931 83.8817 44.6948 83.2795 44.6948C82.6773 44.6948 82.2419 44.5809 81.9733 44.353C81.7048 44.117 81.5705 43.8118 81.5705 43.4375V43.1567C81.5705 43.0103 81.6682 42.6969 81.8635 42.2168C82.0669 41.7285 82.189 41.2443 82.2297 40.7642C82.5145 37.4601 82.6569 35.0065 82.6569 33.4033C82.6569 31.8001 82.6406 30.8643 82.6081 30.5957C82.5755 30.3271 82.4982 30.0057 82.3762 29.6313C82.2622 29.257 82.2053 29.0617 82.2053 29.0454C82.2053 28.6141 82.482 28.3496 83.0353 28.252C84.6955 27.959 87.1206 27.8125 90.3107 27.8125H91.0676C91.6698 27.8125 92.1011 27.8939 92.3615 28.0566C92.6301 28.2194 92.7643 28.5246 92.7643 28.9722V29.2651C92.7643 29.8592 92.4877 30.1562 91.9343 30.1562C91.8122 30.1562 91.5599 30.1074 91.1774 30.0098C90.7949 29.9121 90.4369 29.8348 90.1032 29.7778C89.7777 29.7127 89.0819 29.6802 88.0158 29.6802C86.9579 29.6802 86.2661 29.9284 85.9406 30.4248C85.6232 30.9212 85.4645 31.8978 85.4645 33.3545C85.4645 34.1032 85.5825 34.6037 85.8185 34.856C86.0627 35.1001 86.6242 35.2222 87.5031 35.2222C87.7228 35.2222 88.0524 35.1774 88.4919 35.0879C88.9313 34.9984 89.3098 34.9536 89.6271 34.9536C89.9445 34.9536 90.2253 35.092 90.4694 35.3687C90.7217 35.6453 90.8478 36.036 90.8478 36.5405C90.8478 37.2648 90.4735 37.627 89.7248 37.627L88.3088 37.5049C87.6903 37.5049 87.1369 37.6107 86.6486 37.8223C86.1603 38.0257 85.8267 38.2739 85.6476 38.5669C85.2082 39.283 84.9885 40.4793 84.9885 42.1558L85.0495 43.5962C85.0495 43.9136 84.903 44.1781 84.61 44.3896ZM96.402 39.8486C96.402 40.9147 96.6462 41.8018 97.1345 42.5098C97.6227 43.2178 98.2209 43.5718 98.9289 43.5718H99.2951C100.133 43.5718 100.841 43.1486 101.419 42.3022C102.005 41.4559 102.298 40.3288 102.298 38.9209V38.1152C102.298 37.0247 102.058 36.1336 101.578 35.4419C101.106 34.742 100.495 34.3921 99.7468 34.3921H99.5026C98.6319 34.3921 97.8994 34.8234 97.3054 35.686C96.7194 36.5487 96.4265 37.5781 96.4265 38.7744L96.402 39.0552V39.8486ZM99.1608 45.2319H98.7702C97.346 45.2319 96.1864 44.7355 95.2912 43.7427C94.396 42.7498 93.9484 41.342 93.9484 39.519L93.9606 39.3115C93.9606 37.3096 94.4896 35.7308 95.5475 34.5752C96.1009 33.9648 96.7316 33.5173 97.4396 33.2324C98.1558 32.9395 98.8353 32.793 99.4782 32.793H100.076C100.793 32.793 101.48 32.9517 102.139 33.269C104.027 34.1805 104.971 35.8976 104.971 38.4204V38.6157C104.963 39.4377 104.829 40.2718 104.569 41.1182C104.048 42.7865 103.047 43.9665 101.566 44.6582C100.744 45.0407 99.9421 45.2319 99.1608 45.2319ZM108.182 28.0322C108.182 27.4382 108.739 27.1411 109.854 27.1411H110.074C110.538 27.1411 110.855 27.255 111.026 27.4829C111.197 27.7026 111.282 28.134 111.282 28.7769L111.185 30.5957C111.16 30.8805 111.148 31.0352 111.148 31.0596L111.124 31.5234C111.107 31.8245 111.091 32.1297 111.075 32.439L111.038 32.9028L111.002 33.5986C110.871 36.0726 110.806 37.8996 110.806 39.0796C110.806 40.2515 110.859 41.0938 110.965 41.6064C111.071 42.1191 111.238 42.5545 111.466 42.9126C111.693 43.2707 111.807 43.5067 111.807 43.6206V43.7671C111.807 44.1252 111.628 44.41 111.27 44.6216C110.92 44.8332 110.444 44.939 109.842 44.939H109.207C108.833 44.939 108.503 44.8332 108.218 44.6216C107.942 44.4019 107.803 44.1536 107.803 43.877V43.5474L107.877 43.0347C107.974 42.3267 108.031 41.7977 108.048 41.4478C108.072 41.0897 108.109 40.5973 108.157 39.9707C108.206 39.3359 108.284 37.9891 108.389 35.9302C108.503 33.8631 108.56 32.7523 108.56 32.5977L108.609 31.6821L108.633 30.7788C108.633 29.9162 108.556 29.3018 108.402 28.9355C108.255 28.5612 108.182 28.2601 108.182 28.0322ZM115.36 28.0322C115.36 27.4382 115.917 27.1411 117.032 27.1411H117.252C117.716 27.1411 118.033 27.255 118.204 27.4829C118.375 27.7026 118.46 28.134 118.46 28.7769L118.362 30.5957C118.338 30.8805 118.326 31.0352 118.326 31.0596L118.301 31.5234C118.285 31.8245 118.269 32.1297 118.253 32.439L118.216 32.9028L118.179 33.5986C118.049 36.0726 117.984 37.8996 117.984 39.0796C117.984 40.2515 118.037 41.0938 118.143 41.6064C118.249 42.1191 118.415 42.5545 118.643 42.9126C118.871 43.2707 118.985 43.5067 118.985 43.6206V43.7671C118.985 44.1252 118.806 44.41 118.448 44.6216C118.098 44.8332 117.622 44.939 117.02 44.939H116.385C116.011 44.939 115.681 44.8332 115.396 44.6216C115.119 44.4019 114.981 44.1536 114.981 43.877V43.5474L115.054 43.0347C115.152 42.3267 115.209 41.7977 115.225 41.4478C115.25 41.0897 115.286 40.5973 115.335 39.9707C115.384 39.3359 115.461 37.9891 115.567 35.9302C115.681 33.8631 115.738 32.7523 115.738 32.5977L115.787 31.6821L115.811 30.7788C115.811 29.9162 115.734 29.3018 115.579 28.9355C115.433 28.5612 115.36 28.2601 115.36 28.0322ZM123.941 39.8486C123.941 40.9147 124.185 41.8018 124.674 42.5098C125.162 43.2178 125.76 43.5718 126.468 43.5718H126.834C127.672 43.5718 128.38 43.1486 128.958 42.3022C129.544 41.4559 129.837 40.3288 129.837 38.9209V38.1152C129.837 37.0247 129.597 36.1336 129.117 35.4419C128.645 34.742 128.035 34.3921 127.286 34.3921H127.042C126.171 34.3921 125.438 34.8234 124.844 35.686C124.258 36.5487 123.966 37.5781 123.966 38.7744L123.941 39.0552V39.8486ZM126.7 45.2319H126.309C124.885 45.2319 123.725 44.7355 122.83 43.7427C121.935 42.7498 121.487 41.342 121.487 39.519L121.5 39.3115C121.5 37.3096 122.029 35.7308 123.087 34.5752C123.64 33.9648 124.271 33.5173 124.979 33.2324C125.695 32.9395 126.374 32.793 127.017 32.793H127.615C128.332 32.793 129.019 32.9517 129.678 33.269C131.566 34.1805 132.51 35.8976 132.51 38.4204V38.6157C132.502 39.4377 132.368 40.2718 132.108 41.1182C131.587 42.7865 130.586 43.9665 129.105 44.6582C128.283 45.0407 127.481 45.2319 126.7 45.2319ZM146.487 44.3774C145.91 44.3774 145.409 44.0153 144.986 43.291C144.709 42.8109 144.27 41.8343 143.668 40.3613C143.074 38.8802 142.736 38.1396 142.654 38.1396C142.63 38.1396 142.292 38.8314 141.641 40.2148C140.99 41.5902 140.506 42.5342 140.189 43.0469C139.684 43.8525 139.2 44.2554 138.736 44.2554C138.443 44.2554 138.134 44.1414 137.808 43.9136C137.491 43.6776 137.235 43.2951 137.039 42.7661C137.015 42.701 136.828 42.0011 136.478 40.6665C136.136 39.3319 135.782 38.0786 135.416 36.9067C135.058 35.7349 134.879 34.9414 134.879 34.5264C134.879 34.1113 134.968 33.8143 135.147 33.6353C135.326 33.4562 135.509 33.3667 135.696 33.3667C136.453 33.3667 136.986 33.68 137.296 34.3066C137.41 34.5345 137.556 35.1042 137.735 36.0156C138.59 39.3604 139.163 41.1344 139.456 41.3379C139.765 41.3379 140.217 40.3044 140.811 38.2373C141.055 37.391 141.214 36.63 141.287 35.9546C141.369 35.2791 141.422 34.8885 141.446 34.7827L141.556 34.3921C141.8 33.7492 142.284 33.4277 143.008 33.4277C143.741 33.4277 144.25 33.798 144.534 34.5386C144.648 34.8397 144.754 35.3687 144.852 36.1255C144.949 36.8742 145.088 37.627 145.267 38.3838C145.714 40.3206 146.068 41.2891 146.329 41.2891C146.646 41.2891 147.143 40.2759 147.818 38.2495C148.03 37.6147 148.249 36.8376 148.477 35.918C148.713 34.9984 148.876 34.445 148.966 34.2578C149.258 33.68 149.722 33.3911 150.357 33.3911C150.691 33.3911 150.858 33.7166 150.858 34.3677C150.858 34.7502 150.443 36.2069 149.612 38.7378C148.782 41.2606 148.282 42.7051 148.111 43.0713C147.94 43.4294 147.696 43.7386 147.379 43.999C147.061 44.2513 146.764 44.3774 146.487 44.3774ZM154.312 38.1885C153.816 37.6839 153.568 36.9759 153.568 36.0645C153.568 35.153 153.974 34.3717 154.788 33.7207C155.602 33.0615 156.611 32.7319 157.816 32.7319H158.133C159.199 32.7319 160.045 32.8825 160.672 33.1836C161.307 33.4847 161.624 33.9364 161.624 34.5386C161.624 35.1326 161.36 35.4297 160.831 35.4297C160.692 35.4297 160.302 35.2669 159.659 34.9414C159.016 34.6077 158.41 34.4409 157.84 34.4409C157.27 34.4409 156.811 34.5711 156.461 34.8315C156.119 35.0838 155.948 35.4338 155.948 35.8813C155.948 36.3289 156.188 36.7196 156.668 37.0532C156.945 37.2485 157.596 37.5578 158.621 37.981C159.655 38.4041 160.391 38.811 160.831 39.2017C161.539 39.8283 161.893 40.6299 161.893 41.6064C161.893 42.583 161.478 43.4212 160.648 44.1211C159.818 44.8128 158.739 45.1587 157.413 45.1587H157.095C155.761 45.1587 154.76 44.9674 154.092 44.585C153.425 44.1943 153.091 43.6898 153.091 43.0713C153.091 42.4447 153.352 42.1313 153.873 42.1313C154.044 42.1313 154.487 42.3511 155.203 42.7905C155.928 43.23 156.636 43.4497 157.327 43.4497C158.027 43.4497 158.552 43.3032 158.902 43.0103C159.252 42.7091 159.427 42.3348 159.427 41.8872C159.427 41.4315 159.207 41.0327 158.768 40.6909C158.532 40.5037 157.856 40.166 156.741 39.6777C155.626 39.1813 154.817 38.6849 154.312 38.1885ZM175.345 29.1309V29.2773C175.345 29.6924 175.223 30.0464 174.979 30.3394C174.743 30.6242 174.376 30.7666 173.88 30.7666H173.685L173.306 30.7178C173.087 30.7178 172.875 30.616 172.672 30.4126C172.468 30.2091 172.366 29.904 172.366 29.4971V29.3506L172.427 28.9111C172.427 28.7402 172.529 28.5286 172.733 28.2764C172.944 28.0241 173.213 27.8979 173.538 27.8979L173.819 27.8613H174.063L174.405 27.9102C174.617 27.9102 174.824 28.016 175.028 28.2275C175.239 28.431 175.345 28.7321 175.345 29.1309ZM174.771 34.2822L174.637 37.5659L174.612 37.8955L174.576 38.8965V39.3726C174.576 40.5444 174.608 41.3135 174.674 41.6797C174.747 42.0459 174.881 42.404 175.076 42.7539C175.272 43.0957 175.369 43.3439 175.369 43.4985V43.6084C175.369 44.0072 175.166 44.3245 174.759 44.5605C174.352 44.7965 173.799 44.9146 173.099 44.9146H172.794C172.387 44.9146 172.077 44.825 171.866 44.646C171.654 44.4588 171.549 44.2594 171.549 44.0479V43.7793C171.549 43.6735 171.642 43.2992 171.829 42.6562C172.016 42.0052 172.11 41.1222 172.11 40.0073C172.134 39.6899 172.147 39.4702 172.147 39.3481L172.183 38.6768L172.208 38.3472C172.248 37.7775 172.269 37.334 172.269 37.0166L172.281 36.5283C172.281 35.918 172.179 35.3768 171.976 34.9048C171.78 34.4328 171.683 34.1398 171.683 34.0259C171.683 33.4399 172.236 33.147 173.343 33.147H173.782C174.197 33.147 174.466 33.2568 174.588 33.4766C174.71 33.6882 174.771 33.9567 174.771 34.2822ZM189.578 43.5352C189.578 44.1374 189.053 44.4385 188.004 44.4385C187.41 44.4385 187.011 44.2961 186.807 44.0112C186.71 43.8729 186.661 43.5474 186.661 43.0347L186.624 42.2534C186.567 41.3989 186.539 40.5404 186.539 39.6777C186.539 37.8141 186.376 36.5649 186.05 35.9302C185.733 35.2873 185.196 34.9658 184.439 34.9658C183.935 34.9658 183.467 35.1164 183.035 35.4175C182.612 35.7186 182.287 36.1377 182.059 36.6748C181.587 37.7734 181.351 39.8039 181.351 42.7661C181.351 43.4416 181.221 43.9176 180.96 44.1943C180.708 44.471 180.382 44.6094 179.984 44.6094H179.739C178.828 44.6094 178.372 44.2472 178.372 43.5229V43.23C178.372 43.1405 178.421 42.9451 178.519 42.644L178.714 42.0825C178.909 41.4233 179.007 40.0114 179.007 37.8467L179.068 34.2212C179.068 33.7573 179.32 33.5254 179.825 33.5254C180.329 33.5254 180.826 33.6922 181.314 34.0259C181.811 34.3595 182.124 34.5264 182.254 34.5264C182.392 34.5264 182.633 34.4328 182.974 34.2456C184.122 33.619 185.041 33.3057 185.733 33.3057H186.05C187.296 33.3057 188.17 33.8672 188.675 34.9902C188.919 35.5192 189.041 36.6585 189.041 38.4082V38.4937C189.041 38.6401 189.037 38.7866 189.029 38.9331C189.029 39.3319 189.029 39.5394 189.029 39.5557C189.029 39.7103 189.029 39.8608 189.029 40.0073C189.029 40.1213 189.029 40.2311 189.029 40.3369C189.029 40.9635 189.049 41.3908 189.09 41.6187C189.147 41.9279 189.241 42.2493 189.371 42.583C189.509 42.9492 189.578 43.2666 189.578 43.5352ZM193.326 38.1885C192.829 37.6839 192.581 36.9759 192.581 36.0645C192.581 35.153 192.988 34.3717 193.802 33.7207C194.616 33.0615 195.625 32.7319 196.829 32.7319H197.147C198.213 32.7319 199.059 32.8825 199.686 33.1836C200.32 33.4847 200.638 33.9364 200.638 34.5386C200.638 35.1326 200.373 35.4297 199.844 35.4297C199.706 35.4297 199.315 35.2669 198.673 34.9414C198.03 34.6077 197.423 34.4409 196.854 34.4409C196.284 34.4409 195.824 34.5711 195.474 34.8315C195.133 35.0838 194.962 35.4338 194.962 35.8813C194.962 36.3289 195.202 36.7196 195.682 37.0532C195.959 37.2485 196.61 37.5578 197.635 37.981C198.668 38.4041 199.405 38.811 199.844 39.2017C200.552 39.8283 200.906 40.6299 200.906 41.6064C200.906 42.583 200.491 43.4212 199.661 44.1211C198.831 44.8128 197.753 45.1587 196.426 45.1587H196.109C194.774 45.1587 193.773 44.9674 193.106 44.585C192.439 44.1943 192.105 43.6898 192.105 43.0713C192.105 42.4447 192.366 42.1313 192.886 42.1313C193.057 42.1313 193.501 42.3511 194.217 42.7905C194.941 43.23 195.649 43.4497 196.341 43.4497C197.041 43.4497 197.566 43.3032 197.916 43.0103C198.266 42.7091 198.441 42.3348 198.441 41.8872C198.441 41.4315 198.221 41.0327 197.781 40.6909C197.545 40.5037 196.87 40.166 195.755 39.6777C194.64 39.1813 193.83 38.6849 193.326 38.1885ZM209.903 43.6938C209.903 44.0194 209.704 44.3123 209.305 44.5728C208.914 44.825 208.381 44.9512 207.706 44.9512C206.444 44.9512 205.557 44.4832 205.045 43.5474C204.727 42.9614 204.569 41.5902 204.569 39.4336C204.569 37.277 204.532 36.0238 204.459 35.6738C204.385 35.3239 204.182 34.9821 203.848 34.6484C203.515 34.3148 203.348 34.0584 203.348 33.8794C203.348 33.8143 203.743 33.387 204.532 32.5977C204.703 32.4268 204.874 32.0483 205.045 31.4624C205.224 30.8765 205.35 30.4899 205.423 30.3027C205.667 29.7168 205.989 29.4238 206.387 29.4238H206.583C206.933 29.4238 207.181 29.5581 207.327 29.8267C207.384 29.9325 207.47 30.3149 207.584 30.9741C207.706 31.6252 207.844 32.0443 207.999 32.2314C208.153 32.4186 208.54 32.6261 209.158 32.854C209.785 33.0737 210.098 33.3097 210.098 33.562V33.6963C210.098 34.0218 209.74 34.2985 209.024 34.5264C208.316 34.7461 207.86 35.1001 207.657 35.5884C207.258 36.5731 207.059 38.1763 207.059 40.3979C207.059 41.4396 207.238 42.1476 207.596 42.522C207.816 42.7498 208.255 42.9085 208.914 42.998C209.573 43.0876 209.903 43.3195 209.903 43.6938ZM213.48 38.6523V37.7124C213.48 36.5812 213.419 35.7552 213.297 35.2344C213.174 34.7054 213.113 34.3351 213.113 34.1235C213.113 33.6271 213.476 33.3789 214.2 33.3789C214.924 33.3789 215.449 33.5132 215.775 33.7817C215.864 33.855 215.978 33.9974 216.116 34.209C216.263 34.4206 216.393 34.5264 216.507 34.5264C216.531 34.5264 216.885 34.3188 217.569 33.9038C218.253 33.4888 218.839 33.2812 219.327 33.2812H219.51C219.909 33.2812 220.226 33.3789 220.462 33.5742C220.698 33.7614 220.816 33.9933 220.816 34.27V34.4287C220.816 34.7624 220.698 35.0024 220.462 35.1489C220.234 35.2954 219.868 35.3687 219.363 35.3687C218.216 35.3687 217.378 35.7715 216.849 36.5771C216.328 37.3828 216.068 38.807 216.068 40.8496C216.068 41.1426 216.116 41.5942 216.214 42.2046C216.32 42.8149 216.373 43.2747 216.373 43.584C216.373 43.8932 216.206 44.1903 215.872 44.4751C215.539 44.7599 215.115 44.9023 214.603 44.9023H214.188C213.74 44.9023 213.394 44.7965 213.15 44.585C212.914 44.3652 212.796 44.1007 212.796 43.7915C212.796 43.4741 212.853 43.1527 212.967 42.8271C213.276 41.9482 213.431 40.9798 213.431 39.9219C213.463 39.3359 213.48 38.9128 213.48 38.6523ZM222.867 34.0259C222.867 33.5132 223.298 33.2568 224.161 33.2568H224.442C224.979 33.2568 225.341 33.4725 225.528 33.9038C225.715 34.3351 225.809 35.1408 225.809 36.3208L225.662 40.3979C225.662 42.2941 226.342 43.2422 227.701 43.2422C228.197 43.2422 228.673 43.0672 229.129 42.7173C229.585 42.3674 229.923 41.9482 230.142 41.46C230.622 40.3857 230.862 38.4611 230.862 35.686L230.838 35.1489V34.6729C230.838 34.2415 230.936 33.9282 231.131 33.7329C231.326 33.5376 231.668 33.4399 232.156 33.4399C232.645 33.4399 232.966 33.5579 233.121 33.7939C233.275 34.0299 233.353 34.4124 233.353 34.9414L233.328 35.5884L233.279 38.4692C233.279 38.9331 233.308 39.6452 233.365 40.6055C233.422 41.5658 233.483 42.2697 233.548 42.7173C233.613 43.1567 233.646 43.4172 233.646 43.4985C233.646 44.2228 233.113 44.585 232.047 44.585C231.68 44.585 231.314 44.4507 230.948 44.1821C230.59 43.9054 230.334 43.7671 230.179 43.7671C230.032 43.7671 229.78 43.8566 229.422 44.0356C228.405 44.5483 227.538 44.8047 226.822 44.8047H226.517C225.353 44.8047 224.499 44.4466 223.953 43.7305C223.408 43.0143 223.135 41.7244 223.135 39.8608L223.258 36.1621C223.258 35.6982 223.192 35.2547 223.062 34.8315C222.932 34.4084 222.867 34.1398 222.867 34.0259ZM236.295 39.9219V39.3604C236.295 38.335 236.453 37.4276 236.771 36.6382C237.381 35.1082 238.317 34.0503 239.578 33.4644C240.4 33.0737 241.251 32.8784 242.13 32.8784H242.398C243.367 32.8784 244.168 33.0697 244.803 33.4521C245.438 33.8346 245.755 34.3026 245.755 34.856C245.755 35.4989 245.446 35.8203 244.827 35.8203C244.713 35.8203 244.315 35.6413 243.631 35.2832C242.947 34.9333 242.386 34.7583 241.946 34.7583C241.938 34.7583 241.93 34.7583 241.922 34.7583C240.962 34.7583 240.209 35.1733 239.664 36.0034C239.127 36.8335 238.858 37.9159 238.858 39.2505C238.858 40.5851 239.143 41.5739 239.713 42.2168C240.29 42.8597 241.092 43.1812 242.117 43.1812C242.541 43.1812 243.122 43.0632 243.863 42.8271C244.604 42.583 245.055 42.4609 245.218 42.4609C245.552 42.4609 245.718 42.6359 245.718 42.9858C245.718 43.4578 245.251 43.9339 244.315 44.4141C243.379 44.8942 242.459 45.1343 241.556 45.1343C239.139 45.1343 237.54 44.1821 236.758 42.2778C236.449 41.521 236.295 40.7357 236.295 39.9219ZM254.703 43.6938C254.703 44.0194 254.503 44.3123 254.105 44.5728C253.714 44.825 253.181 44.9512 252.506 44.9512C251.244 44.9512 250.357 44.4832 249.844 43.5474C249.527 42.9614 249.368 41.5902 249.368 39.4336C249.368 37.277 249.332 36.0238 249.258 35.6738C249.185 35.3239 248.982 34.9821 248.648 34.6484C248.314 34.3148 248.148 34.0584 248.148 33.8794C248.148 33.8143 248.542 33.387 249.332 32.5977C249.503 32.4268 249.674 32.0483 249.844 31.4624C250.023 30.8765 250.15 30.4899 250.223 30.3027C250.467 29.7168 250.788 29.4238 251.187 29.4238H251.383C251.732 29.4238 251.981 29.5581 252.127 29.8267C252.184 29.9325 252.27 30.3149 252.383 30.9741C252.506 31.6252 252.644 32.0443 252.799 32.2314C252.953 32.4186 253.34 32.6261 253.958 32.854C254.585 33.0737 254.898 33.3097 254.898 33.562V33.6963C254.898 34.0218 254.54 34.2985 253.824 34.5264C253.116 34.7461 252.66 35.1001 252.457 35.5884C252.058 36.5731 251.859 38.1763 251.859 40.3979C251.859 41.4396 252.038 42.1476 252.396 42.522C252.615 42.7498 253.055 42.9085 253.714 42.998C254.373 43.0876 254.703 43.3195 254.703 43.6938ZM261.478 29.1309V29.2773C261.478 29.6924 261.356 30.0464 261.112 30.3394C260.876 30.6242 260.509 30.7666 260.013 30.7666H259.818L259.439 30.7178C259.219 30.7178 259.008 30.616 258.804 30.4126C258.601 30.2091 258.499 29.904 258.499 29.4971V29.3506L258.56 28.9111C258.56 28.7402 258.662 28.5286 258.865 28.2764C259.077 28.0241 259.346 27.8979 259.671 27.8979L259.952 27.8613H260.196L260.538 27.9102C260.749 27.9102 260.957 28.016 261.16 28.2275C261.372 28.431 261.478 28.7321 261.478 29.1309ZM260.904 34.2822L260.77 37.5659L260.745 37.8955L260.709 38.8965V39.3726C260.709 40.5444 260.741 41.3135 260.806 41.6797C260.88 42.0459 261.014 42.404 261.209 42.7539C261.404 43.0957 261.502 43.3439 261.502 43.4985V43.6084C261.502 44.0072 261.299 44.3245 260.892 44.5605C260.485 44.7965 259.931 44.9146 259.232 44.9146H258.926C258.52 44.9146 258.21 44.825 257.999 44.646C257.787 44.4588 257.681 44.2594 257.681 44.0479V43.7793C257.681 43.6735 257.775 43.2992 257.962 42.6562C258.149 42.0052 258.243 41.1222 258.243 40.0073C258.267 39.6899 258.279 39.4702 258.279 39.3481L258.316 38.6768L258.341 38.3472C258.381 37.7775 258.402 37.334 258.402 37.0166L258.414 36.5283C258.414 35.918 258.312 35.3768 258.109 34.9048C257.913 34.4328 257.816 34.1398 257.816 34.0259C257.816 33.4399 258.369 33.147 259.476 33.147H259.915C260.33 33.147 260.599 33.2568 260.721 33.4766C260.843 33.6882 260.904 33.9567 260.904 34.2822ZM266.641 39.8486C266.641 40.9147 266.885 41.8018 267.374 42.5098C267.862 43.2178 268.46 43.5718 269.168 43.5718H269.534C270.373 43.5718 271.081 43.1486 271.658 42.3022C272.244 41.4559 272.537 40.3288 272.537 38.9209V38.1152C272.537 37.0247 272.297 36.1336 271.817 35.4419C271.345 34.742 270.735 34.3921 269.986 34.3921H269.742C268.871 34.3921 268.139 34.8234 267.545 35.686C266.959 36.5487 266.666 37.5781 266.666 38.7744L266.641 39.0552V39.8486ZM269.4 45.2319H269.009C267.585 45.2319 266.426 44.7355 265.53 43.7427C264.635 42.7498 264.188 41.342 264.188 39.519L264.2 39.3115C264.2 37.3096 264.729 35.7308 265.787 34.5752C266.34 33.9648 266.971 33.5173 267.679 33.2324C268.395 32.9395 269.075 32.793 269.717 32.793H270.316C271.032 32.793 271.719 32.9517 272.379 33.269C274.267 34.1805 275.211 35.8976 275.211 38.4204V38.6157C275.202 39.4377 275.068 40.2718 274.808 41.1182C274.287 42.7865 273.286 43.9665 271.805 44.6582C270.983 45.0407 270.181 45.2319 269.4 45.2319ZM288.944 43.5352C288.944 44.1374 288.419 44.4385 287.369 44.4385C286.775 44.4385 286.376 44.2961 286.173 44.0112C286.075 43.8729 286.026 43.5474 286.026 43.0347L285.989 42.2534C285.932 41.3989 285.904 40.5404 285.904 39.6777C285.904 37.8141 285.741 36.5649 285.416 35.9302C285.098 35.2873 284.561 34.9658 283.804 34.9658C283.3 34.9658 282.832 35.1164 282.401 35.4175C281.977 35.7186 281.652 36.1377 281.424 36.6748C280.952 37.7734 280.716 39.8039 280.716 42.7661C280.716 43.4416 280.586 43.9176 280.325 44.1943C280.073 44.471 279.748 44.6094 279.349 44.6094H279.105C278.193 44.6094 277.737 44.2472 277.737 43.5229V43.23C277.737 43.1405 277.786 42.9451 277.884 42.644L278.079 42.0825C278.275 41.4233 278.372 40.0114 278.372 37.8467L278.433 34.2212C278.433 33.7573 278.686 33.5254 279.19 33.5254C279.695 33.5254 280.191 33.6922 280.679 34.0259C281.176 34.3595 281.489 34.5264 281.619 34.5264C281.758 34.5264 281.998 34.4328 282.34 34.2456C283.487 33.619 284.407 33.3057 285.098 33.3057H285.416C286.661 33.3057 287.536 33.8672 288.04 34.9902C288.284 35.5192 288.406 36.6585 288.406 38.4082V38.4937C288.406 38.6401 288.402 38.7866 288.394 38.9331C288.394 39.3319 288.394 39.5394 288.394 39.5557C288.394 39.7103 288.394 39.8608 288.394 40.0073C288.394 40.1213 288.394 40.2311 288.394 40.3369C288.394 40.9635 288.415 41.3908 288.455 41.6187C288.512 41.9279 288.606 42.2493 288.736 42.583C288.874 42.9492 288.944 43.2666 288.944 43.5352ZM292.691 38.1885C292.195 37.6839 291.946 36.9759 291.946 36.0645C291.946 35.153 292.353 34.3717 293.167 33.7207C293.981 33.0615 294.99 32.7319 296.195 32.7319H296.512C297.578 32.7319 298.424 32.8825 299.051 33.1836C299.686 33.4847 300.003 33.9364 300.003 34.5386C300.003 35.1326 299.739 35.4297 299.21 35.4297C299.071 35.4297 298.681 35.2669 298.038 34.9414C297.395 34.6077 296.789 34.4409 296.219 34.4409C295.649 34.4409 295.189 34.5711 294.84 34.8315C294.498 35.0838 294.327 35.4338 294.327 35.8813C294.327 36.3289 294.567 36.7196 295.047 37.0532C295.324 37.2485 295.975 37.5578 297 37.981C298.034 38.4041 298.77 38.811 299.21 39.2017C299.918 39.8283 300.272 40.6299 300.272 41.6064C300.272 42.583 299.857 43.4212 299.027 44.1211C298.196 44.8128 297.118 45.1587 295.792 45.1587H295.474C294.14 45.1587 293.139 44.9674 292.471 44.585C291.804 44.1943 291.47 43.6898 291.47 43.0713C291.47 42.4447 291.731 42.1313 292.252 42.1313C292.423 42.1313 292.866 42.3511 293.582 42.7905C294.306 43.23 295.015 43.4497 295.706 43.4497C296.406 43.4497 296.931 43.3032 297.281 43.0103C297.631 42.7091 297.806 42.3348 297.806 41.8872C297.806 41.4315 297.586 41.0327 297.147 40.6909C296.911 40.5037 296.235 40.166 295.12 39.6777C294.005 39.1813 293.196 38.6849 292.691 38.1885ZM321.341 44.3774C320.763 44.3774 320.263 44.0153 319.84 43.291C319.563 42.8109 319.123 41.8343 318.521 40.3613C317.927 38.8802 317.589 38.1396 317.508 38.1396C317.484 38.1396 317.146 38.8314 316.495 40.2148C315.844 41.5902 315.36 42.5342 315.042 43.0469C314.538 43.8525 314.053 44.2554 313.59 44.2554C313.297 44.2554 312.987 44.1414 312.662 43.9136C312.344 43.6776 312.088 43.2951 311.893 42.7661C311.868 42.701 311.681 42.0011 311.331 40.6665C310.989 39.3319 310.635 38.0786 310.269 36.9067C309.911 35.7349 309.732 34.9414 309.732 34.5264C309.732 34.1113 309.822 33.8143 310.001 33.6353C310.18 33.4562 310.363 33.3667 310.55 33.3667C311.307 33.3667 311.84 33.68 312.149 34.3066C312.263 34.5345 312.41 35.1042 312.589 36.0156C313.443 39.3604 314.017 41.1344 314.31 41.3379C314.619 41.3379 315.071 40.3044 315.665 38.2373C315.909 37.391 316.068 36.63 316.141 35.9546C316.222 35.2791 316.275 34.8885 316.299 34.7827L316.409 34.3921C316.654 33.7492 317.138 33.4277 317.862 33.4277C318.594 33.4277 319.103 33.798 319.388 34.5386C319.502 34.8397 319.608 35.3687 319.705 36.1255C319.803 36.8742 319.941 37.627 320.12 38.3838C320.568 40.3206 320.922 41.2891 321.182 41.2891C321.5 41.2891 321.996 40.2759 322.672 38.2495C322.883 37.6147 323.103 36.8376 323.331 35.918C323.567 34.9984 323.73 34.445 323.819 34.2578C324.112 33.68 324.576 33.3911 325.211 33.3911C325.544 33.3911 325.711 33.7166 325.711 34.3677C325.711 34.7502 325.296 36.2069 324.466 38.7378C323.636 41.2606 323.135 42.7051 322.965 43.0713C322.794 43.4294 322.549 43.7386 322.232 43.999C321.915 44.2513 321.618 44.3774 321.341 44.3774ZM330.386 37.5781V37.7734C330.386 38.0176 330.61 38.1396 331.058 38.1396H331.351L331.424 38.1274L332.022 38.0786C332.649 37.9891 333.056 37.9443 333.243 37.9443C334.13 37.9443 334.797 37.7775 335.245 37.4438C335.456 37.2811 335.562 36.9922 335.562 36.5771V36.4429C335.562 35.8325 335.359 35.3483 334.952 34.9902C334.553 34.6322 334.073 34.4531 333.511 34.4531H333.426L333.353 34.4653C332.563 34.4653 331.872 34.799 331.278 35.4663C330.683 36.1336 330.386 36.8376 330.386 37.5781ZM333.048 45.1587H332.779C331.225 45.1587 329.988 44.6663 329.068 43.6816C328.148 42.6888 327.689 41.3664 327.689 39.7144V39.1772C327.689 38.3879 327.843 37.5863 328.153 36.7725C328.779 35.1449 329.8 34.0218 331.216 33.4033C331.965 33.0697 332.726 32.9028 333.499 32.9028H334.024C335.09 32.9028 335.989 33.2609 336.722 33.9771C337.462 34.6851 337.833 35.6006 337.833 36.7236V36.9678C337.833 37.7653 337.515 38.3309 336.881 38.6646C336.441 38.9006 335.416 39.1366 333.804 39.3726C332.193 39.6086 331.314 39.751 331.168 39.7998C330.679 39.9707 330.435 40.2962 330.435 40.7764C330.435 41.4437 330.72 42.0133 331.29 42.4854C331.859 42.9574 332.624 43.1934 333.585 43.1934C334.032 43.1934 334.643 43.0713 335.416 42.8271C336.189 42.583 336.636 42.4609 336.758 42.4609C337.174 42.4609 337.381 42.64 337.381 42.998C337.381 43.4782 336.913 43.9583 335.977 44.4385C335.041 44.9186 334.065 45.1587 333.048 45.1587ZM341.165 28.0322C341.165 27.4382 341.723 27.1411 342.838 27.1411H343.057C343.521 27.1411 343.839 27.255 344.009 27.4829C344.18 27.7026 344.266 28.134 344.266 28.7769L344.168 30.5957C344.144 30.8805 344.132 31.0352 344.132 31.0596L344.107 31.5234C344.091 31.8245 344.075 32.1297 344.058 32.439L344.022 32.9028L343.985 33.5986C343.855 36.0726 343.79 37.8996 343.79 39.0796C343.79 40.2515 343.843 41.0938 343.948 41.6064C344.054 42.1191 344.221 42.5545 344.449 42.9126C344.677 43.2707 344.791 43.5067 344.791 43.6206V43.7671C344.791 44.1252 344.612 44.41 344.254 44.6216C343.904 44.8332 343.428 44.939 342.825 44.939H342.191C341.816 44.939 341.487 44.8332 341.202 44.6216C340.925 44.4019 340.787 44.1536 340.787 43.877V43.5474L340.86 43.0347C340.958 42.3267 341.015 41.7977 341.031 41.4478C341.055 41.0897 341.092 40.5973 341.141 39.9707C341.19 39.3359 341.267 37.9891 341.373 35.9302C341.487 33.8631 341.544 32.7523 341.544 32.5977L341.592 31.6821L341.617 30.7788C341.617 29.9162 341.54 29.3018 341.385 28.9355C341.238 28.5612 341.165 28.2601 341.165 28.0322ZM348.343 28.0322C348.343 27.4382 348.9 27.1411 350.015 27.1411H350.235C350.699 27.1411 351.016 27.255 351.187 27.4829C351.358 27.7026 351.444 28.134 351.444 28.7769L351.346 30.5957C351.321 30.8805 351.309 31.0352 351.309 31.0596L351.285 31.5234C351.269 31.8245 351.252 32.1297 351.236 32.439L351.199 32.9028L351.163 33.5986C351.033 36.0726 350.967 37.8996 350.967 39.0796C350.967 40.2515 351.02 41.0938 351.126 41.6064C351.232 42.1191 351.399 42.5545 351.627 42.9126C351.855 43.2707 351.968 43.5067 351.968 43.6206V43.7671C351.968 44.1252 351.789 44.41 351.431 44.6216C351.081 44.8332 350.605 44.939 350.003 44.939H349.368C348.994 44.939 348.664 44.8332 348.38 44.6216C348.103 44.4019 347.965 44.1536 347.965 43.877V43.5474L348.038 43.0347C348.135 42.3267 348.192 41.7977 348.209 41.4478C348.233 41.0897 348.27 40.5973 348.319 39.9707C348.367 39.3359 348.445 37.9891 348.55 35.9302C348.664 33.8631 348.721 32.7523 348.721 32.5977L348.77 31.6821L348.795 30.7788C348.795 29.9162 348.717 29.3018 348.563 28.9355C348.416 28.5612 348.343 28.2601 348.343 28.0322ZM356.607 45.1953H356.229C355.822 45.1953 355.504 45.1017 355.277 44.9146C355.057 44.7274 354.947 44.4792 354.947 44.1699C354.931 44.1048 354.923 44.0519 354.923 44.0112L354.898 43.8037V43.584L354.91 43.5352V43.4253C354.927 43.3602 354.935 43.3073 354.935 43.2666C354.935 42.9004 355.057 42.6156 355.301 42.4121C355.553 42.2005 355.83 42.0947 356.131 42.0947L356.387 42.0581H356.717C357.604 42.0581 358.048 42.522 358.048 43.4497V43.6206L357.999 44.0356C357.999 44.41 357.856 44.6989 357.571 44.9023C357.295 45.0977 356.973 45.1953 356.607 45.1953ZM380.02 35.4053C380.02 35.3809 380.02 35.3564 380.02 35.332C380.02 34.624 379.91 33.8631 379.691 33.0493C379.292 31.5438 378.612 30.5062 377.652 29.9365C377.066 29.5866 376.488 29.4116 375.919 29.4116H375.345C374.661 29.4116 374.01 29.6232 373.392 30.0464C372.236 30.8358 371.443 32.0443 371.011 33.6719C370.743 34.681 370.609 35.6779 370.609 36.6626V37.4805C370.609 39.1732 370.999 40.5973 371.78 41.7529C372.57 42.9004 373.644 43.4741 375.003 43.4741H375.198C375.866 43.4741 376.501 43.3073 377.103 42.9736C378.234 42.3389 379.06 41.1426 379.581 39.3848C379.857 38.4652 379.996 37.5496 379.996 36.6382L380.02 36.2231V35.4053ZM382.901 35.3076V36.1255C382.901 37.3381 382.71 38.5303 382.327 39.7021C381.595 41.9564 380.305 43.5433 378.458 44.4629C377.383 45 376.289 45.2686 375.174 45.2686H374.625C373.721 45.2686 372.838 45.0732 371.976 44.6826C370.259 43.9176 369.095 42.5993 368.485 40.7275C368.126 39.6289 367.947 38.4977 367.947 37.334V36.7847C367.947 35.6291 368.139 34.445 368.521 33.2324C368.912 32.0199 369.465 31.0026 370.181 30.1807C370.897 29.3506 371.728 28.724 372.672 28.3008C373.616 27.8776 374.58 27.666 375.565 27.666H376.114C377.156 27.666 378.087 27.8654 378.909 28.2642C380.513 29.0454 381.627 30.2702 382.254 31.9385C382.685 33.0859 382.901 34.209 382.901 35.3076ZM385.147 39.9219V39.3604C385.147 38.335 385.306 37.4276 385.623 36.6382C386.234 35.1082 387.169 34.0503 388.431 33.4644C389.253 33.0737 390.103 32.8784 390.982 32.8784H391.251C392.219 32.8784 393.021 33.0697 393.655 33.4521C394.29 33.8346 394.608 34.3026 394.608 34.856C394.608 35.4989 394.298 35.8203 393.68 35.8203C393.566 35.8203 393.167 35.6413 392.484 35.2832C391.8 34.9333 391.238 34.7583 390.799 34.7583C390.791 34.7583 390.783 34.7583 390.775 34.7583C389.814 34.7583 389.062 35.1733 388.516 36.0034C387.979 36.8335 387.711 37.9159 387.711 39.2505C387.711 40.5851 387.995 41.5739 388.565 42.2168C389.143 42.8597 389.945 43.1812 390.97 43.1812C391.393 43.1812 391.975 43.0632 392.716 42.8271C393.456 42.583 393.908 42.4609 394.07 42.4609C394.404 42.4609 394.571 42.6359 394.571 42.9858C394.571 43.4578 394.103 43.9339 393.167 44.4141C392.231 44.8942 391.312 45.1343 390.408 45.1343C387.991 45.1343 386.392 44.1821 385.611 42.2778C385.302 41.521 385.147 40.7357 385.147 39.9219ZM396.744 39.9219V39.3604C396.744 38.335 396.903 37.4276 397.22 36.6382C397.83 35.1082 398.766 34.0503 400.028 33.4644C400.849 33.0737 401.7 32.8784 402.579 32.8784H402.847C403.816 32.8784 404.617 33.0697 405.252 33.4521C405.887 33.8346 406.204 34.3026 406.204 34.856C406.204 35.4989 405.895 35.8203 405.277 35.8203C405.163 35.8203 404.764 35.6413 404.08 35.2832C403.397 34.9333 402.835 34.7583 402.396 34.7583C402.388 34.7583 402.379 34.7583 402.371 34.7583C401.411 34.7583 400.658 35.1733 400.113 36.0034C399.576 36.8335 399.307 37.9159 399.307 39.2505C399.307 40.5851 399.592 41.5739 400.162 42.2168C400.74 42.8597 401.541 43.1812 402.567 43.1812C402.99 43.1812 403.572 43.0632 404.312 42.8271C405.053 42.583 405.504 42.4609 405.667 42.4609C406.001 42.4609 406.168 42.6359 406.168 42.9858C406.168 43.4578 405.7 43.9339 404.764 44.4141C403.828 44.8942 402.908 45.1343 402.005 45.1343C399.588 45.1343 397.989 44.1821 397.208 42.2778C396.898 41.521 396.744 40.7357 396.744 39.9219ZM412.674 43.4619H412.991C413.659 43.4619 414.245 43.2381 414.749 42.7905C415.262 42.3348 415.518 41.8099 415.518 41.2158L415.543 41.0571V40.8984L415.567 40.52V39.8242C415.567 39.3522 415.327 39.1162 414.847 39.1162H414.298L414.212 39.1284L413.736 39.165C413.508 39.1976 413.345 39.2139 413.248 39.2139C412.589 39.2139 411.978 39.4621 411.417 39.9585C411.026 40.3084 410.831 40.8049 410.831 41.4478V41.6919C410.831 42.2371 411.006 42.6685 411.356 42.9858C411.714 43.3032 412.153 43.4619 412.674 43.4619ZM409.952 35.6616C409.407 35.6616 409.134 35.3117 409.134 34.6118C409.134 34.091 409.573 33.6393 410.452 33.2568C411.339 32.8662 412.259 32.6709 413.211 32.6709H413.821C414.643 32.6709 415.368 32.8255 415.994 33.1348C416.621 33.4359 417.097 33.8468 417.423 34.3677C417.756 34.8885 417.96 35.568 418.033 36.4062C418.049 36.6016 418.057 37.5496 418.057 39.2505C418.057 40.9513 418.078 41.932 418.118 42.1924C418.167 42.4447 418.297 42.7539 418.509 43.1201C418.729 43.4863 418.839 43.7874 418.839 44.0234C418.839 44.2594 418.725 44.4629 418.497 44.6338C418.277 44.7965 417.956 44.8779 417.532 44.8779C417.109 44.8779 416.649 44.7762 416.153 44.5728C415.657 44.3612 415.294 44.2554 415.067 44.2554C415.042 44.2554 414.635 44.4019 413.846 44.6948C413.056 44.9797 412.389 45.1221 411.844 45.1221H411.575C410.664 45.1221 409.887 44.8332 409.244 44.2554C408.609 43.6776 408.292 42.8556 408.292 41.7896C408.292 40.7235 408.642 39.8934 409.341 39.2993C410.041 38.6971 410.892 38.2861 411.893 38.0664C412.194 38.0013 412.694 37.9159 413.394 37.8101C414.094 37.7043 414.57 37.5944 414.822 37.4805C415.262 37.277 415.482 36.8945 415.482 36.333C415.482 35.7633 415.294 35.3198 414.92 35.0024C414.546 34.6769 414.098 34.5142 413.577 34.5142C413.065 34.5142 412.389 34.7054 411.551 35.0879C410.713 35.4704 410.18 35.6616 409.952 35.6616ZM422.549 38.1885C422.053 37.6839 421.805 36.9759 421.805 36.0645C421.805 35.153 422.212 34.3717 423.026 33.7207C423.839 33.0615 424.848 32.7319 426.053 32.7319H426.37C427.436 32.7319 428.283 32.8825 428.909 33.1836C429.544 33.4847 429.862 33.9364 429.862 34.5386C429.862 35.1326 429.597 35.4297 429.068 35.4297C428.93 35.4297 428.539 35.2669 427.896 34.9414C427.253 34.6077 426.647 34.4409 426.077 34.4409C425.508 34.4409 425.048 34.5711 424.698 34.8315C424.356 35.0838 424.185 35.4338 424.185 35.8813C424.185 36.3289 424.425 36.7196 424.905 37.0532C425.182 37.2485 425.833 37.5578 426.859 37.981C427.892 38.4041 428.629 38.811 429.068 39.2017C429.776 39.8283 430.13 40.6299 430.13 41.6064C430.13 42.583 429.715 43.4212 428.885 44.1211C428.055 44.8128 426.977 45.1587 425.65 45.1587H425.333C423.998 45.1587 422.997 44.9674 422.33 44.585C421.662 44.1943 421.329 43.6898 421.329 43.0713C421.329 42.4447 421.589 42.1313 422.11 42.1313C422.281 42.1313 422.724 42.3511 423.441 42.7905C424.165 43.23 424.873 43.4497 425.565 43.4497C426.265 43.4497 426.789 43.3032 427.139 43.0103C427.489 42.7091 427.664 42.3348 427.664 41.8872C427.664 41.4315 427.445 41.0327 427.005 40.6909C426.769 40.5037 426.094 40.166 424.979 39.6777C423.864 39.1813 423.054 38.6849 422.549 38.1885ZM436.722 29.1309V29.2773C436.722 29.6924 436.6 30.0464 436.356 30.3394C436.12 30.6242 435.753 30.7666 435.257 30.7666H435.062L434.683 30.7178C434.464 30.7178 434.252 30.616 434.049 30.4126C433.845 30.2091 433.743 29.904 433.743 29.4971V29.3506L433.804 28.9111C433.804 28.7402 433.906 28.5286 434.11 28.2764C434.321 28.0241 434.59 27.8979 434.915 27.8979L435.196 27.8613H435.44L435.782 27.9102C435.994 27.9102 436.201 28.016 436.404 28.2275C436.616 28.431 436.722 28.7321 436.722 29.1309ZM436.148 34.2822L436.014 37.5659L435.989 37.8955L435.953 38.8965V39.3726C435.953 40.5444 435.985 41.3135 436.05 41.6797C436.124 42.0459 436.258 42.404 436.453 42.7539C436.649 43.0957 436.746 43.3439 436.746 43.4985V43.6084C436.746 44.0072 436.543 44.3245 436.136 44.5605C435.729 44.7965 435.176 44.9146 434.476 44.9146H434.171C433.764 44.9146 433.454 44.825 433.243 44.646C433.031 44.4588 432.925 44.2594 432.925 44.0479V43.7793C432.925 43.6735 433.019 43.2992 433.206 42.6562C433.393 42.0052 433.487 41.1222 433.487 40.0073C433.511 39.6899 433.524 39.4702 433.524 39.3481L433.56 38.6768L433.585 38.3472C433.625 37.7775 433.646 37.334 433.646 37.0166L433.658 36.5283C433.658 35.918 433.556 35.3768 433.353 34.9048C433.157 34.4328 433.06 34.1398 433.06 34.0259C433.06 33.4399 433.613 33.147 434.72 33.147H435.159C435.574 33.147 435.843 33.2568 435.965 33.4766C436.087 33.6882 436.148 33.9567 436.148 34.2822ZM441.885 39.8486C441.885 40.9147 442.13 41.8018 442.618 42.5098C443.106 43.2178 443.704 43.5718 444.412 43.5718H444.779C445.617 43.5718 446.325 43.1486 446.903 42.3022C447.488 41.4559 447.781 40.3288 447.781 38.9209V38.1152C447.781 37.0247 447.541 36.1336 447.061 35.4419C446.589 34.742 445.979 34.3921 445.23 34.3921H444.986C444.115 34.3921 443.383 34.8234 442.789 35.686C442.203 36.5487 441.91 37.5781 441.91 38.7744L441.885 39.0552V39.8486ZM444.644 45.2319H444.254C442.829 45.2319 441.67 44.7355 440.775 43.7427C439.879 42.7498 439.432 41.342 439.432 39.519L439.444 39.3115C439.444 37.3096 439.973 35.7308 441.031 34.5752C441.584 33.9648 442.215 33.5173 442.923 33.2324C443.639 32.9395 444.319 32.793 444.962 32.793H445.56C446.276 32.793 446.964 32.9517 447.623 33.269C449.511 34.1805 450.455 35.8976 450.455 38.4204V38.6157C450.447 39.4377 450.312 40.2718 450.052 41.1182C449.531 42.7865 448.53 43.9665 447.049 44.6582C446.227 45.0407 445.425 45.2319 444.644 45.2319ZM464.188 43.5352C464.188 44.1374 463.663 44.4385 462.613 44.4385C462.019 44.4385 461.62 44.2961 461.417 44.0112C461.319 43.8729 461.27 43.5474 461.27 43.0347L461.234 42.2534C461.177 41.3989 461.148 40.5404 461.148 39.6777C461.148 37.8141 460.985 36.5649 460.66 35.9302C460.342 35.2873 459.805 34.9658 459.049 34.9658C458.544 34.9658 458.076 35.1164 457.645 35.4175C457.222 35.7186 456.896 36.1377 456.668 36.6748C456.196 37.7734 455.96 39.8039 455.96 42.7661C455.96 43.4416 455.83 43.9176 455.57 44.1943C455.317 44.471 454.992 44.6094 454.593 44.6094H454.349C453.437 44.6094 452.982 44.2472 452.982 43.5229V43.23C452.982 43.1405 453.03 42.9451 453.128 42.644L453.323 42.0825C453.519 41.4233 453.616 40.0114 453.616 37.8467L453.677 34.2212C453.677 33.7573 453.93 33.5254 454.434 33.5254C454.939 33.5254 455.435 33.6922 455.924 34.0259C456.42 34.3595 456.733 34.5264 456.863 34.5264C457.002 34.5264 457.242 34.4328 457.584 34.2456C458.731 33.619 459.651 33.3057 460.342 33.3057H460.66C461.905 33.3057 462.78 33.8672 463.284 34.9902C463.529 35.5192 463.651 36.6585 463.651 38.4082V38.4937C463.651 38.6401 463.647 38.7866 463.638 38.9331C463.638 39.3319 463.638 39.5394 463.638 39.5557C463.638 39.7103 463.638 39.8608 463.638 40.0073C463.638 40.1213 463.638 40.2311 463.638 40.3369C463.638 40.9635 463.659 41.3908 463.699 41.6187C463.756 41.9279 463.85 42.2493 463.98 42.583C464.119 42.9492 464.188 43.2666 464.188 43.5352ZM470.926 43.4619H471.243C471.911 43.4619 472.497 43.2381 473.001 42.7905C473.514 42.3348 473.77 41.8099 473.77 41.2158L473.795 41.0571V40.8984L473.819 40.52V39.8242C473.819 39.3522 473.579 39.1162 473.099 39.1162H472.549L472.464 39.1284L471.988 39.165C471.76 39.1976 471.597 39.2139 471.5 39.2139C470.841 39.2139 470.23 39.4621 469.669 39.9585C469.278 40.3084 469.083 40.8049 469.083 41.4478V41.6919C469.083 42.2371 469.258 42.6685 469.608 42.9858C469.966 43.3032 470.405 43.4619 470.926 43.4619ZM468.204 35.6616C467.659 35.6616 467.386 35.3117 467.386 34.6118C467.386 34.091 467.825 33.6393 468.704 33.2568C469.591 32.8662 470.511 32.6709 471.463 32.6709H472.073C472.895 32.6709 473.62 32.8255 474.246 33.1348C474.873 33.4359 475.349 33.8468 475.674 34.3677C476.008 34.8885 476.212 35.568 476.285 36.4062C476.301 36.6016 476.309 37.5496 476.309 39.2505C476.309 40.9513 476.33 41.932 476.37 42.1924C476.419 42.4447 476.549 42.7539 476.761 43.1201C476.981 43.4863 477.091 43.7874 477.091 44.0234C477.091 44.2594 476.977 44.4629 476.749 44.6338C476.529 44.7965 476.208 44.8779 475.784 44.8779C475.361 44.8779 474.901 44.7762 474.405 44.5728C473.909 44.3612 473.546 44.2554 473.319 44.2554C473.294 44.2554 472.887 44.4019 472.098 44.6948C471.308 44.9797 470.641 45.1221 470.096 45.1221H469.827C468.916 45.1221 468.139 44.8332 467.496 44.2554C466.861 43.6776 466.544 42.8556 466.544 41.7896C466.544 40.7235 466.894 39.8934 467.593 39.2993C468.293 38.6971 469.144 38.2861 470.145 38.0664C470.446 38.0013 470.946 37.9159 471.646 37.8101C472.346 37.7043 472.822 37.5944 473.074 37.4805C473.514 37.277 473.734 36.8945 473.734 36.333C473.734 35.7633 473.546 35.3198 473.172 35.0024C472.798 34.6769 472.35 34.5142 471.829 34.5142C471.317 34.5142 470.641 34.7054 469.803 35.0879C468.965 35.4704 468.432 35.6616 468.204 35.6616ZM480.618 28.0322C480.618 27.4382 481.176 27.1411 482.291 27.1411H482.51C482.974 27.1411 483.292 27.255 483.463 27.4829C483.633 27.7026 483.719 28.134 483.719 28.7769L483.621 30.5957C483.597 30.8805 483.585 31.0352 483.585 31.0596L483.56 31.5234C483.544 31.8245 483.528 32.1297 483.511 32.439L483.475 32.9028L483.438 33.5986C483.308 36.0726 483.243 37.8996 483.243 39.0796C483.243 40.2515 483.296 41.0938 483.402 41.6064C483.507 42.1191 483.674 42.5545 483.902 42.9126C484.13 43.2707 484.244 43.5067 484.244 43.6206V43.7671C484.244 44.1252 484.065 44.41 483.707 44.6216C483.357 44.8332 482.881 44.939 482.279 44.939H481.644C481.269 44.939 480.94 44.8332 480.655 44.6216C480.378 44.4019 480.24 44.1536 480.24 43.877V43.5474L480.313 43.0347C480.411 42.3267 480.468 41.7977 480.484 41.4478C480.508 41.0897 480.545 40.5973 480.594 39.9707C480.643 39.3359 480.72 37.9891 480.826 35.9302C480.94 33.8631 480.997 32.7523 480.997 32.5977L481.046 31.6821L481.07 30.7788C481.07 29.9162 480.993 29.3018 480.838 28.9355C480.692 28.5612 480.618 28.2601 480.618 28.0322ZM487.796 28.0322C487.796 27.4382 488.354 27.1411 489.468 27.1411H489.688C490.152 27.1411 490.469 27.255 490.64 27.4829C490.811 27.7026 490.897 28.134 490.897 28.7769L490.799 30.5957C490.775 30.8805 490.762 31.0352 490.762 31.0596L490.738 31.5234C490.722 31.8245 490.705 32.1297 490.689 32.439L490.653 32.9028L490.616 33.5986C490.486 36.0726 490.421 37.8996 490.421 39.0796C490.421 40.2515 490.473 41.0938 490.579 41.6064C490.685 42.1191 490.852 42.5545 491.08 42.9126C491.308 43.2707 491.422 43.5067 491.422 43.6206V43.7671C491.422 44.1252 491.243 44.41 490.884 44.6216C490.535 44.8332 490.058 44.939 489.456 44.939H488.821C488.447 44.939 488.118 44.8332 487.833 44.6216C487.556 44.4019 487.418 44.1536 487.418 43.877V43.5474L487.491 43.0347C487.589 42.3267 487.646 41.7977 487.662 41.4478C487.686 41.0897 487.723 40.5973 487.772 39.9707C487.82 39.3359 487.898 37.9891 488.004 35.9302C488.118 33.8631 488.174 32.7523 488.174 32.5977L488.223 31.6821L488.248 30.7788C488.248 29.9162 488.17 29.3018 488.016 28.9355C487.869 28.5612 487.796 28.2601 487.796 28.0322ZM498.343 44.9512C498.343 44.528 498.054 43.7874 497.476 42.7295C496.898 41.6634 496.414 40.6706 496.024 39.751C494.689 36.6178 494.022 34.8071 494.022 34.3188C494.022 34.0991 494.148 33.8997 494.4 33.7207C494.661 33.5417 495.092 33.4521 495.694 33.4521C496.296 33.4521 496.719 33.7085 496.964 34.2212C496.988 34.2782 497.073 34.6322 497.22 35.2832C498.327 39.3278 499.018 41.4478 499.295 41.6431C499.718 41.6431 500.296 40.6543 501.029 38.6768C501.525 37.334 501.83 36.2069 501.944 35.2954C502.066 34.384 502.164 33.859 502.237 33.7207C502.465 33.2975 502.937 33.0859 503.653 33.0859C504.377 33.0859 504.739 33.3667 504.739 33.9282C504.739 34.327 504.593 34.86 504.3 35.5273C504.007 36.1947 503.73 36.9189 503.47 37.7002C501.981 42.1598 500.902 44.9756 500.235 46.1475C499.568 47.3275 498.864 48.2552 498.123 48.9307C497.383 49.6143 496.638 49.9561 495.889 49.9561C495.149 49.9561 494.779 49.7445 494.779 49.3213C494.779 48.9469 495.157 48.6051 495.914 48.2959C496.679 47.9867 497.212 47.6286 497.513 47.2217C498.066 46.4811 498.343 45.7243 498.343 44.9512ZM516.007 39.8486C516.007 40.9147 516.251 41.8018 516.739 42.5098C517.227 43.2178 517.825 43.5718 518.533 43.5718H518.9C519.738 43.5718 520.446 43.1486 521.024 42.3022C521.61 41.4559 521.903 40.3288 521.903 38.9209V38.1152C521.903 37.0247 521.662 36.1336 521.182 35.4419C520.71 34.742 520.1 34.3921 519.351 34.3921H519.107C518.236 34.3921 517.504 34.8234 516.91 35.686C516.324 36.5487 516.031 37.5781 516.031 38.7744L516.007 39.0552V39.8486ZM518.765 45.2319H518.375C516.951 45.2319 515.791 44.7355 514.896 43.7427C514.001 42.7498 513.553 41.342 513.553 39.519L513.565 39.3115C513.565 37.3096 514.094 35.7308 515.152 34.5752C515.705 33.9648 516.336 33.5173 517.044 33.2324C517.76 32.9395 518.44 32.793 519.083 32.793H519.681C520.397 32.793 521.085 32.9517 521.744 33.269C523.632 34.1805 524.576 35.8976 524.576 38.4204V38.6157C524.568 39.4377 524.433 40.2718 524.173 41.1182C523.652 42.7865 522.651 43.9665 521.17 44.6582C520.348 45.0407 519.547 45.2319 518.765 45.2319ZM528.983 45.8911H528.702C528.295 45.8911 527.949 45.7731 527.664 45.5371C527.388 45.3011 527.249 45.0203 527.249 44.6948C527.249 44.3693 527.347 43.9543 527.542 43.4497C527.746 42.937 527.892 42.3145 527.982 41.582C528.079 40.8415 528.128 39.7591 528.128 38.335C528.128 36.9108 528.059 36.0034 527.921 35.6128C527.896 35.5477 527.782 35.332 527.579 34.9658C527.375 34.5915 527.274 34.2741 527.274 34.0137C527.274 33.7533 527.408 33.4196 527.676 33.0127C527.953 32.6058 528.136 32.3047 528.226 32.1094C529.324 29.79 529.898 28.6019 529.947 28.5449C530.793 27.5602 531.937 27.0679 533.377 27.0679C534.044 27.0679 534.557 27.1818 534.915 27.4097C535.273 27.6375 535.452 27.9346 535.452 28.3008C535.452 28.6589 535.241 28.9193 534.818 29.082C534.704 29.1227 534.553 29.1431 534.366 29.1431C534.228 29.1349 534.069 29.1227 533.89 29.1064C533.467 29.0576 533.157 29.0332 532.962 29.0332C532.433 29.0332 532.002 29.2611 531.668 29.7168C531.343 30.1644 531.18 30.6812 531.18 31.2671C531.18 31.853 531.298 32.2803 531.534 32.5488C531.607 32.6302 531.953 32.8337 532.571 33.1592C533.198 33.4766 533.511 33.798 533.511 34.1235C533.511 34.3026 533.161 34.5793 532.462 34.9536C531.965 35.214 531.599 35.6779 531.363 36.3452C530.85 37.7775 530.594 39.6615 530.594 41.9971L530.826 44.0601C530.826 44.6216 530.659 45.0651 530.325 45.3906C530 45.7243 529.552 45.8911 528.983 45.8911ZM538.089 45.8911H537.808C537.401 45.8911 537.056 45.7731 536.771 45.5371C536.494 45.3011 536.356 45.0203 536.356 44.6948C536.356 44.3693 536.453 43.9543 536.649 43.4497C536.852 42.937 536.999 42.3145 537.088 41.582C537.186 40.8415 537.235 39.7591 537.235 38.335C537.235 36.9108 537.165 36.0034 537.027 35.6128C537.003 35.5477 536.889 35.332 536.685 34.9658C536.482 34.5915 536.38 34.2741 536.38 34.0137C536.38 33.7533 536.514 33.4196 536.783 33.0127C537.06 32.6058 537.243 32.3047 537.332 32.1094C538.431 29.79 539.005 28.6019 539.053 28.5449C539.9 27.5602 541.043 27.0679 542.484 27.0679C543.151 27.0679 543.664 27.1818 544.022 27.4097C544.38 27.6375 544.559 27.9346 544.559 28.3008C544.559 28.6589 544.347 28.9193 543.924 29.082C543.81 29.1227 543.66 29.1431 543.472 29.1431C543.334 29.1349 543.175 29.1227 542.996 29.1064C542.573 29.0576 542.264 29.0332 542.069 29.0332C541.54 29.0332 541.108 29.2611 540.775 29.7168C540.449 30.1644 540.286 30.6812 540.286 31.2671C540.286 31.853 540.404 32.2803 540.64 32.5488C540.714 32.6302 541.059 32.8337 541.678 33.1592C542.305 33.4766 542.618 33.798 542.618 34.1235C542.618 34.3026 542.268 34.5793 541.568 34.9536C541.072 35.214 540.705 35.6779 540.469 36.3452C539.957 37.7775 539.7 39.6615 539.7 41.9971L539.932 44.0601C539.932 44.6216 539.765 45.0651 539.432 45.3906C539.106 45.7243 538.659 45.8911 538.089 45.8911ZM547.354 37.5781V37.7734C547.354 38.0176 547.578 38.1396 548.026 38.1396H548.319L548.392 38.1274L548.99 38.0786C549.617 37.9891 550.023 37.9443 550.211 37.9443C551.098 37.9443 551.765 37.7775 552.213 37.4438C552.424 37.2811 552.53 36.9922 552.53 36.5771V36.4429C552.53 35.8325 552.327 35.3483 551.92 34.9902C551.521 34.6322 551.041 34.4531 550.479 34.4531H550.394L550.32 34.4653C549.531 34.4653 548.839 34.799 548.245 35.4663C547.651 36.1336 547.354 36.8376 547.354 37.5781ZM550.015 45.1587H549.747C548.192 45.1587 546.955 44.6663 546.036 43.6816C545.116 42.6888 544.656 41.3664 544.656 39.7144V39.1772C544.656 38.3879 544.811 37.5863 545.12 36.7725C545.747 35.1449 546.768 34.0218 548.184 33.4033C548.933 33.0697 549.694 32.9028 550.467 32.9028H550.992C552.058 32.9028 552.957 33.2609 553.69 33.9771C554.43 34.6851 554.8 35.6006 554.8 36.7236V36.9678C554.8 37.7653 554.483 38.3309 553.848 38.6646C553.409 38.9006 552.383 39.1366 550.772 39.3726C549.161 39.6086 548.282 39.751 548.135 39.7998C547.647 39.9707 547.403 40.2962 547.403 40.7764C547.403 41.4437 547.688 42.0133 548.258 42.4854C548.827 42.9574 549.592 43.1934 550.552 43.1934C551 43.1934 551.61 43.0713 552.383 42.8271C553.157 42.583 553.604 42.4609 553.726 42.4609C554.141 42.4609 554.349 42.64 554.349 42.998C554.349 43.4782 553.881 43.9583 552.945 44.4385C552.009 44.9186 551.033 45.1587 550.015 45.1587ZM558.231 38.6523V37.7124C558.231 36.5812 558.17 35.7552 558.048 35.2344C557.925 34.7054 557.864 34.3351 557.864 34.1235C557.864 33.6271 558.227 33.3789 558.951 33.3789C559.675 33.3789 560.2 33.5132 560.526 33.7817C560.615 33.855 560.729 33.9974 560.867 34.209C561.014 34.4206 561.144 34.5264 561.258 34.5264C561.282 34.5264 561.636 34.3188 562.32 33.9038C563.004 33.4888 563.59 33.2812 564.078 33.2812H564.261C564.66 33.2812 564.977 33.3789 565.213 33.5742C565.449 33.7614 565.567 33.9933 565.567 34.27V34.4287C565.567 34.7624 565.449 35.0024 565.213 35.1489C564.985 35.2954 564.619 35.3687 564.114 35.3687C562.967 35.3687 562.129 35.7715 561.6 36.5771C561.079 37.3828 560.819 38.807 560.819 40.8496C560.819 41.1426 560.867 41.5942 560.965 42.2046C561.071 42.8149 561.124 43.2747 561.124 43.584C561.124 43.8932 560.957 44.1903 560.623 44.4751C560.29 44.7599 559.866 44.9023 559.354 44.9023H558.939C558.491 44.9023 558.145 44.7965 557.901 44.585C557.665 44.3652 557.547 44.1007 557.547 43.7915C557.547 43.4741 557.604 43.1527 557.718 42.8271C558.027 41.9482 558.182 40.9798 558.182 39.9219C558.214 39.3359 558.231 38.9128 558.231 38.6523ZM568.448 38.1885C567.952 37.6839 567.703 36.9759 567.703 36.0645C567.703 35.153 568.11 34.3717 568.924 33.7207C569.738 33.0615 570.747 32.7319 571.951 32.7319H572.269C573.335 32.7319 574.181 32.8825 574.808 33.1836C575.443 33.4847 575.76 33.9364 575.76 34.5386C575.76 35.1326 575.495 35.4297 574.966 35.4297C574.828 35.4297 574.438 35.2669 573.795 34.9414C573.152 34.6077 572.545 34.4409 571.976 34.4409C571.406 34.4409 570.946 34.5711 570.596 34.8315C570.255 35.0838 570.084 35.4338 570.084 35.8813C570.084 36.3289 570.324 36.7196 570.804 37.0532C571.081 37.2485 571.732 37.5578 572.757 37.981C573.791 38.4041 574.527 38.811 574.966 39.2017C575.674 39.8283 576.029 40.6299 576.029 41.6064C576.029 42.583 575.613 43.4212 574.783 44.1211C573.953 44.8128 572.875 45.1587 571.549 45.1587H571.231C569.897 45.1587 568.896 44.9674 568.228 44.585C567.561 44.1943 567.227 43.6898 567.227 43.0713C567.227 42.4447 567.488 42.1313 568.008 42.1313C568.179 42.1313 568.623 42.3511 569.339 42.7905C570.063 43.23 570.771 43.4497 571.463 43.4497C572.163 43.4497 572.688 43.3032 573.038 43.0103C573.388 42.7091 573.563 42.3348 573.563 41.8872C573.563 41.4315 573.343 41.0327 572.904 40.6909C572.668 40.5037 571.992 40.166 570.877 39.6777C569.762 39.1813 568.952 38.6849 568.448 38.1885ZM589.481 29.1309V29.2773C589.481 29.6924 589.359 30.0464 589.114 30.3394C588.878 30.6242 588.512 30.7666 588.016 30.7666H587.82L587.442 30.7178C587.222 30.7178 587.011 30.616 586.807 30.4126C586.604 30.2091 586.502 29.904 586.502 29.4971V29.3506L586.563 28.9111C586.563 28.7402 586.665 28.5286 586.868 28.2764C587.08 28.0241 587.348 27.8979 587.674 27.8979L587.955 27.8613H588.199L588.541 27.9102C588.752 27.9102 588.96 28.016 589.163 28.2275C589.375 28.431 589.481 28.7321 589.481 29.1309ZM588.907 34.2822L588.773 37.5659L588.748 37.8955L588.712 38.8965V39.3726C588.712 40.5444 588.744 41.3135 588.809 41.6797C588.883 42.0459 589.017 42.404 589.212 42.7539C589.407 43.0957 589.505 43.3439 589.505 43.4985V43.6084C589.505 44.0072 589.302 44.3245 588.895 44.5605C588.488 44.7965 587.934 44.9146 587.235 44.9146H586.929C586.522 44.9146 586.213 44.825 586.002 44.646C585.79 44.4588 585.684 44.2594 585.684 44.0479V43.7793C585.684 43.6735 585.778 43.2992 585.965 42.6562C586.152 42.0052 586.246 41.1222 586.246 40.0073C586.27 39.6899 586.282 39.4702 586.282 39.3481L586.319 38.6768L586.343 38.3472C586.384 37.7775 586.404 37.334 586.404 37.0166L586.417 36.5283C586.417 35.918 586.315 35.3768 586.112 34.9048C585.916 34.4328 585.819 34.1398 585.819 34.0259C585.819 33.4399 586.372 33.147 587.479 33.147H587.918C588.333 33.147 588.602 33.2568 588.724 33.4766C588.846 33.6882 588.907 33.9567 588.907 34.2822ZM594.62 39.0796V40.0073C594.62 40.9757 594.84 41.7855 595.279 42.4365C595.727 43.0794 596.251 43.4009 596.854 43.4009H597.195C598.123 43.4009 598.839 43.0306 599.344 42.29C599.857 41.5495 600.113 40.4468 600.113 38.9819C600.129 38.8029 600.137 38.6727 600.137 38.5913L600.162 38.3472L600.174 37.8345V36.9678C600.174 35.3076 599.511 34.4775 598.184 34.4775H597.708C596.846 34.4775 596.113 34.9129 595.511 35.7837C594.917 36.6545 594.62 37.7531 594.62 39.0796ZM592.276 39.6411C592.276 38.7948 592.427 37.9321 592.728 37.0532C593.029 36.1743 593.452 35.4256 593.997 34.8071C594.543 34.1805 595.157 33.7288 595.841 33.4521C596.524 33.1673 597.334 33.0249 598.27 33.0249C599.214 33.0249 599.8 32.854 600.028 32.5122C600.255 32.1623 600.369 31.3932 600.369 30.2051C600.369 29.9854 600.333 29.6924 600.259 29.3262C600.186 28.96 600.15 28.7484 600.15 28.6914C600.15 28.3415 600.3 28.0241 600.601 27.7393C600.902 27.4463 601.297 27.2998 601.785 27.2998H602.029C602.412 27.2998 602.697 27.3893 602.884 27.5684C603.071 27.7474 603.165 28.1217 603.165 28.6914V29.8267L603.14 30.4004C603.132 30.5957 603.128 30.8805 603.128 31.2549C603.128 31.6211 603.067 32.8011 602.945 34.7949C602.823 36.7887 602.762 38.16 602.762 38.9087L602.75 39.2017C602.742 39.397 602.737 39.5841 602.737 39.7632L602.725 40.0439C602.725 40.0439 602.725 40.3613 602.725 40.9961C602.725 41.818 602.79 42.4365 602.921 42.8516C603.051 43.2666 603.116 43.5636 603.116 43.7427C603.116 43.9217 603.014 44.1089 602.811 44.3042C602.607 44.4995 602.29 44.5972 601.859 44.5972C601.435 44.5972 601.024 44.528 600.626 44.3896C600.227 44.2432 599.934 44.1699 599.747 44.1699C599.56 44.1699 599.315 44.2269 599.014 44.3408C598.103 44.6745 597.269 44.8413 596.512 44.8413C596.496 44.8413 596.479 44.8413 596.463 44.8413H596.182C594.953 44.8413 593.993 44.3937 593.301 43.4985C592.618 42.5952 592.276 41.4111 592.276 39.9463V39.6411ZM608.511 37.5781V37.7734C608.511 38.0176 608.735 38.1396 609.183 38.1396H609.476L609.549 38.1274L610.147 38.0786C610.774 37.9891 611.181 37.9443 611.368 37.9443C612.255 37.9443 612.922 37.7775 613.37 37.4438C613.581 37.2811 613.687 36.9922 613.687 36.5771V36.4429C613.687 35.8325 613.484 35.3483 613.077 34.9902C612.678 34.6322 612.198 34.4531 611.636 34.4531H611.551L611.478 34.4653C610.688 34.4653 609.997 34.799 609.403 35.4663C608.808 36.1336 608.511 36.8376 608.511 37.5781ZM611.173 45.1587H610.904C609.35 45.1587 608.113 44.6663 607.193 43.6816C606.273 42.6888 605.814 41.3664 605.814 39.7144V39.1772C605.814 38.3879 605.968 37.5863 606.278 36.7725C606.904 35.1449 607.925 34.0218 609.341 33.4033C610.09 33.0697 610.851 32.9028 611.624 32.9028H612.149C613.215 32.9028 614.114 33.2609 614.847 33.9771C615.587 34.6851 615.958 35.6006 615.958 36.7236V36.9678C615.958 37.7653 615.64 38.3309 615.006 38.6646C614.566 38.9006 613.541 39.1366 611.929 39.3726C610.318 39.6086 609.439 39.751 609.293 39.7998C608.804 39.9707 608.56 40.2962 608.56 40.7764C608.56 41.4437 608.845 42.0133 609.415 42.4854C609.984 42.9574 610.749 43.1934 611.71 43.1934C612.157 43.1934 612.768 43.0713 613.541 42.8271C614.314 42.583 614.761 42.4609 614.883 42.4609C615.299 42.4609 615.506 42.64 615.506 42.998C615.506 43.4782 615.038 43.9583 614.102 44.4385C613.166 44.9186 612.19 45.1587 611.173 45.1587ZM622.513 43.4619H622.83C623.498 43.4619 624.084 43.2381 624.588 42.7905C625.101 42.3348 625.357 41.8099 625.357 41.2158L625.382 41.0571V40.8984L625.406 40.52V39.8242C625.406 39.3522 625.166 39.1162 624.686 39.1162H624.136L624.051 39.1284L623.575 39.165C623.347 39.1976 623.184 39.2139 623.087 39.2139C622.427 39.2139 621.817 39.4621 621.256 39.9585C620.865 40.3084 620.67 40.8049 620.67 41.4478V41.6919C620.67 42.2371 620.845 42.6685 621.195 42.9858C621.553 43.3032 621.992 43.4619 622.513 43.4619ZM619.791 35.6616C619.245 35.6616 618.973 35.3117 618.973 34.6118C618.973 34.091 619.412 33.6393 620.291 33.2568C621.178 32.8662 622.098 32.6709 623.05 32.6709H623.66C624.482 32.6709 625.207 32.8255 625.833 33.1348C626.46 33.4359 626.936 33.8468 627.261 34.3677C627.595 34.8885 627.799 35.568 627.872 36.4062C627.888 36.6016 627.896 37.5496 627.896 39.2505C627.896 40.9513 627.917 41.932 627.957 42.1924C628.006 42.4447 628.136 42.7539 628.348 43.1201C628.568 43.4863 628.677 43.7874 628.677 44.0234C628.677 44.2594 628.563 44.4629 628.336 44.6338C628.116 44.7965 627.794 44.8779 627.371 44.8779C626.948 44.8779 626.488 44.7762 625.992 44.5728C625.495 44.3612 625.133 44.2554 624.905 44.2554C624.881 44.2554 624.474 44.4019 623.685 44.6948C622.895 44.9797 622.228 45.1221 621.683 45.1221H621.414C620.503 45.1221 619.726 44.8332 619.083 44.2554C618.448 43.6776 618.131 42.8556 618.131 41.7896C618.131 40.7235 618.48 39.8934 619.18 39.2993C619.88 38.6971 620.731 38.2861 621.732 38.0664C622.033 38.0013 622.533 37.9159 623.233 37.8101C623.933 37.7043 624.409 37.5944 624.661 37.4805C625.101 37.277 625.32 36.8945 625.32 36.333C625.32 35.7633 625.133 35.3198 624.759 35.0024C624.385 34.6769 623.937 34.5142 623.416 34.5142C622.904 34.5142 622.228 34.7054 621.39 35.0879C620.552 35.4704 620.019 35.6616 619.791 35.6616ZM632.388 38.1885C631.892 37.6839 631.644 36.9759 631.644 36.0645C631.644 35.153 632.051 34.3717 632.864 33.7207C633.678 33.0615 634.687 32.7319 635.892 32.7319H636.209C637.275 32.7319 638.122 32.8825 638.748 33.1836C639.383 33.4847 639.7 33.9364 639.7 34.5386C639.7 35.1326 639.436 35.4297 638.907 35.4297C638.769 35.4297 638.378 35.2669 637.735 34.9414C637.092 34.6077 636.486 34.4409 635.916 34.4409C635.347 34.4409 634.887 34.5711 634.537 34.8315C634.195 35.0838 634.024 35.4338 634.024 35.8813C634.024 36.3289 634.264 36.7196 634.744 37.0532C635.021 37.2485 635.672 37.5578 636.697 37.981C637.731 38.4041 638.467 38.811 638.907 39.2017C639.615 39.8283 639.969 40.6299 639.969 41.6064C639.969 42.583 639.554 43.4212 638.724 44.1211C637.894 44.8128 636.815 45.1587 635.489 45.1587H635.172C633.837 45.1587 632.836 44.9674 632.169 44.585C631.501 44.1943 631.168 43.6898 631.168 43.0713C631.168 42.4447 631.428 42.1313 631.949 42.1313C632.12 42.1313 632.563 42.3511 633.279 42.7905C634.004 43.23 634.712 43.4497 635.404 43.4497C636.103 43.4497 636.628 43.3032 636.978 43.0103C637.328 42.7091 637.503 42.3348 637.503 41.8872C637.503 41.4315 637.283 41.0327 636.844 40.6909C636.608 40.5037 635.932 40.166 634.818 39.6777C633.703 39.1813 632.893 38.6849 632.388 38.1885ZM661.038 44.3774C660.46 44.3774 659.96 44.0153 659.537 43.291C659.26 42.8109 658.821 41.8343 658.218 40.3613C657.624 38.8802 657.287 38.1396 657.205 38.1396C657.181 38.1396 656.843 38.8314 656.192 40.2148C655.541 41.5902 655.057 42.5342 654.739 43.0469C654.235 43.8525 653.751 44.2554 653.287 44.2554C652.994 44.2554 652.685 44.1414 652.359 43.9136C652.042 43.6776 651.785 43.2951 651.59 42.7661C651.566 42.701 651.378 42.0011 651.029 40.6665C650.687 39.3319 650.333 38.0786 649.966 36.9067C649.608 35.7349 649.429 34.9414 649.429 34.5264C649.429 34.1113 649.519 33.8143 649.698 33.6353C649.877 33.4562 650.06 33.3667 650.247 33.3667C651.004 33.3667 651.537 33.68 651.846 34.3066C651.96 34.5345 652.107 35.1042 652.286 36.0156C653.14 39.3604 653.714 41.1344 654.007 41.3379C654.316 41.3379 654.768 40.3044 655.362 38.2373C655.606 37.391 655.765 36.63 655.838 35.9546C655.919 35.2791 655.972 34.8885 655.997 34.7827L656.107 34.3921C656.351 33.7492 656.835 33.4277 657.559 33.4277C658.292 33.4277 658.8 33.798 659.085 34.5386C659.199 34.8397 659.305 35.3687 659.403 36.1255C659.5 36.8742 659.639 37.627 659.818 38.3838C660.265 40.3206 660.619 41.2891 660.88 41.2891C661.197 41.2891 661.693 40.2759 662.369 38.2495C662.58 37.6147 662.8 36.8376 663.028 35.918C663.264 34.9984 663.427 34.445 663.516 34.2578C663.809 33.68 664.273 33.3911 664.908 33.3911C665.242 33.3911 665.408 33.7166 665.408 34.3677C665.408 34.7502 664.993 36.2069 664.163 38.7378C663.333 41.2606 662.833 42.7051 662.662 43.0713C662.491 43.4294 662.247 43.7386 661.929 43.999C661.612 44.2513 661.315 44.3774 661.038 44.3774ZM669.486 44.7681C668.525 44.7681 668.045 44.4263 668.045 43.7427C668.045 43.4334 668.118 42.9736 668.265 42.3633C668.419 41.7529 668.521 41.1914 668.57 40.6787C668.619 40.1579 668.704 38.4814 668.826 35.6494C668.957 32.8174 669.022 31.0921 669.022 30.4736V29.0332L668.948 28.0078C668.948 27.6253 669.298 27.4341 669.998 27.4341C670.706 27.4341 671.166 27.7067 671.378 28.252C671.483 28.5286 671.536 29.432 671.536 30.9619C671.536 32.4919 671.565 33.3626 671.622 33.5742C671.687 33.7858 671.854 33.8916 672.122 33.8916C672.155 33.8916 672.309 33.8428 672.586 33.7451L672.855 33.6475C673.725 33.3057 674.478 33.1348 675.113 33.1348C676.448 33.1348 677.396 33.6556 677.957 34.6973C678.332 35.389 678.519 36.8945 678.519 39.2139C678.519 40.3044 678.527 40.9513 678.543 41.1548C678.559 41.3582 678.612 41.7285 678.702 42.2656C678.791 42.7946 678.836 43.0876 678.836 43.1445C678.836 43.6247 678.726 43.9827 678.507 44.2188C678.295 44.4466 677.908 44.5605 677.347 44.5605C676.793 44.5605 676.431 44.3896 676.26 44.0479C676.171 43.8688 676.126 43.3521 676.126 42.4976L676.09 40.3491L676.126 38.4082C676.126 36.2354 675.491 35.1489 674.222 35.1489C673.099 35.1489 672.297 35.6209 671.817 36.5649C671.337 37.509 671.097 39.2586 671.097 41.814L671.133 43.1445C671.133 43.6003 670.991 43.9868 670.706 44.3042C670.421 44.6134 670.015 44.7681 669.486 44.7681ZM684.171 37.5781V37.7734C684.171 38.0176 684.394 38.1396 684.842 38.1396H685.135L685.208 38.1274L685.806 38.0786C686.433 37.9891 686.84 37.9443 687.027 37.9443C687.914 37.9443 688.581 37.7775 689.029 37.4438C689.241 37.2811 689.346 36.9922 689.346 36.5771V36.4429C689.346 35.8325 689.143 35.3483 688.736 34.9902C688.337 34.6322 687.857 34.4531 687.296 34.4531H687.21L687.137 34.4653C686.348 34.4653 685.656 34.799 685.062 35.4663C684.468 36.1336 684.171 36.8376 684.171 37.5781ZM686.832 45.1587H686.563C685.009 45.1587 683.772 44.6663 682.852 43.6816C681.933 42.6888 681.473 41.3664 681.473 39.7144V39.1772C681.473 38.3879 681.627 37.5863 681.937 36.7725C682.563 35.1449 683.585 34.0218 685.001 33.4033C685.749 33.0697 686.51 32.9028 687.283 32.9028H687.808C688.874 32.9028 689.774 33.2609 690.506 33.9771C691.247 34.6851 691.617 35.6006 691.617 36.7236V36.9678C691.617 37.7653 691.299 38.3309 690.665 38.6646C690.225 38.9006 689.2 39.1366 687.589 39.3726C685.977 39.6086 685.098 39.751 684.952 39.7998C684.464 39.9707 684.219 40.2962 684.219 40.7764C684.219 41.4437 684.504 42.0133 685.074 42.4854C685.644 42.9574 686.409 43.1934 687.369 43.1934C687.816 43.1934 688.427 43.0713 689.2 42.8271C689.973 42.583 690.421 42.4609 690.543 42.4609C690.958 42.4609 691.165 42.64 691.165 42.998C691.165 43.4782 690.697 43.9583 689.761 44.4385C688.826 44.9186 687.849 45.1587 686.832 45.1587ZM705.472 43.5352C705.472 44.1374 704.947 44.4385 703.897 44.4385C703.303 44.4385 702.904 44.2961 702.701 44.0112C702.603 43.8729 702.554 43.5474 702.554 43.0347L702.518 42.2534C702.461 41.3989 702.432 40.5404 702.432 39.6777C702.432 37.8141 702.27 36.5649 701.944 35.9302C701.627 35.2873 701.09 34.9658 700.333 34.9658C699.828 34.9658 699.36 35.1164 698.929 35.4175C698.506 35.7186 698.18 36.1377 697.952 36.6748C697.48 37.7734 697.244 39.8039 697.244 42.7661C697.244 43.4416 697.114 43.9176 696.854 44.1943C696.601 44.471 696.276 44.6094 695.877 44.6094H695.633C694.722 44.6094 694.266 44.2472 694.266 43.5229V43.23C694.266 43.1405 694.315 42.9451 694.412 42.644L694.608 42.0825C694.803 41.4233 694.901 40.0114 694.901 37.8467L694.962 34.2212C694.962 33.7573 695.214 33.5254 695.718 33.5254C696.223 33.5254 696.719 33.6922 697.208 34.0259C697.704 34.3595 698.017 34.5264 698.148 34.5264C698.286 34.5264 698.526 34.4328 698.868 34.2456C700.015 33.619 700.935 33.3057 701.627 33.3057H701.944C703.189 33.3057 704.064 33.8672 704.569 34.9902C704.813 35.5192 704.935 36.6585 704.935 38.4082V38.4937C704.935 38.6401 704.931 38.7866 704.923 38.9331C704.923 39.3319 704.923 39.5394 704.923 39.5557C704.923 39.7103 704.923 39.8608 704.923 40.0073C704.923 40.1213 704.923 40.2311 704.923 40.3369C704.923 40.9635 704.943 41.3908 704.984 41.6187C705.041 41.9279 705.134 42.2493 705.264 42.583C705.403 42.9492 705.472 43.2666 705.472 43.5352ZM347.098 67.9565C347.098 66.8742 346.87 66.0278 346.414 65.4175C345.967 64.799 345.43 64.4897 344.803 64.4897H344.449C343.57 64.4897 342.874 64.8397 342.362 65.5396C341.849 66.2313 341.592 67.2526 341.592 68.6035L341.568 68.8477L341.519 70.1172V70.9717C341.519 71.8587 341.698 72.4854 342.056 72.8516C342.423 73.2096 342.939 73.3887 343.607 73.3887H343.839C344.758 73.3887 345.527 72.9655 346.146 72.1191C346.764 71.2728 347.073 70.2433 347.073 69.0308L347.098 68.7622V67.9565ZM340.457 63.3667L342.166 63.6597C342.345 63.6597 342.764 63.5417 343.424 63.3057C344.083 63.0697 344.73 62.9517 345.364 62.9517C346.65 62.9517 347.692 63.4033 348.489 64.3066C349.287 65.2018 349.686 66.4103 349.686 67.9321V68.2373C349.686 69.2627 349.515 70.2067 349.173 71.0693C348.473 72.8516 347.305 74.0031 345.67 74.5239C345.206 74.6704 344.583 74.7721 343.802 74.8291C343.029 74.8861 342.48 74.9878 342.154 75.1343C341.658 75.3621 341.409 75.7731 341.409 76.3672C341.409 76.6195 341.454 76.9613 341.544 77.3926C341.641 77.8239 341.69 78.2227 341.69 78.5889C341.69 78.9551 341.483 79.3132 341.068 79.6631C340.653 80.0212 340.136 80.2002 339.517 80.2002H339.261C338.529 80.2002 338.162 79.9316 338.162 79.3945V79.1626C338.162 79.0487 338.24 78.7272 338.394 78.1982C338.557 77.6774 338.671 77.1159 338.736 76.5137C338.801 75.9196 338.907 74.4344 339.053 72.0581C339.2 69.6818 339.273 68.0583 339.273 67.1875C339.273 66.3086 339.216 65.5721 339.102 64.978C338.996 64.384 338.944 64.0625 338.944 64.0137C338.944 63.5824 339.448 63.3667 340.457 63.3667ZM352.994 68.6523V67.7124C352.994 66.5812 352.933 65.7552 352.811 65.2344C352.689 64.7054 352.628 64.3351 352.628 64.1235C352.628 63.6271 352.99 63.3789 353.714 63.3789C354.438 63.3789 354.963 63.5132 355.289 63.7817C355.378 63.855 355.492 63.9974 355.631 64.209C355.777 64.4206 355.907 64.5264 356.021 64.5264C356.046 64.5264 356.4 64.3188 357.083 63.9038C357.767 63.4888 358.353 63.2812 358.841 63.2812H359.024C359.423 63.2812 359.74 63.3789 359.976 63.5742C360.212 63.7614 360.33 63.9933 360.33 64.27V64.4287C360.33 64.7624 360.212 65.0024 359.976 65.1489C359.748 65.2954 359.382 65.3687 358.878 65.3687C357.73 65.3687 356.892 65.7715 356.363 66.5771C355.842 67.3828 355.582 68.807 355.582 70.8496C355.582 71.1426 355.631 71.5942 355.728 72.2046C355.834 72.8149 355.887 73.2747 355.887 73.584C355.887 73.8932 355.72 74.1903 355.386 74.4751C355.053 74.7599 354.63 74.9023 354.117 74.9023H353.702C353.254 74.9023 352.908 74.7965 352.664 74.585C352.428 74.3652 352.31 74.1007 352.31 73.7915C352.31 73.4741 352.367 73.1527 352.481 72.8271C352.79 71.9482 352.945 70.9798 352.945 69.9219C352.978 69.3359 352.994 68.9128 352.994 68.6523ZM364.285 69.8486C364.285 70.9147 364.529 71.8018 365.018 72.5098C365.506 73.2178 366.104 73.5718 366.812 73.5718H367.178C368.017 73.5718 368.725 73.1486 369.302 72.3022C369.888 71.4559 370.181 70.3288 370.181 68.9209V68.1152C370.181 67.0247 369.941 66.1336 369.461 65.4419C368.989 64.742 368.379 64.3921 367.63 64.3921H367.386C366.515 64.3921 365.783 64.8234 365.189 65.686C364.603 66.5487 364.31 67.5781 364.31 68.7744L364.285 69.0552V69.8486ZM367.044 75.2319H366.654C365.229 75.2319 364.07 74.7355 363.174 73.7427C362.279 72.7498 361.832 71.342 361.832 69.519L361.844 69.3115C361.844 67.3096 362.373 65.7308 363.431 64.5752C363.984 63.9648 364.615 63.5173 365.323 63.2324C366.039 62.9395 366.719 62.793 367.362 62.793H367.96C368.676 62.793 369.363 62.9517 370.023 63.269C371.911 64.1805 372.855 65.8976 372.855 68.4204V68.6157C372.847 69.4377 372.712 70.2718 372.452 71.1182C371.931 72.7865 370.93 73.9665 369.449 74.6582C368.627 75.0407 367.825 75.2319 367.044 75.2319ZM380.472 63.7085C381.098 63.4725 381.741 63.3545 382.401 63.3545C383.06 63.3545 383.743 63.5498 384.451 63.9404C385.168 64.3311 385.558 64.5264 385.623 64.5264C385.688 64.5264 386.128 64.327 386.942 63.9282C387.755 63.5295 388.488 63.3301 389.139 63.3301C389.798 63.3301 390.339 63.4684 390.762 63.7451C391.194 64.0137 391.519 64.3351 391.739 64.7095C392.154 65.4256 392.362 67.0166 392.362 69.4824C392.362 70.5892 392.37 71.224 392.386 71.3867C392.41 71.5413 392.467 71.8221 392.557 72.229C392.654 72.6278 392.703 72.9574 392.703 73.2178C392.703 73.4701 392.598 73.7345 392.386 74.0112C392.174 74.2879 391.894 74.4263 391.544 74.4263C390.852 74.4263 390.441 74.1455 390.311 73.584C390.213 73.1771 390.099 71.9889 389.969 70.0195C389.847 68.0501 389.713 66.8945 389.566 66.5527C389.273 65.8366 388.651 65.4785 387.698 65.4785C387.088 65.4785 386.612 65.861 386.27 66.626C385.774 67.7246 385.526 69.2871 385.526 71.3135L385.648 73.0713C385.648 73.6898 385.42 74.1577 384.964 74.4751C384.671 74.6785 384.28 74.7803 383.792 74.7803C383.312 74.7803 382.995 74.7314 382.84 74.6338C382.571 74.471 382.437 74.1252 382.437 73.5962C382.437 73.4985 382.515 73.0998 382.669 72.3999C382.832 71.6919 382.913 70.5444 382.913 68.9575C382.913 67.3625 382.795 66.3493 382.559 65.918C382.323 65.4785 381.912 65.2588 381.326 65.2588C380.74 65.2588 380.22 65.4582 379.764 65.8569C379.316 66.2557 378.987 66.6911 378.775 67.1631C378.572 67.6351 378.389 68.7581 378.226 70.5322C378.071 72.3063 377.961 73.3236 377.896 73.584C377.782 74.0316 377.453 74.2554 376.907 74.2554C376.37 74.2554 376 74.0967 375.797 73.7793C375.601 73.4538 375.504 73.0591 375.504 72.5952L375.565 72.168L375.797 71.3257C375.894 70.9351 375.951 70.4793 375.967 69.9585C376.09 66.7277 376.183 64.8844 376.248 64.4287C376.313 63.973 376.606 63.7451 377.127 63.7451L378.946 64.0503C379.337 64.0503 379.845 63.9364 380.472 63.7085ZM404.3 67.9565C404.3 66.8742 404.072 66.0278 403.616 65.4175C403.169 64.799 402.632 64.4897 402.005 64.4897H401.651C400.772 64.4897 400.076 64.8397 399.564 65.5396C399.051 66.2313 398.795 67.2526 398.795 68.6035L398.77 68.8477L398.721 70.1172V70.9717C398.721 71.8587 398.9 72.4854 399.258 72.8516C399.625 73.2096 400.141 73.3887 400.809 73.3887H401.041C401.96 73.3887 402.729 72.9655 403.348 72.1191C403.966 71.2728 404.276 70.2433 404.276 69.0308L404.3 68.7622V67.9565ZM397.659 63.3667L399.368 63.6597C399.547 63.6597 399.966 63.5417 400.626 63.3057C401.285 63.0697 401.932 62.9517 402.567 62.9517C403.852 62.9517 404.894 63.4033 405.692 64.3066C406.489 65.2018 406.888 66.4103 406.888 67.9321V68.2373C406.888 69.2627 406.717 70.2067 406.375 71.0693C405.675 72.8516 404.508 74.0031 402.872 74.5239C402.408 74.6704 401.785 74.7721 401.004 74.8291C400.231 74.8861 399.682 74.9878 399.356 75.1343C398.86 75.3621 398.612 75.7731 398.612 76.3672C398.612 76.6195 398.656 76.9613 398.746 77.3926C398.843 77.8239 398.892 78.2227 398.892 78.5889C398.892 78.9551 398.685 79.3132 398.27 79.6631C397.855 80.0212 397.338 80.2002 396.719 80.2002H396.463C395.731 80.2002 395.364 79.9316 395.364 79.3945V79.1626C395.364 79.0487 395.442 78.7272 395.596 78.1982C395.759 77.6774 395.873 77.1159 395.938 76.5137C396.003 75.9196 396.109 74.4344 396.256 72.0581C396.402 69.6818 396.475 68.0583 396.475 67.1875C396.475 66.3086 396.418 65.5721 396.304 64.978C396.199 64.384 396.146 64.0625 396.146 64.0137C396.146 63.5824 396.65 63.3667 397.659 63.3667ZM415.799 73.6938C415.799 74.0194 415.6 74.3123 415.201 74.5728C414.81 74.825 414.277 74.9512 413.602 74.9512C412.34 74.9512 411.453 74.4832 410.941 73.5474C410.623 72.9614 410.465 71.5902 410.465 69.4336C410.465 67.277 410.428 66.0238 410.355 65.6738C410.281 65.3239 410.078 64.9821 409.744 64.6484C409.411 64.3148 409.244 64.0584 409.244 63.8794C409.244 63.8143 409.639 63.387 410.428 62.5977C410.599 62.4268 410.77 62.0483 410.941 61.4624C411.12 60.8765 411.246 60.4899 411.319 60.3027C411.563 59.7168 411.885 59.4238 412.283 59.4238H412.479C412.829 59.4238 413.077 59.5581 413.223 59.8267C413.28 59.9325 413.366 60.3149 413.48 60.9741C413.602 61.6252 413.74 62.0443 413.895 62.2314C414.049 62.4186 414.436 62.6261 415.054 62.854C415.681 63.0737 415.994 63.3097 415.994 63.562V63.6963C415.994 64.0218 415.636 64.2985 414.92 64.5264C414.212 64.7461 413.756 65.1001 413.553 65.5884C413.154 66.5731 412.955 68.1763 412.955 70.3979C412.955 71.4396 413.134 72.1476 413.492 72.522C413.712 72.7498 414.151 72.9085 414.81 72.998C415.469 73.0876 415.799 73.3195 415.799 73.6938ZM420.779 67.5781V67.7734C420.779 68.0176 421.003 68.1396 421.451 68.1396H421.744L421.817 68.1274L422.415 68.0786C423.042 67.9891 423.449 67.9443 423.636 67.9443C424.523 67.9443 425.19 67.7775 425.638 67.4438C425.849 67.2811 425.955 66.9922 425.955 66.5771V66.4429C425.955 65.8325 425.752 65.3483 425.345 64.9902C424.946 64.6322 424.466 64.4531 423.904 64.4531H423.819L423.746 64.4653C422.956 64.4653 422.265 64.799 421.671 65.4663C421.077 66.1336 420.779 66.8376 420.779 67.5781ZM423.441 75.1587H423.172C421.618 75.1587 420.381 74.6663 419.461 73.6816C418.542 72.6888 418.082 71.3664 418.082 69.7144V69.1772C418.082 68.3879 418.236 67.5863 418.546 66.7725C419.172 65.1449 420.194 64.0218 421.61 63.4033C422.358 63.0697 423.119 62.9028 423.892 62.9028H424.417C425.483 62.9028 426.383 63.2609 427.115 63.9771C427.855 64.6851 428.226 65.6006 428.226 66.7236V66.9678C428.226 67.7653 427.908 68.3309 427.274 68.6646C426.834 68.9006 425.809 69.1366 424.197 69.3726C422.586 69.6086 421.707 69.751 421.561 69.7998C421.072 69.9707 420.828 70.2962 420.828 70.7764C420.828 71.4437 421.113 72.0133 421.683 72.4854C422.252 72.9574 423.017 73.1934 423.978 73.1934C424.425 73.1934 425.036 73.0713 425.809 72.8271C426.582 72.583 427.029 72.4609 427.152 72.4609C427.567 72.4609 427.774 72.64 427.774 72.998C427.774 73.4782 427.306 73.9583 426.37 74.4385C425.434 74.9186 424.458 75.1587 423.441 75.1587ZM432.987 69.0796V70.0073C432.987 70.9757 433.206 71.7855 433.646 72.4365C434.093 73.0794 434.618 73.4009 435.22 73.4009H435.562C436.49 73.4009 437.206 73.0306 437.711 72.29C438.223 71.5495 438.48 70.4468 438.48 68.9819C438.496 68.8029 438.504 68.6727 438.504 68.5913L438.529 68.3472L438.541 67.8345V66.9678C438.541 65.3076 437.877 64.4775 436.551 64.4775H436.075C435.212 64.4775 434.48 64.9129 433.878 65.7837C433.284 66.6545 432.987 67.7531 432.987 69.0796ZM430.643 69.6411C430.643 68.7948 430.793 67.9321 431.094 67.0532C431.396 66.1743 431.819 65.4256 432.364 64.8071C432.909 64.1805 433.524 63.7288 434.207 63.4521C434.891 63.1673 435.701 63.0249 436.636 63.0249C437.58 63.0249 438.166 62.854 438.394 62.5122C438.622 62.1623 438.736 61.3932 438.736 60.2051C438.736 59.9854 438.699 59.6924 438.626 59.3262C438.553 58.96 438.516 58.7484 438.516 58.6914C438.516 58.3415 438.667 58.0241 438.968 57.7393C439.269 57.4463 439.664 57.2998 440.152 57.2998H440.396C440.779 57.2998 441.063 57.3893 441.251 57.5684C441.438 57.7474 441.531 58.1217 441.531 58.6914V59.8267L441.507 60.4004C441.499 60.5957 441.495 60.8805 441.495 61.2549C441.495 61.6211 441.434 62.8011 441.312 64.7949C441.19 66.7887 441.129 68.16 441.129 68.9087L441.116 69.2017C441.108 69.397 441.104 69.5841 441.104 69.7632L441.092 70.0439C441.092 70.0439 441.092 70.3613 441.092 70.9961C441.092 71.818 441.157 72.4365 441.287 72.8516C441.418 73.2666 441.483 73.5636 441.483 73.7427C441.483 73.9217 441.381 74.1089 441.177 74.3042C440.974 74.4995 440.657 74.5972 440.225 74.5972C439.802 74.5972 439.391 74.528 438.992 74.3896C438.594 74.2432 438.301 74.1699 438.113 74.1699C437.926 74.1699 437.682 74.2269 437.381 74.3408C436.47 74.6745 435.635 74.8413 434.879 74.8413C434.862 74.8413 434.846 74.8413 434.83 74.8413H434.549C433.32 74.8413 432.36 74.3937 431.668 73.4985C430.985 72.5952 430.643 71.4111 430.643 69.9463V69.6411ZM446.414 75.1953H446.036C445.629 75.1953 445.312 75.1017 445.084 74.9146C444.864 74.7274 444.754 74.4792 444.754 74.1699C444.738 74.1048 444.73 74.0519 444.73 74.0112L444.705 73.8037V73.584L444.717 73.5352V73.4253C444.734 73.3602 444.742 73.3073 444.742 73.2666C444.742 72.9004 444.864 72.6156 445.108 72.4121C445.36 72.2005 445.637 72.0947 445.938 72.0947L446.195 72.0581H446.524C447.411 72.0581 447.855 72.522 447.855 73.4497V73.6206L447.806 74.0356C447.806 74.41 447.663 74.6989 447.379 74.9023C447.102 75.0977 446.78 75.1953 446.414 75.1953Z" fill="black"/>
</svg>
