<svg width="758" height="87" viewBox="0 0 758 87" fill="none" xmlns="http://www.w3.org/2000/svg">
<rect width="758" height="87" rx="18" fill="#D9D9D9"/>
<path d="M33.045 54.1172C32.695 54.1172 32.52 53.9422 32.52 53.5922V49.3922C32.52 49.0422 32.695 48.8672 33.045 48.8672H41.865V42.5672H34.788C34.438 42.5672 34.263 42.3922 34.263 42.0422V37.8422C34.263 37.4922 34.438 37.3172 34.788 37.3172H41.865V31.7102H33.045C32.695 31.7102 32.52 31.5352 32.52 31.1852V26.6492C32.52 26.2992 32.695 26.1242 33.045 26.1242H43.482C43.804 26.1242 44.084 26.2362 44.322 26.4602L48.522 30.6602C48.746 30.8982 48.858 31.1782 48.858 31.5002V35.7002C48.858 35.9942 48.788 36.2042 48.648 36.3302L45.918 39.4592V40.7822L48.648 43.8902C48.788 44.0302 48.858 44.2402 48.858 44.5202V48.7202C48.858 49.0562 48.746 49.3362 48.522 49.5602L44.322 53.7602C44.084 53.9982 43.804 54.1172 43.482 54.1172H33.045Z" fill="#2ECC71"/>
<path d="M64.8828 36.8823C64.891 35.5721 65.0903 34.3514 65.481 33.2202C66.2785 30.9416 67.6782 29.3547 69.6802 28.4595C70.7463 27.9793 72.0036 27.7393 73.4521 27.7393C74.9089 27.7393 76.0319 27.9183 76.8213 28.2764C77.1712 28.431 77.4683 28.6833 77.7124 29.0332C77.9647 29.375 78.0908 29.7168 78.0908 30.0586C78.0908 30.3923 78.0013 30.6649 77.8223 30.8765C77.6432 31.0799 77.5008 31.1816 77.395 31.1816C77.2892 31.1816 76.748 30.9619 75.7715 30.5225C74.8031 30.0911 73.9404 29.8755 73.1836 29.8755H73.147C71.6007 29.8755 70.3475 30.4085 69.3872 31.4746C68.8338 32.085 68.4188 32.8499 68.1421 33.7695C67.8654 34.6973 67.723 35.6494 67.7148 36.626C67.7148 39.6696 68.6792 41.6024 70.6079 42.4243C71.2264 42.6929 71.9222 42.8271 72.6953 42.8271C73.4684 42.8271 74.1276 42.5993 74.6729 42.1436C75.2262 41.6797 75.5029 40.9839 75.5029 40.0562C75.5029 39.4214 75.1896 38.7703 74.563 38.103C74.3677 37.8914 74.27 37.7327 74.27 37.627C74.27 37.3014 74.6891 37.1387 75.5273 37.1387C76.3737 37.1387 77.0451 37.2241 77.5415 37.395C78.0379 37.5659 78.2861 37.8141 78.2861 38.1396C78.2861 38.8639 78.1803 39.8812 77.9688 41.1914C77.7653 42.5016 77.5822 43.291 77.4194 43.5596C77.1509 44.0072 76.6545 44.353 75.9302 44.5972C74.6606 45.0285 73.6027 45.2441 72.7563 45.2441H72.3169C71.2671 45.2441 70.2905 45.057 69.3872 44.6826C67.5155 43.8932 66.2174 42.522 65.4932 40.5688C65.0863 39.4702 64.8828 38.4041 64.8828 37.3706V36.8823ZM83.8281 37.5781V37.7734C83.8281 38.0176 84.0519 38.1396 84.4995 38.1396H84.7925L84.8657 38.1274L85.4639 38.0786C86.0905 37.9891 86.4974 37.9443 86.6846 37.9443C87.5716 37.9443 88.2389 37.7775 88.6865 37.4438C88.8981 37.2811 89.0039 36.9922 89.0039 36.5771V36.4429C89.0039 35.8325 88.8005 35.3483 88.3936 34.9902C87.9948 34.6322 87.5146 34.4531 86.9531 34.4531H86.8677L86.7944 34.4653C86.005 34.4653 85.3133 34.799 84.7192 35.4663C84.1252 36.1336 83.8281 36.8376 83.8281 37.5781ZM86.4893 45.1587H86.2207C84.6663 45.1587 83.4294 44.6663 82.5098 43.6816C81.5902 42.6888 81.1304 41.3664 81.1304 39.7144V39.1772C81.1304 38.3879 81.285 37.5863 81.5942 36.7725C82.2209 35.1449 83.2422 34.0218 84.6582 33.4033C85.4069 33.0697 86.1678 32.9028 86.9409 32.9028H87.4658C88.5319 32.9028 89.4312 33.2609 90.1636 33.9771C90.9041 34.6851 91.2744 35.6006 91.2744 36.7236V36.9678C91.2744 37.7653 90.957 38.3309 90.3223 38.6646C89.8828 38.9006 88.8574 39.1366 87.2461 39.3726C85.6348 39.6086 84.7559 39.751 84.6094 39.7998C84.1211 39.9707 83.877 40.2962 83.877 40.7764C83.877 41.4437 84.1618 42.0133 84.7314 42.4854C85.3011 42.9574 86.0661 43.1934 87.0264 43.1934C87.474 43.1934 88.0843 43.0713 88.8574 42.8271C89.6305 42.583 90.0781 42.4609 90.2002 42.4609C90.6152 42.4609 90.8228 42.64 90.8228 42.998C90.8228 43.4782 90.3548 43.9583 89.4189 44.4385C88.4831 44.9186 87.5065 45.1587 86.4893 45.1587ZM100.308 43.6938C100.308 44.0194 100.108 44.3123 99.7095 44.5728C99.3188 44.825 98.7858 44.9512 98.1104 44.9512C96.849 44.9512 95.9619 44.4832 95.4492 43.5474C95.1318 42.9614 94.9731 41.5902 94.9731 39.4336C94.9731 37.277 94.9365 36.0238 94.8633 35.6738C94.79 35.3239 94.5866 34.9821 94.2529 34.6484C93.9193 34.3148 93.7524 34.0584 93.7524 33.8794C93.7524 33.8143 94.1471 33.387 94.9365 32.5977C95.1074 32.4268 95.2783 32.0483 95.4492 31.4624C95.6283 30.8765 95.7544 30.4899 95.8276 30.3027C96.0718 29.7168 96.3932 29.4238 96.792 29.4238H96.9873C97.3372 29.4238 97.5854 29.5581 97.7319 29.8267C97.7889 29.9325 97.8743 30.3149 97.9883 30.9741C98.1104 31.6252 98.2487 32.0443 98.4033 32.2314C98.5579 32.4186 98.9445 32.6261 99.563 32.854C100.19 33.0737 100.503 33.3097 100.503 33.562V33.6963C100.503 34.0218 100.145 34.2985 99.4287 34.5264C98.7207 34.7461 98.265 35.1001 98.0615 35.5884C97.6628 36.5731 97.4634 38.1763 97.4634 40.3979C97.4634 41.4396 97.6424 42.1476 98.0005 42.522C98.2202 42.7498 98.6597 42.9085 99.3188 42.998C99.978 43.0876 100.308 43.3195 100.308 43.6938ZM104.019 38.1885C103.522 37.6839 103.274 36.9759 103.274 36.0645C103.274 35.153 103.681 34.3717 104.495 33.7207C105.308 33.0615 106.318 32.7319 107.522 32.7319H107.839C108.905 32.7319 109.752 32.8825 110.378 33.1836C111.013 33.4847 111.331 33.9364 111.331 34.5386C111.331 35.1326 111.066 35.4297 110.537 35.4297C110.399 35.4297 110.008 35.2669 109.365 34.9414C108.722 34.6077 108.116 34.4409 107.546 34.4409C106.977 34.4409 106.517 34.5711 106.167 34.8315C105.825 35.0838 105.654 35.4338 105.654 35.8813C105.654 36.3289 105.894 36.7196 106.375 37.0532C106.651 37.2485 107.302 37.5578 108.328 37.981C109.361 38.4041 110.098 38.811 110.537 39.2017C111.245 39.8283 111.599 40.6299 111.599 41.6064C111.599 42.583 111.184 43.4212 110.354 44.1211C109.524 44.8128 108.446 45.1587 107.119 45.1587H106.802C105.467 45.1587 104.466 44.9674 103.799 44.585C103.132 44.1943 102.798 43.6898 102.798 43.0713C102.798 42.4447 103.058 42.1313 103.579 42.1313C103.75 42.1313 104.194 42.3511 104.91 42.7905C105.634 43.23 106.342 43.4497 107.034 43.4497C107.734 43.4497 108.258 43.3032 108.608 43.0103C108.958 42.7091 109.133 42.3348 109.133 41.8872C109.133 41.4315 108.914 41.0327 108.474 40.6909C108.238 40.5037 107.563 40.166 106.448 39.6777C105.333 39.1813 104.523 38.6849 104.019 38.1885ZM127.456 43.6938C127.456 44.0194 127.257 44.3123 126.858 44.5728C126.467 44.825 125.934 44.9512 125.259 44.9512C123.997 44.9512 123.11 44.4832 122.598 43.5474C122.28 42.9614 122.122 41.5902 122.122 39.4336C122.122 37.277 122.085 36.0238 122.012 35.6738C121.938 35.3239 121.735 34.9821 121.401 34.6484C121.068 34.3148 120.901 34.0584 120.901 33.8794C120.901 33.8143 121.296 33.387 122.085 32.5977C122.256 32.4268 122.427 32.0483 122.598 31.4624C122.777 30.8765 122.903 30.4899 122.976 30.3027C123.22 29.7168 123.542 29.4238 123.94 29.4238H124.136C124.486 29.4238 124.734 29.5581 124.88 29.8267C124.937 29.9325 125.023 30.3149 125.137 30.9741C125.259 31.6252 125.397 32.0443 125.552 32.2314C125.706 32.4186 126.093 32.6261 126.711 32.854C127.338 33.0737 127.651 33.3097 127.651 33.562V33.6963C127.651 34.0218 127.293 34.2985 126.577 34.5264C125.869 34.7461 125.413 35.1001 125.21 35.5884C124.811 36.5731 124.612 38.1763 124.612 40.3979C124.612 41.4396 124.791 42.1476 125.149 42.522C125.369 42.7498 125.808 42.9085 126.467 42.998C127.126 43.0876 127.456 43.3195 127.456 43.6938ZM131.741 44.7681C130.78 44.7681 130.3 44.4263 130.3 43.7427C130.3 43.4334 130.374 42.9736 130.52 42.3633C130.675 41.7529 130.776 41.1914 130.825 40.6787C130.874 40.1579 130.959 38.4814 131.082 35.6494C131.212 32.8174 131.277 31.0921 131.277 30.4736V29.0332L131.204 28.0078C131.204 27.6253 131.554 27.4341 132.253 27.4341C132.961 27.4341 133.421 27.7067 133.633 28.252C133.739 28.5286 133.792 29.432 133.792 30.9619C133.792 32.4919 133.82 33.3626 133.877 33.5742C133.942 33.7858 134.109 33.8916 134.377 33.8916C134.41 33.8916 134.565 33.8428 134.841 33.7451L135.11 33.6475C135.981 33.3057 136.733 33.1348 137.368 33.1348C138.703 33.1348 139.651 33.6556 140.212 34.6973C140.587 35.389 140.774 36.8945 140.774 39.2139C140.774 40.3044 140.782 40.9513 140.798 41.1548C140.815 41.3582 140.868 41.7285 140.957 42.2656C141.047 42.7946 141.091 43.0876 141.091 43.1445C141.091 43.6247 140.981 43.9827 140.762 44.2188C140.55 44.4466 140.164 44.5605 139.602 44.5605C139.049 44.5605 138.687 44.3896 138.516 44.0479C138.426 43.8688 138.381 43.3521 138.381 42.4976L138.345 40.3491L138.381 38.4082C138.381 36.2354 137.747 35.1489 136.477 35.1489C135.354 35.1489 134.552 35.6209 134.072 36.5649C133.592 37.509 133.352 39.2586 133.352 41.814L133.389 43.1445C133.389 43.6003 133.246 43.9868 132.961 44.3042C132.677 44.6134 132.27 44.7681 131.741 44.7681ZM146.426 37.5781V37.7734C146.426 38.0176 146.65 38.1396 147.097 38.1396H147.39L147.463 38.1274L148.062 38.0786C148.688 37.9891 149.095 37.9443 149.282 37.9443C150.169 37.9443 150.837 37.7775 151.284 37.4438C151.496 37.2811 151.602 36.9922 151.602 36.5771V36.4429C151.602 35.8325 151.398 35.3483 150.991 34.9902C150.592 34.6322 150.112 34.4531 149.551 34.4531H149.465L149.392 34.4653C148.603 34.4653 147.911 34.799 147.317 35.4663C146.723 36.1336 146.426 36.8376 146.426 37.5781ZM149.087 45.1587H148.818C147.264 45.1587 146.027 44.6663 145.107 43.6816C144.188 42.6888 143.728 41.3664 143.728 39.7144V39.1772C143.728 38.3879 143.883 37.5863 144.192 36.7725C144.819 35.1449 145.84 34.0218 147.256 33.4033C148.005 33.0697 148.765 32.9028 149.539 32.9028H150.063C151.13 32.9028 152.029 33.2609 152.761 33.9771C153.502 34.6851 153.872 35.6006 153.872 36.7236V36.9678C153.872 37.7653 153.555 38.3309 152.92 38.6646C152.48 38.9006 151.455 39.1366 149.844 39.3726C148.232 39.6086 147.354 39.751 147.207 39.7998C146.719 39.9707 146.475 40.2962 146.475 40.7764C146.475 41.4437 146.759 42.0133 147.329 42.4854C147.899 42.9574 148.664 43.1934 149.624 43.1934C150.072 43.1934 150.682 43.0713 151.455 42.8271C152.228 42.583 152.676 42.4609 152.798 42.4609C153.213 42.4609 153.42 42.64 153.42 42.998C153.42 43.4782 152.952 43.9583 152.017 44.4385C151.081 44.9186 150.104 45.1587 149.087 45.1587ZM167.471 29.1675V29.5337C167.446 29.6313 167.434 29.7168 167.434 29.79C167.434 30.1318 167.288 30.4248 166.995 30.6689C166.71 30.9049 166.344 31.0229 165.896 31.0229H165.75C165.416 31.0229 165.135 30.9334 164.907 30.7544C164.679 30.5672 164.565 30.262 164.565 29.8389V29.4116C164.565 29.0047 164.7 28.667 164.968 28.3984C165.237 28.1299 165.522 27.9956 165.823 27.9956C165.872 27.9793 165.916 27.9712 165.957 27.9712L166.152 27.9468H166.335C166.71 27.9468 166.991 28.0688 167.178 28.313C167.373 28.549 167.471 28.8338 167.471 29.1675ZM162.478 49.9561H162.075C161.367 49.9561 161.013 49.7078 161.013 49.2114C161.013 48.8289 161.147 48.5319 161.416 48.3203C161.53 48.2308 161.721 48.1413 161.99 48.0518L162.722 47.8076C163.145 47.6204 163.471 47.2664 163.699 46.7456C164.22 45.533 164.48 43.3724 164.48 40.2637L164.541 39.1284C164.565 38.6727 164.578 38.0868 164.578 37.3706C164.578 36.6463 164.545 36.154 164.48 35.8936C164.423 35.6331 164.321 35.3076 164.175 34.917C164.036 34.5264 163.967 34.2171 163.967 33.9893C163.967 33.7614 164.093 33.5661 164.346 33.4033C164.598 33.2324 165.025 33.147 165.627 33.147H165.835C166.331 33.147 166.681 33.3626 166.885 33.7939C167.015 34.0625 167.08 34.5223 167.08 35.1733V36.272L167.031 37.627C167.015 37.9362 167.007 38.1641 167.007 38.3105L166.982 38.7622C166.966 39.0633 166.958 39.2871 166.958 39.4336L166.885 41.0205C166.885 44.1455 166.559 46.359 165.908 47.6611C165.583 48.3122 165.107 48.8574 164.48 49.2969C163.861 49.7363 163.194 49.9561 162.478 49.9561ZM172.476 39.8486C172.476 40.9147 172.72 41.8018 173.208 42.5098C173.696 43.2178 174.294 43.5718 175.002 43.5718H175.369C176.207 43.5718 176.915 43.1486 177.493 42.3022C178.079 41.4559 178.372 40.3288 178.372 38.9209V38.1152C178.372 37.0247 178.132 36.1336 177.651 35.4419C177.179 34.742 176.569 34.3921 175.82 34.3921H175.576C174.705 34.3921 173.973 34.8234 173.379 35.686C172.793 36.5487 172.5 37.5781 172.5 38.7744L172.476 39.0552V39.8486ZM175.234 45.2319H174.844C173.42 45.2319 172.26 44.7355 171.365 43.7427C170.47 42.7498 170.022 41.342 170.022 39.519L170.034 39.3115C170.034 37.3096 170.563 35.7308 171.621 34.5752C172.174 33.9648 172.805 33.5173 173.513 33.2324C174.229 32.9395 174.909 32.793 175.552 32.793H176.15C176.866 32.793 177.554 32.9517 178.213 33.269C180.101 34.1805 181.045 35.8976 181.045 38.4204V38.6157C181.037 39.4377 180.903 40.2718 180.642 41.1182C180.121 42.7865 179.12 43.9665 177.639 44.6582C176.817 45.0407 176.016 45.2319 175.234 45.2319ZM188.491 43.4497H188.857C189.744 43.4497 190.489 43.0103 191.091 42.1313C191.702 41.2443 192.007 40.0399 192.007 38.5181V38.1274L191.995 37.9932L191.982 37.7368C191.974 37.6473 191.97 37.5618 191.97 37.4805C191.97 36.6911 191.75 35.9993 191.311 35.4053C190.872 34.8031 190.334 34.502 189.7 34.502H189.346C188.947 34.502 188.507 34.6403 188.027 34.917C187.555 35.1937 187.222 35.5192 187.026 35.8936C186.595 36.7074 186.379 37.9932 186.379 39.751V40.874C186.404 41.1182 186.416 41.3216 186.416 41.4844C186.416 42.0703 186.595 42.5464 186.953 42.9126C187.319 43.2707 187.832 43.4497 188.491 43.4497ZM186.892 32.7197C186.892 33.029 186.941 33.2609 187.039 33.4155C187.144 33.5701 187.417 33.6475 187.856 33.6475C187.865 33.6475 188.129 33.5864 188.65 33.4644C189.179 33.3423 189.724 33.2812 190.286 33.2812C191.498 33.2812 192.511 33.7614 193.325 34.7217C194.139 35.682 194.546 36.8538 194.546 38.2373V39.1162C194.546 39.7998 194.412 40.5241 194.143 41.2891C193.866 42.054 193.476 42.7173 192.971 43.2788C191.938 44.4181 190.664 44.9878 189.15 44.9878H188.882C188.459 44.9878 187.913 44.9064 187.246 44.7437C186.579 44.5809 186.143 44.4995 185.94 44.4995L185.122 44.5728C184.284 44.5728 183.865 44.1536 183.865 43.3154V42.8149C183.865 42.3185 183.962 40.5078 184.158 37.3828C184.361 34.2578 184.463 32.264 184.463 31.4014C184.463 30.5387 184.394 29.8226 184.255 29.2529C184.117 28.6833 184.048 28.374 184.048 28.3252C184.048 27.6416 184.434 27.2998 185.208 27.2998H185.452C186.111 27.2998 186.53 27.4585 186.709 27.7759C186.888 28.0851 186.978 28.6629 186.978 29.5093L186.917 31.4502L186.892 31.9995V32.7197ZM206.094 39.0796V40.0073C206.094 40.9757 206.313 41.7855 206.753 42.4365C207.201 43.0794 207.725 43.4009 208.328 43.4009H208.669C209.597 43.4009 210.313 43.0306 210.818 42.29C211.331 41.5495 211.587 40.4468 211.587 38.9819C211.603 38.8029 211.611 38.6727 211.611 38.5913L211.636 38.3472L211.648 37.8345V36.9678C211.648 35.3076 210.985 34.4775 209.658 34.4775H209.182C208.319 34.4775 207.587 34.9129 206.985 35.7837C206.391 36.6545 206.094 37.7531 206.094 39.0796ZM203.75 39.6411C203.75 38.7948 203.901 37.9321 204.202 37.0532C204.503 36.1743 204.926 35.4256 205.471 34.8071C206.016 34.1805 206.631 33.7288 207.314 33.4521C207.998 33.1673 208.808 33.0249 209.744 33.0249C210.688 33.0249 211.274 32.854 211.501 32.5122C211.729 32.1623 211.843 31.3932 211.843 30.2051C211.843 29.9854 211.807 29.6924 211.733 29.3262C211.66 28.96 211.624 28.7484 211.624 28.6914C211.624 28.3415 211.774 28.0241 212.075 27.7393C212.376 27.4463 212.771 27.2998 213.259 27.2998H213.503C213.886 27.2998 214.171 27.3893 214.358 27.5684C214.545 27.7474 214.639 28.1217 214.639 28.6914V29.8267L214.614 30.4004C214.606 30.5957 214.602 30.8805 214.602 31.2549C214.602 31.6211 214.541 32.8011 214.419 34.7949C214.297 36.7887 214.236 38.16 214.236 38.9087L214.224 39.2017C214.215 39.397 214.211 39.5841 214.211 39.7632L214.199 40.0439C214.199 40.0439 214.199 40.3613 214.199 40.9961C214.199 41.818 214.264 42.4365 214.395 42.8516C214.525 43.2666 214.59 43.5636 214.59 43.7427C214.59 43.9217 214.488 44.1089 214.285 44.3042C214.081 44.4995 213.764 44.5972 213.333 44.5972C212.909 44.5972 212.498 44.528 212.1 44.3896C211.701 44.2432 211.408 44.1699 211.221 44.1699C211.034 44.1699 210.789 44.2269 210.488 44.3408C209.577 44.6745 208.743 44.8413 207.986 44.8413C207.97 44.8413 207.953 44.8413 207.937 44.8413H207.656C206.427 44.8413 205.467 44.3937 204.775 43.4985C204.092 42.5952 203.75 41.4111 203.75 39.9463V39.6411ZM219.888 39.8486C219.888 40.9147 220.132 41.8018 220.62 42.5098C221.108 43.2178 221.707 43.5718 222.415 43.5718H222.781C223.619 43.5718 224.327 43.1486 224.905 42.3022C225.491 41.4559 225.784 40.3288 225.784 38.9209V38.1152C225.784 37.0247 225.544 36.1336 225.063 35.4419C224.591 34.742 223.981 34.3921 223.232 34.3921H222.988C222.118 34.3921 221.385 34.8234 220.791 35.686C220.205 36.5487 219.912 37.5781 219.912 38.7744L219.888 39.0552V39.8486ZM222.646 45.2319H222.256C220.832 45.2319 219.672 44.7355 218.777 43.7427C217.882 42.7498 217.434 41.342 217.434 39.519L217.446 39.3115C217.446 37.3096 217.975 35.7308 219.033 34.5752C219.587 33.9648 220.217 33.5173 220.925 33.2324C221.641 32.9395 222.321 32.793 222.964 32.793H223.562C224.278 32.793 224.966 32.9517 225.625 33.269C227.513 34.1805 228.457 35.8976 228.457 38.4204V38.6157C228.449 39.4377 228.315 40.2718 228.054 41.1182C227.533 42.7865 226.532 43.9665 225.051 44.6582C224.229 45.0407 223.428 45.2319 222.646 45.2319ZM242.19 43.5352C242.19 44.1374 241.665 44.4385 240.615 44.4385C240.021 44.4385 239.622 44.2961 239.419 44.0112C239.321 43.8729 239.272 43.5474 239.272 43.0347L239.236 42.2534C239.179 41.3989 239.15 40.5404 239.15 39.6777C239.15 37.8141 238.988 36.5649 238.662 35.9302C238.345 35.2873 237.808 34.9658 237.051 34.9658C236.546 34.9658 236.078 35.1164 235.647 35.4175C235.224 35.7186 234.898 36.1377 234.67 36.6748C234.198 37.7734 233.962 39.8039 233.962 42.7661C233.962 43.4416 233.832 43.9176 233.572 44.1943C233.319 44.471 232.994 44.6094 232.595 44.6094H232.351C231.44 44.6094 230.984 44.2472 230.984 43.5229V43.23C230.984 43.1405 231.033 42.9451 231.13 42.644L231.326 42.0825C231.521 41.4233 231.619 40.0114 231.619 37.8467L231.68 34.2212C231.68 33.7573 231.932 33.5254 232.437 33.5254C232.941 33.5254 233.438 33.6922 233.926 34.0259C234.422 34.3595 234.736 34.5264 234.866 34.5264C235.004 34.5264 235.244 34.4328 235.586 34.2456C236.733 33.619 237.653 33.3057 238.345 33.3057H238.662C239.907 33.3057 240.782 33.8672 241.287 34.9902C241.531 35.5192 241.653 36.6585 241.653 38.4082V38.4937C241.653 38.6401 241.649 38.7866 241.641 38.9331C241.641 39.3319 241.641 39.5394 241.641 39.5557C241.641 39.7103 241.641 39.8608 241.641 40.0073C241.641 40.1213 241.641 40.2311 241.641 40.3369C241.641 40.9635 241.661 41.3908 241.702 41.6187C241.759 41.9279 241.852 42.2493 241.982 42.583C242.121 42.9492 242.19 43.2666 242.19 43.5352ZM247.256 37.5781V37.7734C247.256 38.0176 247.48 38.1396 247.927 38.1396H248.22L248.293 38.1274L248.892 38.0786C249.518 37.9891 249.925 37.9443 250.112 37.9443C250.999 37.9443 251.667 37.7775 252.114 37.4438C252.326 37.2811 252.432 36.9922 252.432 36.5771V36.4429C252.432 35.8325 252.228 35.3483 251.821 34.9902C251.423 34.6322 250.942 34.4531 250.381 34.4531H250.295L250.222 34.4653C249.433 34.4653 248.741 34.799 248.147 35.4663C247.553 36.1336 247.256 36.8376 247.256 37.5781ZM249.917 45.1587H249.648C248.094 45.1587 246.857 44.6663 245.938 43.6816C245.018 42.6888 244.558 41.3664 244.558 39.7144V39.1772C244.558 38.3879 244.713 37.5863 245.022 36.7725C245.649 35.1449 246.67 34.0218 248.086 33.4033C248.835 33.0697 249.596 32.9028 250.369 32.9028H250.894C251.96 32.9028 252.859 33.2609 253.591 33.9771C254.332 34.6851 254.702 35.6006 254.702 36.7236V36.9678C254.702 37.7653 254.385 38.3309 253.75 38.6646C253.311 38.9006 252.285 39.1366 250.674 39.3726C249.062 39.6086 248.184 39.751 248.037 39.7998C247.549 39.9707 247.305 40.2962 247.305 40.7764C247.305 41.4437 247.59 42.0133 248.159 42.4854C248.729 42.9574 249.494 43.1934 250.454 43.1934C250.902 43.1934 251.512 43.0713 252.285 42.8271C253.058 42.583 253.506 42.4609 253.628 42.4609C254.043 42.4609 254.25 42.64 254.25 42.998C254.25 43.4782 253.783 43.9583 252.847 44.4385C251.911 44.9186 250.934 45.1587 249.917 45.1587ZM259.072 45.1953H258.694C258.287 45.1953 257.97 45.1017 257.742 44.9146C257.522 44.7274 257.412 44.4792 257.412 44.1699C257.396 44.1048 257.388 44.0519 257.388 44.0112L257.363 43.8037V43.584L257.375 43.5352V43.4253C257.392 43.3602 257.4 43.3073 257.4 43.2666C257.4 42.9004 257.522 42.6156 257.766 42.4121C258.018 42.2005 258.295 42.0947 258.596 42.0947L258.853 42.0581H259.182C260.069 42.0581 260.513 42.522 260.513 43.4497V43.6206L260.464 44.0356C260.464 44.41 260.321 44.6989 260.037 44.9023C259.76 45.0977 259.438 45.1953 259.072 45.1953ZM279.824 32.1582V31.9385C279.824 31.1165 279.539 30.494 278.97 30.0708C278.408 29.6476 277.664 29.436 276.736 29.436H276.04C275.413 29.436 274.994 29.5093 274.783 29.6558C274.571 29.8022 274.465 30.0911 274.465 30.5225C274.433 30.7829 274.417 30.9456 274.417 31.0107L274.294 33.269V33.4766L274.258 34.0869V34.2944L274.246 34.4897C274.246 34.8071 274.315 35.0146 274.453 35.1123C274.6 35.21 274.88 35.2588 275.295 35.2588H275.796L275.894 35.2466H275.991L276.296 35.2344L276.907 35.1855C277.753 35.1855 278.449 34.8844 278.994 34.2822C279.548 33.68 279.824 32.972 279.824 32.1582ZM273.916 42.3877C273.916 42.7295 274.026 42.9614 274.246 43.0835C274.473 43.2056 275.023 43.2666 275.894 43.2666H276.125C277.525 43.2666 278.547 43.0143 279.189 42.5098C279.995 41.875 280.398 41.0164 280.398 39.9341V39.6899C280.398 38.7785 280.081 38.0583 279.446 37.5293C278.819 36.9922 277.928 36.7236 276.772 36.7236H275.735C275.491 36.748 275.234 36.7603 274.966 36.7603C274.396 36.7603 274.111 37.1794 274.111 38.0176C274.079 38.3268 274.062 38.5181 274.062 38.5913L273.965 40.4468V40.6787L273.916 41.936V42.3877ZM282.327 31.8408C282.327 33.1348 281.842 34.2131 280.874 35.0757C280.402 35.4907 280.166 35.7145 280.166 35.7471C280.166 35.7796 280.447 35.9831 281.008 36.3574C282.335 37.2282 282.998 38.4774 282.998 40.105C282.998 41.7244 282.294 42.994 280.886 43.9136C279.763 44.6541 277.977 45.0244 275.527 45.0244H275.234L274.941 45.0122H274.648C272.826 45.0122 271.707 44.9674 271.292 44.8779C270.876 44.7803 270.669 44.6175 270.669 44.3896V44.1943C270.669 43.999 270.791 43.6572 271.035 43.1689C271.149 42.8434 271.235 42.4121 271.292 41.875C271.519 39.7347 271.633 37.2892 271.633 34.5386L271.694 32.8052L271.719 32.2437L271.731 31.3892C271.731 30.6242 271.674 30.0382 271.56 29.6313L271.438 29.2285C271.381 29.0332 271.353 28.8501 271.353 28.6792C271.353 28.3781 271.572 28.1706 272.012 28.0566C272.451 27.9427 273.302 27.8857 274.563 27.8857L274.844 27.8735C275.039 27.8654 275.234 27.8613 275.43 27.8613L276.614 27.8369C280.422 27.8369 282.327 29.1715 282.327 31.8408ZM289.626 43.4619H289.944C290.611 43.4619 291.197 43.2381 291.702 42.7905C292.214 42.3348 292.471 41.8099 292.471 41.2158L292.495 41.0571V40.8984L292.52 40.52V39.8242C292.52 39.3522 292.279 39.1162 291.799 39.1162H291.25L291.165 39.1284L290.688 39.165C290.461 39.1976 290.298 39.2139 290.2 39.2139C289.541 39.2139 288.931 39.4621 288.369 39.9585C287.979 40.3084 287.783 40.8049 287.783 41.4478V41.6919C287.783 42.2371 287.958 42.6685 288.308 42.9858C288.666 43.3032 289.106 43.4619 289.626 43.4619ZM286.904 35.6616C286.359 35.6616 286.086 35.3117 286.086 34.6118C286.086 34.091 286.526 33.6393 287.405 33.2568C288.292 32.8662 289.211 32.6709 290.164 32.6709H290.774C291.596 32.6709 292.32 32.8255 292.947 33.1348C293.573 33.4359 294.049 33.8468 294.375 34.3677C294.709 34.8885 294.912 35.568 294.985 36.4062C295.002 36.6016 295.01 37.5496 295.01 39.2505C295.01 40.9513 295.03 41.932 295.071 42.1924C295.12 42.4447 295.25 42.7539 295.461 43.1201C295.681 43.4863 295.791 43.7874 295.791 44.0234C295.791 44.2594 295.677 44.4629 295.449 44.6338C295.229 44.7965 294.908 44.8779 294.485 44.8779C294.062 44.8779 293.602 44.7762 293.105 44.5728C292.609 44.3612 292.247 44.2554 292.019 44.2554C291.995 44.2554 291.588 44.4019 290.798 44.6948C290.009 44.9797 289.342 45.1221 288.796 45.1221H288.528C287.616 45.1221 286.839 44.8332 286.196 44.2554C285.562 43.6776 285.244 42.8556 285.244 41.7896C285.244 40.7235 285.594 39.8934 286.294 39.2993C286.994 38.6971 287.844 38.2861 288.845 38.0664C289.146 38.0013 289.647 37.9159 290.347 37.8101C291.047 37.7043 291.523 37.5944 291.775 37.4805C292.214 37.277 292.434 36.8945 292.434 36.333C292.434 35.7633 292.247 35.3198 291.873 35.0024C291.498 34.6769 291.051 34.5142 290.53 34.5142C290.017 34.5142 289.342 34.7054 288.503 35.0879C287.665 35.4704 287.132 35.6616 286.904 35.6616ZM299.502 38.1885C299.006 37.6839 298.757 36.9759 298.757 36.0645C298.757 35.153 299.164 34.3717 299.978 33.7207C300.792 33.0615 301.801 32.7319 303.005 32.7319H303.323C304.389 32.7319 305.235 32.8825 305.862 33.1836C306.497 33.4847 306.814 33.9364 306.814 34.5386C306.814 35.1326 306.549 35.4297 306.021 35.4297C305.882 35.4297 305.492 35.2669 304.849 34.9414C304.206 34.6077 303.599 34.4409 303.03 34.4409C302.46 34.4409 302 34.5711 301.65 34.8315C301.309 35.0838 301.138 35.4338 301.138 35.8813C301.138 36.3289 301.378 36.7196 301.858 37.0532C302.135 37.2485 302.786 37.5578 303.811 37.981C304.845 38.4041 305.581 38.811 306.021 39.2017C306.729 39.8283 307.083 40.6299 307.083 41.6064C307.083 42.583 306.667 43.4212 305.837 44.1211C305.007 44.8128 303.929 45.1587 302.603 45.1587H302.285C300.951 45.1587 299.95 44.9674 299.282 44.585C298.615 44.1943 298.281 43.6898 298.281 43.0713C298.281 42.4447 298.542 42.1313 299.062 42.1313C299.233 42.1313 299.677 42.3511 300.393 42.7905C301.117 43.23 301.825 43.4497 302.517 43.4497C303.217 43.4497 303.742 43.3032 304.092 43.0103C304.442 42.7091 304.617 42.3348 304.617 41.8872C304.617 41.4315 304.397 41.0327 303.958 40.6909C303.722 40.5037 303.046 40.166 301.931 39.6777C300.816 39.1813 300.007 38.6849 299.502 38.1885ZM313.674 29.1309V29.2773C313.674 29.6924 313.552 30.0464 313.308 30.3394C313.072 30.6242 312.706 30.7666 312.209 30.7666H312.014L311.636 30.7178C311.416 30.7178 311.204 30.616 311.001 30.4126C310.798 30.2091 310.696 29.904 310.696 29.4971V29.3506L310.757 28.9111C310.757 28.7402 310.859 28.5286 311.062 28.2764C311.274 28.0241 311.542 27.8979 311.868 27.8979L312.148 27.8613H312.393L312.734 27.9102C312.946 27.9102 313.153 28.016 313.357 28.2275C313.569 28.431 313.674 28.7321 313.674 29.1309ZM313.101 34.2822L312.966 37.5659L312.942 37.8955L312.905 38.8965V39.3726C312.905 40.5444 312.938 41.3135 313.003 41.6797C313.076 42.0459 313.21 42.404 313.406 42.7539C313.601 43.0957 313.699 43.3439 313.699 43.4985V43.6084C313.699 44.0072 313.495 44.3245 313.088 44.5605C312.681 44.7965 312.128 44.9146 311.428 44.9146H311.123C310.716 44.9146 310.407 44.825 310.195 44.646C309.984 44.4588 309.878 44.2594 309.878 44.0479V43.7793C309.878 43.6735 309.972 43.2992 310.159 42.6562C310.346 42.0052 310.439 41.1222 310.439 40.0073C310.464 39.6899 310.476 39.4702 310.476 39.3481L310.513 38.6768L310.537 38.3472C310.578 37.7775 310.598 37.334 310.598 37.0166L310.61 36.5283C310.61 35.918 310.509 35.3768 310.305 34.9048C310.11 34.4328 310.012 34.1398 310.012 34.0259C310.012 33.4399 310.566 33.147 311.672 33.147H312.112C312.527 33.147 312.795 33.2568 312.917 33.4766C313.04 33.6882 313.101 33.9567 313.101 34.2822ZM316.323 39.9219V39.3604C316.323 38.335 316.482 37.4276 316.799 36.6382C317.41 35.1082 318.346 34.0503 319.607 33.4644C320.429 33.0737 321.279 32.8784 322.158 32.8784H322.427C323.395 32.8784 324.197 33.0697 324.832 33.4521C325.466 33.8346 325.784 34.3026 325.784 34.856C325.784 35.4989 325.474 35.8203 324.856 35.8203C324.742 35.8203 324.343 35.6413 323.66 35.2832C322.976 34.9333 322.415 34.7583 321.975 34.7583C321.967 34.7583 321.959 34.7583 321.951 34.7583C320.99 34.7583 320.238 35.1733 319.692 36.0034C319.155 36.8335 318.887 37.9159 318.887 39.2505C318.887 40.5851 319.172 41.5739 319.741 42.2168C320.319 42.8597 321.121 43.1812 322.146 43.1812C322.569 43.1812 323.151 43.0632 323.892 42.8271C324.632 42.583 325.084 42.4609 325.247 42.4609C325.58 42.4609 325.747 42.6359 325.747 42.9858C325.747 43.4578 325.279 43.9339 324.343 44.4141C323.407 44.8942 322.488 45.1343 321.584 45.1343C319.167 45.1343 317.568 44.1821 316.787 42.2778C316.478 41.521 316.323 40.7357 316.323 39.9219ZM343.789 37.9565C343.789 36.8742 343.561 36.0278 343.105 35.4175C342.658 34.799 342.121 34.4897 341.494 34.4897H341.14C340.261 34.4897 339.565 34.8397 339.053 35.5396C338.54 36.2313 338.284 37.2526 338.284 38.6035L338.259 38.8477L338.21 40.1172V40.9717C338.21 41.8587 338.389 42.4854 338.748 42.8516C339.114 43.2096 339.631 43.3887 340.298 43.3887H340.53C341.449 43.3887 342.218 42.9655 342.837 42.1191C343.455 41.2728 343.765 40.2433 343.765 39.0308L343.789 38.7622V37.9565ZM337.148 33.3667L338.857 33.6597C339.036 33.6597 339.456 33.5417 340.115 33.3057C340.774 33.0697 341.421 32.9517 342.056 32.9517C343.341 32.9517 344.383 33.4033 345.181 34.3066C345.978 35.2018 346.377 36.4103 346.377 37.9321V38.2373C346.377 39.2627 346.206 40.2067 345.864 41.0693C345.164 42.8516 343.997 44.0031 342.361 44.5239C341.897 44.6704 341.274 44.7721 340.493 44.8291C339.72 44.8861 339.171 44.9878 338.845 45.1343C338.349 45.3621 338.101 45.7731 338.101 46.3672C338.101 46.6195 338.145 46.9613 338.235 47.3926C338.333 47.8239 338.381 48.2227 338.381 48.5889C338.381 48.9551 338.174 49.3132 337.759 49.6631C337.344 50.0212 336.827 50.2002 336.208 50.2002H335.952C335.22 50.2002 334.854 49.9316 334.854 49.3945V49.1626C334.854 49.0487 334.931 48.7272 335.085 48.1982C335.248 47.6774 335.362 47.1159 335.427 46.5137C335.492 45.9196 335.598 44.4344 335.745 42.0581C335.891 39.6818 335.964 38.0583 335.964 37.1875C335.964 36.3086 335.907 35.5721 335.793 34.978C335.688 34.384 335.635 34.0625 335.635 34.0137C335.635 33.5824 336.139 33.3667 337.148 33.3667ZM351.04 39.8486C351.04 40.9147 351.284 41.8018 351.772 42.5098C352.261 43.2178 352.859 43.5718 353.567 43.5718H353.933C354.771 43.5718 355.479 43.1486 356.057 42.3022C356.643 41.4559 356.936 40.3288 356.936 38.9209V38.1152C356.936 37.0247 356.696 36.1336 356.216 35.4419C355.744 34.742 355.133 34.3921 354.385 34.3921H354.141C353.27 34.3921 352.537 34.8234 351.943 35.686C351.357 36.5487 351.064 37.5781 351.064 38.7744L351.04 39.0552V39.8486ZM353.799 45.2319H353.408C351.984 45.2319 350.824 44.7355 349.929 43.7427C349.034 42.7498 348.586 41.342 348.586 39.519L348.599 39.3115C348.599 37.3096 349.128 35.7308 350.186 34.5752C350.739 33.9648 351.37 33.5173 352.078 33.2324C352.794 32.9395 353.473 32.793 354.116 32.793H354.714C355.431 32.793 356.118 32.9517 356.777 33.269C358.665 34.1805 359.609 35.8976 359.609 38.4204V38.6157C359.601 39.4377 359.467 40.2718 359.207 41.1182C358.686 42.7865 357.685 43.9665 356.204 44.6582C355.382 45.0407 354.58 45.2319 353.799 45.2319ZM362.82 28.0322C362.82 27.4382 363.377 27.1411 364.492 27.1411H364.712C365.176 27.1411 365.493 27.255 365.664 27.4829C365.835 27.7026 365.92 28.134 365.92 28.7769L365.823 30.5957C365.798 30.8805 365.786 31.0352 365.786 31.0596L365.762 31.5234C365.745 31.8245 365.729 32.1297 365.713 32.439L365.676 32.9028L365.64 33.5986C365.509 36.0726 365.444 37.8996 365.444 39.0796C365.444 40.2515 365.497 41.0938 365.603 41.6064C365.709 42.1191 365.876 42.5545 366.104 42.9126C366.331 43.2707 366.445 43.5067 366.445 43.6206V43.7671C366.445 44.1252 366.266 44.41 365.908 44.6216C365.558 44.8332 365.082 44.939 364.48 44.939H363.845C363.471 44.939 363.141 44.8332 362.856 44.6216C362.58 44.4019 362.441 44.1536 362.441 43.877V43.5474L362.515 43.0347C362.612 42.3267 362.669 41.7977 362.686 41.4478C362.71 41.0897 362.747 40.5973 362.795 39.9707C362.844 39.3359 362.922 37.9891 363.027 35.9302C363.141 33.8631 363.198 32.7523 363.198 32.5977L363.247 31.6821L363.271 30.7788C363.271 29.9162 363.194 29.3018 363.04 28.9355C362.893 28.5612 362.82 28.2601 362.82 28.0322ZM373.293 29.1309V29.2773C373.293 29.6924 373.171 30.0464 372.927 30.3394C372.691 30.6242 372.325 30.7666 371.829 30.7666H371.633L371.255 30.7178C371.035 30.7178 370.824 30.616 370.62 30.4126C370.417 30.2091 370.315 29.904 370.315 29.4971V29.3506L370.376 28.9111C370.376 28.7402 370.478 28.5286 370.681 28.2764C370.893 28.0241 371.161 27.8979 371.487 27.8979L371.768 27.8613H372.012L372.354 27.9102C372.565 27.9102 372.773 28.016 372.976 28.2275C373.188 28.431 373.293 28.7321 373.293 29.1309ZM372.72 34.2822L372.585 37.5659L372.561 37.8955L372.524 38.8965V39.3726C372.524 40.5444 372.557 41.3135 372.622 41.6797C372.695 42.0459 372.83 42.404 373.025 42.7539C373.22 43.0957 373.318 43.3439 373.318 43.4985V43.6084C373.318 44.0072 373.114 44.3245 372.708 44.5605C372.301 44.7965 371.747 44.9146 371.047 44.9146H370.742C370.335 44.9146 370.026 44.825 369.814 44.646C369.603 44.4588 369.497 44.2594 369.497 44.0479V43.7793C369.497 43.6735 369.591 43.2992 369.778 42.6562C369.965 42.0052 370.059 41.1222 370.059 40.0073C370.083 39.6899 370.095 39.4702 370.095 39.3481L370.132 38.6768L370.156 38.3472C370.197 37.7775 370.217 37.334 370.217 37.0166L370.229 36.5283C370.229 35.918 370.128 35.3768 369.924 34.9048C369.729 34.4328 369.631 34.1398 369.631 34.0259C369.631 33.4399 370.185 33.147 371.292 33.147H371.731C372.146 33.147 372.415 33.2568 372.537 33.4766C372.659 33.6882 372.72 33.9567 372.72 34.2822ZM382.705 43.6938C382.705 44.0194 382.506 44.3123 382.107 44.5728C381.716 44.825 381.183 44.9512 380.508 44.9512C379.246 44.9512 378.359 44.4832 377.847 43.5474C377.529 42.9614 377.371 41.5902 377.371 39.4336C377.371 37.277 377.334 36.0238 377.261 35.6738C377.188 35.3239 376.984 34.9821 376.65 34.6484C376.317 34.3148 376.15 34.0584 376.15 33.8794C376.15 33.8143 376.545 33.387 377.334 32.5977C377.505 32.4268 377.676 32.0483 377.847 31.4624C378.026 30.8765 378.152 30.4899 378.225 30.3027C378.469 29.7168 378.791 29.4238 379.189 29.4238H379.385C379.735 29.4238 379.983 29.5581 380.129 29.8267C380.186 29.9325 380.272 30.3149 380.386 30.9741C380.508 31.6252 380.646 32.0443 380.801 32.2314C380.955 32.4186 381.342 32.6261 381.96 32.854C382.587 33.0737 382.9 33.3097 382.9 33.562V33.6963C382.9 34.0218 382.542 34.2985 381.826 34.5264C381.118 34.7461 380.662 35.1001 380.459 35.5884C380.06 36.5731 379.861 38.1763 379.861 40.3979C379.861 41.4396 380.04 42.1476 380.398 42.522C380.618 42.7498 381.057 42.9085 381.716 42.998C382.375 43.0876 382.705 43.3195 382.705 43.6938ZM387.686 37.5781V37.7734C387.686 38.0176 387.909 38.1396 388.357 38.1396H388.65L388.723 38.1274L389.321 38.0786C389.948 37.9891 390.355 37.9443 390.542 37.9443C391.429 37.9443 392.096 37.7775 392.544 37.4438C392.756 37.2811 392.861 36.9922 392.861 36.5771V36.4429C392.861 35.8325 392.658 35.3483 392.251 34.9902C391.852 34.6322 391.372 34.4531 390.811 34.4531H390.725L390.652 34.4653C389.862 34.4653 389.171 34.799 388.577 35.4663C387.983 36.1336 387.686 36.8376 387.686 37.5781ZM390.347 45.1587H390.078C388.524 45.1587 387.287 44.6663 386.367 43.6816C385.448 42.6888 384.988 41.3664 384.988 39.7144V39.1772C384.988 38.3879 385.142 37.5863 385.452 36.7725C386.078 35.1449 387.1 34.0218 388.516 33.4033C389.264 33.0697 390.025 32.9028 390.798 32.9028H391.323C392.389 32.9028 393.289 33.2609 394.021 33.9771C394.762 34.6851 395.132 35.6006 395.132 36.7236V36.9678C395.132 37.7653 394.814 38.3309 394.18 38.6646C393.74 38.9006 392.715 39.1366 391.104 39.3726C389.492 39.6086 388.613 39.751 388.467 39.7998C387.979 39.9707 387.734 40.2962 387.734 40.7764C387.734 41.4437 388.019 42.0133 388.589 42.4854C389.159 42.9574 389.924 43.1934 390.884 43.1934C391.331 43.1934 391.942 43.0713 392.715 42.8271C393.488 42.583 393.936 42.4609 394.058 42.4609C394.473 42.4609 394.68 42.64 394.68 42.998C394.68 43.4782 394.212 43.9583 393.276 44.4385C392.34 44.9186 391.364 45.1587 390.347 45.1587ZM408.987 43.5352C408.987 44.1374 408.462 44.4385 407.412 44.4385C406.818 44.4385 406.419 44.2961 406.216 44.0112C406.118 43.8729 406.069 43.5474 406.069 43.0347L406.033 42.2534C405.976 41.3989 405.947 40.5404 405.947 39.6777C405.947 37.8141 405.785 36.5649 405.459 35.9302C405.142 35.2873 404.604 34.9658 403.848 34.9658C403.343 34.9658 402.875 35.1164 402.444 35.4175C402.021 35.7186 401.695 36.1377 401.467 36.6748C400.995 37.7734 400.759 39.8039 400.759 42.7661C400.759 43.4416 400.629 43.9176 400.369 44.1943C400.116 44.471 399.791 44.6094 399.392 44.6094H399.148C398.236 44.6094 397.781 44.2472 397.781 43.5229V43.23C397.781 43.1405 397.83 42.9451 397.927 42.644L398.123 42.0825C398.318 41.4233 398.416 40.0114 398.416 37.8467L398.477 34.2212C398.477 33.7573 398.729 33.5254 399.233 33.5254C399.738 33.5254 400.234 33.6922 400.723 34.0259C401.219 34.3595 401.532 34.5264 401.663 34.5264C401.801 34.5264 402.041 34.4328 402.383 34.2456C403.53 33.619 404.45 33.3057 405.142 33.3057H405.459C406.704 33.3057 407.579 33.8672 408.083 34.9902C408.328 35.5192 408.45 36.6585 408.45 38.4082V38.4937C408.45 38.6401 408.446 38.7866 408.438 38.9331C408.438 39.3319 408.438 39.5394 408.438 39.5557C408.438 39.7103 408.438 39.8608 408.438 40.0073C408.438 40.1213 408.438 40.2311 408.438 40.3369C408.438 40.9635 408.458 41.3908 408.499 41.6187C408.556 41.9279 408.649 42.2493 408.779 42.583C408.918 42.9492 408.987 43.2666 408.987 43.5352ZM414.053 37.5781V37.7734C414.053 38.0176 414.277 38.1396 414.724 38.1396H415.017L415.09 38.1274L415.688 38.0786C416.315 37.9891 416.722 37.9443 416.909 37.9443C417.796 37.9443 418.464 37.7775 418.911 37.4438C419.123 37.2811 419.229 36.9922 419.229 36.5771V36.4429C419.229 35.8325 419.025 35.3483 418.618 34.9902C418.219 34.6322 417.739 34.4531 417.178 34.4531H417.092L417.019 34.4653C416.23 34.4653 415.538 34.799 414.944 35.4663C414.35 36.1336 414.053 36.8376 414.053 37.5781ZM416.714 45.1587H416.445C414.891 45.1587 413.654 44.6663 412.734 43.6816C411.815 42.6888 411.355 41.3664 411.355 39.7144V39.1772C411.355 38.3879 411.51 37.5863 411.819 36.7725C412.445 35.1449 413.467 34.0218 414.883 33.4033C415.632 33.0697 416.392 32.9028 417.166 32.9028H417.69C418.757 32.9028 419.656 33.2609 420.388 33.9771C421.129 34.6851 421.499 35.6006 421.499 36.7236V36.9678C421.499 37.7653 421.182 38.3309 420.547 38.6646C420.107 38.9006 419.082 39.1366 417.471 39.3726C415.859 39.6086 414.98 39.751 414.834 39.7998C414.346 39.9707 414.102 40.2962 414.102 40.7764C414.102 41.4437 414.386 42.0133 414.956 42.4854C415.526 42.9574 416.291 43.1934 417.251 43.1934C417.699 43.1934 418.309 43.0713 419.082 42.8271C419.855 42.583 420.303 42.4609 420.425 42.4609C420.84 42.4609 421.047 42.64 421.047 42.998C421.047 43.4782 420.579 43.9583 419.644 44.4385C418.708 44.9186 417.731 45.1587 416.714 45.1587ZM425.015 38.1885C424.518 37.6839 424.27 36.9759 424.27 36.0645C424.27 35.153 424.677 34.3717 425.491 33.7207C426.305 33.0615 427.314 32.7319 428.518 32.7319H428.835C429.902 32.7319 430.748 32.8825 431.375 33.1836C432.009 33.4847 432.327 33.9364 432.327 34.5386C432.327 35.1326 432.062 35.4297 431.533 35.4297C431.395 35.4297 431.004 35.2669 430.361 34.9414C429.718 34.6077 429.112 34.4409 428.542 34.4409C427.973 34.4409 427.513 34.5711 427.163 34.8315C426.821 35.0838 426.65 35.4338 426.65 35.8813C426.65 36.3289 426.89 36.7196 427.371 37.0532C427.647 37.2485 428.298 37.5578 429.324 37.981C430.357 38.4041 431.094 38.811 431.533 39.2017C432.241 39.8283 432.595 40.6299 432.595 41.6064C432.595 42.583 432.18 43.4212 431.35 44.1211C430.52 44.8128 429.442 45.1587 428.115 45.1587H427.798C426.463 45.1587 425.462 44.9674 424.795 44.585C424.128 44.1943 423.794 43.6898 423.794 43.0713C423.794 42.4447 424.054 42.1313 424.575 42.1313C424.746 42.1313 425.19 42.3511 425.906 42.7905C426.63 43.23 427.338 43.4497 428.03 43.4497C428.73 43.4497 429.255 43.3032 429.604 43.0103C429.954 42.7091 430.129 42.3348 430.129 41.8872C430.129 41.4315 429.91 41.0327 429.47 40.6909C429.234 40.5037 428.559 40.166 427.444 39.6777C426.329 39.1813 425.519 38.6849 425.015 38.1885ZM436.074 38.1885C435.578 37.6839 435.33 36.9759 435.33 36.0645C435.33 35.153 435.736 34.3717 436.55 33.7207C437.364 33.0615 438.373 32.7319 439.578 32.7319H439.895C440.961 32.7319 441.807 32.8825 442.434 33.1836C443.069 33.4847 443.386 33.9364 443.386 34.5386C443.386 35.1326 443.122 35.4297 442.593 35.4297C442.454 35.4297 442.064 35.2669 441.421 34.9414C440.778 34.6077 440.172 34.4409 439.602 34.4409C439.032 34.4409 438.573 34.5711 438.223 34.8315C437.881 35.0838 437.71 35.4338 437.71 35.8813C437.71 36.3289 437.95 36.7196 438.43 37.0532C438.707 37.2485 439.358 37.5578 440.383 37.981C441.417 38.4041 442.153 38.811 442.593 39.2017C443.301 39.8283 443.655 40.6299 443.655 41.6064C443.655 42.583 443.24 43.4212 442.41 44.1211C441.58 44.8128 440.501 45.1587 439.175 45.1587H438.857C437.523 45.1587 436.522 44.9674 435.854 44.585C435.187 44.1943 434.854 43.6898 434.854 43.0713C434.854 42.4447 435.114 42.1313 435.635 42.1313C435.806 42.1313 436.249 42.3511 436.965 42.7905C437.69 43.23 438.398 43.4497 439.089 43.4497C439.789 43.4497 440.314 43.3032 440.664 43.0103C441.014 42.7091 441.189 42.3348 441.189 41.8872C441.189 41.4315 440.969 41.0327 440.53 40.6909C440.294 40.5037 439.618 40.166 438.503 39.6777C437.389 39.1813 436.579 38.6849 436.074 38.1885ZM446.475 43.3643C446.475 42.9574 446.601 42.64 446.853 42.4121C447.105 42.1842 447.435 42.0703 447.842 42.0703H448.293C448.708 42.0703 449.014 42.168 449.209 42.3633C449.404 42.5586 449.502 42.937 449.502 43.4985V43.6816C449.502 44.7233 449.221 45.6999 448.66 46.6113C447.935 47.7913 447.284 48.3813 446.707 48.3813H446.621C446.279 48.3813 446.108 48.2349 446.108 47.9419C446.108 47.8361 446.283 47.5187 446.633 46.9897C446.983 46.4689 447.158 46.0783 447.158 45.8179C447.158 45.5656 447.048 45.2197 446.829 44.7803C446.609 44.3408 446.499 44.0112 446.499 43.7915L446.475 43.6206V43.3643ZM464.419 43.4497H464.785C465.672 43.4497 466.417 43.0103 467.019 42.1313C467.629 41.2443 467.935 40.0399 467.935 38.5181V38.1274L467.922 37.9932L467.91 37.7368C467.902 37.6473 467.898 37.5618 467.898 37.4805C467.898 36.6911 467.678 35.9993 467.239 35.4053C466.799 34.8031 466.262 34.502 465.627 34.502H465.273C464.875 34.502 464.435 34.6403 463.955 34.917C463.483 35.1937 463.149 35.5192 462.954 35.8936C462.523 36.7074 462.307 37.9932 462.307 39.751V40.874C462.332 41.1182 462.344 41.3216 462.344 41.4844C462.344 42.0703 462.523 42.5464 462.881 42.9126C463.247 43.2707 463.76 43.4497 464.419 43.4497ZM462.82 32.7197C462.82 33.029 462.869 33.2609 462.966 33.4155C463.072 33.5701 463.345 33.6475 463.784 33.6475C463.792 33.6475 464.057 33.5864 464.578 33.4644C465.107 33.3423 465.652 33.2812 466.213 33.2812C467.426 33.2812 468.439 33.7614 469.253 34.7217C470.067 35.682 470.474 36.8538 470.474 38.2373V39.1162C470.474 39.7998 470.339 40.5241 470.071 41.2891C469.794 42.054 469.403 42.7173 468.899 43.2788C467.865 44.4181 466.592 44.9878 465.078 44.9878H464.81C464.386 44.9878 463.841 44.9064 463.174 44.7437C462.507 44.5809 462.071 44.4995 461.868 44.4995L461.05 44.5728C460.212 44.5728 459.792 44.1536 459.792 43.3154V42.8149C459.792 42.3185 459.89 40.5078 460.085 37.3828C460.289 34.2578 460.391 32.264 460.391 31.4014C460.391 30.5387 460.321 29.8226 460.183 29.2529C460.045 28.6833 459.976 28.374 459.976 28.3252C459.976 27.6416 460.362 27.2998 461.135 27.2998H461.379C462.039 27.2998 462.458 27.4585 462.637 27.7759C462.816 28.0851 462.905 28.6629 462.905 29.5093L462.844 31.4502L462.82 31.9995V32.7197ZM473.086 34.0259C473.086 33.5132 473.517 33.2568 474.38 33.2568H474.661C475.198 33.2568 475.56 33.4725 475.747 33.9038C475.934 34.3351 476.028 35.1408 476.028 36.3208L475.881 40.3979C475.881 42.2941 476.561 43.2422 477.92 43.2422C478.416 43.2422 478.892 43.0672 479.348 42.7173C479.804 42.3674 480.142 41.9482 480.361 41.46C480.841 40.3857 481.082 38.4611 481.082 35.686L481.057 35.1489V34.6729C481.057 34.2415 481.155 33.9282 481.35 33.7329C481.545 33.5376 481.887 33.4399 482.375 33.4399C482.864 33.4399 483.185 33.5579 483.34 33.7939C483.494 34.0299 483.572 34.4124 483.572 34.9414L483.547 35.5884L483.499 38.4692C483.499 38.9331 483.527 39.6452 483.584 40.6055C483.641 41.5658 483.702 42.2697 483.767 42.7173C483.832 43.1567 483.865 43.4172 483.865 43.4985C483.865 44.2228 483.332 44.585 482.266 44.585C481.899 44.585 481.533 44.4507 481.167 44.1821C480.809 43.9054 480.553 43.7671 480.398 43.7671C480.251 43.7671 479.999 43.8566 479.641 44.0356C478.624 44.5483 477.757 44.8047 477.041 44.8047H476.736C475.572 44.8047 474.718 44.4466 474.172 43.7305C473.627 43.0143 473.354 41.7244 473.354 39.8608L473.477 36.1621C473.477 35.6982 473.411 35.2547 473.281 34.8315C473.151 34.4084 473.086 34.1398 473.086 34.0259ZM493.276 43.6938C493.276 44.0194 493.077 44.3123 492.678 44.5728C492.288 44.825 491.755 44.9512 491.079 44.9512C489.818 44.9512 488.931 44.4832 488.418 43.5474C488.101 42.9614 487.942 41.5902 487.942 39.4336C487.942 37.277 487.905 36.0238 487.832 35.6738C487.759 35.3239 487.555 34.9821 487.222 34.6484C486.888 34.3148 486.721 34.0584 486.721 33.8794C486.721 33.8143 487.116 33.387 487.905 32.5977C488.076 32.4268 488.247 32.0483 488.418 31.4624C488.597 30.8765 488.723 30.4899 488.796 30.3027C489.041 29.7168 489.362 29.4238 489.761 29.4238H489.956C490.306 29.4238 490.554 29.5581 490.701 29.8267C490.758 29.9325 490.843 30.3149 490.957 30.9741C491.079 31.6252 491.217 32.0443 491.372 32.2314C491.527 32.4186 491.913 32.6261 492.532 32.854C493.158 33.0737 493.472 33.3097 493.472 33.562V33.6963C493.472 34.0218 493.114 34.2985 492.397 34.5264C491.689 34.7461 491.234 35.1001 491.03 35.5884C490.632 36.5731 490.432 38.1763 490.432 40.3979C490.432 41.4396 490.611 42.1476 490.969 42.522C491.189 42.7498 491.628 42.9085 492.288 42.998C492.947 43.0876 493.276 43.3195 493.276 43.6938ZM514.138 43.5352C514.138 44.1374 513.613 44.4385 512.563 44.4385C511.969 44.4385 511.571 44.2961 511.367 44.0112C511.27 43.8729 511.221 43.5474 511.221 43.0347L511.184 42.2534C511.127 41.3989 511.099 40.5404 511.099 39.6777C511.099 37.8141 510.936 36.5649 510.61 35.9302C510.293 35.2873 509.756 34.9658 508.999 34.9658C508.494 34.9658 508.027 35.1164 507.595 35.4175C507.172 35.7186 506.847 36.1377 506.619 36.6748C506.147 37.7734 505.911 39.8039 505.911 42.7661C505.911 43.4416 505.78 43.9176 505.52 44.1943C505.268 44.471 504.942 44.6094 504.543 44.6094H504.299C503.388 44.6094 502.932 44.2472 502.932 43.5229V43.23C502.932 43.1405 502.981 42.9451 503.079 42.644L503.274 42.0825C503.469 41.4233 503.567 40.0114 503.567 37.8467L503.628 34.2212C503.628 33.7573 503.88 33.5254 504.385 33.5254C504.889 33.5254 505.386 33.6922 505.874 34.0259C506.37 34.3595 506.684 34.5264 506.814 34.5264C506.952 34.5264 507.192 34.4328 507.534 34.2456C508.682 33.619 509.601 33.3057 510.293 33.3057H510.61C511.855 33.3057 512.73 33.8672 513.235 34.9902C513.479 35.5192 513.601 36.6585 513.601 38.4082V38.4937C513.601 38.6401 513.597 38.7866 513.589 38.9331C513.589 39.3319 513.589 39.5394 513.589 39.5557C513.589 39.7103 513.589 39.8608 513.589 40.0073C513.589 40.1213 513.589 40.2311 513.589 40.3369C513.589 40.9635 513.609 41.3908 513.65 41.6187C513.707 41.9279 513.8 42.2493 513.931 42.583C514.069 42.9492 514.138 43.2666 514.138 43.5352ZM519.106 39.8486C519.106 40.9147 519.351 41.8018 519.839 42.5098C520.327 43.2178 520.925 43.5718 521.633 43.5718H522C522.838 43.5718 523.546 43.1486 524.124 42.3022C524.709 41.4559 525.002 40.3288 525.002 38.9209V38.1152C525.002 37.0247 524.762 36.1336 524.282 35.4419C523.81 34.742 523.2 34.3921 522.451 34.3921H522.207C521.336 34.3921 520.604 34.8234 520.01 35.686C519.424 36.5487 519.131 37.5781 519.131 38.7744L519.106 39.0552V39.8486ZM521.865 45.2319H521.475C520.05 45.2319 518.891 44.7355 517.996 43.7427C517.1 42.7498 516.653 41.342 516.653 39.519L516.665 39.3115C516.665 37.3096 517.194 35.7308 518.252 34.5752C518.805 33.9648 519.436 33.5173 520.144 33.2324C520.86 32.9395 521.54 32.793 522.183 32.793H522.781C523.497 32.793 524.185 32.9517 524.844 33.269C526.732 34.1805 527.676 35.8976 527.676 38.4204V38.6157C527.668 39.4377 527.533 40.2718 527.273 41.1182C526.752 42.7865 525.751 43.9665 524.27 44.6582C523.448 45.0407 522.646 45.2319 521.865 45.2319ZM536.538 43.6938C536.538 44.0194 536.339 44.3123 535.94 44.5728C535.549 44.825 535.016 44.9512 534.341 44.9512C533.079 44.9512 532.192 44.4832 531.68 43.5474C531.362 42.9614 531.204 41.5902 531.204 39.4336C531.204 37.277 531.167 36.0238 531.094 35.6738C531.021 35.3239 530.817 34.9821 530.483 34.6484C530.15 34.3148 529.983 34.0584 529.983 33.8794C529.983 33.8143 530.378 33.387 531.167 32.5977C531.338 32.4268 531.509 32.0483 531.68 31.4624C531.859 30.8765 531.985 30.4899 532.058 30.3027C532.302 29.7168 532.624 29.4238 533.022 29.4238H533.218C533.568 29.4238 533.816 29.5581 533.962 29.8267C534.019 29.9325 534.105 30.3149 534.219 30.9741C534.341 31.6252 534.479 32.0443 534.634 32.2314C534.788 32.4186 535.175 32.6261 535.793 32.854C536.42 33.0737 536.733 33.3097 536.733 33.562V33.6963C536.733 34.0218 536.375 34.2985 535.659 34.5264C534.951 34.7461 534.495 35.1001 534.292 35.5884C533.893 36.5731 533.694 38.1763 533.694 40.3979C533.694 41.4396 533.873 42.1476 534.231 42.522C534.451 42.7498 534.89 42.9085 535.549 42.998C536.208 43.0876 536.538 43.3195 536.538 43.6938ZM540.823 44.7681C539.862 44.7681 539.382 44.4263 539.382 43.7427C539.382 43.4334 539.456 42.9736 539.602 42.3633C539.757 41.7529 539.858 41.1914 539.907 40.6787C539.956 40.1579 540.042 38.4814 540.164 35.6494C540.294 32.8174 540.359 31.0921 540.359 30.4736V29.0332L540.286 28.0078C540.286 27.6253 540.636 27.4341 541.335 27.4341C542.043 27.4341 542.503 27.7067 542.715 28.252C542.821 28.5286 542.874 29.432 542.874 30.9619C542.874 32.4919 542.902 33.3626 542.959 33.5742C543.024 33.7858 543.191 33.8916 543.459 33.8916C543.492 33.8916 543.647 33.8428 543.923 33.7451L544.192 33.6475C545.063 33.3057 545.815 33.1348 546.45 33.1348C547.785 33.1348 548.733 33.6556 549.294 34.6973C549.669 35.389 549.856 36.8945 549.856 39.2139C549.856 40.3044 549.864 40.9513 549.88 41.1548C549.897 41.3582 549.95 41.7285 550.039 42.2656C550.129 42.7946 550.173 43.0876 550.173 43.1445C550.173 43.6247 550.063 43.9827 549.844 44.2188C549.632 44.4466 549.246 44.5605 548.684 44.5605C548.131 44.5605 547.769 44.3896 547.598 44.0479C547.508 43.8688 547.463 43.3521 547.463 42.4976L547.427 40.3491L547.463 38.4082C547.463 36.2354 546.829 35.1489 545.559 35.1489C544.436 35.1489 543.634 35.6209 543.154 36.5649C542.674 37.509 542.434 39.2586 542.434 41.814L542.471 43.1445C542.471 43.6003 542.328 43.9868 542.043 44.3042C541.759 44.6134 541.352 44.7681 540.823 44.7681ZM557.253 29.1309V29.2773C557.253 29.6924 557.131 30.0464 556.887 30.3394C556.651 30.6242 556.285 30.7666 555.789 30.7666H555.593L555.215 30.7178C554.995 30.7178 554.784 30.616 554.58 30.4126C554.377 30.2091 554.275 29.904 554.275 29.4971V29.3506L554.336 28.9111C554.336 28.7402 554.438 28.5286 554.641 28.2764C554.853 28.0241 555.121 27.8979 555.447 27.8979L555.728 27.8613H555.972L556.313 27.9102C556.525 27.9102 556.733 28.016 556.936 28.2275C557.148 28.431 557.253 28.7321 557.253 29.1309ZM556.68 34.2822L556.545 37.5659L556.521 37.8955L556.484 38.8965V39.3726C556.484 40.5444 556.517 41.3135 556.582 41.6797C556.655 42.0459 556.79 42.404 556.985 42.7539C557.18 43.0957 557.278 43.3439 557.278 43.4985V43.6084C557.278 44.0072 557.074 44.3245 556.667 44.5605C556.261 44.7965 555.707 44.9146 555.007 44.9146H554.702C554.295 44.9146 553.986 44.825 553.774 44.646C553.563 44.4588 553.457 44.2594 553.457 44.0479V43.7793C553.457 43.6735 553.551 43.2992 553.738 42.6562C553.925 42.0052 554.019 41.1222 554.019 40.0073C554.043 39.6899 554.055 39.4702 554.055 39.3481L554.092 38.6768L554.116 38.3472C554.157 37.7775 554.177 37.334 554.177 37.0166L554.189 36.5283C554.189 35.918 554.088 35.3768 553.884 34.9048C553.689 34.4328 553.591 34.1398 553.591 34.0259C553.591 33.4399 554.145 33.147 555.251 33.147H555.691C556.106 33.147 556.375 33.2568 556.497 33.4766C556.619 33.6882 556.68 33.9567 556.68 34.2822ZM571.487 43.5352C571.487 44.1374 570.962 44.4385 569.912 44.4385C569.318 44.4385 568.919 44.2961 568.716 44.0112C568.618 43.8729 568.569 43.5474 568.569 43.0347L568.533 42.2534C568.476 41.3989 568.447 40.5404 568.447 39.6777C568.447 37.8141 568.285 36.5649 567.959 35.9302C567.642 35.2873 567.104 34.9658 566.348 34.9658C565.843 34.9658 565.375 35.1164 564.944 35.4175C564.521 35.7186 564.195 36.1377 563.967 36.6748C563.495 37.7734 563.259 39.8039 563.259 42.7661C563.259 43.4416 563.129 43.9176 562.869 44.1943C562.616 44.471 562.291 44.6094 561.892 44.6094H561.648C560.736 44.6094 560.281 44.2472 560.281 43.5229V43.23C560.281 43.1405 560.33 42.9451 560.427 42.644L560.623 42.0825C560.818 41.4233 560.916 40.0114 560.916 37.8467L560.977 34.2212C560.977 33.7573 561.229 33.5254 561.733 33.5254C562.238 33.5254 562.734 33.6922 563.223 34.0259C563.719 34.3595 564.032 34.5264 564.163 34.5264C564.301 34.5264 564.541 34.4328 564.883 34.2456C566.03 33.619 566.95 33.3057 567.642 33.3057H567.959C569.204 33.3057 570.079 33.8672 570.583 34.9902C570.828 35.5192 570.95 36.6585 570.95 38.4082V38.4937C570.95 38.6401 570.946 38.7866 570.938 38.9331C570.938 39.3319 570.938 39.5394 570.938 39.5557C570.938 39.7103 570.938 39.8608 570.938 40.0073C570.938 40.1213 570.938 40.2311 570.938 40.3369C570.938 40.9635 570.958 41.3908 570.999 41.6187C571.056 41.9279 571.149 42.2493 571.279 42.583C571.418 42.9492 571.487 43.2666 571.487 43.5352ZM576.479 39.3481V39.7266C576.479 40.8171 576.687 41.6715 577.102 42.29C577.517 42.9085 578.038 43.2178 578.665 43.2178H579.092C579.995 43.2178 580.699 42.8394 581.204 42.0825C581.708 41.3175 581.96 40.2474 581.96 38.8721C581.977 38.7093 581.985 38.5832 581.985 38.4937L582.009 37.9932V37.2607C581.993 37.098 581.985 36.9759 581.985 36.8945C581.985 36.2516 581.83 35.7471 581.521 35.3809C581.212 35.0146 580.756 34.8315 580.154 34.8315H579.812C578.852 34.8315 578.054 35.2344 577.419 36.04C576.793 36.8457 576.479 37.9484 576.479 39.3481ZM583.572 33.8306C584.28 33.8306 584.634 34.3433 584.634 35.3687C584.634 35.6372 584.524 36.7603 584.304 38.7378C584.084 40.7153 583.975 42.3958 583.975 43.7793C583.975 45.179 583.881 46.2288 583.694 46.9287C583.295 48.4342 582.371 49.5003 580.923 50.127C580.166 50.4525 579.328 50.6152 578.408 50.6152C577.497 50.6152 576.683 50.4525 575.967 50.127C575.259 49.8014 574.905 49.4108 574.905 48.9551C574.905 48.4342 575.255 48.1738 575.955 48.1738C576.093 48.1738 576.467 48.2267 577.078 48.3325C577.688 48.4383 578.127 48.4912 578.396 48.4912C579.381 48.4912 580.186 48.182 580.813 47.5635C581.448 46.9531 581.765 46.1678 581.765 45.2075C581.765 44.703 581.578 44.4507 581.204 44.4507C581.139 44.4507 580.984 44.4751 580.74 44.5239C580.048 44.6623 579.417 44.7314 578.848 44.7314C577.399 44.7314 576.309 44.292 575.576 43.4131C575.234 43.0062 574.941 42.465 574.697 41.7896C574.461 41.106 574.343 40.3857 574.343 39.6289V39.2871C574.343 38.4896 574.473 37.7043 574.734 36.9312C575.002 36.1499 575.356 35.4948 575.796 34.9658C576.235 34.4287 576.809 34.0096 577.517 33.7085C578.225 33.4074 578.949 33.2568 579.69 33.2568H580.007C580.422 33.2568 580.955 33.3708 581.606 33.5986C582.266 33.8184 582.668 33.9282 582.815 33.9282C583.14 33.8631 583.393 33.8306 583.572 33.8306ZM596.963 37.5781V37.7734C596.963 38.0176 597.187 38.1396 597.634 38.1396H597.927L598 38.1274L598.599 38.0786C599.225 37.9891 599.632 37.9443 599.819 37.9443C600.706 37.9443 601.374 37.7775 601.821 37.4438C602.033 37.2811 602.139 36.9922 602.139 36.5771V36.4429C602.139 35.8325 601.935 35.3483 601.528 34.9902C601.13 34.6322 600.649 34.4531 600.088 34.4531H600.002L599.929 34.4653C599.14 34.4653 598.448 34.799 597.854 35.4663C597.26 36.1336 596.963 36.8376 596.963 37.5781ZM599.624 45.1587H599.355C597.801 45.1587 596.564 44.6663 595.645 43.6816C594.725 42.6888 594.265 41.3664 594.265 39.7144V39.1772C594.265 38.3879 594.42 37.5863 594.729 36.7725C595.356 35.1449 596.377 34.0218 597.793 33.4033C598.542 33.0697 599.303 32.9028 600.076 32.9028H600.601C601.667 32.9028 602.566 33.2609 603.298 33.9771C604.039 34.6851 604.409 35.6006 604.409 36.7236V36.9678C604.409 37.7653 604.092 38.3309 603.457 38.6646C603.018 38.9006 601.992 39.1366 600.381 39.3726C598.77 39.6086 597.891 39.751 597.744 39.7998C597.256 39.9707 597.012 40.2962 597.012 40.7764C597.012 41.4437 597.297 42.0133 597.866 42.4854C598.436 42.9574 599.201 43.1934 600.161 43.1934C600.609 43.1934 601.219 43.0713 601.992 42.8271C602.765 42.583 603.213 42.4609 603.335 42.4609C603.75 42.4609 603.958 42.64 603.958 42.998C603.958 43.4782 603.49 43.9583 602.554 44.4385C601.618 44.9186 600.641 45.1587 599.624 45.1587ZM617.031 44.1455C617.031 44.6094 616.331 44.8413 614.932 44.8413C614.321 44.8413 613.87 44.6338 613.577 44.2188C613.56 44.2025 613.479 44.0356 613.333 43.7183C613.186 43.3927 612.885 42.8434 612.429 42.0703C611.982 41.2891 611.697 40.8984 611.575 40.8984C611.363 40.8984 610.879 41.464 610.122 42.5952C609.87 42.9696 609.65 43.3765 609.463 43.8159C609.284 44.2472 609.084 44.5605 608.865 44.7559C608.645 44.9512 608.258 45.0488 607.705 45.0488C606.818 45.0488 606.375 44.8291 606.375 44.3896C606.375 44.1048 606.594 43.7427 607.034 43.3032C607.481 42.8556 607.896 42.3755 608.279 41.8628C609.5 40.2189 610.11 39.2342 610.11 38.9087C610.11 38.575 609.605 37.6758 608.596 36.2109C608.271 35.7389 607.896 35.2954 607.473 34.8804C607.058 34.4572 606.851 34.0951 606.851 33.7939C606.851 33.3626 607.563 33.147 608.987 33.147C609.5 33.147 609.902 33.3097 610.195 33.6353C610.293 33.7492 610.407 33.9608 610.537 34.27C610.667 34.5793 610.822 34.9048 611.001 35.2466C611.587 36.3615 611.973 36.9189 612.161 36.9189C612.421 36.9189 612.909 36.3411 613.625 35.1855C613.853 34.8193 614.036 34.4572 614.175 34.0991C614.321 33.741 614.456 33.505 614.578 33.3911C614.83 33.147 615.31 33.0249 616.018 33.0249C616.726 33.0249 617.08 33.1795 617.08 33.4888V33.6841C617.08 33.7085 616.49 34.4735 615.31 35.979C614.138 37.4845 613.552 38.4448 613.552 38.8599C613.552 39.2668 614.114 40.2637 615.237 41.8506C615.562 42.3063 615.941 42.7417 616.372 43.1567C616.812 43.5636 617.031 43.8932 617.031 44.1455ZM625.991 43.6938C625.991 44.0194 625.792 44.3123 625.393 44.5728C625.002 44.825 624.469 44.9512 623.794 44.9512C622.533 44.9512 621.646 44.4832 621.133 43.5474C620.815 42.9614 620.657 41.5902 620.657 39.4336C620.657 37.277 620.62 36.0238 620.547 35.6738C620.474 35.3239 620.27 34.9821 619.937 34.6484C619.603 34.3148 619.436 34.0584 619.436 33.8794C619.436 33.8143 619.831 33.387 620.62 32.5977C620.791 32.4268 620.962 32.0483 621.133 31.4624C621.312 30.8765 621.438 30.4899 621.511 30.3027C621.755 29.7168 622.077 29.4238 622.476 29.4238H622.671C623.021 29.4238 623.269 29.5581 623.416 29.8267C623.472 29.9325 623.558 30.3149 623.672 30.9741C623.794 31.6252 623.932 32.0443 624.087 32.2314C624.242 32.4186 624.628 32.6261 625.247 32.854C625.873 33.0737 626.187 33.3097 626.187 33.562V33.6963C626.187 34.0218 625.828 34.2985 625.112 34.5264C624.404 34.7461 623.949 35.1001 623.745 35.5884C623.346 36.5731 623.147 38.1763 623.147 40.3979C623.147 41.4396 623.326 42.1476 623.684 42.522C623.904 42.7498 624.343 42.9085 625.002 42.998C625.662 43.0876 625.991 43.3195 625.991 43.6938ZM629.568 38.6523V37.7124C629.568 36.5812 629.507 35.7552 629.385 35.2344C629.263 34.7054 629.202 34.3351 629.202 34.1235C629.202 33.6271 629.564 33.3789 630.288 33.3789C631.012 33.3789 631.537 33.5132 631.863 33.7817C631.952 33.855 632.066 33.9974 632.205 34.209C632.351 34.4206 632.481 34.5264 632.595 34.5264C632.62 34.5264 632.974 34.3188 633.657 33.9038C634.341 33.4888 634.927 33.2812 635.415 33.2812H635.598C635.997 33.2812 636.314 33.3789 636.55 33.5742C636.786 33.7614 636.904 33.9933 636.904 34.27V34.4287C636.904 34.7624 636.786 35.0024 636.55 35.1489C636.322 35.2954 635.956 35.3687 635.452 35.3687C634.304 35.3687 633.466 35.7715 632.937 36.5771C632.416 37.3828 632.156 38.807 632.156 40.8496C632.156 41.1426 632.205 41.5942 632.302 42.2046C632.408 42.8149 632.461 43.2747 632.461 43.584C632.461 43.8932 632.294 44.1903 631.96 44.4751C631.627 44.7599 631.204 44.9023 630.691 44.9023H630.276C629.828 44.9023 629.482 44.7965 629.238 44.585C629.002 44.3652 628.884 44.1007 628.884 43.7915C628.884 43.4741 628.941 43.1527 629.055 42.8271C629.364 41.9482 629.519 40.9798 629.519 39.9219C629.552 39.3359 629.568 38.9128 629.568 38.6523ZM642.629 43.4619H642.947C643.614 43.4619 644.2 43.2381 644.705 42.7905C645.217 42.3348 645.474 41.8099 645.474 41.2158L645.498 41.0571V40.8984L645.522 40.52V39.8242C645.522 39.3522 645.282 39.1162 644.802 39.1162H644.253L644.167 39.1284L643.691 39.165C643.464 39.1976 643.301 39.2139 643.203 39.2139C642.544 39.2139 641.934 39.4621 641.372 39.9585C640.981 40.3084 640.786 40.8049 640.786 41.4478V41.6919C640.786 42.2371 640.961 42.6685 641.311 42.9858C641.669 43.3032 642.109 43.4619 642.629 43.4619ZM639.907 35.6616C639.362 35.6616 639.089 35.3117 639.089 34.6118C639.089 34.091 639.529 33.6393 640.408 33.2568C641.295 32.8662 642.214 32.6709 643.167 32.6709H643.777C644.599 32.6709 645.323 32.8255 645.95 33.1348C646.576 33.4359 647.052 33.8468 647.378 34.3677C647.712 34.8885 647.915 35.568 647.988 36.4062C648.005 36.6016 648.013 37.5496 648.013 39.2505C648.013 40.9513 648.033 41.932 648.074 42.1924C648.123 42.4447 648.253 42.7539 648.464 43.1201C648.684 43.4863 648.794 43.7874 648.794 44.0234C648.794 44.2594 648.68 44.4629 648.452 44.6338C648.232 44.7965 647.911 44.8779 647.488 44.8779C647.065 44.8779 646.605 44.7762 646.108 44.5728C645.612 44.3612 645.25 44.2554 645.022 44.2554C644.998 44.2554 644.591 44.4019 643.801 44.6948C643.012 44.9797 642.345 45.1221 641.799 45.1221H641.531C640.619 45.1221 639.842 44.8332 639.199 44.2554C638.564 43.6776 638.247 42.8556 638.247 41.7896C638.247 40.7235 638.597 39.8934 639.297 39.2993C639.997 38.6971 640.847 38.2861 641.848 38.0664C642.149 38.0013 642.65 37.9159 643.35 37.8101C644.049 37.7043 644.526 37.5944 644.778 37.4805C645.217 37.277 645.437 36.8945 645.437 36.333C645.437 35.7633 645.25 35.3198 644.875 35.0024C644.501 34.6769 644.054 34.5142 643.533 34.5142C643.02 34.5142 642.345 34.7054 641.506 35.0879C640.668 35.4704 640.135 35.6616 639.907 35.6616ZM653.408 45.1953H653.03C652.623 45.1953 652.306 45.1017 652.078 44.9146C651.858 44.7274 651.748 44.4792 651.748 44.1699C651.732 44.1048 651.724 44.0519 651.724 44.0112L651.699 43.8037V43.584L651.711 43.5352V43.4253C651.728 43.3602 651.736 43.3073 651.736 43.2666C651.736 42.9004 651.858 42.6156 652.102 42.4121C652.354 42.2005 652.631 42.0947 652.932 42.0947L653.188 42.0581H653.518C654.405 42.0581 654.849 42.522 654.849 43.4497V43.6206L654.8 44.0356C654.8 44.41 654.657 44.6989 654.373 44.9023C654.096 45.0977 653.774 45.1953 653.408 45.1953Z" fill="black"/>
</svg>
