<svg width="758" height="87" viewBox="0 0 758 87" fill="none" xmlns="http://www.w3.org/2000/svg">
<rect width="758" height="87" rx="18" fill="#D9D9D9"/>
<path d="M33.045 54.1172C32.695 54.1172 32.52 53.9422 32.52 53.5922V49.3922C32.52 49.0422 32.695 48.8672 33.045 48.8672H41.865V42.5672H34.788C34.438 42.5672 34.263 42.3922 34.263 42.0422V37.8422C34.263 37.4922 34.438 37.3172 34.788 37.3172H41.865V31.7102H33.045C32.695 31.7102 32.52 31.5352 32.52 31.1852V26.6492C32.52 26.2992 32.695 26.1242 33.045 26.1242H43.482C43.804 26.1242 44.084 26.2362 44.322 26.4602L48.522 30.6602C48.746 30.8982 48.858 31.1782 48.858 31.5002V35.7002C48.858 35.9942 48.788 36.2042 48.648 36.3302L45.918 39.4592V40.7822L48.648 43.8902C48.788 44.0302 48.858 44.2402 48.858 44.5202V48.7202C48.858 49.0562 48.746 49.3362 48.522 49.5602L44.322 53.7602C44.084 53.9982 43.804 54.1172 43.482 54.1172H33.045Z" fill="#2ECC71"/>
<path d="M83.1465 38.4053C83.1465 38.3809 83.1465 38.3564 83.1465 38.332C83.1465 37.624 83.0366 36.8631 82.8169 36.0493C82.4181 34.5438 81.7386 33.5062 80.7783 32.9365C80.1924 32.5866 79.6146 32.4116 79.0449 32.4116H78.4712C77.7876 32.4116 77.1366 32.6232 76.5181 33.0464C75.3625 33.8358 74.569 35.0443 74.1377 36.6719C73.8691 37.681 73.7349 38.6779 73.7349 39.6626V40.4805C73.7349 42.1732 74.1255 43.5973 74.9067 44.7529C75.6961 45.9004 76.7703 46.4741 78.1294 46.4741H78.3247C78.992 46.4741 79.6268 46.3073 80.229 45.9736C81.3602 45.3389 82.1862 44.1426 82.707 42.3848C82.9837 41.4652 83.1221 40.5496 83.1221 39.6382L83.1465 39.2231V38.4053ZM86.0273 38.3076V39.1255C86.0273 40.3381 85.8361 41.5303 85.4536 42.7021C84.7212 44.9564 83.4313 46.5433 81.584 47.4629C80.5098 48 79.4152 48.2686 78.3003 48.2686H77.751C76.8477 48.2686 75.9647 48.0732 75.1021 47.6826C73.3849 46.9176 72.2212 45.5993 71.6108 43.7275C71.2528 42.6289 71.0737 41.4977 71.0737 40.334V39.7847C71.0737 38.6291 71.265 37.445 71.6475 36.2324C72.0381 35.0199 72.5915 34.0026 73.3076 33.1807C74.0238 32.3506 74.8538 31.724 75.7979 31.3008C76.7419 30.8776 77.7062 30.666 78.6909 30.666H79.2402C80.2819 30.666 81.2137 30.8654 82.0356 31.2642C83.6388 32.0454 84.7537 33.2702 85.3804 34.9385C85.8117 36.0859 86.0273 37.209 86.0273 38.3076ZM88.2734 42.9219V42.3604C88.2734 41.335 88.4321 40.4276 88.7495 39.6382C89.3599 38.1082 90.2957 37.0503 91.5571 36.4644C92.3791 36.0737 93.2295 35.8784 94.1084 35.8784H94.377C95.3454 35.8784 96.147 36.0697 96.7817 36.4521C97.4165 36.8346 97.7339 37.3026 97.7339 37.856C97.7339 38.4989 97.4246 38.8203 96.8062 38.8203C96.6922 38.8203 96.2935 38.6413 95.6099 38.2832C94.9263 37.9333 94.3647 37.7583 93.9253 37.7583C93.9172 37.7583 93.909 37.7583 93.9009 37.7583C92.9406 37.7583 92.1878 38.1733 91.6426 39.0034C91.1055 39.8335 90.8369 40.9159 90.8369 42.2505C90.8369 43.5851 91.1217 44.5739 91.6914 45.2168C92.2692 45.8597 93.0708 46.1812 94.0962 46.1812C94.5194 46.1812 95.1012 46.0632 95.8418 45.8271C96.5824 45.583 97.034 45.4609 97.1968 45.4609C97.5304 45.4609 97.6973 45.6359 97.6973 45.9858C97.6973 46.4578 97.2293 46.9339 96.2935 47.4141C95.3576 47.8942 94.438 48.1343 93.5347 48.1343C91.1177 48.1343 89.5186 47.1821 88.7373 45.2778C88.4281 44.521 88.2734 43.7357 88.2734 42.9219ZM99.8701 42.9219V42.3604C99.8701 41.335 100.029 40.4276 100.346 39.6382C100.957 38.1082 101.892 37.0503 103.154 36.4644C103.976 36.0737 104.826 35.8784 105.705 35.8784H105.974C106.942 35.8784 107.744 36.0697 108.378 36.4521C109.013 36.8346 109.331 37.3026 109.331 37.856C109.331 38.4989 109.021 38.8203 108.403 38.8203C108.289 38.8203 107.89 38.6413 107.207 38.2832C106.523 37.9333 105.961 37.7583 105.522 37.7583C105.514 37.7583 105.506 37.7583 105.498 37.7583C104.537 37.7583 103.785 38.1733 103.239 39.0034C102.702 39.8335 102.434 40.9159 102.434 42.2505C102.434 43.5851 102.718 44.5739 103.288 45.2168C103.866 45.8597 104.667 46.1812 105.693 46.1812C106.116 46.1812 106.698 46.0632 107.438 45.8271C108.179 45.583 108.631 45.4609 108.793 45.4609C109.127 45.4609 109.294 45.6359 109.294 45.9858C109.294 46.4578 108.826 46.9339 107.89 47.4141C106.954 47.8942 106.035 48.1343 105.131 48.1343C102.714 48.1343 101.115 47.1821 100.334 45.2778C100.025 44.521 99.8701 43.7357 99.8701 42.9219ZM115.8 46.4619H116.118C116.785 46.4619 117.371 46.2381 117.875 45.7905C118.388 45.3348 118.645 44.8099 118.645 44.2158L118.669 44.0571V43.8984L118.693 43.52V42.8242C118.693 42.3522 118.453 42.1162 117.973 42.1162H117.424L117.338 42.1284L116.862 42.165C116.634 42.1976 116.472 42.2139 116.374 42.2139C115.715 42.2139 115.104 42.4621 114.543 42.9585C114.152 43.3084 113.957 43.8049 113.957 44.4478V44.6919C113.957 45.2371 114.132 45.6685 114.482 45.9858C114.84 46.3032 115.279 46.4619 115.8 46.4619ZM113.078 38.6616C112.533 38.6616 112.26 38.3117 112.26 37.6118C112.26 37.091 112.7 36.6393 113.579 36.2568C114.466 35.8662 115.385 35.6709 116.337 35.6709H116.948C117.77 35.6709 118.494 35.8255 119.121 36.1348C119.747 36.4359 120.223 36.8468 120.549 37.3677C120.882 37.8885 121.086 38.568 121.159 39.4062C121.175 39.6016 121.184 40.5496 121.184 42.2505C121.184 43.9513 121.204 44.932 121.245 45.1924C121.293 45.4447 121.424 45.7539 121.635 46.1201C121.855 46.4863 121.965 46.7874 121.965 47.0234C121.965 47.2594 121.851 47.4629 121.623 47.6338C121.403 47.7965 121.082 47.8779 120.659 47.8779C120.236 47.8779 119.776 47.7762 119.279 47.5728C118.783 47.3612 118.421 47.2554 118.193 47.2554C118.168 47.2554 117.762 47.4019 116.972 47.6948C116.183 47.9797 115.515 48.1221 114.97 48.1221H114.702C113.79 48.1221 113.013 47.8332 112.37 47.2554C111.735 46.6776 111.418 45.8556 111.418 44.7896C111.418 43.7235 111.768 42.8934 112.468 42.2993C113.168 41.6971 114.018 41.2861 115.019 41.0664C115.32 41.0013 115.821 40.9159 116.521 40.8101C117.22 40.7043 117.696 40.5944 117.949 40.4805C118.388 40.277 118.608 39.8945 118.608 39.333C118.608 38.7633 118.421 38.3198 118.046 38.0024C117.672 37.6769 117.224 37.5142 116.704 37.5142C116.191 37.5142 115.515 37.7054 114.677 38.0879C113.839 38.4704 113.306 38.6616 113.078 38.6616ZM125.676 41.1885C125.179 40.6839 124.931 39.9759 124.931 39.0645C124.931 38.153 125.338 37.3717 126.152 36.7207C126.966 36.0615 127.975 35.7319 129.179 35.7319H129.497C130.563 35.7319 131.409 35.8825 132.036 36.1836C132.67 36.4847 132.988 36.9364 132.988 37.5386C132.988 38.1326 132.723 38.4297 132.194 38.4297C132.056 38.4297 131.665 38.2669 131.022 37.9414C130.38 37.6077 129.773 37.4409 129.204 37.4409C128.634 37.4409 128.174 37.5711 127.824 37.8315C127.482 38.0838 127.312 38.4338 127.312 38.8813C127.312 39.3289 127.552 39.7196 128.032 40.0532C128.308 40.2485 128.959 40.5578 129.985 40.981C131.018 41.4041 131.755 41.811 132.194 42.2017C132.902 42.8283 133.256 43.6299 133.256 44.6064C133.256 45.583 132.841 46.4212 132.011 47.1211C131.181 47.8128 130.103 48.1587 128.776 48.1587H128.459C127.124 48.1587 126.123 47.9674 125.456 47.585C124.789 47.1943 124.455 46.6898 124.455 46.0713C124.455 45.4447 124.715 45.1313 125.236 45.1313C125.407 45.1313 125.851 45.3511 126.567 45.7905C127.291 46.23 127.999 46.4497 128.691 46.4497C129.391 46.4497 129.916 46.3032 130.266 46.0103C130.616 45.7091 130.791 45.3348 130.791 44.8872C130.791 44.4315 130.571 44.0327 130.131 43.6909C129.895 43.5037 129.22 43.166 128.105 42.6777C126.99 42.1813 126.18 41.6849 125.676 41.1885ZM139.848 32.1309V32.2773C139.848 32.6924 139.726 33.0464 139.482 33.3394C139.246 33.6242 138.88 33.7666 138.383 33.7666H138.188L137.81 33.7178C137.59 33.7178 137.378 33.616 137.175 33.4126C136.971 33.2091 136.87 32.904 136.87 32.4971V32.3506L136.931 31.9111C136.931 31.7402 137.032 31.5286 137.236 31.2764C137.447 31.0241 137.716 30.8979 138.042 30.8979L138.322 30.8613H138.566L138.908 30.9102C139.12 30.9102 139.327 31.016 139.531 31.2275C139.742 31.431 139.848 31.7321 139.848 32.1309ZM139.274 37.2822L139.14 40.5659L139.116 40.8955L139.079 41.8965V42.3726C139.079 43.5444 139.112 44.3135 139.177 44.6797C139.25 45.0459 139.384 45.404 139.58 45.7539C139.775 46.0957 139.873 46.3439 139.873 46.4985V46.6084C139.873 47.0072 139.669 47.3245 139.262 47.5605C138.855 47.7965 138.302 47.9146 137.602 47.9146H137.297C136.89 47.9146 136.581 47.825 136.369 47.646C136.158 47.4588 136.052 47.2594 136.052 47.0479V46.7793C136.052 46.6735 136.145 46.2992 136.333 45.6562C136.52 45.0052 136.613 44.1222 136.613 43.0073C136.638 42.6899 136.65 42.4702 136.65 42.3481L136.687 41.6768L136.711 41.3472C136.752 40.7775 136.772 40.334 136.772 40.0166L136.784 39.5283C136.784 38.918 136.682 38.3768 136.479 37.9048C136.284 37.4328 136.186 37.1398 136.186 37.0259C136.186 36.4399 136.739 36.147 137.846 36.147H138.286C138.701 36.147 138.969 36.2568 139.091 36.4766C139.213 36.6882 139.274 36.9567 139.274 37.2822ZM145.012 42.8486C145.012 43.9147 145.256 44.8018 145.744 45.5098C146.232 46.2178 146.831 46.5718 147.539 46.5718H147.905C148.743 46.5718 149.451 46.1486 150.029 45.3022C150.615 44.4559 150.908 43.3288 150.908 41.9209V41.1152C150.908 40.0247 150.668 39.1336 150.188 38.4419C149.715 37.742 149.105 37.3921 148.356 37.3921H148.112C147.242 37.3921 146.509 37.8234 145.915 38.686C145.329 39.5487 145.036 40.5781 145.036 41.7744L145.012 42.0552V42.8486ZM147.771 48.2319H147.38C145.956 48.2319 144.796 47.7355 143.901 46.7427C143.006 45.7498 142.558 44.342 142.558 42.519L142.57 42.3115C142.57 40.3096 143.099 38.7308 144.157 37.5752C144.711 36.9648 145.341 36.5173 146.049 36.2324C146.765 35.9395 147.445 35.793 148.088 35.793H148.686C149.402 35.793 150.09 35.9517 150.749 36.269C152.637 37.1805 153.581 38.8976 153.581 41.4204V41.6157C153.573 42.4377 153.439 43.2718 153.178 44.1182C152.657 45.7865 151.656 46.9665 150.175 47.6582C149.353 48.0407 148.552 48.2319 147.771 48.2319ZM167.314 46.5352C167.314 47.1374 166.789 47.4385 165.739 47.4385C165.145 47.4385 164.746 47.2961 164.543 47.0112C164.445 46.8729 164.396 46.5474 164.396 46.0347L164.36 45.2534C164.303 44.3989 164.274 43.5404 164.274 42.6777C164.274 40.8141 164.112 39.5649 163.786 38.9302C163.469 38.2873 162.932 37.9658 162.175 37.9658C161.67 37.9658 161.202 38.1164 160.771 38.4175C160.348 38.7186 160.022 39.1377 159.794 39.6748C159.322 40.7734 159.086 42.8039 159.086 45.7661C159.086 46.4416 158.956 46.9176 158.696 47.1943C158.444 47.471 158.118 47.6094 157.719 47.6094H157.475C156.564 47.6094 156.108 47.2472 156.108 46.5229V46.23C156.108 46.1405 156.157 45.9451 156.254 45.644L156.45 45.0825C156.645 44.4233 156.743 43.0114 156.743 40.8467L156.804 37.2212C156.804 36.7573 157.056 36.5254 157.561 36.5254C158.065 36.5254 158.562 36.6922 159.05 37.0259C159.546 37.3595 159.86 37.5264 159.99 37.5264C160.128 37.5264 160.368 37.4328 160.71 37.2456C161.857 36.619 162.777 36.3057 163.469 36.3057H163.786C165.031 36.3057 165.906 36.8672 166.411 37.9902C166.655 38.5192 166.777 39.6585 166.777 41.4082V41.4937C166.777 41.6401 166.773 41.7866 166.765 41.9331C166.765 42.3319 166.765 42.5394 166.765 42.5557C166.765 42.7103 166.765 42.8608 166.765 43.0073C166.765 43.1213 166.765 43.2311 166.765 43.3369C166.765 43.9635 166.785 44.3908 166.826 44.6187C166.883 44.9279 166.976 45.2493 167.106 45.583C167.245 45.9492 167.314 46.2666 167.314 46.5352ZM174.052 46.4619H174.37C175.037 46.4619 175.623 46.2381 176.127 45.7905C176.64 45.3348 176.896 44.8099 176.896 44.2158L176.921 44.0571V43.8984L176.945 43.52V42.8242C176.945 42.3522 176.705 42.1162 176.225 42.1162H175.676L175.59 42.1284L175.114 42.165C174.886 42.1976 174.724 42.2139 174.626 42.2139C173.967 42.2139 173.356 42.4621 172.795 42.9585C172.404 43.3084 172.209 43.8049 172.209 44.4478V44.6919C172.209 45.2371 172.384 45.6685 172.734 45.9858C173.092 46.3032 173.531 46.4619 174.052 46.4619ZM171.33 38.6616C170.785 38.6616 170.512 38.3117 170.512 37.6118C170.512 37.091 170.952 36.6393 171.831 36.2568C172.718 35.8662 173.637 35.6709 174.589 35.6709H175.2C176.022 35.6709 176.746 35.8255 177.373 36.1348C177.999 36.4359 178.475 36.8468 178.801 37.3677C179.134 37.8885 179.338 38.568 179.411 39.4062C179.427 39.6016 179.436 40.5496 179.436 42.2505C179.436 43.9513 179.456 44.932 179.497 45.1924C179.545 45.4447 179.676 45.7539 179.887 46.1201C180.107 46.4863 180.217 46.7874 180.217 47.0234C180.217 47.2594 180.103 47.4629 179.875 47.6338C179.655 47.7965 179.334 47.8779 178.911 47.8779C178.487 47.8779 178.028 47.7762 177.531 47.5728C177.035 47.3612 176.673 47.2554 176.445 47.2554C176.42 47.2554 176.014 47.4019 175.224 47.6948C174.435 47.9797 173.767 48.1221 173.222 48.1221H172.954C172.042 48.1221 171.265 47.8332 170.622 47.2554C169.987 46.6776 169.67 45.8556 169.67 44.7896C169.67 43.7235 170.02 42.8934 170.72 42.2993C171.42 41.6971 172.27 41.2861 173.271 41.0664C173.572 41.0013 174.073 40.9159 174.772 40.8101C175.472 40.7043 175.948 40.5944 176.201 40.4805C176.64 40.277 176.86 39.8945 176.86 39.333C176.86 38.7633 176.673 38.3198 176.298 38.0024C175.924 37.6769 175.476 37.5142 174.956 37.5142C174.443 37.5142 173.767 37.7054 172.929 38.0879C172.091 38.4704 171.558 38.6616 171.33 38.6616ZM183.745 31.0322C183.745 30.4382 184.302 30.1411 185.417 30.1411H185.637C186.101 30.1411 186.418 30.255 186.589 30.4829C186.76 30.7026 186.845 31.134 186.845 31.7769L186.748 33.5957C186.723 33.8805 186.711 34.0352 186.711 34.0596L186.687 34.5234C186.67 34.8245 186.654 35.1297 186.638 35.439L186.601 35.9028L186.564 36.5986C186.434 39.0726 186.369 40.8996 186.369 42.0796C186.369 43.2515 186.422 44.0938 186.528 44.6064C186.634 45.1191 186.8 45.5545 187.028 45.9126C187.256 46.2707 187.37 46.5067 187.37 46.6206V46.7671C187.37 47.1252 187.191 47.41 186.833 47.6216C186.483 47.8332 186.007 47.939 185.405 47.939H184.77C184.396 47.939 184.066 47.8332 183.781 47.6216C183.505 47.4019 183.366 47.1536 183.366 46.877V46.5474L183.439 46.0347C183.537 45.3267 183.594 44.7977 183.61 44.4478C183.635 44.0897 183.671 43.5973 183.72 42.9707C183.769 42.3359 183.846 40.9891 183.952 38.9302C184.066 36.8631 184.123 35.7523 184.123 35.5977L184.172 34.6821L184.196 33.7788C184.196 32.9162 184.119 32.3018 183.964 31.9355C183.818 31.5612 183.745 31.2601 183.745 31.0322ZM201.079 32.1309V32.2773C201.079 32.6924 200.957 33.0464 200.712 33.3394C200.476 33.6242 200.11 33.7666 199.614 33.7666H199.418L199.04 33.7178C198.82 33.7178 198.609 33.616 198.405 33.4126C198.202 33.2091 198.1 32.904 198.1 32.4971V32.3506L198.161 31.9111C198.161 31.7402 198.263 31.5286 198.466 31.2764C198.678 31.0241 198.946 30.8979 199.272 30.8979L199.553 30.8613H199.797L200.139 30.9102C200.35 30.9102 200.558 31.016 200.761 31.2275C200.973 31.431 201.079 31.7321 201.079 32.1309ZM200.505 37.2822L200.371 40.5659L200.346 40.8955L200.31 41.8965V42.3726C200.31 43.5444 200.342 44.3135 200.407 44.6797C200.48 45.0459 200.615 45.404 200.81 45.7539C201.005 46.0957 201.103 46.3439 201.103 46.4985V46.6084C201.103 47.0072 200.9 47.3245 200.493 47.5605C200.086 47.7965 199.532 47.9146 198.833 47.9146H198.527C198.12 47.9146 197.811 47.825 197.6 47.646C197.388 47.4588 197.282 47.2594 197.282 47.0479V46.7793C197.282 46.6735 197.376 46.2992 197.563 45.6562C197.75 45.0052 197.844 44.1222 197.844 43.0073C197.868 42.6899 197.88 42.4702 197.88 42.3481L197.917 41.6768L197.941 41.3472C197.982 40.7775 198.002 40.334 198.002 40.0166L198.015 39.5283C198.015 38.918 197.913 38.3768 197.709 37.9048C197.514 37.4328 197.417 37.1398 197.417 37.0259C197.417 36.4399 197.97 36.147 199.077 36.147H199.516C199.931 36.147 200.2 36.2568 200.322 36.4766C200.444 36.6882 200.505 36.9567 200.505 37.2822ZM205.021 41.1885C204.525 40.6839 204.277 39.9759 204.277 39.0645C204.277 38.153 204.684 37.3717 205.498 36.7207C206.311 36.0615 207.32 35.7319 208.525 35.7319H208.842C209.908 35.7319 210.755 35.8825 211.381 36.1836C212.016 36.4847 212.333 36.9364 212.333 37.5386C212.333 38.1326 212.069 38.4297 211.54 38.4297C211.402 38.4297 211.011 38.2669 210.368 37.9414C209.725 37.6077 209.119 37.4409 208.549 37.4409C207.98 37.4409 207.52 37.5711 207.17 37.8315C206.828 38.0838 206.657 38.4338 206.657 38.8813C206.657 39.3289 206.897 39.7196 207.377 40.0532C207.654 40.2485 208.305 40.5578 209.331 40.981C210.364 41.4041 211.101 41.811 211.54 42.2017C212.248 42.8283 212.602 43.6299 212.602 44.6064C212.602 45.583 212.187 46.4212 211.357 47.1211C210.527 47.8128 209.449 48.1587 208.122 48.1587H207.805C206.47 48.1587 205.469 47.9674 204.802 47.585C204.134 47.1943 203.801 46.6898 203.801 46.0713C203.801 45.4447 204.061 45.1313 204.582 45.1313C204.753 45.1313 205.196 45.3511 205.913 45.7905C206.637 46.23 207.345 46.4497 208.037 46.4497C208.736 46.4497 209.261 46.3032 209.611 46.0103C209.961 45.7091 210.136 45.3348 210.136 44.8872C210.136 44.4315 209.917 44.0327 209.477 43.6909C209.241 43.5037 208.566 43.166 207.451 42.6777C206.336 42.1813 205.526 41.6849 205.021 41.1885ZM216.081 41.1885C215.585 40.6839 215.336 39.9759 215.336 39.0645C215.336 38.153 215.743 37.3717 216.557 36.7207C217.371 36.0615 218.38 35.7319 219.584 35.7319H219.902C220.968 35.7319 221.814 35.8825 222.441 36.1836C223.076 36.4847 223.393 36.9364 223.393 37.5386C223.393 38.1326 223.129 38.4297 222.6 38.4297C222.461 38.4297 222.071 38.2669 221.428 37.9414C220.785 37.6077 220.179 37.4409 219.609 37.4409C219.039 37.4409 218.579 37.5711 218.229 37.8315C217.888 38.0838 217.717 38.4338 217.717 38.8813C217.717 39.3289 217.957 39.7196 218.437 40.0532C218.714 40.2485 219.365 40.5578 220.39 40.981C221.424 41.4041 222.16 41.811 222.6 42.2017C223.308 42.8283 223.662 43.6299 223.662 44.6064C223.662 45.583 223.247 46.4212 222.417 47.1211C221.586 47.8128 220.508 48.1587 219.182 48.1587H218.864C217.53 48.1587 216.529 47.9674 215.861 47.585C215.194 47.1943 214.86 46.6898 214.86 46.0713C214.86 45.4447 215.121 45.1313 215.642 45.1313C215.812 45.1313 216.256 45.3511 216.972 45.7905C217.696 46.23 218.404 46.4497 219.096 46.4497C219.796 46.4497 220.321 46.3032 220.671 46.0103C221.021 45.7091 221.196 45.3348 221.196 44.8872C221.196 44.4315 220.976 44.0327 220.537 43.6909C220.301 43.5037 219.625 43.166 218.51 42.6777C217.395 42.1813 216.586 41.6849 216.081 41.1885ZM226.311 37.0259C226.311 36.5132 226.742 36.2568 227.604 36.2568H227.885C228.422 36.2568 228.785 36.4725 228.972 36.9038C229.159 37.3351 229.252 38.1408 229.252 39.3208L229.106 43.3979C229.106 45.2941 229.785 46.2422 231.145 46.2422C231.641 46.2422 232.117 46.0672 232.573 45.7173C233.028 45.3674 233.366 44.9482 233.586 44.46C234.066 43.3857 234.306 41.4611 234.306 38.686L234.282 38.1489V37.6729C234.282 37.2415 234.379 36.9282 234.575 36.7329C234.77 36.5376 235.112 36.4399 235.6 36.4399C236.088 36.4399 236.41 36.5579 236.564 36.7939C236.719 37.0299 236.796 37.4124 236.796 37.9414L236.772 38.5884L236.723 41.4692C236.723 41.9331 236.752 42.6452 236.809 43.6055C236.866 44.5658 236.927 45.2697 236.992 45.7173C237.057 46.1567 237.089 46.4172 237.089 46.4985C237.089 47.2228 236.556 47.585 235.49 47.585C235.124 47.585 234.758 47.4507 234.392 47.1821C234.034 46.9054 233.777 46.7671 233.623 46.7671C233.476 46.7671 233.224 46.8566 232.866 47.0356C231.848 47.5483 230.982 47.8047 230.266 47.8047H229.96C228.797 47.8047 227.942 47.4466 227.397 46.7305C226.852 46.0143 226.579 44.7244 226.579 42.8608L226.701 39.1621C226.701 38.6982 226.636 38.2547 226.506 37.8315C226.376 37.4084 226.311 37.1398 226.311 37.0259ZM242.351 40.5781V40.7734C242.351 41.0176 242.574 41.1396 243.022 41.1396H243.315L243.388 41.1274L243.986 41.0786C244.613 40.9891 245.02 40.9443 245.207 40.9443C246.094 40.9443 246.761 40.7775 247.209 40.4438C247.421 40.2811 247.526 39.9922 247.526 39.5771V39.4429C247.526 38.8325 247.323 38.3483 246.916 37.9902C246.517 37.6322 246.037 37.4531 245.476 37.4531H245.39L245.317 37.4653C244.528 37.4653 243.836 37.799 243.242 38.4663C242.648 39.1336 242.351 39.8376 242.351 40.5781ZM245.012 48.1587H244.743C243.189 48.1587 241.952 47.6663 241.032 46.6816C240.113 45.6888 239.653 44.3664 239.653 42.7144V42.1772C239.653 41.3879 239.807 40.5863 240.117 39.7725C240.743 38.1449 241.765 37.0218 243.181 36.4033C243.929 36.0697 244.69 35.9028 245.463 35.9028H245.988C247.054 35.9028 247.954 36.2609 248.686 36.9771C249.427 37.6851 249.797 38.6006 249.797 39.7236V39.9678C249.797 40.7653 249.479 41.3309 248.845 41.6646C248.405 41.9006 247.38 42.1366 245.769 42.3726C244.157 42.6086 243.278 42.751 243.132 42.7998C242.644 42.9707 242.399 43.2962 242.399 43.7764C242.399 44.4437 242.684 45.0133 243.254 45.4854C243.824 45.9574 244.589 46.1934 245.549 46.1934C245.996 46.1934 246.607 46.0713 247.38 45.8271C248.153 45.583 248.601 45.4609 248.723 45.4609C249.138 45.4609 249.345 45.64 249.345 45.998C249.345 46.4782 248.877 46.9583 247.941 47.4385C247.006 47.9186 246.029 48.1587 245.012 48.1587ZM253.312 41.1885C252.816 40.6839 252.568 39.9759 252.568 39.0645C252.568 38.153 252.975 37.3717 253.789 36.7207C254.602 36.0615 255.611 35.7319 256.816 35.7319H257.133C258.199 35.7319 259.046 35.8825 259.672 36.1836C260.307 36.4847 260.625 36.9364 260.625 37.5386C260.625 38.1326 260.36 38.4297 259.831 38.4297C259.693 38.4297 259.302 38.2669 258.659 37.9414C258.016 37.6077 257.41 37.4409 256.84 37.4409C256.271 37.4409 255.811 37.5711 255.461 37.8315C255.119 38.0838 254.948 38.4338 254.948 38.8813C254.948 39.3289 255.188 39.7196 255.668 40.0532C255.945 40.2485 256.596 40.5578 257.622 40.981C258.655 41.4041 259.392 41.811 259.831 42.2017C260.539 42.8283 260.893 43.6299 260.893 44.6064C260.893 45.583 260.478 46.4212 259.648 47.1211C258.818 47.8128 257.74 48.1587 256.413 48.1587H256.096C254.761 48.1587 253.76 47.9674 253.093 47.585C252.425 47.1943 252.092 46.6898 252.092 46.0713C252.092 45.4447 252.352 45.1313 252.873 45.1313C253.044 45.1313 253.487 45.3511 254.204 45.7905C254.928 46.23 255.636 46.4497 256.328 46.4497C257.028 46.4497 257.552 46.3032 257.902 46.0103C258.252 45.7091 258.427 45.3348 258.427 44.8872C258.427 44.4315 258.208 44.0327 257.768 43.6909C257.532 43.5037 256.857 43.166 255.742 42.6777C254.627 42.1813 253.817 41.6849 253.312 41.1885ZM265.227 48.1953H264.848C264.441 48.1953 264.124 48.1017 263.896 47.9146C263.676 47.7274 263.566 47.4792 263.566 47.1699C263.55 47.1048 263.542 47.0519 263.542 47.0112L263.518 46.8037V46.584L263.53 46.5352V46.4253C263.546 46.3602 263.554 46.3073 263.554 46.2666C263.554 45.9004 263.676 45.6156 263.92 45.4121C264.173 45.2005 264.449 45.0947 264.75 45.0947L265.007 45.0581H265.336C266.223 45.0581 266.667 45.522 266.667 46.4497V46.6206L266.618 47.0356C266.618 47.41 266.476 47.6989 266.191 47.9023C265.914 48.0977 265.593 48.1953 265.227 48.1953ZM284.123 40.981C285.132 40.981 285.637 40.8507 285.637 40.5903V40.5049C285.637 40.3665 285.364 39.215 284.819 37.0503C284.274 34.8774 283.907 33.791 283.72 33.791H283.671C283.655 33.791 283.5 34.1084 283.208 34.7432C281.694 37.9902 280.937 39.9678 280.937 40.6758V40.749C280.937 40.8711 281.092 40.9321 281.401 40.9321L281.596 40.9565L282.487 40.981H284.123ZM283.842 30.8491H284.123C284.815 30.8491 285.433 31.4798 285.979 32.7412C286.906 34.8652 287.96 38.2954 289.14 43.0317C289.295 43.634 289.523 44.2362 289.824 44.8384C290.133 45.4406 290.288 45.8231 290.288 45.9858C290.288 46.4497 290.133 46.8566 289.824 47.2065C289.514 47.5565 289.148 47.7314 288.725 47.7314H288.457C287.749 47.7314 287.305 47.5076 287.126 47.0601C287.093 46.9868 287.057 46.7793 287.016 46.4375C286.984 46.0876 286.935 45.762 286.87 45.4609C286.642 44.403 286.357 43.6787 286.015 43.2881C285.681 42.8893 284.733 42.6899 283.171 42.6899C281.608 42.6899 280.64 42.869 280.266 43.2271C279.899 43.5851 279.517 44.3175 279.118 45.4243C278.996 45.7661 278.898 46.1445 278.825 46.5596C278.76 46.9746 278.691 47.2432 278.618 47.3652C278.471 47.6012 278.17 47.7192 277.714 47.7192C277.267 47.7192 276.909 47.5646 276.64 47.2554C276.372 46.9461 276.237 46.584 276.237 46.1689C276.237 45.7458 276.449 45.2412 276.872 44.6553C277.287 44.0693 278.064 42.279 279.204 39.2842C280.994 34.5641 282.198 31.9111 282.817 31.3252C283.159 31.0078 283.5 30.8491 283.842 30.8491ZM292.619 42.9219V42.3604C292.619 41.335 292.778 40.4276 293.095 39.6382C293.706 38.1082 294.641 37.0503 295.903 36.4644C296.725 36.0737 297.575 35.8784 298.454 35.8784H298.723C299.691 35.8784 300.493 36.0697 301.127 36.4521C301.762 36.8346 302.08 37.3026 302.08 37.856C302.08 38.4989 301.77 38.8203 301.152 38.8203C301.038 38.8203 300.639 38.6413 299.956 38.2832C299.272 37.9333 298.71 37.7583 298.271 37.7583C298.263 37.7583 298.255 37.7583 298.247 37.7583C297.286 37.7583 296.534 38.1733 295.988 39.0034C295.451 39.8335 295.183 40.9159 295.183 42.2505C295.183 43.5851 295.467 44.5739 296.037 45.2168C296.615 45.8597 297.417 46.1812 298.442 46.1812C298.865 46.1812 299.447 46.0632 300.188 45.8271C300.928 45.583 301.38 45.4609 301.542 45.4609C301.876 45.4609 302.043 45.6359 302.043 45.9858C302.043 46.4578 301.575 46.9339 300.639 47.4141C299.703 47.8942 298.784 48.1343 297.88 48.1343C295.463 48.1343 293.864 47.1821 293.083 45.2778C292.774 44.521 292.619 43.7357 292.619 42.9219ZM304.216 42.9219V42.3604C304.216 41.335 304.375 40.4276 304.692 39.6382C305.302 38.1082 306.238 37.0503 307.5 36.4644C308.321 36.0737 309.172 35.8784 310.051 35.8784H310.319C311.288 35.8784 312.089 36.0697 312.724 36.4521C313.359 36.8346 313.676 37.3026 313.676 37.856C313.676 38.4989 313.367 38.8203 312.749 38.8203C312.635 38.8203 312.236 38.6413 311.552 38.2832C310.869 37.9333 310.307 37.7583 309.868 37.7583C309.86 37.7583 309.851 37.7583 309.843 37.7583C308.883 37.7583 308.13 38.1733 307.585 39.0034C307.048 39.8335 306.779 40.9159 306.779 42.2505C306.779 43.5851 307.064 44.5739 307.634 45.2168C308.212 45.8597 309.013 46.1812 310.039 46.1812C310.462 46.1812 311.044 46.0632 311.784 45.8271C312.525 45.583 312.976 45.4609 313.139 45.4609C313.473 45.4609 313.64 45.6359 313.64 45.9858C313.64 46.4578 313.172 46.9339 312.236 47.4141C311.3 47.8942 310.38 48.1343 309.477 48.1343C307.06 48.1343 305.461 47.1821 304.68 45.2778C304.37 44.521 304.216 43.7357 304.216 42.9219ZM318.425 40.5781V40.7734C318.425 41.0176 318.649 41.1396 319.096 41.1396H319.389L319.462 41.1274L320.061 41.0786C320.687 40.9891 321.094 40.9443 321.281 40.9443C322.168 40.9443 322.836 40.7775 323.283 40.4438C323.495 40.2811 323.601 39.9922 323.601 39.5771V39.4429C323.601 38.8325 323.397 38.3483 322.99 37.9902C322.591 37.6322 322.111 37.4531 321.55 37.4531H321.464L321.391 37.4653C320.602 37.4653 319.91 37.799 319.316 38.4663C318.722 39.1336 318.425 39.8376 318.425 40.5781ZM321.086 48.1587H320.817C319.263 48.1587 318.026 47.6663 317.106 46.6816C316.187 45.6888 315.727 44.3664 315.727 42.7144V42.1772C315.727 41.3879 315.882 40.5863 316.191 39.7725C316.818 38.1449 317.839 37.0218 319.255 36.4033C320.004 36.0697 320.764 35.9028 321.538 35.9028H322.062C323.129 35.9028 324.028 36.2609 324.76 36.9771C325.501 37.6851 325.871 38.6006 325.871 39.7236V39.9678C325.871 40.7653 325.554 41.3309 324.919 41.6646C324.479 41.9006 323.454 42.1366 321.843 42.3726C320.231 42.6086 319.353 42.751 319.206 42.7998C318.718 42.9707 318.474 43.2962 318.474 43.7764C318.474 44.4437 318.758 45.0133 319.328 45.4854C319.898 45.9574 320.663 46.1934 321.623 46.1934C322.071 46.1934 322.681 46.0713 323.454 45.8271C324.227 45.583 324.675 45.4609 324.797 45.4609C325.212 45.4609 325.419 45.64 325.419 45.998C325.419 46.4782 324.951 46.9583 324.016 47.4385C323.08 47.9186 322.103 48.1587 321.086 48.1587ZM337.102 40.9565C337.102 39.8742 336.874 39.0278 336.418 38.4175C335.97 37.799 335.433 37.4897 334.807 37.4897H334.453C333.574 37.4897 332.878 37.8397 332.365 38.5396C331.853 39.2313 331.596 40.2526 331.596 41.6035L331.572 41.8477L331.523 43.1172V43.9717C331.523 44.8587 331.702 45.4854 332.06 45.8516C332.426 46.2096 332.943 46.3887 333.61 46.3887H333.842C334.762 46.3887 335.531 45.9655 336.149 45.1191C336.768 44.2728 337.077 43.2433 337.077 42.0308L337.102 41.7622V40.9565ZM330.461 36.3667L332.17 36.6597C332.349 36.6597 332.768 36.5417 333.427 36.3057C334.086 36.0697 334.733 35.9517 335.368 35.9517C336.654 35.9517 337.696 36.4033 338.493 37.3066C339.291 38.2018 339.689 39.4103 339.689 40.9321V41.2373C339.689 42.2627 339.519 43.2067 339.177 44.0693C338.477 45.8516 337.309 47.0031 335.673 47.5239C335.209 47.6704 334.587 47.7721 333.806 47.8291C333.033 47.8861 332.483 47.9878 332.158 48.1343C331.661 48.3621 331.413 48.7731 331.413 49.3672C331.413 49.6195 331.458 49.9613 331.547 50.3926C331.645 50.8239 331.694 51.2227 331.694 51.5889C331.694 51.9551 331.486 52.3132 331.071 52.6631C330.656 53.0212 330.139 53.2002 329.521 53.2002H329.265C328.532 53.2002 328.166 52.9316 328.166 52.3945V52.1626C328.166 52.0487 328.243 51.7272 328.398 51.1982C328.561 50.6774 328.675 50.1159 328.74 49.5137C328.805 48.9196 328.911 47.4344 329.057 45.0581C329.204 42.6818 329.277 41.0583 329.277 40.1875C329.277 39.3086 329.22 38.5721 329.106 37.978C329 37.384 328.947 37.0625 328.947 37.0137C328.947 36.5824 329.452 36.3667 330.461 36.3667ZM348.601 46.6938C348.601 47.0194 348.401 47.3123 348.002 47.5728C347.612 47.825 347.079 47.9512 346.403 47.9512C345.142 47.9512 344.255 47.4832 343.742 46.5474C343.425 45.9614 343.266 44.5902 343.266 42.4336C343.266 40.277 343.229 39.0238 343.156 38.6738C343.083 38.3239 342.88 37.9821 342.546 37.6484C342.212 37.3148 342.045 37.0584 342.045 36.8794C342.045 36.8143 342.44 36.387 343.229 35.5977C343.4 35.4268 343.571 35.0483 343.742 34.4624C343.921 33.8765 344.047 33.4899 344.121 33.3027C344.365 32.7168 344.686 32.4238 345.085 32.4238H345.28C345.63 32.4238 345.878 32.5581 346.025 32.8267C346.082 32.9325 346.167 33.3149 346.281 33.9741C346.403 34.6252 346.542 35.0443 346.696 35.2314C346.851 35.4186 347.237 35.6261 347.856 35.854C348.483 36.0737 348.796 36.3097 348.796 36.562V36.6963C348.796 37.0218 348.438 37.2985 347.722 37.5264C347.014 37.7461 346.558 38.1001 346.354 38.5884C345.956 39.5731 345.756 41.1763 345.756 43.3979C345.756 44.4396 345.935 45.1476 346.293 45.522C346.513 45.7498 346.953 45.9085 347.612 45.998C348.271 46.0876 348.601 46.3195 348.601 46.6938ZM352.312 41.1885C351.815 40.6839 351.567 39.9759 351.567 39.0645C351.567 38.153 351.974 37.3717 352.788 36.7207C353.601 36.0615 354.611 35.7319 355.815 35.7319H356.132C357.198 35.7319 358.045 35.8825 358.671 36.1836C359.306 36.4847 359.624 36.9364 359.624 37.5386C359.624 38.1326 359.359 38.4297 358.83 38.4297C358.692 38.4297 358.301 38.2669 357.658 37.9414C357.015 37.6077 356.409 37.4409 355.839 37.4409C355.27 37.4409 354.81 37.5711 354.46 37.8315C354.118 38.0838 353.947 38.4338 353.947 38.8813C353.947 39.3289 354.187 39.7196 354.667 40.0532C354.944 40.2485 355.595 40.5578 356.621 40.981C357.654 41.4041 358.391 41.811 358.83 42.2017C359.538 42.8283 359.892 43.6299 359.892 44.6064C359.892 45.583 359.477 46.4212 358.647 47.1211C357.817 47.8128 356.739 48.1587 355.412 48.1587H355.095C353.76 48.1587 352.759 47.9674 352.092 47.585C351.424 47.1943 351.091 46.6898 351.091 46.0713C351.091 45.4447 351.351 45.1313 351.872 45.1313C352.043 45.1313 352.486 45.3511 353.203 45.7905C353.927 46.23 354.635 46.4497 355.327 46.4497C356.027 46.4497 356.551 46.3032 356.901 46.0103C357.251 45.7091 357.426 45.3348 357.426 44.8872C357.426 44.4315 357.207 44.0327 356.767 43.6909C356.531 43.5037 355.856 43.166 354.741 42.6777C353.626 42.1813 352.816 41.6849 352.312 41.1885ZM371.293 48.8911H371.013C370.606 48.8911 370.26 48.7731 369.975 48.5371C369.698 48.3011 369.56 48.0203 369.56 47.6948C369.56 47.3693 369.658 46.9543 369.853 46.4497C370.056 45.937 370.203 45.3145 370.292 44.582C370.39 43.8415 370.439 42.7591 370.439 41.335C370.439 39.9108 370.37 39.0034 370.231 38.6128C370.207 38.5477 370.093 38.332 369.89 37.9658C369.686 37.5915 369.584 37.2741 369.584 37.0137C369.584 36.7533 369.719 36.4196 369.987 36.0127C370.264 35.6058 370.447 35.3047 370.537 35.1094C371.635 32.79 372.209 31.6019 372.258 31.5449C373.104 30.5602 374.248 30.0679 375.688 30.0679C376.355 30.0679 376.868 30.1818 377.226 30.4097C377.584 30.6375 377.763 30.9346 377.763 31.3008C377.763 31.6589 377.552 31.9193 377.128 32.082C377.014 32.1227 376.864 32.1431 376.677 32.1431C376.538 32.1349 376.38 32.1227 376.201 32.1064C375.778 32.0576 375.468 32.0332 375.273 32.0332C374.744 32.0332 374.313 32.2611 373.979 32.7168C373.653 33.1644 373.491 33.6812 373.491 34.2671C373.491 34.853 373.609 35.2803 373.845 35.5488C373.918 35.6302 374.264 35.8337 374.882 36.1592C375.509 36.4766 375.822 36.798 375.822 37.1235C375.822 37.3026 375.472 37.5793 374.772 37.9536C374.276 38.214 373.91 38.6779 373.674 39.3452C373.161 40.7775 372.905 42.6615 372.905 44.9971L373.137 47.0601C373.137 47.6216 372.97 48.0651 372.636 48.3906C372.311 48.7243 371.863 48.8911 371.293 48.8911ZM380.559 40.5781V40.7734C380.559 41.0176 380.782 41.1396 381.23 41.1396H381.523L381.596 41.1274L382.194 41.0786C382.821 40.9891 383.228 40.9443 383.415 40.9443C384.302 40.9443 384.969 40.7775 385.417 40.4438C385.629 40.2811 385.734 39.9922 385.734 39.5771V39.4429C385.734 38.8325 385.531 38.3483 385.124 37.9902C384.725 37.6322 384.245 37.4531 383.684 37.4531H383.598L383.525 37.4653C382.736 37.4653 382.044 37.799 381.45 38.4663C380.856 39.1336 380.559 39.8376 380.559 40.5781ZM383.22 48.1587H382.951C381.397 48.1587 380.16 47.6663 379.24 46.6816C378.321 45.6888 377.861 44.3664 377.861 42.7144V42.1772C377.861 41.3879 378.015 40.5863 378.325 39.7725C378.951 38.1449 379.973 37.0218 381.389 36.4033C382.137 36.0697 382.898 35.9028 383.671 35.9028H384.196C385.262 35.9028 386.162 36.2609 386.894 36.9771C387.635 37.6851 388.005 38.6006 388.005 39.7236V39.9678C388.005 40.7653 387.688 41.3309 387.053 41.6646C386.613 41.9006 385.588 42.1366 383.977 42.3726C382.365 42.6086 381.486 42.751 381.34 42.7998C380.852 42.9707 380.607 43.2962 380.607 43.7764C380.607 44.4437 380.892 45.0133 381.462 45.4854C382.032 45.9574 382.797 46.1934 383.757 46.1934C384.204 46.1934 384.815 46.0713 385.588 45.8271C386.361 45.583 386.809 45.4609 386.931 45.4609C387.346 45.4609 387.553 45.64 387.553 45.998C387.553 46.4782 387.085 46.9583 386.149 47.4385C385.214 47.9186 384.237 48.1587 383.22 48.1587ZM392.888 40.5781V40.7734C392.888 41.0176 393.111 41.1396 393.559 41.1396H393.852L393.925 41.1274L394.523 41.0786C395.15 40.9891 395.557 40.9443 395.744 40.9443C396.631 40.9443 397.299 40.7775 397.746 40.4438C397.958 40.2811 398.063 39.9922 398.063 39.5771V39.4429C398.063 38.8325 397.86 38.3483 397.453 37.9902C397.054 37.6322 396.574 37.4531 396.013 37.4531H395.927L395.854 37.4653C395.065 37.4653 394.373 37.799 393.779 38.4663C393.185 39.1336 392.888 39.8376 392.888 40.5781ZM395.549 48.1587H395.28C393.726 48.1587 392.489 47.6663 391.569 46.6816C390.65 45.6888 390.19 44.3664 390.19 42.7144V42.1772C390.19 41.3879 390.345 40.5863 390.654 39.7725C391.28 38.1449 392.302 37.0218 393.718 36.4033C394.466 36.0697 395.227 35.9028 396 35.9028H396.525C397.591 35.9028 398.491 36.2609 399.223 36.9771C399.964 37.6851 400.334 38.6006 400.334 39.7236V39.9678C400.334 40.7653 400.017 41.3309 399.382 41.6646C398.942 41.9006 397.917 42.1366 396.306 42.3726C394.694 42.6086 393.815 42.751 393.669 42.7998C393.181 42.9707 392.937 43.2962 392.937 43.7764C392.937 44.4437 393.221 45.0133 393.791 45.4854C394.361 45.9574 395.126 46.1934 396.086 46.1934C396.534 46.1934 397.144 46.0713 397.917 45.8271C398.69 45.583 399.138 45.4609 399.26 45.4609C399.675 45.4609 399.882 45.64 399.882 45.998C399.882 46.4782 399.414 46.9583 398.479 47.4385C397.543 47.9186 396.566 48.1587 395.549 48.1587ZM405.095 42.0796V43.0073C405.095 43.9757 405.314 44.7855 405.754 45.4365C406.201 46.0794 406.726 46.4009 407.329 46.4009H407.67C408.598 46.4009 409.314 46.0306 409.819 45.29C410.332 44.5495 410.588 43.4468 410.588 41.9819C410.604 41.8029 410.612 41.6727 410.612 41.5913L410.637 41.3472L410.649 40.8345V39.9678C410.649 38.3076 409.986 37.4775 408.659 37.4775H408.183C407.32 37.4775 406.588 37.9129 405.986 38.7837C405.392 39.6545 405.095 40.7531 405.095 42.0796ZM402.751 42.6411C402.751 41.7948 402.902 40.9321 403.203 40.0532C403.504 39.1743 403.927 38.4256 404.472 37.8071C405.017 37.1805 405.632 36.7288 406.315 36.4521C406.999 36.1673 407.809 36.0249 408.745 36.0249C409.689 36.0249 410.275 35.854 410.502 35.5122C410.73 35.1623 410.844 34.3932 410.844 33.2051C410.844 32.9854 410.808 32.6924 410.734 32.3262C410.661 31.96 410.625 31.7484 410.625 31.6914C410.625 31.3415 410.775 31.0241 411.076 30.7393C411.377 30.4463 411.772 30.2998 412.26 30.2998H412.504C412.887 30.2998 413.172 30.3893 413.359 30.5684C413.546 30.7474 413.64 31.1217 413.64 31.6914V32.8267L413.615 33.4004C413.607 33.5957 413.603 33.8805 413.603 34.2549C413.603 34.6211 413.542 35.8011 413.42 37.7949C413.298 39.7887 413.237 41.16 413.237 41.9087L413.225 42.2017C413.216 42.397 413.212 42.5841 413.212 42.7632L413.2 43.0439C413.2 43.0439 413.2 43.3613 413.2 43.9961C413.2 44.818 413.265 45.4365 413.396 45.8516C413.526 46.2666 413.591 46.5636 413.591 46.7427C413.591 46.9217 413.489 47.1089 413.286 47.3042C413.082 47.4995 412.765 47.5972 412.333 47.5972C411.91 47.5972 411.499 47.528 411.101 47.3896C410.702 47.2432 410.409 47.1699 410.222 47.1699C410.035 47.1699 409.79 47.2269 409.489 47.3408C408.578 47.6745 407.744 47.8413 406.987 47.8413C406.971 47.8413 406.954 47.8413 406.938 47.8413H406.657C405.428 47.8413 404.468 47.3937 403.776 46.4985C403.093 45.5952 402.751 44.4111 402.751 42.9463V42.6411ZM421.672 46.4497H422.038C422.925 46.4497 423.67 46.0103 424.272 45.1313C424.882 44.2443 425.188 43.0399 425.188 41.5181V41.1274L425.175 40.9932L425.163 40.7368C425.155 40.6473 425.151 40.5618 425.151 40.4805C425.151 39.6911 424.931 38.9993 424.492 38.4053C424.052 37.8031 423.515 37.502 422.88 37.502H422.526C422.128 37.502 421.688 37.6403 421.208 37.917C420.736 38.1937 420.402 38.5192 420.207 38.8936C419.776 39.7074 419.56 40.9932 419.56 42.751V43.874C419.584 44.1182 419.597 44.3216 419.597 44.4844C419.597 45.0703 419.776 45.5464 420.134 45.9126C420.5 46.2707 421.013 46.4497 421.672 46.4497ZM420.073 35.7197C420.073 36.029 420.122 36.2609 420.219 36.4155C420.325 36.5701 420.598 36.6475 421.037 36.6475C421.045 36.6475 421.31 36.5864 421.831 36.4644C422.36 36.3423 422.905 36.2812 423.466 36.2812C424.679 36.2812 425.692 36.7614 426.506 37.7217C427.32 38.682 427.727 39.8538 427.727 41.2373V42.1162C427.727 42.7998 427.592 43.5241 427.324 44.2891C427.047 45.054 426.656 45.7173 426.152 46.2788C425.118 47.4181 423.845 47.9878 422.331 47.9878H422.062C421.639 47.9878 421.094 47.9064 420.427 47.7437C419.759 47.5809 419.324 47.4995 419.121 47.4995L418.303 47.5728C417.465 47.5728 417.045 47.1536 417.045 46.3154V45.8149C417.045 45.3185 417.143 43.5078 417.338 40.3828C417.542 37.2578 417.644 35.264 417.644 34.4014C417.644 33.5387 417.574 32.8226 417.436 32.2529C417.298 31.6833 417.229 31.374 417.229 31.3252C417.229 30.6416 417.615 30.2998 418.388 30.2998H418.632C419.292 30.2998 419.711 30.4585 419.89 30.7759C420.069 31.0851 420.158 31.6629 420.158 32.5093L420.097 34.4502L420.073 34.9995V35.7197ZM434.16 46.4619H434.477C435.144 46.4619 435.73 46.2381 436.235 45.7905C436.748 45.3348 437.004 44.8099 437.004 44.2158L437.028 44.0571V43.8984L437.053 43.52V42.8242C437.053 42.3522 436.813 42.1162 436.333 42.1162H435.783L435.698 42.1284L435.222 42.165C434.994 42.1976 434.831 42.2139 434.733 42.2139C434.074 42.2139 433.464 42.4621 432.902 42.9585C432.512 43.3084 432.316 43.8049 432.316 44.4478V44.6919C432.316 45.2371 432.491 45.6685 432.841 45.9858C433.199 46.3032 433.639 46.4619 434.16 46.4619ZM431.438 38.6616C430.892 38.6616 430.62 38.3117 430.62 37.6118C430.62 37.091 431.059 36.6393 431.938 36.2568C432.825 35.8662 433.745 35.6709 434.697 35.6709H435.307C436.129 35.6709 436.853 35.8255 437.48 36.1348C438.107 36.4359 438.583 36.8468 438.908 37.3677C439.242 37.8885 439.445 38.568 439.519 39.4062C439.535 39.6016 439.543 40.5496 439.543 42.2505C439.543 43.9513 439.563 44.932 439.604 45.1924C439.653 45.4447 439.783 45.7539 439.995 46.1201C440.214 46.4863 440.324 46.7874 440.324 47.0234C440.324 47.2594 440.21 47.4629 439.982 47.6338C439.763 47.7965 439.441 47.8779 439.018 47.8779C438.595 47.8779 438.135 47.7762 437.639 47.5728C437.142 47.3612 436.78 47.2554 436.552 47.2554C436.528 47.2554 436.121 47.4019 435.332 47.6948C434.542 47.9797 433.875 48.1221 433.33 48.1221H433.061C432.15 48.1221 431.372 47.8332 430.729 47.2554C430.095 46.6776 429.777 45.8556 429.777 44.7896C429.777 43.7235 430.127 42.8934 430.827 42.2993C431.527 41.6971 432.377 41.2861 433.378 41.0664C433.68 41.0013 434.18 40.9159 434.88 40.8101C435.58 40.7043 436.056 40.5944 436.308 40.4805C436.748 40.277 436.967 39.8945 436.967 39.333C436.967 38.7633 436.78 38.3198 436.406 38.0024C436.031 37.6769 435.584 37.5142 435.063 37.5142C434.55 37.5142 433.875 37.7054 433.037 38.0879C432.198 38.4704 431.665 38.6616 431.438 38.6616ZM442.79 42.9219V42.3604C442.79 41.335 442.949 40.4276 443.266 39.6382C443.876 38.1082 444.812 37.0503 446.074 36.4644C446.896 36.0737 447.746 35.8784 448.625 35.8784H448.894C449.862 35.8784 450.664 36.0697 451.298 36.4521C451.933 36.8346 452.25 37.3026 452.25 37.856C452.25 38.4989 451.941 38.8203 451.323 38.8203C451.209 38.8203 450.81 38.6413 450.126 38.2832C449.443 37.9333 448.881 37.7583 448.442 37.7583C448.434 37.7583 448.426 37.7583 448.417 37.7583C447.457 37.7583 446.704 38.1733 446.159 39.0034C445.622 39.8335 445.354 40.9159 445.354 42.2505C445.354 43.5851 445.638 44.5739 446.208 45.2168C446.786 45.8597 447.587 46.1812 448.613 46.1812C449.036 46.1812 449.618 46.0632 450.358 45.8271C451.099 45.583 451.551 45.4609 451.713 45.4609C452.047 45.4609 452.214 45.6359 452.214 45.9858C452.214 46.4578 451.746 46.9339 450.81 47.4141C449.874 47.8942 448.955 48.1343 448.051 48.1343C445.634 48.1343 444.035 47.1821 443.254 45.2778C442.945 44.521 442.79 43.7357 442.79 42.9219ZM459.147 42.6533C458.423 42.6533 458.061 43.6095 458.061 45.522C458.061 46.3521 457.89 46.9136 457.548 47.2065C457.207 47.4995 456.796 47.646 456.315 47.646C455.835 47.646 455.493 47.5646 455.29 47.4019C455.095 47.2391 454.997 46.9339 454.997 46.4863C454.997 46.4538 455.042 46.1323 455.131 45.522C455.221 44.9116 455.335 43.0155 455.473 39.8335C455.611 36.6434 455.681 34.6943 455.681 33.9863C455.681 33.2783 455.66 32.8185 455.62 32.6069C455.587 32.3872 455.53 32.1227 455.449 31.8135C455.375 31.5042 455.339 31.3089 455.339 31.2275C455.339 30.8695 455.457 30.6253 455.693 30.4951C455.937 30.3568 456.34 30.2876 456.901 30.2876C457.471 30.2876 457.845 30.4341 458.024 30.7271C458.212 31.02 458.305 31.61 458.305 32.4971L458.146 37.6729C458.146 39.154 458.317 39.8945 458.659 39.8945C458.928 39.8945 459.587 39.3411 460.637 38.2344C461.695 37.1276 462.236 36.5661 462.26 36.5498C462.586 36.3219 463.078 36.208 463.737 36.208C464.396 36.208 464.726 36.3708 464.726 36.6963C464.726 36.859 464.201 37.5467 463.151 38.7593C462.102 39.9718 461.577 40.863 461.577 41.4326C461.577 41.7419 462.175 42.7591 463.371 44.4844C463.802 45.1029 464.209 45.64 464.592 46.0957C464.982 46.5433 465.178 46.8647 465.178 47.0601C465.178 47.467 464.799 47.6704 464.042 47.6704C463.294 47.6704 462.716 47.4548 462.309 47.0234C462.211 46.9176 461.984 46.5596 461.625 45.9492C461.267 45.3389 461.015 44.9116 460.869 44.6675C460.03 43.3247 459.457 42.6533 459.147 42.6533ZM479.777 46.4497H480.144C481.031 46.4497 481.775 46.0103 482.377 45.1313C482.988 44.2443 483.293 43.0399 483.293 41.5181V41.1274L483.281 40.9932L483.269 40.7368C483.26 40.6473 483.256 40.5618 483.256 40.4805C483.256 39.6911 483.037 38.9993 482.597 38.4053C482.158 37.8031 481.621 37.502 480.986 37.502H480.632C480.233 37.502 479.794 37.6403 479.313 37.917C478.841 38.1937 478.508 38.5192 478.312 38.8936C477.881 39.7074 477.666 40.9932 477.666 42.751V43.874C477.69 44.1182 477.702 44.3216 477.702 44.4844C477.702 45.0703 477.881 45.5464 478.239 45.9126C478.605 46.2707 479.118 46.4497 479.777 46.4497ZM478.178 35.7197C478.178 36.029 478.227 36.2609 478.325 36.4155C478.431 36.5701 478.703 36.6475 479.143 36.6475C479.151 36.6475 479.415 36.5864 479.936 36.4644C480.465 36.3423 481.01 36.2812 481.572 36.2812C482.784 36.2812 483.798 36.7614 484.611 37.7217C485.425 38.682 485.832 39.8538 485.832 41.2373V42.1162C485.832 42.7998 485.698 43.5241 485.429 44.2891C485.153 45.054 484.762 45.7173 484.257 46.2788C483.224 47.4181 481.95 47.9878 480.437 47.9878H480.168C479.745 47.9878 479.2 47.9064 478.532 47.7437C477.865 47.5809 477.43 47.4995 477.226 47.4995L476.408 47.5728C475.57 47.5728 475.151 47.1536 475.151 46.3154V45.8149C475.151 45.3185 475.249 43.5078 475.444 40.3828C475.647 37.2578 475.749 35.264 475.749 34.4014C475.749 33.5387 475.68 32.8226 475.542 32.2529C475.403 31.6833 475.334 31.374 475.334 31.3252C475.334 30.6416 475.721 30.2998 476.494 30.2998H476.738C477.397 30.2998 477.816 30.4585 477.995 30.7759C478.174 31.0851 478.264 31.6629 478.264 32.5093L478.203 34.4502L478.178 34.9995V35.7197ZM488.444 37.0259C488.444 36.5132 488.876 36.2568 489.738 36.2568H490.019C490.556 36.2568 490.918 36.4725 491.105 36.9038C491.293 37.3351 491.386 38.1408 491.386 39.3208L491.24 43.3979C491.24 45.2941 491.919 46.2422 493.278 46.2422C493.775 46.2422 494.251 46.0672 494.707 45.7173C495.162 45.3674 495.5 44.9482 495.72 44.46C496.2 43.3857 496.44 41.4611 496.44 38.686L496.416 38.1489V37.6729C496.416 37.2415 496.513 36.9282 496.708 36.7329C496.904 36.5376 497.246 36.4399 497.734 36.4399C498.222 36.4399 498.544 36.5579 498.698 36.7939C498.853 37.0299 498.93 37.4124 498.93 37.9414L498.906 38.5884L498.857 41.4692C498.857 41.9331 498.885 42.6452 498.942 43.6055C498.999 44.5658 499.06 45.2697 499.125 45.7173C499.191 46.1567 499.223 46.4172 499.223 46.4985C499.223 47.2228 498.69 47.585 497.624 47.585C497.258 47.585 496.892 47.4507 496.525 47.1821C496.167 46.9054 495.911 46.7671 495.756 46.7671C495.61 46.7671 495.358 46.8566 495 47.0356C493.982 47.5483 493.116 47.8047 492.399 47.8047H492.094C490.931 47.8047 490.076 47.4466 489.531 46.7305C488.986 46.0143 488.713 44.7244 488.713 42.8608L488.835 39.1621C488.835 38.6982 488.77 38.2547 488.64 37.8315C488.509 37.4084 488.444 37.1398 488.444 37.0259ZM508.635 46.6938C508.635 47.0194 508.435 47.3123 508.037 47.5728C507.646 47.825 507.113 47.9512 506.438 47.9512C505.176 47.9512 504.289 47.4832 503.776 46.5474C503.459 45.9614 503.3 44.5902 503.3 42.4336C503.3 40.277 503.264 39.0238 503.19 38.6738C503.117 38.3239 502.914 37.9821 502.58 37.6484C502.246 37.3148 502.08 37.0584 502.08 36.8794C502.08 36.8143 502.474 36.387 503.264 35.5977C503.435 35.4268 503.605 35.0483 503.776 34.4624C503.955 33.8765 504.082 33.4899 504.155 33.3027C504.399 32.7168 504.72 32.4238 505.119 32.4238H505.314C505.664 32.4238 505.913 32.5581 506.059 32.8267C506.116 32.9325 506.201 33.3149 506.315 33.9741C506.438 34.6252 506.576 35.0443 506.73 35.2314C506.885 35.4186 507.272 35.6261 507.89 35.854C508.517 36.0737 508.83 36.3097 508.83 36.562V36.6963C508.83 37.0218 508.472 37.2985 507.756 37.5264C507.048 37.7461 506.592 38.1001 506.389 38.5884C505.99 39.5731 505.791 41.1763 505.791 43.3979C505.791 44.4396 505.97 45.1476 506.328 45.522C506.547 45.7498 506.987 45.9085 507.646 45.998C508.305 46.0876 508.635 46.3195 508.635 46.6938ZM529.497 46.5352C529.497 47.1374 528.972 47.4385 527.922 47.4385C527.328 47.4385 526.929 47.2961 526.726 47.0112C526.628 46.8729 526.579 46.5474 526.579 46.0347L526.542 45.2534C526.486 44.3989 526.457 43.5404 526.457 42.6777C526.457 40.8141 526.294 39.5649 525.969 38.9302C525.651 38.2873 525.114 37.9658 524.357 37.9658C523.853 37.9658 523.385 38.1164 522.954 38.4175C522.53 38.7186 522.205 39.1377 521.977 39.6748C521.505 40.7734 521.269 42.8039 521.269 45.7661C521.269 46.4416 521.139 46.9176 520.878 47.1943C520.626 47.471 520.301 47.6094 519.902 47.6094H519.658C518.746 47.6094 518.291 47.2472 518.291 46.5229V46.23C518.291 46.1405 518.339 45.9451 518.437 45.644L518.632 45.0825C518.828 44.4233 518.925 43.0114 518.925 40.8467L518.986 37.2212C518.986 36.7573 519.239 36.5254 519.743 36.5254C520.248 36.5254 520.744 36.6922 521.232 37.0259C521.729 37.3595 522.042 37.5264 522.172 37.5264C522.311 37.5264 522.551 37.4328 522.893 37.2456C524.04 36.619 524.96 36.3057 525.651 36.3057H525.969C527.214 36.3057 528.089 36.8672 528.593 37.9902C528.837 38.5192 528.959 39.6585 528.959 41.4082V41.4937C528.959 41.6401 528.955 41.7866 528.947 41.9331C528.947 42.3319 528.947 42.5394 528.947 42.5557C528.947 42.7103 528.947 42.8608 528.947 43.0073C528.947 43.1213 528.947 43.2311 528.947 43.3369C528.947 43.9635 528.968 44.3908 529.008 44.6187C529.065 44.9279 529.159 45.2493 529.289 45.583C529.427 45.9492 529.497 46.2666 529.497 46.5352ZM534.562 40.5781V40.7734C534.562 41.0176 534.786 41.1396 535.234 41.1396H535.527L535.6 41.1274L536.198 41.0786C536.825 40.9891 537.232 40.9443 537.419 40.9443C538.306 40.9443 538.973 40.7775 539.421 40.4438C539.632 40.2811 539.738 39.9922 539.738 39.5771V39.4429C539.738 38.8325 539.535 38.3483 539.128 37.9902C538.729 37.6322 538.249 37.4531 537.688 37.4531H537.602L537.529 37.4653C536.739 37.4653 536.048 37.799 535.454 38.4663C534.86 39.1336 534.562 39.8376 534.562 40.5781ZM537.224 48.1587H536.955C535.401 48.1587 534.164 47.6663 533.244 46.6816C532.325 45.6888 531.865 44.3664 531.865 42.7144V42.1772C531.865 41.3879 532.019 40.5863 532.329 39.7725C532.955 38.1449 533.977 37.0218 535.393 36.4033C536.141 36.0697 536.902 35.9028 537.675 35.9028H538.2C539.266 35.9028 540.166 36.2609 540.898 36.9771C541.639 37.6851 542.009 38.6006 542.009 39.7236V39.9678C542.009 40.7653 541.691 41.3309 541.057 41.6646C540.617 41.9006 539.592 42.1366 537.98 42.3726C536.369 42.6086 535.49 42.751 535.344 42.7998C534.855 42.9707 534.611 43.2962 534.611 43.7764C534.611 44.4437 534.896 45.0133 535.466 45.4854C536.035 45.9574 536.8 46.1934 537.761 46.1934C538.208 46.1934 538.819 46.0713 539.592 45.8271C540.365 45.583 540.812 45.4609 540.935 45.4609C541.35 45.4609 541.557 45.64 541.557 45.998C541.557 46.4782 541.089 46.9583 540.153 47.4385C539.217 47.9186 538.241 48.1587 537.224 48.1587ZM546.892 40.5781V40.7734C546.892 41.0176 547.115 41.1396 547.563 41.1396H547.856L547.929 41.1274L548.527 41.0786C549.154 40.9891 549.561 40.9443 549.748 40.9443C550.635 40.9443 551.302 40.7775 551.75 40.4438C551.962 40.2811 552.067 39.9922 552.067 39.5771V39.4429C552.067 38.8325 551.864 38.3483 551.457 37.9902C551.058 37.6322 550.578 37.4531 550.017 37.4531H549.931L549.858 37.4653C549.069 37.4653 548.377 37.799 547.783 38.4663C547.189 39.1336 546.892 39.8376 546.892 40.5781ZM549.553 48.1587H549.284C547.73 48.1587 546.493 47.6663 545.573 46.6816C544.654 45.6888 544.194 44.3664 544.194 42.7144V42.1772C544.194 41.3879 544.348 40.5863 544.658 39.7725C545.284 38.1449 546.306 37.0218 547.722 36.4033C548.47 36.0697 549.231 35.9028 550.004 35.9028H550.529C551.595 35.9028 552.495 36.2609 553.227 36.9771C553.968 37.6851 554.338 38.6006 554.338 39.7236V39.9678C554.338 40.7653 554.021 41.3309 553.386 41.6646C552.946 41.9006 551.921 42.1366 550.31 42.3726C548.698 42.6086 547.819 42.751 547.673 42.7998C547.185 42.9707 546.94 43.2962 546.94 43.7764C546.94 44.4437 547.225 45.0133 547.795 45.4854C548.365 45.9574 549.13 46.1934 550.09 46.1934C550.537 46.1934 551.148 46.0713 551.921 45.8271C552.694 45.583 553.142 45.4609 553.264 45.4609C553.679 45.4609 553.886 45.64 553.886 45.998C553.886 46.4782 553.418 46.9583 552.482 47.4385C551.547 47.9186 550.57 48.1587 549.553 48.1587ZM559.099 42.0796V43.0073C559.099 43.9757 559.318 44.7855 559.758 45.4365C560.205 46.0794 560.73 46.4009 561.333 46.4009H561.674C562.602 46.4009 563.318 46.0306 563.823 45.29C564.335 44.5495 564.592 43.4468 564.592 41.9819C564.608 41.8029 564.616 41.6727 564.616 41.5913L564.641 41.3472L564.653 40.8345V39.9678C564.653 38.3076 563.99 37.4775 562.663 37.4775H562.187C561.324 37.4775 560.592 37.9129 559.99 38.7837C559.396 39.6545 559.099 40.7531 559.099 42.0796ZM556.755 42.6411C556.755 41.7948 556.905 40.9321 557.207 40.0532C557.508 39.1743 557.931 38.4256 558.476 37.8071C559.021 37.1805 559.636 36.7288 560.319 36.4521C561.003 36.1673 561.813 36.0249 562.749 36.0249C563.693 36.0249 564.278 35.854 564.506 35.5122C564.734 35.1623 564.848 34.3932 564.848 33.2051C564.848 32.9854 564.812 32.6924 564.738 32.3262C564.665 31.96 564.628 31.7484 564.628 31.6914C564.628 31.3415 564.779 31.0241 565.08 30.7393C565.381 30.4463 565.776 30.2998 566.264 30.2998H566.508C566.891 30.2998 567.176 30.3893 567.363 30.5684C567.55 30.7474 567.644 31.1217 567.644 31.6914V32.8267L567.619 33.4004C567.611 33.5957 567.607 33.8805 567.607 34.2549C567.607 34.6211 567.546 35.8011 567.424 37.7949C567.302 39.7887 567.241 41.16 567.241 41.9087L567.229 42.2017C567.22 42.397 567.216 42.5841 567.216 42.7632L567.204 43.0439C567.204 43.0439 567.204 43.3613 567.204 43.9961C567.204 44.818 567.269 45.4365 567.399 45.8516C567.53 46.2666 567.595 46.5636 567.595 46.7427C567.595 46.9217 567.493 47.1089 567.29 47.3042C567.086 47.4995 566.769 47.5972 566.337 47.5972C565.914 47.5972 565.503 47.528 565.104 47.3896C564.706 47.2432 564.413 47.1699 564.226 47.1699C564.038 47.1699 563.794 47.2269 563.493 47.3408C562.582 47.6745 561.748 47.8413 560.991 47.8413C560.974 47.8413 560.958 47.8413 560.942 47.8413H560.661C559.432 47.8413 558.472 47.3937 557.78 46.4985C557.097 45.5952 556.755 44.4111 556.755 42.9463V42.6411ZM571.672 41.1885C571.175 40.6839 570.927 39.9759 570.927 39.0645C570.927 38.153 571.334 37.3717 572.148 36.7207C572.962 36.0615 573.971 35.7319 575.175 35.7319H575.493C576.559 35.7319 577.405 35.8825 578.032 36.1836C578.667 36.4847 578.984 36.9364 578.984 37.5386C578.984 38.1326 578.719 38.4297 578.19 38.4297C578.052 38.4297 577.661 38.2669 577.019 37.9414C576.376 37.6077 575.769 37.4409 575.2 37.4409C574.63 37.4409 574.17 37.5711 573.82 37.8315C573.479 38.0838 573.308 38.4338 573.308 38.8813C573.308 39.3289 573.548 39.7196 574.028 40.0532C574.305 40.2485 574.956 40.5578 575.981 40.981C577.014 41.4041 577.751 41.811 578.19 42.2017C578.898 42.8283 579.252 43.6299 579.252 44.6064C579.252 45.583 578.837 46.4212 578.007 47.1211C577.177 47.8128 576.099 48.1587 574.772 48.1587H574.455C573.12 48.1587 572.119 47.9674 571.452 47.585C570.785 47.1943 570.451 46.6898 570.451 46.0713C570.451 45.4447 570.712 45.1313 571.232 45.1313C571.403 45.1313 571.847 45.3511 572.563 45.7905C573.287 46.23 573.995 46.4497 574.687 46.4497C575.387 46.4497 575.912 46.3032 576.262 46.0103C576.612 45.7091 576.787 45.3348 576.787 44.8872C576.787 44.4315 576.567 44.0327 576.127 43.6909C575.891 43.5037 575.216 43.166 574.101 42.6777C572.986 42.1813 572.176 41.6849 571.672 41.1885ZM590.861 42.8486C590.861 43.9147 591.105 44.8018 591.594 45.5098C592.082 46.2178 592.68 46.5718 593.388 46.5718H593.754C594.593 46.5718 595.301 46.1486 595.878 45.3022C596.464 44.4559 596.757 43.3288 596.757 41.9209V41.1152C596.757 40.0247 596.517 39.1336 596.037 38.4419C595.565 37.742 594.955 37.3921 594.206 37.3921H593.962C593.091 37.3921 592.359 37.8234 591.765 38.686C591.179 39.5487 590.886 40.5781 590.886 41.7744L590.861 42.0552V42.8486ZM593.62 48.2319H593.229C591.805 48.2319 590.646 47.7355 589.75 46.7427C588.855 45.7498 588.408 44.342 588.408 42.519L588.42 42.3115C588.42 40.3096 588.949 38.7308 590.007 37.5752C590.56 36.9648 591.191 36.5173 591.899 36.2324C592.615 35.9395 593.295 35.793 593.938 35.793H594.536C595.252 35.793 595.939 35.9517 596.599 36.269C598.487 37.1805 599.431 38.8976 599.431 41.4204V41.6157C599.423 42.4377 599.288 43.2718 599.028 44.1182C598.507 45.7865 597.506 46.9665 596.025 47.6582C595.203 48.0407 594.401 48.2319 593.62 48.2319ZM606.352 47.9878C605.758 47.9878 605.282 47.6094 604.924 46.8525C604.655 46.2829 604.175 44.9198 603.483 42.7632C602.8 40.5985 602.348 39.3086 602.128 38.8936C601.583 37.86 601.311 37.2008 601.311 36.916C601.311 36.623 601.4 36.4115 601.579 36.2812C601.758 36.1429 602.137 36.0737 602.714 36.0737C603.642 36.0737 604.257 36.4155 604.558 37.0991C604.615 37.2212 604.704 37.5996 604.826 38.2344C604.948 38.861 605.07 39.4144 605.192 39.8945L605.437 40.9688C606.047 43.6543 606.515 44.9971 606.84 44.9971C607.06 44.9971 607.679 43.6258 608.696 40.8833C609.16 39.63 609.457 38.6453 609.587 37.9292C609.725 37.2049 609.815 36.8021 609.855 36.7207C610.091 36.2731 610.588 36.0493 611.345 36.0493H611.589C612.142 36.0493 612.419 36.3301 612.419 36.8916C612.419 37.2904 612.297 37.6973 612.053 38.1123C611.809 38.5273 611.239 39.805 610.344 41.9453C609.457 44.0775 608.802 45.526 608.378 46.291C607.955 47.0479 607.605 47.5199 607.329 47.707C607.06 47.8942 606.735 47.9878 606.352 47.9878ZM616.496 40.5781V40.7734C616.496 41.0176 616.72 41.1396 617.167 41.1396H617.46L617.534 41.1274L618.132 41.0786C618.758 40.9891 619.165 40.9443 619.353 40.9443C620.24 40.9443 620.907 40.7775 621.354 40.4438C621.566 40.2811 621.672 39.9922 621.672 39.5771V39.4429C621.672 38.8325 621.468 38.3483 621.062 37.9902C620.663 37.6322 620.183 37.4531 619.621 37.4531H619.536L619.462 37.4653C618.673 37.4653 617.981 37.799 617.387 38.4663C616.793 39.1336 616.496 39.8376 616.496 40.5781ZM619.157 48.1587H618.889C617.334 48.1587 616.097 47.6663 615.178 46.6816C614.258 45.6888 613.798 44.3664 613.798 42.7144V42.1772C613.798 41.3879 613.953 40.5863 614.262 39.7725C614.889 38.1449 615.91 37.0218 617.326 36.4033C618.075 36.0697 618.836 35.9028 619.609 35.9028H620.134C621.2 35.9028 622.099 36.2609 622.832 36.9771C623.572 37.6851 623.942 38.6006 623.942 39.7236V39.9678C623.942 40.7653 623.625 41.3309 622.99 41.6646C622.551 41.9006 621.525 42.1366 619.914 42.3726C618.303 42.6086 617.424 42.751 617.277 42.7998C616.789 42.9707 616.545 43.2962 616.545 43.7764C616.545 44.4437 616.83 45.0133 617.399 45.4854C617.969 45.9574 618.734 46.1934 619.694 46.1934C620.142 46.1934 620.752 46.0713 621.525 45.8271C622.299 45.583 622.746 45.4609 622.868 45.4609C623.283 45.4609 623.491 45.64 623.491 45.998C623.491 46.4782 623.023 46.9583 622.087 47.4385C621.151 47.9186 620.174 48.1587 619.157 48.1587ZM627.373 41.6523V40.7124C627.373 39.5812 627.312 38.7552 627.189 38.2344C627.067 37.7054 627.006 37.3351 627.006 37.1235C627.006 36.6271 627.368 36.3789 628.093 36.3789C628.817 36.3789 629.342 36.5132 629.667 36.7817C629.757 36.855 629.871 36.9974 630.009 37.209C630.156 37.4206 630.286 37.5264 630.4 37.5264C630.424 37.5264 630.778 37.3188 631.462 36.9038C632.146 36.4888 632.731 36.2812 633.22 36.2812H633.403C633.802 36.2812 634.119 36.3789 634.355 36.5742C634.591 36.7614 634.709 36.9933 634.709 37.27V37.4287C634.709 37.7624 634.591 38.0024 634.355 38.1489C634.127 38.2954 633.761 38.3687 633.256 38.3687C632.109 38.3687 631.271 38.7715 630.742 39.5771C630.221 40.3828 629.96 41.807 629.96 43.8496C629.96 44.1426 630.009 44.5942 630.107 45.2046C630.213 45.8149 630.266 46.2747 630.266 46.584C630.266 46.8932 630.099 47.1903 629.765 47.4751C629.431 47.7599 629.008 47.9023 628.496 47.9023H628.081C627.633 47.9023 627.287 47.7965 627.043 47.585C626.807 47.3652 626.689 47.1007 626.689 46.7915C626.689 46.4741 626.746 46.1527 626.86 45.8271C627.169 44.9482 627.324 43.9798 627.324 42.9219C627.356 42.3359 627.373 41.9128 627.373 41.6523ZM637.59 41.1885C637.093 40.6839 636.845 39.9759 636.845 39.0645C636.845 38.153 637.252 37.3717 638.066 36.7207C638.88 36.0615 639.889 35.7319 641.093 35.7319H641.411C642.477 35.7319 643.323 35.8825 643.95 36.1836C644.584 36.4847 644.902 36.9364 644.902 37.5386C644.902 38.1326 644.637 38.4297 644.108 38.4297C643.97 38.4297 643.579 38.2669 642.937 37.9414C642.294 37.6077 641.687 37.4409 641.118 37.4409C640.548 37.4409 640.088 37.5711 639.738 37.8315C639.396 38.0838 639.226 38.4338 639.226 38.8813C639.226 39.3289 639.466 39.7196 639.946 40.0532C640.222 40.2485 640.874 40.5578 641.899 40.981C642.932 41.4041 643.669 41.811 644.108 42.2017C644.816 42.8283 645.17 43.6299 645.17 44.6064C645.17 45.583 644.755 46.4212 643.925 47.1211C643.095 47.8128 642.017 48.1587 640.69 48.1587H640.373C639.038 48.1587 638.037 47.9674 637.37 47.585C636.703 47.1943 636.369 46.6898 636.369 46.0713C636.369 45.4447 636.63 45.1313 637.15 45.1313C637.321 45.1313 637.765 45.3511 638.481 45.7905C639.205 46.23 639.913 46.4497 640.605 46.4497C641.305 46.4497 641.83 46.3032 642.18 46.0103C642.53 45.7091 642.705 45.3348 642.705 44.8872C642.705 44.4315 642.485 44.0327 642.045 43.6909C641.809 43.5037 641.134 43.166 640.019 42.6777C638.904 42.1813 638.094 41.6849 637.59 41.1885ZM651.762 32.1309V32.2773C651.762 32.6924 651.64 33.0464 651.396 33.3394C651.16 33.6242 650.794 33.7666 650.297 33.7666H650.102L649.724 33.7178C649.504 33.7178 649.292 33.616 649.089 33.4126C648.885 33.2091 648.784 32.904 648.784 32.4971V32.3506L648.845 31.9111C648.845 31.7402 648.946 31.5286 649.15 31.2764C649.361 31.0241 649.63 30.8979 649.956 30.8979L650.236 30.8613H650.48L650.822 30.9102C651.034 30.9102 651.241 31.016 651.445 31.2275C651.656 31.431 651.762 31.7321 651.762 32.1309ZM651.188 37.2822L651.054 40.5659L651.03 40.8955L650.993 41.8965V42.3726C650.993 43.5444 651.026 44.3135 651.091 44.6797C651.164 45.0459 651.298 45.404 651.494 45.7539C651.689 46.0957 651.787 46.3439 651.787 46.4985V46.6084C651.787 47.0072 651.583 47.3245 651.176 47.5605C650.769 47.7965 650.216 47.9146 649.516 47.9146H649.211C648.804 47.9146 648.495 47.825 648.283 47.646C648.072 47.4588 647.966 47.2594 647.966 47.0479V46.7793C647.966 46.6735 648.059 46.2992 648.247 45.6562C648.434 45.0052 648.527 44.1222 648.527 43.0073C648.552 42.6899 648.564 42.4702 648.564 42.3481L648.601 41.6768L648.625 41.3472C648.666 40.7775 648.686 40.334 648.686 40.0166L648.698 39.5283C648.698 38.918 648.597 38.3768 648.393 37.9048C648.198 37.4328 648.1 37.1398 648.1 37.0259C648.1 36.4399 648.653 36.147 649.76 36.147H650.2C650.615 36.147 650.883 36.2568 651.005 36.4766C651.127 36.6882 651.188 36.9567 651.188 37.2822ZM656.95 42.3481V42.7266C656.95 43.8171 657.158 44.6715 657.573 45.29C657.988 45.9085 658.509 46.2178 659.135 46.2178H659.562C660.466 46.2178 661.17 45.8394 661.674 45.0825C662.179 44.3175 662.431 43.2474 662.431 41.8721C662.447 41.7093 662.456 41.5832 662.456 41.4937L662.48 40.9932V40.2607C662.464 40.098 662.456 39.9759 662.456 39.8945C662.456 39.2516 662.301 38.7471 661.992 38.3809C661.682 38.0146 661.227 37.8315 660.625 37.8315H660.283C659.322 37.8315 658.525 38.2344 657.89 39.04C657.264 39.8457 656.95 40.9484 656.95 42.3481ZM664.042 36.8306C664.75 36.8306 665.104 37.3433 665.104 38.3687C665.104 38.6372 664.995 39.7603 664.775 41.7378C664.555 43.7153 664.445 45.3958 664.445 46.7793C664.445 48.179 664.352 49.2288 664.165 49.9287C663.766 51.4342 662.842 52.5003 661.394 53.127C660.637 53.4525 659.799 53.6152 658.879 53.6152C657.967 53.6152 657.154 53.4525 656.438 53.127C655.729 52.8014 655.375 52.4108 655.375 51.9551C655.375 51.4342 655.725 51.1738 656.425 51.1738C656.564 51.1738 656.938 51.2267 657.548 51.3325C658.159 51.4383 658.598 51.4912 658.867 51.4912C659.851 51.4912 660.657 51.182 661.284 50.5635C661.918 49.9531 662.236 49.1678 662.236 48.2075C662.236 47.703 662.049 47.4507 661.674 47.4507C661.609 47.4507 661.455 47.4751 661.21 47.5239C660.519 47.6623 659.888 47.7314 659.318 47.7314C657.87 47.7314 656.779 47.292 656.047 46.4131C655.705 46.0062 655.412 45.465 655.168 44.7896C654.932 44.106 654.814 43.3857 654.814 42.6289V42.2871C654.814 41.4896 654.944 40.7043 655.205 39.9312C655.473 39.1499 655.827 38.4948 656.267 37.9658C656.706 37.4287 657.28 37.0096 657.988 36.7085C658.696 36.4074 659.42 36.2568 660.161 36.2568H660.478C660.893 36.2568 661.426 36.3708 662.077 36.5986C662.736 36.8184 663.139 36.9282 663.286 36.9282C663.611 36.8631 663.863 36.8306 664.042 36.8306ZM669.829 47.7681C668.868 47.7681 668.388 47.4263 668.388 46.7427C668.388 46.4334 668.461 45.9736 668.608 45.3633C668.763 44.7529 668.864 44.1914 668.913 43.6787C668.962 43.1579 669.047 41.4814 669.169 38.6494C669.3 35.8174 669.365 34.0921 669.365 33.4736V32.0332L669.292 31.0078C669.292 30.6253 669.641 30.4341 670.341 30.4341C671.049 30.4341 671.509 30.7067 671.721 31.252C671.826 31.5286 671.879 32.432 671.879 33.9619C671.879 35.4919 671.908 36.3626 671.965 36.5742C672.03 36.7858 672.197 36.8916 672.465 36.8916C672.498 36.8916 672.653 36.8428 672.929 36.7451L673.198 36.6475C674.069 36.3057 674.821 36.1348 675.456 36.1348C676.791 36.1348 677.739 36.6556 678.3 37.6973C678.675 38.389 678.862 39.8945 678.862 42.2139C678.862 43.3044 678.87 43.9513 678.886 44.1548C678.903 44.3582 678.955 44.7285 679.045 45.2656C679.134 45.7946 679.179 46.0876 679.179 46.1445C679.179 46.6247 679.069 46.9827 678.85 47.2188C678.638 47.4466 678.251 47.5605 677.69 47.5605C677.137 47.5605 676.774 47.3896 676.604 47.0479C676.514 46.8688 676.469 46.3521 676.469 45.4976L676.433 43.3491L676.469 41.4082C676.469 39.2354 675.834 38.1489 674.565 38.1489C673.442 38.1489 672.64 38.6209 672.16 39.5649C671.68 40.509 671.44 42.2586 671.44 44.814L671.477 46.1445C671.477 46.6003 671.334 46.9868 671.049 47.3042C670.764 47.6134 670.358 47.7681 669.829 47.7681ZM688.615 46.6938C688.615 47.0194 688.416 47.3123 688.017 47.5728C687.626 47.825 687.093 47.9512 686.418 47.9512C685.157 47.9512 684.27 47.4832 683.757 46.5474C683.439 45.9614 683.281 44.5902 683.281 42.4336C683.281 40.277 683.244 39.0238 683.171 38.6738C683.098 38.3239 682.894 37.9821 682.561 37.6484C682.227 37.3148 682.06 37.0584 682.06 36.8794C682.06 36.8143 682.455 36.387 683.244 35.5977C683.415 35.4268 683.586 35.0483 683.757 34.4624C683.936 33.8765 684.062 33.4899 684.135 33.3027C684.379 32.7168 684.701 32.4238 685.1 32.4238H685.295C685.645 32.4238 685.893 32.5581 686.04 32.8267C686.097 32.9325 686.182 33.3149 686.296 33.9741C686.418 34.6252 686.556 35.0443 686.711 35.2314C686.866 35.4186 687.252 35.6261 687.871 35.854C688.497 36.0737 688.811 36.3097 688.811 36.562V36.6963C688.811 37.0218 688.452 37.2985 687.736 37.5264C687.028 37.7461 686.573 38.1001 686.369 38.5884C685.97 39.5731 685.771 41.1763 685.771 43.3979C685.771 44.4396 685.95 45.1476 686.308 45.522C686.528 45.7498 686.967 45.9085 687.626 45.998C688.286 46.0876 688.615 46.3195 688.615 46.6938ZM693.181 48.1953H692.802C692.395 48.1953 692.078 48.1017 691.85 47.9146C691.63 47.7274 691.521 47.4792 691.521 47.1699C691.504 47.1048 691.496 47.0519 691.496 47.0112L691.472 46.8037V46.584L691.484 46.5352V46.4253C691.5 46.3602 691.508 46.3073 691.508 46.2666C691.508 45.9004 691.63 45.6156 691.875 45.4121C692.127 45.2005 692.403 45.0947 692.705 45.0947L692.961 45.0581H693.291C694.178 45.0581 694.621 45.522 694.621 46.4497V46.6206L694.572 47.0356C694.572 47.41 694.43 47.6989 694.145 47.9023C693.868 48.0977 693.547 48.1953 693.181 48.1953Z" fill="black"/>
</svg>
