<svg width="758" height="87" viewBox="0 0 758 87" fill="none" xmlns="http://www.w3.org/2000/svg">
<rect width="758" height="87" rx="18" fill="#D9D9D9"/>
<path d="M33.045 54.1172C32.695 54.1172 32.52 53.9422 32.52 53.5922V49.3922C32.52 49.0422 32.695 48.8672 33.045 48.8672H41.865V42.5672H34.788C34.438 42.5672 34.263 42.3922 34.263 42.0422V37.8422C34.263 37.4922 34.438 37.3172 34.788 37.3172H41.865V31.7102H33.045C32.695 31.7102 32.52 31.5352 32.52 31.1852V26.6492C32.52 26.2992 32.695 26.1242 33.045 26.1242H43.482C43.804 26.1242 44.084 26.2362 44.322 26.4602L48.522 30.6602C48.746 30.8982 48.858 31.1782 48.858 31.5002V35.7002C48.858 35.9942 48.788 36.2042 48.648 36.3302L45.918 39.4592V40.7822L48.648 43.8902C48.788 44.0302 48.858 44.2402 48.858 44.5202V48.7202C48.858 49.0562 48.746 49.3362 48.522 49.5602L44.322 53.7602C44.084 53.9982 43.804 54.1172 43.482 54.1172H33.045Z" fill="#2ECC71"/>
<path d="M110.184 29.9985L109.94 28.4727C109.94 27.9844 110.156 27.6182 110.587 27.374C111.026 27.1217 111.568 26.9956 112.21 26.9956H112.65C112.91 26.9956 113.154 27.077 113.382 27.2397C113.618 27.4025 113.736 27.61 113.736 27.8623C113.736 28.1146 113.631 28.4686 113.419 28.9243C113.207 29.3719 113.069 29.9456 113.004 30.6455C112.646 34.7389 112.467 37.9535 112.467 40.2891C112.467 40.8669 112.52 41.3063 112.625 41.6074L112.784 41.9736C112.947 42.3398 113.028 42.5758 113.028 42.6816C113.028 43.1292 112.882 43.4385 112.589 43.6094C112.296 43.7721 111.844 43.8535 111.234 43.8535C110.624 43.8535 110.139 43.7314 109.781 43.4873C109.431 43.235 109.256 42.9787 109.256 42.7183C109.256 42.4578 109.35 41.9777 109.537 41.2778C109.724 40.5698 109.818 39.634 109.818 38.4702C109.818 37.3065 109.663 36.6188 109.354 36.4072C109.045 36.1875 108.019 36.0776 106.278 36.0776C104.544 36.0776 103.462 36.2892 103.031 36.7124C102.599 37.1356 102.384 38.4458 102.384 40.6431C102.384 40.9523 102.4 41.2331 102.433 41.4854L102.494 41.8516C102.559 42.2259 102.591 42.4497 102.591 42.5229C102.591 43.3612 101.83 43.7803 100.309 43.7803C99.7959 43.7803 99.4297 43.6867 99.21 43.4995C98.9984 43.3042 98.8926 43.0885 98.8926 42.8525C98.8926 42.6084 99.0024 42.2666 99.2222 41.8271C99.45 41.3796 99.5965 40.9157 99.6616 40.4355C99.9953 37.8314 100.162 34.5151 100.162 30.4868C100.162 30.0067 100.06 29.5306 99.8569 29.0586C99.6616 28.5785 99.564 28.2936 99.564 28.2041C99.564 27.4717 100.146 27.1055 101.31 27.1055C101.936 27.1055 102.416 27.2072 102.75 27.4106C103.092 27.6141 103.263 27.8379 103.263 28.082C103.263 28.318 103.218 28.6029 103.128 28.9365C103.039 29.2702 102.966 29.612 102.909 29.9619C102.852 30.3118 102.823 30.971 102.823 31.9395C102.823 32.9079 103.002 33.5264 103.36 33.7949C103.727 34.0635 104.809 34.1978 106.607 34.1978C108.414 34.1978 109.448 33.974 109.708 33.5264C110.025 32.973 110.184 31.797 110.184 29.9985ZM120.182 42.4619H120.499C121.166 42.4619 121.752 42.2381 122.257 41.7905C122.77 41.3348 123.026 40.8099 123.026 40.2158L123.05 40.0571V39.8984L123.075 39.52V38.8242C123.075 38.3522 122.835 38.1162 122.354 38.1162H121.805L121.72 38.1284L121.244 38.165C121.016 38.1976 120.853 38.2139 120.755 38.2139C120.096 38.2139 119.486 38.4621 118.924 38.9585C118.534 39.3084 118.338 39.8049 118.338 40.4478V40.6919C118.338 41.2371 118.513 41.6685 118.863 41.9858C119.221 42.3032 119.661 42.4619 120.182 42.4619ZM117.459 34.6616C116.914 34.6616 116.642 34.3117 116.642 33.6118C116.642 33.091 117.081 32.6393 117.96 32.2568C118.847 31.8662 119.767 31.6709 120.719 31.6709H121.329C122.151 31.6709 122.875 31.8255 123.502 32.1348C124.129 32.4359 124.605 32.8468 124.93 33.3677C125.264 33.8885 125.467 34.568 125.541 35.4062C125.557 35.6016 125.565 36.5496 125.565 38.2505C125.565 39.9513 125.585 40.932 125.626 41.1924C125.675 41.4447 125.805 41.7539 126.017 42.1201C126.236 42.4863 126.346 42.7874 126.346 43.0234C126.346 43.2594 126.232 43.4629 126.004 43.6338C125.785 43.7965 125.463 43.8779 125.04 43.8779C124.617 43.8779 124.157 43.7762 123.661 43.5728C123.164 43.3612 122.802 43.2554 122.574 43.2554C122.55 43.2554 122.143 43.4019 121.354 43.6948C120.564 43.9797 119.897 44.1221 119.352 44.1221H119.083C118.172 44.1221 117.394 43.8332 116.751 43.2554C116.117 42.6776 115.799 41.8556 115.799 40.7896C115.799 39.7235 116.149 38.8934 116.849 38.2993C117.549 37.6971 118.399 37.2861 119.4 37.0664C119.701 37.0013 120.202 36.9159 120.902 36.8101C121.602 36.7043 122.078 36.5944 122.33 36.4805C122.77 36.277 122.989 35.8945 122.989 35.333C122.989 34.7633 122.802 34.3198 122.428 34.0024C122.053 33.6769 121.606 33.5142 121.085 33.5142C120.572 33.5142 119.897 33.7054 119.059 34.0879C118.22 34.4704 117.687 34.6616 117.459 34.6616ZM140.396 42.5352C140.396 43.1374 139.872 43.4385 138.822 43.4385C138.228 43.4385 137.829 43.2961 137.625 43.0112C137.528 42.8729 137.479 42.5474 137.479 42.0347L137.442 41.2534C137.385 40.3989 137.357 39.5404 137.357 38.6777C137.357 36.8141 137.194 35.5649 136.869 34.9302C136.551 34.2873 136.014 33.9658 135.257 33.9658C134.753 33.9658 134.285 34.1164 133.854 34.4175C133.43 34.7186 133.105 35.1377 132.877 35.6748C132.405 36.7734 132.169 38.8039 132.169 41.7661C132.169 42.4416 132.039 42.9176 131.778 43.1943C131.526 43.471 131.201 43.6094 130.802 43.6094H130.558C129.646 43.6094 129.19 43.2472 129.19 42.5229V42.23C129.19 42.1405 129.239 41.9451 129.337 41.644L129.532 41.0825C129.728 40.4233 129.825 39.0114 129.825 36.8467L129.886 33.2212C129.886 32.7573 130.139 32.5254 130.643 32.5254C131.148 32.5254 131.644 32.6922 132.132 33.0259C132.629 33.3595 132.942 33.5264 133.072 33.5264C133.211 33.5264 133.451 33.4328 133.792 33.2456C134.94 32.619 135.86 32.3057 136.551 32.3057H136.869C138.114 32.3057 138.989 32.8672 139.493 33.9902C139.737 34.5192 139.859 35.6585 139.859 37.4082V37.4937C139.859 37.6401 139.855 37.7866 139.847 37.9331C139.847 38.3319 139.847 38.5394 139.847 38.5557C139.847 38.7103 139.847 38.8608 139.847 39.0073C139.847 39.1213 139.847 39.2311 139.847 39.3369C139.847 39.9635 139.868 40.3908 139.908 40.6187C139.965 40.9279 140.059 41.2493 140.189 41.583C140.327 41.9492 140.396 42.2666 140.396 42.5352ZM145.34 38.0796V39.0073C145.34 39.9757 145.56 40.7855 146 41.4365C146.447 42.0794 146.972 42.4009 147.574 42.4009H147.916C148.844 42.4009 149.56 42.0306 150.064 41.29C150.577 40.5495 150.833 39.4468 150.833 37.9819C150.85 37.8029 150.858 37.6727 150.858 37.5913L150.882 37.3472L150.895 36.8345V35.9678C150.895 34.3076 150.231 33.4775 148.905 33.4775H148.429C147.566 33.4775 146.834 33.9129 146.231 34.7837C145.637 35.6545 145.34 36.7531 145.34 38.0796ZM142.997 38.6411C142.997 37.7948 143.147 36.9321 143.448 36.0532C143.749 35.1743 144.173 34.4256 144.718 33.8071C145.263 33.1805 145.877 32.7288 146.561 32.4521C147.245 32.1673 148.054 32.0249 148.99 32.0249C149.934 32.0249 150.52 31.854 150.748 31.5122C150.976 31.1623 151.09 30.3932 151.09 29.2051C151.09 28.9854 151.053 28.6924 150.98 28.3262C150.907 27.96 150.87 27.7484 150.87 27.6914C150.87 27.3415 151.021 27.0241 151.322 26.7393C151.623 26.4463 152.018 26.2998 152.506 26.2998H152.75C153.132 26.2998 153.417 26.3893 153.604 26.5684C153.792 26.7474 153.885 27.1217 153.885 27.6914V28.8267L153.861 29.4004C153.853 29.5957 153.849 29.8805 153.849 30.2549C153.849 30.6211 153.788 31.8011 153.666 33.7949C153.543 35.7887 153.482 37.16 153.482 37.9087L153.47 38.2017C153.462 38.397 153.458 38.5841 153.458 38.7632L153.446 39.0439C153.446 39.0439 153.446 39.3613 153.446 39.9961C153.446 40.818 153.511 41.4365 153.641 41.8516C153.771 42.2666 153.836 42.5636 153.836 42.7427C153.836 42.9217 153.735 43.1089 153.531 43.3042C153.328 43.4995 153.01 43.5972 152.579 43.5972C152.156 43.5972 151.745 43.528 151.346 43.3896C150.947 43.2432 150.654 43.1699 150.467 43.1699C150.28 43.1699 150.036 43.2269 149.735 43.3408C148.823 43.6745 147.989 43.8413 147.232 43.8413C147.216 43.8413 147.2 43.8413 147.184 43.8413H146.903C145.674 43.8413 144.714 43.3937 144.022 42.4985C143.338 41.5952 142.997 40.4111 142.997 38.9463V38.6411ZM157.682 27.0322C157.682 26.4382 158.239 26.1411 159.354 26.1411H159.574C160.038 26.1411 160.355 26.255 160.526 26.4829C160.697 26.7026 160.782 27.134 160.782 27.7769L160.685 29.5957C160.66 29.8805 160.648 30.0352 160.648 30.0596L160.624 30.5234C160.607 30.8245 160.591 31.1297 160.575 31.439L160.538 31.9028L160.501 32.5986C160.371 35.0726 160.306 36.8996 160.306 38.0796C160.306 39.2515 160.359 40.0938 160.465 40.6064C160.571 41.1191 160.737 41.5545 160.965 41.9126C161.193 42.2707 161.307 42.5067 161.307 42.6206V42.7671C161.307 43.1252 161.128 43.41 160.77 43.6216C160.42 43.8332 159.944 43.939 159.342 43.939H158.707C158.333 43.939 158.003 43.8332 157.718 43.6216C157.442 43.4019 157.303 43.1536 157.303 42.877V42.5474L157.376 42.0347C157.474 41.3267 157.531 40.7977 157.547 40.4478C157.572 40.0897 157.608 39.5973 157.657 38.9707C157.706 38.3359 157.783 36.9891 157.889 34.9302C158.003 32.8631 158.06 31.7523 158.06 31.5977L158.109 30.6821L158.133 29.7788C158.133 28.9162 158.056 28.3018 157.901 27.9355C157.755 27.5612 157.682 27.2601 157.682 27.0322ZM166.361 36.5781V36.7734C166.361 37.0176 166.585 37.1396 167.032 37.1396H167.325L167.398 37.1274L167.997 37.0786C168.623 36.9891 169.03 36.9443 169.217 36.9443C170.104 36.9443 170.772 36.7775 171.219 36.4438C171.431 36.2811 171.537 35.9922 171.537 35.5771V35.4429C171.537 34.8325 171.333 34.3483 170.926 33.9902C170.528 33.6322 170.047 33.4531 169.486 33.4531H169.4L169.327 33.4653C168.538 33.4653 167.846 33.799 167.252 34.4663C166.658 35.1336 166.361 35.8376 166.361 36.5781ZM169.022 44.1587H168.753C167.199 44.1587 165.962 43.6663 165.042 42.6816C164.123 41.6888 163.663 40.3664 163.663 38.7144V38.1772C163.663 37.3879 163.818 36.5863 164.127 35.7725C164.754 34.1449 165.775 33.0218 167.191 32.4033C167.94 32.0697 168.701 31.9028 169.474 31.9028H169.999C171.065 31.9028 171.964 32.2609 172.696 32.9771C173.437 33.6851 173.807 34.6006 173.807 35.7236V35.9678C173.807 36.7653 173.49 37.3309 172.855 37.6646C172.416 37.9006 171.39 38.1366 169.779 38.3726C168.167 38.6086 167.289 38.751 167.142 38.7998C166.654 38.9707 166.41 39.2962 166.41 39.7764C166.41 40.4437 166.694 41.0133 167.264 41.4854C167.834 41.9574 168.599 42.1934 169.559 42.1934C170.007 42.1934 170.617 42.0713 171.39 41.8271C172.163 41.583 172.611 41.4609 172.733 41.4609C173.148 41.4609 173.355 41.64 173.355 41.998C173.355 42.4782 172.888 42.9583 171.952 43.4385C171.016 43.9186 170.039 44.1587 169.022 44.1587ZM177.323 37.1885C176.826 36.6839 176.578 35.9759 176.578 35.0645C176.578 34.153 176.985 33.3717 177.799 32.7207C178.613 32.0615 179.622 31.7319 180.826 31.7319H181.144C182.21 31.7319 183.056 31.8825 183.683 32.1836C184.317 32.4847 184.635 32.9364 184.635 33.5386C184.635 34.1326 184.37 34.4297 183.841 34.4297C183.703 34.4297 183.312 34.2669 182.669 33.9414C182.027 33.6077 181.42 33.4409 180.851 33.4409C180.281 33.4409 179.821 33.5711 179.471 33.8315C179.129 34.0838 178.958 34.4338 178.958 34.8813C178.958 35.3289 179.199 35.7196 179.679 36.0532C179.955 36.2485 180.606 36.5578 181.632 36.981C182.665 37.4041 183.402 37.811 183.841 38.2017C184.549 38.8283 184.903 39.6299 184.903 40.6064C184.903 41.583 184.488 42.4212 183.658 43.1211C182.828 43.8128 181.75 44.1587 180.423 44.1587H180.106C178.771 44.1587 177.77 43.9674 177.103 43.585C176.436 43.1943 176.102 42.6898 176.102 42.0713C176.102 41.4447 176.362 41.1313 176.883 41.1313C177.054 41.1313 177.498 41.3511 178.214 41.7905C178.938 42.23 179.646 42.4497 180.338 42.4497C181.038 42.4497 181.563 42.3032 181.913 42.0103C182.263 41.7091 182.438 41.3348 182.438 40.8872C182.438 40.4315 182.218 40.0327 181.778 39.6909C181.542 39.5037 180.867 39.166 179.752 38.6777C178.637 38.1813 177.827 37.6849 177.323 37.1885ZM195.292 37.1885C194.795 36.6839 194.547 35.9759 194.547 35.0645C194.547 34.153 194.954 33.3717 195.768 32.7207C196.581 32.0615 197.59 31.7319 198.795 31.7319H199.112C200.178 31.7319 201.025 31.8825 201.651 32.1836C202.286 32.4847 202.604 32.9364 202.604 33.5386C202.604 34.1326 202.339 34.4297 201.81 34.4297C201.672 34.4297 201.281 34.2669 200.638 33.9414C199.995 33.6077 199.389 33.4409 198.819 33.4409C198.25 33.4409 197.79 33.5711 197.44 33.8315C197.098 34.0838 196.927 34.4338 196.927 34.8813C196.927 35.3289 197.167 35.7196 197.647 36.0532C197.924 36.2485 198.575 36.5578 199.601 36.981C200.634 37.4041 201.371 37.811 201.81 38.2017C202.518 38.8283 202.872 39.6299 202.872 40.6064C202.872 41.583 202.457 42.4212 201.627 43.1211C200.797 43.8128 199.719 44.1587 198.392 44.1587H198.075C196.74 44.1587 195.739 43.9674 195.072 43.585C194.404 43.1943 194.071 42.6898 194.071 42.0713C194.071 41.4447 194.331 41.1313 194.852 41.1313C195.023 41.1313 195.466 41.3511 196.183 41.7905C196.907 42.23 197.615 42.4497 198.307 42.4497C199.007 42.4497 199.531 42.3032 199.881 42.0103C200.231 41.7091 200.406 41.3348 200.406 40.8872C200.406 40.4315 200.187 40.0327 199.747 39.6909C199.511 39.5037 198.836 39.166 197.721 38.6777C196.606 38.1813 195.796 37.6849 195.292 37.1885ZM211.869 42.6938C211.869 43.0194 211.669 43.3123 211.271 43.5728C210.88 43.825 210.347 43.9512 209.671 43.9512C208.41 43.9512 207.523 43.4832 207.01 42.5474C206.693 41.9614 206.534 40.5902 206.534 38.4336C206.534 36.277 206.498 35.0238 206.424 34.6738C206.351 34.3239 206.148 33.9821 205.814 33.6484C205.48 33.3148 205.313 33.0584 205.313 32.8794C205.313 32.8143 205.708 32.387 206.498 31.5977C206.668 31.4268 206.839 31.0483 207.01 30.4624C207.189 29.8765 207.315 29.4899 207.389 29.3027C207.633 28.7168 207.954 28.4238 208.353 28.4238H208.548C208.898 28.4238 209.146 28.5581 209.293 28.8267C209.35 28.9325 209.435 29.3149 209.549 29.9741C209.671 30.6252 209.81 31.0443 209.964 31.2314C210.119 31.4186 210.506 31.6261 211.124 31.854C211.751 32.0737 212.064 32.3097 212.064 32.562V32.6963C212.064 33.0218 211.706 33.2985 210.99 33.5264C210.282 33.7461 209.826 34.1001 209.623 34.5884C209.224 35.5731 209.024 37.1763 209.024 39.3979C209.024 40.4396 209.203 41.1476 209.562 41.522C209.781 41.7498 210.221 41.9085 210.88 41.998C211.539 42.0876 211.869 42.3195 211.869 42.6938ZM216.751 38.8486C216.751 39.9147 216.996 40.8018 217.484 41.5098C217.972 42.2178 218.57 42.5718 219.278 42.5718H219.645C220.483 42.5718 221.191 42.1486 221.769 41.3022C222.354 40.4559 222.647 39.3288 222.647 37.9209V37.1152C222.647 36.0247 222.407 35.1336 221.927 34.4419C221.455 33.742 220.845 33.3921 220.096 33.3921H219.852C218.981 33.3921 218.249 33.8234 217.655 34.686C217.069 35.5487 216.776 36.5781 216.776 37.7744L216.751 38.0552V38.8486ZM219.51 44.2319H219.12C217.695 44.2319 216.536 43.7355 215.641 42.7427C214.745 41.7498 214.298 40.342 214.298 38.519L214.31 38.3115C214.31 36.3096 214.839 34.7308 215.897 33.5752C216.45 32.9648 217.081 32.5173 217.789 32.2324C218.505 31.9395 219.185 31.793 219.828 31.793H220.426C221.142 31.793 221.83 31.9517 222.489 32.269C224.377 33.1805 225.321 34.8976 225.321 37.4204V37.6157C225.313 38.4377 225.178 39.2718 224.918 40.1182C224.397 41.7865 223.396 42.9665 221.915 43.6582C221.093 44.0407 220.292 44.2319 219.51 44.2319ZM227.469 38.9219V38.3604C227.469 37.335 227.628 36.4276 227.945 35.6382C228.556 34.1082 229.492 33.0503 230.753 32.4644C231.575 32.0737 232.425 31.8784 233.304 31.8784H233.573C234.541 31.8784 235.343 32.0697 235.978 32.4521C236.612 32.8346 236.93 33.3026 236.93 33.856C236.93 34.4989 236.62 34.8203 236.002 34.8203C235.888 34.8203 235.489 34.6413 234.806 34.2832C234.122 33.9333 233.561 33.7583 233.121 33.7583C233.113 33.7583 233.105 33.7583 233.097 33.7583C232.136 33.7583 231.384 34.1733 230.838 35.0034C230.301 35.8335 230.033 36.9159 230.033 38.2505C230.033 39.5851 230.318 40.5739 230.887 41.2168C231.465 41.8597 232.267 42.1812 233.292 42.1812C233.715 42.1812 234.297 42.0632 235.038 41.8271C235.778 41.583 236.23 41.4609 236.393 41.4609C236.726 41.4609 236.893 41.6359 236.893 41.9858C236.893 42.4578 236.425 42.9339 235.489 43.4141C234.553 43.8942 233.634 44.1343 232.73 44.1343C230.313 44.1343 228.714 43.1821 227.933 41.2778C227.624 40.521 227.469 39.7357 227.469 38.9219ZM243.827 38.6533C243.102 38.6533 242.74 39.6095 242.74 41.522C242.74 42.3521 242.569 42.9136 242.228 43.2065C241.886 43.4995 241.475 43.646 240.995 43.646C240.514 43.646 240.173 43.5646 239.969 43.4019C239.774 43.2391 239.676 42.9339 239.676 42.4863C239.676 42.4538 239.721 42.1323 239.811 41.522C239.9 40.9116 240.014 39.0155 240.152 35.8335C240.291 32.6434 240.36 30.6943 240.36 29.9863C240.36 29.2783 240.34 28.8185 240.299 28.6069C240.266 28.3872 240.209 28.1227 240.128 27.8135C240.055 27.5042 240.018 27.3089 240.018 27.2275C240.018 26.8695 240.136 26.6253 240.372 26.4951C240.616 26.3568 241.019 26.2876 241.581 26.2876C242.15 26.2876 242.525 26.4341 242.704 26.7271C242.891 27.02 242.984 27.61 242.984 28.4971L242.826 33.6729C242.826 35.154 242.997 35.8945 243.338 35.8945C243.607 35.8945 244.266 35.3411 245.316 34.2344C246.374 33.1276 246.915 32.5661 246.939 32.5498C247.265 32.3219 247.757 32.208 248.417 32.208C249.076 32.208 249.405 32.3708 249.405 32.6963C249.405 32.859 248.88 33.5467 247.831 34.7593C246.781 35.9718 246.256 36.863 246.256 37.4326C246.256 37.7419 246.854 38.7591 248.05 40.4844C248.482 41.1029 248.889 41.64 249.271 42.0957C249.662 42.5433 249.857 42.8647 249.857 43.0601C249.857 43.467 249.479 43.6704 248.722 43.6704C247.973 43.6704 247.395 43.4548 246.988 43.0234C246.891 42.9176 246.663 42.5596 246.305 41.9492C245.947 41.3389 245.694 40.9116 245.548 40.6675C244.71 39.3247 244.136 38.6533 243.827 38.6533ZM263.443 42.4619H263.761C264.428 42.4619 265.014 42.2381 265.519 41.7905C266.031 41.3348 266.288 40.8099 266.288 40.2158L266.312 40.0571V39.8984L266.336 39.52V38.8242C266.336 38.3522 266.096 38.1162 265.616 38.1162H265.067L264.981 38.1284L264.505 38.165C264.278 38.1976 264.115 38.2139 264.017 38.2139C263.358 38.2139 262.748 38.4621 262.186 38.9585C261.795 39.3084 261.6 39.8049 261.6 40.4478V40.6919C261.6 41.2371 261.775 41.6685 262.125 41.9858C262.483 42.3032 262.923 42.4619 263.443 42.4619ZM260.721 34.6616C260.176 34.6616 259.903 34.3117 259.903 33.6118C259.903 33.091 260.343 32.6393 261.222 32.2568C262.109 31.8662 263.028 31.6709 263.98 31.6709H264.591C265.413 31.6709 266.137 31.8255 266.764 32.1348C267.39 32.4359 267.866 32.8468 268.192 33.3677C268.526 33.8885 268.729 34.568 268.802 35.4062C268.819 35.6016 268.827 36.5496 268.827 38.2505C268.827 39.9513 268.847 40.932 268.888 41.1924C268.937 41.4447 269.067 41.7539 269.278 42.1201C269.498 42.4863 269.608 42.7874 269.608 43.0234C269.608 43.2594 269.494 43.4629 269.266 43.6338C269.046 43.7965 268.725 43.8779 268.302 43.8779C267.879 43.8779 267.419 43.7762 266.922 43.5728C266.426 43.3612 266.064 43.2554 265.836 43.2554C265.812 43.2554 265.405 43.4019 264.615 43.6948C263.826 43.9797 263.159 44.1221 262.613 44.1221H262.345C261.433 44.1221 260.656 43.8332 260.013 43.2554C259.378 42.6776 259.061 41.8556 259.061 40.7896C259.061 39.7235 259.411 38.8934 260.111 38.2993C260.811 37.6971 261.661 37.2861 262.662 37.0664C262.963 37.0013 263.464 36.9159 264.164 36.8101C264.863 36.7043 265.34 36.5944 265.592 36.4805C266.031 36.277 266.251 35.8945 266.251 35.333C266.251 34.7633 266.064 34.3198 265.689 34.0024C265.315 33.6769 264.868 33.5142 264.347 33.5142C263.834 33.5142 263.159 33.7054 262.32 34.0879C261.482 34.4704 260.949 34.6616 260.721 34.6616ZM274.564 38.0796V39.0073C274.564 39.9757 274.784 40.7855 275.223 41.4365C275.671 42.0794 276.196 42.4009 276.798 42.4009H277.14C278.067 42.4009 278.784 42.0306 279.288 41.29C279.801 40.5495 280.057 39.4468 280.057 37.9819C280.073 37.8029 280.082 37.6727 280.082 37.5913L280.106 37.3472L280.118 36.8345V35.9678C280.118 34.3076 279.455 33.4775 278.128 33.4775H277.652C276.79 33.4775 276.057 33.9129 275.455 34.7837C274.861 35.6545 274.564 36.7531 274.564 38.0796ZM272.22 38.6411C272.22 37.7948 272.371 36.9321 272.672 36.0532C272.973 35.1743 273.396 34.4256 273.941 33.8071C274.487 33.1805 275.101 32.7288 275.785 32.4521C276.468 32.1673 277.278 32.0249 278.214 32.0249C279.158 32.0249 279.744 31.854 279.972 31.5122C280.2 31.1623 280.313 30.3932 280.313 29.2051C280.313 28.9854 280.277 28.6924 280.204 28.3262C280.13 27.96 280.094 27.7484 280.094 27.6914C280.094 27.3415 280.244 27.0241 280.545 26.7393C280.847 26.4463 281.241 26.2998 281.729 26.2998H281.974C282.356 26.2998 282.641 26.3893 282.828 26.5684C283.015 26.7474 283.109 27.1217 283.109 27.6914V28.8267L283.084 29.4004C283.076 29.5957 283.072 29.8805 283.072 30.2549C283.072 30.6211 283.011 31.8011 282.889 33.7949C282.767 35.7887 282.706 37.16 282.706 37.9087L282.694 38.2017C282.686 38.397 282.682 38.5841 282.682 38.7632L282.669 39.0439C282.669 39.0439 282.669 39.3613 282.669 39.9961C282.669 40.818 282.735 41.4365 282.865 41.8516C282.995 42.2666 283.06 42.5636 283.06 42.7427C283.06 42.9217 282.958 43.1089 282.755 43.3042C282.551 43.4995 282.234 43.5972 281.803 43.5972C281.38 43.5972 280.969 43.528 280.57 43.3896C280.171 43.2432 279.878 43.1699 279.691 43.1699C279.504 43.1699 279.26 43.2269 278.958 43.3408C278.047 43.6745 277.213 43.8413 276.456 43.8413C276.44 43.8413 276.424 43.8413 276.407 43.8413H276.126C274.898 43.8413 273.937 43.3937 273.246 42.4985C272.562 41.5952 272.22 40.4111 272.22 38.9463V38.6411ZM288.456 36.5781V36.7734C288.456 37.0176 288.679 37.1396 289.127 37.1396H289.42L289.493 37.1274L290.091 37.0786C290.718 36.9891 291.125 36.9443 291.312 36.9443C292.199 36.9443 292.866 36.7775 293.314 36.4438C293.526 36.2811 293.631 35.9922 293.631 35.5771V35.4429C293.631 34.8325 293.428 34.3483 293.021 33.9902C292.622 33.6322 292.142 33.4531 291.581 33.4531H291.495L291.422 33.4653C290.632 33.4653 289.941 33.799 289.347 34.4663C288.753 35.1336 288.456 35.8376 288.456 36.5781ZM291.117 44.1587H290.848C289.294 44.1587 288.057 43.6663 287.137 42.6816C286.218 41.6888 285.758 40.3664 285.758 38.7144V38.1772C285.758 37.3879 285.912 36.5863 286.222 35.7725C286.848 34.1449 287.87 33.0218 289.286 32.4033C290.034 32.0697 290.795 31.9028 291.568 31.9028H292.093C293.159 31.9028 294.059 32.2609 294.791 32.9771C295.532 33.6851 295.902 34.6006 295.902 35.7236V35.9678C295.902 36.7653 295.584 37.3309 294.95 37.6646C294.51 37.9006 293.485 38.1366 291.874 38.3726C290.262 38.6086 289.383 38.751 289.237 38.7998C288.749 38.9707 288.504 39.2962 288.504 39.7764C288.504 40.4437 288.789 41.0133 289.359 41.4854C289.929 41.9574 290.694 42.1934 291.654 42.1934C292.101 42.1934 292.712 42.0713 293.485 41.8271C294.258 41.583 294.706 41.4609 294.828 41.4609C295.243 41.4609 295.45 41.64 295.45 41.998C295.45 42.4782 294.982 42.9583 294.046 43.4385C293.111 43.9186 292.134 44.1587 291.117 44.1587ZM304.203 33.4531H303.958C303.495 33.4531 303.047 33.5874 302.616 33.856C301.362 34.6372 300.736 36.216 300.736 38.5923V38.7266C300.736 39.8984 300.968 40.8221 301.432 41.4976C301.896 42.1649 302.465 42.4985 303.141 42.4985H303.373C304.284 42.4985 304.984 42.1649 305.472 41.4976C305.969 40.8221 306.217 39.8293 306.217 38.519C306.233 38.3563 306.241 38.2301 306.241 38.1406L306.29 36.8589V36.7368C306.29 35.4917 306.131 34.6331 305.814 34.1611C305.505 33.6891 304.968 33.4531 304.203 33.4531ZM307.193 49.249C306.119 49.249 305.582 48.7607 305.582 47.7842C305.582 47.7272 305.639 47.4058 305.753 46.8198C305.867 46.2257 305.928 45.6479 305.936 45.0864C305.928 44.5575 305.826 44.1953 305.631 44C305.436 43.8047 305.126 43.703 304.703 43.6948C304.614 43.6948 304.479 43.707 304.3 43.7314L303.836 43.8047C303.527 43.8372 303.132 43.8535 302.652 43.8535C302.18 43.8535 301.676 43.7396 301.139 43.5117C300.056 43.056 299.267 42.1852 298.771 40.8994C298.478 40.1507 298.331 39.4102 298.331 38.6777V38.0796C298.331 36.2404 298.852 34.7552 299.894 33.624C300.935 32.4847 302.266 31.915 303.885 31.915C304.349 31.915 304.955 32.0249 305.704 32.2446C306.453 32.4644 306.835 32.5742 306.852 32.5742L307.853 32.4521C308.227 32.4521 308.52 32.562 308.731 32.7817C308.943 33.0015 309.049 33.2497 309.049 33.5264C309.049 33.8031 309.016 34.3361 308.951 35.1255C308.886 35.9149 308.849 36.7246 308.841 37.5547L308.829 37.8354C308.723 39.3898 308.67 40.6268 308.67 41.5464L308.646 42.1201C308.63 42.5026 308.622 42.7834 308.622 42.9624L308.585 43.8047C308.585 43.9919 308.585 44.179 308.585 44.3662L308.573 44.9155C308.573 45.7131 308.626 46.3031 308.731 46.6855L308.854 47.125C308.927 47.418 308.963 47.6458 308.963 47.8086C308.963 48.7689 308.455 49.249 307.438 49.249H307.193ZM312.284 33.0259C312.284 32.5132 312.715 32.2568 313.578 32.2568H313.858C314.396 32.2568 314.758 32.4725 314.945 32.9038C315.132 33.3351 315.226 34.1408 315.226 35.3208L315.079 39.3979C315.079 41.2941 315.759 42.2422 317.118 42.2422C317.614 42.2422 318.09 42.0672 318.546 41.7173C319.002 41.3674 319.339 40.9482 319.559 40.46C320.039 39.3857 320.279 37.4611 320.279 34.686L320.255 34.1489V33.6729C320.255 33.2415 320.353 32.9282 320.548 32.7329C320.743 32.5376 321.085 32.4399 321.573 32.4399C322.062 32.4399 322.383 32.5579 322.538 32.7939C322.692 33.0299 322.77 33.4124 322.77 33.9414L322.745 34.5884L322.696 37.4692C322.696 37.9331 322.725 38.6452 322.782 39.6055C322.839 40.5658 322.9 41.2697 322.965 41.7173C323.03 42.1567 323.062 42.4172 323.062 42.4985C323.062 43.2228 322.529 43.585 321.463 43.585C321.097 43.585 320.731 43.4507 320.365 43.1821C320.007 42.9054 319.75 42.7671 319.596 42.7671C319.449 42.7671 319.197 42.8566 318.839 43.0356C317.822 43.5483 316.955 43.8047 316.239 43.8047H315.934C314.77 43.8047 313.915 43.4466 313.37 42.7305C312.825 42.0143 312.552 40.7244 312.552 38.8608L312.674 35.1621C312.674 34.6982 312.609 34.2547 312.479 33.8315C312.349 33.4084 312.284 33.1398 312.284 33.0259ZM329.996 42.4619H330.313C330.981 42.4619 331.567 42.2381 332.071 41.7905C332.584 41.3348 332.84 40.8099 332.84 40.2158L332.865 40.0571V39.8984L332.889 39.52V38.8242C332.889 38.3522 332.649 38.1162 332.169 38.1162H331.62L331.534 38.1284L331.058 38.165C330.83 38.1976 330.667 38.2139 330.57 38.2139C329.911 38.2139 329.3 38.4621 328.739 38.9585C328.348 39.3084 328.153 39.8049 328.153 40.4478V40.6919C328.153 41.2371 328.328 41.6685 328.678 41.9858C329.036 42.3032 329.475 42.4619 329.996 42.4619ZM327.274 34.6616C326.729 34.6616 326.456 34.3117 326.456 33.6118C326.456 33.091 326.896 32.6393 327.774 32.2568C328.661 31.8662 329.581 31.6709 330.533 31.6709H331.144C331.965 31.6709 332.69 31.8255 333.316 32.1348C333.943 32.4359 334.419 32.8468 334.745 33.3677C335.078 33.8885 335.282 34.568 335.355 35.4062C335.371 35.6016 335.379 36.5496 335.379 38.2505C335.379 39.9513 335.4 40.932 335.44 41.1924C335.489 41.4447 335.619 41.7539 335.831 42.1201C336.051 42.4863 336.161 42.7874 336.161 43.0234C336.161 43.2594 336.047 43.4629 335.819 43.6338C335.599 43.7965 335.278 43.8779 334.854 43.8779C334.431 43.8779 333.972 43.7762 333.475 43.5728C332.979 43.3612 332.617 43.2554 332.389 43.2554C332.364 43.2554 331.957 43.4019 331.168 43.6948C330.379 43.9797 329.711 44.1221 329.166 44.1221H328.897C327.986 44.1221 327.209 43.8332 326.566 43.2554C325.931 42.6776 325.614 41.8556 325.614 40.7896C325.614 39.7235 325.964 38.8934 326.664 38.2993C327.363 37.6971 328.214 37.2861 329.215 37.0664C329.516 37.0013 330.016 36.9159 330.716 36.8101C331.416 36.7043 331.892 36.5944 332.145 36.4805C332.584 36.277 332.804 35.8945 332.804 35.333C332.804 34.7633 332.617 34.3198 332.242 34.0024C331.868 33.6769 331.42 33.5142 330.899 33.5142C330.387 33.5142 329.711 33.7054 328.873 34.0879C328.035 34.4704 327.502 34.6616 327.274 34.6616ZM345.34 42.6938C345.34 43.0194 345.141 43.3123 344.742 43.5728C344.352 43.825 343.819 43.9512 343.143 43.9512C341.882 43.9512 340.995 43.4832 340.482 42.5474C340.165 41.9614 340.006 40.5902 340.006 38.4336C340.006 36.277 339.969 35.0238 339.896 34.6738C339.823 34.3239 339.619 33.9821 339.286 33.6484C338.952 33.3148 338.785 33.0584 338.785 32.8794C338.785 32.8143 339.18 32.387 339.969 31.5977C340.14 31.4268 340.311 31.0483 340.482 30.4624C340.661 29.8765 340.787 29.4899 340.86 29.3027C341.104 28.7168 341.426 28.4238 341.825 28.4238H342.02C342.37 28.4238 342.618 28.5581 342.765 28.8267C342.822 28.9325 342.907 29.3149 343.021 29.9741C343.143 30.6252 343.281 31.0443 343.436 31.2314C343.591 31.4186 343.977 31.6261 344.596 31.854C345.222 32.0737 345.536 32.3097 345.536 32.562V32.6963C345.536 33.0218 345.178 33.2985 344.461 33.5264C343.753 33.7461 343.298 34.1001 343.094 34.5884C342.695 35.5731 342.496 37.1763 342.496 39.3979C342.496 40.4396 342.675 41.1476 343.033 41.522C343.253 41.7498 343.692 41.9085 344.352 41.998C345.011 42.0876 345.34 42.3195 345.34 42.6938ZM350.321 36.5781V36.7734C350.321 37.0176 350.545 37.1396 350.992 37.1396H351.285L351.358 37.1274L351.957 37.0786C352.583 36.9891 352.99 36.9443 353.177 36.9443C354.064 36.9443 354.732 36.7775 355.179 36.4438C355.391 36.2811 355.497 35.9922 355.497 35.5771V35.4429C355.497 34.8325 355.293 34.3483 354.886 33.9902C354.487 33.6322 354.007 33.4531 353.446 33.4531H353.36L353.287 33.4653C352.498 33.4653 351.806 33.799 351.212 34.4663C350.618 35.1336 350.321 35.8376 350.321 36.5781ZM352.982 44.1587H352.713C351.159 44.1587 349.922 43.6663 349.002 42.6816C348.083 41.6888 347.623 40.3664 347.623 38.7144V38.1772C347.623 37.3879 347.778 36.5863 348.087 35.7725C348.714 34.1449 349.735 33.0218 351.151 32.4033C351.9 32.0697 352.66 31.9028 353.434 31.9028H353.958C355.025 31.9028 355.924 32.2609 356.656 32.9771C357.397 33.6851 357.767 34.6006 357.767 35.7236V35.9678C357.767 36.7653 357.45 37.3309 356.815 37.6646C356.375 37.9006 355.35 38.1366 353.739 38.3726C352.127 38.6086 351.249 38.751 351.102 38.7998C350.614 38.9707 350.37 39.2962 350.37 39.7764C350.37 40.4437 350.654 41.0133 351.224 41.4854C351.794 41.9574 352.559 42.1934 353.519 42.1934C353.967 42.1934 354.577 42.0713 355.35 41.8271C356.123 41.583 356.571 41.4609 356.693 41.4609C357.108 41.4609 357.315 41.64 357.315 41.998C357.315 42.4782 356.847 42.9583 355.912 43.4385C354.976 43.9186 353.999 44.1587 352.982 44.1587ZM361.1 27.0322C361.1 26.4382 361.657 26.1411 362.772 26.1411H362.992C363.456 26.1411 363.773 26.255 363.944 26.4829C364.115 26.7026 364.2 27.134 364.2 27.7769L364.103 29.5957C364.078 29.8805 364.066 30.0352 364.066 30.0596L364.042 30.5234C364.025 30.8245 364.009 31.1297 363.993 31.439L363.956 31.9028L363.919 32.5986C363.789 35.0726 363.724 36.8996 363.724 38.0796C363.724 39.2515 363.777 40.0938 363.883 40.6064C363.989 41.1191 364.155 41.5545 364.383 41.9126C364.611 42.2707 364.725 42.5067 364.725 42.6206V42.7671C364.725 43.1252 364.546 43.41 364.188 43.6216C363.838 43.8332 363.362 43.939 362.76 43.939H362.125C361.751 43.939 361.421 43.8332 361.136 43.6216C360.86 43.4019 360.721 43.1536 360.721 42.877V42.5474L360.794 42.0347C360.892 41.3267 360.949 40.7977 360.965 40.4478C360.99 40.0897 361.026 39.5973 361.075 38.9707C361.124 38.3359 361.201 36.9891 361.307 34.9302C361.421 32.8631 361.478 31.7523 361.478 31.5977L361.527 30.6821L361.551 29.7788C361.551 28.9162 361.474 28.3018 361.319 27.9355C361.173 27.5612 361.1 27.2601 361.1 27.0322ZM371.646 43.9512C371.646 43.528 371.358 42.7874 370.78 41.7295C370.202 40.6634 369.718 39.6706 369.327 38.751C367.993 35.6178 367.325 33.8071 367.325 33.3188C367.325 33.0991 367.451 32.8997 367.704 32.7207C367.964 32.5417 368.395 32.4521 368.998 32.4521C369.6 32.4521 370.023 32.7085 370.267 33.2212C370.292 33.2782 370.377 33.6322 370.523 34.2832C371.63 38.3278 372.322 40.4478 372.599 40.6431C373.022 40.6431 373.6 39.6543 374.332 37.6768C374.828 36.334 375.134 35.2069 375.248 34.2954C375.37 33.384 375.467 32.859 375.541 32.7207C375.768 32.2975 376.24 32.0859 376.957 32.0859C377.681 32.0859 378.043 32.3667 378.043 32.9282C378.043 33.327 377.896 33.86 377.604 34.5273C377.311 35.1947 377.034 35.9189 376.773 36.7002C375.284 41.1598 374.206 43.9756 373.539 45.1475C372.871 46.3275 372.167 47.2552 371.427 47.9307C370.686 48.6143 369.942 48.9561 369.193 48.9561C368.452 48.9561 368.082 48.7445 368.082 48.3213C368.082 47.9469 368.46 47.6051 369.217 47.2959C369.982 46.9867 370.515 46.6286 370.816 46.2217C371.37 45.4811 371.646 44.7243 371.646 43.9512ZM381.351 44.1953H380.973C380.566 44.1953 380.248 44.1017 380.021 43.9146C379.801 43.7274 379.691 43.4792 379.691 43.1699C379.675 43.1048 379.667 43.0519 379.667 43.0112L379.642 42.8037V42.584L379.654 42.5352V42.4253C379.671 42.3602 379.679 42.3073 379.679 42.2666C379.679 41.9004 379.801 41.6156 380.045 41.4121C380.297 41.2005 380.574 41.0947 380.875 41.0947L381.131 41.0581H381.461C382.348 41.0581 382.792 41.522 382.792 42.4497V42.6206L382.743 43.0356C382.743 43.41 382.6 43.6989 382.315 43.9023C382.039 44.0977 381.717 44.1953 381.351 44.1953ZM404.764 34.4053C404.764 34.3809 404.764 34.3564 404.764 34.332C404.764 33.624 404.654 32.8631 404.435 32.0493C404.036 30.5438 403.356 29.5062 402.396 28.9365C401.81 28.5866 401.232 28.4116 400.663 28.4116H400.089C399.405 28.4116 398.754 28.6232 398.136 29.0464C396.98 29.8358 396.187 31.0443 395.755 32.6719C395.487 33.681 395.353 34.6779 395.353 35.6626V36.4805C395.353 38.1732 395.743 39.5973 396.524 40.7529C397.314 41.9004 398.388 42.4741 399.747 42.4741H399.942C400.61 42.4741 401.244 42.3073 401.847 41.9736C402.978 41.3389 403.804 40.1426 404.325 38.3848C404.601 37.4652 404.74 36.5496 404.74 35.6382L404.764 35.2231V34.4053ZM407.645 34.3076V35.1255C407.645 36.3381 407.454 37.5303 407.071 38.7021C406.339 40.9564 405.049 42.5433 403.202 43.4629C402.127 44 401.033 44.2686 399.918 44.2686H399.369C398.465 44.2686 397.582 44.0732 396.72 43.6826C395.003 42.9176 393.839 41.5993 393.229 39.7275C392.87 38.6289 392.691 37.4977 392.691 36.334V35.7847C392.691 34.6291 392.883 33.445 393.265 32.2324C393.656 31.0199 394.209 30.0026 394.925 29.1807C395.641 28.3506 396.472 27.724 397.416 27.3008C398.36 26.8776 399.324 26.666 400.309 26.666H400.858C401.9 26.666 402.831 26.8654 403.653 27.2642C405.257 28.0454 406.371 29.2702 406.998 30.9385C407.429 32.0859 407.645 33.209 407.645 34.3076ZM409.891 38.9219V38.3604C409.891 37.335 410.05 36.4276 410.367 35.6382C410.978 34.1082 411.913 33.0503 413.175 32.4644C413.997 32.0737 414.847 31.8784 415.726 31.8784H415.995C416.963 31.8784 417.765 32.0697 418.399 32.4521C419.034 32.8346 419.352 33.3026 419.352 33.856C419.352 34.4989 419.042 34.8203 418.424 34.8203C418.31 34.8203 417.911 34.6413 417.228 34.2832C416.544 33.9333 415.982 33.7583 415.543 33.7583C415.535 33.7583 415.527 33.7583 415.519 33.7583C414.558 33.7583 413.806 34.1733 413.26 35.0034C412.723 35.8335 412.455 36.9159 412.455 38.2505C412.455 39.5851 412.739 40.5739 413.309 41.2168C413.887 41.8597 414.688 42.1812 415.714 42.1812C416.137 42.1812 416.719 42.0632 417.459 41.8271C418.2 41.583 418.652 41.4609 418.814 41.4609C419.148 41.4609 419.315 41.6359 419.315 41.9858C419.315 42.4578 418.847 42.9339 417.911 43.4141C416.975 43.8942 416.056 44.1343 415.152 44.1343C412.735 44.1343 411.136 43.1821 410.355 41.2778C410.046 40.521 409.891 39.7357 409.891 38.9219ZM421.488 38.9219V38.3604C421.488 37.335 421.646 36.4276 421.964 35.6382C422.574 34.1082 423.51 33.0503 424.771 32.4644C425.593 32.0737 426.444 31.8784 427.323 31.8784H427.591C428.56 31.8784 429.361 32.0697 429.996 32.4521C430.631 32.8346 430.948 33.3026 430.948 33.856C430.948 34.4989 430.639 34.8203 430.021 34.8203C429.907 34.8203 429.508 34.6413 428.824 34.2832C428.141 33.9333 427.579 33.7583 427.14 33.7583C427.132 33.7583 427.123 33.7583 427.115 33.7583C426.155 33.7583 425.402 34.1733 424.857 35.0034C424.32 35.8335 424.051 36.9159 424.051 38.2505C424.051 39.5851 424.336 40.5739 424.906 41.2168C425.484 41.8597 426.285 42.1812 427.311 42.1812C427.734 42.1812 428.316 42.0632 429.056 41.8271C429.797 41.583 430.248 41.4609 430.411 41.4609C430.745 41.4609 430.912 41.6359 430.912 41.9858C430.912 42.4578 430.444 42.9339 429.508 43.4141C428.572 43.8942 427.652 44.1343 426.749 44.1343C424.332 44.1343 422.733 43.1821 421.952 41.2778C421.642 40.521 421.488 39.7357 421.488 38.9219ZM437.418 42.4619H437.735C438.403 42.4619 438.989 42.2381 439.493 41.7905C440.006 41.3348 440.262 40.8099 440.262 40.2158L440.287 40.0571V39.8984L440.311 39.52V38.8242C440.311 38.3522 440.071 38.1162 439.591 38.1162H439.042L438.956 38.1284L438.48 38.165C438.252 38.1976 438.089 38.2139 437.992 38.2139C437.333 38.2139 436.722 38.4621 436.161 38.9585C435.77 39.3084 435.575 39.8049 435.575 40.4478V40.6919C435.575 41.2371 435.75 41.6685 436.1 41.9858C436.458 42.3032 436.897 42.4619 437.418 42.4619ZM434.696 34.6616C434.151 34.6616 433.878 34.3117 433.878 33.6118C433.878 33.091 434.317 32.6393 435.196 32.2568C436.083 31.8662 437.003 31.6709 437.955 31.6709H438.565C439.387 31.6709 440.112 31.8255 440.738 32.1348C441.365 32.4359 441.841 32.8468 442.167 33.3677C442.5 33.8885 442.704 34.568 442.777 35.4062C442.793 35.6016 442.801 36.5496 442.801 38.2505C442.801 39.9513 442.822 40.932 442.862 41.1924C442.911 41.4447 443.041 41.7539 443.253 42.1201C443.473 42.4863 443.583 42.7874 443.583 43.0234C443.583 43.2594 443.469 43.4629 443.241 43.6338C443.021 43.7965 442.7 43.8779 442.276 43.8779C441.853 43.8779 441.393 43.7762 440.897 43.5728C440.401 43.3612 440.038 43.2554 439.811 43.2554C439.786 43.2554 439.379 43.4019 438.59 43.6948C437.8 43.9797 437.133 44.1221 436.588 44.1221H436.319C435.408 44.1221 434.631 43.8332 433.988 43.2554C433.353 42.6776 433.036 41.8556 433.036 40.7896C433.036 39.7235 433.386 38.8934 434.085 38.2993C434.785 37.6971 435.636 37.2861 436.637 37.0664C436.938 37.0013 437.438 36.9159 438.138 36.8101C438.838 36.7043 439.314 36.5944 439.566 36.4805C440.006 36.277 440.226 35.8945 440.226 35.333C440.226 34.7633 440.038 34.3198 439.664 34.0024C439.29 33.6769 438.842 33.5142 438.321 33.5142C437.809 33.5142 437.133 33.7054 436.295 34.0879C435.457 34.4704 434.924 34.6616 434.696 34.6616ZM447.293 37.1885C446.797 36.6839 446.549 35.9759 446.549 35.0645C446.549 34.153 446.956 33.3717 447.77 32.7207C448.583 32.0615 449.592 31.7319 450.797 31.7319H451.114C452.18 31.7319 453.027 31.8825 453.653 32.1836C454.288 32.4847 454.605 32.9364 454.605 33.5386C454.605 34.1326 454.341 34.4297 453.812 34.4297C453.674 34.4297 453.283 34.2669 452.64 33.9414C451.997 33.6077 451.391 33.4409 450.821 33.4409C450.252 33.4409 449.792 33.5711 449.442 33.8315C449.1 34.0838 448.929 34.4338 448.929 34.8813C448.929 35.3289 449.169 35.7196 449.649 36.0532C449.926 36.2485 450.577 36.5578 451.603 36.981C452.636 37.4041 453.373 37.811 453.812 38.2017C454.52 38.8283 454.874 39.6299 454.874 40.6064C454.874 41.583 454.459 42.4212 453.629 43.1211C452.799 43.8128 451.721 44.1587 450.394 44.1587H450.077C448.742 44.1587 447.741 43.9674 447.074 43.585C446.406 43.1943 446.073 42.6898 446.073 42.0713C446.073 41.4447 446.333 41.1313 446.854 41.1313C447.025 41.1313 447.468 41.3511 448.185 41.7905C448.909 42.23 449.617 42.4497 450.309 42.4497C451.008 42.4497 451.533 42.3032 451.883 42.0103C452.233 41.7091 452.408 41.3348 452.408 40.8872C452.408 40.4315 452.188 40.0327 451.749 39.6909C451.513 39.5037 450.838 39.166 449.723 38.6777C448.608 38.1813 447.798 37.6849 447.293 37.1885ZM461.466 28.1309V28.2773C461.466 28.6924 461.344 29.0464 461.1 29.3394C460.864 29.6242 460.497 29.7666 460.001 29.7666H459.806L459.427 29.7178C459.208 29.7178 458.996 29.616 458.792 29.4126C458.589 29.2091 458.487 28.904 458.487 28.4971V28.3506L458.548 27.9111C458.548 27.7402 458.65 27.5286 458.854 27.2764C459.065 27.0241 459.334 26.8979 459.659 26.8979L459.94 26.8613H460.184L460.526 26.9102C460.737 26.9102 460.945 27.016 461.148 27.2275C461.36 27.431 461.466 27.7321 461.466 28.1309ZM460.892 33.2822L460.758 36.5659L460.733 36.8955L460.697 37.8965V38.3726C460.697 39.5444 460.729 40.3135 460.794 40.6797C460.868 41.0459 461.002 41.404 461.197 41.7539C461.393 42.0957 461.49 42.3439 461.49 42.4985V42.6084C461.49 43.0072 461.287 43.3245 460.88 43.5605C460.473 43.7965 459.92 43.9146 459.22 43.9146H458.915C458.508 43.9146 458.198 43.825 457.987 43.646C457.775 43.4588 457.669 43.2594 457.669 43.0479V42.7793C457.669 42.6735 457.763 42.2992 457.95 41.6562C458.137 41.0052 458.231 40.1222 458.231 39.0073C458.255 38.6899 458.268 38.4702 458.268 38.3481L458.304 37.6768L458.329 37.3472C458.369 36.7775 458.39 36.334 458.39 36.0166L458.402 35.5283C458.402 34.918 458.3 34.3768 458.097 33.9048C457.901 33.4328 457.804 33.1398 457.804 33.0259C457.804 32.4399 458.357 32.147 459.464 32.147H459.903C460.318 32.147 460.587 32.2568 460.709 32.4766C460.831 32.6882 460.892 32.9567 460.892 33.2822ZM466.629 38.8486C466.629 39.9147 466.874 40.8018 467.362 41.5098C467.85 42.2178 468.448 42.5718 469.156 42.5718H469.522C470.361 42.5718 471.069 42.1486 471.646 41.3022C472.232 40.4559 472.525 39.3288 472.525 37.9209V37.1152C472.525 36.0247 472.285 35.1336 471.805 34.4419C471.333 33.742 470.723 33.3921 469.974 33.3921H469.73C468.859 33.3921 468.127 33.8234 467.533 34.686C466.947 35.5487 466.654 36.5781 466.654 37.7744L466.629 38.0552V38.8486ZM469.388 44.2319H468.998C467.573 44.2319 466.414 43.7355 465.519 42.7427C464.623 41.7498 464.176 40.342 464.176 38.519L464.188 38.3115C464.188 36.3096 464.717 34.7308 465.775 33.5752C466.328 32.9648 466.959 32.5173 467.667 32.2324C468.383 31.9395 469.063 31.793 469.706 31.793H470.304C471.02 31.793 471.708 31.9517 472.367 32.269C474.255 33.1805 475.199 34.8976 475.199 37.4204V37.6157C475.191 38.4377 475.056 39.2718 474.796 40.1182C474.275 41.7865 473.274 42.9665 471.793 43.6582C470.971 44.0407 470.169 44.2319 469.388 44.2319ZM488.932 42.5352C488.932 43.1374 488.407 43.4385 487.357 43.4385C486.763 43.4385 486.364 43.2961 486.161 43.0112C486.063 42.8729 486.014 42.5474 486.014 42.0347L485.978 41.2534C485.921 40.3989 485.892 39.5404 485.892 38.6777C485.892 36.8141 485.729 35.5649 485.404 34.9302C485.086 34.2873 484.549 33.9658 483.792 33.9658C483.288 33.9658 482.82 34.1164 482.389 34.4175C481.965 34.7186 481.64 35.1377 481.412 35.6748C480.94 36.7734 480.704 38.8039 480.704 41.7661C480.704 42.4416 480.574 42.9176 480.313 43.1943C480.061 43.471 479.736 43.6094 479.337 43.6094H479.093C478.181 43.6094 477.726 43.2472 477.726 42.5229V42.23C477.726 42.1405 477.774 41.9451 477.872 41.644L478.067 41.0825C478.263 40.4233 478.36 39.0114 478.36 36.8467L478.421 33.2212C478.421 32.7573 478.674 32.5254 479.178 32.5254C479.683 32.5254 480.179 32.6922 480.667 33.0259C481.164 33.3595 481.477 33.5264 481.607 33.5264C481.746 33.5264 481.986 33.4328 482.328 33.2456C483.475 32.619 484.395 32.3057 485.086 32.3057H485.404C486.649 32.3057 487.524 32.8672 488.028 33.9902C488.272 34.5192 488.395 35.6585 488.395 37.4082V37.4937C488.395 37.6401 488.39 37.7866 488.382 37.9331C488.382 38.3319 488.382 38.5394 488.382 38.5557C488.382 38.7103 488.382 38.8608 488.382 39.0073C488.382 39.1213 488.382 39.2311 488.382 39.3369C488.382 39.9635 488.403 40.3908 488.443 40.6187C488.5 40.9279 488.594 41.2493 488.724 41.583C488.862 41.9492 488.932 42.2666 488.932 42.5352ZM495.67 42.4619H495.987C496.655 42.4619 497.241 42.2381 497.745 41.7905C498.258 41.3348 498.514 40.8099 498.514 40.2158L498.539 40.0571V39.8984L498.563 39.52V38.8242C498.563 38.3522 498.323 38.1162 497.843 38.1162H497.293L497.208 38.1284L496.732 38.165C496.504 38.1976 496.341 38.2139 496.244 38.2139C495.584 38.2139 494.974 38.4621 494.413 38.9585C494.022 39.3084 493.827 39.8049 493.827 40.4478V40.6919C493.827 41.2371 494.002 41.6685 494.352 41.9858C494.71 42.3032 495.149 42.4619 495.67 42.4619ZM492.948 34.6616C492.403 34.6616 492.13 34.3117 492.13 33.6118C492.13 33.091 492.569 32.6393 493.448 32.2568C494.335 31.8662 495.255 31.6709 496.207 31.6709H496.817C497.639 31.6709 498.364 31.8255 498.99 32.1348C499.617 32.4359 500.093 32.8468 500.418 33.3677C500.752 33.8885 500.956 34.568 501.029 35.4062C501.045 35.6016 501.053 36.5496 501.053 38.2505C501.053 39.9513 501.074 40.932 501.114 41.1924C501.163 41.4447 501.293 41.7539 501.505 42.1201C501.725 42.4863 501.834 42.7874 501.834 43.0234C501.834 43.2594 501.721 43.4629 501.493 43.6338C501.273 43.7965 500.951 43.8779 500.528 43.8779C500.105 43.8779 499.645 43.7762 499.149 43.5728C498.653 43.3612 498.29 43.2554 498.062 43.2554C498.038 43.2554 497.631 43.4019 496.842 43.6948C496.052 43.9797 495.385 44.1221 494.84 44.1221H494.571C493.66 44.1221 492.883 43.8332 492.24 43.2554C491.605 42.6776 491.288 41.8556 491.288 40.7896C491.288 39.7235 491.638 38.8934 492.337 38.2993C493.037 37.6971 493.888 37.2861 494.889 37.0664C495.19 37.0013 495.69 36.9159 496.39 36.8101C497.09 36.7043 497.566 36.5944 497.818 36.4805C498.258 36.277 498.478 35.8945 498.478 35.333C498.478 34.7633 498.29 34.3198 497.916 34.0024C497.542 33.6769 497.094 33.5142 496.573 33.5142C496.061 33.5142 495.385 33.7054 494.547 34.0879C493.709 34.4704 493.176 34.6616 492.948 34.6616ZM505.362 27.0322C505.362 26.4382 505.92 26.1411 507.035 26.1411H507.254C507.718 26.1411 508.036 26.255 508.207 26.4829C508.377 26.7026 508.463 27.134 508.463 27.7769L508.365 29.5957C508.341 29.8805 508.329 30.0352 508.329 30.0596L508.304 30.5234C508.288 30.8245 508.272 31.1297 508.255 31.439L508.219 31.9028L508.182 32.5986C508.052 35.0726 507.987 36.8996 507.987 38.0796C507.987 39.2515 508.04 40.0938 508.146 40.6064C508.251 41.1191 508.418 41.5545 508.646 41.9126C508.874 42.2707 508.988 42.5067 508.988 42.6206V42.7671C508.988 43.1252 508.809 43.41 508.451 43.6216C508.101 43.8332 507.625 43.939 507.022 43.939H506.388C506.013 43.939 505.684 43.8332 505.399 43.6216C505.122 43.4019 504.984 43.1536 504.984 42.877V42.5474L505.057 42.0347C505.155 41.3267 505.212 40.7977 505.228 40.4478C505.252 40.0897 505.289 39.5973 505.338 38.9707C505.387 38.3359 505.464 36.9891 505.57 34.9302C505.684 32.8631 505.741 31.7523 505.741 31.5977L505.79 30.6821L505.814 29.7788C505.814 28.9162 505.737 28.3018 505.582 27.9355C505.436 27.5612 505.362 27.2601 505.362 27.0322ZM519.4 27.0322C519.4 26.4382 519.958 26.1411 521.073 26.1411H521.292C521.756 26.1411 522.074 26.255 522.245 26.4829C522.416 26.7026 522.501 27.134 522.501 27.7769L522.403 29.5957C522.379 29.8805 522.367 30.0352 522.367 30.0596L522.342 30.5234C522.326 30.8245 522.31 31.1297 522.293 31.439L522.257 31.9028L522.22 32.5986C522.09 35.0726 522.025 36.8996 522.025 38.0796C522.025 39.2515 522.078 40.0938 522.184 40.6064C522.289 41.1191 522.456 41.5545 522.684 41.9126C522.912 42.2707 523.026 42.5067 523.026 42.6206V42.7671C523.026 43.1252 522.847 43.41 522.489 43.6216C522.139 43.8332 521.663 43.939 521.061 43.939H520.426C520.051 43.939 519.722 43.8332 519.437 43.6216C519.16 43.4019 519.022 43.1536 519.022 42.877V42.5474L519.095 42.0347C519.193 41.3267 519.25 40.7977 519.266 40.4478C519.291 40.0897 519.327 39.5973 519.376 38.9707C519.425 38.3359 519.502 36.9891 519.608 34.9302C519.722 32.8631 519.779 31.7523 519.779 31.5977L519.828 30.6821L519.852 29.7788C519.852 28.9162 519.775 28.3018 519.62 27.9355C519.474 27.5612 519.4 27.2601 519.4 27.0322ZM529.801 42.4619H530.118C530.785 42.4619 531.371 42.2381 531.876 41.7905C532.389 41.3348 532.645 40.8099 532.645 40.2158L532.669 40.0571V39.8984L532.694 39.52V38.8242C532.694 38.3522 532.454 38.1162 531.974 38.1162H531.424L531.339 38.1284L530.863 38.165C530.635 38.1976 530.472 38.2139 530.375 38.2139C529.715 38.2139 529.105 38.4621 528.543 38.9585C528.153 39.3084 527.958 39.8049 527.958 40.4478V40.6919C527.958 41.2371 528.132 41.6685 528.482 41.9858C528.84 42.3032 529.28 42.4619 529.801 42.4619ZM527.079 34.6616C526.533 34.6616 526.261 34.3117 526.261 33.6118C526.261 33.091 526.7 32.6393 527.579 32.2568C528.466 31.8662 529.386 31.6709 530.338 31.6709H530.948C531.77 31.6709 532.494 31.8255 533.121 32.1348C533.748 32.4359 534.224 32.8468 534.549 33.3677C534.883 33.8885 535.086 34.568 535.16 35.4062C535.176 35.6016 535.184 36.5496 535.184 38.2505C535.184 39.9513 535.204 40.932 535.245 41.1924C535.294 41.4447 535.424 41.7539 535.636 42.1201C535.855 42.4863 535.965 42.7874 535.965 43.0234C535.965 43.2594 535.851 43.4629 535.624 43.6338C535.404 43.7965 535.082 43.8779 534.659 43.8779C534.236 43.8779 533.776 43.7762 533.28 43.5728C532.783 43.3612 532.421 43.2554 532.193 43.2554C532.169 43.2554 531.762 43.4019 530.973 43.6948C530.183 43.9797 529.516 44.1221 528.971 44.1221H528.702C527.791 44.1221 527.014 43.8332 526.371 43.2554C525.736 42.6776 525.418 41.8556 525.418 40.7896C525.418 39.7235 525.768 38.8934 526.468 38.2993C527.168 37.6971 528.019 37.2861 529.02 37.0664C529.321 37.0013 529.821 36.9159 530.521 36.8101C531.221 36.7043 531.697 36.5944 531.949 36.4805C532.389 36.277 532.608 35.8945 532.608 35.333C532.608 34.7633 532.421 34.3198 532.047 34.0024C531.673 33.6769 531.225 33.5142 530.704 33.5142C530.191 33.5142 529.516 33.7054 528.678 34.0879C527.84 34.4704 527.306 34.6616 527.079 34.6616ZM547.391 36.9565C547.391 35.8742 547.163 35.0278 546.708 34.4175C546.26 33.799 545.723 33.4897 545.096 33.4897H544.742C543.863 33.4897 543.167 33.8397 542.655 34.5396C542.142 35.2313 541.886 36.2526 541.886 37.6035L541.861 37.8477L541.812 39.1172V39.9717C541.812 40.8587 541.992 41.4854 542.35 41.8516C542.716 42.2096 543.233 42.3887 543.9 42.3887H544.132C545.051 42.3887 545.82 41.9655 546.439 41.1191C547.057 40.2728 547.367 39.2433 547.367 38.0308L547.391 37.7622V36.9565ZM540.75 32.3667L542.459 32.6597C542.639 32.6597 543.058 32.5417 543.717 32.3057C544.376 32.0697 545.023 31.9517 545.658 31.9517C546.944 31.9517 547.985 32.4033 548.783 33.3066C549.58 34.2018 549.979 35.4103 549.979 36.9321V37.2373C549.979 38.2627 549.808 39.2067 549.466 40.0693C548.766 41.8516 547.599 43.0031 545.963 43.5239C545.499 43.6704 544.876 43.7721 544.095 43.8291C543.322 43.8861 542.773 43.9878 542.447 44.1343C541.951 44.3621 541.703 44.7731 541.703 45.3672C541.703 45.6195 541.747 45.9613 541.837 46.3926C541.935 46.8239 541.983 47.2227 541.983 47.5889C541.983 47.9551 541.776 48.3132 541.361 48.6631C540.946 49.0212 540.429 49.2002 539.811 49.2002H539.554C538.822 49.2002 538.456 48.9316 538.456 48.3945V48.1626C538.456 48.0487 538.533 47.7272 538.688 47.1982C538.85 46.6774 538.964 46.1159 539.029 45.5137C539.094 44.9196 539.2 43.4344 539.347 41.0581C539.493 38.6818 539.566 37.0583 539.566 36.1875C539.566 35.3086 539.509 34.5721 539.396 33.978C539.29 33.384 539.237 33.0625 539.237 33.0137C539.237 32.5824 539.741 32.3667 540.75 32.3667ZM553.421 37.1885C552.925 36.6839 552.677 35.9759 552.677 35.0645C552.677 34.153 553.084 33.3717 553.897 32.7207C554.711 32.0615 555.72 31.7319 556.925 31.7319H557.242C558.308 31.7319 559.155 31.8825 559.781 32.1836C560.416 32.4847 560.733 32.9364 560.733 33.5386C560.733 34.1326 560.469 34.4297 559.94 34.4297C559.802 34.4297 559.411 34.2669 558.768 33.9414C558.125 33.6077 557.519 33.4409 556.949 33.4409C556.38 33.4409 555.92 33.5711 555.57 33.8315C555.228 34.0838 555.057 34.4338 555.057 34.8813C555.057 35.3289 555.297 35.7196 555.777 36.0532C556.054 36.2485 556.705 36.5578 557.73 36.981C558.764 37.4041 559.5 37.811 559.94 38.2017C560.648 38.8283 561.002 39.6299 561.002 40.6064C561.002 41.583 560.587 42.4212 559.757 43.1211C558.927 43.8128 557.848 44.1587 556.522 44.1587H556.205C554.87 44.1587 553.869 43.9674 553.202 43.585C552.534 43.1943 552.201 42.6898 552.201 42.0713C552.201 41.4447 552.461 41.1313 552.982 41.1313C553.153 41.1313 553.596 41.3511 554.312 41.7905C555.037 42.23 555.745 42.4497 556.437 42.4497C557.136 42.4497 557.661 42.3032 558.011 42.0103C558.361 41.7091 558.536 41.3348 558.536 40.8872C558.536 40.4315 558.316 40.0327 557.877 39.6909C557.641 39.5037 556.965 39.166 555.851 38.6777C554.736 38.1813 553.926 37.6849 553.421 37.1885ZM565.848 36.5781V36.7734C565.848 37.0176 566.072 37.1396 566.52 37.1396H566.812L566.886 37.1274L567.484 37.0786C568.111 36.9891 568.517 36.9443 568.705 36.9443C569.592 36.9443 570.259 36.7775 570.707 36.4438C570.918 36.2811 571.024 35.9922 571.024 35.5771V35.4429C571.024 34.8325 570.82 34.3483 570.414 33.9902C570.015 33.6322 569.535 33.4531 568.973 33.4531H568.888L568.814 33.4653C568.025 33.4653 567.333 33.799 566.739 34.4663C566.145 35.1336 565.848 35.8376 565.848 36.5781ZM568.509 44.1587H568.241C566.686 44.1587 565.449 43.6663 564.53 42.6816C563.61 41.6888 563.15 40.3664 563.15 38.7144V38.1772C563.15 37.3879 563.305 36.5863 563.614 35.7725C564.241 34.1449 565.262 33.0218 566.678 32.4033C567.427 32.0697 568.188 31.9028 568.961 31.9028H569.486C570.552 31.9028 571.451 32.2609 572.184 32.9771C572.924 33.6851 573.294 34.6006 573.294 35.7236V35.9678C573.294 36.7653 572.977 37.3309 572.342 37.6646C571.903 37.9006 570.877 38.1366 569.266 38.3726C567.655 38.6086 566.776 38.751 566.629 38.7998C566.141 38.9707 565.897 39.2962 565.897 39.7764C565.897 40.4437 566.182 41.0133 566.751 41.4854C567.321 41.9574 568.086 42.1934 569.046 42.1934C569.494 42.1934 570.104 42.0713 570.877 41.8271C571.651 41.583 572.098 41.4609 572.22 41.4609C572.635 41.4609 572.843 41.64 572.843 41.998C572.843 42.4782 572.375 42.9583 571.439 43.4385C570.503 43.9186 569.527 44.1587 568.509 44.1587ZM576.81 37.1885C576.314 36.6839 576.065 35.9759 576.065 35.0645C576.065 34.153 576.472 33.3717 577.286 32.7207C578.1 32.0615 579.109 31.7319 580.313 31.7319H580.631C581.697 31.7319 582.543 31.8825 583.17 32.1836C583.805 32.4847 584.122 32.9364 584.122 33.5386C584.122 34.1326 583.858 34.4297 583.329 34.4297C583.19 34.4297 582.8 34.2669 582.157 33.9414C581.514 33.6077 580.908 33.4409 580.338 33.4409C579.768 33.4409 579.308 33.5711 578.958 33.8315C578.617 34.0838 578.446 34.4338 578.446 34.8813C578.446 35.3289 578.686 35.7196 579.166 36.0532C579.443 36.2485 580.094 36.5578 581.119 36.981C582.153 37.4041 582.889 37.811 583.329 38.2017C584.037 38.8283 584.391 39.6299 584.391 40.6064C584.391 41.583 583.976 42.4212 583.146 43.1211C582.315 43.8128 581.237 44.1587 579.911 44.1587H579.593C578.259 44.1587 577.258 43.9674 576.59 43.585C575.923 43.1943 575.589 42.6898 575.589 42.0713C575.589 41.4447 575.85 41.1313 576.371 41.1313C576.542 41.1313 576.985 41.3511 577.701 41.7905C578.425 42.23 579.133 42.4497 579.825 42.4497C580.525 42.4497 581.05 42.3032 581.4 42.0103C581.75 41.7091 581.925 41.3348 581.925 40.8872C581.925 40.4315 581.705 40.0327 581.266 39.6909C581.03 39.5037 580.354 39.166 579.239 38.6777C578.124 38.1813 577.315 37.6849 576.81 37.1885ZM596 38.8486C596 39.9147 596.244 40.8018 596.732 41.5098C597.22 42.2178 597.818 42.5718 598.526 42.5718H598.893C599.731 42.5718 600.439 42.1486 601.017 41.3022C601.603 40.4559 601.896 39.3288 601.896 37.9209V37.1152C601.896 36.0247 601.655 35.1336 601.175 34.4419C600.703 33.742 600.093 33.3921 599.344 33.3921H599.1C598.229 33.3921 597.497 33.8234 596.903 34.686C596.317 35.5487 596.024 36.5781 596.024 37.7744L596 38.0552V38.8486ZM598.758 44.2319H598.368C596.944 44.2319 595.784 43.7355 594.889 42.7427C593.993 41.7498 593.546 40.342 593.546 38.519L593.558 38.3115C593.558 36.3096 594.087 34.7308 595.145 33.5752C595.698 32.9648 596.329 32.5173 597.037 32.2324C597.753 31.9395 598.433 31.793 599.076 31.793H599.674C600.39 31.793 601.078 31.9517 601.737 32.269C603.625 33.1805 604.569 34.8976 604.569 37.4204V37.6157C604.561 38.4377 604.426 39.2718 604.166 40.1182C603.645 41.7865 602.644 42.9665 601.163 43.6582C600.341 44.0407 599.54 44.2319 598.758 44.2319ZM607.877 37.6523V36.7124C607.877 35.5812 607.816 34.7552 607.694 34.2344C607.572 33.7054 607.511 33.3351 607.511 33.1235C607.511 32.6271 607.873 32.3789 608.597 32.3789C609.321 32.3789 609.846 32.5132 610.172 32.7817C610.261 32.855 610.375 32.9974 610.514 33.209C610.66 33.4206 610.79 33.5264 610.904 33.5264C610.929 33.5264 611.283 33.3188 611.966 32.9038C612.65 32.4888 613.236 32.2812 613.724 32.2812H613.907C614.306 32.2812 614.623 32.3789 614.859 32.5742C615.095 32.7614 615.213 32.9933 615.213 33.27V33.4287C615.213 33.7624 615.095 34.0024 614.859 34.1489C614.632 34.2954 614.265 34.3687 613.761 34.3687C612.613 34.3687 611.775 34.7715 611.246 35.5771C610.725 36.3828 610.465 37.807 610.465 39.8496C610.465 40.1426 610.514 40.5942 610.611 41.2046C610.717 41.8149 610.77 42.2747 610.77 42.584C610.77 42.8932 610.603 43.1903 610.27 43.4751C609.936 43.7599 609.513 43.9023 609 43.9023H608.585C608.137 43.9023 607.792 43.7965 607.547 43.585C607.311 43.3652 607.193 43.1007 607.193 42.7915C607.193 42.4741 607.25 42.1527 607.364 41.8271C607.674 40.9482 607.828 39.9798 607.828 38.9219C607.861 38.3359 607.877 37.9128 607.877 37.6523ZM626.273 36.5781V36.7734C626.273 37.0176 626.497 37.1396 626.944 37.1396H627.237L627.311 37.1274L627.909 37.0786C628.535 36.9891 628.942 36.9443 629.129 36.9443C630.016 36.9443 630.684 36.7775 631.131 36.4438C631.343 36.2811 631.449 35.9922 631.449 35.5771V35.4429C631.449 34.8325 631.245 34.3483 630.838 33.9902C630.44 33.6322 629.959 33.4531 629.398 33.4531H629.312L629.239 33.4653C628.45 33.4653 627.758 33.799 627.164 34.4663C626.57 35.1336 626.273 35.8376 626.273 36.5781ZM628.934 44.1587H628.666C627.111 44.1587 625.874 43.6663 624.955 42.6816C624.035 41.6888 623.575 40.3664 623.575 38.7144V38.1772C623.575 37.3879 623.73 36.5863 624.039 35.7725C624.666 34.1449 625.687 33.0218 627.103 32.4033C627.852 32.0697 628.613 31.9028 629.386 31.9028H629.911C630.977 31.9028 631.876 32.2609 632.608 32.9771C633.349 33.6851 633.719 34.6006 633.719 35.7236V35.9678C633.719 36.7653 633.402 37.3309 632.767 37.6646C632.328 37.9006 631.302 38.1366 629.691 38.3726C628.08 38.6086 627.201 38.751 627.054 38.7998C626.566 38.9707 626.322 39.2962 626.322 39.7764C626.322 40.4437 626.607 41.0133 627.176 41.4854C627.746 41.9574 628.511 42.1934 629.471 42.1934C629.919 42.1934 630.529 42.0713 631.302 41.8271C632.075 41.583 632.523 41.4609 632.645 41.4609C633.06 41.4609 633.268 41.64 633.268 41.998C633.268 42.4782 632.8 42.9583 631.864 43.4385C630.928 43.9186 629.951 44.1587 628.934 44.1587ZM637.149 37.6523V36.7124C637.149 35.5812 637.088 34.7552 636.966 34.2344C636.844 33.7054 636.783 33.3351 636.783 33.1235C636.783 32.6271 637.145 32.3789 637.87 32.3789C638.594 32.3789 639.119 32.5132 639.444 32.7817C639.534 32.855 639.648 32.9974 639.786 33.209C639.933 33.4206 640.063 33.5264 640.177 33.5264C640.201 33.5264 640.555 33.3188 641.239 32.9038C641.922 32.4888 642.508 32.2812 642.997 32.2812H643.18C643.578 32.2812 643.896 32.3789 644.132 32.5742C644.368 32.7614 644.486 32.9933 644.486 33.27V33.4287C644.486 33.7624 644.368 34.0024 644.132 34.1489C643.904 34.2954 643.538 34.3687 643.033 34.3687C641.886 34.3687 641.048 34.7715 640.519 35.5771C639.998 36.3828 639.737 37.807 639.737 39.8496C639.737 40.1426 639.786 40.5942 639.884 41.2046C639.99 41.8149 640.042 42.2747 640.042 42.584C640.042 42.8932 639.876 43.1903 639.542 43.4751C639.208 43.7599 638.785 43.9023 638.272 43.9023H637.857C637.41 43.9023 637.064 43.7965 636.82 43.585C636.584 43.3652 636.466 43.1007 636.466 42.7915C636.466 42.4741 636.523 42.1527 636.637 41.8271C636.946 40.9482 637.101 39.9798 637.101 38.9219C637.133 38.3359 637.149 37.9128 637.149 37.6523ZM647.232 37.6523V36.7124C647.232 35.5812 647.171 34.7552 647.049 34.2344C646.927 33.7054 646.866 33.3351 646.866 33.1235C646.866 32.6271 647.228 32.3789 647.953 32.3789C648.677 32.3789 649.202 32.5132 649.527 32.7817C649.617 32.855 649.731 32.9974 649.869 33.209C650.016 33.4206 650.146 33.5264 650.26 33.5264C650.284 33.5264 650.638 33.3188 651.322 32.9038C652.005 32.4888 652.591 32.2812 653.08 32.2812H653.263C653.661 32.2812 653.979 32.3789 654.215 32.5742C654.451 32.7614 654.569 32.9933 654.569 33.27V33.4287C654.569 33.7624 654.451 34.0024 654.215 34.1489C653.987 34.2954 653.621 34.3687 653.116 34.3687C651.969 34.3687 651.131 34.7715 650.602 35.5771C650.081 36.3828 649.82 37.807 649.82 39.8496C649.82 40.1426 649.869 40.5942 649.967 41.2046C650.073 41.8149 650.125 42.2747 650.125 42.584C650.125 42.8932 649.959 43.1903 649.625 43.4751C649.291 43.7599 648.868 43.9023 648.355 43.9023H647.94C647.493 43.9023 647.147 43.7965 646.903 43.585C646.667 43.3652 646.549 43.1007 646.549 42.7915C646.549 42.4741 646.606 42.1527 646.72 41.8271C647.029 40.9482 647.184 39.9798 647.184 38.9219C647.216 38.3359 647.232 37.9128 647.232 37.6523ZM658.524 38.8486C658.524 39.9147 658.768 40.8018 659.256 41.5098C659.745 42.2178 660.343 42.5718 661.051 42.5718H661.417C662.255 42.5718 662.963 42.1486 663.541 41.3022C664.127 40.4559 664.42 39.3288 664.42 37.9209V37.1152C664.42 36.0247 664.18 35.1336 663.7 34.4419C663.228 33.742 662.617 33.3921 661.869 33.3921H661.625C660.754 33.3921 660.021 33.8234 659.427 34.686C658.841 35.5487 658.548 36.5781 658.548 37.7744L658.524 38.0552V38.8486ZM661.283 44.2319H660.892C659.468 44.2319 658.308 43.7355 657.413 42.7427C656.518 41.7498 656.07 40.342 656.07 38.519L656.083 38.3115C656.083 36.3096 656.611 34.7308 657.669 33.5752C658.223 32.9648 658.854 32.5173 659.562 32.2324C660.278 31.9395 660.957 31.793 661.6 31.793H662.198C662.914 31.793 663.602 31.9517 664.261 32.269C666.149 33.1805 667.093 34.8976 667.093 37.4204V37.6157C667.085 38.4377 666.951 39.2718 666.69 40.1182C666.17 41.7865 665.169 42.9665 663.688 43.6582C662.866 44.0407 662.064 44.2319 661.283 44.2319ZM670.401 37.6523V36.7124C670.401 35.5812 670.34 34.7552 670.218 34.2344C670.096 33.7054 670.035 33.3351 670.035 33.1235C670.035 32.6271 670.397 32.3789 671.122 32.3789C671.846 32.3789 672.371 32.5132 672.696 32.7817C672.786 32.855 672.9 32.9974 673.038 33.209C673.185 33.4206 673.315 33.5264 673.429 33.5264C673.453 33.5264 673.807 33.3188 674.491 32.9038C675.174 32.4888 675.76 32.2812 676.249 32.2812H676.432C676.83 32.2812 677.148 32.3789 677.384 32.5742C677.62 32.7614 677.738 32.9933 677.738 33.27V33.4287C677.738 33.7624 677.62 34.0024 677.384 34.1489C677.156 34.2954 676.79 34.3687 676.285 34.3687C675.138 34.3687 674.299 34.7715 673.771 35.5771C673.25 36.3828 672.989 37.807 672.989 39.8496C672.989 40.1426 673.038 40.5942 673.136 41.2046C673.242 41.8149 673.294 42.2747 673.294 42.584C673.294 42.8932 673.128 43.1903 672.794 43.4751C672.46 43.7599 672.037 43.9023 671.524 43.9023H671.109C670.662 43.9023 670.316 43.7965 670.072 43.585C669.836 43.3652 669.718 43.1007 669.718 42.7915C669.718 42.4741 669.775 42.1527 669.889 41.8271C670.198 40.9482 670.353 39.9798 670.353 38.9219C670.385 38.3359 670.401 37.9128 670.401 37.6523ZM680.619 37.1885C680.122 36.6839 679.874 35.9759 679.874 35.0645C679.874 34.153 680.281 33.3717 681.095 32.7207C681.909 32.0615 682.918 31.7319 684.122 31.7319H684.439C685.506 31.7319 686.352 31.8825 686.979 32.1836C687.613 32.4847 687.931 32.9364 687.931 33.5386C687.931 34.1326 687.666 34.4297 687.137 34.4297C686.999 34.4297 686.608 34.2669 685.965 33.9414C685.322 33.6077 684.716 33.4409 684.146 33.4409C683.577 33.4409 683.117 33.5711 682.767 33.8315C682.425 34.0838 682.254 34.4338 682.254 34.8813C682.254 35.3289 682.494 35.7196 682.975 36.0532C683.251 36.2485 683.902 36.5578 684.928 36.981C685.961 37.4041 686.698 37.811 687.137 38.2017C687.845 38.8283 688.199 39.6299 688.199 40.6064C688.199 41.583 687.784 42.4212 686.954 43.1211C686.124 43.8128 685.046 44.1587 683.719 44.1587H683.402C682.067 44.1587 681.066 43.9674 680.399 43.585C679.732 43.1943 679.398 42.6898 679.398 42.0713C679.398 41.4447 679.658 41.1313 680.179 41.1313C680.35 41.1313 680.794 41.3511 681.51 41.7905C682.234 42.23 682.942 42.4497 683.634 42.4497C684.334 42.4497 684.859 42.3032 685.208 42.0103C685.558 41.7091 685.733 41.3348 685.733 40.8872C685.733 40.4315 685.514 40.0327 685.074 39.6909C684.838 39.5037 684.163 39.166 683.048 38.6777C681.933 38.1813 681.123 37.6849 680.619 37.1885ZM692.533 44.1953H692.154C691.747 44.1953 691.43 44.1017 691.202 43.9146C690.982 43.7274 690.873 43.4792 690.873 43.1699C690.856 43.1048 690.848 43.0519 690.848 43.0112L690.824 42.8037V42.584L690.836 42.5352V42.4253C690.852 42.3602 690.86 42.3073 690.86 42.2666C690.86 41.9004 690.982 41.6156 691.227 41.4121C691.479 41.2005 691.756 41.0947 692.057 41.0947L692.313 41.0581H692.643C693.53 41.0581 693.973 41.522 693.973 42.4497V42.6206L693.924 43.0356C693.924 43.41 693.782 43.6989 693.497 43.9023C693.22 44.0977 692.899 44.1953 692.533 44.1953Z" fill="black"/>
</svg>
