<svg width="759" height="87" viewBox="0 0 759 87" fill="none" xmlns="http://www.w3.org/2000/svg">
<rect width="758.367" height="87" rx="18" fill="#D9D9D9"/>
<path d="M25.5303 52C25.1803 52 25.0053 51.825 25.0053 51.475V47.275C25.0053 46.925 25.1803 46.75 25.5303 46.75H34.3503V40.45H27.2733C26.9233 40.45 26.7483 40.275 26.7483 39.925V35.725C26.7483 35.375 26.9233 35.2 27.2733 35.2H34.3503V29.593H25.5303C25.1803 29.593 25.0053 29.418 25.0053 29.068V24.532C25.0053 24.182 25.1803 24.007 25.5303 24.007H35.9673C36.2893 24.007 36.5693 24.119 36.8073 24.343L41.0073 28.543C41.2313 28.781 41.3433 29.061 41.3433 29.383V33.583C41.3433 33.877 41.2733 34.087 41.1333 34.213L38.4033 37.342V38.665L41.1333 41.773C41.2733 41.913 41.3433 42.123 41.3433 42.403V46.603C41.3433 46.939 41.2313 47.219 41.0073 47.443L36.8073 51.643C36.5693 51.881 36.2893 52 35.9673 52H25.5303Z" fill="#2ECC71"/>
<path d="M87.5271 25.1421C88.463 25.1421 88.9309 25.5286 88.9309 26.3018C88.9309 26.3587 88.8861 26.6029 88.7966 27.0342C88.7071 27.4655 88.6176 28.7635 88.5281 30.9282C88.4386 33.0848 88.3938 34.7775 88.3938 36.0063C88.3938 37.2271 88.6868 38.2321 89.2727 39.0215C89.8505 39.8027 90.6562 40.1934 91.6897 40.1934C93.6754 40.1934 94.9937 39.3063 95.6448 37.5322C95.8319 37.0114 96.0191 35.8721 96.2063 34.1143C96.4016 32.3564 96.4993 30.265 96.4993 27.8398C96.4993 27.7422 96.4789 27.5021 96.4382 27.1196L96.3284 26.1675C96.3284 25.8257 96.426 25.5612 96.6213 25.374C96.8167 25.1868 97.1747 25.0933 97.6956 25.0933C98.2245 25.0933 98.5907 25.1665 98.7942 25.313C99.2174 25.6222 99.429 26.1146 99.429 26.79C99.429 26.8307 99.2458 27.437 98.8796 28.6089C98.7494 29.0321 98.6477 30.0697 98.5745 31.7217C98.5094 33.3737 98.4565 34.5049 98.4158 35.1152C98.2937 36.8486 98.0292 38.1548 97.6223 39.0337C97.2154 39.9045 96.5155 40.6125 95.5227 41.1577C94.5299 41.6948 93.3132 41.9634 91.8728 41.9634H91.4211C89.4273 41.9634 87.934 41.3327 86.9412 40.0713C86.461 39.4609 86.1477 38.7692 86.0012 37.9961C85.8547 37.2148 85.7815 36.2627 85.7815 35.1396L85.7937 34.688C85.8181 33.7847 85.8425 32.8895 85.8669 32.0024C85.8914 31.1073 85.9036 30.3423 85.9036 29.7075C85.9036 29.0646 85.8588 28.5926 85.7693 28.2915L85.5251 27.6689C85.4194 27.3597 85.3665 27.1359 85.3665 26.9976C85.3665 26.2407 85.6269 25.6873 86.1477 25.3374C86.343 25.2072 86.8028 25.1421 87.5271 25.1421ZM102.639 35.1885C102.143 34.6839 101.895 33.9759 101.895 33.0645C101.895 32.153 102.302 31.3717 103.115 30.7207C103.929 30.0615 104.938 29.7319 106.143 29.7319H106.46C107.526 29.7319 108.373 29.8825 108.999 30.1836C109.634 30.4847 109.951 30.9364 109.951 31.5386C109.951 32.1326 109.687 32.4297 109.158 32.4297C109.02 32.4297 108.629 32.2669 107.986 31.9414C107.343 31.6077 106.737 31.4409 106.167 31.4409C105.598 31.4409 105.138 31.5711 104.788 31.8315C104.446 32.0838 104.275 32.4338 104.275 32.8813C104.275 33.3289 104.515 33.7196 104.995 34.0532C105.272 34.2485 105.923 34.5578 106.948 34.981C107.982 35.4041 108.719 35.811 109.158 36.2017C109.866 36.8283 110.22 37.6299 110.22 38.6064C110.22 39.583 109.805 40.4212 108.975 41.1211C108.145 41.8128 107.066 42.1587 105.74 42.1587H105.423C104.088 42.1587 103.087 41.9674 102.42 41.585C101.752 41.1943 101.419 40.6898 101.419 40.0713C101.419 39.4447 101.679 39.1313 102.2 39.1313C102.371 39.1313 102.814 39.3511 103.531 39.7905C104.255 40.23 104.963 40.4497 105.655 40.4497C106.354 40.4497 106.879 40.3032 107.229 40.0103C107.579 39.7091 107.754 39.3348 107.754 38.8872C107.754 38.4315 107.534 38.0327 107.095 37.6909C106.859 37.5037 106.184 37.166 105.069 36.6777C103.954 36.1813 103.144 35.6849 102.639 35.1885ZM112.869 31.0259C112.869 30.5132 113.3 30.2568 114.163 30.2568H114.444C114.981 30.2568 115.343 30.4725 115.53 30.9038C115.717 31.3351 115.811 32.1408 115.811 33.3208L115.664 37.3979C115.664 39.2941 116.344 40.2422 117.703 40.2422C118.199 40.2422 118.675 40.0672 119.131 39.7173C119.587 39.3674 119.925 38.9482 120.144 38.46C120.624 37.3857 120.865 35.4611 120.865 32.686L120.84 32.1489V31.6729C120.84 31.2415 120.938 30.9282 121.133 30.7329C121.328 30.5376 121.67 30.4399 122.158 30.4399C122.647 30.4399 122.968 30.5579 123.123 30.7939C123.277 31.0299 123.355 31.4124 123.355 31.9414L123.33 32.5884L123.281 35.4692C123.281 35.9331 123.31 36.6452 123.367 37.6055C123.424 38.5658 123.485 39.2697 123.55 39.7173C123.615 40.1567 123.648 40.4172 123.648 40.4985C123.648 41.2228 123.115 41.585 122.049 41.585C121.682 41.585 121.316 41.4507 120.95 41.1821C120.592 40.9054 120.336 40.7671 120.181 40.7671C120.034 40.7671 119.782 40.8566 119.424 41.0356C118.407 41.5483 117.54 41.8047 116.824 41.8047H116.519C115.355 41.8047 114.501 41.4466 113.955 40.7305C113.41 40.0143 113.137 38.7244 113.137 36.8608L113.26 33.1621C113.26 32.6982 113.194 32.2547 113.064 31.8315C112.934 31.4084 112.869 31.1398 112.869 31.0259ZM130.581 40.4619H130.899C131.566 40.4619 132.152 40.2381 132.656 39.7905C133.169 39.3348 133.426 38.8099 133.426 38.2158L133.45 38.0571V37.8984L133.474 37.52V36.8242C133.474 36.3522 133.234 36.1162 132.754 36.1162H132.205L132.119 36.1284L131.643 36.165C131.415 36.1976 131.253 36.2139 131.155 36.2139C130.496 36.2139 129.885 36.4621 129.324 36.9585C128.933 37.3084 128.738 37.8049 128.738 38.4478V38.6919C128.738 39.2371 128.913 39.6685 129.263 39.9858C129.621 40.3032 130.06 40.4619 130.581 40.4619ZM127.859 32.6616C127.314 32.6616 127.041 32.3117 127.041 31.6118C127.041 31.091 127.481 30.6393 128.36 30.2568C129.247 29.8662 130.166 29.6709 131.118 29.6709H131.729C132.551 29.6709 133.275 29.8255 133.902 30.1348C134.528 30.4359 135.004 30.8468 135.33 31.3677C135.663 31.8885 135.867 32.568 135.94 33.4062C135.956 33.6016 135.965 34.5496 135.965 36.2505C135.965 37.9513 135.985 38.932 136.026 39.1924C136.074 39.4447 136.205 39.7539 136.416 40.1201C136.636 40.4863 136.746 40.7874 136.746 41.0234C136.746 41.2594 136.632 41.4629 136.404 41.6338C136.184 41.7965 135.863 41.8779 135.44 41.8779C135.017 41.8779 134.557 41.7762 134.06 41.5728C133.564 41.3612 133.202 41.2554 132.974 41.2554C132.949 41.2554 132.543 41.4019 131.753 41.6948C130.964 41.9797 130.296 42.1221 129.751 42.1221H129.483C128.571 42.1221 127.794 41.8332 127.151 41.2554C126.516 40.6776 126.199 39.8556 126.199 38.7896C126.199 37.7235 126.549 36.8934 127.249 36.2993C127.949 35.6971 128.799 35.2861 129.8 35.0664C130.101 35.0013 130.602 34.9159 131.302 34.8101C132.001 34.7043 132.477 34.5944 132.73 34.4805C133.169 34.277 133.389 33.8945 133.389 33.333C133.389 32.7633 133.202 32.3198 132.827 32.0024C132.453 31.6769 132.005 31.5142 131.485 31.5142C130.972 31.5142 130.296 31.7054 129.458 32.0879C128.62 32.4704 128.087 32.6616 127.859 32.6616ZM140.274 25.0322C140.274 24.4382 140.831 24.1411 141.946 24.1411H142.166C142.63 24.1411 142.947 24.255 143.118 24.4829C143.289 24.7026 143.374 25.134 143.374 25.7769L143.277 27.5957C143.252 27.8805 143.24 28.0352 143.24 28.0596L143.216 28.5234C143.199 28.8245 143.183 29.1297 143.167 29.439L143.13 29.9028L143.094 30.5986C142.963 33.0726 142.898 34.8996 142.898 36.0796C142.898 37.2515 142.951 38.0938 143.057 38.6064C143.163 39.1191 143.33 39.5545 143.557 39.9126C143.785 40.2707 143.899 40.5067 143.899 40.6206V40.7671C143.899 41.1252 143.72 41.41 143.362 41.6216C143.012 41.8332 142.536 41.939 141.934 41.939H141.299C140.925 41.939 140.595 41.8332 140.31 41.6216C140.034 41.4019 139.895 41.1536 139.895 40.877V40.5474L139.969 40.0347C140.066 39.3267 140.123 38.7977 140.139 38.4478C140.164 38.0897 140.2 37.5973 140.249 36.9707C140.298 36.3359 140.375 34.9891 140.481 32.9302C140.595 30.8631 140.652 29.7523 140.652 29.5977L140.701 28.6821L140.725 27.7788C140.725 26.9162 140.648 26.3018 140.493 25.9355C140.347 25.5612 140.274 25.2601 140.274 25.0322ZM147.451 25.0322C147.451 24.4382 148.009 24.1411 149.124 24.1411H149.344C149.807 24.1411 150.125 24.255 150.296 24.4829C150.467 24.7026 150.552 25.134 150.552 25.7769L150.454 27.5957C150.43 27.8805 150.418 28.0352 150.418 28.0596L150.393 28.5234C150.377 28.8245 150.361 29.1297 150.344 29.439L150.308 29.9028L150.271 30.5986C150.141 33.0726 150.076 34.8996 150.076 36.0796C150.076 37.2515 150.129 38.0938 150.235 38.6064C150.34 39.1191 150.507 39.5545 150.735 39.9126C150.963 40.2707 151.077 40.5067 151.077 40.6206V40.7671C151.077 41.1252 150.898 41.41 150.54 41.6216C150.19 41.8332 149.714 41.939 149.112 41.939H148.477C148.102 41.939 147.773 41.8332 147.488 41.6216C147.211 41.4019 147.073 41.1536 147.073 40.877V40.5474L147.146 40.0347C147.244 39.3267 147.301 38.7977 147.317 38.4478C147.342 38.0897 147.378 37.5973 147.427 36.9707C147.476 36.3359 147.553 34.9891 147.659 32.9302C147.773 30.8631 147.83 29.7523 147.83 29.5977L147.879 28.6821L147.903 27.7788C147.903 26.9162 147.826 26.3018 147.671 25.9355C147.525 25.5612 147.451 25.2601 147.451 25.0322ZM157.998 41.9512C157.998 41.528 157.709 40.7874 157.132 39.7295C156.554 38.6634 156.07 37.6706 155.679 36.751C154.344 33.6178 153.677 31.8071 153.677 31.3188C153.677 31.0991 153.803 30.8997 154.055 30.7207C154.316 30.5417 154.747 30.4521 155.349 30.4521C155.952 30.4521 156.375 30.7085 156.619 31.2212C156.643 31.2782 156.729 31.6322 156.875 32.2832C157.982 36.3278 158.674 38.4478 158.95 38.6431C159.374 38.6431 159.951 37.6543 160.684 35.6768C161.18 34.334 161.485 33.2069 161.599 32.2954C161.721 31.384 161.819 30.859 161.892 30.7207C162.12 30.2975 162.592 30.0859 163.308 30.0859C164.033 30.0859 164.395 30.3667 164.395 30.9282C164.395 31.327 164.248 31.86 163.955 32.5273C163.662 33.1947 163.386 33.9189 163.125 34.7002C161.636 39.1598 160.558 41.9756 159.89 43.1475C159.223 44.3275 158.519 45.2552 157.779 45.9307C157.038 46.6143 156.293 46.9561 155.545 46.9561C154.804 46.9561 154.434 46.7445 154.434 46.3213C154.434 45.9469 154.812 45.6051 155.569 45.2959C156.334 44.9867 156.867 44.6286 157.168 44.2217C157.722 43.4811 157.998 42.7243 157.998 41.9512ZM175.662 36.8486C175.662 37.9147 175.906 38.8018 176.394 39.5098C176.883 40.2178 177.481 40.5718 178.189 40.5718H178.555C179.393 40.5718 180.101 40.1486 180.679 39.3022C181.265 38.4559 181.558 37.3288 181.558 35.9209V35.1152C181.558 34.0247 181.318 33.1336 180.838 32.4419C180.366 31.742 179.755 31.3921 179.007 31.3921H178.762C177.892 31.3921 177.159 31.8234 176.565 32.686C175.979 33.5487 175.686 34.5781 175.686 35.7744L175.662 36.0552V36.8486ZM178.421 42.2319H178.03C176.606 42.2319 175.446 41.7355 174.551 40.7427C173.656 39.7498 173.208 38.342 173.208 36.519L173.22 36.3115C173.22 34.3096 173.749 32.7308 174.807 31.5752C175.361 30.9648 175.991 30.5173 176.699 30.2324C177.416 29.9395 178.095 29.793 178.738 29.793H179.336C180.052 29.793 180.74 29.9517 181.399 30.269C183.287 31.1805 184.231 32.8976 184.231 35.4204V35.6157C184.223 36.4377 184.089 37.2718 183.828 38.1182C183.308 39.7865 182.307 40.9665 180.825 41.6582C180.003 42.0407 179.202 42.2319 178.421 42.2319ZM197.964 40.5352C197.964 41.1374 197.439 41.4385 196.389 41.4385C195.795 41.4385 195.397 41.2961 195.193 41.0112C195.095 40.8729 195.047 40.5474 195.047 40.0347L195.01 39.2534C194.953 38.3989 194.925 37.5404 194.925 36.6777C194.925 34.8141 194.762 33.5649 194.436 32.9302C194.119 32.2873 193.582 31.9658 192.825 31.9658C192.32 31.9658 191.852 32.1164 191.421 32.4175C190.998 32.7186 190.672 33.1377 190.445 33.6748C189.973 34.7734 189.737 36.8039 189.737 39.7661C189.737 40.4416 189.606 40.9176 189.346 41.1943C189.094 41.471 188.768 41.6094 188.369 41.6094H188.125C187.214 41.6094 186.758 41.2472 186.758 40.5229V40.23C186.758 40.1405 186.807 39.9451 186.905 39.644L187.1 39.0825C187.295 38.4233 187.393 37.0114 187.393 34.8467L187.454 31.2212C187.454 30.7573 187.706 30.5254 188.211 30.5254C188.715 30.5254 189.212 30.6922 189.7 31.0259C190.196 31.3595 190.51 31.5264 190.64 31.5264C190.778 31.5264 191.018 31.4328 191.36 31.2456C192.508 30.619 193.427 30.3057 194.119 30.3057H194.436C195.681 30.3057 196.556 30.8672 197.061 31.9902C197.305 32.5192 197.427 33.6585 197.427 35.4082V35.4937C197.427 35.6401 197.423 35.7866 197.415 35.9331C197.415 36.3319 197.415 36.5394 197.415 36.5557C197.415 36.7103 197.415 36.8608 197.415 37.0073C197.415 37.1213 197.415 37.2311 197.415 37.3369C197.415 37.9635 197.435 38.3908 197.476 38.6187C197.533 38.9279 197.626 39.2493 197.757 39.583C197.895 39.9492 197.964 40.2666 197.964 40.5352ZM214.041 40.6938C214.041 41.0194 213.841 41.3123 213.443 41.5728C213.052 41.825 212.519 41.9512 211.844 41.9512C210.582 41.9512 209.695 41.4832 209.182 40.5474C208.865 39.9614 208.706 38.5902 208.706 36.4336C208.706 34.277 208.67 33.0238 208.596 32.6738C208.523 32.3239 208.32 31.9821 207.986 31.6484C207.652 31.3148 207.486 31.0584 207.486 30.8794C207.486 30.8143 207.88 30.387 208.67 29.5977C208.841 29.4268 209.011 29.0483 209.182 28.4624C209.361 27.8765 209.488 27.4899 209.561 27.3027C209.805 26.7168 210.126 26.4238 210.525 26.4238H210.72C211.07 26.4238 211.319 26.5581 211.465 26.8267C211.522 26.9325 211.608 27.3149 211.721 27.9741C211.844 28.6252 211.982 29.0443 212.136 29.2314C212.291 29.4186 212.678 29.6261 213.296 29.854C213.923 30.0737 214.236 30.3097 214.236 30.562V30.6963C214.236 31.0218 213.878 31.2985 213.162 31.5264C212.454 31.7461 211.998 32.1001 211.795 32.5884C211.396 33.5731 211.197 35.1763 211.197 37.3979C211.197 38.4396 211.376 39.1476 211.734 39.522C211.953 39.7498 212.393 39.9085 213.052 39.998C213.711 40.0876 214.041 40.3195 214.041 40.6938ZM220.816 26.1309V26.2773C220.816 26.6924 220.694 27.0464 220.449 27.3394C220.213 27.6242 219.847 27.7666 219.351 27.7666H219.156L218.777 27.7178C218.557 27.7178 218.346 27.616 218.142 27.4126C217.939 27.2091 217.837 26.904 217.837 26.4971V26.3506L217.898 25.9111C217.898 25.7402 218 25.5286 218.203 25.2764C218.415 25.0241 218.684 24.8979 219.009 24.8979L219.29 24.8613H219.534L219.876 24.9102C220.087 24.9102 220.295 25.016 220.498 25.2275C220.71 25.431 220.816 25.7321 220.816 26.1309ZM220.242 31.2822L220.108 34.5659L220.083 34.8955L220.047 35.8965V36.3726C220.047 37.5444 220.079 38.3135 220.144 38.6797C220.218 39.0459 220.352 39.404 220.547 39.7539C220.742 40.0957 220.84 40.3439 220.84 40.4985V40.6084C220.84 41.0072 220.637 41.3245 220.23 41.5605C219.823 41.7965 219.269 41.9146 218.57 41.9146H218.264C217.858 41.9146 217.548 41.825 217.337 41.646C217.125 41.4588 217.019 41.2594 217.019 41.0479V40.7793C217.019 40.6735 217.113 40.2992 217.3 39.6562C217.487 39.0052 217.581 38.1222 217.581 37.0073C217.605 36.6899 217.617 36.4702 217.617 36.3481L217.654 35.6768L217.678 35.3472C217.719 34.7775 217.74 34.334 217.74 34.0166L217.752 33.5283C217.752 32.918 217.65 32.3768 217.447 31.9048C217.251 31.4328 217.154 31.1398 217.154 31.0259C217.154 30.4399 217.707 30.147 218.814 30.147H219.253C219.668 30.147 219.937 30.2568 220.059 30.4766C220.181 30.6882 220.242 30.9567 220.242 31.2822ZM228.933 30.7085C229.56 30.4725 230.203 30.3545 230.862 30.3545C231.521 30.3545 232.205 30.5498 232.913 30.9404C233.629 31.3311 234.02 31.5264 234.085 31.5264C234.15 31.5264 234.589 31.327 235.403 30.9282C236.217 30.5295 236.949 30.3301 237.6 30.3301C238.26 30.3301 238.801 30.4684 239.224 30.7451C239.655 31.0137 239.981 31.3351 240.2 31.7095C240.615 32.4256 240.823 34.0166 240.823 36.4824C240.823 37.5892 240.831 38.224 240.847 38.3867C240.872 38.5413 240.929 38.8221 241.018 39.229C241.116 39.6278 241.165 39.9574 241.165 40.2178C241.165 40.4701 241.059 40.7345 240.847 41.0112C240.636 41.2879 240.355 41.4263 240.005 41.4263C239.313 41.4263 238.902 41.1455 238.772 40.584C238.675 40.1771 238.561 38.9889 238.43 37.0195C238.308 35.0501 238.174 33.8945 238.028 33.5527C237.735 32.8366 237.112 32.4785 236.16 32.4785C235.55 32.4785 235.073 32.861 234.732 33.626C234.235 34.7246 233.987 36.2871 233.987 38.3135L234.109 40.0713C234.109 40.6898 233.881 41.1577 233.426 41.4751C233.133 41.6785 232.742 41.7803 232.254 41.7803C231.774 41.7803 231.456 41.7314 231.302 41.6338C231.033 41.471 230.899 41.1252 230.899 40.5962C230.899 40.4985 230.976 40.0998 231.131 39.3999C231.293 38.6919 231.375 37.5444 231.375 35.9575C231.375 34.3625 231.257 33.3493 231.021 32.918C230.785 32.4785 230.374 32.2588 229.788 32.2588C229.202 32.2588 228.681 32.4582 228.225 32.8569C227.778 33.2557 227.448 33.6911 227.237 34.1631C227.033 34.6351 226.85 35.7581 226.687 37.5322C226.533 39.3063 226.423 40.3236 226.358 40.584C226.244 41.0316 225.914 41.2554 225.369 41.2554C224.832 41.2554 224.462 41.0967 224.258 40.7793C224.063 40.4538 223.965 40.0591 223.965 39.5952L224.026 39.168L224.258 38.3257C224.356 37.9351 224.413 37.4793 224.429 36.9585C224.551 33.7277 224.645 31.8844 224.71 31.4287C224.775 30.973 225.068 30.7451 225.589 30.7451L227.407 31.0503C227.798 31.0503 228.307 30.9364 228.933 30.7085ZM246.414 34.5781V34.7734C246.414 35.0176 246.638 35.1396 247.085 35.1396H247.378L247.451 35.1274L248.05 35.0786C248.676 34.9891 249.083 34.9443 249.27 34.9443C250.157 34.9443 250.825 34.7775 251.272 34.4438C251.484 34.2811 251.59 33.9922 251.59 33.5771V33.4429C251.59 32.8325 251.386 32.3483 250.979 31.9902C250.58 31.6322 250.1 31.4531 249.539 31.4531H249.453L249.38 31.4653C248.591 31.4653 247.899 31.799 247.305 32.4663C246.711 33.1336 246.414 33.8376 246.414 34.5781ZM249.075 42.1587H248.806C247.252 42.1587 246.015 41.6663 245.095 40.6816C244.176 39.6888 243.716 38.3664 243.716 36.7144V36.1772C243.716 35.3879 243.871 34.5863 244.18 33.7725C244.807 32.1449 245.828 31.0218 247.244 30.4033C247.993 30.0697 248.753 29.9028 249.527 29.9028H250.052C251.118 29.9028 252.017 30.2609 252.749 30.9771C253.49 31.6851 253.86 32.6006 253.86 33.7236V33.9678C253.86 34.7653 253.543 35.3309 252.908 35.6646C252.469 35.9006 251.443 36.1366 249.832 36.3726C248.22 36.6086 247.342 36.751 247.195 36.7998C246.707 36.9707 246.463 37.2962 246.463 37.7764C246.463 38.4437 246.747 39.0133 247.317 39.4854C247.887 39.9574 248.652 40.1934 249.612 40.1934C250.06 40.1934 250.67 40.0713 251.443 39.8271C252.216 39.583 252.664 39.4609 252.786 39.4609C253.201 39.4609 253.408 39.64 253.408 39.998C253.408 40.4782 252.941 40.9583 252.005 41.4385C251.069 41.9186 250.092 42.1587 249.075 42.1587ZM258.23 42.1953H257.852C257.445 42.1953 257.128 42.1017 256.9 41.9146C256.68 41.7274 256.57 41.4792 256.57 41.1699C256.554 41.1048 256.546 41.0519 256.546 41.0112L256.521 40.8037V40.584L256.533 40.5352V40.4253C256.55 40.3602 256.558 40.3073 256.558 40.2666C256.558 39.9004 256.68 39.6156 256.924 39.4121C257.176 39.2005 257.453 39.0947 257.754 39.0947L258.01 39.0581H258.34C259.227 39.0581 259.671 39.522 259.671 40.4497V40.6206L259.622 41.0356C259.622 41.41 259.479 41.6989 259.195 41.9023C258.918 42.0977 258.596 42.1953 258.23 42.1953ZM281.643 32.4053C281.643 32.3809 281.643 32.3564 281.643 32.332C281.643 31.624 281.533 30.8631 281.314 30.0493C280.915 28.5438 280.235 27.5062 279.275 26.9365C278.689 26.5866 278.111 26.4116 277.542 26.4116H276.968C276.284 26.4116 275.633 26.6232 275.015 27.0464C273.859 27.8358 273.066 29.0443 272.635 30.6719C272.366 31.681 272.232 32.6779 272.232 33.6626V34.4805C272.232 36.1732 272.622 37.5973 273.404 38.7529C274.193 39.9004 275.267 40.4741 276.626 40.4741H276.822C277.489 40.4741 278.124 40.3073 278.726 39.9736C279.857 39.3389 280.683 38.1426 281.204 36.3848C281.481 35.4652 281.619 34.5496 281.619 33.6382L281.643 33.2231V32.4053ZM284.524 32.3076V33.1255C284.524 34.3381 284.333 35.5303 283.95 36.7021C283.218 38.9564 281.928 40.5433 280.081 41.4629C279.007 42 277.912 42.2686 276.797 42.2686H276.248C275.344 42.2686 274.462 42.0732 273.599 41.6826C271.882 40.9176 270.718 39.5993 270.108 37.7275C269.75 36.6289 269.571 35.4977 269.571 34.334V33.7847C269.571 32.6291 269.762 31.445 270.144 30.2324C270.535 29.0199 271.088 28.0026 271.804 27.1807C272.521 26.3506 273.351 25.724 274.295 25.3008C275.239 24.8776 276.203 24.666 277.188 24.666H277.737C278.779 24.666 279.711 24.8654 280.532 25.2642C282.136 26.0454 283.251 27.2702 283.877 28.9385C284.309 30.0859 284.524 31.209 284.524 32.3076ZM286.77 36.9219V36.3604C286.77 35.335 286.929 34.4276 287.246 33.6382C287.857 32.1082 288.793 31.0503 290.054 30.4644C290.876 30.0737 291.726 29.8784 292.605 29.8784H292.874C293.842 29.8784 294.644 30.0697 295.279 30.4521C295.913 30.8346 296.231 31.3026 296.231 31.856C296.231 32.4989 295.921 32.8203 295.303 32.8203C295.189 32.8203 294.79 32.6413 294.107 32.2832C293.423 31.9333 292.862 31.7583 292.422 31.7583C292.414 31.7583 292.406 31.7583 292.398 31.7583C291.437 31.7583 290.685 32.1733 290.139 33.0034C289.602 33.8335 289.334 34.9159 289.334 36.2505C289.334 37.5851 289.619 38.5739 290.188 39.2168C290.766 39.8597 291.568 40.1812 292.593 40.1812C293.016 40.1812 293.598 40.0632 294.339 39.8271C295.079 39.583 295.531 39.4609 295.694 39.4609C296.027 39.4609 296.194 39.6359 296.194 39.9858C296.194 40.4578 295.726 40.9339 294.79 41.4141C293.854 41.8942 292.935 42.1343 292.031 42.1343C289.615 42.1343 288.015 41.1821 287.234 39.2778C286.925 38.521 286.77 37.7357 286.77 36.9219ZM298.367 36.9219V36.3604C298.367 35.335 298.526 34.4276 298.843 33.6382C299.453 32.1082 300.389 31.0503 301.651 30.4644C302.473 30.0737 303.323 29.8784 304.202 29.8784H304.47C305.439 29.8784 306.24 30.0697 306.875 30.4521C307.51 30.8346 307.827 31.3026 307.827 31.856C307.827 32.4989 307.518 32.8203 306.9 32.8203C306.786 32.8203 306.387 32.6413 305.703 32.2832C305.02 31.9333 304.458 31.7583 304.019 31.7583C304.011 31.7583 304.003 31.7583 303.994 31.7583C303.034 31.7583 302.281 32.1733 301.736 33.0034C301.199 33.8335 300.93 34.9159 300.93 36.2505C300.93 37.5851 301.215 38.5739 301.785 39.2168C302.363 39.8597 303.164 40.1812 304.19 40.1812C304.613 40.1812 305.195 40.0632 305.935 39.8271C306.676 39.583 307.128 39.4609 307.29 39.4609C307.624 39.4609 307.791 39.6359 307.791 39.9858C307.791 40.4578 307.323 40.9339 306.387 41.4141C305.451 41.8942 304.531 42.1343 303.628 42.1343C301.211 42.1343 299.612 41.1821 298.831 39.2778C298.522 38.521 298.367 37.7357 298.367 36.9219ZM314.297 40.4619H314.615C315.282 40.4619 315.868 40.2381 316.372 39.7905C316.885 39.3348 317.141 38.8099 317.141 38.2158L317.166 38.0571V37.8984L317.19 37.52V36.8242C317.19 36.3522 316.95 36.1162 316.47 36.1162H315.921L315.835 36.1284L315.359 36.165C315.131 36.1976 314.969 36.2139 314.871 36.2139C314.212 36.2139 313.601 36.4621 313.04 36.9585C312.649 37.3084 312.454 37.8049 312.454 38.4478V38.6919C312.454 39.2371 312.629 39.6685 312.979 39.9858C313.337 40.3032 313.776 40.4619 314.297 40.4619ZM311.575 32.6616C311.03 32.6616 310.757 32.3117 310.757 31.6118C310.757 31.091 311.197 30.6393 312.075 30.2568C312.962 29.8662 313.882 29.6709 314.834 29.6709H315.445C316.267 29.6709 316.991 29.8255 317.617 30.1348C318.244 30.4359 318.72 30.8468 319.046 31.3677C319.379 31.8885 319.583 32.568 319.656 33.4062C319.672 33.6016 319.68 34.5496 319.68 36.2505C319.68 37.9513 319.701 38.932 319.741 39.1924C319.79 39.4447 319.92 39.7539 320.132 40.1201C320.352 40.4863 320.462 40.7874 320.462 41.0234C320.462 41.2594 320.348 41.4629 320.12 41.6338C319.9 41.7965 319.579 41.8779 319.156 41.8779C318.732 41.8779 318.273 41.7762 317.776 41.5728C317.28 41.3612 316.918 41.2554 316.69 41.2554C316.665 41.2554 316.258 41.4019 315.469 41.6948C314.68 41.9797 314.012 42.1221 313.467 42.1221H313.198C312.287 42.1221 311.51 41.8332 310.867 41.2554C310.232 40.6776 309.915 39.8556 309.915 38.7896C309.915 37.7235 310.265 36.8934 310.965 36.2993C311.664 35.6971 312.515 35.2861 313.516 35.0664C313.817 35.0013 314.317 34.9159 315.017 34.8101C315.717 34.7043 316.193 34.5944 316.446 34.4805C316.885 34.277 317.105 33.8945 317.105 33.333C317.105 32.7633 316.918 32.3198 316.543 32.0024C316.169 31.6769 315.721 31.5142 315.2 31.5142C314.688 31.5142 314.012 31.7054 313.174 32.0879C312.336 32.4704 311.803 32.6616 311.575 32.6616ZM324.173 35.1885C323.676 34.6839 323.428 33.9759 323.428 33.0645C323.428 32.153 323.835 31.3717 324.649 30.7207C325.462 30.0615 326.472 29.7319 327.676 29.7319H327.993C329.059 29.7319 329.906 29.8825 330.532 30.1836C331.167 30.4847 331.485 30.9364 331.485 31.5386C331.485 32.1326 331.22 32.4297 330.691 32.4297C330.553 32.4297 330.162 32.2669 329.519 31.9414C328.876 31.6077 328.27 31.4409 327.7 31.4409C327.131 31.4409 326.671 31.5711 326.321 31.8315C325.979 32.0838 325.808 32.4338 325.808 32.8813C325.808 33.3289 326.048 33.7196 326.529 34.0532C326.805 34.2485 327.456 34.5578 328.482 34.981C329.515 35.4041 330.252 35.811 330.691 36.2017C331.399 36.8283 331.753 37.6299 331.753 38.6064C331.753 39.583 331.338 40.4212 330.508 41.1211C329.678 41.8128 328.6 42.1587 327.273 42.1587H326.956C325.621 42.1587 324.62 41.9674 323.953 41.585C323.286 41.1943 322.952 40.6898 322.952 40.0713C322.952 39.4447 323.212 39.1313 323.733 39.1313C323.904 39.1313 324.348 39.3511 325.064 39.7905C325.788 40.23 326.496 40.4497 327.188 40.4497C327.888 40.4497 328.413 40.3032 328.762 40.0103C329.112 39.7091 329.287 39.3348 329.287 38.8872C329.287 38.4315 329.068 38.0327 328.628 37.6909C328.392 37.5037 327.717 37.166 326.602 36.6777C325.487 36.1813 324.677 35.6849 324.173 35.1885ZM338.345 26.1309V26.2773C338.345 26.6924 338.223 27.0464 337.979 27.3394C337.743 27.6242 337.377 27.7666 336.88 27.7666H336.685L336.306 27.7178C336.087 27.7178 335.875 27.616 335.672 27.4126C335.468 27.2091 335.366 26.904 335.366 26.4971V26.3506L335.427 25.9111C335.427 25.7402 335.529 25.5286 335.733 25.2764C335.944 25.0241 336.213 24.8979 336.538 24.8979L336.819 24.8613H337.063L337.405 24.9102C337.617 24.9102 337.824 25.016 338.028 25.2275C338.239 25.431 338.345 25.7321 338.345 26.1309ZM337.771 31.2822L337.637 34.5659L337.613 34.8955L337.576 35.8965V36.3726C337.576 37.5444 337.608 38.3135 337.674 38.6797C337.747 39.0459 337.881 39.404 338.076 39.7539C338.272 40.0957 338.369 40.3439 338.369 40.4985V40.6084C338.369 41.0072 338.166 41.3245 337.759 41.5605C337.352 41.7965 336.799 41.9146 336.099 41.9146H335.794C335.387 41.9146 335.078 41.825 334.866 41.646C334.654 41.4588 334.549 41.2594 334.549 41.0479V40.7793C334.549 40.6735 334.642 40.2992 334.829 39.6562C335.017 39.0052 335.11 38.1222 335.11 37.0073C335.135 36.6899 335.147 36.4702 335.147 36.3481L335.183 35.6768L335.208 35.3472C335.248 34.7775 335.269 34.334 335.269 34.0166L335.281 33.5283C335.281 32.918 335.179 32.3768 334.976 31.9048C334.781 31.4328 334.683 31.1398 334.683 31.0259C334.683 30.4399 335.236 30.147 336.343 30.147H336.782C337.198 30.147 337.466 30.2568 337.588 30.4766C337.71 30.6882 337.771 30.9567 337.771 31.2822ZM343.509 36.8486C343.509 37.9147 343.753 38.8018 344.241 39.5098C344.729 40.2178 345.327 40.5718 346.035 40.5718H346.402C347.24 40.5718 347.948 40.1486 348.526 39.3022C349.112 38.4559 349.405 37.3288 349.405 35.9209V35.1152C349.405 34.0247 349.164 33.1336 348.684 32.4419C348.212 31.742 347.602 31.3921 346.853 31.3921H346.609C345.738 31.3921 345.006 31.8234 344.412 32.686C343.826 33.5487 343.533 34.5781 343.533 35.7744L343.509 36.0552V36.8486ZM346.267 42.2319H345.877C344.453 42.2319 343.293 41.7355 342.398 40.7427C341.503 39.7498 341.055 38.342 341.055 36.519L341.067 36.3115C341.067 34.3096 341.596 32.7308 342.654 31.5752C343.207 30.9648 343.838 30.5173 344.546 30.2324C345.262 29.9395 345.942 29.793 346.585 29.793H347.183C347.899 29.793 348.587 29.9517 349.246 30.269C351.134 31.1805 352.078 32.8976 352.078 35.4204V35.6157C352.07 36.4377 351.935 37.2718 351.675 38.1182C351.154 39.7865 350.153 40.9665 348.672 41.6582C347.85 42.0407 347.049 42.2319 346.267 42.2319ZM365.811 40.5352C365.811 41.1374 365.286 41.4385 364.236 41.4385C363.642 41.4385 363.243 41.2961 363.04 41.0112C362.942 40.8729 362.893 40.5474 362.893 40.0347L362.857 39.2534C362.8 38.3989 362.771 37.5404 362.771 36.6777C362.771 34.8141 362.608 33.5649 362.283 32.9302C361.966 32.2873 361.428 31.9658 360.672 31.9658C360.167 31.9658 359.699 32.1164 359.268 32.4175C358.845 32.7186 358.519 33.1377 358.291 33.6748C357.819 34.7734 357.583 36.8039 357.583 39.7661C357.583 40.4416 357.453 40.9176 357.193 41.1943C356.94 41.471 356.615 41.6094 356.216 41.6094H355.972C355.06 41.6094 354.605 41.2472 354.605 40.5229V40.23C354.605 40.1405 354.654 39.9451 354.751 39.644L354.947 39.0825C355.142 38.4233 355.24 37.0114 355.24 34.8467L355.301 31.2212C355.301 30.7573 355.553 30.5254 356.057 30.5254C356.562 30.5254 357.058 30.6922 357.547 31.0259C358.043 31.3595 358.356 31.5264 358.487 31.5264C358.625 31.5264 358.865 31.4328 359.207 31.2456C360.354 30.619 361.274 30.3057 361.966 30.3057H362.283C363.528 30.3057 364.403 30.8672 364.907 31.9902C365.152 32.5192 365.274 33.6585 365.274 35.4082V35.4937C365.274 35.6401 365.27 35.7866 365.261 35.9331C365.261 36.3319 365.261 36.5394 365.261 36.5557C365.261 36.7103 365.261 36.8608 365.261 37.0073C365.261 37.1213 365.261 37.2311 365.261 37.3369C365.261 37.9635 365.282 38.3908 365.323 38.6187C365.379 38.9279 365.473 39.2493 365.603 39.583C365.742 39.9492 365.811 40.2666 365.811 40.5352ZM372.549 40.4619H372.866C373.534 40.4619 374.12 40.2381 374.624 39.7905C375.137 39.3348 375.393 38.8099 375.393 38.2158L375.418 38.0571V37.8984L375.442 37.52V36.8242C375.442 36.3522 375.202 36.1162 374.722 36.1162H374.173L374.087 36.1284L373.611 36.165C373.383 36.1976 373.22 36.2139 373.123 36.2139C372.464 36.2139 371.853 36.4621 371.292 36.9585C370.901 37.3084 370.706 37.8049 370.706 38.4478V38.6919C370.706 39.2371 370.881 39.6685 371.231 39.9858C371.589 40.3032 372.028 40.4619 372.549 40.4619ZM369.827 32.6616C369.282 32.6616 369.009 32.3117 369.009 31.6118C369.009 31.091 369.448 30.6393 370.327 30.2568C371.214 29.8662 372.134 29.6709 373.086 29.6709H373.697C374.518 29.6709 375.243 29.8255 375.869 30.1348C376.496 30.4359 376.972 30.8468 377.298 31.3677C377.631 31.8885 377.835 32.568 377.908 33.4062C377.924 33.6016 377.932 34.5496 377.932 36.2505C377.932 37.9513 377.953 38.932 377.993 39.1924C378.042 39.4447 378.172 39.7539 378.384 40.1201C378.604 40.4863 378.714 40.7874 378.714 41.0234C378.714 41.2594 378.6 41.4629 378.372 41.6338C378.152 41.7965 377.831 41.8779 377.407 41.8779C376.984 41.8779 376.524 41.7762 376.028 41.5728C375.532 41.3612 375.17 41.2554 374.942 41.2554C374.917 41.2554 374.51 41.4019 373.721 41.6948C372.932 41.9797 372.264 42.1221 371.719 42.1221H371.45C370.539 42.1221 369.762 41.8332 369.119 41.2554C368.484 40.6776 368.167 39.8556 368.167 38.7896C368.167 37.7235 368.517 36.8934 369.217 36.2993C369.916 35.6971 370.767 35.2861 371.768 35.0664C372.069 35.0013 372.569 34.9159 373.269 34.8101C373.969 34.7043 374.445 34.5944 374.698 34.4805C375.137 34.277 375.357 33.8945 375.357 33.333C375.357 32.7633 375.17 32.3198 374.795 32.0024C374.421 31.6769 373.973 31.5142 373.452 31.5142C372.94 31.5142 372.264 31.7054 371.426 32.0879C370.588 32.4704 370.055 32.6616 369.827 32.6616ZM382.241 25.0322C382.241 24.4382 382.799 24.1411 383.914 24.1411H384.134C384.597 24.1411 384.915 24.255 385.086 24.4829C385.257 24.7026 385.342 25.134 385.342 25.7769L385.244 27.5957C385.22 27.8805 385.208 28.0352 385.208 28.0596L385.183 28.5234C385.167 28.8245 385.151 29.1297 385.135 29.439L385.098 29.9028L385.061 30.5986C384.931 33.0726 384.866 34.8996 384.866 36.0796C384.866 37.2515 384.919 38.0938 385.025 38.6064C385.13 39.1191 385.297 39.5545 385.525 39.9126C385.753 40.2707 385.867 40.5067 385.867 40.6206V40.7671C385.867 41.1252 385.688 41.41 385.33 41.6216C384.98 41.8332 384.504 41.939 383.902 41.939H383.267C382.892 41.939 382.563 41.8332 382.278 41.6216C382.001 41.4019 381.863 41.1536 381.863 40.877V40.5474L381.936 40.0347C382.034 39.3267 382.091 38.7977 382.107 38.4478C382.132 38.0897 382.168 37.5973 382.217 36.9707C382.266 36.3359 382.343 34.9891 382.449 32.9302C382.563 30.8631 382.62 29.7523 382.62 29.5977L382.669 28.6821L382.693 27.7788C382.693 26.9162 382.616 26.3018 382.461 25.9355C382.315 25.5612 382.241 25.2601 382.241 25.0322ZM396.28 25.0322C396.28 24.4382 396.837 24.1411 397.952 24.1411H398.172C398.635 24.1411 398.953 24.255 399.124 24.4829C399.295 24.7026 399.38 25.134 399.38 25.7769L399.282 27.5957C399.258 27.8805 399.246 28.0352 399.246 28.0596L399.221 28.5234C399.205 28.8245 399.189 29.1297 399.173 29.439L399.136 29.9028L399.099 30.5986C398.969 33.0726 398.904 34.8996 398.904 36.0796C398.904 37.2515 398.957 38.0938 399.063 38.6064C399.169 39.1191 399.335 39.5545 399.563 39.9126C399.791 40.2707 399.905 40.5067 399.905 40.6206V40.7671C399.905 41.1252 399.726 41.41 399.368 41.6216C399.018 41.8332 398.542 41.939 397.94 41.939H397.305C396.931 41.939 396.601 41.8332 396.316 41.6216C396.039 41.4019 395.901 41.1536 395.901 40.877V40.5474L395.974 40.0347C396.072 39.3267 396.129 38.7977 396.145 38.4478C396.17 38.0897 396.206 37.5973 396.255 36.9707C396.304 36.3359 396.381 34.9891 396.487 32.9302C396.601 30.8631 396.658 29.7523 396.658 29.5977L396.707 28.6821L396.731 27.7788C396.731 26.9162 396.654 26.3018 396.499 25.9355C396.353 25.5612 396.28 25.2601 396.28 25.0322ZM406.68 40.4619H406.997C407.665 40.4619 408.251 40.2381 408.755 39.7905C409.268 39.3348 409.524 38.8099 409.524 38.2158L409.549 38.0571V37.8984L409.573 37.52V36.8242C409.573 36.3522 409.333 36.1162 408.853 36.1162H408.303L408.218 36.1284L407.742 36.165C407.514 36.1976 407.351 36.2139 407.254 36.2139C406.594 36.2139 405.984 36.4621 405.423 36.9585C405.032 37.3084 404.837 37.8049 404.837 38.4478V38.6919C404.837 39.2371 405.012 39.6685 405.362 39.9858C405.72 40.3032 406.159 40.4619 406.68 40.4619ZM403.958 32.6616C403.413 32.6616 403.14 32.3117 403.14 31.6118C403.14 31.091 403.579 30.6393 404.458 30.2568C405.345 29.8662 406.265 29.6709 407.217 29.6709H407.827C408.649 29.6709 409.374 29.8255 410 30.1348C410.627 30.4359 411.103 30.8468 411.428 31.3677C411.762 31.8885 411.966 32.568 412.039 33.4062C412.055 33.6016 412.063 34.5496 412.063 36.2505C412.063 37.9513 412.084 38.932 412.124 39.1924C412.173 39.4447 412.303 39.7539 412.515 40.1201C412.735 40.4863 412.844 40.7874 412.844 41.0234C412.844 41.2594 412.731 41.4629 412.503 41.6338C412.283 41.7965 411.962 41.8779 411.538 41.8779C411.115 41.8779 410.655 41.7762 410.159 41.5728C409.663 41.3612 409.3 41.2554 409.073 41.2554C409.048 41.2554 408.641 41.4019 407.852 41.6948C407.062 41.9797 406.395 42.1221 405.85 42.1221H405.581C404.67 42.1221 403.893 41.8332 403.25 41.2554C402.615 40.6776 402.298 39.8556 402.298 38.7896C402.298 37.7235 402.648 36.8934 403.347 36.2993C404.047 35.6971 404.898 35.2861 405.899 35.0664C406.2 35.0013 406.7 34.9159 407.4 34.8101C408.1 34.7043 408.576 34.5944 408.828 34.4805C409.268 34.277 409.488 33.8945 409.488 33.333C409.488 32.7633 409.3 32.3198 408.926 32.0024C408.552 31.6769 408.104 31.5142 407.583 31.5142C407.071 31.5142 406.395 31.7054 405.557 32.0879C404.719 32.4704 404.186 32.6616 403.958 32.6616ZM422.024 40.6938C422.024 41.0194 421.825 41.3123 421.426 41.5728C421.035 41.825 420.502 41.9512 419.827 41.9512C418.566 41.9512 417.678 41.4832 417.166 40.5474C416.848 39.9614 416.69 38.5902 416.69 36.4336C416.69 34.277 416.653 33.0238 416.58 32.6738C416.507 32.3239 416.303 31.9821 415.969 31.6484C415.636 31.3148 415.469 31.0584 415.469 30.8794C415.469 30.8143 415.864 30.387 416.653 29.5977C416.824 29.4268 416.995 29.0483 417.166 28.4624C417.345 27.8765 417.471 27.4899 417.544 27.3027C417.788 26.7168 418.11 26.4238 418.509 26.4238H418.704C419.054 26.4238 419.302 26.5581 419.448 26.8267C419.505 26.9325 419.591 27.3149 419.705 27.9741C419.827 28.6252 419.965 29.0443 420.12 29.2314C420.274 29.4186 420.661 29.6261 421.28 29.854C421.906 30.0737 422.219 30.3097 422.219 30.562V30.6963C422.219 31.0218 421.861 31.2985 421.145 31.5264C420.437 31.7461 419.982 32.1001 419.778 32.5884C419.379 33.5731 419.18 35.1763 419.18 37.3979C419.18 38.4396 419.359 39.1476 419.717 39.522C419.937 39.7498 420.376 39.9085 421.035 39.998C421.695 40.0876 422.024 40.3195 422.024 40.6938ZM427.005 34.5781V34.7734C427.005 35.0176 427.228 35.1396 427.676 35.1396H427.969L428.042 35.1274L428.64 35.0786C429.267 34.9891 429.674 34.9443 429.861 34.9443C430.748 34.9443 431.415 34.7775 431.863 34.4438C432.075 34.2811 432.18 33.9922 432.18 33.5771V33.4429C432.18 32.8325 431.977 32.3483 431.57 31.9902C431.171 31.6322 430.691 31.4531 430.13 31.4531H430.044L429.971 31.4653C429.182 31.4653 428.49 31.799 427.896 32.4663C427.302 33.1336 427.005 33.8376 427.005 34.5781ZM429.666 42.1587H429.397C427.843 42.1587 426.606 41.6663 425.686 40.6816C424.767 39.6888 424.307 38.3664 424.307 36.7144V36.1772C424.307 35.3879 424.462 34.5863 424.771 33.7725C425.397 32.1449 426.419 31.0218 427.835 30.4033C428.583 30.0697 429.344 29.9028 430.117 29.9028H430.642C431.708 29.9028 432.608 30.2609 433.34 30.9771C434.081 31.6851 434.451 32.6006 434.451 33.7236V33.9678C434.451 34.7653 434.134 35.3309 433.499 35.6646C433.059 35.9006 432.034 36.1366 430.423 36.3726C428.811 36.6086 427.932 36.751 427.786 36.7998C427.298 36.9707 427.053 37.2962 427.053 37.7764C427.053 38.4437 427.338 39.0133 427.908 39.4854C428.478 39.9574 429.243 40.1934 430.203 40.1934C430.65 40.1934 431.261 40.0713 432.034 39.8271C432.807 39.583 433.255 39.4609 433.377 39.4609C433.792 39.4609 433.999 39.64 433.999 39.998C433.999 40.4782 433.531 40.9583 432.595 41.4385C431.66 41.9186 430.683 42.1587 429.666 42.1587ZM448.306 40.5352C448.306 41.1374 447.781 41.4385 446.731 41.4385C446.137 41.4385 445.738 41.2961 445.535 41.0112C445.437 40.8729 445.388 40.5474 445.388 40.0347L445.352 39.2534C445.295 38.3989 445.266 37.5404 445.266 36.6777C445.266 34.8141 445.104 33.5649 444.778 32.9302C444.461 32.2873 443.924 31.9658 443.167 31.9658C442.662 31.9658 442.194 32.1164 441.763 32.4175C441.34 32.7186 441.014 33.1377 440.786 33.6748C440.314 34.7734 440.078 36.8039 440.078 39.7661C440.078 40.4416 439.948 40.9176 439.688 41.1943C439.435 41.471 439.11 41.6094 438.711 41.6094H438.467C437.556 41.6094 437.1 41.2472 437.1 40.5229V40.23C437.1 40.1405 437.149 39.9451 437.246 39.644L437.442 39.0825C437.637 38.4233 437.735 37.0114 437.735 34.8467L437.796 31.2212C437.796 30.7573 438.048 30.5254 438.552 30.5254C439.057 30.5254 439.553 30.6922 440.042 31.0259C440.538 31.3595 440.851 31.5264 440.982 31.5264C441.12 31.5264 441.36 31.4328 441.702 31.2456C442.849 30.619 443.769 30.3057 444.461 30.3057H444.778C446.023 30.3057 446.898 30.8672 447.403 31.9902C447.647 32.5192 447.769 33.6585 447.769 35.4082V35.4937C447.769 35.6401 447.765 35.7866 447.757 35.9331C447.757 36.3319 447.757 36.5394 447.757 36.5557C447.757 36.7103 447.757 36.8608 447.757 37.0073C447.757 37.1213 447.757 37.2311 447.757 37.3369C447.757 37.9635 447.777 38.3908 447.818 38.6187C447.875 38.9279 447.968 39.2493 448.098 39.583C448.237 39.9492 448.306 40.2666 448.306 40.5352ZM453.372 34.5781V34.7734C453.372 35.0176 453.596 35.1396 454.043 35.1396H454.336L454.409 35.1274L455.008 35.0786C455.634 34.9891 456.041 34.9443 456.228 34.9443C457.115 34.9443 457.783 34.7775 458.23 34.4438C458.442 34.2811 458.548 33.9922 458.548 33.5771V33.4429C458.548 32.8325 458.344 32.3483 457.937 31.9902C457.538 31.6322 457.058 31.4531 456.497 31.4531H456.411L456.338 31.4653C455.549 31.4653 454.857 31.799 454.263 32.4663C453.669 33.1336 453.372 33.8376 453.372 34.5781ZM456.033 42.1587H455.764C454.21 42.1587 452.973 41.6663 452.053 40.6816C451.134 39.6888 450.674 38.3664 450.674 36.7144V36.1772C450.674 35.3879 450.829 34.5863 451.138 33.7725C451.765 32.1449 452.786 31.0218 454.202 30.4033C454.951 30.0697 455.712 29.9028 456.485 29.9028H457.01C458.076 29.9028 458.975 30.2609 459.707 30.9771C460.448 31.6851 460.818 32.6006 460.818 33.7236V33.9678C460.818 34.7653 460.501 35.3309 459.866 35.6646C459.427 35.9006 458.401 36.1366 456.79 36.3726C455.178 36.6086 454.3 36.751 454.153 36.7998C453.665 36.9707 453.421 37.2962 453.421 37.7764C453.421 38.4437 453.705 39.0133 454.275 39.4854C454.845 39.9574 455.61 40.1934 456.57 40.1934C457.018 40.1934 457.628 40.0713 458.401 39.8271C459.174 39.583 459.622 39.4609 459.744 39.4609C460.159 39.4609 460.366 39.64 460.366 39.998C460.366 40.4782 459.899 40.9583 458.963 41.4385C458.027 41.9186 457.05 42.1587 456.033 42.1587ZM464.334 35.1885C463.837 34.6839 463.589 33.9759 463.589 33.0645C463.589 32.153 463.996 31.3717 464.81 30.7207C465.624 30.0615 466.633 29.7319 467.837 29.7319H468.155C469.221 29.7319 470.067 29.8825 470.694 30.1836C471.328 30.4847 471.646 30.9364 471.646 31.5386C471.646 32.1326 471.381 32.4297 470.852 32.4297C470.714 32.4297 470.323 32.2669 469.68 31.9414C469.038 31.6077 468.431 31.4409 467.862 31.4409C467.292 31.4409 466.832 31.5711 466.482 31.8315C466.14 32.0838 465.969 32.4338 465.969 32.8813C465.969 33.3289 466.21 33.7196 466.69 34.0532C466.966 34.2485 467.617 34.5578 468.643 34.981C469.676 35.4041 470.413 35.811 470.852 36.2017C471.56 36.8283 471.914 37.6299 471.914 38.6064C471.914 39.583 471.499 40.4212 470.669 41.1211C469.839 41.8128 468.761 42.1587 467.434 42.1587H467.117C465.782 42.1587 464.781 41.9674 464.114 41.585C463.447 41.1943 463.113 40.6898 463.113 40.0713C463.113 39.4447 463.373 39.1313 463.894 39.1313C464.065 39.1313 464.509 39.3511 465.225 39.7905C465.949 40.23 466.657 40.4497 467.349 40.4497C468.049 40.4497 468.574 40.3032 468.924 40.0103C469.274 39.7091 469.448 39.3348 469.448 38.8872C469.448 38.4315 469.229 38.0327 468.789 37.6909C468.553 37.5037 467.878 37.166 466.763 36.6777C465.648 36.1813 464.838 35.6849 464.334 35.1885ZM475.393 35.1885C474.897 34.6839 474.649 33.9759 474.649 33.0645C474.649 32.153 475.056 31.3717 475.869 30.7207C476.683 30.0615 477.692 29.7319 478.897 29.7319H479.214C480.28 29.7319 481.127 29.8825 481.753 30.1836C482.388 30.4847 482.705 30.9364 482.705 31.5386C482.705 32.1326 482.441 32.4297 481.912 32.4297C481.774 32.4297 481.383 32.2669 480.74 31.9414C480.097 31.6077 479.491 31.4409 478.921 31.4409C478.351 31.4409 477.892 31.5711 477.542 31.8315C477.2 32.0838 477.029 32.4338 477.029 32.8813C477.029 33.3289 477.269 33.7196 477.749 34.0532C478.026 34.2485 478.677 34.5578 479.702 34.981C480.736 35.4041 481.472 35.811 481.912 36.2017C482.62 36.8283 482.974 37.6299 482.974 38.6064C482.974 39.583 482.559 40.4212 481.729 41.1211C480.899 41.8128 479.82 42.1587 478.494 42.1587H478.177C476.842 42.1587 475.841 41.9674 475.174 41.585C474.506 41.1943 474.173 40.6898 474.173 40.0713C474.173 39.4447 474.433 39.1313 474.954 39.1313C475.125 39.1313 475.568 39.3511 476.284 39.7905C477.009 40.23 477.717 40.4497 478.408 40.4497C479.108 40.4497 479.633 40.3032 479.983 40.0103C480.333 39.7091 480.508 39.3348 480.508 38.8872C480.508 38.4315 480.288 38.0327 479.849 37.6909C479.613 37.5037 478.937 37.166 477.823 36.6777C476.708 36.1813 475.898 35.6849 475.393 35.1885ZM494.583 36.8486C494.583 37.9147 494.827 38.8018 495.315 39.5098C495.803 40.2178 496.402 40.5718 497.11 40.5718H497.476C498.314 40.5718 499.022 40.1486 499.6 39.3022C500.186 38.4559 500.479 37.3288 500.479 35.9209V35.1152C500.479 34.0247 500.239 33.1336 499.759 32.4419C499.287 31.742 498.676 31.3921 497.927 31.3921H497.683C496.813 31.3921 496.08 31.8234 495.486 32.686C494.9 33.5487 494.607 34.5781 494.607 35.7744L494.583 36.0552V36.8486ZM497.342 42.2319H496.951C495.527 42.2319 494.367 41.7355 493.472 40.7427C492.577 39.7498 492.129 38.342 492.129 36.519L492.141 36.3115C492.141 34.3096 492.67 32.7308 493.728 31.5752C494.282 30.9648 494.912 30.5173 495.62 30.2324C496.337 29.9395 497.016 29.793 497.659 29.793H498.257C498.973 29.793 499.661 29.9517 500.32 30.269C502.208 31.1805 503.152 32.8976 503.152 35.4204V35.6157C503.144 36.4377 503.01 37.2718 502.749 38.1182C502.228 39.7865 501.227 40.9665 499.746 41.6582C498.924 42.0407 498.123 42.2319 497.342 42.2319ZM506.46 35.6523V34.7124C506.46 33.5812 506.399 32.7552 506.277 32.2344C506.155 31.7054 506.094 31.3351 506.094 31.1235C506.094 30.6271 506.456 30.3789 507.18 30.3789C507.905 30.3789 508.43 30.5132 508.755 30.7817C508.845 30.855 508.959 30.9974 509.097 31.209C509.243 31.4206 509.374 31.5264 509.488 31.5264C509.512 31.5264 509.866 31.3188 510.55 30.9038C511.233 30.4888 511.819 30.2812 512.307 30.2812H512.49C512.889 30.2812 513.207 30.3789 513.443 30.5742C513.679 30.7614 513.797 30.9933 513.797 31.27V31.4287C513.797 31.7624 513.679 32.0024 513.443 32.1489C513.215 32.2954 512.849 32.3687 512.344 32.3687C511.197 32.3687 510.358 32.7715 509.829 33.5771C509.309 34.3828 509.048 35.807 509.048 37.8496C509.048 38.1426 509.097 38.5942 509.195 39.2046C509.3 39.8149 509.353 40.2747 509.353 40.584C509.353 40.8932 509.186 41.1903 508.853 41.4751C508.519 41.7599 508.096 41.9023 507.583 41.9023H507.168C506.721 41.9023 506.375 41.7965 506.131 41.585C505.895 41.3652 505.777 41.1007 505.777 40.7915C505.777 40.4741 505.834 40.1527 505.948 39.8271C506.257 38.9482 506.411 37.9798 506.411 36.9219C506.444 36.3359 506.46 35.9128 506.46 35.6523ZM522.244 36.9219V36.3604C522.244 35.335 522.403 34.4276 522.72 33.6382C523.33 32.1082 524.266 31.0503 525.528 30.4644C526.35 30.0737 527.2 29.8784 528.079 29.8784H528.347C529.316 29.8784 530.117 30.0697 530.752 30.4521C531.387 30.8346 531.704 31.3026 531.704 31.856C531.704 32.4989 531.395 32.8203 530.777 32.8203C530.663 32.8203 530.264 32.6413 529.58 32.2832C528.897 31.9333 528.335 31.7583 527.896 31.7583C527.888 31.7583 527.879 31.7583 527.871 31.7583C526.911 31.7583 526.158 32.1733 525.613 33.0034C525.076 33.8335 524.807 34.9159 524.807 36.2505C524.807 37.5851 525.092 38.5739 525.662 39.2168C526.24 39.8597 527.041 40.1812 528.067 40.1812C528.49 40.1812 529.072 40.0632 529.812 39.8271C530.553 39.583 531.004 39.4609 531.167 39.4609C531.501 39.4609 531.668 39.6359 531.668 39.9858C531.668 40.4578 531.2 40.9339 530.264 41.4141C529.328 41.8942 528.408 42.1343 527.505 42.1343C525.088 42.1343 523.489 41.1821 522.708 39.2778C522.399 38.521 522.244 37.7357 522.244 36.9219ZM536.355 36.8486C536.355 37.9147 536.599 38.8018 537.088 39.5098C537.576 40.2178 538.174 40.5718 538.882 40.5718H539.248C540.087 40.5718 540.795 40.1486 541.372 39.3022C541.958 38.4559 542.251 37.3288 542.251 35.9209V35.1152C542.251 34.0247 542.011 33.1336 541.531 32.4419C541.059 31.742 540.449 31.3921 539.7 31.3921H539.456C538.585 31.3921 537.853 31.8234 537.259 32.686C536.673 33.5487 536.38 34.5781 536.38 35.7744L536.355 36.0552V36.8486ZM539.114 42.2319H538.723C537.299 42.2319 536.14 41.7355 535.244 40.7427C534.349 39.7498 533.902 38.342 533.902 36.519L533.914 36.3115C533.914 34.3096 534.443 32.7308 535.501 31.5752C536.054 30.9648 536.685 30.5173 537.393 30.2324C538.109 29.9395 538.788 29.793 539.431 29.793H540.03C540.746 29.793 541.433 29.9517 542.093 30.269C543.981 31.1805 544.925 32.8976 544.925 35.4204V35.6157C544.916 36.4377 544.782 37.2718 544.522 38.1182C544.001 39.7865 543 40.9665 541.519 41.6582C540.697 42.0407 539.895 42.2319 539.114 42.2319ZM558.657 40.5352C558.657 41.1374 558.133 41.4385 557.083 41.4385C556.489 41.4385 556.09 41.2961 555.886 41.0112C555.789 40.8729 555.74 40.5474 555.74 40.0347L555.703 39.2534C555.646 38.3989 555.618 37.5404 555.618 36.6777C555.618 34.8141 555.455 33.5649 555.13 32.9302C554.812 32.2873 554.275 31.9658 553.518 31.9658C553.014 31.9658 552.546 32.1164 552.115 32.4175C551.691 32.7186 551.366 33.1377 551.138 33.6748C550.666 34.7734 550.43 36.8039 550.43 39.7661C550.43 40.4416 550.3 40.9176 550.039 41.1943C549.787 41.471 549.462 41.6094 549.063 41.6094H548.819C547.907 41.6094 547.451 41.2472 547.451 40.5229V40.23C547.451 40.1405 547.5 39.9451 547.598 39.644L547.793 39.0825C547.989 38.4233 548.086 37.0114 548.086 34.8467L548.147 31.2212C548.147 30.7573 548.399 30.5254 548.904 30.5254C549.409 30.5254 549.905 30.6922 550.393 31.0259C550.89 31.3595 551.203 31.5264 551.333 31.5264C551.472 31.5264 551.712 31.4328 552.053 31.2456C553.201 30.619 554.121 30.3057 554.812 30.3057H555.13C556.375 30.3057 557.25 30.8672 557.754 31.9902C557.998 32.5192 558.12 33.6585 558.12 35.4082V35.4937C558.12 35.6401 558.116 35.7866 558.108 35.9331C558.108 36.3319 558.108 36.5394 558.108 36.5557C558.108 36.7103 558.108 36.8608 558.108 37.0073C558.108 37.1213 558.108 37.2311 558.108 37.3369C558.108 37.9635 558.128 38.3908 558.169 38.6187C558.226 38.9279 558.32 39.2493 558.45 39.583C558.588 39.9492 558.657 40.2666 558.657 40.5352ZM563.418 42.8911H563.137C562.731 42.8911 562.385 42.7731 562.1 42.5371C561.823 42.3011 561.685 42.0203 561.685 41.6948C561.685 41.3693 561.782 40.9543 561.978 40.4497C562.181 39.937 562.328 39.3145 562.417 38.582C562.515 37.8415 562.564 36.7591 562.564 35.335C562.564 33.9108 562.495 33.0034 562.356 32.6128C562.332 32.5477 562.218 32.332 562.014 31.9658C561.811 31.5915 561.709 31.2741 561.709 31.0137C561.709 30.7533 561.844 30.4196 562.112 30.0127C562.389 29.6058 562.572 29.3047 562.661 29.1094C563.76 26.79 564.334 25.6019 564.383 25.5449C565.229 24.5602 566.372 24.0679 567.813 24.0679C568.48 24.0679 568.993 24.1818 569.351 24.4097C569.709 24.6375 569.888 24.9346 569.888 25.3008C569.888 25.6589 569.676 25.9193 569.253 26.082C569.139 26.1227 568.989 26.1431 568.802 26.1431C568.663 26.1349 568.504 26.1227 568.325 26.1064C567.902 26.0576 567.593 26.0332 567.398 26.0332C566.869 26.0332 566.437 26.2611 566.104 26.7168C565.778 27.1644 565.615 27.6812 565.615 28.2671C565.615 28.853 565.733 29.2803 565.969 29.5488C566.043 29.6302 566.389 29.8337 567.007 30.1592C567.634 30.4766 567.947 30.798 567.947 31.1235C567.947 31.3026 567.597 31.5793 566.897 31.9536C566.401 32.214 566.035 32.6779 565.799 33.3452C565.286 34.7775 565.03 36.6615 565.03 38.9971L565.261 41.0601C565.261 41.6216 565.095 42.0651 564.761 42.3906C564.435 42.7243 563.988 42.8911 563.418 42.8911ZM570.633 31.0259C570.633 30.5132 571.064 30.2568 571.927 30.2568H572.207C572.744 30.2568 573.107 30.4725 573.294 30.9038C573.481 31.3351 573.574 32.1408 573.574 33.3208L573.428 37.3979C573.428 39.2941 574.108 40.2422 575.467 40.2422C575.963 40.2422 576.439 40.0672 576.895 39.7173C577.351 39.3674 577.688 38.9482 577.908 38.46C578.388 37.3857 578.628 35.4611 578.628 32.686L578.604 32.1489V31.6729C578.604 31.2415 578.701 30.9282 578.897 30.7329C579.092 30.5376 579.434 30.4399 579.922 30.4399C580.41 30.4399 580.732 30.5579 580.886 30.7939C581.041 31.0299 581.118 31.4124 581.118 31.9414L581.094 32.5884L581.045 35.4692C581.045 35.9331 581.074 36.6452 581.131 37.6055C581.188 38.5658 581.249 39.2697 581.314 39.7173C581.379 40.1567 581.411 40.4172 581.411 40.4985C581.411 41.2228 580.878 41.585 579.812 41.585C579.446 41.585 579.08 41.4507 578.714 41.1821C578.356 40.9054 578.099 40.7671 577.945 40.7671C577.798 40.7671 577.546 40.8566 577.188 41.0356C576.17 41.5483 575.304 41.8047 574.588 41.8047H574.282C573.119 41.8047 572.264 41.4466 571.719 40.7305C571.174 40.0143 570.901 38.7244 570.901 36.8608L571.023 33.1621C571.023 32.6982 570.958 32.2547 570.828 31.8315C570.698 31.4084 570.633 31.1398 570.633 31.0259ZM585.354 35.1885C584.858 34.6839 584.61 33.9759 584.61 33.0645C584.61 32.153 585.017 31.3717 585.83 30.7207C586.644 30.0615 587.653 29.7319 588.858 29.7319H589.175C590.241 29.7319 591.087 29.8825 591.714 30.1836C592.349 30.4847 592.666 30.9364 592.666 31.5386C592.666 32.1326 592.402 32.4297 591.873 32.4297C591.734 32.4297 591.344 32.2669 590.701 31.9414C590.058 31.6077 589.452 31.4409 588.882 31.4409C588.312 31.4409 587.853 31.5711 587.503 31.8315C587.161 32.0838 586.99 32.4338 586.99 32.8813C586.99 33.3289 587.23 33.7196 587.71 34.0532C587.987 34.2485 588.638 34.5578 589.663 34.981C590.697 35.4041 591.433 35.811 591.873 36.2017C592.581 36.8283 592.935 37.6299 592.935 38.6064C592.935 39.583 592.52 40.4212 591.69 41.1211C590.86 41.8128 589.781 42.1587 588.455 42.1587H588.137C586.803 42.1587 585.802 41.9674 585.135 41.585C584.467 41.1943 584.134 40.6898 584.134 40.0713C584.134 39.4447 584.394 39.1313 584.915 39.1313C585.086 39.1313 585.529 39.3511 586.245 39.7905C586.97 40.23 587.678 40.4497 588.369 40.4497C589.069 40.4497 589.594 40.3032 589.944 40.0103C590.294 39.7091 590.469 39.3348 590.469 38.8872C590.469 38.4315 590.249 38.0327 589.81 37.6909C589.574 37.5037 588.898 37.166 587.783 36.6777C586.669 36.1813 585.859 35.6849 585.354 35.1885ZM599.527 26.1309V26.2773C599.527 26.6924 599.405 27.0464 599.16 27.3394C598.924 27.6242 598.558 27.7666 598.062 27.7666H597.866L597.488 27.7178C597.268 27.7178 597.057 27.616 596.853 27.4126C596.65 27.2091 596.548 26.904 596.548 26.4971V26.3506L596.609 25.9111C596.609 25.7402 596.711 25.5286 596.914 25.2764C597.126 25.0241 597.394 24.8979 597.72 24.8979L598.001 24.8613H598.245L598.587 24.9102C598.798 24.9102 599.006 25.016 599.209 25.2275C599.421 25.431 599.527 25.7321 599.527 26.1309ZM598.953 31.2822L598.819 34.5659L598.794 34.8955L598.758 35.8965V36.3726C598.758 37.5444 598.79 38.3135 598.855 38.6797C598.928 39.0459 599.063 39.404 599.258 39.7539C599.453 40.0957 599.551 40.3439 599.551 40.4985V40.6084C599.551 41.0072 599.348 41.3245 598.941 41.5605C598.534 41.7965 597.98 41.9146 597.281 41.9146H596.975C596.568 41.9146 596.259 41.825 596.048 41.646C595.836 41.4588 595.73 41.2594 595.73 41.0479V40.7793C595.73 40.6735 595.824 40.2992 596.011 39.6562C596.198 39.0052 596.292 38.1222 596.292 37.0073C596.316 36.6899 596.328 36.4702 596.328 36.3481L596.365 35.6768L596.389 35.3472C596.43 34.7775 596.45 34.334 596.45 34.0166L596.463 33.5283C596.463 32.918 596.361 32.3768 596.157 31.9048C595.962 31.4328 595.865 31.1398 595.865 31.0259C595.865 30.4399 596.418 30.147 597.525 30.147H597.964C598.379 30.147 598.648 30.2568 598.77 30.4766C598.892 30.6882 598.953 30.9567 598.953 31.2822ZM604.69 36.8486C604.69 37.9147 604.934 38.8018 605.423 39.5098C605.911 40.2178 606.509 40.5718 607.217 40.5718H607.583C608.421 40.5718 609.129 40.1486 609.707 39.3022C610.293 38.4559 610.586 37.3288 610.586 35.9209V35.1152C610.586 34.0247 610.346 33.1336 609.866 32.4419C609.394 31.742 608.784 31.3921 608.035 31.3921H607.791C606.92 31.3921 606.188 31.8234 605.594 32.686C605.008 33.5487 604.715 34.5781 604.715 35.7744L604.69 36.0552V36.8486ZM607.449 42.2319H607.058C605.634 42.2319 604.475 41.7355 603.579 40.7427C602.684 39.7498 602.237 38.342 602.237 36.519L602.249 36.3115C602.249 34.3096 602.778 32.7308 603.836 31.5752C604.389 30.9648 605.02 30.5173 605.728 30.2324C606.444 29.9395 607.123 29.793 607.766 29.793H608.365C609.081 29.793 609.768 29.9517 610.427 30.269C612.316 31.1805 613.26 32.8976 613.26 35.4204V35.6157C613.251 36.4377 613.117 37.2718 612.857 38.1182C612.336 39.7865 611.335 40.9665 609.854 41.6582C609.032 42.0407 608.23 42.2319 607.449 42.2319ZM626.992 40.5352C626.992 41.1374 626.468 41.4385 625.418 41.4385C624.824 41.4385 624.425 41.2961 624.221 41.0112C624.124 40.8729 624.075 40.5474 624.075 40.0347L624.038 39.2534C623.981 38.3989 623.953 37.5404 623.953 36.6777C623.953 34.8141 623.79 33.5649 623.465 32.9302C623.147 32.2873 622.61 31.9658 621.853 31.9658C621.349 31.9658 620.881 32.1164 620.449 32.4175C620.026 32.7186 619.701 33.1377 619.473 33.6748C619.001 34.7734 618.765 36.8039 618.765 39.7661C618.765 40.4416 618.635 40.9176 618.374 41.1943C618.122 41.471 617.796 41.6094 617.398 41.6094H617.154C616.242 41.6094 615.786 41.2472 615.786 40.5229V40.23C615.786 40.1405 615.835 39.9451 615.933 39.644L616.128 39.0825C616.323 38.4233 616.421 37.0114 616.421 34.8467L616.482 31.2212C616.482 30.7573 616.734 30.5254 617.239 30.5254C617.744 30.5254 618.24 30.6922 618.728 31.0259C619.225 31.3595 619.538 31.5264 619.668 31.5264C619.807 31.5264 620.047 31.4328 620.388 31.2456C621.536 30.619 622.455 30.3057 623.147 30.3057H623.465C624.71 30.3057 625.585 30.8672 626.089 31.9902C626.333 32.5192 626.455 33.6585 626.455 35.4082V35.4937C626.455 35.6401 626.451 35.7866 626.443 35.9331C626.443 36.3319 626.443 36.5394 626.443 36.5557C626.443 36.7103 626.443 36.8608 626.443 37.0073C626.443 37.1213 626.443 37.2311 626.443 37.3369C626.443 37.9635 626.463 38.3908 626.504 38.6187C626.561 38.9279 626.655 39.2493 626.785 39.583C626.923 39.9492 626.992 40.2666 626.992 40.5352ZM631.594 42.1953H631.216C630.809 42.1953 630.492 42.1017 630.264 41.9146C630.044 41.7274 629.934 41.4792 629.934 41.1699C629.918 41.1048 629.91 41.0519 629.91 41.0112L629.885 40.8037V40.584L629.898 40.5352V40.4253C629.914 40.3602 629.922 40.3073 629.922 40.2666C629.922 39.9004 630.044 39.6156 630.288 39.4121C630.541 39.2005 630.817 39.0947 631.118 39.0947L631.375 39.0581H631.704C632.591 39.0581 633.035 39.522 633.035 40.4497V40.6206L632.986 41.0356C632.986 41.41 632.844 41.6989 632.559 41.9023C632.282 42.0977 631.961 42.1953 631.594 42.1953ZM655.252 26.5825C655.252 25.7443 655.854 25.3252 657.058 25.3252C657.335 25.3252 657.604 25.431 657.864 25.6426C658.124 25.8542 658.255 26.1471 658.255 26.5215C658.255 26.8958 658.137 27.3923 657.901 28.0107C657.665 28.6292 657.518 29.2152 657.461 29.7686C657.404 30.3219 657.278 32.2425 657.083 35.5303C656.887 38.818 656.761 40.584 656.704 40.8281C656.59 41.3164 656.35 41.5605 655.984 41.5605C655.26 41.5605 654.527 41.0845 653.787 40.1323C653.616 39.9126 652.497 38.11 650.43 34.7246C648.371 31.3311 647.163 29.6343 646.804 29.6343L646.646 29.7319C646.581 29.8296 646.524 30.0737 646.475 30.4644C646.214 32.6942 646.084 35.1071 646.084 37.7031C646.084 37.9798 646.101 38.2809 646.133 38.6064L646.182 39.0215C646.231 39.4284 646.255 39.6807 646.255 39.7783C646.255 40.3398 646.064 40.7915 645.681 41.1333C645.307 41.4751 644.868 41.646 644.363 41.646H643.948C643.435 41.646 643.179 41.4548 643.179 41.0723C643.179 40.6816 643.289 40.2463 643.509 39.7661C643.728 39.286 643.875 38.7407 643.948 38.1304C644.298 35.1925 644.473 32.0391 644.473 28.6699C644.473 28.0921 644.432 27.612 644.351 27.2295L644.241 26.8145L644.119 26.436C644.054 26.2082 644.021 25.9844 644.021 25.7646C644.021 25.4635 644.31 25.313 644.888 25.313C645.995 25.313 646.983 25.8013 647.854 26.7778C648.733 27.7463 650.056 29.6628 651.822 32.5273C653.587 35.3919 654.54 36.8242 654.678 36.8242L654.849 36.7754C654.898 36.7021 654.947 36.4417 654.995 35.9941C655.296 33.1702 655.447 30.6922 655.447 28.5601C655.447 28.3729 655.427 28.0881 655.386 27.7056L655.337 27.3149C655.28 26.9162 655.252 26.672 655.252 26.5825ZM662.869 34.5781V34.7734C662.869 35.0176 663.093 35.1396 663.54 35.1396H663.833L663.906 35.1274L664.505 35.0786C665.131 34.9891 665.538 34.9443 665.725 34.9443C666.612 34.9443 667.28 34.7775 667.727 34.4438C667.939 34.2811 668.045 33.9922 668.045 33.5771V33.4429C668.045 32.8325 667.841 32.3483 667.434 31.9902C667.036 31.6322 666.555 31.4531 665.994 31.4531H665.908L665.835 31.4653C665.046 31.4653 664.354 31.799 663.76 32.4663C663.166 33.1336 662.869 33.8376 662.869 34.5781ZM665.53 42.1587H665.261C663.707 42.1587 662.47 41.6663 661.551 40.6816C660.631 39.6888 660.171 38.3664 660.171 36.7144V36.1772C660.171 35.3879 660.326 34.5863 660.635 33.7725C661.262 32.1449 662.283 31.0218 663.699 30.4033C664.448 30.0697 665.209 29.9028 665.982 29.9028H666.507C667.573 29.9028 668.472 30.2609 669.204 30.9771C669.945 31.6851 670.315 32.6006 670.315 33.7236V33.9678C670.315 34.7653 669.998 35.3309 669.363 35.6646C668.924 35.9006 667.898 36.1366 666.287 36.3726C664.676 36.6086 663.797 36.751 663.65 36.7998C663.162 36.9707 662.918 37.2962 662.918 37.7764C662.918 38.4437 663.203 39.0133 663.772 39.4854C664.342 39.9574 665.107 40.1934 666.067 40.1934C666.515 40.1934 667.125 40.0713 667.898 39.8271C668.671 39.583 669.119 39.4609 669.241 39.4609C669.656 39.4609 669.864 39.64 669.864 39.998C669.864 40.4782 669.396 40.9583 668.46 41.4385C667.524 41.9186 666.547 42.1587 665.53 42.1587ZM675.198 34.5781V34.7734C675.198 35.0176 675.422 35.1396 675.869 35.1396H676.162L676.236 35.1274L676.834 35.0786C677.46 34.9891 677.867 34.9443 678.054 34.9443C678.941 34.9443 679.609 34.7775 680.056 34.4438C680.268 34.2811 680.374 33.9922 680.374 33.5771V33.4429C680.374 32.8325 680.17 32.3483 679.763 31.9902C679.365 31.6322 678.885 31.4531 678.323 31.4531H678.238L678.164 31.4653C677.375 31.4653 676.683 31.799 676.089 32.4663C675.495 33.1336 675.198 33.8376 675.198 34.5781ZM677.859 42.1587H677.591C676.036 42.1587 674.799 41.6663 673.88 40.6816C672.96 39.6888 672.5 38.3664 672.5 36.7144V36.1772C672.5 35.3879 672.655 34.5863 672.964 33.7725C673.591 32.1449 674.612 31.0218 676.028 30.4033C676.777 30.0697 677.538 29.9028 678.311 29.9028H678.836C679.902 29.9028 680.801 30.2609 681.533 30.9771C682.274 31.6851 682.644 32.6006 682.644 33.7236V33.9678C682.644 34.7653 682.327 35.3309 681.692 35.6646C681.253 35.9006 680.227 36.1366 678.616 36.3726C677.005 36.6086 676.126 36.751 675.979 36.7998C675.491 36.9707 675.247 37.2962 675.247 37.7764C675.247 38.4437 675.532 39.0133 676.101 39.4854C676.671 39.9574 677.436 40.1934 678.396 40.1934C678.844 40.1934 679.454 40.0713 680.227 39.8271C681 39.583 681.448 39.4609 681.57 39.4609C681.985 39.4609 682.193 39.64 682.193 39.998C682.193 40.4782 681.725 40.9583 680.789 41.4385C679.853 41.9186 678.876 42.1587 677.859 42.1587ZM687.405 36.0796V37.0073C687.405 37.9757 687.625 38.7855 688.064 39.4365C688.512 40.0794 689.037 40.4009 689.639 40.4009H689.981C690.908 40.4009 691.625 40.0306 692.129 39.29C692.642 38.5495 692.898 37.4468 692.898 35.9819C692.914 35.8029 692.923 35.6727 692.923 35.5913L692.947 35.3472L692.959 34.8345V33.9678C692.959 32.3076 692.296 31.4775 690.969 31.4775H690.493C689.631 31.4775 688.898 31.9129 688.296 32.7837C687.702 33.6545 687.405 34.7531 687.405 36.0796ZM685.061 36.6411C685.061 35.7948 685.212 34.9321 685.513 34.0532C685.814 33.1743 686.237 32.4256 686.782 31.8071C687.328 31.1805 687.942 30.7288 688.626 30.4521C689.309 30.1673 690.119 30.0249 691.055 30.0249C691.999 30.0249 692.585 29.854 692.813 29.5122C693.041 29.1623 693.155 28.3932 693.155 27.2051C693.155 26.9854 693.118 26.6924 693.045 26.3262C692.971 25.96 692.935 25.7484 692.935 25.6914C692.935 25.3415 693.085 25.0241 693.386 24.7393C693.688 24.4463 694.082 24.2998 694.571 24.2998H694.815C695.197 24.2998 695.482 24.3893 695.669 24.5684C695.856 24.7474 695.95 25.1217 695.95 25.6914V26.8267L695.926 27.4004C695.917 27.5957 695.913 27.8805 695.913 28.2549C695.913 28.6211 695.852 29.8011 695.73 31.7949C695.608 33.7887 695.547 35.16 695.547 35.9087L695.535 36.2017C695.527 36.397 695.523 36.5841 695.523 36.7632L695.51 37.0439C695.51 37.0439 695.51 37.3613 695.51 37.9961C695.51 38.818 695.576 39.4365 695.706 39.8516C695.836 40.2666 695.901 40.5636 695.901 40.7427C695.901 40.9217 695.799 41.1089 695.596 41.3042C695.392 41.4995 695.075 41.5972 694.644 41.5972C694.221 41.5972 693.81 41.528 693.411 41.3896C693.012 41.2432 692.719 41.1699 692.532 41.1699C692.345 41.1699 692.101 41.2269 691.8 41.3408C690.888 41.6745 690.054 41.8413 689.297 41.8413C689.281 41.8413 689.265 41.8413 689.248 41.8413H688.968C687.739 41.8413 686.778 41.3937 686.087 40.4985C685.403 39.5952 685.061 38.4111 685.061 36.9463V36.6411ZM699.978 35.1885C699.482 34.6839 699.234 33.9759 699.234 33.0645C699.234 32.153 699.641 31.3717 700.454 30.7207C701.268 30.0615 702.277 29.7319 703.482 29.7319H703.799C704.865 29.7319 705.712 29.8825 706.338 30.1836C706.973 30.4847 707.29 30.9364 707.29 31.5386C707.29 32.1326 707.026 32.4297 706.497 32.4297C706.358 32.4297 705.968 32.2669 705.325 31.9414C704.682 31.6077 704.076 31.4409 703.506 31.4409C702.936 31.4409 702.477 31.5711 702.127 31.8315C701.785 32.0838 701.614 32.4338 701.614 32.8813C701.614 33.3289 701.854 33.7196 702.334 34.0532C702.611 34.2485 703.262 34.5578 704.287 34.981C705.321 35.4041 706.057 35.811 706.497 36.2017C707.205 36.8283 707.559 37.6299 707.559 38.6064C707.559 39.583 707.144 40.4212 706.314 41.1211C705.484 41.8128 704.405 42.1587 703.079 42.1587H702.761C701.427 42.1587 700.426 41.9674 699.759 41.585C699.091 41.1943 698.758 40.6898 698.758 40.0713C698.758 39.4447 699.018 39.1313 699.539 39.1313C699.71 39.1313 700.153 39.3511 700.869 39.7905C701.594 40.23 702.302 40.4497 702.993 40.4497C703.693 40.4497 704.218 40.3032 704.568 40.0103C704.918 39.7091 705.093 39.3348 705.093 38.8872C705.093 38.4315 704.873 38.0327 704.434 37.6909C704.198 37.5037 703.522 37.166 702.407 36.6777C701.293 36.1813 700.483 35.6849 699.978 35.1885ZM305.996 65.1885C305.5 64.6839 305.252 63.9759 305.252 63.0645C305.252 62.153 305.659 61.3717 306.472 60.7207C307.286 60.0615 308.295 59.7319 309.5 59.7319H309.817C310.883 59.7319 311.73 59.8825 312.356 60.1836C312.991 60.4847 313.308 60.9364 313.308 61.5386C313.308 62.1326 313.044 62.4297 312.515 62.4297C312.377 62.4297 311.986 62.2669 311.343 61.9414C310.7 61.6077 310.094 61.4409 309.524 61.4409C308.955 61.4409 308.495 61.5711 308.145 61.8315C307.803 62.0838 307.632 62.4338 307.632 62.8813C307.632 63.3289 307.872 63.7196 308.352 64.0532C308.629 64.2485 309.28 64.5578 310.305 64.981C311.339 65.4041 312.075 65.811 312.515 66.2017C313.223 66.8283 313.577 67.6299 313.577 68.6064C313.577 69.583 313.162 70.4212 312.332 71.1211C311.502 71.8128 310.423 72.1587 309.097 72.1587H308.78C307.445 72.1587 306.444 71.9674 305.777 71.585C305.109 71.1943 304.776 70.6898 304.776 70.0713C304.776 69.4447 305.036 69.1313 305.557 69.1313C305.728 69.1313 306.171 69.3511 306.887 69.7905C307.612 70.23 308.32 70.4497 309.011 70.4497C309.711 70.4497 310.236 70.3032 310.586 70.0103C310.936 69.7091 311.111 69.3348 311.111 68.8872C311.111 68.4315 310.891 68.0327 310.452 67.6909C310.216 67.5037 309.54 67.166 308.426 66.6777C307.311 66.1813 306.501 65.6849 305.996 65.1885ZM318.325 66.8486C318.325 67.9147 318.57 68.8018 319.058 69.5098C319.546 70.2178 320.144 70.5718 320.852 70.5718H321.219C322.057 70.5718 322.765 70.1486 323.343 69.3022C323.928 68.4559 324.221 67.3288 324.221 65.9209V65.1152C324.221 64.0247 323.981 63.1336 323.501 62.4419C323.029 61.742 322.419 61.3921 321.67 61.3921H321.426C320.555 61.3921 319.823 61.8234 319.229 62.686C318.643 63.5487 318.35 64.5781 318.35 65.7744L318.325 66.0552V66.8486ZM321.084 72.2319H320.694C319.269 72.2319 318.11 71.7355 317.215 70.7427C316.319 69.7498 315.872 68.342 315.872 66.519L315.884 66.3115C315.884 64.3096 316.413 62.7308 317.471 61.5752C318.024 60.9648 318.655 60.5173 319.363 60.2324C320.079 59.9395 320.759 59.793 321.402 59.793H322C322.716 59.793 323.404 59.9517 324.063 60.269C325.951 61.1805 326.895 62.8976 326.895 65.4204V65.6157C326.887 66.4377 326.752 67.2718 326.492 68.1182C325.971 69.7865 324.97 70.9665 323.489 71.6582C322.667 72.0407 321.865 72.2319 321.084 72.2319ZM334.512 60.7085C335.139 60.4725 335.781 60.3545 336.441 60.3545C337.1 60.3545 337.783 60.5498 338.491 60.9404C339.208 61.3311 339.598 61.5264 339.663 61.5264C339.728 61.5264 340.168 61.327 340.982 60.9282C341.795 60.5295 342.528 60.3301 343.179 60.3301C343.838 60.3301 344.379 60.4684 344.802 60.7451C345.234 61.0137 345.559 61.3351 345.779 61.7095C346.194 62.4256 346.402 64.0166 346.402 66.4824C346.402 67.5892 346.41 68.224 346.426 68.3867C346.45 68.5413 346.507 68.8221 346.597 69.229C346.695 69.6278 346.743 69.9574 346.743 70.2178C346.743 70.4701 346.638 70.7345 346.426 71.0112C346.214 71.2879 345.934 71.4263 345.584 71.4263C344.892 71.4263 344.481 71.1455 344.351 70.584C344.253 70.1771 344.139 68.9889 344.009 67.0195C343.887 65.0501 343.753 63.8945 343.606 63.5527C343.313 62.8366 342.691 62.4785 341.739 62.4785C341.128 62.4785 340.652 62.861 340.31 63.626C339.814 64.7246 339.566 66.2871 339.566 68.3135L339.688 70.0713C339.688 70.6898 339.46 71.1577 339.004 71.4751C338.711 71.6785 338.321 71.7803 337.832 71.7803C337.352 71.7803 337.035 71.7314 336.88 71.6338C336.612 71.471 336.477 71.1252 336.477 70.5962C336.477 70.4985 336.555 70.0998 336.709 69.3999C336.872 68.6919 336.953 67.5444 336.953 65.9575C336.953 64.3625 336.835 63.3493 336.599 62.918C336.363 62.4785 335.952 62.2588 335.366 62.2588C334.781 62.2588 334.26 62.4582 333.804 62.8569C333.356 63.2557 333.027 63.6911 332.815 64.1631C332.612 64.6351 332.429 65.7581 332.266 67.5322C332.111 69.3063 332.001 70.3236 331.936 70.584C331.822 71.0316 331.493 71.2554 330.948 71.2554C330.41 71.2554 330.04 71.0967 329.837 70.7793C329.641 70.4538 329.544 70.0591 329.544 69.5952L329.605 69.168L329.837 68.3257C329.934 67.9351 329.991 67.4793 330.008 66.9585C330.13 63.7277 330.223 61.8844 330.288 61.4287C330.353 60.973 330.646 60.7451 331.167 60.7451L332.986 61.0503C333.377 61.0503 333.885 60.9364 334.512 60.7085ZM351.992 64.5781V64.7734C351.992 65.0176 352.216 65.1396 352.664 65.1396H352.957L353.03 65.1274L353.628 65.0786C354.255 64.9891 354.662 64.9443 354.849 64.9443C355.736 64.9443 356.403 64.7775 356.851 64.4438C357.062 64.2811 357.168 63.9922 357.168 63.5771V63.4429C357.168 62.8325 356.965 62.3483 356.558 61.9902C356.159 61.6322 355.679 61.4531 355.117 61.4531H355.032L354.959 61.4653C354.169 61.4653 353.478 61.799 352.884 62.4663C352.289 63.1336 351.992 63.8376 351.992 64.5781ZM354.654 72.1587H354.385C352.831 72.1587 351.594 71.6663 350.674 70.6816C349.754 69.6888 349.295 68.3664 349.295 66.7144V66.1772C349.295 65.3879 349.449 64.5863 349.759 63.7725C350.385 62.1449 351.406 61.0218 352.823 60.4033C353.571 60.0697 354.332 59.9028 355.105 59.9028H355.63C356.696 59.9028 357.595 60.2609 358.328 60.9771C359.068 61.6851 359.439 62.6006 359.439 63.7236V63.9678C359.439 64.7653 359.121 65.3309 358.487 65.6646C358.047 65.9006 357.022 66.1366 355.41 66.3726C353.799 66.6086 352.92 66.751 352.774 66.7998C352.285 66.9707 352.041 67.2962 352.041 67.7764C352.041 68.4437 352.326 69.0133 352.896 69.4854C353.465 69.9574 354.23 70.1934 355.191 70.1934C355.638 70.1934 356.249 70.0713 357.022 69.8271C357.795 69.583 358.242 69.4609 358.365 69.4609C358.78 69.4609 358.987 69.64 358.987 69.998C358.987 70.4782 358.519 70.9583 357.583 71.4385C356.647 71.9186 355.671 72.1587 354.654 72.1587ZM377.53 64.9565C377.53 63.8742 377.302 63.0278 376.846 62.4175C376.398 61.799 375.861 61.4897 375.235 61.4897H374.881C374.002 61.4897 373.306 61.8397 372.793 62.5396C372.281 63.2313 372.024 64.2526 372.024 65.6035L372 65.8477L371.951 67.1172V67.9717C371.951 68.8587 372.13 69.4854 372.488 69.8516C372.854 70.2096 373.371 70.3887 374.038 70.3887H374.27C375.19 70.3887 375.959 69.9655 376.577 69.1191C377.196 68.2728 377.505 67.2433 377.505 66.0308L377.53 65.7622V64.9565ZM370.889 60.3667L372.598 60.6597C372.777 60.6597 373.196 60.5417 373.855 60.3057C374.514 60.0697 375.161 59.9517 375.796 59.9517C377.082 59.9517 378.124 60.4033 378.921 61.3066C379.719 62.2018 380.117 63.4103 380.117 64.9321V65.2373C380.117 66.2627 379.947 67.2067 379.605 68.0693C378.905 69.8516 377.737 71.0031 376.101 71.5239C375.637 71.6704 375.015 71.7721 374.234 71.8291C373.461 71.8861 372.911 71.9878 372.586 72.1343C372.089 72.3621 371.841 72.7731 371.841 73.3672C371.841 73.6195 371.886 73.9613 371.975 74.3926C372.073 74.8239 372.122 75.2227 372.122 75.5889C372.122 75.9551 371.914 76.3132 371.499 76.6631C371.084 77.0212 370.567 77.2002 369.949 77.2002H369.693C368.96 77.2002 368.594 76.9316 368.594 76.3945V76.1626C368.594 76.0487 368.671 75.7272 368.826 75.1982C368.989 74.6774 369.103 74.1159 369.168 73.5137C369.233 72.9196 369.339 71.4344 369.485 69.0581C369.632 66.6818 369.705 65.0583 369.705 64.1875C369.705 63.3086 369.648 62.5721 369.534 61.978C369.428 61.384 369.375 61.0625 369.375 61.0137C369.375 60.5824 369.88 60.3667 370.889 60.3667ZM383.426 65.6523V64.7124C383.426 63.5812 383.365 62.7552 383.242 62.2344C383.12 61.7054 383.059 61.3351 383.059 61.1235C383.059 60.6271 383.421 60.3789 384.146 60.3789C384.87 60.3789 385.395 60.5132 385.72 60.7817C385.81 60.855 385.924 60.9974 386.062 61.209C386.209 61.4206 386.339 61.5264 386.453 61.5264C386.477 61.5264 386.831 61.3188 387.515 60.9038C388.198 60.4888 388.784 60.2812 389.273 60.2812H389.456C389.855 60.2812 390.172 60.3789 390.408 60.5742C390.644 60.7614 390.762 60.9933 390.762 61.27V61.4287C390.762 61.7624 390.644 62.0024 390.408 62.1489C390.18 62.2954 389.814 62.3687 389.309 62.3687C388.162 62.3687 387.324 62.7715 386.795 63.5771C386.274 64.3828 386.013 65.807 386.013 67.8496C386.013 68.1426 386.062 68.5942 386.16 69.2046C386.266 69.8149 386.319 70.2747 386.319 70.584C386.319 70.8932 386.152 71.1903 385.818 71.4751C385.484 71.7599 385.061 71.9023 384.549 71.9023H384.134C383.686 71.9023 383.34 71.7965 383.096 71.585C382.86 71.3652 382.742 71.1007 382.742 70.7915C382.742 70.4741 382.799 70.1527 382.913 69.8271C383.222 68.9482 383.377 67.9798 383.377 66.9219C383.409 66.3359 383.426 65.9128 383.426 65.6523ZM394.717 66.8486C394.717 67.9147 394.961 68.8018 395.449 69.5098C395.938 70.2178 396.536 70.5718 397.244 70.5718H397.61C398.448 70.5718 399.156 70.1486 399.734 69.3022C400.32 68.4559 400.613 67.3288 400.613 65.9209V65.1152C400.613 64.0247 400.373 63.1336 399.893 62.4419C399.421 61.742 398.81 61.3921 398.062 61.3921H397.818C396.947 61.3921 396.214 61.8234 395.62 62.686C395.034 63.5487 394.741 64.5781 394.741 65.7744L394.717 66.0552V66.8486ZM397.476 72.2319H397.085C395.661 72.2319 394.501 71.7355 393.606 70.7427C392.711 69.7498 392.263 68.342 392.263 66.519L392.276 66.3115C392.276 64.3096 392.805 62.7308 393.863 61.5752C394.416 60.9648 395.047 60.5173 395.755 60.2324C396.471 59.9395 397.15 59.793 397.793 59.793H398.391C399.108 59.793 399.795 59.9517 400.454 60.269C402.342 61.1805 403.286 62.8976 403.286 65.4204V65.6157C403.278 66.4377 403.144 67.2718 402.884 68.1182C402.363 69.7865 401.362 70.9665 399.881 71.6582C399.059 72.0407 398.257 72.2319 397.476 72.2319ZM410.904 60.7085C411.53 60.4725 412.173 60.3545 412.832 60.3545C413.491 60.3545 414.175 60.5498 414.883 60.9404C415.599 61.3311 415.99 61.5264 416.055 61.5264C416.12 61.5264 416.559 61.327 417.373 60.9282C418.187 60.5295 418.92 60.3301 419.571 60.3301C420.23 60.3301 420.771 60.4684 421.194 60.7451C421.625 61.0137 421.951 61.3351 422.171 61.7095C422.586 62.4256 422.793 64.0166 422.793 66.4824C422.793 67.5892 422.801 68.224 422.818 68.3867C422.842 68.5413 422.899 68.8221 422.989 69.229C423.086 69.6278 423.135 69.9574 423.135 70.2178C423.135 70.4701 423.029 70.7345 422.818 71.0112C422.606 71.2879 422.325 71.4263 421.975 71.4263C421.284 71.4263 420.873 71.1455 420.742 70.584C420.645 70.1771 420.531 68.9889 420.401 67.0195C420.279 65.0501 420.144 63.8945 419.998 63.5527C419.705 62.8366 419.082 62.4785 418.13 62.4785C417.52 62.4785 417.044 62.861 416.702 63.626C416.205 64.7246 415.957 66.2871 415.957 68.3135L416.079 70.0713C416.079 70.6898 415.851 71.1577 415.396 71.4751C415.103 71.6785 414.712 71.7803 414.224 71.7803C413.744 71.7803 413.426 71.7314 413.272 71.6338C413.003 71.471 412.869 71.1252 412.869 70.5962C412.869 70.4985 412.946 70.0998 413.101 69.3999C413.264 68.6919 413.345 67.5444 413.345 65.9575C413.345 64.3625 413.227 63.3493 412.991 62.918C412.755 62.4785 412.344 62.2588 411.758 62.2588C411.172 62.2588 410.651 62.4582 410.196 62.8569C409.748 63.2557 409.418 63.6911 409.207 64.1631C409.003 64.6351 408.82 65.7581 408.657 67.5322C408.503 69.3063 408.393 70.3236 408.328 70.584C408.214 71.0316 407.884 71.2554 407.339 71.2554C406.802 71.2554 406.432 71.0967 406.228 70.7793C406.033 70.4538 405.935 70.0591 405.935 69.5952L405.996 69.168L406.228 68.3257C406.326 67.9351 406.383 67.4793 406.399 66.9585C406.521 63.7277 406.615 61.8844 406.68 61.4287C406.745 60.973 407.038 60.7451 407.559 60.7451L409.378 61.0503C409.768 61.0503 410.277 60.9364 410.904 60.7085ZM434.732 64.9565C434.732 63.8742 434.504 63.0278 434.048 62.4175C433.601 61.799 433.063 61.4897 432.437 61.4897H432.083C431.204 61.4897 430.508 61.8397 429.995 62.5396C429.483 63.2313 429.226 64.2526 429.226 65.6035L429.202 65.8477L429.153 67.1172V67.9717C429.153 68.8587 429.332 69.4854 429.69 69.8516C430.056 70.2096 430.573 70.3887 431.24 70.3887H431.472C432.392 70.3887 433.161 69.9655 433.78 69.1191C434.398 68.2728 434.707 67.2433 434.707 66.0308L434.732 65.7622V64.9565ZM428.091 60.3667L429.8 60.6597C429.979 60.6597 430.398 60.5417 431.057 60.3057C431.717 60.0697 432.364 59.9517 432.998 59.9517C434.284 59.9517 435.326 60.4033 436.123 61.3066C436.921 62.2018 437.32 63.4103 437.32 64.9321V65.2373C437.32 66.2627 437.149 67.2067 436.807 68.0693C436.107 69.8516 434.939 71.0031 433.303 71.5239C432.84 71.6704 432.217 71.7721 431.436 71.8291C430.663 71.8861 430.113 71.9878 429.788 72.1343C429.291 72.3621 429.043 72.7731 429.043 73.3672C429.043 73.6195 429.088 73.9613 429.177 74.3926C429.275 74.8239 429.324 75.2227 429.324 75.5889C429.324 75.9551 429.116 76.3132 428.701 76.6631C428.286 77.0212 427.77 77.2002 427.151 77.2002H426.895C426.162 77.2002 425.796 76.9316 425.796 76.3945V76.1626C425.796 76.0487 425.873 75.7272 426.028 75.1982C426.191 74.6774 426.305 74.1159 426.37 73.5137C426.435 72.9196 426.541 71.4344 426.687 69.0581C426.834 66.6818 426.907 65.0583 426.907 64.1875C426.907 63.3086 426.85 62.5721 426.736 61.978C426.63 61.384 426.577 61.0625 426.577 61.0137C426.577 60.5824 427.082 60.3667 428.091 60.3667ZM446.231 70.6938C446.231 71.0194 446.031 71.3123 445.633 71.5728C445.242 71.825 444.709 71.9512 444.033 71.9512C442.772 71.9512 441.885 71.4832 441.372 70.5474C441.055 69.9614 440.896 68.5902 440.896 66.4336C440.896 64.277 440.86 63.0238 440.786 62.6738C440.713 62.3239 440.51 61.9821 440.176 61.6484C439.842 61.3148 439.676 61.0584 439.676 60.8794C439.676 60.8143 440.07 60.387 440.86 59.5977C441.031 59.4268 441.201 59.0483 441.372 58.4624C441.551 57.8765 441.677 57.4899 441.751 57.3027C441.995 56.7168 442.316 56.4238 442.715 56.4238H442.91C443.26 56.4238 443.509 56.5581 443.655 56.8267C443.712 56.9325 443.797 57.3149 443.911 57.9741C444.033 58.6252 444.172 59.0443 444.326 59.2314C444.481 59.4186 444.868 59.6261 445.486 59.854C446.113 60.0737 446.426 60.3097 446.426 60.562V60.6963C446.426 61.0218 446.068 61.2985 445.352 61.5264C444.644 61.7461 444.188 62.1001 443.985 62.5884C443.586 63.5731 443.386 65.1763 443.386 67.3979C443.386 68.4396 443.566 69.1476 443.924 69.522C444.143 69.7498 444.583 69.9085 445.242 69.998C445.901 70.0876 446.231 70.3195 446.231 70.6938ZM453.006 56.1309V56.2773C453.006 56.6924 452.884 57.0464 452.639 57.3394C452.403 57.6242 452.037 57.7666 451.541 57.7666H451.345L450.967 57.7178C450.747 57.7178 450.536 57.616 450.332 57.4126C450.129 57.2091 450.027 56.904 450.027 56.4971V56.3506L450.088 55.9111C450.088 55.7402 450.19 55.5286 450.393 55.2764C450.605 55.0241 450.873 54.8979 451.199 54.8979L451.48 54.8613H451.724L452.066 54.9102C452.277 54.9102 452.485 55.016 452.688 55.2275C452.9 55.431 453.006 55.7321 453.006 56.1309ZM452.432 61.2822L452.298 64.5659L452.273 64.8955L452.237 65.8965V66.3726C452.237 67.5444 452.269 68.3135 452.334 68.6797C452.407 69.0459 452.542 69.404 452.737 69.7539C452.932 70.0957 453.03 70.3439 453.03 70.4985V70.6084C453.03 71.0072 452.827 71.3245 452.42 71.5605C452.013 71.7965 451.459 71.9146 450.76 71.9146H450.454C450.047 71.9146 449.738 71.825 449.527 71.646C449.315 71.4588 449.209 71.2594 449.209 71.0479V70.7793C449.209 70.6735 449.303 70.2992 449.49 69.6562C449.677 69.0052 449.771 68.1222 449.771 67.0073C449.795 66.6899 449.807 66.4702 449.807 66.3481L449.844 65.6768L449.868 65.3472C449.909 64.7775 449.929 64.334 449.929 64.0166L449.942 63.5283C449.942 62.918 449.84 62.3768 449.636 61.9048C449.441 61.4328 449.344 61.1398 449.344 61.0259C449.344 60.4399 449.897 60.147 451.004 60.147H451.443C451.858 60.147 452.127 60.2568 452.249 60.4766C452.371 60.6882 452.432 60.9567 452.432 61.2822ZM467.239 70.5352C467.239 71.1374 466.714 71.4385 465.664 71.4385C465.07 71.4385 464.671 71.2961 464.468 71.0112C464.37 70.8729 464.322 70.5474 464.322 70.0347L464.285 69.2534C464.228 68.3989 464.199 67.5404 464.199 66.6777C464.199 64.8141 464.037 63.5649 463.711 62.9302C463.394 62.2873 462.857 61.9658 462.1 61.9658C461.595 61.9658 461.127 62.1164 460.696 62.4175C460.273 62.7186 459.947 63.1377 459.719 63.6748C459.247 64.7734 459.011 66.8039 459.011 69.7661C459.011 70.4416 458.881 70.9176 458.621 71.1943C458.369 71.471 458.043 71.6094 457.644 71.6094H457.4C456.489 71.6094 456.033 71.2472 456.033 70.5229V70.23C456.033 70.1405 456.082 69.9451 456.179 69.644L456.375 69.0825C456.57 68.4233 456.668 67.0114 456.668 64.8467L456.729 61.2212C456.729 60.7573 456.981 60.5254 457.486 60.5254C457.99 60.5254 458.487 60.6922 458.975 61.0259C459.471 61.3595 459.785 61.5264 459.915 61.5264C460.053 61.5264 460.293 61.4328 460.635 61.2456C461.782 60.619 462.702 60.3057 463.394 60.3057H463.711C464.956 60.3057 465.831 60.8672 466.336 61.9902C466.58 62.5192 466.702 63.6585 466.702 65.4082V65.4937C466.702 65.6401 466.698 65.7866 466.69 65.9331C466.69 66.3319 466.69 66.5394 466.69 66.5557C466.69 66.7103 466.69 66.8608 466.69 67.0073C466.69 67.1213 466.69 67.2311 466.69 67.3369C466.69 67.9635 466.71 68.3908 466.751 68.6187C466.808 68.9279 466.901 69.2493 467.031 69.583C467.17 69.9492 467.239 70.2666 467.239 70.5352ZM472.232 66.3481V66.7266C472.232 67.8171 472.439 68.6715 472.854 69.29C473.269 69.9085 473.79 70.2178 474.417 70.2178H474.844C475.747 70.2178 476.451 69.8394 476.956 69.0825C477.46 68.3175 477.713 67.2474 477.713 65.8721C477.729 65.7093 477.737 65.5832 477.737 65.4937L477.761 64.9932V64.2607C477.745 64.098 477.737 63.9759 477.737 63.8945C477.737 63.2516 477.582 62.7471 477.273 62.3809C476.964 62.0146 476.508 61.8315 475.906 61.8315H475.564C474.604 61.8315 473.806 62.2344 473.172 63.04C472.545 63.8457 472.232 64.9484 472.232 66.3481ZM479.324 60.8306C480.032 60.8306 480.386 61.3433 480.386 62.3687C480.386 62.6372 480.276 63.7603 480.056 65.7378C479.837 67.7153 479.727 69.3958 479.727 70.7793C479.727 72.179 479.633 73.2288 479.446 73.9287C479.047 75.4342 478.124 76.5003 476.675 77.127C475.918 77.4525 475.08 77.6152 474.16 77.6152C473.249 77.6152 472.435 77.4525 471.719 77.127C471.011 76.8014 470.657 76.4108 470.657 75.9551C470.657 75.4342 471.007 75.1738 471.707 75.1738C471.845 75.1738 472.219 75.2267 472.83 75.3325C473.44 75.4383 473.88 75.4912 474.148 75.4912C475.133 75.4912 475.939 75.182 476.565 74.5635C477.2 73.9531 477.517 73.1678 477.517 72.2075C477.517 71.703 477.33 71.4507 476.956 71.4507C476.891 71.4507 476.736 71.4751 476.492 71.5239C475.8 71.6623 475.17 71.7314 474.6 71.7314C473.151 71.7314 472.061 71.292 471.328 70.4131C470.987 70.0062 470.694 69.465 470.449 68.7896C470.213 68.106 470.095 67.3857 470.095 66.6289V66.2871C470.095 65.4896 470.226 64.7043 470.486 63.9312C470.755 63.1499 471.109 62.4948 471.548 61.9658C471.988 61.4287 472.561 61.0096 473.269 60.7085C473.977 60.4074 474.702 60.2568 475.442 60.2568H475.76C476.175 60.2568 476.708 60.3708 477.359 60.5986C478.018 60.8184 478.421 60.9282 478.567 60.9282C478.893 60.8631 479.145 60.8306 479.324 60.8306ZM485.342 72.1953H484.964C484.557 72.1953 484.239 72.1017 484.011 71.9146C483.792 71.7274 483.682 71.4792 483.682 71.1699C483.666 71.1048 483.657 71.0519 483.657 71.0112L483.633 70.8037V70.584L483.645 70.5352V70.4253C483.662 70.3602 483.67 70.3073 483.67 70.2666C483.67 69.9004 483.792 69.6156 484.036 69.4121C484.288 69.2005 484.565 69.0947 484.866 69.0947L485.122 69.0581H485.452C486.339 69.0581 486.782 69.522 486.782 70.4497V70.6206L486.734 71.0356C486.734 71.41 486.591 71.6989 486.306 71.9023C486.03 72.0977 485.708 72.1953 485.342 72.1953Z" fill="black"/>
</svg>
