<svg width="758" height="87" viewBox="0 0 758 87" fill="none" xmlns="http://www.w3.org/2000/svg">
<rect width="758" height="87" rx="18" fill="#D9D9D9"/>
<path d="M52.595 54.1177C52.245 54.1177 52.07 53.9427 52.07 53.5927V45.3607H41.045C40.695 45.3607 40.52 45.1857 40.52 44.8357V26.6497C40.52 26.2997 40.695 26.1247 41.045 26.1247H46.988C47.338 26.1247 47.513 26.2997 47.513 26.6497V39.7747H52.07V26.6497C52.07 26.2997 52.245 26.1247 52.595 26.1247H58.538C58.888 26.1247 59.063 26.2997 59.063 26.6497V53.5927C59.063 53.9427 58.888 54.1177 58.538 54.1177H52.595Z" fill="#2ECC71"/>
<path d="M86.9502 26.9722C86.9502 26.37 87.4995 26.0688 88.5981 26.0688C89.1353 26.0688 89.5869 26.1868 89.9531 26.4229C90.3193 26.6589 90.5024 27.0047 90.5024 27.4604C90.5024 27.55 90.4333 27.904 90.2949 28.5225C90.1566 29.141 90.0874 30.1257 90.0874 31.4766C90.0874 32.3717 90.242 32.8193 90.5513 32.8193C90.9907 32.8193 91.833 32.1195 93.0781 30.7197C94.3232 29.32 95.1208 28.319 95.4707 27.7168C95.8288 27.1146 96.0444 26.7728 96.1177 26.6914C96.492 26.2682 97.0739 26.0566 97.8633 26.0566C98.6527 26.0566 99.0474 26.2723 99.0474 26.7036C99.0474 26.9152 98.4533 27.6354 97.2651 28.8643C96.0851 30.0931 95.133 31.208 94.4087 32.209C94.0506 32.7054 93.8716 33.1774 93.8716 33.625C93.8716 33.8936 94.4901 34.9759 95.7271 36.8721C96.964 38.7682 97.8918 40.0907 98.5103 40.8394C99.1369 41.5799 99.4502 42.0723 99.4502 42.3164C99.4502 42.707 99.0392 42.9023 98.2173 42.9023C97.3953 42.9023 96.7565 42.6785 96.3008 42.231C96.195 42.1252 95.6782 41.3195 94.7505 39.814C93.8309 38.3003 93.2368 37.3604 92.9683 36.9941C92.2928 36.0908 91.7109 35.6392 91.2227 35.6392C90.8158 35.6392 90.478 36.0257 90.2095 36.7988C89.9409 37.5719 89.8066 38.4508 89.8066 39.4355C89.8066 39.46 89.8311 39.7244 89.8799 40.229L89.9531 40.9492C89.9531 41.5433 89.7456 41.995 89.3306 42.3042C88.9155 42.6053 88.3988 42.7559 87.7803 42.7559C87.1699 42.7559 86.7874 42.6704 86.6328 42.4995C86.4782 42.3205 86.4009 42.1414 86.4009 41.9624C86.4009 41.7752 86.4945 41.4294 86.6816 40.9248C86.877 40.4202 87.0112 39.7896 87.0845 39.0327C87.2798 36.9087 87.3774 34.6707 87.3774 32.3188C87.3774 29.9588 87.3408 28.6201 87.2676 28.3027L87.1699 27.9487L87.0601 27.6191C86.9868 27.375 86.9502 27.1593 86.9502 26.9722ZM104.04 35.5781V35.7734C104.04 36.0176 104.264 36.1396 104.711 36.1396H105.004L105.078 36.1274L105.676 36.0786C106.302 35.9891 106.709 35.9443 106.896 35.9443C107.784 35.9443 108.451 35.7775 108.898 35.4438C109.11 35.2811 109.216 34.9922 109.216 34.5771V34.4429C109.216 33.8325 109.012 33.3483 108.605 32.9902C108.207 32.6322 107.727 32.4531 107.165 32.4531H107.08L107.006 32.4653C106.217 32.4653 105.525 32.799 104.931 33.4663C104.337 34.1336 104.04 34.8376 104.04 35.5781ZM106.701 43.1587H106.433C104.878 43.1587 103.641 42.6663 102.722 41.6816C101.802 40.6888 101.342 39.3664 101.342 37.7144V37.1772C101.342 36.3879 101.497 35.5863 101.806 34.7725C102.433 33.1449 103.454 32.0218 104.87 31.4033C105.619 31.0697 106.38 30.9028 107.153 30.9028H107.678C108.744 30.9028 109.643 31.2609 110.375 31.9771C111.116 32.6851 111.486 33.6006 111.486 34.7236V34.9678C111.486 35.7653 111.169 36.3309 110.534 36.6646C110.095 36.9006 109.069 37.1366 107.458 37.3726C105.847 37.6086 104.968 37.751 104.821 37.7998C104.333 37.9707 104.089 38.2962 104.089 38.7764C104.089 39.4437 104.374 40.0133 104.943 40.4854C105.513 40.9574 106.278 41.1934 107.238 41.1934C107.686 41.1934 108.296 41.0713 109.069 40.8271C109.842 40.583 110.29 40.4609 110.412 40.4609C110.827 40.4609 111.035 40.64 111.035 40.998C111.035 41.4782 110.567 41.9583 109.631 42.4385C108.695 42.9186 107.718 43.1587 106.701 43.1587ZM116.369 35.5781V35.7734C116.369 36.0176 116.593 36.1396 117.041 36.1396H117.333L117.407 36.1274L118.005 36.0786C118.632 35.9891 119.038 35.9443 119.226 35.9443C120.113 35.9443 120.78 35.7775 121.228 35.4438C121.439 35.2811 121.545 34.9922 121.545 34.5771V34.4429C121.545 33.8325 121.341 33.3483 120.935 32.9902C120.536 32.6322 120.056 32.4531 119.494 32.4531H119.409L119.335 32.4653C118.546 32.4653 117.854 32.799 117.26 33.4663C116.666 34.1336 116.369 34.8376 116.369 35.5781ZM119.03 43.1587H118.762C117.207 43.1587 115.97 42.6663 115.051 41.6816C114.131 40.6888 113.671 39.3664 113.671 37.7144V37.1772C113.671 36.3879 113.826 35.5863 114.135 34.7725C114.762 33.1449 115.783 32.0218 117.199 31.4033C117.948 31.0697 118.709 30.9028 119.482 30.9028H120.007C121.073 30.9028 121.972 31.2609 122.705 31.9771C123.445 32.6851 123.815 33.6006 123.815 34.7236V34.9678C123.815 35.7653 123.498 36.3309 122.863 36.6646C122.424 36.9006 121.398 37.1366 119.787 37.3726C118.176 37.6086 117.297 37.751 117.15 37.7998C116.662 37.9707 116.418 38.2962 116.418 38.7764C116.418 39.4437 116.703 40.0133 117.272 40.4854C117.842 40.9574 118.607 41.1934 119.567 41.1934C120.015 41.1934 120.625 41.0713 121.398 40.8271C122.172 40.583 122.619 40.4609 122.741 40.4609C123.156 40.4609 123.364 40.64 123.364 40.998C123.364 41.4782 122.896 41.9583 121.96 42.4385C121.024 42.9186 120.048 43.1587 119.03 43.1587ZM135.046 35.9565C135.046 34.8742 134.818 34.0278 134.362 33.4175C133.915 32.799 133.378 32.4897 132.751 32.4897H132.397C131.518 32.4897 130.822 32.8397 130.31 33.5396C129.797 34.2313 129.541 35.2526 129.541 36.6035L129.516 36.8477L129.467 38.1172V38.9717C129.467 39.8587 129.646 40.4854 130.004 40.8516C130.371 41.2096 130.887 41.3887 131.555 41.3887H131.787C132.706 41.3887 133.475 40.9655 134.094 40.1191C134.712 39.2728 135.021 38.2433 135.021 37.0308L135.046 36.7622V35.9565ZM128.405 31.3667L130.114 31.6597C130.293 31.6597 130.712 31.5417 131.372 31.3057C132.031 31.0697 132.678 30.9517 133.312 30.9517C134.598 30.9517 135.64 31.4033 136.438 32.3066C137.235 33.2018 137.634 34.4103 137.634 35.9321V36.2373C137.634 37.2627 137.463 38.2067 137.121 39.0693C136.421 40.8516 135.253 42.0031 133.618 42.5239C133.154 42.6704 132.531 42.7721 131.75 42.8291C130.977 42.8861 130.428 42.9878 130.102 43.1343C129.606 43.3621 129.357 43.7731 129.357 44.3672C129.357 44.6195 129.402 44.9613 129.492 45.3926C129.589 45.8239 129.638 46.2227 129.638 46.5889C129.638 46.9551 129.431 47.3132 129.016 47.6631C128.601 48.0212 128.084 48.2002 127.465 48.2002H127.209C126.477 48.2002 126.11 47.9316 126.11 47.3945V47.1626C126.11 47.0487 126.188 46.7272 126.342 46.1982C126.505 45.6774 126.619 45.1159 126.684 44.5137C126.749 43.9196 126.855 42.4344 127.001 40.0581C127.148 37.6818 127.221 36.0583 127.221 35.1875C127.221 34.3086 127.164 33.5721 127.05 32.978C126.944 32.384 126.892 32.0625 126.892 32.0137C126.892 31.5824 127.396 31.3667 128.405 31.3667ZM141.076 36.1885C140.58 35.6839 140.332 34.9759 140.332 34.0645C140.332 33.153 140.738 32.3717 141.552 31.7207C142.366 31.0615 143.375 30.7319 144.58 30.7319H144.897C145.963 30.7319 146.809 30.8825 147.436 31.1836C148.071 31.4847 148.388 31.9364 148.388 32.5386C148.388 33.1326 148.124 33.4297 147.595 33.4297C147.456 33.4297 147.066 33.2669 146.423 32.9414C145.78 32.6077 145.174 32.4409 144.604 32.4409C144.034 32.4409 143.575 32.5711 143.225 32.8315C142.883 33.0838 142.712 33.4338 142.712 33.8813C142.712 34.3289 142.952 34.7196 143.432 35.0532C143.709 35.2485 144.36 35.5578 145.385 35.981C146.419 36.4041 147.155 36.811 147.595 37.2017C148.303 37.8283 148.657 38.6299 148.657 39.6064C148.657 40.583 148.242 41.4212 147.412 42.1211C146.582 42.8128 145.503 43.1587 144.177 43.1587H143.859C142.525 43.1587 141.524 42.9674 140.856 42.585C140.189 42.1943 139.855 41.6898 139.855 41.0713C139.855 40.4447 140.116 40.1313 140.637 40.1313C140.808 40.1313 141.251 40.3511 141.967 40.7905C142.692 41.23 143.4 41.4497 144.091 41.4497C144.791 41.4497 145.316 41.3032 145.666 41.0103C146.016 40.7091 146.191 40.3348 146.191 39.8872C146.191 39.4315 145.971 39.0327 145.532 38.6909C145.296 38.5037 144.62 38.166 143.505 37.6777C142.39 37.1813 141.581 36.6849 141.076 36.1885ZM159.045 36.1885C158.549 35.6839 158.3 34.9759 158.3 34.0645C158.3 33.153 158.707 32.3717 159.521 31.7207C160.335 31.0615 161.344 30.7319 162.548 30.7319H162.866C163.932 30.7319 164.778 30.8825 165.405 31.1836C166.04 31.4847 166.357 31.9364 166.357 32.5386C166.357 33.1326 166.092 33.4297 165.563 33.4297C165.425 33.4297 165.035 33.2669 164.392 32.9414C163.749 32.6077 163.142 32.4409 162.573 32.4409C162.003 32.4409 161.543 32.5711 161.193 32.8315C160.852 33.0838 160.681 33.4338 160.681 33.8813C160.681 34.3289 160.921 34.7196 161.401 35.0532C161.678 35.2485 162.329 35.5578 163.354 35.981C164.388 36.4041 165.124 36.811 165.563 37.2017C166.271 37.8283 166.625 38.6299 166.625 39.6064C166.625 40.583 166.21 41.4212 165.38 42.1211C164.55 42.8128 163.472 43.1587 162.146 43.1587H161.828C160.493 43.1587 159.493 42.9674 158.825 42.585C158.158 42.1943 157.824 41.6898 157.824 41.0713C157.824 40.4447 158.085 40.1313 158.605 40.1313C158.776 40.1313 159.22 40.3511 159.936 40.7905C160.66 41.23 161.368 41.4497 162.06 41.4497C162.76 41.4497 163.285 41.3032 163.635 41.0103C163.985 40.7091 164.16 40.3348 164.16 39.8872C164.16 39.4315 163.94 39.0327 163.5 38.6909C163.264 38.5037 162.589 38.166 161.474 37.6777C160.359 37.1813 159.549 36.6849 159.045 36.1885ZM177.819 35.9565C177.819 34.8742 177.591 34.0278 177.136 33.4175C176.688 32.799 176.151 32.4897 175.524 32.4897H175.17C174.292 32.4897 173.596 32.8397 173.083 33.5396C172.57 34.2313 172.314 35.2526 172.314 36.6035L172.29 36.8477L172.241 38.1172V38.9717C172.241 39.8587 172.42 40.4854 172.778 40.8516C173.144 41.2096 173.661 41.3887 174.328 41.3887H174.56C175.48 41.3887 176.249 40.9655 176.867 40.1191C177.486 39.2728 177.795 38.2433 177.795 37.0308L177.819 36.7622V35.9565ZM171.179 31.3667L172.888 31.6597C173.067 31.6597 173.486 31.5417 174.145 31.3057C174.804 31.0697 175.451 30.9517 176.086 30.9517C177.372 30.9517 178.413 31.4033 179.211 32.3066C180.008 33.2018 180.407 34.4103 180.407 35.9321V36.2373C180.407 37.2627 180.236 38.2067 179.895 39.0693C179.195 40.8516 178.027 42.0031 176.391 42.5239C175.927 42.6704 175.305 42.7721 174.523 42.8291C173.75 42.8861 173.201 42.9878 172.875 43.1343C172.379 43.3621 172.131 43.7731 172.131 44.3672C172.131 44.6195 172.176 44.9613 172.265 45.3926C172.363 45.8239 172.412 46.2227 172.412 46.5889C172.412 46.9551 172.204 47.3132 171.789 47.6631C171.374 48.0212 170.857 48.2002 170.239 48.2002H169.982C169.25 48.2002 168.884 47.9316 168.884 47.3945V47.1626C168.884 47.0487 168.961 46.7272 169.116 46.1982C169.278 45.6774 169.392 45.1159 169.458 44.5137C169.523 43.9196 169.628 42.4344 169.775 40.0581C169.921 37.6818 169.995 36.0583 169.995 35.1875C169.995 34.3086 169.938 33.5721 169.824 32.978C169.718 32.384 169.665 32.0625 169.665 32.0137C169.665 31.5824 170.17 31.3667 171.179 31.3667ZM186.84 41.4619H187.158C187.825 41.4619 188.411 41.2381 188.916 40.7905C189.428 40.3348 189.685 39.8099 189.685 39.2158L189.709 39.0571V38.8984L189.733 38.52V37.8242C189.733 37.3522 189.493 37.1162 189.013 37.1162H188.464L188.378 37.1284L187.902 37.165C187.674 37.1976 187.512 37.2139 187.414 37.2139C186.755 37.2139 186.145 37.4621 185.583 37.9585C185.192 38.3084 184.997 38.8049 184.997 39.4478V39.6919C184.997 40.2371 185.172 40.6685 185.522 40.9858C185.88 41.3032 186.319 41.4619 186.84 41.4619ZM184.118 33.6616C183.573 33.6616 183.3 33.3117 183.3 32.6118C183.3 32.091 183.74 31.6393 184.619 31.2568C185.506 30.8662 186.425 30.6709 187.377 30.6709H187.988C188.81 30.6709 189.534 30.8255 190.161 31.1348C190.787 31.4359 191.263 31.8468 191.589 32.3677C191.923 32.8885 192.126 33.568 192.199 34.4062C192.215 34.6016 192.224 35.5496 192.224 37.2505C192.224 38.9513 192.244 39.932 192.285 40.1924C192.333 40.4447 192.464 40.7539 192.675 41.1201C192.895 41.4863 193.005 41.7874 193.005 42.0234C193.005 42.2594 192.891 42.4629 192.663 42.6338C192.443 42.7965 192.122 42.8779 191.699 42.8779C191.276 42.8779 190.816 42.7762 190.319 42.5728C189.823 42.3612 189.461 42.2554 189.233 42.2554C189.208 42.2554 188.802 42.4019 188.012 42.6948C187.223 42.9797 186.556 43.1221 186.01 43.1221H185.742C184.83 43.1221 184.053 42.8332 183.41 42.2554C182.775 41.6776 182.458 40.8556 182.458 39.7896C182.458 38.7235 182.808 37.8934 183.508 37.2993C184.208 36.6971 185.058 36.2861 186.059 36.0664C186.36 36.0013 186.861 35.9159 187.561 35.8101C188.26 35.7043 188.736 35.5944 188.989 35.4805C189.428 35.277 189.648 34.8945 189.648 34.333C189.648 33.7633 189.461 33.3198 189.086 33.0024C188.712 32.6769 188.264 32.5142 187.744 32.5142C187.231 32.5142 186.556 32.7054 185.717 33.0879C184.879 33.4704 184.346 33.6616 184.118 33.6616ZM195.471 37.9219V37.3604C195.471 36.335 195.629 35.4276 195.947 34.6382C196.557 33.1082 197.493 32.0503 198.754 31.4644C199.576 31.0737 200.427 30.8784 201.306 30.8784H201.574C202.543 30.8784 203.344 31.0697 203.979 31.4521C204.614 31.8346 204.931 32.3026 204.931 32.856C204.931 33.4989 204.622 33.8203 204.003 33.8203C203.889 33.8203 203.491 33.6413 202.807 33.2832C202.124 32.9333 201.562 32.7583 201.123 32.7583C201.114 32.7583 201.106 32.7583 201.098 32.7583C200.138 32.7583 199.385 33.1733 198.84 34.0034C198.303 34.8335 198.034 35.9159 198.034 37.2505C198.034 38.5851 198.319 39.5739 198.889 40.2168C199.466 40.8597 200.268 41.1812 201.293 41.1812C201.717 41.1812 202.299 41.0632 203.039 40.8271C203.78 40.583 204.231 40.4609 204.394 40.4609C204.728 40.4609 204.895 40.6359 204.895 40.9858C204.895 41.4578 204.427 41.9339 203.491 42.4141C202.555 42.8942 201.635 43.1343 200.732 43.1343C198.315 43.1343 196.716 42.1821 195.935 40.2778C195.625 39.521 195.471 38.7357 195.471 37.9219ZM209.68 35.5781V35.7734C209.68 36.0176 209.903 36.1396 210.351 36.1396H210.644L210.717 36.1274L211.315 36.0786C211.942 35.9891 212.349 35.9443 212.536 35.9443C213.423 35.9443 214.09 35.7775 214.538 35.4438C214.75 35.2811 214.855 34.9922 214.855 34.5771V34.4429C214.855 33.8325 214.652 33.3483 214.245 32.9902C213.846 32.6322 213.366 32.4531 212.805 32.4531H212.719L212.646 32.4653C211.857 32.4653 211.165 32.799 210.571 33.4663C209.977 34.1336 209.68 34.8376 209.68 35.5781ZM212.341 43.1587H212.072C210.518 43.1587 209.281 42.6663 208.361 41.6816C207.442 40.6888 206.982 39.3664 206.982 37.7144V37.1772C206.982 36.3879 207.137 35.5863 207.446 34.7725C208.072 33.1449 209.094 32.0218 210.51 31.4033C211.258 31.0697 212.019 30.9028 212.792 30.9028H213.317C214.383 30.9028 215.283 31.2609 216.015 31.9771C216.756 32.6851 217.126 33.6006 217.126 34.7236V34.9678C217.126 35.7653 216.809 36.3309 216.174 36.6646C215.734 36.9006 214.709 37.1366 213.098 37.3726C211.486 37.6086 210.607 37.751 210.461 37.7998C209.973 37.9707 209.729 38.2962 209.729 38.7764C209.729 39.4437 210.013 40.0133 210.583 40.4854C211.153 40.9574 211.918 41.1934 212.878 41.1934C213.326 41.1934 213.936 41.0713 214.709 40.8271C215.482 40.583 215.93 40.4609 216.052 40.4609C216.467 40.4609 216.674 40.64 216.674 40.998C216.674 41.4782 216.206 41.9583 215.271 42.4385C214.335 42.9186 213.358 43.1587 212.341 43.1587ZM226.257 37.9219V37.3604C226.257 36.335 226.416 35.4276 226.733 34.6382C227.343 33.1082 228.279 32.0503 229.541 31.4644C230.362 31.0737 231.213 30.8784 232.092 30.8784H232.36C233.329 30.8784 234.13 31.0697 234.765 31.4521C235.4 31.8346 235.717 32.3026 235.717 32.856C235.717 33.4989 235.408 33.8203 234.79 33.8203C234.676 33.8203 234.277 33.6413 233.593 33.2832C232.91 32.9333 232.348 32.7583 231.909 32.7583C231.901 32.7583 231.892 32.7583 231.884 32.7583C230.924 32.7583 230.171 33.1733 229.626 34.0034C229.089 34.8335 228.82 35.9159 228.82 37.2505C228.82 38.5851 229.105 39.5739 229.675 40.2168C230.253 40.8597 231.054 41.1812 232.08 41.1812C232.503 41.1812 233.085 41.0632 233.825 40.8271C234.566 40.583 235.017 40.4609 235.18 40.4609C235.514 40.4609 235.681 40.6359 235.681 40.9858C235.681 41.4578 235.213 41.9339 234.277 42.4141C233.341 42.8942 232.421 43.1343 231.518 43.1343C229.101 43.1343 227.502 42.1821 226.721 40.2778C226.411 39.521 226.257 38.7357 226.257 37.9219ZM240.368 37.8486C240.368 38.9147 240.612 39.8018 241.101 40.5098C241.589 41.2178 242.187 41.5718 242.895 41.5718H243.261C244.099 41.5718 244.807 41.1486 245.385 40.3022C245.971 39.4559 246.264 38.3288 246.264 36.9209V36.1152C246.264 35.0247 246.024 34.1336 245.544 33.4419C245.072 32.742 244.462 32.3921 243.713 32.3921H243.469C242.598 32.3921 241.866 32.8234 241.271 33.686C240.686 34.5487 240.393 35.5781 240.393 36.7744L240.368 37.0552V37.8486ZM243.127 43.2319H242.736C241.312 43.2319 240.153 42.7355 239.257 41.7427C238.362 40.7498 237.915 39.342 237.915 37.519L237.927 37.3115C237.927 35.3096 238.456 33.7308 239.514 32.5752C240.067 31.9648 240.698 31.5173 241.406 31.2324C242.122 30.9395 242.801 30.793 243.444 30.793H244.042C244.759 30.793 245.446 30.9517 246.105 31.269C247.993 32.1805 248.938 33.8976 248.938 36.4204V36.6157C248.929 37.4377 248.795 38.2718 248.535 39.1182C248.014 40.7865 247.013 41.9665 245.532 42.6582C244.71 43.0407 243.908 43.2319 243.127 43.2319ZM262.67 41.5352C262.67 42.1374 262.146 42.4385 261.096 42.4385C260.502 42.4385 260.103 42.2961 259.899 42.0112C259.802 41.8729 259.753 41.5474 259.753 41.0347L259.716 40.2534C259.659 39.3989 259.631 38.5404 259.631 37.6777C259.631 35.8141 259.468 34.5649 259.143 33.9302C258.825 33.2873 258.288 32.9658 257.531 32.9658C257.027 32.9658 256.559 33.1164 256.127 33.4175C255.704 33.7186 255.379 34.1377 255.151 34.6748C254.679 35.7734 254.443 37.8039 254.443 40.7661C254.443 41.4416 254.313 41.9176 254.052 42.1943C253.8 42.471 253.474 42.6094 253.076 42.6094H252.832C251.92 42.6094 251.464 42.2472 251.464 41.5229V41.23C251.464 41.1405 251.513 40.9451 251.611 40.644L251.806 40.0825C252.001 39.4233 252.099 38.0114 252.099 35.8467L252.16 32.2212C252.16 31.7573 252.412 31.5254 252.917 31.5254C253.422 31.5254 253.918 31.6922 254.406 32.0259C254.903 32.3595 255.216 32.5264 255.346 32.5264C255.485 32.5264 255.725 32.4328 256.066 32.2456C257.214 31.619 258.133 31.3057 258.825 31.3057H259.143C260.388 31.3057 261.263 31.8672 261.767 32.9902C262.011 33.5192 262.133 34.6585 262.133 36.4082V36.4937C262.133 36.6401 262.129 36.7866 262.121 36.9331C262.121 37.3319 262.121 37.5394 262.121 37.5557C262.121 37.7103 262.121 37.8608 262.121 38.0073C262.121 38.1213 262.121 38.2311 262.121 38.3369C262.121 38.9635 262.141 39.3908 262.182 39.6187C262.239 39.9279 262.333 40.2493 262.463 40.583C262.601 40.9492 262.67 41.2666 262.67 41.5352ZM266.418 36.1885C265.922 35.6839 265.673 34.9759 265.673 34.0645C265.673 33.153 266.08 32.3717 266.894 31.7207C267.708 31.0615 268.717 30.7319 269.921 30.7319H270.239C271.305 30.7319 272.151 30.8825 272.778 31.1836C273.413 31.4847 273.73 31.9364 273.73 32.5386C273.73 33.1326 273.465 33.4297 272.937 33.4297C272.798 33.4297 272.408 33.2669 271.765 32.9414C271.122 32.6077 270.515 32.4409 269.946 32.4409C269.376 32.4409 268.916 32.5711 268.566 32.8315C268.225 33.0838 268.054 33.4338 268.054 33.8813C268.054 34.3289 268.294 34.7196 268.774 35.0532C269.051 35.2485 269.702 35.5578 270.727 35.981C271.761 36.4041 272.497 36.811 272.937 37.2017C273.645 37.8283 273.999 38.6299 273.999 39.6064C273.999 40.583 273.583 41.4212 272.753 42.1211C271.923 42.8128 270.845 43.1587 269.519 43.1587H269.201C267.867 43.1587 266.866 42.9674 266.198 42.585C265.531 42.1943 265.197 41.6898 265.197 41.0713C265.197 40.4447 265.458 40.1313 265.979 40.1313C266.149 40.1313 266.593 40.3511 267.309 40.7905C268.033 41.23 268.741 41.4497 269.433 41.4497C270.133 41.4497 270.658 41.3032 271.008 41.0103C271.358 40.7091 271.533 40.3348 271.533 39.8872C271.533 39.4315 271.313 39.0327 270.874 38.6909C270.638 38.5037 269.962 38.166 268.847 37.6777C267.732 37.1813 266.923 36.6849 266.418 36.1885ZM280.59 27.1309V27.2773C280.59 27.6924 280.468 28.0464 280.224 28.3394C279.988 28.6242 279.622 28.7666 279.125 28.7666H278.93L278.552 28.7178C278.332 28.7178 278.12 28.616 277.917 28.4126C277.714 28.2091 277.612 27.904 277.612 27.4971V27.3506L277.673 26.9111C277.673 26.7402 277.775 26.5286 277.978 26.2764C278.19 26.0241 278.458 25.8979 278.784 25.8979L279.064 25.8613H279.309L279.65 25.9102C279.862 25.9102 280.069 26.016 280.273 26.2275C280.485 26.431 280.59 26.7321 280.59 27.1309ZM280.017 32.2822L279.882 35.5659L279.858 35.8955L279.821 36.8965V37.3726C279.821 38.5444 279.854 39.3135 279.919 39.6797C279.992 40.0459 280.126 40.404 280.322 40.7539C280.517 41.0957 280.615 41.3439 280.615 41.4985V41.6084C280.615 42.0072 280.411 42.3245 280.004 42.5605C279.597 42.7965 279.044 42.9146 278.344 42.9146H278.039C277.632 42.9146 277.323 42.825 277.111 42.646C276.9 42.4588 276.794 42.2594 276.794 42.0479V41.7793C276.794 41.6735 276.888 41.2992 277.075 40.6562C277.262 40.0052 277.355 39.1222 277.355 38.0073C277.38 37.6899 277.392 37.4702 277.392 37.3481L277.429 36.6768L277.453 36.3472C277.494 35.7775 277.514 35.334 277.514 35.0166L277.526 34.5283C277.526 33.918 277.425 33.3768 277.221 32.9048C277.026 32.4328 276.928 32.1398 276.928 32.0259C276.928 31.4399 277.482 31.147 278.588 31.147H279.028C279.443 31.147 279.711 31.2568 279.833 31.4766C279.956 31.6882 280.017 31.9567 280.017 32.2822ZM284.533 36.1885C284.037 35.6839 283.789 34.9759 283.789 34.0645C283.789 33.153 284.195 32.3717 285.009 31.7207C285.823 31.0615 286.832 30.7319 288.037 30.7319H288.354C289.42 30.7319 290.266 30.8825 290.893 31.1836C291.528 31.4847 291.845 31.9364 291.845 32.5386C291.845 33.1326 291.581 33.4297 291.052 33.4297C290.913 33.4297 290.523 33.2669 289.88 32.9414C289.237 32.6077 288.631 32.4409 288.061 32.4409C287.491 32.4409 287.032 32.5711 286.682 32.8315C286.34 33.0838 286.169 33.4338 286.169 33.8813C286.169 34.3289 286.409 34.7196 286.889 35.0532C287.166 35.2485 287.817 35.5578 288.842 35.981C289.876 36.4041 290.612 36.811 291.052 37.2017C291.76 37.8283 292.114 38.6299 292.114 39.6064C292.114 40.583 291.699 41.4212 290.869 42.1211C290.039 42.8128 288.96 43.1587 287.634 43.1587H287.316C285.982 43.1587 284.981 42.9674 284.313 42.585C283.646 42.1943 283.312 41.6898 283.312 41.0713C283.312 40.4447 283.573 40.1313 284.094 40.1313C284.265 40.1313 284.708 40.3511 285.424 40.7905C286.149 41.23 286.857 41.4497 287.548 41.4497C288.248 41.4497 288.773 41.3032 289.123 41.0103C289.473 40.7091 289.648 40.3348 289.648 39.8872C289.648 39.4315 289.428 39.0327 288.989 38.6909C288.753 38.5037 288.077 38.166 286.962 37.6777C285.847 37.1813 285.038 36.6849 284.533 36.1885ZM301.11 41.6938C301.11 42.0194 300.911 42.3123 300.512 42.5728C300.122 42.825 299.589 42.9512 298.913 42.9512C297.652 42.9512 296.765 42.4832 296.252 41.5474C295.935 40.9614 295.776 39.5902 295.776 37.4336C295.776 35.277 295.739 34.0238 295.666 33.6738C295.593 33.3239 295.389 32.9821 295.056 32.6484C294.722 32.3148 294.555 32.0584 294.555 31.8794C294.555 31.8143 294.95 31.387 295.739 30.5977C295.91 30.4268 296.081 30.0483 296.252 29.4624C296.431 28.8765 296.557 28.4899 296.63 28.3027C296.875 27.7168 297.196 27.4238 297.595 27.4238H297.79C298.14 27.4238 298.388 27.5581 298.535 27.8267C298.592 27.9325 298.677 28.3149 298.791 28.9741C298.913 29.6252 299.051 30.0443 299.206 30.2314C299.361 30.4186 299.747 30.6261 300.366 30.854C300.992 31.0737 301.306 31.3097 301.306 31.562V31.6963C301.306 32.0218 300.948 32.2985 300.231 32.5264C299.523 32.7461 299.068 33.1001 298.864 33.5884C298.465 34.5731 298.266 36.1763 298.266 38.3979C298.266 39.4396 298.445 40.1476 298.803 40.522C299.023 40.7498 299.462 40.9085 300.122 40.998C300.781 41.0876 301.11 41.3195 301.11 41.6938ZM306.091 35.5781V35.7734C306.091 36.0176 306.315 36.1396 306.762 36.1396H307.055L307.128 36.1274L307.727 36.0786C308.353 35.9891 308.76 35.9443 308.947 35.9443C309.834 35.9443 310.502 35.7775 310.949 35.4438C311.161 35.2811 311.267 34.9922 311.267 34.5771V34.4429C311.267 33.8325 311.063 33.3483 310.656 32.9902C310.257 32.6322 309.777 32.4531 309.216 32.4531H309.13L309.057 32.4653C308.268 32.4653 307.576 32.799 306.982 33.4663C306.388 34.1336 306.091 34.8376 306.091 35.5781ZM308.752 43.1587H308.483C306.929 43.1587 305.692 42.6663 304.772 41.6816C303.853 40.6888 303.393 39.3664 303.393 37.7144V37.1772C303.393 36.3879 303.548 35.5863 303.857 34.7725C304.484 33.1449 305.505 32.0218 306.921 31.4033C307.67 31.0697 308.431 30.9028 309.204 30.9028H309.729C310.795 30.9028 311.694 31.2609 312.426 31.9771C313.167 32.6851 313.537 33.6006 313.537 34.7236V34.9678C313.537 35.7653 313.22 36.3309 312.585 36.6646C312.146 36.9006 311.12 37.1366 309.509 37.3726C307.897 37.6086 307.019 37.751 306.872 37.7998C306.384 37.9707 306.14 38.2962 306.14 38.7764C306.14 39.4437 306.424 40.0133 306.994 40.4854C307.564 40.9574 308.329 41.1934 309.289 41.1934C309.737 41.1934 310.347 41.0713 311.12 40.8271C311.893 40.583 312.341 40.4609 312.463 40.4609C312.878 40.4609 313.085 40.64 313.085 40.998C313.085 41.4782 312.618 41.9583 311.682 42.4385C310.746 42.9186 309.769 43.1587 308.752 43.1587ZM327.392 41.5352C327.392 42.1374 326.867 42.4385 325.817 42.4385C325.223 42.4385 324.825 42.2961 324.621 42.0112C324.523 41.8729 324.475 41.5474 324.475 41.0347L324.438 40.2534C324.381 39.3989 324.353 38.5404 324.353 37.6777C324.353 35.8141 324.19 34.5649 323.864 33.9302C323.547 33.2873 323.01 32.9658 322.253 32.9658C321.748 32.9658 321.28 33.1164 320.849 33.4175C320.426 33.7186 320.1 34.1377 319.873 34.6748C319.401 35.7734 319.165 37.8039 319.165 40.7661C319.165 41.4416 319.034 41.9176 318.774 42.1943C318.522 42.471 318.196 42.6094 317.797 42.6094H317.553C316.642 42.6094 316.186 42.2472 316.186 41.5229V41.23C316.186 41.1405 316.235 40.9451 316.333 40.644L316.528 40.0825C316.723 39.4233 316.821 38.0114 316.821 35.8467L316.882 32.2212C316.882 31.7573 317.134 31.5254 317.639 31.5254C318.143 31.5254 318.64 31.6922 319.128 32.0259C319.624 32.3595 319.938 32.5264 320.068 32.5264C320.206 32.5264 320.446 32.4328 320.788 32.2456C321.936 31.619 322.855 31.3057 323.547 31.3057H323.864C325.109 31.3057 325.984 31.8672 326.489 32.9902C326.733 33.5192 326.855 34.6585 326.855 36.4082V36.4937C326.855 36.6401 326.851 36.7866 326.843 36.9331C326.843 37.3319 326.843 37.5394 326.843 37.5557C326.843 37.7103 326.843 37.8608 326.843 38.0073C326.843 38.1213 326.843 38.2311 326.843 38.3369C326.843 38.9635 326.863 39.3908 326.904 39.6187C326.961 39.9279 327.054 40.2493 327.185 40.583C327.323 40.9492 327.392 41.2666 327.392 41.5352ZM336.56 41.6938C336.56 42.0194 336.36 42.3123 335.961 42.5728C335.571 42.825 335.038 42.9512 334.362 42.9512C333.101 42.9512 332.214 42.4832 331.701 41.5474C331.384 40.9614 331.225 39.5902 331.225 37.4336C331.225 35.277 331.188 34.0238 331.115 33.6738C331.042 33.3239 330.839 32.9821 330.505 32.6484C330.171 32.3148 330.004 32.0584 330.004 31.8794C330.004 31.8143 330.399 31.387 331.188 30.5977C331.359 30.4268 331.53 30.0483 331.701 29.4624C331.88 28.8765 332.006 28.4899 332.08 28.3027C332.324 27.7168 332.645 27.4238 333.044 27.4238H333.239C333.589 27.4238 333.837 27.5581 333.984 27.8267C334.041 27.9325 334.126 28.3149 334.24 28.9741C334.362 29.6252 334.501 30.0443 334.655 30.2314C334.81 30.4186 335.196 30.6261 335.815 30.854C336.442 31.0737 336.755 31.3097 336.755 31.562V31.6963C336.755 32.0218 336.397 32.2985 335.681 32.5264C334.973 32.7461 334.517 33.1001 334.313 33.5884C333.915 34.5731 333.715 36.1763 333.715 38.3979C333.715 39.4396 333.894 40.1476 334.252 40.522C334.472 40.7498 334.912 40.9085 335.571 40.998C336.23 41.0876 336.56 41.3195 336.56 41.6938ZM340.039 26.0322C340.039 25.4382 340.596 25.1411 341.711 25.1411H341.931C342.395 25.1411 342.712 25.255 342.883 25.4829C343.054 25.7026 343.139 26.134 343.139 26.7769L343.042 28.5957C343.017 28.8805 343.005 29.0352 343.005 29.0596L342.98 29.5234C342.964 29.8245 342.948 30.1297 342.932 30.439L342.895 30.9028L342.858 31.5986C342.728 34.0726 342.663 35.8996 342.663 37.0796C342.663 38.2515 342.716 39.0938 342.822 39.6064C342.928 40.1191 343.094 40.5545 343.322 40.9126C343.55 41.2707 343.664 41.5067 343.664 41.6206V41.7671C343.664 42.1252 343.485 42.41 343.127 42.6216C342.777 42.8332 342.301 42.939 341.699 42.939H341.064C340.69 42.939 340.36 42.8332 340.075 42.6216C339.799 42.4019 339.66 42.1536 339.66 41.877V41.5474L339.733 41.0347C339.831 40.3267 339.888 39.7977 339.904 39.4478C339.929 39.0897 339.965 38.5973 340.014 37.9707C340.063 37.3359 340.14 35.9891 340.246 33.9302C340.36 31.8631 340.417 30.7523 340.417 30.5977L340.466 29.6821L340.49 28.7788C340.49 27.9162 340.413 27.3018 340.258 26.9355C340.112 26.5612 340.039 26.2601 340.039 26.0322ZM350.585 42.9512C350.585 42.528 350.297 41.7874 349.719 40.7295C349.141 39.6634 348.657 38.6706 348.266 37.751C346.931 34.6178 346.264 32.8071 346.264 32.3188C346.264 32.0991 346.39 31.8997 346.643 31.7207C346.903 31.5417 347.334 31.4521 347.937 31.4521C348.539 31.4521 348.962 31.7085 349.206 32.2212C349.23 32.2782 349.316 32.6322 349.462 33.2832C350.569 37.3278 351.261 39.4478 351.538 39.6431C351.961 39.6431 352.539 38.6543 353.271 36.6768C353.767 35.334 354.073 34.2069 354.187 33.2954C354.309 32.384 354.406 31.859 354.479 31.7207C354.707 31.2975 355.179 31.0859 355.896 31.0859C356.62 31.0859 356.982 31.3667 356.982 31.9282C356.982 32.327 356.835 32.86 356.542 33.5273C356.25 34.1947 355.973 34.9189 355.712 35.7002C354.223 40.1598 353.145 42.9756 352.478 44.1475C351.81 45.3275 351.106 46.2552 350.366 46.9307C349.625 47.6143 348.881 47.9561 348.132 47.9561C347.391 47.9561 347.021 47.7445 347.021 47.3213C347.021 46.9469 347.399 46.6051 348.156 46.2959C348.921 45.9867 349.454 45.6286 349.755 45.2217C350.309 44.4811 350.585 43.7243 350.585 42.9512ZM365.734 37.9219V37.3604C365.734 36.335 365.893 35.4276 366.21 34.6382C366.821 33.1082 367.757 32.0503 369.018 31.4644C369.84 31.0737 370.69 30.8784 371.569 30.8784H371.838C372.806 30.8784 373.608 31.0697 374.243 31.4521C374.877 31.8346 375.195 32.3026 375.195 32.856C375.195 33.4989 374.886 33.8203 374.267 33.8203C374.153 33.8203 373.754 33.6413 373.071 33.2832C372.387 32.9333 371.826 32.7583 371.386 32.7583C371.378 32.7583 371.37 32.7583 371.362 32.7583C370.402 32.7583 369.649 33.1733 369.104 34.0034C368.566 34.8335 368.298 35.9159 368.298 37.2505C368.298 38.5851 368.583 39.5739 369.152 40.2168C369.73 40.8597 370.532 41.1812 371.557 41.1812C371.98 41.1812 372.562 41.0632 373.303 40.8271C374.043 40.583 374.495 40.4609 374.658 40.4609C374.991 40.4609 375.158 40.6359 375.158 40.9858C375.158 41.4578 374.69 41.9339 373.754 42.4141C372.819 42.8942 371.899 43.1343 370.996 43.1343C368.579 43.1343 366.979 42.1821 366.198 40.2778C365.889 39.521 365.734 38.7357 365.734 37.9219ZM378.442 26.0322C378.442 25.4382 378.999 25.1411 380.114 25.1411H380.334C380.798 25.1411 381.115 25.255 381.286 25.4829C381.457 25.7026 381.542 26.134 381.542 26.7769L381.445 28.5957C381.42 28.8805 381.408 29.0352 381.408 29.0596L381.384 29.5234C381.368 29.8245 381.351 30.1297 381.335 30.439L381.298 30.9028L381.262 31.5986C381.132 34.0726 381.066 35.8996 381.066 37.0796C381.066 38.2515 381.119 39.0938 381.225 39.6064C381.331 40.1191 381.498 40.5545 381.726 40.9126C381.953 41.2707 382.067 41.5067 382.067 41.6206V41.7671C382.067 42.1252 381.888 42.41 381.53 42.6216C381.18 42.8332 380.704 42.939 380.102 42.939H379.467C379.093 42.939 378.763 42.8332 378.479 42.6216C378.202 42.4019 378.063 42.1536 378.063 41.877V41.5474L378.137 41.0347C378.234 40.3267 378.291 39.7977 378.308 39.4478C378.332 39.0897 378.369 38.5973 378.417 37.9707C378.466 37.3359 378.544 35.9891 378.649 33.9302C378.763 31.8631 378.82 30.7523 378.82 30.5977L378.869 29.6821L378.894 28.7788C378.894 27.9162 378.816 27.3018 378.662 26.9355C378.515 26.5612 378.442 26.2601 378.442 26.0322ZM387.121 35.5781V35.7734C387.121 36.0176 387.345 36.1396 387.792 36.1396H388.085L388.159 36.1274L388.757 36.0786C389.383 35.9891 389.79 35.9443 389.978 35.9443C390.865 35.9443 391.532 35.7775 391.979 35.4438C392.191 35.2811 392.297 34.9922 392.297 34.5771V34.4429C392.297 33.8325 392.093 33.3483 391.687 32.9902C391.288 32.6322 390.808 32.4531 390.246 32.4531H390.161L390.087 32.4653C389.298 32.4653 388.606 32.799 388.012 33.4663C387.418 34.1336 387.121 34.8376 387.121 35.5781ZM389.782 43.1587H389.514C387.959 43.1587 386.722 42.6663 385.803 41.6816C384.883 40.6888 384.423 39.3664 384.423 37.7144V37.1772C384.423 36.3879 384.578 35.5863 384.887 34.7725C385.514 33.1449 386.535 32.0218 387.951 31.4033C388.7 31.0697 389.461 30.9028 390.234 30.9028H390.759C391.825 30.9028 392.724 31.2609 393.457 31.9771C394.197 32.6851 394.567 33.6006 394.567 34.7236V34.9678C394.567 35.7653 394.25 36.3309 393.615 36.6646C393.176 36.9006 392.15 37.1366 390.539 37.3726C388.928 37.6086 388.049 37.751 387.902 37.7998C387.414 37.9707 387.17 38.2962 387.17 38.7764C387.17 39.4437 387.455 40.0133 388.024 40.4854C388.594 40.9574 389.359 41.1934 390.319 41.1934C390.767 41.1934 391.377 41.0713 392.15 40.8271C392.924 40.583 393.371 40.4609 393.493 40.4609C393.908 40.4609 394.116 40.64 394.116 40.998C394.116 41.4782 393.648 41.9583 392.712 42.4385C391.776 42.9186 390.799 43.1587 389.782 43.1587ZM401.123 41.4619H401.44C402.107 41.4619 402.693 41.2381 403.198 40.7905C403.71 40.3348 403.967 39.8099 403.967 39.2158L403.991 39.0571V38.8984L404.016 38.52V37.8242C404.016 37.3522 403.776 37.1162 403.295 37.1162H402.746L402.661 37.1284L402.185 37.165C401.957 37.1976 401.794 37.2139 401.696 37.2139C401.037 37.2139 400.427 37.4621 399.865 37.9585C399.475 38.3084 399.279 38.8049 399.279 39.4478V39.6919C399.279 40.2371 399.454 40.6685 399.804 40.9858C400.162 41.3032 400.602 41.4619 401.123 41.4619ZM398.4 33.6616C397.855 33.6616 397.583 33.3117 397.583 32.6118C397.583 32.091 398.022 31.6393 398.901 31.2568C399.788 30.8662 400.708 30.6709 401.66 30.6709H402.27C403.092 30.6709 403.816 30.8255 404.443 31.1348C405.069 31.4359 405.546 31.8468 405.871 32.3677C406.205 32.8885 406.408 33.568 406.481 34.4062C406.498 34.6016 406.506 35.5496 406.506 37.2505C406.506 38.9513 406.526 39.932 406.567 40.1924C406.616 40.4447 406.746 40.7539 406.958 41.1201C407.177 41.4863 407.287 41.7874 407.287 42.0234C407.287 42.2594 407.173 42.4629 406.945 42.6338C406.726 42.7965 406.404 42.8779 405.981 42.8779C405.558 42.8779 405.098 42.7762 404.602 42.5728C404.105 42.3612 403.743 42.2554 403.515 42.2554C403.491 42.2554 403.084 42.4019 402.294 42.6948C401.505 42.9797 400.838 43.1221 400.292 43.1221H400.024C399.112 43.1221 398.335 42.8332 397.692 42.2554C397.058 41.6776 396.74 40.8556 396.74 39.7896C396.74 38.7235 397.09 37.8934 397.79 37.2993C398.49 36.6971 399.34 36.2861 400.341 36.0664C400.642 36.0013 401.143 35.9159 401.843 35.8101C402.543 35.7043 403.019 35.5944 403.271 35.4805C403.71 35.277 403.93 34.8945 403.93 34.333C403.93 33.7633 403.743 33.3198 403.369 33.0024C402.994 32.6769 402.547 32.5142 402.026 32.5142C401.513 32.5142 400.838 32.7054 400 33.0879C399.161 33.4704 398.628 33.6616 398.4 33.6616ZM421.337 41.5352C421.337 42.1374 420.812 42.4385 419.763 42.4385C419.169 42.4385 418.77 42.2961 418.566 42.0112C418.469 41.8729 418.42 41.5474 418.42 41.0347L418.383 40.2534C418.326 39.3989 418.298 38.5404 418.298 37.6777C418.298 35.8141 418.135 34.5649 417.81 33.9302C417.492 33.2873 416.955 32.9658 416.198 32.9658C415.694 32.9658 415.226 33.1164 414.794 33.4175C414.371 33.7186 414.046 34.1377 413.818 34.6748C413.346 35.7734 413.11 37.8039 413.11 40.7661C413.11 41.4416 412.98 41.9176 412.719 42.1943C412.467 42.471 412.141 42.6094 411.743 42.6094H411.499C410.587 42.6094 410.131 42.2472 410.131 41.5229V41.23C410.131 41.1405 410.18 40.9451 410.278 40.644L410.473 40.0825C410.668 39.4233 410.766 38.0114 410.766 35.8467L410.827 32.2212C410.827 31.7573 411.079 31.5254 411.584 31.5254C412.089 31.5254 412.585 31.6922 413.073 32.0259C413.57 32.3595 413.883 32.5264 414.013 32.5264C414.152 32.5264 414.392 32.4328 414.733 32.2456C415.881 31.619 416.8 31.3057 417.492 31.3057H417.81C419.055 31.3057 419.93 31.8672 420.434 32.9902C420.678 33.5192 420.8 34.6585 420.8 36.4082V36.4937C420.8 36.6401 420.796 36.7866 420.788 36.9331C420.788 37.3319 420.788 37.5394 420.788 37.5557C420.788 37.7103 420.788 37.8608 420.788 38.0073C420.788 38.1213 420.788 38.2311 420.788 38.3369C420.788 38.9635 420.808 39.3908 420.849 39.6187C420.906 39.9279 421 40.2493 421.13 40.583C421.268 40.9492 421.337 41.2666 421.337 41.5352ZM425.939 43.1953H425.561C425.154 43.1953 424.837 43.1017 424.609 42.9146C424.389 42.7274 424.279 42.4792 424.279 42.1699C424.263 42.1048 424.255 42.0519 424.255 42.0112L424.23 41.8037V41.584L424.243 41.5352V41.4253C424.259 41.3602 424.267 41.3073 424.267 41.2666C424.267 40.9004 424.389 40.6156 424.633 40.4121C424.886 40.2005 425.162 40.0947 425.463 40.0947L425.72 40.0581H426.049C426.936 40.0581 427.38 40.522 427.38 41.4497V41.6206L427.331 42.0356C427.331 42.41 427.189 42.6989 426.904 42.9023C426.627 43.0977 426.306 43.1953 425.939 43.1953ZM438.964 29.2793L438.757 27.0942C438.757 26.9233 438.867 26.7524 439.086 26.5815C439.306 26.4025 439.632 26.313 440.063 26.313C441.048 26.313 441.841 26.7646 442.443 27.668C443.054 28.5713 443.998 30.6221 445.275 33.8203C445.829 35.1712 446.154 35.9362 446.252 36.1152L446.521 36.4692C446.7 36.4692 447.497 35.1427 448.913 32.4897C450.329 29.8286 451.212 28.2539 451.562 27.7656C452.262 26.7891 453.153 26.3008 454.235 26.3008C455 26.3008 455.383 26.5815 455.383 27.1431L455.31 27.5459L455.2 28.0342C455.11 28.5306 455.049 29.6374 455.017 31.3545C454.984 33.0635 454.935 34.7806 454.87 36.5059L454.809 38.4346C454.809 39.2565 454.854 39.8343 454.943 40.168L455.114 40.644C455.277 41.0835 455.358 41.4131 455.358 41.6328C455.358 41.8444 455.24 42.0438 455.004 42.231C454.768 42.4181 454.504 42.5117 454.211 42.5117H453.747C453.332 42.5117 452.958 42.3449 452.624 42.0112C452.29 41.6776 452.124 41.3276 452.124 40.9614C452.124 40.5871 452.16 40.0296 452.233 39.2891C452.315 38.5485 452.355 36.9657 452.355 34.5405C452.355 32.1073 452.282 30.8906 452.136 30.8906C451.916 30.8906 451.155 32.2741 449.853 35.041C448.559 37.8079 447.733 39.46 447.375 39.9971C447.017 40.5342 446.618 40.8027 446.179 40.8027C445.747 40.8027 445.373 40.4976 445.056 39.8872C444.934 39.6512 444.356 38.105 443.322 35.2485C442.297 32.384 441.662 30.9517 441.418 30.9517C441.312 30.9517 441.21 31.0941 441.113 31.3789C441.023 31.6556 440.856 32.9414 440.612 35.2363C440.376 37.5312 440.258 39.0775 440.258 39.875C440.258 40.6644 440.128 41.2585 439.868 41.6572C439.607 42.0479 439.156 42.2432 438.513 42.2432C437.87 42.2432 437.548 41.9339 437.548 41.3154C437.548 41.234 437.666 40.8841 437.902 40.2656C438.138 39.6471 438.297 38.9595 438.378 38.2026C438.769 34.6138 438.964 31.6393 438.964 29.2793ZM462.548 41.4619H462.866C463.533 41.4619 464.119 41.2381 464.624 40.7905C465.136 40.3348 465.393 39.8099 465.393 39.2158L465.417 39.0571V38.8984L465.441 38.52V37.8242C465.441 37.3522 465.201 37.1162 464.721 37.1162H464.172L464.086 37.1284L463.61 37.165C463.382 37.1976 463.22 37.2139 463.122 37.2139C462.463 37.2139 461.853 37.4621 461.291 37.9585C460.9 38.3084 460.705 38.8049 460.705 39.4478V39.6919C460.705 40.2371 460.88 40.6685 461.23 40.9858C461.588 41.3032 462.028 41.4619 462.548 41.4619ZM459.826 33.6616C459.281 33.6616 459.008 33.3117 459.008 32.6118C459.008 32.091 459.448 31.6393 460.327 31.2568C461.214 30.8662 462.133 30.6709 463.085 30.6709H463.696C464.518 30.6709 465.242 30.8255 465.869 31.1348C466.495 31.4359 466.971 31.8468 467.297 32.3677C467.631 32.8885 467.834 33.568 467.907 34.4062C467.924 34.6016 467.932 35.5496 467.932 37.2505C467.932 38.9513 467.952 39.932 467.993 40.1924C468.042 40.4447 468.172 40.7539 468.383 41.1201C468.603 41.4863 468.713 41.7874 468.713 42.0234C468.713 42.2594 468.599 42.4629 468.371 42.6338C468.151 42.7965 467.83 42.8779 467.407 42.8779C466.984 42.8779 466.524 42.7762 466.027 42.5728C465.531 42.3612 465.169 42.2554 464.941 42.2554C464.917 42.2554 464.51 42.4019 463.72 42.6948C462.931 42.9797 462.264 43.1221 461.718 43.1221H461.45C460.538 43.1221 459.761 42.8332 459.118 42.2554C458.483 41.6776 458.166 40.8556 458.166 39.7896C458.166 38.7235 458.516 37.8934 459.216 37.2993C459.916 36.6971 460.766 36.2861 461.767 36.0664C462.068 36.0013 462.569 35.9159 463.269 35.8101C463.968 35.7043 464.444 35.5944 464.697 35.4805C465.136 35.277 465.356 34.8945 465.356 34.333C465.356 33.7633 465.169 33.3198 464.794 33.0024C464.42 32.6769 463.972 32.5142 463.452 32.5142C462.939 32.5142 462.264 32.7054 461.425 33.0879C460.587 33.4704 460.054 33.6616 459.826 33.6616ZM475.537 27.1309V27.2773C475.537 27.6924 475.415 28.0464 475.17 28.3394C474.934 28.6242 474.568 28.7666 474.072 28.7666H473.876L473.498 28.7178C473.278 28.7178 473.067 28.616 472.863 28.4126C472.66 28.2091 472.558 27.904 472.558 27.4971V27.3506L472.619 26.9111C472.619 26.7402 472.721 26.5286 472.924 26.2764C473.136 26.0241 473.404 25.8979 473.73 25.8979L474.011 25.8613H474.255L474.597 25.9102C474.808 25.9102 475.016 26.016 475.219 26.2275C475.431 26.431 475.537 26.7321 475.537 27.1309ZM474.963 32.2822L474.829 35.5659L474.804 35.8955L474.768 36.8965V37.3726C474.768 38.5444 474.8 39.3135 474.865 39.6797C474.938 40.0459 475.073 40.404 475.268 40.7539C475.463 41.0957 475.561 41.3439 475.561 41.4985V41.6084C475.561 42.0072 475.358 42.3245 474.951 42.5605C474.544 42.7965 473.99 42.9146 473.291 42.9146H472.985C472.578 42.9146 472.269 42.825 472.058 42.646C471.846 42.4588 471.74 42.2594 471.74 42.0479V41.7793C471.74 41.6735 471.834 41.2992 472.021 40.6562C472.208 40.0052 472.302 39.1222 472.302 38.0073C472.326 37.6899 472.338 37.4702 472.338 37.3481L472.375 36.6768L472.399 36.3472C472.44 35.7775 472.46 35.334 472.46 35.0166L472.473 34.5283C472.473 33.918 472.371 33.3768 472.167 32.9048C471.972 32.4328 471.875 32.1398 471.875 32.0259C471.875 31.4399 472.428 31.147 473.535 31.147H473.974C474.389 31.147 474.658 31.2568 474.78 31.4766C474.902 31.6882 474.963 31.9567 474.963 32.2822ZM489.77 41.5352C489.77 42.1374 489.245 42.4385 488.195 42.4385C487.601 42.4385 487.202 42.2961 486.999 42.0112C486.901 41.8729 486.853 41.5474 486.853 41.0347L486.816 40.2534C486.759 39.3989 486.73 38.5404 486.73 37.6777C486.73 35.8141 486.568 34.5649 486.242 33.9302C485.925 33.2873 485.388 32.9658 484.631 32.9658C484.126 32.9658 483.658 33.1164 483.227 33.4175C482.804 33.7186 482.478 34.1377 482.25 34.6748C481.778 35.7734 481.542 37.8039 481.542 40.7661C481.542 41.4416 481.412 41.9176 481.152 42.1943C480.9 42.471 480.574 42.6094 480.175 42.6094H479.931C479.02 42.6094 478.564 42.2472 478.564 41.5229V41.23C478.564 41.1405 478.613 40.9451 478.71 40.644L478.906 40.0825C479.101 39.4233 479.199 38.0114 479.199 35.8467L479.26 32.2212C479.26 31.7573 479.512 31.5254 480.017 31.5254C480.521 31.5254 481.018 31.6922 481.506 32.0259C482.002 32.3595 482.316 32.5264 482.446 32.5264C482.584 32.5264 482.824 32.4328 483.166 32.2456C484.313 31.619 485.233 31.3057 485.925 31.3057H486.242C487.487 31.3057 488.362 31.8672 488.867 32.9902C489.111 33.5192 489.233 34.6585 489.233 36.4082V36.4937C489.233 36.6401 489.229 36.7866 489.221 36.9331C489.221 37.3319 489.221 37.5394 489.221 37.5557C489.221 37.7103 489.221 37.8608 489.221 38.0073C489.221 38.1213 489.221 38.2311 489.221 38.3369C489.221 38.9635 489.241 39.3908 489.282 39.6187C489.339 39.9279 489.432 40.2493 489.562 40.583C489.701 40.9492 489.77 41.2666 489.77 41.5352ZM498.938 41.6938C498.938 42.0194 498.738 42.3123 498.339 42.5728C497.949 42.825 497.416 42.9512 496.74 42.9512C495.479 42.9512 494.592 42.4832 494.079 41.5474C493.762 40.9614 493.603 39.5902 493.603 37.4336C493.603 35.277 493.566 34.0238 493.493 33.6738C493.42 33.3239 493.216 32.9821 492.883 32.6484C492.549 32.3148 492.382 32.0584 492.382 31.8794C492.382 31.8143 492.777 31.387 493.566 30.5977C493.737 30.4268 493.908 30.0483 494.079 29.4624C494.258 28.8765 494.384 28.4899 494.458 28.3027C494.702 27.7168 495.023 27.4238 495.422 27.4238H495.617C495.967 27.4238 496.215 27.5581 496.362 27.8267C496.419 27.9325 496.504 28.3149 496.618 28.9741C496.74 29.6252 496.879 30.0443 497.033 30.2314C497.188 30.4186 497.574 30.6261 498.193 30.854C498.819 31.0737 499.133 31.3097 499.133 31.562V31.6963C499.133 32.0218 498.775 32.2985 498.059 32.5264C497.351 32.7461 496.895 33.1001 496.691 33.5884C496.293 34.5731 496.093 36.1763 496.093 38.3979C496.093 39.4396 496.272 40.1476 496.63 40.522C496.85 40.7498 497.29 40.9085 497.949 40.998C498.608 41.0876 498.938 41.3195 498.938 41.6938ZM505.59 41.4619H505.908C506.575 41.4619 507.161 41.2381 507.666 40.7905C508.178 40.3348 508.435 39.8099 508.435 39.2158L508.459 39.0571V38.8984L508.483 38.52V37.8242C508.483 37.3522 508.243 37.1162 507.763 37.1162H507.214L507.128 37.1284L506.652 37.165C506.424 37.1976 506.262 37.2139 506.164 37.2139C505.505 37.2139 504.895 37.4621 504.333 37.9585C503.942 38.3084 503.747 38.8049 503.747 39.4478V39.6919C503.747 40.2371 503.922 40.6685 504.272 40.9858C504.63 41.3032 505.069 41.4619 505.59 41.4619ZM502.868 33.6616C502.323 33.6616 502.05 33.3117 502.05 32.6118C502.05 32.091 502.49 31.6393 503.369 31.2568C504.256 30.8662 505.175 30.6709 506.127 30.6709H506.738C507.56 30.6709 508.284 30.8255 508.911 31.1348C509.537 31.4359 510.013 31.8468 510.339 32.3677C510.673 32.8885 510.876 33.568 510.949 34.4062C510.965 34.6016 510.974 35.5496 510.974 37.2505C510.974 38.9513 510.994 39.932 511.035 40.1924C511.083 40.4447 511.214 40.7539 511.425 41.1201C511.645 41.4863 511.755 41.7874 511.755 42.0234C511.755 42.2594 511.641 42.4629 511.413 42.6338C511.193 42.7965 510.872 42.8779 510.449 42.8779C510.026 42.8779 509.566 42.7762 509.069 42.5728C508.573 42.3612 508.211 42.2554 507.983 42.2554C507.958 42.2554 507.552 42.4019 506.762 42.6948C505.973 42.9797 505.306 43.1221 504.76 43.1221H504.492C503.58 43.1221 502.803 42.8332 502.16 42.2554C501.525 41.6776 501.208 40.8556 501.208 39.7896C501.208 38.7235 501.558 37.8934 502.258 37.2993C502.958 36.6971 503.808 36.2861 504.809 36.0664C505.11 36.0013 505.611 35.9159 506.311 35.8101C507.01 35.7043 507.486 35.5944 507.739 35.4805C508.178 35.277 508.398 34.8945 508.398 34.333C508.398 33.7633 508.211 33.3198 507.836 33.0024C507.462 32.6769 507.014 32.5142 506.494 32.5142C505.981 32.5142 505.306 32.7054 504.467 33.0879C503.629 33.4704 503.096 33.6616 502.868 33.6616ZM518.579 27.1309V27.2773C518.579 27.6924 518.457 28.0464 518.212 28.3394C517.976 28.6242 517.61 28.7666 517.114 28.7666H516.918L516.54 28.7178C516.32 28.7178 516.109 28.616 515.905 28.4126C515.702 28.2091 515.6 27.904 515.6 27.4971V27.3506L515.661 26.9111C515.661 26.7402 515.763 26.5286 515.966 26.2764C516.178 26.0241 516.446 25.8979 516.772 25.8979L517.053 25.8613H517.297L517.639 25.9102C517.85 25.9102 518.058 26.016 518.261 26.2275C518.473 26.431 518.579 26.7321 518.579 27.1309ZM518.005 32.2822L517.871 35.5659L517.846 35.8955L517.81 36.8965V37.3726C517.81 38.5444 517.842 39.3135 517.907 39.6797C517.98 40.0459 518.115 40.404 518.31 40.7539C518.505 41.0957 518.603 41.3439 518.603 41.4985V41.6084C518.603 42.0072 518.4 42.3245 517.993 42.5605C517.586 42.7965 517.032 42.9146 516.333 42.9146H516.027C515.62 42.9146 515.311 42.825 515.1 42.646C514.888 42.4588 514.782 42.2594 514.782 42.0479V41.7793C514.782 41.6735 514.876 41.2992 515.063 40.6562C515.25 40.0052 515.344 39.1222 515.344 38.0073C515.368 37.6899 515.38 37.4702 515.38 37.3481L515.417 36.6768L515.441 36.3472C515.482 35.7775 515.502 35.334 515.502 35.0166L515.515 34.5283C515.515 33.918 515.413 33.3768 515.209 32.9048C515.014 32.4328 514.917 32.1398 514.917 32.0259C514.917 31.4399 515.47 31.147 516.577 31.147H517.016C517.431 31.147 517.7 31.2568 517.822 31.4766C517.944 31.6882 518.005 31.9567 518.005 32.2822ZM532.812 41.5352C532.812 42.1374 532.287 42.4385 531.237 42.4385C530.643 42.4385 530.244 42.2961 530.041 42.0112C529.943 41.8729 529.895 41.5474 529.895 41.0347L529.858 40.2534C529.801 39.3989 529.772 38.5404 529.772 37.6777C529.772 35.8141 529.61 34.5649 529.284 33.9302C528.967 33.2873 528.43 32.9658 527.673 32.9658C527.168 32.9658 526.7 33.1164 526.269 33.4175C525.846 33.7186 525.52 34.1377 525.292 34.6748C524.82 35.7734 524.584 37.8039 524.584 40.7661C524.584 41.4416 524.454 41.9176 524.194 42.1943C523.942 42.471 523.616 42.6094 523.217 42.6094H522.973C522.062 42.6094 521.606 42.2472 521.606 41.5229V41.23C521.606 41.1405 521.655 40.9451 521.752 40.644L521.948 40.0825C522.143 39.4233 522.241 38.0114 522.241 35.8467L522.302 32.2212C522.302 31.7573 522.554 31.5254 523.059 31.5254C523.563 31.5254 524.06 31.6922 524.548 32.0259C525.044 32.3595 525.358 32.5264 525.488 32.5264C525.626 32.5264 525.866 32.4328 526.208 32.2456C527.355 31.619 528.275 31.3057 528.967 31.3057H529.284C530.529 31.3057 531.404 31.8672 531.909 32.9902C532.153 33.5192 532.275 34.6585 532.275 36.4082V36.4937C532.275 36.6401 532.271 36.7866 532.263 36.9331C532.263 37.3319 532.263 37.5394 532.263 37.5557C532.263 37.7103 532.263 37.8608 532.263 38.0073C532.263 38.1213 532.263 38.2311 532.263 38.3369C532.263 38.9635 532.283 39.3908 532.324 39.6187C532.381 39.9279 532.474 40.2493 532.604 40.583C532.743 40.9492 532.812 41.2666 532.812 41.5352ZM536.56 36.1885C536.063 35.6839 535.815 34.9759 535.815 34.0645C535.815 33.153 536.222 32.3717 537.036 31.7207C537.849 31.0615 538.859 30.7319 540.063 30.7319H540.38C541.446 30.7319 542.293 30.8825 542.919 31.1836C543.554 31.4847 543.872 31.9364 543.872 32.5386C543.872 33.1326 543.607 33.4297 543.078 33.4297C542.94 33.4297 542.549 33.2669 541.906 32.9414C541.263 32.6077 540.657 32.4409 540.087 32.4409C539.518 32.4409 539.058 32.5711 538.708 32.8315C538.366 33.0838 538.195 33.4338 538.195 33.8813C538.195 34.3289 538.435 34.7196 538.916 35.0532C539.192 35.2485 539.843 35.5578 540.869 35.981C541.902 36.4041 542.639 36.811 543.078 37.2017C543.786 37.8283 544.14 38.6299 544.14 39.6064C544.14 40.583 543.725 41.4212 542.895 42.1211C542.065 42.8128 540.987 43.1587 539.66 43.1587H539.343C538.008 43.1587 537.007 42.9674 536.34 42.585C535.673 42.1943 535.339 41.6898 535.339 41.0713C535.339 40.4447 535.599 40.1313 536.12 40.1313C536.291 40.1313 536.735 40.3511 537.451 40.7905C538.175 41.23 538.883 41.4497 539.575 41.4497C540.275 41.4497 540.799 41.3032 541.149 41.0103C541.499 40.7091 541.674 40.3348 541.674 39.8872C541.674 39.4315 541.455 39.0327 541.015 38.6909C540.779 38.5037 540.104 38.166 538.989 37.6777C537.874 37.1813 537.064 36.6849 536.56 36.1885ZM554.528 36.1885C554.032 35.6839 553.784 34.9759 553.784 34.0645C553.784 33.153 554.191 32.3717 555.004 31.7207C555.818 31.0615 556.827 30.7319 558.032 30.7319H558.349C559.415 30.7319 560.262 30.8825 560.888 31.1836C561.523 31.4847 561.84 31.9364 561.84 32.5386C561.84 33.1326 561.576 33.4297 561.047 33.4297C560.909 33.4297 560.518 33.2669 559.875 32.9414C559.232 32.6077 558.626 32.4409 558.056 32.4409C557.486 32.4409 557.027 32.5711 556.677 32.8315C556.335 33.0838 556.164 33.4338 556.164 33.8813C556.164 34.3289 556.404 34.7196 556.884 35.0532C557.161 35.2485 557.812 35.5578 558.837 35.981C559.871 36.4041 560.607 36.811 561.047 37.2017C561.755 37.8283 562.109 38.6299 562.109 39.6064C562.109 40.583 561.694 41.4212 560.864 42.1211C560.034 42.8128 558.955 43.1587 557.629 43.1587H557.312C555.977 43.1587 554.976 42.9674 554.309 42.585C553.641 42.1943 553.308 41.6898 553.308 41.0713C553.308 40.4447 553.568 40.1313 554.089 40.1313C554.26 40.1313 554.703 40.3511 555.419 40.7905C556.144 41.23 556.852 41.4497 557.543 41.4497C558.243 41.4497 558.768 41.3032 559.118 41.0103C559.468 40.7091 559.643 40.3348 559.643 39.8872C559.643 39.4315 559.423 39.0327 558.984 38.6909C558.748 38.5037 558.072 38.166 556.958 37.6777C555.843 37.1813 555.033 36.6849 554.528 36.1885ZM571.105 41.6938C571.105 42.0194 570.906 42.3123 570.507 42.5728C570.117 42.825 569.584 42.9512 568.908 42.9512C567.647 42.9512 566.76 42.4832 566.247 41.5474C565.93 40.9614 565.771 39.5902 565.771 37.4336C565.771 35.277 565.734 34.0238 565.661 33.6738C565.588 33.3239 565.384 32.9821 565.051 32.6484C564.717 32.3148 564.55 32.0584 564.55 31.8794C564.55 31.8143 564.945 31.387 565.734 30.5977C565.905 30.4268 566.076 30.0483 566.247 29.4624C566.426 28.8765 566.552 28.4899 566.625 28.3027C566.87 27.7168 567.191 27.4238 567.59 27.4238H567.785C568.135 27.4238 568.383 27.5581 568.53 27.8267C568.587 27.9325 568.672 28.3149 568.786 28.9741C568.908 29.6252 569.047 30.0443 569.201 30.2314C569.356 30.4186 569.742 30.6261 570.361 30.854C570.987 31.0737 571.301 31.3097 571.301 31.562V31.6963C571.301 32.0218 570.943 32.2985 570.227 32.5264C569.519 32.7461 569.063 33.1001 568.859 33.5884C568.461 34.5731 568.261 36.1763 568.261 38.3979C568.261 39.4396 568.44 40.1476 568.798 40.522C569.018 40.7498 569.458 40.9085 570.117 40.998C570.776 41.0876 571.105 41.3195 571.105 41.6938ZM577.758 41.4619H578.076C578.743 41.4619 579.329 41.2381 579.833 40.7905C580.346 40.3348 580.603 39.8099 580.603 39.2158L580.627 39.0571V38.8984L580.651 38.52V37.8242C580.651 37.3522 580.411 37.1162 579.931 37.1162H579.382L579.296 37.1284L578.82 37.165C578.592 37.1976 578.43 37.2139 578.332 37.2139C577.673 37.2139 577.062 37.4621 576.501 37.9585C576.11 38.3084 575.915 38.8049 575.915 39.4478V39.6919C575.915 40.2371 576.09 40.6685 576.44 40.9858C576.798 41.3032 577.237 41.4619 577.758 41.4619ZM575.036 33.6616C574.491 33.6616 574.218 33.3117 574.218 32.6118C574.218 32.091 574.658 31.6393 575.537 31.2568C576.424 30.8662 577.343 30.6709 578.295 30.6709H578.906C579.728 30.6709 580.452 30.8255 581.079 31.1348C581.705 31.4359 582.181 31.8468 582.507 32.3677C582.84 32.8885 583.044 33.568 583.117 34.4062C583.133 34.6016 583.142 35.5496 583.142 37.2505C583.142 38.9513 583.162 39.932 583.203 40.1924C583.251 40.4447 583.382 40.7539 583.593 41.1201C583.813 41.4863 583.923 41.7874 583.923 42.0234C583.923 42.2594 583.809 42.4629 583.581 42.6338C583.361 42.7965 583.04 42.8779 582.617 42.8779C582.194 42.8779 581.734 42.7762 581.237 42.5728C580.741 42.3612 580.379 42.2554 580.151 42.2554C580.126 42.2554 579.72 42.4019 578.93 42.6948C578.141 42.9797 577.473 43.1221 576.928 43.1221H576.66C575.748 43.1221 574.971 42.8332 574.328 42.2554C573.693 41.6776 573.376 40.8556 573.376 39.7896C573.376 38.7235 573.726 37.8934 574.426 37.2993C575.126 36.6971 575.976 36.2861 576.977 36.0664C577.278 36.0013 577.779 35.9159 578.479 35.8101C579.178 35.7043 579.654 35.5944 579.907 35.4805C580.346 35.277 580.566 34.8945 580.566 34.333C580.566 33.7633 580.379 33.3198 580.004 33.0024C579.63 32.6769 579.182 32.5142 578.662 32.5142C578.149 32.5142 577.473 32.7054 576.635 33.0879C575.797 33.4704 575.264 33.6616 575.036 33.6616ZM597.973 41.5352C597.973 42.1374 597.448 42.4385 596.398 42.4385C595.804 42.4385 595.406 42.2961 595.202 42.0112C595.104 41.8729 595.056 41.5474 595.056 41.0347L595.019 40.2534C594.962 39.3989 594.934 38.5404 594.934 37.6777C594.934 35.8141 594.771 34.5649 594.445 33.9302C594.128 33.2873 593.591 32.9658 592.834 32.9658C592.329 32.9658 591.861 33.1164 591.43 33.4175C591.007 33.7186 590.681 34.1377 590.454 34.6748C589.982 35.7734 589.746 37.8039 589.746 40.7661C589.746 41.4416 589.615 41.9176 589.355 42.1943C589.103 42.471 588.777 42.6094 588.378 42.6094H588.134C587.223 42.6094 586.767 42.2472 586.767 41.5229V41.23C586.767 41.1405 586.816 40.9451 586.914 40.644L587.109 40.0825C587.304 39.4233 587.402 38.0114 587.402 35.8467L587.463 32.2212C587.463 31.7573 587.715 31.5254 588.22 31.5254C588.724 31.5254 589.221 31.6922 589.709 32.0259C590.205 32.3595 590.519 32.5264 590.649 32.5264C590.787 32.5264 591.027 32.4328 591.369 32.2456C592.517 31.619 593.436 31.3057 594.128 31.3057H594.445C595.69 31.3057 596.565 31.8672 597.07 32.9902C597.314 33.5192 597.436 34.6585 597.436 36.4082V36.4937C597.436 36.6401 597.432 36.7866 597.424 36.9331C597.424 37.3319 597.424 37.5394 597.424 37.5557C597.424 37.7103 597.424 37.8608 597.424 38.0073C597.424 38.1213 597.424 38.2311 597.424 38.3369C597.424 38.9635 597.444 39.3908 597.485 39.6187C597.542 39.9279 597.635 40.2493 597.766 40.583C597.904 40.9492 597.973 41.2666 597.973 41.5352ZM602.917 37.0796V38.0073C602.917 38.9757 603.137 39.7855 603.576 40.4365C604.024 41.0794 604.549 41.4009 605.151 41.4009H605.493C606.42 41.4009 607.137 41.0306 607.641 40.29C608.154 39.5495 608.41 38.4468 608.41 36.9819C608.426 36.8029 608.435 36.6727 608.435 36.5913L608.459 36.3472L608.471 35.8345V34.9678C608.471 33.3076 607.808 32.4775 606.481 32.4775H606.005C605.143 32.4775 604.41 32.9129 603.808 33.7837C603.214 34.6545 602.917 35.7531 602.917 37.0796ZM600.573 37.6411C600.573 36.7948 600.724 35.9321 601.025 35.0532C601.326 34.1743 601.749 33.4256 602.294 32.8071C602.84 32.1805 603.454 31.7288 604.138 31.4521C604.821 31.1673 605.631 31.0249 606.567 31.0249C607.511 31.0249 608.097 30.854 608.325 30.5122C608.553 30.1623 608.667 29.3932 608.667 28.2051C608.667 27.9854 608.63 27.6924 608.557 27.3262C608.483 26.96 608.447 26.7484 608.447 26.6914C608.447 26.3415 608.597 26.0241 608.898 25.7393C609.2 25.4463 609.594 25.2998 610.083 25.2998H610.327C610.709 25.2998 610.994 25.3893 611.181 25.5684C611.368 25.7474 611.462 26.1217 611.462 26.6914V27.8267L611.438 28.4004C611.429 28.5957 611.425 28.8805 611.425 29.2549C611.425 29.6211 611.364 30.8011 611.242 32.7949C611.12 34.7887 611.059 36.16 611.059 36.9087L611.047 37.2017C611.039 37.397 611.035 37.5841 611.035 37.7632L611.022 38.0439C611.022 38.0439 611.022 38.3613 611.022 38.9961C611.022 39.818 611.088 40.4365 611.218 40.8516C611.348 41.2666 611.413 41.5636 611.413 41.7427C611.413 41.9217 611.311 42.1089 611.108 42.3042C610.904 42.4995 610.587 42.5972 610.156 42.5972C609.733 42.5972 609.322 42.528 608.923 42.3896C608.524 42.2432 608.231 42.1699 608.044 42.1699C607.857 42.1699 607.613 42.2269 607.312 42.3408C606.4 42.6745 605.566 42.8413 604.809 42.8413C604.793 42.8413 604.777 42.8413 604.76 42.8413H604.479C603.251 42.8413 602.29 42.3937 601.599 41.4985C600.915 40.5952 600.573 39.4111 600.573 37.9463V37.6411ZM618.481 41.4619H618.798C619.466 41.4619 620.052 41.2381 620.556 40.7905C621.069 40.3348 621.325 39.8099 621.325 39.2158L621.35 39.0571V38.8984L621.374 38.52V37.8242C621.374 37.3522 621.134 37.1162 620.654 37.1162H620.104L620.019 37.1284L619.543 37.165C619.315 37.1976 619.152 37.2139 619.055 37.2139C618.396 37.2139 617.785 37.4621 617.224 37.9585C616.833 38.3084 616.638 38.8049 616.638 39.4478V39.6919C616.638 40.2371 616.813 40.6685 617.163 40.9858C617.521 41.3032 617.96 41.4619 618.481 41.4619ZM615.759 33.6616C615.214 33.6616 614.941 33.3117 614.941 32.6118C614.941 32.091 615.38 31.6393 616.259 31.2568C617.146 30.8662 618.066 30.6709 619.018 30.6709H619.628C620.45 30.6709 621.175 30.8255 621.801 31.1348C622.428 31.4359 622.904 31.8468 623.229 32.3677C623.563 32.8885 623.767 33.568 623.84 34.4062C623.856 34.6016 623.864 35.5496 623.864 37.2505C623.864 38.9513 623.885 39.932 623.925 40.1924C623.974 40.4447 624.104 40.7539 624.316 41.1201C624.536 41.4863 624.646 41.7874 624.646 42.0234C624.646 42.2594 624.532 42.4629 624.304 42.6338C624.084 42.7965 623.763 42.8779 623.339 42.8779C622.916 42.8779 622.456 42.7762 621.96 42.5728C621.464 42.3612 621.101 42.2554 620.874 42.2554C620.849 42.2554 620.442 42.4019 619.653 42.6948C618.863 42.9797 618.196 43.1221 617.651 43.1221H617.382C616.471 43.1221 615.694 42.8332 615.051 42.2554C614.416 41.6776 614.099 40.8556 614.099 39.7896C614.099 38.7235 614.449 37.8934 615.148 37.2993C615.848 36.6971 616.699 36.2861 617.7 36.0664C618.001 36.0013 618.501 35.9159 619.201 35.8101C619.901 35.7043 620.377 35.5944 620.629 35.4805C621.069 35.277 621.289 34.8945 621.289 34.333C621.289 33.7633 621.101 33.3198 620.727 33.0024C620.353 32.6769 619.905 32.5142 619.384 32.5142C618.872 32.5142 618.196 32.7054 617.358 33.0879C616.52 33.4704 615.987 33.6616 615.759 33.6616ZM628.271 36.6523V35.7124C628.271 34.5812 628.21 33.7552 628.088 33.2344C627.966 32.7054 627.905 32.3351 627.905 32.1235C627.905 31.6271 628.267 31.3789 628.991 31.3789C629.715 31.3789 630.24 31.5132 630.566 31.7817C630.655 31.855 630.769 31.9974 630.908 32.209C631.054 32.4206 631.184 32.5264 631.298 32.5264C631.323 32.5264 631.677 32.3188 632.36 31.9038C633.044 31.4888 633.63 31.2812 634.118 31.2812H634.301C634.7 31.2812 635.017 31.3789 635.253 31.5742C635.489 31.7614 635.607 31.9933 635.607 32.27V32.4287C635.607 32.7624 635.489 33.0024 635.253 33.1489C635.026 33.2954 634.659 33.3687 634.155 33.3687C633.007 33.3687 632.169 33.7715 631.64 34.5771C631.119 35.3828 630.859 36.807 630.859 38.8496C630.859 39.1426 630.908 39.5942 631.005 40.2046C631.111 40.8149 631.164 41.2747 631.164 41.584C631.164 41.8932 630.997 42.1903 630.664 42.4751C630.33 42.7599 629.907 42.9023 629.394 42.9023H628.979C628.531 42.9023 628.186 42.7965 627.941 42.585C627.705 42.3652 627.587 42.1007 627.587 41.7915C627.587 41.4741 627.644 41.1527 627.758 40.8271C628.068 39.9482 628.222 38.9798 628.222 37.9219C628.255 37.3359 628.271 36.9128 628.271 36.6523ZM639.538 37.0796V38.0073C639.538 38.9757 639.758 39.7855 640.197 40.4365C640.645 41.0794 641.17 41.4009 641.772 41.4009H642.114C643.042 41.4009 643.758 41.0306 644.262 40.29C644.775 39.5495 645.031 38.4468 645.031 36.9819C645.048 36.8029 645.056 36.6727 645.056 36.5913L645.08 36.3472L645.092 35.8345V34.9678C645.092 33.3076 644.429 32.4775 643.103 32.4775H642.626C641.764 32.4775 641.031 32.9129 640.429 33.7837C639.835 34.6545 639.538 35.7531 639.538 37.0796ZM637.194 37.6411C637.194 36.7948 637.345 35.9321 637.646 35.0532C637.947 34.1743 638.37 33.4256 638.916 32.8071C639.461 32.1805 640.075 31.7288 640.759 31.4521C641.442 31.1673 642.252 31.0249 643.188 31.0249C644.132 31.0249 644.718 30.854 644.946 30.5122C645.174 30.1623 645.288 29.3932 645.288 28.2051C645.288 27.9854 645.251 27.6924 645.178 27.3262C645.104 26.96 645.068 26.7484 645.068 26.6914C645.068 26.3415 645.218 26.0241 645.52 25.7393C645.821 25.4463 646.215 25.2998 646.704 25.2998H646.948C647.33 25.2998 647.615 25.3893 647.802 25.5684C647.989 25.7474 648.083 26.1217 648.083 26.6914V27.8267L648.059 28.4004C648.05 28.5957 648.046 28.8805 648.046 29.2549C648.046 29.6211 647.985 30.8011 647.863 32.7949C647.741 34.7887 647.68 36.16 647.68 36.9087L647.668 37.2017C647.66 37.397 647.656 37.5841 647.656 37.7632L647.644 38.0439C647.644 38.0439 647.644 38.3613 647.644 38.9961C647.644 39.818 647.709 40.4365 647.839 40.8516C647.969 41.2666 648.034 41.5636 648.034 41.7427C648.034 41.9217 647.932 42.1089 647.729 42.3042C647.526 42.4995 647.208 42.5972 646.777 42.5972C646.354 42.5972 645.943 42.528 645.544 42.3896C645.145 42.2432 644.852 42.1699 644.665 42.1699C644.478 42.1699 644.234 42.2269 643.933 42.3408C643.021 42.6745 642.187 42.8413 641.43 42.8413C641.414 42.8413 641.398 42.8413 641.381 42.8413H641.101C639.872 42.8413 638.911 42.3937 638.22 41.4985C637.536 40.5952 637.194 39.4111 637.194 37.9463V37.6411ZM652.111 36.1885C651.615 35.6839 651.367 34.9759 651.367 34.0645C651.367 33.153 651.774 32.3717 652.587 31.7207C653.401 31.0615 654.41 30.7319 655.615 30.7319H655.932C656.998 30.7319 657.845 30.8825 658.471 31.1836C659.106 31.4847 659.423 31.9364 659.423 32.5386C659.423 33.1326 659.159 33.4297 658.63 33.4297C658.492 33.4297 658.101 33.2669 657.458 32.9414C656.815 32.6077 656.209 32.4409 655.639 32.4409C655.069 32.4409 654.61 32.5711 654.26 32.8315C653.918 33.0838 653.747 33.4338 653.747 33.8813C653.747 34.3289 653.987 34.7196 654.467 35.0532C654.744 35.2485 655.395 35.5578 656.42 35.981C657.454 36.4041 658.19 36.811 658.63 37.2017C659.338 37.8283 659.692 38.6299 659.692 39.6064C659.692 40.583 659.277 41.4212 658.447 42.1211C657.617 42.8128 656.538 43.1587 655.212 43.1587H654.895C653.56 43.1587 652.559 42.9674 651.892 42.585C651.224 42.1943 650.891 41.6898 650.891 41.0713C650.891 40.4447 651.151 40.1313 651.672 40.1313C651.843 40.1313 652.286 40.3511 653.002 40.7905C653.727 41.23 654.435 41.4497 655.126 41.4497C655.826 41.4497 656.351 41.3032 656.701 41.0103C657.051 40.7091 657.226 40.3348 657.226 39.8872C657.226 39.4315 657.006 39.0327 656.567 38.6909C656.331 38.5037 655.655 38.166 654.541 37.6777C653.426 37.1813 652.616 36.6849 652.111 36.1885ZM680.761 42.3774C680.183 42.3774 679.683 42.0153 679.26 41.291C678.983 40.8109 678.544 39.8343 677.941 38.3613C677.347 36.8802 677.01 36.1396 676.928 36.1396C676.904 36.1396 676.566 36.8314 675.915 38.2148C675.264 39.5902 674.78 40.5342 674.462 41.0469C673.958 41.8525 673.474 42.2554 673.01 42.2554C672.717 42.2554 672.408 42.1414 672.082 41.9136C671.765 41.6776 671.508 41.2951 671.313 40.7661C671.289 40.701 671.101 40.0011 670.751 38.6665C670.41 37.3319 670.056 36.0786 669.689 34.9067C669.331 33.7349 669.152 32.9414 669.152 32.5264C669.152 32.1113 669.242 31.8143 669.421 31.6353C669.6 31.4562 669.783 31.3667 669.97 31.3667C670.727 31.3667 671.26 31.68 671.569 32.3066C671.683 32.5345 671.83 33.1042 672.009 34.0156C672.863 37.3604 673.437 39.1344 673.73 39.3379C674.039 39.3379 674.491 38.3044 675.085 36.2373C675.329 35.391 675.488 34.63 675.561 33.9546C675.642 33.2791 675.695 32.8885 675.72 32.7827L675.83 32.3921C676.074 31.7492 676.558 31.4277 677.282 31.4277C678.015 31.4277 678.523 31.798 678.808 32.5386C678.922 32.8397 679.028 33.3687 679.125 34.1255C679.223 34.8742 679.361 35.627 679.541 36.3838C679.988 38.3206 680.342 39.2891 680.603 39.2891C680.92 39.2891 681.416 38.2759 682.092 36.2495C682.303 35.6147 682.523 34.8376 682.751 33.918C682.987 32.9984 683.15 32.445 683.239 32.2578C683.532 31.68 683.996 31.3911 684.631 31.3911C684.965 31.3911 685.131 31.7166 685.131 32.3677C685.131 32.7502 684.716 34.2069 683.886 36.7378C683.056 39.2606 682.556 40.7051 682.385 41.0713C682.214 41.4294 681.97 41.7386 681.652 41.999C681.335 42.2513 681.038 42.3774 680.761 42.3774ZM691.699 27.1309V27.2773C691.699 27.6924 691.577 28.0464 691.333 28.3394C691.097 28.6242 690.73 28.7666 690.234 28.7666H690.039L689.66 28.7178C689.44 28.7178 689.229 28.616 689.025 28.4126C688.822 28.2091 688.72 27.904 688.72 27.4971V27.3506L688.781 26.9111C688.781 26.7402 688.883 26.5286 689.086 26.2764C689.298 26.0241 689.567 25.8979 689.892 25.8979L690.173 25.8613H690.417L690.759 25.9102C690.97 25.9102 691.178 26.016 691.381 26.2275C691.593 26.431 691.699 26.7321 691.699 27.1309ZM691.125 32.2822L690.991 35.5659L690.966 35.8955L690.93 36.8965V37.3726C690.93 38.5444 690.962 39.3135 691.027 39.6797C691.101 40.0459 691.235 40.404 691.43 40.7539C691.625 41.0957 691.723 41.3439 691.723 41.4985V41.6084C691.723 42.0072 691.52 42.3245 691.113 42.5605C690.706 42.7965 690.153 42.9146 689.453 42.9146H689.147C688.741 42.9146 688.431 42.825 688.22 42.646C688.008 42.4588 687.902 42.2594 687.902 42.0479V41.7793C687.902 41.6735 687.996 41.2992 688.183 40.6562C688.37 40.0052 688.464 39.1222 688.464 38.0073C688.488 37.6899 688.5 37.4702 688.5 37.3481L688.537 36.6768L688.562 36.3472C688.602 35.7775 688.623 35.334 688.623 35.0166L688.635 34.5283C688.635 33.918 688.533 33.3768 688.33 32.9048C688.134 32.4328 688.037 32.1398 688.037 32.0259C688.037 31.4399 688.59 31.147 689.697 31.147H690.136C690.551 31.147 690.82 31.2568 690.942 31.4766C691.064 31.6882 691.125 31.9567 691.125 32.2822ZM701.11 41.6938C701.11 42.0194 700.911 42.3123 700.512 42.5728C700.122 42.825 699.589 42.9512 698.913 42.9512C697.652 42.9512 696.765 42.4832 696.252 41.5474C695.935 40.9614 695.776 39.5902 695.776 37.4336C695.776 35.277 695.739 34.0238 695.666 33.6738C695.593 33.3239 695.389 32.9821 695.056 32.6484C694.722 32.3148 694.555 32.0584 694.555 31.8794C694.555 31.8143 694.95 31.387 695.739 30.5977C695.91 30.4268 696.081 30.0483 696.252 29.4624C696.431 28.8765 696.557 28.4899 696.63 28.3027C696.875 27.7168 697.196 27.4238 697.595 27.4238H697.79C698.14 27.4238 698.388 27.5581 698.535 27.8267C698.592 27.9325 698.677 28.3149 698.791 28.9741C698.913 29.6252 699.051 30.0443 699.206 30.2314C699.361 30.4186 699.747 30.6261 700.366 30.854C700.992 31.0737 701.306 31.3097 701.306 31.562V31.6963C701.306 32.0218 700.948 32.2985 700.231 32.5264C699.523 32.7461 699.068 33.1001 698.864 33.5884C698.465 34.5731 698.266 36.1763 698.266 38.3979C698.266 39.4396 698.445 40.1476 698.803 40.522C699.023 40.7498 699.462 40.9085 700.122 40.998C700.781 41.0876 701.11 41.3195 701.11 41.6938ZM705.395 42.7681C704.435 42.7681 703.955 42.4263 703.955 41.7427C703.955 41.4334 704.028 40.9736 704.174 40.3633C704.329 39.7529 704.431 39.1914 704.479 38.6787C704.528 38.1579 704.614 36.4814 704.736 33.6494C704.866 30.8174 704.931 29.0921 704.931 28.4736V27.0332L704.858 26.0078C704.858 25.6253 705.208 25.4341 705.908 25.4341C706.616 25.4341 707.076 25.7067 707.287 26.252C707.393 26.5286 707.446 27.432 707.446 28.9619C707.446 30.4919 707.474 31.3626 707.531 31.5742C707.596 31.7858 707.763 31.8916 708.032 31.8916C708.064 31.8916 708.219 31.8428 708.496 31.7451L708.764 31.6475C709.635 31.3057 710.388 31.1348 711.022 31.1348C712.357 31.1348 713.305 31.6556 713.867 32.6973C714.241 33.389 714.428 34.8945 714.428 37.2139C714.428 38.3044 714.436 38.9513 714.453 39.1548C714.469 39.3582 714.522 39.7285 714.611 40.2656C714.701 40.7946 714.746 41.0876 714.746 41.1445C714.746 41.6247 714.636 41.9827 714.416 42.2188C714.204 42.4466 713.818 42.5605 713.256 42.5605C712.703 42.5605 712.341 42.3896 712.17 42.0479C712.08 41.8688 712.036 41.3521 712.036 40.4976L711.999 38.3491L712.036 36.4082C712.036 34.2354 711.401 33.1489 710.131 33.1489C709.008 33.1489 708.207 33.6209 707.727 34.5649C707.246 35.509 707.006 37.2586 707.006 39.814L707.043 41.1445C707.043 41.6003 706.901 41.9868 706.616 42.3042C706.331 42.6134 705.924 42.7681 705.395 42.7681ZM304.687 61.7085C305.314 61.4725 305.957 61.3545 306.616 61.3545C307.275 61.3545 307.958 61.5498 308.667 61.9404C309.383 62.3311 309.773 62.5264 309.838 62.5264C309.903 62.5264 310.343 62.327 311.157 61.9282C311.971 61.5295 312.703 61.3301 313.354 61.3301C314.013 61.3301 314.554 61.4684 314.978 61.7451C315.409 62.0137 315.734 62.3351 315.954 62.7095C316.369 63.4256 316.577 65.0166 316.577 67.4824C316.577 68.5892 316.585 69.224 316.601 69.3867C316.625 69.5413 316.682 69.8221 316.772 70.229C316.87 70.6278 316.918 70.9574 316.918 71.2178C316.918 71.4701 316.813 71.7345 316.601 72.0112C316.389 72.2879 316.109 72.4263 315.759 72.4263C315.067 72.4263 314.656 72.1455 314.526 71.584C314.428 71.1771 314.314 69.9889 314.184 68.0195C314.062 66.0501 313.928 64.8945 313.781 64.5527C313.488 63.8366 312.866 63.4785 311.914 63.4785C311.303 63.4785 310.827 63.861 310.485 64.626C309.989 65.7246 309.741 67.2871 309.741 69.3135L309.863 71.0713C309.863 71.6898 309.635 72.1577 309.179 72.4751C308.886 72.6785 308.496 72.7803 308.007 72.7803C307.527 72.7803 307.21 72.7314 307.055 72.6338C306.787 72.471 306.652 72.1252 306.652 71.5962C306.652 71.4985 306.73 71.0998 306.884 70.3999C307.047 69.6919 307.128 68.5444 307.128 66.9575C307.128 65.3625 307.01 64.3493 306.774 63.918C306.538 63.4785 306.127 63.2588 305.542 63.2588C304.956 63.2588 304.435 63.4582 303.979 63.8569C303.531 64.2557 303.202 64.6911 302.99 65.1631C302.787 65.6351 302.604 66.7581 302.441 68.5322C302.286 70.3063 302.176 71.3236 302.111 71.584C301.997 72.0316 301.668 72.2554 301.123 72.2554C300.585 72.2554 300.215 72.0967 300.012 71.7793C299.816 71.4538 299.719 71.0591 299.719 70.5952L299.78 70.168L300.012 69.3257C300.109 68.9351 300.166 68.4793 300.183 67.9585C300.305 64.7277 300.398 62.8844 300.463 62.4287C300.528 61.973 300.821 61.7451 301.342 61.7451L303.161 62.0503C303.552 62.0503 304.06 61.9364 304.687 61.7085ZM323.913 57.1309V57.2773C323.913 57.6924 323.791 58.0464 323.547 58.3394C323.311 58.6242 322.945 58.7666 322.448 58.7666H322.253L321.875 58.7178C321.655 58.7178 321.443 58.616 321.24 58.4126C321.036 58.2091 320.935 57.904 320.935 57.4971V57.3506L320.996 56.9111C320.996 56.7402 321.097 56.5286 321.301 56.2764C321.512 56.0241 321.781 55.8979 322.106 55.8979L322.387 55.8613H322.631L322.973 55.9102C323.185 55.9102 323.392 56.016 323.596 56.2275C323.807 56.431 323.913 56.7321 323.913 57.1309ZM323.339 62.2822L323.205 65.5659L323.181 65.8955L323.144 66.8965V67.3726C323.144 68.5444 323.177 69.3135 323.242 69.6797C323.315 70.0459 323.449 70.404 323.645 70.7539C323.84 71.0957 323.938 71.3439 323.938 71.4985V71.6084C323.938 72.0072 323.734 72.3245 323.327 72.5605C322.92 72.7965 322.367 72.9146 321.667 72.9146H321.362C320.955 72.9146 320.646 72.825 320.434 72.646C320.222 72.4588 320.117 72.2594 320.117 72.0479V71.7793C320.117 71.6735 320.21 71.2992 320.397 70.6562C320.585 70.0052 320.678 69.1222 320.678 68.0073C320.703 67.6899 320.715 67.4702 320.715 67.3481L320.751 66.6768L320.776 66.3472C320.817 65.7775 320.837 65.334 320.837 65.0166L320.849 64.5283C320.849 63.918 320.747 63.3768 320.544 62.9048C320.349 62.4328 320.251 62.1398 320.251 62.0259C320.251 61.4399 320.804 61.147 321.911 61.147H322.351C322.766 61.147 323.034 61.2568 323.156 61.4766C323.278 61.6882 323.339 61.9567 323.339 62.2822ZM338.146 71.5352C338.146 72.1374 337.622 72.4385 336.572 72.4385C335.978 72.4385 335.579 72.2961 335.375 72.0112C335.278 71.8729 335.229 71.5474 335.229 71.0347L335.192 70.2534C335.135 69.3989 335.107 68.5404 335.107 67.6777C335.107 65.8141 334.944 64.5649 334.619 63.9302C334.301 63.2873 333.764 62.9658 333.007 62.9658C332.503 62.9658 332.035 63.1164 331.604 63.4175C331.18 63.7186 330.855 64.1377 330.627 64.6748C330.155 65.7734 329.919 67.8039 329.919 70.7661C329.919 71.4416 329.789 71.9176 329.528 72.1943C329.276 72.471 328.951 72.6094 328.552 72.6094H328.308C327.396 72.6094 326.94 72.2472 326.94 71.5229V71.23C326.94 71.1405 326.989 70.9451 327.087 70.644L327.282 70.0825C327.478 69.4233 327.575 68.0114 327.575 65.8467L327.636 62.2212C327.636 61.7573 327.889 61.5254 328.393 61.5254C328.898 61.5254 329.394 61.6922 329.882 62.0259C330.379 62.3595 330.692 62.5264 330.822 62.5264C330.961 62.5264 331.201 62.4328 331.542 62.2456C332.69 61.619 333.61 61.3057 334.301 61.3057H334.619C335.864 61.3057 336.739 61.8672 337.243 62.9902C337.487 63.5192 337.609 64.6585 337.609 66.4082V66.4937C337.609 66.6401 337.605 66.7866 337.597 66.9331C337.597 67.3319 337.597 67.5394 337.597 67.5557C337.597 67.7103 337.597 67.8608 337.597 68.0073C337.597 68.1213 337.597 68.2311 337.597 68.3369C337.597 68.9635 337.618 69.3908 337.658 69.6187C337.715 69.9279 337.809 70.2493 337.939 70.583C338.077 70.9492 338.146 71.2666 338.146 71.5352ZM344.958 57.1309V57.2773C344.958 57.6924 344.836 58.0464 344.592 58.3394C344.356 58.6242 343.99 58.7666 343.493 58.7666H343.298L342.919 58.7178C342.7 58.7178 342.488 58.616 342.285 58.4126C342.081 58.2091 341.979 57.904 341.979 57.4971V57.3506L342.041 56.9111C342.041 56.7402 342.142 56.5286 342.346 56.2764C342.557 56.0241 342.826 55.8979 343.151 55.8979L343.432 55.8613H343.676L344.018 55.9102C344.23 55.9102 344.437 56.016 344.641 56.2275C344.852 56.431 344.958 56.7321 344.958 57.1309ZM344.384 62.2822L344.25 65.5659L344.226 65.8955L344.189 66.8965V67.3726C344.189 68.5444 344.222 69.3135 344.287 69.6797C344.36 70.0459 344.494 70.404 344.689 70.7539C344.885 71.0957 344.982 71.3439 344.982 71.4985V71.6084C344.982 72.0072 344.779 72.3245 344.372 72.5605C343.965 72.7965 343.412 72.9146 342.712 72.9146H342.407C342 72.9146 341.691 72.825 341.479 72.646C341.267 72.4588 341.162 72.2594 341.162 72.0479V71.7793C341.162 71.6735 341.255 71.2992 341.442 70.6562C341.63 70.0052 341.723 69.1222 341.723 68.0073C341.748 67.6899 341.76 67.4702 341.76 67.3481L341.796 66.6768L341.821 66.3472C341.861 65.7775 341.882 65.334 341.882 65.0166L341.894 64.5283C341.894 63.918 341.792 63.3768 341.589 62.9048C341.394 62.4328 341.296 62.1398 341.296 62.0259C341.296 61.4399 341.849 61.147 342.956 61.147H343.396C343.811 61.147 344.079 61.2568 344.201 61.4766C344.323 61.6882 344.384 61.9567 344.384 62.2822ZM353.076 61.7085C353.702 61.4725 354.345 61.3545 355.004 61.3545C355.664 61.3545 356.347 61.5498 357.055 61.9404C357.771 62.3311 358.162 62.5264 358.227 62.5264C358.292 62.5264 358.732 62.327 359.545 61.9282C360.359 61.5295 361.092 61.3301 361.743 61.3301C362.402 61.3301 362.943 61.4684 363.366 61.7451C363.798 62.0137 364.123 62.3351 364.343 62.7095C364.758 63.4256 364.965 65.0166 364.965 67.4824C364.965 68.5892 364.973 69.224 364.99 69.3867C365.014 69.5413 365.071 69.8221 365.161 70.229C365.258 70.6278 365.307 70.9574 365.307 71.2178C365.307 71.4701 365.201 71.7345 364.99 72.0112C364.778 72.2879 364.497 72.4263 364.147 72.4263C363.456 72.4263 363.045 72.1455 362.915 71.584C362.817 71.1771 362.703 69.9889 362.573 68.0195C362.451 66.0501 362.316 64.8945 362.17 64.5527C361.877 63.8366 361.254 63.4785 360.302 63.4785C359.692 63.4785 359.216 63.861 358.874 64.626C358.378 65.7246 358.129 67.2871 358.129 69.3135L358.251 71.0713C358.251 71.6898 358.024 72.1577 357.568 72.4751C357.275 72.6785 356.884 72.7803 356.396 72.7803C355.916 72.7803 355.598 72.7314 355.444 72.6338C355.175 72.471 355.041 72.1252 355.041 71.5962C355.041 71.4985 355.118 71.0998 355.273 70.3999C355.436 69.6919 355.517 68.5444 355.517 66.9575C355.517 65.3625 355.399 64.3493 355.163 63.918C354.927 63.4785 354.516 63.2588 353.93 63.2588C353.344 63.2588 352.823 63.4582 352.368 63.8569C351.92 64.2557 351.59 64.6911 351.379 65.1631C351.175 65.6351 350.992 66.7581 350.83 68.5322C350.675 70.3063 350.565 71.3236 350.5 71.584C350.386 72.0316 350.056 72.2554 349.511 72.2554C348.974 72.2554 348.604 72.0967 348.4 71.7793C348.205 71.4538 348.107 71.0591 348.107 70.5952L348.168 70.168L348.4 69.3257C348.498 68.9351 348.555 68.4793 348.571 67.9585C348.693 64.7277 348.787 62.8844 348.852 62.4287C348.917 61.973 349.21 61.7451 349.731 61.7451L351.55 62.0503C351.94 62.0503 352.449 61.9364 353.076 61.7085ZM372.229 71.4619H372.546C373.213 71.4619 373.799 71.2381 374.304 70.7905C374.816 70.3348 375.073 69.8099 375.073 69.2158L375.097 69.0571V68.8984L375.122 68.52V67.8242C375.122 67.3522 374.882 67.1162 374.401 67.1162H373.852L373.767 67.1284L373.291 67.165C373.063 67.1976 372.9 67.2139 372.802 67.2139C372.143 67.2139 371.533 67.4621 370.971 67.9585C370.581 68.3084 370.385 68.8049 370.385 69.4478V69.6919C370.385 70.2371 370.56 70.6685 370.91 70.9858C371.268 71.3032 371.708 71.4619 372.229 71.4619ZM369.506 63.6616C368.961 63.6616 368.688 63.3117 368.688 62.6118C368.688 62.091 369.128 61.6393 370.007 61.2568C370.894 60.8662 371.813 60.6709 372.766 60.6709H373.376C374.198 60.6709 374.922 60.8255 375.549 61.1348C376.175 61.4359 376.652 61.8468 376.977 62.3677C377.311 62.8885 377.514 63.568 377.587 64.4062C377.604 64.6016 377.612 65.5496 377.612 67.2505C377.612 68.9513 377.632 69.932 377.673 70.1924C377.722 70.4447 377.852 70.7539 378.063 71.1201C378.283 71.4863 378.393 71.7874 378.393 72.0234C378.393 72.2594 378.279 72.4629 378.051 72.6338C377.832 72.7965 377.51 72.8779 377.087 72.8779C376.664 72.8779 376.204 72.7762 375.708 72.5728C375.211 72.3612 374.849 72.2554 374.621 72.2554C374.597 72.2554 374.19 72.4019 373.4 72.6948C372.611 72.9797 371.944 73.1221 371.398 73.1221H371.13C370.218 73.1221 369.441 72.8332 368.798 72.2554C368.164 71.6776 367.846 70.8556 367.846 69.7896C367.846 68.7235 368.196 67.8934 368.896 67.2993C369.596 66.6971 370.446 66.2861 371.447 66.0664C371.748 66.0013 372.249 65.9159 372.949 65.8101C373.649 65.7043 374.125 65.5944 374.377 65.4805C374.816 65.277 375.036 64.8945 375.036 64.333C375.036 63.7633 374.849 63.3198 374.475 63.0024C374.1 62.6769 373.653 62.5142 373.132 62.5142C372.619 62.5142 371.944 62.7054 371.105 63.0879C370.267 63.4704 369.734 63.6616 369.506 63.6616ZM381.921 56.0322C381.921 55.4382 382.478 55.1411 383.593 55.1411H383.813C384.277 55.1411 384.594 55.255 384.765 55.4829C384.936 55.7026 385.021 56.134 385.021 56.7769L384.924 58.5957C384.899 58.8805 384.887 59.0352 384.887 59.0596L384.863 59.5234C384.847 59.8245 384.83 60.1297 384.814 60.439L384.777 60.9028L384.741 61.5986C384.611 64.0726 384.545 65.8996 384.545 67.0796C384.545 68.2515 384.598 69.0938 384.704 69.6064C384.81 70.1191 384.977 70.5545 385.205 70.9126C385.432 71.2707 385.546 71.5067 385.546 71.6206V71.7671C385.546 72.1252 385.367 72.41 385.009 72.6216C384.659 72.8332 384.183 72.939 383.581 72.939H382.946C382.572 72.939 382.242 72.8332 381.958 72.6216C381.681 72.4019 381.542 72.1536 381.542 71.877V71.5474L381.616 71.0347C381.713 70.3267 381.77 69.7977 381.787 69.4478C381.811 69.0897 381.848 68.5973 381.896 67.9707C381.945 67.3359 382.023 65.9891 382.128 63.9302C382.242 61.8631 382.299 60.7523 382.299 60.5977L382.348 59.6821L382.373 58.7788C382.373 57.9162 382.295 57.3018 382.141 56.9355C381.994 56.5612 381.921 56.2601 381.921 56.0322ZM397.412 67.8486C397.412 68.9147 397.656 69.8018 398.144 70.5098C398.632 71.2178 399.23 71.5718 399.938 71.5718H400.305C401.143 71.5718 401.851 71.1486 402.429 70.3022C403.015 69.4559 403.308 68.3288 403.308 66.9209V66.1152C403.308 65.0247 403.068 64.1336 402.587 63.4419C402.115 62.742 401.505 62.3921 400.756 62.3921H400.512C399.641 62.3921 398.909 62.8234 398.315 63.686C397.729 64.5487 397.436 65.5781 397.436 66.7744L397.412 67.0552V67.8486ZM400.17 73.2319H399.78C398.356 73.2319 397.196 72.7355 396.301 71.7427C395.406 70.7498 394.958 69.342 394.958 67.519L394.97 67.3115C394.97 65.3096 395.499 63.7308 396.557 62.5752C397.111 61.9648 397.741 61.5173 398.449 61.2324C399.165 60.9395 399.845 60.793 400.488 60.793H401.086C401.802 60.793 402.49 60.9517 403.149 61.269C405.037 62.1805 405.981 63.8976 405.981 66.4204V66.6157C405.973 67.4377 405.839 68.2718 405.578 69.1182C405.057 70.7865 404.056 71.9665 402.575 72.6582C401.753 73.0407 400.952 73.2319 400.17 73.2319ZM412.902 72.9878C412.308 72.9878 411.832 72.6094 411.474 71.8525C411.206 71.2829 410.725 69.9198 410.034 67.7632C409.35 65.5985 408.898 64.3086 408.679 63.8936C408.133 62.86 407.861 62.2008 407.861 61.916C407.861 61.623 407.95 61.4115 408.129 61.2812C408.308 61.1429 408.687 61.0737 409.265 61.0737C410.192 61.0737 410.807 61.4155 411.108 62.0991C411.165 62.2212 411.254 62.5996 411.376 63.2344C411.499 63.861 411.621 64.4144 411.743 64.8945L411.987 65.9688C412.597 68.6543 413.065 69.9971 413.391 69.9971C413.61 69.9971 414.229 68.6258 415.246 65.8833C415.71 64.63 416.007 63.6453 416.137 62.9292C416.276 62.2049 416.365 61.8021 416.406 61.7207C416.642 61.2731 417.138 61.0493 417.895 61.0493H418.139C418.693 61.0493 418.969 61.3301 418.969 61.8916C418.969 62.2904 418.847 62.6973 418.603 63.1123C418.359 63.5273 417.789 64.805 416.894 66.9453C416.007 69.0775 415.352 70.526 414.929 71.291C414.506 72.0479 414.156 72.5199 413.879 72.707C413.61 72.8942 413.285 72.9878 412.902 72.9878ZM423.046 65.5781V65.7734C423.046 66.0176 423.27 66.1396 423.718 66.1396H424.011L424.084 66.1274L424.682 66.0786C425.309 65.9891 425.716 65.9443 425.903 65.9443C426.79 65.9443 427.457 65.7775 427.905 65.4438C428.116 65.2811 428.222 64.9922 428.222 64.5771V64.4429C428.222 63.8325 428.019 63.3483 427.612 62.9902C427.213 62.6322 426.733 62.4531 426.171 62.4531H426.086L426.013 62.4653C425.223 62.4653 424.532 62.799 423.938 63.4663C423.343 64.1336 423.046 64.8376 423.046 65.5781ZM425.708 73.1587H425.439C423.885 73.1587 422.648 72.6663 421.728 71.6816C420.808 70.6888 420.349 69.3664 420.349 67.7144V67.1772C420.349 66.3879 420.503 65.5863 420.812 64.7725C421.439 63.1449 422.46 62.0218 423.876 61.4033C424.625 61.0697 425.386 60.9028 426.159 60.9028H426.684C427.75 60.9028 428.649 61.2609 429.382 61.9771C430.122 62.6851 430.493 63.6006 430.493 64.7236V64.9678C430.493 65.7653 430.175 66.3309 429.541 66.6646C429.101 66.9006 428.076 67.1366 426.464 67.3726C424.853 67.6086 423.974 67.751 423.828 67.7998C423.339 67.9707 423.095 68.2962 423.095 68.7764C423.095 69.4437 423.38 70.0133 423.95 70.4854C424.519 70.9574 425.284 71.1934 426.245 71.1934C426.692 71.1934 427.303 71.0713 428.076 70.8271C428.849 70.583 429.296 70.4609 429.418 70.4609C429.833 70.4609 430.041 70.64 430.041 70.998C430.041 71.4782 429.573 71.9583 428.637 72.4385C427.701 72.9186 426.725 73.1587 425.708 73.1587ZM433.923 66.6523V65.7124C433.923 64.5812 433.862 63.7552 433.74 63.2344C433.618 62.7054 433.557 62.3351 433.557 62.1235C433.557 61.6271 433.919 61.3789 434.643 61.3789C435.367 61.3789 435.892 61.5132 436.218 61.7817C436.307 61.855 436.421 61.9974 436.56 62.209C436.706 62.4206 436.836 62.5264 436.95 62.5264C436.975 62.5264 437.329 62.3188 438.012 61.9038C438.696 61.4888 439.282 61.2812 439.77 61.2812H439.953C440.352 61.2812 440.669 61.3789 440.905 61.5742C441.141 61.7614 441.259 61.9933 441.259 62.27V62.4287C441.259 62.7624 441.141 63.0024 440.905 63.1489C440.677 63.2954 440.311 63.3687 439.807 63.3687C438.659 63.3687 437.821 63.7715 437.292 64.5771C436.771 65.3828 436.511 66.807 436.511 68.8496C436.511 69.1426 436.56 69.5942 436.657 70.2046C436.763 70.8149 436.816 71.2747 436.816 71.584C436.816 71.8932 436.649 72.1903 436.315 72.4751C435.982 72.7599 435.559 72.9023 435.046 72.9023H434.631C434.183 72.9023 433.837 72.7965 433.593 72.585C433.357 72.3652 433.239 72.1007 433.239 71.7915C433.239 71.4741 433.296 71.1527 433.41 70.8271C433.719 69.9482 433.874 68.9798 433.874 67.9219C433.907 67.3359 433.923 66.9128 433.923 66.6523ZM444.14 66.1885C443.644 65.6839 443.396 64.9759 443.396 64.0645C443.396 63.153 443.802 62.3717 444.616 61.7207C445.43 61.0615 446.439 60.7319 447.644 60.7319H447.961C449.027 60.7319 449.873 60.8825 450.5 61.1836C451.135 61.4847 451.452 61.9364 451.452 62.5386C451.452 63.1326 451.188 63.4297 450.659 63.4297C450.52 63.4297 450.13 63.2669 449.487 62.9414C448.844 62.6077 448.238 62.4409 447.668 62.4409C447.098 62.4409 446.639 62.5711 446.289 62.8315C445.947 63.0838 445.776 63.4338 445.776 63.8813C445.776 64.3289 446.016 64.7196 446.496 65.0532C446.773 65.2485 447.424 65.5578 448.449 65.981C449.483 66.4041 450.219 66.811 450.659 67.2017C451.367 67.8283 451.721 68.6299 451.721 69.6064C451.721 70.583 451.306 71.4212 450.476 72.1211C449.646 72.8128 448.567 73.1587 447.241 73.1587H446.923C445.589 73.1587 444.588 72.9674 443.92 72.585C443.253 72.1943 442.919 71.6898 442.919 71.0713C442.919 70.4447 443.18 70.1313 443.701 70.1313C443.872 70.1313 444.315 70.3511 445.031 70.7905C445.756 71.23 446.464 71.4497 447.155 71.4497C447.855 71.4497 448.38 71.3032 448.73 71.0103C449.08 70.7091 449.255 70.3348 449.255 69.8872C449.255 69.4315 449.035 69.0327 448.596 68.6909C448.36 68.5037 447.684 68.166 446.569 67.6777C445.454 67.1813 444.645 66.6849 444.14 66.1885ZM458.312 57.1309V57.2773C458.312 57.6924 458.19 58.0464 457.946 58.3394C457.71 58.6242 457.344 58.7666 456.848 58.7666H456.652L456.274 58.7178C456.054 58.7178 455.843 58.616 455.639 58.4126C455.436 58.2091 455.334 57.904 455.334 57.4971V57.3506L455.395 56.9111C455.395 56.7402 455.497 56.5286 455.7 56.2764C455.912 56.0241 456.18 55.8979 456.506 55.8979L456.787 55.8613H457.031L457.373 55.9102C457.584 55.9102 457.792 56.016 457.995 56.2275C458.207 56.431 458.312 56.7321 458.312 57.1309ZM457.739 62.2822L457.604 65.5659L457.58 65.8955L457.543 66.8965V67.3726C457.543 68.5444 457.576 69.3135 457.641 69.6797C457.714 70.0459 457.849 70.404 458.044 70.7539C458.239 71.0957 458.337 71.3439 458.337 71.4985V71.6084C458.337 72.0072 458.133 72.3245 457.727 72.5605C457.32 72.7965 456.766 72.9146 456.066 72.9146H455.761C455.354 72.9146 455.045 72.825 454.833 72.646C454.622 72.4588 454.516 72.2594 454.516 72.0479V71.7793C454.516 71.6735 454.61 71.2992 454.797 70.6562C454.984 70.0052 455.078 69.1222 455.078 68.0073C455.102 67.6899 455.114 67.4702 455.114 67.3481L455.151 66.6768L455.175 66.3472C455.216 65.7775 455.236 65.334 455.236 65.0166L455.249 64.5283C455.249 63.918 455.147 63.3768 454.943 62.9048C454.748 62.4328 454.65 62.1398 454.65 62.0259C454.65 61.4399 455.204 61.147 456.311 61.147H456.75C457.165 61.147 457.434 61.2568 457.556 61.4766C457.678 61.6882 457.739 61.9567 457.739 62.2822ZM463.5 67.3481V67.7266C463.5 68.8171 463.708 69.6715 464.123 70.29C464.538 70.9085 465.059 71.2178 465.686 71.2178H466.113C467.016 71.2178 467.72 70.8394 468.225 70.0825C468.729 69.3175 468.981 68.2474 468.981 66.8721C468.998 66.7093 469.006 66.5832 469.006 66.4937L469.03 65.9932V65.2607C469.014 65.098 469.006 64.9759 469.006 64.8945C469.006 64.2516 468.851 63.7471 468.542 63.3809C468.233 63.0146 467.777 62.8315 467.175 62.8315H466.833C465.873 62.8315 465.075 63.2344 464.44 64.04C463.814 64.8457 463.5 65.9484 463.5 67.3481ZM470.593 61.8306C471.301 61.8306 471.655 62.3433 471.655 63.3687C471.655 63.6372 471.545 64.7603 471.325 66.7378C471.105 68.7153 470.996 70.3958 470.996 71.7793C470.996 73.179 470.902 74.2288 470.715 74.9287C470.316 76.4342 469.392 77.5003 467.944 78.127C467.187 78.4525 466.349 78.6152 465.429 78.6152C464.518 78.6152 463.704 78.4525 462.988 78.127C462.28 77.8014 461.926 77.4108 461.926 76.9551C461.926 76.4342 462.276 76.1738 462.976 76.1738C463.114 76.1738 463.488 76.2267 464.099 76.3325C464.709 76.4383 465.148 76.4912 465.417 76.4912C466.402 76.4912 467.207 76.182 467.834 75.5635C468.469 74.9531 468.786 74.1678 468.786 73.2075C468.786 72.703 468.599 72.4507 468.225 72.4507C468.16 72.4507 468.005 72.4751 467.761 72.5239C467.069 72.6623 466.438 72.7314 465.869 72.7314C464.42 72.7314 463.33 72.292 462.597 71.4131C462.255 71.0062 461.962 70.465 461.718 69.7896C461.482 69.106 461.364 68.3857 461.364 67.6289V67.2871C461.364 66.4896 461.494 65.7043 461.755 64.9312C462.023 64.1499 462.377 63.4948 462.817 62.9658C463.256 62.4287 463.83 62.0096 464.538 61.7085C465.246 61.4074 465.97 61.2568 466.711 61.2568H467.028C467.443 61.2568 467.976 61.3708 468.627 61.5986C469.287 61.8184 469.689 61.9282 469.836 61.9282C470.161 61.8631 470.414 61.8306 470.593 61.8306ZM476.379 72.7681C475.419 72.7681 474.938 72.4263 474.938 71.7427C474.938 71.4334 475.012 70.9736 475.158 70.3633C475.313 69.7529 475.415 69.1914 475.463 68.6787C475.512 68.1579 475.598 66.4814 475.72 63.6494C475.85 60.8174 475.915 59.0921 475.915 58.4736V57.0332L475.842 56.0078C475.842 55.6253 476.192 55.4341 476.892 55.4341C477.6 55.4341 478.059 55.7067 478.271 56.252C478.377 56.5286 478.43 57.432 478.43 58.9619C478.43 60.4919 478.458 61.3626 478.515 61.5742C478.58 61.7858 478.747 61.8916 479.016 61.8916C479.048 61.8916 479.203 61.8428 479.479 61.7451L479.748 61.6475C480.619 61.3057 481.372 61.1348 482.006 61.1348C483.341 61.1348 484.289 61.6556 484.851 62.6973C485.225 63.389 485.412 64.8945 485.412 67.2139C485.412 68.3044 485.42 68.9513 485.437 69.1548C485.453 69.3582 485.506 69.7285 485.595 70.2656C485.685 70.7946 485.729 71.0876 485.729 71.1445C485.729 71.6247 485.62 71.9827 485.4 72.2188C485.188 72.4466 484.802 72.5605 484.24 72.5605C483.687 72.5605 483.325 72.3896 483.154 72.0479C483.064 71.8688 483.02 71.3521 483.02 70.4976L482.983 68.3491L483.02 66.4082C483.02 64.2354 482.385 63.1489 481.115 63.1489C479.992 63.1489 479.191 63.6209 478.71 64.5649C478.23 65.509 477.99 67.2586 477.99 69.814L478.027 71.1445C478.027 71.6003 477.884 71.9868 477.6 72.3042C477.315 72.6134 476.908 72.7681 476.379 72.7681ZM495.166 71.6938C495.166 72.0194 494.966 72.3123 494.567 72.5728C494.177 72.825 493.644 72.9512 492.968 72.9512C491.707 72.9512 490.82 72.4832 490.307 71.5474C489.99 70.9614 489.831 69.5902 489.831 67.4336C489.831 65.277 489.794 64.0238 489.721 63.6738C489.648 63.3239 489.444 62.9821 489.111 62.6484C488.777 62.3148 488.61 62.0584 488.61 61.8794C488.61 61.8143 489.005 61.387 489.794 60.5977C489.965 60.4268 490.136 60.0483 490.307 59.4624C490.486 58.8765 490.612 58.4899 490.686 58.3027C490.93 57.7168 491.251 57.4238 491.65 57.4238H491.845C492.195 57.4238 492.443 57.5581 492.59 57.8267C492.647 57.9325 492.732 58.3149 492.846 58.9741C492.968 59.6252 493.107 60.0443 493.261 60.2314C493.416 60.4186 493.802 60.6261 494.421 60.854C495.048 61.0737 495.361 61.3097 495.361 61.562V61.6963C495.361 62.0218 495.003 62.2985 494.287 62.5264C493.579 62.7461 493.123 63.1001 492.919 63.5884C492.521 64.5731 492.321 66.1763 492.321 68.3979C492.321 69.4396 492.5 70.1476 492.858 70.522C493.078 70.7498 493.518 70.9085 494.177 70.998C494.836 71.0876 495.166 71.3195 495.166 71.6938ZM499.731 73.1953H499.353C498.946 73.1953 498.628 73.1017 498.4 72.9146C498.181 72.7274 498.071 72.4792 498.071 72.1699C498.055 72.1048 498.046 72.0519 498.046 72.0112L498.022 71.8037V71.584L498.034 71.5352V71.4253C498.05 71.3602 498.059 71.3073 498.059 71.2666C498.059 70.9004 498.181 70.6156 498.425 70.4121C498.677 70.2005 498.954 70.0947 499.255 70.0947L499.511 70.0581H499.841C500.728 70.0581 501.171 70.522 501.171 71.4497V71.6206L501.123 72.0356C501.123 72.41 500.98 72.6989 500.695 72.9023C500.419 73.0977 500.097 73.1953 499.731 73.1953Z" fill="black"/>
</svg>
