<svg width="759" height="87" viewBox="0 0 759 87" fill="none" xmlns="http://www.w3.org/2000/svg">
<rect x="0.0220337" width="758" height="87" rx="18" fill="#D9D9D9"/>
<path d="M44.2567 54.1177C43.9067 54.1177 43.7317 53.9427 43.7317 53.5927V45.3607H32.7067C32.3567 45.3607 32.1817 45.1857 32.1817 44.8357V26.6497C32.1817 26.2997 32.3567 26.1247 32.7067 26.1247H38.6497C38.9997 26.1247 39.1747 26.2997 39.1747 26.6497V39.7747H43.7317V26.6497C43.7317 26.2997 43.9067 26.1247 44.2567 26.1247H50.1997C50.5497 26.1247 50.7247 26.2997 50.7247 26.6497V53.5927C50.7247 53.9427 50.5497 54.1177 50.1997 54.1177H44.2567Z" fill="#2ECC71"/>
<path d="M79.4645 36.395V36.0044C79.4645 34.7104 79.6679 33.4613 80.0748 32.2568C80.8398 30.0026 82.1866 28.4198 84.1154 27.5083C85.1652 27.0119 86.2516 26.7637 87.3746 26.7637H87.7531C89.4539 26.7637 90.6624 27.0119 91.3785 27.5083C92.0947 28.0047 92.4528 28.6313 92.4528 29.3882C92.4528 29.8439 92.3632 30.1491 92.1842 30.3037C92.0052 30.4583 91.8302 30.5356 91.6593 30.5356C91.4965 30.5356 91.1425 30.3485 90.5973 29.9741C90.0602 29.5998 89.5393 29.3109 89.0348 29.1074C88.5302 28.8958 87.8995 28.79 87.1427 28.79C86.3859 28.79 85.6982 28.9772 85.0797 29.3516C83.2242 30.4827 82.2924 32.8062 82.2843 36.3218C82.2843 37.2332 82.4064 38.0552 82.6505 38.7876C83.3911 41.0011 84.8681 42.1079 87.0817 42.1079C88.1559 42.1079 89.3929 41.7173 90.7926 40.936C91.2321 40.6919 91.5576 40.5698 91.7692 40.5698C92.1191 40.5698 92.2941 40.7692 92.2941 41.168C92.2941 41.4202 92.1801 41.701 91.9523 42.0103C91.5535 42.5636 91.0327 42.999 90.3898 43.3164C89.2993 43.8617 88.0867 44.1343 86.7521 44.1343H86.3615C84.2781 44.1343 82.6017 43.4385 81.3322 42.0469C80.7299 41.3877 80.2661 40.5576 79.9406 39.5566C79.6232 38.5557 79.4645 37.5018 79.4645 36.395ZM97.1036 38.8486C97.1036 39.9147 97.3478 40.8018 97.8361 41.5098C98.3243 42.2178 98.9225 42.5718 99.6305 42.5718H99.9967C100.835 42.5718 101.543 42.1486 102.121 41.3022C102.707 40.4559 103 39.3288 103 37.9209V37.1152C103 36.0247 102.76 35.1336 102.279 34.4419C101.807 33.742 101.197 33.3921 100.448 33.3921H100.204C99.3335 33.3921 98.601 33.8234 98.007 34.686C97.421 35.5487 97.1281 36.5781 97.1281 37.7744L97.1036 38.0552V38.8486ZM99.8624 44.2319H99.4718C98.0476 44.2319 96.888 43.7355 95.9928 42.7427C95.0976 41.7498 94.65 40.342 94.65 38.519L94.6622 38.3115C94.6622 36.3096 95.1912 34.7308 96.2491 33.5752C96.8025 32.9648 97.4332 32.5173 98.1412 32.2324C98.8574 31.9395 99.5369 31.793 100.18 31.793H100.778C101.494 31.793 102.182 31.9517 102.841 32.269C104.729 33.1805 105.673 34.8976 105.673 37.4204V37.6157C105.665 38.4377 105.531 39.2718 105.27 40.1182C104.749 41.7865 103.748 42.9665 102.267 43.6582C101.445 44.0407 100.644 44.2319 99.8624 44.2319ZM119.406 42.5352C119.406 43.1374 118.881 43.4385 117.831 43.4385C117.237 43.4385 116.838 43.2961 116.635 43.0112C116.537 42.8729 116.488 42.5474 116.488 42.0347L116.452 41.2534C116.395 40.3989 116.366 39.5404 116.366 38.6777C116.366 36.8141 116.204 35.5649 115.878 34.9302C115.561 34.2873 115.024 33.9658 114.267 33.9658C113.762 33.9658 113.294 34.1164 112.863 34.4175C112.44 34.7186 112.114 35.1377 111.886 35.6748C111.414 36.7734 111.178 38.8039 111.178 41.7661C111.178 42.4416 111.048 42.9176 110.788 43.1943C110.535 43.471 110.21 43.6094 109.811 43.6094H109.567C108.656 43.6094 108.2 43.2472 108.2 42.5229V42.23C108.2 42.1405 108.249 41.9451 108.346 41.644L108.542 41.0825C108.737 40.4233 108.835 39.0114 108.835 36.8467L108.896 33.2212C108.896 32.7573 109.148 32.5254 109.652 32.5254C110.157 32.5254 110.653 32.6922 111.142 33.0259C111.638 33.3595 111.951 33.5264 112.082 33.5264C112.22 33.5264 112.46 33.4328 112.802 33.2456C113.949 32.619 114.869 32.3057 115.561 32.3057H115.878C117.123 32.3057 117.998 32.8672 118.503 33.9902C118.747 34.5192 118.869 35.6585 118.869 37.4082V37.4937C118.869 37.6401 118.865 37.7866 118.857 37.9331C118.857 38.3319 118.857 38.5394 118.857 38.5557C118.857 38.7103 118.857 38.8608 118.857 39.0073C118.857 39.1213 118.857 39.2311 118.857 39.3369C118.857 39.9635 118.877 40.3908 118.918 40.6187C118.975 40.9279 119.068 41.2493 119.198 41.583C119.337 41.9492 119.406 42.2666 119.406 42.5352ZM128.573 42.6938C128.573 43.0194 128.374 43.3123 127.975 43.5728C127.585 43.825 127.052 43.9512 126.376 43.9512C125.115 43.9512 124.228 43.4832 123.715 42.5474C123.398 41.9614 123.239 40.5902 123.239 38.4336C123.239 36.277 123.202 35.0238 123.129 34.6738C123.056 34.3239 122.852 33.9821 122.519 33.6484C122.185 33.3148 122.018 33.0584 122.018 32.8794C122.018 32.8143 122.413 32.387 123.202 31.5977C123.373 31.4268 123.544 31.0483 123.715 30.4624C123.894 29.8765 124.02 29.4899 124.093 29.3027C124.338 28.7168 124.659 28.4238 125.058 28.4238H125.253C125.603 28.4238 125.851 28.5581 125.998 28.8267C126.055 28.9325 126.14 29.3149 126.254 29.9741C126.376 30.6252 126.514 31.0443 126.669 31.2314C126.824 31.4186 127.21 31.6261 127.829 31.854C128.455 32.0737 128.769 32.3097 128.769 32.562V32.6963C128.769 33.0218 128.411 33.2985 127.694 33.5264C126.986 33.7461 126.531 34.1001 126.327 34.5884C125.929 35.5731 125.729 37.1763 125.729 39.3979C125.729 40.4396 125.908 41.1476 126.266 41.522C126.486 41.7498 126.925 41.9085 127.585 41.998C128.244 42.0876 128.573 42.3195 128.573 42.6938ZM132.15 37.6523V36.7124C132.15 35.5812 132.089 34.7552 131.967 34.2344C131.845 33.7054 131.784 33.3351 131.784 33.1235C131.784 32.6271 132.146 32.3789 132.87 32.3789C133.595 32.3789 134.119 32.5132 134.445 32.7817C134.534 32.855 134.648 32.9974 134.787 33.209C134.933 33.4206 135.063 33.5264 135.177 33.5264C135.202 33.5264 135.556 33.3188 136.239 32.9038C136.923 32.4888 137.509 32.2812 137.997 32.2812H138.18C138.579 32.2812 138.896 32.3789 139.132 32.5742C139.368 32.7614 139.486 32.9933 139.486 33.27V33.4287C139.486 33.7624 139.368 34.0024 139.132 34.1489C138.905 34.2954 138.538 34.3687 138.034 34.3687C136.886 34.3687 136.048 34.7715 135.519 35.5771C134.998 36.3828 134.738 37.807 134.738 39.8496C134.738 40.1426 134.787 40.5942 134.884 41.2046C134.99 41.8149 135.043 42.2747 135.043 42.584C135.043 42.8932 134.876 43.1903 134.543 43.4751C134.209 43.7599 133.786 43.9023 133.273 43.9023H132.858C132.41 43.9023 132.065 43.7965 131.82 43.585C131.584 43.3652 131.466 43.1007 131.466 42.7915C131.466 42.4741 131.523 42.1527 131.637 41.8271C131.947 40.9482 132.101 39.9798 132.101 38.9219C132.134 38.3359 132.15 37.9128 132.15 37.6523ZM145.431 28.1309V28.2773C145.431 28.6924 145.309 29.0464 145.065 29.3394C144.829 29.6242 144.463 29.7666 143.966 29.7666H143.771L143.393 29.7178C143.173 29.7178 142.961 29.616 142.758 29.4126C142.554 29.2091 142.453 28.904 142.453 28.4971V28.3506L142.514 27.9111C142.514 27.7402 142.616 27.5286 142.819 27.2764C143.031 27.0241 143.299 26.8979 143.625 26.8979L143.905 26.8613H144.15L144.491 26.9102C144.703 26.9102 144.91 27.016 145.114 27.2275C145.325 27.431 145.431 27.7321 145.431 28.1309ZM144.858 33.2822L144.723 36.5659L144.699 36.8955L144.662 37.8965V38.3726C144.662 39.5444 144.695 40.3135 144.76 40.6797C144.833 41.0459 144.967 41.404 145.163 41.7539C145.358 42.0957 145.456 42.3439 145.456 42.4985V42.6084C145.456 43.0072 145.252 43.3245 144.845 43.5605C144.438 43.7965 143.885 43.9146 143.185 43.9146H142.88C142.473 43.9146 142.164 43.825 141.952 43.646C141.741 43.4588 141.635 43.2594 141.635 43.0479V42.7793C141.635 42.6735 141.728 42.2992 141.916 41.6562C142.103 41.0052 142.196 40.1222 142.196 39.0073C142.221 38.6899 142.233 38.4702 142.233 38.3481L142.27 37.6768L142.294 37.3472C142.335 36.7775 142.355 36.334 142.355 36.0166L142.367 35.5283C142.367 34.918 142.266 34.3768 142.062 33.9048C141.867 33.4328 141.769 33.1398 141.769 33.0259C141.769 32.4399 142.323 32.147 143.429 32.147H143.869C144.284 32.147 144.552 32.2568 144.674 32.4766C144.797 32.6882 144.858 32.9567 144.858 33.2822ZM153.378 42.4497H153.744C154.631 42.4497 155.376 42.0103 155.978 41.1313C156.589 40.2443 156.894 39.0399 156.894 37.5181V37.1274L156.881 36.9932L156.869 36.7368C156.861 36.6473 156.857 36.5618 156.857 36.4805C156.857 35.6911 156.637 34.9993 156.198 34.4053C155.758 33.8031 155.221 33.502 154.587 33.502H154.233C153.834 33.502 153.394 33.6403 152.914 33.917C152.442 34.1937 152.109 34.5192 151.913 34.8936C151.482 35.7074 151.266 36.9932 151.266 38.751V39.874C151.291 40.1182 151.303 40.3216 151.303 40.4844C151.303 41.0703 151.482 41.5464 151.84 41.9126C152.206 42.2707 152.719 42.4497 153.378 42.4497ZM151.779 31.7197C151.779 32.029 151.828 32.2609 151.925 32.4155C152.031 32.5701 152.304 32.6475 152.743 32.6475C152.751 32.6475 153.016 32.5864 153.537 32.4644C154.066 32.3423 154.611 32.2812 155.172 32.2812C156.385 32.2812 157.398 32.7614 158.212 33.7217C159.026 34.682 159.433 35.8538 159.433 37.2373V38.1162C159.433 38.7998 159.298 39.5241 159.03 40.2891C158.753 41.054 158.363 41.7173 157.858 42.2788C156.825 43.4181 155.551 43.9878 154.037 43.9878H153.769C153.345 43.9878 152.8 43.9064 152.133 43.7437C151.466 43.5809 151.03 43.4995 150.827 43.4995L150.009 43.5728C149.171 43.5728 148.752 43.1536 148.752 42.3154V41.8149C148.752 41.3185 148.849 39.5078 149.045 36.3828C149.248 33.2578 149.35 31.264 149.35 30.4014C149.35 29.5387 149.281 28.8226 149.142 28.2529C149.004 27.6833 148.935 27.374 148.935 27.3252C148.935 26.6416 149.321 26.2998 150.094 26.2998H150.339C150.998 26.2998 151.417 26.4585 151.596 26.7759C151.775 27.0851 151.864 27.6629 151.864 28.5093L151.803 30.4502L151.779 30.9995V31.7197ZM162.045 33.0259C162.045 32.5132 162.476 32.2568 163.339 32.2568H163.62C164.157 32.2568 164.519 32.4725 164.706 32.9038C164.893 33.3351 164.987 34.1408 164.987 35.3208L164.84 39.3979C164.84 41.2941 165.52 42.2422 166.879 42.2422C167.375 42.2422 167.852 42.0672 168.307 41.7173C168.763 41.3674 169.101 40.9482 169.32 40.46C169.801 39.3857 170.041 37.4611 170.041 34.686L170.016 34.1489V33.6729C170.016 33.2415 170.114 32.9282 170.309 32.7329C170.505 32.5376 170.846 32.4399 171.335 32.4399C171.823 32.4399 172.144 32.5579 172.299 32.7939C172.454 33.0299 172.531 33.4124 172.531 33.9414L172.506 34.5884L172.458 37.4692C172.458 37.9331 172.486 38.6452 172.543 39.6055C172.6 40.5658 172.661 41.2697 172.726 41.7173C172.791 42.1567 172.824 42.4172 172.824 42.4985C172.824 43.2228 172.291 43.585 171.225 43.585C170.859 43.585 170.492 43.4507 170.126 43.1821C169.768 42.9054 169.512 42.7671 169.357 42.7671C169.211 42.7671 168.958 42.8566 168.6 43.0356C167.583 43.5483 166.716 43.8047 166 43.8047H165.695C164.531 43.8047 163.677 43.4466 163.131 42.7305C162.586 42.0143 162.314 40.7244 162.314 38.8608L162.436 35.1621C162.436 34.6982 162.371 34.2547 162.24 33.8315C162.11 33.4084 162.045 33.1398 162.045 33.0259ZM182.235 42.6938C182.235 43.0194 182.036 43.3123 181.637 43.5728C181.247 43.825 180.714 43.9512 180.038 43.9512C178.777 43.9512 177.89 43.4832 177.377 42.5474C177.06 41.9614 176.901 40.5902 176.901 38.4336C176.901 36.277 176.864 35.0238 176.791 34.6738C176.718 34.3239 176.514 33.9821 176.181 33.6484C175.847 33.3148 175.68 33.0584 175.68 32.8794C175.68 32.8143 176.075 32.387 176.864 31.5977C177.035 31.4268 177.206 31.0483 177.377 30.4624C177.556 29.8765 177.682 29.4899 177.755 29.3027C178 28.7168 178.321 28.4238 178.72 28.4238H178.915C179.265 28.4238 179.513 28.5581 179.66 28.8267C179.717 28.9325 179.802 29.3149 179.916 29.9741C180.038 30.6252 180.177 31.0443 180.331 31.2314C180.486 31.4186 180.872 31.6261 181.491 31.854C182.117 32.0737 182.431 32.3097 182.431 32.562V32.6963C182.431 33.0218 182.073 33.2985 181.357 33.5264C180.649 33.7461 180.193 34.1001 179.989 34.5884C179.591 35.5731 179.391 37.1763 179.391 39.3979C179.391 40.4396 179.57 41.1476 179.928 41.522C180.148 41.7498 180.588 41.9085 181.247 41.998C181.906 42.0876 182.235 42.3195 182.235 42.6938ZM187.216 36.5781V36.7734C187.216 37.0176 187.44 37.1396 187.887 37.1396H188.18L188.254 37.1274L188.852 37.0786C189.478 36.9891 189.885 36.9443 190.072 36.9443C190.959 36.9443 191.627 36.7775 192.074 36.4438C192.286 36.2811 192.392 35.9922 192.392 35.5771V35.4429C192.392 34.8325 192.188 34.3483 191.781 33.9902C191.383 33.6322 190.902 33.4531 190.341 33.4531H190.255L190.182 33.4653C189.393 33.4653 188.701 33.799 188.107 34.4663C187.513 35.1336 187.216 35.8376 187.216 36.5781ZM189.877 44.1587H189.609C188.054 44.1587 186.817 43.6663 185.898 42.6816C184.978 41.6888 184.518 40.3664 184.518 38.7144V38.1772C184.518 37.3879 184.673 36.5863 184.982 35.7725C185.609 34.1449 186.63 33.0218 188.046 32.4033C188.795 32.0697 189.556 31.9028 190.329 31.9028H190.854C191.92 31.9028 192.819 32.2609 193.551 32.9771C194.292 33.6851 194.662 34.6006 194.662 35.7236V35.9678C194.662 36.7653 194.345 37.3309 193.71 37.6646C193.271 37.9006 192.245 38.1366 190.634 38.3726C189.023 38.6086 188.144 38.751 187.997 38.7998C187.509 38.9707 187.265 39.2962 187.265 39.7764C187.265 40.4437 187.55 41.0133 188.119 41.4854C188.689 41.9574 189.454 42.1934 190.414 42.1934C190.862 42.1934 191.472 42.0713 192.245 41.8271C193.018 41.583 193.466 41.4609 193.588 41.4609C194.003 41.4609 194.211 41.64 194.211 41.998C194.211 42.4782 193.743 42.9583 192.807 43.4385C191.871 43.9186 190.894 44.1587 189.877 44.1587ZM198.178 37.1885C197.681 36.6839 197.433 35.9759 197.433 35.0645C197.433 34.153 197.84 33.3717 198.654 32.7207C199.468 32.0615 200.477 31.7319 201.681 31.7319H201.999C203.065 31.7319 203.911 31.8825 204.538 32.1836C205.172 32.4847 205.49 32.9364 205.49 33.5386C205.49 34.1326 205.225 34.4297 204.696 34.4297C204.558 34.4297 204.167 34.2669 203.525 33.9414C202.882 33.6077 202.275 33.4409 201.706 33.4409C201.136 33.4409 200.676 33.5711 200.326 33.8315C199.984 34.0838 199.814 34.4338 199.814 34.8813C199.814 35.3289 200.054 35.7196 200.534 36.0532C200.811 36.2485 201.462 36.5578 202.487 36.981C203.52 37.4041 204.257 37.811 204.696 38.2017C205.404 38.8283 205.758 39.6299 205.758 40.6064C205.758 41.583 205.343 42.4212 204.513 43.1211C203.683 43.8128 202.605 44.1587 201.278 44.1587H200.961C199.626 44.1587 198.625 43.9674 197.958 43.585C197.291 43.1943 196.957 42.6898 196.957 42.0713C196.957 41.4447 197.218 41.1313 197.738 41.1313C197.909 41.1313 198.353 41.3511 199.069 41.7905C199.793 42.23 200.501 42.4497 201.193 42.4497C201.893 42.4497 202.418 42.3032 202.768 42.0103C203.118 41.7091 203.293 41.3348 203.293 40.8872C203.293 40.4315 203.073 40.0327 202.633 39.6909C202.397 39.5037 201.722 39.166 200.607 38.6777C199.492 38.1813 198.682 37.6849 198.178 37.1885ZM215.317 33.0259C215.317 32.5132 215.748 32.2568 216.61 32.2568H216.891C217.428 32.2568 217.79 32.4725 217.978 32.9038C218.165 33.3351 218.258 34.1408 218.258 35.3208L218.112 39.3979C218.112 41.2941 218.791 42.2422 220.151 42.2422C220.647 42.2422 221.123 42.0672 221.579 41.7173C222.034 41.3674 222.372 40.9482 222.592 40.46C223.072 39.3857 223.312 37.4611 223.312 34.686L223.288 34.1489V33.6729C223.288 33.2415 223.385 32.9282 223.581 32.7329C223.776 32.5376 224.118 32.4399 224.606 32.4399C225.094 32.4399 225.416 32.5579 225.57 32.7939C225.725 33.0299 225.802 33.4124 225.802 33.9414L225.778 34.5884L225.729 37.4692C225.729 37.9331 225.758 38.6452 225.815 39.6055C225.872 40.5658 225.933 41.2697 225.998 41.7173C226.063 42.1567 226.095 42.4172 226.095 42.4985C226.095 43.2228 225.562 43.585 224.496 43.585C224.13 43.585 223.764 43.4507 223.398 43.1821C223.04 42.9054 222.783 42.7671 222.629 42.7671C222.482 42.7671 222.23 42.8566 221.872 43.0356C220.854 43.5483 219.988 43.8047 219.272 43.8047H218.966C217.803 43.8047 216.948 43.4466 216.403 42.7305C215.858 42.0143 215.585 40.7244 215.585 38.8608L215.707 35.1621C215.707 34.6982 215.642 34.2547 215.512 33.8315C215.382 33.4084 215.317 33.1398 215.317 33.0259ZM230.038 37.1885C229.542 36.6839 229.294 35.9759 229.294 35.0645C229.294 34.153 229.7 33.3717 230.514 32.7207C231.328 32.0615 232.337 31.7319 233.542 31.7319H233.859C234.925 31.7319 235.771 31.8825 236.398 32.1836C237.033 32.4847 237.35 32.9364 237.35 33.5386C237.35 34.1326 237.086 34.4297 236.557 34.4297C236.418 34.4297 236.028 34.2669 235.385 33.9414C234.742 33.6077 234.136 33.4409 233.566 33.4409C232.996 33.4409 232.537 33.5711 232.187 33.8315C231.845 34.0838 231.674 34.4338 231.674 34.8813C231.674 35.3289 231.914 35.7196 232.394 36.0532C232.671 36.2485 233.322 36.5578 234.347 36.981C235.381 37.4041 236.117 37.811 236.557 38.2017C237.265 38.8283 237.619 39.6299 237.619 40.6064C237.619 41.583 237.204 42.4212 236.374 43.1211C235.544 43.8128 234.465 44.1587 233.139 44.1587H232.821C231.487 44.1587 230.486 43.9674 229.818 43.585C229.151 43.1943 228.818 42.6898 228.818 42.0713C228.818 41.4447 229.078 41.1313 229.599 41.1313C229.77 41.1313 230.213 41.3511 230.929 41.7905C231.654 42.23 232.362 42.4497 233.053 42.4497C233.753 42.4497 234.278 42.3032 234.628 42.0103C234.978 41.7091 235.153 41.3348 235.153 40.8872C235.153 40.4315 234.933 40.0327 234.494 39.6909C234.258 39.5037 233.582 39.166 232.467 38.6777C231.352 38.1813 230.543 37.6849 230.038 37.1885ZM242.465 36.5781V36.7734C242.465 37.0176 242.689 37.1396 243.136 37.1396H243.429L243.503 37.1274L244.101 37.0786C244.727 36.9891 245.134 36.9443 245.321 36.9443C246.208 36.9443 246.876 36.7775 247.323 36.4438C247.535 36.2811 247.641 35.9922 247.641 35.5771V35.4429C247.641 34.8325 247.437 34.3483 247.03 33.9902C246.632 33.6322 246.151 33.4531 245.59 33.4531H245.505L245.431 33.4653C244.642 33.4653 243.95 33.799 243.356 34.4663C242.762 35.1336 242.465 35.8376 242.465 36.5781ZM245.126 44.1587H244.858C243.303 44.1587 242.066 43.6663 241.147 42.6816C240.227 41.6888 239.767 40.3664 239.767 38.7144V38.1772C239.767 37.3879 239.922 36.5863 240.231 35.7725C240.858 34.1449 241.879 33.0218 243.295 32.4033C244.044 32.0697 244.805 31.9028 245.578 31.9028H246.103C247.169 31.9028 248.068 32.2609 248.8 32.9771C249.541 33.6851 249.911 34.6006 249.911 35.7236V35.9678C249.911 36.7653 249.594 37.3309 248.959 37.6646C248.52 37.9006 247.494 38.1366 245.883 38.3726C244.272 38.6086 243.393 38.751 243.246 38.7998C242.758 38.9707 242.514 39.2962 242.514 39.7764C242.514 40.4437 242.799 41.0133 243.368 41.4854C243.938 41.9574 244.703 42.1934 245.663 42.1934C246.111 42.1934 246.721 42.0713 247.494 41.8271C248.267 41.583 248.715 41.4609 248.837 41.4609C249.252 41.4609 249.46 41.64 249.46 41.998C249.46 42.4782 248.992 42.9583 248.056 43.4385C247.12 43.9186 246.143 44.1587 245.126 44.1587ZM254.489 44.8911H254.208C253.801 44.8911 253.455 44.7731 253.171 44.5371C252.894 44.3011 252.755 44.0203 252.755 43.6948C252.755 43.3693 252.853 42.9543 253.048 42.4497C253.252 41.937 253.398 41.3145 253.488 40.582C253.586 39.8415 253.634 38.7591 253.634 37.335C253.634 35.9108 253.565 35.0034 253.427 34.6128C253.402 34.5477 253.289 34.332 253.085 33.9658C252.882 33.5915 252.78 33.2741 252.78 33.0137C252.78 32.7533 252.914 32.4196 253.183 32.0127C253.459 31.6058 253.643 31.3047 253.732 31.1094C254.831 28.79 255.404 27.6019 255.453 27.5449C256.3 26.5602 257.443 26.0679 258.883 26.0679C259.551 26.0679 260.063 26.1818 260.422 26.4097C260.78 26.6375 260.959 26.9346 260.959 27.3008C260.959 27.6589 260.747 27.9193 260.324 28.082C260.21 28.1227 260.059 28.1431 259.872 28.1431C259.734 28.1349 259.575 28.1227 259.396 28.1064C258.973 28.0576 258.664 28.0332 258.468 28.0332C257.939 28.0332 257.508 28.2611 257.174 28.7168C256.849 29.1644 256.686 29.6812 256.686 30.2671C256.686 30.853 256.804 31.2803 257.04 31.5488C257.113 31.6302 257.459 31.8337 258.078 32.1592C258.704 32.4766 259.018 32.798 259.018 33.1235C259.018 33.3026 258.668 33.5793 257.968 33.9536C257.471 34.214 257.105 34.6779 256.869 35.3452C256.357 36.7775 256.1 38.6615 256.1 40.9971L256.332 43.0601C256.332 43.6216 256.165 44.0651 255.832 44.3906C255.506 44.7243 255.059 44.8911 254.489 44.8911ZM261.703 33.0259C261.703 32.5132 262.135 32.2568 262.997 32.2568H263.278C263.815 32.2568 264.177 32.4725 264.364 32.9038C264.552 33.3351 264.645 34.1408 264.645 35.3208L264.499 39.3979C264.499 41.2941 265.178 42.2422 266.537 42.2422C267.034 42.2422 267.51 42.0672 267.965 41.7173C268.421 41.3674 268.759 40.9482 268.979 40.46C269.459 39.3857 269.699 37.4611 269.699 34.686L269.674 34.1489V33.6729C269.674 33.2415 269.772 32.9282 269.967 32.7329C270.163 32.5376 270.505 32.4399 270.993 32.4399C271.481 32.4399 271.803 32.5579 271.957 32.7939C272.112 33.0299 272.189 33.4124 272.189 33.9414L272.165 34.5884L272.116 37.4692C272.116 37.9331 272.144 38.6452 272.201 39.6055C272.258 40.5658 272.319 41.2697 272.384 41.7173C272.45 42.1567 272.482 42.4172 272.482 42.4985C272.482 43.2228 271.949 43.585 270.883 43.585C270.517 43.585 270.151 43.4507 269.784 43.1821C269.426 42.9054 269.17 42.7671 269.015 42.7671C268.869 42.7671 268.616 42.8566 268.258 43.0356C267.241 43.5483 266.374 43.8047 265.658 43.8047H265.353C264.189 43.8047 263.335 43.4466 262.79 42.7305C262.244 42.0143 261.972 40.7244 261.972 38.8608L262.094 35.1621C262.094 34.6982 262.029 34.2547 261.899 33.8315C261.768 33.4084 261.703 33.1398 261.703 33.0259ZM276.193 27.0322C276.193 26.4382 276.75 26.1411 277.865 26.1411H278.085C278.549 26.1411 278.866 26.255 279.037 26.4829C279.208 26.7026 279.294 27.134 279.294 27.7769L279.196 29.5957C279.172 29.8805 279.159 30.0352 279.159 30.0596L279.135 30.5234C279.119 30.8245 279.102 31.1297 279.086 31.439L279.049 31.9028L279.013 32.5986C278.883 35.0726 278.818 36.8996 278.818 38.0796C278.818 39.2515 278.87 40.0938 278.976 40.6064C279.082 41.1191 279.249 41.5545 279.477 41.9126C279.705 42.2707 279.818 42.5067 279.818 42.6206V42.7671C279.818 43.1252 279.639 43.41 279.281 43.6216C278.931 43.8332 278.455 43.939 277.853 43.939H277.218C276.844 43.939 276.514 43.8332 276.23 43.6216C275.953 43.4019 275.815 43.1536 275.815 42.877V42.5474L275.888 42.0347C275.985 41.3267 276.042 40.7977 276.059 40.4478C276.083 40.0897 276.12 39.5973 276.169 38.9707C276.217 38.3359 276.295 36.9891 276.401 34.9302C276.514 32.8631 276.571 31.7523 276.571 31.5977L276.62 30.6821L276.645 29.7788C276.645 28.9162 276.567 28.3018 276.413 27.9355C276.266 27.5612 276.193 27.2601 276.193 27.0322ZM290.463 37.1885C289.967 36.6839 289.718 35.9759 289.718 35.0645C289.718 34.153 290.125 33.3717 290.939 32.7207C291.753 32.0615 292.762 31.7319 293.966 31.7319H294.284C295.35 31.7319 296.196 31.8825 296.823 32.1836C297.458 32.4847 297.775 32.9364 297.775 33.5386C297.775 34.1326 297.511 34.4297 296.982 34.4297C296.843 34.4297 296.453 34.2669 295.81 33.9414C295.167 33.6077 294.561 33.4409 293.991 33.4409C293.421 33.4409 292.961 33.5711 292.611 33.8315C292.27 34.0838 292.099 34.4338 292.099 34.8813C292.099 35.3289 292.339 35.7196 292.819 36.0532C293.096 36.2485 293.747 36.5578 294.772 36.981C295.806 37.4041 296.542 37.811 296.982 38.2017C297.69 38.8283 298.044 39.6299 298.044 40.6064C298.044 41.583 297.629 42.4212 296.798 43.1211C295.968 43.8128 294.89 44.1587 293.564 44.1587H293.246C291.912 44.1587 290.911 43.9674 290.243 43.585C289.576 43.1943 289.242 42.6898 289.242 42.0713C289.242 41.4447 289.503 41.1313 290.024 41.1313C290.194 41.1313 290.638 41.3511 291.354 41.7905C292.078 42.23 292.786 42.4497 293.478 42.4497C294.178 42.4497 294.703 42.3032 295.053 42.0103C295.403 41.7091 295.578 41.3348 295.578 40.8872C295.578 40.4315 295.358 40.0327 294.919 39.6909C294.683 39.5037 294.007 39.166 292.892 38.6777C291.777 38.1813 290.968 37.6849 290.463 37.1885ZM300.693 33.0259C300.693 32.5132 301.124 32.2568 301.986 32.2568H302.267C302.804 32.2568 303.166 32.4725 303.354 32.9038C303.541 33.3351 303.634 34.1408 303.634 35.3208L303.488 39.3979C303.488 41.2941 304.167 42.2422 305.526 42.2422C306.023 42.2422 306.499 42.0672 306.955 41.7173C307.41 41.3674 307.748 40.9482 307.968 40.46C308.448 39.3857 308.688 37.4611 308.688 34.686L308.664 34.1489V33.6729C308.664 33.2415 308.761 32.9282 308.957 32.7329C309.152 32.5376 309.494 32.4399 309.982 32.4399C310.47 32.4399 310.792 32.5579 310.946 32.7939C311.101 33.0299 311.178 33.4124 311.178 33.9414L311.154 34.5884L311.105 37.4692C311.105 37.9331 311.134 38.6452 311.191 39.6055C311.248 40.5658 311.309 41.2697 311.374 41.7173C311.439 42.1567 311.471 42.4172 311.471 42.4985C311.471 43.2228 310.938 43.585 309.872 43.585C309.506 43.585 309.14 43.4507 308.774 43.1821C308.415 42.9054 308.159 42.7671 308.005 42.7671C307.858 42.7671 307.606 42.8566 307.248 43.0356C306.23 43.5483 305.364 43.8047 304.648 43.8047H304.342C303.179 43.8047 302.324 43.4466 301.779 42.7305C301.234 42.0143 300.961 40.7244 300.961 38.8608L301.083 35.1621C301.083 34.6982 301.018 34.2547 300.888 33.8315C300.758 33.4084 300.693 33.1398 300.693 33.0259ZM316.659 38.3481V38.7266C316.659 39.8171 316.867 40.6715 317.282 41.29C317.697 41.9085 318.218 42.2178 318.844 42.2178H319.272C320.175 42.2178 320.879 41.8394 321.383 41.0825C321.888 40.3175 322.14 39.2474 322.14 37.8721C322.157 37.7093 322.165 37.5832 322.165 37.4937L322.189 36.9932V36.2607C322.173 36.098 322.165 35.9759 322.165 35.8945C322.165 35.2516 322.01 34.7471 321.701 34.3809C321.392 34.0146 320.936 33.8315 320.334 33.8315H319.992C319.032 33.8315 318.234 34.2344 317.599 35.04C316.973 35.8457 316.659 36.9484 316.659 38.3481ZM323.752 32.8306C324.46 32.8306 324.814 33.3433 324.814 34.3687C324.814 34.6372 324.704 35.7603 324.484 37.7378C324.264 39.7153 324.154 41.3958 324.154 42.7793C324.154 44.179 324.061 45.2288 323.874 45.9287C323.475 47.4342 322.551 48.5003 321.103 49.127C320.346 49.4525 319.508 49.6152 318.588 49.6152C317.677 49.6152 316.863 49.4525 316.147 49.127C315.439 48.8014 315.085 48.4108 315.085 47.9551C315.085 47.4342 315.435 47.1738 316.134 47.1738C316.273 47.1738 316.647 47.2267 317.257 47.3325C317.868 47.4383 318.307 47.4912 318.576 47.4912C319.561 47.4912 320.366 47.182 320.993 46.5635C321.628 45.9531 321.945 45.1678 321.945 44.2075C321.945 43.703 321.758 43.4507 321.383 43.4507C321.318 43.4507 321.164 43.4751 320.92 43.5239C320.228 43.6623 319.597 43.7314 319.027 43.7314C317.579 43.7314 316.488 43.292 315.756 42.4131C315.414 42.0062 315.121 41.465 314.877 40.7896C314.641 40.106 314.523 39.3857 314.523 38.6289V38.2871C314.523 37.4896 314.653 36.7043 314.914 35.9312C315.182 35.1499 315.536 34.4948 315.976 33.9658C316.415 33.4287 316.989 33.0096 317.697 32.7085C318.405 32.4074 319.129 32.2568 319.87 32.2568H320.187C320.602 32.2568 321.135 32.3708 321.786 32.5986C322.445 32.8184 322.848 32.9282 322.995 32.9282C323.32 32.8631 323.573 32.8306 323.752 32.8306ZM330.209 38.3481V38.7266C330.209 39.8171 330.417 40.6715 330.832 41.29C331.247 41.9085 331.768 42.2178 332.394 42.2178H332.821C333.725 42.2178 334.429 41.8394 334.933 41.0825C335.438 40.3175 335.69 39.2474 335.69 37.8721C335.706 37.7093 335.714 37.5832 335.714 37.4937L335.739 36.9932V36.2607C335.723 36.098 335.714 35.9759 335.714 35.8945C335.714 35.2516 335.56 34.7471 335.251 34.3809C334.941 34.0146 334.486 33.8315 333.883 33.8315H333.542C332.581 33.8315 331.784 34.2344 331.149 35.04C330.522 35.8457 330.209 36.9484 330.209 38.3481ZM337.301 32.8306C338.009 32.8306 338.363 33.3433 338.363 34.3687C338.363 34.6372 338.254 35.7603 338.034 37.7378C337.814 39.7153 337.704 41.3958 337.704 42.7793C337.704 44.179 337.611 45.2288 337.423 45.9287C337.025 47.4342 336.101 48.5003 334.652 49.127C333.896 49.4525 333.057 49.6152 332.138 49.6152C331.226 49.6152 330.413 49.4525 329.696 49.127C328.988 48.8014 328.634 48.4108 328.634 47.9551C328.634 47.4342 328.984 47.1738 329.684 47.1738C329.823 47.1738 330.197 47.2267 330.807 47.3325C331.418 47.4383 331.857 47.4912 332.126 47.4912C333.11 47.4912 333.916 47.182 334.543 46.5635C335.177 45.9531 335.495 45.1678 335.495 44.2075C335.495 43.703 335.308 43.4507 334.933 43.4507C334.868 43.4507 334.714 43.4751 334.469 43.5239C333.778 43.6623 333.147 43.7314 332.577 43.7314C331.129 43.7314 330.038 43.292 329.306 42.4131C328.964 42.0062 328.671 41.465 328.427 40.7896C328.191 40.106 328.073 39.3857 328.073 38.6289V38.2871C328.073 37.4896 328.203 36.7043 328.464 35.9312C328.732 35.1499 329.086 34.4948 329.526 33.9658C329.965 33.4287 330.539 33.0096 331.247 32.7085C331.955 32.4074 332.679 32.2568 333.42 32.2568H333.737C334.152 32.2568 334.685 32.3708 335.336 32.5986C335.995 32.8184 336.398 32.9282 336.545 32.9282C336.87 32.8631 337.122 32.8306 337.301 32.8306ZM343.783 36.5781V36.7734C343.783 37.0176 344.007 37.1396 344.455 37.1396H344.748L344.821 37.1274L345.419 37.0786C346.046 36.9891 346.453 36.9443 346.64 36.9443C347.527 36.9443 348.194 36.7775 348.642 36.4438C348.853 36.2811 348.959 35.9922 348.959 35.5771V35.4429C348.959 34.8325 348.756 34.3483 348.349 33.9902C347.95 33.6322 347.47 33.4531 346.908 33.4531H346.823L346.75 33.4653C345.96 33.4653 345.269 33.799 344.674 34.4663C344.08 35.1336 343.783 35.8376 343.783 36.5781ZM346.444 44.1587H346.176C344.622 44.1587 343.385 43.6663 342.465 42.6816C341.545 41.6888 341.086 40.3664 341.086 38.7144V38.1772C341.086 37.3879 341.24 36.5863 341.549 35.7725C342.176 34.1449 343.197 33.0218 344.613 32.4033C345.362 32.0697 346.123 31.9028 346.896 31.9028H347.421C348.487 31.9028 349.386 32.2609 350.119 32.9771C350.859 33.6851 351.23 34.6006 351.23 35.7236V35.9678C351.23 36.7653 350.912 37.3309 350.277 37.6646C349.838 37.9006 348.813 38.1366 347.201 38.3726C345.59 38.6086 344.711 38.751 344.565 38.7998C344.076 38.9707 343.832 39.2962 343.832 39.7764C343.832 40.4437 344.117 41.0133 344.687 41.4854C345.256 41.9574 346.021 42.1934 346.982 42.1934C347.429 42.1934 348.04 42.0713 348.813 41.8271C349.586 41.583 350.033 41.4609 350.155 41.4609C350.57 41.4609 350.778 41.64 350.778 41.998C350.778 42.4782 350.31 42.9583 349.374 43.4385C348.438 43.9186 347.462 44.1587 346.444 44.1587ZM354.745 37.1885C354.249 36.6839 354.001 35.9759 354.001 35.0645C354.001 34.153 354.408 33.3717 355.221 32.7207C356.035 32.0615 357.044 31.7319 358.249 31.7319H358.566C359.632 31.7319 360.478 31.8825 361.105 32.1836C361.74 32.4847 362.057 32.9364 362.057 33.5386C362.057 34.1326 361.793 34.4297 361.264 34.4297C361.125 34.4297 360.735 34.2669 360.092 33.9414C359.449 33.6077 358.843 33.4409 358.273 33.4409C357.703 33.4409 357.244 33.5711 356.894 33.8315C356.552 34.0838 356.381 34.4338 356.381 34.8813C356.381 35.3289 356.621 35.7196 357.101 36.0532C357.378 36.2485 358.029 36.5578 359.054 36.981C360.088 37.4041 360.824 37.811 361.264 38.2017C361.972 38.8283 362.326 39.6299 362.326 40.6064C362.326 41.583 361.911 42.4212 361.081 43.1211C360.251 43.8128 359.172 44.1587 357.846 44.1587H357.528C356.194 44.1587 355.193 43.9674 354.526 43.585C353.858 43.1943 353.525 42.6898 353.525 42.0713C353.525 41.4447 353.785 41.1313 354.306 41.1313C354.477 41.1313 354.92 41.3511 355.636 41.7905C356.361 42.23 357.069 42.4497 357.76 42.4497C358.46 42.4497 358.985 42.3032 359.335 42.0103C359.685 41.7091 359.86 41.3348 359.86 40.8872C359.86 40.4315 359.64 40.0327 359.201 39.6909C358.965 39.5037 358.289 39.166 357.174 38.6777C356.06 38.1813 355.25 37.6849 354.745 37.1885ZM371.322 42.6938C371.322 43.0194 371.123 43.3123 370.724 43.5728C370.334 43.825 369.801 43.9512 369.125 43.9512C367.864 43.9512 366.977 43.4832 366.464 42.5474C366.147 41.9614 365.988 40.5902 365.988 38.4336C365.988 36.277 365.951 35.0238 365.878 34.6738C365.805 34.3239 365.601 33.9821 365.268 33.6484C364.934 33.3148 364.767 33.0584 364.767 32.8794C364.767 32.8143 365.162 32.387 365.951 31.5977C366.122 31.4268 366.293 31.0483 366.464 30.4624C366.643 29.8765 366.769 29.4899 366.842 29.3027C367.087 28.7168 367.408 28.4238 367.807 28.4238H368.002C368.352 28.4238 368.6 28.5581 368.747 28.8267C368.804 28.9325 368.889 29.3149 369.003 29.9741C369.125 30.6252 369.263 31.0443 369.418 31.2314C369.573 31.4186 369.959 31.6261 370.578 31.854C371.204 32.0737 371.518 32.3097 371.518 32.562V32.6963C371.518 33.0218 371.16 33.2985 370.443 33.5264C369.735 33.7461 369.28 34.1001 369.076 34.5884C368.678 35.5731 368.478 37.1763 368.478 39.3979C368.478 40.4396 368.657 41.1476 369.015 41.522C369.235 41.7498 369.674 41.9085 370.334 41.998C370.993 42.0876 371.322 42.3195 371.322 42.6938ZM378.097 28.1309V28.2773C378.097 28.6924 377.975 29.0464 377.731 29.3394C377.495 29.6242 377.129 29.7666 376.632 29.7666H376.437L376.059 29.7178C375.839 29.7178 375.627 29.616 375.424 29.4126C375.22 29.2091 375.119 28.904 375.119 28.4971V28.3506L375.18 27.9111C375.18 27.7402 375.282 27.5286 375.485 27.2764C375.697 27.0241 375.965 26.8979 376.291 26.8979L376.571 26.8613H376.816L377.157 26.9102C377.369 26.9102 377.576 27.016 377.78 27.2275C377.991 27.431 378.097 27.7321 378.097 28.1309ZM377.524 33.2822L377.389 36.5659L377.365 36.8955L377.328 37.8965V38.3726C377.328 39.5444 377.361 40.3135 377.426 40.6797C377.499 41.0459 377.633 41.404 377.829 41.7539C378.024 42.0957 378.122 42.3439 378.122 42.4985V42.6084C378.122 43.0072 377.918 43.3245 377.511 43.5605C377.104 43.7965 376.551 43.9146 375.851 43.9146H375.546C375.139 43.9146 374.83 43.825 374.618 43.646C374.407 43.4588 374.301 43.2594 374.301 43.0479V42.7793C374.301 42.6735 374.394 42.2992 374.582 41.6562C374.769 41.0052 374.862 40.1222 374.862 39.0073C374.887 38.6899 374.899 38.4702 374.899 38.3481L374.936 37.6768L374.96 37.3472C375.001 36.7775 375.021 36.334 375.021 36.0166L375.033 35.5283C375.033 34.918 374.932 34.3768 374.728 33.9048C374.533 33.4328 374.435 33.1398 374.435 33.0259C374.435 32.4399 374.989 32.147 376.095 32.147H376.535C376.95 32.147 377.218 32.2568 377.34 32.4766C377.463 32.6882 377.524 32.9567 377.524 33.2822ZM383.261 38.8486C383.261 39.9147 383.505 40.8018 383.993 41.5098C384.482 42.2178 385.08 42.5718 385.788 42.5718H386.154C386.992 42.5718 387.7 42.1486 388.278 41.3022C388.864 40.4559 389.157 39.3288 389.157 37.9209V37.1152C389.157 36.0247 388.917 35.1336 388.437 34.4419C387.965 33.742 387.354 33.3921 386.606 33.3921H386.361C385.491 33.3921 384.758 33.8234 384.164 34.686C383.578 35.5487 383.285 36.5781 383.285 37.7744L383.261 38.0552V38.8486ZM386.02 44.2319H385.629C384.205 44.2319 383.045 43.7355 382.15 42.7427C381.255 41.7498 380.807 40.342 380.807 38.519L380.819 38.3115C380.819 36.3096 381.348 34.7308 382.406 33.5752C382.96 32.9648 383.59 32.5173 384.298 32.2324C385.015 31.9395 385.694 31.793 386.337 31.793H386.935C387.651 31.793 388.339 31.9517 388.998 32.269C390.886 33.1805 391.83 34.8976 391.83 37.4204V37.6157C391.822 38.4377 391.688 39.2718 391.427 40.1182C390.907 41.7865 389.906 42.9665 388.424 43.6582C387.602 44.0407 386.801 44.2319 386.02 44.2319ZM405.563 42.5352C405.563 43.1374 405.038 43.4385 403.988 43.4385C403.394 43.4385 402.996 43.2961 402.792 43.0112C402.694 42.8729 402.646 42.5474 402.646 42.0347L402.609 41.2534C402.552 40.3989 402.524 39.5404 402.524 38.6777C402.524 36.8141 402.361 35.5649 402.035 34.9302C401.718 34.2873 401.181 33.9658 400.424 33.9658C399.919 33.9658 399.451 34.1164 399.02 34.4175C398.597 34.7186 398.271 35.1377 398.044 35.6748C397.572 36.7734 397.336 38.8039 397.336 41.7661C397.336 42.4416 397.205 42.9176 396.945 43.1943C396.693 43.471 396.367 43.6094 395.968 43.6094H395.724C394.813 43.6094 394.357 43.2472 394.357 42.5229V42.23C394.357 42.1405 394.406 41.9451 394.504 41.644L394.699 41.0825C394.894 40.4233 394.992 39.0114 394.992 36.8467L395.053 33.2212C395.053 32.7573 395.305 32.5254 395.81 32.5254C396.314 32.5254 396.811 32.6922 397.299 33.0259C397.795 33.3595 398.109 33.5264 398.239 33.5264C398.377 33.5264 398.617 33.4328 398.959 33.2456C400.107 32.619 401.026 32.3057 401.718 32.3057H402.035C403.28 32.3057 404.155 32.8672 404.66 33.9902C404.904 34.5192 405.026 35.6585 405.026 37.4082V37.4937C405.026 37.6401 405.022 37.7866 405.014 37.9331C405.014 38.3319 405.014 38.5394 405.014 38.5557C405.014 38.7103 405.014 38.8608 405.014 39.0073C405.014 39.1213 405.014 39.2311 405.014 39.3369C405.014 39.9635 405.034 40.3908 405.075 40.6187C405.132 40.9279 405.225 41.2493 405.356 41.583C405.494 41.9492 405.563 42.2666 405.563 42.5352ZM409.311 37.1885C408.814 36.6839 408.566 35.9759 408.566 35.0645C408.566 34.153 408.973 33.3717 409.787 32.7207C410.601 32.0615 411.61 31.7319 412.814 31.7319H413.131C414.198 31.7319 415.044 31.8825 415.671 32.1836C416.305 32.4847 416.623 32.9364 416.623 33.5386C416.623 34.1326 416.358 34.4297 415.829 34.4297C415.691 34.4297 415.3 34.2669 414.657 33.9414C414.014 33.6077 413.408 33.4409 412.839 33.4409C412.269 33.4409 411.809 33.5711 411.459 33.8315C411.117 34.0838 410.946 34.4338 410.946 34.8813C410.946 35.3289 411.186 35.7196 411.667 36.0532C411.943 36.2485 412.594 36.5578 413.62 36.981C414.653 37.4041 415.39 37.811 415.829 38.2017C416.537 38.8283 416.891 39.6299 416.891 40.6064C416.891 41.583 416.476 42.4212 415.646 43.1211C414.816 43.8128 413.738 44.1587 412.411 44.1587H412.094C410.759 44.1587 409.758 43.9674 409.091 43.585C408.424 43.1943 408.09 42.6898 408.09 42.0713C408.09 41.4447 408.35 41.1313 408.871 41.1313C409.042 41.1313 409.486 41.3511 410.202 41.7905C410.926 42.23 411.634 42.4497 412.326 42.4497C413.026 42.4497 413.551 42.3032 413.901 42.0103C414.25 41.7091 414.425 41.3348 414.425 40.8872C414.425 40.4315 414.206 40.0327 413.766 39.6909C413.53 39.5037 412.855 39.166 411.74 38.6777C410.625 38.1813 409.815 37.6849 409.311 37.1885ZM421.225 44.1953H420.846C420.439 44.1953 420.122 44.1017 419.894 43.9146C419.674 43.7274 419.565 43.4792 419.565 43.1699C419.548 43.1048 419.54 43.0519 419.54 43.0112L419.516 42.8037V42.584L419.528 42.5352V42.4253C419.544 42.3602 419.552 42.3073 419.552 42.2666C419.552 41.9004 419.674 41.6156 419.919 41.4121C420.171 41.2005 420.448 41.0947 420.749 41.0947L421.005 41.0581H421.335C422.222 41.0581 422.665 41.522 422.665 42.4497V42.6206L422.616 43.0356C422.616 43.41 422.474 43.6989 422.189 43.9023C421.912 44.0977 421.591 44.1953 421.225 44.1953ZM441.977 31.1582V30.9385C441.977 30.1165 441.692 29.494 441.122 29.0708C440.561 28.6476 439.816 28.436 438.888 28.436H438.193C437.566 28.436 437.147 28.5093 436.935 28.6558C436.724 28.8022 436.618 29.0911 436.618 29.5225C436.585 29.7829 436.569 29.9456 436.569 30.0107L436.447 32.269V32.4766L436.41 33.0869V33.2944L436.398 33.4897C436.398 33.8071 436.467 34.0146 436.606 34.1123C436.752 34.21 437.033 34.2588 437.448 34.2588H437.948L438.046 34.2466H438.144L438.449 34.2344L439.059 34.1855C439.906 34.1855 440.601 33.8844 441.147 33.2822C441.7 32.68 441.977 31.972 441.977 31.1582ZM436.068 41.3877C436.068 41.7295 436.178 41.9614 436.398 42.0835C436.626 42.2056 437.175 42.2666 438.046 42.2666H438.278C439.678 42.2666 440.699 42.0143 441.342 41.5098C442.148 40.875 442.55 40.0164 442.55 38.9341V38.6899C442.55 37.7785 442.233 37.0583 441.598 36.5293C440.972 35.9922 440.081 35.7236 438.925 35.7236H437.887C437.643 35.748 437.387 35.7603 437.118 35.7603C436.549 35.7603 436.264 36.1794 436.264 37.0176C436.231 37.3268 436.215 37.5181 436.215 37.5913L436.117 39.4468V39.6787L436.068 40.936V41.3877ZM444.479 30.8408C444.479 32.1348 443.995 33.2131 443.026 34.0757C442.554 34.4907 442.318 34.7145 442.318 34.7471C442.318 34.7796 442.599 34.9831 443.161 35.3574C444.487 36.2282 445.151 37.4774 445.151 39.105C445.151 40.7244 444.447 41.994 443.039 42.9136C441.916 43.6541 440.129 44.0244 437.68 44.0244H437.387L437.094 44.0122H436.801C434.978 44.0122 433.859 43.9674 433.444 43.8779C433.029 43.7803 432.821 43.6175 432.821 43.3896V43.1943C432.821 42.999 432.943 42.6572 433.188 42.1689C433.302 41.8434 433.387 41.4121 433.444 40.875C433.672 38.7347 433.786 36.2892 433.786 33.5386L433.847 31.8052L433.871 31.2437L433.883 30.3892C433.883 29.6242 433.826 29.0382 433.713 28.6313L433.59 28.2285C433.533 28.0332 433.505 27.8501 433.505 27.6792C433.505 27.3781 433.725 27.1706 434.164 27.0566C434.604 26.9427 435.454 26.8857 436.715 26.8857L436.996 26.8735C437.192 26.8654 437.387 26.8613 437.582 26.8613L438.766 26.8369C442.575 26.8369 444.479 28.1715 444.479 30.8408ZM448.007 33.0259C448.007 32.5132 448.438 32.2568 449.301 32.2568H449.582C450.119 32.2568 450.481 32.4725 450.668 32.9038C450.855 33.3351 450.949 34.1408 450.949 35.3208L450.802 39.3979C450.802 41.2941 451.482 42.2422 452.841 42.2422C453.337 42.2422 453.813 42.0672 454.269 41.7173C454.725 41.3674 455.063 40.9482 455.282 40.46C455.762 39.3857 456.003 37.4611 456.003 34.686L455.978 34.1489V33.6729C455.978 33.2415 456.076 32.9282 456.271 32.7329C456.466 32.5376 456.808 32.4399 457.297 32.4399C457.785 32.4399 458.106 32.5579 458.261 32.7939C458.415 33.0299 458.493 33.4124 458.493 33.9414L458.468 34.5884L458.42 37.4692C458.42 37.9331 458.448 38.6452 458.505 39.6055C458.562 40.5658 458.623 41.2697 458.688 41.7173C458.753 42.1567 458.786 42.4172 458.786 42.4985C458.786 43.2228 458.253 43.585 457.187 43.585C456.82 43.585 456.454 43.4507 456.088 43.1821C455.73 42.9054 455.474 42.7671 455.319 42.7671C455.172 42.7671 454.92 42.8566 454.562 43.0356C453.545 43.5483 452.678 43.8047 451.962 43.8047H451.657C450.493 43.8047 449.639 43.4466 449.093 42.7305C448.548 42.0143 448.276 40.7244 448.276 38.8608L448.398 35.1621C448.398 34.6982 448.332 34.2547 448.202 33.8315C448.072 33.4084 448.007 33.1398 448.007 33.0259ZM465.793 28.1309V28.2773C465.793 28.6924 465.671 29.0464 465.426 29.3394C465.19 29.6242 464.824 29.7666 464.328 29.7666H464.132L463.754 29.7178C463.534 29.7178 463.323 29.616 463.119 29.4126C462.916 29.2091 462.814 28.904 462.814 28.4971V28.3506L462.875 27.9111C462.875 27.7402 462.977 27.5286 463.18 27.2764C463.392 27.0241 463.66 26.8979 463.986 26.8979L464.267 26.8613H464.511L464.853 26.9102C465.064 26.9102 465.272 27.016 465.475 27.2275C465.687 27.431 465.793 27.7321 465.793 28.1309ZM465.219 33.2822L465.085 36.5659L465.06 36.8955L465.024 37.8965V38.3726C465.024 39.5444 465.056 40.3135 465.121 40.6797C465.194 41.0459 465.329 41.404 465.524 41.7539C465.719 42.0957 465.817 42.3439 465.817 42.4985V42.6084C465.817 43.0072 465.614 43.3245 465.207 43.5605C464.8 43.7965 464.246 43.9146 463.547 43.9146H463.241C462.834 43.9146 462.525 43.825 462.314 43.646C462.102 43.4588 461.996 43.2594 461.996 43.0479V42.7793C461.996 42.6735 462.09 42.2992 462.277 41.6562C462.464 41.0052 462.558 40.1222 462.558 39.0073C462.582 38.6899 462.594 38.4702 462.594 38.3481L462.631 37.6768L462.655 37.3472C462.696 36.7775 462.716 36.334 462.716 36.0166L462.729 35.5283C462.729 34.918 462.627 34.3768 462.423 33.9048C462.228 33.4328 462.13 33.1398 462.13 33.0259C462.13 32.4399 462.684 32.147 463.791 32.147H464.23C464.645 32.147 464.914 32.2568 465.036 32.4766C465.158 32.6882 465.219 32.9567 465.219 33.2822ZM469.504 27.0322C469.504 26.4382 470.061 26.1411 471.176 26.1411H471.396C471.859 26.1411 472.177 26.255 472.348 26.4829C472.519 26.7026 472.604 27.134 472.604 27.7769L472.506 29.5957C472.482 29.8805 472.47 30.0352 472.47 30.0596L472.445 30.5234C472.429 30.8245 472.413 31.1297 472.397 31.439L472.36 31.9028L472.323 32.5986C472.193 35.0726 472.128 36.8996 472.128 38.0796C472.128 39.2515 472.181 40.0938 472.287 40.6064C472.393 41.1191 472.559 41.5545 472.787 41.9126C473.015 42.2707 473.129 42.5067 473.129 42.6206V42.7671C473.129 43.1252 472.95 43.41 472.592 43.6216C472.242 43.8332 471.766 43.939 471.164 43.939H470.529C470.155 43.939 469.825 43.8332 469.54 43.6216C469.263 43.4019 469.125 43.1536 469.125 42.877V42.5474L469.198 42.0347C469.296 41.3267 469.353 40.7977 469.369 40.4478C469.394 40.0897 469.43 39.5973 469.479 38.9707C469.528 38.3359 469.605 36.9891 469.711 34.9302C469.825 32.8631 469.882 31.7523 469.882 31.5977L469.931 30.6821L469.955 29.7788C469.955 28.9162 469.878 28.3018 469.723 27.9355C469.577 27.5612 469.504 27.2601 469.504 27.0322ZM478.109 38.0796V39.0073C478.109 39.9757 478.329 40.7855 478.769 41.4365C479.216 42.0794 479.741 42.4009 480.343 42.4009H480.685C481.613 42.4009 482.329 42.0306 482.834 41.29C483.346 40.5495 483.603 39.4468 483.603 37.9819C483.619 37.8029 483.627 37.6727 483.627 37.5913L483.651 37.3472L483.664 36.8345V35.9678C483.664 34.3076 483 33.4775 481.674 33.4775H481.198C480.335 33.4775 479.603 33.9129 479.001 34.7837C478.407 35.6545 478.109 36.7531 478.109 38.0796ZM475.766 38.6411C475.766 37.7948 475.916 36.9321 476.217 36.0532C476.519 35.1743 476.942 34.4256 477.487 33.8071C478.032 33.1805 478.647 32.7288 479.33 32.4521C480.014 32.1673 480.824 32.0249 481.759 32.0249C482.703 32.0249 483.289 31.854 483.517 31.5122C483.745 31.1623 483.859 30.3932 483.859 29.2051C483.859 28.9854 483.822 28.6924 483.749 28.3262C483.676 27.96 483.639 27.7484 483.639 27.6914C483.639 27.3415 483.79 27.0241 484.091 26.7393C484.392 26.4463 484.787 26.2998 485.275 26.2998H485.519C485.902 26.2998 486.186 26.3893 486.374 26.5684C486.561 26.7474 486.654 27.1217 486.654 27.6914V28.8267L486.63 29.4004C486.622 29.5957 486.618 29.8805 486.618 30.2549C486.618 30.6211 486.557 31.8011 486.435 33.7949C486.313 35.7887 486.252 37.16 486.252 37.9087L486.239 38.2017C486.231 38.397 486.227 38.5841 486.227 38.7632L486.215 39.0439C486.215 39.0439 486.215 39.3613 486.215 39.9961C486.215 40.818 486.28 41.4365 486.41 41.8516C486.54 42.2666 486.606 42.5636 486.606 42.7427C486.606 42.9217 486.504 43.1089 486.3 43.3042C486.097 43.4995 485.78 43.5972 485.348 43.5972C484.925 43.5972 484.514 43.528 484.115 43.3896C483.717 43.2432 483.424 43.1699 483.236 43.1699C483.049 43.1699 482.805 43.2269 482.504 43.3408C481.593 43.6745 480.758 43.8413 480.002 43.8413C479.985 43.8413 479.969 43.8413 479.953 43.8413H479.672C478.443 43.8413 477.483 43.3937 476.791 42.4985C476.108 41.5952 475.766 40.4111 475.766 38.9463V38.6411ZM490.683 37.1885C490.186 36.6839 489.938 35.9759 489.938 35.0645C489.938 34.153 490.345 33.3717 491.159 32.7207C491.973 32.0615 492.982 31.7319 494.186 31.7319H494.504C495.57 31.7319 496.416 31.8825 497.043 32.1836C497.677 32.4847 497.995 32.9364 497.995 33.5386C497.995 34.1326 497.73 34.4297 497.201 34.4297C497.063 34.4297 496.672 34.2669 496.029 33.9414C495.387 33.6077 494.78 33.4409 494.211 33.4409C493.641 33.4409 493.181 33.5711 492.831 33.8315C492.489 34.0838 492.318 34.4338 492.318 34.8813C492.318 35.3289 492.559 35.7196 493.039 36.0532C493.315 36.2485 493.966 36.5578 494.992 36.981C496.025 37.4041 496.762 37.811 497.201 38.2017C497.909 38.8283 498.263 39.6299 498.263 40.6064C498.263 41.583 497.848 42.4212 497.018 43.1211C496.188 43.8128 495.11 44.1587 493.783 44.1587H493.466C492.131 44.1587 491.13 43.9674 490.463 43.585C489.796 43.1943 489.462 42.6898 489.462 42.0713C489.462 41.4447 489.722 41.1313 490.243 41.1313C490.414 41.1313 490.858 41.3511 491.574 41.7905C492.298 42.23 493.006 42.4497 493.698 42.4497C494.398 42.4497 494.923 42.3032 495.273 42.0103C495.623 41.7091 495.797 41.3348 495.797 40.8872C495.797 40.4315 495.578 40.0327 495.138 39.6909C494.902 39.5037 494.227 39.166 493.112 38.6777C491.997 38.1813 491.187 37.6849 490.683 37.1885ZM509.872 38.8486C509.872 39.9147 510.116 40.8018 510.605 41.5098C511.093 42.2178 511.691 42.5718 512.399 42.5718H512.765C513.603 42.5718 514.311 42.1486 514.889 41.3022C515.475 40.4559 515.768 39.3288 515.768 37.9209V37.1152C515.768 36.0247 515.528 35.1336 515.048 34.4419C514.576 33.742 513.966 33.3921 513.217 33.3921H512.973C512.102 33.3921 511.37 33.8234 510.776 34.686C510.19 35.5487 509.897 36.5781 509.897 37.7744L509.872 38.0552V38.8486ZM512.631 44.2319H512.24C510.816 44.2319 509.657 43.7355 508.761 42.7427C507.866 41.7498 507.419 40.342 507.419 38.519L507.431 38.3115C507.431 36.3096 507.96 34.7308 509.018 33.5752C509.571 32.9648 510.202 32.5173 510.91 32.2324C511.626 31.9395 512.305 31.793 512.948 31.793H513.547C514.263 31.793 514.95 31.9517 515.609 32.269C517.498 33.1805 518.442 34.8976 518.442 37.4204V37.6157C518.433 38.4377 518.299 39.2718 518.039 40.1182C517.518 41.7865 516.517 42.9665 515.036 43.6582C514.214 44.0407 513.412 44.2319 512.631 44.2319ZM532.174 42.5352C532.174 43.1374 531.65 43.4385 530.6 43.4385C530.006 43.4385 529.607 43.2961 529.403 43.0112C529.306 42.8729 529.257 42.5474 529.257 42.0347L529.22 41.2534C529.163 40.3989 529.135 39.5404 529.135 38.6777C529.135 36.8141 528.972 35.5649 528.647 34.9302C528.329 34.2873 527.792 33.9658 527.035 33.9658C526.531 33.9658 526.063 34.1164 525.631 34.4175C525.208 34.7186 524.883 35.1377 524.655 35.6748C524.183 36.7734 523.947 38.8039 523.947 41.7661C523.947 42.4416 523.817 42.9176 523.556 43.1943C523.304 43.471 522.978 43.6094 522.58 43.6094H522.336C521.424 43.6094 520.968 43.2472 520.968 42.5229V42.23C520.968 42.1405 521.017 41.9451 521.115 41.644L521.31 41.0825C521.505 40.4233 521.603 39.0114 521.603 36.8467L521.664 33.2212C521.664 32.7573 521.916 32.5254 522.421 32.5254C522.926 32.5254 523.422 32.6922 523.91 33.0259C524.407 33.3595 524.72 33.5264 524.85 33.5264C524.989 33.5264 525.229 33.4328 525.57 33.2456C526.718 32.619 527.637 32.3057 528.329 32.3057H528.647C529.892 32.3057 530.767 32.8672 531.271 33.9902C531.515 34.5192 531.637 35.6585 531.637 37.4082V37.4937C531.637 37.6401 531.633 37.7866 531.625 37.9331C531.625 38.3319 531.625 38.5394 531.625 38.5557C531.625 38.7103 531.625 38.8608 531.625 39.0073C531.625 39.1213 531.625 39.2311 531.625 39.3369C531.625 39.9635 531.645 40.3908 531.686 40.6187C531.743 40.9279 531.837 41.2493 531.967 41.583C532.105 41.9492 532.174 42.2666 532.174 42.5352ZM544.003 38.8486C544.003 39.9147 544.247 40.8018 544.735 41.5098C545.224 42.2178 545.822 42.5718 546.53 42.5718H546.896C547.734 42.5718 548.442 42.1486 549.02 41.3022C549.606 40.4559 549.899 39.3288 549.899 37.9209V37.1152C549.899 36.0247 549.659 35.1336 549.179 34.4419C548.707 33.742 548.096 33.3921 547.348 33.3921H547.104C546.233 33.3921 545.5 33.8234 544.906 34.686C544.32 35.5487 544.027 36.5781 544.027 37.7744L544.003 38.0552V38.8486ZM546.762 44.2319H546.371C544.947 44.2319 543.787 43.7355 542.892 42.7427C541.997 41.7498 541.549 40.342 541.549 38.519L541.562 38.3115C541.562 36.3096 542.091 34.7308 543.149 33.5752C543.702 32.9648 544.333 32.5173 545.041 32.2324C545.757 31.9395 546.436 31.793 547.079 31.793H547.677C548.394 31.793 549.081 31.9517 549.74 32.269C551.628 33.1805 552.572 34.8976 552.572 37.4204V37.6157C552.564 38.4377 552.43 39.2718 552.17 40.1182C551.649 41.7865 550.648 42.9665 549.167 43.6582C548.345 44.0407 547.543 44.2319 546.762 44.2319ZM561.435 42.6938C561.435 43.0194 561.235 43.3123 560.837 43.5728C560.446 43.825 559.913 43.9512 559.237 43.9512C557.976 43.9512 557.089 43.4832 556.576 42.5474C556.259 41.9614 556.1 40.5902 556.1 38.4336C556.1 36.277 556.064 35.0238 555.99 34.6738C555.917 34.3239 555.714 33.9821 555.38 33.6484C555.046 33.3148 554.88 33.0584 554.88 32.8794C554.88 32.8143 555.274 32.387 556.064 31.5977C556.234 31.4268 556.405 31.0483 556.576 30.4624C556.755 29.8765 556.881 29.4899 556.955 29.3027C557.199 28.7168 557.52 28.4238 557.919 28.4238H558.114C558.464 28.4238 558.713 28.5581 558.859 28.8267C558.916 28.9325 559.001 29.3149 559.115 29.9741C559.237 30.6252 559.376 31.0443 559.53 31.2314C559.685 31.4186 560.072 31.6261 560.69 31.854C561.317 32.0737 561.63 32.3097 561.63 32.562V32.6963C561.63 33.0218 561.272 33.2985 560.556 33.5264C559.848 33.7461 559.392 34.1001 559.189 34.5884C558.79 35.5731 558.59 37.1763 558.59 39.3979C558.59 40.4396 558.769 41.1476 559.128 41.522C559.347 41.7498 559.787 41.9085 560.446 41.998C561.105 42.0876 561.435 42.3195 561.435 42.6938ZM565.719 43.7681C564.759 43.7681 564.279 43.4263 564.279 42.7427C564.279 42.4334 564.352 41.9736 564.499 41.3633C564.653 40.7529 564.755 40.1914 564.804 39.6787C564.853 39.1579 564.938 37.4814 565.06 34.6494C565.19 31.8174 565.255 30.0921 565.255 29.4736V28.0332L565.182 27.0078C565.182 26.6253 565.532 26.4341 566.232 26.4341C566.94 26.4341 567.4 26.7067 567.611 27.252C567.717 27.5286 567.77 28.432 567.77 29.9619C567.77 31.4919 567.799 32.3626 567.856 32.5742C567.921 32.7858 568.088 32.8916 568.356 32.8916C568.389 32.8916 568.543 32.8428 568.82 32.7451L569.089 32.6475C569.959 32.3057 570.712 32.1348 571.347 32.1348C572.681 32.1348 573.63 32.6556 574.191 33.6973C574.565 34.389 574.753 35.8945 574.753 38.2139C574.753 39.3044 574.761 39.9513 574.777 40.1548C574.793 40.3582 574.846 40.7285 574.936 41.2656C575.025 41.7946 575.07 42.0876 575.07 42.1445C575.07 42.6247 574.96 42.9827 574.74 43.2188C574.529 43.4466 574.142 43.5605 573.581 43.5605C573.027 43.5605 572.665 43.3896 572.494 43.0479C572.405 42.8688 572.36 42.3521 572.36 41.4976L572.323 39.3491L572.36 37.4082C572.36 35.2354 571.725 34.1489 570.456 34.1489C569.333 34.1489 568.531 34.6209 568.051 35.5649C567.571 36.509 567.331 38.2586 567.331 40.814L567.367 42.1445C567.367 42.6003 567.225 42.9868 566.94 43.3042C566.655 43.6134 566.248 43.7681 565.719 43.7681ZM580.404 36.5781V36.7734C580.404 37.0176 580.628 37.1396 581.076 37.1396H581.369L581.442 37.1274L582.04 37.0786C582.667 36.9891 583.074 36.9443 583.261 36.9443C584.148 36.9443 584.815 36.7775 585.263 36.4438C585.474 36.2811 585.58 35.9922 585.58 35.5771V35.4429C585.58 34.8325 585.377 34.3483 584.97 33.9902C584.571 33.6322 584.091 33.4531 583.529 33.4531H583.444L583.371 33.4653C582.581 33.4653 581.89 33.799 581.296 34.4663C580.701 35.1336 580.404 35.8376 580.404 36.5781ZM583.066 44.1587H582.797C581.243 44.1587 580.006 43.6663 579.086 42.6816C578.166 41.6888 577.707 40.3664 577.707 38.7144V38.1772C577.707 37.3879 577.861 36.5863 578.171 35.7725C578.797 34.1449 579.818 33.0218 581.234 32.4033C581.983 32.0697 582.744 31.9028 583.517 31.9028H584.042C585.108 31.9028 586.007 32.2609 586.74 32.9771C587.48 33.6851 587.851 34.6006 587.851 35.7236V35.9678C587.851 36.7653 587.533 37.3309 586.899 37.6646C586.459 37.9006 585.434 38.1366 583.822 38.3726C582.211 38.6086 581.332 38.751 581.186 38.7998C580.697 38.9707 580.453 39.2962 580.453 39.7764C580.453 40.4437 580.738 41.0133 581.308 41.4854C581.877 41.9574 582.642 42.1934 583.603 42.1934C584.05 42.1934 584.661 42.0713 585.434 41.8271C586.207 41.583 586.654 41.4609 586.776 41.4609C587.192 41.4609 587.399 41.64 587.399 41.998C587.399 42.4782 586.931 42.9583 585.995 43.4385C585.059 43.9186 584.083 44.1587 583.066 44.1587ZM591.281 37.6523V36.7124C591.281 35.5812 591.22 34.7552 591.098 34.2344C590.976 33.7054 590.915 33.3351 590.915 33.1235C590.915 32.6271 591.277 32.3789 592.001 32.3789C592.725 32.3789 593.25 32.5132 593.576 32.7817C593.665 32.855 593.779 32.9974 593.918 33.209C594.064 33.4206 594.194 33.5264 594.308 33.5264C594.333 33.5264 594.687 33.3188 595.37 32.9038C596.054 32.4888 596.64 32.2812 597.128 32.2812H597.311C597.71 32.2812 598.027 32.3789 598.263 32.5742C598.499 32.7614 598.617 32.9933 598.617 33.27V33.4287C598.617 33.7624 598.499 34.0024 598.263 34.1489C598.035 34.2954 597.669 34.3687 597.165 34.3687C596.017 34.3687 595.179 34.7715 594.65 35.5771C594.129 36.3828 593.869 37.807 593.869 39.8496C593.869 40.1426 593.918 40.5942 594.015 41.2046C594.121 41.8149 594.174 42.2747 594.174 42.584C594.174 42.8932 594.007 43.1903 593.673 43.4751C593.34 43.7599 592.917 43.9023 592.404 43.9023H591.989C591.541 43.9023 591.195 43.7965 590.951 43.585C590.715 43.3652 590.597 43.1007 590.597 42.7915C590.597 42.4741 590.654 42.1527 590.768 41.8271C591.077 40.9482 591.232 39.9798 591.232 38.9219C591.265 38.3359 591.281 37.9128 591.281 37.6523ZM601.498 37.1885C601.002 36.6839 600.754 35.9759 600.754 35.0645C600.754 34.153 601.16 33.3717 601.974 32.7207C602.788 32.0615 603.797 31.7319 605.002 31.7319H605.319C606.385 31.7319 607.231 31.8825 607.858 32.1836C608.493 32.4847 608.81 32.9364 608.81 33.5386C608.81 34.1326 608.546 34.4297 608.017 34.4297C607.878 34.4297 607.488 34.2669 606.845 33.9414C606.202 33.6077 605.596 33.4409 605.026 33.4409C604.456 33.4409 603.997 33.5711 603.647 33.8315C603.305 34.0838 603.134 34.4338 603.134 34.8813C603.134 35.3289 603.374 35.7196 603.854 36.0532C604.131 36.2485 604.782 36.5578 605.807 36.981C606.841 37.4041 607.577 37.811 608.017 38.2017C608.725 38.8283 609.079 39.6299 609.079 40.6064C609.079 41.583 608.664 42.4212 607.834 43.1211C607.004 43.8128 605.925 44.1587 604.599 44.1587H604.281C602.947 44.1587 601.946 43.9674 601.278 43.585C600.611 43.1943 600.277 42.6898 600.277 42.0713C600.277 41.4447 600.538 41.1313 601.059 41.1313C601.23 41.1313 601.673 41.3511 602.389 41.7905C603.114 42.23 603.822 42.4497 604.513 42.4497C605.213 42.4497 605.738 42.3032 606.088 42.0103C606.438 41.7091 606.613 41.3348 606.613 40.8872C606.613 40.4315 606.393 40.0327 605.954 39.6909C605.718 39.5037 605.042 39.166 603.927 38.6777C602.812 38.1813 602.003 37.6849 601.498 37.1885ZM612.094 31.7808V31.6587C612.094 31.6424 612.248 31.3657 612.558 30.8286C612.875 30.2915 613.034 29.8602 613.034 29.5347C613.034 29.4614 612.92 29.1807 612.692 28.6924C612.472 28.196 612.362 27.7524 612.362 27.3618C612.362 26.9712 612.484 26.666 612.729 26.4463C612.981 26.2266 613.315 26.1167 613.73 26.1167H614.071C614.446 26.1167 614.735 26.2184 614.938 26.4219C615.142 26.6253 615.243 26.8939 615.243 27.2275C615.26 27.3415 615.268 27.4269 615.268 27.4839V27.8257L615.255 28.082L615.231 28.4238C615.231 29.1888 614.914 30.0107 614.279 30.8896C613.644 31.7604 613.111 32.1958 612.68 32.1958H612.533C612.24 32.1958 612.094 32.0575 612.094 31.7808ZM628.512 28.1309V28.2773C628.512 28.6924 628.39 29.0464 628.146 29.3394C627.91 29.6242 627.544 29.7666 627.047 29.7666H626.852L626.474 29.7178C626.254 29.7178 626.042 29.616 625.839 29.4126C625.636 29.2091 625.534 28.904 625.534 28.4971V28.3506L625.595 27.9111C625.595 27.7402 625.697 27.5286 625.9 27.2764C626.112 27.0241 626.38 26.8979 626.706 26.8979L626.986 26.8613H627.231L627.572 26.9102C627.784 26.9102 627.991 27.016 628.195 27.2275C628.407 27.431 628.512 27.7321 628.512 28.1309ZM627.939 33.2822L627.804 36.5659L627.78 36.8955L627.743 37.8965V38.3726C627.743 39.5444 627.776 40.3135 627.841 40.6797C627.914 41.0459 628.048 41.404 628.244 41.7539C628.439 42.0957 628.537 42.3439 628.537 42.4985V42.6084C628.537 43.0072 628.333 43.3245 627.926 43.5605C627.519 43.7965 626.966 43.9146 626.266 43.9146H625.961C625.554 43.9146 625.245 43.825 625.033 43.646C624.822 43.4588 624.716 43.2594 624.716 43.0479V42.7793C624.716 42.6735 624.81 42.2992 624.997 41.6562C625.184 41.0052 625.277 40.1222 625.277 39.0073C625.302 38.6899 625.314 38.4702 625.314 38.3481L625.351 37.6768L625.375 37.3472C625.416 36.7775 625.436 36.334 625.436 36.0166L625.448 35.5283C625.448 34.918 625.347 34.3768 625.143 33.9048C624.948 33.4328 624.85 33.1398 624.85 33.0259C624.85 32.4399 625.404 32.147 626.51 32.147H626.95C627.365 32.147 627.633 32.2568 627.755 32.4766C627.878 32.6882 627.939 32.9567 627.939 33.2822ZM633.651 38.0796V39.0073C633.651 39.9757 633.871 40.7855 634.311 41.4365C634.758 42.0794 635.283 42.4009 635.885 42.4009H636.227C637.155 42.4009 637.871 42.0306 638.376 41.29C638.888 40.5495 639.145 39.4468 639.145 37.9819C639.161 37.8029 639.169 37.6727 639.169 37.5913L639.193 37.3472L639.206 36.8345V35.9678C639.206 34.3076 638.542 33.4775 637.216 33.4775H636.74C635.877 33.4775 635.145 33.9129 634.543 34.7837C633.949 35.6545 633.651 36.7531 633.651 38.0796ZM631.308 38.6411C631.308 37.7948 631.458 36.9321 631.759 36.0532C632.061 35.1743 632.484 34.4256 633.029 33.8071C633.574 33.1805 634.189 32.7288 634.872 32.4521C635.556 32.1673 636.366 32.0249 637.301 32.0249C638.245 32.0249 638.831 31.854 639.059 31.5122C639.287 31.1623 639.401 30.3932 639.401 29.2051C639.401 28.9854 639.364 28.6924 639.291 28.3262C639.218 27.96 639.181 27.7484 639.181 27.6914C639.181 27.3415 639.332 27.0241 639.633 26.7393C639.934 26.4463 640.329 26.2998 640.817 26.2998H641.061C641.444 26.2998 641.728 26.3893 641.916 26.5684C642.103 26.7474 642.196 27.1217 642.196 27.6914V28.8267L642.172 29.4004C642.164 29.5957 642.16 29.8805 642.16 30.2549C642.16 30.6211 642.099 31.8011 641.977 33.7949C641.855 35.7887 641.794 37.16 641.794 37.9087L641.781 38.2017C641.773 38.397 641.769 38.5841 641.769 38.7632L641.757 39.0439C641.757 39.0439 641.757 39.3613 641.757 39.9961C641.757 40.818 641.822 41.4365 641.952 41.8516C642.082 42.2666 642.148 42.5636 642.148 42.7427C642.148 42.9217 642.046 43.1089 641.842 43.3042C641.639 43.4995 641.322 43.5972 640.89 43.5972C640.467 43.5972 640.056 43.528 639.657 43.3896C639.259 43.2432 638.966 43.1699 638.778 43.1699C638.591 43.1699 638.347 43.2269 638.046 43.3408C637.135 43.6745 636.3 43.8413 635.544 43.8413C635.527 43.8413 635.511 43.8413 635.495 43.8413H635.214C633.985 43.8413 633.025 43.3937 632.333 42.4985C631.65 41.5952 631.308 40.4111 631.308 38.9463V38.6411ZM647.543 36.5781V36.7734C647.543 37.0176 647.767 37.1396 648.214 37.1396H648.507L648.581 37.1274L649.179 37.0786C649.805 36.9891 650.212 36.9443 650.4 36.9443C651.287 36.9443 651.954 36.7775 652.401 36.4438C652.613 36.2811 652.719 35.9922 652.719 35.5771V35.4429C652.719 34.8325 652.515 34.3483 652.109 33.9902C651.71 33.6322 651.23 33.4531 650.668 33.4531H650.583L650.509 33.4653C649.72 33.4653 649.028 33.799 648.434 34.4663C647.84 35.1336 647.543 35.8376 647.543 36.5781ZM650.204 44.1587H649.936C648.381 44.1587 647.144 43.6663 646.225 42.6816C645.305 41.6888 644.845 40.3664 644.845 38.7144V38.1772C644.845 37.3879 645 36.5863 645.309 35.7725C645.936 34.1449 646.957 33.0218 648.373 32.4033C649.122 32.0697 649.883 31.9028 650.656 31.9028H651.181C652.247 31.9028 653.146 32.2609 653.879 32.9771C654.619 33.6851 654.989 34.6006 654.989 35.7236V35.9678C654.989 36.7653 654.672 37.3309 654.037 37.6646C653.598 37.9006 652.572 38.1366 650.961 38.3726C649.35 38.6086 648.471 38.751 648.324 38.7998C647.836 38.9707 647.592 39.2962 647.592 39.7764C647.592 40.4437 647.877 41.0133 648.446 41.4854C649.016 41.9574 649.781 42.1934 650.741 42.1934C651.189 42.1934 651.799 42.0713 652.572 41.8271C653.345 41.583 653.793 41.4609 653.915 41.4609C654.33 41.4609 654.538 41.64 654.538 41.998C654.538 42.4782 654.07 42.9583 653.134 43.4385C652.198 43.9186 651.221 44.1587 650.204 44.1587ZM661.545 42.4619H661.862C662.529 42.4619 663.115 42.2381 663.62 41.7905C664.132 41.3348 664.389 40.8099 664.389 40.2158L664.413 40.0571V39.8984L664.438 39.52V38.8242C664.438 38.3522 664.198 38.1162 663.717 38.1162H663.168L663.083 38.1284L662.607 38.165C662.379 38.1976 662.216 38.2139 662.118 38.2139C661.459 38.2139 660.849 38.4621 660.287 38.9585C659.897 39.3084 659.701 39.8049 659.701 40.4478V40.6919C659.701 41.2371 659.876 41.6685 660.226 41.9858C660.584 42.3032 661.024 42.4619 661.545 42.4619ZM658.822 34.6616C658.277 34.6616 658.005 34.3117 658.005 33.6118C658.005 33.091 658.444 32.6393 659.323 32.2568C660.21 31.8662 661.13 31.6709 662.082 31.6709H662.692C663.514 31.6709 664.238 31.8255 664.865 32.1348C665.491 32.4359 665.968 32.8468 666.293 33.3677C666.627 33.8885 666.83 34.568 666.903 35.4062C666.92 35.6016 666.928 36.5496 666.928 38.2505C666.928 39.9513 666.948 40.932 666.989 41.1924C667.038 41.4447 667.168 41.7539 667.38 42.1201C667.599 42.4863 667.709 42.7874 667.709 43.0234C667.709 43.2594 667.595 43.4629 667.367 43.6338C667.148 43.7965 666.826 43.8779 666.403 43.8779C665.98 43.8779 665.52 43.7762 665.024 43.5728C664.527 43.3612 664.165 43.2554 663.937 43.2554C663.913 43.2554 663.506 43.4019 662.716 43.6948C661.927 43.9797 661.26 44.1221 660.714 44.1221H660.446C659.534 44.1221 658.757 43.8332 658.114 43.2554C657.48 42.6776 657.162 41.8556 657.162 40.7896C657.162 39.7235 657.512 38.8934 658.212 38.2993C658.912 37.6971 659.762 37.2861 660.763 37.0664C661.064 37.0013 661.565 36.9159 662.265 36.8101C662.965 36.7043 663.441 36.5944 663.693 36.4805C664.132 36.277 664.352 35.8945 664.352 35.333C664.352 34.7633 664.165 34.3198 663.791 34.0024C663.416 33.6769 662.969 33.5142 662.448 33.5142C661.935 33.5142 661.26 33.7054 660.422 34.0879C659.583 34.4704 659.05 34.6616 658.822 34.6616ZM671.42 37.1885C670.924 36.6839 670.675 35.9759 670.675 35.0645C670.675 34.153 671.082 33.3717 671.896 32.7207C672.71 32.0615 673.719 31.7319 674.923 31.7319H675.241C676.307 31.7319 677.153 31.8825 677.78 32.1836C678.415 32.4847 678.732 32.9364 678.732 33.5386C678.732 34.1326 678.468 34.4297 677.939 34.4297C677.8 34.4297 677.41 34.2669 676.767 33.9414C676.124 33.6077 675.518 33.4409 674.948 33.4409C674.378 33.4409 673.918 33.5711 673.568 33.8315C673.227 34.0838 673.056 34.4338 673.056 34.8813C673.056 35.3289 673.296 35.7196 673.776 36.0532C674.053 36.2485 674.704 36.5578 675.729 36.981C676.763 37.4041 677.499 37.811 677.939 38.2017C678.647 38.8283 679.001 39.6299 679.001 40.6064C679.001 41.583 678.586 42.4212 677.755 43.1211C676.925 43.8128 675.847 44.1587 674.521 44.1587H674.203C672.869 44.1587 671.868 43.9674 671.2 43.585C670.533 43.1943 670.199 42.6898 670.199 42.0713C670.199 41.4447 670.46 41.1313 670.981 41.1313C671.151 41.1313 671.595 41.3511 672.311 41.7905C673.035 42.23 673.743 42.4497 674.435 42.4497C675.135 42.4497 675.66 42.3032 676.01 42.0103C676.36 41.7091 676.535 41.3348 676.535 40.8872C676.535 40.4315 676.315 40.0327 675.876 39.6909C675.64 39.5037 674.964 39.166 673.849 38.6777C672.734 38.1813 671.925 37.6849 671.42 37.1885ZM683.334 44.1953H682.956C682.549 44.1953 682.231 44.1017 682.004 43.9146C681.784 43.7274 681.674 43.4792 681.674 43.1699C681.658 43.1048 681.65 43.0519 681.65 43.0112L681.625 42.8037V42.584L681.637 42.5352V42.4253C681.654 42.3602 681.662 42.3073 681.662 42.2666C681.662 41.9004 681.784 41.6156 682.028 41.4121C682.28 41.2005 682.557 41.0947 682.858 41.0947L683.114 41.0581H683.444C684.331 41.0581 684.775 41.522 684.775 42.4497V42.6206L684.726 43.0356C684.726 43.41 684.583 43.6989 684.298 43.9023C684.022 44.0977 683.7 44.1953 683.334 44.1953ZM256.271 59.0098C256.271 59.3923 256.186 59.6934 256.015 59.9131C255.844 60.1328 255.693 60.2427 255.563 60.2427C255.441 60.2427 254.794 59.8887 253.622 59.1807C252.906 58.7493 252.153 58.5337 251.364 58.5337C250.583 58.5337 249.915 58.7331 249.362 59.1318C248.817 59.5225 248.544 60.0718 248.544 60.7798C248.544 61.4878 248.841 62.1144 249.435 62.6597C249.736 62.9364 250.652 63.4409 252.182 64.1733C253.712 64.8976 254.77 65.5568 255.356 66.1509C256.169 66.981 256.576 67.929 256.576 68.9951V69.4102C256.568 70.0531 256.409 70.6838 256.1 71.3022C255.506 72.4741 254.501 73.2961 253.085 73.7681C252.353 74.0122 251.539 74.1343 250.644 74.1343C247.869 74.1343 246.188 73.5402 245.602 72.3521C245.399 71.937 245.297 71.5586 245.297 71.2168C245.297 70.8913 245.387 70.6227 245.566 70.4111C245.745 70.1914 245.948 70.0815 246.176 70.0815C246.404 70.0815 246.774 70.3013 247.287 70.7407C247.808 71.1802 248.341 71.5342 248.886 71.8027C249.431 72.0632 250.119 72.1934 250.949 72.1934C251.779 72.1934 252.479 71.9736 253.048 71.5342C253.626 71.0947 253.915 70.4681 253.915 69.6543C253.915 68.8405 253.504 68.1203 252.682 67.4937C252.316 67.217 251.441 66.7531 250.058 66.1021C248.682 65.4429 247.71 64.8081 247.14 64.1978C246.383 63.3921 246.005 62.4237 246.005 61.2925C246.005 59.8602 246.534 58.7331 247.592 57.9111C248.65 57.0811 249.952 56.666 251.498 56.666H251.925C253.529 56.666 254.652 56.8776 255.295 57.3008C255.946 57.7158 256.271 58.2855 256.271 59.0098ZM260.714 73.7681C259.754 73.7681 259.274 73.4263 259.274 72.7427C259.274 72.4334 259.347 71.9736 259.494 71.3633C259.648 70.7529 259.75 70.1914 259.799 69.6787C259.848 69.1579 259.933 67.4814 260.055 64.6494C260.186 61.8174 260.251 60.0921 260.251 59.4736V58.0332L260.177 57.0078C260.177 56.6253 260.527 56.4341 261.227 56.4341C261.935 56.4341 262.395 56.7067 262.607 57.252C262.712 57.5286 262.765 58.432 262.765 59.9619C262.765 61.4919 262.794 62.3626 262.851 62.5742C262.916 62.7858 263.083 62.8916 263.351 62.8916C263.384 62.8916 263.538 62.8428 263.815 62.7451L264.084 62.6475C264.954 62.3057 265.707 62.1348 266.342 62.1348C267.677 62.1348 268.625 62.6556 269.186 63.6973C269.561 64.389 269.748 65.8945 269.748 68.2139C269.748 69.3044 269.756 69.9513 269.772 70.1548C269.788 70.3582 269.841 70.7285 269.931 71.2656C270.02 71.7946 270.065 72.0876 270.065 72.1445C270.065 72.6247 269.955 72.9827 269.735 73.2188C269.524 73.4466 269.137 73.5605 268.576 73.5605C268.022 73.5605 267.66 73.3896 267.489 73.0479C267.4 72.8688 267.355 72.3521 267.355 71.4976L267.318 69.3491L267.355 67.4082C267.355 65.2354 266.72 64.1489 265.451 64.1489C264.328 64.1489 263.526 64.6209 263.046 65.5649C262.566 66.509 262.326 68.2586 262.326 70.814L262.362 72.1445C262.362 72.6003 262.22 72.9868 261.935 73.3042C261.65 73.6134 261.243 73.7681 260.714 73.7681ZM275.302 68.8486C275.302 69.9147 275.546 70.8018 276.034 71.5098C276.523 72.2178 277.121 72.5718 277.829 72.5718H278.195C279.033 72.5718 279.741 72.1486 280.319 71.3022C280.905 70.4559 281.198 69.3288 281.198 67.9209V67.1152C281.198 66.0247 280.958 65.1336 280.478 64.4419C280.006 63.742 279.395 63.3921 278.647 63.3921H278.402C277.532 63.3921 276.799 63.8234 276.205 64.686C275.619 65.5487 275.326 66.5781 275.326 67.7744L275.302 68.0552V68.8486ZM278.061 74.2319H277.67C276.246 74.2319 275.086 73.7355 274.191 72.7427C273.296 71.7498 272.848 70.342 272.848 68.519L272.86 68.3115C272.86 66.3096 273.389 64.7308 274.447 63.5752C275.001 62.9648 275.631 62.5173 276.339 62.2324C277.056 61.9395 277.735 61.793 278.378 61.793H278.976C279.692 61.793 280.38 61.9517 281.039 62.269C282.927 63.1805 283.871 64.8976 283.871 67.4204V67.6157C283.863 68.4377 283.729 69.2718 283.468 70.1182C282.948 71.7865 281.947 72.9665 280.465 73.6582C279.644 74.0407 278.842 74.2319 278.061 74.2319ZM297.848 73.3774C297.27 73.3774 296.77 73.0153 296.347 72.291C296.07 71.8109 295.631 70.8343 295.028 69.3613C294.434 67.8802 294.097 67.1396 294.015 67.1396C293.991 67.1396 293.653 67.8314 293.002 69.2148C292.351 70.5902 291.867 71.5342 291.549 72.0469C291.045 72.8525 290.561 73.2554 290.097 73.2554C289.804 73.2554 289.495 73.1414 289.169 72.9136C288.852 72.6776 288.595 72.2951 288.4 71.7661C288.376 71.701 288.188 71.0011 287.839 69.6665C287.497 68.3319 287.143 67.0786 286.776 65.9067C286.418 64.7349 286.239 63.9414 286.239 63.5264C286.239 63.1113 286.329 62.8143 286.508 62.6353C286.687 62.4562 286.87 62.3667 287.057 62.3667C287.814 62.3667 288.347 62.68 288.656 63.3066C288.77 63.5345 288.917 64.1042 289.096 65.0156C289.95 68.3604 290.524 70.1344 290.817 70.3379C291.126 70.3379 291.578 69.3044 292.172 67.2373C292.416 66.391 292.575 65.63 292.648 64.9546C292.729 64.2791 292.782 63.8885 292.807 63.7827L292.917 63.3921C293.161 62.7492 293.645 62.4277 294.369 62.4277C295.102 62.4277 295.61 62.798 295.895 63.5386C296.009 63.8397 296.115 64.3687 296.213 65.1255C296.31 65.8742 296.449 66.627 296.628 67.3838C297.075 69.3206 297.429 70.2891 297.69 70.2891C298.007 70.2891 298.503 69.2759 299.179 67.2495C299.39 66.6147 299.61 65.8376 299.838 64.918C300.074 63.9984 300.237 63.445 300.326 63.2578C300.619 62.68 301.083 62.3911 301.718 62.3911C302.052 62.3911 302.218 62.7166 302.218 63.3677C302.218 63.7502 301.803 65.2069 300.973 67.7378C300.143 70.2606 299.643 71.7051 299.472 72.0713C299.301 72.4294 299.057 72.7386 298.739 72.999C298.422 73.2513 298.125 73.3774 297.848 73.3774ZM305.673 67.1885C305.177 66.6839 304.928 65.9759 304.928 65.0645C304.928 64.153 305.335 63.3717 306.149 62.7207C306.963 62.0615 307.972 61.7319 309.176 61.7319H309.494C310.56 61.7319 311.406 61.8825 312.033 62.1836C312.668 62.4847 312.985 62.9364 312.985 63.5386C312.985 64.1326 312.72 64.4297 312.192 64.4297C312.053 64.4297 311.663 64.2669 311.02 63.9414C310.377 63.6077 309.77 63.4409 309.201 63.4409C308.631 63.4409 308.171 63.5711 307.821 63.8315C307.48 64.0838 307.309 64.4338 307.309 64.8813C307.309 65.3289 307.549 65.7196 308.029 66.0532C308.306 66.2485 308.957 66.5578 309.982 66.981C311.016 67.4041 311.752 67.811 312.192 68.2017C312.9 68.8283 313.254 69.6299 313.254 70.6064C313.254 71.583 312.839 72.4212 312.008 73.1211C311.178 73.8128 310.1 74.1587 308.774 74.1587H308.456C307.122 74.1587 306.121 73.9674 305.453 73.585C304.786 73.1943 304.452 72.6898 304.452 72.0713C304.452 71.4447 304.713 71.1313 305.234 71.1313C305.404 71.1313 305.848 71.3511 306.564 71.7905C307.288 72.23 307.996 72.4497 308.688 72.4497C309.388 72.4497 309.913 72.3032 310.263 72.0103C310.613 71.7091 310.788 71.3348 310.788 70.8872C310.788 70.4315 310.568 70.0327 310.129 69.6909C309.893 69.5037 309.217 69.166 308.102 68.6777C306.987 68.1813 306.178 67.6849 305.673 67.1885ZM326.632 72.4619H326.95C327.617 72.4619 328.203 72.2381 328.708 71.7905C329.22 71.3348 329.477 70.8099 329.477 70.2158L329.501 70.0571V69.8984L329.526 69.52V68.8242C329.526 68.3522 329.285 68.1162 328.805 68.1162H328.256L328.171 68.1284L327.694 68.165C327.467 68.1976 327.304 68.2139 327.206 68.2139C326.547 68.2139 325.937 68.4621 325.375 68.9585C324.984 69.3084 324.789 69.8049 324.789 70.4478V70.6919C324.789 71.2371 324.964 71.6685 325.314 71.9858C325.672 72.3032 326.112 72.4619 326.632 72.4619ZM323.91 64.6616C323.365 64.6616 323.092 64.3117 323.092 63.6118C323.092 63.091 323.532 62.6393 324.411 62.2568C325.298 61.8662 326.217 61.6709 327.17 61.6709H327.78C328.602 61.6709 329.326 61.8255 329.953 62.1348C330.579 62.4359 331.055 62.8468 331.381 63.3677C331.715 63.8885 331.918 64.568 331.991 65.4062C332.008 65.6016 332.016 66.5496 332.016 68.2505C332.016 69.9513 332.036 70.932 332.077 71.1924C332.126 71.4447 332.256 71.7539 332.467 72.1201C332.687 72.4863 332.797 72.7874 332.797 73.0234C332.797 73.2594 332.683 73.4629 332.455 73.6338C332.235 73.7965 331.914 73.8779 331.491 73.8779C331.068 73.8779 330.608 73.7762 330.111 73.5728C329.615 73.3612 329.253 73.2554 329.025 73.2554C329.001 73.2554 328.594 73.4019 327.804 73.6948C327.015 73.9797 326.348 74.1221 325.802 74.1221H325.534C324.622 74.1221 323.845 73.8332 323.202 73.2554C322.568 72.6776 322.25 71.8556 322.25 70.7896C322.25 69.7235 322.6 68.8934 323.3 68.2993C324 67.6971 324.85 67.2861 325.851 67.0664C326.152 67.0013 326.653 66.9159 327.353 66.8101C328.053 66.7043 328.529 66.5944 328.781 66.4805C329.22 66.277 329.44 65.8945 329.44 65.333C329.44 64.7633 329.253 64.3198 328.879 64.0024C328.504 63.6769 328.057 63.5142 327.536 63.5142C327.023 63.5142 326.348 63.7054 325.509 64.0879C324.671 64.4704 324.138 64.6616 323.91 64.6616ZM337.753 68.0796V69.0073C337.753 69.9757 337.973 70.7855 338.412 71.4365C338.86 72.0794 339.385 72.4009 339.987 72.4009H340.329C341.256 72.4009 341.973 72.0306 342.477 71.29C342.99 70.5495 343.246 69.4468 343.246 67.9819C343.262 67.8029 343.271 67.6727 343.271 67.5913L343.295 67.3472L343.307 66.8345V65.9678C343.307 64.3076 342.644 63.4775 341.318 63.4775H340.841C339.979 63.4775 339.246 63.9129 338.644 64.7837C338.05 65.6545 337.753 66.7531 337.753 68.0796ZM335.409 68.6411C335.409 67.7948 335.56 66.9321 335.861 66.0532C336.162 65.1743 336.585 64.4256 337.13 63.8071C337.676 63.1805 338.29 62.7288 338.974 62.4521C339.657 62.1673 340.467 62.0249 341.403 62.0249C342.347 62.0249 342.933 61.854 343.161 61.5122C343.389 61.1623 343.503 60.3932 343.503 59.2051C343.503 58.9854 343.466 58.6924 343.393 58.3262C343.319 57.96 343.283 57.7484 343.283 57.6914C343.283 57.3415 343.433 57.0241 343.734 56.7393C344.036 56.4463 344.43 56.2998 344.919 56.2998H345.163C345.545 56.2998 345.83 56.3893 346.017 56.5684C346.204 56.7474 346.298 57.1217 346.298 57.6914V58.8267L346.274 59.4004C346.265 59.5957 346.261 59.8805 346.261 60.2549C346.261 60.6211 346.2 61.8011 346.078 63.7949C345.956 65.7887 345.895 67.16 345.895 67.9087L345.883 68.2017C345.875 68.397 345.871 68.5841 345.871 68.7632L345.859 69.0439C345.859 69.0439 345.859 69.3613 345.859 69.9961C345.859 70.818 345.924 71.4365 346.054 71.8516C346.184 72.2666 346.249 72.5636 346.249 72.7427C346.249 72.9217 346.147 73.1089 345.944 73.3042C345.741 73.4995 345.423 73.5972 344.992 73.5972C344.569 73.5972 344.158 73.528 343.759 73.3896C343.36 73.2432 343.067 73.1699 342.88 73.1699C342.693 73.1699 342.449 73.2269 342.148 73.3408C341.236 73.6745 340.402 73.8413 339.645 73.8413C339.629 73.8413 339.613 73.8413 339.596 73.8413H339.316C338.087 73.8413 337.126 73.3937 336.435 72.4985C335.751 71.5952 335.409 70.4111 335.409 68.9463V68.6411ZM353.317 72.4619H353.634C354.302 72.4619 354.888 72.2381 355.392 71.7905C355.905 71.3348 356.161 70.8099 356.161 70.2158L356.186 70.0571V69.8984L356.21 69.52V68.8242C356.21 68.3522 355.97 68.1162 355.49 68.1162H354.941L354.855 68.1284L354.379 68.165C354.151 68.1976 353.988 68.2139 353.891 68.2139C353.232 68.2139 352.621 68.4621 352.06 68.9585C351.669 69.3084 351.474 69.8049 351.474 70.4478V70.6919C351.474 71.2371 351.649 71.6685 351.999 71.9858C352.357 72.3032 352.796 72.4619 353.317 72.4619ZM350.595 64.6616C350.05 64.6616 349.777 64.3117 349.777 63.6118C349.777 63.091 350.216 62.6393 351.095 62.2568C351.982 61.8662 352.902 61.6709 353.854 61.6709H354.464C355.286 61.6709 356.011 61.8255 356.637 62.1348C357.264 62.4359 357.74 62.8468 358.066 63.3677C358.399 63.8885 358.603 64.568 358.676 65.4062C358.692 65.6016 358.7 66.5496 358.7 68.2505C358.7 69.9513 358.721 70.932 358.761 71.1924C358.81 71.4447 358.94 71.7539 359.152 72.1201C359.372 72.4863 359.482 72.7874 359.482 73.0234C359.482 73.2594 359.368 73.4629 359.14 73.6338C358.92 73.7965 358.599 73.8779 358.175 73.8779C357.752 73.8779 357.292 73.7762 356.796 73.5728C356.3 73.3612 355.937 73.2554 355.71 73.2554C355.685 73.2554 355.278 73.4019 354.489 73.6948C353.7 73.9797 353.032 74.1221 352.487 74.1221H352.218C351.307 74.1221 350.53 73.8332 349.887 73.2554C349.252 72.6776 348.935 71.8556 348.935 70.7896C348.935 69.7235 349.285 68.8934 349.984 68.2993C350.684 67.6971 351.535 67.2861 352.536 67.0664C352.837 67.0013 353.337 66.9159 354.037 66.8101C354.737 66.7043 355.213 66.5944 355.465 66.4805C355.905 66.277 356.125 65.8945 356.125 65.333C356.125 64.7633 355.937 64.3198 355.563 64.0024C355.189 63.6769 354.741 63.5142 354.22 63.5142C353.708 63.5142 353.032 63.7054 352.194 64.0879C351.356 64.4704 350.823 64.6616 350.595 64.6616ZM370.907 66.9565C370.907 65.8742 370.679 65.0278 370.224 64.4175C369.776 63.799 369.239 63.4897 368.612 63.4897H368.258C367.38 63.4897 366.684 63.8397 366.171 64.5396C365.658 65.2313 365.402 66.2526 365.402 67.6035L365.378 67.8477L365.329 69.1172V69.9717C365.329 70.8587 365.508 71.4854 365.866 71.8516C366.232 72.2096 366.749 72.3887 367.416 72.3887H367.648C368.568 72.3887 369.337 71.9655 369.955 71.1191C370.574 70.2728 370.883 69.2433 370.883 68.0308L370.907 67.7622V66.9565ZM364.267 62.3667L365.976 62.6597C366.155 62.6597 366.574 62.5417 367.233 62.3057C367.892 62.0697 368.539 61.9517 369.174 61.9517C370.46 61.9517 371.501 62.4033 372.299 63.3066C373.096 64.2018 373.495 65.4103 373.495 66.9321V67.2373C373.495 68.2627 373.324 69.2067 372.983 70.0693C372.283 71.8516 371.115 73.0031 369.479 73.5239C369.015 73.6704 368.393 73.7721 367.611 73.8291C366.838 73.8861 366.289 73.9878 365.964 74.1343C365.467 74.3621 365.219 74.7731 365.219 75.3672C365.219 75.6195 365.264 75.9613 365.353 76.3926C365.451 76.8239 365.5 77.2227 365.5 77.5889C365.5 77.9551 365.292 78.3132 364.877 78.6631C364.462 79.0212 363.945 79.2002 363.327 79.2002H363.07C362.338 79.2002 361.972 78.9316 361.972 78.3945V78.1626C361.972 78.0487 362.049 77.7272 362.204 77.1982C362.366 76.6774 362.48 76.1159 362.546 75.5137C362.611 74.9196 362.716 73.4344 362.863 71.0581C363.009 68.6818 363.083 67.0583 363.083 66.1875C363.083 65.3086 363.026 64.5721 362.912 63.978C362.806 63.384 362.753 63.0625 362.753 63.0137C362.753 62.5824 363.258 62.3667 364.267 62.3667ZM382.406 72.6938C382.406 73.0194 382.207 73.3123 381.808 73.5728C381.418 73.825 380.885 73.9512 380.209 73.9512C378.948 73.9512 378.061 73.4832 377.548 72.5474C377.231 71.9614 377.072 70.5902 377.072 68.4336C377.072 66.277 377.035 65.0238 376.962 64.6738C376.889 64.3239 376.685 63.9821 376.352 63.6484C376.018 63.3148 375.851 63.0584 375.851 62.8794C375.851 62.8143 376.246 62.387 377.035 61.5977C377.206 61.4268 377.377 61.0483 377.548 60.4624C377.727 59.8765 377.853 59.4899 377.926 59.3027C378.171 58.7168 378.492 58.4238 378.891 58.4238H379.086C379.436 58.4238 379.684 58.5581 379.831 58.8267C379.888 58.9325 379.973 59.3149 380.087 59.9741C380.209 60.6252 380.347 61.0443 380.502 61.2314C380.657 61.4186 381.043 61.6261 381.662 61.854C382.288 62.0737 382.602 62.3097 382.602 62.562V62.6963C382.602 63.0218 382.244 63.2985 381.527 63.5264C380.819 63.7461 380.364 64.1001 380.16 64.5884C379.762 65.5731 379.562 67.1763 379.562 69.3979C379.562 70.4396 379.741 71.1476 380.099 71.522C380.319 71.7498 380.758 71.9085 381.418 71.998C382.077 72.0876 382.406 72.3195 382.406 72.6938ZM389.181 58.1309V58.2773C389.181 58.6924 389.059 59.0464 388.815 59.3394C388.579 59.6242 388.213 59.7666 387.716 59.7666H387.521L387.143 59.7178C386.923 59.7178 386.711 59.616 386.508 59.4126C386.304 59.2091 386.203 58.904 386.203 58.4971V58.3506L386.264 57.9111C386.264 57.7402 386.366 57.5286 386.569 57.2764C386.781 57.0241 387.049 56.8979 387.375 56.8979L387.655 56.8613H387.9L388.241 56.9102C388.453 56.9102 388.66 57.016 388.864 57.2275C389.075 57.431 389.181 57.7321 389.181 58.1309ZM388.608 63.2822L388.473 66.5659L388.449 66.8955L388.412 67.8965V68.3726C388.412 69.5444 388.445 70.3135 388.51 70.6797C388.583 71.0459 388.717 71.404 388.913 71.7539C389.108 72.0957 389.206 72.3439 389.206 72.4985V72.6084C389.206 73.0072 389.002 73.3245 388.595 73.5605C388.188 73.7965 387.635 73.9146 386.935 73.9146H386.63C386.223 73.9146 385.914 73.825 385.702 73.646C385.491 73.4588 385.385 73.2594 385.385 73.0479V72.7793C385.385 72.6735 385.478 72.2992 385.666 71.6562C385.853 71.0052 385.946 70.1222 385.946 69.0073C385.971 68.6899 385.983 68.4702 385.983 68.3481L386.02 67.6768L386.044 67.3472C386.085 66.7775 386.105 66.334 386.105 66.0166L386.117 65.5283C386.117 64.918 386.016 64.3768 385.812 63.9048C385.617 63.4328 385.519 63.1398 385.519 63.0259C385.519 62.4399 386.073 62.147 387.179 62.147H387.619C388.034 62.147 388.302 62.2568 388.424 62.4766C388.547 62.6882 388.608 62.9567 388.608 63.2822ZM396.701 73.9878C396.107 73.9878 395.631 73.6094 395.273 72.8525C395.004 72.2829 394.524 70.9198 393.832 68.7632C393.149 66.5985 392.697 65.3086 392.477 64.8936C391.932 63.86 391.659 63.2008 391.659 62.916C391.659 62.623 391.749 62.4115 391.928 62.2812C392.107 62.1429 392.485 62.0737 393.063 62.0737C393.991 62.0737 394.605 62.4155 394.906 63.0991C394.963 63.2212 395.053 63.5996 395.175 64.2344C395.297 64.861 395.419 65.4144 395.541 65.8945L395.785 66.9688C396.396 69.6543 396.864 70.9971 397.189 70.9971C397.409 70.9971 398.027 69.6258 399.045 66.8833C399.508 65.63 399.805 64.6453 399.936 63.9292C400.074 63.2049 400.164 62.8021 400.204 62.7207C400.44 62.2731 400.937 62.0493 401.693 62.0493H401.938C402.491 62.0493 402.768 62.3301 402.768 62.8916C402.768 63.2904 402.646 63.6973 402.401 64.1123C402.157 64.5273 401.588 65.805 400.693 67.9453C399.805 70.0775 399.15 71.526 398.727 72.291C398.304 73.0479 397.954 73.5199 397.677 73.707C397.409 73.8942 397.083 73.9878 396.701 73.9878ZM406.845 66.5781V66.7734C406.845 67.0176 407.069 67.1396 407.516 67.1396H407.809L407.882 67.1274L408.481 67.0786C409.107 66.9891 409.514 66.9443 409.701 66.9443C410.588 66.9443 411.256 66.7775 411.703 66.4438C411.915 66.2811 412.021 65.9922 412.021 65.5771V65.4429C412.021 64.8325 411.817 64.3483 411.41 63.9902C411.012 63.6322 410.531 63.4531 409.97 63.4531H409.884L409.811 63.4653C409.022 63.4653 408.33 63.799 407.736 64.4663C407.142 65.1336 406.845 65.8376 406.845 66.5781ZM409.506 74.1587H409.237C407.683 74.1587 406.446 73.6663 405.526 72.6816C404.607 71.6888 404.147 70.3664 404.147 68.7144V68.1772C404.147 67.3879 404.302 66.5863 404.611 65.7725C405.238 64.1449 406.259 63.0218 407.675 62.4033C408.424 62.0697 409.185 61.9028 409.958 61.9028H410.483C411.549 61.9028 412.448 62.2609 413.18 62.9771C413.921 63.6851 414.291 64.6006 414.291 65.7236V65.9678C414.291 66.7653 413.974 67.3309 413.339 67.6646C412.9 67.9006 411.874 68.1366 410.263 68.3726C408.651 68.6086 407.773 68.751 407.626 68.7998C407.138 68.9707 406.894 69.2962 406.894 69.7764C406.894 70.4437 407.179 71.0133 407.748 71.4854C408.318 71.9574 409.083 72.1934 410.043 72.1934C410.491 72.1934 411.101 72.0713 411.874 71.8271C412.647 71.583 413.095 71.4609 413.217 71.4609C413.632 71.4609 413.839 71.64 413.839 71.998C413.839 72.4782 413.372 72.9583 412.436 73.4385C411.5 73.9186 410.523 74.1587 409.506 74.1587ZM430.185 72.6938C430.185 73.0194 429.985 73.3123 429.587 73.5728C429.196 73.825 428.663 73.9512 427.987 73.9512C426.726 73.9512 425.839 73.4832 425.326 72.5474C425.009 71.9614 424.85 70.5902 424.85 68.4336C424.85 66.277 424.814 65.0238 424.74 64.6738C424.667 64.3239 424.464 63.9821 424.13 63.6484C423.796 63.3148 423.63 63.0584 423.63 62.8794C423.63 62.8143 424.024 62.387 424.814 61.5977C424.984 61.4268 425.155 61.0483 425.326 60.4624C425.505 59.8765 425.631 59.4899 425.705 59.3027C425.949 58.7168 426.27 58.4238 426.669 58.4238H426.864C427.214 58.4238 427.463 58.5581 427.609 58.8267C427.666 58.9325 427.751 59.3149 427.865 59.9741C427.987 60.6252 428.126 61.0443 428.28 61.2314C428.435 61.4186 428.822 61.6261 429.44 61.854C430.067 62.0737 430.38 62.3097 430.38 62.562V62.6963C430.38 63.0218 430.022 63.2985 429.306 63.5264C428.598 63.7461 428.142 64.1001 427.939 64.5884C427.54 65.5731 427.34 67.1763 427.34 69.3979C427.34 70.4396 427.519 71.1476 427.878 71.522C428.097 71.7498 428.537 71.9085 429.196 71.998C429.855 72.0876 430.185 72.3195 430.185 72.6938ZM434.469 73.7681C433.509 73.7681 433.029 73.4263 433.029 72.7427C433.029 72.4334 433.102 71.9736 433.249 71.3633C433.403 70.7529 433.505 70.1914 433.554 69.6787C433.603 69.1579 433.688 67.4814 433.81 64.6494C433.94 61.8174 434.005 60.0921 434.005 59.4736V58.0332L433.932 57.0078C433.932 56.6253 434.282 56.4341 434.982 56.4341C435.69 56.4341 436.15 56.7067 436.361 57.252C436.467 57.5286 436.52 58.432 436.52 59.9619C436.52 61.4919 436.549 62.3626 436.606 62.5742C436.671 62.7858 436.838 62.8916 437.106 62.8916C437.139 62.8916 437.293 62.8428 437.57 62.7451L437.839 62.6475C438.709 62.3057 439.462 62.1348 440.097 62.1348C441.431 62.1348 442.38 62.6556 442.941 63.6973C443.315 64.389 443.503 65.8945 443.503 68.2139C443.503 69.3044 443.511 69.9513 443.527 70.1548C443.543 70.3582 443.596 70.7285 443.686 71.2656C443.775 71.7946 443.82 72.0876 443.82 72.1445C443.82 72.6247 443.71 72.9827 443.49 73.2188C443.279 73.4466 442.892 73.5605 442.331 73.5605C441.777 73.5605 441.415 73.3896 441.244 73.0479C441.155 72.8688 441.11 72.3521 441.11 71.4976L441.073 69.3491L441.11 67.4082C441.11 65.2354 440.475 64.1489 439.206 64.1489C438.083 64.1489 437.281 64.6209 436.801 65.5649C436.321 66.509 436.081 68.2586 436.081 70.814L436.117 72.1445C436.117 72.6003 435.975 72.9868 435.69 73.3042C435.405 73.6134 434.998 73.7681 434.469 73.7681ZM450.9 58.1309V58.2773C450.9 58.6924 450.778 59.0464 450.534 59.3394C450.298 59.6242 449.932 59.7666 449.435 59.7666H449.24L448.861 59.7178C448.642 59.7178 448.43 59.616 448.227 59.4126C448.023 59.2091 447.922 58.904 447.922 58.4971V58.3506L447.983 57.9111C447.983 57.7402 448.084 57.5286 448.288 57.2764C448.499 57.0241 448.768 56.8979 449.093 56.8979L449.374 56.8613H449.618L449.96 56.9102C450.172 56.9102 450.379 57.016 450.583 57.2275C450.794 57.431 450.9 57.7321 450.9 58.1309ZM450.326 63.2822L450.192 66.5659L450.168 66.8955L450.131 67.8965V68.3726C450.131 69.5444 450.164 70.3135 450.229 70.6797C450.302 71.0459 450.436 71.404 450.631 71.7539C450.827 72.0957 450.924 72.3439 450.924 72.4985V72.6084C450.924 73.0072 450.721 73.3245 450.314 73.5605C449.907 73.7965 449.354 73.9146 448.654 73.9146H448.349C447.942 73.9146 447.633 73.825 447.421 73.646C447.209 73.4588 447.104 73.2594 447.104 73.0479V72.7793C447.104 72.6735 447.197 72.2992 447.384 71.6562C447.572 71.0052 447.665 70.1222 447.665 69.0073C447.69 68.6899 447.702 68.4702 447.702 68.3481L447.738 67.6768L447.763 67.3472C447.804 66.7775 447.824 66.334 447.824 66.0166L447.836 65.5283C447.836 64.918 447.734 64.3768 447.531 63.9048C447.336 63.4328 447.238 63.1398 447.238 63.0259C447.238 62.4399 447.791 62.147 448.898 62.147H449.338C449.753 62.147 450.021 62.2568 450.143 62.4766C450.265 62.6882 450.326 62.9567 450.326 63.2822ZM465.133 72.5352C465.133 73.1374 464.609 73.4385 463.559 73.4385C462.965 73.4385 462.566 73.2961 462.362 73.0112C462.265 72.8729 462.216 72.5474 462.216 72.0347L462.179 71.2534C462.122 70.3989 462.094 69.5404 462.094 68.6777C462.094 66.8141 461.931 65.5649 461.606 64.9302C461.288 64.2873 460.751 63.9658 459.994 63.9658C459.49 63.9658 459.022 64.1164 458.59 64.4175C458.167 64.7186 457.842 65.1377 457.614 65.6748C457.142 66.7734 456.906 68.8039 456.906 71.7661C456.906 72.4416 456.776 72.9176 456.515 73.1943C456.263 73.471 455.937 73.6094 455.539 73.6094H455.295C454.383 73.6094 453.927 73.2472 453.927 72.5229V72.23C453.927 72.1405 453.976 71.9451 454.074 71.644L454.269 71.0825C454.464 70.4233 454.562 69.0114 454.562 66.8467L454.623 63.2212C454.623 62.7573 454.875 62.5254 455.38 62.5254C455.885 62.5254 456.381 62.6922 456.869 63.0259C457.366 63.3595 457.679 63.5264 457.809 63.5264C457.948 63.5264 458.188 63.4328 458.529 63.2456C459.677 62.619 460.596 62.3057 461.288 62.3057H461.606C462.851 62.3057 463.726 62.8672 464.23 63.9902C464.474 64.5192 464.596 65.6585 464.596 67.4082V67.4937C464.596 67.6401 464.592 67.7866 464.584 67.9331C464.584 68.3319 464.584 68.5394 464.584 68.5557C464.584 68.7103 464.584 68.8608 464.584 69.0073C464.584 69.1213 464.584 69.2311 464.584 69.3369C464.584 69.9635 464.604 70.3908 464.645 70.6187C464.702 70.9279 464.796 71.2493 464.926 71.583C465.064 71.9492 465.133 72.2666 465.133 72.5352ZM472.299 68.6533C471.575 68.6533 471.213 69.6095 471.213 71.522C471.213 72.3521 471.042 72.9136 470.7 73.2065C470.358 73.4995 469.947 73.646 469.467 73.646C468.987 73.646 468.645 73.5646 468.442 73.4019C468.246 73.2391 468.149 72.9339 468.149 72.4863C468.149 72.4538 468.193 72.1323 468.283 71.522C468.372 70.9116 468.486 69.0155 468.625 65.8335C468.763 62.6434 468.832 60.6943 468.832 59.9863C468.832 59.2783 468.812 58.8185 468.771 58.6069C468.739 58.3872 468.682 58.1227 468.6 57.8135C468.527 57.5042 468.49 57.3089 468.49 57.2275C468.49 56.8695 468.608 56.6253 468.844 56.4951C469.089 56.3568 469.491 56.2876 470.053 56.2876C470.623 56.2876 470.997 56.4341 471.176 56.7271C471.363 57.02 471.457 57.61 471.457 58.4971L471.298 63.6729C471.298 65.154 471.469 65.8945 471.811 65.8945C472.079 65.8945 472.738 65.3411 473.788 64.2344C474.846 63.1276 475.387 62.5661 475.412 62.5498C475.737 62.3219 476.23 62.208 476.889 62.208C477.548 62.208 477.878 62.3708 477.878 62.6963C477.878 62.859 477.353 63.5467 476.303 64.7593C475.253 65.9718 474.728 66.863 474.728 67.4326C474.728 67.7419 475.326 68.7591 476.523 70.4844C476.954 71.1029 477.361 71.64 477.743 72.0957C478.134 72.5433 478.329 72.8647 478.329 73.0601C478.329 73.467 477.951 73.6704 477.194 73.6704C476.445 73.6704 475.867 73.4548 475.461 73.0234C475.363 72.9176 475.135 72.5596 474.777 71.9492C474.419 71.3389 474.167 70.9116 474.02 70.6675C473.182 69.3247 472.608 68.6533 472.299 68.6533ZM485.129 58.1309V58.2773C485.129 58.6924 485.006 59.0464 484.762 59.3394C484.526 59.6242 484.16 59.7666 483.664 59.7666H483.468L483.09 59.7178C482.87 59.7178 482.659 59.616 482.455 59.4126C482.252 59.2091 482.15 58.904 482.15 58.4971V58.3506L482.211 57.9111C482.211 57.7402 482.313 57.5286 482.516 57.2764C482.728 57.0241 482.996 56.8979 483.322 56.8979L483.603 56.8613H483.847L484.189 56.9102C484.4 56.9102 484.608 57.016 484.811 57.2275C485.023 57.431 485.129 57.7321 485.129 58.1309ZM484.555 63.2822L484.421 66.5659L484.396 66.8955L484.359 67.8965V68.3726C484.359 69.5444 484.392 70.3135 484.457 70.6797C484.53 71.0459 484.665 71.404 484.86 71.7539C485.055 72.0957 485.153 72.3439 485.153 72.4985V72.6084C485.153 73.0072 484.95 73.3245 484.543 73.5605C484.136 73.7965 483.582 73.9146 482.882 73.9146H482.577C482.17 73.9146 481.861 73.825 481.65 73.646C481.438 73.4588 481.332 73.2594 481.332 73.0479V72.7793C481.332 72.6735 481.426 72.2992 481.613 71.6562C481.8 71.0052 481.894 70.1222 481.894 69.0073C481.918 68.6899 481.93 68.4702 481.93 68.3481L481.967 67.6768L481.991 67.3472C482.032 66.7775 482.052 66.334 482.052 66.0166L482.065 65.5283C482.065 64.918 481.963 64.3768 481.759 63.9048C481.564 63.4328 481.466 63.1398 481.466 63.0259C481.466 62.4399 482.02 62.147 483.127 62.147H483.566C483.981 62.147 484.25 62.2568 484.372 62.4766C484.494 62.6882 484.555 62.9567 484.555 63.2822ZM499.362 72.5352C499.362 73.1374 498.837 73.4385 497.787 73.4385C497.193 73.4385 496.794 73.2961 496.591 73.0112C496.493 72.8729 496.444 72.5474 496.444 72.0347L496.408 71.2534C496.351 70.3989 496.322 69.5404 496.322 68.6777C496.322 66.8141 496.16 65.5649 495.834 64.9302C495.517 64.2873 494.98 63.9658 494.223 63.9658C493.718 63.9658 493.25 64.1164 492.819 64.4175C492.396 64.7186 492.07 65.1377 491.842 65.6748C491.37 66.7734 491.134 68.8039 491.134 71.7661C491.134 72.4416 491.004 72.9176 490.744 73.1943C490.491 73.471 490.166 73.6094 489.767 73.6094H489.523C488.612 73.6094 488.156 73.2472 488.156 72.5229V72.23C488.156 72.1405 488.205 71.9451 488.302 71.644L488.498 71.0825C488.693 70.4233 488.791 69.0114 488.791 66.8467L488.852 63.2212C488.852 62.7573 489.104 62.5254 489.609 62.5254C490.113 62.5254 490.609 62.6922 491.098 63.0259C491.594 63.3595 491.908 63.5264 492.038 63.5264C492.176 63.5264 492.416 63.4328 492.758 63.2456C493.905 62.619 494.825 62.3057 495.517 62.3057H495.834C497.079 62.3057 497.954 62.8672 498.459 63.9902C498.703 64.5192 498.825 65.6585 498.825 67.4082V67.4937C498.825 67.6401 498.821 67.7866 498.813 67.9331C498.813 68.3319 498.813 68.5394 498.813 68.5557C498.813 68.7103 498.813 68.8608 498.813 69.0073C498.813 69.1213 498.813 69.2311 498.813 69.3369C498.813 69.9635 498.833 70.3908 498.874 70.6187C498.931 70.9279 499.024 71.2493 499.154 71.583C499.293 71.9492 499.362 72.2666 499.362 72.5352ZM504.355 68.3481V68.7266C504.355 69.8171 504.562 70.6715 504.977 71.29C505.392 71.9085 505.913 72.2178 506.54 72.2178H506.967C507.87 72.2178 508.574 71.8394 509.079 71.0825C509.583 70.3175 509.836 69.2474 509.836 67.8721C509.852 67.7093 509.86 67.5832 509.86 67.4937L509.884 66.9932V66.2607C509.868 66.098 509.86 65.9759 509.86 65.8945C509.86 65.2516 509.705 64.7471 509.396 64.3809C509.087 64.0146 508.631 63.8315 508.029 63.8315H507.687C506.727 63.8315 505.929 64.2344 505.295 65.04C504.668 65.8457 504.355 66.9484 504.355 68.3481ZM511.447 62.8306C512.155 62.8306 512.509 63.3433 512.509 64.3687C512.509 64.6372 512.399 65.7603 512.179 67.7378C511.96 69.7153 511.85 71.3958 511.85 72.7793C511.85 74.179 511.756 75.2288 511.569 75.9287C511.17 77.4342 510.247 78.5003 508.798 79.127C508.041 79.4525 507.203 79.6152 506.283 79.6152C505.372 79.6152 504.558 79.4525 503.842 79.127C503.134 78.8014 502.78 78.4108 502.78 77.9551C502.78 77.4342 503.13 77.1738 503.83 77.1738C503.968 77.1738 504.342 77.2267 504.953 77.3325C505.563 77.4383 506.003 77.4912 506.271 77.4912C507.256 77.4912 508.061 77.182 508.688 76.5635C509.323 75.9531 509.64 75.1678 509.64 74.2075C509.64 73.703 509.453 73.4507 509.079 73.4507C509.014 73.4507 508.859 73.4751 508.615 73.5239C507.923 73.6623 507.292 73.7314 506.723 73.7314C505.274 73.7314 504.184 73.292 503.451 72.4131C503.109 72.0062 502.817 71.465 502.572 70.7896C502.336 70.106 502.218 69.3857 502.218 68.6289V68.2871C502.218 67.4896 502.349 66.7043 502.609 65.9312C502.878 65.1499 503.232 64.4948 503.671 63.9658C504.11 63.4287 504.684 63.0096 505.392 62.7085C506.1 62.4074 506.825 62.2568 507.565 62.2568H507.882C508.297 62.2568 508.831 62.3708 509.482 62.5986C510.141 62.8184 510.544 62.9282 510.69 62.9282C511.016 62.8631 511.268 62.8306 511.447 62.8306ZM517.465 74.1953H517.087C516.68 74.1953 516.362 74.1017 516.134 73.9146C515.915 73.7274 515.805 73.4792 515.805 73.1699C515.789 73.1048 515.78 73.0519 515.78 73.0112L515.756 72.8037V72.584L515.768 72.5352V72.4253C515.784 72.3602 515.793 72.3073 515.793 72.2666C515.793 71.9004 515.915 71.6156 516.159 71.4121C516.411 71.2005 516.688 71.0947 516.989 71.0947L517.245 71.0581H517.575C518.462 71.0581 518.905 71.522 518.905 72.4497V72.6206L518.857 73.0356C518.857 73.41 518.714 73.6989 518.429 73.9023C518.153 74.0977 517.831 74.1953 517.465 74.1953Z" fill="black"/>
</svg>
