<svg width="758" height="87" viewBox="0 0 758 87" fill="none" xmlns="http://www.w3.org/2000/svg">
<rect width="758" height="87" rx="18" fill="#D9D9D9"/>
<path d="M43.595 54.1177C43.245 54.1177 43.07 53.9427 43.07 53.5927V45.3607H32.045C31.695 45.3607 31.52 45.1857 31.52 44.8357V26.6497C31.52 26.2997 31.695 26.1247 32.045 26.1247H37.988C38.338 26.1247 38.513 26.2997 38.513 26.6497V39.7747H43.07V26.6497C43.07 26.2997 43.245 26.1247 43.595 26.1247H49.538C49.888 26.1247 50.063 26.2997 50.063 26.6497V53.5927C50.063 53.9427 49.888 54.1177 49.538 54.1177H43.595Z" fill="#2ECC71"/>
<path d="M101.515 44.3896C101.23 44.5931 100.786 44.6948 100.184 44.6948C99.5819 44.6948 99.1465 44.5809 98.8779 44.353C98.6094 44.117 98.4751 43.8118 98.4751 43.4375V43.1567C98.4751 43.0103 98.5728 42.6969 98.7681 42.2168C98.9715 41.7285 99.0936 41.2443 99.1343 40.7642C99.4191 37.4601 99.5615 35.0065 99.5615 33.4033C99.5615 31.8001 99.5452 30.8643 99.5127 30.5957C99.4801 30.3271 99.4028 30.0057 99.2808 29.6313C99.1668 29.257 99.1099 29.0617 99.1099 29.0454C99.1099 28.6141 99.3866 28.3496 99.9399 28.252C101.6 27.959 104.025 27.8125 107.215 27.8125H107.972C108.574 27.8125 109.006 27.8939 109.266 28.0566C109.535 28.2194 109.669 28.5246 109.669 28.9722V29.2651C109.669 29.8592 109.392 30.1562 108.839 30.1562C108.717 30.1562 108.465 30.1074 108.082 30.0098C107.7 29.9121 107.341 29.8348 107.008 29.7778C106.682 29.7127 105.986 29.6802 104.92 29.6802C103.862 29.6802 103.171 29.9284 102.845 30.4248C102.528 30.9212 102.369 31.8978 102.369 33.3545C102.369 34.1032 102.487 34.6037 102.723 34.856C102.967 35.1001 103.529 35.2222 104.408 35.2222C104.627 35.2222 104.957 35.1774 105.396 35.0879C105.836 34.9984 106.214 34.9536 106.532 34.9536C106.849 34.9536 107.13 35.092 107.374 35.3687C107.626 35.6453 107.752 36.036 107.752 36.5405C107.752 37.2648 107.378 37.627 106.629 37.627L105.213 37.5049C104.595 37.5049 104.042 37.6107 103.553 37.8223C103.065 38.0257 102.731 38.2739 102.552 38.5669C102.113 39.283 101.893 40.4793 101.893 42.1558L101.954 43.5962C101.954 43.9136 101.808 44.1781 101.515 44.3896ZM112.196 38.6523V37.7124C112.196 36.5812 112.135 35.7552 112.013 35.2344C111.891 34.7054 111.83 34.3351 111.83 34.1235C111.83 33.6271 112.192 33.3789 112.916 33.3789C113.64 33.3789 114.165 33.5132 114.491 33.7817C114.58 33.855 114.694 33.9974 114.833 34.209C114.979 34.4206 115.109 34.5264 115.223 34.5264C115.248 34.5264 115.602 34.3188 116.285 33.9038C116.969 33.4888 117.555 33.2812 118.043 33.2812H118.226C118.625 33.2812 118.942 33.3789 119.178 33.5742C119.414 33.7614 119.532 33.9933 119.532 34.27V34.4287C119.532 34.7624 119.414 35.0024 119.178 35.1489C118.95 35.2954 118.584 35.3687 118.08 35.3687C116.932 35.3687 116.094 35.7715 115.565 36.5771C115.044 37.3828 114.784 38.807 114.784 40.8496C114.784 41.1426 114.833 41.5942 114.93 42.2046C115.036 42.8149 115.089 43.2747 115.089 43.584C115.089 43.8932 114.922 44.1903 114.588 44.4751C114.255 44.7599 113.832 44.9023 113.319 44.9023H112.904C112.456 44.9023 112.11 44.7965 111.866 44.585C111.63 44.3652 111.512 44.1007 111.512 43.7915C111.512 43.4741 111.569 43.1527 111.683 42.8271C111.992 41.9482 112.147 40.9798 112.147 39.9219C112.18 39.3359 112.196 38.9128 112.196 38.6523ZM125.477 29.1309V29.2773C125.477 29.6924 125.355 30.0464 125.111 30.3394C124.875 30.6242 124.509 30.7666 124.012 30.7666H123.817L123.438 30.7178C123.219 30.7178 123.007 30.616 122.804 30.4126C122.6 30.2091 122.499 29.904 122.499 29.4971V29.3506L122.56 28.9111C122.56 28.7402 122.661 28.5286 122.865 28.2764C123.076 28.0241 123.345 27.8979 123.67 27.8979L123.951 27.8613H124.195L124.537 27.9102C124.749 27.9102 124.956 28.016 125.16 28.2275C125.371 28.431 125.477 28.7321 125.477 29.1309ZM124.903 34.2822L124.769 37.5659L124.745 37.8955L124.708 38.8965V39.3726C124.708 40.5444 124.741 41.3135 124.806 41.6797C124.879 42.0459 125.013 42.404 125.208 42.7539C125.404 43.0957 125.501 43.3439 125.501 43.4985V43.6084C125.501 44.0072 125.298 44.3245 124.891 44.5605C124.484 44.7965 123.931 44.9146 123.231 44.9146H122.926C122.519 44.9146 122.21 44.825 121.998 44.646C121.786 44.4588 121.681 44.2594 121.681 44.0479V43.7793C121.681 43.6735 121.774 43.2992 121.961 42.6562C122.149 42.0052 122.242 41.1222 122.242 40.0073C122.267 39.6899 122.279 39.4702 122.279 39.3481L122.315 38.6768L122.34 38.3472C122.381 37.7775 122.401 37.334 122.401 37.0166L122.413 36.5283C122.413 35.918 122.311 35.3768 122.108 34.9048C121.913 34.4328 121.815 34.1398 121.815 34.0259C121.815 33.4399 122.368 33.147 123.475 33.147H123.915C124.33 33.147 124.598 33.2568 124.72 33.4766C124.842 33.6882 124.903 33.9567 124.903 34.2822ZM130.738 37.5781V37.7734C130.738 38.0176 130.962 38.1396 131.41 38.1396H131.703L131.776 38.1274L132.374 38.0786C133.001 37.9891 133.408 37.9443 133.595 37.9443C134.482 37.9443 135.149 37.7775 135.597 37.4438C135.808 37.2811 135.914 36.9922 135.914 36.5771V36.4429C135.914 35.8325 135.711 35.3483 135.304 34.9902C134.905 34.6322 134.425 34.4531 133.863 34.4531H133.778L133.705 34.4653C132.915 34.4653 132.223 34.799 131.629 35.4663C131.035 36.1336 130.738 36.8376 130.738 37.5781ZM133.399 45.1587H133.131C131.576 45.1587 130.34 44.6663 129.42 43.6816C128.5 42.6888 128.041 41.3664 128.041 39.7144V39.1772C128.041 38.3879 128.195 37.5863 128.504 36.7725C129.131 35.1449 130.152 34.0218 131.568 33.4033C132.317 33.0697 133.078 32.9028 133.851 32.9028H134.376C135.442 32.9028 136.341 33.2609 137.074 33.9771C137.814 34.6851 138.185 35.6006 138.185 36.7236V36.9678C138.185 37.7653 137.867 38.3309 137.232 38.6646C136.793 38.9006 135.768 39.1366 134.156 39.3726C132.545 39.6086 131.666 39.751 131.52 39.7998C131.031 39.9707 130.787 40.2962 130.787 40.7764C130.787 41.4437 131.072 42.0133 131.642 42.4854C132.211 42.9574 132.976 43.1934 133.937 43.1934C134.384 43.1934 134.994 43.0713 135.768 42.8271C136.541 42.583 136.988 42.4609 137.11 42.4609C137.525 42.4609 137.733 42.64 137.733 42.998C137.733 43.4782 137.265 43.9583 136.329 44.4385C135.393 44.9186 134.417 45.1587 133.399 45.1587ZM152.04 43.5352C152.04 44.1374 151.515 44.4385 150.465 44.4385C149.871 44.4385 149.472 44.2961 149.269 44.0112C149.171 43.8729 149.122 43.5474 149.122 43.0347L149.085 42.2534C149.028 41.3989 149 40.5404 149 39.6777C149 37.8141 148.837 36.5649 148.512 35.9302C148.194 35.2873 147.657 34.9658 146.9 34.9658C146.396 34.9658 145.928 35.1164 145.497 35.4175C145.073 35.7186 144.748 36.1377 144.52 36.6748C144.048 37.7734 143.812 39.8039 143.812 42.7661C143.812 43.4416 143.682 43.9176 143.421 44.1943C143.169 44.471 142.844 44.6094 142.445 44.6094H142.201C141.289 44.6094 140.833 44.2472 140.833 43.5229V43.23C140.833 43.1405 140.882 42.9451 140.98 42.644L141.175 42.0825C141.371 41.4233 141.468 40.0114 141.468 37.8467L141.529 34.2212C141.529 33.7573 141.782 33.5254 142.286 33.5254C142.791 33.5254 143.287 33.6922 143.775 34.0259C144.272 34.3595 144.585 34.5264 144.715 34.5264C144.854 34.5264 145.094 34.4328 145.436 34.2456C146.583 33.619 147.503 33.3057 148.194 33.3057H148.512C149.757 33.3057 150.632 33.8672 151.136 34.9902C151.38 35.5192 151.502 36.6585 151.502 38.4082V38.4937C151.502 38.6401 151.498 38.7866 151.49 38.9331C151.49 39.3319 151.49 39.5394 151.49 39.5557C151.49 39.7103 151.49 39.8608 151.49 40.0073C151.49 40.1213 151.49 40.2311 151.49 40.3369C151.49 40.9635 151.511 41.3908 151.551 41.6187C151.608 41.9279 151.702 42.2493 151.832 42.583C151.97 42.9492 152.04 43.2666 152.04 43.5352ZM156.983 39.0796V40.0073C156.983 40.9757 157.203 41.7855 157.643 42.4365C158.09 43.0794 158.615 43.4009 159.217 43.4009H159.559C160.487 43.4009 161.203 43.0306 161.708 42.29C162.22 41.5495 162.477 40.4468 162.477 38.9819C162.493 38.8029 162.501 38.6727 162.501 38.5913L162.525 38.3472L162.538 37.8345V36.9678C162.538 35.3076 161.874 34.4775 160.548 34.4775H160.072C159.209 34.4775 158.477 34.9129 157.875 35.7837C157.28 36.6545 156.983 37.7531 156.983 39.0796ZM154.64 39.6411C154.64 38.7948 154.79 37.9321 155.091 37.0532C155.392 36.1743 155.816 35.4256 156.361 34.8071C156.906 34.1805 157.521 33.7288 158.204 33.4521C158.888 33.1673 159.697 33.0249 160.633 33.0249C161.577 33.0249 162.163 32.854 162.391 32.5122C162.619 32.1623 162.733 31.3932 162.733 30.2051C162.733 29.9854 162.696 29.6924 162.623 29.3262C162.55 28.96 162.513 28.7484 162.513 28.6914C162.513 28.3415 162.664 28.0241 162.965 27.7393C163.266 27.4463 163.661 27.2998 164.149 27.2998H164.393C164.776 27.2998 165.06 27.3893 165.248 27.5684C165.435 27.7474 165.528 28.1217 165.528 28.6914V29.8267L165.504 30.4004C165.496 30.5957 165.492 30.8805 165.492 31.2549C165.492 31.6211 165.431 32.8011 165.309 34.7949C165.187 36.7887 165.125 38.16 165.125 38.9087L165.113 39.2017C165.105 39.397 165.101 39.5841 165.101 39.7632L165.089 40.0439C165.089 40.0439 165.089 40.3613 165.089 40.9961C165.089 41.818 165.154 42.4365 165.284 42.8516C165.414 43.2666 165.479 43.5636 165.479 43.7427C165.479 43.9217 165.378 44.1089 165.174 44.3042C164.971 44.4995 164.653 44.5972 164.222 44.5972C163.799 44.5972 163.388 44.528 162.989 44.3896C162.59 44.2432 162.298 44.1699 162.11 44.1699C161.923 44.1699 161.679 44.2269 161.378 44.3408C160.466 44.6745 159.632 44.8413 158.875 44.8413C158.859 44.8413 158.843 44.8413 158.827 44.8413H158.546C157.317 44.8413 156.357 44.3937 155.665 43.4985C154.981 42.5952 154.64 41.4111 154.64 39.9463V39.6411ZM169.325 28.0322C169.325 27.4382 169.882 27.1411 170.997 27.1411H171.217C171.681 27.1411 171.998 27.255 172.169 27.4829C172.34 27.7026 172.425 28.134 172.425 28.7769L172.328 30.5957C172.303 30.8805 172.291 31.0352 172.291 31.0596L172.267 31.5234C172.25 31.8245 172.234 32.1297 172.218 32.439L172.181 32.9028L172.145 33.5986C172.014 36.0726 171.949 37.8996 171.949 39.0796C171.949 40.2515 172.002 41.0938 172.108 41.6064C172.214 42.1191 172.381 42.5545 172.608 42.9126C172.836 43.2707 172.95 43.5067 172.95 43.6206V43.7671C172.95 44.1252 172.771 44.41 172.413 44.6216C172.063 44.8332 171.587 44.939 170.985 44.939H170.35C169.976 44.939 169.646 44.8332 169.361 44.6216C169.085 44.4019 168.946 44.1536 168.946 43.877V43.5474L169.02 43.0347C169.117 42.3267 169.174 41.7977 169.19 41.4478C169.215 41.0897 169.251 40.5973 169.3 39.9707C169.349 39.3359 169.426 37.9891 169.532 35.9302C169.646 33.8631 169.703 32.7523 169.703 32.5977L169.752 31.6821L169.776 30.7788C169.776 29.9162 169.699 29.3018 169.544 28.9355C169.398 28.5612 169.325 28.2601 169.325 28.0322ZM179.872 44.9512C179.872 44.528 179.583 43.7874 179.005 42.7295C178.427 41.6634 177.943 40.6706 177.552 39.751C176.218 36.6178 175.55 34.8071 175.55 34.3188C175.55 34.0991 175.676 33.8997 175.929 33.7207C176.189 33.5417 176.62 33.4521 177.223 33.4521C177.825 33.4521 178.248 33.7085 178.492 34.2212C178.517 34.2782 178.602 34.6322 178.749 35.2832C179.855 39.3278 180.547 41.4478 180.824 41.6431C181.247 41.6431 181.825 40.6543 182.557 38.6768C183.054 37.334 183.359 36.2069 183.473 35.2954C183.595 34.384 183.692 33.859 183.766 33.7207C183.993 33.2975 184.465 33.0859 185.182 33.0859C185.906 33.0859 186.268 33.3667 186.268 33.9282C186.268 34.327 186.122 34.86 185.829 35.5273C185.536 36.1947 185.259 36.9189 184.999 37.7002C183.509 42.1598 182.431 44.9756 181.764 46.1475C181.096 47.3275 180.392 48.2552 179.652 48.9307C178.911 49.6143 178.167 49.9561 177.418 49.9561C176.677 49.9561 176.307 49.7445 176.307 49.3213C176.307 48.9469 176.686 48.6051 177.442 48.2959C178.207 47.9867 178.74 47.6286 179.042 47.2217C179.595 46.4811 179.872 45.7243 179.872 44.9512ZM188.355 43.3643C188.355 42.9574 188.482 42.64 188.734 42.4121C188.986 42.1842 189.316 42.0703 189.723 42.0703H190.174C190.589 42.0703 190.895 42.168 191.09 42.3633C191.285 42.5586 191.383 42.937 191.383 43.4985V43.6816C191.383 44.7233 191.102 45.6999 190.541 46.6113C189.816 47.7913 189.165 48.3813 188.587 48.3813H188.502C188.16 48.3813 187.989 48.2349 187.989 47.9419C187.989 47.8361 188.164 47.5187 188.514 46.9897C188.864 46.4689 189.039 46.0783 189.039 45.8179C189.039 45.5656 188.929 45.2197 188.709 44.7803C188.49 44.3408 188.38 44.0112 188.38 43.7915L188.355 43.6206V43.3643ZM203.614 37.5781V37.7734C203.614 38.0176 203.838 38.1396 204.286 38.1396H204.579L204.652 38.1274L205.25 38.0786C205.877 37.9891 206.284 37.9443 206.471 37.9443C207.358 37.9443 208.025 37.7775 208.473 37.4438C208.684 37.2811 208.79 36.9922 208.79 36.5771V36.4429C208.79 35.8325 208.587 35.3483 208.18 34.9902C207.781 34.6322 207.301 34.4531 206.739 34.4531H206.654L206.581 34.4653C205.791 34.4653 205.099 34.799 204.505 35.4663C203.911 36.1336 203.614 36.8376 203.614 37.5781ZM206.275 45.1587H206.007C204.452 45.1587 203.215 44.6663 202.296 43.6816C201.376 42.6888 200.917 41.3664 200.917 39.7144V39.1772C200.917 38.3879 201.071 37.5863 201.38 36.7725C202.007 35.1449 203.028 34.0218 204.444 33.4033C205.193 33.0697 205.954 32.9028 206.727 32.9028H207.252C208.318 32.9028 209.217 33.2609 209.95 33.9771C210.69 34.6851 211.061 35.6006 211.061 36.7236V36.9678C211.061 37.7653 210.743 38.3309 210.108 38.6646C209.669 38.9006 208.644 39.1366 207.032 39.3726C205.421 39.6086 204.542 39.751 204.396 39.7998C203.907 39.9707 203.663 40.2962 203.663 40.7764C203.663 41.4437 203.948 42.0133 204.518 42.4854C205.087 42.9574 205.852 43.1934 206.812 43.1934C207.26 43.1934 207.87 43.0713 208.644 42.8271C209.417 42.583 209.864 42.4609 209.986 42.4609C210.401 42.4609 210.609 42.64 210.609 42.998C210.609 43.4782 210.141 43.9583 209.205 44.4385C208.269 44.9186 207.293 45.1587 206.275 45.1587ZM215.638 45.8911H215.357C214.951 45.8911 214.605 45.7731 214.32 45.5371C214.043 45.3011 213.905 45.0203 213.905 44.6948C213.905 44.3693 214.002 43.9543 214.198 43.4497C214.401 42.937 214.548 42.3145 214.637 41.582C214.735 40.8415 214.784 39.7591 214.784 38.335C214.784 36.9108 214.715 36.0034 214.576 35.6128C214.552 35.5477 214.438 35.332 214.234 34.9658C214.031 34.5915 213.929 34.2741 213.929 34.0137C213.929 33.7533 214.063 33.4196 214.332 33.0127C214.609 32.6058 214.792 32.3047 214.881 32.1094C215.98 29.79 216.554 28.6019 216.603 28.5449C217.449 27.5602 218.592 27.0679 220.033 27.0679C220.7 27.0679 221.213 27.1818 221.571 27.4097C221.929 27.6375 222.108 27.9346 222.108 28.3008C222.108 28.6589 221.896 28.9193 221.473 29.082C221.359 29.1227 221.209 29.1431 221.021 29.1431C220.883 29.1349 220.724 29.1227 220.545 29.1064C220.122 29.0576 219.813 29.0332 219.618 29.0332C219.089 29.0332 218.657 29.2611 218.324 29.7168C217.998 30.1644 217.835 30.6812 217.835 31.2671C217.835 31.853 217.953 32.2803 218.189 32.5488C218.263 32.6302 218.609 32.8337 219.227 33.1592C219.854 33.4766 220.167 33.798 220.167 34.1235C220.167 34.3026 219.817 34.5793 219.117 34.9536C218.621 35.214 218.255 35.6779 218.019 36.3452C217.506 37.7775 217.25 39.6615 217.25 41.9971L217.481 44.0601C217.481 44.6216 217.315 45.0651 216.981 45.3906C216.655 45.7243 216.208 45.8911 215.638 45.8911ZM224.745 45.8911H224.464C224.057 45.8911 223.711 45.7731 223.426 45.5371C223.15 45.3011 223.011 45.0203 223.011 44.6948C223.011 44.3693 223.109 43.9543 223.304 43.4497C223.508 42.937 223.654 42.3145 223.744 41.582C223.841 40.8415 223.89 39.7591 223.89 38.335C223.89 36.9108 223.821 36.0034 223.683 35.6128C223.658 35.5477 223.544 35.332 223.341 34.9658C223.137 34.5915 223.036 34.2741 223.036 34.0137C223.036 33.7533 223.17 33.4196 223.438 33.0127C223.715 32.6058 223.898 32.3047 223.988 32.1094C225.086 29.79 225.66 28.6019 225.709 28.5449C226.555 27.5602 227.699 27.0679 229.139 27.0679C229.806 27.0679 230.319 27.1818 230.677 27.4097C231.035 27.6375 231.214 27.9346 231.214 28.3008C231.214 28.6589 231.003 28.9193 230.58 29.082C230.466 29.1227 230.315 29.1431 230.128 29.1431C229.99 29.1349 229.831 29.1227 229.652 29.1064C229.229 29.0576 228.919 29.0332 228.724 29.0332C228.195 29.0332 227.764 29.2611 227.43 29.7168C227.105 30.1644 226.942 30.6812 226.942 31.2671C226.942 31.853 227.06 32.2803 227.296 32.5488C227.369 32.6302 227.715 32.8337 228.333 33.1592C228.96 33.4766 229.273 33.798 229.273 34.1235C229.273 34.3026 228.924 34.5793 228.224 34.9536C227.727 35.214 227.361 35.6779 227.125 36.3452C226.612 37.7775 226.356 39.6615 226.356 41.9971L226.588 44.0601C226.588 44.6216 226.421 45.0651 226.087 45.3906C225.762 45.7243 225.314 45.8911 224.745 45.8911ZM236 29.1309V29.2773C236 29.6924 235.877 30.0464 235.633 30.3394C235.397 30.6242 235.031 30.7666 234.535 30.7666H234.339L233.961 30.7178C233.741 30.7178 233.53 30.616 233.326 30.4126C233.123 30.2091 233.021 29.904 233.021 29.4971V29.3506L233.082 28.9111C233.082 28.7402 233.184 28.5286 233.387 28.2764C233.599 28.0241 233.867 27.8979 234.193 27.8979L234.474 27.8613H234.718L235.06 27.9102C235.271 27.9102 235.479 28.016 235.682 28.2275C235.894 28.431 236 28.7321 236 29.1309ZM235.426 34.2822L235.292 37.5659L235.267 37.8955L235.23 38.8965V39.3726C235.23 40.5444 235.263 41.3135 235.328 41.6797C235.401 42.0459 235.536 42.404 235.731 42.7539C235.926 43.0957 236.024 43.3439 236.024 43.4985V43.6084C236.024 44.0072 235.82 44.3245 235.414 44.5605C235.007 44.7965 234.453 44.9146 233.753 44.9146H233.448C233.041 44.9146 232.732 44.825 232.521 44.646C232.309 44.4588 232.203 44.2594 232.203 44.0479V43.7793C232.203 43.6735 232.297 43.2992 232.484 42.6562C232.671 42.0052 232.765 41.1222 232.765 40.0073C232.789 39.6899 232.801 39.4702 232.801 39.3481L232.838 38.6768L232.862 38.3472C232.903 37.7775 232.923 37.334 232.923 37.0166L232.936 36.5283C232.936 35.918 232.834 35.3768 232.63 34.9048C232.435 34.4328 232.337 34.1398 232.337 34.0259C232.337 33.4399 232.891 33.147 233.998 33.147H234.437C234.852 33.147 235.121 33.2568 235.243 33.4766C235.365 33.6882 235.426 33.9567 235.426 34.2822ZM238.648 39.9219V39.3604C238.648 38.335 238.807 37.4276 239.125 36.6382C239.735 35.1082 240.671 34.0503 241.932 33.4644C242.754 33.0737 243.604 32.8784 244.483 32.8784H244.752C245.72 32.8784 246.522 33.0697 247.157 33.4521C247.792 33.8346 248.109 34.3026 248.109 34.856C248.109 35.4989 247.8 35.8203 247.181 35.8203C247.067 35.8203 246.668 35.6413 245.985 35.2832C245.301 34.9333 244.74 34.7583 244.3 34.7583C244.292 34.7583 244.284 34.7583 244.276 34.7583C243.316 34.7583 242.563 35.1733 242.018 36.0034C241.48 36.8335 241.212 37.9159 241.212 39.2505C241.212 40.5851 241.497 41.5739 242.066 42.2168C242.644 42.8597 243.446 43.1812 244.471 43.1812C244.894 43.1812 245.476 43.0632 246.217 42.8271C246.957 42.583 247.409 42.4609 247.572 42.4609C247.905 42.4609 248.072 42.6359 248.072 42.9858C248.072 43.4578 247.604 43.9339 246.668 44.4141C245.733 44.8942 244.813 45.1343 243.91 45.1343C241.493 45.1343 239.894 44.1821 239.112 42.2778C238.803 41.521 238.648 40.7357 238.648 39.9219ZM254.652 29.1309V29.2773C254.652 29.6924 254.53 30.0464 254.286 30.3394C254.05 30.6242 253.683 30.7666 253.187 30.7666H252.992L252.613 30.7178C252.394 30.7178 252.182 30.616 251.979 30.4126C251.775 30.2091 251.673 29.904 251.673 29.4971V29.3506L251.734 28.9111C251.734 28.7402 251.836 28.5286 252.04 28.2764C252.251 28.0241 252.52 27.8979 252.845 27.8979L253.126 27.8613H253.37L253.712 27.9102C253.924 27.9102 254.131 28.016 254.334 28.2275C254.546 28.431 254.652 28.7321 254.652 29.1309ZM254.078 34.2822L253.944 37.5659L253.919 37.8955L253.883 38.8965V39.3726C253.883 40.5444 253.915 41.3135 253.98 41.6797C254.054 42.0459 254.188 42.404 254.383 42.7539C254.579 43.0957 254.676 43.3439 254.676 43.4985V43.6084C254.676 44.0072 254.473 44.3245 254.066 44.5605C253.659 44.7965 253.106 44.9146 252.406 44.9146H252.101C251.694 44.9146 251.384 44.825 251.173 44.646C250.961 44.4588 250.855 44.2594 250.855 44.0479V43.7793C250.855 43.6735 250.949 43.2992 251.136 42.6562C251.323 42.0052 251.417 41.1222 251.417 40.0073C251.441 39.6899 251.454 39.4702 251.454 39.3481L251.49 38.6768L251.515 38.3472C251.555 37.7775 251.576 37.334 251.576 37.0166L251.588 36.5283C251.588 35.918 251.486 35.3768 251.283 34.9048C251.087 34.4328 250.99 34.1398 250.99 34.0259C250.99 33.4399 251.543 33.147 252.65 33.147H253.089C253.504 33.147 253.773 33.2568 253.895 33.4766C254.017 33.6882 254.078 33.9567 254.078 34.2822ZM259.913 37.5781V37.7734C259.913 38.0176 260.137 38.1396 260.584 38.1396H260.877L260.951 38.1274L261.549 38.0786C262.175 37.9891 262.582 37.9443 262.77 37.9443C263.657 37.9443 264.324 37.7775 264.771 37.4438C264.983 37.2811 265.089 36.9922 265.089 36.5771V36.4429C265.089 35.8325 264.885 35.3483 264.479 34.9902C264.08 34.6322 263.6 34.4531 263.038 34.4531H262.953L262.879 34.4653C262.09 34.4653 261.398 34.799 260.804 35.4663C260.21 36.1336 259.913 36.8376 259.913 37.5781ZM262.574 45.1587H262.306C260.751 45.1587 259.514 44.6663 258.595 43.6816C257.675 42.6888 257.215 41.3664 257.215 39.7144V39.1772C257.215 38.3879 257.37 37.5863 257.679 36.7725C258.306 35.1449 259.327 34.0218 260.743 33.4033C261.492 33.0697 262.253 32.9028 263.026 32.9028H263.551C264.617 32.9028 265.516 33.2609 266.249 33.9771C266.989 34.6851 267.359 35.6006 267.359 36.7236V36.9678C267.359 37.7653 267.042 38.3309 266.407 38.6646C265.968 38.9006 264.942 39.1366 263.331 39.3726C261.72 39.6086 260.841 39.751 260.694 39.7998C260.206 39.9707 259.962 40.2962 259.962 40.7764C259.962 41.4437 260.247 42.0133 260.816 42.4854C261.386 42.9574 262.151 43.1934 263.111 43.1934C263.559 43.1934 264.169 43.0713 264.942 42.8271C265.715 42.583 266.163 42.4609 266.285 42.4609C266.7 42.4609 266.908 42.64 266.908 42.998C266.908 43.4782 266.44 43.9583 265.504 44.4385C264.568 44.9186 263.591 45.1587 262.574 45.1587ZM281.214 43.5352C281.214 44.1374 280.689 44.4385 279.64 44.4385C279.046 44.4385 278.647 44.2961 278.443 44.0112C278.346 43.8729 278.297 43.5474 278.297 43.0347L278.26 42.2534C278.203 41.3989 278.175 40.5404 278.175 39.6777C278.175 37.8141 278.012 36.5649 277.687 35.9302C277.369 35.2873 276.832 34.9658 276.075 34.9658C275.571 34.9658 275.103 35.1164 274.671 35.4175C274.248 35.7186 273.923 36.1377 273.695 36.6748C273.223 37.7734 272.987 39.8039 272.987 42.7661C272.987 43.4416 272.857 43.9176 272.596 44.1943C272.344 44.471 272.018 44.6094 271.62 44.6094H271.375C270.464 44.6094 270.008 44.2472 270.008 43.5229V43.23C270.008 43.1405 270.057 42.9451 270.155 42.644L270.35 42.0825C270.545 41.4233 270.643 40.0114 270.643 37.8467L270.704 34.2212C270.704 33.7573 270.956 33.5254 271.461 33.5254C271.965 33.5254 272.462 33.6922 272.95 34.0259C273.447 34.3595 273.76 34.5264 273.89 34.5264C274.028 34.5264 274.269 34.4328 274.61 34.2456C275.758 33.619 276.677 33.3057 277.369 33.3057H277.687C278.932 33.3057 279.806 33.8672 280.311 34.9902C280.555 35.5192 280.677 36.6585 280.677 38.4082V38.4937C280.677 38.6401 280.673 38.7866 280.665 38.9331C280.665 39.3319 280.665 39.5394 280.665 39.5557C280.665 39.7103 280.665 39.8608 280.665 40.0073C280.665 40.1213 280.665 40.2311 280.665 40.3369C280.665 40.9635 280.685 41.3908 280.726 41.6187C280.783 41.9279 280.877 42.2493 281.007 42.583C281.145 42.9492 281.214 43.2666 281.214 43.5352ZM290.382 43.6938C290.382 44.0194 290.182 44.3123 289.784 44.5728C289.393 44.825 288.86 44.9512 288.185 44.9512C286.923 44.9512 286.036 44.4832 285.523 43.5474C285.206 42.9614 285.047 41.5902 285.047 39.4336C285.047 37.277 285.011 36.0238 284.938 35.6738C284.864 35.3239 284.661 34.9821 284.327 34.6484C283.993 34.3148 283.827 34.0584 283.827 33.8794C283.827 33.8143 284.221 33.387 285.011 32.5977C285.182 32.4268 285.353 32.0483 285.523 31.4624C285.702 30.8765 285.829 30.4899 285.902 30.3027C286.146 29.7168 286.467 29.4238 286.866 29.4238H287.062C287.411 29.4238 287.66 29.5581 287.806 29.8267C287.863 29.9325 287.949 30.3149 288.062 30.9741C288.185 31.6252 288.323 32.0443 288.478 32.2314C288.632 32.4186 289.019 32.6261 289.637 32.854C290.264 33.0737 290.577 33.3097 290.577 33.562V33.6963C290.577 34.0218 290.219 34.2985 289.503 34.5264C288.795 34.7461 288.339 35.1001 288.136 35.5884C287.737 36.5731 287.538 38.1763 287.538 40.3979C287.538 41.4396 287.717 42.1476 288.075 42.522C288.294 42.7498 288.734 42.9085 289.393 42.998C290.052 43.0876 290.382 43.3195 290.382 43.6938ZM293.385 43.3643C293.385 42.9574 293.511 42.64 293.763 42.4121C294.015 42.1842 294.345 42.0703 294.752 42.0703H295.204C295.619 42.0703 295.924 42.168 296.119 42.3633C296.314 42.5586 296.412 42.937 296.412 43.4985V43.6816C296.412 44.7233 296.131 45.6999 295.57 46.6113C294.846 47.7913 294.194 48.3813 293.617 48.3813H293.531C293.189 48.3813 293.019 48.2349 293.019 47.9419C293.019 47.8361 293.194 47.5187 293.543 46.9897C293.893 46.4689 294.068 46.0783 294.068 45.8179C294.068 45.5656 293.958 45.2197 293.739 44.7803C293.519 44.3408 293.409 44.0112 293.409 43.7915L293.385 43.6206V43.3643ZM307.325 38.1885C306.829 37.6839 306.581 36.9759 306.581 36.0645C306.581 35.153 306.987 34.3717 307.801 33.7207C308.615 33.0615 309.624 32.7319 310.829 32.7319H311.146C312.212 32.7319 313.058 32.8825 313.685 33.1836C314.32 33.4847 314.637 33.9364 314.637 34.5386C314.637 35.1326 314.373 35.4297 313.844 35.4297C313.705 35.4297 313.315 35.2669 312.672 34.9414C312.029 34.6077 311.423 34.4409 310.853 34.4409C310.283 34.4409 309.824 34.5711 309.474 34.8315C309.132 35.0838 308.961 35.4338 308.961 35.8813C308.961 36.3289 309.201 36.7196 309.681 37.0532C309.958 37.2485 310.609 37.5578 311.634 37.981C312.668 38.4041 313.404 38.811 313.844 39.2017C314.552 39.8283 314.906 40.6299 314.906 41.6064C314.906 42.583 314.491 43.4212 313.661 44.1211C312.831 44.8128 311.752 45.1587 310.426 45.1587H310.108C308.774 45.1587 307.773 44.9674 307.105 44.585C306.438 44.1943 306.104 43.6898 306.104 43.0713C306.104 42.4447 306.365 42.1313 306.886 42.1313C307.057 42.1313 307.5 42.3511 308.216 42.7905C308.941 43.23 309.649 43.4497 310.34 43.4497C311.04 43.4497 311.565 43.3032 311.915 43.0103C312.265 42.7091 312.44 42.3348 312.44 41.8872C312.44 41.4315 312.22 41.0327 311.781 40.6909C311.545 40.5037 310.869 40.166 309.754 39.6777C308.639 39.1813 307.83 38.6849 307.325 38.1885ZM319.654 39.8486C319.654 40.9147 319.898 41.8018 320.387 42.5098C320.875 43.2178 321.473 43.5718 322.181 43.5718H322.547C323.386 43.5718 324.094 43.1486 324.671 42.3022C325.257 41.4559 325.55 40.3288 325.55 38.9209V38.1152C325.55 37.0247 325.31 36.1336 324.83 35.4419C324.358 34.742 323.748 34.3921 322.999 34.3921H322.755C321.884 34.3921 321.152 34.8234 320.558 35.686C319.972 36.5487 319.679 37.5781 319.679 38.7744L319.654 39.0552V39.8486ZM322.413 45.2319H322.022C320.598 45.2319 319.439 44.7355 318.543 43.7427C317.648 42.7498 317.201 41.342 317.201 39.519L317.213 39.3115C317.213 37.3096 317.742 35.7308 318.8 34.5752C319.353 33.9648 319.984 33.5173 320.692 33.2324C321.408 32.9395 322.088 32.793 322.73 32.793H323.329C324.045 32.793 324.732 32.9517 325.392 33.269C327.28 34.1805 328.224 35.8976 328.224 38.4204V38.6157C328.215 39.4377 328.081 40.2718 327.821 41.1182C327.3 42.7865 326.299 43.9665 324.818 44.6582C323.996 45.0407 323.194 45.2319 322.413 45.2319ZM331.434 28.0322C331.434 27.4382 331.992 27.1411 333.106 27.1411H333.326C333.79 27.1411 334.107 27.255 334.278 27.4829C334.449 27.7026 334.535 28.134 334.535 28.7769L334.437 30.5957C334.413 30.8805 334.4 31.0352 334.4 31.0596L334.376 31.5234C334.36 31.8245 334.343 32.1297 334.327 32.439L334.291 32.9028L334.254 33.5986C334.124 36.0726 334.059 37.8996 334.059 39.0796C334.059 40.2515 334.111 41.0938 334.217 41.6064C334.323 42.1191 334.49 42.5545 334.718 42.9126C334.946 43.2707 335.06 43.5067 335.06 43.6206V43.7671C335.06 44.1252 334.881 44.41 334.522 44.6216C334.173 44.8332 333.696 44.939 333.094 44.939H332.459C332.085 44.939 331.756 44.8332 331.471 44.6216C331.194 44.4019 331.056 44.1536 331.056 43.877V43.5474L331.129 43.0347C331.227 42.3267 331.284 41.7977 331.3 41.4478C331.324 41.0897 331.361 40.5973 331.41 39.9707C331.458 39.3359 331.536 37.9891 331.642 35.9302C331.756 33.8631 331.812 32.7523 331.812 32.5977L331.861 31.6821L331.886 30.7788C331.886 29.9162 331.808 29.3018 331.654 28.9355C331.507 28.5612 331.434 28.2601 331.434 28.0322ZM338.014 34.0259C338.014 33.5132 338.445 33.2568 339.308 33.2568H339.588C340.125 33.2568 340.488 33.4725 340.675 33.9038C340.862 34.3351 340.956 35.1408 340.956 36.3208L340.809 40.3979C340.809 42.2941 341.489 43.2422 342.848 43.2422C343.344 43.2422 343.82 43.0672 344.276 42.7173C344.732 42.3674 345.069 41.9482 345.289 41.46C345.769 40.3857 346.009 38.4611 346.009 35.686L345.985 35.1489V34.6729C345.985 34.2415 346.083 33.9282 346.278 33.7329C346.473 33.5376 346.815 33.4399 347.303 33.4399C347.792 33.4399 348.113 33.5579 348.268 33.7939C348.422 34.0299 348.5 34.4124 348.5 34.9414L348.475 35.5884L348.426 38.4692C348.426 38.9331 348.455 39.6452 348.512 40.6055C348.569 41.5658 348.63 42.2697 348.695 42.7173C348.76 43.1567 348.792 43.4172 348.792 43.4985C348.792 44.2228 348.259 44.585 347.193 44.585C346.827 44.585 346.461 44.4507 346.095 44.1821C345.737 43.9054 345.48 43.7671 345.326 43.7671C345.179 43.7671 344.927 43.8566 344.569 44.0356C343.552 44.5483 342.685 44.8047 341.969 44.8047H341.664C340.5 44.8047 339.645 44.4466 339.1 43.7305C338.555 43.0143 338.282 41.7244 338.282 39.8608L338.404 36.1621C338.404 35.6982 338.339 35.2547 338.209 34.8315C338.079 34.4084 338.014 34.1398 338.014 34.0259ZM358.204 43.6938C358.204 44.0194 358.005 44.3123 357.606 44.5728C357.215 44.825 356.682 44.9512 356.007 44.9512C354.745 44.9512 353.858 44.4832 353.346 43.5474C353.028 42.9614 352.87 41.5902 352.87 39.4336C352.87 37.277 352.833 36.0238 352.76 35.6738C352.687 35.3239 352.483 34.9821 352.149 34.6484C351.816 34.3148 351.649 34.0584 351.649 33.8794C351.649 33.8143 352.044 33.387 352.833 32.5977C353.004 32.4268 353.175 32.0483 353.346 31.4624C353.525 30.8765 353.651 30.4899 353.724 30.3027C353.968 29.7168 354.29 29.4238 354.688 29.4238H354.884C355.234 29.4238 355.482 29.5581 355.628 29.8267C355.685 29.9325 355.771 30.3149 355.885 30.9741C356.007 31.6252 356.145 32.0443 356.3 32.2314C356.454 32.4186 356.841 32.6261 357.459 32.854C358.086 33.0737 358.399 33.3097 358.399 33.562V33.6963C358.399 34.0218 358.041 34.2985 357.325 34.5264C356.617 34.7461 356.161 35.1001 355.958 35.5884C355.559 36.5731 355.36 38.1763 355.36 40.3979C355.36 41.4396 355.539 42.1476 355.897 42.522C356.117 42.7498 356.556 42.9085 357.215 42.998C357.875 43.0876 358.204 43.3195 358.204 43.6938ZM364.979 29.1309V29.2773C364.979 29.6924 364.857 30.0464 364.613 30.3394C364.377 30.6242 364.011 30.7666 363.514 30.7666H363.319L362.94 30.7178C362.721 30.7178 362.509 30.616 362.306 30.4126C362.102 30.2091 362 29.904 362 29.4971V29.3506L362.062 28.9111C362.062 28.7402 362.163 28.5286 362.367 28.2764C362.578 28.0241 362.847 27.8979 363.172 27.8979L363.453 27.8613H363.697L364.039 27.9102C364.251 27.9102 364.458 28.016 364.662 28.2275C364.873 28.431 364.979 28.7321 364.979 29.1309ZM364.405 34.2822L364.271 37.5659L364.247 37.8955L364.21 38.8965V39.3726C364.21 40.5444 364.243 41.3135 364.308 41.6797C364.381 42.0459 364.515 42.404 364.71 42.7539C364.906 43.0957 365.003 43.3439 365.003 43.4985V43.6084C365.003 44.0072 364.8 44.3245 364.393 44.5605C363.986 44.7965 363.433 44.9146 362.733 44.9146H362.428C362.021 44.9146 361.712 44.825 361.5 44.646C361.288 44.4588 361.183 44.2594 361.183 44.0479V43.7793C361.183 43.6735 361.276 43.2992 361.463 42.6562C361.651 42.0052 361.744 41.1222 361.744 40.0073C361.769 39.6899 361.781 39.4702 361.781 39.3481L361.817 38.6768L361.842 38.3472C361.882 37.7775 361.903 37.334 361.903 37.0166L361.915 36.5283C361.915 35.918 361.813 35.3768 361.61 34.9048C361.415 34.4328 361.317 34.1398 361.317 34.0259C361.317 33.4399 361.87 33.147 362.977 33.147H363.417C363.832 33.147 364.1 33.2568 364.222 33.4766C364.344 33.6882 364.405 33.9567 364.405 34.2822ZM370.143 39.8486C370.143 40.9147 370.387 41.8018 370.875 42.5098C371.363 43.2178 371.961 43.5718 372.669 43.5718H373.036C373.874 43.5718 374.582 43.1486 375.16 42.3022C375.746 41.4559 376.039 40.3288 376.039 38.9209V38.1152C376.039 37.0247 375.799 36.1336 375.318 35.4419C374.846 34.742 374.236 34.3921 373.487 34.3921H373.243C372.372 34.3921 371.64 34.8234 371.046 35.686C370.46 36.5487 370.167 37.5781 370.167 38.7744L370.143 39.0552V39.8486ZM372.901 45.2319H372.511C371.087 45.2319 369.927 44.7355 369.032 43.7427C368.137 42.7498 367.689 41.342 367.689 39.519L367.701 39.3115C367.701 37.3096 368.23 35.7308 369.288 34.5752C369.841 33.9648 370.472 33.5173 371.18 33.2324C371.896 32.9395 372.576 32.793 373.219 32.793H373.817C374.533 32.793 375.221 32.9517 375.88 33.269C377.768 34.1805 378.712 35.8976 378.712 38.4204V38.6157C378.704 39.4377 378.569 40.2718 378.309 41.1182C377.788 42.7865 376.787 43.9665 375.306 44.6582C374.484 45.0407 373.683 45.2319 372.901 45.2319ZM392.445 43.5352C392.445 44.1374 391.92 44.4385 390.87 44.4385C390.276 44.4385 389.877 44.2961 389.674 44.0112C389.576 43.8729 389.527 43.5474 389.527 43.0347L389.491 42.2534C389.434 41.3989 389.405 40.5404 389.405 39.6777C389.405 37.8141 389.243 36.5649 388.917 35.9302C388.6 35.2873 388.062 34.9658 387.306 34.9658C386.801 34.9658 386.333 35.1164 385.902 35.4175C385.479 35.7186 385.153 36.1377 384.925 36.6748C384.453 37.7734 384.217 39.8039 384.217 42.7661C384.217 43.4416 384.087 43.9176 383.827 44.1943C383.574 44.471 383.249 44.6094 382.85 44.6094H382.606C381.694 44.6094 381.239 44.2472 381.239 43.5229V43.23C381.239 43.1405 381.288 42.9451 381.385 42.644L381.581 42.0825C381.776 41.4233 381.874 40.0114 381.874 37.8467L381.935 34.2212C381.935 33.7573 382.187 33.5254 382.691 33.5254C383.196 33.5254 383.692 33.6922 384.181 34.0259C384.677 34.3595 384.99 34.5264 385.121 34.5264C385.259 34.5264 385.499 34.4328 385.841 34.2456C386.988 33.619 387.908 33.3057 388.6 33.3057H388.917C390.162 33.3057 391.037 33.8672 391.542 34.9902C391.786 35.5192 391.908 36.6585 391.908 38.4082V38.4937C391.908 38.6401 391.904 38.7866 391.896 38.9331C391.896 39.3319 391.896 39.5394 391.896 39.5557C391.896 39.7103 391.896 39.8608 391.896 40.0073C391.896 40.1213 391.896 40.2311 391.896 40.3369C391.896 40.9635 391.916 41.3908 391.957 41.6187C392.014 41.9279 392.107 42.2493 392.237 42.583C392.376 42.9492 392.445 43.2666 392.445 43.5352ZM402.54 37.5659V38.0054C402.54 38.575 402.394 38.8924 402.101 38.9575C401.816 39.0226 400.681 39.0552 398.695 39.0552H398.426L398.146 39.0674H397.608L397.523 39.0796H396.803L396.437 39.0918H395.899C395.452 39.0918 395.228 38.8802 395.228 38.457V38.3716L395.24 38.2861C395.24 37.6595 395.411 37.3055 395.753 37.2241C395.965 37.1753 397.043 37.1509 398.988 37.1509L401.075 37.1143H401.966C402.349 37.1143 402.54 37.2648 402.54 37.5659ZM407.167 45.8911H406.886C406.479 45.8911 406.133 45.7731 405.848 45.5371C405.571 45.3011 405.433 45.0203 405.433 44.6948C405.433 44.3693 405.531 43.9543 405.726 43.4497C405.93 42.937 406.076 42.3145 406.166 41.582C406.263 40.8415 406.312 39.7591 406.312 38.335C406.312 36.9108 406.243 36.0034 406.104 35.6128C406.08 35.5477 405.966 35.332 405.763 34.9658C405.559 34.5915 405.458 34.2741 405.458 34.0137C405.458 33.7533 405.592 33.4196 405.86 33.0127C406.137 32.6058 406.32 32.3047 406.41 32.1094C407.508 29.79 408.082 28.6019 408.131 28.5449C408.977 27.5602 410.121 27.0679 411.561 27.0679C412.228 27.0679 412.741 27.1818 413.099 27.4097C413.457 27.6375 413.636 27.9346 413.636 28.3008C413.636 28.6589 413.425 28.9193 413.001 29.082C412.888 29.1227 412.737 29.1431 412.55 29.1431C412.411 29.1349 412.253 29.1227 412.074 29.1064C411.651 29.0576 411.341 29.0332 411.146 29.0332C410.617 29.0332 410.186 29.2611 409.852 29.7168C409.527 30.1644 409.364 30.6812 409.364 31.2671C409.364 31.853 409.482 32.2803 409.718 32.5488C409.791 32.6302 410.137 32.8337 410.755 33.1592C411.382 33.4766 411.695 33.798 411.695 34.1235C411.695 34.3026 411.345 34.5793 410.646 34.9536C410.149 35.214 409.783 35.6779 409.547 36.3452C409.034 37.7775 408.778 39.6615 408.778 41.9971L409.01 44.0601C409.01 44.6216 408.843 45.0651 408.509 45.3906C408.184 45.7243 407.736 45.8911 407.167 45.8911ZM416.334 39.8486C416.334 40.9147 416.578 41.8018 417.066 42.5098C417.555 43.2178 418.153 43.5718 418.861 43.5718H419.227C420.065 43.5718 420.773 43.1486 421.351 42.3022C421.937 41.4559 422.23 40.3288 422.23 38.9209V38.1152C422.23 37.0247 421.99 36.1336 421.51 35.4419C421.038 34.742 420.427 34.3921 419.679 34.3921H419.435C418.564 34.3921 417.831 34.8234 417.237 35.686C416.651 36.5487 416.358 37.5781 416.358 38.7744L416.334 39.0552V39.8486ZM419.093 45.2319H418.702C417.278 45.2319 416.118 44.7355 415.223 43.7427C414.328 42.7498 413.88 41.342 413.88 39.519L413.893 39.3115C413.893 37.3096 414.422 35.7308 415.479 34.5752C416.033 33.9648 416.664 33.5173 417.372 33.2324C418.088 32.9395 418.767 32.793 419.41 32.793H420.008C420.724 32.793 421.412 32.9517 422.071 33.269C423.959 34.1805 424.903 35.8976 424.903 38.4204V38.6157C424.895 39.4377 424.761 40.2718 424.5 41.1182C423.98 42.7865 422.979 43.9665 421.498 44.6582C420.676 45.0407 419.874 45.2319 419.093 45.2319ZM427.052 39.9219V39.3604C427.052 38.335 427.21 37.4276 427.528 36.6382C428.138 35.1082 429.074 34.0503 430.335 33.4644C431.157 33.0737 432.008 32.8784 432.887 32.8784H433.155C434.124 32.8784 434.925 33.0697 435.56 33.4521C436.195 33.8346 436.512 34.3026 436.512 34.856C436.512 35.4989 436.203 35.8203 435.584 35.8203C435.471 35.8203 435.072 35.6413 434.388 35.2832C433.705 34.9333 433.143 34.7583 432.704 34.7583C432.695 34.7583 432.687 34.7583 432.679 34.7583C431.719 34.7583 430.966 35.1733 430.421 36.0034C429.884 36.8335 429.615 37.9159 429.615 39.2505C429.615 40.5851 429.9 41.5739 430.47 42.2168C431.048 42.8597 431.849 43.1812 432.875 43.1812C433.298 43.1812 433.88 43.0632 434.62 42.8271C435.361 42.583 435.812 42.4609 435.975 42.4609C436.309 42.4609 436.476 42.6359 436.476 42.9858C436.476 43.4578 436.008 43.9339 435.072 44.4141C434.136 44.8942 433.216 45.1343 432.313 45.1343C429.896 45.1343 428.297 44.1821 427.516 42.2778C427.206 41.521 427.052 40.7357 427.052 39.9219ZM439.161 34.0259C439.161 33.5132 439.592 33.2568 440.455 33.2568H440.736C441.273 33.2568 441.635 33.4725 441.822 33.9038C442.009 34.3351 442.103 35.1408 442.103 36.3208L441.957 40.3979C441.957 42.2941 442.636 43.2422 443.995 43.2422C444.492 43.2422 444.968 43.0672 445.423 42.7173C445.879 42.3674 446.217 41.9482 446.437 41.46C446.917 40.3857 447.157 38.4611 447.157 35.686L447.132 35.1489V34.6729C447.132 34.2415 447.23 33.9282 447.425 33.7329C447.621 33.5376 447.962 33.4399 448.451 33.4399C448.939 33.4399 449.26 33.5579 449.415 33.7939C449.57 34.0299 449.647 34.4124 449.647 34.9414L449.623 35.5884L449.574 38.4692C449.574 38.9331 449.602 39.6452 449.659 40.6055C449.716 41.5658 449.777 42.2697 449.842 42.7173C449.907 43.1567 449.94 43.4172 449.94 43.4985C449.94 44.2228 449.407 44.585 448.341 44.585C447.975 44.585 447.608 44.4507 447.242 44.1821C446.884 43.9054 446.628 43.7671 446.473 43.7671C446.327 43.7671 446.074 43.8566 445.716 44.0356C444.699 44.5483 443.832 44.8047 443.116 44.8047H442.811C441.647 44.8047 440.793 44.4466 440.248 43.7305C439.702 43.0143 439.43 41.7244 439.43 39.8608L439.552 36.1621C439.552 35.6982 439.487 35.2547 439.356 34.8315C439.226 34.4084 439.161 34.1398 439.161 34.0259ZM453.883 38.1885C453.386 37.6839 453.138 36.9759 453.138 36.0645C453.138 35.153 453.545 34.3717 454.359 33.7207C455.173 33.0615 456.182 32.7319 457.386 32.7319H457.704C458.77 32.7319 459.616 32.8825 460.243 33.1836C460.877 33.4847 461.195 33.9364 461.195 34.5386C461.195 35.1326 460.93 35.4297 460.401 35.4297C460.263 35.4297 459.872 35.2669 459.229 34.9414C458.587 34.6077 457.98 34.4409 457.411 34.4409C456.841 34.4409 456.381 34.5711 456.031 34.8315C455.689 35.0838 455.519 35.4338 455.519 35.8813C455.519 36.3289 455.759 36.7196 456.239 37.0532C456.515 37.2485 457.167 37.5578 458.192 37.981C459.225 38.4041 459.962 38.811 460.401 39.2017C461.109 39.8283 461.463 40.6299 461.463 41.6064C461.463 42.583 461.048 43.4212 460.218 44.1211C459.388 44.8128 458.31 45.1587 456.983 45.1587H456.666C455.331 45.1587 454.33 44.9674 453.663 44.585C452.996 44.1943 452.662 43.6898 452.662 43.0713C452.662 42.4447 452.923 42.1313 453.443 42.1313C453.614 42.1313 454.058 42.3511 454.774 42.7905C455.498 43.23 456.206 43.4497 456.898 43.4497C457.598 43.4497 458.123 43.3032 458.473 43.0103C458.823 42.7091 458.998 42.3348 458.998 41.8872C458.998 41.4315 458.778 41.0327 458.338 40.6909C458.102 40.5037 457.427 40.166 456.312 39.6777C455.197 39.1813 454.387 38.6849 453.883 38.1885ZM466.31 37.5781V37.7734C466.31 38.0176 466.533 38.1396 466.981 38.1396H467.274L467.347 38.1274L467.945 38.0786C468.572 37.9891 468.979 37.9443 469.166 37.9443C470.053 37.9443 470.72 37.7775 471.168 37.4438C471.38 37.2811 471.485 36.9922 471.485 36.5771V36.4429C471.485 35.8325 471.282 35.3483 470.875 34.9902C470.476 34.6322 469.996 34.4531 469.435 34.4531H469.349L469.276 34.4653C468.486 34.4653 467.795 34.799 467.201 35.4663C466.607 36.1336 466.31 36.8376 466.31 37.5781ZM468.971 45.1587H468.702C467.148 45.1587 465.911 44.6663 464.991 43.6816C464.072 42.6888 463.612 41.3664 463.612 39.7144V39.1772C463.612 38.3879 463.766 37.5863 464.076 36.7725C464.702 35.1449 465.724 34.0218 467.14 33.4033C467.888 33.0697 468.649 32.9028 469.422 32.9028H469.947C471.013 32.9028 471.913 33.2609 472.645 33.9771C473.386 34.6851 473.756 35.6006 473.756 36.7236V36.9678C473.756 37.7653 473.438 38.3309 472.804 38.6646C472.364 38.9006 471.339 39.1366 469.728 39.3726C468.116 39.6086 467.237 39.751 467.091 39.7998C466.603 39.9707 466.358 40.2962 466.358 40.7764C466.358 41.4437 466.643 42.0133 467.213 42.4854C467.783 42.9574 468.548 43.1934 469.508 43.1934C469.955 43.1934 470.566 43.0713 471.339 42.8271C472.112 42.583 472.56 42.4609 472.682 42.4609C473.097 42.4609 473.304 42.64 473.304 42.998C473.304 43.4782 472.836 43.9583 471.9 44.4385C470.965 44.9186 469.988 45.1587 468.971 45.1587ZM478.517 39.0796V40.0073C478.517 40.9757 478.736 41.7855 479.176 42.4365C479.623 43.0794 480.148 43.4009 480.75 43.4009H481.092C482.02 43.4009 482.736 43.0306 483.241 42.29C483.753 41.5495 484.01 40.4468 484.01 38.9819C484.026 38.8029 484.034 38.6727 484.034 38.5913L484.059 38.3472L484.071 37.8345V36.9678C484.071 35.3076 483.408 34.4775 482.081 34.4775H481.605C480.742 34.4775 480.01 34.9129 479.408 35.7837C478.814 36.6545 478.517 37.7531 478.517 39.0796ZM476.173 39.6411C476.173 38.7948 476.323 37.9321 476.625 37.0532C476.926 36.1743 477.349 35.4256 477.894 34.8071C478.439 34.1805 479.054 33.7288 479.737 33.4521C480.421 33.1673 481.231 33.0249 482.167 33.0249C483.111 33.0249 483.696 32.854 483.924 32.5122C484.152 32.1623 484.266 31.3932 484.266 30.2051C484.266 29.9854 484.229 29.6924 484.156 29.3262C484.083 28.96 484.046 28.7484 484.046 28.6914C484.046 28.3415 484.197 28.0241 484.498 27.7393C484.799 27.4463 485.194 27.2998 485.682 27.2998H485.926C486.309 27.2998 486.594 27.3893 486.781 27.5684C486.968 27.7474 487.062 28.1217 487.062 28.6914V29.8267L487.037 30.4004C487.029 30.5957 487.025 30.8805 487.025 31.2549C487.025 31.6211 486.964 32.8011 486.842 34.7949C486.72 36.7887 486.659 38.16 486.659 38.9087L486.646 39.2017C486.638 39.397 486.634 39.5841 486.634 39.7632L486.622 40.0439C486.622 40.0439 486.622 40.3613 486.622 40.9961C486.622 41.818 486.687 42.4365 486.817 42.8516C486.948 43.2666 487.013 43.5636 487.013 43.7427C487.013 43.9217 486.911 44.1089 486.708 44.3042C486.504 44.4995 486.187 44.5972 485.755 44.5972C485.332 44.5972 484.921 44.528 484.522 44.3896C484.124 44.2432 483.831 44.1699 483.644 44.1699C483.456 44.1699 483.212 44.2269 482.911 44.3408C482 44.6745 481.166 44.8413 480.409 44.8413C480.392 44.8413 480.376 44.8413 480.36 44.8413H480.079C478.85 44.8413 477.89 44.3937 477.198 43.4985C476.515 42.5952 476.173 41.4111 476.173 39.9463V39.6411ZM491.944 45.1953H491.566C491.159 45.1953 490.842 45.1017 490.614 44.9146C490.394 44.7274 490.284 44.4792 490.284 44.1699C490.268 44.1048 490.26 44.0519 490.26 44.0112L490.235 43.8037V43.584L490.248 43.5352V43.4253C490.264 43.3602 490.272 43.3073 490.272 43.2666C490.272 42.9004 490.394 42.6156 490.638 42.4121C490.89 42.2005 491.167 42.0947 491.468 42.0947L491.725 42.0581H492.054C492.941 42.0581 493.385 42.522 493.385 43.4497V43.6206L493.336 44.0356C493.336 44.41 493.194 44.6989 492.909 44.9023C492.632 45.0977 492.311 45.1953 491.944 45.1953ZM514.747 30.9985L514.503 29.4727C514.503 28.9844 514.719 28.6182 515.15 28.374C515.589 28.1217 516.131 27.9956 516.773 27.9956H517.213C517.473 27.9956 517.717 28.077 517.945 28.2397C518.181 28.4025 518.299 28.61 518.299 28.8623C518.299 29.1146 518.194 29.4686 517.982 29.9243C517.77 30.3719 517.632 30.9456 517.567 31.6455C517.209 35.7389 517.03 38.9535 517.03 41.2891C517.03 41.8669 517.083 42.3063 517.188 42.6074L517.347 42.9736C517.51 43.3398 517.591 43.5758 517.591 43.6816C517.591 44.1292 517.445 44.4385 517.152 44.6094C516.859 44.7721 516.407 44.8535 515.797 44.8535C515.187 44.8535 514.702 44.7314 514.344 44.4873C513.994 44.235 513.819 43.9787 513.819 43.7183C513.819 43.4578 513.913 42.9777 514.1 42.2778C514.287 41.5698 514.381 40.634 514.381 39.4702C514.381 38.3065 514.226 37.6188 513.917 37.4072C513.608 37.1875 512.582 37.0776 510.841 37.0776C509.107 37.0776 508.025 37.2892 507.594 37.7124C507.162 38.1356 506.947 39.4458 506.947 41.6431C506.947 41.9523 506.963 42.2331 506.996 42.4854L507.057 42.8516C507.122 43.2259 507.154 43.4497 507.154 43.5229C507.154 44.3612 506.393 44.7803 504.872 44.7803C504.359 44.7803 503.993 44.6867 503.773 44.4995C503.561 44.3042 503.456 44.0885 503.456 43.8525C503.456 43.6084 503.565 43.2666 503.785 42.8271C504.013 42.3796 504.16 41.9157 504.225 41.4355C504.558 38.8314 504.725 35.5151 504.725 31.4868C504.725 31.0067 504.623 30.5306 504.42 30.0586C504.225 29.5785 504.127 29.2936 504.127 29.2041C504.127 28.4717 504.709 28.1055 505.873 28.1055C506.499 28.1055 506.979 28.2072 507.313 28.4106C507.655 28.6141 507.826 28.8379 507.826 29.082C507.826 29.318 507.781 29.6029 507.691 29.9365C507.602 30.2702 507.529 30.612 507.472 30.9619C507.415 31.3118 507.386 31.971 507.386 32.9395C507.386 33.9079 507.565 34.5264 507.923 34.7949C508.29 35.0635 509.372 35.1978 511.17 35.1978C512.977 35.1978 514.011 34.974 514.271 34.5264C514.588 33.973 514.747 32.797 514.747 30.9985ZM524.745 43.4619H525.062C525.729 43.4619 526.315 43.2381 526.82 42.7905C527.333 42.3348 527.589 41.8099 527.589 41.2158L527.613 41.0571V40.8984L527.638 40.52V39.8242C527.638 39.3522 527.398 39.1162 526.917 39.1162H526.368L526.283 39.1284L525.807 39.165C525.579 39.1976 525.416 39.2139 525.318 39.2139C524.659 39.2139 524.049 39.4621 523.487 39.9585C523.097 40.3084 522.901 40.8049 522.901 41.4478V41.6919C522.901 42.2371 523.076 42.6685 523.426 42.9858C523.784 43.3032 524.224 43.4619 524.745 43.4619ZM522.022 35.6616C521.477 35.6616 521.205 35.3117 521.205 34.6118C521.205 34.091 521.644 33.6393 522.523 33.2568C523.41 32.8662 524.33 32.6709 525.282 32.6709H525.892C526.714 32.6709 527.438 32.8255 528.065 33.1348C528.692 33.4359 529.168 33.8468 529.493 34.3677C529.827 34.8885 530.03 35.568 530.104 36.4062C530.12 36.6016 530.128 37.5496 530.128 39.2505C530.128 40.9513 530.148 41.932 530.189 42.1924C530.238 42.4447 530.368 42.7539 530.58 43.1201C530.799 43.4863 530.909 43.7874 530.909 44.0234C530.909 44.2594 530.795 44.4629 530.567 44.6338C530.348 44.7965 530.026 44.8779 529.603 44.8779C529.18 44.8779 528.72 44.7762 528.224 44.5728C527.727 44.3612 527.365 44.2554 527.137 44.2554C527.113 44.2554 526.706 44.4019 525.917 44.6948C525.127 44.9797 524.46 45.1221 523.915 45.1221H523.646C522.735 45.1221 521.957 44.8332 521.314 44.2554C520.68 43.6776 520.362 42.8556 520.362 41.7896C520.362 40.7235 520.712 39.8934 521.412 39.2993C522.112 38.6971 522.962 38.2861 523.963 38.0664C524.264 38.0013 524.765 37.9159 525.465 37.8101C526.165 37.7043 526.641 37.5944 526.893 37.4805C527.333 37.277 527.552 36.8945 527.552 36.333C527.552 35.7633 527.365 35.3198 526.991 35.0024C526.616 34.6769 526.169 34.5142 525.648 34.5142C525.135 34.5142 524.46 34.7054 523.622 35.0879C522.783 35.4704 522.25 35.6616 522.022 35.6616ZM544.959 43.5352C544.959 44.1374 544.435 44.4385 543.385 44.4385C542.791 44.4385 542.392 44.2961 542.188 44.0112C542.091 43.8729 542.042 43.5474 542.042 43.0347L542.005 42.2534C541.948 41.3989 541.92 40.5404 541.92 39.6777C541.92 37.8141 541.757 36.5649 541.432 35.9302C541.114 35.2873 540.577 34.9658 539.82 34.9658C539.316 34.9658 538.848 35.1164 538.417 35.4175C537.993 35.7186 537.668 36.1377 537.44 36.6748C536.968 37.7734 536.732 39.8039 536.732 42.7661C536.732 43.4416 536.602 43.9176 536.341 44.1943C536.089 44.471 535.764 44.6094 535.365 44.6094H535.121C534.209 44.6094 533.753 44.2472 533.753 43.5229V43.23C533.753 43.1405 533.802 42.9451 533.9 42.644L534.095 42.0825C534.291 41.4233 534.388 40.0114 534.388 37.8467L534.449 34.2212C534.449 33.7573 534.701 33.5254 535.206 33.5254C535.711 33.5254 536.207 33.6922 536.695 34.0259C537.192 34.3595 537.505 34.5264 537.635 34.5264C537.774 34.5264 538.014 34.4328 538.355 34.2456C539.503 33.619 540.423 33.3057 541.114 33.3057H541.432C542.677 33.3057 543.552 33.8672 544.056 34.9902C544.3 35.5192 544.422 36.6585 544.422 38.4082V38.4937C544.422 38.6401 544.418 38.7866 544.41 38.9331C544.41 39.3319 544.41 39.5394 544.41 39.5557C544.41 39.7103 544.41 39.8608 544.41 40.0073C544.41 40.1213 544.41 40.2311 544.41 40.3369C544.41 40.9635 544.431 41.3908 544.471 41.6187C544.528 41.9279 544.622 42.2493 544.752 42.583C544.89 42.9492 544.959 43.2666 544.959 43.5352ZM549.903 39.0796V40.0073C549.903 40.9757 550.123 41.7855 550.562 42.4365C551.01 43.0794 551.535 43.4009 552.137 43.4009H552.479C553.407 43.4009 554.123 43.0306 554.627 42.29C555.14 41.5495 555.396 40.4468 555.396 38.9819C555.413 38.8029 555.421 38.6727 555.421 38.5913L555.445 38.3472L555.458 37.8345V36.9678C555.458 35.3076 554.794 34.4775 553.468 34.4775H552.992C552.129 34.4775 551.397 34.9129 550.794 35.7837C550.2 36.6545 549.903 37.7531 549.903 39.0796ZM547.56 39.6411C547.56 38.7948 547.71 37.9321 548.011 37.0532C548.312 36.1743 548.736 35.4256 549.281 34.8071C549.826 34.1805 550.44 33.7288 551.124 33.4521C551.808 33.1673 552.617 33.0249 553.553 33.0249C554.497 33.0249 555.083 32.854 555.311 32.5122C555.539 32.1623 555.653 31.3932 555.653 30.2051C555.653 29.9854 555.616 29.6924 555.543 29.3262C555.47 28.96 555.433 28.7484 555.433 28.6914C555.433 28.3415 555.584 28.0241 555.885 27.7393C556.186 27.4463 556.581 27.2998 557.069 27.2998H557.313C557.695 27.2998 557.98 27.3893 558.167 27.5684C558.355 27.7474 558.448 28.1217 558.448 28.6914V29.8267L558.424 30.4004C558.416 30.5957 558.412 30.8805 558.412 31.2549C558.412 31.6211 558.351 32.8011 558.229 34.7949C558.106 36.7887 558.045 38.16 558.045 38.9087L558.033 39.2017C558.025 39.397 558.021 39.5841 558.021 39.7632L558.009 40.0439C558.009 40.0439 558.009 40.3613 558.009 40.9961C558.009 41.818 558.074 42.4365 558.204 42.8516C558.334 43.2666 558.399 43.5636 558.399 43.7427C558.399 43.9217 558.298 44.1089 558.094 44.3042C557.891 44.4995 557.573 44.5972 557.142 44.5972C556.719 44.5972 556.308 44.528 555.909 44.3896C555.51 44.2432 555.217 44.1699 555.03 44.1699C554.843 44.1699 554.599 44.2269 554.298 44.3408C553.386 44.6745 552.552 44.8413 551.795 44.8413C551.779 44.8413 551.763 44.8413 551.747 44.8413H551.466C550.237 44.8413 549.277 44.3937 548.585 43.4985C547.901 42.5952 547.56 41.4111 547.56 39.9463V39.6411ZM562.245 28.0322C562.245 27.4382 562.802 27.1411 563.917 27.1411H564.137C564.601 27.1411 564.918 27.255 565.089 27.4829C565.26 27.7026 565.345 28.134 565.345 28.7769L565.248 30.5957C565.223 30.8805 565.211 31.0352 565.211 31.0596L565.187 31.5234C565.17 31.8245 565.154 32.1297 565.138 32.439L565.101 32.9028L565.064 33.5986C564.934 36.0726 564.869 37.8996 564.869 39.0796C564.869 40.2515 564.922 41.0938 565.028 41.6064C565.134 42.1191 565.3 42.5545 565.528 42.9126C565.756 43.2707 565.87 43.5067 565.87 43.6206V43.7671C565.87 44.1252 565.691 44.41 565.333 44.6216C564.983 44.8332 564.507 44.939 563.905 44.939H563.27C562.896 44.939 562.566 44.8332 562.281 44.6216C562.005 44.4019 561.866 44.1536 561.866 43.877V43.5474L561.939 43.0347C562.037 42.3267 562.094 41.7977 562.11 41.4478C562.135 41.0897 562.171 40.5973 562.22 39.9707C562.269 39.3359 562.346 37.9891 562.452 35.9302C562.566 33.8631 562.623 32.7523 562.623 32.5977L562.672 31.6821L562.696 30.7788C562.696 29.9162 562.619 29.3018 562.464 28.9355C562.318 28.5612 562.245 28.2601 562.245 28.0322ZM570.924 37.5781V37.7734C570.924 38.0176 571.148 38.1396 571.595 38.1396H571.888L571.961 38.1274L572.56 38.0786C573.186 37.9891 573.593 37.9443 573.78 37.9443C574.667 37.9443 575.335 37.7775 575.782 37.4438C575.994 37.2811 576.1 36.9922 576.1 36.5771V36.4429C576.1 35.8325 575.896 35.3483 575.489 34.9902C575.09 34.6322 574.61 34.4531 574.049 34.4531H573.963L573.89 34.4653C573.101 34.4653 572.409 34.799 571.815 35.4663C571.221 36.1336 570.924 36.8376 570.924 37.5781ZM573.585 45.1587H573.316C571.762 45.1587 570.525 44.6663 569.605 43.6816C568.686 42.6888 568.226 41.3664 568.226 39.7144V39.1772C568.226 38.3879 568.381 37.5863 568.69 36.7725C569.317 35.1449 570.338 34.0218 571.754 33.4033C572.503 33.0697 573.264 32.9028 574.037 32.9028H574.562C575.628 32.9028 576.527 33.2609 577.259 33.9771C578 34.6851 578.37 35.6006 578.37 36.7236V36.9678C578.37 37.7653 578.053 38.3309 577.418 38.6646C576.979 38.9006 575.953 39.1366 574.342 39.3726C572.73 39.6086 571.852 39.751 571.705 39.7998C571.217 39.9707 570.973 40.2962 570.973 40.7764C570.973 41.4437 571.257 42.0133 571.827 42.4854C572.397 42.9574 573.162 43.1934 574.122 43.1934C574.57 43.1934 575.18 43.0713 575.953 42.8271C576.726 42.583 577.174 42.4609 577.296 42.4609C577.711 42.4609 577.918 42.64 577.918 42.998C577.918 43.4782 577.451 43.9583 576.515 44.4385C575.579 44.9186 574.602 45.1587 573.585 45.1587ZM581.886 38.1885C581.389 37.6839 581.141 36.9759 581.141 36.0645C581.141 35.153 581.548 34.3717 582.362 33.7207C583.176 33.0615 584.185 32.7319 585.389 32.7319H585.707C586.773 32.7319 587.619 32.8825 588.246 33.1836C588.88 33.4847 589.198 33.9364 589.198 34.5386C589.198 35.1326 588.933 35.4297 588.404 35.4297C588.266 35.4297 587.875 35.2669 587.232 34.9414C586.59 34.6077 585.983 34.4409 585.414 34.4409C584.844 34.4409 584.384 34.5711 584.034 34.8315C583.692 35.0838 583.521 35.4338 583.521 35.8813C583.521 36.3289 583.762 36.7196 584.242 37.0532C584.518 37.2485 585.169 37.5578 586.195 37.981C587.228 38.4041 587.965 38.811 588.404 39.2017C589.112 39.8283 589.466 40.6299 589.466 41.6064C589.466 42.583 589.051 43.4212 588.221 44.1211C587.391 44.8128 586.313 45.1587 584.986 45.1587H584.669C583.334 45.1587 582.333 44.9674 581.666 44.585C580.999 44.1943 580.665 43.6898 580.665 43.0713C580.665 42.4447 580.925 42.1313 581.446 42.1313C581.617 42.1313 582.061 42.3511 582.777 42.7905C583.501 43.23 584.209 43.4497 584.901 43.4497C585.601 43.4497 586.126 43.3032 586.476 43.0103C586.826 42.7091 587 42.3348 587 41.8872C587 41.4315 586.781 41.0327 586.341 40.6909C586.105 40.5037 585.43 40.166 584.315 39.6777C583.2 39.1813 582.39 38.6849 581.886 38.1885ZM604.029 33.7085C604.656 33.4725 605.299 33.3545 605.958 33.3545C606.617 33.3545 607.301 33.5498 608.009 33.9404C608.725 34.3311 609.116 34.5264 609.181 34.5264C609.246 34.5264 609.685 34.327 610.499 33.9282C611.313 33.5295 612.045 33.3301 612.696 33.3301C613.355 33.3301 613.897 33.4684 614.32 33.7451C614.751 34.0137 615.077 34.3351 615.296 34.7095C615.711 35.4256 615.919 37.0166 615.919 39.4824C615.919 40.5892 615.927 41.224 615.943 41.3867C615.968 41.5413 616.025 41.8221 616.114 42.229C616.212 42.6278 616.261 42.9574 616.261 43.2178C616.261 43.4701 616.155 43.7345 615.943 44.0112C615.732 44.2879 615.451 44.4263 615.101 44.4263C614.409 44.4263 613.998 44.1455 613.868 43.584C613.771 43.1771 613.657 41.9889 613.526 40.0195C613.404 38.0501 613.27 36.8945 613.124 36.5527C612.831 35.8366 612.208 35.4785 611.256 35.4785C610.646 35.4785 610.169 35.861 609.828 36.626C609.331 37.7246 609.083 39.2871 609.083 41.3135L609.205 43.0713C609.205 43.6898 608.977 44.1577 608.521 44.4751C608.229 44.6785 607.838 44.7803 607.35 44.7803C606.869 44.7803 606.552 44.7314 606.397 44.6338C606.129 44.471 605.995 44.1252 605.995 43.5962C605.995 43.4985 606.072 43.0998 606.227 42.3999C606.389 41.6919 606.471 40.5444 606.471 38.9575C606.471 37.3625 606.353 36.3493 606.117 35.918C605.881 35.4785 605.47 35.2588 604.884 35.2588C604.298 35.2588 603.777 35.4582 603.321 35.8569C602.874 36.2557 602.544 36.6911 602.333 37.1631C602.129 37.6351 601.946 38.7581 601.783 40.5322C601.629 42.3063 601.519 43.3236 601.454 43.584C601.34 44.0316 601.01 44.2554 600.465 44.2554C599.928 44.2554 599.557 44.0967 599.354 43.7793C599.159 43.4538 599.061 43.0591 599.061 42.5952L599.122 42.168L599.354 41.3257C599.452 40.9351 599.509 40.4793 599.525 39.9585C599.647 36.7277 599.741 34.8844 599.806 34.4287C599.871 33.973 600.164 33.7451 600.685 33.7451L602.503 34.0503C602.894 34.0503 603.403 33.9364 604.029 33.7085ZM621.412 39.8486C621.412 40.9147 621.656 41.8018 622.145 42.5098C622.633 43.2178 623.231 43.5718 623.939 43.5718H624.305C625.143 43.5718 625.851 43.1486 626.429 42.3022C627.015 41.4559 627.308 40.3288 627.308 38.9209V38.1152C627.308 37.0247 627.068 36.1336 626.588 35.4419C626.116 34.742 625.506 34.3921 624.757 34.3921H624.513C623.642 34.3921 622.91 34.8234 622.315 35.686C621.729 36.5487 621.437 37.5781 621.437 38.7744L621.412 39.0552V39.8486ZM624.171 45.2319H623.78C622.356 45.2319 621.196 44.7355 620.301 43.7427C619.406 42.7498 618.958 41.342 618.958 39.519L618.971 39.3115C618.971 37.3096 619.5 35.7308 620.558 34.5752C621.111 33.9648 621.742 33.5173 622.45 33.2324C623.166 32.9395 623.845 32.793 624.488 32.793H625.086C625.803 32.793 626.49 32.9517 627.149 33.269C629.037 34.1805 629.981 35.8976 629.981 38.4204V38.6157C629.973 39.4377 629.839 40.2718 629.579 41.1182C629.058 42.7865 628.057 43.9665 626.576 44.6582C625.754 45.0407 624.952 45.2319 624.171 45.2319ZM633.424 38.1885C632.927 37.6839 632.679 36.9759 632.679 36.0645C632.679 35.153 633.086 34.3717 633.9 33.7207C634.714 33.0615 635.723 32.7319 636.927 32.7319H637.245C638.311 32.7319 639.157 32.8825 639.784 33.1836C640.418 33.4847 640.736 33.9364 640.736 34.5386C640.736 35.1326 640.471 35.4297 639.942 35.4297C639.804 35.4297 639.413 35.2669 638.771 34.9414C638.128 34.6077 637.521 34.4409 636.952 34.4409C636.382 34.4409 635.922 34.5711 635.572 34.8315C635.23 35.0838 635.06 35.4338 635.06 35.8813C635.06 36.3289 635.3 36.7196 635.78 37.0532C636.056 37.2485 636.708 37.5578 637.733 37.981C638.766 38.4041 639.503 38.811 639.942 39.2017C640.65 39.8283 641.004 40.6299 641.004 41.6064C641.004 42.583 640.589 43.4212 639.759 44.1211C638.929 44.8128 637.851 45.1587 636.524 45.1587H636.207C634.872 45.1587 633.871 44.9674 633.204 44.585C632.537 44.1943 632.203 43.6898 632.203 43.0713C632.203 42.4447 632.464 42.1313 632.984 42.1313C633.155 42.1313 633.599 42.3511 634.315 42.7905C635.039 43.23 635.747 43.4497 636.439 43.4497C637.139 43.4497 637.664 43.3032 638.014 43.0103C638.364 42.7091 638.539 42.3348 638.539 41.8872C638.539 41.4315 638.319 41.0327 637.879 40.6909C637.643 40.5037 636.968 40.166 635.853 39.6777C634.738 39.1813 633.928 38.6849 633.424 38.1885ZM650.001 43.6938C650.001 44.0194 649.802 44.3123 649.403 44.5728C649.012 44.825 648.479 44.9512 647.804 44.9512C646.542 44.9512 645.655 44.4832 645.143 43.5474C644.825 42.9614 644.667 41.5902 644.667 39.4336C644.667 37.277 644.63 36.0238 644.557 35.6738C644.483 35.3239 644.28 34.9821 643.946 34.6484C643.613 34.3148 643.446 34.0584 643.446 33.8794C643.446 33.8143 643.84 33.387 644.63 32.5977C644.801 32.4268 644.972 32.0483 645.143 31.4624C645.322 30.8765 645.448 30.4899 645.521 30.3027C645.765 29.7168 646.087 29.4238 646.485 29.4238H646.681C647.031 29.4238 647.279 29.5581 647.425 29.8267C647.482 29.9325 647.568 30.3149 647.682 30.9741C647.804 31.6252 647.942 32.0443 648.097 32.2314C648.251 32.4186 648.638 32.6261 649.256 32.854C649.883 33.0737 650.196 33.3097 650.196 33.562V33.6963C650.196 34.0218 649.838 34.2985 649.122 34.5264C648.414 34.7461 647.958 35.1001 647.755 35.5884C647.356 36.5731 647.157 38.1763 647.157 40.3979C647.157 41.4396 647.336 42.1476 647.694 42.522C647.914 42.7498 648.353 42.9085 649.012 42.998C649.671 43.0876 650.001 43.3195 650.001 43.6938ZM317.079 59.1309V59.2773C317.079 59.6924 316.957 60.0464 316.712 60.3394C316.476 60.6242 316.11 60.7666 315.614 60.7666H315.418L315.04 60.7178C314.82 60.7178 314.609 60.616 314.405 60.4126C314.202 60.2091 314.1 59.904 314.1 59.4971V59.3506L314.161 58.9111C314.161 58.7402 314.263 58.5286 314.466 58.2764C314.678 58.0241 314.946 57.8979 315.272 57.8979L315.553 57.8613H315.797L316.139 57.9102C316.35 57.9102 316.558 58.016 316.761 58.2275C316.973 58.431 317.079 58.7321 317.079 59.1309ZM316.505 64.2822L316.371 67.5659L316.346 67.8955L316.31 68.8965V69.3726C316.31 70.5444 316.342 71.3135 316.407 71.6797C316.48 72.0459 316.615 72.404 316.81 72.7539C317.005 73.0957 317.103 73.3439 317.103 73.4985V73.6084C317.103 74.0072 316.9 74.3245 316.493 74.5605C316.086 74.7965 315.532 74.9146 314.833 74.9146H314.527C314.12 74.9146 313.811 74.825 313.6 74.646C313.388 74.4588 313.282 74.2594 313.282 74.0479V73.7793C313.282 73.6735 313.376 73.2992 313.563 72.6562C313.75 72.0052 313.844 71.1222 313.844 70.0073C313.868 69.6899 313.88 69.4702 313.88 69.3481L313.917 68.6768L313.941 68.3472C313.982 67.7775 314.002 67.334 314.002 67.0166L314.015 66.5283C314.015 65.918 313.913 65.3768 313.709 64.9048C313.514 64.4328 313.417 64.1398 313.417 64.0259C313.417 63.4399 313.97 63.147 315.077 63.147H315.516C315.931 63.147 316.2 63.2568 316.322 63.4766C316.444 63.6882 316.505 63.9567 316.505 64.2822ZM321.021 68.1885C320.525 67.6839 320.277 66.9759 320.277 66.0645C320.277 65.153 320.684 64.3717 321.498 63.7207C322.311 63.0615 323.32 62.7319 324.525 62.7319H324.842C325.908 62.7319 326.755 62.8825 327.381 63.1836C328.016 63.4847 328.333 63.9364 328.333 64.5386C328.333 65.1326 328.069 65.4297 327.54 65.4297C327.402 65.4297 327.011 65.2669 326.368 64.9414C325.725 64.6077 325.119 64.4409 324.549 64.4409C323.98 64.4409 323.52 64.5711 323.17 64.8315C322.828 65.0838 322.657 65.4338 322.657 65.8813C322.657 66.3289 322.897 66.7196 323.377 67.0532C323.654 67.2485 324.305 67.5578 325.331 67.981C326.364 68.4041 327.101 68.811 327.54 69.2017C328.248 69.8283 328.602 70.6299 328.602 71.6064C328.602 72.583 328.187 73.4212 327.357 74.1211C326.527 74.8128 325.449 75.1587 324.122 75.1587H323.805C322.47 75.1587 321.469 74.9674 320.802 74.585C320.134 74.1943 319.801 73.6898 319.801 73.0713C319.801 72.4447 320.061 72.1313 320.582 72.1313C320.753 72.1313 321.196 72.3511 321.913 72.7905C322.637 73.23 323.345 73.4497 324.037 73.4497C324.736 73.4497 325.261 73.3032 325.611 73.0103C325.961 72.7091 326.136 72.3348 326.136 71.8872C326.136 71.4315 325.917 71.0327 325.477 70.6909C325.241 70.5037 324.566 70.166 323.451 69.6777C322.336 69.1813 321.526 68.6849 321.021 68.1885ZM332.081 68.1885C331.585 67.6839 331.336 66.9759 331.336 66.0645C331.336 65.153 331.743 64.3717 332.557 63.7207C333.371 63.0615 334.38 62.7319 335.584 62.7319H335.902C336.968 62.7319 337.814 62.8825 338.441 63.1836C339.076 63.4847 339.393 63.9364 339.393 64.5386C339.393 65.1326 339.129 65.4297 338.6 65.4297C338.461 65.4297 338.071 65.2669 337.428 64.9414C336.785 64.6077 336.179 64.4409 335.609 64.4409C335.039 64.4409 334.579 64.5711 334.229 64.8315C333.888 65.0838 333.717 65.4338 333.717 65.8813C333.717 66.3289 333.957 66.7196 334.437 67.0532C334.714 67.2485 335.365 67.5578 336.39 67.981C337.424 68.4041 338.16 68.811 338.6 69.2017C339.308 69.8283 339.662 70.6299 339.662 71.6064C339.662 72.583 339.247 73.4212 338.417 74.1211C337.586 74.8128 336.508 75.1587 335.182 75.1587H334.864C333.53 75.1587 332.529 74.9674 331.861 74.585C331.194 74.1943 330.86 73.6898 330.86 73.0713C330.86 72.4447 331.121 72.1313 331.642 72.1313C331.812 72.1313 332.256 72.3511 332.972 72.7905C333.696 73.23 334.404 73.4497 335.096 73.4497C335.796 73.4497 336.321 73.3032 336.671 73.0103C337.021 72.7091 337.196 72.3348 337.196 71.8872C337.196 71.4315 336.976 71.0327 336.537 70.6909C336.301 70.5037 335.625 70.166 334.51 69.6777C333.395 69.1813 332.586 68.6849 332.081 68.1885ZM342.311 64.0259C342.311 63.5132 342.742 63.2568 343.604 63.2568H343.885C344.422 63.2568 344.785 63.4725 344.972 63.9038C345.159 64.3351 345.252 65.1408 345.252 66.3208L345.106 70.3979C345.106 72.2941 345.785 73.2422 347.145 73.2422C347.641 73.2422 348.117 73.0672 348.573 72.7173C349.028 72.3674 349.366 71.9482 349.586 71.46C350.066 70.3857 350.306 68.4611 350.306 65.686L350.282 65.1489V64.6729C350.282 64.2415 350.379 63.9282 350.575 63.7329C350.77 63.5376 351.112 63.4399 351.6 63.4399C352.088 63.4399 352.41 63.5579 352.564 63.7939C352.719 64.0299 352.796 64.4124 352.796 64.9414L352.772 65.5884L352.723 68.4692C352.723 68.9331 352.752 69.6452 352.809 70.6055C352.866 71.5658 352.927 72.2697 352.992 72.7173C353.057 73.1567 353.089 73.4172 353.089 73.4985C353.089 74.2228 352.556 74.585 351.49 74.585C351.124 74.585 350.758 74.4507 350.392 74.1821C350.034 73.9054 349.777 73.7671 349.623 73.7671C349.476 73.7671 349.224 73.8566 348.866 74.0356C347.848 74.5483 346.982 74.8047 346.266 74.8047H345.96C344.797 74.8047 343.942 74.4466 343.397 73.7305C342.852 73.0143 342.579 71.7244 342.579 69.8608L342.701 66.1621C342.701 65.6982 342.636 65.2547 342.506 64.8315C342.376 64.4084 342.311 64.1398 342.311 64.0259ZM358.351 67.5781V67.7734C358.351 68.0176 358.574 68.1396 359.022 68.1396H359.315L359.388 68.1274L359.986 68.0786C360.613 67.9891 361.02 67.9443 361.207 67.9443C362.094 67.9443 362.761 67.7775 363.209 67.4438C363.421 67.2811 363.526 66.9922 363.526 66.5771V66.4429C363.526 65.8325 363.323 65.3483 362.916 64.9902C362.517 64.6322 362.037 64.4531 361.476 64.4531H361.39L361.317 64.4653C360.528 64.4653 359.836 64.799 359.242 65.4663C358.648 66.1336 358.351 66.8376 358.351 67.5781ZM361.012 75.1587H360.743C359.189 75.1587 357.952 74.6663 357.032 73.6816C356.113 72.6888 355.653 71.3664 355.653 69.7144V69.1772C355.653 68.3879 355.807 67.5863 356.117 66.7725C356.743 65.1449 357.765 64.0218 359.181 63.4033C359.929 63.0697 360.69 62.9028 361.463 62.9028H361.988C363.054 62.9028 363.954 63.2609 364.686 63.9771C365.427 64.6851 365.797 65.6006 365.797 66.7236V66.9678C365.797 67.7653 365.479 68.3309 364.845 68.6646C364.405 68.9006 363.38 69.1366 361.769 69.3726C360.157 69.6086 359.278 69.751 359.132 69.7998C358.644 69.9707 358.399 70.2962 358.399 70.7764C358.399 71.4437 358.684 72.0133 359.254 72.4854C359.824 72.9574 360.589 73.1934 361.549 73.1934C361.996 73.1934 362.607 73.0713 363.38 72.8271C364.153 72.583 364.601 72.4609 364.723 72.4609C365.138 72.4609 365.345 72.64 365.345 72.998C365.345 73.4782 364.877 73.9583 363.941 74.4385C363.006 74.9186 362.029 75.1587 361.012 75.1587ZM369.312 68.1885C368.816 67.6839 368.568 66.9759 368.568 66.0645C368.568 65.153 368.975 64.3717 369.789 63.7207C370.602 63.0615 371.611 62.7319 372.816 62.7319H373.133C374.199 62.7319 375.046 62.8825 375.672 63.1836C376.307 63.4847 376.625 63.9364 376.625 64.5386C376.625 65.1326 376.36 65.4297 375.831 65.4297C375.693 65.4297 375.302 65.2669 374.659 64.9414C374.016 64.6077 373.41 64.4409 372.84 64.4409C372.271 64.4409 371.811 64.5711 371.461 64.8315C371.119 65.0838 370.948 65.4338 370.948 65.8813C370.948 66.3289 371.188 66.7196 371.668 67.0532C371.945 67.2485 372.596 67.5578 373.622 67.981C374.655 68.4041 375.392 68.811 375.831 69.2017C376.539 69.8283 376.893 70.6299 376.893 71.6064C376.893 72.583 376.478 73.4212 375.648 74.1211C374.818 74.8128 373.74 75.1587 372.413 75.1587H372.096C370.761 75.1587 369.76 74.9674 369.093 74.585C368.425 74.1943 368.092 73.6898 368.092 73.0713C368.092 72.4447 368.352 72.1313 368.873 72.1313C369.044 72.1313 369.487 72.3511 370.204 72.7905C370.928 73.23 371.636 73.4497 372.328 73.4497C373.028 73.4497 373.552 73.3032 373.902 73.0103C374.252 72.7091 374.427 72.3348 374.427 71.8872C374.427 71.4315 374.208 71.0327 373.768 70.6909C373.532 70.5037 372.857 70.166 371.742 69.6777C370.627 69.1813 369.817 68.6849 369.312 68.1885ZM397.962 74.3774C397.385 74.3774 396.884 74.0153 396.461 73.291C396.184 72.8109 395.745 71.8343 395.143 70.3613C394.549 68.8802 394.211 68.1396 394.129 68.1396C394.105 68.1396 393.767 68.8314 393.116 70.2148C392.465 71.5902 391.981 72.5342 391.664 73.0469C391.159 73.8525 390.675 74.2554 390.211 74.2554C389.918 74.2554 389.609 74.1414 389.283 73.9136C388.966 73.6776 388.709 73.2951 388.514 72.7661C388.49 72.701 388.303 72.0011 387.953 70.6665C387.611 69.3319 387.257 68.0786 386.891 66.9067C386.533 65.7349 386.354 64.9414 386.354 64.5264C386.354 64.1113 386.443 63.8143 386.622 63.6353C386.801 63.4562 386.984 63.3667 387.171 63.3667C387.928 63.3667 388.461 63.68 388.771 64.3066C388.884 64.5345 389.031 65.1042 389.21 66.0156C390.064 69.3604 390.638 71.1344 390.931 71.3379C391.24 71.3379 391.692 70.3044 392.286 68.2373C392.53 67.391 392.689 66.63 392.762 65.9546C392.844 65.2791 392.896 64.8885 392.921 64.7827L393.031 64.3921C393.275 63.7492 393.759 63.4277 394.483 63.4277C395.216 63.4277 395.724 63.798 396.009 64.5386C396.123 64.8397 396.229 65.3687 396.327 66.1255C396.424 66.8742 396.563 67.627 396.742 68.3838C397.189 70.3206 397.543 71.2891 397.804 71.2891C398.121 71.2891 398.618 70.2759 399.293 68.2495C399.505 67.6147 399.724 66.8376 399.952 65.918C400.188 64.9984 400.351 64.445 400.44 64.2578C400.733 63.68 401.197 63.3911 401.832 63.3911C402.166 63.3911 402.333 63.7166 402.333 64.3677C402.333 64.7502 401.917 66.2069 401.087 68.7378C400.257 71.2606 399.757 72.7051 399.586 73.0713C399.415 73.4294 399.171 73.7386 398.854 73.999C398.536 74.2513 398.239 74.3774 397.962 74.3774ZM407.008 67.5781V67.7734C407.008 68.0176 407.232 68.1396 407.679 68.1396H407.972L408.045 68.1274L408.644 68.0786C409.27 67.9891 409.677 67.9443 409.864 67.9443C410.751 67.9443 411.419 67.7775 411.866 67.4438C412.078 67.2811 412.184 66.9922 412.184 66.5771V66.4429C412.184 65.8325 411.98 65.3483 411.573 64.9902C411.174 64.6322 410.694 64.4531 410.133 64.4531H410.047L409.974 64.4653C409.185 64.4653 408.493 64.799 407.899 65.4663C407.305 66.1336 407.008 66.8376 407.008 67.5781ZM409.669 75.1587H409.4C407.846 75.1587 406.609 74.6663 405.689 73.6816C404.77 72.6888 404.31 71.3664 404.31 69.7144V69.1772C404.31 68.3879 404.465 67.5863 404.774 66.7725C405.401 65.1449 406.422 64.0218 407.838 63.4033C408.587 63.0697 409.347 62.9028 410.121 62.9028H410.646C411.712 62.9028 412.611 63.2609 413.343 63.9771C414.084 64.6851 414.454 65.6006 414.454 66.7236V66.9678C414.454 67.7653 414.137 68.3309 413.502 68.6646C413.062 68.9006 412.037 69.1366 410.426 69.3726C408.814 69.6086 407.936 69.751 407.789 69.7998C407.301 69.9707 407.057 70.2962 407.057 70.7764C407.057 71.4437 407.341 72.0133 407.911 72.4854C408.481 72.9574 409.246 73.1934 410.206 73.1934C410.654 73.1934 411.264 73.0713 412.037 72.8271C412.81 72.583 413.258 72.4609 413.38 72.4609C413.795 72.4609 414.002 72.64 414.002 72.998C414.002 73.4782 413.535 73.9583 412.599 74.4385C411.663 74.9186 410.686 75.1587 409.669 75.1587ZM417.787 58.0322C417.787 57.4382 418.344 57.1411 419.459 57.1411H419.679C420.143 57.1411 420.46 57.255 420.631 57.4829C420.802 57.7026 420.887 58.134 420.887 58.7769L420.79 60.5957C420.765 60.8805 420.753 61.0352 420.753 61.0596L420.729 61.5234C420.712 61.8245 420.696 62.1297 420.68 62.439L420.643 62.9028L420.606 63.5986C420.476 66.0726 420.411 67.8996 420.411 69.0796C420.411 70.2515 420.464 71.0938 420.57 71.6064C420.676 72.1191 420.842 72.5545 421.07 72.9126C421.298 73.2707 421.412 73.5067 421.412 73.6206V73.7671C421.412 74.1252 421.233 74.41 420.875 74.6216C420.525 74.8332 420.049 74.939 419.447 74.939H418.812C418.438 74.939 418.108 74.8332 417.823 74.6216C417.547 74.4019 417.408 74.1536 417.408 73.877V73.5474L417.481 73.0347C417.579 72.3267 417.636 71.7977 417.652 71.4478C417.677 71.0897 417.713 70.5973 417.762 69.9707C417.811 69.3359 417.888 67.9891 417.994 65.9302C418.108 63.8631 418.165 62.7523 418.165 62.5977L418.214 61.6821L418.238 60.7788C418.238 59.9162 418.161 59.3018 418.006 58.9355C417.86 58.5612 417.787 58.2601 417.787 58.0322ZM424.964 58.0322C424.964 57.4382 425.522 57.1411 426.637 57.1411H426.856C427.32 57.1411 427.638 57.255 427.809 57.4829C427.979 57.7026 428.065 58.134 428.065 58.7769L427.967 60.5957C427.943 60.8805 427.931 61.0352 427.931 61.0596L427.906 61.5234C427.89 61.8245 427.874 62.1297 427.857 62.439L427.821 62.9028L427.784 63.5986C427.654 66.0726 427.589 67.8996 427.589 69.0796C427.589 70.2515 427.642 71.0938 427.748 71.6064C427.853 72.1191 428.02 72.5545 428.248 72.9126C428.476 73.2707 428.59 73.5067 428.59 73.6206V73.7671C428.59 74.1252 428.411 74.41 428.053 74.6216C427.703 74.8332 427.227 74.939 426.625 74.939H425.99C425.615 74.939 425.286 74.8332 425.001 74.6216C424.724 74.4019 424.586 74.1536 424.586 73.877V73.5474L424.659 73.0347C424.757 72.3267 424.814 71.7977 424.83 71.4478C424.854 71.0897 424.891 70.5973 424.94 69.9707C424.989 69.3359 425.066 67.9891 425.172 65.9302C425.286 63.8631 425.343 62.7523 425.343 62.5977L425.392 61.6821L425.416 60.7788C425.416 59.9162 425.339 59.3018 425.184 58.9355C425.038 58.5612 424.964 58.2601 424.964 58.0322ZM433.229 75.1953H432.85C432.443 75.1953 432.126 75.1017 431.898 74.9146C431.678 74.7274 431.568 74.4792 431.568 74.1699C431.552 74.1048 431.544 74.0519 431.544 74.0112L431.52 73.8037V73.584L431.532 73.5352V73.4253C431.548 73.3602 431.556 73.3073 431.556 73.2666C431.556 72.9004 431.678 72.6156 431.922 72.4121C432.175 72.2005 432.451 72.0947 432.752 72.0947L433.009 72.0581H433.338C434.225 72.0581 434.669 72.522 434.669 73.4497V73.6206L434.62 74.0356C434.62 74.41 434.478 74.6989 434.193 74.9023C433.916 75.0977 433.595 75.1953 433.229 75.1953Z" fill="black"/>
</svg>
