<svg width="758" height="87" viewBox="0 0 758 87" fill="none" xmlns="http://www.w3.org/2000/svg">
<rect width="758" height="87" rx="18" fill="#D9D9D9"/>
<path d="M43.595 54.1172C43.245 54.1172 43.07 53.9422 43.07 53.5922V45.3602H32.045C31.695 45.3602 31.52 45.1852 31.52 44.8352V26.6492C31.52 26.2992 31.695 26.1242 32.045 26.1242H37.988C38.338 26.1242 38.513 26.2992 38.513 26.6492V39.7742H43.07V26.6492C43.07 26.2992 43.245 26.1242 43.595 26.1242H49.538C49.888 26.1242 50.063 26.2992 50.063 26.6492V53.5922C50.063 53.9422 49.888 54.1172 49.538 54.1172H43.595Z" fill="#2ECC71"/>
<path d="M89.3887 29.6221V29.2681C89.3887 28.381 89.0957 27.6893 88.5098 27.1929C87.9238 26.6965 87.1141 26.4482 86.0806 26.4482H85.6411C84.8599 26.4482 84.3512 26.554 84.1152 26.7656C83.8792 26.9772 83.7612 27.4696 83.7612 28.2427L83.7368 28.4624L83.5781 31.9536V32.3809C83.5781 32.682 83.6595 32.8854 83.8223 32.9912C83.9932 33.097 84.3146 33.1499 84.7866 33.1499L84.8965 33.1377L85.3237 33.1255L85.751 33.1011C86.7764 33.1011 87.639 32.7796 88.3389 32.1367C89.0387 31.4857 89.3887 30.6475 89.3887 29.6221ZM83.5049 38.2036L83.7612 40.2422C83.7612 40.6979 83.57 41.0601 83.1875 41.3286C82.8132 41.5972 82.3127 41.7314 81.686 41.7314C80.563 41.7314 80.0015 41.2839 80.0015 40.3887C80.0015 40.2015 80.1154 39.8719 80.3433 39.3999C80.5711 38.9198 80.7095 38.4396 80.7583 37.9595C80.9699 35.8761 81.0757 33.3818 81.0757 30.4766L81.0879 30.1104C81.096 29.8662 81.1001 29.6261 81.1001 29.3901L81.1245 28.3037C81.1245 27.3841 81.1001 26.7412 81.0513 26.375L81.0024 26.1187C80.9618 25.8826 80.9414 25.7321 80.9414 25.667C80.9414 25.3008 81.21 25.0607 81.7471 24.9468C82.2842 24.8328 83.3869 24.7759 85.0552 24.7759H86.2026C88.9533 24.7759 90.7396 25.5815 91.5615 27.1929C91.8464 27.7707 91.9888 28.4502 91.9888 29.2314C91.9888 30.6637 91.3866 31.9699 90.1821 33.1499C89.5148 33.8009 89.1812 34.3258 89.1812 34.7246C89.1812 35.1234 89.6776 36.2261 90.6704 38.0327C90.9959 38.6187 91.4028 39.1842 91.8911 39.7295C92.3794 40.2747 92.6235 40.6613 92.6235 40.8892V41.1333C92.6235 41.5728 92.2655 41.7925 91.5493 41.7925C90.8332 41.7925 90.3001 41.6053 89.9502 41.231C89.6084 40.8485 89.0306 39.9045 88.2168 38.3989C87.4111 36.8934 86.9676 36.0918 86.8862 35.9941C86.3817 35.3919 85.8324 35.0908 85.2383 35.0908C84.6442 35.0908 84.1681 35.4001 83.8101 36.0186C83.6066 36.3685 83.5049 37.0968 83.5049 38.2036ZM97.543 34.5781V34.7734C97.543 35.0176 97.7668 35.1396 98.2144 35.1396H98.5073L98.5806 35.1274L99.1787 35.0786C99.8053 34.9891 100.212 34.9443 100.399 34.9443C101.286 34.9443 101.954 34.7775 102.401 34.4438C102.613 34.2811 102.719 33.9922 102.719 33.5771V33.4429C102.719 32.8325 102.515 32.3483 102.108 31.9902C101.71 31.6322 101.229 31.4531 100.668 31.4531H100.583L100.509 31.4653C99.7199 31.4653 99.0282 31.799 98.4341 32.4663C97.84 33.1336 97.543 33.8376 97.543 34.5781ZM100.204 42.1587H99.9355C98.3812 42.1587 97.1442 41.6663 96.2246 40.6816C95.305 39.6888 94.8452 38.3664 94.8452 36.7144V36.1772C94.8452 35.3879 94.9998 34.5863 95.3091 33.7725C95.9357 32.1449 96.957 31.0218 98.373 30.4033C99.1217 30.0697 99.8826 29.9028 100.656 29.9028H101.181C102.247 29.9028 103.146 30.2609 103.878 30.9771C104.619 31.6851 104.989 32.6006 104.989 33.7236V33.9678C104.989 34.7653 104.672 35.3309 104.037 35.6646C103.598 35.9006 102.572 36.1366 100.961 36.3726C99.3496 36.6086 98.4707 36.751 98.3242 36.7998C97.8359 36.9707 97.5918 37.2962 97.5918 37.7764C97.5918 38.4437 97.8766 39.0133 98.4463 39.4854C99.016 39.9574 99.7809 40.1934 100.741 40.1934C101.189 40.1934 101.799 40.0713 102.572 39.8271C103.345 39.583 103.793 39.4609 103.915 39.4609C104.33 39.4609 104.538 39.64 104.538 39.998C104.538 40.4782 104.07 40.9583 103.134 41.4385C102.198 41.9186 101.221 42.1587 100.204 42.1587ZM108.505 35.1885C108.008 34.6839 107.76 33.9759 107.76 33.0645C107.76 32.153 108.167 31.3717 108.981 30.7207C109.795 30.0615 110.804 29.7319 112.008 29.7319H112.326C113.392 29.7319 114.238 29.8825 114.865 30.1836C115.5 30.4847 115.817 30.9364 115.817 31.5386C115.817 32.1326 115.552 32.4297 115.023 32.4297C114.885 32.4297 114.494 32.2669 113.852 31.9414C113.209 31.6077 112.602 31.4409 112.033 31.4409C111.463 31.4409 111.003 31.5711 110.653 31.8315C110.312 32.0838 110.141 32.4338 110.141 32.8813C110.141 33.3289 110.381 33.7196 110.861 34.0532C111.138 34.2485 111.789 34.5578 112.814 34.981C113.847 35.4041 114.584 35.811 115.023 36.2017C115.731 36.8283 116.085 37.6299 116.085 38.6064C116.085 39.583 115.67 40.4212 114.84 41.1211C114.01 41.8128 112.932 42.1587 111.605 42.1587H111.288C109.953 42.1587 108.952 41.9674 108.285 41.585C107.618 41.1943 107.284 40.6898 107.284 40.0713C107.284 39.4447 107.545 39.1313 108.065 39.1313C108.236 39.1313 108.68 39.3511 109.396 39.7905C110.12 40.23 110.828 40.4497 111.52 40.4497C112.22 40.4497 112.745 40.3032 113.095 40.0103C113.445 39.7091 113.62 39.3348 113.62 38.8872C113.62 38.4315 113.4 38.0327 112.96 37.6909C112.724 37.5037 112.049 37.166 110.934 36.6777C109.819 36.1813 109.009 35.6849 108.505 35.1885ZM127.279 34.9565C127.279 33.8742 127.051 33.0278 126.596 32.4175C126.148 31.799 125.611 31.4897 124.984 31.4897H124.63C123.751 31.4897 123.056 31.8397 122.543 32.5396C122.03 33.2313 121.774 34.2526 121.774 35.6035L121.75 35.8477L121.701 37.1172V37.9717C121.701 38.8587 121.88 39.4854 122.238 39.8516C122.604 40.2096 123.121 40.3887 123.788 40.3887H124.02C124.94 40.3887 125.709 39.9655 126.327 39.1191C126.946 38.2728 127.255 37.2433 127.255 36.0308L127.279 35.7622V34.9565ZM120.639 30.3667L122.348 30.6597C122.527 30.6597 122.946 30.5417 123.605 30.3057C124.264 30.0697 124.911 29.9517 125.546 29.9517C126.832 29.9517 127.873 30.4033 128.671 31.3066C129.468 32.2018 129.867 33.4103 129.867 34.9321V35.2373C129.867 36.2627 129.696 37.2067 129.354 38.0693C128.655 39.8516 127.487 41.0031 125.851 41.5239C125.387 41.6704 124.765 41.7721 123.983 41.8291C123.21 41.8861 122.661 41.9878 122.335 42.1343C121.839 42.3621 121.591 42.7731 121.591 43.3672C121.591 43.6195 121.636 43.9613 121.725 44.3926C121.823 44.8239 121.872 45.2227 121.872 45.5889C121.872 45.9551 121.664 46.3132 121.249 46.6631C120.834 47.0212 120.317 47.2002 119.699 47.2002H119.442C118.71 47.2002 118.344 46.9316 118.344 46.3945V46.1626C118.344 46.0487 118.421 45.7272 118.576 45.1982C118.738 44.6774 118.852 44.1159 118.917 43.5137C118.983 42.9196 119.088 41.4344 119.235 39.0581C119.381 36.6818 119.455 35.0583 119.455 34.1875C119.455 33.3086 119.398 32.5721 119.284 31.978C119.178 31.384 119.125 31.0625 119.125 31.0137C119.125 30.5824 119.63 30.3667 120.639 30.3667ZM134.628 34.5781V34.7734C134.628 35.0176 134.852 35.1396 135.299 35.1396H135.592L135.666 35.1274L136.264 35.0786C136.89 34.9891 137.297 34.9443 137.484 34.9443C138.371 34.9443 139.039 34.7775 139.486 34.4438C139.698 34.2811 139.804 33.9922 139.804 33.5771V33.4429C139.804 32.8325 139.6 32.3483 139.193 31.9902C138.795 31.6322 138.314 31.4531 137.753 31.4531H137.667L137.594 31.4653C136.805 31.4653 136.113 31.799 135.519 32.4663C134.925 33.1336 134.628 33.8376 134.628 34.5781ZM137.289 42.1587H137.021C135.466 42.1587 134.229 41.6663 133.31 40.6816C132.39 39.6888 131.93 38.3664 131.93 36.7144V36.1772C131.93 35.3879 132.085 34.5863 132.394 33.7725C133.021 32.1449 134.042 31.0218 135.458 30.4033C136.207 30.0697 136.968 29.9028 137.741 29.9028H138.266C139.332 29.9028 140.231 30.2609 140.963 30.9771C141.704 31.6851 142.074 32.6006 142.074 33.7236V33.9678C142.074 34.7653 141.757 35.3309 141.122 35.6646C140.683 35.9006 139.657 36.1366 138.046 36.3726C136.435 36.6086 135.556 36.751 135.409 36.7998C134.921 36.9707 134.677 37.2962 134.677 37.7764C134.677 38.4437 134.962 39.0133 135.531 39.4854C136.101 39.9574 136.866 40.1934 137.826 40.1934C138.274 40.1934 138.884 40.0713 139.657 39.8271C140.43 39.583 140.878 39.4609 141 39.4609C141.415 39.4609 141.623 39.64 141.623 39.998C141.623 40.4782 141.155 40.9583 140.219 41.4385C139.283 41.9186 138.306 42.1587 137.289 42.1587ZM144.345 36.9219V36.3604C144.345 35.335 144.503 34.4276 144.821 33.6382C145.431 32.1082 146.367 31.0503 147.628 30.4644C148.45 30.0737 149.301 29.8784 150.18 29.8784H150.448C151.417 29.8784 152.218 30.0697 152.853 30.4521C153.488 30.8346 153.805 31.3026 153.805 31.856C153.805 32.4989 153.496 32.8203 152.877 32.8203C152.764 32.8203 152.365 32.6413 151.681 32.2832C150.998 31.9333 150.436 31.7583 149.997 31.7583C149.988 31.7583 149.98 31.7583 149.972 31.7583C149.012 31.7583 148.259 32.1733 147.714 33.0034C147.177 33.8335 146.908 34.9159 146.908 36.2505C146.908 37.5851 147.193 38.5739 147.763 39.2168C148.34 39.8597 149.142 40.1812 150.167 40.1812C150.591 40.1812 151.173 40.0632 151.913 39.8271C152.654 39.583 153.105 39.4609 153.268 39.4609C153.602 39.4609 153.769 39.6359 153.769 39.9858C153.769 40.4578 153.301 40.9339 152.365 41.4141C151.429 41.8942 150.509 42.1343 149.606 42.1343C147.189 42.1343 145.59 41.1821 144.809 39.2778C144.499 38.521 144.345 37.7357 144.345 36.9219ZM162.753 40.6938C162.753 41.0194 162.554 41.3123 162.155 41.5728C161.764 41.825 161.231 41.9512 160.556 41.9512C159.294 41.9512 158.407 41.4832 157.895 40.5474C157.577 39.9614 157.418 38.5902 157.418 36.4336C157.418 34.277 157.382 33.0238 157.309 32.6738C157.235 32.3239 157.032 31.9821 156.698 31.6484C156.365 31.3148 156.198 31.0584 156.198 30.8794C156.198 30.8143 156.592 30.387 157.382 29.5977C157.553 29.4268 157.724 29.0483 157.895 28.4624C158.074 27.8765 158.2 27.4899 158.273 27.3027C158.517 26.7168 158.839 26.4238 159.237 26.4238H159.433C159.783 26.4238 160.031 26.5581 160.177 26.8267C160.234 26.9325 160.32 27.3149 160.434 27.9741C160.556 28.6252 160.694 29.0443 160.849 29.2314C161.003 29.4186 161.39 29.6261 162.008 29.854C162.635 30.0737 162.948 30.3097 162.948 30.562V30.6963C162.948 31.0218 162.59 31.2985 161.874 31.5264C161.166 31.7461 160.71 32.1001 160.507 32.5884C160.108 33.5731 159.909 35.1763 159.909 37.3979C159.909 38.4396 160.088 39.1476 160.446 39.522C160.666 39.7498 161.105 39.9085 161.764 39.998C162.423 40.0876 162.753 40.3195 162.753 40.6938ZM166.464 35.1885C165.967 34.6839 165.719 33.9759 165.719 33.0645C165.719 32.153 166.126 31.3717 166.94 30.7207C167.754 30.0615 168.763 29.7319 169.967 29.7319H170.285C171.351 29.7319 172.197 29.8825 172.824 30.1836C173.458 30.4847 173.776 30.9364 173.776 31.5386C173.776 32.1326 173.511 32.4297 172.982 32.4297C172.844 32.4297 172.453 32.2669 171.811 31.9414C171.168 31.6077 170.561 31.4409 169.992 31.4409C169.422 31.4409 168.962 31.5711 168.612 31.8315C168.271 32.0838 168.1 32.4338 168.1 32.8813C168.1 33.3289 168.34 33.7196 168.82 34.0532C169.097 34.2485 169.748 34.5578 170.773 34.981C171.806 35.4041 172.543 35.811 172.982 36.2017C173.69 36.8283 174.044 37.6299 174.044 38.6064C174.044 39.583 173.629 40.4212 172.799 41.1211C171.969 41.8128 170.891 42.1587 169.564 42.1587H169.247C167.912 42.1587 166.911 41.9674 166.244 41.585C165.577 41.1943 165.243 40.6898 165.243 40.0713C165.243 39.4447 165.504 39.1313 166.024 39.1313C166.195 39.1313 166.639 39.3511 167.355 39.7905C168.079 40.23 168.787 40.4497 169.479 40.4497C170.179 40.4497 170.704 40.3032 171.054 40.0103C171.404 39.7091 171.579 39.3348 171.579 38.8872C171.579 38.4315 171.359 38.0327 170.919 37.6909C170.683 37.5037 170.008 37.166 168.893 36.6777C167.778 36.1813 166.968 35.6849 166.464 35.1885ZM184.298 35.6523V34.7124C184.298 33.5812 184.237 32.7552 184.115 32.2344C183.993 31.7054 183.932 31.3351 183.932 31.1235C183.932 30.6271 184.294 30.3789 185.019 30.3789C185.743 30.3789 186.268 30.5132 186.593 30.7817C186.683 30.855 186.797 30.9974 186.935 31.209C187.082 31.4206 187.212 31.5264 187.326 31.5264C187.35 31.5264 187.704 31.3188 188.388 30.9038C189.071 30.4888 189.657 30.2812 190.146 30.2812H190.329C190.727 30.2812 191.045 30.3789 191.281 30.5742C191.517 30.7614 191.635 30.9933 191.635 31.27V31.4287C191.635 31.7624 191.517 32.0024 191.281 32.1489C191.053 32.2954 190.687 32.3687 190.182 32.3687C189.035 32.3687 188.196 32.7715 187.667 33.5771C187.147 34.3828 186.886 35.807 186.886 37.8496C186.886 38.1426 186.935 38.5942 187.033 39.2046C187.139 39.8149 187.191 40.2747 187.191 40.584C187.191 40.8932 187.025 41.1903 186.691 41.4751C186.357 41.7599 185.934 41.9023 185.421 41.9023H185.006C184.559 41.9023 184.213 41.7965 183.969 41.585C183.733 41.3652 183.615 41.1007 183.615 40.7915C183.615 40.4741 183.672 40.1527 183.786 39.8271C184.095 38.9482 184.25 37.9798 184.25 36.9219C184.282 36.3359 184.298 35.9128 184.298 35.6523ZM193.686 31.0259C193.686 30.5132 194.117 30.2568 194.979 30.2568H195.26C195.797 30.2568 196.16 30.4725 196.347 30.9038C196.534 31.3351 196.627 32.1408 196.627 33.3208L196.481 37.3979C196.481 39.2941 197.16 40.2422 198.52 40.2422C199.016 40.2422 199.492 40.0672 199.948 39.7173C200.403 39.3674 200.741 38.9482 200.961 38.46C201.441 37.3857 201.681 35.4611 201.681 32.686L201.657 32.1489V31.6729C201.657 31.2415 201.754 30.9282 201.95 30.7329C202.145 30.5376 202.487 30.4399 202.975 30.4399C203.463 30.4399 203.785 30.5579 203.939 30.7939C204.094 31.0299 204.171 31.4124 204.171 31.9414L204.147 32.5884L204.098 35.4692C204.098 35.9331 204.127 36.6452 204.184 37.6055C204.241 38.5658 204.302 39.2697 204.367 39.7173C204.432 40.1567 204.464 40.4172 204.464 40.4985C204.464 41.2228 203.931 41.585 202.865 41.585C202.499 41.585 202.133 41.4507 201.767 41.1821C201.409 40.9054 201.152 40.7671 200.998 40.7671C200.851 40.7671 200.599 40.8566 200.241 41.0356C199.223 41.5483 198.357 41.8047 197.641 41.8047H197.335C196.172 41.8047 195.317 41.4466 194.772 40.7305C194.227 40.0143 193.954 38.7244 193.954 36.8608L194.076 33.1621C194.076 32.6982 194.011 32.2547 193.881 31.8315C193.751 31.4084 193.686 31.1398 193.686 31.0259ZM208.175 25.0322C208.175 24.4382 208.733 24.1411 209.848 24.1411H210.067C210.531 24.1411 210.849 24.255 211.02 24.4829C211.19 24.7026 211.276 25.134 211.276 25.7769L211.178 27.5957C211.154 27.8805 211.142 28.0352 211.142 28.0596L211.117 28.5234C211.101 28.8245 211.085 29.1297 211.068 29.439L211.032 29.9028L210.995 30.5986C210.865 33.0726 210.8 34.8996 210.8 36.0796C210.8 37.2515 210.853 38.0938 210.958 38.6064C211.064 39.1191 211.231 39.5545 211.459 39.9126C211.687 40.2707 211.801 40.5067 211.801 40.6206V40.7671C211.801 41.1252 211.622 41.41 211.264 41.6216C210.914 41.8332 210.438 41.939 209.835 41.939H209.201C208.826 41.939 208.497 41.8332 208.212 41.6216C207.935 41.4019 207.797 41.1536 207.797 40.877V40.5474L207.87 40.0347C207.968 39.3267 208.025 38.7977 208.041 38.4478C208.065 38.0897 208.102 37.5973 208.151 36.9707C208.2 36.3359 208.277 34.9891 208.383 32.9302C208.497 30.8631 208.554 29.7523 208.554 29.5977L208.603 28.6821L208.627 27.7788C208.627 26.9162 208.55 26.3018 208.395 25.9355C208.249 25.5612 208.175 25.2601 208.175 25.0322ZM216.854 34.5781V34.7734C216.854 35.0176 217.078 35.1396 217.526 35.1396H217.819L217.892 35.1274L218.49 35.0786C219.117 34.9891 219.524 34.9443 219.711 34.9443C220.598 34.9443 221.265 34.7775 221.713 34.4438C221.924 34.2811 222.03 33.9922 222.03 33.5771V33.4429C222.03 32.8325 221.827 32.3483 221.42 31.9902C221.021 31.6322 220.541 31.4531 219.979 31.4531H219.894L219.821 31.4653C219.031 31.4653 218.34 31.799 217.746 32.4663C217.152 33.1336 216.854 33.8376 216.854 34.5781ZM219.516 42.1587H219.247C217.693 42.1587 216.456 41.6663 215.536 40.6816C214.617 39.6888 214.157 38.3664 214.157 36.7144V36.1772C214.157 35.3879 214.311 34.5863 214.621 33.7725C215.247 32.1449 216.269 31.0218 217.685 30.4033C218.433 30.0697 219.194 29.9028 219.967 29.9028H220.492C221.558 29.9028 222.458 30.2609 223.19 30.9771C223.931 31.6851 224.301 32.6006 224.301 33.7236V33.9678C224.301 34.7653 223.983 35.3309 223.349 35.6646C222.909 35.9006 221.884 36.1366 220.272 36.3726C218.661 36.6086 217.782 36.751 217.636 36.7998C217.147 36.9707 216.903 37.2962 216.903 37.7764C216.903 38.4437 217.188 39.0133 217.758 39.4854C218.327 39.9574 219.092 40.1934 220.053 40.1934C220.5 40.1934 221.111 40.0713 221.884 39.8271C222.657 39.583 223.104 39.4609 223.227 39.4609C223.642 39.4609 223.849 39.64 223.849 39.998C223.849 40.4782 223.381 40.9583 222.445 41.4385C221.509 41.9186 220.533 42.1587 219.516 42.1587ZM227.816 35.1885C227.32 34.6839 227.072 33.9759 227.072 33.0645C227.072 32.153 227.479 31.3717 228.292 30.7207C229.106 30.0615 230.115 29.7319 231.32 29.7319H231.637C232.703 29.7319 233.55 29.8825 234.176 30.1836C234.811 30.4847 235.128 30.9364 235.128 31.5386C235.128 32.1326 234.864 32.4297 234.335 32.4297C234.197 32.4297 233.806 32.2669 233.163 31.9414C232.52 31.6077 231.914 31.4409 231.344 31.4409C230.775 31.4409 230.315 31.5711 229.965 31.8315C229.623 32.0838 229.452 32.4338 229.452 32.8813C229.452 33.3289 229.692 33.7196 230.172 34.0532C230.449 34.2485 231.1 34.5578 232.125 34.981C233.159 35.4041 233.896 35.811 234.335 36.2017C235.043 36.8283 235.397 37.6299 235.397 38.6064C235.397 39.583 234.982 40.4212 234.152 41.1211C233.322 41.8128 232.243 42.1587 230.917 42.1587H230.6C229.265 42.1587 228.264 41.9674 227.597 41.585C226.929 41.1943 226.596 40.6898 226.596 40.0713C226.596 39.4447 226.856 39.1313 227.377 39.1313C227.548 39.1313 227.991 39.3511 228.708 39.7905C229.432 40.23 230.14 40.4497 230.832 40.4497C231.531 40.4497 232.056 40.3032 232.406 40.0103C232.756 39.7091 232.931 39.3348 232.931 38.8872C232.931 38.4315 232.711 38.0327 232.272 37.6909C232.036 37.5037 231.361 37.166 230.246 36.6777C229.131 36.1813 228.321 35.6849 227.816 35.1885ZM239.73 42.1953H239.352C238.945 42.1953 238.628 42.1017 238.4 41.9146C238.18 41.7274 238.07 41.4792 238.07 41.1699C238.054 41.1048 238.046 41.0519 238.046 41.0112L238.021 40.8037V40.584L238.034 40.5352V40.4253C238.05 40.3602 238.058 40.3073 238.058 40.2666C238.058 39.9004 238.18 39.6156 238.424 39.4121C238.677 39.2005 238.953 39.0947 239.254 39.0947L239.511 39.0581H239.84C240.727 39.0581 241.171 39.522 241.171 40.4497V40.6206L241.122 41.0356C241.122 41.41 240.98 41.6989 240.695 41.9023C240.418 42.0977 240.097 42.1953 239.73 42.1953ZM260.727 29.6221V29.2681C260.727 28.381 260.434 27.6893 259.848 27.1929C259.262 26.6965 258.452 26.4482 257.418 26.4482H256.979C256.198 26.4482 255.689 26.554 255.453 26.7656C255.217 26.9772 255.099 27.4696 255.099 28.2427L255.075 28.4624L254.916 31.9536V32.3809C254.916 32.682 254.997 32.8854 255.16 32.9912C255.331 33.097 255.653 33.1499 256.125 33.1499L256.234 33.1377L256.662 33.1255L257.089 33.1011C258.114 33.1011 258.977 32.7796 259.677 32.1367C260.377 31.4857 260.727 30.6475 260.727 29.6221ZM254.843 38.2036L255.099 40.2422C255.099 40.6979 254.908 41.0601 254.525 41.3286C254.151 41.5972 253.651 41.7314 253.024 41.7314C251.901 41.7314 251.339 41.2839 251.339 40.3887C251.339 40.2015 251.453 39.8719 251.681 39.3999C251.909 38.9198 252.047 38.4396 252.096 37.9595C252.308 35.8761 252.414 33.3818 252.414 30.4766L252.426 30.1104C252.434 29.8662 252.438 29.6261 252.438 29.3901L252.462 28.3037C252.462 27.3841 252.438 26.7412 252.389 26.375L252.34 26.1187C252.3 25.8826 252.279 25.7321 252.279 25.667C252.279 25.3008 252.548 25.0607 253.085 24.9468C253.622 24.8328 254.725 24.7759 256.393 24.7759H257.541C260.291 24.7759 262.077 25.5815 262.899 27.1929C263.184 27.7707 263.327 28.4502 263.327 29.2314C263.327 30.6637 262.724 31.9699 261.52 33.1499C260.853 33.8009 260.519 34.3258 260.519 34.7246C260.519 35.1234 261.015 36.2261 262.008 38.0327C262.334 38.6187 262.741 39.1842 263.229 39.7295C263.717 40.2747 263.961 40.6613 263.961 40.8892V41.1333C263.961 41.5728 263.603 41.7925 262.887 41.7925C262.171 41.7925 261.638 41.6053 261.288 41.231C260.946 40.8485 260.368 39.9045 259.555 38.3989C258.749 36.8934 258.306 36.0918 258.224 35.9941C257.72 35.3919 257.17 35.0908 256.576 35.0908C255.982 35.0908 255.506 35.4001 255.148 36.0186C254.944 36.3685 254.843 37.0968 254.843 38.2036ZM270.651 40.4619H270.968C271.636 40.4619 272.222 40.2381 272.726 39.7905C273.239 39.3348 273.495 38.8099 273.495 38.2158L273.52 38.0571V37.8984L273.544 37.52V36.8242C273.544 36.3522 273.304 36.1162 272.824 36.1162H272.274L272.189 36.1284L271.713 36.165C271.485 36.1976 271.322 36.2139 271.225 36.2139C270.565 36.2139 269.955 36.4621 269.394 36.9585C269.003 37.3084 268.808 37.8049 268.808 38.4478V38.6919C268.808 39.2371 268.983 39.6685 269.333 39.9858C269.691 40.3032 270.13 40.4619 270.651 40.4619ZM267.929 32.6616C267.383 32.6616 267.111 32.3117 267.111 31.6118C267.111 31.091 267.55 30.6393 268.429 30.2568C269.316 29.8662 270.236 29.6709 271.188 29.6709H271.798C272.62 29.6709 273.345 29.8255 273.971 30.1348C274.598 30.4359 275.074 30.8468 275.399 31.3677C275.733 31.8885 275.937 32.568 276.01 33.4062C276.026 33.6016 276.034 34.5496 276.034 36.2505C276.034 37.9513 276.055 38.932 276.095 39.1924C276.144 39.4447 276.274 39.7539 276.486 40.1201C276.706 40.4863 276.815 40.7874 276.815 41.0234C276.815 41.2594 276.701 41.4629 276.474 41.6338C276.254 41.7965 275.932 41.8779 275.509 41.8779C275.086 41.8779 274.626 41.7762 274.13 41.5728C273.633 41.3612 273.271 41.2554 273.043 41.2554C273.019 41.2554 272.612 41.4019 271.823 41.6948C271.033 41.9797 270.366 42.1221 269.821 42.1221H269.552C268.641 42.1221 267.864 41.8332 267.221 41.2554C266.586 40.6776 266.269 39.8556 266.269 38.7896C266.269 37.7235 266.618 36.8934 267.318 36.2993C268.018 35.6971 268.869 35.2861 269.87 35.0664C270.171 35.0013 270.671 34.9159 271.371 34.8101C272.071 34.7043 272.547 34.5944 272.799 34.4805C273.239 34.277 273.458 33.8945 273.458 33.333C273.458 32.7633 273.271 32.3198 272.897 32.0024C272.523 31.6769 272.075 31.5142 271.554 31.5142C271.042 31.5142 270.366 31.7054 269.528 32.0879C268.69 32.4704 268.157 32.6616 267.929 32.6616ZM280.441 35.6523V34.7124C280.441 33.5812 280.38 32.7552 280.258 32.2344C280.136 31.7054 280.075 31.3351 280.075 31.1235C280.075 30.6271 280.437 30.3789 281.161 30.3789C281.885 30.3789 282.41 30.5132 282.736 30.7817C282.825 30.855 282.939 30.9974 283.078 31.209C283.224 31.4206 283.354 31.5264 283.468 31.5264C283.493 31.5264 283.847 31.3188 284.53 30.9038C285.214 30.4888 285.8 30.2812 286.288 30.2812H286.471C286.87 30.2812 287.187 30.3789 287.423 30.5742C287.659 30.7614 287.777 30.9933 287.777 31.27V31.4287C287.777 31.7624 287.659 32.0024 287.423 32.1489C287.195 32.2954 286.829 32.3687 286.325 32.3687C285.177 32.3687 284.339 32.7715 283.81 33.5771C283.289 34.3828 283.029 35.807 283.029 37.8496C283.029 38.1426 283.078 38.5942 283.175 39.2046C283.281 39.8149 283.334 40.2747 283.334 40.584C283.334 40.8932 283.167 41.1903 282.833 41.4751C282.5 41.7599 282.077 41.9023 281.564 41.9023H281.149C280.701 41.9023 280.355 41.7965 280.111 41.585C279.875 41.3652 279.757 41.1007 279.757 40.7915C279.757 40.4741 279.814 40.1527 279.928 39.8271C280.237 38.9482 280.392 37.9798 280.392 36.9219C280.425 36.3359 280.441 35.9128 280.441 35.6523ZM291.83 34.5781V34.7734C291.83 35.0176 292.054 35.1396 292.501 35.1396H292.794L292.868 35.1274L293.466 35.0786C294.092 34.9891 294.499 34.9443 294.687 34.9443C295.574 34.9443 296.241 34.7775 296.688 34.4438C296.9 34.2811 297.006 33.9922 297.006 33.5771V33.4429C297.006 32.8325 296.802 32.3483 296.396 31.9902C295.997 31.6322 295.517 31.4531 294.955 31.4531H294.87L294.796 31.4653C294.007 31.4653 293.315 31.799 292.721 32.4663C292.127 33.1336 291.83 33.8376 291.83 34.5781ZM294.491 42.1587H294.223C292.668 42.1587 291.431 41.6663 290.512 40.6816C289.592 39.6888 289.132 38.3664 289.132 36.7144V36.1772C289.132 35.3879 289.287 34.5863 289.596 33.7725C290.223 32.1449 291.244 31.0218 292.66 30.4033C293.409 30.0697 294.17 29.9028 294.943 29.9028H295.468C296.534 29.9028 297.433 30.2609 298.166 30.9771C298.906 31.6851 299.276 32.6006 299.276 33.7236V33.9678C299.276 34.7653 298.959 35.3309 298.324 35.6646C297.885 35.9006 296.859 36.1366 295.248 36.3726C293.637 36.6086 292.758 36.751 292.611 36.7998C292.123 36.9707 291.879 37.2962 291.879 37.7764C291.879 38.4437 292.164 39.0133 292.733 39.4854C293.303 39.9574 294.068 40.1934 295.028 40.1934C295.476 40.1934 296.086 40.0713 296.859 39.8271C297.632 39.583 298.08 39.4609 298.202 39.4609C298.617 39.4609 298.825 39.64 298.825 39.998C298.825 40.4782 298.357 40.9583 297.421 41.4385C296.485 41.9186 295.508 42.1587 294.491 42.1587ZM313.876 30.7085C314.503 30.4725 315.146 30.3545 315.805 30.3545C316.464 30.3545 317.147 30.5498 317.855 30.9404C318.572 31.3311 318.962 31.5264 319.027 31.5264C319.092 31.5264 319.532 31.327 320.346 30.9282C321.16 30.5295 321.892 30.3301 322.543 30.3301C323.202 30.3301 323.743 30.4684 324.167 30.7451C324.598 31.0137 324.923 31.3351 325.143 31.7095C325.558 32.4256 325.766 34.0166 325.766 36.4824C325.766 37.5892 325.774 38.224 325.79 38.3867C325.814 38.5413 325.871 38.8221 325.961 39.229C326.059 39.6278 326.107 39.9574 326.107 40.2178C326.107 40.4701 326.002 40.7345 325.79 41.0112C325.578 41.2879 325.298 41.4263 324.948 41.4263C324.256 41.4263 323.845 41.1455 323.715 40.584C323.617 40.1771 323.503 38.9889 323.373 37.0195C323.251 35.0501 323.117 33.8945 322.97 33.5527C322.677 32.8366 322.055 32.4785 321.103 32.4785C320.492 32.4785 320.016 32.861 319.674 33.626C319.178 34.7246 318.93 36.2871 318.93 38.3135L319.052 40.0713C319.052 40.6898 318.824 41.1577 318.368 41.4751C318.075 41.6785 317.685 41.7803 317.196 41.7803C316.716 41.7803 316.399 41.7314 316.244 41.6338C315.976 41.471 315.841 41.1252 315.841 40.5962C315.841 40.4985 315.919 40.0998 316.073 39.3999C316.236 38.6919 316.317 37.5444 316.317 35.9575C316.317 34.3625 316.199 33.3493 315.963 32.918C315.727 32.4785 315.316 32.2588 314.73 32.2588C314.145 32.2588 313.624 32.4582 313.168 32.8569C312.72 33.2557 312.391 33.6911 312.179 34.1631C311.976 34.6351 311.793 35.7581 311.63 37.5322C311.475 39.3063 311.365 40.3236 311.3 40.584C311.186 41.0316 310.857 41.2554 310.312 41.2554C309.774 41.2554 309.404 41.0967 309.201 40.7793C309.005 40.4538 308.908 40.0591 308.908 39.5952L308.969 39.168L309.201 38.3257C309.298 37.9351 309.355 37.4793 309.372 36.9585C309.494 33.7277 309.587 31.8844 309.652 31.4287C309.717 30.973 310.01 30.7451 310.531 30.7451L312.35 31.0503C312.741 31.0503 313.249 30.9364 313.876 30.7085ZM333.102 26.1309V26.2773C333.102 26.6924 332.98 27.0464 332.736 27.3394C332.5 27.6242 332.134 27.7666 331.637 27.7666H331.442L331.063 27.7178C330.844 27.7178 330.632 27.616 330.429 27.4126C330.225 27.2091 330.124 26.904 330.124 26.4971V26.3506L330.185 25.9111C330.185 25.7402 330.286 25.5286 330.49 25.2764C330.701 25.0241 330.97 24.8979 331.295 24.8979L331.576 24.8613H331.82L332.162 24.9102C332.374 24.9102 332.581 25.016 332.785 25.2275C332.996 25.431 333.102 25.7321 333.102 26.1309ZM332.528 31.2822L332.394 34.5659L332.37 34.8955L332.333 35.8965V36.3726C332.333 37.5444 332.366 38.3135 332.431 38.6797C332.504 39.0459 332.638 39.404 332.833 39.7539C333.029 40.0957 333.126 40.3439 333.126 40.4985V40.6084C333.126 41.0072 332.923 41.3245 332.516 41.5605C332.109 41.7965 331.556 41.9146 330.856 41.9146H330.551C330.144 41.9146 329.835 41.825 329.623 41.646C329.411 41.4588 329.306 41.2594 329.306 41.0479V40.7793C329.306 40.6735 329.399 40.2992 329.586 39.6562C329.774 39.0052 329.867 38.1222 329.867 37.0073C329.892 36.6899 329.904 36.4702 329.904 36.3481L329.94 35.6768L329.965 35.3472C330.006 34.7775 330.026 34.334 330.026 34.0166L330.038 33.5283C330.038 32.918 329.936 32.3768 329.733 31.9048C329.538 31.4328 329.44 31.1398 329.44 31.0259C329.44 30.4399 329.993 30.147 331.1 30.147H331.54C331.955 30.147 332.223 30.2568 332.345 30.4766C332.467 30.6882 332.528 30.9567 332.528 31.2822ZM347.335 40.5352C347.335 41.1374 346.811 41.4385 345.761 41.4385C345.167 41.4385 344.768 41.2961 344.564 41.0112C344.467 40.8729 344.418 40.5474 344.418 40.0347L344.381 39.2534C344.324 38.3989 344.296 37.5404 344.296 36.6777C344.296 34.8141 344.133 33.5649 343.808 32.9302C343.49 32.2873 342.953 31.9658 342.196 31.9658C341.692 31.9658 341.224 32.1164 340.792 32.4175C340.369 32.7186 340.044 33.1377 339.816 33.6748C339.344 34.7734 339.108 36.8039 339.108 39.7661C339.108 40.4416 338.978 40.9176 338.717 41.1943C338.465 41.471 338.139 41.6094 337.741 41.6094H337.497C336.585 41.6094 336.129 41.2472 336.129 40.5229V40.23C336.129 40.1405 336.178 39.9451 336.276 39.644L336.471 39.0825C336.667 38.4233 336.764 37.0114 336.764 34.8467L336.825 31.2212C336.825 30.7573 337.077 30.5254 337.582 30.5254C338.087 30.5254 338.583 30.6922 339.071 31.0259C339.568 31.3595 339.881 31.5264 340.011 31.5264C340.15 31.5264 340.39 31.4328 340.731 31.2456C341.879 30.619 342.799 30.3057 343.49 30.3057H343.808C345.053 30.3057 345.928 30.8672 346.432 31.9902C346.676 32.5192 346.798 33.6585 346.798 35.4082V35.4937C346.798 35.6401 346.794 35.7866 346.786 35.9331C346.786 36.3319 346.786 36.5394 346.786 36.5557C346.786 36.7103 346.786 36.8608 346.786 37.0073C346.786 37.1213 346.786 37.2311 346.786 37.3369C346.786 37.9635 346.806 38.3908 346.847 38.6187C346.904 38.9279 346.998 39.2493 347.128 39.583C347.266 39.9492 347.335 40.2666 347.335 40.5352ZM352.304 36.8486C352.304 37.9147 352.548 38.8018 353.036 39.5098C353.524 40.2178 354.123 40.5718 354.831 40.5718H355.197C356.035 40.5718 356.743 40.1486 357.321 39.3022C357.907 38.4559 358.2 37.3288 358.2 35.9209V35.1152C358.2 34.0247 357.96 33.1336 357.479 32.4419C357.007 31.742 356.397 31.3921 355.648 31.3921H355.404C354.534 31.3921 353.801 31.8234 353.207 32.686C352.621 33.5487 352.328 34.5781 352.328 35.7744L352.304 36.0552V36.8486ZM355.062 42.2319H354.672C353.248 42.2319 352.088 41.7355 351.193 40.7427C350.298 39.7498 349.85 38.342 349.85 36.519L349.862 36.3115C349.862 34.3096 350.391 32.7308 351.449 31.5752C352.003 30.9648 352.633 30.5173 353.341 30.2324C354.057 29.9395 354.737 29.793 355.38 29.793H355.978C356.694 29.793 357.382 29.9517 358.041 30.269C359.929 31.1805 360.873 32.8976 360.873 35.4204V35.6157C360.865 36.4377 360.731 37.2718 360.47 38.1182C359.949 39.7865 358.948 40.9665 357.467 41.6582C356.645 42.0407 355.844 42.2319 355.062 42.2319ZM364.181 35.6523V34.7124C364.181 33.5812 364.12 32.7552 363.998 32.2344C363.876 31.7054 363.815 31.3351 363.815 31.1235C363.815 30.6271 364.177 30.3789 364.901 30.3789C365.626 30.3789 366.151 30.5132 366.476 30.7817C366.566 30.855 366.68 30.9974 366.818 31.209C366.964 31.4206 367.095 31.5264 367.208 31.5264C367.233 31.5264 367.587 31.3188 368.271 30.9038C368.954 30.4888 369.54 30.2812 370.028 30.2812H370.211C370.61 30.2812 370.928 30.3789 371.164 30.5742C371.4 30.7614 371.518 30.9933 371.518 31.27V31.4287C371.518 31.7624 371.4 32.0024 371.164 32.1489C370.936 32.2954 370.569 32.3687 370.065 32.3687C368.917 32.3687 368.079 32.7715 367.55 33.5771C367.029 34.3828 366.769 35.807 366.769 37.8496C366.769 38.1426 366.818 38.5942 366.916 39.2046C367.021 39.8149 367.074 40.2747 367.074 40.584C367.074 40.8932 366.907 41.1903 366.574 41.4751C366.24 41.7599 365.817 41.9023 365.304 41.9023H364.889C364.442 41.9023 364.096 41.7965 363.852 41.585C363.616 41.3652 363.498 41.1007 363.498 40.7915C363.498 40.4741 363.555 40.1527 363.668 39.8271C363.978 38.9482 364.132 37.9798 364.132 36.9219C364.165 36.3359 364.181 35.9128 364.181 35.6523ZM384.323 26.1309V26.2773C384.323 26.6924 384.201 27.0464 383.957 27.3394C383.721 27.6242 383.354 27.7666 382.858 27.7666H382.663L382.284 27.7178C382.064 27.7178 381.853 27.616 381.649 27.4126C381.446 27.2091 381.344 26.904 381.344 26.4971V26.3506L381.405 25.9111C381.405 25.7402 381.507 25.5286 381.71 25.2764C381.922 25.0241 382.191 24.8979 382.516 24.8979L382.797 24.8613H383.041L383.383 24.9102C383.594 24.9102 383.802 25.016 384.005 25.2275C384.217 25.431 384.323 25.7321 384.323 26.1309ZM383.749 31.2822L383.615 34.5659L383.59 34.8955L383.554 35.8965V36.3726C383.554 37.5444 383.586 38.3135 383.651 38.6797C383.725 39.0459 383.859 39.404 384.054 39.7539C384.25 40.0957 384.347 40.3439 384.347 40.4985V40.6084C384.347 41.0072 384.144 41.3245 383.737 41.5605C383.33 41.7965 382.777 41.9146 382.077 41.9146H381.771C381.365 41.9146 381.055 41.825 380.844 41.646C380.632 41.4588 380.526 41.2594 380.526 41.0479V40.7793C380.526 40.6735 380.62 40.2992 380.807 39.6562C380.994 39.0052 381.088 38.1222 381.088 37.0073C381.112 36.6899 381.125 36.4702 381.125 36.3481L381.161 35.6768L381.186 35.3472C381.226 34.7775 381.247 34.334 381.247 34.0166L381.259 33.5283C381.259 32.918 381.157 32.3768 380.954 31.9048C380.758 31.4328 380.661 31.1398 380.661 31.0259C380.661 30.4399 381.214 30.147 382.321 30.147H382.76C383.175 30.147 383.444 30.2568 383.566 30.4766C383.688 30.6882 383.749 30.9567 383.749 31.2822ZM388.266 35.1885C387.769 34.6839 387.521 33.9759 387.521 33.0645C387.521 32.153 387.928 31.3717 388.742 30.7207C389.556 30.0615 390.565 29.7319 391.769 29.7319H392.086C393.153 29.7319 393.999 29.8825 394.625 30.1836C395.26 30.4847 395.578 30.9364 395.578 31.5386C395.578 32.1326 395.313 32.4297 394.784 32.4297C394.646 32.4297 394.255 32.2669 393.612 31.9414C392.969 31.6077 392.363 31.4409 391.793 31.4409C391.224 31.4409 390.764 31.5711 390.414 31.8315C390.072 32.0838 389.901 32.4338 389.901 32.8813C389.901 33.3289 390.141 33.7196 390.622 34.0532C390.898 34.2485 391.549 34.5578 392.575 34.981C393.608 35.4041 394.345 35.811 394.784 36.2017C395.492 36.8283 395.846 37.6299 395.846 38.6064C395.846 39.583 395.431 40.4212 394.601 41.1211C393.771 41.8128 392.693 42.1587 391.366 42.1587H391.049C389.714 42.1587 388.713 41.9674 388.046 41.585C387.379 41.1943 387.045 40.6898 387.045 40.0713C387.045 39.4447 387.305 39.1313 387.826 39.1313C387.997 39.1313 388.441 39.3511 389.157 39.7905C389.881 40.23 390.589 40.4497 391.281 40.4497C391.981 40.4497 392.506 40.3032 392.855 40.0103C393.205 39.7091 393.38 39.3348 393.38 38.8872C393.38 38.4315 393.161 38.0327 392.721 37.6909C392.485 37.5037 391.81 37.166 390.695 36.6777C389.58 36.1813 388.77 35.6849 388.266 35.1885ZM399.325 35.1885C398.829 34.6839 398.581 33.9759 398.581 33.0645C398.581 32.153 398.987 31.3717 399.801 30.7207C400.615 30.0615 401.624 29.7319 402.829 29.7319H403.146C404.212 29.7319 405.058 29.8825 405.685 30.1836C406.32 30.4847 406.637 30.9364 406.637 31.5386C406.637 32.1326 406.373 32.4297 405.844 32.4297C405.705 32.4297 405.315 32.2669 404.672 31.9414C404.029 31.6077 403.423 31.4409 402.853 31.4409C402.283 31.4409 401.824 31.5711 401.474 31.8315C401.132 32.0838 400.961 32.4338 400.961 32.8813C400.961 33.3289 401.201 33.7196 401.681 34.0532C401.958 34.2485 402.609 34.5578 403.634 34.981C404.668 35.4041 405.404 35.811 405.844 36.2017C406.552 36.8283 406.906 37.6299 406.906 38.6064C406.906 39.583 406.491 40.4212 405.661 41.1211C404.831 41.8128 403.752 42.1587 402.426 42.1587H402.108C400.774 42.1587 399.773 41.9674 399.105 41.585C398.438 41.1943 398.104 40.6898 398.104 40.0713C398.104 39.4447 398.365 39.1313 398.886 39.1313C399.057 39.1313 399.5 39.3511 400.216 39.7905C400.941 40.23 401.649 40.4497 402.34 40.4497C403.04 40.4497 403.565 40.3032 403.915 40.0103C404.265 39.7091 404.44 39.3348 404.44 38.8872C404.44 38.4315 404.22 38.0327 403.781 37.6909C403.545 37.5037 402.869 37.166 401.754 36.6777C400.639 36.1813 399.83 35.6849 399.325 35.1885ZM409.555 31.0259C409.555 30.5132 409.986 30.2568 410.849 30.2568H411.129C411.667 30.2568 412.029 30.4725 412.216 30.9038C412.403 31.3351 412.497 32.1408 412.497 33.3208L412.35 37.3979C412.35 39.2941 413.03 40.2422 414.389 40.2422C414.885 40.2422 415.361 40.0672 415.817 39.7173C416.273 39.3674 416.61 38.9482 416.83 38.46C417.31 37.3857 417.55 35.4611 417.55 32.686L417.526 32.1489V31.6729C417.526 31.2415 417.624 30.9282 417.819 30.7329C418.014 30.5376 418.356 30.4399 418.844 30.4399C419.333 30.4399 419.654 30.5579 419.809 30.7939C419.963 31.0299 420.041 31.4124 420.041 31.9414L420.016 32.5884L419.967 35.4692C419.967 35.9331 419.996 36.6452 420.053 37.6055C420.11 38.5658 420.171 39.2697 420.236 39.7173C420.301 40.1567 420.333 40.4172 420.333 40.4985C420.333 41.2228 419.8 41.585 418.734 41.585C418.368 41.585 418.002 41.4507 417.636 41.1821C417.278 40.9054 417.021 40.7671 416.867 40.7671C416.72 40.7671 416.468 40.8566 416.11 41.0356C415.093 41.5483 414.226 41.8047 413.51 41.8047H413.205C412.041 41.8047 411.186 41.4466 410.641 40.7305C410.096 40.0143 409.823 38.7244 409.823 36.8608L409.945 33.1621C409.945 32.6982 409.88 32.2547 409.75 31.8315C409.62 31.4084 409.555 31.1398 409.555 31.0259ZM425.595 34.5781V34.7734C425.595 35.0176 425.819 35.1396 426.266 35.1396H426.559L426.632 35.1274L427.23 35.0786C427.857 34.9891 428.264 34.9443 428.451 34.9443C429.338 34.9443 430.006 34.7775 430.453 34.4438C430.665 34.2811 430.771 33.9922 430.771 33.5771V33.4429C430.771 32.8325 430.567 32.3483 430.16 31.9902C429.761 31.6322 429.281 31.4531 428.72 31.4531H428.634L428.561 31.4653C427.772 31.4653 427.08 31.799 426.486 32.4663C425.892 33.1336 425.595 33.8376 425.595 34.5781ZM428.256 42.1587H427.987C426.433 42.1587 425.196 41.6663 424.276 40.6816C423.357 39.6888 422.897 38.3664 422.897 36.7144V36.1772C422.897 35.3879 423.052 34.5863 423.361 33.7725C423.987 32.1449 425.009 31.0218 426.425 30.4033C427.174 30.0697 427.934 29.9028 428.708 29.9028H429.232C430.299 29.9028 431.198 30.2609 431.93 30.9771C432.671 31.6851 433.041 32.6006 433.041 33.7236V33.9678C433.041 34.7653 432.724 35.3309 432.089 35.6646C431.649 35.9006 430.624 36.1366 429.013 36.3726C427.401 36.6086 426.522 36.751 426.376 36.7998C425.888 36.9707 425.644 37.2962 425.644 37.7764C425.644 38.4437 425.928 39.0133 426.498 39.4854C427.068 39.9574 427.833 40.1934 428.793 40.1934C429.241 40.1934 429.851 40.0713 430.624 39.8271C431.397 39.583 431.845 39.4609 431.967 39.4609C432.382 39.4609 432.589 39.64 432.589 39.998C432.589 40.4782 432.121 40.9583 431.186 41.4385C430.25 41.9186 429.273 42.1587 428.256 42.1587ZM436.557 35.1885C436.06 34.6839 435.812 33.9759 435.812 33.0645C435.812 32.153 436.219 31.3717 437.033 30.7207C437.847 30.0615 438.856 29.7319 440.06 29.7319H440.377C441.444 29.7319 442.29 29.8825 442.917 30.1836C443.551 30.4847 443.869 30.9364 443.869 31.5386C443.869 32.1326 443.604 32.4297 443.075 32.4297C442.937 32.4297 442.546 32.2669 441.903 31.9414C441.26 31.6077 440.654 31.4409 440.084 31.4409C439.515 31.4409 439.055 31.5711 438.705 31.8315C438.363 32.0838 438.192 32.4338 438.192 32.8813C438.192 33.3289 438.432 33.7196 438.913 34.0532C439.189 34.2485 439.84 34.5578 440.866 34.981C441.899 35.4041 442.636 35.811 443.075 36.2017C443.783 36.8283 444.137 37.6299 444.137 38.6064C444.137 39.583 443.722 40.4212 442.892 41.1211C442.062 41.8128 440.984 42.1587 439.657 42.1587H439.34C438.005 42.1587 437.004 41.9674 436.337 41.585C435.67 41.1943 435.336 40.6898 435.336 40.0713C435.336 39.4447 435.596 39.1313 436.117 39.1313C436.288 39.1313 436.732 39.3511 437.448 39.7905C438.172 40.23 438.88 40.4497 439.572 40.4497C440.272 40.4497 440.797 40.3032 441.146 40.0103C441.496 39.7091 441.671 39.3348 441.671 38.8872C441.671 38.4315 441.452 38.0327 441.012 37.6909C440.776 37.5037 440.101 37.166 438.986 36.6777C437.871 36.1813 437.061 35.6849 436.557 35.1885ZM448.471 42.1953H448.092C447.685 42.1953 447.368 42.1017 447.14 41.9146C446.92 41.7274 446.811 41.4792 446.811 41.1699C446.794 41.1048 446.786 41.0519 446.786 41.0112L446.762 40.8037V40.584L446.774 40.5352V40.4253C446.79 40.3602 446.798 40.3073 446.798 40.2666C446.798 39.9004 446.92 39.6156 447.165 39.4121C447.417 39.2005 447.694 39.0947 447.995 39.0947L448.251 39.0581H448.581C449.468 39.0581 449.911 39.522 449.911 40.4497V40.6206L449.862 41.0356C449.862 41.41 449.72 41.6989 449.435 41.9023C449.158 42.0977 448.837 42.1953 448.471 42.1953ZM459.787 34.395V34.0044C459.787 32.7104 459.99 31.4613 460.397 30.2568C461.162 28.0026 462.509 26.4198 464.438 25.5083C465.487 25.0119 466.574 24.7637 467.697 24.7637H468.075C469.776 24.7637 470.985 25.0119 471.701 25.5083C472.417 26.0047 472.775 26.6313 472.775 27.3882C472.775 27.8439 472.685 28.1491 472.506 28.3037C472.327 28.4583 472.152 28.5356 471.981 28.5356C471.819 28.5356 471.465 28.3485 470.919 27.9741C470.382 27.5998 469.861 27.3109 469.357 27.1074C468.852 26.8958 468.222 26.79 467.465 26.79C466.708 26.79 466.02 26.9772 465.402 27.3516C463.546 28.4827 462.615 30.8062 462.606 34.3218C462.606 35.2332 462.729 36.0552 462.973 36.7876C463.713 39.0011 465.19 40.1079 467.404 40.1079C468.478 40.1079 469.715 39.7173 471.115 38.936C471.554 38.6919 471.88 38.5698 472.091 38.5698C472.441 38.5698 472.616 38.7692 472.616 39.168C472.616 39.4202 472.502 39.701 472.274 40.0103C471.876 40.5636 471.355 40.999 470.712 41.3164C469.621 41.8617 468.409 42.1343 467.074 42.1343H466.684C464.6 42.1343 462.924 41.4385 461.654 40.0469C461.052 39.3877 460.588 38.5576 460.263 37.5566C459.945 36.5557 459.787 35.5018 459.787 34.395ZM477.426 36.8486C477.426 37.9147 477.67 38.8018 478.158 39.5098C478.646 40.2178 479.245 40.5718 479.953 40.5718H480.319C481.157 40.5718 481.865 40.1486 482.443 39.3022C483.029 38.4559 483.322 37.3288 483.322 35.9209V35.1152C483.322 34.0247 483.082 33.1336 482.602 32.4419C482.13 31.742 481.519 31.3921 480.771 31.3921H480.526C479.656 31.3921 478.923 31.8234 478.329 32.686C477.743 33.5487 477.45 34.5781 477.45 35.7744L477.426 36.0552V36.8486ZM480.185 42.2319H479.794C478.37 42.2319 477.21 41.7355 476.315 40.7427C475.42 39.7498 474.972 38.342 474.972 36.519L474.984 36.3115C474.984 34.3096 475.513 32.7308 476.571 31.5752C477.125 30.9648 477.755 30.5173 478.463 30.2324C479.18 29.9395 479.859 29.793 480.502 29.793H481.1C481.816 29.793 482.504 29.9517 483.163 30.269C485.051 31.1805 485.995 32.8976 485.995 35.4204V35.6157C485.987 36.4377 485.853 37.2718 485.592 38.1182C485.071 39.7865 484.07 40.9665 482.589 41.6582C481.767 42.0407 480.966 42.2319 480.185 42.2319ZM489.303 35.6523V34.7124C489.303 33.5812 489.242 32.7552 489.12 32.2344C488.998 31.7054 488.937 31.3351 488.937 31.1235C488.937 30.6271 489.299 30.3789 490.023 30.3789C490.748 30.3789 491.273 30.5132 491.598 30.7817C491.688 30.855 491.802 30.9974 491.94 31.209C492.086 31.4206 492.217 31.5264 492.331 31.5264C492.355 31.5264 492.709 31.3188 493.393 30.9038C494.076 30.4888 494.662 30.2812 495.15 30.2812H495.333C495.732 30.2812 496.05 30.3789 496.286 30.5742C496.522 30.7614 496.64 30.9933 496.64 31.27V31.4287C496.64 31.7624 496.522 32.0024 496.286 32.1489C496.058 32.2954 495.692 32.3687 495.187 32.3687C494.04 32.3687 493.201 32.7715 492.672 33.5771C492.152 34.3828 491.891 35.807 491.891 37.8496C491.891 38.1426 491.94 38.5942 492.038 39.2046C492.143 39.8149 492.196 40.2747 492.196 40.584C492.196 40.8932 492.029 41.1903 491.696 41.4751C491.362 41.7599 490.939 41.9023 490.426 41.9023H490.011C489.564 41.9023 489.218 41.7965 488.974 41.585C488.738 41.3652 488.62 41.1007 488.62 40.7915C488.62 40.4741 488.677 40.1527 488.791 39.8271C489.1 38.9482 489.254 37.9798 489.254 36.9219C489.287 36.3359 489.303 35.9128 489.303 35.6523ZM499.386 35.6523V34.7124C499.386 33.5812 499.325 32.7552 499.203 32.2344C499.081 31.7054 499.02 31.3351 499.02 31.1235C499.02 30.6271 499.382 30.3789 500.106 30.3789C500.831 30.3789 501.356 30.5132 501.681 30.7817C501.771 30.855 501.885 30.9974 502.023 31.209C502.169 31.4206 502.3 31.5264 502.414 31.5264C502.438 31.5264 502.792 31.3188 503.476 30.9038C504.159 30.4888 504.745 30.2812 505.233 30.2812H505.417C505.815 30.2812 506.133 30.3789 506.369 30.5742C506.605 30.7614 506.723 30.9933 506.723 31.27V31.4287C506.723 31.7624 506.605 32.0024 506.369 32.1489C506.141 32.2954 505.775 32.3687 505.27 32.3687C504.123 32.3687 503.284 32.7715 502.755 33.5771C502.235 34.3828 501.974 35.807 501.974 37.8496C501.974 38.1426 502.023 38.5942 502.121 39.2046C502.226 39.8149 502.279 40.2747 502.279 40.584C502.279 40.8932 502.112 41.1903 501.779 41.4751C501.445 41.7599 501.022 41.9023 500.509 41.9023H500.094C499.647 41.9023 499.301 41.7965 499.057 41.585C498.821 41.3652 498.703 41.1007 498.703 40.7915C498.703 40.4741 498.76 40.1527 498.874 39.8271C499.183 38.9482 499.337 37.9798 499.337 36.9219C499.37 36.3359 499.386 35.9128 499.386 35.6523ZM510.775 34.5781V34.7734C510.775 35.0176 510.999 35.1396 511.447 35.1396H511.74L511.813 35.1274L512.411 35.0786C513.038 34.9891 513.445 34.9443 513.632 34.9443C514.519 34.9443 515.186 34.7775 515.634 34.4438C515.845 34.2811 515.951 33.9922 515.951 33.5771V33.4429C515.951 32.8325 515.748 32.3483 515.341 31.9902C514.942 31.6322 514.462 31.4531 513.9 31.4531H513.815L513.742 31.4653C512.952 31.4653 512.261 31.799 511.667 32.4663C511.072 33.1336 510.775 33.8376 510.775 34.5781ZM513.437 42.1587H513.168C511.614 42.1587 510.377 41.6663 509.457 40.6816C508.537 39.6888 508.078 38.3664 508.078 36.7144V36.1772C508.078 35.3879 508.232 34.5863 508.542 33.7725C509.168 32.1449 510.189 31.0218 511.605 30.4033C512.354 30.0697 513.115 29.9028 513.888 29.9028H514.413C515.479 29.9028 516.378 30.2609 517.111 30.9771C517.851 31.6851 518.222 32.6006 518.222 33.7236V33.9678C518.222 34.7653 517.904 35.3309 517.27 35.6646C516.83 35.9006 515.805 36.1366 514.193 36.3726C512.582 36.6086 511.703 36.751 511.557 36.7998C511.068 36.9707 510.824 37.2962 510.824 37.7764C510.824 38.4437 511.109 39.0133 511.679 39.4854C512.248 39.9574 513.013 40.1934 513.974 40.1934C514.421 40.1934 515.032 40.0713 515.805 39.8271C516.578 39.583 517.025 39.4609 517.147 39.4609C517.562 39.4609 517.77 39.64 517.77 39.998C517.77 40.4782 517.302 40.9583 516.366 41.4385C515.43 41.9186 514.454 42.1587 513.437 42.1587ZM520.492 36.9219V36.3604C520.492 35.335 520.651 34.4276 520.968 33.6382C521.579 32.1082 522.514 31.0503 523.776 30.4644C524.598 30.0737 525.448 29.8784 526.327 29.8784H526.596C527.564 29.8784 528.366 30.0697 529 30.4521C529.635 30.8346 529.953 31.3026 529.953 31.856C529.953 32.4989 529.643 32.8203 529.025 32.8203C528.911 32.8203 528.512 32.6413 527.829 32.2832C527.145 31.9333 526.583 31.7583 526.144 31.7583C526.136 31.7583 526.128 31.7583 526.12 31.7583C525.159 31.7583 524.407 32.1733 523.861 33.0034C523.324 33.8335 523.056 34.9159 523.056 36.2505C523.056 37.5851 523.34 38.5739 523.91 39.2168C524.488 39.8597 525.29 40.1812 526.315 40.1812C526.738 40.1812 527.32 40.0632 528.061 39.8271C528.801 39.583 529.253 39.4609 529.416 39.4609C529.749 39.4609 529.916 39.6359 529.916 39.9858C529.916 40.4578 529.448 40.9339 528.512 41.4141C527.576 41.8942 526.657 42.1343 525.753 42.1343C523.336 42.1343 521.737 41.1821 520.956 39.2778C520.647 38.521 520.492 37.7357 520.492 36.9219ZM538.9 40.6938C538.9 41.0194 538.701 41.3123 538.302 41.5728C537.912 41.825 537.379 41.9512 536.703 41.9512C535.442 41.9512 534.555 41.4832 534.042 40.5474C533.725 39.9614 533.566 38.5902 533.566 36.4336C533.566 34.277 533.529 33.0238 533.456 32.6738C533.383 32.3239 533.179 31.9821 532.846 31.6484C532.512 31.3148 532.345 31.0584 532.345 30.8794C532.345 30.8143 532.74 30.387 533.529 29.5977C533.7 29.4268 533.871 29.0483 534.042 28.4624C534.221 27.8765 534.347 27.4899 534.42 27.3027C534.665 26.7168 534.986 26.4238 535.385 26.4238H535.58C535.93 26.4238 536.178 26.5581 536.325 26.8267C536.382 26.9325 536.467 27.3149 536.581 27.9741C536.703 28.6252 536.841 29.0443 536.996 29.2314C537.151 29.4186 537.537 29.6261 538.156 29.854C538.782 30.0737 539.096 30.3097 539.096 30.562V30.6963C539.096 31.0218 538.738 31.2985 538.021 31.5264C537.313 31.7461 536.858 32.1001 536.654 32.5884C536.256 33.5731 536.056 35.1763 536.056 37.3979C536.056 38.4396 536.235 39.1476 536.593 39.522C536.813 39.7498 537.252 39.9085 537.912 39.998C538.571 40.0876 538.9 40.3195 538.9 40.6938ZM542.611 35.1885C542.115 34.6839 541.867 33.9759 541.867 33.0645C541.867 32.153 542.274 31.3717 543.087 30.7207C543.901 30.0615 544.91 29.7319 546.115 29.7319H546.432C547.498 29.7319 548.345 29.8825 548.971 30.1836C549.606 30.4847 549.923 30.9364 549.923 31.5386C549.923 32.1326 549.659 32.4297 549.13 32.4297C548.992 32.4297 548.601 32.2669 547.958 31.9414C547.315 31.6077 546.709 31.4409 546.139 31.4409C545.569 31.4409 545.11 31.5711 544.76 31.8315C544.418 32.0838 544.247 32.4338 544.247 32.8813C544.247 33.3289 544.487 33.7196 544.967 34.0532C545.244 34.2485 545.895 34.5578 546.92 34.981C547.954 35.4041 548.69 35.811 549.13 36.2017C549.838 36.8283 550.192 37.6299 550.192 38.6064C550.192 39.583 549.777 40.4212 548.947 41.1211C548.117 41.8128 547.038 42.1587 545.712 42.1587H545.395C544.06 42.1587 543.059 41.9674 542.392 41.585C541.724 41.1943 541.391 40.6898 541.391 40.0713C541.391 39.4447 541.651 39.1313 542.172 39.1313C542.343 39.1313 542.786 39.3511 543.502 39.7905C544.227 40.23 544.935 40.4497 545.626 40.4497C546.326 40.4497 546.851 40.3032 547.201 40.0103C547.551 39.7091 547.726 39.3348 547.726 38.8872C547.726 38.4315 547.506 38.0327 547.067 37.6909C546.831 37.5037 546.155 37.166 545.041 36.6777C543.926 36.1813 543.116 35.6849 542.611 35.1885ZM564.584 40.4497H564.95C565.837 40.4497 566.582 40.0103 567.184 39.1313C567.794 38.2443 568.1 37.0399 568.1 35.5181V35.1274L568.087 34.9932L568.075 34.7368C568.067 34.6473 568.063 34.5618 568.063 34.4805C568.063 33.6911 567.843 32.9993 567.404 32.4053C566.964 31.8031 566.427 31.502 565.792 31.502H565.438C565.04 31.502 564.6 31.6403 564.12 31.917C563.648 32.1937 563.314 32.5192 563.119 32.8936C562.688 33.7074 562.472 34.9932 562.472 36.751V37.874C562.497 38.1182 562.509 38.3216 562.509 38.4844C562.509 39.0703 562.688 39.5464 563.046 39.9126C563.412 40.2707 563.925 40.4497 564.584 40.4497ZM562.985 29.7197C562.985 30.029 563.034 30.2609 563.131 30.4155C563.237 30.5701 563.51 30.6475 563.949 30.6475C563.957 30.6475 564.222 30.5864 564.743 30.4644C565.272 30.3423 565.817 30.2812 566.378 30.2812C567.591 30.2812 568.604 30.7614 569.418 31.7217C570.232 32.682 570.639 33.8538 570.639 35.2373V36.1162C570.639 36.7998 570.504 37.5241 570.236 38.2891C569.959 39.054 569.569 39.7173 569.064 40.2788C568.03 41.4181 566.757 41.9878 565.243 41.9878H564.975C564.551 41.9878 564.006 41.9064 563.339 41.7437C562.672 41.5809 562.236 41.4995 562.033 41.4995L561.215 41.5728C560.377 41.5728 559.958 41.1536 559.958 40.3154V39.8149C559.958 39.3185 560.055 37.5078 560.25 34.3828C560.454 31.2578 560.556 29.264 560.556 28.4014C560.556 27.5387 560.486 26.8226 560.348 26.2529C560.21 25.6833 560.141 25.374 560.141 25.3252C560.141 24.6416 560.527 24.2998 561.3 24.2998H561.544C562.204 24.2998 562.623 24.4585 562.802 24.7759C562.981 25.0851 563.07 25.6629 563.07 26.5093L563.009 28.4502L562.985 28.9995V29.7197ZM575.448 34.5781V34.7734C575.448 35.0176 575.672 35.1396 576.12 35.1396H576.413L576.486 35.1274L577.084 35.0786C577.711 34.9891 578.118 34.9443 578.305 34.9443C579.192 34.9443 579.859 34.7775 580.307 34.4438C580.518 34.2811 580.624 33.9922 580.624 33.5771V33.4429C580.624 32.8325 580.421 32.3483 580.014 31.9902C579.615 31.6322 579.135 31.4531 578.573 31.4531H578.488L578.415 31.4653C577.625 31.4653 576.933 31.799 576.339 32.4663C575.745 33.1336 575.448 33.8376 575.448 34.5781ZM578.109 42.1587H577.841C576.286 42.1587 575.049 41.6663 574.13 40.6816C573.21 39.6888 572.75 38.3664 572.75 36.7144V36.1772C572.75 35.3879 572.905 34.5863 573.214 33.7725C573.841 32.1449 574.862 31.0218 576.278 30.4033C577.027 30.0697 577.788 29.9028 578.561 29.9028H579.086C580.152 29.9028 581.051 30.2609 581.784 30.9771C582.524 31.6851 582.895 32.6006 582.895 33.7236V33.9678C582.895 34.7653 582.577 35.3309 581.942 35.6646C581.503 35.9006 580.478 36.1366 578.866 36.3726C577.255 36.6086 576.376 36.751 576.229 36.7998C575.741 36.9707 575.497 37.2962 575.497 37.7764C575.497 38.4437 575.782 39.0133 576.352 39.4854C576.921 39.9574 577.686 40.1934 578.646 40.1934C579.094 40.1934 579.704 40.0713 580.478 39.8271C581.251 39.583 581.698 39.4609 581.82 39.4609C582.235 39.4609 582.443 39.64 582.443 39.998C582.443 40.4782 581.975 40.9583 581.039 41.4385C580.103 41.9186 579.127 42.1587 578.109 42.1587ZM587.033 41.7681C586.072 41.7681 585.592 41.4263 585.592 40.7427C585.592 40.4334 585.666 39.9736 585.812 39.3633C585.967 38.7529 586.068 38.1914 586.117 37.6787C586.166 37.1579 586.251 35.4814 586.374 32.6494C586.504 29.8174 586.569 28.0921 586.569 27.4736V26.0332L586.496 25.0078C586.496 24.6253 586.846 24.4341 587.545 24.4341C588.253 24.4341 588.713 24.7067 588.925 25.252C589.031 25.5286 589.083 26.432 589.083 27.9619C589.083 29.4919 589.112 30.3626 589.169 30.5742C589.234 30.7858 589.401 30.8916 589.669 30.8916C589.702 30.8916 589.857 30.8428 590.133 30.7451L590.402 30.6475C591.273 30.3057 592.025 30.1348 592.66 30.1348C593.995 30.1348 594.943 30.6556 595.504 31.6973C595.879 32.389 596.066 33.8945 596.066 36.2139C596.066 37.3044 596.074 37.9513 596.09 38.1548C596.107 38.3582 596.16 38.7285 596.249 39.2656C596.339 39.7946 596.383 40.0876 596.383 40.1445C596.383 40.6247 596.273 40.9827 596.054 41.2188C595.842 41.4466 595.456 41.5605 594.894 41.5605C594.341 41.5605 593.979 41.3896 593.808 41.0479C593.718 40.8688 593.673 40.3521 593.673 39.4976L593.637 37.3491L593.673 35.4082C593.673 33.2354 593.039 32.1489 591.769 32.1489C590.646 32.1489 589.844 32.6209 589.364 33.5649C588.884 34.509 588.644 36.2586 588.644 38.814L588.681 40.1445C588.681 40.6003 588.538 40.9868 588.253 41.3042C587.969 41.6134 587.562 41.7681 587.033 41.7681ZM603.39 40.4619H603.708C604.375 40.4619 604.961 40.2381 605.465 39.7905C605.978 39.3348 606.234 38.8099 606.234 38.2158L606.259 38.0571V37.8984L606.283 37.52V36.8242C606.283 36.3522 606.043 36.1162 605.563 36.1162H605.014L604.928 36.1284L604.452 36.165C604.224 36.1976 604.062 36.2139 603.964 36.2139C603.305 36.2139 602.694 36.4621 602.133 36.9585C601.742 37.3084 601.547 37.8049 601.547 38.4478V38.6919C601.547 39.2371 601.722 39.6685 602.072 39.9858C602.43 40.3032 602.869 40.4619 603.39 40.4619ZM600.668 32.6616C600.123 32.6616 599.85 32.3117 599.85 31.6118C599.85 31.091 600.29 30.6393 601.168 30.2568C602.056 29.8662 602.975 29.6709 603.927 29.6709H604.538C605.36 29.6709 606.084 29.8255 606.71 30.1348C607.337 30.4359 607.813 30.8468 608.139 31.3677C608.472 31.8885 608.676 32.568 608.749 33.4062C608.765 33.6016 608.773 34.5496 608.773 36.2505C608.773 37.9513 608.794 38.932 608.834 39.1924C608.883 39.4447 609.014 39.7539 609.225 40.1201C609.445 40.4863 609.555 40.7874 609.555 41.0234C609.555 41.2594 609.441 41.4629 609.213 41.6338C608.993 41.7965 608.672 41.8779 608.249 41.8779C607.825 41.8779 607.366 41.7762 606.869 41.5728C606.373 41.3612 606.011 41.2554 605.783 41.2554C605.758 41.2554 605.351 41.4019 604.562 41.6948C603.773 41.9797 603.105 42.1221 602.56 42.1221H602.292C601.38 42.1221 600.603 41.8332 599.96 41.2554C599.325 40.6776 599.008 39.8556 599.008 38.7896C599.008 37.7235 599.358 36.8934 600.058 36.2993C600.757 35.6971 601.608 35.2861 602.609 35.0664C602.91 35.0013 603.41 34.9159 604.11 34.8101C604.81 34.7043 605.286 34.5944 605.539 34.4805C605.978 34.277 606.198 33.8945 606.198 33.333C606.198 32.7633 606.011 32.3198 605.636 32.0024C605.262 31.6769 604.814 31.5142 604.293 31.5142C603.781 31.5142 603.105 31.7054 602.267 32.0879C601.429 32.4704 600.896 32.6616 600.668 32.6616ZM616.696 41.9878C616.102 41.9878 615.626 41.6094 615.268 40.8525C614.999 40.2829 614.519 38.9198 613.827 36.7632C613.144 34.5985 612.692 33.3086 612.472 32.8936C611.927 31.86 611.654 31.2008 611.654 30.916C611.654 30.623 611.744 30.4115 611.923 30.2812C612.102 30.1429 612.48 30.0737 613.058 30.0737C613.986 30.0737 614.6 30.4155 614.901 31.0991C614.958 31.2212 615.048 31.5996 615.17 32.2344C615.292 32.861 615.414 33.4144 615.536 33.8945L615.78 34.9688C616.391 37.6543 616.859 38.9971 617.184 38.9971C617.404 38.9971 618.022 37.6258 619.04 34.8833C619.503 33.63 619.8 32.6453 619.931 31.9292C620.069 31.2049 620.159 30.8021 620.199 30.7207C620.435 30.2731 620.932 30.0493 621.688 30.0493H621.933C622.486 30.0493 622.763 30.3301 622.763 30.8916C622.763 31.2904 622.641 31.6973 622.396 32.1123C622.152 32.5273 621.583 33.805 620.688 35.9453C619.8 38.0775 619.145 39.526 618.722 40.291C618.299 41.0479 617.949 41.5199 617.672 41.707C617.404 41.8942 617.078 41.9878 616.696 41.9878ZM628.781 26.1309V26.2773C628.781 26.6924 628.659 27.0464 628.415 27.3394C628.179 27.6242 627.812 27.7666 627.316 27.7666H627.121L626.742 27.7178C626.522 27.7178 626.311 27.616 626.107 27.4126C625.904 27.2091 625.802 26.904 625.802 26.4971V26.3506L625.863 25.9111C625.863 25.7402 625.965 25.5286 626.168 25.2764C626.38 25.0241 626.649 24.8979 626.974 24.8979L627.255 24.8613H627.499L627.841 24.9102C628.052 24.9102 628.26 25.016 628.463 25.2275C628.675 25.431 628.781 25.7321 628.781 26.1309ZM628.207 31.2822L628.073 34.5659L628.048 34.8955L628.012 35.8965V36.3726C628.012 37.5444 628.044 38.3135 628.109 38.6797C628.183 39.0459 628.317 39.404 628.512 39.7539C628.708 40.0957 628.805 40.3439 628.805 40.4985V40.6084C628.805 41.0072 628.602 41.3245 628.195 41.5605C627.788 41.7965 627.235 41.9146 626.535 41.9146H626.229C625.823 41.9146 625.513 41.825 625.302 41.646C625.09 41.4588 624.984 41.2594 624.984 41.0479V40.7793C624.984 40.6735 625.078 40.2992 625.265 39.6562C625.452 39.0052 625.546 38.1222 625.546 37.0073C625.57 36.6899 625.583 36.4702 625.583 36.3481L625.619 35.6768L625.644 35.3472C625.684 34.7775 625.705 34.334 625.705 34.0166L625.717 33.5283C625.717 32.918 625.615 32.3768 625.412 31.9048C625.216 31.4328 625.119 31.1398 625.119 31.0259C625.119 30.4399 625.672 30.147 626.779 30.147H627.218C627.633 30.147 627.902 30.2568 628.024 30.4766C628.146 30.6882 628.207 30.9567 628.207 31.2822ZM633.944 36.8486C633.944 37.9147 634.188 38.8018 634.677 39.5098C635.165 40.2178 635.763 40.5718 636.471 40.5718H636.837C637.676 40.5718 638.384 40.1486 638.961 39.3022C639.547 38.4559 639.84 37.3288 639.84 35.9209V35.1152C639.84 34.0247 639.6 33.1336 639.12 32.4419C638.648 31.742 638.038 31.3921 637.289 31.3921H637.045C636.174 31.3921 635.442 31.8234 634.848 32.686C634.262 33.5487 633.969 34.5781 633.969 35.7744L633.944 36.0552V36.8486ZM636.703 42.2319H636.312C634.888 42.2319 633.729 41.7355 632.833 40.7427C631.938 39.7498 631.491 38.342 631.491 36.519L631.503 36.3115C631.503 34.3096 632.032 32.7308 633.09 31.5752C633.643 30.9648 634.274 30.5173 634.982 30.2324C635.698 29.9395 636.378 29.793 637.021 29.793H637.619C638.335 29.793 639.022 29.9517 639.682 30.269C641.57 31.1805 642.514 32.8976 642.514 35.4204V35.6157C642.506 36.4377 642.371 37.2718 642.111 38.1182C641.59 39.7865 640.589 40.9665 639.108 41.6582C638.286 42.0407 637.484 42.2319 636.703 42.2319ZM645.822 35.6523V34.7124C645.822 33.5812 645.761 32.7552 645.639 32.2344C645.517 31.7054 645.456 31.3351 645.456 31.1235C645.456 30.6271 645.818 30.3789 646.542 30.3789C647.266 30.3789 647.791 30.5132 648.117 30.7817C648.206 30.855 648.32 30.9974 648.458 31.209C648.605 31.4206 648.735 31.5264 648.849 31.5264C648.874 31.5264 649.228 31.3188 649.911 30.9038C650.595 30.4888 651.181 30.2812 651.669 30.2812H651.852C652.251 30.2812 652.568 30.3789 652.804 30.5742C653.04 30.7614 653.158 30.9933 653.158 31.27V31.4287C653.158 31.7624 653.04 32.0024 652.804 32.1489C652.576 32.2954 652.21 32.3687 651.706 32.3687C650.558 32.3687 649.72 32.7715 649.191 33.5771C648.67 34.3828 648.41 35.807 648.41 37.8496C648.41 38.1426 648.458 38.5942 648.556 39.2046C648.662 39.8149 648.715 40.2747 648.715 40.584C648.715 40.8932 648.548 41.1903 648.214 41.4751C647.881 41.7599 647.458 41.9023 646.945 41.9023H646.53C646.082 41.9023 645.736 41.7965 645.492 41.585C645.256 41.3652 645.138 41.1007 645.138 40.7915C645.138 40.4741 645.195 40.1527 645.309 39.8271C645.618 38.9482 645.773 37.9798 645.773 36.9219C645.806 36.3359 645.822 35.9128 645.822 35.6523ZM330.661 61.4531H330.417C329.953 61.4531 329.505 61.5874 329.074 61.856C327.82 62.6372 327.194 64.216 327.194 66.5923V66.7266C327.194 67.8984 327.426 68.8221 327.89 69.4976C328.354 70.1649 328.923 70.4985 329.599 70.4985H329.831C330.742 70.4985 331.442 70.1649 331.93 69.4976C332.427 68.8221 332.675 67.8293 332.675 66.519C332.691 66.3563 332.699 66.2301 332.699 66.1406L332.748 64.8589V64.7368C332.748 63.4917 332.589 62.6331 332.272 62.1611C331.963 61.6891 331.426 61.4531 330.661 61.4531ZM333.651 77.249C332.577 77.249 332.04 76.7607 332.04 75.7842C332.04 75.7272 332.097 75.4058 332.211 74.8198C332.325 74.2257 332.386 73.6479 332.394 73.0864C332.386 72.5575 332.284 72.1953 332.089 72C331.894 71.8047 331.584 71.703 331.161 71.6948C331.072 71.6948 330.937 71.707 330.758 71.7314L330.294 71.8047C329.985 71.8372 329.59 71.8535 329.11 71.8535C328.638 71.8535 328.134 71.7396 327.597 71.5117C326.514 71.056 325.725 70.1852 325.229 68.8994C324.936 68.1507 324.789 67.4102 324.789 66.6777V66.0796C324.789 64.2404 325.31 62.7552 326.352 61.624C327.393 60.4847 328.724 59.915 330.343 59.915C330.807 59.915 331.413 60.0249 332.162 60.2446C332.911 60.4644 333.293 60.5742 333.31 60.5742L334.311 60.4521C334.685 60.4521 334.978 60.562 335.189 60.7817C335.401 61.0015 335.507 61.2497 335.507 61.5264C335.507 61.8031 335.474 62.3361 335.409 63.1255C335.344 63.9149 335.307 64.7246 335.299 65.5547L335.287 65.8354C335.181 67.3898 335.128 68.6268 335.128 69.5464L335.104 70.1201C335.088 70.5026 335.08 70.7834 335.08 70.9624L335.043 71.8047C335.043 71.9919 335.043 72.179 335.043 72.3662L335.031 72.9155C335.031 73.7131 335.084 74.3031 335.189 74.6855L335.312 75.125C335.385 75.418 335.421 75.6458 335.421 75.8086C335.421 76.7689 334.913 77.249 333.896 77.249H333.651ZM338.742 61.0259C338.742 60.5132 339.173 60.2568 340.036 60.2568H340.316C340.854 60.2568 341.216 60.4725 341.403 60.9038C341.59 61.3351 341.684 62.1408 341.684 63.3208L341.537 67.3979C341.537 69.2941 342.217 70.2422 343.576 70.2422C344.072 70.2422 344.548 70.0672 345.004 69.7173C345.46 69.3674 345.797 68.9482 346.017 68.46C346.497 67.3857 346.737 65.4611 346.737 62.686L346.713 62.1489V61.6729C346.713 61.2415 346.811 60.9282 347.006 60.7329C347.201 60.5376 347.543 60.4399 348.031 60.4399C348.52 60.4399 348.841 60.5579 348.996 60.7939C349.15 61.0299 349.228 61.4124 349.228 61.9414L349.203 62.5884L349.154 65.4692C349.154 65.9331 349.183 66.6452 349.24 67.6055C349.297 68.5658 349.358 69.2697 349.423 69.7173C349.488 70.1567 349.521 70.4172 349.521 70.4985C349.521 71.2228 348.987 71.585 347.921 71.585C347.555 71.585 347.189 71.4507 346.823 71.1821C346.465 70.9054 346.208 70.7671 346.054 70.7671C345.907 70.7671 345.655 70.8566 345.297 71.0356C344.28 71.5483 343.413 71.8047 342.697 71.8047H342.392C341.228 71.8047 340.373 71.4466 339.828 70.7305C339.283 70.0143 339.01 68.7244 339.01 66.8608L339.132 63.1621C339.132 62.6982 339.067 62.2547 338.937 61.8315C338.807 61.4084 338.742 61.1398 338.742 61.0259ZM356.527 56.1309V56.2773C356.527 56.6924 356.405 57.0464 356.161 57.3394C355.925 57.6242 355.559 57.7666 355.062 57.7666H354.867L354.489 57.7178C354.269 57.7178 354.057 57.616 353.854 57.4126C353.651 57.2091 353.549 56.904 353.549 56.4971V56.3506L353.61 55.9111C353.61 55.7402 353.712 55.5286 353.915 55.2764C354.127 55.0241 354.395 54.8979 354.721 54.8979L355.001 54.8613H355.246L355.587 54.9102C355.799 54.9102 356.007 55.016 356.21 55.2275C356.422 55.431 356.527 55.7321 356.527 56.1309ZM355.954 61.2822L355.819 64.5659L355.795 64.8955L355.758 65.8965V66.3726C355.758 67.5444 355.791 68.3135 355.856 68.6797C355.929 69.0459 356.063 69.404 356.259 69.7539C356.454 70.0957 356.552 70.3439 356.552 70.4985V70.6084C356.552 71.0072 356.348 71.3245 355.941 71.5605C355.535 71.7965 354.981 71.9146 354.281 71.9146H353.976C353.569 71.9146 353.26 71.825 353.048 71.646C352.837 71.4588 352.731 71.2594 352.731 71.0479V70.7793C352.731 70.6735 352.825 70.2992 353.012 69.6562C353.199 69.0052 353.292 68.1222 353.292 67.0073C353.317 66.6899 353.329 66.4702 353.329 66.3481L353.366 65.6768L353.39 65.3472C353.431 64.7775 353.451 64.334 353.451 64.0166L353.463 63.5283C353.463 62.918 353.362 62.3768 353.158 61.9048C352.963 61.4328 352.865 61.1398 352.865 61.0259C352.865 60.4399 353.419 60.147 354.525 60.147H354.965C355.38 60.147 355.648 60.2568 355.771 60.4766C355.893 60.6882 355.954 60.9567 355.954 61.2822ZM359.176 66.9219V66.3604C359.176 65.335 359.335 64.4276 359.652 63.6382C360.263 62.1082 361.199 61.0503 362.46 60.4644C363.282 60.0737 364.132 59.8784 365.011 59.8784H365.28C366.248 59.8784 367.05 60.0697 367.685 60.4521C368.319 60.8346 368.637 61.3026 368.637 61.856C368.637 62.4989 368.327 62.8203 367.709 62.8203C367.595 62.8203 367.196 62.6413 366.513 62.2832C365.829 61.9333 365.268 61.7583 364.828 61.7583C364.82 61.7583 364.812 61.7583 364.804 61.7583C363.843 61.7583 363.091 62.1733 362.545 63.0034C362.008 63.8335 361.74 64.9159 361.74 66.2505C361.74 67.5851 362.025 68.5739 362.594 69.2168C363.172 69.8597 363.974 70.1812 364.999 70.1812C365.422 70.1812 366.004 70.0632 366.745 69.8271C367.485 69.583 367.937 69.4609 368.1 69.4609C368.433 69.4609 368.6 69.6359 368.6 69.9858C368.6 70.4578 368.132 70.9339 367.196 71.4141C366.26 71.8942 365.341 72.1343 364.438 72.1343C362.021 72.1343 360.421 71.1821 359.64 69.2778C359.331 68.521 359.176 67.7357 359.176 66.9219ZM375.534 66.6533C374.809 66.6533 374.447 67.6095 374.447 69.522C374.447 70.3521 374.276 70.9136 373.935 71.2065C373.593 71.4995 373.182 71.646 372.702 71.646C372.222 71.646 371.88 71.5646 371.676 71.4019C371.481 71.2391 371.383 70.9339 371.383 70.4863C371.383 70.4538 371.428 70.1323 371.518 69.522C371.607 68.9116 371.721 67.0155 371.859 63.8335C371.998 60.6434 372.067 58.6943 372.067 57.9863C372.067 57.2783 372.047 56.8185 372.006 56.6069C371.973 56.3872 371.916 56.1227 371.835 55.8135C371.762 55.5042 371.725 55.3089 371.725 55.2275C371.725 54.8695 371.843 54.6253 372.079 54.4951C372.323 54.3568 372.726 54.2876 373.288 54.2876C373.857 54.2876 374.232 54.4341 374.411 54.7271C374.598 55.02 374.691 55.61 374.691 56.4971L374.533 61.6729C374.533 63.154 374.704 63.8945 375.045 63.8945C375.314 63.8945 375.973 63.3411 377.023 62.2344C378.081 61.1276 378.622 60.5661 378.646 60.5498C378.972 60.3219 379.464 60.208 380.124 60.208C380.783 60.208 381.112 60.3708 381.112 60.6963C381.112 60.859 380.587 61.5467 379.538 62.7593C378.488 63.9718 377.963 64.863 377.963 65.4326C377.963 65.7419 378.561 66.7591 379.757 68.4844C380.189 69.1029 380.596 69.64 380.978 70.0957C381.369 70.5433 381.564 70.8647 381.564 71.0601C381.564 71.467 381.186 71.6704 380.429 71.6704C379.68 71.6704 379.102 71.4548 378.695 71.0234C378.598 70.9176 378.37 70.5596 378.012 69.9492C377.654 69.3389 377.401 68.9116 377.255 68.6675C376.417 67.3247 375.843 66.6533 375.534 66.6533ZM385.067 55.0322C385.067 54.4382 385.625 54.1411 386.74 54.1411H386.959C387.423 54.1411 387.741 54.255 387.912 54.4829C388.083 54.7026 388.168 55.134 388.168 55.7769L388.07 57.5957C388.046 57.8805 388.034 58.0352 388.034 58.0596L388.009 58.5234C387.993 58.8245 387.977 59.1297 387.96 59.439L387.924 59.9028L387.887 60.5986C387.757 63.0726 387.692 64.8996 387.692 66.0796C387.692 67.2515 387.745 68.0938 387.851 68.6064C387.956 69.1191 388.123 69.5545 388.351 69.9126C388.579 70.2707 388.693 70.5067 388.693 70.6206V70.7671C388.693 71.1252 388.514 71.41 388.156 71.6216C387.806 71.8332 387.33 71.939 386.728 71.939H386.093C385.718 71.939 385.389 71.8332 385.104 71.6216C384.827 71.4019 384.689 71.1536 384.689 70.877V70.5474L384.762 70.0347C384.86 69.3267 384.917 68.7977 384.933 68.4478C384.958 68.0897 384.994 67.5973 385.043 66.9707C385.092 66.3359 385.169 64.9891 385.275 62.9302C385.389 60.8631 385.446 59.7523 385.446 59.5977L385.495 58.6821L385.519 57.7788C385.519 56.9162 385.442 56.3018 385.287 55.9355C385.141 55.5612 385.067 55.2601 385.067 55.0322ZM395.614 71.9512C395.614 71.528 395.325 70.7874 394.748 69.7295C394.17 68.6634 393.686 67.6706 393.295 66.751C391.96 63.6178 391.293 61.8071 391.293 61.3188C391.293 61.0991 391.419 60.8997 391.671 60.7207C391.932 60.5417 392.363 60.4521 392.965 60.4521C393.568 60.4521 393.991 60.7085 394.235 61.2212C394.259 61.2782 394.345 61.6322 394.491 62.2832C395.598 66.3278 396.29 68.4478 396.566 68.6431C396.99 68.6431 397.567 67.6543 398.3 65.6768C398.796 64.334 399.101 63.2069 399.215 62.2954C399.337 61.384 399.435 60.859 399.508 60.7207C399.736 60.2975 400.208 60.0859 400.924 60.0859C401.649 60.0859 402.011 60.3667 402.011 60.9282C402.011 61.327 401.864 61.86 401.571 62.5273C401.278 63.1947 401.002 63.9189 400.741 64.7002C399.252 69.1598 398.174 71.9756 397.506 73.1475C396.839 74.3275 396.135 75.2552 395.395 75.9307C394.654 76.6143 393.909 76.9561 393.161 76.9561C392.42 76.9561 392.05 76.7445 392.05 76.3213C392.05 75.9469 392.428 75.6051 393.185 75.2959C393.95 74.9867 394.483 74.6286 394.784 74.2217C395.338 73.4811 395.614 72.7243 395.614 71.9512ZM405.319 72.1953H404.94C404.534 72.1953 404.216 72.1017 403.988 71.9146C403.769 71.7274 403.659 71.4792 403.659 71.1699C403.642 71.1048 403.634 71.0519 403.634 71.0112L403.61 70.8037V70.584L403.622 70.5352V70.4253C403.638 70.3602 403.646 70.3073 403.646 70.2666C403.646 69.9004 403.769 69.6156 404.013 69.4121C404.265 69.2005 404.542 69.0947 404.843 69.0947L405.099 69.0581H405.429C406.316 69.0581 406.759 69.522 406.759 70.4497V70.6206L406.71 71.0356C406.71 71.41 406.568 71.6989 406.283 71.9023C406.007 72.0977 405.685 72.1953 405.319 72.1953Z" fill="black"/>
</svg>
