<svg width="758" height="87" viewBox="0 0 758 87" fill="none" xmlns="http://www.w3.org/2000/svg">
<rect width="758" height="87" rx="18" fill="#D9D9D9"/>
<path d="M43.595 54.1172C43.245 54.1172 43.07 53.9422 43.07 53.5922V45.3602H32.045C31.695 45.3602 31.52 45.1852 31.52 44.8352V26.6492C31.52 26.2992 31.695 26.1242 32.045 26.1242H37.988C38.338 26.1242 38.513 26.2992 38.513 26.6492V39.7742H43.07V26.6492C43.07 26.2992 43.245 26.1242 43.595 26.1242H49.538C49.888 26.1242 50.063 26.2992 50.063 26.6492V53.5922C50.063 53.9422 49.888 54.1172 49.538 54.1172H43.595Z" fill="#2ECC71"/>
<path d="M68.4258 33.395V33.0044C68.4258 31.7104 68.6292 30.4613 69.0361 29.2568C69.8011 27.0026 71.1479 25.4198 73.0767 24.5083C74.1265 24.0119 75.2129 23.7637 76.3359 23.7637H76.7144C78.4152 23.7637 79.6237 24.0119 80.3398 24.5083C81.056 25.0047 81.4141 25.6313 81.4141 26.3882C81.4141 26.8439 81.3245 27.1491 81.1455 27.3037C80.9665 27.4583 80.7915 27.5356 80.6206 27.5356C80.4578 27.5356 80.1038 27.3485 79.5586 26.9741C79.0215 26.5998 78.5007 26.3109 77.9961 26.1074C77.4915 25.8958 76.8608 25.79 76.104 25.79C75.3472 25.79 74.6595 25.9772 74.041 26.3516C72.1855 27.4827 71.2537 29.8062 71.2456 33.3218C71.2456 34.2332 71.3677 35.0552 71.6118 35.7876C72.3524 38.0011 73.8294 39.1079 76.043 39.1079C77.1172 39.1079 78.3542 38.7173 79.7539 37.936C80.1934 37.6919 80.5189 37.5698 80.7305 37.5698C81.0804 37.5698 81.2554 37.7692 81.2554 38.168C81.2554 38.4202 81.1414 38.701 80.9136 39.0103C80.5148 39.5636 79.994 39.999 79.3511 40.3164C78.2606 40.8617 77.048 41.1343 75.7134 41.1343H75.3228C73.2394 41.1343 71.563 40.4385 70.2935 39.0469C69.6912 38.3877 69.2274 37.5576 68.9019 36.5566C68.5845 35.5557 68.4258 34.5018 68.4258 33.395ZM84.7588 24.0322C84.7588 23.4382 85.3162 23.1411 86.4312 23.1411H86.6509C87.1147 23.1411 87.4321 23.255 87.603 23.4829C87.7739 23.7026 87.8594 24.134 87.8594 24.7769L87.7617 26.5957C87.7373 26.8805 87.7251 27.0352 87.7251 27.0596L87.7007 27.5234C87.6844 27.8245 87.6681 28.1297 87.6519 28.439L87.6152 28.9028L87.5786 29.5986C87.4484 32.0726 87.3833 33.8996 87.3833 35.0796C87.3833 36.2515 87.4362 37.0938 87.542 37.6064C87.6478 38.1191 87.8146 38.5545 88.0425 38.9126C88.2703 39.2707 88.3843 39.5067 88.3843 39.6206V39.7671C88.3843 40.1252 88.2052 40.41 87.8472 40.6216C87.4972 40.8332 87.0212 40.939 86.4189 40.939H85.7842C85.4098 40.939 85.0802 40.8332 84.7954 40.6216C84.5187 40.4019 84.3804 40.1536 84.3804 39.877V39.5474L84.4536 39.0347C84.5513 38.3267 84.6082 37.7977 84.6245 37.4478C84.6489 37.0897 84.6855 36.5973 84.7344 35.9707C84.7832 35.3359 84.8605 33.9891 84.9663 31.9302C85.0802 29.8631 85.1372 28.7523 85.1372 28.5977L85.186 27.6821L85.2104 26.7788C85.2104 25.9162 85.1331 25.3018 84.9785 24.9355C84.832 24.5612 84.7588 24.2601 84.7588 24.0322ZM93.438 33.5781V33.7734C93.438 34.0176 93.6618 34.1396 94.1094 34.1396H94.4023L94.4756 34.1274L95.0737 34.0786C95.7004 33.9891 96.1073 33.9443 96.2944 33.9443C97.1815 33.9443 97.8488 33.7775 98.2964 33.4438C98.508 33.2811 98.6138 32.9922 98.6138 32.5771V32.4429C98.6138 31.8325 98.4103 31.3483 98.0034 30.9902C97.6047 30.6322 97.1245 30.4531 96.563 30.4531H96.4775L96.4043 30.4653C95.6149 30.4653 94.9232 30.799 94.3291 31.4663C93.735 32.1336 93.438 32.8376 93.438 33.5781ZM96.0991 41.1587H95.8306C94.2762 41.1587 93.0392 40.6663 92.1196 39.6816C91.2 38.6888 90.7402 37.3664 90.7402 35.7144V35.1772C90.7402 34.3879 90.8949 33.5863 91.2041 32.7725C91.8307 31.1449 92.8521 30.0218 94.2681 29.4033C95.0168 29.0697 95.7777 28.9028 96.5508 28.9028H97.0757C98.1418 28.9028 99.041 29.2609 99.7734 29.9771C100.514 30.6851 100.884 31.6006 100.884 32.7236V32.9678C100.884 33.7653 100.567 34.3309 99.9321 34.6646C99.4927 34.9006 98.4673 35.1366 96.856 35.3726C95.2446 35.6086 94.3657 35.751 94.2192 35.7998C93.731 35.9707 93.4868 36.2962 93.4868 36.7764C93.4868 37.4437 93.7716 38.0133 94.3413 38.4854C94.911 38.9574 95.6759 39.1934 96.6362 39.1934C97.0838 39.1934 97.6942 39.0713 98.4673 38.8271C99.2404 38.583 99.688 38.4609 99.8101 38.4609C100.225 38.4609 100.433 38.64 100.433 38.998C100.433 39.4782 99.9647 39.9583 99.0288 40.4385C98.0929 40.9186 97.1164 41.1587 96.0991 41.1587ZM107.439 39.4619H107.757C108.424 39.4619 109.01 39.2381 109.515 38.7905C110.027 38.3348 110.284 37.8099 110.284 37.2158L110.308 37.0571V36.8984L110.333 36.52V35.8242C110.333 35.3522 110.092 35.1162 109.612 35.1162H109.063L108.978 35.1284L108.501 35.165C108.274 35.1976 108.111 35.2139 108.013 35.2139C107.354 35.2139 106.744 35.4621 106.182 35.9585C105.792 36.3084 105.596 36.8049 105.596 37.4478V37.6919C105.596 38.2371 105.771 38.6685 106.121 38.9858C106.479 39.3032 106.919 39.4619 107.439 39.4619ZM104.717 31.6616C104.172 31.6616 103.899 31.3117 103.899 30.6118C103.899 30.091 104.339 29.6393 105.218 29.2568C106.105 28.8662 107.024 28.6709 107.977 28.6709H108.587C109.409 28.6709 110.133 28.8255 110.76 29.1348C111.386 29.4359 111.862 29.8468 112.188 30.3677C112.522 30.8885 112.725 31.568 112.798 32.4062C112.815 32.6016 112.823 33.5496 112.823 35.2505C112.823 36.9513 112.843 37.932 112.884 38.1924C112.933 38.4447 113.063 38.7539 113.274 39.1201C113.494 39.4863 113.604 39.7874 113.604 40.0234C113.604 40.2594 113.49 40.4629 113.262 40.6338C113.042 40.7965 112.721 40.8779 112.298 40.8779C111.875 40.8779 111.415 40.7762 110.918 40.5728C110.422 40.3612 110.06 40.2554 109.832 40.2554C109.808 40.2554 109.401 40.4019 108.611 40.6948C107.822 40.9797 107.155 41.1221 106.609 41.1221H106.341C105.429 41.1221 104.652 40.8332 104.009 40.2554C103.375 39.6776 103.057 38.8556 103.057 37.7896C103.057 36.7235 103.407 35.8934 104.107 35.2993C104.807 34.6971 105.657 34.2861 106.658 34.0664C106.959 34.0013 107.46 33.9159 108.16 33.8101C108.86 33.7043 109.336 33.5944 109.588 33.4805C110.027 33.277 110.247 32.8945 110.247 32.333C110.247 31.7633 110.06 31.3198 109.686 31.0024C109.311 30.6769 108.864 30.5142 108.343 30.5142C107.83 30.5142 107.155 30.7054 106.316 31.0879C105.478 31.4704 104.945 31.6616 104.717 31.6616ZM127.654 39.5352C127.654 40.1374 127.129 40.4385 126.08 40.4385C125.486 40.4385 125.087 40.2961 124.883 40.0112C124.786 39.8729 124.737 39.5474 124.737 39.0347L124.7 38.2534C124.643 37.3989 124.615 36.5404 124.615 35.6777C124.615 33.8141 124.452 32.5649 124.126 31.9302C123.809 31.2873 123.272 30.9658 122.515 30.9658C122.011 30.9658 121.543 31.1164 121.111 31.4175C120.688 31.7186 120.363 32.1377 120.135 32.6748C119.663 33.7734 119.427 35.8039 119.427 38.7661C119.427 39.4416 119.297 39.9176 119.036 40.1943C118.784 40.471 118.458 40.6094 118.06 40.6094H117.815C116.904 40.6094 116.448 40.2472 116.448 39.5229V39.23C116.448 39.1405 116.497 38.9451 116.595 38.644L116.79 38.0825C116.985 37.4233 117.083 36.0114 117.083 33.8467L117.144 30.2212C117.144 29.7573 117.396 29.5254 117.901 29.5254C118.405 29.5254 118.902 29.6922 119.39 30.0259C119.887 30.3595 120.2 30.5264 120.33 30.5264C120.468 30.5264 120.708 30.4328 121.05 30.2456C122.198 29.619 123.117 29.3057 123.809 29.3057H124.126C125.372 29.3057 126.246 29.8672 126.751 30.9902C126.995 31.5192 127.117 32.6585 127.117 34.4082V34.4937C127.117 34.6401 127.113 34.7866 127.105 34.9331C127.105 35.3319 127.105 35.5394 127.105 35.5557C127.105 35.7103 127.105 35.8608 127.105 36.0073C127.105 36.1213 127.105 36.2311 127.105 36.3369C127.105 36.9635 127.125 37.3908 127.166 37.6187C127.223 37.9279 127.317 38.2493 127.447 38.583C127.585 38.9492 127.654 39.2666 127.654 39.5352ZM141.253 39.4619H141.57C142.238 39.4619 142.824 39.2381 143.328 38.7905C143.841 38.3348 144.097 37.8099 144.097 37.2158L144.122 37.0571V36.8984L144.146 36.52V35.8242C144.146 35.3522 143.906 35.1162 143.426 35.1162H142.876L142.791 35.1284L142.315 35.165C142.087 35.1976 141.924 35.2139 141.827 35.2139C141.167 35.2139 140.557 35.4621 139.996 35.9585C139.605 36.3084 139.41 36.8049 139.41 37.4478V37.6919C139.41 38.2371 139.585 38.6685 139.935 38.9858C140.293 39.3032 140.732 39.4619 141.253 39.4619ZM138.531 31.6616C137.986 31.6616 137.713 31.3117 137.713 30.6118C137.713 30.091 138.152 29.6393 139.031 29.2568C139.918 28.8662 140.838 28.6709 141.79 28.6709H142.4C143.222 28.6709 143.947 28.8255 144.573 29.1348C145.2 29.4359 145.676 29.8468 146.001 30.3677C146.335 30.8885 146.539 31.568 146.612 32.4062C146.628 32.6016 146.636 33.5496 146.636 35.2505C146.636 36.9513 146.657 37.932 146.697 38.1924C146.746 38.4447 146.876 38.7539 147.088 39.1201C147.308 39.4863 147.417 39.7874 147.417 40.0234C147.417 40.2594 147.304 40.4629 147.076 40.6338C146.856 40.7965 146.535 40.8779 146.111 40.8779C145.688 40.8779 145.228 40.7762 144.732 40.5728C144.236 40.3612 143.873 40.2554 143.646 40.2554C143.621 40.2554 143.214 40.4019 142.425 40.6948C141.635 40.9797 140.968 41.1221 140.423 41.1221H140.154C139.243 41.1221 138.466 40.8332 137.823 40.2554C137.188 39.6776 136.871 38.8556 136.871 37.7896C136.871 36.7235 137.221 35.8934 137.92 35.2993C138.62 34.6971 139.471 34.2861 140.472 34.0664C140.773 34.0013 141.273 33.9159 141.973 33.8101C142.673 33.7043 143.149 33.5944 143.401 33.4805C143.841 33.277 144.061 32.8945 144.061 32.333C144.061 31.7633 143.873 31.3198 143.499 31.0024C143.125 30.6769 142.677 30.5142 142.156 30.5142C141.644 30.5142 140.968 30.7054 140.13 31.0879C139.292 31.4704 138.759 31.6616 138.531 31.6616ZM161.468 39.5352C161.468 40.1374 160.943 40.4385 159.893 40.4385C159.299 40.4385 158.9 40.2961 158.697 40.0112C158.599 39.8729 158.55 39.5474 158.55 39.0347L158.514 38.2534C158.457 37.3989 158.428 36.5404 158.428 35.6777C158.428 33.8141 158.265 32.5649 157.94 31.9302C157.623 31.2873 157.085 30.9658 156.329 30.9658C155.824 30.9658 155.356 31.1164 154.925 31.4175C154.502 31.7186 154.176 32.1377 153.948 32.6748C153.476 33.7734 153.24 35.8039 153.24 38.7661C153.24 39.4416 153.11 39.9176 152.85 40.1943C152.597 40.471 152.272 40.6094 151.873 40.6094H151.629C150.717 40.6094 150.262 40.2472 150.262 39.5229V39.23C150.262 39.1405 150.311 38.9451 150.408 38.644L150.604 38.0825C150.799 37.4233 150.896 36.0114 150.896 33.8467L150.958 30.2212C150.958 29.7573 151.21 29.5254 151.714 29.5254C152.219 29.5254 152.715 29.6922 153.204 30.0259C153.7 30.3595 154.013 30.5264 154.144 30.5264C154.282 30.5264 154.522 30.4328 154.864 30.2456C156.011 29.619 156.931 29.3057 157.623 29.3057H157.94C159.185 29.3057 160.06 29.8672 160.564 30.9902C160.809 31.5192 160.931 32.6585 160.931 34.4082V34.4937C160.931 34.6401 160.927 34.7866 160.918 34.9331C160.918 35.3319 160.918 35.5394 160.918 35.5557C160.918 35.7103 160.918 35.8608 160.918 36.0073C160.918 36.1213 160.918 36.2311 160.918 36.3369C160.918 36.9635 160.939 37.3908 160.979 37.6187C161.036 37.9279 161.13 38.2493 161.26 38.583C161.399 38.9492 161.468 39.2666 161.468 39.5352ZM166.412 35.0796V36.0073C166.412 36.9757 166.631 37.7855 167.071 38.4365C167.518 39.0794 168.043 39.4009 168.646 39.4009H168.987C169.915 39.4009 170.631 39.0306 171.136 38.29C171.648 37.5495 171.905 36.4468 171.905 34.9819C171.921 34.8029 171.929 34.6727 171.929 34.5913L171.954 34.3472L171.966 33.8345V32.9678C171.966 31.3076 171.303 30.4775 169.976 30.4775H169.5C168.637 30.4775 167.905 30.9129 167.303 31.7837C166.709 32.6545 166.412 33.7531 166.412 35.0796ZM164.068 35.6411C164.068 34.7948 164.218 33.9321 164.52 33.0532C164.821 32.1743 165.244 31.4256 165.789 30.8071C166.334 30.1805 166.949 29.7288 167.632 29.4521C168.316 29.1673 169.126 29.0249 170.062 29.0249C171.006 29.0249 171.591 28.854 171.819 28.5122C172.047 28.1623 172.161 27.3932 172.161 26.2051C172.161 25.9854 172.125 25.6924 172.051 25.3262C171.978 24.96 171.941 24.7484 171.941 24.6914C171.941 24.3415 172.092 24.0241 172.393 23.7393C172.694 23.4463 173.089 23.2998 173.577 23.2998H173.821C174.204 23.2998 174.489 23.3893 174.676 23.5684C174.863 23.7474 174.957 24.1217 174.957 24.6914V25.8267L174.932 26.4004C174.924 26.5957 174.92 26.8805 174.92 27.2549C174.92 27.6211 174.859 28.8011 174.737 30.7949C174.615 32.7887 174.554 34.16 174.554 34.9087L174.542 35.2017C174.533 35.397 174.529 35.5841 174.529 35.7632L174.517 36.0439C174.517 36.0439 174.517 36.3613 174.517 36.9961C174.517 37.818 174.582 38.4365 174.712 38.8516C174.843 39.2666 174.908 39.5636 174.908 39.7427C174.908 39.9217 174.806 40.1089 174.603 40.3042C174.399 40.4995 174.082 40.5972 173.65 40.5972C173.227 40.5972 172.816 40.528 172.417 40.3896C172.019 40.2432 171.726 40.1699 171.539 40.1699C171.351 40.1699 171.107 40.2269 170.806 40.3408C169.895 40.6745 169.061 40.8413 168.304 40.8413C168.287 40.8413 168.271 40.8413 168.255 40.8413H167.974C166.745 40.8413 165.785 40.3937 165.093 39.4985C164.41 38.5952 164.068 37.4111 164.068 35.9463V35.6411ZM193.511 33.9565C193.511 32.8742 193.283 32.0278 192.828 31.4175C192.38 30.799 191.843 30.4897 191.216 30.4897H190.862C189.983 30.4897 189.288 30.8397 188.775 31.5396C188.262 32.2313 188.006 33.2526 188.006 34.6035L187.981 34.8477L187.933 36.1172V36.9717C187.933 37.8587 188.112 38.4854 188.47 38.8516C188.836 39.2096 189.353 39.3887 190.02 39.3887H190.252C191.172 39.3887 191.941 38.9655 192.559 38.1191C193.178 37.2728 193.487 36.2433 193.487 35.0308L193.511 34.7622V33.9565ZM186.871 29.3667L188.58 29.6597C188.759 29.6597 189.178 29.5417 189.837 29.3057C190.496 29.0697 191.143 28.9517 191.778 28.9517C193.064 28.9517 194.105 29.4033 194.903 30.3066C195.7 31.2018 196.099 32.4103 196.099 33.9321V34.2373C196.099 35.2627 195.928 36.2067 195.586 37.0693C194.887 38.8516 193.719 40.0031 192.083 40.5239C191.619 40.6704 190.997 40.7721 190.215 40.8291C189.442 40.8861 188.893 40.9878 188.567 41.1343C188.071 41.3621 187.823 41.7731 187.823 42.3672C187.823 42.6195 187.868 42.9613 187.957 43.3926C188.055 43.8239 188.104 44.2227 188.104 44.5889C188.104 44.9551 187.896 45.3132 187.481 45.6631C187.066 46.0212 186.549 46.2002 185.931 46.2002H185.674C184.942 46.2002 184.576 45.9316 184.576 45.3945V45.1626C184.576 45.0487 184.653 44.7272 184.808 44.1982C184.97 43.6774 185.084 43.1159 185.149 42.5137C185.215 41.9196 185.32 40.4344 185.467 38.0581C185.613 35.6818 185.687 34.0583 185.687 33.1875C185.687 32.3086 185.63 31.5721 185.516 30.978C185.41 30.384 185.357 30.0625 185.357 30.0137C185.357 29.5824 185.861 29.3667 186.871 29.3667ZM199.407 34.6523V33.7124C199.407 32.5812 199.346 31.7552 199.224 31.2344C199.102 30.7054 199.041 30.3351 199.041 30.1235C199.041 29.6271 199.403 29.3789 200.127 29.3789C200.852 29.3789 201.377 29.5132 201.702 29.7817C201.792 29.855 201.906 29.9974 202.044 30.209C202.19 30.4206 202.321 30.5264 202.435 30.5264C202.459 30.5264 202.813 30.3188 203.497 29.9038C204.18 29.4888 204.766 29.2812 205.254 29.2812H205.438C205.836 29.2812 206.154 29.3789 206.39 29.5742C206.626 29.7614 206.744 29.9933 206.744 30.27V30.4287C206.744 30.7624 206.626 31.0024 206.39 31.1489C206.162 31.2954 205.796 31.3687 205.291 31.3687C204.144 31.3687 203.305 31.7715 202.776 32.5771C202.256 33.3828 201.995 34.807 201.995 36.8496C201.995 37.1426 202.044 37.5942 202.142 38.2046C202.247 38.8149 202.3 39.2747 202.3 39.584C202.3 39.8932 202.133 40.1903 201.8 40.4751C201.466 40.7599 201.043 40.9023 200.53 40.9023H200.115C199.668 40.9023 199.322 40.7965 199.078 40.585C198.842 40.3652 198.724 40.1007 198.724 39.7915C198.724 39.4741 198.781 39.1527 198.895 38.8271C199.204 37.9482 199.358 36.9798 199.358 35.9219C199.391 35.3359 199.407 34.9128 199.407 34.6523ZM210.796 33.5781V33.7734C210.796 34.0176 211.02 34.1396 211.468 34.1396H211.761L211.834 34.1274L212.432 34.0786C213.059 33.9891 213.466 33.9443 213.653 33.9443C214.54 33.9443 215.207 33.7775 215.655 33.4438C215.866 33.2811 215.972 32.9922 215.972 32.5771V32.4429C215.972 31.8325 215.769 31.3483 215.362 30.9902C214.963 30.6322 214.483 30.4531 213.921 30.4531H213.836L213.763 30.4653C212.973 30.4653 212.282 30.799 211.688 31.4663C211.093 32.1336 210.796 32.8376 210.796 33.5781ZM213.458 41.1587H213.189C211.635 41.1587 210.398 40.6663 209.478 39.6816C208.558 38.6888 208.099 37.3664 208.099 35.7144V35.1772C208.099 34.3879 208.253 33.5863 208.562 32.7725C209.189 31.1449 210.21 30.0218 211.626 29.4033C212.375 29.0697 213.136 28.9028 213.909 28.9028H214.434C215.5 28.9028 216.399 29.2609 217.132 29.9771C217.872 30.6851 218.243 31.6006 218.243 32.7236V32.9678C218.243 33.7653 217.925 34.3309 217.291 34.6646C216.851 34.9006 215.826 35.1366 214.214 35.3726C212.603 35.6086 211.724 35.751 211.578 35.7998C211.089 35.9707 210.845 36.2962 210.845 36.7764C210.845 37.4437 211.13 38.0133 211.7 38.4854C212.269 38.9574 213.034 39.1934 213.995 39.1934C214.442 39.1934 215.053 39.0713 215.826 38.8271C216.599 38.583 217.046 38.4609 217.168 38.4609C217.583 38.4609 217.791 38.64 217.791 38.998C217.791 39.4782 217.323 39.9583 216.387 40.4385C215.451 40.9186 214.475 41.1587 213.458 41.1587ZM221.758 34.1885C221.262 33.6839 221.014 32.9759 221.014 32.0645C221.014 31.153 221.421 30.3717 222.234 29.7207C223.048 29.0615 224.057 28.7319 225.262 28.7319H225.579C226.645 28.7319 227.492 28.8825 228.118 29.1836C228.753 29.4847 229.07 29.9364 229.07 30.5386C229.07 31.1326 228.806 31.4297 228.277 31.4297C228.139 31.4297 227.748 31.2669 227.105 30.9414C226.462 30.6077 225.856 30.4409 225.286 30.4409C224.716 30.4409 224.257 30.5711 223.907 30.8315C223.565 31.0838 223.394 31.4338 223.394 31.8813C223.394 32.3289 223.634 32.7196 224.114 33.0532C224.391 33.2485 225.042 33.5578 226.067 33.981C227.101 34.4041 227.837 34.811 228.277 35.2017C228.985 35.8283 229.339 36.6299 229.339 37.6064C229.339 38.583 228.924 39.4212 228.094 40.1211C227.264 40.8128 226.185 41.1587 224.859 41.1587H224.542C223.207 41.1587 222.206 40.9674 221.539 40.585C220.871 40.1943 220.538 39.6898 220.538 39.0713C220.538 38.4447 220.798 38.1313 221.319 38.1313C221.49 38.1313 221.933 38.3511 222.649 38.7905C223.374 39.23 224.082 39.4497 224.773 39.4497C225.473 39.4497 225.998 39.3032 226.348 39.0103C226.698 38.7091 226.873 38.3348 226.873 37.8872C226.873 37.4315 226.653 37.0327 226.214 36.6909C225.978 36.5037 225.302 36.166 224.188 35.6777C223.073 35.1813 222.263 34.6849 221.758 34.1885ZM234.185 33.5781V33.7734C234.185 34.0176 234.409 34.1396 234.856 34.1396H235.149L235.223 34.1274L235.821 34.0786C236.447 33.9891 236.854 33.9443 237.042 33.9443C237.929 33.9443 238.596 33.7775 239.043 33.4438C239.255 33.2811 239.361 32.9922 239.361 32.5771V32.4429C239.361 31.8325 239.157 31.3483 238.75 30.9902C238.352 30.6322 237.872 30.4531 237.31 30.4531H237.225L237.151 30.4653C236.362 30.4653 235.67 30.799 235.076 31.4663C234.482 32.1336 234.185 32.8376 234.185 33.5781ZM236.846 41.1587H236.578C235.023 41.1587 233.786 40.6663 232.867 39.6816C231.947 38.6888 231.487 37.3664 231.487 35.7144V35.1772C231.487 34.3879 231.642 33.5863 231.951 32.7725C232.578 31.1449 233.599 30.0218 235.015 29.4033C235.764 29.0697 236.525 28.9028 237.298 28.9028H237.823C238.889 28.9028 239.788 29.2609 240.521 29.9771C241.261 30.6851 241.631 31.6006 241.631 32.7236V32.9678C241.631 33.7653 241.314 34.3309 240.679 34.6646C240.24 34.9006 239.214 35.1366 237.603 35.3726C235.992 35.6086 235.113 35.751 234.966 35.7998C234.478 35.9707 234.234 36.2962 234.234 36.7764C234.234 37.4437 234.519 38.0133 235.088 38.4854C235.658 38.9574 236.423 39.1934 237.383 39.1934C237.831 39.1934 238.441 39.0713 239.214 38.8271C239.987 38.583 240.435 38.4609 240.557 38.4609C240.972 38.4609 241.18 38.64 241.18 38.998C241.18 39.4782 240.712 39.9583 239.776 40.4385C238.84 40.9186 237.863 41.1587 236.846 41.1587ZM255.486 39.5352C255.486 40.1374 254.961 40.4385 253.912 40.4385C253.318 40.4385 252.919 40.2961 252.715 40.0112C252.618 39.8729 252.569 39.5474 252.569 39.0347L252.532 38.2534C252.475 37.3989 252.447 36.5404 252.447 35.6777C252.447 33.8141 252.284 32.5649 251.958 31.9302C251.641 31.2873 251.104 30.9658 250.347 30.9658C249.843 30.9658 249.375 31.1164 248.943 31.4175C248.52 31.7186 248.195 32.1377 247.967 32.6748C247.495 33.7734 247.259 35.8039 247.259 38.7661C247.259 39.4416 247.129 39.9176 246.868 40.1943C246.616 40.471 246.29 40.6094 245.892 40.6094H245.647C244.736 40.6094 244.28 40.2472 244.28 39.5229V39.23C244.28 39.1405 244.329 38.9451 244.427 38.644L244.622 38.0825C244.817 37.4233 244.915 36.0114 244.915 33.8467L244.976 30.2212C244.976 29.7573 245.228 29.5254 245.733 29.5254C246.237 29.5254 246.734 29.6922 247.222 30.0259C247.719 30.3595 248.032 30.5264 248.162 30.5264C248.3 30.5264 248.541 30.4328 248.882 30.2456C250.03 29.619 250.949 29.3057 251.641 29.3057H251.958C253.204 29.3057 254.078 29.8672 254.583 30.9902C254.827 31.5192 254.949 32.6585 254.949 34.4082V34.4937C254.949 34.6401 254.945 34.7866 254.937 34.9331C254.937 35.3319 254.937 35.5394 254.937 35.5557C254.937 35.7103 254.937 35.8608 254.937 36.0073C254.937 36.1213 254.937 36.2311 254.937 36.3369C254.937 36.9635 254.957 37.3908 254.998 37.6187C255.055 37.9279 255.149 38.2493 255.279 38.583C255.417 38.9492 255.486 39.2666 255.486 39.5352ZM264.654 39.6938C264.654 40.0194 264.454 40.3123 264.056 40.5728C263.665 40.825 263.132 40.9512 262.457 40.9512C261.195 40.9512 260.308 40.4832 259.795 39.5474C259.478 38.9614 259.319 37.5902 259.319 35.4336C259.319 33.277 259.283 32.0238 259.209 31.6738C259.136 31.3239 258.933 30.9821 258.599 30.6484C258.265 30.3148 258.099 30.0584 258.099 29.8794C258.099 29.8143 258.493 29.387 259.283 28.5977C259.454 28.4268 259.625 28.0483 259.795 27.4624C259.974 26.8765 260.101 26.4899 260.174 26.3027C260.418 25.7168 260.739 25.4238 261.138 25.4238H261.333C261.683 25.4238 261.932 25.5581 262.078 25.8267C262.135 25.9325 262.221 26.3149 262.334 26.9741C262.457 27.6252 262.595 28.0443 262.75 28.2314C262.904 28.4186 263.291 28.6261 263.909 28.854C264.536 29.0737 264.849 29.3097 264.849 29.562V29.6963C264.849 30.0218 264.491 30.2985 263.775 30.5264C263.067 30.7461 262.611 31.1001 262.408 31.5884C262.009 32.5731 261.81 34.1763 261.81 36.3979C261.81 37.4396 261.989 38.1476 262.347 38.522C262.566 38.7498 263.006 38.9085 263.665 38.998C264.324 39.0876 264.654 39.3195 264.654 39.6938ZM271.307 39.4619H271.624C272.291 39.4619 272.877 39.2381 273.382 38.7905C273.895 38.3348 274.151 37.8099 274.151 37.2158L274.175 37.0571V36.8984L274.2 36.52V35.8242C274.2 35.3522 273.96 35.1162 273.479 35.1162H272.93L272.845 35.1284L272.369 35.165C272.141 35.1976 271.978 35.2139 271.88 35.2139C271.221 35.2139 270.611 35.4621 270.049 35.9585C269.659 36.3084 269.463 36.8049 269.463 37.4478V37.6919C269.463 38.2371 269.638 38.6685 269.988 38.9858C270.346 39.3032 270.786 39.4619 271.307 39.4619ZM268.584 31.6616C268.039 31.6616 267.767 31.3117 267.767 30.6118C267.767 30.091 268.206 29.6393 269.085 29.2568C269.972 28.8662 270.892 28.6709 271.844 28.6709H272.454C273.276 28.6709 274 28.8255 274.627 29.1348C275.254 29.4359 275.73 29.8468 276.055 30.3677C276.389 30.8885 276.592 31.568 276.666 32.4062C276.682 32.6016 276.69 33.5496 276.69 35.2505C276.69 36.9513 276.71 37.932 276.751 38.1924C276.8 38.4447 276.93 38.7539 277.142 39.1201C277.361 39.4863 277.471 39.7874 277.471 40.0234C277.471 40.2594 277.357 40.4629 277.129 40.6338C276.91 40.7965 276.588 40.8779 276.165 40.8779C275.742 40.8779 275.282 40.7762 274.786 40.5728C274.289 40.3612 273.927 40.2554 273.699 40.2554C273.675 40.2554 273.268 40.4019 272.479 40.6948C271.689 40.9797 271.022 41.1221 270.477 41.1221H270.208C269.297 41.1221 268.519 40.8332 267.876 40.2554C267.242 39.6776 266.924 38.8556 266.924 37.7896C266.924 36.7235 267.274 35.8934 267.974 35.2993C268.674 34.6971 269.524 34.2861 270.525 34.0664C270.826 34.0013 271.327 33.9159 272.027 33.8101C272.727 33.7043 273.203 33.5944 273.455 33.4805C273.895 33.277 274.114 32.8945 274.114 32.333C274.114 31.7633 273.927 31.3198 273.553 31.0024C273.178 30.6769 272.731 30.5142 272.21 30.5142C271.697 30.5142 271.022 30.7054 270.184 31.0879C269.345 31.4704 268.812 31.6616 268.584 31.6616ZM285.186 39.4497H285.552C286.439 39.4497 287.184 39.0103 287.786 38.1313C288.396 37.2443 288.702 36.0399 288.702 34.5181V34.1274L288.689 33.9932L288.677 33.7368C288.669 33.6473 288.665 33.5618 288.665 33.4805C288.665 32.6911 288.445 31.9993 288.006 31.4053C287.566 30.8031 287.029 30.502 286.395 30.502H286.041C285.642 30.502 285.202 30.6403 284.722 30.917C284.25 31.1937 283.917 31.5192 283.721 31.8936C283.29 32.7074 283.074 33.9932 283.074 35.751V36.874C283.099 37.1182 283.111 37.3216 283.111 37.4844C283.111 38.0703 283.29 38.5464 283.648 38.9126C284.014 39.2707 284.527 39.4497 285.186 39.4497ZM283.587 28.7197C283.587 29.029 283.636 29.2609 283.733 29.4155C283.839 29.5701 284.112 29.6475 284.551 29.6475C284.559 29.6475 284.824 29.5864 285.345 29.4644C285.874 29.3423 286.419 29.2812 286.98 29.2812C288.193 29.2812 289.206 29.7614 290.02 30.7217C290.834 31.682 291.241 32.8538 291.241 34.2373V35.1162C291.241 35.7998 291.106 36.5241 290.838 37.2891C290.561 38.054 290.171 38.7173 289.666 39.2788C288.632 40.4181 287.359 40.9878 285.845 40.9878H285.577C285.153 40.9878 284.608 40.9064 283.941 40.7437C283.274 40.5809 282.838 40.4995 282.635 40.4995L281.817 40.5728C280.979 40.5728 280.56 40.1536 280.56 39.3154V38.8149C280.56 38.3185 280.657 36.5078 280.853 33.3828C281.056 30.2578 281.158 28.264 281.158 27.4014C281.158 26.5387 281.089 25.8226 280.95 25.2529C280.812 24.6833 280.743 24.374 280.743 24.3252C280.743 23.6416 281.129 23.2998 281.902 23.2998H282.146C282.806 23.2998 283.225 23.4585 283.404 23.7759C283.583 24.0851 283.672 24.6629 283.672 25.5093L283.611 27.4502L283.587 27.9995V28.7197ZM294.5 24.0322C294.5 23.4382 295.057 23.1411 296.172 23.1411H296.392C296.856 23.1411 297.173 23.255 297.344 23.4829C297.515 23.7026 297.601 24.134 297.601 24.7769L297.503 26.5957C297.479 26.8805 297.466 27.0352 297.466 27.0596L297.442 27.5234C297.426 27.8245 297.409 28.1297 297.393 28.439L297.356 28.9028L297.32 29.5986C297.19 32.0726 297.125 33.8996 297.125 35.0796C297.125 36.2515 297.177 37.0938 297.283 37.6064C297.389 38.1191 297.556 38.5545 297.784 38.9126C298.012 39.2707 298.125 39.5067 298.125 39.6206V39.7671C298.125 40.1252 297.946 40.41 297.588 40.6216C297.238 40.8332 296.762 40.939 296.16 40.939H295.525C295.151 40.939 294.821 40.8332 294.537 40.6216C294.26 40.4019 294.122 40.1536 294.122 39.877V39.5474L294.195 39.0347C294.292 38.3267 294.349 37.7977 294.366 37.4478C294.39 37.0897 294.427 36.5973 294.476 35.9707C294.524 35.3359 294.602 33.9891 294.708 31.9302C294.821 29.8631 294.878 28.7523 294.878 28.5977L294.927 27.6821L294.952 26.7788C294.952 25.9162 294.874 25.3018 294.72 24.9355C294.573 24.5612 294.5 24.2601 294.5 24.0322ZM303.179 33.5781V33.7734C303.179 34.0176 303.403 34.1396 303.851 34.1396H304.144L304.217 34.1274L304.815 34.0786C305.442 33.9891 305.848 33.9443 306.036 33.9443C306.923 33.9443 307.59 33.7775 308.038 33.4438C308.249 33.2811 308.355 32.9922 308.355 32.5771V32.4429C308.355 31.8325 308.152 31.3483 307.745 30.9902C307.346 30.6322 306.866 30.4531 306.304 30.4531H306.219L306.146 30.4653C305.356 30.4653 304.664 30.799 304.07 31.4663C303.476 32.1336 303.179 32.8376 303.179 33.5781ZM305.84 41.1587H305.572C304.017 41.1587 302.78 40.6663 301.861 39.6816C300.941 38.6888 300.481 37.3664 300.481 35.7144V35.1772C300.481 34.3879 300.636 33.5863 300.945 32.7725C301.572 31.1449 302.593 30.0218 304.009 29.4033C304.758 29.0697 305.519 28.9028 306.292 28.9028H306.817C307.883 28.9028 308.782 29.2609 309.515 29.9771C310.255 30.6851 310.625 31.6006 310.625 32.7236V32.9678C310.625 33.7653 310.308 34.3309 309.673 34.6646C309.234 34.9006 308.208 35.1366 306.597 35.3726C304.986 35.6086 304.107 35.751 303.96 35.7998C303.472 35.9707 303.228 36.2962 303.228 36.7764C303.228 37.4437 303.513 38.0133 304.083 38.4854C304.652 38.9574 305.417 39.1934 306.377 39.1934C306.825 39.1934 307.435 39.0713 308.208 38.8271C308.982 38.583 309.429 38.4609 309.551 38.4609C309.966 38.4609 310.174 38.64 310.174 38.998C310.174 39.4782 309.706 39.9583 308.77 40.4385C307.834 40.9186 306.858 41.1587 305.84 41.1587ZM322.247 35.0796V36.0073C322.247 36.9757 322.466 37.7855 322.906 38.4365C323.353 39.0794 323.878 39.4009 324.48 39.4009H324.822C325.75 39.4009 326.466 39.0306 326.971 38.29C327.483 37.5495 327.74 36.4468 327.74 34.9819C327.756 34.8029 327.764 34.6727 327.764 34.5913L327.789 34.3472L327.801 33.8345V32.9678C327.801 31.3076 327.138 30.4775 325.811 30.4775H325.335C324.472 30.4775 323.74 30.9129 323.138 31.7837C322.544 32.6545 322.247 33.7531 322.247 35.0796ZM319.903 35.6411C319.903 34.7948 320.053 33.9321 320.354 33.0532C320.656 32.1743 321.079 31.4256 321.624 30.8071C322.169 30.1805 322.784 29.7288 323.467 29.4521C324.151 29.1673 324.961 29.0249 325.896 29.0249C326.84 29.0249 327.426 28.854 327.654 28.5122C327.882 28.1623 327.996 27.3932 327.996 26.2051C327.996 25.9854 327.959 25.6924 327.886 25.3262C327.813 24.96 327.776 24.7484 327.776 24.6914C327.776 24.3415 327.927 24.0241 328.228 23.7393C328.529 23.4463 328.924 23.2998 329.412 23.2998H329.656C330.039 23.2998 330.324 23.3893 330.511 23.5684C330.698 23.7474 330.792 24.1217 330.792 24.6914V25.8267L330.767 26.4004C330.759 26.5957 330.755 26.8805 330.755 27.2549C330.755 27.6211 330.694 28.8011 330.572 30.7949C330.45 32.7887 330.389 34.16 330.389 34.9087L330.376 35.2017C330.368 35.397 330.364 35.5841 330.364 35.7632L330.352 36.0439C330.352 36.0439 330.352 36.3613 330.352 36.9961C330.352 37.818 330.417 38.4365 330.547 38.8516C330.678 39.2666 330.743 39.5636 330.743 39.7427C330.743 39.9217 330.641 40.1089 330.438 40.3042C330.234 40.4995 329.917 40.5972 329.485 40.5972C329.062 40.5972 328.651 40.528 328.252 40.3896C327.854 40.2432 327.561 40.1699 327.374 40.1699C327.186 40.1699 326.942 40.2269 326.641 40.3408C325.73 40.6745 324.896 40.8413 324.139 40.8413C324.122 40.8413 324.106 40.8413 324.09 40.8413H323.809C322.58 40.8413 321.62 40.3937 320.928 39.4985C320.245 38.5952 319.903 37.4111 319.903 35.9463V35.6411ZM337.811 39.4619H338.128C338.795 39.4619 339.381 39.2381 339.886 38.7905C340.398 38.3348 340.655 37.8099 340.655 37.2158L340.679 37.0571V36.8984L340.704 36.52V35.8242C340.704 35.3522 340.464 35.1162 339.983 35.1162H339.434L339.349 35.1284L338.873 35.165C338.645 35.1976 338.482 35.2139 338.384 35.2139C337.725 35.2139 337.115 35.4621 336.553 35.9585C336.163 36.3084 335.967 36.8049 335.967 37.4478V37.6919C335.967 38.2371 336.142 38.6685 336.492 38.9858C336.85 39.3032 337.29 39.4619 337.811 39.4619ZM335.088 31.6616C334.543 31.6616 334.271 31.3117 334.271 30.6118C334.271 30.091 334.71 29.6393 335.589 29.2568C336.476 28.8662 337.396 28.6709 338.348 28.6709H338.958C339.78 28.6709 340.504 28.8255 341.131 29.1348C341.757 29.4359 342.234 29.8468 342.559 30.3677C342.893 30.8885 343.096 31.568 343.169 32.4062C343.186 32.6016 343.194 33.5496 343.194 35.2505C343.194 36.9513 343.214 37.932 343.255 38.1924C343.304 38.4447 343.434 38.7539 343.646 39.1201C343.865 39.4863 343.975 39.7874 343.975 40.0234C343.975 40.2594 343.861 40.4629 343.633 40.6338C343.414 40.7965 343.092 40.8779 342.669 40.8779C342.246 40.8779 341.786 40.7762 341.29 40.5728C340.793 40.3612 340.431 40.2554 340.203 40.2554C340.179 40.2554 339.772 40.4019 338.982 40.6948C338.193 40.9797 337.526 41.1221 336.98 41.1221H336.712C335.8 41.1221 335.023 40.8332 334.38 40.2554C333.746 39.6776 333.428 38.8556 333.428 37.7896C333.428 36.7235 333.778 35.8934 334.478 35.2993C335.178 34.6971 336.028 34.2861 337.029 34.0664C337.33 34.0013 337.831 33.9159 338.531 33.8101C339.231 33.7043 339.707 33.5944 339.959 33.4805C340.398 33.277 340.618 32.8945 340.618 32.333C340.618 31.7633 340.431 31.3198 340.057 31.0024C339.682 30.6769 339.235 30.5142 338.714 30.5142C338.201 30.5142 337.526 30.7054 336.688 31.0879C335.849 31.4704 335.316 31.6616 335.088 31.6616ZM350.799 25.1309V25.2773C350.799 25.6924 350.677 26.0464 350.433 26.3394C350.197 26.6242 349.83 26.7666 349.334 26.7666H349.139L348.76 26.7178C348.541 26.7178 348.329 26.616 348.125 26.4126C347.922 26.2091 347.82 25.904 347.82 25.4971V25.3506L347.881 24.9111C347.881 24.7402 347.983 24.5286 348.187 24.2764C348.398 24.0241 348.667 23.8979 348.992 23.8979L349.273 23.8613H349.517L349.859 23.9102C350.07 23.9102 350.278 24.016 350.481 24.2275C350.693 24.431 350.799 24.7321 350.799 25.1309ZM350.225 30.2822L350.091 33.5659L350.066 33.8955L350.03 34.8965V35.3726C350.03 36.5444 350.062 37.3135 350.127 37.6797C350.201 38.0459 350.335 38.404 350.53 38.7539C350.726 39.0957 350.823 39.3439 350.823 39.4985V39.6084C350.823 40.0072 350.62 40.3245 350.213 40.5605C349.806 40.7965 349.253 40.9146 348.553 40.9146H348.248C347.841 40.9146 347.531 40.825 347.32 40.646C347.108 40.4588 347.002 40.2594 347.002 40.0479V39.7793C347.002 39.6735 347.096 39.2992 347.283 38.6562C347.47 38.0052 347.564 37.1222 347.564 36.0073C347.588 35.6899 347.601 35.4702 347.601 35.3481L347.637 34.6768L347.662 34.3472C347.702 33.7775 347.723 33.334 347.723 33.0166L347.735 32.5283C347.735 31.918 347.633 31.3768 347.43 30.9048C347.234 30.4328 347.137 30.1398 347.137 30.0259C347.137 29.4399 347.69 29.147 348.797 29.147H349.236C349.651 29.147 349.92 29.2568 350.042 29.4766C350.164 29.6882 350.225 29.9567 350.225 30.2822ZM354.51 24.0322C354.51 23.4382 355.067 23.1411 356.182 23.1411H356.402C356.866 23.1411 357.183 23.255 357.354 23.4829C357.525 23.7026 357.61 24.134 357.61 24.7769L357.513 26.5957C357.488 26.8805 357.476 27.0352 357.476 27.0596L357.452 27.5234C357.435 27.8245 357.419 28.1297 357.403 28.439L357.366 28.9028L357.33 29.5986C357.199 32.0726 357.134 33.8996 357.134 35.0796C357.134 36.2515 357.187 37.0938 357.293 37.6064C357.399 38.1191 357.566 38.5545 357.793 38.9126C358.021 39.2707 358.135 39.5067 358.135 39.6206V39.7671C358.135 40.1252 357.956 40.41 357.598 40.6216C357.248 40.8332 356.772 40.939 356.17 40.939H355.535C355.161 40.939 354.831 40.8332 354.546 40.6216C354.27 40.4019 354.131 40.1536 354.131 39.877V39.5474L354.205 39.0347C354.302 38.3267 354.359 37.7977 354.375 37.4478C354.4 37.0897 354.437 36.5973 354.485 35.9707C354.534 35.3359 354.611 33.9891 354.717 31.9302C354.831 29.8631 354.888 28.7523 354.888 28.5977L354.937 27.6821L354.961 26.7788C354.961 25.9162 354.884 25.3018 354.729 24.9355C354.583 24.5612 354.51 24.2601 354.51 24.0322ZM365.057 40.9512C365.057 40.528 364.768 39.7874 364.19 38.7295C363.612 37.6634 363.128 36.6706 362.737 35.751C361.403 32.6178 360.735 30.8071 360.735 30.3188C360.735 30.0991 360.861 29.8997 361.114 29.7207C361.374 29.5417 361.806 29.4521 362.408 29.4521C363.01 29.4521 363.433 29.7085 363.677 30.2212C363.702 30.2782 363.787 30.6322 363.934 31.2832C365.04 35.3278 365.732 37.4478 366.009 37.6431C366.432 37.6431 367.01 36.6543 367.742 34.6768C368.239 33.334 368.544 32.2069 368.658 31.2954C368.78 30.384 368.877 29.859 368.951 29.7207C369.179 29.2975 369.651 29.0859 370.367 29.0859C371.091 29.0859 371.453 29.3667 371.453 29.9282C371.453 30.327 371.307 30.86 371.014 31.5273C370.721 32.1947 370.444 32.9189 370.184 33.7002C368.694 38.1598 367.616 40.9756 366.949 42.1475C366.281 43.3275 365.577 44.2552 364.837 44.9307C364.096 45.6143 363.352 45.9561 362.603 45.9561C361.862 45.9561 361.492 45.7445 361.492 45.3213C361.492 44.9469 361.871 44.6051 362.627 44.2959C363.392 43.9867 363.925 43.6286 364.227 43.2217C364.78 42.4811 365.057 41.7243 365.057 40.9512ZM374.761 41.1953H374.383C373.976 41.1953 373.659 41.1017 373.431 40.9146C373.211 40.7274 373.101 40.4792 373.101 40.1699C373.085 40.1048 373.077 40.0519 373.077 40.0112L373.052 39.8037V39.584L373.064 39.5352V39.4253C373.081 39.3602 373.089 39.3073 373.089 39.2666C373.089 38.9004 373.211 38.6156 373.455 38.4121C373.707 38.2005 373.984 38.0947 374.285 38.0947L374.542 38.0581H374.871C375.758 38.0581 376.202 38.522 376.202 39.4497V39.6206L376.153 40.0356C376.153 40.41 376.01 40.6989 375.726 40.9023C375.449 41.0977 375.127 41.1953 374.761 41.1953ZM388.848 24.1421C389.784 24.1421 390.252 24.5286 390.252 25.3018C390.252 25.3587 390.207 25.6029 390.118 26.0342C390.028 26.4655 389.939 27.7635 389.849 29.9282C389.76 32.0848 389.715 33.7775 389.715 35.0063C389.715 36.2271 390.008 37.2321 390.594 38.0215C391.172 38.8027 391.977 39.1934 393.011 39.1934C394.996 39.1934 396.315 38.3063 396.966 36.5322C397.153 36.0114 397.34 34.8721 397.527 33.1143C397.723 31.3564 397.82 29.265 397.82 26.8398C397.82 26.7422 397.8 26.5021 397.759 26.1196L397.649 25.1675C397.649 24.8257 397.747 24.5612 397.942 24.374C398.138 24.1868 398.496 24.0933 399.017 24.0933C399.546 24.0933 399.912 24.1665 400.115 24.313C400.538 24.6222 400.75 25.1146 400.75 25.79C400.75 25.8307 400.567 26.437 400.201 27.6089C400.07 28.0321 399.969 29.0697 399.896 30.7217C399.83 32.3737 399.778 33.5049 399.737 34.1152C399.615 35.8486 399.35 37.1548 398.943 38.0337C398.536 38.9045 397.837 39.6125 396.844 40.1577C395.851 40.6948 394.634 40.9634 393.194 40.9634H392.742C390.748 40.9634 389.255 40.3327 388.262 39.0713C387.782 38.4609 387.469 37.7692 387.322 36.9961C387.176 36.2148 387.103 35.2627 387.103 34.1396L387.115 33.688C387.139 32.7847 387.164 31.8895 387.188 31.0024C387.212 30.1073 387.225 29.3423 387.225 28.7075C387.225 28.0646 387.18 27.5926 387.09 27.2915L386.846 26.6689C386.74 26.3597 386.688 26.1359 386.688 25.9976C386.688 25.2407 386.948 24.6873 387.469 24.3374C387.664 24.2072 388.124 24.1421 388.848 24.1421ZM414.3 39.5352C414.3 40.1374 413.775 40.4385 412.725 40.4385C412.131 40.4385 411.732 40.2961 411.529 40.0112C411.431 39.8729 411.382 39.5474 411.382 39.0347L411.346 38.2534C411.289 37.3989 411.26 36.5404 411.26 35.6777C411.26 33.8141 411.097 32.5649 410.772 31.9302C410.455 31.2873 409.917 30.9658 409.161 30.9658C408.656 30.9658 408.188 31.1164 407.757 31.4175C407.334 31.7186 407.008 32.1377 406.78 32.6748C406.308 33.7734 406.072 35.8039 406.072 38.7661C406.072 39.4416 405.942 39.9176 405.682 40.1943C405.429 40.471 405.104 40.6094 404.705 40.6094H404.461C403.549 40.6094 403.094 40.2472 403.094 39.5229V39.23C403.094 39.1405 403.143 38.9451 403.24 38.644L403.436 38.0825C403.631 37.4233 403.729 36.0114 403.729 33.8467L403.79 30.2212C403.79 29.7573 404.042 29.5254 404.546 29.5254C405.051 29.5254 405.547 29.6922 406.036 30.0259C406.532 30.3595 406.845 30.5264 406.976 30.5264C407.114 30.5264 407.354 30.4328 407.696 30.2456C408.843 29.619 409.763 29.3057 410.455 29.3057H410.772C412.017 29.3057 412.892 29.8672 413.396 30.9902C413.641 31.5192 413.763 32.6585 413.763 34.4082V34.4937C413.763 34.6401 413.759 34.7866 413.75 34.9331C413.75 35.3319 413.75 35.5394 413.75 35.5557C413.75 35.7103 413.75 35.8608 413.75 36.0073C413.75 36.1213 413.75 36.2311 413.75 36.3369C413.75 36.9635 413.771 37.3908 413.812 37.6187C413.868 37.9279 413.962 38.2493 414.092 38.583C414.231 38.9492 414.3 39.2666 414.3 39.5352ZM421.111 25.1309V25.2773C421.111 25.6924 420.989 26.0464 420.745 26.3394C420.509 26.6242 420.143 26.7666 419.646 26.7666H419.451L419.073 26.7178C418.853 26.7178 418.641 26.616 418.438 26.4126C418.235 26.2091 418.133 25.904 418.133 25.4971V25.3506L418.194 24.9111C418.194 24.7402 418.296 24.5286 418.499 24.2764C418.711 24.0241 418.979 23.8979 419.305 23.8979L419.585 23.8613H419.83L420.171 23.9102C420.383 23.9102 420.59 24.016 420.794 24.2275C421.006 24.431 421.111 24.7321 421.111 25.1309ZM420.538 30.2822L420.403 33.5659L420.379 33.8955L420.342 34.8965V35.3726C420.342 36.5444 420.375 37.3135 420.44 37.6797C420.513 38.0459 420.647 38.404 420.843 38.7539C421.038 39.0957 421.136 39.3439 421.136 39.4985V39.6084C421.136 40.0072 420.932 40.3245 420.525 40.5605C420.118 40.7965 419.565 40.9146 418.865 40.9146H418.56C418.153 40.9146 417.844 40.825 417.632 40.646C417.421 40.4588 417.315 40.2594 417.315 40.0479V39.7793C417.315 39.6735 417.409 39.2992 417.596 38.6562C417.783 38.0052 417.876 37.1222 417.876 36.0073C417.901 35.6899 417.913 35.4702 417.913 35.3481L417.95 34.6768L417.974 34.3472C418.015 33.7775 418.035 33.334 418.035 33.0166L418.047 32.5283C418.047 31.918 417.946 31.3768 417.742 30.9048C417.547 30.4328 417.449 30.1398 417.449 30.0259C417.449 29.4399 418.003 29.147 419.109 29.147H419.549C419.964 29.147 420.232 29.2568 420.354 29.4766C420.477 29.6882 420.538 29.9567 420.538 30.2822ZM426.067 41.8911H425.787C425.38 41.8911 425.034 41.7731 424.749 41.5371C424.472 41.3011 424.334 41.0203 424.334 40.6948C424.334 40.3693 424.432 39.9543 424.627 39.4497C424.83 38.937 424.977 38.3145 425.066 37.582C425.164 36.8415 425.213 35.7591 425.213 34.335C425.213 32.9108 425.144 32.0034 425.005 31.6128C424.981 31.5477 424.867 31.332 424.664 30.9658C424.46 30.5915 424.358 30.2741 424.358 30.0137C424.358 29.7533 424.493 29.4196 424.761 29.0127C425.038 28.6058 425.221 28.3047 425.311 28.1094C426.409 25.79 426.983 24.6019 427.032 24.5449C427.878 23.5602 429.021 23.0679 430.462 23.0679C431.129 23.0679 431.642 23.1818 432 23.4097C432.358 23.6375 432.537 23.9346 432.537 24.3008C432.537 24.6589 432.326 24.9193 431.902 25.082C431.788 25.1227 431.638 25.1431 431.451 25.1431C431.312 25.1349 431.154 25.1227 430.975 25.1064C430.551 25.0576 430.242 25.0332 430.047 25.0332C429.518 25.0332 429.087 25.2611 428.753 25.7168C428.427 26.1644 428.265 26.6812 428.265 27.2671C428.265 27.853 428.383 28.2803 428.619 28.5488C428.692 28.6302 429.038 28.8337 429.656 29.1592C430.283 29.4766 430.596 29.798 430.596 30.1235C430.596 30.3026 430.246 30.5793 429.546 30.9536C429.05 31.214 428.684 31.6779 428.448 32.3452C427.935 33.7775 427.679 35.6615 427.679 37.9971L427.911 40.0601C427.911 40.6216 427.744 41.0651 427.41 41.3906C427.085 41.7243 426.637 41.8911 426.067 41.8911ZM435.235 35.8486C435.235 36.9147 435.479 37.8018 435.967 38.5098C436.456 39.2178 437.054 39.5718 437.762 39.5718H438.128C438.966 39.5718 439.674 39.1486 440.252 38.3022C440.838 37.4559 441.131 36.3288 441.131 34.9209V34.1152C441.131 33.0247 440.891 32.1336 440.411 31.4419C439.939 30.742 439.328 30.3921 438.58 30.3921H438.335C437.465 30.3921 436.732 30.8234 436.138 31.686C435.552 32.5487 435.259 33.5781 435.259 34.7744L435.235 35.0552V35.8486ZM437.994 41.2319H437.603C436.179 41.2319 435.019 40.7355 434.124 39.7427C433.229 38.7498 432.781 37.342 432.781 35.519L432.793 35.3115C432.793 33.3096 433.322 31.7308 434.38 30.5752C434.934 29.9648 435.564 29.5173 436.272 29.2324C436.989 28.9395 437.668 28.793 438.311 28.793H438.909C439.625 28.793 440.313 28.9517 440.972 29.269C442.86 30.1805 443.804 31.8976 443.804 34.4204V34.6157C443.796 35.4377 443.662 36.2718 443.401 37.1182C442.881 38.7865 441.88 39.9665 440.398 40.6582C439.576 41.0407 438.775 41.2319 437.994 41.2319ZM447.112 34.6523V33.7124C447.112 32.5812 447.051 31.7552 446.929 31.2344C446.807 30.7054 446.746 30.3351 446.746 30.1235C446.746 29.6271 447.108 29.3789 447.833 29.3789C448.557 29.3789 449.082 29.5132 449.407 29.7817C449.497 29.855 449.611 29.9974 449.749 30.209C449.896 30.4206 450.026 30.5264 450.14 30.5264C450.164 30.5264 450.518 30.3188 451.202 29.9038C451.885 29.4888 452.471 29.2812 452.959 29.2812H453.143C453.541 29.2812 453.859 29.3789 454.095 29.5742C454.331 29.7614 454.449 29.9933 454.449 30.27V30.4287C454.449 30.7624 454.331 31.0024 454.095 31.1489C453.867 31.2954 453.501 31.3687 452.996 31.3687C451.849 31.3687 451.01 31.7715 450.481 32.5771C449.961 33.3828 449.7 34.807 449.7 36.8496C449.7 37.1426 449.749 37.5942 449.847 38.2046C449.952 38.8149 450.005 39.2747 450.005 39.584C450.005 39.8932 449.839 40.1903 449.505 40.4751C449.171 40.7599 448.748 40.9023 448.235 40.9023H447.82C447.373 40.9023 447.027 40.7965 446.783 40.585C446.547 40.3652 446.429 40.1007 446.429 39.7915C446.429 39.4741 446.486 39.1527 446.6 38.8271C446.909 37.9482 447.063 36.9798 447.063 35.9219C447.096 35.3359 447.112 34.9128 447.112 34.6523ZM461.504 29.7085C462.131 29.4725 462.774 29.3545 463.433 29.3545C464.092 29.3545 464.776 29.5498 465.484 29.9404C466.2 30.3311 466.591 30.5264 466.656 30.5264C466.721 30.5264 467.16 30.327 467.974 29.9282C468.788 29.5295 469.52 29.3301 470.171 29.3301C470.831 29.3301 471.372 29.4684 471.795 29.7451C472.226 30.0137 472.552 30.3351 472.771 30.7095C473.187 31.4256 473.394 33.0166 473.394 35.4824C473.394 36.5892 473.402 37.224 473.418 37.3867C473.443 37.5413 473.5 37.8221 473.589 38.229C473.687 38.6278 473.736 38.9574 473.736 39.2178C473.736 39.4701 473.63 39.7345 473.418 40.0112C473.207 40.2879 472.926 40.4263 472.576 40.4263C471.884 40.4263 471.473 40.1455 471.343 39.584C471.246 39.1771 471.132 37.9889 471.001 36.0195C470.879 34.0501 470.745 32.8945 470.599 32.5527C470.306 31.8366 469.683 31.4785 468.731 31.4785C468.121 31.4785 467.645 31.861 467.303 32.626C466.806 33.7246 466.558 35.2871 466.558 37.3135L466.68 39.0713C466.68 39.6898 466.452 40.1577 465.997 40.4751C465.704 40.6785 465.313 40.7803 464.825 40.7803C464.345 40.7803 464.027 40.7314 463.873 40.6338C463.604 40.471 463.47 40.1252 463.47 39.5962C463.47 39.4985 463.547 39.0998 463.702 38.3999C463.864 37.6919 463.946 36.5444 463.946 34.9575C463.946 33.3625 463.828 32.3493 463.592 31.918C463.356 31.4785 462.945 31.2588 462.359 31.2588C461.773 31.2588 461.252 31.4582 460.796 31.8569C460.349 32.2557 460.019 32.6911 459.808 33.1631C459.604 33.6351 459.421 34.7581 459.258 36.5322C459.104 38.3063 458.994 39.3236 458.929 39.584C458.815 40.0316 458.485 40.2554 457.94 40.2554C457.403 40.2554 457.033 40.0967 456.829 39.7793C456.634 39.4538 456.536 39.0591 456.536 38.5952L456.597 38.168L456.829 37.3257C456.927 36.9351 456.984 36.4793 457 35.9585C457.122 32.7277 457.216 30.8844 457.281 30.4287C457.346 29.973 457.639 29.7451 458.16 29.7451L459.979 30.0503C460.369 30.0503 460.878 29.9364 461.504 29.7085ZM494.817 39.5352C494.817 40.1374 494.292 40.4385 493.243 40.4385C492.649 40.4385 492.25 40.2961 492.046 40.0112C491.949 39.8729 491.9 39.5474 491.9 39.0347L491.863 38.2534C491.806 37.3989 491.778 36.5404 491.778 35.6777C491.778 33.8141 491.615 32.5649 491.29 31.9302C490.972 31.2873 490.435 30.9658 489.678 30.9658C489.174 30.9658 488.706 31.1164 488.274 31.4175C487.851 31.7186 487.526 32.1377 487.298 32.6748C486.826 33.7734 486.59 35.8039 486.59 38.7661C486.59 39.4416 486.46 39.9176 486.199 40.1943C485.947 40.471 485.621 40.6094 485.223 40.6094H484.979C484.067 40.6094 483.611 40.2472 483.611 39.5229V39.23C483.611 39.1405 483.66 38.9451 483.758 38.644L483.953 38.0825C484.148 37.4233 484.246 36.0114 484.246 33.8467L484.307 30.2212C484.307 29.7573 484.559 29.5254 485.064 29.5254C485.569 29.5254 486.065 29.6922 486.553 30.0259C487.05 30.3595 487.363 30.5264 487.493 30.5264C487.632 30.5264 487.872 30.4328 488.213 30.2456C489.361 29.619 490.28 29.3057 490.972 29.3057H491.29C492.535 29.3057 493.41 29.8672 493.914 30.9902C494.158 31.5192 494.28 32.6585 494.28 34.4082V34.4937C494.28 34.6401 494.276 34.7866 494.268 34.9331C494.268 35.3319 494.268 35.5394 494.268 35.5557C494.268 35.7103 494.268 35.8608 494.268 36.0073C494.268 36.1213 494.268 36.2311 494.268 36.3369C494.268 36.9635 494.288 37.3908 494.329 37.6187C494.386 37.9279 494.48 38.2493 494.61 38.583C494.748 38.9492 494.817 39.2666 494.817 39.5352ZM499.883 33.5781V33.7734C499.883 34.0176 500.107 34.1396 500.555 34.1396H500.848L500.921 34.1274L501.519 34.0786C502.146 33.9891 502.553 33.9443 502.74 33.9443C503.627 33.9443 504.294 33.7775 504.742 33.4438C504.953 33.2811 505.059 32.9922 505.059 32.5771V32.4429C505.059 31.8325 504.856 31.3483 504.449 30.9902C504.05 30.6322 503.57 30.4531 503.008 30.4531H502.923L502.85 30.4653C502.06 30.4653 501.368 30.799 500.774 31.4663C500.18 32.1336 499.883 32.8376 499.883 33.5781ZM502.544 41.1587H502.276C500.722 41.1587 499.485 40.6663 498.565 39.6816C497.645 38.6888 497.186 37.3664 497.186 35.7144V35.1772C497.186 34.3879 497.34 33.5863 497.649 32.7725C498.276 31.1449 499.297 30.0218 500.713 29.4033C501.462 29.0697 502.223 28.9028 502.996 28.9028H503.521C504.587 28.9028 505.486 29.2609 506.219 29.9771C506.959 30.6851 507.33 31.6006 507.33 32.7236V32.9678C507.33 33.7653 507.012 34.3309 506.377 34.6646C505.938 34.9006 504.913 35.1366 503.301 35.3726C501.69 35.6086 500.811 35.751 500.665 35.7998C500.176 35.9707 499.932 36.2962 499.932 36.7764C499.932 37.4437 500.217 38.0133 500.787 38.4854C501.356 38.9574 502.121 39.1934 503.082 39.1934C503.529 39.1934 504.139 39.0713 504.913 38.8271C505.686 38.583 506.133 38.4609 506.255 38.4609C506.67 38.4609 506.878 38.64 506.878 38.998C506.878 39.4782 506.41 39.9583 505.474 40.4385C504.538 40.9186 503.562 41.1587 502.544 41.1587ZM513.885 39.4619H514.202C514.869 39.4619 515.455 39.2381 515.96 38.7905C516.473 38.3348 516.729 37.8099 516.729 37.2158L516.753 37.0571V36.8984L516.778 36.52V35.8242C516.778 35.3522 516.538 35.1162 516.058 35.1162H515.508L515.423 35.1284L514.947 35.165C514.719 35.1976 514.556 35.2139 514.458 35.2139C513.799 35.2139 513.189 35.4621 512.627 35.9585C512.237 36.3084 512.042 36.8049 512.042 37.4478V37.6919C512.042 38.2371 512.216 38.6685 512.566 38.9858C512.924 39.3032 513.364 39.4619 513.885 39.4619ZM511.163 31.6616C510.617 31.6616 510.345 31.3117 510.345 30.6118C510.345 30.091 510.784 29.6393 511.663 29.2568C512.55 28.8662 513.47 28.6709 514.422 28.6709H515.032C515.854 28.6709 516.578 28.8255 517.205 29.1348C517.832 29.4359 518.308 29.8468 518.633 30.3677C518.967 30.8885 519.17 31.568 519.244 32.4062C519.26 32.6016 519.268 33.5496 519.268 35.2505C519.268 36.9513 519.288 37.932 519.329 38.1924C519.378 38.4447 519.508 38.7539 519.72 39.1201C519.939 39.4863 520.049 39.7874 520.049 40.0234C520.049 40.2594 519.935 40.4629 519.708 40.6338C519.488 40.7965 519.166 40.8779 518.743 40.8779C518.32 40.8779 517.86 40.7762 517.364 40.5728C516.867 40.3612 516.505 40.2554 516.277 40.2554C516.253 40.2554 515.846 40.4019 515.057 40.6948C514.267 40.9797 513.6 41.1221 513.055 41.1221H512.786C511.875 41.1221 511.097 40.8332 510.455 40.2554C509.82 39.6776 509.502 38.8556 509.502 37.7896C509.502 36.7235 509.852 35.8934 510.552 35.2993C511.252 34.6971 512.103 34.2861 513.104 34.0664C513.405 34.0013 513.905 33.9159 514.605 33.8101C515.305 33.7043 515.781 33.5944 516.033 33.4805C516.473 33.277 516.692 32.8945 516.692 32.333C516.692 31.7633 516.505 31.3198 516.131 31.0024C515.757 30.6769 515.309 30.5142 514.788 30.5142C514.275 30.5142 513.6 30.7054 512.762 31.0879C511.924 31.4704 511.39 31.6616 511.163 31.6616ZM529.229 39.6938C529.229 40.0194 529.03 40.3123 528.631 40.5728C528.24 40.825 527.707 40.9512 527.032 40.9512C525.77 40.9512 524.883 40.4832 524.371 39.5474C524.053 38.9614 523.895 37.5902 523.895 35.4336C523.895 33.277 523.858 32.0238 523.785 31.6738C523.711 31.3239 523.508 30.9821 523.174 30.6484C522.841 30.3148 522.674 30.0584 522.674 29.8794C522.674 29.8143 523.069 29.387 523.858 28.5977C524.029 28.4268 524.2 28.0483 524.371 27.4624C524.55 26.8765 524.676 26.4899 524.749 26.3027C524.993 25.7168 525.315 25.4238 525.713 25.4238H525.909C526.259 25.4238 526.507 25.5581 526.653 25.8267C526.71 25.9325 526.796 26.3149 526.91 26.9741C527.032 27.6252 527.17 28.0443 527.325 28.2314C527.479 28.4186 527.866 28.6261 528.484 28.854C529.111 29.0737 529.424 29.3097 529.424 29.562V29.6963C529.424 30.0218 529.066 30.2985 528.35 30.5264C527.642 30.7461 527.186 31.1001 526.983 31.5884C526.584 32.5731 526.385 34.1763 526.385 36.3979C526.385 37.4396 526.564 38.1476 526.922 38.522C527.142 38.7498 527.581 38.9085 528.24 38.998C528.899 39.0876 529.229 39.3195 529.229 39.6938ZM533.794 41.1953H533.416C533.009 41.1953 532.692 41.1017 532.464 40.9146C532.244 40.7274 532.134 40.4792 532.134 40.1699C532.118 40.1048 532.11 40.0519 532.11 40.0112L532.085 39.8037V39.584L532.098 39.5352V39.4253C532.114 39.3602 532.122 39.3073 532.122 39.2666C532.122 38.9004 532.244 38.6156 532.488 38.4121C532.741 38.2005 533.017 38.0947 533.318 38.0947L533.575 38.0581H533.904C534.791 38.0581 535.235 38.522 535.235 39.4497V39.6206L535.186 40.0356C535.186 40.41 535.044 40.6989 534.759 40.9023C534.482 41.0977 534.161 41.1953 533.794 41.1953ZM554.791 28.6221V28.2681C554.791 27.381 554.498 26.6893 553.912 26.1929C553.326 25.6965 552.516 25.4482 551.482 25.4482H551.043C550.262 25.4482 549.753 25.554 549.517 25.7656C549.281 25.9772 549.163 26.4696 549.163 27.2427L549.139 27.4624L548.98 30.9536V31.3809C548.98 31.682 549.061 31.8854 549.224 31.9912C549.395 32.097 549.716 32.1499 550.188 32.1499L550.298 32.1377L550.726 32.1255L551.153 32.1011C552.178 32.1011 553.041 31.7796 553.741 31.1367C554.441 30.4857 554.791 29.6475 554.791 28.6221ZM548.907 37.2036L549.163 39.2422C549.163 39.6979 548.972 40.0601 548.589 40.3286C548.215 40.5972 547.715 40.7314 547.088 40.7314C545.965 40.7314 545.403 40.2839 545.403 39.3887C545.403 39.2015 545.517 38.8719 545.745 38.3999C545.973 37.9198 546.111 37.4396 546.16 36.9595C546.372 34.8761 546.478 32.3818 546.478 29.4766L546.49 29.1104C546.498 28.8662 546.502 28.6261 546.502 28.3901L546.526 27.3037C546.526 26.3841 546.502 25.7412 546.453 25.375L546.404 25.1187C546.364 24.8826 546.343 24.7321 546.343 24.667C546.343 24.3008 546.612 24.0607 547.149 23.9468C547.686 23.8328 548.789 23.7759 550.457 23.7759H551.604C554.355 23.7759 556.141 24.5815 556.963 26.1929C557.248 26.7707 557.391 27.4502 557.391 28.2314C557.391 29.6637 556.788 30.9699 555.584 32.1499C554.917 32.8009 554.583 33.3258 554.583 33.7246C554.583 34.1234 555.079 35.2261 556.072 37.0327C556.398 37.6187 556.805 38.1842 557.293 38.7295C557.781 39.2747 558.025 39.6613 558.025 39.8892V40.1333C558.025 40.5728 557.667 40.7925 556.951 40.7925C556.235 40.7925 555.702 40.6053 555.352 40.231C555.01 39.8485 554.432 38.9045 553.619 37.3989C552.813 35.8934 552.369 35.0918 552.288 34.9941C551.784 34.3919 551.234 34.0908 550.64 34.0908C550.046 34.0908 549.57 34.4001 549.212 35.0186C549.008 35.3685 548.907 36.0968 548.907 37.2036ZM564.715 39.4619H565.032C565.7 39.4619 566.285 39.2381 566.79 38.7905C567.303 38.3348 567.559 37.8099 567.559 37.2158L567.583 37.0571V36.8984L567.608 36.52V35.8242C567.608 35.3522 567.368 35.1162 566.888 35.1162H566.338L566.253 35.1284L565.777 35.165C565.549 35.1976 565.386 35.2139 565.289 35.2139C564.629 35.2139 564.019 35.4621 563.458 35.9585C563.067 36.3084 562.872 36.8049 562.872 37.4478V37.6919C562.872 38.2371 563.047 38.6685 563.396 38.9858C563.755 39.3032 564.194 39.4619 564.715 39.4619ZM561.993 31.6616C561.447 31.6616 561.175 31.3117 561.175 30.6118C561.175 30.091 561.614 29.6393 562.493 29.2568C563.38 28.8662 564.3 28.6709 565.252 28.6709H565.862C566.684 28.6709 567.409 28.8255 568.035 29.1348C568.662 29.4359 569.138 29.8468 569.463 30.3677C569.797 30.8885 570 31.568 570.074 32.4062C570.09 32.6016 570.098 33.5496 570.098 35.2505C570.098 36.9513 570.118 37.932 570.159 38.1924C570.208 38.4447 570.338 38.7539 570.55 39.1201C570.77 39.4863 570.879 39.7874 570.879 40.0234C570.879 40.2594 570.765 40.4629 570.538 40.6338C570.318 40.7965 569.996 40.8779 569.573 40.8779C569.15 40.8779 568.69 40.7762 568.194 40.5728C567.697 40.3612 567.335 40.2554 567.107 40.2554C567.083 40.2554 566.676 40.4019 565.887 40.6948C565.097 40.9797 564.43 41.1221 563.885 41.1221H563.616C562.705 41.1221 561.928 40.8332 561.285 40.2554C560.65 39.6776 560.333 38.8556 560.333 37.7896C560.333 36.7235 560.682 35.8934 561.382 35.2993C562.082 34.6971 562.933 34.2861 563.934 34.0664C564.235 34.0013 564.735 33.9159 565.435 33.8101C566.135 33.7043 566.611 33.5944 566.863 33.4805C567.303 33.277 567.522 32.8945 567.522 32.333C567.522 31.7633 567.335 31.3198 566.961 31.0024C566.587 30.6769 566.139 30.5142 565.618 30.5142C565.105 30.5142 564.43 30.7054 563.592 31.0879C562.754 31.4704 562.221 31.6616 561.993 31.6616ZM574.505 34.6523V33.7124C574.505 32.5812 574.444 31.7552 574.322 31.2344C574.2 30.7054 574.139 30.3351 574.139 30.1235C574.139 29.6271 574.501 29.3789 575.225 29.3789C575.949 29.3789 576.474 29.5132 576.8 29.7817C576.889 29.855 577.003 29.9974 577.142 30.209C577.288 30.4206 577.418 30.5264 577.532 30.5264C577.557 30.5264 577.911 30.3188 578.594 29.9038C579.278 29.4888 579.864 29.2812 580.352 29.2812H580.535C580.934 29.2812 581.251 29.3789 581.487 29.5742C581.723 29.7614 581.841 29.9933 581.841 30.27V30.4287C581.841 30.7624 581.723 31.0024 581.487 31.1489C581.259 31.2954 580.893 31.3687 580.389 31.3687C579.241 31.3687 578.403 31.7715 577.874 32.5771C577.353 33.3828 577.093 34.807 577.093 36.8496C577.093 37.1426 577.142 37.5942 577.239 38.2046C577.345 38.8149 577.398 39.2747 577.398 39.584C577.398 39.8932 577.231 40.1903 576.897 40.4751C576.564 40.7599 576.141 40.9023 575.628 40.9023H575.213C574.765 40.9023 574.419 40.7965 574.175 40.585C573.939 40.3652 573.821 40.1007 573.821 39.7915C573.821 39.4741 573.878 39.1527 573.992 38.8271C574.301 37.9482 574.456 36.9798 574.456 35.9219C574.489 35.3359 574.505 34.9128 574.505 34.6523ZM585.894 33.5781V33.7734C585.894 34.0176 586.118 34.1396 586.565 34.1396H586.858L586.932 34.1274L587.53 34.0786C588.156 33.9891 588.563 33.9443 588.75 33.9443C589.638 33.9443 590.305 33.7775 590.752 33.4438C590.964 33.2811 591.07 32.9922 591.07 32.5771V32.4429C591.07 31.8325 590.866 31.3483 590.459 30.9902C590.061 30.6322 589.581 30.4531 589.019 30.4531H588.934L588.86 30.4653C588.071 30.4653 587.379 30.799 586.785 31.4663C586.191 32.1336 585.894 32.8376 585.894 33.5781ZM588.555 41.1587H588.287C586.732 41.1587 585.495 40.6663 584.576 39.6816C583.656 38.6888 583.196 37.3664 583.196 35.7144V35.1772C583.196 34.3879 583.351 33.5863 583.66 32.7725C584.287 31.1449 585.308 30.0218 586.724 29.4033C587.473 29.0697 588.234 28.9028 589.007 28.9028H589.532C590.598 28.9028 591.497 29.2609 592.229 29.9771C592.97 30.6851 593.34 31.6006 593.34 32.7236V32.9678C593.34 33.7653 593.023 34.3309 592.388 34.6646C591.949 34.9006 590.923 35.1366 589.312 35.3726C587.701 35.6086 586.822 35.751 586.675 35.7998C586.187 35.9707 585.943 36.2962 585.943 36.7764C585.943 37.4437 586.228 38.0133 586.797 38.4854C587.367 38.9574 588.132 39.1934 589.092 39.1934C589.54 39.1934 590.15 39.0713 590.923 38.8271C591.696 38.583 592.144 38.4609 592.266 38.4609C592.681 38.4609 592.889 38.64 592.889 38.998C592.889 39.4782 592.421 39.9583 591.485 40.4385C590.549 40.9186 589.572 41.1587 588.555 41.1587ZM607.94 29.7085C608.567 29.4725 609.209 29.3545 609.869 29.3545C610.528 29.3545 611.211 29.5498 611.919 29.9404C612.636 30.3311 613.026 30.5264 613.091 30.5264C613.156 30.5264 613.596 30.327 614.41 29.9282C615.223 29.5295 615.956 29.3301 616.607 29.3301C617.266 29.3301 617.807 29.4684 618.23 29.7451C618.662 30.0137 618.987 30.3351 619.207 30.7095C619.622 31.4256 619.83 33.0166 619.83 35.4824C619.83 36.5892 619.838 37.224 619.854 37.3867C619.878 37.5413 619.935 37.8221 620.025 38.229C620.123 38.6278 620.171 38.9574 620.171 39.2178C620.171 39.4701 620.066 39.7345 619.854 40.0112C619.642 40.2879 619.362 40.4263 619.012 40.4263C618.32 40.4263 617.909 40.1455 617.779 39.584C617.681 39.1771 617.567 37.9889 617.437 36.0195C617.315 34.0501 617.181 32.8945 617.034 32.5527C616.741 31.8366 616.119 31.4785 615.167 31.4785C614.556 31.4785 614.08 31.861 613.738 32.626C613.242 33.7246 612.994 35.2871 612.994 37.3135L613.116 39.0713C613.116 39.6898 612.888 40.1577 612.432 40.4751C612.139 40.6785 611.749 40.7803 611.26 40.7803C610.78 40.7803 610.463 40.7314 610.308 40.6338C610.04 40.471 609.905 40.1252 609.905 39.5962C609.905 39.4985 609.983 39.0998 610.137 38.3999C610.3 37.6919 610.381 36.5444 610.381 34.9575C610.381 33.3625 610.263 32.3493 610.027 31.918C609.791 31.4785 609.38 31.2588 608.794 31.2588C608.208 31.2588 607.688 31.4582 607.232 31.8569C606.784 32.2557 606.455 32.6911 606.243 33.1631C606.04 33.6351 605.857 34.7581 605.694 36.5322C605.539 38.3063 605.429 39.3236 605.364 39.584C605.25 40.0316 604.921 40.2554 604.375 40.2554C603.838 40.2554 603.468 40.0967 603.265 39.7793C603.069 39.4538 602.972 39.0591 602.972 38.5952L603.033 38.168L603.265 37.3257C603.362 36.9351 603.419 36.4793 603.436 35.9585C603.558 32.7277 603.651 30.8844 603.716 30.4287C603.781 29.973 604.074 29.7451 604.595 29.7451L606.414 30.0503C606.805 30.0503 607.313 29.9364 607.94 29.7085ZM627.166 25.1309V25.2773C627.166 25.6924 627.044 26.0464 626.8 26.3394C626.564 26.6242 626.198 26.7666 625.701 26.7666H625.506L625.127 26.7178C624.908 26.7178 624.696 26.616 624.493 26.4126C624.289 26.2091 624.188 25.904 624.188 25.4971V25.3506L624.249 24.9111C624.249 24.7402 624.35 24.5286 624.554 24.2764C624.765 24.0241 625.034 23.8979 625.359 23.8979L625.64 23.8613H625.884L626.226 23.9102C626.438 23.9102 626.645 24.016 626.849 24.2275C627.06 24.431 627.166 24.7321 627.166 25.1309ZM626.592 30.2822L626.458 33.5659L626.434 33.8955L626.397 34.8965V35.3726C626.397 36.5444 626.43 37.3135 626.495 37.6797C626.568 38.0459 626.702 38.404 626.897 38.7539C627.093 39.0957 627.19 39.3439 627.19 39.4985V39.6084C627.19 40.0072 626.987 40.3245 626.58 40.5605C626.173 40.7965 625.62 40.9146 624.92 40.9146H624.615C624.208 40.9146 623.899 40.825 623.687 40.646C623.475 40.4588 623.37 40.2594 623.37 40.0479V39.7793C623.37 39.6735 623.463 39.2992 623.65 38.6562C623.838 38.0052 623.931 37.1222 623.931 36.0073C623.956 35.6899 623.968 35.4702 623.968 35.3481L624.004 34.6768L624.029 34.3472C624.069 33.7775 624.09 33.334 624.09 33.0166L624.102 32.5283C624.102 31.918 624 31.3768 623.797 30.9048C623.602 30.4328 623.504 30.1398 623.504 30.0259C623.504 29.4399 624.057 29.147 625.164 29.147H625.604C626.019 29.147 626.287 29.2568 626.409 29.4766C626.531 29.6882 626.592 29.9567 626.592 30.2822ZM641.399 39.5352C641.399 40.1374 640.875 40.4385 639.825 40.4385C639.231 40.4385 638.832 40.2961 638.628 40.0112C638.531 39.8729 638.482 39.5474 638.482 39.0347L638.445 38.2534C638.388 37.3989 638.36 36.5404 638.36 35.6777C638.36 33.8141 638.197 32.5649 637.872 31.9302C637.554 31.2873 637.017 30.9658 636.26 30.9658C635.756 30.9658 635.288 31.1164 634.856 31.4175C634.433 31.7186 634.108 32.1377 633.88 32.6748C633.408 33.7734 633.172 35.8039 633.172 38.7661C633.172 39.4416 633.042 39.9176 632.781 40.1943C632.529 40.471 632.203 40.6094 631.805 40.6094H631.561C630.649 40.6094 630.193 40.2472 630.193 39.5229V39.23C630.193 39.1405 630.242 38.9451 630.34 38.644L630.535 38.0825C630.73 37.4233 630.828 36.0114 630.828 33.8467L630.889 30.2212C630.889 29.7573 631.141 29.5254 631.646 29.5254C632.151 29.5254 632.647 29.6922 633.135 30.0259C633.632 30.3595 633.945 30.5264 634.075 30.5264C634.214 30.5264 634.454 30.4328 634.795 30.2456C635.943 29.619 636.862 29.3057 637.554 29.3057H637.872C639.117 29.3057 639.992 29.8672 640.496 30.9902C640.74 31.5192 640.862 32.6585 640.862 34.4082V34.4937C640.862 34.6401 640.858 34.7866 640.85 34.9331C640.85 35.3319 640.85 35.5394 640.85 35.5557C640.85 35.7103 640.85 35.8608 640.85 36.0073C640.85 36.1213 640.85 36.2311 640.85 36.3369C640.85 36.9635 640.87 37.3908 640.911 37.6187C640.968 37.9279 641.062 38.2493 641.192 38.583C641.33 38.9492 641.399 39.2666 641.399 39.5352ZM646.368 35.8486C646.368 36.9147 646.612 37.8018 647.1 38.5098C647.588 39.2178 648.187 39.5718 648.895 39.5718H649.261C650.099 39.5718 650.807 39.1486 651.385 38.3022C651.971 37.4559 652.264 36.3288 652.264 34.9209V34.1152C652.264 33.0247 652.024 32.1336 651.543 31.4419C651.071 30.742 650.461 30.3921 649.712 30.3921H649.468C648.597 30.3921 647.865 30.8234 647.271 31.686C646.685 32.5487 646.392 33.5781 646.392 34.7744L646.368 35.0552V35.8486ZM649.126 41.2319H648.736C647.312 41.2319 646.152 40.7355 645.257 39.7427C644.362 38.7498 643.914 37.342 643.914 35.519L643.926 35.3115C643.926 33.3096 644.455 31.7308 645.513 30.5752C646.067 29.9648 646.697 29.5173 647.405 29.2324C648.121 28.9395 648.801 28.793 649.444 28.793H650.042C650.758 28.793 651.446 28.9517 652.105 29.269C653.993 30.1805 654.937 31.8976 654.937 34.4204V34.6157C654.929 35.4377 654.795 36.2718 654.534 37.1182C654.013 38.7865 653.012 39.9665 651.531 40.6582C650.709 41.0407 649.908 41.2319 649.126 41.2319ZM658.245 34.6523V33.7124C658.245 32.5812 658.184 31.7552 658.062 31.2344C657.94 30.7054 657.879 30.3351 657.879 30.1235C657.879 29.6271 658.241 29.3789 658.965 29.3789C659.69 29.3789 660.215 29.5132 660.54 29.7817C660.63 29.855 660.743 29.9974 660.882 30.209C661.028 30.4206 661.159 30.5264 661.272 30.5264C661.297 30.5264 661.651 30.3188 662.334 29.9038C663.018 29.4888 663.604 29.2812 664.092 29.2812H664.275C664.674 29.2812 664.992 29.3789 665.228 29.5742C665.464 29.7614 665.582 29.9933 665.582 30.27V30.4287C665.582 30.7624 665.464 31.0024 665.228 31.1489C665 31.2954 664.633 31.3687 664.129 31.3687C662.981 31.3687 662.143 31.7715 661.614 32.5771C661.093 33.3828 660.833 34.807 660.833 36.8496C660.833 37.1426 660.882 37.5942 660.979 38.2046C661.085 38.8149 661.138 39.2747 661.138 39.584C661.138 39.8932 660.971 40.1903 660.638 40.4751C660.304 40.7599 659.881 40.9023 659.368 40.9023H658.953C658.506 40.9023 658.16 40.7965 657.916 40.585C657.68 40.3652 657.562 40.1007 657.562 39.7915C657.562 39.4741 657.618 39.1527 657.732 38.8271C658.042 37.9482 658.196 36.9798 658.196 35.9219C658.229 35.3359 658.245 34.9128 658.245 34.6523ZM675.323 34.1885C674.826 33.6839 674.578 32.9759 674.578 32.0645C674.578 31.153 674.985 30.3717 675.799 29.7207C676.613 29.0615 677.622 28.7319 678.826 28.7319H679.144C680.21 28.7319 681.056 28.8825 681.683 29.1836C682.317 29.4847 682.635 29.9364 682.635 30.5386C682.635 31.1326 682.37 31.4297 681.841 31.4297C681.703 31.4297 681.312 31.2669 680.669 30.9414C680.027 30.6077 679.42 30.4409 678.851 30.4409C678.281 30.4409 677.821 30.5711 677.471 30.8315C677.129 31.0838 676.958 31.4338 676.958 31.8813C676.958 32.3289 677.199 32.7196 677.679 33.0532C677.955 33.2485 678.606 33.5578 679.632 33.981C680.665 34.4041 681.402 34.811 681.841 35.2017C682.549 35.8283 682.903 36.6299 682.903 37.6064C682.903 38.583 682.488 39.4212 681.658 40.1211C680.828 40.8128 679.75 41.1587 678.423 41.1587H678.106C676.771 41.1587 675.77 40.9674 675.103 40.585C674.436 40.1943 674.102 39.6898 674.102 39.0713C674.102 38.4447 674.362 38.1313 674.883 38.1313C675.054 38.1313 675.498 38.3511 676.214 38.7905C676.938 39.23 677.646 39.4497 678.338 39.4497C679.038 39.4497 679.563 39.3032 679.913 39.0103C680.263 38.7091 680.438 38.3348 680.438 37.8872C680.438 37.4315 680.218 37.0327 679.778 36.6909C679.542 36.5037 678.867 36.166 677.752 35.6777C676.637 35.1813 675.827 34.6849 675.323 34.1885ZM686.199 24.0322C686.199 23.4382 686.757 23.1411 687.872 23.1411H688.091C688.555 23.1411 688.873 23.255 689.043 23.4829C689.214 23.7026 689.3 24.134 689.3 24.7769L689.202 26.5957C689.178 26.8805 689.166 27.0352 689.166 27.0596L689.141 27.5234C689.125 27.8245 689.109 28.1297 689.092 28.439L689.056 28.9028L689.019 29.5986C688.889 32.0726 688.824 33.8996 688.824 35.0796C688.824 36.2515 688.877 37.0938 688.982 37.6064C689.088 38.1191 689.255 38.5545 689.483 38.9126C689.711 39.2707 689.825 39.5067 689.825 39.6206V39.7671C689.825 40.1252 689.646 40.41 689.288 40.6216C688.938 40.8332 688.462 40.939 687.859 40.939H687.225C686.85 40.939 686.521 40.8332 686.236 40.6216C685.959 40.4019 685.821 40.1536 685.821 39.877V39.5474L685.894 39.0347C685.992 38.3267 686.049 37.7977 686.065 37.4478C686.089 37.0897 686.126 36.5973 686.175 35.9707C686.224 35.3359 686.301 33.9891 686.407 31.9302C686.521 29.8631 686.578 28.7523 686.578 28.5977L686.626 27.6821L686.651 26.7788C686.651 25.9162 686.574 25.3018 686.419 24.9355C686.272 24.5612 686.199 24.2601 686.199 24.0322ZM696.673 25.1309V25.2773C696.673 25.6924 696.551 26.0464 696.307 26.3394C696.071 26.6242 695.704 26.7666 695.208 26.7666H695.013L694.634 26.7178C694.415 26.7178 694.203 26.616 694 26.4126C693.796 26.2091 693.694 25.904 693.694 25.4971V25.3506L693.755 24.9111C693.755 24.7402 693.857 24.5286 694.061 24.2764C694.272 24.0241 694.541 23.8979 694.866 23.8979L695.147 23.8613H695.391L695.733 23.9102C695.944 23.9102 696.152 24.016 696.355 24.2275C696.567 24.431 696.673 24.7321 696.673 25.1309ZM696.099 30.2822L695.965 33.5659L695.94 33.8955L695.904 34.8965V35.3726C695.904 36.5444 695.936 37.3135 696.001 37.6797C696.075 38.0459 696.209 38.404 696.404 38.7539C696.6 39.0957 696.697 39.3439 696.697 39.4985V39.6084C696.697 40.0072 696.494 40.3245 696.087 40.5605C695.68 40.7965 695.127 40.9146 694.427 40.9146H694.122C693.715 40.9146 693.405 40.825 693.194 40.646C692.982 40.4588 692.876 40.2594 692.876 40.0479V39.7793C692.876 39.6735 692.97 39.2992 693.157 38.6562C693.344 38.0052 693.438 37.1222 693.438 36.0073C693.462 35.6899 693.475 35.4702 693.475 35.3481L693.511 34.6768L693.536 34.3472C693.576 33.7775 693.597 33.334 693.597 33.0166L693.609 32.5283C693.609 31.918 693.507 31.3768 693.304 30.9048C693.108 30.4328 693.011 30.1398 693.011 30.0259C693.011 29.4399 693.564 29.147 694.671 29.147H695.11C695.525 29.147 695.794 29.2568 695.916 29.4766C696.038 29.6882 696.099 29.9567 696.099 30.2822ZM708.282 33.9565C708.282 32.8742 708.054 32.0278 707.598 31.4175C707.151 30.799 706.613 30.4897 705.987 30.4897H705.633C704.754 30.4897 704.058 30.8397 703.545 31.5396C703.033 32.2313 702.776 33.2526 702.776 34.6035L702.752 34.8477L702.703 36.1172V36.9717C702.703 37.8587 702.882 38.4854 703.24 38.8516C703.606 39.2096 704.123 39.3887 704.791 39.3887H705.022C705.942 39.3887 706.711 38.9655 707.33 38.1191C707.948 37.2728 708.257 36.2433 708.257 35.0308L708.282 34.7622V33.9565ZM701.641 29.3667L703.35 29.6597C703.529 29.6597 703.948 29.5417 704.607 29.3057C705.267 29.0697 705.914 28.9517 706.548 28.9517C707.834 28.9517 708.876 29.4033 709.673 30.3066C710.471 31.2018 710.87 32.4103 710.87 33.9321V34.2373C710.87 35.2627 710.699 36.2067 710.357 37.0693C709.657 38.8516 708.489 40.0031 706.854 40.5239C706.39 40.6704 705.767 40.7721 704.986 40.8291C704.213 40.8861 703.663 40.9878 703.338 41.1343C702.841 41.3621 702.593 41.7731 702.593 42.3672C702.593 42.6195 702.638 42.9613 702.728 43.3926C702.825 43.8239 702.874 44.2227 702.874 44.5889C702.874 44.9551 702.667 45.3132 702.251 45.6631C701.836 46.0212 701.32 46.2002 700.701 46.2002H700.445C699.712 46.2002 699.346 45.9316 699.346 45.3945V45.1626C699.346 45.0487 699.424 44.7272 699.578 44.1982C699.741 43.6774 699.855 43.1159 699.92 42.5137C699.985 41.9196 700.091 40.4344 700.237 38.0581C700.384 35.6818 700.457 34.0583 700.457 33.1875C700.457 32.3086 700.4 31.5721 700.286 30.978C700.18 30.384 700.127 30.0625 700.127 30.0137C700.127 29.5824 700.632 29.3667 701.641 29.3667ZM720.66 33.5659V34.0054C720.66 34.575 720.513 34.8924 720.22 34.9575C719.935 35.0226 718.8 35.0552 716.814 35.0552H716.546L716.265 35.0674H715.728L715.643 35.0796H714.922L714.556 35.0918H714.019C713.571 35.0918 713.348 34.8802 713.348 34.457V34.3716L713.36 34.2861C713.36 33.6595 713.531 33.3055 713.873 33.2241C714.084 33.1753 715.162 33.1509 717.107 33.1509L719.195 33.1143H720.086C720.468 33.1143 720.66 33.2648 720.66 33.5659ZM251.421 60.0259C251.421 59.5132 251.853 59.2568 252.715 59.2568H252.996C253.533 59.2568 253.895 59.4725 254.083 59.9038C254.27 60.3351 254.363 61.1408 254.363 62.3208L254.217 66.3979C254.217 68.2941 254.896 69.2422 256.255 69.2422C256.752 69.2422 257.228 69.0672 257.684 68.7173C258.139 68.3674 258.477 67.9482 258.697 67.46C259.177 66.3857 259.417 64.4611 259.417 61.686L259.393 61.1489V60.6729C259.393 60.2415 259.49 59.9282 259.686 59.7329C259.881 59.5376 260.223 59.4399 260.711 59.4399C261.199 59.4399 261.521 59.5579 261.675 59.7939C261.83 60.0299 261.907 60.4124 261.907 60.9414L261.883 61.5884L261.834 64.4692C261.834 64.9331 261.862 65.6452 261.919 66.6055C261.976 67.5658 262.037 68.2697 262.103 68.7173C262.168 69.1567 262.2 69.4172 262.2 69.4985C262.2 70.2228 261.667 70.585 260.601 70.585C260.235 70.585 259.869 70.4507 259.502 70.1821C259.144 69.9054 258.888 69.7671 258.733 69.7671C258.587 69.7671 258.335 69.8566 257.977 70.0356C256.959 70.5483 256.093 70.8047 255.376 70.8047H255.071C253.908 70.8047 253.053 70.4466 252.508 69.7305C251.963 69.0143 251.69 67.7244 251.69 65.8608L251.812 62.1621C251.812 61.6982 251.747 61.2547 251.617 60.8315C251.486 60.4084 251.421 60.1398 251.421 60.0259ZM273.809 63.9565C273.809 62.8742 273.581 62.0278 273.125 61.4175C272.678 60.799 272.141 60.4897 271.514 60.4897H271.16C270.281 60.4897 269.585 60.8397 269.073 61.5396C268.56 62.2313 268.304 63.2526 268.304 64.6035L268.279 64.8477L268.23 66.1172V66.9717C268.23 67.8587 268.41 68.4854 268.768 68.8516C269.134 69.2096 269.651 69.3887 270.318 69.3887H270.55C271.469 69.3887 272.238 68.9655 272.857 68.1191C273.475 67.2728 273.785 66.2433 273.785 65.0308L273.809 64.7622V63.9565ZM267.168 59.3667L268.877 59.6597C269.056 59.6597 269.476 59.5417 270.135 59.3057C270.794 59.0697 271.441 58.9517 272.076 58.9517C273.361 58.9517 274.403 59.4033 275.201 60.3066C275.998 61.2018 276.397 62.4103 276.397 63.9321V64.2373C276.397 65.2627 276.226 66.2067 275.884 67.0693C275.184 68.8516 274.017 70.0031 272.381 70.5239C271.917 70.6704 271.294 70.7721 270.513 70.8291C269.74 70.8861 269.191 70.9878 268.865 71.1343C268.369 71.3621 268.121 71.7731 268.121 72.3672C268.121 72.6195 268.165 72.9613 268.255 73.3926C268.353 73.8239 268.401 74.2227 268.401 74.5889C268.401 74.9551 268.194 75.3132 267.779 75.6631C267.364 76.0212 266.847 76.2002 266.229 76.2002H265.972C265.24 76.2002 264.874 75.9316 264.874 75.3945V75.1626C264.874 75.0487 264.951 74.7272 265.105 74.1982C265.268 73.6774 265.382 73.1159 265.447 72.5137C265.512 71.9196 265.618 70.4344 265.765 68.0581C265.911 65.6818 265.984 64.0583 265.984 63.1875C265.984 62.3086 265.927 61.5721 265.813 60.978C265.708 60.384 265.655 60.0625 265.655 60.0137C265.655 59.5824 266.159 59.3667 267.168 59.3667ZM279.839 64.1885C279.343 63.6839 279.095 62.9759 279.095 62.0645C279.095 61.153 279.502 60.3717 280.315 59.7207C281.129 59.0615 282.138 58.7319 283.343 58.7319H283.66C284.726 58.7319 285.573 58.8825 286.199 59.1836C286.834 59.4847 287.151 59.9364 287.151 60.5386C287.151 61.1326 286.887 61.4297 286.358 61.4297C286.22 61.4297 285.829 61.2669 285.186 60.9414C284.543 60.6077 283.937 60.4409 283.367 60.4409C282.798 60.4409 282.338 60.5711 281.988 60.8315C281.646 61.0838 281.475 61.4338 281.475 61.8813C281.475 62.3289 281.715 62.7196 282.195 63.0532C282.472 63.2485 283.123 63.5578 284.148 63.981C285.182 64.4041 285.918 64.811 286.358 65.2017C287.066 65.8283 287.42 66.6299 287.42 67.6064C287.42 68.583 287.005 69.4212 286.175 70.1211C285.345 70.8128 284.266 71.1587 282.94 71.1587H282.623C281.288 71.1587 280.287 70.9674 279.62 70.585C278.952 70.1943 278.619 69.6898 278.619 69.0713C278.619 68.4447 278.879 68.1313 279.4 68.1313C279.571 68.1313 280.014 68.3511 280.73 68.7905C281.455 69.23 282.163 69.4497 282.854 69.4497C283.554 69.4497 284.079 69.3032 284.429 69.0103C284.779 68.7091 284.954 68.3348 284.954 67.8872C284.954 67.4315 284.734 67.0327 284.295 66.6909C284.059 66.5037 283.383 66.166 282.269 65.6777C281.154 65.1813 280.344 64.6849 279.839 64.1885ZM290.24 69.3643C290.24 68.9574 290.366 68.64 290.618 68.4121C290.87 68.1842 291.2 68.0703 291.607 68.0703H292.059C292.474 68.0703 292.779 68.168 292.974 68.3633C293.169 68.5586 293.267 68.937 293.267 69.4985V69.6816C293.267 70.7233 292.986 71.6999 292.425 72.6113C291.701 73.7913 291.049 74.3813 290.472 74.3813H290.386C290.044 74.3813 289.874 74.2349 289.874 73.9419C289.874 73.8361 290.049 73.5187 290.398 72.9897C290.748 72.4689 290.923 72.0783 290.923 71.8179C290.923 71.5656 290.813 71.2197 290.594 70.7803C290.374 70.3408 290.264 70.0112 290.264 69.7915L290.24 69.6206V69.3643ZM308.184 69.4497H308.55C309.437 69.4497 310.182 69.0103 310.784 68.1313C311.395 67.2443 311.7 66.0399 311.7 64.5181V64.1274L311.688 63.9932L311.675 63.7368C311.667 63.6473 311.663 63.5618 311.663 63.4805C311.663 62.6911 311.443 61.9993 311.004 61.4053C310.564 60.8031 310.027 60.502 309.393 60.502H309.039C308.64 60.502 308.2 60.6403 307.72 60.917C307.248 61.1937 306.915 61.5192 306.719 61.8936C306.288 62.7074 306.072 63.9932 306.072 65.751V66.874C306.097 67.1182 306.109 67.3216 306.109 67.4844C306.109 68.0703 306.288 68.5464 306.646 68.9126C307.012 69.2707 307.525 69.4497 308.184 69.4497ZM306.585 58.7197C306.585 59.029 306.634 59.2609 306.731 59.4155C306.837 59.5701 307.11 59.6475 307.549 59.6475C307.557 59.6475 307.822 59.5864 308.343 59.4644C308.872 59.3423 309.417 59.2812 309.979 59.2812C311.191 59.2812 312.204 59.7614 313.018 60.7217C313.832 61.682 314.239 62.8538 314.239 64.2373V65.1162C314.239 65.7998 314.104 66.5241 313.836 67.2891C313.559 68.054 313.169 68.7173 312.664 69.2788C311.631 70.4181 310.357 70.9878 308.843 70.9878H308.575C308.152 70.9878 307.606 70.9064 306.939 70.7437C306.272 70.5809 305.836 70.4995 305.633 70.4995L304.815 70.5728C303.977 70.5728 303.558 70.1536 303.558 69.3154V68.8149C303.558 68.3185 303.655 66.5078 303.851 63.3828C304.054 60.2578 304.156 58.264 304.156 57.4014C304.156 56.5387 304.087 55.8226 303.948 55.2529C303.81 54.6833 303.741 54.374 303.741 54.3252C303.741 53.6416 304.127 53.2998 304.9 53.2998H305.145C305.804 53.2998 306.223 53.4585 306.402 53.7759C306.581 54.0851 306.67 54.6629 306.67 55.5093L306.609 57.4502L306.585 57.9995V58.7197ZM316.851 60.0259C316.851 59.5132 317.282 59.2568 318.145 59.2568H318.426C318.963 59.2568 319.325 59.4725 319.512 59.9038C319.699 60.3351 319.793 61.1408 319.793 62.3208L319.646 66.3979C319.646 68.2941 320.326 69.2422 321.685 69.2422C322.181 69.2422 322.658 69.0672 323.113 68.7173C323.569 68.3674 323.907 67.9482 324.126 67.46C324.607 66.3857 324.847 64.4611 324.847 61.686L324.822 61.1489V60.6729C324.822 60.2415 324.92 59.9282 325.115 59.7329C325.311 59.5376 325.652 59.4399 326.141 59.4399C326.629 59.4399 326.95 59.5579 327.105 59.7939C327.26 60.0299 327.337 60.4124 327.337 60.9414L327.312 61.5884L327.264 64.4692C327.264 64.9331 327.292 65.6452 327.349 66.6055C327.406 67.5658 327.467 68.2697 327.532 68.7173C327.597 69.1567 327.63 69.4172 327.63 69.4985C327.63 70.2228 327.097 70.585 326.031 70.585C325.665 70.585 325.298 70.4507 324.932 70.1821C324.574 69.9054 324.318 69.7671 324.163 69.7671C324.017 69.7671 323.764 69.8566 323.406 70.0356C322.389 70.5483 321.522 70.8047 320.806 70.8047H320.501C319.337 70.8047 318.483 70.4466 317.938 69.7305C317.392 69.0143 317.12 67.7244 317.12 65.8608L317.242 62.1621C317.242 61.6982 317.177 61.2547 317.046 60.8315C316.916 60.4084 316.851 60.1398 316.851 60.0259ZM337.042 69.6938C337.042 70.0194 336.842 70.3123 336.443 70.5728C336.053 70.825 335.52 70.9512 334.844 70.9512C333.583 70.9512 332.696 70.4832 332.183 69.5474C331.866 68.9614 331.707 67.5902 331.707 65.4336C331.707 63.277 331.67 62.0238 331.597 61.6738C331.524 61.3239 331.32 60.9821 330.987 60.6484C330.653 60.3148 330.486 60.0584 330.486 59.8794C330.486 59.8143 330.881 59.387 331.67 58.5977C331.841 58.4268 332.012 58.0483 332.183 57.4624C332.362 56.8765 332.488 56.4899 332.562 56.3027C332.806 55.7168 333.127 55.4238 333.526 55.4238H333.721C334.071 55.4238 334.319 55.5581 334.466 55.8267C334.523 55.9325 334.608 56.3149 334.722 56.9741C334.844 57.6252 334.983 58.0443 335.137 58.2314C335.292 58.4186 335.678 58.6261 336.297 58.854C336.924 59.0737 337.237 59.3097 337.237 59.562V59.6963C337.237 60.0218 336.879 60.2985 336.163 60.5264C335.455 60.7461 334.999 61.1001 334.795 61.5884C334.397 62.5731 334.197 64.1763 334.197 66.3979C334.197 67.4396 334.376 68.1476 334.734 68.522C334.954 68.7498 335.394 68.9085 336.053 68.998C336.712 69.0876 337.042 69.3195 337.042 69.6938ZM347.613 64.1885C347.116 63.6839 346.868 62.9759 346.868 62.0645C346.868 61.153 347.275 60.3717 348.089 59.7207C348.903 59.0615 349.912 58.7319 351.116 58.7319H351.434C352.5 58.7319 353.346 58.8825 353.973 59.1836C354.607 59.4847 354.925 59.9364 354.925 60.5386C354.925 61.1326 354.66 61.4297 354.131 61.4297C353.993 61.4297 353.602 61.2669 352.959 60.9414C352.317 60.6077 351.71 60.4409 351.141 60.4409C350.571 60.4409 350.111 60.5711 349.761 60.8315C349.419 61.0838 349.249 61.4338 349.249 61.8813C349.249 62.3289 349.489 62.7196 349.969 63.0532C350.245 63.2485 350.896 63.5578 351.922 63.981C352.955 64.4041 353.692 64.811 354.131 65.2017C354.839 65.8283 355.193 66.6299 355.193 67.6064C355.193 68.583 354.778 69.4212 353.948 70.1211C353.118 70.8128 352.04 71.1587 350.713 71.1587H350.396C349.061 71.1587 348.06 70.9674 347.393 70.585C346.726 70.1943 346.392 69.6898 346.392 69.0713C346.392 68.4447 346.653 68.1313 347.173 68.1313C347.344 68.1313 347.788 68.3511 348.504 68.7905C349.228 69.23 349.936 69.4497 350.628 69.4497C351.328 69.4497 351.853 69.3032 352.203 69.0103C352.553 68.7091 352.728 68.3348 352.728 67.8872C352.728 67.4315 352.508 67.0327 352.068 66.6909C351.832 66.5037 351.157 66.166 350.042 65.6777C348.927 65.1813 348.117 64.6849 347.613 64.1885ZM360.04 63.5781V63.7734C360.04 64.0176 360.263 64.1396 360.711 64.1396H361.004L361.077 64.1274L361.675 64.0786C362.302 63.9891 362.709 63.9443 362.896 63.9443C363.783 63.9443 364.45 63.7775 364.898 63.4438C365.11 63.2811 365.215 62.9922 365.215 62.5771V62.4429C365.215 61.8325 365.012 61.3483 364.605 60.9902C364.206 60.6322 363.726 60.4531 363.165 60.4531H363.079L363.006 60.4653C362.216 60.4653 361.525 60.799 360.931 61.4663C360.337 62.1336 360.04 62.8376 360.04 63.5781ZM362.701 71.1587H362.432C360.878 71.1587 359.641 70.6663 358.721 69.6816C357.802 68.6888 357.342 67.3664 357.342 65.7144V65.1772C357.342 64.3879 357.496 63.5863 357.806 62.7725C358.432 61.1449 359.454 60.0218 360.87 59.4033C361.618 59.0697 362.379 58.9028 363.152 58.9028H363.677C364.743 58.9028 365.643 59.2609 366.375 59.9771C367.116 60.6851 367.486 61.6006 367.486 62.7236V62.9678C367.486 63.7653 367.168 64.3309 366.534 64.6646C366.094 64.9006 365.069 65.1366 363.458 65.3726C361.846 65.6086 360.967 65.751 360.821 65.7998C360.333 65.9707 360.088 66.2962 360.088 66.7764C360.088 67.4437 360.373 68.0133 360.943 68.4854C361.513 68.9574 362.278 69.1934 363.238 69.1934C363.685 69.1934 364.296 69.0713 365.069 68.8271C365.842 68.583 366.29 68.4609 366.412 68.4609C366.827 68.4609 367.034 68.64 367.034 68.998C367.034 69.4782 366.566 69.9583 365.63 70.4385C364.694 70.9186 363.718 71.1587 362.701 71.1587ZM370.818 54.0322C370.818 53.4382 371.376 53.1411 372.491 53.1411H372.71C373.174 53.1411 373.492 53.255 373.663 53.4829C373.833 53.7026 373.919 54.134 373.919 54.7769L373.821 56.5957C373.797 56.8805 373.785 57.0352 373.785 57.0596L373.76 57.5234C373.744 57.8245 373.728 58.1297 373.711 58.439L373.675 58.9028L373.638 59.5986C373.508 62.0726 373.443 63.8996 373.443 65.0796C373.443 66.2515 373.496 67.0938 373.602 67.6064C373.707 68.1191 373.874 68.5545 374.102 68.9126C374.33 69.2707 374.444 69.5067 374.444 69.6206V69.7671C374.444 70.1252 374.265 70.41 373.907 70.6216C373.557 70.8332 373.081 70.939 372.479 70.939H371.844C371.469 70.939 371.14 70.8332 370.855 70.6216C370.578 70.4019 370.44 70.1536 370.44 69.877V69.5474L370.513 69.0347C370.611 68.3267 370.668 67.7977 370.684 67.4478C370.708 67.0897 370.745 66.5973 370.794 65.9707C370.843 65.3359 370.92 63.9891 371.026 61.9302C371.14 59.8631 371.197 58.7523 371.197 58.5977L371.246 57.6821L371.27 56.7788C371.27 55.9162 371.193 55.3018 371.038 54.9355C370.892 54.5612 370.818 54.2601 370.818 54.0322ZM379.241 71.8911H378.96C378.554 71.8911 378.208 71.7731 377.923 71.5371C377.646 71.3011 377.508 71.0203 377.508 70.6948C377.508 70.3693 377.605 69.9543 377.801 69.4497C378.004 68.937 378.151 68.3145 378.24 67.582C378.338 66.8415 378.387 65.7591 378.387 64.335C378.387 62.9108 378.318 62.0034 378.179 61.6128C378.155 61.5477 378.041 61.332 377.837 60.9658C377.634 60.5915 377.532 60.2741 377.532 60.0137C377.532 59.7533 377.667 59.4196 377.935 59.0127C378.212 58.6058 378.395 58.3047 378.484 58.1094C379.583 55.79 380.157 54.6019 380.206 54.5449C381.052 53.5602 382.195 53.0679 383.636 53.0679C384.303 53.0679 384.816 53.1818 385.174 53.4097C385.532 53.6375 385.711 53.9346 385.711 54.3008C385.711 54.6589 385.499 54.9193 385.076 55.082C384.962 55.1227 384.812 55.1431 384.625 55.1431C384.486 55.1349 384.327 55.1227 384.148 55.1064C383.725 55.0576 383.416 55.0332 383.221 55.0332C382.692 55.0332 382.26 55.2611 381.927 55.7168C381.601 56.1644 381.438 56.6812 381.438 57.2671C381.438 57.853 381.556 58.2803 381.792 58.5488C381.866 58.6302 382.212 58.8337 382.83 59.1592C383.457 59.4766 383.77 59.798 383.77 60.1235C383.77 60.3026 383.42 60.5793 382.72 60.9536C382.224 61.214 381.858 61.6779 381.622 62.3452C381.109 63.7775 380.853 65.6615 380.853 67.9971L381.084 70.0601C381.084 70.6216 380.918 71.0651 380.584 71.3906C380.258 71.7243 379.811 71.8911 379.241 71.8911ZM393.389 63.5659V64.0054C393.389 64.575 393.243 64.8924 392.95 64.9575C392.665 65.0226 391.53 65.0552 389.544 65.0552H389.275L388.995 65.0674H388.458L388.372 65.0796H387.652L387.286 65.0918H386.749C386.301 65.0918 386.077 64.8802 386.077 64.457V64.3716L386.089 64.2861C386.089 63.6595 386.26 63.3055 386.602 63.2241C386.814 63.1753 387.892 63.1509 389.837 63.1509L391.924 63.1143H392.815C393.198 63.1143 393.389 63.2648 393.389 63.5659ZM395.757 65.9219V65.3604C395.757 64.335 395.916 63.4276 396.233 62.6382C396.844 61.1082 397.78 60.0503 399.041 59.4644C399.863 59.0737 400.713 58.8784 401.592 58.8784H401.861C402.829 58.8784 403.631 59.0697 404.266 59.4521C404.9 59.8346 405.218 60.3026 405.218 60.856C405.218 61.4989 404.909 61.8203 404.29 61.8203C404.176 61.8203 403.777 61.6413 403.094 61.2832C402.41 60.9333 401.849 60.7583 401.409 60.7583C401.401 60.7583 401.393 60.7583 401.385 60.7583C400.424 60.7583 399.672 61.1733 399.126 62.0034C398.589 62.8335 398.321 63.9159 398.321 65.2505C398.321 66.5851 398.606 67.5739 399.175 68.2168C399.753 68.8597 400.555 69.1812 401.58 69.1812C402.003 69.1812 402.585 69.0632 403.326 68.8271C404.066 68.583 404.518 68.4609 404.681 68.4609C405.014 68.4609 405.181 68.6359 405.181 68.9858C405.181 69.4578 404.713 69.9339 403.777 70.4141C402.841 70.8942 401.922 71.1343 401.019 71.1343C398.602 71.1343 397.002 70.1821 396.221 68.2778C395.912 67.521 395.757 66.7357 395.757 65.9219ZM409.869 65.8486C409.869 66.9147 410.113 67.8018 410.601 68.5098C411.089 69.2178 411.688 69.5718 412.396 69.5718H412.762C413.6 69.5718 414.308 69.1486 414.886 68.3022C415.472 67.4559 415.765 66.3288 415.765 64.9209V64.1152C415.765 63.0247 415.525 62.1336 415.044 61.4419C414.572 60.742 413.962 60.3921 413.213 60.3921H412.969C412.098 60.3921 411.366 60.8234 410.772 61.686C410.186 62.5487 409.893 63.5781 409.893 64.7744L409.869 65.0552V65.8486ZM412.627 71.2319H412.237C410.813 71.2319 409.653 70.7355 408.758 69.7427C407.863 68.7498 407.415 67.342 407.415 65.519L407.427 65.3115C407.427 63.3096 407.956 61.7308 409.014 60.5752C409.568 59.9648 410.198 59.5173 410.906 59.2324C411.622 58.9395 412.302 58.793 412.945 58.793H413.543C414.259 58.793 414.947 58.9517 415.606 59.269C417.494 60.1805 418.438 61.8976 418.438 64.4204V64.6157C418.43 65.4377 418.296 66.2718 418.035 67.1182C417.514 68.7865 416.513 69.9665 415.032 70.6582C414.21 71.0407 413.409 71.2319 412.627 71.2319ZM421.746 64.6523V63.7124C421.746 62.5812 421.685 61.7552 421.563 61.2344C421.441 60.7054 421.38 60.3351 421.38 60.1235C421.38 59.6271 421.742 59.3789 422.466 59.3789C423.191 59.3789 423.715 59.5132 424.041 59.7817C424.131 59.855 424.244 59.9974 424.383 60.209C424.529 60.4206 424.66 60.5264 424.773 60.5264C424.798 60.5264 425.152 60.3188 425.835 59.9038C426.519 59.4888 427.105 59.2812 427.593 59.2812H427.776C428.175 59.2812 428.493 59.3789 428.729 59.5742C428.965 59.7614 429.083 59.9933 429.083 60.27V60.4287C429.083 60.7624 428.965 61.0024 428.729 61.1489C428.501 61.2954 428.134 61.3687 427.63 61.3687C426.482 61.3687 425.644 61.7715 425.115 62.5771C424.594 63.3828 424.334 64.807 424.334 66.8496C424.334 67.1426 424.383 67.5942 424.48 68.2046C424.586 68.8149 424.639 69.2747 424.639 69.584C424.639 69.8932 424.472 70.1903 424.139 70.4751C423.805 70.7599 423.382 70.9023 422.869 70.9023H422.454C422.007 70.9023 421.661 70.7965 421.417 70.585C421.181 70.3652 421.062 70.1007 421.062 69.7915C421.062 69.4741 421.119 69.1527 421.233 68.8271C421.543 67.9482 421.697 66.9798 421.697 65.9219C421.73 65.3359 421.746 64.9128 421.746 64.6523ZM431.829 64.6523V63.7124C431.829 62.5812 431.768 61.7552 431.646 61.2344C431.524 60.7054 431.463 60.3351 431.463 60.1235C431.463 59.6271 431.825 59.3789 432.549 59.3789C433.274 59.3789 433.799 59.5132 434.124 59.7817C434.214 59.855 434.327 59.9974 434.466 60.209C434.612 60.4206 434.743 60.5264 434.856 60.5264C434.881 60.5264 435.235 60.3188 435.918 59.9038C436.602 59.4888 437.188 59.2812 437.676 59.2812H437.859C438.258 59.2812 438.576 59.3789 438.812 59.5742C439.048 59.7614 439.166 59.9933 439.166 60.27V60.4287C439.166 60.7624 439.048 61.0024 438.812 61.1489C438.584 61.2954 438.217 61.3687 437.713 61.3687C436.565 61.3687 435.727 61.7715 435.198 62.5771C434.677 63.3828 434.417 64.807 434.417 66.8496C434.417 67.1426 434.466 67.5942 434.563 68.2046C434.669 68.8149 434.722 69.2747 434.722 69.584C434.722 69.8932 434.555 70.1903 434.222 70.4751C433.888 70.7599 433.465 70.9023 432.952 70.9023H432.537C432.09 70.9023 431.744 70.7965 431.5 70.585C431.264 70.3652 431.146 70.1007 431.146 69.7915C431.146 69.4741 431.202 69.1527 431.316 68.8271C431.626 67.9482 431.78 66.9798 431.78 65.9219C431.813 65.3359 431.829 64.9128 431.829 64.6523ZM443.218 63.5781V63.7734C443.218 64.0176 443.442 64.1396 443.89 64.1396H444.183L444.256 64.1274L444.854 64.0786C445.481 63.9891 445.888 63.9443 446.075 63.9443C446.962 63.9443 447.629 63.7775 448.077 63.4438C448.288 63.2811 448.394 62.9922 448.394 62.5771V62.4429C448.394 61.8325 448.191 61.3483 447.784 60.9902C447.385 60.6322 446.905 60.4531 446.343 60.4531H446.258L446.185 60.4653C445.395 60.4653 444.703 60.799 444.109 61.4663C443.515 62.1336 443.218 62.8376 443.218 63.5781ZM445.879 71.1587H445.611C444.056 71.1587 442.819 70.6663 441.9 69.6816C440.98 68.6888 440.521 67.3664 440.521 65.7144V65.1772C440.521 64.3879 440.675 63.5863 440.984 62.7725C441.611 61.1449 442.632 60.0218 444.048 59.4033C444.797 59.0697 445.558 58.9028 446.331 58.9028H446.856C447.922 58.9028 448.821 59.2609 449.554 59.9771C450.294 60.6851 450.665 61.6006 450.665 62.7236V62.9678C450.665 63.7653 450.347 64.3309 449.712 64.6646C449.273 64.9006 448.248 65.1366 446.636 65.3726C445.025 65.6086 444.146 65.751 444 65.7998C443.511 65.9707 443.267 66.2962 443.267 66.7764C443.267 67.4437 443.552 68.0133 444.122 68.4854C444.691 68.9574 445.456 69.1934 446.417 69.1934C446.864 69.1934 447.474 69.0713 448.248 68.8271C449.021 68.583 449.468 68.4609 449.59 68.4609C450.005 68.4609 450.213 68.64 450.213 68.998C450.213 69.4782 449.745 69.9583 448.809 70.4385C447.873 70.9186 446.897 71.1587 445.879 71.1587ZM452.935 65.9219V65.3604C452.935 64.335 453.094 63.4276 453.411 62.6382C454.021 61.1082 454.957 60.0503 456.219 59.4644C457.041 59.0737 457.891 58.8784 458.77 58.8784H459.039C460.007 58.8784 460.809 59.0697 461.443 59.4521C462.078 59.8346 462.396 60.3026 462.396 60.856C462.396 61.4989 462.086 61.8203 461.468 61.8203C461.354 61.8203 460.955 61.6413 460.271 61.2832C459.588 60.9333 459.026 60.7583 458.587 60.7583C458.579 60.7583 458.571 60.7583 458.562 60.7583C457.602 60.7583 456.849 61.1733 456.304 62.0034C455.767 62.8335 455.499 63.9159 455.499 65.2505C455.499 66.5851 455.783 67.5739 456.353 68.2168C456.931 68.8597 457.732 69.1812 458.758 69.1812C459.181 69.1812 459.763 69.0632 460.503 68.8271C461.244 68.583 461.696 68.4609 461.858 68.4609C462.192 68.4609 462.359 68.6359 462.359 68.9858C462.359 69.4578 461.891 69.9339 460.955 70.4141C460.019 70.8942 459.1 71.1343 458.196 71.1343C455.779 71.1343 454.18 70.1821 453.399 68.2778C453.09 67.521 452.935 66.7357 452.935 65.9219ZM471.343 69.6938C471.343 70.0194 471.144 70.3123 470.745 70.5728C470.354 70.825 469.821 70.9512 469.146 70.9512C467.885 70.9512 466.998 70.4832 466.485 69.5474C466.167 68.9614 466.009 67.5902 466.009 65.4336C466.009 63.277 465.972 62.0238 465.899 61.6738C465.826 61.3239 465.622 60.9821 465.289 60.6484C464.955 60.3148 464.788 60.0584 464.788 59.8794C464.788 59.8143 465.183 59.387 465.972 58.5977C466.143 58.4268 466.314 58.0483 466.485 57.4624C466.664 56.8765 466.79 56.4899 466.863 56.3027C467.107 55.7168 467.429 55.4238 467.828 55.4238H468.023C468.373 55.4238 468.621 55.5581 468.768 55.8267C468.825 55.9325 468.91 56.3149 469.024 56.9741C469.146 57.6252 469.284 58.0443 469.439 58.2314C469.594 58.4186 469.98 58.6261 470.599 58.854C471.225 59.0737 471.539 59.3097 471.539 59.562V59.6963C471.539 60.0218 471.181 60.2985 470.464 60.5264C469.756 60.7461 469.301 61.1001 469.097 61.5884C468.698 62.5731 468.499 64.1763 468.499 66.3979C468.499 67.4396 468.678 68.1476 469.036 68.522C469.256 68.7498 469.695 68.9085 470.354 68.998C471.014 69.0876 471.343 69.3195 471.343 69.6938ZM475.054 64.1885C474.558 63.6839 474.31 62.9759 474.31 62.0645C474.31 61.153 474.716 60.3717 475.53 59.7207C476.344 59.0615 477.353 58.7319 478.558 58.7319H478.875C479.941 58.7319 480.787 58.8825 481.414 59.1836C482.049 59.4847 482.366 59.9364 482.366 60.5386C482.366 61.1326 482.102 61.4297 481.573 61.4297C481.434 61.4297 481.044 61.2669 480.401 60.9414C479.758 60.6077 479.152 60.4409 478.582 60.4409C478.012 60.4409 477.553 60.5711 477.203 60.8315C476.861 61.0838 476.69 61.4338 476.69 61.8813C476.69 62.3289 476.93 62.7196 477.41 63.0532C477.687 63.2485 478.338 63.5578 479.363 63.981C480.397 64.4041 481.133 64.811 481.573 65.2017C482.281 65.8283 482.635 66.6299 482.635 67.6064C482.635 68.583 482.22 69.4212 481.39 70.1211C480.56 70.8128 479.481 71.1587 478.155 71.1587H477.837C476.503 71.1587 475.502 70.9674 474.834 70.585C474.167 70.1943 473.833 69.6898 473.833 69.0713C473.833 68.4447 474.094 68.1313 474.615 68.1313C474.786 68.1313 475.229 68.3511 475.945 68.7905C476.67 69.23 477.378 69.4497 478.069 69.4497C478.769 69.4497 479.294 69.3032 479.644 69.0103C479.994 68.7091 480.169 68.3348 480.169 67.8872C480.169 67.4315 479.949 67.0327 479.51 66.6909C479.274 66.5037 478.598 66.166 477.483 65.6777C476.368 65.1813 475.559 64.6849 475.054 64.1885ZM494.036 71.8911H493.755C493.348 71.8911 493.003 71.7731 492.718 71.5371C492.441 71.3011 492.303 71.0203 492.303 70.6948C492.303 70.3693 492.4 69.9543 492.596 69.4497C492.799 68.937 492.946 68.3145 493.035 67.582C493.133 66.8415 493.182 65.7591 493.182 64.335C493.182 62.9108 493.112 62.0034 492.974 61.6128C492.95 61.5477 492.836 61.332 492.632 60.9658C492.429 60.5915 492.327 60.2741 492.327 60.0137C492.327 59.7533 492.461 59.4196 492.73 59.0127C493.007 58.6058 493.19 58.3047 493.279 58.1094C494.378 55.79 494.952 54.6019 495 54.5449C495.847 53.5602 496.99 53.0679 498.431 53.0679C499.098 53.0679 499.611 53.1818 499.969 53.4097C500.327 53.6375 500.506 53.9346 500.506 54.3008C500.506 54.6589 500.294 54.9193 499.871 55.082C499.757 55.1227 499.607 55.1431 499.419 55.1431C499.281 55.1349 499.122 55.1227 498.943 55.1064C498.52 55.0576 498.211 55.0332 498.016 55.0332C497.487 55.0332 497.055 55.2611 496.722 55.7168C496.396 56.1644 496.233 56.6812 496.233 57.2671C496.233 57.853 496.351 58.2803 496.587 58.5488C496.661 58.6302 497.007 58.8337 497.625 59.1592C498.252 59.4766 498.565 59.798 498.565 60.1235C498.565 60.3026 498.215 60.5793 497.515 60.9536C497.019 61.214 496.653 61.6779 496.417 62.3452C495.904 63.7775 495.647 65.6615 495.647 67.9971L495.879 70.0601C495.879 70.6216 495.713 71.0651 495.379 71.3906C495.053 71.7243 494.606 71.8911 494.036 71.8911ZM504.974 69.4619H505.291C505.958 69.4619 506.544 69.2381 507.049 68.7905C507.562 68.3348 507.818 67.8099 507.818 67.2158L507.842 67.0571V66.8984L507.867 66.52V65.8242C507.867 65.3522 507.627 65.1162 507.146 65.1162H506.597L506.512 65.1284L506.036 65.165C505.808 65.1976 505.645 65.2139 505.547 65.2139C504.888 65.2139 504.278 65.4621 503.716 65.9585C503.326 66.3084 503.13 66.8049 503.13 67.4478V67.6919C503.13 68.2371 503.305 68.6685 503.655 68.9858C504.013 69.3032 504.453 69.4619 504.974 69.4619ZM502.251 61.6616C501.706 61.6616 501.434 61.3117 501.434 60.6118C501.434 60.091 501.873 59.6393 502.752 59.2568C503.639 58.8662 504.559 58.6709 505.511 58.6709H506.121C506.943 58.6709 507.667 58.8255 508.294 59.1348C508.921 59.4359 509.397 59.8468 509.722 60.3677C510.056 60.8885 510.259 61.568 510.333 62.4062C510.349 62.6016 510.357 63.5496 510.357 65.2505C510.357 66.9513 510.377 67.932 510.418 68.1924C510.467 68.4447 510.597 68.7539 510.809 69.1201C511.028 69.4863 511.138 69.7874 511.138 70.0234C511.138 70.2594 511.024 70.4629 510.796 70.6338C510.577 70.7965 510.255 70.8779 509.832 70.8779C509.409 70.8779 508.949 70.7762 508.453 70.5728C507.956 70.3612 507.594 70.2554 507.366 70.2554C507.342 70.2554 506.935 70.4019 506.146 70.6948C505.356 70.9797 504.689 71.1221 504.144 71.1221H503.875C502.964 71.1221 502.186 70.8332 501.543 70.2554C500.909 69.6776 500.591 68.8556 500.591 67.7896C500.591 66.7235 500.941 65.8934 501.641 65.2993C502.341 64.6971 503.191 64.2861 504.192 64.0664C504.493 64.0013 504.994 63.9159 505.694 63.8101C506.394 63.7043 506.87 63.5944 507.122 63.4805C507.562 63.277 507.781 62.8945 507.781 62.333C507.781 61.7633 507.594 61.3198 507.22 61.0024C506.845 60.6769 506.398 60.5142 505.877 60.5142C505.364 60.5142 504.689 60.7054 503.851 61.0879C503.012 61.4704 502.479 61.6616 502.251 61.6616ZM514.849 64.1885C514.353 63.6839 514.104 62.9759 514.104 62.0645C514.104 61.153 514.511 60.3717 515.325 59.7207C516.139 59.0615 517.148 58.7319 518.353 58.7319H518.67C519.736 58.7319 520.582 58.8825 521.209 59.1836C521.844 59.4847 522.161 59.9364 522.161 60.5386C522.161 61.1326 521.897 61.4297 521.368 61.4297C521.229 61.4297 520.839 61.2669 520.196 60.9414C519.553 60.6077 518.947 60.4409 518.377 60.4409C517.807 60.4409 517.347 60.5711 516.998 60.8315C516.656 61.0838 516.485 61.4338 516.485 61.8813C516.485 62.3289 516.725 62.7196 517.205 63.0532C517.482 63.2485 518.133 63.5578 519.158 63.981C520.192 64.4041 520.928 64.811 521.368 65.2017C522.076 65.8283 522.43 66.6299 522.43 67.6064C522.43 68.583 522.015 69.4212 521.185 70.1211C520.354 70.8128 519.276 71.1587 517.95 71.1587H517.632C516.298 71.1587 515.297 70.9674 514.629 70.585C513.962 70.1943 513.628 69.6898 513.628 69.0713C513.628 68.4447 513.889 68.1313 514.41 68.1313C514.581 68.1313 515.024 68.3511 515.74 68.7905C516.465 69.23 517.173 69.4497 517.864 69.4497C518.564 69.4497 519.089 69.3032 519.439 69.0103C519.789 68.7091 519.964 68.3348 519.964 67.8872C519.964 67.4315 519.744 67.0327 519.305 66.6909C519.069 66.5037 518.393 66.166 517.278 65.6777C516.163 65.1813 515.354 64.6849 514.849 64.1885ZM531.426 69.6938C531.426 70.0194 531.227 70.3123 530.828 70.5728C530.438 70.825 529.904 70.9512 529.229 70.9512C527.968 70.9512 527.081 70.4832 526.568 69.5474C526.25 68.9614 526.092 67.5902 526.092 65.4336C526.092 63.277 526.055 62.0238 525.982 61.6738C525.909 61.3239 525.705 60.9821 525.372 60.6484C525.038 60.3148 524.871 60.0584 524.871 59.8794C524.871 59.8143 525.266 59.387 526.055 58.5977C526.226 58.4268 526.397 58.0483 526.568 57.4624C526.747 56.8765 526.873 56.4899 526.946 56.3027C527.19 55.7168 527.512 55.4238 527.911 55.4238H528.106C528.456 55.4238 528.704 55.5581 528.851 55.8267C528.908 55.9325 528.993 56.3149 529.107 56.9741C529.229 57.6252 529.367 58.0443 529.522 58.2314C529.677 58.4186 530.063 58.6261 530.682 58.854C531.308 59.0737 531.622 59.3097 531.622 59.562V59.6963C531.622 60.0218 531.264 60.2985 530.547 60.5264C529.839 60.7461 529.384 61.1001 529.18 61.5884C528.781 62.5731 528.582 64.1763 528.582 66.3979C528.582 67.4396 528.761 68.1476 529.119 68.522C529.339 68.7498 529.778 68.9085 530.438 68.998C531.097 69.0876 531.426 69.3195 531.426 69.6938ZM535.992 71.1953H535.613C535.206 71.1953 534.889 71.1017 534.661 70.9146C534.441 70.7274 534.332 70.4792 534.332 70.1699C534.315 70.1048 534.307 70.0519 534.307 70.0112L534.283 69.8037V69.584L534.295 69.5352V69.4253C534.311 69.3602 534.319 69.3073 534.319 69.2666C534.319 68.9004 534.441 68.6156 534.686 68.4121C534.938 68.2005 535.215 68.0947 535.516 68.0947L535.772 68.0581H536.102C536.989 68.0581 537.432 68.522 537.432 69.4497V69.6206L537.383 70.0356C537.383 70.41 537.241 70.6989 536.956 70.9023C536.679 71.0977 536.358 71.1953 535.992 71.1953Z" fill="black"/>
</svg>
