<svg width="758" height="87" viewBox="0 0 758 87" fill="none" xmlns="http://www.w3.org/2000/svg">
<rect width="758" height="87" rx="18" fill="#D9D9D9"/>
<path d="M43.595 54.1177C43.245 54.1177 43.07 53.9427 43.07 53.5927V45.3607H32.045C31.695 45.3607 31.52 45.1857 31.52 44.8357V26.6497C31.52 26.2997 31.695 26.1247 32.045 26.1247H37.988C38.338 26.1247 38.513 26.2997 38.513 26.6497V39.7747H43.07V26.6497C43.07 26.2997 43.245 26.1247 43.595 26.1247H49.538C49.888 26.1247 50.063 26.2997 50.063 26.6497V53.5927C50.063 53.9427 49.888 54.1177 49.538 54.1177H43.595Z" fill="#2ECC71"/>
<path d="M90.9473 30.2793L90.7397 28.0942C90.7397 27.9233 90.8496 27.7524 91.0693 27.5815C91.2891 27.4025 91.6146 27.313 92.0459 27.313C93.0306 27.313 93.8241 27.7646 94.4263 28.668C95.0366 29.5713 95.9806 31.6221 97.2583 34.8203C97.8117 36.1712 98.1372 36.9362 98.2349 37.1152L98.5034 37.4692C98.6825 37.4692 99.48 36.1427 100.896 33.4897C102.312 30.8286 103.195 29.2539 103.545 28.7656C104.245 27.7891 105.136 27.3008 106.218 27.3008C106.983 27.3008 107.366 27.5815 107.366 28.1431L107.292 28.5459L107.183 29.0342C107.093 29.5306 107.032 30.6374 107 32.3545C106.967 34.0635 106.918 35.7806 106.853 37.5059L106.792 39.4346C106.792 40.2565 106.837 40.8343 106.926 41.168L107.097 41.644C107.26 42.0835 107.341 42.4131 107.341 42.6328C107.341 42.8444 107.223 43.0438 106.987 43.231C106.751 43.4181 106.487 43.5117 106.194 43.5117H105.73C105.315 43.5117 104.941 43.3449 104.607 43.0112C104.273 42.6776 104.106 42.3276 104.106 41.9614C104.106 41.5871 104.143 41.0296 104.216 40.2891C104.298 39.5485 104.338 37.9657 104.338 35.5405C104.338 33.1073 104.265 31.8906 104.119 31.8906C103.899 31.8906 103.138 33.2741 101.836 36.041C100.542 38.8079 99.716 40.46 99.3579 40.9971C98.9998 41.5342 98.6011 41.8027 98.1616 41.8027C97.7303 41.8027 97.356 41.4976 97.0386 40.8872C96.9165 40.6512 96.3387 39.105 95.3052 36.2485C94.2798 33.384 93.645 31.9517 93.4009 31.9517C93.2951 31.9517 93.1934 32.0941 93.0957 32.3789C93.0062 32.6556 92.8394 33.9414 92.5952 36.2363C92.3592 38.5312 92.2412 40.0775 92.2412 40.875C92.2412 41.6644 92.111 42.2585 91.8506 42.6572C91.5902 43.0479 91.1385 43.2432 90.4956 43.2432C89.8527 43.2432 89.5312 42.9339 89.5312 42.3154C89.5312 42.234 89.6493 41.8841 89.8853 41.2656C90.1213 40.6471 90.2799 39.9595 90.3613 39.2026C90.752 35.6138 90.9473 32.6393 90.9473 30.2793ZM114.531 42.4619H114.849C115.516 42.4619 116.102 42.2381 116.606 41.7905C117.119 41.3348 117.375 40.8099 117.375 40.2158L117.4 40.0571V39.8984L117.424 39.52V38.8242C117.424 38.3522 117.184 38.1162 116.704 38.1162H116.155L116.069 38.1284L115.593 38.165C115.365 38.1976 115.203 38.2139 115.105 38.2139C114.446 38.2139 113.835 38.4621 113.274 38.9585C112.883 39.3084 112.688 39.8049 112.688 40.4478V40.6919C112.688 41.2371 112.863 41.6685 113.213 41.9858C113.571 42.3032 114.01 42.4619 114.531 42.4619ZM111.809 34.6616C111.264 34.6616 110.991 34.3117 110.991 33.6118C110.991 33.091 111.431 32.6393 112.31 32.2568C113.197 31.8662 114.116 31.6709 115.068 31.6709H115.679C116.501 31.6709 117.225 31.8255 117.852 32.1348C118.478 32.4359 118.954 32.8468 119.28 33.3677C119.613 33.8885 119.817 34.568 119.89 35.4062C119.906 35.6016 119.915 36.5496 119.915 38.2505C119.915 39.9513 119.935 40.932 119.976 41.1924C120.024 41.4447 120.155 41.7539 120.366 42.1201C120.586 42.4863 120.696 42.7874 120.696 43.0234C120.696 43.2594 120.582 43.4629 120.354 43.6338C120.134 43.7965 119.813 43.8779 119.39 43.8779C118.966 43.8779 118.507 43.7762 118.01 43.5728C117.514 43.3612 117.152 43.2554 116.924 43.2554C116.899 43.2554 116.493 43.4019 115.703 43.6948C114.914 43.9797 114.246 44.1221 113.701 44.1221H113.433C112.521 44.1221 111.744 43.8332 111.101 43.2554C110.466 42.6776 110.149 41.8556 110.149 40.7896C110.149 39.7235 110.499 38.8934 111.199 38.2993C111.899 37.6971 112.749 37.2861 113.75 37.0664C114.051 37.0013 114.552 36.9159 115.251 36.8101C115.951 36.7043 116.427 36.5944 116.68 36.4805C117.119 36.277 117.339 35.8945 117.339 35.333C117.339 34.7633 117.152 34.3198 116.777 34.0024C116.403 33.6769 115.955 33.5142 115.435 33.5142C114.922 33.5142 114.246 33.7054 113.408 34.0879C112.57 34.4704 112.037 34.6616 111.809 34.6616ZM127.52 28.1309V28.2773C127.52 28.6924 127.397 29.0464 127.153 29.3394C126.917 29.6242 126.551 29.7666 126.055 29.7666H125.859L125.481 29.7178C125.261 29.7178 125.05 29.616 124.846 29.4126C124.643 29.2091 124.541 28.904 124.541 28.4971V28.3506L124.602 27.9111C124.602 27.7402 124.704 27.5286 124.907 27.2764C125.119 27.0241 125.387 26.8979 125.713 26.8979L125.994 26.8613H126.238L126.58 26.9102C126.791 26.9102 126.999 27.016 127.202 27.2275C127.414 27.431 127.52 27.7321 127.52 28.1309ZM126.946 33.2822L126.812 36.5659L126.787 36.8955L126.75 37.8965V38.3726C126.75 39.5444 126.783 40.3135 126.848 40.6797C126.921 41.0459 127.056 41.404 127.251 41.7539C127.446 42.0957 127.544 42.3439 127.544 42.4985V42.6084C127.544 43.0072 127.34 43.3245 126.934 43.5605C126.527 43.7965 125.973 43.9146 125.273 43.9146H124.968C124.561 43.9146 124.252 43.825 124.041 43.646C123.829 43.4588 123.723 43.2594 123.723 43.0479V42.7793C123.723 42.6735 123.817 42.2992 124.004 41.6562C124.191 41.0052 124.285 40.1222 124.285 39.0073C124.309 38.6899 124.321 38.4702 124.321 38.3481L124.358 37.6768L124.382 37.3472C124.423 36.7775 124.443 36.334 124.443 36.0166L124.456 35.5283C124.456 34.918 124.354 34.3768 124.15 33.9048C123.955 33.4328 123.857 33.1398 123.857 33.0259C123.857 32.4399 124.411 32.147 125.518 32.147H125.957C126.372 32.147 126.641 32.2568 126.763 32.4766C126.885 32.6882 126.946 32.9567 126.946 33.2822ZM141.753 42.5352C141.753 43.1374 141.228 43.4385 140.178 43.4385C139.584 43.4385 139.185 43.2961 138.982 43.0112C138.884 42.8729 138.835 42.5474 138.835 42.0347L138.799 41.2534C138.742 40.3989 138.713 39.5404 138.713 38.6777C138.713 36.8141 138.551 35.5649 138.225 34.9302C137.908 34.2873 137.371 33.9658 136.614 33.9658C136.109 33.9658 135.641 34.1164 135.21 34.4175C134.787 34.7186 134.461 35.1377 134.233 35.6748C133.761 36.7734 133.525 38.8039 133.525 41.7661C133.525 42.4416 133.395 42.9176 133.135 43.1943C132.882 43.471 132.557 43.6094 132.158 43.6094H131.914C131.003 43.6094 130.547 43.2472 130.547 42.5229V42.23C130.547 42.1405 130.596 41.9451 130.693 41.644L130.889 41.0825C131.084 40.4233 131.182 39.0114 131.182 36.8467L131.243 33.2212C131.243 32.7573 131.495 32.5254 132 32.5254C132.504 32.5254 133 32.6922 133.489 33.0259C133.985 33.3595 134.299 33.5264 134.429 33.5264C134.567 33.5264 134.807 33.4328 135.149 33.2456C136.296 32.619 137.216 32.3057 137.908 32.3057H138.225C139.47 32.3057 140.345 32.8672 140.85 33.9902C141.094 34.5192 141.216 35.6585 141.216 37.4082V37.4937C141.216 37.6401 141.212 37.7866 141.204 37.9331C141.204 38.3319 141.204 38.5394 141.204 38.5557C141.204 38.7103 141.204 38.8608 141.204 39.0073C141.204 39.1213 141.204 39.2311 141.204 39.3369C141.204 39.9635 141.224 40.3908 141.265 40.6187C141.322 40.9279 141.415 41.2493 141.545 41.583C141.684 41.9492 141.753 42.2666 141.753 42.5352ZM150.92 42.6938C150.92 43.0194 150.721 43.3123 150.322 43.5728C149.932 43.825 149.399 43.9512 148.723 43.9512C147.462 43.9512 146.575 43.4832 146.062 42.5474C145.745 41.9614 145.586 40.5902 145.586 38.4336C145.586 36.277 145.549 35.0238 145.476 34.6738C145.403 34.3239 145.199 33.9821 144.866 33.6484C144.532 33.3148 144.365 33.0584 144.365 32.8794C144.365 32.8143 144.76 32.387 145.549 31.5977C145.72 31.4268 145.891 31.0483 146.062 30.4624C146.241 29.8765 146.367 29.4899 146.44 29.3027C146.685 28.7168 147.006 28.4238 147.405 28.4238H147.6C147.95 28.4238 148.198 28.5581 148.345 28.8267C148.402 28.9325 148.487 29.3149 148.601 29.9741C148.723 30.6252 148.861 31.0443 149.016 31.2314C149.171 31.4186 149.557 31.6261 150.176 31.854C150.802 32.0737 151.116 32.3097 151.116 32.562V32.6963C151.116 33.0218 150.758 33.2985 150.042 33.5264C149.333 33.7461 148.878 34.1001 148.674 34.5884C148.276 35.5731 148.076 37.1763 148.076 39.3979C148.076 40.4396 148.255 41.1476 148.613 41.522C148.833 41.7498 149.272 41.9085 149.932 41.998C150.591 42.0876 150.92 42.3195 150.92 42.6938ZM157.573 42.4619H157.891C158.558 42.4619 159.144 42.2381 159.648 41.7905C160.161 41.3348 160.417 40.8099 160.417 40.2158L160.442 40.0571V39.8984L160.466 39.52V38.8242C160.466 38.3522 160.226 38.1162 159.746 38.1162H159.197L159.111 38.1284L158.635 38.165C158.407 38.1976 158.245 38.2139 158.147 38.2139C157.488 38.2139 156.877 38.4621 156.316 38.9585C155.925 39.3084 155.73 39.8049 155.73 40.4478V40.6919C155.73 41.2371 155.905 41.6685 156.255 41.9858C156.613 42.3032 157.052 42.4619 157.573 42.4619ZM154.851 34.6616C154.306 34.6616 154.033 34.3117 154.033 33.6118C154.033 33.091 154.473 32.6393 155.352 32.2568C156.239 31.8662 157.158 31.6709 158.11 31.6709H158.721C159.543 31.6709 160.267 31.8255 160.894 32.1348C161.52 32.4359 161.996 32.8468 162.322 33.3677C162.655 33.8885 162.859 34.568 162.932 35.4062C162.948 35.6016 162.957 36.5496 162.957 38.2505C162.957 39.9513 162.977 40.932 163.018 41.1924C163.066 41.4447 163.197 41.7539 163.408 42.1201C163.628 42.4863 163.738 42.7874 163.738 43.0234C163.738 43.2594 163.624 43.4629 163.396 43.6338C163.176 43.7965 162.855 43.8779 162.432 43.8779C162.008 43.8779 161.549 43.7762 161.052 43.5728C160.556 43.3612 160.194 43.2554 159.966 43.2554C159.941 43.2554 159.535 43.4019 158.745 43.6948C157.956 43.9797 157.288 44.1221 156.743 44.1221H156.475C155.563 44.1221 154.786 43.8332 154.143 43.2554C153.508 42.6776 153.191 41.8556 153.191 40.7896C153.191 39.7235 153.541 38.8934 154.241 38.2993C154.941 37.6971 155.791 37.2861 156.792 37.0664C157.093 37.0013 157.594 36.9159 158.293 36.8101C158.993 36.7043 159.469 36.5944 159.722 36.4805C160.161 36.277 160.381 35.8945 160.381 35.333C160.381 34.7633 160.194 34.3198 159.819 34.0024C159.445 33.6769 158.997 33.5142 158.477 33.5142C157.964 33.5142 157.288 33.7054 156.45 34.0879C155.612 34.4704 155.079 34.6616 154.851 34.6616ZM170.562 28.1309V28.2773C170.562 28.6924 170.439 29.0464 170.195 29.3394C169.959 29.6242 169.593 29.7666 169.097 29.7666H168.901L168.523 29.7178C168.303 29.7178 168.092 29.616 167.888 29.4126C167.685 29.2091 167.583 28.904 167.583 28.4971V28.3506L167.644 27.9111C167.644 27.7402 167.746 27.5286 167.949 27.2764C168.161 27.0241 168.429 26.8979 168.755 26.8979L169.036 26.8613H169.28L169.622 26.9102C169.833 26.9102 170.041 27.016 170.244 27.2275C170.456 27.431 170.562 27.7321 170.562 28.1309ZM169.988 33.2822L169.854 36.5659L169.829 36.8955L169.792 37.8965V38.3726C169.792 39.5444 169.825 40.3135 169.89 40.6797C169.963 41.0459 170.098 41.404 170.293 41.7539C170.488 42.0957 170.586 42.3439 170.586 42.4985V42.6084C170.586 43.0072 170.382 43.3245 169.976 43.5605C169.569 43.7965 169.015 43.9146 168.315 43.9146H168.01C167.603 43.9146 167.294 43.825 167.083 43.646C166.871 43.4588 166.765 43.2594 166.765 43.0479V42.7793C166.765 42.6735 166.859 42.2992 167.046 41.6562C167.233 41.0052 167.327 40.1222 167.327 39.0073C167.351 38.6899 167.363 38.4702 167.363 38.3481L167.4 37.6768L167.424 37.3472C167.465 36.7775 167.485 36.334 167.485 36.0166L167.498 35.5283C167.498 34.918 167.396 34.3768 167.192 33.9048C166.997 33.4328 166.899 33.1398 166.899 33.0259C166.899 32.4399 167.453 32.147 168.56 32.147H168.999C169.414 32.147 169.683 32.2568 169.805 32.4766C169.927 32.6882 169.988 32.9567 169.988 33.2822ZM184.795 42.5352C184.795 43.1374 184.27 43.4385 183.22 43.4385C182.626 43.4385 182.227 43.2961 182.024 43.0112C181.926 42.8729 181.877 42.5474 181.877 42.0347L181.841 41.2534C181.784 40.3989 181.755 39.5404 181.755 38.6777C181.755 36.8141 181.593 35.5649 181.267 34.9302C180.95 34.2873 180.413 33.9658 179.656 33.9658C179.151 33.9658 178.683 34.1164 178.252 34.4175C177.829 34.7186 177.503 35.1377 177.275 35.6748C176.803 36.7734 176.567 38.8039 176.567 41.7661C176.567 42.4416 176.437 42.9176 176.177 43.1943C175.924 43.471 175.599 43.6094 175.2 43.6094H174.956C174.045 43.6094 173.589 43.2472 173.589 42.5229V42.23C173.589 42.1405 173.638 41.9451 173.735 41.644L173.931 41.0825C174.126 40.4233 174.224 39.0114 174.224 36.8467L174.285 33.2212C174.285 32.7573 174.537 32.5254 175.042 32.5254C175.546 32.5254 176.042 32.6922 176.531 33.0259C177.027 33.3595 177.34 33.5264 177.471 33.5264C177.609 33.5264 177.849 33.4328 178.191 33.2456C179.338 32.619 180.258 32.3057 180.95 32.3057H181.267C182.512 32.3057 183.387 32.8672 183.892 33.9902C184.136 34.5192 184.258 35.6585 184.258 37.4082V37.4937C184.258 37.6401 184.254 37.7866 184.246 37.9331C184.246 38.3319 184.246 38.5394 184.246 38.5557C184.246 38.7103 184.246 38.8608 184.246 39.0073C184.246 39.1213 184.246 39.2311 184.246 39.3369C184.246 39.9635 184.266 40.3908 184.307 40.6187C184.364 40.9279 184.457 41.2493 184.587 41.583C184.726 41.9492 184.795 42.2666 184.795 42.5352ZM188.542 37.1885C188.046 36.6839 187.798 35.9759 187.798 35.0645C187.798 34.153 188.205 33.3717 189.019 32.7207C189.832 32.0615 190.841 31.7319 192.046 31.7319H192.363C193.429 31.7319 194.276 31.8825 194.902 32.1836C195.537 32.4847 195.854 32.9364 195.854 33.5386C195.854 34.1326 195.59 34.4297 195.061 34.4297C194.923 34.4297 194.532 34.2669 193.889 33.9414C193.246 33.6077 192.64 33.4409 192.07 33.4409C191.501 33.4409 191.041 33.5711 190.691 33.8315C190.349 34.0838 190.178 34.4338 190.178 34.8813C190.178 35.3289 190.418 35.7196 190.898 36.0532C191.175 36.2485 191.826 36.5578 192.852 36.981C193.885 37.4041 194.622 37.811 195.061 38.2017C195.769 38.8283 196.123 39.6299 196.123 40.6064C196.123 41.583 195.708 42.4212 194.878 43.1211C194.048 43.8128 192.97 44.1587 191.643 44.1587H191.326C189.991 44.1587 188.99 43.9674 188.323 43.585C187.655 43.1943 187.322 42.6898 187.322 42.0713C187.322 41.4447 187.582 41.1313 188.103 41.1313C188.274 41.1313 188.717 41.3511 189.434 41.7905C190.158 42.23 190.866 42.4497 191.558 42.4497C192.257 42.4497 192.782 42.3032 193.132 42.0103C193.482 41.7091 193.657 41.3348 193.657 40.8872C193.657 40.4315 193.438 40.0327 192.998 39.6909C192.762 39.5037 192.087 39.166 190.972 38.6777C189.857 38.1813 189.047 37.6849 188.542 37.1885ZM209.502 42.4619H209.819C210.487 42.4619 211.073 42.2381 211.577 41.7905C212.09 41.3348 212.346 40.8099 212.346 40.2158L212.371 40.0571V39.8984L212.395 39.52V38.8242C212.395 38.3522 212.155 38.1162 211.675 38.1162H211.125L211.04 38.1284L210.564 38.165C210.336 38.1976 210.173 38.2139 210.076 38.2139C209.417 38.2139 208.806 38.4621 208.245 38.9585C207.854 39.3084 207.659 39.8049 207.659 40.4478V40.6919C207.659 41.2371 207.834 41.6685 208.184 41.9858C208.542 42.3032 208.981 42.4619 209.502 42.4619ZM206.78 34.6616C206.235 34.6616 205.962 34.3117 205.962 33.6118C205.962 33.091 206.401 32.6393 207.28 32.2568C208.167 31.8662 209.087 31.6709 210.039 31.6709H210.649C211.471 31.6709 212.196 31.8255 212.822 32.1348C213.449 32.4359 213.925 32.8468 214.25 33.3677C214.584 33.8885 214.788 34.568 214.861 35.4062C214.877 35.6016 214.885 36.5496 214.885 38.2505C214.885 39.9513 214.906 40.932 214.946 41.1924C214.995 41.4447 215.125 41.7539 215.337 42.1201C215.557 42.4863 215.667 42.7874 215.667 43.0234C215.667 43.2594 215.553 43.4629 215.325 43.6338C215.105 43.7965 214.784 43.8779 214.36 43.8779C213.937 43.8779 213.477 43.7762 212.981 43.5728C212.485 43.3612 212.122 43.2554 211.895 43.2554C211.87 43.2554 211.463 43.4019 210.674 43.6948C209.884 43.9797 209.217 44.1221 208.672 44.1221H208.403C207.492 44.1221 206.715 43.8332 206.072 43.2554C205.437 42.6776 205.12 41.8556 205.12 40.7896C205.12 39.7235 205.47 38.8934 206.169 38.2993C206.869 37.6971 207.72 37.2861 208.721 37.0664C209.022 37.0013 209.522 36.9159 210.222 36.8101C210.922 36.7043 211.398 36.5944 211.65 36.4805C212.09 36.277 212.31 35.8945 212.31 35.333C212.31 34.7633 212.122 34.3198 211.748 34.0024C211.374 33.6769 210.926 33.5142 210.405 33.5142C209.893 33.5142 209.217 33.7054 208.379 34.0879C207.541 34.4704 207.008 34.6616 206.78 34.6616ZM218.132 38.9219V38.3604C218.132 37.335 218.291 36.4276 218.608 35.6382C219.219 34.1082 220.155 33.0503 221.416 32.4644C222.238 32.0737 223.088 31.8784 223.967 31.8784H224.236C225.204 31.8784 226.006 32.0697 226.641 32.4521C227.275 32.8346 227.593 33.3026 227.593 33.856C227.593 34.4989 227.284 34.8203 226.665 34.8203C226.551 34.8203 226.152 34.6413 225.469 34.2832C224.785 33.9333 224.224 33.7583 223.784 33.7583C223.776 33.7583 223.768 33.7583 223.76 33.7583C222.799 33.7583 222.047 34.1733 221.501 35.0034C220.964 35.8335 220.696 36.9159 220.696 38.2505C220.696 39.5851 220.981 40.5739 221.55 41.2168C222.128 41.8597 222.93 42.1812 223.955 42.1812C224.378 42.1812 224.96 42.0632 225.701 41.8271C226.441 41.583 226.893 41.4609 227.056 41.4609C227.389 41.4609 227.556 41.6359 227.556 41.9858C227.556 42.4578 227.088 42.9339 226.152 43.4141C225.216 43.8942 224.297 44.1343 223.394 44.1343C220.977 44.1343 219.377 43.1821 218.596 41.2778C218.287 40.521 218.132 39.7357 218.132 38.9219ZM229.729 38.9219V38.3604C229.729 37.335 229.888 36.4276 230.205 35.6382C230.815 34.1082 231.751 33.0503 233.013 32.4644C233.835 32.0737 234.685 31.8784 235.564 31.8784H235.833C236.801 31.8784 237.603 32.0697 238.237 32.4521C238.872 32.8346 239.189 33.3026 239.189 33.856C239.189 34.4989 238.88 34.8203 238.262 34.8203C238.148 34.8203 237.749 34.6413 237.065 34.2832C236.382 33.9333 235.82 33.7583 235.381 33.7583C235.373 33.7583 235.365 33.7583 235.356 33.7583C234.396 33.7583 233.643 34.1733 233.098 35.0034C232.561 35.8335 232.292 36.9159 232.292 38.2505C232.292 39.5851 232.577 40.5739 233.147 41.2168C233.725 41.8597 234.526 42.1812 235.552 42.1812C235.975 42.1812 236.557 42.0632 237.297 41.8271C238.038 41.583 238.49 41.4609 238.652 41.4609C238.986 41.4609 239.153 41.6359 239.153 41.9858C239.153 42.4578 238.685 42.9339 237.749 43.4141C236.813 43.8942 235.894 44.1343 234.99 44.1343C232.573 44.1343 230.974 43.1821 230.193 41.2778C229.884 40.521 229.729 39.7357 229.729 38.9219ZM241.838 33.0259C241.838 32.5132 242.27 32.2568 243.132 32.2568H243.413C243.95 32.2568 244.312 32.4725 244.5 32.9038C244.687 33.3351 244.78 34.1408 244.78 35.3208L244.634 39.3979C244.634 41.2941 245.313 42.2422 246.672 42.2422C247.169 42.2422 247.645 42.0672 248.101 41.7173C248.556 41.3674 248.894 40.9482 249.114 40.46C249.594 39.3857 249.834 37.4611 249.834 34.686L249.81 34.1489V33.6729C249.81 33.2415 249.907 32.9282 250.103 32.7329C250.298 32.5376 250.64 32.4399 251.128 32.4399C251.616 32.4399 251.938 32.5579 252.092 32.7939C252.247 33.0299 252.324 33.4124 252.324 33.9414L252.3 34.5884L252.251 37.4692C252.251 37.9331 252.279 38.6452 252.336 39.6055C252.393 40.5658 252.454 41.2697 252.52 41.7173C252.585 42.1567 252.617 42.4172 252.617 42.4985C252.617 43.2228 252.084 43.585 251.018 43.585C250.652 43.585 250.286 43.4507 249.919 43.1821C249.561 42.9054 249.305 42.7671 249.15 42.7671C249.004 42.7671 248.752 42.8566 248.394 43.0356C247.376 43.5483 246.51 43.8047 245.793 43.8047H245.488C244.325 43.8047 243.47 43.4466 242.925 42.7305C242.38 42.0143 242.107 40.7244 242.107 38.8608L242.229 35.1621C242.229 34.6982 242.164 34.2547 242.034 33.8315C241.903 33.4084 241.838 33.1398 241.838 33.0259ZM256.426 37.6523V36.7124C256.426 35.5812 256.365 34.7552 256.243 34.2344C256.121 33.7054 256.06 33.3351 256.06 33.1235C256.06 32.6271 256.422 32.3789 257.146 32.3789C257.87 32.3789 258.395 32.5132 258.721 32.7817C258.81 32.855 258.924 32.9974 259.062 33.209C259.209 33.4206 259.339 33.5264 259.453 33.5264C259.478 33.5264 259.832 33.3188 260.515 32.9038C261.199 32.4888 261.785 32.2812 262.273 32.2812H262.456C262.855 32.2812 263.172 32.3789 263.408 32.5742C263.644 32.7614 263.762 32.9933 263.762 33.27V33.4287C263.762 33.7624 263.644 34.0024 263.408 34.1489C263.18 34.2954 262.814 34.3687 262.31 34.3687C261.162 34.3687 260.324 34.7715 259.795 35.5771C259.274 36.3828 259.014 37.807 259.014 39.8496C259.014 40.1426 259.062 40.5942 259.16 41.2046C259.266 41.8149 259.319 42.2747 259.319 42.584C259.319 42.8932 259.152 43.1903 258.818 43.4751C258.485 43.7599 258.062 43.9023 257.549 43.9023H257.134C256.686 43.9023 256.34 43.7965 256.096 43.585C255.86 43.3652 255.742 43.1007 255.742 42.7915C255.742 42.4741 255.799 42.1527 255.913 41.8271C256.222 40.9482 256.377 39.9798 256.377 38.9219C256.41 38.3359 256.426 37.9128 256.426 37.6523ZM269.487 42.4619H269.805C270.472 42.4619 271.058 42.2381 271.562 41.7905C272.075 41.3348 272.332 40.8099 272.332 40.2158L272.356 40.0571V39.8984L272.38 39.52V38.8242C272.38 38.3522 272.14 38.1162 271.66 38.1162H271.111L271.025 38.1284L270.549 38.165C270.321 38.1976 270.159 38.2139 270.061 38.2139C269.402 38.2139 268.792 38.4621 268.23 38.9585C267.839 39.3084 267.644 39.8049 267.644 40.4478V40.6919C267.644 41.2371 267.819 41.6685 268.169 41.9858C268.527 42.3032 268.966 42.4619 269.487 42.4619ZM266.765 34.6616C266.22 34.6616 265.947 34.3117 265.947 33.6118C265.947 33.091 266.387 32.6393 267.266 32.2568C268.153 31.8662 269.072 31.6709 270.024 31.6709H270.635C271.457 31.6709 272.181 31.8255 272.808 32.1348C273.434 32.4359 273.91 32.8468 274.236 33.3677C274.569 33.8885 274.773 34.568 274.846 35.4062C274.862 35.6016 274.871 36.5496 274.871 38.2505C274.871 39.9513 274.891 40.932 274.932 41.1924C274.98 41.4447 275.111 41.7539 275.322 42.1201C275.542 42.4863 275.652 42.7874 275.652 43.0234C275.652 43.2594 275.538 43.4629 275.31 43.6338C275.09 43.7965 274.769 43.8779 274.346 43.8779C273.923 43.8779 273.463 43.7762 272.966 43.5728C272.47 43.3612 272.108 43.2554 271.88 43.2554C271.855 43.2554 271.449 43.4019 270.659 43.6948C269.87 43.9797 269.202 44.1221 268.657 44.1221H268.389C267.477 44.1221 266.7 43.8332 266.057 43.2554C265.422 42.6776 265.105 41.8556 265.105 40.7896C265.105 39.7235 265.455 38.8934 266.155 38.2993C266.855 37.6971 267.705 37.2861 268.706 37.0664C269.007 37.0013 269.508 36.9159 270.208 36.8101C270.907 36.7043 271.383 36.5944 271.636 36.4805C272.075 36.277 272.295 35.8945 272.295 35.333C272.295 34.7633 272.108 34.3198 271.733 34.0024C271.359 33.6769 270.911 33.5142 270.391 33.5142C269.878 33.5142 269.202 33.7054 268.364 34.0879C267.526 34.4704 266.993 34.6616 266.765 34.6616ZM284.832 42.6938C284.832 43.0194 284.632 43.3123 284.233 43.5728C283.843 43.825 283.31 43.9512 282.634 43.9512C281.373 43.9512 280.486 43.4832 279.973 42.5474C279.656 41.9614 279.497 40.5902 279.497 38.4336C279.497 36.277 279.46 35.0238 279.387 34.6738C279.314 34.3239 279.111 33.9821 278.777 33.6484C278.443 33.3148 278.276 33.0584 278.276 32.8794C278.276 32.8143 278.671 32.387 279.46 31.5977C279.631 31.4268 279.802 31.0483 279.973 30.4624C280.152 29.8765 280.278 29.4899 280.352 29.3027C280.596 28.7168 280.917 28.4238 281.316 28.4238H281.511C281.861 28.4238 282.109 28.5581 282.256 28.8267C282.313 28.9325 282.398 29.3149 282.512 29.9741C282.634 30.6252 282.773 31.0443 282.927 31.2314C283.082 31.4186 283.468 31.6261 284.087 31.854C284.714 32.0737 285.027 32.3097 285.027 32.562V32.6963C285.027 33.0218 284.669 33.2985 283.953 33.5264C283.245 33.7461 282.789 34.1001 282.585 34.5884C282.187 35.5731 281.987 37.1763 281.987 39.3979C281.987 40.4396 282.166 41.1476 282.524 41.522C282.744 41.7498 283.184 41.9085 283.843 41.998C284.502 42.0876 284.832 42.3195 284.832 42.6938ZM289.812 36.5781V36.7734C289.812 37.0176 290.036 37.1396 290.483 37.1396H290.776L290.85 37.1274L291.448 37.0786C292.074 36.9891 292.481 36.9443 292.668 36.9443C293.556 36.9443 294.223 36.7775 294.67 36.4438C294.882 36.2811 294.988 35.9922 294.988 35.5771V35.4429C294.988 34.8325 294.784 34.3483 294.377 33.9902C293.979 33.6322 293.499 33.4531 292.937 33.4531H292.852L292.778 33.4653C291.989 33.4653 291.297 33.799 290.703 34.4663C290.109 35.1336 289.812 35.8376 289.812 36.5781ZM292.473 44.1587H292.205C290.65 44.1587 289.413 43.6663 288.494 42.6816C287.574 41.6888 287.114 40.3664 287.114 38.7144V38.1772C287.114 37.3879 287.269 36.5863 287.578 35.7725C288.205 34.1449 289.226 33.0218 290.642 32.4033C291.391 32.0697 292.152 31.9028 292.925 31.9028H293.45C294.516 31.9028 295.415 32.2609 296.147 32.9771C296.888 33.6851 297.258 34.6006 297.258 35.7236V35.9678C297.258 36.7653 296.941 37.3309 296.306 37.6646C295.867 37.9006 294.841 38.1366 293.23 38.3726C291.619 38.6086 290.74 38.751 290.593 38.7998C290.105 38.9707 289.861 39.2962 289.861 39.7764C289.861 40.4437 290.146 41.0133 290.715 41.4854C291.285 41.9574 292.05 42.1934 293.01 42.1934C293.458 42.1934 294.068 42.0713 294.841 41.8271C295.614 41.583 296.062 41.4609 296.184 41.4609C296.599 41.4609 296.807 41.64 296.807 41.998C296.807 42.4782 296.339 42.9583 295.403 43.4385C294.467 43.9186 293.49 44.1587 292.473 44.1587ZM307.683 37.1885C307.187 36.6839 306.938 35.9759 306.938 35.0645C306.938 34.153 307.345 33.3717 308.159 32.7207C308.973 32.0615 309.982 31.7319 311.187 31.7319H311.504C312.57 31.7319 313.416 31.8825 314.043 32.1836C314.678 32.4847 314.995 32.9364 314.995 33.5386C314.995 34.1326 314.731 34.4297 314.202 34.4297C314.063 34.4297 313.673 34.2669 313.03 33.9414C312.387 33.6077 311.781 33.4409 311.211 33.4409C310.641 33.4409 310.181 33.5711 309.832 33.8315C309.49 34.0838 309.319 34.4338 309.319 34.8813C309.319 35.3289 309.559 35.7196 310.039 36.0532C310.316 36.2485 310.967 36.5578 311.992 36.981C313.026 37.4041 313.762 37.811 314.202 38.2017C314.91 38.8283 315.264 39.6299 315.264 40.6064C315.264 41.583 314.849 42.4212 314.019 43.1211C313.188 43.8128 312.11 44.1587 310.784 44.1587H310.466C309.132 44.1587 308.131 43.9674 307.463 43.585C306.796 43.1943 306.462 42.6898 306.462 42.0713C306.462 41.4447 306.723 41.1313 307.244 41.1313C307.415 41.1313 307.858 41.3511 308.574 41.7905C309.299 42.23 310.007 42.4497 310.698 42.4497C311.398 42.4497 311.923 42.3032 312.273 42.0103C312.623 41.7091 312.798 41.3348 312.798 40.8872C312.798 40.4315 312.578 40.0327 312.139 39.6909C311.903 39.5037 311.227 39.166 310.112 38.6777C308.997 38.1813 308.188 37.6849 307.683 37.1885ZM324.26 42.6938C324.26 43.0194 324.061 43.3123 323.662 43.5728C323.271 43.825 322.738 43.9512 322.063 43.9512C320.802 43.9512 319.915 43.4832 319.402 42.5474C319.084 41.9614 318.926 40.5902 318.926 38.4336C318.926 36.277 318.889 35.0238 318.816 34.6738C318.743 34.3239 318.539 33.9821 318.206 33.6484C317.872 33.3148 317.705 33.0584 317.705 32.8794C317.705 32.8143 318.1 32.387 318.889 31.5977C319.06 31.4268 319.231 31.0483 319.402 30.4624C319.581 29.8765 319.707 29.4899 319.78 29.3027C320.024 28.7168 320.346 28.4238 320.745 28.4238H320.94C321.29 28.4238 321.538 28.5581 321.685 28.8267C321.742 28.9325 321.827 29.3149 321.941 29.9741C322.063 30.6252 322.201 31.0443 322.356 31.2314C322.511 31.4186 322.897 31.6261 323.516 31.854C324.142 32.0737 324.456 32.3097 324.456 32.562V32.6963C324.456 33.0218 324.097 33.2985 323.381 33.5264C322.673 33.7461 322.218 34.1001 322.014 34.5884C321.615 35.5731 321.416 37.1763 321.416 39.3979C321.416 40.4396 321.595 41.1476 321.953 41.522C322.173 41.7498 322.612 41.9085 323.271 41.998C323.931 42.0876 324.26 42.3195 324.26 42.6938ZM329.143 38.8486C329.143 39.9147 329.387 40.8018 329.875 41.5098C330.364 42.2178 330.962 42.5718 331.67 42.5718H332.036C332.874 42.5718 333.582 42.1486 334.16 41.3022C334.746 40.4559 335.039 39.3288 335.039 37.9209V37.1152C335.039 36.0247 334.799 35.1336 334.319 34.4419C333.847 33.742 333.236 33.3921 332.488 33.3921H332.244C331.373 33.3921 330.64 33.8234 330.046 34.686C329.46 35.5487 329.167 36.5781 329.167 37.7744L329.143 38.0552V38.8486ZM331.902 44.2319H331.511C330.087 44.2319 328.927 43.7355 328.032 42.7427C327.137 41.7498 326.689 40.342 326.689 38.519L326.702 38.3115C326.702 36.3096 327.231 34.7308 328.289 33.5752C328.842 32.9648 329.473 32.5173 330.181 32.2324C330.897 31.9395 331.576 31.793 332.219 31.793H332.817C333.534 31.793 334.221 31.9517 334.88 32.269C336.768 33.1805 337.712 34.8976 337.712 37.4204V37.6157C337.704 38.4377 337.57 39.2718 337.31 40.1182C336.789 41.7865 335.788 42.9665 334.307 43.6582C333.485 44.0407 332.683 44.2319 331.902 44.2319ZM339.861 38.9219V38.3604C339.861 37.335 340.02 36.4276 340.337 35.6382C340.947 34.1082 341.883 33.0503 343.145 32.4644C343.966 32.0737 344.817 31.8784 345.696 31.8784H345.964C346.933 31.8784 347.734 32.0697 348.369 32.4521C349.004 32.8346 349.321 33.3026 349.321 33.856C349.321 34.4989 349.012 34.8203 348.394 34.8203C348.28 34.8203 347.881 34.6413 347.197 34.2832C346.514 33.9333 345.952 33.7583 345.513 33.7583C345.505 33.7583 345.496 33.7583 345.488 33.7583C344.528 33.7583 343.775 34.1733 343.23 35.0034C342.693 35.8335 342.424 36.9159 342.424 38.2505C342.424 39.5851 342.709 40.5739 343.279 41.2168C343.857 41.8597 344.658 42.1812 345.684 42.1812C346.107 42.1812 346.689 42.0632 347.429 41.8271C348.17 41.583 348.621 41.4609 348.784 41.4609C349.118 41.4609 349.285 41.6359 349.285 41.9858C349.285 42.4578 348.817 42.9339 347.881 43.4141C346.945 43.8942 346.025 44.1343 345.122 44.1343C342.705 44.1343 341.106 43.1821 340.325 41.2778C340.015 40.521 339.861 39.7357 339.861 38.9219ZM356.218 38.6533C355.494 38.6533 355.132 39.6095 355.132 41.522C355.132 42.3521 354.961 42.9136 354.619 43.2065C354.277 43.4995 353.866 43.646 353.386 43.646C352.906 43.646 352.564 43.5646 352.361 43.4019C352.166 43.2391 352.068 42.9339 352.068 42.4863C352.068 42.4538 352.113 42.1323 352.202 41.522C352.292 40.9116 352.406 39.0155 352.544 35.8335C352.682 32.6434 352.751 30.6943 352.751 29.9863C352.751 29.2783 352.731 28.8185 352.69 28.6069C352.658 28.3872 352.601 28.1227 352.52 27.8135C352.446 27.5042 352.41 27.3089 352.41 27.2275C352.41 26.8695 352.528 26.6253 352.764 26.4951C353.008 26.3568 353.411 26.2876 353.972 26.2876C354.542 26.2876 354.916 26.4341 355.095 26.7271C355.282 27.02 355.376 27.61 355.376 28.4971L355.217 33.6729C355.217 35.154 355.388 35.8945 355.73 35.8945C355.999 35.8945 356.658 35.3411 357.708 34.2344C358.765 33.1276 359.307 32.5661 359.331 32.5498C359.657 32.3219 360.149 32.208 360.808 32.208C361.467 32.208 361.797 32.3708 361.797 32.6963C361.797 32.859 361.272 33.5467 360.222 34.7593C359.172 35.9718 358.647 36.863 358.647 37.4326C358.647 37.7419 359.246 38.7591 360.442 40.4844C360.873 41.1029 361.28 41.64 361.663 42.0957C362.053 42.5433 362.249 42.8647 362.249 43.0601C362.249 43.467 361.87 43.6704 361.113 43.6704C360.365 43.6704 359.787 43.4548 359.38 43.0234C359.282 42.9176 359.054 42.5596 358.696 41.9492C358.338 41.3389 358.086 40.9116 357.939 40.6675C357.101 39.3247 356.528 38.6533 356.218 38.6533ZM372.612 27.0322C372.612 26.4382 373.17 26.1411 374.285 26.1411H374.504C374.968 26.1411 375.286 26.255 375.457 26.4829C375.627 26.7026 375.713 27.134 375.713 27.7769L375.615 29.5957C375.591 29.8805 375.579 30.0352 375.579 30.0596L375.554 30.5234C375.538 30.8245 375.522 31.1297 375.505 31.439L375.469 31.9028L375.432 32.5986C375.302 35.0726 375.237 36.8996 375.237 38.0796C375.237 39.2515 375.29 40.0938 375.396 40.6064C375.501 41.1191 375.668 41.5545 375.896 41.9126C376.124 42.2707 376.238 42.5067 376.238 42.6206V42.7671C376.238 43.1252 376.059 43.41 375.701 43.6216C375.351 43.8332 374.875 43.939 374.272 43.939H373.638C373.263 43.939 372.934 43.8332 372.649 43.6216C372.372 43.4019 372.234 43.1536 372.234 42.877V42.5474L372.307 42.0347C372.405 41.3267 372.462 40.7977 372.478 40.4478C372.502 40.0897 372.539 39.5973 372.588 38.9707C372.637 38.3359 372.714 36.9891 372.82 34.9302C372.934 32.8631 372.991 31.7523 372.991 31.5977L373.04 30.6821L373.064 29.7788C373.064 28.9162 372.987 28.3018 372.832 27.9355C372.686 27.5612 372.612 27.2601 372.612 27.0322ZM381.292 36.5781V36.7734C381.292 37.0176 381.515 37.1396 381.963 37.1396H382.256L382.329 37.1274L382.927 37.0786C383.554 36.9891 383.961 36.9443 384.148 36.9443C385.035 36.9443 385.702 36.7775 386.15 36.4438C386.361 36.2811 386.467 35.9922 386.467 35.5771V35.4429C386.467 34.8325 386.264 34.3483 385.857 33.9902C385.458 33.6322 384.978 33.4531 384.417 33.4531H384.331L384.258 33.4653C383.468 33.4653 382.777 33.799 382.183 34.4663C381.589 35.1336 381.292 35.8376 381.292 36.5781ZM383.953 44.1587H383.684C382.13 44.1587 380.893 43.6663 379.973 42.6816C379.054 41.6888 378.594 40.3664 378.594 38.7144V38.1772C378.594 37.3879 378.748 36.5863 379.058 35.7725C379.684 34.1449 380.706 33.0218 382.122 32.4033C382.87 32.0697 383.631 31.9028 384.404 31.9028H384.929C385.995 31.9028 386.895 32.2609 387.627 32.9771C388.368 33.6851 388.738 34.6006 388.738 35.7236V35.9678C388.738 36.7653 388.42 37.3309 387.786 37.6646C387.346 37.9006 386.321 38.1366 384.709 38.3726C383.098 38.6086 382.219 38.751 382.073 38.7998C381.584 38.9707 381.34 39.2962 381.34 39.7764C381.34 40.4437 381.625 41.0133 382.195 41.4854C382.764 41.9574 383.529 42.1934 384.49 42.1934C384.937 42.1934 385.548 42.0713 386.321 41.8271C387.094 41.583 387.542 41.4609 387.664 41.4609C388.079 41.4609 388.286 41.64 388.286 41.998C388.286 42.4782 387.818 42.9583 386.882 43.4385C385.946 43.9186 384.97 44.1587 383.953 44.1587ZM395.83 43.9878C395.236 43.9878 394.76 43.6094 394.402 42.8525C394.133 42.2829 393.653 40.9198 392.961 38.7632C392.278 36.5985 391.826 35.3086 391.606 34.8936C391.061 33.86 390.789 33.2008 390.789 32.916C390.789 32.623 390.878 32.4115 391.057 32.2812C391.236 32.1429 391.615 32.0737 392.192 32.0737C393.12 32.0737 393.735 32.4155 394.036 33.0991C394.093 33.2212 394.182 33.5996 394.304 34.2344C394.426 34.861 394.548 35.4144 394.67 35.8945L394.915 36.9688C395.525 39.6543 395.993 40.9971 396.318 40.9971C396.538 40.9971 397.157 39.6258 398.174 36.8833C398.638 35.63 398.935 34.6453 399.065 33.9292C399.203 33.2049 399.293 32.8021 399.333 32.7207C399.569 32.2731 400.066 32.0493 400.823 32.0493H401.067C401.62 32.0493 401.897 32.3301 401.897 32.8916C401.897 33.2904 401.775 33.6973 401.531 34.1123C401.287 34.5273 400.717 35.805 399.822 37.9453C398.935 40.0775 398.28 41.526 397.856 42.291C397.433 43.0479 397.083 43.5199 396.807 43.707C396.538 43.8942 396.213 43.9878 395.83 43.9878ZM405.974 36.5781V36.7734C405.974 37.0176 406.198 37.1396 406.646 37.1396H406.938L407.012 37.1274L407.61 37.0786C408.236 36.9891 408.643 36.9443 408.831 36.9443C409.718 36.9443 410.385 36.7775 410.833 36.4438C411.044 36.2811 411.15 35.9922 411.15 35.5771V35.4429C411.15 34.8325 410.946 34.3483 410.54 33.9902C410.141 33.6322 409.661 33.4531 409.099 33.4531H409.014L408.94 33.4653C408.151 33.4653 407.459 33.799 406.865 34.4663C406.271 35.1336 405.974 35.8376 405.974 36.5781ZM408.635 44.1587H408.367C406.812 44.1587 405.575 43.6663 404.656 42.6816C403.736 41.6888 403.276 40.3664 403.276 38.7144V38.1772C403.276 37.3879 403.431 36.5863 403.74 35.7725C404.367 34.1449 405.388 33.0218 406.804 32.4033C407.553 32.0697 408.314 31.9028 409.087 31.9028H409.612C410.678 31.9028 411.577 32.2609 412.31 32.9771C413.05 33.6851 413.42 34.6006 413.42 35.7236V35.9678C413.42 36.7653 413.103 37.3309 412.468 37.6646C412.029 37.9006 411.003 38.1366 409.392 38.3726C407.781 38.6086 406.902 38.751 406.755 38.7998C406.267 38.9707 406.023 39.2962 406.023 39.7764C406.023 40.4437 406.308 41.0133 406.877 41.4854C407.447 41.9574 408.212 42.1934 409.172 42.1934C409.62 42.1934 410.23 42.0713 411.003 41.8271C411.777 41.583 412.224 41.4609 412.346 41.4609C412.761 41.4609 412.969 41.64 412.969 41.998C412.969 42.4782 412.501 42.9583 411.565 43.4385C410.629 43.9186 409.653 44.1587 408.635 44.1587ZM416.753 27.0322C416.753 26.4382 417.31 26.1411 418.425 26.1411H418.645C419.109 26.1411 419.426 26.255 419.597 26.4829C419.768 26.7026 419.854 27.134 419.854 27.7769L419.756 29.5957C419.731 29.8805 419.719 30.0352 419.719 30.0596L419.695 30.5234C419.679 30.8245 419.662 31.1297 419.646 31.439L419.609 31.9028L419.573 32.5986C419.443 35.0726 419.377 36.8996 419.377 38.0796C419.377 39.2515 419.43 40.0938 419.536 40.6064C419.642 41.1191 419.809 41.5545 420.037 41.9126C420.264 42.2707 420.378 42.5067 420.378 42.6206V42.7671C420.378 43.1252 420.199 43.41 419.841 43.6216C419.491 43.8332 419.015 43.939 418.413 43.939H417.778C417.404 43.939 417.074 43.8332 416.79 43.6216C416.513 43.4019 416.375 43.1536 416.375 42.877V42.5474L416.448 42.0347C416.545 41.3267 416.602 40.7977 416.619 40.4478C416.643 40.0897 416.68 39.5973 416.729 38.9707C416.777 38.3359 416.855 36.9891 416.96 34.9302C417.074 32.8631 417.131 31.7523 417.131 31.5977L417.18 30.6821L417.205 29.7788C417.205 28.9162 417.127 28.3018 416.973 27.9355C416.826 27.5612 416.753 27.2601 416.753 27.0322ZM424.163 37.1885C423.666 36.6839 423.418 35.9759 423.418 35.0645C423.418 34.153 423.825 33.3717 424.639 32.7207C425.452 32.0615 426.462 31.7319 427.666 31.7319H427.983C429.049 31.7319 429.896 31.8825 430.522 32.1836C431.157 32.4847 431.475 32.9364 431.475 33.5386C431.475 34.1326 431.21 34.4297 430.681 34.4297C430.543 34.4297 430.152 34.2669 429.509 33.9414C428.866 33.6077 428.26 33.4409 427.69 33.4409C427.121 33.4409 426.661 33.5711 426.311 33.8315C425.969 34.0838 425.798 34.4338 425.798 34.8813C425.798 35.3289 426.038 35.7196 426.519 36.0532C426.795 36.2485 427.446 36.5578 428.472 36.981C429.505 37.4041 430.242 37.811 430.681 38.2017C431.389 38.8283 431.743 39.6299 431.743 40.6064C431.743 41.583 431.328 42.4212 430.498 43.1211C429.668 43.8128 428.59 44.1587 427.263 44.1587H426.946C425.611 44.1587 424.61 43.9674 423.943 43.585C423.276 43.1943 422.942 42.6898 422.942 42.0713C422.942 41.4447 423.202 41.1313 423.723 41.1313C423.894 41.1313 424.338 41.3511 425.054 41.7905C425.778 42.23 426.486 42.4497 427.178 42.4497C427.878 42.4497 428.403 42.3032 428.752 42.0103C429.102 41.7091 429.277 41.3348 429.277 40.8872C429.277 40.4315 429.058 40.0327 428.618 39.6909C428.382 39.5037 427.707 39.166 426.592 38.6777C425.477 38.1813 424.667 37.6849 424.163 37.1885ZM436.077 44.1953H435.698C435.291 44.1953 434.974 44.1017 434.746 43.9146C434.526 43.7274 434.417 43.4792 434.417 43.1699C434.4 43.1048 434.392 43.0519 434.392 43.0112L434.368 42.8037V42.584L434.38 42.5352V42.4253C434.396 42.3602 434.404 42.3073 434.404 42.2666C434.404 41.9004 434.526 41.6156 434.771 41.4121C435.023 41.2005 435.299 41.0947 435.601 41.0947L435.857 41.0581H436.187C437.074 41.0581 437.517 41.522 437.517 42.4497V42.6206L437.468 43.0356C437.468 43.41 437.326 43.6989 437.041 43.9023C436.764 44.0977 436.443 44.1953 436.077 44.1953ZM458.879 29.9985L458.635 28.4727C458.635 27.9844 458.851 27.6182 459.282 27.374C459.722 27.1217 460.263 26.9956 460.906 26.9956H461.345C461.606 26.9956 461.85 27.077 462.078 27.2397C462.314 27.4025 462.432 27.61 462.432 27.8623C462.432 28.1146 462.326 28.4686 462.114 28.9243C461.903 29.3719 461.764 29.9456 461.699 30.6455C461.341 34.7389 461.162 37.9535 461.162 40.2891C461.162 40.8669 461.215 41.3063 461.321 41.6074L461.479 41.9736C461.642 42.3398 461.724 42.5758 461.724 42.6816C461.724 43.1292 461.577 43.4385 461.284 43.6094C460.991 43.7721 460.54 43.8535 459.929 43.8535C459.319 43.8535 458.835 43.7314 458.477 43.4873C458.127 43.235 457.952 42.9787 457.952 42.7183C457.952 42.4578 458.045 41.9777 458.232 41.2778C458.42 40.5698 458.513 39.634 458.513 38.4702C458.513 37.3065 458.359 36.6188 458.049 36.4072C457.74 36.1875 456.715 36.0776 454.973 36.0776C453.24 36.0776 452.157 36.2892 451.726 36.7124C451.295 37.1356 451.079 38.4458 451.079 40.6431C451.079 40.9523 451.095 41.2331 451.128 41.4854L451.189 41.8516C451.254 42.2259 451.287 42.4497 451.287 42.5229C451.287 43.3612 450.526 43.7803 449.004 43.7803C448.491 43.7803 448.125 43.6867 447.905 43.4995C447.694 43.3042 447.588 43.0885 447.588 42.8525C447.588 42.6084 447.698 42.2666 447.917 41.8271C448.145 41.3796 448.292 40.9157 448.357 40.4355C448.691 37.8314 448.857 34.5151 448.857 30.4868C448.857 30.0067 448.756 29.5306 448.552 29.0586C448.357 28.5785 448.259 28.2936 448.259 28.2041C448.259 27.4717 448.841 27.1055 450.005 27.1055C450.632 27.1055 451.112 27.2072 451.445 27.4106C451.787 27.6141 451.958 27.8379 451.958 28.082C451.958 28.318 451.913 28.6029 451.824 28.9365C451.734 29.2702 451.661 29.612 451.604 29.9619C451.547 30.3118 451.519 30.971 451.519 31.9395C451.519 32.9079 451.698 33.5264 452.056 33.7949C452.422 34.0635 453.504 34.1978 455.303 34.1978C457.109 34.1978 458.143 33.974 458.403 33.5264C458.721 32.973 458.879 31.797 458.879 29.9985ZM468.877 42.4619H469.194C469.862 42.4619 470.448 42.2381 470.952 41.7905C471.465 41.3348 471.721 40.8099 471.721 40.2158L471.746 40.0571V39.8984L471.77 39.52V38.8242C471.77 38.3522 471.53 38.1162 471.05 38.1162H470.5L470.415 38.1284L469.939 38.165C469.711 38.1976 469.548 38.2139 469.451 38.2139C468.792 38.2139 468.181 38.4621 467.62 38.9585C467.229 39.3084 467.034 39.8049 467.034 40.4478V40.6919C467.034 41.2371 467.209 41.6685 467.559 41.9858C467.917 42.3032 468.356 42.4619 468.877 42.4619ZM466.155 34.6616C465.61 34.6616 465.337 34.3117 465.337 33.6118C465.337 33.091 465.776 32.6393 466.655 32.2568C467.542 31.8662 468.462 31.6709 469.414 31.6709H470.024C470.846 31.6709 471.571 31.8255 472.197 32.1348C472.824 32.4359 473.3 32.8468 473.625 33.3677C473.959 33.8885 474.163 34.568 474.236 35.4062C474.252 35.6016 474.26 36.5496 474.26 38.2505C474.26 39.9513 474.281 40.932 474.321 41.1924C474.37 41.4447 474.5 41.7539 474.712 42.1201C474.932 42.4863 475.042 42.7874 475.042 43.0234C475.042 43.2594 474.928 43.4629 474.7 43.6338C474.48 43.7965 474.159 43.8779 473.735 43.8779C473.312 43.8779 472.852 43.7762 472.356 43.5728C471.86 43.3612 471.497 43.2554 471.27 43.2554C471.245 43.2554 470.838 43.4019 470.049 43.6948C469.259 43.9797 468.592 44.1221 468.047 44.1221H467.778C466.867 44.1221 466.09 43.8332 465.447 43.2554C464.812 42.6776 464.495 41.8556 464.495 40.7896C464.495 39.7235 464.845 38.8934 465.544 38.2993C466.244 37.6971 467.095 37.2861 468.096 37.0664C468.397 37.0013 468.897 36.9159 469.597 36.8101C470.297 36.7043 470.773 36.5944 471.025 36.4805C471.465 36.277 471.685 35.8945 471.685 35.333C471.685 34.7633 471.497 34.3198 471.123 34.0024C470.749 33.6769 470.301 33.5142 469.78 33.5142C469.268 33.5142 468.592 33.7054 467.754 34.0879C466.916 34.4704 466.383 34.6616 466.155 34.6616ZM489.092 42.5352C489.092 43.1374 488.567 43.4385 487.517 43.4385C486.923 43.4385 486.524 43.2961 486.321 43.0112C486.223 42.8729 486.174 42.5474 486.174 42.0347L486.138 41.2534C486.081 40.3989 486.052 39.5404 486.052 38.6777C486.052 36.8141 485.889 35.5649 485.564 34.9302C485.247 34.2873 484.709 33.9658 483.953 33.9658C483.448 33.9658 482.98 34.1164 482.549 34.4175C482.126 34.7186 481.8 35.1377 481.572 35.6748C481.1 36.7734 480.864 38.8039 480.864 41.7661C480.864 42.4416 480.734 42.9176 480.474 43.1943C480.221 43.471 479.896 43.6094 479.497 43.6094H479.253C478.341 43.6094 477.886 43.2472 477.886 42.5229V42.23C477.886 42.1405 477.935 41.9451 478.032 41.644L478.228 41.0825C478.423 40.4233 478.521 39.0114 478.521 36.8467L478.582 33.2212C478.582 32.7573 478.834 32.5254 479.338 32.5254C479.843 32.5254 480.339 32.6922 480.828 33.0259C481.324 33.3595 481.637 33.5264 481.768 33.5264C481.906 33.5264 482.146 33.4328 482.488 33.2456C483.635 32.619 484.555 32.3057 485.247 32.3057H485.564C486.809 32.3057 487.684 32.8672 488.188 33.9902C488.433 34.5192 488.555 35.6585 488.555 37.4082V37.4937C488.555 37.6401 488.551 37.7866 488.542 37.9331C488.542 38.3319 488.542 38.5394 488.542 38.5557C488.542 38.7103 488.542 38.8608 488.542 39.0073C488.542 39.1213 488.542 39.2311 488.542 39.3369C488.542 39.9635 488.563 40.3908 488.604 40.6187C488.66 40.9279 488.754 41.2493 488.884 41.583C489.023 41.9492 489.092 42.2666 489.092 42.5352ZM494.036 38.0796V39.0073C494.036 39.9757 494.255 40.7855 494.695 41.4365C495.142 42.0794 495.667 42.4009 496.27 42.4009H496.611C497.539 42.4009 498.255 42.0306 498.76 41.29C499.272 40.5495 499.529 39.4468 499.529 37.9819C499.545 37.8029 499.553 37.6727 499.553 37.5913L499.578 37.3472L499.59 36.8345V35.9678C499.59 34.3076 498.927 33.4775 497.6 33.4775H497.124C496.261 33.4775 495.529 33.9129 494.927 34.7837C494.333 35.6545 494.036 36.7531 494.036 38.0796ZM491.692 38.6411C491.692 37.7948 491.842 36.9321 492.144 36.0532C492.445 35.1743 492.868 34.4256 493.413 33.8071C493.958 33.1805 494.573 32.7288 495.256 32.4521C495.94 32.1673 496.75 32.0249 497.686 32.0249C498.63 32.0249 499.215 31.854 499.443 31.5122C499.671 31.1623 499.785 30.3932 499.785 29.2051C499.785 28.9854 499.749 28.6924 499.675 28.3262C499.602 27.96 499.565 27.7484 499.565 27.6914C499.565 27.3415 499.716 27.0241 500.017 26.7393C500.318 26.4463 500.713 26.2998 501.201 26.2998H501.445C501.828 26.2998 502.113 26.3893 502.3 26.5684C502.487 26.7474 502.581 27.1217 502.581 27.6914V28.8267L502.556 29.4004C502.548 29.5957 502.544 29.8805 502.544 30.2549C502.544 30.6211 502.483 31.8011 502.361 33.7949C502.239 35.7887 502.178 37.16 502.178 37.9087L502.166 38.2017C502.157 38.397 502.153 38.5841 502.153 38.7632L502.141 39.0439C502.141 39.0439 502.141 39.3613 502.141 39.9961C502.141 40.818 502.206 41.4365 502.336 41.8516C502.467 42.2666 502.532 42.5636 502.532 42.7427C502.532 42.9217 502.43 43.1089 502.227 43.3042C502.023 43.4995 501.706 43.5972 501.274 43.5972C500.851 43.5972 500.44 43.528 500.042 43.3896C499.643 43.2432 499.35 43.1699 499.163 43.1699C498.975 43.1699 498.731 43.2269 498.43 43.3408C497.519 43.6745 496.685 43.8413 495.928 43.8413C495.911 43.8413 495.895 43.8413 495.879 43.8413H495.598C494.369 43.8413 493.409 43.3937 492.717 42.4985C492.034 41.5952 491.692 40.4111 491.692 38.9463V38.6411ZM506.377 27.0322C506.377 26.4382 506.934 26.1411 508.049 26.1411H508.269C508.733 26.1411 509.05 26.255 509.221 26.4829C509.392 26.7026 509.478 27.134 509.478 27.7769L509.38 29.5957C509.355 29.8805 509.343 30.0352 509.343 30.0596L509.319 30.5234C509.303 30.8245 509.286 31.1297 509.27 31.439L509.233 31.9028L509.197 32.5986C509.067 35.0726 509.001 36.8996 509.001 38.0796C509.001 39.2515 509.054 40.0938 509.16 40.6064C509.266 41.1191 509.433 41.5545 509.661 41.9126C509.889 42.2707 510.002 42.5067 510.002 42.6206V42.7671C510.002 43.1252 509.823 43.41 509.465 43.6216C509.115 43.8332 508.639 43.939 508.037 43.939H507.402C507.028 43.939 506.698 43.8332 506.414 43.6216C506.137 43.4019 505.999 43.1536 505.999 42.877V42.5474L506.072 42.0347C506.169 41.3267 506.226 40.7977 506.243 40.4478C506.267 40.0897 506.304 39.5973 506.353 38.9707C506.401 38.3359 506.479 36.9891 506.584 34.9302C506.698 32.8631 506.755 31.7523 506.755 31.5977L506.804 30.6821L506.829 29.7788C506.829 28.9162 506.751 28.3018 506.597 27.9355C506.45 27.5612 506.377 27.2601 506.377 27.0322ZM515.056 36.5781V36.7734C515.056 37.0176 515.28 37.1396 515.728 37.1396H516.021L516.094 37.1274L516.692 37.0786C517.319 36.9891 517.725 36.9443 517.913 36.9443C518.8 36.9443 519.467 36.7775 519.915 36.4438C520.126 36.2811 520.232 35.9922 520.232 35.5771V35.4429C520.232 34.8325 520.028 34.3483 519.622 33.9902C519.223 33.6322 518.743 33.4531 518.181 33.4531H518.096L518.022 33.4653C517.233 33.4653 516.541 33.799 515.947 34.4663C515.353 35.1336 515.056 35.8376 515.056 36.5781ZM517.717 44.1587H517.449C515.894 44.1587 514.657 43.6663 513.738 42.6816C512.818 41.6888 512.358 40.3664 512.358 38.7144V38.1772C512.358 37.3879 512.513 36.5863 512.822 35.7725C513.449 34.1449 514.47 33.0218 515.886 32.4033C516.635 32.0697 517.396 31.9028 518.169 31.9028H518.694C519.76 31.9028 520.659 32.2609 521.392 32.9771C522.132 33.6851 522.502 34.6006 522.502 35.7236V35.9678C522.502 36.7653 522.185 37.3309 521.55 37.6646C521.111 37.9006 520.085 38.1366 518.474 38.3726C516.863 38.6086 515.984 38.751 515.837 38.7998C515.349 38.9707 515.105 39.2962 515.105 39.7764C515.105 40.4437 515.39 41.0133 515.959 41.4854C516.529 41.9574 517.294 42.1934 518.254 42.1934C518.702 42.1934 519.312 42.0713 520.085 41.8271C520.859 41.583 521.306 41.4609 521.428 41.4609C521.843 41.4609 522.051 41.64 522.051 41.998C522.051 42.4782 521.583 42.9583 520.647 43.4385C519.711 43.9186 518.735 44.1587 517.717 44.1587ZM526.018 37.1885C525.522 36.6839 525.273 35.9759 525.273 35.0645C525.273 34.153 525.68 33.3717 526.494 32.7207C527.308 32.0615 528.317 31.7319 529.521 31.7319H529.839C530.905 31.7319 531.751 31.8825 532.378 32.1836C533.013 32.4847 533.33 32.9364 533.33 33.5386C533.33 34.1326 533.066 34.4297 532.537 34.4297C532.398 34.4297 532.008 34.2669 531.365 33.9414C530.722 33.6077 530.116 33.4409 529.546 33.4409C528.976 33.4409 528.516 33.5711 528.167 33.8315C527.825 34.0838 527.654 34.4338 527.654 34.8813C527.654 35.3289 527.894 35.7196 528.374 36.0532C528.651 36.2485 529.302 36.5578 530.327 36.981C531.361 37.4041 532.097 37.811 532.537 38.2017C533.245 38.8283 533.599 39.6299 533.599 40.6064C533.599 41.583 533.184 42.4212 532.354 43.1211C531.523 43.8128 530.445 44.1587 529.119 44.1587H528.801C527.467 44.1587 526.466 43.9674 525.798 43.585C525.131 43.1943 524.797 42.6898 524.797 42.0713C524.797 41.4447 525.058 41.1313 525.579 41.1313C525.75 41.1313 526.193 41.3511 526.909 41.7905C527.633 42.23 528.341 42.4497 529.033 42.4497C529.733 42.4497 530.258 42.3032 530.608 42.0103C530.958 41.7091 531.133 41.3348 531.133 40.8872C531.133 40.4315 530.913 40.0327 530.474 39.6909C530.238 39.5037 529.562 39.166 528.447 38.6777C527.332 38.1813 526.523 37.6849 526.018 37.1885ZM547.051 28.1309V28.2773C547.051 28.6924 546.929 29.0464 546.685 29.3394C546.449 29.6242 546.082 29.7666 545.586 29.7666H545.391L545.012 29.7178C544.792 29.7178 544.581 29.616 544.377 29.4126C544.174 29.2091 544.072 28.904 544.072 28.4971V28.3506L544.133 27.9111C544.133 27.7402 544.235 27.5286 544.438 27.2764C544.65 27.0241 544.919 26.8979 545.244 26.8979L545.525 26.8613H545.769L546.111 26.9102C546.322 26.9102 546.53 27.016 546.733 27.2275C546.945 27.431 547.051 27.7321 547.051 28.1309ZM546.477 33.2822L546.343 36.5659L546.318 36.8955L546.282 37.8965V38.3726C546.282 39.5444 546.314 40.3135 546.379 40.6797C546.453 41.0459 546.587 41.404 546.782 41.7539C546.978 42.0957 547.075 42.3439 547.075 42.4985V42.6084C547.075 43.0072 546.872 43.3245 546.465 43.5605C546.058 43.7965 545.505 43.9146 544.805 43.9146H544.5C544.093 43.9146 543.783 43.825 543.572 43.646C543.36 43.4588 543.254 43.2594 543.254 43.0479V42.7793C543.254 42.6735 543.348 42.2992 543.535 41.6562C543.722 41.0052 543.816 40.1222 543.816 39.0073C543.84 38.6899 543.853 38.4702 543.853 38.3481L543.889 37.6768L543.914 37.3472C543.954 36.7775 543.975 36.334 543.975 36.0166L543.987 35.5283C543.987 34.918 543.885 34.3768 543.682 33.9048C543.486 33.4328 543.389 33.1398 543.389 33.0259C543.389 32.4399 543.942 32.147 545.049 32.147H545.488C545.903 32.147 546.172 32.2568 546.294 32.4766C546.416 32.6882 546.477 32.9567 546.477 33.2822ZM561.284 42.5352C561.284 43.1374 560.759 43.4385 559.709 43.4385C559.115 43.4385 558.717 43.2961 558.513 43.0112C558.416 42.8729 558.367 42.5474 558.367 42.0347L558.33 41.2534C558.273 40.3989 558.245 39.5404 558.245 38.6777C558.245 36.8141 558.082 35.5649 557.756 34.9302C557.439 34.2873 556.902 33.9658 556.145 33.9658C555.64 33.9658 555.173 34.1164 554.741 34.4175C554.318 34.7186 553.993 35.1377 553.765 35.6748C553.293 36.7734 553.057 38.8039 553.057 41.7661C553.057 42.4416 552.926 42.9176 552.666 43.1943C552.414 43.471 552.088 43.6094 551.689 43.6094H551.445C550.534 43.6094 550.078 43.2472 550.078 42.5229V42.23C550.078 42.1405 550.127 41.9451 550.225 41.644L550.42 41.0825C550.615 40.4233 550.713 39.0114 550.713 36.8467L550.774 33.2212C550.774 32.7573 551.026 32.5254 551.531 32.5254C552.035 32.5254 552.532 32.6922 553.02 33.0259C553.516 33.3595 553.83 33.5264 553.96 33.5264C554.098 33.5264 554.338 33.4328 554.68 33.2456C555.828 32.619 556.747 32.3057 557.439 32.3057H557.756C559.001 32.3057 559.876 32.8672 560.381 33.9902C560.625 34.5192 560.747 35.6585 560.747 37.4082V37.4937C560.747 37.6401 560.743 37.7866 560.735 37.9331C560.735 38.3319 560.735 38.5394 560.735 38.5557C560.735 38.7103 560.735 38.8608 560.735 39.0073C560.735 39.1213 560.735 39.2311 560.735 39.3369C560.735 39.9635 560.755 40.3908 560.796 40.6187C560.853 40.9279 560.946 41.2493 561.077 41.583C561.215 41.9492 561.284 42.2666 561.284 42.5352ZM568.511 43.9878C567.917 43.9878 567.441 43.6094 567.083 42.8525C566.814 42.2829 566.334 40.9198 565.642 38.7632C564.958 36.5985 564.507 35.3086 564.287 34.8936C563.742 33.86 563.469 33.2008 563.469 32.916C563.469 32.623 563.559 32.4115 563.738 32.2812C563.917 32.1429 564.295 32.0737 564.873 32.0737C565.801 32.0737 566.415 32.4155 566.716 33.0991C566.773 33.2212 566.863 33.5996 566.985 34.2344C567.107 34.861 567.229 35.4144 567.351 35.8945L567.595 36.9688C568.206 39.6543 568.674 40.9971 568.999 40.9971C569.219 40.9971 569.837 39.6258 570.854 36.8833C571.318 35.63 571.615 34.6453 571.746 33.9292C571.884 33.2049 571.973 32.8021 572.014 32.7207C572.25 32.2731 572.747 32.0493 573.503 32.0493H573.748C574.301 32.0493 574.578 32.3301 574.578 32.8916C574.578 33.2904 574.456 33.6973 574.211 34.1123C573.967 34.5273 573.398 35.805 572.502 37.9453C571.615 40.0775 570.96 41.526 570.537 42.291C570.114 43.0479 569.764 43.5199 569.487 43.707C569.219 43.8942 568.893 43.9878 568.511 43.9878ZM578.655 36.5781V36.7734C578.655 37.0176 578.879 37.1396 579.326 37.1396H579.619L579.692 37.1274L580.291 37.0786C580.917 36.9891 581.324 36.9443 581.511 36.9443C582.398 36.9443 583.066 36.7775 583.513 36.4438C583.725 36.2811 583.831 35.9922 583.831 35.5771V35.4429C583.831 34.8325 583.627 34.3483 583.22 33.9902C582.821 33.6322 582.341 33.4531 581.78 33.4531H581.694L581.621 33.4653C580.832 33.4653 580.14 33.799 579.546 34.4663C578.952 35.1336 578.655 35.8376 578.655 36.5781ZM581.316 44.1587H581.047C579.493 44.1587 578.256 43.6663 577.336 42.6816C576.417 41.6888 575.957 40.3664 575.957 38.7144V38.1772C575.957 37.3879 576.112 36.5863 576.421 35.7725C577.048 34.1449 578.069 33.0218 579.485 32.4033C580.234 32.0697 580.994 31.9028 581.768 31.9028H582.292C583.359 31.9028 584.258 32.2609 584.99 32.9771C585.731 33.6851 586.101 34.6006 586.101 35.7236V35.9678C586.101 36.7653 585.784 37.3309 585.149 37.6646C584.709 37.9006 583.684 38.1366 582.073 38.3726C580.461 38.6086 579.583 38.751 579.436 38.7998C578.948 38.9707 578.704 39.2962 578.704 39.7764C578.704 40.4437 578.988 41.0133 579.558 41.4854C580.128 41.9574 580.893 42.1934 581.853 42.1934C582.301 42.1934 582.911 42.0713 583.684 41.8271C584.457 41.583 584.905 41.4609 585.027 41.4609C585.442 41.4609 585.649 41.64 585.649 41.998C585.649 42.4782 585.181 42.9583 584.246 43.4385C583.31 43.9186 582.333 44.1587 581.316 44.1587ZM599.956 42.5352C599.956 43.1374 599.431 43.4385 598.381 43.4385C597.787 43.4385 597.389 43.2961 597.185 43.0112C597.087 42.8729 597.039 42.5474 597.039 42.0347L597.002 41.2534C596.945 40.3989 596.917 39.5404 596.917 38.6777C596.917 36.8141 596.754 35.5649 596.428 34.9302C596.111 34.2873 595.574 33.9658 594.817 33.9658C594.312 33.9658 593.844 34.1164 593.413 34.4175C592.99 34.7186 592.664 35.1377 592.437 35.6748C591.965 36.7734 591.729 38.8039 591.729 41.7661C591.729 42.4416 591.598 42.9176 591.338 43.1943C591.086 43.471 590.76 43.6094 590.361 43.6094H590.117C589.206 43.6094 588.75 43.2472 588.75 42.5229V42.23C588.75 42.1405 588.799 41.9451 588.896 41.644L589.092 41.0825C589.287 40.4233 589.385 39.0114 589.385 36.8467L589.446 33.2212C589.446 32.7573 589.698 32.5254 590.203 32.5254C590.707 32.5254 591.204 32.6922 591.692 33.0259C592.188 33.3595 592.502 33.5264 592.632 33.5264C592.77 33.5264 593.01 33.4328 593.352 33.2456C594.5 32.619 595.419 32.3057 596.111 32.3057H596.428C597.673 32.3057 598.548 32.8672 599.053 33.9902C599.297 34.5192 599.419 35.6585 599.419 37.4082V37.4937C599.419 37.6401 599.415 37.7866 599.407 37.9331C599.407 38.3319 599.407 38.5394 599.407 38.5557C599.407 38.7103 599.407 38.8608 599.407 39.0073C599.407 39.1213 599.407 39.2311 599.407 39.3369C599.407 39.9635 599.427 40.3908 599.468 40.6187C599.525 40.9279 599.618 41.2493 599.749 41.583C599.887 41.9492 599.956 42.2666 599.956 42.5352ZM609.124 42.6938C609.124 43.0194 608.924 43.3123 608.525 43.5728C608.135 43.825 607.602 43.9512 606.926 43.9512C605.665 43.9512 604.778 43.4832 604.265 42.5474C603.948 41.9614 603.789 40.5902 603.789 38.4336C603.789 36.277 603.752 35.0238 603.679 34.6738C603.606 34.3239 603.403 33.9821 603.069 33.6484C602.735 33.3148 602.568 33.0584 602.568 32.8794C602.568 32.8143 602.963 32.387 603.752 31.5977C603.923 31.4268 604.094 31.0483 604.265 30.4624C604.444 29.8765 604.57 29.4899 604.644 29.3027C604.888 28.7168 605.209 28.4238 605.608 28.4238H605.803C606.153 28.4238 606.401 28.5581 606.548 28.8267C606.605 28.9325 606.69 29.3149 606.804 29.9741C606.926 30.6252 607.065 31.0443 607.219 31.2314C607.374 31.4186 607.76 31.6261 608.379 31.854C609.006 32.0737 609.319 32.3097 609.319 32.562V32.6963C609.319 33.0218 608.961 33.2985 608.245 33.5264C607.537 33.7461 607.081 34.1001 606.877 34.5884C606.479 35.5731 606.279 37.1763 606.279 39.3979C606.279 40.4396 606.458 41.1476 606.816 41.522C607.036 41.7498 607.476 41.9085 608.135 41.998C608.794 42.0876 609.124 42.3195 609.124 42.6938ZM614.006 38.8486C614.006 39.9147 614.25 40.8018 614.739 41.5098C615.227 42.2178 615.825 42.5718 616.533 42.5718H616.899C617.738 42.5718 618.446 42.1486 619.023 41.3022C619.609 40.4559 619.902 39.3288 619.902 37.9209V37.1152C619.902 36.0247 619.662 35.1336 619.182 34.4419C618.71 33.742 618.1 33.3921 617.351 33.3921H617.107C616.236 33.3921 615.504 33.8234 614.91 34.686C614.324 35.5487 614.031 36.5781 614.031 37.7744L614.006 38.0552V38.8486ZM616.765 44.2319H616.375C614.95 44.2319 613.791 43.7355 612.896 42.7427C612 41.7498 611.553 40.342 611.553 38.519L611.565 38.3115C611.565 36.3096 612.094 34.7308 613.152 33.5752C613.705 32.9648 614.336 32.5173 615.044 32.2324C615.76 31.9395 616.44 31.793 617.083 31.793H617.681C618.397 31.793 619.084 31.9517 619.744 32.269C621.632 33.1805 622.576 34.8976 622.576 37.4204V37.6157C622.568 38.4377 622.433 39.2718 622.173 40.1182C621.652 41.7865 620.651 42.9665 619.17 43.6582C618.348 44.0407 617.546 44.2319 616.765 44.2319ZM625.884 37.6523V36.7124C625.884 35.5812 625.823 34.7552 625.701 34.2344C625.579 33.7054 625.518 33.3351 625.518 33.1235C625.518 32.6271 625.88 32.3789 626.604 32.3789C627.328 32.3789 627.853 32.5132 628.179 32.7817C628.268 32.855 628.382 32.9974 628.521 33.209C628.667 33.4206 628.797 33.5264 628.911 33.5264C628.936 33.5264 629.29 33.3188 629.973 32.9038C630.657 32.4888 631.243 32.2812 631.731 32.2812H631.914C632.313 32.2812 632.63 32.3789 632.866 32.5742C633.102 32.7614 633.22 32.9933 633.22 33.27V33.4287C633.22 33.7624 633.102 34.0024 632.866 34.1489C632.638 34.2954 632.272 34.3687 631.768 34.3687C630.62 34.3687 629.782 34.7715 629.253 35.5771C628.732 36.3828 628.472 37.807 628.472 39.8496C628.472 40.1426 628.521 40.5942 628.618 41.2046C628.724 41.8149 628.777 42.2747 628.777 42.584C628.777 42.8932 628.61 43.1903 628.276 43.4751C627.943 43.7599 627.52 43.9023 627.007 43.9023H626.592C626.144 43.9023 625.798 43.7965 625.554 43.585C625.318 43.3652 625.2 43.1007 625.2 42.7915C625.2 42.4741 625.257 42.1527 625.371 41.8271C625.68 40.9482 625.835 39.9798 625.835 38.9219C625.868 38.3359 625.884 37.9128 625.884 37.6523ZM639.385 43.9512C639.385 43.528 639.096 42.7874 638.518 41.7295C637.94 40.6634 637.456 39.6706 637.065 38.751C635.731 35.6178 635.063 33.8071 635.063 33.3188C635.063 33.0991 635.19 32.8997 635.442 32.7207C635.702 32.5417 636.134 32.4521 636.736 32.4521C637.338 32.4521 637.761 32.7085 638.005 33.2212C638.03 33.2782 638.115 33.6322 638.262 34.2832C639.368 38.3278 640.06 40.4478 640.337 40.6431C640.76 40.6431 641.338 39.6543 642.07 37.6768C642.567 36.334 642.872 35.2069 642.986 34.2954C643.108 33.384 643.206 32.859 643.279 32.7207C643.507 32.2975 643.979 32.0859 644.695 32.0859C645.419 32.0859 645.781 32.3667 645.781 32.9282C645.781 33.327 645.635 33.86 645.342 34.5273C645.049 35.1947 644.772 35.9189 644.512 36.7002C643.022 41.1598 641.944 43.9756 641.277 45.1475C640.61 46.3275 639.906 47.2552 639.165 47.9307C638.424 48.6143 637.68 48.9561 636.931 48.9561C636.191 48.9561 635.82 48.7445 635.82 48.3213C635.82 47.9469 636.199 47.6051 636.956 47.2959C637.721 46.9867 638.254 46.6286 638.555 46.2217C639.108 45.4811 639.385 44.7243 639.385 43.9512ZM666.509 43.3774C665.931 43.3774 665.431 43.0153 665.007 42.291C664.731 41.8109 664.291 40.8343 663.689 39.3613C663.095 37.8802 662.757 37.1396 662.676 37.1396C662.651 37.1396 662.314 37.8314 661.663 39.2148C661.012 40.5902 660.527 41.5342 660.21 42.0469C659.705 42.8525 659.221 43.2554 658.757 43.2554C658.464 43.2554 658.155 43.1414 657.83 42.9136C657.512 42.6776 657.256 42.2951 657.061 41.7661C657.036 41.701 656.849 41.0011 656.499 39.6665C656.157 38.3319 655.803 37.0786 655.437 35.9067C655.079 34.7349 654.9 33.9414 654.9 33.5264C654.9 33.1113 654.989 32.8143 655.168 32.6353C655.347 32.4562 655.531 32.3667 655.718 32.3667C656.475 32.3667 657.008 32.68 657.317 33.3066C657.431 33.5345 657.577 34.1042 657.756 35.0156C658.611 38.3604 659.185 40.1344 659.478 40.3379C659.787 40.3379 660.238 39.3044 660.833 37.2373C661.077 36.391 661.235 35.63 661.309 34.9546C661.39 34.2791 661.443 33.8885 661.467 33.7827L661.577 33.3921C661.821 32.7492 662.306 32.4277 663.03 32.4277C663.762 32.4277 664.271 32.798 664.556 33.5386C664.67 33.8397 664.775 34.3687 664.873 35.1255C664.971 35.8742 665.109 36.627 665.288 37.3838C665.736 39.3206 666.09 40.2891 666.35 40.2891C666.667 40.2891 667.164 39.2759 667.839 37.2495C668.051 36.6147 668.271 35.8376 668.499 34.918C668.735 33.9984 668.897 33.445 668.987 33.2578C669.28 32.68 669.744 32.3911 670.378 32.3911C670.712 32.3911 670.879 32.7166 670.879 33.3677C670.879 33.7502 670.464 35.2069 669.634 37.7378C668.804 40.2606 668.303 41.7051 668.132 42.0713C667.961 42.4294 667.717 42.7386 667.4 42.999C667.083 43.2513 666.785 43.3774 666.509 43.3774ZM677.446 28.1309V28.2773C677.446 28.6924 677.324 29.0464 677.08 29.3394C676.844 29.6242 676.478 29.7666 675.981 29.7666H675.786L675.408 29.7178C675.188 29.7178 674.976 29.616 674.773 29.4126C674.569 29.2091 674.468 28.904 674.468 28.4971V28.3506L674.529 27.9111C674.529 27.7402 674.631 27.5286 674.834 27.2764C675.046 27.0241 675.314 26.8979 675.64 26.8979L675.92 26.8613H676.165L676.506 26.9102C676.718 26.9102 676.925 27.016 677.129 27.2275C677.34 27.431 677.446 27.7321 677.446 28.1309ZM676.873 33.2822L676.738 36.5659L676.714 36.8955L676.677 37.8965V38.3726C676.677 39.5444 676.71 40.3135 676.775 40.6797C676.848 41.0459 676.982 41.404 677.178 41.7539C677.373 42.0957 677.471 42.3439 677.471 42.4985V42.6084C677.471 43.0072 677.267 43.3245 676.86 43.5605C676.453 43.7965 675.9 43.9146 675.2 43.9146H674.895C674.488 43.9146 674.179 43.825 673.967 43.646C673.756 43.4588 673.65 43.2594 673.65 43.0479V42.7793C673.65 42.6735 673.743 42.2992 673.931 41.6562C674.118 41.0052 674.211 40.1222 674.211 39.0073C674.236 38.6899 674.248 38.4702 674.248 38.3481L674.285 37.6768L674.309 37.3472C674.35 36.7775 674.37 36.334 674.37 36.0166L674.382 35.5283C674.382 34.918 674.281 34.3768 674.077 33.9048C673.882 33.4328 673.784 33.1398 673.784 33.0259C673.784 32.4399 674.338 32.147 675.444 32.147H675.884C676.299 32.147 676.567 32.2568 676.689 32.4766C676.812 32.6882 676.873 32.9567 676.873 33.2822ZM686.858 42.6938C686.858 43.0194 686.659 43.3123 686.26 43.5728C685.869 43.825 685.336 43.9512 684.661 43.9512C683.399 43.9512 682.512 43.4832 682 42.5474C681.682 41.9614 681.523 40.5902 681.523 38.4336C681.523 36.277 681.487 35.0238 681.414 34.6738C681.34 34.3239 681.137 33.9821 680.803 33.6484C680.47 33.3148 680.303 33.0584 680.303 32.8794C680.303 32.8143 680.697 32.387 681.487 31.5977C681.658 31.4268 681.829 31.0483 682 30.4624C682.179 29.8765 682.305 29.4899 682.378 29.3027C682.622 28.7168 682.944 28.4238 683.342 28.4238H683.538C683.888 28.4238 684.136 28.5581 684.282 28.8267C684.339 28.9325 684.425 29.3149 684.539 29.9741C684.661 30.6252 684.799 31.0443 684.954 31.2314C685.108 31.4186 685.495 31.6261 686.113 31.854C686.74 32.0737 687.053 32.3097 687.053 32.562V32.6963C687.053 33.0218 686.695 33.2985 685.979 33.5264C685.271 33.7461 684.815 34.1001 684.612 34.5884C684.213 35.5731 684.014 37.1763 684.014 39.3979C684.014 40.4396 684.193 41.1476 684.551 41.522C684.771 41.7498 685.21 41.9085 685.869 41.998C686.528 42.0876 686.858 42.3195 686.858 42.6938ZM691.143 43.7681C690.182 43.7681 689.702 43.4263 689.702 42.7427C689.702 42.4334 689.775 41.9736 689.922 41.3633C690.076 40.7529 690.178 40.1914 690.227 39.6787C690.276 39.1579 690.361 37.4814 690.483 34.6494C690.614 31.8174 690.679 30.0921 690.679 29.4736V28.0332L690.605 27.0078C690.605 26.6253 690.955 26.4341 691.655 26.4341C692.363 26.4341 692.823 26.7067 693.035 27.252C693.14 27.5286 693.193 28.432 693.193 29.9619C693.193 31.4919 693.222 32.3626 693.279 32.5742C693.344 32.7858 693.511 32.8916 693.779 32.8916C693.812 32.8916 693.966 32.8428 694.243 32.7451L694.512 32.6475C695.382 32.3057 696.135 32.1348 696.77 32.1348C698.105 32.1348 699.053 32.6556 699.614 33.6973C699.989 34.389 700.176 35.8945 700.176 38.2139C700.176 39.3044 700.184 39.9513 700.2 40.1548C700.216 40.3582 700.269 40.7285 700.359 41.2656C700.448 41.7946 700.493 42.0876 700.493 42.1445C700.493 42.6247 700.383 42.9827 700.164 43.2188C699.952 43.4466 699.565 43.5605 699.004 43.5605C698.451 43.5605 698.088 43.3896 697.917 43.0479C697.828 42.8688 697.783 42.3521 697.783 41.4976L697.747 39.3491L697.783 37.4082C697.783 35.2354 697.148 34.1489 695.879 34.1489C694.756 34.1489 693.954 34.6209 693.474 35.5649C692.994 36.509 692.754 38.2586 692.754 40.814L692.791 42.1445C692.791 42.6003 692.648 42.9868 692.363 43.3042C692.078 43.6134 691.672 43.7681 691.143 43.7681ZM318.999 68.9219V68.3604C318.999 67.335 319.158 66.4276 319.475 65.6382C320.085 64.1082 321.021 63.0503 322.283 62.4644C323.105 62.0737 323.955 61.8784 324.834 61.8784H325.103C326.071 61.8784 326.873 62.0697 327.507 62.4521C328.142 62.8346 328.459 63.3026 328.459 63.856C328.459 64.4989 328.15 64.8203 327.532 64.8203C327.418 64.8203 327.019 64.6413 326.335 64.2832C325.652 63.9333 325.09 63.7583 324.651 63.7583C324.643 63.7583 324.635 63.7583 324.626 63.7583C323.666 63.7583 322.913 64.1733 322.368 65.0034C321.831 65.8335 321.562 66.9159 321.562 68.2505C321.562 69.5851 321.847 70.5739 322.417 71.2168C322.995 71.8597 323.796 72.1812 324.822 72.1812C325.245 72.1812 325.827 72.0632 326.567 71.8271C327.308 71.583 327.76 71.4609 327.922 71.4609C328.256 71.4609 328.423 71.6359 328.423 71.9858C328.423 72.4578 327.955 72.9339 327.019 73.4141C326.083 73.8942 325.164 74.1343 324.26 74.1343C321.843 74.1343 320.244 73.1821 319.463 71.2778C319.154 70.521 318.999 69.7357 318.999 68.9219ZM334.929 72.4619H335.247C335.914 72.4619 336.5 72.2381 337.004 71.7905C337.517 71.3348 337.773 70.8099 337.773 70.2158L337.798 70.0571V69.8984L337.822 69.52V68.8242C337.822 68.3522 337.582 68.1162 337.102 68.1162H336.553L336.467 68.1284L335.991 68.165C335.763 68.1976 335.601 68.2139 335.503 68.2139C334.844 68.2139 334.233 68.4621 333.672 68.9585C333.281 69.3084 333.086 69.8049 333.086 70.4478V70.6919C333.086 71.2371 333.261 71.6685 333.611 71.9858C333.969 72.3032 334.408 72.4619 334.929 72.4619ZM332.207 64.6616C331.662 64.6616 331.389 64.3117 331.389 63.6118C331.389 63.091 331.829 62.6393 332.708 62.2568C333.595 61.8662 334.514 61.6709 335.466 61.6709H336.077C336.899 61.6709 337.623 61.8255 338.25 62.1348C338.876 62.4359 339.352 62.8468 339.678 63.3677C340.011 63.8885 340.215 64.568 340.288 65.4062C340.304 65.6016 340.312 66.5496 340.312 68.2505C340.312 69.9513 340.333 70.932 340.374 71.1924C340.422 71.4447 340.553 71.7539 340.764 72.1201C340.984 72.4863 341.094 72.7874 341.094 73.0234C341.094 73.2594 340.98 73.4629 340.752 73.6338C340.532 73.7965 340.211 73.8779 339.788 73.8779C339.364 73.8779 338.905 73.7762 338.408 73.5728C337.912 73.3612 337.55 73.2554 337.322 73.2554C337.297 73.2554 336.89 73.4019 336.101 73.6948C335.312 73.9797 334.644 74.1221 334.099 74.1221H333.831C332.919 74.1221 332.142 73.8332 331.499 73.2554C330.864 72.6776 330.547 71.8556 330.547 70.7896C330.547 69.7235 330.897 68.8934 331.597 68.2993C332.297 67.6971 333.147 67.2861 334.148 67.0664C334.449 67.0013 334.95 66.9159 335.649 66.8101C336.349 66.7043 336.825 66.5944 337.078 66.4805C337.517 66.277 337.737 65.8945 337.737 65.333C337.737 64.7633 337.55 64.3198 337.175 64.0024C336.801 63.6769 336.353 63.5142 335.833 63.5142C335.32 63.5142 334.644 63.7054 333.806 64.0879C332.968 64.4704 332.435 64.6616 332.207 64.6616ZM344.719 67.6523V66.7124C344.719 65.5812 344.658 64.7552 344.536 64.2344C344.414 63.7054 344.353 63.3351 344.353 63.1235C344.353 62.6271 344.715 62.3789 345.439 62.3789C346.164 62.3789 346.689 62.5132 347.014 62.7817C347.104 62.855 347.218 62.9974 347.356 63.209C347.502 63.4206 347.633 63.5264 347.747 63.5264C347.771 63.5264 348.125 63.3188 348.809 62.9038C349.492 62.4888 350.078 62.2812 350.566 62.2812H350.75C351.148 62.2812 351.466 62.3789 351.702 62.5742C351.938 62.7614 352.056 62.9933 352.056 63.27V63.4287C352.056 63.7624 351.938 64.0024 351.702 64.1489C351.474 64.2954 351.108 64.3687 350.603 64.3687C349.456 64.3687 348.617 64.7715 348.088 65.5771C347.568 66.3828 347.307 67.807 347.307 69.8496C347.307 70.1426 347.356 70.5942 347.454 71.2046C347.559 71.8149 347.612 72.2747 347.612 72.584C347.612 72.8932 347.445 73.1903 347.112 73.4751C346.778 73.7599 346.355 73.9023 345.842 73.9023H345.427C344.98 73.9023 344.634 73.7965 344.39 73.585C344.154 73.3652 344.036 73.1007 344.036 72.7915C344.036 72.4741 344.093 72.1527 344.207 71.8271C344.516 70.9482 344.67 69.9798 344.67 68.9219C344.703 68.3359 344.719 67.9128 344.719 67.6523ZM356.108 66.5781V66.7734C356.108 67.0176 356.332 67.1396 356.78 67.1396H357.073L357.146 67.1274L357.744 67.0786C358.371 66.9891 358.778 66.9443 358.965 66.9443C359.852 66.9443 360.519 66.7775 360.967 66.4438C361.178 66.2811 361.284 65.9922 361.284 65.5771V65.4429C361.284 64.8325 361.081 64.3483 360.674 63.9902C360.275 63.6322 359.795 63.4531 359.233 63.4531H359.148L359.075 63.4653C358.285 63.4653 357.594 63.799 357 64.4663C356.405 65.1336 356.108 65.8376 356.108 66.5781ZM358.77 74.1587H358.501C356.947 74.1587 355.71 73.6663 354.79 72.6816C353.87 71.6888 353.411 70.3664 353.411 68.7144V68.1772C353.411 67.3879 353.565 66.5863 353.875 65.7725C354.501 64.1449 355.522 63.0218 356.938 62.4033C357.687 62.0697 358.448 61.9028 359.221 61.9028H359.746C360.812 61.9028 361.711 62.2609 362.444 62.9771C363.184 63.6851 363.555 64.6006 363.555 65.7236V65.9678C363.555 66.7653 363.237 67.3309 362.603 67.6646C362.163 67.9006 361.138 68.1366 359.526 68.3726C357.915 68.6086 357.036 68.751 356.89 68.7998C356.401 68.9707 356.157 69.2962 356.157 69.7764C356.157 70.4437 356.442 71.0133 357.012 71.4854C357.581 71.9574 358.346 72.1934 359.307 72.1934C359.754 72.1934 360.365 72.0713 361.138 71.8271C361.911 71.583 362.358 71.4609 362.48 71.4609C362.896 71.4609 363.103 71.64 363.103 71.998C363.103 72.4782 362.635 72.9583 361.699 73.4385C360.763 73.9186 359.787 74.1587 358.77 74.1587ZM367.925 74.1953H367.546C367.139 74.1953 366.822 74.1017 366.594 73.9146C366.375 73.7274 366.265 73.4792 366.265 73.1699C366.248 73.1048 366.24 73.0519 366.24 73.0112L366.216 72.8037V72.584L366.228 72.5352V72.4253C366.244 72.3602 366.252 72.3073 366.252 72.2666C366.252 71.9004 366.375 71.6156 366.619 71.4121C366.871 71.2005 367.148 71.0947 367.449 71.0947L367.705 71.0581H368.035C368.922 71.0581 369.365 71.522 369.365 72.4497V72.6206L369.316 73.0356C369.316 73.41 369.174 73.6989 368.889 73.9023C368.612 74.0977 368.291 74.1953 367.925 74.1953ZM388.921 61.6221V61.2681C388.921 60.381 388.628 59.6893 388.042 59.1929C387.456 58.6965 386.646 58.4482 385.613 58.4482H385.173C384.392 58.4482 383.883 58.554 383.647 58.7656C383.411 58.9772 383.293 59.4696 383.293 60.2427L383.269 60.4624L383.11 63.9536V64.3809C383.11 64.682 383.192 64.8854 383.354 64.9912C383.525 65.097 383.847 65.1499 384.319 65.1499L384.429 65.1377L384.856 65.1255L385.283 65.1011C386.309 65.1011 387.171 64.7796 387.871 64.1367C388.571 63.4857 388.921 62.6475 388.921 61.6221ZM383.037 70.2036L383.293 72.2422C383.293 72.6979 383.102 73.0601 382.72 73.3286C382.345 73.5972 381.845 73.7314 381.218 73.7314C380.095 73.7314 379.534 73.2839 379.534 72.3887C379.534 72.2015 379.648 71.8719 379.875 71.3999C380.103 70.9198 380.242 70.4396 380.291 69.9595C380.502 67.8761 380.608 65.3818 380.608 62.4766L380.62 62.1104C380.628 61.8662 380.632 61.6261 380.632 61.3901L380.657 60.3037C380.657 59.3841 380.632 58.7412 380.583 58.375L380.535 58.1187C380.494 57.8826 380.474 57.7321 380.474 57.667C380.474 57.3008 380.742 57.0607 381.279 56.9468C381.816 56.8328 382.919 56.7759 384.587 56.7759H385.735C388.486 56.7759 390.272 57.5815 391.094 59.1929C391.379 59.7707 391.521 60.4502 391.521 61.2314C391.521 62.6637 390.919 63.9699 389.714 65.1499C389.047 65.8009 388.713 66.3258 388.713 66.7246C388.713 67.1234 389.21 68.2261 390.203 70.0327C390.528 70.6187 390.935 71.1842 391.423 71.7295C391.912 72.2747 392.156 72.6613 392.156 72.8892V73.1333C392.156 73.5728 391.798 73.7925 391.082 73.7925C390.365 73.7925 389.832 73.6053 389.482 73.231C389.141 72.8485 388.563 71.9045 387.749 70.3989C386.943 68.8934 386.5 68.0918 386.418 67.9941C385.914 67.3919 385.365 67.0908 384.771 67.0908C384.176 67.0908 383.7 67.4001 383.342 68.0186C383.139 68.3685 383.037 69.0968 383.037 70.2036ZM397.075 66.5781V66.7734C397.075 67.0176 397.299 67.1396 397.747 67.1396H398.04L398.113 67.1274L398.711 67.0786C399.338 66.9891 399.744 66.9443 399.932 66.9443C400.819 66.9443 401.486 66.7775 401.934 66.4438C402.145 66.2811 402.251 65.9922 402.251 65.5771V65.4429C402.251 64.8325 402.048 64.3483 401.641 63.9902C401.242 63.6322 400.762 63.4531 400.2 63.4531H400.115L400.042 63.4653C399.252 63.4653 398.56 63.799 397.966 64.4663C397.372 65.1336 397.075 65.8376 397.075 66.5781ZM399.736 74.1587H399.468C397.913 74.1587 396.676 73.6663 395.757 72.6816C394.837 71.6888 394.377 70.3664 394.377 68.7144V68.1772C394.377 67.3879 394.532 66.5863 394.841 65.7725C395.468 64.1449 396.489 63.0218 397.905 62.4033C398.654 62.0697 399.415 61.9028 400.188 61.9028H400.713C401.779 61.9028 402.678 62.2609 403.411 62.9771C404.151 63.6851 404.521 64.6006 404.521 65.7236V65.9678C404.521 66.7653 404.204 67.3309 403.569 67.6646C403.13 67.9006 402.104 68.1366 400.493 68.3726C398.882 68.6086 398.003 68.751 397.856 68.7998C397.368 68.9707 397.124 69.2962 397.124 69.7764C397.124 70.4437 397.409 71.0133 397.979 71.4854C398.548 71.9574 399.313 72.1934 400.273 72.1934C400.721 72.1934 401.331 72.0713 402.104 71.8271C402.878 71.583 403.325 71.4609 403.447 71.4609C403.862 71.4609 404.07 71.64 404.07 71.998C404.07 72.4782 403.602 72.9583 402.666 73.4385C401.73 73.9186 400.754 74.1587 399.736 74.1587ZM407.854 57.0322C407.854 56.4382 408.411 56.1411 409.526 56.1411H409.746C410.21 56.1411 410.527 56.255 410.698 56.4829C410.869 56.7026 410.955 57.134 410.955 57.7769L410.857 59.5957C410.833 59.8805 410.82 60.0352 410.82 60.0596L410.796 60.5234C410.78 60.8245 410.763 61.1297 410.747 61.439L410.71 61.9028L410.674 62.5986C410.544 65.0726 410.479 66.8996 410.479 68.0796C410.479 69.2515 410.531 70.0938 410.637 70.6064C410.743 71.1191 410.91 71.5545 411.138 71.9126C411.366 72.2707 411.479 72.5067 411.479 72.6206V72.7671C411.479 73.1252 411.3 73.41 410.942 73.6216C410.592 73.8332 410.116 73.939 409.514 73.939H408.879C408.505 73.939 408.175 73.8332 407.891 73.6216C407.614 73.4019 407.476 73.1536 407.476 72.877V72.5474L407.549 72.0347C407.646 71.3267 407.703 70.7977 407.72 70.4478C407.744 70.0897 407.781 69.5973 407.83 68.9707C407.878 68.3359 407.956 66.9891 408.062 64.9302C408.175 62.8631 408.232 61.7523 408.232 61.5977L408.281 60.6821L408.306 59.7788C408.306 58.9162 408.228 58.3018 408.074 57.9355C407.927 57.5612 407.854 57.2601 407.854 57.0322ZM418.328 58.1309V58.2773C418.328 58.6924 418.206 59.0464 417.961 59.3394C417.725 59.6242 417.359 59.7666 416.863 59.7666H416.667L416.289 59.7178C416.069 59.7178 415.858 59.616 415.654 59.4126C415.451 59.2091 415.349 58.904 415.349 58.4971V58.3506L415.41 57.9111C415.41 57.7402 415.512 57.5286 415.715 57.2764C415.927 57.0241 416.195 56.8979 416.521 56.8979L416.802 56.8613H417.046L417.388 56.9102C417.599 56.9102 417.807 57.016 418.01 57.2275C418.222 57.431 418.328 57.7321 418.328 58.1309ZM417.754 63.2822L417.62 66.5659L417.595 66.8955L417.559 67.8965V68.3726C417.559 69.5444 417.591 70.3135 417.656 70.6797C417.729 71.0459 417.864 71.404 418.059 71.7539C418.254 72.0957 418.352 72.3439 418.352 72.4985V72.6084C418.352 73.0072 418.149 73.3245 417.742 73.5605C417.335 73.7965 416.781 73.9146 416.082 73.9146H415.776C415.369 73.9146 415.06 73.825 414.849 73.646C414.637 73.4588 414.531 73.2594 414.531 73.0479V72.7793C414.531 72.6735 414.625 72.2992 414.812 71.6562C414.999 71.0052 415.093 70.1222 415.093 69.0073C415.117 68.6899 415.129 68.4702 415.129 68.3481L415.166 67.6768L415.19 67.3472C415.231 66.7775 415.251 66.334 415.251 66.0166L415.264 65.5283C415.264 64.918 415.162 64.3768 414.958 63.9048C414.763 63.4328 414.666 63.1398 414.666 63.0259C414.666 62.4399 415.219 62.147 416.326 62.147H416.765C417.18 62.147 417.449 62.2568 417.571 62.4766C417.693 62.6882 417.754 62.9567 417.754 63.2822ZM425.261 72.4619H425.579C426.246 72.4619 426.832 72.2381 427.336 71.7905C427.849 71.3348 428.105 70.8099 428.105 70.2158L428.13 70.0571V69.8984L428.154 69.52V68.8242C428.154 68.3522 427.914 68.1162 427.434 68.1162H426.885L426.799 68.1284L426.323 68.165C426.095 68.1976 425.933 68.2139 425.835 68.2139C425.176 68.2139 424.565 68.4621 424.004 68.9585C423.613 69.3084 423.418 69.8049 423.418 70.4478V70.6919C423.418 71.2371 423.593 71.6685 423.943 71.9858C424.301 72.3032 424.74 72.4619 425.261 72.4619ZM422.539 64.6616C421.994 64.6616 421.721 64.3117 421.721 63.6118C421.721 63.091 422.161 62.6393 423.04 62.2568C423.927 61.8662 424.846 61.6709 425.798 61.6709H426.409C427.231 61.6709 427.955 61.8255 428.582 62.1348C429.208 62.4359 429.684 62.8468 430.01 63.3677C430.343 63.8885 430.547 64.568 430.62 65.4062C430.636 65.6016 430.645 66.5496 430.645 68.2505C430.645 69.9513 430.665 70.932 430.706 71.1924C430.754 71.4447 430.885 71.7539 431.096 72.1201C431.316 72.4863 431.426 72.7874 431.426 73.0234C431.426 73.2594 431.312 73.4629 431.084 73.6338C430.864 73.7965 430.543 73.8779 430.12 73.8779C429.696 73.8779 429.237 73.7762 428.74 73.5728C428.244 73.3612 427.882 73.2554 427.654 73.2554C427.629 73.2554 427.222 73.4019 426.433 73.6948C425.644 73.9797 424.976 74.1221 424.431 74.1221H424.163C423.251 74.1221 422.474 73.8332 421.831 73.2554C421.196 72.6776 420.879 71.8556 420.879 70.7896C420.879 69.7235 421.229 68.8934 421.929 68.2993C422.629 67.6971 423.479 67.2861 424.48 67.0664C424.781 67.0013 425.282 66.9159 425.981 66.8101C426.681 66.7043 427.157 66.5944 427.41 66.4805C427.849 66.277 428.069 65.8945 428.069 65.333C428.069 64.7633 427.882 64.3198 427.507 64.0024C427.133 63.6769 426.685 63.5142 426.165 63.5142C425.652 63.5142 424.976 63.7054 424.138 64.0879C423.3 64.4704 422.767 64.6616 422.539 64.6616ZM439.141 72.4497H439.507C440.394 72.4497 441.139 72.0103 441.741 71.1313C442.351 70.2443 442.656 69.0399 442.656 67.5181V67.1274L442.644 66.9932L442.632 66.7368C442.624 66.6473 442.62 66.5618 442.62 66.4805C442.62 65.6911 442.4 64.9993 441.96 64.4053C441.521 63.8031 440.984 63.502 440.349 63.502H439.995C439.596 63.502 439.157 63.6403 438.677 63.917C438.205 64.1937 437.871 64.5192 437.676 64.8936C437.244 65.7074 437.029 66.9932 437.029 68.751V69.874C437.053 70.1182 437.065 70.3216 437.065 70.4844C437.065 71.0703 437.244 71.5464 437.603 71.9126C437.969 72.2707 438.481 72.4497 439.141 72.4497ZM437.542 61.7197C437.542 62.029 437.59 62.2609 437.688 62.4155C437.794 62.5701 438.066 62.6475 438.506 62.6475C438.514 62.6475 438.778 62.5864 439.299 62.4644C439.828 62.3423 440.374 62.2812 440.935 62.2812C442.148 62.2812 443.161 62.7614 443.975 63.7217C444.788 64.682 445.195 65.8538 445.195 67.2373V68.1162C445.195 68.7998 445.061 69.5241 444.792 70.2891C444.516 71.054 444.125 71.7173 443.621 72.2788C442.587 73.4181 441.313 73.9878 439.8 73.9878H439.531C439.108 73.9878 438.563 73.9064 437.896 73.7437C437.228 73.5809 436.793 73.4995 436.589 73.4995L435.771 73.5728C434.933 73.5728 434.514 73.1536 434.514 72.3154V71.8149C434.514 71.3185 434.612 69.5078 434.807 66.3828C435.011 63.2578 435.112 61.264 435.112 60.4014C435.112 59.5387 435.043 58.8226 434.905 58.2529C434.766 57.6833 434.697 57.374 434.697 57.3252C434.697 56.6416 435.084 56.2998 435.857 56.2998H436.101C436.76 56.2998 437.179 56.4585 437.358 56.7759C437.537 57.0851 437.627 57.6629 437.627 58.5093L437.566 60.4502L437.542 60.9995V61.7197ZM448.455 57.0322C448.455 56.4382 449.012 56.1411 450.127 56.1411H450.347C450.811 56.1411 451.128 56.255 451.299 56.4829C451.47 56.7026 451.555 57.134 451.555 57.7769L451.458 59.5957C451.433 59.8805 451.421 60.0352 451.421 60.0596L451.396 60.5234C451.38 60.8245 451.364 61.1297 451.348 61.439L451.311 61.9028L451.274 62.5986C451.144 65.0726 451.079 66.8996 451.079 68.0796C451.079 69.2515 451.132 70.0938 451.238 70.6064C451.344 71.1191 451.51 71.5545 451.738 71.9126C451.966 72.2707 452.08 72.5067 452.08 72.6206V72.7671C452.08 73.1252 451.901 73.41 451.543 73.6216C451.193 73.8332 450.717 73.939 450.115 73.939H449.48C449.106 73.939 448.776 73.8332 448.491 73.6216C448.215 73.4019 448.076 73.1536 448.076 72.877V72.5474L448.149 72.0347C448.247 71.3267 448.304 70.7977 448.32 70.4478C448.345 70.0897 448.381 69.5973 448.43 68.9707C448.479 68.3359 448.556 66.9891 448.662 64.9302C448.776 62.8631 448.833 61.7523 448.833 61.5977L448.882 60.6821L448.906 59.7788C448.906 58.9162 448.829 58.3018 448.674 57.9355C448.528 57.5612 448.455 57.2601 448.455 57.0322ZM457.134 66.5781V66.7734C457.134 67.0176 457.358 67.1396 457.805 67.1396H458.098L458.171 67.1274L458.77 67.0786C459.396 66.9891 459.803 66.9443 459.99 66.9443C460.877 66.9443 461.545 66.7775 461.992 66.4438C462.204 66.2811 462.31 65.9922 462.31 65.5771V65.4429C462.31 64.8325 462.106 64.3483 461.699 63.9902C461.3 63.6322 460.82 63.4531 460.259 63.4531H460.173L460.1 63.4653C459.311 63.4653 458.619 63.799 458.025 64.4663C457.431 65.1336 457.134 65.8376 457.134 66.5781ZM459.795 74.1587H459.526C457.972 74.1587 456.735 73.6663 455.815 72.6816C454.896 71.6888 454.436 70.3664 454.436 68.7144V68.1772C454.436 67.3879 454.591 66.5863 454.9 65.7725C455.527 64.1449 456.548 63.0218 457.964 62.4033C458.713 62.0697 459.473 61.9028 460.247 61.9028H460.771C461.838 61.9028 462.737 62.2609 463.469 62.9771C464.21 63.6851 464.58 64.6006 464.58 65.7236V65.9678C464.58 66.7653 464.263 67.3309 463.628 67.6646C463.188 67.9006 462.163 68.1366 460.552 68.3726C458.94 68.6086 458.062 68.751 457.915 68.7998C457.427 68.9707 457.183 69.2962 457.183 69.7764C457.183 70.4437 457.467 71.0133 458.037 71.4854C458.607 71.9574 459.372 72.1934 460.332 72.1934C460.78 72.1934 461.39 72.0713 462.163 71.8271C462.936 71.583 463.384 71.4609 463.506 71.4609C463.921 71.4609 464.128 71.64 464.128 71.998C464.128 72.4782 463.66 72.9583 462.725 73.4385C461.789 73.9186 460.812 74.1587 459.795 74.1587ZM468.95 74.1953H468.572C468.165 74.1953 467.847 74.1017 467.62 73.9146C467.4 73.7274 467.29 73.4792 467.29 73.1699C467.274 73.1048 467.266 73.0519 467.266 73.0112L467.241 72.8037V72.584L467.253 72.5352V72.4253C467.27 72.3602 467.278 72.3073 467.278 72.2666C467.278 71.9004 467.4 71.6156 467.644 71.4121C467.896 71.2005 468.173 71.0947 468.474 71.0947L468.73 71.0581H469.06C469.947 71.0581 470.391 71.522 470.391 72.4497V72.6206L470.342 73.0356C470.342 73.41 470.199 73.6989 469.915 73.9023C469.638 74.0977 469.316 74.1953 468.95 74.1953Z" fill="black"/>
</svg>
