<svg width="759" height="87" viewBox="0 0 759 87" fill="none" xmlns="http://www.w3.org/2000/svg">
<rect x="0.0220947" width="758.367" height="87" rx="18" fill="#D9D9D9"/>
<path d="M36.0803 52C35.7303 52 35.5553 51.825 35.5553 51.475V43.243H24.5303C24.1803 43.243 24.0053 43.068 24.0053 42.718V24.532C24.0053 24.182 24.1803 24.007 24.5303 24.007H30.4733C30.8233 24.007 30.9983 24.182 30.9983 24.532V37.657H35.5553V24.532C35.5553 24.182 35.7303 24.007 36.0803 24.007H42.0233C42.3733 24.007 42.5483 24.182 42.5483 24.532V51.475C42.5483 51.825 42.3733 52 42.0233 52H36.0803Z" fill="#2ECC71"/>
<path d="M86.8133 32.395V32.0044C86.8133 30.7104 87.0167 29.4613 87.4236 28.2568C88.1886 26.0026 89.5355 24.4198 91.4642 23.5083C92.514 23.0119 93.6004 22.7637 94.7234 22.7637H95.1019C96.8027 22.7637 98.0112 23.0119 98.7274 23.5083C99.4435 24.0047 99.8016 24.6313 99.8016 25.3882C99.8016 25.8439 99.7121 26.1491 99.533 26.3037C99.354 26.4583 99.179 26.5356 99.0081 26.5356C98.8454 26.5356 98.4914 26.3485 97.9461 25.9741C97.409 25.5998 96.8882 25.3109 96.3836 25.1074C95.879 24.8958 95.2484 24.79 94.4915 24.79C93.7347 24.79 93.047 24.9772 92.4285 25.3516C90.5731 26.4827 89.6413 28.8062 89.6331 32.3218C89.6331 33.2332 89.7552 34.0552 89.9993 34.7876C90.7399 37.0011 92.2169 38.1079 94.4305 38.1079C95.5047 38.1079 96.7417 37.7173 98.1414 36.936C98.5809 36.6919 98.9064 36.5698 99.118 36.5698C99.4679 36.5698 99.6429 36.7692 99.6429 37.168C99.6429 37.4202 99.529 37.701 99.3011 38.0103C98.9023 38.5636 98.3815 38.999 97.7386 39.3164C96.6481 39.8617 95.4355 40.1343 94.1009 40.1343H93.7103C91.6269 40.1343 89.9505 39.4385 88.681 38.0469C88.0788 37.3877 87.6149 36.5576 87.2894 35.5566C86.972 34.5557 86.8133 33.5018 86.8133 32.395ZM104.452 34.8486C104.452 35.9147 104.697 36.8018 105.185 37.5098C105.673 38.2178 106.271 38.5718 106.979 38.5718H107.346C108.184 38.5718 108.892 38.1486 109.47 37.3022C110.055 36.4559 110.348 35.3288 110.348 33.9209V33.1152C110.348 32.0247 110.108 31.1336 109.628 30.4419C109.156 29.742 108.546 29.3921 107.797 29.3921H107.553C106.682 29.3921 105.95 29.8234 105.356 30.686C104.77 31.5487 104.477 32.5781 104.477 33.7744L104.452 34.0552V34.8486ZM107.211 40.2319H106.821C105.396 40.2319 104.237 39.7355 103.342 38.7427C102.446 37.7498 101.999 36.342 101.999 34.519L102.011 34.3115C102.011 32.3096 102.54 30.7308 103.598 29.5752C104.151 28.9648 104.782 28.5173 105.49 28.2324C106.206 27.9395 106.886 27.793 107.529 27.793H108.127C108.843 27.793 109.531 27.9517 110.19 28.269C112.078 29.1805 113.022 30.8976 113.022 33.4204V33.6157C113.014 34.4377 112.879 35.2718 112.619 36.1182C112.098 37.7865 111.097 38.9665 109.616 39.6582C108.794 40.0407 107.992 40.2319 107.211 40.2319ZM126.755 38.5352C126.755 39.1374 126.23 39.4385 125.18 39.4385C124.586 39.4385 124.187 39.2961 123.984 39.0112C123.886 38.8729 123.837 38.5474 123.837 38.0347L123.801 37.2534C123.744 36.3989 123.715 35.5404 123.715 34.6777C123.715 32.8141 123.552 31.5649 123.227 30.9302C122.909 30.2873 122.372 29.9658 121.616 29.9658C121.111 29.9658 120.643 30.1164 120.212 30.4175C119.789 30.7186 119.463 31.1377 119.235 31.6748C118.763 32.7734 118.527 34.8039 118.527 37.7661C118.527 38.4416 118.397 38.9176 118.137 39.1943C117.884 39.471 117.559 39.6094 117.16 39.6094H116.916C116.004 39.6094 115.549 39.2472 115.549 38.5229V38.23C115.549 38.1405 115.597 37.9451 115.695 37.644L115.89 37.0825C116.086 36.4233 116.183 35.0114 116.183 32.8467L116.244 29.2212C116.244 28.7573 116.497 28.5254 117.001 28.5254C117.506 28.5254 118.002 28.6922 118.491 29.0259C118.987 29.3595 119.3 29.5264 119.43 29.5264C119.569 29.5264 119.809 29.4328 120.151 29.2456C121.298 28.619 122.218 28.3057 122.909 28.3057H123.227C124.472 28.3057 125.347 28.8672 125.851 29.9902C126.096 30.5192 126.218 31.6585 126.218 33.4082V33.4937C126.218 33.6401 126.214 33.7866 126.205 33.9331C126.205 34.3319 126.205 34.5394 126.205 34.5557C126.205 34.7103 126.205 34.8608 126.205 35.0073C126.205 35.1213 126.205 35.2311 126.205 35.3369C126.205 35.9635 126.226 36.3908 126.266 36.6187C126.323 36.9279 126.417 37.2493 126.547 37.583C126.686 37.9492 126.755 38.2666 126.755 38.5352ZM130.502 33.1885C130.006 32.6839 129.758 31.9759 129.758 31.0645C129.758 30.153 130.165 29.3717 130.978 28.7207C131.792 28.0615 132.801 27.7319 134.006 27.7319H134.323C135.389 27.7319 136.235 27.8825 136.862 28.1836C137.497 28.4847 137.814 28.9364 137.814 29.5386C137.814 30.1326 137.55 30.4297 137.021 30.4297C136.882 30.4297 136.492 30.2669 135.849 29.9414C135.206 29.6077 134.6 29.4409 134.03 29.4409C133.46 29.4409 133.001 29.5711 132.651 29.8315C132.309 30.0838 132.138 30.4338 132.138 30.8813C132.138 31.3289 132.378 31.7196 132.858 32.0532C133.135 32.2485 133.786 32.5578 134.811 32.981C135.845 33.4041 136.581 33.811 137.021 34.2017C137.729 34.8283 138.083 35.6299 138.083 36.6064C138.083 37.583 137.668 38.4212 136.838 39.1211C136.008 39.8128 134.929 40.1587 133.603 40.1587H133.285C131.951 40.1587 130.95 39.9674 130.283 39.585C129.615 39.1943 129.282 38.6898 129.282 38.0713C129.282 37.4447 129.542 37.1313 130.063 37.1313C130.234 37.1313 130.677 37.3511 131.393 37.7905C132.118 38.23 132.826 38.4497 133.517 38.4497C134.217 38.4497 134.742 38.3032 135.092 38.0103C135.442 37.7091 135.617 37.3348 135.617 36.8872C135.617 36.4315 135.397 36.0327 134.958 35.6909C134.722 35.5037 134.046 35.166 132.931 34.6777C131.817 34.1813 131.007 33.6849 130.502 33.1885ZM144.675 24.1309V24.2773C144.675 24.6924 144.553 25.0464 144.308 25.3394C144.072 25.6242 143.706 25.7666 143.21 25.7666H143.014L142.636 25.7178C142.416 25.7178 142.205 25.616 142.001 25.4126C141.798 25.2091 141.696 24.904 141.696 24.4971V24.3506L141.757 23.9111C141.757 23.7402 141.859 23.5286 142.062 23.2764C142.274 23.0241 142.542 22.8979 142.868 22.8979L143.149 22.8613H143.393L143.735 22.9102C143.946 22.9102 144.154 23.016 144.357 23.2275C144.569 23.431 144.675 23.7321 144.675 24.1309ZM144.101 29.2822L143.967 32.5659L143.942 32.8955L143.906 33.8965V34.3726C143.906 35.5444 143.938 36.3135 144.003 36.6797C144.076 37.0459 144.211 37.404 144.406 37.7539C144.601 38.0957 144.699 38.3439 144.699 38.4985V38.6084C144.699 39.0072 144.496 39.3245 144.089 39.5605C143.682 39.7965 143.128 39.9146 142.429 39.9146H142.123C141.716 39.9146 141.407 39.825 141.196 39.646C140.984 39.4588 140.878 39.2594 140.878 39.0479V38.7793C140.878 38.6735 140.972 38.2992 141.159 37.6562C141.346 37.0052 141.44 36.1222 141.44 35.0073C141.464 34.6899 141.476 34.4702 141.476 34.3481L141.513 33.6768L141.537 33.3472C141.578 32.7775 141.598 32.334 141.598 32.0166L141.611 31.5283C141.611 30.918 141.509 30.3768 141.305 29.9048C141.11 29.4328 141.013 29.1398 141.013 29.0259C141.013 28.4399 141.566 28.147 142.673 28.147H143.112C143.527 28.147 143.796 28.2568 143.918 28.4766C144.04 28.6882 144.101 28.9567 144.101 29.2822ZM148.617 33.1885C148.121 32.6839 147.873 31.9759 147.873 31.0645C147.873 30.153 148.28 29.3717 149.094 28.7207C149.907 28.0615 150.916 27.7319 152.121 27.7319H152.438C153.504 27.7319 154.351 27.8825 154.977 28.1836C155.612 28.4847 155.93 28.9364 155.93 29.5386C155.93 30.1326 155.665 30.4297 155.136 30.4297C154.998 30.4297 154.607 30.2669 153.964 29.9414C153.321 29.6077 152.715 29.4409 152.145 29.4409C151.576 29.4409 151.116 29.5711 150.766 29.8315C150.424 30.0838 150.253 30.4338 150.253 30.8813C150.253 31.3289 150.493 31.7196 150.973 32.0532C151.25 32.2485 151.901 32.5578 152.927 32.981C153.96 33.4041 154.697 33.811 155.136 34.2017C155.844 34.8283 156.198 35.6299 156.198 36.6064C156.198 37.583 155.783 38.4212 154.953 39.1211C154.123 39.8128 153.045 40.1587 151.718 40.1587H151.401C150.066 40.1587 149.065 39.9674 148.398 39.585C147.73 39.1943 147.397 38.6898 147.397 38.0713C147.397 37.4447 147.657 37.1313 148.178 37.1313C148.349 37.1313 148.792 37.3511 149.509 37.7905C150.233 38.23 150.941 38.4497 151.633 38.4497C152.332 38.4497 152.857 38.3032 153.207 38.0103C153.557 37.7091 153.732 37.3348 153.732 36.8872C153.732 36.4315 153.513 36.0327 153.073 35.6909C152.837 35.5037 152.162 35.166 151.047 34.6777C149.932 34.1813 149.122 33.6849 148.617 33.1885ZM165.195 38.6938C165.195 39.0194 164.995 39.3123 164.596 39.5728C164.206 39.825 163.673 39.9512 162.997 39.9512C161.736 39.9512 160.849 39.4832 160.336 38.5474C160.019 37.9614 159.86 36.5902 159.86 34.4336C159.86 32.277 159.824 31.0238 159.75 30.6738C159.677 30.3239 159.474 29.9821 159.14 29.6484C158.806 29.3148 158.639 29.0584 158.639 28.8794C158.639 28.8143 159.034 28.387 159.824 27.5977C159.994 27.4268 160.165 27.0483 160.336 26.4624C160.515 25.8765 160.641 25.4899 160.715 25.3027C160.959 24.7168 161.28 24.4238 161.679 24.4238H161.874C162.224 24.4238 162.472 24.5581 162.619 24.8267C162.676 24.9325 162.761 25.3149 162.875 25.9741C162.997 26.6252 163.136 27.0443 163.29 27.2314C163.445 27.4186 163.832 27.6261 164.45 27.854C165.077 28.0737 165.39 28.3097 165.39 28.562V28.6963C165.39 29.0218 165.032 29.2985 164.316 29.5264C163.608 29.7461 163.152 30.1001 162.949 30.5884C162.55 31.5731 162.35 33.1763 162.35 35.3979C162.35 36.4396 162.529 37.1476 162.888 37.522C163.107 37.7498 163.547 37.9085 164.206 37.998C164.865 38.0876 165.195 38.3195 165.195 38.6938ZM170.175 32.5781V32.7734C170.175 33.0176 170.399 33.1396 170.846 33.1396H171.139L171.213 33.1274L171.811 33.0786C172.437 32.9891 172.844 32.9443 173.032 32.9443C173.919 32.9443 174.586 32.7775 175.034 32.4438C175.245 32.2811 175.351 31.9922 175.351 31.5771V31.4429C175.351 30.8325 175.147 30.3483 174.741 29.9902C174.342 29.6322 173.862 29.4531 173.3 29.4531H173.215L173.141 29.4653C172.352 29.4653 171.66 29.799 171.066 30.4663C170.472 31.1336 170.175 31.8376 170.175 32.5781ZM172.836 40.1587H172.568C171.013 40.1587 169.776 39.6663 168.857 38.6816C167.937 37.6888 167.477 36.3664 167.477 34.7144V34.1772C167.477 33.3879 167.632 32.5863 167.941 31.7725C168.568 30.1449 169.589 29.0218 171.005 28.4033C171.754 28.0697 172.515 27.9028 173.288 27.9028H173.813C174.879 27.9028 175.778 28.2609 176.511 28.9771C177.251 29.6851 177.621 30.6006 177.621 31.7236V31.9678C177.621 32.7653 177.304 33.3309 176.669 33.6646C176.23 33.9006 175.204 34.1366 173.593 34.3726C171.982 34.6086 171.103 34.751 170.956 34.7998C170.468 34.9707 170.224 35.2962 170.224 35.7764C170.224 36.4437 170.509 37.0133 171.078 37.4854C171.648 37.9574 172.413 38.1934 173.373 38.1934C173.821 38.1934 174.431 38.0713 175.204 37.8271C175.978 37.583 176.425 37.4609 176.547 37.4609C176.962 37.4609 177.17 37.64 177.17 37.998C177.17 38.4782 176.702 38.9583 175.766 39.4385C174.83 39.9186 173.853 40.1587 172.836 40.1587ZM191.476 38.5352C191.476 39.1374 190.951 39.4385 189.902 39.4385C189.308 39.4385 188.909 39.2961 188.705 39.0112C188.608 38.8729 188.559 38.5474 188.559 38.0347L188.522 37.2534C188.465 36.3989 188.437 35.5404 188.437 34.6777C188.437 32.8141 188.274 31.5649 187.949 30.9302C187.631 30.2873 187.094 29.9658 186.337 29.9658C185.833 29.9658 185.365 30.1164 184.933 30.4175C184.51 30.7186 184.185 31.1377 183.957 31.6748C183.485 32.7734 183.249 34.8039 183.249 37.7661C183.249 38.4416 183.119 38.9176 182.858 39.1943C182.606 39.471 182.28 39.6094 181.882 39.6094H181.638C180.726 39.6094 180.27 39.2472 180.27 38.5229V38.23C180.27 38.1405 180.319 37.9451 180.417 37.644L180.612 37.0825C180.807 36.4233 180.905 35.0114 180.905 32.8467L180.966 29.2212C180.966 28.7573 181.218 28.5254 181.723 28.5254C182.228 28.5254 182.724 28.6922 183.212 29.0259C183.709 29.3595 184.022 29.5264 184.152 29.5264C184.291 29.5264 184.531 29.4328 184.872 29.2456C186.02 28.619 186.939 28.3057 187.631 28.3057H187.949C189.194 28.3057 190.069 28.8672 190.573 29.9902C190.817 30.5192 190.939 31.6585 190.939 33.4082V33.4937C190.939 33.6401 190.935 33.7866 190.927 33.9331C190.927 34.3319 190.927 34.5394 190.927 34.5557C190.927 34.7103 190.927 34.8608 190.927 35.0073C190.927 35.1213 190.927 35.2311 190.927 35.3369C190.927 35.9635 190.947 36.3908 190.988 36.6187C191.045 36.9279 191.139 37.2493 191.269 37.583C191.407 37.9492 191.476 38.2666 191.476 38.5352ZM200.644 38.6938C200.644 39.0194 200.444 39.3123 200.046 39.5728C199.655 39.825 199.122 39.9512 198.447 39.9512C197.185 39.9512 196.298 39.4832 195.785 38.5474C195.468 37.9614 195.309 36.5902 195.309 34.4336C195.309 32.277 195.273 31.0238 195.2 30.6738C195.126 30.3239 194.923 29.9821 194.589 29.6484C194.256 29.3148 194.089 29.0584 194.089 28.8794C194.089 28.8143 194.483 28.387 195.273 27.5977C195.444 27.4268 195.615 27.0483 195.785 26.4624C195.964 25.8765 196.091 25.4899 196.164 25.3027C196.408 24.7168 196.729 24.4238 197.128 24.4238H197.324C197.673 24.4238 197.922 24.5581 198.068 24.8267C198.125 24.9325 198.211 25.3149 198.325 25.9741C198.447 26.6252 198.585 27.0443 198.74 27.2314C198.894 27.4186 199.281 27.6261 199.899 27.854C200.526 28.0737 200.839 28.3097 200.839 28.562V28.6963C200.839 29.0218 200.481 29.2985 199.765 29.5264C199.057 29.7461 198.601 30.1001 198.398 30.5884C197.999 31.5731 197.8 33.1763 197.8 35.3979C197.8 36.4396 197.979 37.1476 198.337 37.522C198.556 37.7498 198.996 37.9085 199.655 37.998C200.314 38.0876 200.644 38.3195 200.644 38.6938ZM204.123 23.0322C204.123 22.4382 204.68 22.1411 205.795 22.1411H206.015C206.479 22.1411 206.796 22.255 206.967 22.4829C207.138 22.7026 207.223 23.134 207.223 23.7769L207.126 25.5957C207.101 25.8805 207.089 26.0352 207.089 26.0596L207.065 26.5234C207.048 26.8245 207.032 27.1297 207.016 27.439L206.979 27.9028L206.943 28.5986C206.812 31.0726 206.747 32.8996 206.747 34.0796C206.747 35.2515 206.8 36.0938 206.906 36.6064C207.012 37.1191 207.179 37.5545 207.407 37.9126C207.634 38.2707 207.748 38.5067 207.748 38.6206V38.7671C207.748 39.1252 207.569 39.41 207.211 39.6216C206.861 39.8332 206.385 39.939 205.783 39.939H205.148C204.774 39.939 204.444 39.8332 204.159 39.6216C203.883 39.4019 203.744 39.1536 203.744 38.877V38.5474L203.818 38.0347C203.915 37.3267 203.972 36.7977 203.989 36.4478C204.013 36.0897 204.05 35.5973 204.098 34.9707C204.147 34.3359 204.225 32.9891 204.33 30.9302C204.444 28.8631 204.501 27.7523 204.501 27.5977L204.55 26.6821L204.575 25.7788C204.575 24.9162 204.497 24.3018 204.343 23.9355C204.196 23.5612 204.123 23.2601 204.123 23.0322ZM214.67 39.9512C214.67 39.528 214.381 38.7874 213.803 37.7295C213.225 36.6634 212.741 35.6706 212.35 34.751C211.016 31.6178 210.348 29.8071 210.348 29.3188C210.348 29.0991 210.475 28.8997 210.727 28.7207C210.987 28.5417 211.419 28.4521 212.021 28.4521C212.623 28.4521 213.046 28.7085 213.29 29.2212C213.315 29.2782 213.4 29.6322 213.547 30.2832C214.653 34.3278 215.345 36.4478 215.622 36.6431C216.045 36.6431 216.623 35.6543 217.355 33.6768C217.852 32.334 218.157 31.2069 218.271 30.2954C218.393 29.384 218.491 28.859 218.564 28.7207C218.792 28.2975 219.264 28.0859 219.98 28.0859C220.704 28.0859 221.066 28.3667 221.066 28.9282C221.066 29.327 220.92 29.86 220.627 30.5273C220.334 31.1947 220.057 31.9189 219.797 32.7002C218.307 37.1598 217.229 39.9756 216.562 41.1475C215.895 42.3275 215.191 43.2552 214.45 43.9307C213.709 44.6143 212.965 44.9561 212.216 44.9561C211.476 44.9561 211.105 44.7445 211.105 44.3213C211.105 43.9469 211.484 43.6051 212.241 43.2959C213.006 42.9867 213.539 42.6286 213.84 42.2217C214.393 41.4811 214.67 40.7243 214.67 39.9512ZM232.333 34.8486C232.333 35.9147 232.577 36.8018 233.066 37.5098C233.554 38.2178 234.152 38.5718 234.86 38.5718H235.226C236.065 38.5718 236.773 38.1486 237.35 37.3022C237.936 36.4559 238.229 35.3288 238.229 33.9209V33.1152C238.229 32.0247 237.989 31.1336 237.509 30.4419C237.037 29.742 236.427 29.3921 235.678 29.3921H235.434C234.563 29.3921 233.831 29.8234 233.237 30.686C232.651 31.5487 232.358 32.5781 232.358 33.7744L232.333 34.0552V34.8486ZM235.092 40.2319H234.701C233.277 40.2319 232.118 39.7355 231.222 38.7427C230.327 37.7498 229.88 36.342 229.88 34.519L229.892 34.3115C229.892 32.3096 230.421 30.7308 231.479 29.5752C232.032 28.9648 232.663 28.5173 233.371 28.2324C234.087 27.9395 234.767 27.793 235.409 27.793H236.008C236.724 27.793 237.411 27.9517 238.071 28.269C239.959 29.1805 240.903 30.8976 240.903 33.4204V33.6157C240.895 34.4377 240.76 35.2718 240.5 36.1182C239.979 37.7865 238.978 38.9665 237.497 39.6582C236.675 40.0407 235.873 40.2319 235.092 40.2319ZM254.636 38.5352C254.636 39.1374 254.111 39.4385 253.061 39.4385C252.467 39.4385 252.068 39.2961 251.865 39.0112C251.767 38.8729 251.718 38.5474 251.718 38.0347L251.681 37.2534C251.624 36.3989 251.596 35.5404 251.596 34.6777C251.596 32.8141 251.433 31.5649 251.108 30.9302C250.79 30.2873 250.253 29.9658 249.496 29.9658C248.992 29.9658 248.524 30.1164 248.093 30.4175C247.669 30.7186 247.344 31.1377 247.116 31.6748C246.644 32.7734 246.408 34.8039 246.408 37.7661C246.408 38.4416 246.278 38.9176 246.017 39.1943C245.765 39.471 245.44 39.6094 245.041 39.6094H244.797C243.885 39.6094 243.43 39.2472 243.43 38.5229V38.23C243.43 38.1405 243.478 37.9451 243.576 37.644L243.771 37.0825C243.967 36.4233 244.064 35.0114 244.064 32.8467L244.125 29.2212C244.125 28.7573 244.378 28.5254 244.882 28.5254C245.387 28.5254 245.883 28.6922 246.371 29.0259C246.868 29.3595 247.181 29.5264 247.311 29.5264C247.45 29.5264 247.69 29.4328 248.032 29.2456C249.179 28.619 250.099 28.3057 250.79 28.3057H251.108C252.353 28.3057 253.228 28.8672 253.732 29.9902C253.976 30.5192 254.098 31.6585 254.098 33.4082V33.4937C254.098 33.6401 254.094 33.7866 254.086 33.9331C254.086 34.3319 254.086 34.5394 254.086 34.5557C254.086 34.7103 254.086 34.8608 254.086 35.0073C254.086 35.1213 254.086 35.2311 254.086 35.3369C254.086 35.9635 254.107 36.3908 254.147 36.6187C254.204 36.9279 254.298 37.2493 254.428 37.583C254.566 37.9492 254.636 38.2666 254.636 38.5352ZM270.712 38.6938C270.712 39.0194 270.513 39.3123 270.114 39.5728C269.723 39.825 269.19 39.9512 268.515 39.9512C267.254 39.9512 266.367 39.4832 265.854 38.5474C265.536 37.9614 265.378 36.5902 265.378 34.4336C265.378 32.277 265.341 31.0238 265.268 30.6738C265.195 30.3239 264.991 29.9821 264.658 29.6484C264.324 29.3148 264.157 29.0584 264.157 28.8794C264.157 28.8143 264.552 28.387 265.341 27.5977C265.512 27.4268 265.683 27.0483 265.854 26.4624C266.033 25.8765 266.159 25.4899 266.232 25.3027C266.476 24.7168 266.798 24.4238 267.197 24.4238H267.392C267.742 24.4238 267.99 24.5581 268.137 24.8267C268.194 24.9325 268.279 25.3149 268.393 25.9741C268.515 26.6252 268.653 27.0443 268.808 27.2314C268.963 27.4186 269.349 27.6261 269.968 27.854C270.594 28.0737 270.908 28.3097 270.908 28.562V28.6963C270.908 29.0218 270.549 29.2985 269.833 29.5264C269.125 29.7461 268.67 30.1001 268.466 30.5884C268.067 31.5731 267.868 33.1763 267.868 35.3979C267.868 36.4396 268.047 37.1476 268.405 37.522C268.625 37.7498 269.064 37.9085 269.723 37.998C270.383 38.0876 270.712 38.3195 270.712 38.6938ZM277.487 24.1309V24.2773C277.487 24.6924 277.365 25.0464 277.121 25.3394C276.885 25.6242 276.519 25.7666 276.022 25.7666H275.827L275.449 25.7178C275.229 25.7178 275.017 25.616 274.814 25.4126C274.61 25.2091 274.509 24.904 274.509 24.4971V24.3506L274.57 23.9111C274.57 23.7402 274.671 23.5286 274.875 23.2764C275.086 23.0241 275.355 22.8979 275.68 22.8979L275.961 22.8613H276.205L276.547 22.9102C276.759 22.9102 276.966 23.016 277.17 23.2275C277.381 23.431 277.487 23.7321 277.487 24.1309ZM276.913 29.2822L276.779 32.5659L276.755 32.8955L276.718 33.8965V34.3726C276.718 35.5444 276.751 36.3135 276.816 36.6797C276.889 37.0459 277.023 37.404 277.219 37.7539C277.414 38.0957 277.512 38.3439 277.512 38.4985V38.6084C277.512 39.0072 277.308 39.3245 276.901 39.5605C276.494 39.7965 275.941 39.9146 275.241 39.9146H274.936C274.529 39.9146 274.22 39.825 274.008 39.646C273.797 39.4588 273.691 39.2594 273.691 39.0479V38.7793C273.691 38.6735 273.784 38.2992 273.971 37.6562C274.159 37.0052 274.252 36.1222 274.252 35.0073C274.277 34.6899 274.289 34.4702 274.289 34.3481L274.326 33.6768L274.35 33.3472C274.391 32.7775 274.411 32.334 274.411 32.0166L274.423 31.5283C274.423 30.918 274.321 30.3768 274.118 29.9048C273.923 29.4328 273.825 29.1398 273.825 29.0259C273.825 28.4399 274.378 28.147 275.485 28.147H275.925C276.34 28.147 276.608 28.2568 276.73 28.4766C276.852 28.6882 276.913 28.9567 276.913 29.2822ZM285.605 28.7085C286.231 28.4725 286.874 28.3545 287.534 28.3545C288.193 28.3545 288.876 28.5498 289.584 28.9404C290.3 29.3311 290.691 29.5264 290.756 29.5264C290.821 29.5264 291.261 29.327 292.075 28.9282C292.888 28.5295 293.621 28.3301 294.272 28.3301C294.931 28.3301 295.472 28.4684 295.895 28.7451C296.327 29.0137 296.652 29.3351 296.872 29.7095C297.287 30.4256 297.494 32.0166 297.494 34.4824C297.494 35.5892 297.503 36.224 297.519 36.3867C297.543 36.5413 297.6 36.8221 297.69 37.229C297.787 37.6278 297.836 37.9574 297.836 38.2178C297.836 38.4701 297.73 38.7345 297.519 39.0112C297.307 39.2879 297.027 39.4263 296.677 39.4263C295.985 39.4263 295.574 39.1455 295.444 38.584C295.346 38.1771 295.232 36.9889 295.102 35.0195C294.98 33.0501 294.846 31.8945 294.699 31.5527C294.406 30.8366 293.784 30.4785 292.831 30.4785C292.221 30.4785 291.745 30.861 291.403 31.626C290.907 32.7246 290.659 34.2871 290.659 36.3135L290.781 38.0713C290.781 38.6898 290.553 39.1577 290.097 39.4751C289.804 39.6785 289.413 39.7803 288.925 39.7803C288.445 39.7803 288.128 39.7314 287.973 39.6338C287.704 39.471 287.57 39.1252 287.57 38.5962C287.57 38.4985 287.647 38.0998 287.802 37.3999C287.965 36.6919 288.046 35.5444 288.046 33.9575C288.046 32.3625 287.928 31.3493 287.692 30.918C287.456 30.4785 287.045 30.2588 286.459 30.2588C285.873 30.2588 285.353 30.4582 284.897 30.8569C284.449 31.2557 284.12 31.6911 283.908 32.1631C283.705 32.6351 283.521 33.7581 283.359 35.5322C283.204 37.3063 283.094 38.3236 283.029 38.584C282.915 39.0316 282.586 39.2554 282.04 39.2554C281.503 39.2554 281.133 39.0967 280.93 38.7793C280.734 38.4538 280.637 38.0591 280.637 37.5952L280.698 37.168L280.93 36.3257C281.027 35.9351 281.084 35.4793 281.1 34.9585C281.222 31.7277 281.316 29.8844 281.381 29.4287C281.446 28.973 281.739 28.7451 282.26 28.7451L284.079 29.0503C284.47 29.0503 284.978 28.9364 285.605 28.7085ZM303.085 32.5781V32.7734C303.085 33.0176 303.309 33.1396 303.757 33.1396H304.05L304.123 33.1274L304.721 33.0786C305.348 32.9891 305.755 32.9443 305.942 32.9443C306.829 32.9443 307.496 32.7775 307.944 32.4438C308.155 32.2811 308.261 31.9922 308.261 31.5771V31.4429C308.261 30.8325 308.058 30.3483 307.651 29.9902C307.252 29.6322 306.772 29.4531 306.21 29.4531H306.125L306.052 29.4653C305.262 29.4653 304.57 29.799 303.976 30.4663C303.382 31.1336 303.085 31.8376 303.085 32.5781ZM305.746 40.1587H305.478C303.923 40.1587 302.687 39.6663 301.767 38.6816C300.847 37.6888 300.388 36.3664 300.388 34.7144V34.1772C300.388 33.3879 300.542 32.5863 300.851 31.7725C301.478 30.1449 302.499 29.0218 303.915 28.4033C304.664 28.0697 305.425 27.9028 306.198 27.9028H306.723C307.789 27.9028 308.688 28.2609 309.421 28.9771C310.161 29.6851 310.532 30.6006 310.532 31.7236V31.9678C310.532 32.7653 310.214 33.3309 309.579 33.6646C309.14 33.9006 308.115 34.1366 306.503 34.3726C304.892 34.6086 304.013 34.751 303.867 34.7998C303.378 34.9707 303.134 35.2962 303.134 35.7764C303.134 36.4437 303.419 37.0133 303.989 37.4854C304.558 37.9574 305.323 38.1934 306.284 38.1934C306.731 38.1934 307.341 38.0713 308.115 37.8271C308.888 37.583 309.335 37.4609 309.457 37.4609C309.872 37.4609 310.08 37.64 310.08 37.998C310.08 38.4782 309.612 38.9583 308.676 39.4385C307.74 39.9186 306.764 40.1587 305.746 40.1587ZM314.902 40.1953H314.523C314.116 40.1953 313.799 40.1017 313.571 39.9146C313.351 39.7274 313.242 39.4792 313.242 39.1699C313.225 39.1048 313.217 39.0519 313.217 39.0112L313.193 38.8037V38.584L313.205 38.5352V38.4253C313.221 38.3602 313.229 38.3073 313.229 38.2666C313.229 37.9004 313.351 37.6156 313.596 37.4121C313.848 37.2005 314.124 37.0947 314.426 37.0947L314.682 37.0581H315.012C315.899 37.0581 316.342 37.522 316.342 38.4497V38.6206L316.293 39.0356C316.293 39.41 316.151 39.6989 315.866 39.9023C315.589 40.0977 315.268 40.1953 314.902 40.1953ZM335.898 27.6221V27.2681C335.898 26.381 335.605 25.6893 335.019 25.1929C334.433 24.6965 333.623 24.4482 332.59 24.4482H332.15C331.369 24.4482 330.86 24.554 330.624 24.7656C330.388 24.9772 330.27 25.4696 330.27 26.2427L330.246 26.4624L330.087 29.9536V30.3809C330.087 30.682 330.169 30.8854 330.331 30.9912C330.502 31.097 330.824 31.1499 331.296 31.1499L331.406 31.1377L331.833 31.1255L332.26 31.1011C333.285 31.1011 334.148 30.7796 334.848 30.1367C335.548 29.4857 335.898 28.6475 335.898 27.6221ZM330.014 36.2036L330.27 38.2422C330.27 38.6979 330.079 39.0601 329.697 39.3286C329.322 39.5972 328.822 39.7314 328.195 39.7314C327.072 39.7314 326.511 39.2839 326.511 38.3887C326.511 38.2015 326.624 37.8719 326.852 37.3999C327.08 36.9198 327.219 36.4396 327.267 35.9595C327.479 33.8761 327.585 31.3818 327.585 28.4766L327.597 28.1104C327.605 27.8662 327.609 27.6261 327.609 27.3901L327.634 26.3037C327.634 25.3841 327.609 24.7412 327.56 24.375L327.512 24.1187C327.471 23.8826 327.451 23.7321 327.451 23.667C327.451 23.3008 327.719 23.0607 328.256 22.9468C328.793 22.8328 329.896 22.7759 331.564 22.7759H332.712C335.462 22.7759 337.249 23.5815 338.071 25.1929C338.355 25.7707 338.498 26.4502 338.498 27.2314C338.498 28.6637 337.896 29.9699 336.691 31.1499C336.024 31.8009 335.69 32.3258 335.69 32.7246C335.69 33.1234 336.187 34.2261 337.18 36.0327C337.505 36.6187 337.912 37.1842 338.4 37.7295C338.888 38.2747 339.133 38.6613 339.133 38.8892V39.1333C339.133 39.5728 338.775 39.7925 338.058 39.7925C337.342 39.7925 336.809 39.6053 336.459 39.231C336.117 38.8485 335.54 37.9045 334.726 36.3989C333.92 34.8934 333.477 34.0918 333.395 33.9941C332.891 33.3919 332.341 33.0908 331.747 33.0908C331.153 33.0908 330.677 33.4001 330.319 34.0186C330.116 34.3685 330.014 35.0968 330.014 36.2036ZM345.822 38.4619H346.139C346.807 38.4619 347.393 38.2381 347.897 37.7905C348.41 37.3348 348.666 36.8099 348.666 36.2158L348.691 36.0571V35.8984L348.715 35.52V34.8242C348.715 34.3522 348.475 34.1162 347.995 34.1162H347.446L347.36 34.1284L346.884 34.165C346.656 34.1976 346.493 34.2139 346.396 34.2139C345.737 34.2139 345.126 34.4621 344.565 34.9585C344.174 35.3084 343.979 35.8049 343.979 36.4478V36.6919C343.979 37.2371 344.154 37.6685 344.504 37.9858C344.862 38.3032 345.301 38.4619 345.822 38.4619ZM343.1 30.6616C342.555 30.6616 342.282 30.3117 342.282 29.6118C342.282 29.091 342.721 28.6393 343.6 28.2568C344.487 27.8662 345.407 27.6709 346.359 27.6709H346.97C347.791 27.6709 348.516 27.8255 349.142 28.1348C349.769 28.4359 350.245 28.8468 350.571 29.3677C350.904 29.8885 351.108 30.568 351.181 31.4062C351.197 31.6016 351.205 32.5496 351.205 34.2505C351.205 35.9513 351.226 36.932 351.266 37.1924C351.315 37.4447 351.445 37.7539 351.657 38.1201C351.877 38.4863 351.987 38.7874 351.987 39.0234C351.987 39.2594 351.873 39.4629 351.645 39.6338C351.425 39.7965 351.104 39.8779 350.68 39.8779C350.257 39.8779 349.798 39.7762 349.301 39.5728C348.805 39.3612 348.443 39.2554 348.215 39.2554C348.19 39.2554 347.783 39.4019 346.994 39.6948C346.205 39.9797 345.537 40.1221 344.992 40.1221H344.723C343.812 40.1221 343.035 39.8332 342.392 39.2554C341.757 38.6776 341.44 37.8556 341.44 36.7896C341.44 35.7235 341.79 34.8934 342.49 34.2993C343.189 33.6971 344.04 33.2861 345.041 33.0664C345.342 33.0013 345.842 32.9159 346.542 32.8101C347.242 32.7043 347.718 32.5944 347.971 32.4805C348.41 32.277 348.63 31.8945 348.63 31.333C348.63 30.7633 348.443 30.3198 348.068 30.0024C347.694 29.6769 347.246 29.5142 346.725 29.5142C346.213 29.5142 345.537 29.7054 344.699 30.0879C343.861 30.4704 343.328 30.6616 343.1 30.6616ZM355.612 33.6523V32.7124C355.612 31.5812 355.551 30.7552 355.429 30.2344C355.307 29.7054 355.246 29.3351 355.246 29.1235C355.246 28.6271 355.608 28.3789 356.332 28.3789C357.057 28.3789 357.582 28.5132 357.907 28.7817C357.997 28.855 358.11 28.9974 358.249 29.209C358.395 29.4206 358.526 29.5264 358.639 29.5264C358.664 29.5264 359.018 29.3188 359.701 28.9038C360.385 28.4888 360.971 28.2812 361.459 28.2812H361.642C362.041 28.2812 362.359 28.3789 362.595 28.5742C362.831 28.7614 362.949 28.9933 362.949 29.27V29.4287C362.949 29.7624 362.831 30.0024 362.595 30.1489C362.367 30.2954 362 30.3687 361.496 30.3687C360.348 30.3687 359.51 30.7715 358.981 31.5771C358.46 32.3828 358.2 33.807 358.2 35.8496C358.2 36.1426 358.249 36.5942 358.346 37.2046C358.452 37.8149 358.505 38.2747 358.505 38.584C358.505 38.8932 358.338 39.1903 358.005 39.4751C357.671 39.7599 357.248 39.9023 356.735 39.9023H356.32C355.873 39.9023 355.527 39.7965 355.283 39.585C355.047 39.3652 354.929 39.1007 354.929 38.7915C354.929 38.4741 354.985 38.1527 355.099 37.8271C355.409 36.9482 355.563 35.9798 355.563 34.9219C355.596 34.3359 355.612 33.9128 355.612 33.6523ZM367.001 32.5781V32.7734C367.001 33.0176 367.225 33.1396 367.673 33.1396H367.966L368.039 33.1274L368.637 33.0786C369.264 32.9891 369.671 32.9443 369.858 32.9443C370.745 32.9443 371.412 32.7775 371.86 32.4438C372.071 32.2811 372.177 31.9922 372.177 31.5771V31.4429C372.177 30.8325 371.974 30.3483 371.567 29.9902C371.168 29.6322 370.688 29.4531 370.126 29.4531H370.041L369.968 29.4653C369.178 29.4653 368.486 29.799 367.892 30.4663C367.298 31.1336 367.001 31.8376 367.001 32.5781ZM369.662 40.1587H369.394C367.839 40.1587 366.603 39.6663 365.683 38.6816C364.763 37.6888 364.304 36.3664 364.304 34.7144V34.1772C364.304 33.3879 364.458 32.5863 364.767 31.7725C365.394 30.1449 366.415 29.0218 367.831 28.4033C368.58 28.0697 369.341 27.9028 370.114 27.9028H370.639C371.705 27.9028 372.604 28.2609 373.337 28.9771C374.077 29.6851 374.448 30.6006 374.448 31.7236V31.9678C374.448 32.7653 374.13 33.3309 373.495 33.6646C373.056 33.9006 372.031 34.1366 370.419 34.3726C368.808 34.6086 367.929 34.751 367.783 34.7998C367.294 34.9707 367.05 35.2962 367.05 35.7764C367.05 36.4437 367.335 37.0133 367.905 37.4854C368.474 37.9574 369.239 38.1934 370.2 38.1934C370.647 38.1934 371.257 38.0713 372.031 37.8271C372.804 37.583 373.251 37.4609 373.373 37.4609C373.788 37.4609 373.996 37.64 373.996 37.998C373.996 38.4782 373.528 38.9583 372.592 39.4385C371.656 39.9186 370.68 40.1587 369.662 40.1587ZM377.78 23.0322C377.78 22.4382 378.338 22.1411 379.452 22.1411H379.672C380.136 22.1411 380.453 22.255 380.624 22.4829C380.795 22.7026 380.881 23.134 380.881 23.7769L380.783 25.5957C380.759 25.8805 380.746 26.0352 380.746 26.0596L380.722 26.5234C380.706 26.8245 380.689 27.1297 380.673 27.439L380.637 27.9028L380.6 28.5986C380.47 31.0726 380.405 32.8996 380.405 34.0796C380.405 35.2515 380.457 36.0938 380.563 36.6064C380.669 37.1191 380.836 37.5545 381.064 37.9126C381.292 38.2707 381.406 38.5067 381.406 38.6206V38.7671C381.406 39.1252 381.227 39.41 380.868 39.6216C380.519 39.8332 380.042 39.939 379.44 39.939H378.805C378.431 39.939 378.102 39.8332 377.817 39.6216C377.54 39.4019 377.402 39.1536 377.402 38.877V38.5474L377.475 38.0347C377.573 37.3267 377.63 36.7977 377.646 36.4478C377.67 36.0897 377.707 35.5973 377.756 34.9707C377.805 34.3359 377.882 32.9891 377.988 30.9302C378.102 28.8631 378.159 27.7523 378.159 27.5977L378.207 26.6821L378.232 25.7788C378.232 24.9162 378.154 24.3018 378 23.9355C377.853 23.5612 377.78 23.2601 377.78 23.0322ZM388.327 39.9512C388.327 39.528 388.038 38.7874 387.46 37.7295C386.882 36.6634 386.398 35.6706 386.008 34.751C384.673 31.6178 384.006 29.8071 384.006 29.3188C384.006 29.0991 384.132 28.8997 384.384 28.7207C384.645 28.5417 385.076 28.4521 385.678 28.4521C386.28 28.4521 386.703 28.7085 386.948 29.2212C386.972 29.2782 387.057 29.6322 387.204 30.2832C388.311 34.3278 389.002 36.4478 389.279 36.6431C389.702 36.6431 390.28 35.6543 391.013 33.6768C391.509 32.334 391.814 31.2069 391.928 30.2954C392.05 29.384 392.148 28.859 392.221 28.7207C392.449 28.2975 392.921 28.0859 393.637 28.0859C394.361 28.0859 394.723 28.3667 394.723 28.9282C394.723 29.327 394.577 29.86 394.284 30.5273C393.991 31.1947 393.714 31.9189 393.454 32.7002C391.965 37.1598 390.886 39.9756 390.219 41.1475C389.552 42.3275 388.848 43.2552 388.107 43.9307C387.367 44.6143 386.622 44.9561 385.873 44.9561C385.133 44.9561 384.763 44.7445 384.763 44.3213C384.763 43.9469 385.141 43.6051 385.898 43.2959C386.663 42.9867 387.196 42.6286 387.497 42.2217C388.05 41.4811 388.327 40.7243 388.327 39.9512ZM415.06 38.5352C415.06 39.1374 414.535 39.4385 413.486 39.4385C412.892 39.4385 412.493 39.2961 412.289 39.0112C412.192 38.8729 412.143 38.5474 412.143 38.0347L412.106 37.2534C412.049 36.3989 412.021 35.5404 412.021 34.6777C412.021 32.8141 411.858 31.5649 411.533 30.9302C411.215 30.2873 410.678 29.9658 409.921 29.9658C409.417 29.9658 408.949 30.1164 408.517 30.4175C408.094 30.7186 407.769 31.1377 407.541 31.6748C407.069 32.7734 406.833 34.8039 406.833 37.7661C406.833 38.4416 406.703 38.9176 406.442 39.1943C406.19 39.471 405.864 39.6094 405.466 39.6094H405.221C404.31 39.6094 403.854 39.2472 403.854 38.5229V38.23C403.854 38.1405 403.903 37.9451 404.001 37.644L404.196 37.0825C404.391 36.4233 404.489 35.0114 404.489 32.8467L404.55 29.2212C404.55 28.7573 404.802 28.5254 405.307 28.5254C405.812 28.5254 406.308 28.6922 406.796 29.0259C407.293 29.3595 407.606 29.5264 407.736 29.5264C407.874 29.5264 408.115 29.4328 408.456 29.2456C409.604 28.619 410.523 28.3057 411.215 28.3057H411.533C412.778 28.3057 413.652 28.8672 414.157 29.9902C414.401 30.5192 414.523 31.6585 414.523 33.4082V33.4937C414.523 33.6401 414.519 33.7866 414.511 33.9331C414.511 34.3319 414.511 34.5394 414.511 34.5557C414.511 34.7103 414.511 34.8608 414.511 35.0073C414.511 35.1213 414.511 35.2311 414.511 35.3369C414.511 35.9635 414.531 36.3908 414.572 36.6187C414.629 36.9279 414.723 37.2493 414.853 37.583C414.991 37.9492 415.06 38.2666 415.06 38.5352ZM420.126 32.5781V32.7734C420.126 33.0176 420.35 33.1396 420.798 33.1396H421.091L421.164 33.1274L421.762 33.0786C422.389 32.9891 422.796 32.9443 422.983 32.9443C423.87 32.9443 424.537 32.7775 424.985 32.4438C425.196 32.2811 425.302 31.9922 425.302 31.5771V31.4429C425.302 30.8325 425.099 30.3483 424.692 29.9902C424.293 29.6322 423.813 29.4531 423.251 29.4531H423.166L423.093 29.4653C422.303 29.4653 421.611 29.799 421.017 30.4663C420.423 31.1336 420.126 31.8376 420.126 32.5781ZM422.787 40.1587H422.519C420.964 40.1587 419.728 39.6663 418.808 38.6816C417.888 37.6888 417.429 36.3664 417.429 34.7144V34.1772C417.429 33.3879 417.583 32.5863 417.892 31.7725C418.519 30.1449 419.54 29.0218 420.956 28.4033C421.705 28.0697 422.466 27.9028 423.239 27.9028H423.764C424.83 27.9028 425.729 28.2609 426.462 28.9771C427.202 29.6851 427.573 30.6006 427.573 31.7236V31.9678C427.573 32.7653 427.255 33.3309 426.62 33.6646C426.181 33.9006 425.156 34.1366 423.544 34.3726C421.933 34.6086 421.054 34.751 420.908 34.7998C420.419 34.9707 420.175 35.2962 420.175 35.7764C420.175 36.4437 420.46 37.0133 421.03 37.4854C421.599 37.9574 422.364 38.1934 423.325 38.1934C423.772 38.1934 424.382 38.0713 425.156 37.8271C425.929 37.583 426.376 37.4609 426.498 37.4609C426.913 37.4609 427.121 37.64 427.121 37.998C427.121 38.4782 426.653 38.9583 425.717 39.4385C424.781 39.9186 423.805 40.1587 422.787 40.1587ZM432.455 32.5781V32.7734C432.455 33.0176 432.679 33.1396 433.127 33.1396H433.42L433.493 33.1274L434.091 33.0786C434.718 32.9891 435.125 32.9443 435.312 32.9443C436.199 32.9443 436.866 32.7775 437.314 32.4438C437.525 32.2811 437.631 31.9922 437.631 31.5771V31.4429C437.631 30.8325 437.428 30.3483 437.021 29.9902C436.622 29.6322 436.142 29.4531 435.58 29.4531H435.495L435.422 29.4653C434.632 29.4653 433.941 29.799 433.346 30.4663C432.752 31.1336 432.455 31.8376 432.455 32.5781ZM435.117 40.1587H434.848C433.294 40.1587 432.057 39.6663 431.137 38.6816C430.217 37.6888 429.758 36.3664 429.758 34.7144V34.1772C429.758 33.3879 429.912 32.5863 430.221 31.7725C430.848 30.1449 431.869 29.0218 433.285 28.4033C434.034 28.0697 434.795 27.9028 435.568 27.9028H436.093C437.159 27.9028 438.058 28.2609 438.791 28.9771C439.531 29.6851 439.902 30.6006 439.902 31.7236V31.9678C439.902 32.7653 439.584 33.3309 438.95 33.6646C438.51 33.9006 437.485 34.1366 435.873 34.3726C434.262 34.6086 433.383 34.751 433.237 34.7998C432.748 34.9707 432.504 35.2962 432.504 35.7764C432.504 36.4437 432.789 37.0133 433.359 37.4854C433.928 37.9574 434.693 38.1934 435.654 38.1934C436.101 38.1934 436.712 38.0713 437.485 37.8271C438.258 37.583 438.705 37.4609 438.827 37.4609C439.242 37.4609 439.45 37.64 439.45 37.998C439.45 38.4782 438.982 38.9583 438.046 39.4385C437.11 39.9186 436.134 40.1587 435.117 40.1587ZM444.662 34.0796V35.0073C444.662 35.9757 444.882 36.7855 445.322 37.4365C445.769 38.0794 446.294 38.4009 446.896 38.4009H447.238C448.166 38.4009 448.882 38.0306 449.387 37.29C449.899 36.5495 450.156 35.4468 450.156 33.9819C450.172 33.8029 450.18 33.6727 450.18 33.5913L450.204 33.3472L450.217 32.8345V31.9678C450.217 30.3076 449.553 29.4775 448.227 29.4775H447.751C446.888 29.4775 446.156 29.9129 445.554 30.7837C444.959 31.6545 444.662 32.7531 444.662 34.0796ZM442.319 34.6411C442.319 33.7948 442.469 32.9321 442.77 32.0532C443.071 31.1743 443.495 30.4256 444.04 29.8071C444.585 29.1805 445.2 28.7288 445.883 28.4521C446.567 28.1673 447.376 28.0249 448.312 28.0249C449.256 28.0249 449.842 27.854 450.07 27.5122C450.298 27.1623 450.412 26.3932 450.412 25.2051C450.412 24.9854 450.375 24.6924 450.302 24.3262C450.229 23.96 450.192 23.7484 450.192 23.6914C450.192 23.3415 450.343 23.0241 450.644 22.7393C450.945 22.4463 451.34 22.2998 451.828 22.2998H452.072C452.455 22.2998 452.739 22.3893 452.927 22.5684C453.114 22.7474 453.207 23.1217 453.207 23.6914V24.8267L453.183 25.4004C453.175 25.5957 453.171 25.8805 453.171 26.2549C453.171 26.6211 453.11 27.8011 452.988 29.7949C452.866 31.7887 452.805 33.16 452.805 33.9087L452.792 34.2017C452.784 34.397 452.78 34.5841 452.78 34.7632L452.768 35.0439C452.768 35.0439 452.768 35.3613 452.768 35.9961C452.768 36.818 452.833 37.4365 452.963 37.8516C453.093 38.2666 453.159 38.5636 453.159 38.7427C453.159 38.9217 453.057 39.1089 452.853 39.3042C452.65 39.4995 452.332 39.5972 451.901 39.5972C451.478 39.5972 451.067 39.528 450.668 39.3896C450.27 39.2432 449.977 39.1699 449.789 39.1699C449.602 39.1699 449.358 39.2269 449.057 39.3408C448.145 39.6745 447.311 39.8413 446.555 39.8413C446.538 39.8413 446.522 39.8413 446.506 39.8413H446.225C444.996 39.8413 444.036 39.3937 443.344 38.4985C442.66 37.5952 442.319 36.4111 442.319 34.9463V34.6411ZM457.236 33.1885C456.739 32.6839 456.491 31.9759 456.491 31.0645C456.491 30.153 456.898 29.3717 457.712 28.7207C458.526 28.0615 459.535 27.7319 460.739 27.7319H461.056C462.123 27.7319 462.969 27.8825 463.596 28.1836C464.23 28.4847 464.548 28.9364 464.548 29.5386C464.548 30.1326 464.283 30.4297 463.754 30.4297C463.616 30.4297 463.225 30.2669 462.582 29.9414C461.939 29.6077 461.333 29.4409 460.763 29.4409C460.194 29.4409 459.734 29.5711 459.384 29.8315C459.042 30.0838 458.871 30.4338 458.871 30.8813C458.871 31.3289 459.111 31.7196 459.592 32.0532C459.868 32.2485 460.519 32.5578 461.545 32.981C462.578 33.4041 463.315 33.811 463.754 34.2017C464.462 34.8283 464.816 35.6299 464.816 36.6064C464.816 37.583 464.401 38.4212 463.571 39.1211C462.741 39.8128 461.663 40.1587 460.336 40.1587H460.019C458.684 40.1587 457.683 39.9674 457.016 39.585C456.349 39.1943 456.015 38.6898 456.015 38.0713C456.015 37.4447 456.275 37.1313 456.796 37.1313C456.967 37.1313 457.411 37.3511 458.127 37.7905C458.851 38.23 459.559 38.4497 460.251 38.4497C460.951 38.4497 461.476 38.3032 461.826 38.0103C462.175 37.7091 462.35 37.3348 462.35 36.8872C462.35 36.4315 462.131 36.0327 461.691 35.6909C461.455 35.5037 460.78 35.166 459.665 34.6777C458.55 34.1813 457.74 33.6849 457.236 33.1885ZM475.07 33.6523V32.7124C475.07 31.5812 475.009 30.7552 474.887 30.2344C474.765 29.7054 474.704 29.3351 474.704 29.1235C474.704 28.6271 475.066 28.3789 475.79 28.3789C476.515 28.3789 477.04 28.5132 477.365 28.7817C477.455 28.855 477.569 28.9974 477.707 29.209C477.853 29.4206 477.984 29.5264 478.097 29.5264C478.122 29.5264 478.476 29.3188 479.159 28.9038C479.843 28.4888 480.429 28.2812 480.917 28.2812H481.1C481.499 28.2812 481.817 28.3789 482.053 28.5742C482.289 28.7614 482.407 28.9933 482.407 29.27V29.4287C482.407 29.7624 482.289 30.0024 482.053 30.1489C481.825 30.2954 481.458 30.3687 480.954 30.3687C479.806 30.3687 478.968 30.7715 478.439 31.5771C477.918 32.3828 477.658 33.807 477.658 35.8496C477.658 36.1426 477.707 36.5942 477.805 37.2046C477.91 37.8149 477.963 38.2747 477.963 38.584C477.963 38.8932 477.796 39.1903 477.463 39.4751C477.129 39.7599 476.706 39.9023 476.193 39.9023H475.778C475.331 39.9023 474.985 39.7965 474.741 39.585C474.505 39.3652 474.387 39.1007 474.387 38.7915C474.387 38.4741 474.444 38.1527 474.557 37.8271C474.867 36.9482 475.021 35.9798 475.021 34.9219C475.054 34.3359 475.07 33.9128 475.07 33.6523ZM486.459 32.5781V32.7734C486.459 33.0176 486.683 33.1396 487.131 33.1396H487.424L487.497 33.1274L488.095 33.0786C488.722 32.9891 489.129 32.9443 489.316 32.9443C490.203 32.9443 490.87 32.7775 491.318 32.4438C491.529 32.2811 491.635 31.9922 491.635 31.5771V31.4429C491.635 30.8325 491.432 30.3483 491.025 29.9902C490.626 29.6322 490.146 29.4531 489.584 29.4531H489.499L489.426 29.4653C488.636 29.4653 487.944 29.799 487.35 30.4663C486.756 31.1336 486.459 31.8376 486.459 32.5781ZM489.12 40.1587H488.852C487.298 40.1587 486.061 39.6663 485.141 38.6816C484.221 37.6888 483.762 36.3664 483.762 34.7144V34.1772C483.762 33.3879 483.916 32.5863 484.225 31.7725C484.852 30.1449 485.873 29.0218 487.289 28.4033C488.038 28.0697 488.799 27.9028 489.572 27.9028H490.097C491.163 27.9028 492.062 28.2609 492.795 28.9771C493.535 29.6851 493.906 30.6006 493.906 31.7236V31.9678C493.906 32.7653 493.588 33.3309 492.953 33.6646C492.514 33.9006 491.489 34.1366 489.877 34.3726C488.266 34.6086 487.387 34.751 487.241 34.7998C486.752 34.9707 486.508 35.2962 486.508 35.7764C486.508 36.4437 486.793 37.0133 487.363 37.4854C487.932 37.9574 488.697 38.1934 489.658 38.1934C490.105 38.1934 490.715 38.0713 491.489 37.8271C492.262 37.583 492.709 37.4609 492.831 37.4609C493.246 37.4609 493.454 37.64 493.454 37.998C493.454 38.4782 492.986 38.9583 492.05 39.4385C491.114 39.9186 490.138 40.1587 489.12 40.1587ZM501.645 28.7085C502.271 28.4725 502.914 28.3545 503.574 28.3545C504.233 28.3545 504.916 28.5498 505.624 28.9404C506.34 29.3311 506.731 29.5264 506.796 29.5264C506.861 29.5264 507.301 29.327 508.115 28.9282C508.928 28.5295 509.661 28.3301 510.312 28.3301C510.971 28.3301 511.512 28.4684 511.935 28.7451C512.367 29.0137 512.692 29.3351 512.912 29.7095C513.327 30.4256 513.534 32.0166 513.534 34.4824C513.534 35.5892 513.543 36.224 513.559 36.3867C513.583 36.5413 513.64 36.8221 513.73 37.229C513.827 37.6278 513.876 37.9574 513.876 38.2178C513.876 38.4701 513.77 38.7345 513.559 39.0112C513.347 39.2879 513.067 39.4263 512.717 39.4263C512.025 39.4263 511.614 39.1455 511.484 38.584C511.386 38.1771 511.272 36.9889 511.142 35.0195C511.02 33.0501 510.886 31.8945 510.739 31.5527C510.446 30.8366 509.824 30.4785 508.871 30.4785C508.261 30.4785 507.785 30.861 507.443 31.626C506.947 32.7246 506.699 34.2871 506.699 36.3135L506.821 38.0713C506.821 38.6898 506.593 39.1577 506.137 39.4751C505.844 39.6785 505.453 39.7803 504.965 39.7803C504.485 39.7803 504.168 39.7314 504.013 39.6338C503.744 39.471 503.61 39.1252 503.61 38.5962C503.61 38.4985 503.687 38.0998 503.842 37.3999C504.005 36.6919 504.086 35.5444 504.086 33.9575C504.086 32.3625 503.968 31.3493 503.732 30.918C503.496 30.4785 503.085 30.2588 502.499 30.2588C501.913 30.2588 501.393 30.4582 500.937 30.8569C500.489 31.2557 500.16 31.6911 499.948 32.1631C499.745 32.6351 499.562 33.7581 499.399 35.5322C499.244 37.3063 499.134 38.3236 499.069 38.584C498.955 39.0316 498.626 39.2554 498.08 39.2554C497.543 39.2554 497.173 39.0967 496.97 38.7793C496.774 38.4538 496.677 38.0591 496.677 37.5952L496.738 37.168L496.97 36.3257C497.067 35.9351 497.124 35.4793 497.14 34.9585C497.263 31.7277 497.356 29.8844 497.421 29.4287C497.486 28.973 497.779 28.7451 498.3 28.7451L500.119 29.0503C500.51 29.0503 501.018 28.9364 501.645 28.7085ZM520.871 24.1309V24.2773C520.871 24.6924 520.749 25.0464 520.505 25.3394C520.269 25.6242 519.902 25.7666 519.406 25.7666H519.211L518.832 25.7178C518.613 25.7178 518.401 25.616 518.198 25.4126C517.994 25.2091 517.892 24.904 517.892 24.4971V24.3506L517.953 23.9111C517.953 23.7402 518.055 23.5286 518.259 23.2764C518.47 23.0241 518.739 22.8979 519.064 22.8979L519.345 22.8613H519.589L519.931 22.9102C520.143 22.9102 520.35 23.016 520.554 23.2275C520.765 23.431 520.871 23.7321 520.871 24.1309ZM520.297 29.2822L520.163 32.5659L520.138 32.8955L520.102 33.8965V34.3726C520.102 35.5444 520.134 36.3135 520.2 36.6797C520.273 37.0459 520.407 37.404 520.602 37.7539C520.798 38.0957 520.895 38.3439 520.895 38.4985V38.6084C520.895 39.0072 520.692 39.3245 520.285 39.5605C519.878 39.7965 519.325 39.9146 518.625 39.9146H518.32C517.913 39.9146 517.603 39.825 517.392 39.646C517.18 39.4588 517.075 39.2594 517.075 39.0479V38.7793C517.075 38.6735 517.168 38.2992 517.355 37.6562C517.542 37.0052 517.636 36.1222 517.636 35.0073C517.66 34.6899 517.673 34.4702 517.673 34.3481L517.709 33.6768L517.734 33.3472C517.774 32.7775 517.795 32.334 517.795 32.0166L517.807 31.5283C517.807 30.918 517.705 30.3768 517.502 29.9048C517.306 29.4328 517.209 29.1398 517.209 29.0259C517.209 28.4399 517.762 28.147 518.869 28.147H519.308C519.723 28.147 519.992 28.2568 520.114 28.4766C520.236 28.6882 520.297 28.9567 520.297 29.2822ZM535.104 38.5352C535.104 39.1374 534.579 39.4385 533.53 39.4385C532.936 39.4385 532.537 39.2961 532.333 39.0112C532.236 38.8729 532.187 38.5474 532.187 38.0347L532.15 37.2534C532.093 36.3989 532.065 35.5404 532.065 34.6777C532.065 32.8141 531.902 31.5649 531.576 30.9302C531.259 30.2873 530.722 29.9658 529.965 29.9658C529.461 29.9658 528.993 30.1164 528.561 30.4175C528.138 30.7186 527.813 31.1377 527.585 31.6748C527.113 32.7734 526.877 34.8039 526.877 37.7661C526.877 38.4416 526.747 38.9176 526.486 39.1943C526.234 39.471 525.908 39.6094 525.51 39.6094H525.265C524.354 39.6094 523.898 39.2472 523.898 38.5229V38.23C523.898 38.1405 523.947 37.9451 524.045 37.644L524.24 37.0825C524.435 36.4233 524.533 35.0114 524.533 32.8467L524.594 29.2212C524.594 28.7573 524.846 28.5254 525.351 28.5254C525.855 28.5254 526.352 28.6922 526.84 29.0259C527.337 29.3595 527.65 29.5264 527.78 29.5264C527.918 29.5264 528.159 29.4328 528.5 29.2456C529.648 28.619 530.567 28.3057 531.259 28.3057H531.576C532.822 28.3057 533.696 28.8672 534.201 29.9902C534.445 30.5192 534.567 31.6585 534.567 33.4082V33.4937C534.567 33.6401 534.563 33.7866 534.555 33.9331C534.555 34.3319 534.555 34.5394 534.555 34.5557C534.555 34.7103 534.555 34.8608 534.555 35.0073C534.555 35.1213 534.555 35.2311 534.555 35.3369C534.555 35.9635 534.575 36.3908 534.616 36.6187C534.673 36.9279 534.767 37.2493 534.897 37.583C535.035 37.9492 535.104 38.2666 535.104 38.5352ZM540.048 34.0796V35.0073C540.048 35.9757 540.268 36.7855 540.707 37.4365C541.155 38.0794 541.68 38.4009 542.282 38.4009H542.624C543.552 38.4009 544.268 38.0306 544.772 37.29C545.285 36.5495 545.541 35.4468 545.541 33.9819C545.558 33.8029 545.566 33.6727 545.566 33.5913L545.59 33.3472L545.602 32.8345V31.9678C545.602 30.3076 544.939 29.4775 543.613 29.4775H543.137C542.274 29.4775 541.541 29.9129 540.939 30.7837C540.345 31.6545 540.048 32.7531 540.048 34.0796ZM537.704 34.6411C537.704 33.7948 537.855 32.9321 538.156 32.0532C538.457 31.1743 538.88 30.4256 539.426 29.8071C539.971 29.1805 540.585 28.7288 541.269 28.4521C541.952 28.1673 542.762 28.0249 543.698 28.0249C544.642 28.0249 545.228 27.854 545.456 27.5122C545.684 27.1623 545.798 26.3932 545.798 25.2051C545.798 24.9854 545.761 24.6924 545.688 24.3262C545.615 23.96 545.578 23.7484 545.578 23.6914C545.578 23.3415 545.728 23.0241 546.03 22.7393C546.331 22.4463 546.725 22.2998 547.214 22.2998H547.458C547.84 22.2998 548.125 22.3893 548.312 22.5684C548.499 22.7474 548.593 23.1217 548.593 23.6914V24.8267L548.569 25.4004C548.561 25.5957 548.556 25.8805 548.556 26.2549C548.556 26.6211 548.495 27.8011 548.373 29.7949C548.251 31.7887 548.19 33.16 548.19 33.9087L548.178 34.2017C548.17 34.397 548.166 34.5841 548.166 34.7632L548.154 35.0439C548.154 35.0439 548.154 35.3613 548.154 35.9961C548.154 36.818 548.219 37.4365 548.349 37.8516C548.479 38.2666 548.544 38.5636 548.544 38.7427C548.544 38.9217 548.443 39.1089 548.239 39.3042C548.036 39.4995 547.718 39.5972 547.287 39.5972C546.864 39.5972 546.453 39.528 546.054 39.3896C545.655 39.2432 545.362 39.1699 545.175 39.1699C544.988 39.1699 544.744 39.2269 544.443 39.3408C543.531 39.6745 542.697 39.8413 541.94 39.8413C541.924 39.8413 541.908 39.8413 541.891 39.8413H541.611C540.382 39.8413 539.422 39.3937 538.73 38.4985C538.046 37.5952 537.704 36.4111 537.704 34.9463V34.6411ZM553.94 32.5781V32.7734C553.94 33.0176 554.164 33.1396 554.611 33.1396H554.904L554.977 33.1274L555.576 33.0786C556.202 32.9891 556.609 32.9443 556.796 32.9443C557.683 32.9443 558.351 32.7775 558.798 32.4438C559.01 32.2811 559.116 31.9922 559.116 31.5771V31.4429C559.116 30.8325 558.912 30.3483 558.505 29.9902C558.106 29.6322 557.626 29.4531 557.065 29.4531H556.979L556.906 29.4653C556.117 29.4653 555.425 29.799 554.831 30.4663C554.237 31.1336 553.94 31.8376 553.94 32.5781ZM556.601 40.1587H556.332C554.778 40.1587 553.541 39.6663 552.621 38.6816C551.702 37.6888 551.242 36.3664 551.242 34.7144V34.1772C551.242 33.3879 551.397 32.5863 551.706 31.7725C552.332 30.1449 553.354 29.0218 554.77 28.4033C555.519 28.0697 556.279 27.9028 557.053 27.9028H557.577C558.644 27.9028 559.543 28.2609 560.275 28.9771C561.016 29.6851 561.386 30.6006 561.386 31.7236V31.9678C561.386 32.7653 561.069 33.3309 560.434 33.6646C559.994 33.9006 558.969 34.1366 557.358 34.3726C555.746 34.6086 554.867 34.751 554.721 34.7998C554.233 34.9707 553.989 35.2962 553.989 35.7764C553.989 36.4437 554.273 37.0133 554.843 37.4854C555.413 37.9574 556.178 38.1934 557.138 38.1934C557.586 38.1934 558.196 38.0713 558.969 37.8271C559.742 37.583 560.19 37.4609 560.312 37.4609C560.727 37.4609 560.934 37.64 560.934 37.998C560.934 38.4782 560.466 38.9583 559.531 39.4385C558.595 39.9186 557.618 40.1587 556.601 40.1587ZM564.816 33.6523V32.7124C564.816 31.5812 564.755 30.7552 564.633 30.2344C564.511 29.7054 564.45 29.3351 564.45 29.1235C564.45 28.6271 564.812 28.3789 565.536 28.3789C566.261 28.3789 566.786 28.5132 567.111 28.7817C567.201 28.855 567.315 28.9974 567.453 29.209C567.599 29.4206 567.73 29.5264 567.844 29.5264C567.868 29.5264 568.222 29.3188 568.906 28.9038C569.589 28.4888 570.175 28.2812 570.663 28.2812H570.846C571.245 28.2812 571.563 28.3789 571.799 28.5742C572.035 28.7614 572.153 28.9933 572.153 29.27V29.4287C572.153 29.7624 572.035 30.0024 571.799 30.1489C571.571 30.2954 571.205 30.3687 570.7 30.3687C569.553 30.3687 568.714 30.7715 568.185 31.5771C567.665 32.3828 567.404 33.807 567.404 35.8496C567.404 36.1426 567.453 36.5942 567.551 37.2046C567.656 37.8149 567.709 38.2747 567.709 38.584C567.709 38.8932 567.542 39.1903 567.209 39.4751C566.875 39.7599 566.452 39.9023 565.939 39.9023H565.524C565.077 39.9023 564.731 39.7965 564.487 39.585C564.251 39.3652 564.133 39.1007 564.133 38.7915C564.133 38.4741 564.19 38.1527 564.304 37.8271C564.613 36.9482 564.767 35.9798 564.767 34.9219C564.8 34.3359 564.816 33.9128 564.816 33.6523ZM575.034 33.1885C574.537 32.6839 574.289 31.9759 574.289 31.0645C574.289 30.153 574.696 29.3717 575.51 28.7207C576.323 28.0615 577.332 27.7319 578.537 27.7319H578.854C579.92 27.7319 580.767 27.8825 581.393 28.1836C582.028 28.4847 582.346 28.9364 582.346 29.5386C582.346 30.1326 582.081 30.4297 581.552 30.4297C581.414 30.4297 581.023 30.2669 580.38 29.9414C579.737 29.6077 579.131 29.4409 578.561 29.4409C577.992 29.4409 577.532 29.5711 577.182 29.8315C576.84 30.0838 576.669 30.4338 576.669 30.8813C576.669 31.3289 576.909 31.7196 577.389 32.0532C577.666 32.2485 578.317 32.5578 579.343 32.981C580.376 33.4041 581.113 33.811 581.552 34.2017C582.26 34.8283 582.614 35.6299 582.614 36.6064C582.614 37.583 582.199 38.4212 581.369 39.1211C580.539 39.8128 579.461 40.1587 578.134 40.1587H577.817C576.482 40.1587 575.481 39.9674 574.814 39.585C574.146 39.1943 573.813 38.6898 573.813 38.0713C573.813 37.4447 574.073 37.1313 574.594 37.1313C574.765 37.1313 575.208 37.3511 575.925 37.7905C576.649 38.23 577.357 38.4497 578.049 38.4497C578.749 38.4497 579.273 38.3032 579.623 38.0103C579.973 37.7091 580.148 37.3348 580.148 36.8872C580.148 36.4315 579.929 36.0327 579.489 35.6909C579.253 35.5037 578.578 35.166 577.463 34.6777C576.348 34.1813 575.538 33.6849 575.034 33.1885ZM586.948 40.1953H586.569C586.162 40.1953 585.845 40.1017 585.617 39.9146C585.397 39.7274 585.287 39.4792 585.287 39.1699C585.271 39.1048 585.263 39.0519 585.263 39.0112L585.239 38.8037V38.584L585.251 38.5352V38.4253C585.267 38.3602 585.275 38.3073 585.275 38.2666C585.275 37.9004 585.397 37.6156 585.641 37.4121C585.894 37.2005 586.17 37.0947 586.471 37.0947L586.728 37.0581H587.057C587.944 37.0581 588.388 37.522 588.388 38.4497V38.6206L588.339 39.0356C588.339 39.41 588.197 39.6989 587.912 39.9023C587.635 40.0977 587.314 40.1953 586.948 40.1953ZM605.844 32.981C606.853 32.981 607.358 32.8507 607.358 32.5903V32.5049C607.358 32.3665 607.085 31.215 606.54 29.0503C605.995 26.8774 605.628 25.791 605.441 25.791H605.392C605.376 25.791 605.221 26.1084 604.929 26.7432C603.415 29.9902 602.658 31.9678 602.658 32.6758V32.749C602.658 32.8711 602.813 32.9321 603.122 32.9321L603.317 32.9565L604.208 32.981H605.844ZM605.563 22.8491H605.844C606.536 22.8491 607.154 23.4798 607.7 24.7412C608.627 26.8652 609.681 30.2954 610.861 35.0317C611.016 35.634 611.244 36.2362 611.545 36.8384C611.854 37.4406 612.009 37.8231 612.009 37.9858C612.009 38.4497 611.854 38.8566 611.545 39.2065C611.235 39.5565 610.869 39.7314 610.446 39.7314H610.178C609.47 39.7314 609.026 39.5076 608.847 39.0601C608.814 38.9868 608.778 38.7793 608.737 38.4375C608.705 38.0876 608.656 37.762 608.591 37.4609C608.363 36.403 608.078 35.6787 607.736 35.2881C607.402 34.8893 606.454 34.6899 604.892 34.6899C603.329 34.6899 602.361 34.869 601.987 35.2271C601.62 35.5851 601.238 36.3175 600.839 37.4243C600.717 37.7661 600.619 38.1445 600.546 38.5596C600.481 38.9746 600.412 39.2432 600.339 39.3652C600.192 39.6012 599.891 39.7192 599.435 39.7192C598.988 39.7192 598.63 39.5646 598.361 39.2554C598.093 38.9461 597.958 38.584 597.958 38.1689C597.958 37.7458 598.17 37.2412 598.593 36.6553C599.008 36.0693 599.785 34.279 600.925 31.2842C602.715 26.5641 603.919 23.9111 604.538 23.3252C604.88 23.0078 605.221 22.8491 605.563 22.8491ZM616.83 34.0796V35.0073C616.83 35.9757 617.05 36.7855 617.49 37.4365C617.937 38.0794 618.462 38.4009 619.064 38.4009H619.406C620.334 38.4009 621.05 38.0306 621.555 37.29C622.067 36.5495 622.324 35.4468 622.324 33.9819C622.34 33.8029 622.348 33.6727 622.348 33.5913L622.372 33.3472L622.385 32.8345V31.9678C622.385 30.3076 621.721 29.4775 620.395 29.4775H619.919C619.056 29.4775 618.324 29.9129 617.721 30.7837C617.127 31.6545 616.83 32.7531 616.83 34.0796ZM614.487 34.6411C614.487 33.7948 614.637 32.9321 614.938 32.0532C615.239 31.1743 615.663 30.4256 616.208 29.8071C616.753 29.1805 617.367 28.7288 618.051 28.4521C618.735 28.1673 619.544 28.0249 620.48 28.0249C621.424 28.0249 622.01 27.854 622.238 27.5122C622.466 27.1623 622.58 26.3932 622.58 25.2051C622.58 24.9854 622.543 24.6924 622.47 24.3262C622.397 23.96 622.36 23.7484 622.36 23.6914C622.36 23.3415 622.511 23.0241 622.812 22.7393C623.113 22.4463 623.508 22.2998 623.996 22.2998H624.24C624.623 22.2998 624.907 22.3893 625.095 22.5684C625.282 22.7474 625.375 23.1217 625.375 23.6914V24.8267L625.351 25.4004C625.343 25.5957 625.339 25.8805 625.339 26.2549C625.339 26.6211 625.278 27.8011 625.156 29.7949C625.034 31.7887 624.972 33.16 624.972 33.9087L624.96 34.2017C624.952 34.397 624.948 34.5841 624.948 34.7632L624.936 35.0439C624.936 35.0439 624.936 35.3613 624.936 35.9961C624.936 36.818 625.001 37.4365 625.131 37.8516C625.261 38.2666 625.326 38.5636 625.326 38.7427C625.326 38.9217 625.225 39.1089 625.021 39.3042C624.818 39.4995 624.5 39.5972 624.069 39.5972C623.646 39.5972 623.235 39.528 622.836 39.3896C622.437 39.2432 622.145 39.1699 621.957 39.1699C621.77 39.1699 621.526 39.2269 621.225 39.3408C620.313 39.6745 619.479 39.8413 618.722 39.8413C618.706 39.8413 618.69 39.8413 618.674 39.8413H618.393C617.164 39.8413 616.204 39.3937 615.512 38.4985C614.828 37.5952 614.487 36.4111 614.487 34.9463V34.6411ZM632.529 24.1675V24.5337C632.504 24.6313 632.492 24.7168 632.492 24.79C632.492 25.1318 632.346 25.4248 632.053 25.6689C631.768 25.9049 631.402 26.0229 630.954 26.0229H630.807C630.474 26.0229 630.193 25.9334 629.965 25.7544C629.737 25.5672 629.623 25.262 629.623 24.8389V24.4116C629.623 24.0047 629.758 23.667 630.026 23.3984C630.295 23.1299 630.58 22.9956 630.881 22.9956C630.93 22.9793 630.974 22.9712 631.015 22.9712L631.21 22.9468H631.393C631.768 22.9468 632.048 23.0688 632.236 23.313C632.431 23.549 632.529 23.8338 632.529 24.1675ZM627.536 44.9561H627.133C626.425 44.9561 626.071 44.7078 626.071 44.2114C626.071 43.8289 626.205 43.5319 626.474 43.3203C626.588 43.2308 626.779 43.1413 627.048 43.0518L627.78 42.8076C628.203 42.6204 628.529 42.2664 628.757 41.7456C629.277 40.533 629.538 38.3724 629.538 35.2637L629.599 34.1284C629.623 33.6727 629.636 33.0868 629.636 32.3706C629.636 31.6463 629.603 31.154 629.538 30.8936C629.481 30.6331 629.379 30.3076 629.233 29.917C629.094 29.5264 629.025 29.2171 629.025 28.9893C629.025 28.7614 629.151 28.5661 629.404 28.4033C629.656 28.2324 630.083 28.147 630.685 28.147H630.893C631.389 28.147 631.739 28.3626 631.943 28.7939C632.073 29.0625 632.138 29.5223 632.138 30.1733V31.272L632.089 32.627C632.073 32.9362 632.065 33.1641 632.065 33.3105L632.04 33.7622C632.024 34.0633 632.016 34.2871 632.016 34.4336L631.943 36.0205C631.943 39.1455 631.617 41.359 630.966 42.6611C630.641 43.3122 630.165 43.8574 629.538 44.2969C628.919 44.7363 628.252 44.9561 627.536 44.9561ZM635.483 29.0259C635.483 28.5132 635.914 28.2568 636.777 28.2568H637.057C637.595 28.2568 637.957 28.4725 638.144 28.9038C638.331 29.3351 638.425 30.1408 638.425 31.3208L638.278 35.3979C638.278 37.2941 638.958 38.2422 640.317 38.2422C640.813 38.2422 641.289 38.0672 641.745 37.7173C642.201 37.3674 642.538 36.9482 642.758 36.46C643.238 35.3857 643.478 33.4611 643.478 30.686L643.454 30.1489V29.6729C643.454 29.2415 643.552 28.9282 643.747 28.7329C643.942 28.5376 644.284 28.4399 644.772 28.4399C645.261 28.4399 645.582 28.5579 645.737 28.7939C645.891 29.0299 645.969 29.4124 645.969 29.9414L645.944 30.5884L645.895 33.4692C645.895 33.9331 645.924 34.6452 645.981 35.6055C646.038 36.5658 646.099 37.2697 646.164 37.7173C646.229 38.1567 646.262 38.4172 646.262 38.4985C646.262 39.2228 645.728 39.585 644.662 39.585C644.296 39.585 643.93 39.4507 643.564 39.1821C643.206 38.9054 642.949 38.7671 642.795 38.7671C642.648 38.7671 642.396 38.8566 642.038 39.0356C641.021 39.5483 640.154 39.8047 639.438 39.8047H639.133C637.969 39.8047 637.114 39.4466 636.569 38.7305C636.024 38.0143 635.751 36.7244 635.751 34.8608L635.873 31.1621C635.873 30.6982 635.808 30.2547 635.678 29.8315C635.548 29.4084 635.483 29.1398 635.483 29.0259ZM650.204 33.1885C649.708 32.6839 649.46 31.9759 649.46 31.0645C649.46 30.153 649.867 29.3717 650.68 28.7207C651.494 28.0615 652.503 27.7319 653.708 27.7319H654.025C655.091 27.7319 655.938 27.8825 656.564 28.1836C657.199 28.4847 657.516 28.9364 657.516 29.5386C657.516 30.1326 657.252 30.4297 656.723 30.4297C656.585 30.4297 656.194 30.2669 655.551 29.9414C654.908 29.6077 654.302 29.4409 653.732 29.4409C653.163 29.4409 652.703 29.5711 652.353 29.8315C652.011 30.0838 651.84 30.4338 651.84 30.8813C651.84 31.3289 652.08 31.7196 652.56 32.0532C652.837 32.2485 653.488 32.5578 654.513 32.981C655.547 33.4041 656.284 33.811 656.723 34.2017C657.431 34.8283 657.785 35.6299 657.785 36.6064C657.785 37.583 657.37 38.4212 656.54 39.1211C655.71 39.8128 654.631 40.1587 653.305 40.1587H652.988C651.653 40.1587 650.652 39.9674 649.985 39.585C649.317 39.1943 648.984 38.6898 648.984 38.0713C648.984 37.4447 649.244 37.1313 649.765 37.1313C649.936 37.1313 650.379 37.3511 651.096 37.7905C651.82 38.23 652.528 38.4497 653.22 38.4497C653.919 38.4497 654.444 38.3032 654.794 38.0103C655.144 37.7091 655.319 37.3348 655.319 36.8872C655.319 36.4315 655.099 36.0327 654.66 35.6909C654.424 35.5037 653.749 35.166 652.634 34.6777C651.519 34.1813 650.709 33.6849 650.204 33.1885ZM666.782 38.6938C666.782 39.0194 666.582 39.3123 666.183 39.5728C665.793 39.825 665.26 39.9512 664.584 39.9512C663.323 39.9512 662.436 39.4832 661.923 38.5474C661.606 37.9614 661.447 36.5902 661.447 34.4336C661.447 32.277 661.41 31.0238 661.337 30.6738C661.264 30.3239 661.061 29.9821 660.727 29.6484C660.393 29.3148 660.226 29.0584 660.226 28.8794C660.226 28.8143 660.621 28.387 661.41 27.5977C661.581 27.4268 661.752 27.0483 661.923 26.4624C662.102 25.8765 662.228 25.4899 662.302 25.3027C662.546 24.7168 662.867 24.4238 663.266 24.4238H663.461C663.811 24.4238 664.059 24.5581 664.206 24.8267C664.263 24.9325 664.348 25.3149 664.462 25.9741C664.584 26.6252 664.723 27.0443 664.877 27.2314C665.032 27.4186 665.418 27.6261 666.037 27.854C666.664 28.0737 666.977 28.3097 666.977 28.562V28.6963C666.977 29.0218 666.619 29.2985 665.903 29.5264C665.195 29.7461 664.739 30.1001 664.535 30.5884C664.137 31.5731 663.937 33.1763 663.937 35.3979C663.937 36.4396 664.116 37.1476 664.474 37.522C664.694 37.7498 665.134 37.9085 665.793 37.998C666.452 38.0876 666.782 38.3195 666.782 38.6938ZM670.492 33.1885C669.996 32.6839 669.748 31.9759 669.748 31.0645C669.748 30.153 670.155 29.3717 670.969 28.7207C671.782 28.0615 672.791 27.7319 673.996 27.7319H674.313C675.379 27.7319 676.226 27.8825 676.852 28.1836C677.487 28.4847 677.805 28.9364 677.805 29.5386C677.805 30.1326 677.54 30.4297 677.011 30.4297C676.873 30.4297 676.482 30.2669 675.839 29.9414C675.196 29.6077 674.59 29.4409 674.02 29.4409C673.451 29.4409 672.991 29.5711 672.641 29.8315C672.299 30.0838 672.128 30.4338 672.128 30.8813C672.128 31.3289 672.368 31.7196 672.848 32.0532C673.125 32.2485 673.776 32.5578 674.802 32.981C675.835 33.4041 676.572 33.811 677.011 34.2017C677.719 34.8283 678.073 35.6299 678.073 36.6064C678.073 37.583 677.658 38.4212 676.828 39.1211C675.998 39.8128 674.92 40.1587 673.593 40.1587H673.276C671.941 40.1587 670.94 39.9674 670.273 39.585C669.605 39.1943 669.272 38.6898 669.272 38.0713C669.272 37.4447 669.532 37.1313 670.053 37.1313C670.224 37.1313 670.667 37.3511 671.384 37.7905C672.108 38.23 672.816 38.4497 673.508 38.4497C674.207 38.4497 674.732 38.3032 675.082 38.0103C675.432 37.7091 675.607 37.3348 675.607 36.8872C675.607 36.4315 675.388 36.0327 674.948 35.6909C674.712 35.5037 674.037 35.166 672.922 34.6777C671.807 34.1813 670.997 33.6849 670.492 33.1885ZM693.93 38.6938C693.93 39.0194 693.731 39.3123 693.332 39.5728C692.941 39.825 692.408 39.9512 691.733 39.9512C690.471 39.9512 689.584 39.4832 689.072 38.5474C688.754 37.9614 688.596 36.5902 688.596 34.4336C688.596 32.277 688.559 31.0238 688.486 30.6738C688.412 30.3239 688.209 29.9821 687.875 29.6484C687.542 29.3148 687.375 29.0584 687.375 28.8794C687.375 28.8143 687.77 28.387 688.559 27.5977C688.73 27.4268 688.901 27.0483 689.072 26.4624C689.251 25.8765 689.377 25.4899 689.45 25.3027C689.694 24.7168 690.016 24.4238 690.414 24.4238H690.61C690.96 24.4238 691.208 24.5581 691.354 24.8267C691.411 24.9325 691.497 25.3149 691.611 25.9741C691.733 26.6252 691.871 27.0443 692.026 27.2314C692.18 27.4186 692.567 27.6261 693.185 27.854C693.812 28.0737 694.125 28.3097 694.125 28.562V28.6963C694.125 29.0218 693.767 29.2985 693.051 29.5264C692.343 29.7461 691.887 30.1001 691.684 30.5884C691.285 31.5731 691.086 33.1763 691.086 35.3979C691.086 36.4396 691.265 37.1476 691.623 37.522C691.843 37.7498 692.282 37.9085 692.941 37.998C693.6 38.0876 693.93 38.3195 693.93 38.6938ZM698.813 34.8486C698.813 35.9147 699.057 36.8018 699.545 37.5098C700.034 38.2178 700.632 38.5718 701.34 38.5718H701.706C702.544 38.5718 703.252 38.1486 703.83 37.3022C704.416 36.4559 704.709 35.3288 704.709 33.9209V33.1152C704.709 32.0247 704.469 31.1336 703.989 30.4419C703.517 29.742 702.906 29.3921 702.158 29.3921H701.913C701.043 29.3921 700.31 29.8234 699.716 30.686C699.13 31.5487 698.837 32.5781 698.837 33.7744L698.813 34.0552V34.8486ZM701.572 40.2319H701.181C699.757 40.2319 698.597 39.7355 697.702 38.7427C696.807 37.7498 696.359 36.342 696.359 34.519L696.371 34.3115C696.371 32.3096 696.9 30.7308 697.958 29.5752C698.512 28.9648 699.142 28.5173 699.85 28.2324C700.567 27.9395 701.246 27.793 701.889 27.793H702.487C703.203 27.793 703.891 27.9517 704.55 28.269C706.438 29.1805 707.382 30.8976 707.382 33.4204V33.6157C707.374 34.4377 707.24 35.2718 706.979 36.1182C706.458 37.7865 705.457 38.9665 703.976 39.6582C703.154 40.0407 702.353 40.2319 701.572 40.2319ZM293.198 64.9219V64.3604C293.198 63.335 293.356 62.4276 293.674 61.6382C294.284 60.1082 295.22 59.0503 296.481 58.4644C297.303 58.0737 298.154 57.8784 299.033 57.8784H299.301C300.27 57.8784 301.071 58.0697 301.706 58.4521C302.341 58.8346 302.658 59.3026 302.658 59.856C302.658 60.4989 302.349 60.8203 301.73 60.8203C301.616 60.8203 301.218 60.6413 300.534 60.2832C299.85 59.9333 299.289 59.7583 298.849 59.7583C298.841 59.7583 298.833 59.7583 298.825 59.7583C297.865 59.7583 297.112 60.1733 296.567 61.0034C296.03 61.8335 295.761 62.9159 295.761 64.2505C295.761 65.5851 296.046 66.5739 296.616 67.2168C297.193 67.8597 297.995 68.1812 299.02 68.1812C299.444 68.1812 300.025 68.0632 300.766 67.8271C301.506 67.583 301.958 67.4609 302.121 67.4609C302.455 67.4609 302.621 67.6359 302.621 67.9858C302.621 68.4578 302.153 68.9339 301.218 69.4141C300.282 69.8942 299.362 70.1343 298.459 70.1343C296.042 70.1343 294.443 69.1821 293.661 67.2778C293.352 66.521 293.198 65.7357 293.198 64.9219ZM306.711 69.7681C305.75 69.7681 305.27 69.4263 305.27 68.7427C305.27 68.4334 305.344 67.9736 305.49 67.3633C305.645 66.7529 305.746 66.1914 305.795 65.6787C305.844 65.1579 305.93 63.4814 306.052 60.6494C306.182 57.8174 306.247 56.0921 306.247 55.4736V54.0332L306.174 53.0078C306.174 52.6253 306.524 52.4341 307.223 52.4341C307.931 52.4341 308.391 52.7067 308.603 53.252C308.709 53.5286 308.762 54.432 308.762 55.9619C308.762 57.4919 308.79 58.3626 308.847 58.5742C308.912 58.7858 309.079 58.8916 309.347 58.8916C309.38 58.8916 309.535 58.8428 309.811 58.7451L310.08 58.6475C310.951 58.3057 311.703 58.1348 312.338 58.1348C313.673 58.1348 314.621 58.6556 315.182 59.6973C315.557 60.389 315.744 61.8945 315.744 64.2139C315.744 65.3044 315.752 65.9513 315.768 66.1548C315.785 66.3582 315.838 66.7285 315.927 67.2656C316.017 67.7946 316.061 68.0876 316.061 68.1445C316.061 68.6247 315.951 68.9827 315.732 69.2188C315.52 69.4466 315.134 69.5605 314.572 69.5605C314.019 69.5605 313.657 69.3896 313.486 69.0479C313.396 68.8688 313.351 68.3521 313.351 67.4976L313.315 65.3491L313.351 63.4082C313.351 61.2354 312.717 60.1489 311.447 60.1489C310.324 60.1489 309.522 60.6209 309.042 61.5649C308.562 62.509 308.322 64.2586 308.322 66.814L308.359 68.1445C308.359 68.6003 308.216 68.9868 307.931 69.3042C307.647 69.6134 307.24 69.7681 306.711 69.7681ZM323.068 68.4619H323.386C324.053 68.4619 324.639 68.2381 325.143 67.7905C325.656 67.3348 325.912 66.8099 325.912 66.2158L325.937 66.0571V65.8984L325.961 65.52V64.8242C325.961 64.3522 325.721 64.1162 325.241 64.1162H324.692L324.606 64.1284L324.13 64.165C323.902 64.1976 323.74 64.2139 323.642 64.2139C322.983 64.2139 322.372 64.4621 321.811 64.9585C321.42 65.3084 321.225 65.8049 321.225 66.4478V66.6919C321.225 67.2371 321.4 67.6685 321.75 67.9858C322.108 68.3032 322.547 68.4619 323.068 68.4619ZM320.346 60.6616C319.801 60.6616 319.528 60.3117 319.528 59.6118C319.528 59.091 319.968 58.6393 320.846 58.2568C321.734 57.8662 322.653 57.6709 323.605 57.6709H324.216C325.038 57.6709 325.762 57.8255 326.388 58.1348C327.015 58.4359 327.491 58.8468 327.817 59.3677C328.15 59.8885 328.354 60.568 328.427 61.4062C328.443 61.6016 328.451 62.5496 328.451 64.2505C328.451 65.9513 328.472 66.932 328.513 67.1924C328.561 67.4447 328.692 67.7539 328.903 68.1201C329.123 68.4863 329.233 68.7874 329.233 69.0234C329.233 69.2594 329.119 69.4629 328.891 69.6338C328.671 69.7965 328.35 69.8779 327.927 69.8779C327.503 69.8779 327.044 69.7762 326.547 69.5728C326.051 69.3612 325.689 69.2554 325.461 69.2554C325.436 69.2554 325.029 69.4019 324.24 69.6948C323.451 69.9797 322.783 70.1221 322.238 70.1221H321.97C321.058 70.1221 320.281 69.8332 319.638 69.2554C319.003 68.6776 318.686 67.8556 318.686 66.7896C318.686 65.7235 319.036 64.8934 319.736 64.2993C320.436 63.6971 321.286 63.2861 322.287 63.0664C322.588 63.0013 323.089 62.9159 323.788 62.8101C324.488 62.7043 324.964 62.5944 325.217 62.4805C325.656 62.277 325.876 61.8945 325.876 61.333C325.876 60.7633 325.689 60.3198 325.314 60.0024C324.94 59.6769 324.492 59.5142 323.971 59.5142C323.459 59.5142 322.783 59.7054 321.945 60.0879C321.107 60.4704 320.574 60.6616 320.346 60.6616ZM343.283 68.5352C343.283 69.1374 342.758 69.4385 341.708 69.4385C341.114 69.4385 340.715 69.2961 340.512 69.0112C340.414 68.8729 340.366 68.5474 340.366 68.0347L340.329 67.2534C340.272 66.3989 340.243 65.5404 340.243 64.6777C340.243 62.8141 340.081 61.5649 339.755 60.9302C339.438 60.2873 338.901 59.9658 338.144 59.9658C337.639 59.9658 337.171 60.1164 336.74 60.4175C336.317 60.7186 335.991 61.1377 335.763 61.6748C335.291 62.7734 335.055 64.8039 335.055 67.7661C335.055 68.4416 334.925 68.9176 334.665 69.1943C334.413 69.471 334.087 69.6094 333.688 69.6094H333.444C332.533 69.6094 332.077 69.2472 332.077 68.5229V68.23C332.077 68.1405 332.126 67.9451 332.223 67.644L332.419 67.0825C332.614 66.4233 332.712 65.0114 332.712 62.8467L332.773 59.2212C332.773 58.7573 333.025 58.5254 333.53 58.5254C334.034 58.5254 334.531 58.6922 335.019 59.0259C335.515 59.3595 335.829 59.5264 335.959 59.5264C336.097 59.5264 336.337 59.4328 336.679 59.2456C337.826 58.619 338.746 58.3057 339.438 58.3057H339.755C341 58.3057 341.875 58.8672 342.38 59.9902C342.624 60.5192 342.746 61.6585 342.746 63.4082V63.4937C342.746 63.6401 342.742 63.7866 342.734 63.9331C342.734 64.3319 342.734 64.5394 342.734 64.5557C342.734 64.7103 342.734 64.8608 342.734 65.0073C342.734 65.1213 342.734 65.2311 342.734 65.3369C342.734 65.9635 342.754 66.3908 342.795 66.6187C342.852 66.9279 342.945 67.2493 343.076 67.583C343.214 67.9492 343.283 68.2666 343.283 68.5352ZM348.276 64.3481V64.7266C348.276 65.8171 348.483 66.6715 348.898 67.29C349.313 67.9085 349.834 68.2178 350.461 68.2178H350.888C351.791 68.2178 352.495 67.8394 353 67.0825C353.504 66.3175 353.757 65.2474 353.757 63.8721C353.773 63.7093 353.781 63.5832 353.781 63.4937L353.805 62.9932V62.2607C353.789 62.098 353.781 61.9759 353.781 61.8945C353.781 61.2516 353.626 60.7471 353.317 60.3809C353.008 60.0146 352.552 59.8315 351.95 59.8315H351.608C350.648 59.8315 349.85 60.2344 349.216 61.04C348.589 61.8457 348.276 62.9484 348.276 64.3481ZM355.368 58.8306C356.076 58.8306 356.43 59.3433 356.43 60.3687C356.43 60.6372 356.32 61.7603 356.1 63.7378C355.881 65.7153 355.771 67.3958 355.771 68.7793C355.771 70.179 355.677 71.2288 355.49 71.9287C355.091 73.4342 354.168 74.5003 352.719 75.127C351.962 75.4525 351.124 75.6152 350.204 75.6152C349.293 75.6152 348.479 75.4525 347.763 75.127C347.055 74.8014 346.701 74.4108 346.701 73.9551C346.701 73.4342 347.051 73.1738 347.751 73.1738C347.889 73.1738 348.263 73.2267 348.874 73.3325C349.484 73.4383 349.924 73.4912 350.192 73.4912C351.177 73.4912 351.983 73.182 352.609 72.5635C353.244 71.9531 353.561 71.1678 353.561 70.2075C353.561 69.703 353.374 69.4507 353 69.4507C352.935 69.4507 352.78 69.4751 352.536 69.5239C351.844 69.6623 351.214 69.7314 350.644 69.7314C349.195 69.7314 348.105 69.292 347.372 68.4131C347.031 68.0062 346.738 67.465 346.493 66.7896C346.257 66.106 346.139 65.3857 346.139 64.6289V64.2871C346.139 63.4896 346.27 62.7043 346.53 61.9312C346.799 61.1499 347.153 60.4948 347.592 59.9658C348.032 59.4287 348.605 59.0096 349.313 58.7085C350.021 58.4074 350.746 58.2568 351.486 58.2568H351.804C352.219 58.2568 352.752 58.3708 353.403 58.5986C354.062 58.8184 354.465 58.9282 354.611 58.9282C354.937 58.8631 355.189 58.8306 355.368 58.8306ZM361.85 62.5781V62.7734C361.85 63.0176 362.074 63.1396 362.521 63.1396H362.814L362.888 63.1274L363.486 63.0786C364.112 62.9891 364.519 62.9443 364.706 62.9443C365.593 62.9443 366.261 62.7775 366.708 62.4438C366.92 62.2811 367.026 61.9922 367.026 61.5771V61.4429C367.026 60.8325 366.822 60.3483 366.415 59.9902C366.017 59.6322 365.536 59.4531 364.975 59.4531H364.889L364.816 59.4653C364.027 59.4653 363.335 59.799 362.741 60.4663C362.147 61.1336 361.85 61.8376 361.85 62.5781ZM364.511 70.1587H364.242C362.688 70.1587 361.451 69.6663 360.532 68.6816C359.612 67.6888 359.152 66.3664 359.152 64.7144V64.1772C359.152 63.3879 359.307 62.5863 359.616 61.7725C360.243 60.1449 361.264 59.0218 362.68 58.4033C363.429 58.0697 364.19 57.9028 364.963 57.9028H365.488C366.554 57.9028 367.453 58.2609 368.185 58.9771C368.926 59.6851 369.296 60.6006 369.296 61.7236V61.9678C369.296 62.7653 368.979 63.3309 368.344 63.6646C367.905 63.9006 366.879 64.1366 365.268 64.3726C363.657 64.6086 362.778 64.751 362.631 64.7998C362.143 64.9707 361.899 65.2962 361.899 65.7764C361.899 66.4437 362.184 67.0133 362.753 67.4854C363.323 67.9574 364.088 68.1934 365.048 68.1934C365.496 68.1934 366.106 68.0713 366.879 67.8271C367.652 67.583 368.1 67.4609 368.222 67.4609C368.637 67.4609 368.845 67.64 368.845 67.998C368.845 68.4782 368.377 68.9583 367.441 69.4385C366.505 69.9186 365.528 70.1587 364.511 70.1587ZM372.812 63.1885C372.315 62.6839 372.067 61.9759 372.067 61.0645C372.067 60.153 372.474 59.3717 373.288 58.7207C374.102 58.0615 375.111 57.7319 376.315 57.7319H376.633C377.699 57.7319 378.545 57.8825 379.172 58.1836C379.806 58.4847 380.124 58.9364 380.124 59.5386C380.124 60.1326 379.859 60.4297 379.33 60.4297C379.192 60.4297 378.801 60.2669 378.159 59.9414C377.516 59.6077 376.909 59.4409 376.34 59.4409C375.77 59.4409 375.31 59.5711 374.96 59.8315C374.618 60.0838 374.448 60.4338 374.448 60.8813C374.448 61.3289 374.688 61.7196 375.168 62.0532C375.444 62.2485 376.096 62.5578 377.121 62.981C378.154 63.4041 378.891 63.811 379.33 64.2017C380.038 64.8283 380.392 65.6299 380.392 66.6064C380.392 67.583 379.977 68.4212 379.147 69.1211C378.317 69.8128 377.239 70.1587 375.912 70.1587H375.595C374.26 70.1587 373.259 69.9674 372.592 69.585C371.925 69.1943 371.591 68.6898 371.591 68.0713C371.591 67.4447 371.852 67.1313 372.372 67.1313C372.543 67.1313 372.987 67.3511 373.703 67.7905C374.427 68.23 375.135 68.4497 375.827 68.4497C376.527 68.4497 377.052 68.3032 377.402 68.0103C377.752 67.7091 377.927 67.3348 377.927 66.8872C377.927 66.4315 377.707 66.0327 377.267 65.6909C377.031 65.5037 376.356 65.166 375.241 64.6777C374.126 64.1813 373.316 63.6849 372.812 63.1885ZM390.781 63.1885C390.284 62.6839 390.036 61.9759 390.036 61.0645C390.036 60.153 390.443 59.3717 391.257 58.7207C392.07 58.0615 393.08 57.7319 394.284 57.7319H394.601C395.667 57.7319 396.514 57.8825 397.14 58.1836C397.775 58.4847 398.093 58.9364 398.093 59.5386C398.093 60.1326 397.828 60.4297 397.299 60.4297C397.161 60.4297 396.77 60.2669 396.127 59.9414C395.484 59.6077 394.878 59.4409 394.308 59.4409C393.739 59.4409 393.279 59.5711 392.929 59.8315C392.587 60.0838 392.416 60.4338 392.416 60.8813C392.416 61.3289 392.656 61.7196 393.137 62.0532C393.413 62.2485 394.064 62.5578 395.09 62.981C396.123 63.4041 396.86 63.811 397.299 64.2017C398.007 64.8283 398.361 65.6299 398.361 66.6064C398.361 67.583 397.946 68.4212 397.116 69.1211C396.286 69.8128 395.208 70.1587 393.881 70.1587H393.564C392.229 70.1587 391.228 69.9674 390.561 69.585C389.894 69.1943 389.56 68.6898 389.56 68.0713C389.56 67.4447 389.82 67.1313 390.341 67.1313C390.512 67.1313 390.956 67.3511 391.672 67.7905C392.396 68.23 393.104 68.4497 393.796 68.4497C394.496 68.4497 395.02 68.3032 395.37 68.0103C395.72 67.7091 395.895 67.3348 395.895 66.8872C395.895 66.4315 395.676 66.0327 395.236 65.6909C395 65.5037 394.325 65.166 393.21 64.6777C392.095 64.1813 391.285 63.6849 390.781 63.1885ZM406.064 58.7085C406.69 58.4725 407.333 58.3545 407.992 58.3545C408.652 58.3545 409.335 58.5498 410.043 58.9404C410.759 59.3311 411.15 59.5264 411.215 59.5264C411.28 59.5264 411.72 59.327 412.534 58.9282C413.347 58.5295 414.08 58.3301 414.731 58.3301C415.39 58.3301 415.931 58.4684 416.354 58.7451C416.786 59.0137 417.111 59.3351 417.331 59.7095C417.746 60.4256 417.953 62.0166 417.953 64.4824C417.953 65.5892 417.962 66.224 417.978 66.3867C418.002 66.5413 418.059 66.8221 418.149 67.229C418.246 67.6278 418.295 67.9574 418.295 68.2178C418.295 68.4701 418.189 68.7345 417.978 69.0112C417.766 69.2879 417.485 69.4263 417.136 69.4263C416.444 69.4263 416.033 69.1455 415.903 68.584C415.805 68.1771 415.691 66.9889 415.561 65.0195C415.439 63.0501 415.305 61.8945 415.158 61.5527C414.865 60.8366 414.242 60.4785 413.29 60.4785C412.68 60.4785 412.204 60.861 411.862 61.626C411.366 62.7246 411.117 64.2871 411.117 66.3135L411.24 68.0713C411.24 68.6898 411.012 69.1577 410.556 69.4751C410.263 69.6785 409.872 69.7803 409.384 69.7803C408.904 69.7803 408.587 69.7314 408.432 69.6338C408.163 69.471 408.029 69.1252 408.029 68.5962C408.029 68.4985 408.106 68.0998 408.261 67.3999C408.424 66.6919 408.505 65.5444 408.505 63.9575C408.505 62.3625 408.387 61.3493 408.151 60.918C407.915 60.4785 407.504 60.2588 406.918 60.2588C406.332 60.2588 405.812 60.4582 405.356 60.8569C404.908 61.2557 404.579 61.6911 404.367 62.1631C404.164 62.6351 403.98 63.7581 403.818 65.5322C403.663 67.3063 403.553 68.3236 403.488 68.584C403.374 69.0316 403.045 69.2554 402.499 69.2554C401.962 69.2554 401.592 69.0967 401.388 68.7793C401.193 68.4538 401.096 68.0591 401.096 67.5952L401.157 67.168L401.388 66.3257C401.486 65.9351 401.543 65.4793 401.559 64.9585C401.681 61.7277 401.775 59.8844 401.84 59.4287C401.905 58.973 402.198 58.7451 402.719 58.7451L404.538 59.0503C404.929 59.0503 405.437 58.9364 406.064 58.7085ZM423.447 64.8486C423.447 65.9147 423.691 66.8018 424.179 67.5098C424.667 68.2178 425.265 68.5718 425.973 68.5718H426.34C427.178 68.5718 427.886 68.1486 428.464 67.3022C429.05 66.4559 429.343 65.3288 429.343 63.9209V63.1152C429.343 62.0247 429.103 61.1336 428.622 60.4419C428.15 59.742 427.54 59.3921 426.791 59.3921H426.547C425.676 59.3921 424.944 59.8234 424.35 60.686C423.764 61.5487 423.471 62.5781 423.471 63.7744L423.447 64.0552V64.8486ZM426.205 70.2319H425.815C424.391 70.2319 423.231 69.7355 422.336 68.7427C421.441 67.7498 420.993 66.342 420.993 64.519L421.005 64.3115C421.005 62.3096 421.534 60.7308 422.592 59.5752C423.145 58.9648 423.776 58.5173 424.484 58.2324C425.2 57.9395 425.88 57.793 426.523 57.793H427.121C427.837 57.793 428.525 57.9517 429.184 58.269C431.072 59.1805 432.016 60.8976 432.016 63.4204V63.6157C432.008 64.4377 431.874 65.2718 431.613 66.1182C431.092 67.7865 430.091 68.9665 428.61 69.6582C427.788 70.0407 426.987 70.2319 426.205 70.2319ZM436.679 64.8486C436.679 65.9147 436.923 66.8018 437.411 67.5098C437.9 68.2178 438.498 68.5718 439.206 68.5718H439.572C440.41 68.5718 441.118 68.1486 441.696 67.3022C442.282 66.4559 442.575 65.3288 442.575 63.9209V63.1152C442.575 62.0247 442.335 61.1336 441.855 60.4419C441.383 59.742 440.772 59.3921 440.024 59.3921H439.78C438.909 59.3921 438.176 59.8234 437.582 60.686C436.996 61.5487 436.703 62.5781 436.703 63.7744L436.679 64.0552V64.8486ZM439.438 70.2319H439.047C437.623 70.2319 436.463 69.7355 435.568 68.7427C434.673 67.7498 434.225 66.342 434.225 64.519L434.238 64.3115C434.238 62.3096 434.767 60.7308 435.825 59.5752C436.378 58.9648 437.009 58.5173 437.717 58.2324C438.433 57.9395 439.112 57.793 439.755 57.793H440.353C441.069 57.793 441.757 57.9517 442.416 58.269C444.304 59.1805 445.248 60.8976 445.248 63.4204V63.6157C445.24 64.4377 445.106 65.2718 444.846 66.1182C444.325 67.7865 443.324 68.9665 441.843 69.6582C441.021 70.0407 440.219 70.2319 439.438 70.2319ZM454.111 68.6938C454.111 69.0194 453.911 69.3123 453.513 69.5728C453.122 69.825 452.589 69.9512 451.913 69.9512C450.652 69.9512 449.765 69.4832 449.252 68.5474C448.935 67.9614 448.776 66.5902 448.776 64.4336C448.776 62.277 448.74 61.0238 448.666 60.6738C448.593 60.3239 448.39 59.9821 448.056 59.6484C447.722 59.3148 447.555 59.0584 447.555 58.8794C447.555 58.8143 447.95 58.387 448.74 57.5977C448.91 57.4268 449.081 57.0483 449.252 56.4624C449.431 55.8765 449.557 55.4899 449.631 55.3027C449.875 54.7168 450.196 54.4238 450.595 54.4238H450.79C451.14 54.4238 451.388 54.5581 451.535 54.8267C451.592 54.9325 451.677 55.3149 451.791 55.9741C451.913 56.6252 452.052 57.0443 452.206 57.2314C452.361 57.4186 452.748 57.6261 453.366 57.854C453.993 58.0737 454.306 58.3097 454.306 58.562V58.6963C454.306 59.0218 453.948 59.2985 453.232 59.5264C452.524 59.7461 452.068 60.1001 451.865 60.5884C451.466 61.5731 451.266 63.1763 451.266 65.3979C451.266 66.4396 451.445 67.1476 451.804 67.522C452.023 67.7498 452.463 67.9085 453.122 67.998C453.781 68.0876 454.111 68.3195 454.111 68.6938ZM458.395 69.7681C457.435 69.7681 456.955 69.4263 456.955 68.7427C456.955 68.4334 457.028 67.9736 457.175 67.3633C457.329 66.7529 457.431 66.1914 457.48 65.6787C457.529 65.1579 457.614 63.4814 457.736 60.6494C457.866 57.8174 457.931 56.0921 457.931 55.4736V54.0332L457.858 53.0078C457.858 52.6253 458.208 52.4341 458.908 52.4341C459.616 52.4341 460.076 52.7067 460.287 53.252C460.393 53.5286 460.446 54.432 460.446 55.9619C460.446 57.4919 460.475 58.3626 460.532 58.5742C460.597 58.7858 460.763 58.8916 461.032 58.8916C461.065 58.8916 461.219 58.8428 461.496 58.7451L461.764 58.6475C462.635 58.3057 463.388 58.1348 464.023 58.1348C465.357 58.1348 466.305 58.6556 466.867 59.6973C467.241 60.389 467.429 61.8945 467.429 64.2139C467.429 65.3044 467.437 65.9513 467.453 66.1548C467.469 66.3582 467.522 66.7285 467.612 67.2656C467.701 67.7946 467.746 68.0876 467.746 68.1445C467.746 68.6247 467.636 68.9827 467.416 69.2188C467.205 69.4466 466.818 69.5605 466.257 69.5605C465.703 69.5605 465.341 69.3896 465.17 69.0479C465.081 68.8688 465.036 68.3521 465.036 67.4976L464.999 65.3491L465.036 63.4082C465.036 61.2354 464.401 60.1489 463.132 60.1489C462.009 60.1489 461.207 60.6209 460.727 61.5649C460.247 62.509 460.007 64.2586 460.007 66.814L460.043 68.1445C460.043 68.6003 459.901 68.9868 459.616 69.3042C459.331 69.6134 458.924 69.7681 458.395 69.7681ZM471.53 53.0322C471.53 52.4382 472.088 52.1411 473.202 52.1411H473.422C473.886 52.1411 474.203 52.255 474.374 52.4829C474.545 52.7026 474.631 53.134 474.631 53.7769L474.533 55.5957C474.509 55.8805 474.496 56.0352 474.496 56.0596L474.472 56.5234C474.456 56.8245 474.439 57.1297 474.423 57.439L474.387 57.9028L474.35 58.5986C474.22 61.0726 474.155 62.8996 474.155 64.0796C474.155 65.2515 474.207 66.0938 474.313 66.6064C474.419 67.1191 474.586 67.5545 474.814 67.9126C475.042 68.2707 475.156 68.5067 475.156 68.6206V68.7671C475.156 69.1252 474.977 69.41 474.618 69.6216C474.269 69.8332 473.792 69.939 473.19 69.939H472.555C472.181 69.939 471.852 69.8332 471.567 69.6216C471.29 69.4019 471.152 69.1536 471.152 68.877V68.5474L471.225 68.0347C471.323 67.3267 471.38 66.7977 471.396 66.4478C471.42 66.0897 471.457 65.5973 471.506 64.9707C471.555 64.3359 471.632 62.9891 471.738 60.9302C471.852 58.8631 471.909 57.7523 471.909 57.5977L471.957 56.6821L471.982 55.7788C471.982 54.9162 471.904 54.3018 471.75 53.9355C471.603 53.5612 471.53 53.2601 471.53 53.0322ZM482.077 69.9512C482.077 69.528 481.788 68.7874 481.21 67.7295C480.632 66.6634 480.148 65.6706 479.758 64.751C478.423 61.6178 477.756 59.8071 477.756 59.3188C477.756 59.0991 477.882 58.8997 478.134 58.7207C478.395 58.5417 478.826 58.4521 479.428 58.4521C480.03 58.4521 480.453 58.7085 480.698 59.2212C480.722 59.2782 480.807 59.6322 480.954 60.2832C482.061 64.3278 482.752 66.4478 483.029 66.6431C483.452 66.6431 484.03 65.6543 484.763 63.6768C485.259 62.334 485.564 61.2069 485.678 60.2954C485.8 59.384 485.898 58.859 485.971 58.7207C486.199 58.2975 486.671 58.0859 487.387 58.0859C488.111 58.0859 488.473 58.3667 488.473 58.9282C488.473 59.327 488.327 59.86 488.034 60.5273C487.741 61.1947 487.464 61.9189 487.204 62.7002C485.715 67.1598 484.636 69.9756 483.969 71.1475C483.302 72.3275 482.598 73.2552 481.857 73.9307C481.117 74.6143 480.372 74.9561 479.623 74.9561C478.883 74.9561 478.513 74.7445 478.513 74.3213C478.513 73.9469 478.891 73.6051 479.648 73.2959C480.413 72.9867 480.946 72.6286 481.247 72.2217C481.8 71.4811 482.077 70.7243 482.077 69.9512ZM491.782 70.1953H491.403C490.996 70.1953 490.679 70.1017 490.451 69.9146C490.231 69.7274 490.121 69.4792 490.121 69.1699C490.105 69.1048 490.097 69.0519 490.097 69.0112L490.073 68.8037V68.584L490.085 68.5352V68.4253C490.101 68.3602 490.109 68.3073 490.109 68.2666C490.109 67.9004 490.231 67.6156 490.475 67.4121C490.728 67.2005 491.004 67.0947 491.305 67.0947L491.562 67.0581H491.891C492.778 67.0581 493.222 67.522 493.222 68.4497V68.6206L493.173 69.0356C493.173 69.41 493.031 69.6989 492.746 69.9023C492.469 70.0977 492.148 70.1953 491.782 70.1953Z" fill="black"/>
</svg>
