<svg width="758" height="87" viewBox="0 0 758 87" fill="none" xmlns="http://www.w3.org/2000/svg">
<rect width="758" height="87" rx="18" fill="#D9D9D9"/>
<path d="M39.407 52C39.057 52 38.882 51.825 38.882 51.475V47.275C38.882 46.925 39.057 46.75 39.407 46.75H48.773V40.807H39.407C39.057 40.807 38.882 40.632 38.882 40.282L38.903 24.532C38.903 24.182 39.078 24.007 39.428 24.007H55.262C55.612 24.007 55.787 24.182 55.787 24.532V28.732C55.787 29.082 55.612 29.257 55.262 29.257H45.917V35.2H55.262C55.612 35.2 55.787 35.375 55.787 35.725V46.645C55.787 46.897 55.703 47.121 55.535 47.317L51.083 51.748C50.929 51.916 50.712 52 50.432 52H39.407Z" fill="#2ECC71"/>
<path d="M88.4165 30.0098C88.4165 30.3923 88.3311 30.6934 88.1602 30.9131C87.9893 31.1328 87.8387 31.2427 87.7085 31.2427C87.5864 31.2427 86.9395 30.8887 85.7676 30.1807C85.0514 29.7493 84.2987 29.5337 83.5093 29.5337C82.728 29.5337 82.0607 29.7331 81.5073 30.1318C80.9621 30.5225 80.6895 31.0718 80.6895 31.7798C80.6895 32.4878 80.9865 33.1144 81.5806 33.6597C81.8817 33.9364 82.7972 34.4409 84.3271 35.1733C85.8571 35.8976 86.915 36.5568 87.501 37.1509C88.3148 37.981 88.7217 38.929 88.7217 39.9951V40.4102C88.7135 41.0531 88.5549 41.6838 88.2456 42.3022C87.6515 43.4741 86.6465 44.2961 85.2305 44.7681C84.498 45.0122 83.6842 45.1343 82.7891 45.1343C80.014 45.1343 78.3335 44.5402 77.7476 43.3521C77.5441 42.937 77.4424 42.5586 77.4424 42.2168C77.4424 41.8913 77.5319 41.6227 77.7109 41.4111C77.89 41.1914 78.0934 41.0815 78.3213 41.0815C78.5492 41.0815 78.9194 41.3013 79.4321 41.7407C79.953 42.1802 80.486 42.5342 81.0312 42.8027C81.5765 43.0632 82.2642 43.1934 83.0942 43.1934C83.9243 43.1934 84.6242 42.9736 85.1938 42.5342C85.7716 42.0947 86.0605 41.4681 86.0605 40.6543C86.0605 39.8405 85.6496 39.1203 84.8276 38.4937C84.4614 38.217 83.5866 37.7531 82.2031 37.1021C80.8278 36.4429 79.8553 35.8081 79.2856 35.1978C78.5288 34.3921 78.1504 33.4237 78.1504 32.2925C78.1504 30.8602 78.6794 29.7331 79.7373 28.9111C80.7952 28.0811 82.0973 27.666 83.6436 27.666H84.0708C85.674 27.666 86.797 27.8776 87.4399 28.3008C88.091 28.7158 88.4165 29.2855 88.4165 30.0098ZM99.9521 37.9565C99.9521 36.8742 99.7243 36.0278 99.2686 35.4175C98.821 34.799 98.2839 34.4897 97.6572 34.4897H97.3032C96.4243 34.4897 95.7285 34.8397 95.2158 35.5396C94.7031 36.2313 94.4468 37.2526 94.4468 38.6035L94.4224 38.8477L94.3735 40.1172V40.9717C94.3735 41.8587 94.5526 42.4854 94.9106 42.8516C95.2769 43.2096 95.7936 43.3887 96.4609 43.3887H96.6929C97.6125 43.3887 98.3815 42.9655 99 42.1191C99.6185 41.2728 99.9277 40.2433 99.9277 39.0308L99.9521 38.7622V37.9565ZM93.3115 33.3667L95.0205 33.6597C95.1995 33.6597 95.6187 33.5417 96.2778 33.3057C96.937 33.0697 97.584 32.9517 98.2188 32.9517C99.5046 32.9517 100.546 33.4033 101.344 34.3066C102.141 35.2018 102.54 36.4103 102.54 37.9321V38.2373C102.54 39.2627 102.369 40.2067 102.027 41.0693C101.327 42.8516 100.16 44.0031 98.5239 44.5239C98.0601 44.6704 97.4375 44.7721 96.6562 44.8291C95.8831 44.8861 95.3338 44.9878 95.0083 45.1343C94.5119 45.3621 94.2637 45.7731 94.2637 46.3672C94.2637 46.6195 94.3084 46.9613 94.3979 47.3926C94.4956 47.8239 94.5444 48.2227 94.5444 48.5889C94.5444 48.9551 94.3369 49.3132 93.9219 49.6631C93.5068 50.0212 92.9901 50.2002 92.3716 50.2002H92.1152C91.3828 50.2002 91.0166 49.9316 91.0166 49.3945V49.1626C91.0166 49.0487 91.0939 48.7272 91.2485 48.1982C91.4113 47.6774 91.5252 47.1159 91.5903 46.5137C91.6554 45.9196 91.7612 44.4344 91.9077 42.0581C92.0542 39.6818 92.1274 38.0583 92.1274 37.1875C92.1274 36.3086 92.0705 35.5721 91.9565 34.978C91.8507 34.384 91.7979 34.0625 91.7979 34.0137C91.7979 33.5824 92.3024 33.3667 93.3115 33.3667ZM107.203 39.8486C107.203 40.9147 107.447 41.8018 107.936 42.5098C108.424 43.2178 109.022 43.5718 109.73 43.5718H110.096C110.934 43.5718 111.642 43.1486 112.22 42.3022C112.806 41.4559 113.099 40.3288 113.099 38.9209V38.1152C113.099 37.0247 112.859 36.1336 112.379 35.4419C111.907 34.742 111.297 34.3921 110.548 34.3921H110.304C109.433 34.3921 108.701 34.8234 108.106 35.686C107.521 36.5487 107.228 37.5781 107.228 38.7744L107.203 39.0552V39.8486ZM109.962 45.2319H109.571C108.147 45.2319 106.987 44.7355 106.092 43.7427C105.197 42.7498 104.75 41.342 104.75 39.519L104.762 39.3115C104.762 37.3096 105.291 35.7308 106.349 34.5752C106.902 33.9648 107.533 33.5173 108.241 33.2324C108.957 32.9395 109.636 32.793 110.279 32.793H110.877C111.594 32.793 112.281 32.9517 112.94 33.269C114.828 34.1805 115.772 35.8976 115.772 38.4204V38.6157C115.764 39.4377 115.63 40.2718 115.37 41.1182C114.849 42.7865 113.848 43.9665 112.367 44.6582C111.545 45.0407 110.743 45.2319 109.962 45.2319ZM124.635 43.6938C124.635 44.0194 124.435 44.3123 124.037 44.5728C123.646 44.825 123.113 44.9512 122.438 44.9512C121.176 44.9512 120.289 44.4832 119.776 43.5474C119.459 42.9614 119.3 41.5902 119.3 39.4336C119.3 37.277 119.264 36.0238 119.19 35.6738C119.117 35.3239 118.914 34.9821 118.58 34.6484C118.246 34.3148 118.08 34.0584 118.08 33.8794C118.08 33.8143 118.474 33.387 119.264 32.5977C119.435 32.4268 119.605 32.0483 119.776 31.4624C119.955 30.8765 120.082 30.4899 120.155 30.3027C120.399 29.7168 120.72 29.4238 121.119 29.4238H121.314C121.664 29.4238 121.913 29.5581 122.059 29.8267C122.116 29.9325 122.201 30.3149 122.315 30.9741C122.438 31.6252 122.576 32.0443 122.73 32.2314C122.885 32.4186 123.272 32.6261 123.89 32.854C124.517 33.0737 124.83 33.3097 124.83 33.562V33.6963C124.83 34.0218 124.472 34.2985 123.756 34.5264C123.048 34.7461 122.592 35.1001 122.389 35.5884C121.99 36.5731 121.791 38.1763 121.791 40.3979C121.791 41.4396 121.97 42.1476 122.328 42.522C122.547 42.7498 122.987 42.9085 123.646 42.998C124.305 43.0876 124.635 43.3195 124.635 43.6938ZM128.346 38.1885C127.849 37.6839 127.601 36.9759 127.601 36.0645C127.601 35.153 128.008 34.3717 128.822 33.7207C129.636 33.0615 130.645 32.7319 131.849 32.7319H132.167C133.233 32.7319 134.079 32.8825 134.706 33.1836C135.34 33.4847 135.658 33.9364 135.658 34.5386C135.658 35.1326 135.393 35.4297 134.864 35.4297C134.726 35.4297 134.335 35.2669 133.692 34.9414C133.049 34.6077 132.443 34.4409 131.874 34.4409C131.304 34.4409 130.844 34.5711 130.494 34.8315C130.152 35.0838 129.981 35.4338 129.981 35.8813C129.981 36.3289 130.222 36.7196 130.702 37.0532C130.978 37.2485 131.629 37.5578 132.655 37.981C133.688 38.4041 134.425 38.811 134.864 39.2017C135.572 39.8283 135.926 40.6299 135.926 41.6064C135.926 42.583 135.511 43.4212 134.681 44.1211C133.851 44.8128 132.773 45.1587 131.446 45.1587H131.129C129.794 45.1587 128.793 44.9674 128.126 44.585C127.459 44.1943 127.125 43.6898 127.125 43.0713C127.125 42.4447 127.385 42.1313 127.906 42.1313C128.077 42.1313 128.521 42.3511 129.237 42.7905C129.961 43.23 130.669 43.4497 131.361 43.4497C132.061 43.4497 132.586 43.3032 132.936 43.0103C133.285 42.7091 133.46 42.3348 133.46 41.8872C133.46 41.4315 133.241 41.0327 132.801 40.6909C132.565 40.5037 131.89 40.166 130.775 39.6777C129.66 39.1813 128.85 38.6849 128.346 38.1885ZM150.489 33.7085C151.116 33.4725 151.759 33.3545 152.418 33.3545C153.077 33.3545 153.761 33.5498 154.469 33.9404C155.185 34.3311 155.576 34.5264 155.641 34.5264C155.706 34.5264 156.145 34.327 156.959 33.9282C157.773 33.5295 158.505 33.3301 159.156 33.3301C159.815 33.3301 160.357 33.4684 160.78 33.7451C161.211 34.0137 161.537 34.3351 161.756 34.7095C162.171 35.4256 162.379 37.0166 162.379 39.4824C162.379 40.5892 162.387 41.224 162.403 41.3867C162.428 41.5413 162.485 41.8221 162.574 42.229C162.672 42.6278 162.721 42.9574 162.721 43.2178C162.721 43.4701 162.615 43.7345 162.403 44.0112C162.192 44.2879 161.911 44.4263 161.561 44.4263C160.869 44.4263 160.458 44.1455 160.328 43.584C160.23 43.1771 160.117 41.9889 159.986 40.0195C159.864 38.0501 159.73 36.8945 159.583 36.5527C159.291 35.8366 158.668 35.4785 157.716 35.4785C157.105 35.4785 156.629 35.861 156.288 36.626C155.791 37.7246 155.543 39.2871 155.543 41.3135L155.665 43.0713C155.665 43.6898 155.437 44.1577 154.981 44.4751C154.688 44.6785 154.298 44.7803 153.81 44.7803C153.329 44.7803 153.012 44.7314 152.857 44.6338C152.589 44.471 152.455 44.1252 152.455 43.5962C152.455 43.4985 152.532 43.0998 152.687 42.3999C152.849 41.6919 152.931 40.5444 152.931 38.9575C152.931 37.3625 152.813 36.3493 152.577 35.918C152.341 35.4785 151.93 35.2588 151.344 35.2588C150.758 35.2588 150.237 35.4582 149.781 35.8569C149.334 36.2557 149.004 36.6911 148.792 37.1631C148.589 37.6351 148.406 38.7581 148.243 40.5322C148.089 42.3063 147.979 43.3236 147.914 43.584C147.8 44.0316 147.47 44.2554 146.925 44.2554C146.388 44.2554 146.017 44.0967 145.814 43.7793C145.619 43.4538 145.521 43.0591 145.521 42.5952L145.582 42.168L145.814 41.3257C145.912 40.9351 145.969 40.4793 145.985 39.9585C146.107 36.7277 146.201 34.8844 146.266 34.4287C146.331 33.973 146.624 33.7451 147.145 33.7451L148.963 34.0503C149.354 34.0503 149.863 33.9364 150.489 33.7085ZM167.97 37.5781V37.7734C167.97 38.0176 168.194 38.1396 168.641 38.1396H168.934L169.007 38.1274L169.605 38.0786C170.232 37.9891 170.639 37.9443 170.826 37.9443C171.713 37.9443 172.381 37.7775 172.828 37.4438C173.04 37.2811 173.146 36.9922 173.146 36.5771V36.4429C173.146 35.8325 172.942 35.3483 172.535 34.9902C172.136 34.6322 171.656 34.4531 171.095 34.4531H171.009L170.936 34.4653C170.147 34.4653 169.455 34.799 168.861 35.4663C168.267 36.1336 167.97 36.8376 167.97 37.5781ZM170.631 45.1587H170.362C168.808 45.1587 167.571 44.6663 166.651 43.6816C165.732 42.6888 165.272 41.3664 165.272 39.7144V39.1772C165.272 38.3879 165.427 37.5863 165.736 36.7725C166.362 35.1449 167.384 34.0218 168.8 33.4033C169.549 33.0697 170.309 32.9028 171.083 32.9028H171.607C172.674 32.9028 173.573 33.2609 174.305 33.9771C175.046 34.6851 175.416 35.6006 175.416 36.7236V36.9678C175.416 37.7653 175.099 38.3309 174.464 38.6646C174.024 38.9006 172.999 39.1366 171.388 39.3726C169.776 39.6086 168.897 39.751 168.751 39.7998C168.263 39.9707 168.019 40.2962 168.019 40.7764C168.019 41.4437 168.303 42.0133 168.873 42.4854C169.443 42.9574 170.208 43.1934 171.168 43.1934C171.616 43.1934 172.226 43.0713 172.999 42.8271C173.772 42.583 174.22 42.4609 174.342 42.4609C174.757 42.4609 174.964 42.64 174.964 42.998C174.964 43.4782 174.496 43.9583 173.561 44.4385C172.625 44.9186 171.648 45.1587 170.631 45.1587ZM178.932 38.1885C178.435 37.6839 178.187 36.9759 178.187 36.0645C178.187 35.153 178.594 34.3717 179.408 33.7207C180.222 33.0615 181.231 32.7319 182.435 32.7319H182.752C183.819 32.7319 184.665 32.8825 185.292 33.1836C185.926 33.4847 186.244 33.9364 186.244 34.5386C186.244 35.1326 185.979 35.4297 185.45 35.4297C185.312 35.4297 184.921 35.2669 184.278 34.9414C183.635 34.6077 183.029 34.4409 182.459 34.4409C181.89 34.4409 181.43 34.5711 181.08 34.8315C180.738 35.0838 180.567 35.4338 180.567 35.8813C180.567 36.3289 180.807 36.7196 181.288 37.0532C181.564 37.2485 182.215 37.5578 183.241 37.981C184.274 38.4041 185.011 38.811 185.45 39.2017C186.158 39.8283 186.512 40.6299 186.512 41.6064C186.512 42.583 186.097 43.4212 185.267 44.1211C184.437 44.8128 183.359 45.1587 182.032 45.1587H181.715C180.38 45.1587 179.379 44.9674 178.712 44.585C178.045 44.1943 177.711 43.6898 177.711 43.0713C177.711 42.4447 177.971 42.1313 178.492 42.1313C178.663 42.1313 179.107 42.3511 179.823 42.7905C180.547 43.23 181.255 43.4497 181.947 43.4497C182.647 43.4497 183.172 43.3032 183.521 43.0103C183.871 42.7091 184.046 42.3348 184.046 41.8872C184.046 41.4315 183.827 41.0327 183.387 40.6909C183.151 40.5037 182.476 40.166 181.361 39.6777C180.246 39.1813 179.436 38.6849 178.932 38.1885ZM189.991 38.1885C189.495 37.6839 189.247 36.9759 189.247 36.0645C189.247 35.153 189.653 34.3717 190.467 33.7207C191.281 33.0615 192.29 32.7319 193.495 32.7319H193.812C194.878 32.7319 195.724 32.8825 196.351 33.1836C196.986 33.4847 197.303 33.9364 197.303 34.5386C197.303 35.1326 197.039 35.4297 196.51 35.4297C196.371 35.4297 195.981 35.2669 195.338 34.9414C194.695 34.6077 194.089 34.4409 193.519 34.4409C192.949 34.4409 192.49 34.5711 192.14 34.8315C191.798 35.0838 191.627 35.4338 191.627 35.8813C191.627 36.3289 191.867 36.7196 192.347 37.0532C192.624 37.2485 193.275 37.5578 194.3 37.981C195.334 38.4041 196.07 38.811 196.51 39.2017C197.218 39.8283 197.572 40.6299 197.572 41.6064C197.572 42.583 197.157 43.4212 196.327 44.1211C195.497 44.8128 194.418 45.1587 193.092 45.1587H192.774C191.44 45.1587 190.439 44.9674 189.771 44.585C189.104 44.1943 188.771 43.6898 188.771 43.0713C188.771 42.4447 189.031 42.1313 189.552 42.1313C189.723 42.1313 190.166 42.3511 190.882 42.7905C191.607 43.23 192.315 43.4497 193.006 43.4497C193.706 43.4497 194.231 43.3032 194.581 43.0103C194.931 42.7091 195.106 42.3348 195.106 41.8872C195.106 41.4315 194.886 41.0327 194.447 40.6909C194.211 40.5037 193.535 40.166 192.42 39.6777C191.306 39.1813 190.496 38.6849 189.991 38.1885ZM211.964 43.4497H212.33C213.217 43.4497 213.962 43.0103 214.564 42.1313C215.174 41.2443 215.479 40.0399 215.479 38.5181V38.1274L215.467 37.9932L215.455 37.7368C215.447 37.6473 215.443 37.5618 215.443 37.4805C215.443 36.6911 215.223 35.9993 214.784 35.4053C214.344 34.8031 213.807 34.502 213.172 34.502H212.818C212.42 34.502 211.98 34.6403 211.5 34.917C211.028 35.1937 210.694 35.5192 210.499 35.8936C210.068 36.7074 209.852 37.9932 209.852 39.751V40.874C209.876 41.1182 209.889 41.3216 209.889 41.4844C209.889 42.0703 210.068 42.5464 210.426 42.9126C210.792 43.2707 211.305 43.4497 211.964 43.4497ZM210.365 32.7197C210.365 33.029 210.414 33.2609 210.511 33.4155C210.617 33.5701 210.89 33.6475 211.329 33.6475C211.337 33.6475 211.602 33.5864 212.123 33.4644C212.652 33.3423 213.197 33.2812 213.758 33.2812C214.971 33.2812 215.984 33.7614 216.798 34.7217C217.612 35.682 218.019 36.8538 218.019 38.2373V39.1162C218.019 39.7998 217.884 40.5241 217.616 41.2891C217.339 42.054 216.948 42.7173 216.444 43.2788C215.41 44.4181 214.137 44.9878 212.623 44.9878H212.354C211.931 44.9878 211.386 44.9064 210.719 44.7437C210.051 44.5809 209.616 44.4995 209.413 44.4995L208.595 44.5728C207.757 44.5728 207.337 44.1536 207.337 43.3154V42.8149C207.337 42.3185 207.435 40.5078 207.63 37.3828C207.834 34.2578 207.936 32.264 207.936 31.4014C207.936 30.5387 207.866 29.8226 207.728 29.2529C207.59 28.6833 207.521 28.374 207.521 28.3252C207.521 27.6416 207.907 27.2998 208.68 27.2998H208.924C209.583 27.2998 210.003 27.4585 210.182 27.7759C210.361 28.0851 210.45 28.6629 210.45 29.5093L210.389 31.4502L210.365 31.9995V32.7197ZM222.828 37.5781V37.7734C222.828 38.0176 223.052 38.1396 223.5 38.1396H223.792L223.866 38.1274L224.464 38.0786C225.09 37.9891 225.497 37.9443 225.685 37.9443C226.572 37.9443 227.239 37.7775 227.687 37.4438C227.898 37.2811 228.004 36.9922 228.004 36.5771V36.4429C228.004 35.8325 227.8 35.3483 227.394 34.9902C226.995 34.6322 226.515 34.4531 225.953 34.4531H225.868L225.794 34.4653C225.005 34.4653 224.313 34.799 223.719 35.4663C223.125 36.1336 222.828 36.8376 222.828 37.5781ZM225.489 45.1587H225.221C223.666 45.1587 222.429 44.6663 221.51 43.6816C220.59 42.6888 220.13 41.3664 220.13 39.7144V39.1772C220.13 38.3879 220.285 37.5863 220.594 36.7725C221.221 35.1449 222.242 34.0218 223.658 33.4033C224.407 33.0697 225.168 32.9028 225.941 32.9028H226.466C227.532 32.9028 228.431 33.2609 229.164 33.9771C229.904 34.6851 230.274 35.6006 230.274 36.7236V36.9678C230.274 37.7653 229.957 38.3309 229.322 38.6646C228.883 38.9006 227.857 39.1366 226.246 39.3726C224.635 39.6086 223.756 39.751 223.609 39.7998C223.121 39.9707 222.877 40.2962 222.877 40.7764C222.877 41.4437 223.162 42.0133 223.731 42.4854C224.301 42.9574 225.066 43.1934 226.026 43.1934C226.474 43.1934 227.084 43.0713 227.857 42.8271C228.631 42.583 229.078 42.4609 229.2 42.4609C229.615 42.4609 229.823 42.64 229.823 42.998C229.823 43.4782 229.355 43.9583 228.419 44.4385C227.483 44.9186 226.507 45.1587 225.489 45.1587ZM234.852 45.8911H234.571C234.164 45.8911 233.819 45.7731 233.534 45.5371C233.257 45.3011 233.119 45.0203 233.119 44.6948C233.119 44.3693 233.216 43.9543 233.412 43.4497C233.615 42.937 233.762 42.3145 233.851 41.582C233.949 40.8415 233.998 39.7591 233.998 38.335C233.998 36.9108 233.928 36.0034 233.79 35.6128C233.766 35.5477 233.652 35.332 233.448 34.9658C233.245 34.5915 233.143 34.2741 233.143 34.0137C233.143 33.7533 233.277 33.4196 233.546 33.0127C233.823 32.6058 234.006 32.3047 234.095 32.1094C235.194 29.79 235.768 28.6019 235.816 28.5449C236.663 27.5602 237.806 27.0679 239.247 27.0679C239.914 27.0679 240.427 27.1818 240.785 27.4097C241.143 27.6375 241.322 27.9346 241.322 28.3008C241.322 28.6589 241.11 28.9193 240.687 29.082C240.573 29.1227 240.423 29.1431 240.235 29.1431C240.097 29.1349 239.938 29.1227 239.759 29.1064C239.336 29.0576 239.027 29.0332 238.832 29.0332C238.303 29.0332 237.871 29.2611 237.538 29.7168C237.212 30.1644 237.049 30.6812 237.049 31.2671C237.049 31.853 237.167 32.2803 237.403 32.5488C237.477 32.6302 237.822 32.8337 238.441 33.1592C239.068 33.4766 239.381 33.798 239.381 34.1235C239.381 34.3026 239.031 34.5793 238.331 34.9536C237.835 35.214 237.468 35.6779 237.232 36.3452C236.72 37.7775 236.463 39.6615 236.463 41.9971L236.695 44.0601C236.695 44.6216 236.528 45.0651 236.195 45.3906C235.869 45.7243 235.422 45.8911 234.852 45.8911ZM244.02 39.8486C244.02 40.9147 244.264 41.8018 244.752 42.5098C245.24 43.2178 245.838 43.5718 246.546 43.5718H246.913C247.751 43.5718 248.459 43.1486 249.037 42.3022C249.623 41.4559 249.916 40.3288 249.916 38.9209V38.1152C249.916 37.0247 249.675 36.1336 249.195 35.4419C248.723 34.742 248.113 34.3921 247.364 34.3921H247.12C246.249 34.3921 245.517 34.8234 244.923 35.686C244.337 36.5487 244.044 37.5781 244.044 38.7744L244.02 39.0552V39.8486ZM246.778 45.2319H246.388C244.964 45.2319 243.804 44.7355 242.909 43.7427C242.014 42.7498 241.566 41.342 241.566 39.519L241.578 39.3115C241.578 37.3096 242.107 35.7308 243.165 34.5752C243.718 33.9648 244.349 33.5173 245.057 33.2324C245.773 32.9395 246.453 32.793 247.096 32.793H247.694C248.41 32.793 249.098 32.9517 249.757 33.269C251.645 34.1805 252.589 35.8976 252.589 38.4204V38.6157C252.581 39.4377 252.446 40.2718 252.186 41.1182C251.665 42.7865 250.664 43.9665 249.183 44.6582C248.361 45.0407 247.56 45.2319 246.778 45.2319ZM255.897 38.6523V37.7124C255.897 36.5812 255.836 35.7552 255.714 35.2344C255.592 34.7054 255.531 34.3351 255.531 34.1235C255.531 33.6271 255.893 33.3789 256.617 33.3789C257.341 33.3789 257.866 33.5132 258.192 33.7817C258.281 33.855 258.395 33.9974 258.534 34.209C258.68 34.4206 258.81 34.5264 258.924 34.5264C258.949 34.5264 259.303 34.3188 259.986 33.9038C260.67 33.4888 261.256 33.2812 261.744 33.2812H261.927C262.326 33.2812 262.643 33.3789 262.879 33.5742C263.115 33.7614 263.233 33.9933 263.233 34.27V34.4287C263.233 34.7624 263.115 35.0024 262.879 35.1489C262.652 35.2954 262.285 35.3687 261.781 35.3687C260.633 35.3687 259.795 35.7715 259.266 36.5771C258.745 37.3828 258.485 38.807 258.485 40.8496C258.485 41.1426 258.534 41.5942 258.631 42.2046C258.737 42.8149 258.79 43.2747 258.79 43.584C258.79 43.8932 258.623 44.1903 258.29 44.4751C257.956 44.7599 257.533 44.9023 257.02 44.9023H256.605C256.157 44.9023 255.812 44.7965 255.567 44.585C255.331 44.3652 255.213 44.1007 255.213 43.7915C255.213 43.4741 255.27 43.1527 255.384 42.8271C255.694 41.9482 255.848 40.9798 255.848 39.9219C255.881 39.3359 255.897 38.9128 255.897 38.6523ZM267.286 37.5781V37.7734C267.286 38.0176 267.51 38.1396 267.958 38.1396H268.25L268.324 38.1274L268.922 38.0786C269.549 37.9891 269.955 37.9443 270.143 37.9443C271.03 37.9443 271.697 37.7775 272.145 37.4438C272.356 37.2811 272.462 36.9922 272.462 36.5771V36.4429C272.462 35.8325 272.258 35.3483 271.852 34.9902C271.453 34.6322 270.973 34.4531 270.411 34.4531H270.326L270.252 34.4653C269.463 34.4653 268.771 34.799 268.177 35.4663C267.583 36.1336 267.286 36.8376 267.286 37.5781ZM269.947 45.1587H269.679C268.124 45.1587 266.887 44.6663 265.968 43.6816C265.048 42.6888 264.588 41.3664 264.588 39.7144V39.1772C264.588 38.3879 264.743 37.5863 265.052 36.7725C265.679 35.1449 266.7 34.0218 268.116 33.4033C268.865 33.0697 269.626 32.9028 270.399 32.9028H270.924C271.99 32.9028 272.889 33.2609 273.622 33.9771C274.362 34.6851 274.732 35.6006 274.732 36.7236V36.9678C274.732 37.7653 274.415 38.3309 273.78 38.6646C273.341 38.9006 272.315 39.1366 270.704 39.3726C269.093 39.6086 268.214 39.751 268.067 39.7998C267.579 39.9707 267.335 40.2962 267.335 40.7764C267.335 41.4437 267.62 42.0133 268.189 42.4854C268.759 42.9574 269.524 43.1934 270.484 43.1934C270.932 43.1934 271.542 43.0713 272.315 42.8271C273.089 42.583 273.536 42.4609 273.658 42.4609C274.073 42.4609 274.281 42.64 274.281 42.998C274.281 43.4782 273.813 43.9583 272.877 44.4385C271.941 44.9186 270.965 45.1587 269.947 45.1587ZM288.148 43.4619H288.465C289.133 43.4619 289.719 43.2381 290.223 42.7905C290.736 42.3348 290.992 41.8099 290.992 41.2158L291.017 41.0571V40.8984L291.041 40.52V39.8242C291.041 39.3522 290.801 39.1162 290.321 39.1162H289.771L289.686 39.1284L289.21 39.165C288.982 39.1976 288.819 39.2139 288.722 39.2139C288.062 39.2139 287.452 39.4621 286.891 39.9585C286.5 40.3084 286.305 40.8049 286.305 41.4478V41.6919C286.305 42.2371 286.48 42.6685 286.83 42.9858C287.188 43.3032 287.627 43.4619 288.148 43.4619ZM285.426 35.6616C284.881 35.6616 284.608 35.3117 284.608 34.6118C284.608 34.091 285.047 33.6393 285.926 33.2568C286.813 32.8662 287.733 32.6709 288.685 32.6709H289.295C290.117 32.6709 290.842 32.8255 291.468 33.1348C292.095 33.4359 292.571 33.8468 292.896 34.3677C293.23 34.8885 293.434 35.568 293.507 36.4062C293.523 36.6016 293.531 37.5496 293.531 39.2505C293.531 40.9513 293.552 41.932 293.592 42.1924C293.641 42.4447 293.771 42.7539 293.983 43.1201C294.203 43.4863 294.312 43.7874 294.312 44.0234C294.312 44.2594 294.199 44.4629 293.971 44.6338C293.751 44.7965 293.43 44.8779 293.006 44.8779C292.583 44.8779 292.123 44.7762 291.627 44.5728C291.131 44.3612 290.768 44.2554 290.541 44.2554C290.516 44.2554 290.109 44.4019 289.32 44.6948C288.53 44.9797 287.863 45.1221 287.318 45.1221H287.049C286.138 45.1221 285.361 44.8332 284.718 44.2554C284.083 43.6776 283.766 42.8556 283.766 41.7896C283.766 40.7235 284.116 39.8934 284.815 39.2993C285.515 38.6971 286.366 38.2861 287.367 38.0664C287.668 38.0013 288.168 37.9159 288.868 37.8101C289.568 37.7043 290.044 37.5944 290.296 37.4805C290.736 37.277 290.956 36.8945 290.956 36.333C290.956 35.7633 290.768 35.3198 290.394 35.0024C290.02 34.6769 289.572 34.5142 289.051 34.5142C288.539 34.5142 287.863 34.7054 287.025 35.0879C286.187 35.4704 285.654 35.6616 285.426 35.6616ZM308.363 43.5352C308.363 44.1374 307.838 44.4385 306.788 44.4385C306.194 44.4385 305.795 44.2961 305.592 44.0112C305.494 43.8729 305.445 43.5474 305.445 43.0347L305.409 42.2534C305.352 41.3989 305.323 40.5404 305.323 39.6777C305.323 37.8141 305.16 36.5649 304.835 35.9302C304.518 35.2873 303.98 34.9658 303.224 34.9658C302.719 34.9658 302.251 35.1164 301.82 35.4175C301.397 35.7186 301.071 36.1377 300.843 36.6748C300.371 37.7734 300.135 39.8039 300.135 42.7661C300.135 43.4416 300.005 43.9176 299.745 44.1943C299.492 44.471 299.167 44.6094 298.768 44.6094H298.524C297.612 44.6094 297.157 44.2472 297.157 43.5229V43.23C297.157 43.1405 297.206 42.9451 297.303 42.644L297.499 42.0825C297.694 41.4233 297.792 40.0114 297.792 37.8467L297.853 34.2212C297.853 33.7573 298.105 33.5254 298.609 33.5254C299.114 33.5254 299.61 33.6922 300.099 34.0259C300.595 34.3595 300.908 34.5264 301.039 34.5264C301.177 34.5264 301.417 34.4328 301.759 34.2456C302.906 33.619 303.826 33.3057 304.518 33.3057H304.835C306.08 33.3057 306.955 33.8672 307.459 34.9902C307.704 35.5192 307.826 36.6585 307.826 38.4082V38.4937C307.826 38.6401 307.822 38.7866 307.813 38.9331C307.813 39.3319 307.813 39.5394 307.813 39.5557C307.813 39.7103 307.813 39.8608 307.813 40.0073C307.813 40.1213 307.813 40.2311 307.813 40.3369C307.813 40.9635 307.834 41.3908 307.875 41.6187C307.931 41.9279 308.025 42.2493 308.155 42.583C308.294 42.9492 308.363 43.2666 308.363 43.5352ZM315.199 44.9512C315.199 44.528 314.91 43.7874 314.332 42.7295C313.754 41.6634 313.27 40.6706 312.879 39.751C311.545 36.6178 310.877 34.8071 310.877 34.3188C310.877 34.0991 311.004 33.8997 311.256 33.7207C311.516 33.5417 311.948 33.4521 312.55 33.4521C313.152 33.4521 313.575 33.7085 313.819 34.2212C313.844 34.2782 313.929 34.6322 314.076 35.2832C315.182 39.3278 315.874 41.4478 316.151 41.6431C316.574 41.6431 317.152 40.6543 317.884 38.6768C318.381 37.334 318.686 36.2069 318.8 35.2954C318.922 34.384 319.02 33.859 319.093 33.7207C319.321 33.2975 319.793 33.0859 320.509 33.0859C321.233 33.0859 321.595 33.3667 321.595 33.9282C321.595 34.327 321.449 34.86 321.156 35.5273C320.863 36.1947 320.586 36.9189 320.326 37.7002C318.836 42.1598 317.758 44.9756 317.091 46.1475C316.424 47.3275 315.72 48.2552 314.979 48.9307C314.238 49.6143 313.494 49.9561 312.745 49.9561C312.005 49.9561 311.634 49.7445 311.634 49.3213C311.634 48.9469 312.013 48.6051 312.77 48.2959C313.535 47.9867 314.068 47.6286 314.369 47.2217C314.922 46.4811 315.199 45.7243 315.199 44.9512ZM325.807 39.8486C325.807 40.9147 326.051 41.8018 326.539 42.5098C327.027 43.2178 327.625 43.5718 328.333 43.5718H328.7C329.538 43.5718 330.246 43.1486 330.824 42.3022C331.41 41.4559 331.703 40.3288 331.703 38.9209V38.1152C331.703 37.0247 331.463 36.1336 330.982 35.4419C330.51 34.742 329.9 34.3921 329.151 34.3921H328.907C328.036 34.3921 327.304 34.8234 326.71 35.686C326.124 36.5487 325.831 37.5781 325.831 38.7744L325.807 39.0552V39.8486ZM328.565 45.2319H328.175C326.751 45.2319 325.591 44.7355 324.696 43.7427C323.801 42.7498 323.353 41.342 323.353 39.519L323.365 39.3115C323.365 37.3096 323.894 35.7308 324.952 34.5752C325.506 33.9648 326.136 33.5173 326.844 33.2324C327.56 32.9395 328.24 32.793 328.883 32.793H329.481C330.197 32.793 330.885 32.9517 331.544 33.269C333.432 34.1805 334.376 35.8976 334.376 38.4204V38.6157C334.368 39.4377 334.234 40.2718 333.973 41.1182C333.452 42.7865 332.451 43.9665 330.97 44.6582C330.148 45.0407 329.347 45.2319 328.565 45.2319ZM348.109 43.5352C348.109 44.1374 347.584 44.4385 346.534 44.4385C345.94 44.4385 345.541 44.2961 345.338 44.0112C345.24 43.8729 345.191 43.5474 345.191 43.0347L345.155 42.2534C345.098 41.3989 345.069 40.5404 345.069 39.6777C345.069 37.8141 344.907 36.5649 344.581 35.9302C344.264 35.2873 343.727 34.9658 342.97 34.9658C342.465 34.9658 341.997 35.1164 341.566 35.4175C341.143 35.7186 340.817 36.1377 340.589 36.6748C340.117 37.7734 339.881 39.8039 339.881 42.7661C339.881 43.4416 339.751 43.9176 339.491 44.1943C339.238 44.471 338.913 44.6094 338.514 44.6094H338.27C337.359 44.6094 336.903 44.2472 336.903 43.5229V43.23C336.903 43.1405 336.952 42.9451 337.049 42.644L337.245 42.0825C337.44 41.4233 337.538 40.0114 337.538 37.8467L337.599 34.2212C337.599 33.7573 337.851 33.5254 338.355 33.5254C338.86 33.5254 339.356 33.6922 339.845 34.0259C340.341 34.3595 340.654 34.5264 340.785 34.5264C340.923 34.5264 341.163 34.4328 341.505 34.2456C342.652 33.619 343.572 33.3057 344.264 33.3057H344.581C345.826 33.3057 346.701 33.8672 347.206 34.9902C347.45 35.5192 347.572 36.6585 347.572 38.4082V38.4937C347.572 38.6401 347.568 38.7866 347.56 38.9331C347.56 39.3319 347.56 39.5394 347.56 39.5557C347.56 39.7103 347.56 39.8608 347.56 40.0073C347.56 40.1213 347.56 40.2311 347.56 40.3369C347.56 40.9635 347.58 41.3908 347.621 41.6187C347.678 41.9279 347.771 42.2493 347.901 42.583C348.04 42.9492 348.109 43.2666 348.109 43.5352ZM353.175 37.5781V37.7734C353.175 38.0176 353.399 38.1396 353.846 38.1396H354.139L354.212 38.1274L354.811 38.0786C355.437 37.9891 355.844 37.9443 356.031 37.9443C356.918 37.9443 357.586 37.7775 358.033 37.4438C358.245 37.2811 358.351 36.9922 358.351 36.5771V36.4429C358.351 35.8325 358.147 35.3483 357.74 34.9902C357.341 34.6322 356.861 34.4531 356.3 34.4531H356.214L356.141 34.4653C355.352 34.4653 354.66 34.799 354.066 35.4663C353.472 36.1336 353.175 36.8376 353.175 37.5781ZM355.836 45.1587H355.567C354.013 45.1587 352.776 44.6663 351.856 43.6816C350.937 42.6888 350.477 41.3664 350.477 39.7144V39.1772C350.477 38.3879 350.632 37.5863 350.941 36.7725C351.568 35.1449 352.589 34.0218 354.005 33.4033C354.754 33.0697 355.514 32.9028 356.288 32.9028H356.812C357.879 32.9028 358.778 33.2609 359.51 33.9771C360.251 34.6851 360.621 35.6006 360.621 36.7236V36.9678C360.621 37.7653 360.304 38.3309 359.669 38.6646C359.229 38.9006 358.204 39.1366 356.593 39.3726C354.981 39.6086 354.103 39.751 353.956 39.7998C353.468 39.9707 353.224 40.2962 353.224 40.7764C353.224 41.4437 353.508 42.0133 354.078 42.4854C354.648 42.9574 355.413 43.1934 356.373 43.1934C356.821 43.1934 357.431 43.0713 358.204 42.8271C358.977 42.583 359.425 42.4609 359.547 42.4609C359.962 42.4609 360.169 42.64 360.169 42.998C360.169 43.4782 359.701 43.9583 358.766 44.4385C357.83 44.9186 356.853 45.1587 355.836 45.1587ZM372.364 37.5781V37.7734C372.364 38.0176 372.588 38.1396 373.036 38.1396H373.329L373.402 38.1274L374 38.0786C374.627 37.9891 375.034 37.9443 375.221 37.9443C376.108 37.9443 376.775 37.7775 377.223 37.4438C377.434 37.2811 377.54 36.9922 377.54 36.5771V36.4429C377.54 35.8325 377.337 35.3483 376.93 34.9902C376.531 34.6322 376.051 34.4531 375.489 34.4531H375.404L375.331 34.4653C374.541 34.4653 373.849 34.799 373.255 35.4663C372.661 36.1336 372.364 36.8376 372.364 37.5781ZM375.025 45.1587H374.757C373.202 45.1587 371.965 44.6663 371.046 43.6816C370.126 42.6888 369.667 41.3664 369.667 39.7144V39.1772C369.667 38.3879 369.821 37.5863 370.13 36.7725C370.757 35.1449 371.778 34.0218 373.194 33.4033C373.943 33.0697 374.704 32.9028 375.477 32.9028H376.002C377.068 32.9028 377.967 33.2609 378.7 33.9771C379.44 34.6851 379.811 35.6006 379.811 36.7236V36.9678C379.811 37.7653 379.493 38.3309 378.858 38.6646C378.419 38.9006 377.394 39.1366 375.782 39.3726C374.171 39.6086 373.292 39.751 373.146 39.7998C372.657 39.9707 372.413 40.2962 372.413 40.7764C372.413 41.4437 372.698 42.0133 373.268 42.4854C373.837 42.9574 374.602 43.1934 375.562 43.1934C376.01 43.1934 376.62 43.0713 377.394 42.8271C378.167 42.583 378.614 42.4609 378.736 42.4609C379.151 42.4609 379.359 42.64 379.359 42.998C379.359 43.4782 378.891 43.9583 377.955 44.4385C377.019 44.9186 376.043 45.1587 375.025 45.1587ZM383.143 28.0322C383.143 27.4382 383.701 27.1411 384.815 27.1411H385.035C385.499 27.1411 385.816 27.255 385.987 27.4829C386.158 27.7026 386.244 28.134 386.244 28.7769L386.146 30.5957C386.122 30.8805 386.109 31.0352 386.109 31.0596L386.085 31.5234C386.069 31.8245 386.052 32.1297 386.036 32.439L386 32.9028L385.963 33.5986C385.833 36.0726 385.768 37.8996 385.768 39.0796C385.768 40.2515 385.82 41.0938 385.926 41.6064C386.032 42.1191 386.199 42.5545 386.427 42.9126C386.655 43.2707 386.769 43.5067 386.769 43.6206V43.7671C386.769 44.1252 386.59 44.41 386.231 44.6216C385.882 44.8332 385.405 44.939 384.803 44.939H384.168C383.794 44.939 383.465 44.8332 383.18 44.6216C382.903 44.4019 382.765 44.1536 382.765 43.877V43.5474L382.838 43.0347C382.936 42.3267 382.993 41.7977 383.009 41.4478C383.033 41.0897 383.07 40.5973 383.119 39.9707C383.167 39.3359 383.245 37.9891 383.351 35.9302C383.465 33.8631 383.521 32.7523 383.521 32.5977L383.57 31.6821L383.595 30.7788C383.595 29.9162 383.517 29.3018 383.363 28.9355C383.216 28.5612 383.143 28.2601 383.143 28.0322ZM390.553 38.1885C390.056 37.6839 389.808 36.9759 389.808 36.0645C389.808 35.153 390.215 34.3717 391.029 33.7207C391.843 33.0615 392.852 32.7319 394.056 32.7319H394.374C395.44 32.7319 396.286 32.8825 396.913 33.1836C397.547 33.4847 397.865 33.9364 397.865 34.5386C397.865 35.1326 397.6 35.4297 397.071 35.4297C396.933 35.4297 396.542 35.2669 395.899 34.9414C395.257 34.6077 394.65 34.4409 394.081 34.4409C393.511 34.4409 393.051 34.5711 392.701 34.8315C392.359 35.0838 392.188 35.4338 392.188 35.8813C392.188 36.3289 392.429 36.7196 392.909 37.0532C393.185 37.2485 393.836 37.5578 394.862 37.981C395.895 38.4041 396.632 38.811 397.071 39.2017C397.779 39.8283 398.133 40.6299 398.133 41.6064C398.133 42.583 397.718 43.4212 396.888 44.1211C396.058 44.8128 394.98 45.1587 393.653 45.1587H393.336C392.001 45.1587 391 44.9674 390.333 44.585C389.666 44.1943 389.332 43.6898 389.332 43.0713C389.332 42.4447 389.592 42.1313 390.113 42.1313C390.284 42.1313 390.728 42.3511 391.444 42.7905C392.168 43.23 392.876 43.4497 393.568 43.4497C394.268 43.4497 394.793 43.3032 395.143 43.0103C395.493 42.7091 395.667 42.3348 395.667 41.8872C395.667 41.4315 395.448 41.0327 395.008 40.6909C394.772 40.5037 394.097 40.166 392.982 39.6777C391.867 39.1813 391.057 38.6849 390.553 38.1885ZM402.979 37.5781V37.7734C402.979 38.0176 403.203 38.1396 403.651 38.1396H403.944L404.017 38.1274L404.615 38.0786C405.242 37.9891 405.649 37.9443 405.836 37.9443C406.723 37.9443 407.39 37.7775 407.838 37.4438C408.049 37.2811 408.155 36.9922 408.155 36.5771V36.4429C408.155 35.8325 407.952 35.3483 407.545 34.9902C407.146 34.6322 406.666 34.4531 406.104 34.4531H406.019L405.946 34.4653C405.156 34.4653 404.465 34.799 403.871 35.4663C403.277 36.1336 402.979 36.8376 402.979 37.5781ZM405.641 45.1587H405.372C403.818 45.1587 402.581 44.6663 401.661 43.6816C400.742 42.6888 400.282 41.3664 400.282 39.7144V39.1772C400.282 38.3879 400.436 37.5863 400.746 36.7725C401.372 35.1449 402.394 34.0218 403.81 33.4033C404.558 33.0697 405.319 32.9028 406.092 32.9028H406.617C407.683 32.9028 408.583 33.2609 409.315 33.9771C410.056 34.6851 410.426 35.6006 410.426 36.7236V36.9678C410.426 37.7653 410.108 38.3309 409.474 38.6646C409.034 38.9006 408.009 39.1366 406.397 39.3726C404.786 39.6086 403.907 39.751 403.761 39.7998C403.272 39.9707 403.028 40.2962 403.028 40.7764C403.028 41.4437 403.313 42.0133 403.883 42.4854C404.452 42.9574 405.217 43.1934 406.178 43.1934C406.625 43.1934 407.236 43.0713 408.009 42.8271C408.782 42.583 409.229 42.4609 409.352 42.4609C409.767 42.4609 409.974 42.64 409.974 42.998C409.974 43.4782 409.506 43.9583 408.57 44.4385C407.634 44.9186 406.658 45.1587 405.641 45.1587ZM414.796 45.1953H414.417C414.011 45.1953 413.693 45.1017 413.465 44.9146C413.246 44.7274 413.136 44.4792 413.136 44.1699C413.119 44.1048 413.111 44.0519 413.111 44.0112L413.087 43.8037V43.584L413.099 43.5352V43.4253C413.115 43.3602 413.124 43.3073 413.124 43.2666C413.124 42.9004 413.246 42.6156 413.49 42.4121C413.742 42.2005 414.019 42.0947 414.32 42.0947L414.576 42.0581H414.906C415.793 42.0581 416.236 42.522 416.236 43.4497V43.6206L416.188 44.0356C416.188 44.41 416.045 44.6989 415.76 44.9023C415.484 45.0977 415.162 45.1953 414.796 45.1953ZM429.591 44.3896C429.306 44.5931 428.862 44.6948 428.26 44.6948C427.658 44.6948 427.223 44.5809 426.954 44.353C426.686 44.117 426.551 43.8118 426.551 43.4375V43.1567C426.551 43.0103 426.649 42.6969 426.844 42.2168C427.048 41.7285 427.17 41.2443 427.21 40.7642C427.495 37.4601 427.638 35.0065 427.638 33.4033C427.638 31.8001 427.621 30.8643 427.589 30.5957C427.556 30.3271 427.479 30.0057 427.357 29.6313C427.243 29.257 427.186 29.0617 427.186 29.0454C427.186 28.6141 427.463 28.3496 428.016 28.252C429.676 27.959 432.101 27.8125 435.292 27.8125H436.048C436.651 27.8125 437.082 27.8939 437.342 28.0566C437.611 28.2194 437.745 28.5246 437.745 28.9722V29.2651C437.745 29.8592 437.468 30.1562 436.915 30.1562C436.793 30.1562 436.541 30.1074 436.158 30.0098C435.776 29.9121 435.418 29.8348 435.084 29.7778C434.758 29.7127 434.063 29.6802 432.997 29.6802C431.939 29.6802 431.247 29.9284 430.921 30.4248C430.604 30.9212 430.445 31.8978 430.445 33.3545C430.445 34.1032 430.563 34.6037 430.799 34.856C431.043 35.1001 431.605 35.2222 432.484 35.2222C432.704 35.2222 433.033 35.1774 433.473 35.0879C433.912 34.9984 434.291 34.9536 434.608 34.9536C434.925 34.9536 435.206 35.092 435.45 35.3687C435.702 35.6453 435.829 36.036 435.829 36.5405C435.829 37.2648 435.454 37.627 434.706 37.627L433.29 37.5049C432.671 37.5049 432.118 37.6107 431.629 37.8223C431.141 38.0257 430.807 38.2739 430.628 38.5669C430.189 39.283 429.969 40.4793 429.969 42.1558L430.03 43.5962C430.03 43.9136 429.884 44.1781 429.591 44.3896ZM443.812 29.1309V29.2773C443.812 29.6924 443.69 30.0464 443.446 30.3394C443.21 30.6242 442.844 30.7666 442.347 30.7666H442.152L441.773 30.7178C441.554 30.7178 441.342 30.616 441.139 30.4126C440.935 30.2091 440.833 29.904 440.833 29.4971V29.3506L440.895 28.9111C440.895 28.7402 440.996 28.5286 441.2 28.2764C441.411 28.0241 441.68 27.8979 442.005 27.8979L442.286 27.8613H442.53L442.872 27.9102C443.084 27.9102 443.291 28.016 443.495 28.2275C443.706 28.431 443.812 28.7321 443.812 29.1309ZM443.238 34.2822L443.104 37.5659L443.08 37.8955L443.043 38.8965V39.3726C443.043 40.5444 443.076 41.3135 443.141 41.6797C443.214 42.0459 443.348 42.404 443.543 42.7539C443.739 43.0957 443.836 43.3439 443.836 43.4985V43.6084C443.836 44.0072 443.633 44.3245 443.226 44.5605C442.819 44.7965 442.266 44.9146 441.566 44.9146H441.261C440.854 44.9146 440.545 44.825 440.333 44.646C440.121 44.4588 440.016 44.2594 440.016 44.0479V43.7793C440.016 43.6735 440.109 43.2992 440.296 42.6562C440.484 42.0052 440.577 41.1222 440.577 40.0073C440.602 39.6899 440.614 39.4702 440.614 39.3481L440.65 38.6768L440.675 38.3472C440.715 37.7775 440.736 37.334 440.736 37.0166L440.748 36.5283C440.748 35.918 440.646 35.3768 440.443 34.9048C440.248 34.4328 440.15 34.1398 440.15 34.0259C440.15 33.4399 440.703 33.147 441.81 33.147H442.25C442.665 33.147 442.933 33.2568 443.055 33.4766C443.177 33.6882 443.238 33.9567 443.238 34.2822ZM456.959 44.1455C456.959 44.6094 456.259 44.8413 454.859 44.8413C454.249 44.8413 453.797 44.6338 453.504 44.2188C453.488 44.2025 453.407 44.0356 453.26 43.7183C453.114 43.3927 452.813 42.8434 452.357 42.0703C451.909 41.2891 451.625 40.8984 451.502 40.8984C451.291 40.8984 450.807 41.464 450.05 42.5952C449.798 42.9696 449.578 43.3765 449.391 43.8159C449.212 44.2472 449.012 44.5605 448.792 44.7559C448.573 44.9512 448.186 45.0488 447.633 45.0488C446.746 45.0488 446.302 44.8291 446.302 44.3896C446.302 44.1048 446.522 43.7427 446.961 43.3032C447.409 42.8556 447.824 42.3755 448.207 41.8628C449.427 40.2189 450.038 39.2342 450.038 38.9087C450.038 38.575 449.533 37.6758 448.524 36.2109C448.198 35.7389 447.824 35.2954 447.401 34.8804C446.986 34.4572 446.778 34.0951 446.778 33.7939C446.778 33.3626 447.49 33.147 448.915 33.147C449.427 33.147 449.83 33.3097 450.123 33.6353C450.221 33.7492 450.335 33.9608 450.465 34.27C450.595 34.5793 450.75 34.9048 450.929 35.2466C451.515 36.3615 451.901 36.9189 452.088 36.9189C452.349 36.9189 452.837 36.3411 453.553 35.1855C453.781 34.8193 453.964 34.4572 454.103 34.0991C454.249 33.741 454.383 33.505 454.505 33.3911C454.758 33.147 455.238 33.0249 455.946 33.0249C456.654 33.0249 457.008 33.1795 457.008 33.4888V33.6841C457.008 33.7085 456.418 34.4735 455.238 35.979C454.066 37.4845 453.48 38.4448 453.48 38.8599C453.48 39.2668 454.042 40.2637 455.165 41.8506C455.49 42.3063 455.868 42.7417 456.3 43.1567C456.739 43.5636 456.959 43.8932 456.959 44.1455ZM461.524 37.5781V37.7734C461.524 38.0176 461.748 38.1396 462.196 38.1396H462.489L462.562 38.1274L463.16 38.0786C463.787 37.9891 464.194 37.9443 464.381 37.9443C465.268 37.9443 465.935 37.7775 466.383 37.4438C466.594 37.2811 466.7 36.9922 466.7 36.5771V36.4429C466.7 35.8325 466.497 35.3483 466.09 34.9902C465.691 34.6322 465.211 34.4531 464.649 34.4531H464.564L464.491 34.4653C463.701 34.4653 463.01 34.799 462.416 35.4663C461.821 36.1336 461.524 36.8376 461.524 37.5781ZM464.186 45.1587H463.917C462.363 45.1587 461.126 44.6663 460.206 43.6816C459.286 42.6888 458.827 41.3664 458.827 39.7144V39.1772C458.827 38.3879 458.981 37.5863 459.291 36.7725C459.917 35.1449 460.938 34.0218 462.354 33.4033C463.103 33.0697 463.864 32.9028 464.637 32.9028H465.162C466.228 32.9028 467.127 33.2609 467.86 33.9771C468.6 34.6851 468.971 35.6006 468.971 36.7236V36.9678C468.971 37.7653 468.653 38.3309 468.019 38.6646C467.579 38.9006 466.554 39.1366 464.942 39.3726C463.331 39.6086 462.452 39.751 462.306 39.7998C461.817 39.9707 461.573 40.2962 461.573 40.7764C461.573 41.4437 461.858 42.0133 462.428 42.4854C462.997 42.9574 463.762 43.1934 464.723 43.1934C465.17 43.1934 465.781 43.0713 466.554 42.8271C467.327 42.583 467.774 42.4609 467.896 42.4609C468.312 42.4609 468.519 42.64 468.519 42.998C468.519 43.4782 468.051 43.9583 467.115 44.4385C466.179 44.9186 465.203 45.1587 464.186 45.1587ZM472.486 38.1885C471.99 37.6839 471.742 36.9759 471.742 36.0645C471.742 35.153 472.149 34.3717 472.962 33.7207C473.776 33.0615 474.785 32.7319 475.99 32.7319H476.307C477.373 32.7319 478.22 32.8825 478.846 33.1836C479.481 33.4847 479.798 33.9364 479.798 34.5386C479.798 35.1326 479.534 35.4297 479.005 35.4297C478.867 35.4297 478.476 35.2669 477.833 34.9414C477.19 34.6077 476.584 34.4409 476.014 34.4409C475.444 34.4409 474.985 34.5711 474.635 34.8315C474.293 35.0838 474.122 35.4338 474.122 35.8813C474.122 36.3289 474.362 36.7196 474.842 37.0532C475.119 37.2485 475.77 37.5578 476.795 37.981C477.829 38.4041 478.565 38.811 479.005 39.2017C479.713 39.8283 480.067 40.6299 480.067 41.6064C480.067 42.583 479.652 43.4212 478.822 44.1211C477.992 44.8128 476.913 45.1587 475.587 45.1587H475.27C473.935 45.1587 472.934 44.9674 472.267 44.585C471.599 44.1943 471.266 43.6898 471.266 43.0713C471.266 42.4447 471.526 42.1313 472.047 42.1313C472.218 42.1313 472.661 42.3511 473.377 42.7905C474.102 43.23 474.81 43.4497 475.501 43.4497C476.201 43.4497 476.726 43.3032 477.076 43.0103C477.426 42.7091 477.601 42.3348 477.601 41.8872C477.601 41.4315 477.381 41.0327 476.942 40.6909C476.706 40.5037 476.03 40.166 474.916 39.6777C473.801 39.1813 472.991 38.6849 472.486 38.1885ZM501.136 44.3774C500.558 44.3774 500.058 44.0153 499.635 43.291C499.358 42.8109 498.919 41.8343 498.316 40.3613C497.722 38.8802 497.385 38.1396 497.303 38.1396C497.279 38.1396 496.941 38.8314 496.29 40.2148C495.639 41.5902 495.155 42.5342 494.837 43.0469C494.333 43.8525 493.849 44.2554 493.385 44.2554C493.092 44.2554 492.783 44.1414 492.457 43.9136C492.14 43.6776 491.883 43.2951 491.688 42.7661C491.664 42.701 491.476 42.0011 491.126 40.6665C490.785 39.3319 490.431 38.0786 490.064 36.9067C489.706 35.7349 489.527 34.9414 489.527 34.5264C489.527 34.1113 489.617 33.8143 489.796 33.6353C489.975 33.4562 490.158 33.3667 490.345 33.3667C491.102 33.3667 491.635 33.68 491.944 34.3066C492.058 34.5345 492.205 35.1042 492.384 36.0156C493.238 39.3604 493.812 41.1344 494.105 41.3379C494.414 41.3379 494.866 40.3044 495.46 38.2373C495.704 37.391 495.863 36.63 495.936 35.9546C496.017 35.2791 496.07 34.8885 496.095 34.7827L496.205 34.3921C496.449 33.7492 496.933 33.4277 497.657 33.4277C498.39 33.4277 498.898 33.798 499.183 34.5386C499.297 34.8397 499.403 35.3687 499.5 36.1255C499.598 36.8742 499.736 37.627 499.916 38.3838C500.363 40.3206 500.717 41.2891 500.978 41.2891C501.295 41.2891 501.791 40.2759 502.467 38.2495C502.678 37.6147 502.898 36.8376 503.126 35.918C503.362 34.9984 503.525 34.445 503.614 34.2578C503.907 33.68 504.371 33.3911 505.006 33.3911C505.34 33.3911 505.506 33.7166 505.506 34.3677C505.506 34.7502 505.091 36.2069 504.261 38.7378C503.431 41.2606 502.931 42.7051 502.76 43.0713C502.589 43.4294 502.345 43.7386 502.027 43.999C501.71 44.2513 501.413 44.3774 501.136 44.3774ZM512.074 29.1309V29.2773C512.074 29.6924 511.952 30.0464 511.708 30.3394C511.472 30.6242 511.105 30.7666 510.609 30.7666H510.414L510.035 30.7178C509.815 30.7178 509.604 30.616 509.4 30.4126C509.197 30.2091 509.095 29.904 509.095 29.4971V29.3506L509.156 28.9111C509.156 28.7402 509.258 28.5286 509.461 28.2764C509.673 28.0241 509.942 27.8979 510.267 27.8979L510.548 27.8613H510.792L511.134 27.9102C511.345 27.9102 511.553 28.016 511.756 28.2275C511.968 28.431 512.074 28.7321 512.074 29.1309ZM511.5 34.2822L511.366 37.5659L511.341 37.8955L511.305 38.8965V39.3726C511.305 40.5444 511.337 41.3135 511.402 41.6797C511.476 42.0459 511.61 42.404 511.805 42.7539C512 43.0957 512.098 43.3439 512.098 43.4985V43.6084C512.098 44.0072 511.895 44.3245 511.488 44.5605C511.081 44.7965 510.528 44.9146 509.828 44.9146H509.522C509.116 44.9146 508.806 44.825 508.595 44.646C508.383 44.4588 508.277 44.2594 508.277 44.0479V43.7793C508.277 43.6735 508.371 43.2992 508.558 42.6562C508.745 42.0052 508.839 41.1222 508.839 40.0073C508.863 39.6899 508.875 39.4702 508.875 39.3481L508.912 38.6768L508.937 38.3472C508.977 37.7775 508.998 37.334 508.998 37.0166L509.01 36.5283C509.01 35.918 508.908 35.3768 508.705 34.9048C508.509 34.4328 508.412 34.1398 508.412 34.0259C508.412 33.4399 508.965 33.147 510.072 33.147H510.511C510.926 33.147 511.195 33.2568 511.317 33.4766C511.439 33.6882 511.5 33.9567 511.5 34.2822ZM521.485 43.6938C521.485 44.0194 521.286 44.3123 520.887 44.5728C520.497 44.825 519.964 44.9512 519.288 44.9512C518.027 44.9512 517.14 44.4832 516.627 43.5474C516.31 42.9614 516.151 41.5902 516.151 39.4336C516.151 37.277 516.114 36.0238 516.041 35.6738C515.968 35.3239 515.764 34.9821 515.431 34.6484C515.097 34.3148 514.93 34.0584 514.93 33.8794C514.93 33.8143 515.325 33.387 516.114 32.5977C516.285 32.4268 516.456 32.0483 516.627 31.4624C516.806 30.8765 516.932 30.4899 517.005 30.3027C517.25 29.7168 517.571 29.4238 517.97 29.4238H518.165C518.515 29.4238 518.763 29.5581 518.91 29.8267C518.967 29.9325 519.052 30.3149 519.166 30.9741C519.288 31.6252 519.426 32.0443 519.581 32.2314C519.736 32.4186 520.122 32.6261 520.741 32.854C521.367 33.0737 521.681 33.3097 521.681 33.562V33.6963C521.681 34.0218 521.323 34.2985 520.606 34.5264C519.898 34.7461 519.443 35.1001 519.239 35.5884C518.84 36.5731 518.641 38.1763 518.641 40.3979C518.641 41.4396 518.82 42.1476 519.178 42.522C519.398 42.7498 519.837 42.9085 520.497 42.998C521.156 43.0876 521.485 43.3195 521.485 43.6938ZM525.77 44.7681C524.81 44.7681 524.33 44.4263 524.33 43.7427C524.33 43.4334 524.403 42.9736 524.549 42.3633C524.704 41.7529 524.806 41.1914 524.854 40.6787C524.903 40.1579 524.989 38.4814 525.111 35.6494C525.241 32.8174 525.306 31.0921 525.306 30.4736V29.0332L525.233 28.0078C525.233 27.6253 525.583 27.4341 526.283 27.4341C526.991 27.4341 527.451 27.7067 527.662 28.252C527.768 28.5286 527.821 29.432 527.821 30.9619C527.821 32.4919 527.849 33.3626 527.906 33.5742C527.971 33.7858 528.138 33.8916 528.407 33.8916C528.439 33.8916 528.594 33.8428 528.871 33.7451L529.139 33.6475C530.01 33.3057 530.763 33.1348 531.397 33.1348C532.732 33.1348 533.68 33.6556 534.242 34.6973C534.616 35.389 534.803 36.8945 534.803 39.2139C534.803 40.3044 534.811 40.9513 534.828 41.1548C534.844 41.3582 534.897 41.7285 534.986 42.2656C535.076 42.7946 535.121 43.0876 535.121 43.1445C535.121 43.6247 535.011 43.9827 534.791 44.2188C534.579 44.4466 534.193 44.5605 533.631 44.5605C533.078 44.5605 532.716 44.3896 532.545 44.0479C532.455 43.8688 532.411 43.3521 532.411 42.4976L532.374 40.3491L532.411 38.4082C532.411 36.2354 531.776 35.1489 530.506 35.1489C529.383 35.1489 528.582 35.6209 528.102 36.5649C527.621 37.509 527.381 39.2586 527.381 41.814L527.418 43.1445C527.418 43.6003 527.276 43.9868 526.991 44.3042C526.706 44.6134 526.299 44.7681 525.77 44.7681ZM540.357 39.8486C540.357 40.9147 540.602 41.8018 541.09 42.5098C541.578 43.2178 542.176 43.5718 542.884 43.5718H543.25C544.089 43.5718 544.797 43.1486 545.375 42.3022C545.96 41.4559 546.253 40.3288 546.253 38.9209V38.1152C546.253 37.0247 546.013 36.1336 545.533 35.4419C545.061 34.742 544.451 34.3921 543.702 34.3921H543.458C542.587 34.3921 541.855 34.8234 541.261 35.686C540.675 36.5487 540.382 37.5781 540.382 38.7744L540.357 39.0552V39.8486ZM543.116 45.2319H542.726C541.301 45.2319 540.142 44.7355 539.247 43.7427C538.351 42.7498 537.904 41.342 537.904 39.519L537.916 39.3115C537.916 37.3096 538.445 35.7308 539.503 34.5752C540.056 33.9648 540.687 33.5173 541.395 33.2324C542.111 32.9395 542.791 32.793 543.434 32.793H544.032C544.748 32.793 545.436 32.9517 546.095 33.269C547.983 34.1805 548.927 35.8976 548.927 38.4204V38.6157C548.919 39.4377 548.784 40.2718 548.524 41.1182C548.003 42.7865 547.002 43.9665 545.521 44.6582C544.699 45.0407 543.897 45.2319 543.116 45.2319ZM551.539 34.0259C551.539 33.5132 551.97 33.2568 552.833 33.2568H553.114C553.651 33.2568 554.013 33.4725 554.2 33.9038C554.387 34.3351 554.481 35.1408 554.481 36.3208L554.334 40.3979C554.334 42.2941 555.014 43.2422 556.373 43.2422C556.869 43.2422 557.346 43.0672 557.801 42.7173C558.257 42.3674 558.595 41.9482 558.814 41.46C559.295 40.3857 559.535 38.4611 559.535 35.686L559.51 35.1489V34.6729C559.51 34.2415 559.608 33.9282 559.803 33.7329C559.999 33.5376 560.34 33.4399 560.829 33.4399C561.317 33.4399 561.638 33.5579 561.793 33.7939C561.948 34.0299 562.025 34.4124 562.025 34.9414L562 35.5884L561.952 38.4692C561.952 38.9331 561.98 39.6452 562.037 40.6055C562.094 41.5658 562.155 42.2697 562.22 42.7173C562.285 43.1567 562.318 43.4172 562.318 43.4985C562.318 44.2228 561.785 44.585 560.719 44.585C560.353 44.585 559.986 44.4507 559.62 44.1821C559.262 43.9054 559.006 43.7671 558.851 43.7671C558.705 43.7671 558.452 43.8566 558.094 44.0356C557.077 44.5483 556.21 44.8047 555.494 44.8047H555.189C554.025 44.8047 553.171 44.4466 552.625 43.7305C552.08 43.0143 551.808 41.7244 551.808 39.8608L551.93 36.1621C551.93 35.6982 551.865 35.2547 551.734 34.8315C551.604 34.4084 551.539 34.1398 551.539 34.0259ZM571.729 43.6938C571.729 44.0194 571.53 44.3123 571.131 44.5728C570.741 44.825 570.208 44.9512 569.532 44.9512C568.271 44.9512 567.384 44.4832 566.871 43.5474C566.554 42.9614 566.395 41.5902 566.395 39.4336C566.395 37.277 566.358 36.0238 566.285 35.6738C566.212 35.3239 566.008 34.9821 565.675 34.6484C565.341 34.3148 565.174 34.0584 565.174 33.8794C565.174 33.8143 565.569 33.387 566.358 32.5977C566.529 32.4268 566.7 32.0483 566.871 31.4624C567.05 30.8765 567.176 30.4899 567.25 30.3027C567.494 29.7168 567.815 29.4238 568.214 29.4238H568.409C568.759 29.4238 569.007 29.5581 569.154 29.8267C569.211 29.9325 569.296 30.3149 569.41 30.9741C569.532 31.6252 569.671 32.0443 569.825 32.2314C569.98 32.4186 570.366 32.6261 570.985 32.854C571.611 33.0737 571.925 33.3097 571.925 33.562V33.6963C571.925 34.0218 571.567 34.2985 570.851 34.5264C570.143 34.7461 569.687 35.1001 569.483 35.5884C569.085 36.5731 568.885 38.1763 568.885 40.3979C568.885 41.4396 569.064 42.1476 569.422 42.522C569.642 42.7498 570.082 42.9085 570.741 42.998C571.4 43.0876 571.729 43.3195 571.729 43.6938ZM586.305 43.4497H586.671C587.558 43.4497 588.303 43.0103 588.905 42.1313C589.515 41.2443 589.82 40.0399 589.82 38.5181V38.1274L589.808 37.9932L589.796 37.7368C589.788 37.6473 589.784 37.5618 589.784 37.4805C589.784 36.6911 589.564 35.9993 589.125 35.4053C588.685 34.8031 588.148 34.502 587.513 34.502H587.159C586.76 34.502 586.321 34.6403 585.841 34.917C585.369 35.1937 585.035 35.5192 584.84 35.8936C584.409 36.7074 584.193 37.9932 584.193 39.751V40.874C584.217 41.1182 584.229 41.3216 584.229 41.4844C584.229 42.0703 584.409 42.5464 584.767 42.9126C585.133 43.2707 585.646 43.4497 586.305 43.4497ZM584.706 32.7197C584.706 33.029 584.754 33.2609 584.852 33.4155C584.958 33.5701 585.23 33.6475 585.67 33.6475C585.678 33.6475 585.943 33.5864 586.463 33.4644C586.992 33.3423 587.538 33.2812 588.099 33.2812C589.312 33.2812 590.325 33.7614 591.139 34.7217C591.952 35.682 592.359 36.8538 592.359 38.2373V39.1162C592.359 39.7998 592.225 40.5241 591.957 41.2891C591.68 42.054 591.289 42.7173 590.785 43.2788C589.751 44.4181 588.478 44.9878 586.964 44.9878H586.695C586.272 44.9878 585.727 44.9064 585.06 44.7437C584.392 44.5809 583.957 44.4995 583.753 44.4995L582.936 44.5728C582.097 44.5728 581.678 44.1536 581.678 43.3154V42.8149C581.678 42.3185 581.776 40.5078 581.971 37.3828C582.175 34.2578 582.276 32.264 582.276 31.4014C582.276 30.5387 582.207 29.8226 582.069 29.2529C581.931 28.6833 581.861 28.374 581.861 28.3252C581.861 27.6416 582.248 27.2998 583.021 27.2998H583.265C583.924 27.2998 584.343 27.4585 584.522 27.7759C584.701 28.0851 584.791 28.6629 584.791 29.5093L584.73 31.4502L584.706 31.9995V32.7197ZM597.169 37.5781V37.7734C597.169 38.0176 597.393 38.1396 597.84 38.1396H598.133L598.207 38.1274L598.805 38.0786C599.431 37.9891 599.838 37.9443 600.025 37.9443C600.912 37.9443 601.58 37.7775 602.027 37.4438C602.239 37.2811 602.345 36.9922 602.345 36.5771V36.4429C602.345 35.8325 602.141 35.3483 601.734 34.9902C601.336 34.6322 600.855 34.4531 600.294 34.4531H600.208L600.135 34.4653C599.346 34.4653 598.654 34.799 598.06 35.4663C597.466 36.1336 597.169 36.8376 597.169 37.5781ZM599.83 45.1587H599.562C598.007 45.1587 596.77 44.6663 595.851 43.6816C594.931 42.6888 594.471 41.3664 594.471 39.7144V39.1772C594.471 38.3879 594.626 37.5863 594.935 36.7725C595.562 35.1449 596.583 34.0218 597.999 33.4033C598.748 33.0697 599.509 32.9028 600.282 32.9028H600.807C601.873 32.9028 602.772 33.2609 603.504 33.9771C604.245 34.6851 604.615 35.6006 604.615 36.7236V36.9678C604.615 37.7653 604.298 38.3309 603.663 38.6646C603.224 38.9006 602.198 39.1366 600.587 39.3726C598.976 39.6086 598.097 39.751 597.95 39.7998C597.462 39.9707 597.218 40.2962 597.218 40.7764C597.218 41.4437 597.503 42.0133 598.072 42.4854C598.642 42.9574 599.407 43.1934 600.367 43.1934C600.815 43.1934 601.425 43.0713 602.198 42.8271C602.971 42.583 603.419 42.4609 603.541 42.4609C603.956 42.4609 604.164 42.64 604.164 42.998C604.164 43.4782 603.696 43.9583 602.76 44.4385C601.824 44.9186 600.847 45.1587 599.83 45.1587ZM611.244 29.1309V29.2773C611.244 29.6924 611.122 30.0464 610.877 30.3394C610.641 30.6242 610.275 30.7666 609.779 30.7666H609.583L609.205 30.7178C608.985 30.7178 608.774 30.616 608.57 30.4126C608.367 30.2091 608.265 29.904 608.265 29.4971V29.3506L608.326 28.9111C608.326 28.7402 608.428 28.5286 608.631 28.2764C608.843 28.0241 609.111 27.8979 609.437 27.8979L609.718 27.8613H609.962L610.304 27.9102C610.515 27.9102 610.723 28.016 610.926 28.2275C611.138 28.431 611.244 28.7321 611.244 29.1309ZM610.67 34.2822L610.536 37.5659L610.511 37.8955L610.475 38.8965V39.3726C610.475 40.5444 610.507 41.3135 610.572 41.6797C610.646 42.0459 610.78 42.404 610.975 42.7539C611.17 43.0957 611.268 43.3439 611.268 43.4985V43.6084C611.268 44.0072 611.065 44.3245 610.658 44.5605C610.251 44.7965 609.697 44.9146 608.998 44.9146H608.692C608.285 44.9146 607.976 44.825 607.765 44.646C607.553 44.4588 607.447 44.2594 607.447 44.0479V43.7793C607.447 43.6735 607.541 43.2992 607.728 42.6562C607.915 42.0052 608.009 41.1222 608.009 40.0073C608.033 39.6899 608.045 39.4702 608.045 39.3481L608.082 38.6768L608.106 38.3472C608.147 37.7775 608.167 37.334 608.167 37.0166L608.18 36.5283C608.18 35.918 608.078 35.3768 607.875 34.9048C607.679 34.4328 607.582 34.1398 607.582 34.0259C607.582 33.4399 608.135 33.147 609.242 33.147H609.681C610.096 33.147 610.365 33.2568 610.487 33.4766C610.609 33.6882 610.67 33.9567 610.67 34.2822ZM625.477 43.5352C625.477 44.1374 624.952 44.4385 623.902 44.4385C623.308 44.4385 622.91 44.2961 622.706 44.0112C622.608 43.8729 622.56 43.5474 622.56 43.0347L622.523 42.2534C622.466 41.3989 622.438 40.5404 622.438 39.6777C622.438 37.8141 622.275 36.5649 621.949 35.9302C621.632 35.2873 621.095 34.9658 620.338 34.9658C619.833 34.9658 619.365 35.1164 618.934 35.4175C618.511 35.7186 618.185 36.1377 617.958 36.6748C617.486 37.7734 617.25 39.8039 617.25 42.7661C617.25 43.4416 617.119 43.9176 616.859 44.1943C616.607 44.471 616.281 44.6094 615.882 44.6094H615.638C614.727 44.6094 614.271 44.2472 614.271 43.5229V43.23C614.271 43.1405 614.32 42.9451 614.417 42.644L614.613 42.0825C614.808 41.4233 614.906 40.0114 614.906 37.8467L614.967 34.2212C614.967 33.7573 615.219 33.5254 615.724 33.5254C616.228 33.5254 616.725 33.6922 617.213 34.0259C617.709 34.3595 618.023 34.5264 618.153 34.5264C618.291 34.5264 618.531 34.4328 618.873 34.2456C620.021 33.619 620.94 33.3057 621.632 33.3057H621.949C623.194 33.3057 624.069 33.8672 624.574 34.9902C624.818 35.5192 624.94 36.6585 624.94 38.4082V38.4937C624.94 38.6401 624.936 38.7866 624.928 38.9331C624.928 39.3319 624.928 39.5394 624.928 39.5557C624.928 39.7103 624.928 39.8608 624.928 40.0073C624.928 40.1213 624.928 40.2311 624.928 40.3369C624.928 40.9635 624.948 41.3908 624.989 41.6187C625.046 41.9279 625.139 42.2493 625.27 42.583C625.408 42.9492 625.477 43.2666 625.477 43.5352ZM630.47 39.3481V39.7266C630.47 40.8171 630.677 41.6715 631.092 42.29C631.507 42.9085 632.028 43.2178 632.655 43.2178H633.082C633.985 43.2178 634.689 42.8394 635.194 42.0825C635.698 41.3175 635.951 40.2474 635.951 38.8721C635.967 38.7093 635.975 38.5832 635.975 38.4937L636 37.9932V37.2607C635.983 37.098 635.975 36.9759 635.975 36.8945C635.975 36.2516 635.82 35.7471 635.511 35.3809C635.202 35.0146 634.746 34.8315 634.144 34.8315H633.802C632.842 34.8315 632.044 35.2344 631.41 36.04C630.783 36.8457 630.47 37.9484 630.47 39.3481ZM637.562 33.8306C638.27 33.8306 638.624 34.3433 638.624 35.3687C638.624 35.6372 638.514 36.7603 638.294 38.7378C638.075 40.7153 637.965 42.3958 637.965 43.7793C637.965 45.179 637.871 46.2288 637.684 46.9287C637.285 48.4342 636.362 49.5003 634.913 50.127C634.156 50.4525 633.318 50.6152 632.398 50.6152C631.487 50.6152 630.673 50.4525 629.957 50.127C629.249 49.8014 628.895 49.4108 628.895 48.9551C628.895 48.4342 629.245 48.1738 629.945 48.1738C630.083 48.1738 630.458 48.2267 631.068 48.3325C631.678 48.4383 632.118 48.4912 632.386 48.4912C633.371 48.4912 634.177 48.182 634.803 47.5635C635.438 46.9531 635.755 46.1678 635.755 45.2075C635.755 44.703 635.568 44.4507 635.194 44.4507C635.129 44.4507 634.974 44.4751 634.73 44.5239C634.038 44.6623 633.408 44.7314 632.838 44.7314C631.389 44.7314 630.299 44.292 629.566 43.4131C629.225 43.0062 628.932 42.465 628.688 41.7896C628.451 41.106 628.333 40.3857 628.333 39.6289V39.2871C628.333 38.4896 628.464 37.7043 628.724 36.9312C628.993 36.1499 629.347 35.4948 629.786 34.9658C630.226 34.4287 630.799 34.0096 631.507 33.7085C632.215 33.4074 632.94 33.2568 633.68 33.2568H633.998C634.413 33.2568 634.946 33.3708 635.597 33.5986C636.256 33.8184 636.659 33.9282 636.805 33.9282C637.131 33.8631 637.383 33.8306 637.562 33.8306ZM655.104 43.6938C655.104 44.0194 654.904 44.3123 654.505 44.5728C654.115 44.825 653.582 44.9512 652.906 44.9512C651.645 44.9512 650.758 44.4832 650.245 43.5474C649.928 42.9614 649.769 41.5902 649.769 39.4336C649.769 37.277 649.732 36.0238 649.659 35.6738C649.586 35.3239 649.382 34.9821 649.049 34.6484C648.715 34.3148 648.548 34.0584 648.548 33.8794C648.548 33.8143 648.943 33.387 649.732 32.5977C649.903 32.4268 650.074 32.0483 650.245 31.4624C650.424 30.8765 650.55 30.4899 650.624 30.3027C650.868 29.7168 651.189 29.4238 651.588 29.4238H651.783C652.133 29.4238 652.381 29.5581 652.528 29.8267C652.585 29.9325 652.67 30.3149 652.784 30.9741C652.906 31.6252 653.045 32.0443 653.199 32.2314C653.354 32.4186 653.74 32.6261 654.359 32.854C654.986 33.0737 655.299 33.3097 655.299 33.562V33.6963C655.299 34.0218 654.941 34.2985 654.225 34.5264C653.517 34.7461 653.061 35.1001 652.857 35.5884C652.459 36.5731 652.259 38.1763 652.259 40.3979C652.259 41.4396 652.438 42.1476 652.796 42.522C653.016 42.7498 653.456 42.9085 654.115 42.998C654.774 43.0876 655.104 43.3195 655.104 43.6938ZM659.986 39.8486C659.986 40.9147 660.23 41.8018 660.719 42.5098C661.207 43.2178 661.805 43.5718 662.513 43.5718H662.879C663.718 43.5718 664.426 43.1486 665.003 42.3022C665.589 41.4559 665.882 40.3288 665.882 38.9209V38.1152C665.882 37.0247 665.642 36.1336 665.162 35.4419C664.69 34.742 664.08 34.3921 663.331 34.3921H663.087C662.216 34.3921 661.484 34.8234 660.89 35.686C660.304 36.5487 660.011 37.5781 660.011 38.7744L659.986 39.0552V39.8486ZM662.745 45.2319H662.354C660.93 45.2319 659.771 44.7355 658.875 43.7427C657.98 42.7498 657.533 41.342 657.533 39.519L657.545 39.3115C657.545 37.3096 658.074 35.7308 659.132 34.5752C659.685 33.9648 660.316 33.5173 661.024 33.2324C661.74 32.9395 662.42 32.793 663.062 32.793H663.661C664.377 32.793 665.064 32.9517 665.724 33.269C667.612 34.1805 668.556 35.8976 668.556 38.4204V38.6157C668.548 39.4377 668.413 40.2718 668.153 41.1182C667.632 42.7865 666.631 43.9665 665.15 44.6582C664.328 45.0407 663.526 45.2319 662.745 45.2319ZM671.766 28.0322C671.766 27.4382 672.324 27.1411 673.438 27.1411H673.658C674.122 27.1411 674.439 27.255 674.61 27.4829C674.781 27.7026 674.867 28.134 674.867 28.7769L674.769 30.5957C674.745 30.8805 674.732 31.0352 674.732 31.0596L674.708 31.5234C674.692 31.8245 674.675 32.1297 674.659 32.439L674.623 32.9028L674.586 33.5986C674.456 36.0726 674.391 37.8996 674.391 39.0796C674.391 40.2515 674.444 41.0938 674.549 41.6064C674.655 42.1191 674.822 42.5545 675.05 42.9126C675.278 43.2707 675.392 43.5067 675.392 43.6206V43.7671C675.392 44.1252 675.213 44.41 674.854 44.6216C674.505 44.8332 674.028 44.939 673.426 44.939H672.792C672.417 44.939 672.088 44.8332 671.803 44.6216C671.526 44.4019 671.388 44.1536 671.388 43.877V43.5474L671.461 43.0347C671.559 42.3267 671.616 41.7977 671.632 41.4478C671.656 41.0897 671.693 40.5973 671.742 39.9707C671.791 39.3359 671.868 37.9891 671.974 35.9302C672.088 33.8631 672.145 32.7523 672.145 32.5977L672.193 31.6821L672.218 30.7788C672.218 29.9162 672.14 29.3018 671.986 28.9355C671.839 28.5612 671.766 28.2601 671.766 28.0322ZM680.372 39.0796V40.0073C680.372 40.9757 680.592 41.7855 681.031 42.4365C681.479 43.0794 682.004 43.4009 682.606 43.4009H682.948C683.875 43.4009 684.592 43.0306 685.096 42.29C685.609 41.5495 685.865 40.4468 685.865 38.9819C685.882 38.8029 685.89 38.6727 685.89 38.5913L685.914 38.3472L685.926 37.8345V36.9678C685.926 35.3076 685.263 34.4775 683.937 34.4775H683.46C682.598 34.4775 681.865 34.9129 681.263 35.7837C680.669 36.6545 680.372 37.7531 680.372 39.0796ZM678.028 39.6411C678.028 38.7948 678.179 37.9321 678.48 37.0532C678.781 36.1743 679.204 35.4256 679.75 34.8071C680.295 34.1805 680.909 33.7288 681.593 33.4521C682.276 33.1673 683.086 33.0249 684.022 33.0249C684.966 33.0249 685.552 32.854 685.78 32.5122C686.008 32.1623 686.122 31.3932 686.122 30.2051C686.122 29.9854 686.085 29.6924 686.012 29.3262C685.938 28.96 685.902 28.7484 685.902 28.6914C685.902 28.3415 686.052 28.0241 686.354 27.7393C686.655 27.4463 687.049 27.2998 687.538 27.2998H687.782C688.164 27.2998 688.449 27.3893 688.636 27.5684C688.823 27.7474 688.917 28.1217 688.917 28.6914V29.8267L688.893 30.4004C688.884 30.5957 688.88 30.8805 688.88 31.2549C688.88 31.6211 688.819 32.8011 688.697 34.7949C688.575 36.7887 688.514 38.16 688.514 38.9087L688.502 39.2017C688.494 39.397 688.49 39.5841 688.49 39.7632L688.478 40.0439C688.478 40.0439 688.478 40.3613 688.478 40.9961C688.478 41.818 688.543 42.4365 688.673 42.8516C688.803 43.2666 688.868 43.5636 688.868 43.7427C688.868 43.9217 688.766 44.1089 688.563 44.3042C688.36 44.4995 688.042 44.5972 687.611 44.5972C687.188 44.5972 686.777 44.528 686.378 44.3896C685.979 44.2432 685.686 44.1699 685.499 44.1699C685.312 44.1699 685.068 44.2269 684.767 44.3408C683.855 44.6745 683.021 44.8413 682.264 44.8413C682.248 44.8413 682.232 44.8413 682.215 44.8413H681.935C680.706 44.8413 679.745 44.3937 679.054 43.4985C678.37 42.5952 678.028 41.4111 678.028 39.9463V39.6411ZM693.8 45.1953H693.421C693.014 45.1953 692.697 45.1017 692.469 44.9146C692.25 44.7274 692.14 44.4792 692.14 44.1699C692.123 44.1048 692.115 44.0519 692.115 44.0112L692.091 43.8037V43.584L692.103 43.5352V43.4253C692.119 43.3602 692.127 43.3073 692.127 43.2666C692.127 42.9004 692.25 42.6156 692.494 42.4121C692.746 42.2005 693.023 42.0947 693.324 42.0947L693.58 42.0581H693.91C694.797 42.0581 695.24 42.522 695.24 43.4497V43.6206L695.191 44.0356C695.191 44.41 695.049 44.6989 694.764 44.9023C694.487 45.0977 694.166 45.1953 693.8 45.1953ZM256.947 60.9985L256.703 59.4727C256.703 58.9844 256.918 58.6182 257.35 58.374C257.789 58.1217 258.33 57.9956 258.973 57.9956H259.413C259.673 57.9956 259.917 58.077 260.145 58.2397C260.381 58.4025 260.499 58.61 260.499 58.8623C260.499 59.1146 260.393 59.4686 260.182 59.9243C259.97 60.3719 259.832 60.9456 259.767 61.6455C259.409 65.7389 259.229 68.9535 259.229 71.2891C259.229 71.8669 259.282 72.3063 259.388 72.6074L259.547 72.9736C259.71 73.3398 259.791 73.5758 259.791 73.6816C259.791 74.1292 259.645 74.4385 259.352 74.6094C259.059 74.7721 258.607 74.8535 257.997 74.8535C257.386 74.8535 256.902 74.7314 256.544 74.4873C256.194 74.235 256.019 73.9787 256.019 73.7183C256.019 73.4578 256.113 72.9777 256.3 72.2778C256.487 71.5698 256.581 70.634 256.581 69.4702C256.581 68.3065 256.426 67.6188 256.117 67.4072C255.807 67.1875 254.782 67.0776 253.041 67.0776C251.307 67.0776 250.225 67.2892 249.793 67.7124C249.362 68.1356 249.146 69.4458 249.146 71.6431C249.146 71.9523 249.163 72.2331 249.195 72.4854L249.256 72.8516C249.321 73.2259 249.354 73.4497 249.354 73.5229C249.354 74.3612 248.593 74.7803 247.071 74.7803C246.559 74.7803 246.192 74.6867 245.973 74.4995C245.761 74.3042 245.655 74.0885 245.655 73.8525C245.655 73.6084 245.765 73.2666 245.985 72.8271C246.213 72.3796 246.359 71.9157 246.424 71.4355C246.758 68.8314 246.925 65.5151 246.925 61.4868C246.925 61.0067 246.823 60.5306 246.62 60.0586C246.424 59.5785 246.327 59.2936 246.327 59.2041C246.327 58.4717 246.909 58.1055 248.072 58.1055C248.699 58.1055 249.179 58.2072 249.513 58.4106C249.854 58.6141 250.025 58.8379 250.025 59.082C250.025 59.318 249.981 59.6029 249.891 59.9365C249.802 60.2702 249.728 60.612 249.671 60.9619C249.614 61.3118 249.586 61.971 249.586 62.9395C249.586 63.9079 249.765 64.5264 250.123 64.7949C250.489 65.0635 251.572 65.1978 253.37 65.1978C255.177 65.1978 256.21 64.974 256.471 64.5264C256.788 63.973 256.947 62.797 256.947 60.9985ZM265.125 69.8486C265.125 70.9147 265.37 71.8018 265.858 72.5098C266.346 73.2178 266.944 73.5718 267.652 73.5718H268.019C268.857 73.5718 269.565 73.1486 270.143 72.3022C270.729 71.4559 271.021 70.3288 271.021 68.9209V68.1152C271.021 67.0247 270.781 66.1336 270.301 65.4419C269.829 64.742 269.219 64.3921 268.47 64.3921H268.226C267.355 64.3921 266.623 64.8234 266.029 65.686C265.443 66.5487 265.15 67.5781 265.15 68.7744L265.125 69.0552V69.8486ZM267.884 75.2319H267.494C266.069 75.2319 264.91 74.7355 264.015 73.7427C263.119 72.7498 262.672 71.342 262.672 69.519L262.684 69.3115C262.684 67.3096 263.213 65.7308 264.271 64.5752C264.824 63.9648 265.455 63.5173 266.163 63.2324C266.879 62.9395 267.559 62.793 268.202 62.793H268.8C269.516 62.793 270.204 62.9517 270.863 63.269C272.751 64.1805 273.695 65.8976 273.695 68.4204V68.6157C273.687 69.4377 273.552 70.2718 273.292 71.1182C272.771 72.7865 271.77 73.9665 270.289 74.6582C269.467 75.0407 268.666 75.2319 267.884 75.2319ZM276.905 58.0322C276.905 57.4382 277.463 57.1411 278.578 57.1411H278.797C279.261 57.1411 279.579 57.255 279.75 57.4829C279.92 57.7026 280.006 58.134 280.006 58.7769L279.908 60.5957C279.884 60.8805 279.872 61.0352 279.872 61.0596L279.847 61.5234C279.831 61.8245 279.815 62.1297 279.798 62.439L279.762 62.9028L279.725 63.5986C279.595 66.0726 279.53 67.8996 279.53 69.0796C279.53 70.2515 279.583 71.0938 279.688 71.6064C279.794 72.1191 279.961 72.5545 280.189 72.9126C280.417 73.2707 280.531 73.5067 280.531 73.6206V73.7671C280.531 74.1252 280.352 74.41 279.994 74.6216C279.644 74.8332 279.168 74.939 278.565 74.939H277.931C277.556 74.939 277.227 74.8332 276.942 74.6216C276.665 74.4019 276.527 74.1536 276.527 73.877V73.5474L276.6 73.0347C276.698 72.3267 276.755 71.7977 276.771 71.4478C276.795 71.0897 276.832 70.5973 276.881 69.9707C276.93 69.3359 277.007 67.9891 277.113 65.9302C277.227 63.8631 277.284 62.7523 277.284 62.5977L277.333 61.6821L277.357 60.7788C277.357 59.9162 277.28 59.3018 277.125 58.9355C276.979 58.5612 276.905 58.2601 276.905 58.0322ZM285.511 69.0796V70.0073C285.511 70.9757 285.731 71.7855 286.17 72.4365C286.618 73.0794 287.143 73.4009 287.745 73.4009H288.087C289.015 73.4009 289.731 73.0306 290.235 72.29C290.748 71.5495 291.004 70.4468 291.004 68.9819C291.021 68.8029 291.029 68.6727 291.029 68.5913L291.053 68.3472L291.065 67.8345V66.9678C291.065 65.3076 290.402 64.4775 289.076 64.4775H288.6C287.737 64.4775 287.005 64.9129 286.402 65.7837C285.808 66.6545 285.511 67.7531 285.511 69.0796ZM283.167 69.6411C283.167 68.7948 283.318 67.9321 283.619 67.0532C283.92 66.1743 284.343 65.4256 284.889 64.8071C285.434 64.1805 286.048 63.7288 286.732 63.4521C287.416 63.1673 288.225 63.0249 289.161 63.0249C290.105 63.0249 290.691 62.854 290.919 62.5122C291.147 62.1623 291.261 61.3932 291.261 60.2051C291.261 59.9854 291.224 59.6924 291.151 59.3262C291.078 58.96 291.041 58.7484 291.041 58.6914C291.041 58.3415 291.192 58.0241 291.493 57.7393C291.794 57.4463 292.188 57.2998 292.677 57.2998H292.921C293.303 57.2998 293.588 57.3893 293.775 57.5684C293.963 57.7474 294.056 58.1217 294.056 58.6914V59.8267L294.032 60.4004C294.024 60.5957 294.02 60.8805 294.02 61.2549C294.02 61.6211 293.958 62.8011 293.836 64.7949C293.714 66.7887 293.653 68.16 293.653 68.9087L293.641 69.2017C293.633 69.397 293.629 69.5841 293.629 69.7632L293.617 70.0439C293.617 70.0439 293.617 70.3613 293.617 70.9961C293.617 71.818 293.682 72.4365 293.812 72.8516C293.942 73.2666 294.007 73.5636 294.007 73.7427C294.007 73.9217 293.906 74.1089 293.702 74.3042C293.499 74.4995 293.181 74.5972 292.75 74.5972C292.327 74.5972 291.916 74.528 291.517 74.3896C291.118 74.2432 290.825 74.1699 290.638 74.1699C290.451 74.1699 290.207 74.2269 289.906 74.3408C288.994 74.6745 288.16 74.8413 287.403 74.8413C287.387 74.8413 287.371 74.8413 287.354 74.8413H287.074C285.845 74.8413 284.885 74.3937 284.193 73.4985C283.509 72.5952 283.167 71.4111 283.167 69.9463V69.6411ZM298.084 68.1885C297.588 67.6839 297.34 66.9759 297.34 66.0645C297.34 65.153 297.747 64.3717 298.561 63.7207C299.374 63.0615 300.383 62.7319 301.588 62.7319H301.905C302.971 62.7319 303.818 62.8825 304.444 63.1836C305.079 63.4847 305.396 63.9364 305.396 64.5386C305.396 65.1326 305.132 65.4297 304.603 65.4297C304.465 65.4297 304.074 65.2669 303.431 64.9414C302.788 64.6077 302.182 64.4409 301.612 64.4409C301.043 64.4409 300.583 64.5711 300.233 64.8315C299.891 65.0838 299.72 65.4338 299.72 65.8813C299.72 66.3289 299.96 66.7196 300.44 67.0532C300.717 67.2485 301.368 67.5578 302.394 67.981C303.427 68.4041 304.164 68.811 304.603 69.2017C305.311 69.8283 305.665 70.6299 305.665 71.6064C305.665 72.583 305.25 73.4212 304.42 74.1211C303.59 74.8128 302.512 75.1587 301.185 75.1587H300.868C299.533 75.1587 298.532 74.9674 297.865 74.585C297.197 74.1943 296.864 73.6898 296.864 73.0713C296.864 72.4447 297.124 72.1313 297.645 72.1313C297.816 72.1313 298.259 72.3511 298.976 72.7905C299.7 73.23 300.408 73.4497 301.1 73.4497C301.799 73.4497 302.324 73.3032 302.674 73.0103C303.024 72.7091 303.199 72.3348 303.199 71.8872C303.199 71.4315 302.979 71.0327 302.54 70.6909C302.304 70.5037 301.629 70.166 300.514 69.6777C299.399 69.1813 298.589 68.6849 298.084 68.1885ZM317.274 69.8486C317.274 70.9147 317.518 71.8018 318.006 72.5098C318.495 73.2178 319.093 73.5718 319.801 73.5718H320.167C321.005 73.5718 321.713 73.1486 322.291 72.3022C322.877 71.4559 323.17 70.3288 323.17 68.9209V68.1152C323.17 67.0247 322.93 66.1336 322.45 65.4419C321.978 64.742 321.367 64.3921 320.619 64.3921H320.375C319.504 64.3921 318.771 64.8234 318.177 65.686C317.591 66.5487 317.298 67.5781 317.298 68.7744L317.274 69.0552V69.8486ZM320.033 75.2319H319.642C318.218 75.2319 317.058 74.7355 316.163 73.7427C315.268 72.7498 314.82 71.342 314.82 69.519L314.833 69.3115C314.833 67.3096 315.361 65.7308 316.419 64.5752C316.973 63.9648 317.604 63.5173 318.312 63.2324C319.028 62.9395 319.707 62.793 320.35 62.793H320.948C321.664 62.793 322.352 62.9517 323.011 63.269C324.899 64.1805 325.843 65.8976 325.843 68.4204V68.6157C325.835 69.4377 325.701 70.2718 325.44 71.1182C324.92 72.7865 323.919 73.9665 322.438 74.6582C321.616 75.0407 320.814 75.2319 320.033 75.2319ZM334.706 73.6938C334.706 74.0194 334.506 74.3123 334.107 74.5728C333.717 74.825 333.184 74.9512 332.508 74.9512C331.247 74.9512 330.36 74.4832 329.847 73.5474C329.53 72.9614 329.371 71.5902 329.371 69.4336C329.371 67.277 329.334 66.0238 329.261 65.6738C329.188 65.3239 328.985 64.9821 328.651 64.6484C328.317 64.3148 328.15 64.0584 328.15 63.8794C328.15 63.8143 328.545 63.387 329.334 62.5977C329.505 62.4268 329.676 62.0483 329.847 61.4624C330.026 60.8765 330.152 60.4899 330.226 60.3027C330.47 59.7168 330.791 59.4238 331.19 59.4238H331.385C331.735 59.4238 331.983 59.5581 332.13 59.8267C332.187 59.9325 332.272 60.3149 332.386 60.9741C332.508 61.6252 332.647 62.0443 332.801 62.2314C332.956 62.4186 333.342 62.6261 333.961 62.854C334.588 63.0737 334.901 63.3097 334.901 63.562V63.6963C334.901 64.0218 334.543 64.2985 333.827 64.5264C333.119 64.7461 332.663 65.1001 332.459 65.5884C332.061 66.5731 331.861 68.1763 331.861 70.3979C331.861 71.4396 332.04 72.1476 332.398 72.522C332.618 72.7498 333.058 72.9085 333.717 72.998C334.376 73.0876 334.706 73.3195 334.706 73.6938ZM338.99 74.7681C338.03 74.7681 337.55 74.4263 337.55 73.7427C337.55 73.4334 337.623 72.9736 337.77 72.3633C337.924 71.7529 338.026 71.1914 338.075 70.6787C338.124 70.1579 338.209 68.4814 338.331 65.6494C338.461 62.8174 338.526 61.0921 338.526 60.4736V59.0332L338.453 58.0078C338.453 57.6253 338.803 57.4341 339.503 57.4341C340.211 57.4341 340.671 57.7067 340.882 58.252C340.988 58.5286 341.041 59.432 341.041 60.9619C341.041 62.4919 341.069 63.3626 341.126 63.5742C341.192 63.7858 341.358 63.8916 341.627 63.8916C341.66 63.8916 341.814 63.8428 342.091 63.7451L342.359 63.6475C343.23 63.3057 343.983 63.1348 344.618 63.1348C345.952 63.1348 346.9 63.6556 347.462 64.6973C347.836 65.389 348.023 66.8945 348.023 69.2139C348.023 70.3044 348.032 70.9513 348.048 71.1548C348.064 71.3582 348.117 71.7285 348.207 72.2656C348.296 72.7946 348.341 73.0876 348.341 73.1445C348.341 73.6247 348.231 73.9827 348.011 74.2188C347.8 74.4466 347.413 74.5605 346.852 74.5605C346.298 74.5605 345.936 74.3896 345.765 74.0479C345.676 73.8688 345.631 73.3521 345.631 72.4976L345.594 70.3491L345.631 68.4082C345.631 66.2354 344.996 65.1489 343.727 65.1489C342.604 65.1489 341.802 65.6209 341.322 66.5649C340.842 67.509 340.602 69.2586 340.602 71.814L340.638 73.1445C340.638 73.6003 340.496 73.9868 340.211 74.3042C339.926 74.6134 339.519 74.7681 338.99 74.7681ZM353.675 67.5781V67.7734C353.675 68.0176 353.899 68.1396 354.347 68.1396H354.64L354.713 68.1274L355.311 68.0786C355.938 67.9891 356.345 67.9443 356.532 67.9443C357.419 67.9443 358.086 67.7775 358.534 67.4438C358.745 67.2811 358.851 66.9922 358.851 66.5771V66.4429C358.851 65.8325 358.648 65.3483 358.241 64.9902C357.842 64.6322 357.362 64.4531 356.8 64.4531H356.715L356.642 64.4653C355.852 64.4653 355.16 64.799 354.566 65.4663C353.972 66.1336 353.675 66.8376 353.675 67.5781ZM356.336 75.1587H356.068C354.514 75.1587 353.277 74.6663 352.357 73.6816C351.437 72.6888 350.978 71.3664 350.978 69.7144V69.1772C350.978 68.3879 351.132 67.5863 351.441 66.7725C352.068 65.1449 353.089 64.0218 354.505 63.4033C355.254 63.0697 356.015 62.9028 356.788 62.9028H357.313C358.379 62.9028 359.278 63.2609 360.011 63.9771C360.751 64.6851 361.122 65.6006 361.122 66.7236V66.9678C361.122 67.7653 360.804 68.3309 360.169 68.6646C359.73 68.9006 358.705 69.1366 357.093 69.3726C355.482 69.6086 354.603 69.751 354.457 69.7998C353.968 69.9707 353.724 70.2962 353.724 70.7764C353.724 71.4437 354.009 72.0133 354.579 72.4854C355.148 72.9574 355.913 73.1934 356.874 73.1934C357.321 73.1934 357.931 73.0713 358.705 72.8271C359.478 72.583 359.925 72.4609 360.047 72.4609C360.462 72.4609 360.67 72.64 360.67 72.998C360.67 73.4782 360.202 73.9583 359.266 74.4385C358.33 74.9186 357.354 75.1587 356.336 75.1587ZM364.552 68.6523V67.7124C364.552 66.5812 364.491 65.7552 364.369 65.2344C364.247 64.7054 364.186 64.3351 364.186 64.1235C364.186 63.6271 364.548 63.3789 365.272 63.3789C365.996 63.3789 366.521 63.5132 366.847 63.7817C366.936 63.855 367.05 63.9974 367.188 64.209C367.335 64.4206 367.465 64.5264 367.579 64.5264C367.604 64.5264 367.958 64.3188 368.641 63.9038C369.325 63.4888 369.911 63.2812 370.399 63.2812H370.582C370.981 63.2812 371.298 63.3789 371.534 63.5742C371.77 63.7614 371.888 63.9933 371.888 64.27V64.4287C371.888 64.7624 371.77 65.0024 371.534 65.1489C371.306 65.2954 370.94 65.3687 370.436 65.3687C369.288 65.3687 368.45 65.7715 367.921 66.5771C367.4 67.3828 367.14 68.807 367.14 70.8496C367.14 71.1426 367.188 71.5942 367.286 72.2046C367.392 72.8149 367.445 73.2747 367.445 73.584C367.445 73.8932 367.278 74.1903 366.944 74.4751C366.611 74.7599 366.188 74.9023 365.675 74.9023H365.26C364.812 74.9023 364.466 74.7965 364.222 74.585C363.986 74.3652 363.868 74.1007 363.868 73.7915C363.868 73.4741 363.925 73.1527 364.039 72.8271C364.348 71.9482 364.503 70.9798 364.503 69.9219C364.535 69.3359 364.552 68.9128 364.552 68.6523ZM374.769 68.1885C374.273 67.6839 374.024 66.9759 374.024 66.0645C374.024 65.153 374.431 64.3717 375.245 63.7207C376.059 63.0615 377.068 62.7319 378.272 62.7319H378.59C379.656 62.7319 380.502 62.8825 381.129 63.1836C381.764 63.4847 382.081 63.9364 382.081 64.5386C382.081 65.1326 381.817 65.4297 381.288 65.4297C381.149 65.4297 380.759 65.2669 380.116 64.9414C379.473 64.6077 378.867 64.4409 378.297 64.4409C377.727 64.4409 377.267 64.5711 376.917 64.8315C376.576 65.0838 376.405 65.4338 376.405 65.8813C376.405 66.3289 376.645 66.7196 377.125 67.0532C377.402 67.2485 378.053 67.5578 379.078 67.981C380.112 68.4041 380.848 68.811 381.288 69.2017C381.996 69.8283 382.35 70.6299 382.35 71.6064C382.35 72.583 381.935 73.4212 381.104 74.1211C380.274 74.8128 379.196 75.1587 377.87 75.1587H377.552C376.218 75.1587 375.217 74.9674 374.549 74.585C373.882 74.1943 373.548 73.6898 373.548 73.0713C373.548 72.4447 373.809 72.1313 374.33 72.1313C374.5 72.1313 374.944 72.3511 375.66 72.7905C376.384 73.23 377.092 73.4497 377.784 73.4497C378.484 73.4497 379.009 73.3032 379.359 73.0103C379.709 72.7091 379.884 72.3348 379.884 71.8872C379.884 71.4315 379.664 71.0327 379.225 70.6909C378.989 70.5037 378.313 70.166 377.198 69.6777C376.083 69.1813 375.274 68.6849 374.769 68.1885ZM395.729 73.4619H396.046C396.713 73.4619 397.299 73.2381 397.804 72.7905C398.316 72.3348 398.573 71.8099 398.573 71.2158L398.597 71.0571V70.8984L398.622 70.52V69.8242C398.622 69.3522 398.382 69.1162 397.901 69.1162H397.352L397.267 69.1284L396.791 69.165C396.563 69.1976 396.4 69.2139 396.302 69.2139C395.643 69.2139 395.033 69.4621 394.471 69.9585C394.081 70.3084 393.885 70.8049 393.885 71.4478V71.6919C393.885 72.2371 394.06 72.6685 394.41 72.9858C394.768 73.3032 395.208 73.4619 395.729 73.4619ZM393.006 65.6616C392.461 65.6616 392.188 65.3117 392.188 64.6118C392.188 64.091 392.628 63.6393 393.507 63.2568C394.394 62.8662 395.313 62.6709 396.266 62.6709H396.876C397.698 62.6709 398.422 62.8255 399.049 63.1348C399.675 63.4359 400.152 63.8468 400.477 64.3677C400.811 64.8885 401.014 65.568 401.087 66.4062C401.104 66.6016 401.112 67.5496 401.112 69.2505C401.112 70.9513 401.132 71.932 401.173 72.1924C401.222 72.4447 401.352 72.7539 401.563 73.1201C401.783 73.4863 401.893 73.7874 401.893 74.0234C401.893 74.2594 401.779 74.4629 401.551 74.6338C401.332 74.7965 401.01 74.8779 400.587 74.8779C400.164 74.8779 399.704 74.7762 399.208 74.5728C398.711 74.3612 398.349 74.2554 398.121 74.2554C398.097 74.2554 397.69 74.4019 396.9 74.6948C396.111 74.9797 395.444 75.1221 394.898 75.1221H394.63C393.718 75.1221 392.941 74.8332 392.298 74.2554C391.664 73.6776 391.346 72.8556 391.346 71.7896C391.346 70.7235 391.696 69.8934 392.396 69.2993C393.096 68.6971 393.946 68.2861 394.947 68.0664C395.248 68.0013 395.749 67.9159 396.449 67.8101C397.149 67.7043 397.625 67.5944 397.877 67.4805C398.316 67.277 398.536 66.8945 398.536 66.333C398.536 65.7633 398.349 65.3198 397.975 65.0024C397.6 64.6769 397.153 64.5142 396.632 64.5142C396.119 64.5142 395.444 64.7054 394.605 65.0879C393.767 65.4704 393.234 65.6616 393.006 65.6616ZM404.359 69.9219V69.3604C404.359 68.335 404.518 67.4276 404.835 66.6382C405.445 65.1082 406.381 64.0503 407.643 63.4644C408.465 63.0737 409.315 62.8784 410.194 62.8784H410.462C411.431 62.8784 412.232 63.0697 412.867 63.4521C413.502 63.8346 413.819 64.3026 413.819 64.856C413.819 65.4989 413.51 65.8203 412.892 65.8203C412.778 65.8203 412.379 65.6413 411.695 65.2832C411.012 64.9333 410.45 64.7583 410.011 64.7583C410.003 64.7583 409.994 64.7583 409.986 64.7583C409.026 64.7583 408.273 65.1733 407.728 66.0034C407.191 66.8335 406.922 67.9159 406.922 69.2505C406.922 70.5851 407.207 71.5739 407.777 72.2168C408.355 72.8597 409.156 73.1812 410.182 73.1812C410.605 73.1812 411.187 73.0632 411.927 72.8271C412.668 72.583 413.119 72.4609 413.282 72.4609C413.616 72.4609 413.783 72.6359 413.783 72.9858C413.783 73.4578 413.315 73.9339 412.379 74.4141C411.443 74.8942 410.523 75.1343 409.62 75.1343C407.203 75.1343 405.604 74.1821 404.823 72.2778C404.514 71.521 404.359 70.7357 404.359 69.9219ZM415.956 69.9219V69.3604C415.956 68.335 416.114 67.4276 416.432 66.6382C417.042 65.1082 417.978 64.0503 419.239 63.4644C420.061 63.0737 420.912 62.8784 421.791 62.8784H422.059C423.028 62.8784 423.829 63.0697 424.464 63.4521C425.099 63.8346 425.416 64.3026 425.416 64.856C425.416 65.4989 425.107 65.8203 424.488 65.8203C424.374 65.8203 423.976 65.6413 423.292 65.2832C422.608 64.9333 422.047 64.7583 421.607 64.7583C421.599 64.7583 421.591 64.7583 421.583 64.7583C420.623 64.7583 419.87 65.1733 419.325 66.0034C418.788 66.8335 418.519 67.9159 418.519 69.2505C418.519 70.5851 418.804 71.5739 419.374 72.2168C419.951 72.8597 420.753 73.1812 421.778 73.1812C422.201 73.1812 422.783 73.0632 423.524 72.8271C424.264 72.583 424.716 72.4609 424.879 72.4609C425.213 72.4609 425.379 72.6359 425.379 72.9858C425.379 73.4578 424.911 73.9339 423.976 74.4141C423.04 74.8942 422.12 75.1343 421.217 75.1343C418.8 75.1343 417.201 74.1821 416.419 72.2778C416.11 71.521 415.956 70.7357 415.956 69.9219ZM430.067 69.8486C430.067 70.9147 430.311 71.8018 430.799 72.5098C431.288 73.2178 431.886 73.5718 432.594 73.5718H432.96C433.798 73.5718 434.506 73.1486 435.084 72.3022C435.67 71.4559 435.963 70.3288 435.963 68.9209V68.1152C435.963 67.0247 435.723 66.1336 435.243 65.4419C434.771 64.742 434.16 64.3921 433.412 64.3921H433.167C432.297 64.3921 431.564 64.8234 430.97 65.686C430.384 66.5487 430.091 67.5781 430.091 68.7744L430.067 69.0552V69.8486ZM432.826 75.2319H432.435C431.011 75.2319 429.851 74.7355 428.956 73.7427C428.061 72.7498 427.613 71.342 427.613 69.519L427.625 69.3115C427.625 67.3096 428.154 65.7308 429.212 64.5752C429.766 63.9648 430.396 63.5173 431.104 63.2324C431.821 62.9395 432.5 62.793 433.143 62.793H433.741C434.457 62.793 435.145 62.9517 435.804 63.269C437.692 64.1805 438.636 65.8976 438.636 68.4204V68.6157C438.628 69.4377 438.494 70.2718 438.233 71.1182C437.713 72.7865 436.712 73.9665 435.23 74.6582C434.409 75.0407 433.607 75.2319 432.826 75.2319ZM441.249 64.0259C441.249 63.5132 441.68 63.2568 442.542 63.2568H442.823C443.36 63.2568 443.722 63.4725 443.91 63.9038C444.097 64.3351 444.19 65.1408 444.19 66.3208L444.044 70.3979C444.044 72.2941 444.723 73.2422 446.083 73.2422C446.579 73.2422 447.055 73.0672 447.511 72.7173C447.966 72.3674 448.304 71.9482 448.524 71.46C449.004 70.3857 449.244 68.4611 449.244 65.686L449.22 65.1489V64.6729C449.22 64.2415 449.317 63.9282 449.513 63.7329C449.708 63.5376 450.05 63.4399 450.538 63.4399C451.026 63.4399 451.348 63.5579 451.502 63.7939C451.657 64.0299 451.734 64.4124 451.734 64.9414L451.71 65.5884L451.661 68.4692C451.661 68.9331 451.69 69.6452 451.747 70.6055C451.804 71.5658 451.865 72.2697 451.93 72.7173C451.995 73.1567 452.027 73.4172 452.027 73.4985C452.027 74.2228 451.494 74.585 450.428 74.585C450.062 74.585 449.696 74.4507 449.33 74.1821C448.972 73.9054 448.715 73.7671 448.561 73.7671C448.414 73.7671 448.162 73.8566 447.804 74.0356C446.786 74.5483 445.92 74.8047 445.204 74.8047H444.898C443.735 74.8047 442.88 74.4466 442.335 73.7305C441.79 73.0143 441.517 71.7244 441.517 69.8608L441.639 66.1621C441.639 65.6982 441.574 65.2547 441.444 64.8315C441.314 64.4084 441.249 64.1398 441.249 64.0259ZM466.261 73.5352C466.261 74.1374 465.736 74.4385 464.686 74.4385C464.092 74.4385 463.693 74.2961 463.49 74.0112C463.392 73.8729 463.343 73.5474 463.343 73.0347L463.307 72.2534C463.25 71.3989 463.221 70.5404 463.221 69.6777C463.221 67.8141 463.058 66.5649 462.733 65.9302C462.416 65.2873 461.878 64.9658 461.122 64.9658C460.617 64.9658 460.149 65.1164 459.718 65.4175C459.295 65.7186 458.969 66.1377 458.741 66.6748C458.269 67.7734 458.033 69.8039 458.033 72.7661C458.033 73.4416 457.903 73.9176 457.643 74.1943C457.39 74.471 457.065 74.6094 456.666 74.6094H456.422C455.51 74.6094 455.055 74.2472 455.055 73.5229V73.23C455.055 73.1405 455.104 72.9451 455.201 72.644L455.396 72.0825C455.592 71.4233 455.689 70.0114 455.689 67.8467L455.75 64.2212C455.75 63.7573 456.003 63.5254 456.507 63.5254C457.012 63.5254 457.508 63.6922 457.997 64.0259C458.493 64.3595 458.806 64.5264 458.937 64.5264C459.075 64.5264 459.315 64.4328 459.657 64.2456C460.804 63.619 461.724 63.3057 462.416 63.3057H462.733C463.978 63.3057 464.853 63.8672 465.357 64.9902C465.602 65.5192 465.724 66.6585 465.724 68.4082V68.4937C465.724 68.6401 465.72 68.7866 465.711 68.9331C465.711 69.3319 465.711 69.5394 465.711 69.5557C465.711 69.7103 465.711 69.8608 465.711 70.0073C465.711 70.1213 465.711 70.2311 465.711 70.3369C465.711 70.9635 465.732 71.3908 465.772 71.6187C465.829 71.9279 465.923 72.2493 466.053 72.583C466.192 72.9492 466.261 73.2666 466.261 73.5352ZM475.428 73.6938C475.428 74.0194 475.229 74.3123 474.83 74.5728C474.439 74.825 473.906 74.9512 473.231 74.9512C471.97 74.9512 471.083 74.4832 470.57 73.5474C470.252 72.9614 470.094 71.5902 470.094 69.4336C470.094 67.277 470.057 66.0238 469.984 65.6738C469.911 65.3239 469.707 64.9821 469.374 64.6484C469.04 64.3148 468.873 64.0584 468.873 63.8794C468.873 63.8143 469.268 63.387 470.057 62.5977C470.228 62.4268 470.399 62.0483 470.57 61.4624C470.749 60.8765 470.875 60.4899 470.948 60.3027C471.192 59.7168 471.514 59.4238 471.913 59.4238H472.108C472.458 59.4238 472.706 59.5581 472.853 59.8267C472.91 59.9325 472.995 60.3149 473.109 60.9741C473.231 61.6252 473.369 62.0443 473.524 62.2314C473.679 62.4186 474.065 62.6261 474.684 62.854C475.31 63.0737 475.624 63.3097 475.624 63.562V63.6963C475.624 64.0218 475.265 64.2985 474.549 64.5264C473.841 64.7461 473.386 65.1001 473.182 65.5884C472.783 66.5731 472.584 68.1763 472.584 70.3979C472.584 71.4396 472.763 72.1476 473.121 72.522C473.341 72.7498 473.78 72.9085 474.439 72.998C475.099 73.0876 475.428 73.3195 475.428 73.6938ZM482.081 73.4619H482.398C483.066 73.4619 483.652 73.2381 484.156 72.7905C484.669 72.3348 484.925 71.8099 484.925 71.2158L484.95 71.0571V70.8984L484.974 70.52V69.8242C484.974 69.3522 484.734 69.1162 484.254 69.1162H483.705L483.619 69.1284L483.143 69.165C482.915 69.1976 482.752 69.2139 482.655 69.2139C481.996 69.2139 481.385 69.4621 480.824 69.9585C480.433 70.3084 480.238 70.8049 480.238 71.4478V71.6919C480.238 72.2371 480.413 72.6685 480.763 72.9858C481.121 73.3032 481.56 73.4619 482.081 73.4619ZM479.359 65.6616C478.814 65.6616 478.541 65.3117 478.541 64.6118C478.541 64.091 478.98 63.6393 479.859 63.2568C480.746 62.8662 481.666 62.6709 482.618 62.6709H483.229C484.05 62.6709 484.775 62.8255 485.401 63.1348C486.028 63.4359 486.504 63.8468 486.83 64.3677C487.163 64.8885 487.367 65.568 487.44 66.4062C487.456 66.6016 487.464 67.5496 487.464 69.2505C487.464 70.9513 487.485 71.932 487.525 72.1924C487.574 72.4447 487.704 72.7539 487.916 73.1201C488.136 73.4863 488.246 73.7874 488.246 74.0234C488.246 74.2594 488.132 74.4629 487.904 74.6338C487.684 74.7965 487.363 74.8779 486.939 74.8779C486.516 74.8779 486.056 74.7762 485.56 74.5728C485.064 74.3612 484.701 74.2554 484.474 74.2554C484.449 74.2554 484.042 74.4019 483.253 74.6948C482.464 74.9797 481.796 75.1221 481.251 75.1221H480.982C480.071 75.1221 479.294 74.8332 478.651 74.2554C478.016 73.6776 477.699 72.8556 477.699 71.7896C477.699 70.7235 478.049 69.8934 478.749 69.2993C479.448 68.6971 480.299 68.2861 481.3 68.0664C481.601 68.0013 482.101 67.9159 482.801 67.8101C483.501 67.7043 483.977 67.5944 484.229 67.4805C484.669 67.277 484.889 66.8945 484.889 66.333C484.889 65.7633 484.701 65.3198 484.327 65.0024C483.953 64.6769 483.505 64.5142 482.984 64.5142C482.472 64.5142 481.796 64.7054 480.958 65.0879C480.12 65.4704 479.587 65.6616 479.359 65.6616ZM495.96 73.4497H496.327C497.214 73.4497 497.958 73.0103 498.561 72.1313C499.171 71.2443 499.476 70.0399 499.476 68.5181V68.1274L499.464 67.9932L499.452 67.7368C499.444 67.6473 499.439 67.5618 499.439 67.4805C499.439 66.6911 499.22 65.9993 498.78 65.4053C498.341 64.8031 497.804 64.502 497.169 64.502H496.815C496.416 64.502 495.977 64.6403 495.497 64.917C495.025 65.1937 494.691 65.5192 494.496 65.8936C494.064 66.7074 493.849 67.9932 493.849 69.751V70.874C493.873 71.1182 493.885 71.3216 493.885 71.4844C493.885 72.0703 494.064 72.5464 494.422 72.9126C494.789 73.2707 495.301 73.4497 495.96 73.4497ZM494.361 62.7197C494.361 63.029 494.41 63.2609 494.508 63.4155C494.614 63.5701 494.886 63.6475 495.326 63.6475C495.334 63.6475 495.598 63.5864 496.119 63.4644C496.648 63.3423 497.193 63.2812 497.755 63.2812C498.967 63.2812 499.981 63.7614 500.794 64.7217C501.608 65.682 502.015 66.8538 502.015 68.2373V69.1162C502.015 69.7998 501.881 70.5241 501.612 71.2891C501.336 72.054 500.945 72.7173 500.44 73.2788C499.407 74.4181 498.133 74.9878 496.62 74.9878H496.351C495.928 74.9878 495.383 74.9064 494.715 74.7437C494.048 74.5809 493.613 74.4995 493.409 74.4995L492.591 74.5728C491.753 74.5728 491.334 74.1536 491.334 73.3154V72.8149C491.334 72.3185 491.432 70.5078 491.627 67.3828C491.83 64.2578 491.932 62.264 491.932 61.4014C491.932 60.5387 491.863 59.8226 491.725 59.2529C491.586 58.6833 491.517 58.374 491.517 58.3252C491.517 57.6416 491.904 57.2998 492.677 57.2998H492.921C493.58 57.2998 493.999 57.4585 494.178 57.7759C494.357 58.0851 494.447 58.6629 494.447 59.5093L494.386 61.4502L494.361 61.9995V62.7197ZM505.274 58.0322C505.274 57.4382 505.832 57.1411 506.947 57.1411H507.167C507.63 57.1411 507.948 57.255 508.119 57.4829C508.29 57.7026 508.375 58.134 508.375 58.7769L508.277 60.5957C508.253 60.8805 508.241 61.0352 508.241 61.0596L508.216 61.5234C508.2 61.8245 508.184 62.1297 508.167 62.439L508.131 62.9028L508.094 63.5986C507.964 66.0726 507.899 67.8996 507.899 69.0796C507.899 70.2515 507.952 71.0938 508.058 71.6064C508.163 72.1191 508.33 72.5545 508.558 72.9126C508.786 73.2707 508.9 73.5067 508.9 73.6206V73.7671C508.9 74.1252 508.721 74.41 508.363 74.6216C508.013 74.8332 507.537 74.939 506.935 74.939H506.3C505.925 74.939 505.596 74.8332 505.311 74.6216C505.034 74.4019 504.896 74.1536 504.896 73.877V73.5474L504.969 73.0347C505.067 72.3267 505.124 71.7977 505.14 71.4478C505.165 71.0897 505.201 70.5973 505.25 69.9707C505.299 69.3359 505.376 67.9891 505.482 65.9302C505.596 63.8631 505.653 62.7523 505.653 62.5977L505.702 61.6821L505.726 60.7788C505.726 59.9162 505.649 59.3018 505.494 58.9355C505.348 58.5612 505.274 58.2601 505.274 58.0322ZM513.954 67.5781V67.7734C513.954 68.0176 514.177 68.1396 514.625 68.1396H514.918L514.991 68.1274L515.589 68.0786C516.216 67.9891 516.623 67.9443 516.81 67.9443C517.697 67.9443 518.364 67.7775 518.812 67.4438C519.024 67.2811 519.129 66.9922 519.129 66.5771V66.4429C519.129 65.8325 518.926 65.3483 518.519 64.9902C518.12 64.6322 517.64 64.4531 517.079 64.4531H516.993L516.92 64.4653C516.131 64.4653 515.439 64.799 514.845 65.4663C514.251 66.1336 513.954 66.8376 513.954 67.5781ZM516.615 75.1587H516.346C514.792 75.1587 513.555 74.6663 512.635 73.6816C511.716 72.6888 511.256 71.3664 511.256 69.7144V69.1772C511.256 68.3879 511.41 67.5863 511.72 66.7725C512.346 65.1449 513.368 64.0218 514.784 63.4033C515.532 63.0697 516.293 62.9028 517.066 62.9028H517.591C518.657 62.9028 519.557 63.2609 520.289 63.9771C521.03 64.6851 521.4 65.6006 521.4 66.7236V66.9678C521.4 67.7653 521.083 68.3309 520.448 68.6646C520.008 68.9006 518.983 69.1366 517.372 69.3726C515.76 69.6086 514.881 69.751 514.735 69.7998C514.247 69.9707 514.002 70.2962 514.002 70.7764C514.002 71.4437 514.287 72.0133 514.857 72.4854C515.427 72.9574 516.192 73.1934 517.152 73.1934C517.599 73.1934 518.21 73.0713 518.983 72.8271C519.756 72.583 520.204 72.4609 520.326 72.4609C520.741 72.4609 520.948 72.64 520.948 72.998C520.948 73.4782 520.48 73.9583 519.544 74.4385C518.609 74.9186 517.632 75.1587 516.615 75.1587ZM525.77 75.1953H525.392C524.985 75.1953 524.667 75.1017 524.439 74.9146C524.22 74.7274 524.11 74.4792 524.11 74.1699C524.094 74.1048 524.085 74.0519 524.085 74.0112L524.061 73.8037V73.584L524.073 73.5352V73.4253C524.09 73.3602 524.098 73.3073 524.098 73.2666C524.098 72.9004 524.22 72.6156 524.464 72.4121C524.716 72.2005 524.993 72.0947 525.294 72.0947L525.55 72.0581H525.88C526.767 72.0581 527.21 72.522 527.21 73.4497V73.6206L527.162 74.0356C527.162 74.41 527.019 74.6989 526.734 74.9023C526.458 75.0977 526.136 75.1953 525.77 75.1953Z" fill="black"/>
</svg>
