<svg width="758" height="87" viewBox="0 0 758 87" fill="none" xmlns="http://www.w3.org/2000/svg">
<rect width="758" height="87" rx="18" fill="#D9D9D9"/>
<path d="M30.407 52C30.057 52 29.882 51.825 29.882 51.475V47.275C29.882 46.925 30.057 46.75 30.407 46.75H39.773V40.807H30.407C30.057 40.807 29.882 40.632 29.882 40.282L29.903 24.532C29.903 24.182 30.078 24.007 30.428 24.007H46.262C46.612 24.007 46.787 24.182 46.787 24.532V28.732C46.787 29.082 46.612 29.257 46.262 29.257H36.917V35.2H46.262C46.612 35.2 46.787 35.375 46.787 35.725V46.645C46.787 46.897 46.703 47.121 46.535 47.317L42.083 51.748C41.929 51.916 41.712 52 41.432 52H30.407Z" fill="#2ECC71"/>
<path d="M56.0688 37.395V37.0044C56.0688 35.7104 56.2723 34.4613 56.6792 33.2568C57.4442 31.0026 58.791 29.4198 60.7197 28.5083C61.7695 28.0119 62.856 27.7637 63.979 27.7637H64.3574C66.0583 27.7637 67.2668 28.0119 67.9829 28.5083C68.6991 29.0047 69.0571 29.6313 69.0571 30.3882C69.0571 30.8439 68.9676 31.1491 68.7886 31.3037C68.6095 31.4583 68.4346 31.5356 68.2637 31.5356C68.1009 31.5356 67.7469 31.3485 67.2017 30.9741C66.6646 30.5998 66.1437 30.3109 65.6392 30.1074C65.1346 29.8958 64.5039 29.79 63.7471 29.79C62.9902 29.79 62.3026 29.9772 61.6841 30.3516C59.8286 31.4827 58.8968 33.8062 58.8887 37.3218C58.8887 38.2332 59.0107 39.0552 59.2549 39.7876C59.9954 42.0011 61.4725 43.1079 63.686 43.1079C64.7603 43.1079 65.9972 42.7173 67.397 41.936C67.8364 41.6919 68.1619 41.5698 68.3735 41.5698C68.7235 41.5698 68.8984 41.7692 68.8984 42.168C68.8984 42.4202 68.7845 42.701 68.5566 43.0103C68.1579 43.5636 67.637 43.999 66.9941 44.3164C65.9036 44.8617 64.6911 45.1343 63.3564 45.1343H62.9658C60.8825 45.1343 59.2061 44.4385 57.9365 43.0469C57.3343 42.3877 56.8704 41.5576 56.5449 40.5566C56.2275 39.5557 56.0688 38.5018 56.0688 37.395ZM73.708 39.8486C73.708 40.9147 73.9521 41.8018 74.4404 42.5098C74.9287 43.2178 75.5269 43.5718 76.2349 43.5718H76.6011C77.4393 43.5718 78.1473 43.1486 78.7251 42.3022C79.311 41.4559 79.604 40.3288 79.604 38.9209V38.1152C79.604 37.0247 79.3639 36.1336 78.8838 35.4419C78.4118 34.742 77.8014 34.3921 77.0527 34.3921H76.8086C75.9378 34.3921 75.2054 34.8234 74.6113 35.686C74.0254 36.5487 73.7324 37.5781 73.7324 38.7744L73.708 39.0552V39.8486ZM76.4668 45.2319H76.0762C74.652 45.2319 73.4924 44.7355 72.5972 43.7427C71.702 42.7498 71.2544 41.342 71.2544 39.519L71.2666 39.3115C71.2666 37.3096 71.7956 35.7308 72.8535 34.5752C73.4069 33.9648 74.0376 33.5173 74.7456 33.2324C75.4618 32.9395 76.1413 32.793 76.7842 32.793H77.3823C78.0985 32.793 78.7861 32.9517 79.4453 33.269C81.3333 34.1805 82.2773 35.8976 82.2773 38.4204V38.6157C82.2692 39.4377 82.1349 40.2718 81.8745 41.1182C81.3537 42.7865 80.3527 43.9665 78.8716 44.6582C78.0496 45.0407 77.248 45.2319 76.4668 45.2319ZM96.0103 43.5352C96.0103 44.1374 95.4854 44.4385 94.4355 44.4385C93.8415 44.4385 93.4427 44.2961 93.2393 44.0112C93.1416 43.8729 93.0928 43.5474 93.0928 43.0347L93.0562 42.2534C92.9992 41.3989 92.9707 40.5404 92.9707 39.6777C92.9707 37.8141 92.8079 36.5649 92.4824 35.9302C92.165 35.2873 91.6279 34.9658 90.8711 34.9658C90.3665 34.9658 89.8986 35.1164 89.4673 35.4175C89.0441 35.7186 88.7186 36.1377 88.4907 36.6748C88.0187 37.7734 87.7827 39.8039 87.7827 42.7661C87.7827 43.4416 87.6525 43.9176 87.3921 44.1943C87.1398 44.471 86.8143 44.6094 86.4155 44.6094H86.1714C85.2599 44.6094 84.8042 44.2472 84.8042 43.5229V43.23C84.8042 43.1405 84.853 42.9451 84.9507 42.644L85.146 42.0825C85.3413 41.4233 85.439 40.0114 85.439 37.8467L85.5 34.2212C85.5 33.7573 85.7523 33.5254 86.2568 33.5254C86.7614 33.5254 87.2578 33.6922 87.7461 34.0259C88.2425 34.3595 88.5558 34.5264 88.686 34.5264C88.8244 34.5264 89.0645 34.4328 89.4062 34.2456C90.5537 33.619 91.4733 33.3057 92.165 33.3057H92.4824C93.7275 33.3057 94.6024 33.8672 95.1069 34.9902C95.3511 35.5192 95.4731 36.6585 95.4731 38.4082V38.4937C95.4731 38.6401 95.4691 38.7866 95.4609 38.9331C95.4609 39.3319 95.4609 39.5394 95.4609 39.5557C95.4609 39.7103 95.4609 39.8608 95.4609 40.0073C95.4609 40.1213 95.4609 40.2311 95.4609 40.3369C95.4609 40.9635 95.4813 41.3908 95.522 41.6187C95.5789 41.9279 95.6725 42.2493 95.8027 42.583C95.9411 42.9492 96.0103 43.2666 96.0103 43.5352ZM99.7578 38.1885C99.2614 37.6839 99.0132 36.9759 99.0132 36.0645C99.0132 35.153 99.4201 34.3717 100.234 33.7207C101.048 33.0615 102.057 32.7319 103.261 32.7319H103.579C104.645 32.7319 105.491 32.8825 106.118 33.1836C106.752 33.4847 107.07 33.9364 107.07 34.5386C107.07 35.1326 106.805 35.4297 106.276 35.4297C106.138 35.4297 105.747 35.2669 105.104 34.9414C104.462 34.6077 103.855 34.4409 103.286 34.4409C102.716 34.4409 102.256 34.5711 101.906 34.8315C101.564 35.0838 101.394 35.4338 101.394 35.8813C101.394 36.3289 101.634 36.7196 102.114 37.0532C102.39 37.2485 103.042 37.5578 104.067 37.981C105.1 38.4041 105.837 38.811 106.276 39.2017C106.984 39.8283 107.338 40.6299 107.338 41.6064C107.338 42.583 106.923 43.4212 106.093 44.1211C105.263 44.8128 104.185 45.1587 102.858 45.1587H102.541C101.206 45.1587 100.205 44.9674 99.5381 44.585C98.8708 44.1943 98.5371 43.6898 98.5371 43.0713C98.5371 42.4447 98.7975 42.1313 99.3184 42.1313C99.4893 42.1313 99.9328 42.3511 100.649 42.7905C101.373 43.23 102.081 43.4497 102.773 43.4497C103.473 43.4497 103.998 43.3032 104.348 43.0103C104.698 42.7091 104.873 42.3348 104.873 41.8872C104.873 41.4315 104.653 41.0327 104.213 40.6909C103.977 40.5037 103.302 40.166 102.187 39.6777C101.072 39.1813 100.262 38.6849 99.7578 38.1885ZM113.93 29.1309V29.2773C113.93 29.6924 113.808 30.0464 113.564 30.3394C113.328 30.6242 112.962 30.7666 112.465 30.7666H112.27L111.892 30.7178C111.672 30.7178 111.46 30.616 111.257 30.4126C111.053 30.2091 110.952 29.904 110.952 29.4971V29.3506L111.013 28.9111C111.013 28.7402 111.114 28.5286 111.318 28.2764C111.529 28.0241 111.798 27.8979 112.124 27.8979L112.404 27.8613H112.648L112.99 27.9102C113.202 27.9102 113.409 28.016 113.613 28.2275C113.824 28.431 113.93 28.7321 113.93 29.1309ZM113.356 34.2822L113.222 37.5659L113.198 37.8955L113.161 38.8965V39.3726C113.161 40.5444 113.194 41.3135 113.259 41.6797C113.332 42.0459 113.466 42.404 113.662 42.7539C113.857 43.0957 113.955 43.3439 113.955 43.4985V43.6084C113.955 44.0072 113.751 44.3245 113.344 44.5605C112.937 44.7965 112.384 44.9146 111.684 44.9146H111.379C110.972 44.9146 110.663 44.825 110.451 44.646C110.24 44.4588 110.134 44.2594 110.134 44.0479V43.7793C110.134 43.6735 110.227 43.2992 110.415 42.6562C110.602 42.0052 110.695 41.1222 110.695 40.0073C110.72 39.6899 110.732 39.4702 110.732 39.3481L110.769 38.6768L110.793 38.3472C110.834 37.7775 110.854 37.334 110.854 37.0166L110.866 36.5283C110.866 35.918 110.764 35.3768 110.561 34.9048C110.366 34.4328 110.268 34.1398 110.268 34.0259C110.268 33.4399 110.821 33.147 111.928 33.147H112.368C112.783 33.147 113.051 33.2568 113.173 33.4766C113.295 33.6882 113.356 33.9567 113.356 34.2822ZM117.873 38.1885C117.377 37.6839 117.128 36.9759 117.128 36.0645C117.128 35.153 117.535 34.3717 118.349 33.7207C119.163 33.0615 120.172 32.7319 121.376 32.7319H121.694C122.76 32.7319 123.606 32.8825 124.233 33.1836C124.868 33.4847 125.185 33.9364 125.185 34.5386C125.185 35.1326 124.921 35.4297 124.392 35.4297C124.253 35.4297 123.863 35.2669 123.22 34.9414C122.577 34.6077 121.971 34.4409 121.401 34.4409C120.831 34.4409 120.371 34.5711 120.021 34.8315C119.68 35.0838 119.509 35.4338 119.509 35.8813C119.509 36.3289 119.749 36.7196 120.229 37.0532C120.506 37.2485 121.157 37.5578 122.182 37.981C123.216 38.4041 123.952 38.811 124.392 39.2017C125.1 39.8283 125.454 40.6299 125.454 41.6064C125.454 42.583 125.039 43.4212 124.208 44.1211C123.378 44.8128 122.3 45.1587 120.974 45.1587H120.656C119.322 45.1587 118.321 44.9674 117.653 44.585C116.986 44.1943 116.652 43.6898 116.652 43.0713C116.652 42.4447 116.913 42.1313 117.434 42.1313C117.604 42.1313 118.048 42.3511 118.764 42.7905C119.488 43.23 120.196 43.4497 120.888 43.4497C121.588 43.4497 122.113 43.3032 122.463 43.0103C122.813 42.7091 122.988 42.3348 122.988 41.8872C122.988 41.4315 122.768 41.0327 122.329 40.6909C122.093 40.5037 121.417 40.166 120.302 39.6777C119.187 39.1813 118.378 38.6849 117.873 38.1885ZM134.45 43.6938C134.45 44.0194 134.251 44.3123 133.852 44.5728C133.461 44.825 132.928 44.9512 132.253 44.9512C130.992 44.9512 130.104 44.4832 129.592 43.5474C129.274 42.9614 129.116 41.5902 129.116 39.4336C129.116 37.277 129.079 36.0238 129.006 35.6738C128.933 35.3239 128.729 34.9821 128.396 34.6484C128.062 34.3148 127.895 34.0584 127.895 33.8794C127.895 33.8143 128.29 33.387 129.079 32.5977C129.25 32.4268 129.421 32.0483 129.592 31.4624C129.771 30.8765 129.897 30.4899 129.97 30.3027C130.214 29.7168 130.536 29.4238 130.935 29.4238H131.13C131.48 29.4238 131.728 29.5581 131.875 29.8267C131.931 29.9325 132.017 30.3149 132.131 30.9741C132.253 31.6252 132.391 32.0443 132.546 32.2314C132.701 32.4186 133.087 32.6261 133.706 32.854C134.332 33.0737 134.646 33.3097 134.646 33.562V33.6963C134.646 34.0218 134.287 34.2985 133.571 34.5264C132.863 34.7461 132.408 35.1001 132.204 35.5884C131.805 36.5731 131.606 38.1763 131.606 40.3979C131.606 41.4396 131.785 42.1476 132.143 42.522C132.363 42.7498 132.802 42.9085 133.461 42.998C134.121 43.0876 134.45 43.3195 134.45 43.6938ZM139.431 37.5781V37.7734C139.431 38.0176 139.654 38.1396 140.102 38.1396H140.395L140.468 38.1274L141.066 38.0786C141.693 37.9891 142.1 37.9443 142.287 37.9443C143.174 37.9443 143.841 37.7775 144.289 37.4438C144.501 37.2811 144.606 36.9922 144.606 36.5771V36.4429C144.606 35.8325 144.403 35.3483 143.996 34.9902C143.597 34.6322 143.117 34.4531 142.556 34.4531H142.47L142.397 34.4653C141.608 34.4653 140.916 34.799 140.322 35.4663C139.728 36.1336 139.431 36.8376 139.431 37.5781ZM142.092 45.1587H141.823C140.269 45.1587 139.032 44.6663 138.112 43.6816C137.193 42.6888 136.733 41.3664 136.733 39.7144V39.1772C136.733 38.3879 136.888 37.5863 137.197 36.7725C137.823 35.1449 138.845 34.0218 140.261 33.4033C141.009 33.0697 141.77 32.9028 142.543 32.9028H143.068C144.134 32.9028 145.034 33.2609 145.766 33.9771C146.507 34.6851 146.877 35.6006 146.877 36.7236V36.9678C146.877 37.7653 146.56 38.3309 145.925 38.6646C145.485 38.9006 144.46 39.1366 142.849 39.3726C141.237 39.6086 140.358 39.751 140.212 39.7998C139.724 39.9707 139.479 40.2962 139.479 40.7764C139.479 41.4437 139.764 42.0133 140.334 42.4854C140.904 42.9574 141.669 43.1934 142.629 43.1934C143.076 43.1934 143.687 43.0713 144.46 42.8271C145.233 42.583 145.681 42.4609 145.803 42.4609C146.218 42.4609 146.425 42.64 146.425 42.998C146.425 43.4782 145.957 43.9583 145.021 44.4385C144.086 44.9186 143.109 45.1587 142.092 45.1587ZM160.732 43.5352C160.732 44.1374 160.207 44.4385 159.157 44.4385C158.563 44.4385 158.164 44.2961 157.961 44.0112C157.863 43.8729 157.814 43.5474 157.814 43.0347L157.778 42.2534C157.721 41.3989 157.692 40.5404 157.692 39.6777C157.692 37.8141 157.53 36.5649 157.204 35.9302C156.887 35.2873 156.35 34.9658 155.593 34.9658C155.088 34.9658 154.62 35.1164 154.189 35.4175C153.766 35.7186 153.44 36.1377 153.212 36.6748C152.74 37.7734 152.504 39.8039 152.504 42.7661C152.504 43.4416 152.374 43.9176 152.114 44.1943C151.861 44.471 151.536 44.6094 151.137 44.6094H150.893C149.982 44.6094 149.526 44.2472 149.526 43.5229V43.23C149.526 43.1405 149.575 42.9451 149.672 42.644L149.868 42.0825C150.063 41.4233 150.161 40.0114 150.161 37.8467L150.222 34.2212C150.222 33.7573 150.474 33.5254 150.979 33.5254C151.483 33.5254 151.979 33.6922 152.468 34.0259C152.964 34.3595 153.278 34.5264 153.408 34.5264C153.546 34.5264 153.786 34.4328 154.128 34.2456C155.275 33.619 156.195 33.3057 156.887 33.3057H157.204C158.449 33.3057 159.324 33.8672 159.829 34.9902C160.073 35.5192 160.195 36.6585 160.195 38.4082V38.4937C160.195 38.6401 160.191 38.7866 160.183 38.9331C160.183 39.3319 160.183 39.5394 160.183 39.5557C160.183 39.7103 160.183 39.8608 160.183 40.0073C160.183 40.1213 160.183 40.2311 160.183 40.3369C160.183 40.9635 160.203 41.3908 160.244 41.6187C160.301 41.9279 160.394 42.2493 160.524 42.583C160.663 42.9492 160.732 43.2666 160.732 43.5352ZM169.899 43.6938C169.899 44.0194 169.7 44.3123 169.301 44.5728C168.911 44.825 168.378 44.9512 167.702 44.9512C166.441 44.9512 165.554 44.4832 165.041 43.5474C164.724 42.9614 164.565 41.5902 164.565 39.4336C164.565 37.277 164.528 36.0238 164.455 35.6738C164.382 35.3239 164.178 34.9821 163.845 34.6484C163.511 34.3148 163.344 34.0584 163.344 33.8794C163.344 33.8143 163.739 33.387 164.528 32.5977C164.699 32.4268 164.87 32.0483 165.041 31.4624C165.22 30.8765 165.346 30.4899 165.419 30.3027C165.664 29.7168 165.985 29.4238 166.384 29.4238H166.579C166.929 29.4238 167.177 29.5581 167.324 29.8267C167.381 29.9325 167.466 30.3149 167.58 30.9741C167.702 31.6252 167.84 32.0443 167.995 32.2314C168.15 32.4186 168.536 32.6261 169.155 32.854C169.781 33.0737 170.095 33.3097 170.095 33.562V33.6963C170.095 34.0218 169.737 34.2985 169.021 34.5264C168.312 34.7461 167.857 35.1001 167.653 35.5884C167.255 36.5731 167.055 38.1763 167.055 40.3979C167.055 41.4396 167.234 42.1476 167.592 42.522C167.812 42.7498 168.251 42.9085 168.911 42.998C169.57 43.0876 169.899 43.3195 169.899 43.6938ZM173.378 28.0322C173.378 27.4382 173.936 27.1411 175.051 27.1411H175.271C175.734 27.1411 176.052 27.255 176.223 27.4829C176.394 27.7026 176.479 28.134 176.479 28.7769L176.381 30.5957C176.357 30.8805 176.345 31.0352 176.345 31.0596L176.32 31.5234C176.304 31.8245 176.288 32.1297 176.271 32.439L176.235 32.9028L176.198 33.5986C176.068 36.0726 176.003 37.8996 176.003 39.0796C176.003 40.2515 176.056 41.0938 176.162 41.6064C176.267 42.1191 176.434 42.5545 176.662 42.9126C176.89 43.2707 177.004 43.5067 177.004 43.6206V43.7671C177.004 44.1252 176.825 44.41 176.467 44.6216C176.117 44.8332 175.641 44.939 175.039 44.939H174.404C174.029 44.939 173.7 44.8332 173.415 44.6216C173.138 44.4019 173 44.1536 173 43.877V43.5474L173.073 43.0347C173.171 42.3267 173.228 41.7977 173.244 41.4478C173.269 41.0897 173.305 40.5973 173.354 39.9707C173.403 39.3359 173.48 37.9891 173.586 35.9302C173.7 33.8631 173.757 32.7523 173.757 32.5977L173.806 31.6821L173.83 30.7788C173.83 29.9162 173.753 29.3018 173.598 28.9355C173.452 28.5612 173.378 28.2601 173.378 28.0322ZM183.925 44.9512C183.925 44.528 183.636 43.7874 183.059 42.7295C182.481 41.6634 181.997 40.6706 181.606 39.751C180.271 36.6178 179.604 34.8071 179.604 34.3188C179.604 34.0991 179.73 33.8997 179.982 33.7207C180.243 33.5417 180.674 33.4521 181.276 33.4521C181.879 33.4521 182.302 33.7085 182.546 34.2212C182.57 34.2782 182.656 34.6322 182.802 35.2832C183.909 39.3278 184.601 41.4478 184.877 41.6431C185.301 41.6431 185.878 40.6543 186.611 38.6768C187.107 37.334 187.412 36.2069 187.526 35.2954C187.648 34.384 187.746 33.859 187.819 33.7207C188.047 33.2975 188.519 33.0859 189.235 33.0859C189.96 33.0859 190.322 33.3667 190.322 33.9282C190.322 34.327 190.175 34.86 189.882 35.5273C189.589 36.1947 189.313 36.9189 189.052 37.7002C187.563 42.1598 186.485 44.9756 185.817 46.1475C185.15 47.3275 184.446 48.2552 183.706 48.9307C182.965 49.6143 182.22 49.9561 181.472 49.9561C180.731 49.9561 180.361 49.7445 180.361 49.3213C180.361 48.9469 180.739 48.6051 181.496 48.2959C182.261 47.9867 182.794 47.6286 183.095 47.2217C183.649 46.4811 183.925 45.7243 183.925 44.9512ZM201.687 37.5781V37.7734C201.687 38.0176 201.91 38.1396 202.358 38.1396H202.651L202.724 38.1274L203.322 38.0786C203.949 37.9891 204.356 37.9443 204.543 37.9443C205.43 37.9443 206.097 37.7775 206.545 37.4438C206.757 37.2811 206.862 36.9922 206.862 36.5771V36.4429C206.862 35.8325 206.659 35.3483 206.252 34.9902C205.853 34.6322 205.373 34.4531 204.812 34.4531H204.726L204.653 34.4653C203.863 34.4653 203.172 34.799 202.578 35.4663C201.984 36.1336 201.687 36.8376 201.687 37.5781ZM204.348 45.1587H204.079C202.525 45.1587 201.288 44.6663 200.368 43.6816C199.449 42.6888 198.989 41.3664 198.989 39.7144V39.1772C198.989 38.3879 199.143 37.5863 199.453 36.7725C200.079 35.1449 201.101 34.0218 202.517 33.4033C203.265 33.0697 204.026 32.9028 204.799 32.9028H205.324C206.39 32.9028 207.29 33.2609 208.022 33.9771C208.763 34.6851 209.133 35.6006 209.133 36.7236V36.9678C209.133 37.7653 208.815 38.3309 208.181 38.6646C207.741 38.9006 206.716 39.1366 205.104 39.3726C203.493 39.6086 202.614 39.751 202.468 39.7998C201.979 39.9707 201.735 40.2962 201.735 40.7764C201.735 41.4437 202.02 42.0133 202.59 42.4854C203.16 42.9574 203.924 43.1934 204.885 43.1934C205.332 43.1934 205.943 43.0713 206.716 42.8271C207.489 42.583 207.937 42.4609 208.059 42.4609C208.474 42.4609 208.681 42.64 208.681 42.998C208.681 43.4782 208.213 43.9583 207.277 44.4385C206.341 44.9186 205.365 45.1587 204.348 45.1587ZM221.755 44.1455C221.755 44.6094 221.055 44.8413 219.655 44.8413C219.045 44.8413 218.593 44.6338 218.3 44.2188C218.284 44.2025 218.203 44.0356 218.056 43.7183C217.91 43.3927 217.609 42.8434 217.153 42.0703C216.705 41.2891 216.42 40.8984 216.298 40.8984C216.087 40.8984 215.603 41.464 214.846 42.5952C214.593 42.9696 214.374 43.3765 214.187 43.8159C214.007 44.2472 213.808 44.5605 213.588 44.7559C213.369 44.9512 212.982 45.0488 212.429 45.0488C211.542 45.0488 211.098 44.8291 211.098 44.3896C211.098 44.1048 211.318 43.7427 211.757 43.3032C212.205 42.8556 212.62 42.3755 213.002 41.8628C214.223 40.2189 214.833 39.2342 214.833 38.9087C214.833 38.575 214.329 37.6758 213.32 36.2109C212.994 35.7389 212.62 35.2954 212.197 34.8804C211.782 34.4572 211.574 34.0951 211.574 33.7939C211.574 33.3626 212.286 33.147 213.71 33.147C214.223 33.147 214.626 33.3097 214.919 33.6353C215.017 33.7492 215.131 33.9608 215.261 34.27C215.391 34.5793 215.546 34.9048 215.725 35.2466C216.311 36.3615 216.697 36.9189 216.884 36.9189C217.145 36.9189 217.633 36.3411 218.349 35.1855C218.577 34.8193 218.76 34.4572 218.898 34.0991C219.045 33.741 219.179 33.505 219.301 33.3911C219.554 33.147 220.034 33.0249 220.742 33.0249C221.45 33.0249 221.804 33.1795 221.804 33.4888V33.6841C221.804 33.7085 221.214 34.4735 220.034 35.979C218.862 37.4845 218.276 38.4448 218.276 38.8599C218.276 39.2668 218.837 40.2637 219.96 41.8506C220.286 42.3063 220.664 42.7417 221.096 43.1567C221.535 43.5636 221.755 43.8932 221.755 44.1455ZM223.708 39.9219V39.3604C223.708 38.335 223.867 37.4276 224.184 36.6382C224.794 35.1082 225.73 34.0503 226.992 33.4644C227.814 33.0737 228.664 32.8784 229.543 32.8784H229.812C230.78 32.8784 231.582 33.0697 232.216 33.4521C232.851 33.8346 233.168 34.3026 233.168 34.856C233.168 35.4989 232.859 35.8203 232.241 35.8203C232.127 35.8203 231.728 35.6413 231.044 35.2832C230.361 34.9333 229.799 34.7583 229.36 34.7583C229.352 34.7583 229.344 34.7583 229.335 34.7583C228.375 34.7583 227.622 35.1733 227.077 36.0034C226.54 36.8335 226.271 37.9159 226.271 39.2505C226.271 40.5851 226.556 41.5739 227.126 42.2168C227.704 42.8597 228.505 43.1812 229.531 43.1812C229.954 43.1812 230.536 43.0632 231.276 42.8271C232.017 42.583 232.469 42.4609 232.631 42.4609C232.965 42.4609 233.132 42.6359 233.132 42.9858C233.132 43.4578 232.664 43.9339 231.728 44.4141C230.792 44.8942 229.873 45.1343 228.969 45.1343C226.552 45.1343 224.953 44.1821 224.172 42.2778C223.863 41.521 223.708 40.7357 223.708 39.9219ZM237.917 37.5781V37.7734C237.917 38.0176 238.141 38.1396 238.588 38.1396H238.881L238.955 38.1274L239.553 38.0786C240.179 37.9891 240.586 37.9443 240.773 37.9443C241.66 37.9443 242.328 37.7775 242.775 37.4438C242.987 37.2811 243.093 36.9922 243.093 36.5771V36.4429C243.093 35.8325 242.889 35.3483 242.482 34.9902C242.084 34.6322 241.604 34.4531 241.042 34.4531H240.957L240.883 34.4653C240.094 34.4653 239.402 34.799 238.808 35.4663C238.214 36.1336 237.917 36.8376 237.917 37.5781ZM240.578 45.1587H240.31C238.755 45.1587 237.518 44.6663 236.599 43.6816C235.679 42.6888 235.219 41.3664 235.219 39.7144V39.1772C235.219 38.3879 235.374 37.5863 235.683 36.7725C236.31 35.1449 237.331 34.0218 238.747 33.4033C239.496 33.0697 240.257 32.9028 241.03 32.9028H241.555C242.621 32.9028 243.52 33.2609 244.252 33.9771C244.993 34.6851 245.363 35.6006 245.363 36.7236V36.9678C245.363 37.7653 245.046 38.3309 244.411 38.6646C243.972 38.9006 242.946 39.1366 241.335 39.3726C239.724 39.6086 238.845 39.751 238.698 39.7998C238.21 39.9707 237.966 40.2962 237.966 40.7764C237.966 41.4437 238.251 42.0133 238.82 42.4854C239.39 42.9574 240.155 43.1934 241.115 43.1934C241.563 43.1934 242.173 43.0713 242.946 42.8271C243.719 42.583 244.167 42.4609 244.289 42.4609C244.704 42.4609 244.912 42.64 244.912 42.998C244.912 43.4782 244.444 43.9583 243.508 44.4385C242.572 44.9186 241.595 45.1587 240.578 45.1587ZM250.246 37.5781V37.7734C250.246 38.0176 250.47 38.1396 250.917 38.1396H251.21L251.284 38.1274L251.882 38.0786C252.508 37.9891 252.915 37.9443 253.103 37.9443C253.99 37.9443 254.657 37.7775 255.104 37.4438C255.316 37.2811 255.422 36.9922 255.422 36.5771V36.4429C255.422 35.8325 255.218 35.3483 254.812 34.9902C254.413 34.6322 253.933 34.4531 253.371 34.4531H253.286L253.212 34.4653C252.423 34.4653 251.731 34.799 251.137 35.4663C250.543 36.1336 250.246 36.8376 250.246 37.5781ZM252.907 45.1587H252.639C251.084 45.1587 249.847 44.6663 248.928 43.6816C248.008 42.6888 247.548 41.3664 247.548 39.7144V39.1772C247.548 38.3879 247.703 37.5863 248.012 36.7725C248.639 35.1449 249.66 34.0218 251.076 33.4033C251.825 33.0697 252.586 32.9028 253.359 32.9028H253.884C254.95 32.9028 255.849 33.2609 256.582 33.9771C257.322 34.6851 257.692 35.6006 257.692 36.7236V36.9678C257.692 37.7653 257.375 38.3309 256.74 38.6646C256.301 38.9006 255.275 39.1366 253.664 39.3726C252.053 39.6086 251.174 39.751 251.027 39.7998C250.539 39.9707 250.295 40.2962 250.295 40.7764C250.295 41.4437 250.58 42.0133 251.149 42.4854C251.719 42.9574 252.484 43.1934 253.444 43.1934C253.892 43.1934 254.502 43.0713 255.275 42.8271C256.049 42.583 256.496 42.4609 256.618 42.4609C257.033 42.4609 257.241 42.64 257.241 42.998C257.241 43.4782 256.773 43.9583 255.837 44.4385C254.901 44.9186 253.924 45.1587 252.907 45.1587ZM262.453 39.0796V40.0073C262.453 40.9757 262.673 41.7855 263.112 42.4365C263.56 43.0794 264.085 43.4009 264.687 43.4009H265.029C265.957 43.4009 266.673 43.0306 267.177 42.29C267.69 41.5495 267.946 40.4468 267.946 38.9819C267.963 38.8029 267.971 38.6727 267.971 38.5913L267.995 38.3472L268.007 37.8345V36.9678C268.007 35.3076 267.344 34.4775 266.018 34.4775H265.542C264.679 34.4775 263.946 34.9129 263.344 35.7837C262.75 36.6545 262.453 37.7531 262.453 39.0796ZM260.109 39.6411C260.109 38.7948 260.26 37.9321 260.561 37.0532C260.862 36.1743 261.285 35.4256 261.831 34.8071C262.376 34.1805 262.99 33.7288 263.674 33.4521C264.357 33.1673 265.167 33.0249 266.103 33.0249C267.047 33.0249 267.633 32.854 267.861 32.5122C268.089 32.1623 268.203 31.3932 268.203 30.2051C268.203 29.9854 268.166 29.6924 268.093 29.3262C268.02 28.96 267.983 28.7484 267.983 28.6914C267.983 28.3415 268.133 28.0241 268.435 27.7393C268.736 27.4463 269.13 27.2998 269.619 27.2998H269.863C270.245 27.2998 270.53 27.3893 270.717 27.5684C270.904 27.7474 270.998 28.1217 270.998 28.6914V29.8267L270.974 30.4004C270.965 30.5957 270.961 30.8805 270.961 31.2549C270.961 31.6211 270.9 32.8011 270.778 34.7949C270.656 36.7887 270.595 38.16 270.595 38.9087L270.583 39.2017C270.575 39.397 270.571 39.5841 270.571 39.7632L270.559 40.0439C270.559 40.0439 270.559 40.3613 270.559 40.9961C270.559 41.818 270.624 42.4365 270.754 42.8516C270.884 43.2666 270.949 43.5636 270.949 43.7427C270.949 43.9217 270.847 44.1089 270.644 44.3042C270.441 44.4995 270.123 44.5972 269.692 44.5972C269.269 44.5972 268.858 44.528 268.459 44.3896C268.06 44.2432 267.767 44.1699 267.58 44.1699C267.393 44.1699 267.149 44.2269 266.848 44.3408C265.936 44.6745 265.102 44.8413 264.345 44.8413C264.329 44.8413 264.313 44.8413 264.296 44.8413H264.016C262.787 44.8413 261.826 44.3937 261.135 43.4985C260.451 42.5952 260.109 41.4111 260.109 39.9463V39.6411ZM275.026 38.1885C274.53 37.6839 274.282 36.9759 274.282 36.0645C274.282 35.153 274.689 34.3717 275.502 33.7207C276.316 33.0615 277.325 32.7319 278.53 32.7319H278.847C279.913 32.7319 280.76 32.8825 281.386 33.1836C282.021 33.4847 282.338 33.9364 282.338 34.5386C282.338 35.1326 282.074 35.4297 281.545 35.4297C281.407 35.4297 281.016 35.2669 280.373 34.9414C279.73 34.6077 279.124 34.4409 278.554 34.4409C277.985 34.4409 277.525 34.5711 277.175 34.8315C276.833 35.0838 276.662 35.4338 276.662 35.8813C276.662 36.3289 276.902 36.7196 277.382 37.0532C277.659 37.2485 278.31 37.5578 279.335 37.981C280.369 38.4041 281.105 38.811 281.545 39.2017C282.253 39.8283 282.607 40.6299 282.607 41.6064C282.607 42.583 282.192 43.4212 281.362 44.1211C280.532 44.8128 279.453 45.1587 278.127 45.1587H277.81C276.475 45.1587 275.474 44.9674 274.807 44.585C274.139 44.1943 273.806 43.6898 273.806 43.0713C273.806 42.4447 274.066 42.1313 274.587 42.1313C274.758 42.1313 275.201 42.3511 275.917 42.7905C276.642 43.23 277.35 43.4497 278.042 43.4497C278.741 43.4497 279.266 43.3032 279.616 43.0103C279.966 42.7091 280.141 42.3348 280.141 41.8872C280.141 41.4315 279.921 41.0327 279.482 40.6909C279.246 40.5037 278.57 40.166 277.456 39.6777C276.341 39.1813 275.531 38.6849 275.026 38.1885ZM291.701 39.9219V39.3604C291.701 38.335 291.86 37.4276 292.177 36.6382C292.788 35.1082 293.723 34.0503 294.985 33.4644C295.807 33.0737 296.657 32.8784 297.536 32.8784H297.805C298.773 32.8784 299.575 33.0697 300.209 33.4521C300.844 33.8346 301.162 34.3026 301.162 34.856C301.162 35.4989 300.852 35.8203 300.234 35.8203C300.12 35.8203 299.721 35.6413 299.038 35.2832C298.354 34.9333 297.792 34.7583 297.353 34.7583C297.345 34.7583 297.337 34.7583 297.329 34.7583C296.368 34.7583 295.616 35.1733 295.07 36.0034C294.533 36.8335 294.265 37.9159 294.265 39.2505C294.265 40.5851 294.549 41.5739 295.119 42.2168C295.697 42.8597 296.499 43.1812 297.524 43.1812C297.947 43.1812 298.529 43.0632 299.27 42.8271C300.01 42.583 300.462 42.4609 300.625 42.4609C300.958 42.4609 301.125 42.6359 301.125 42.9858C301.125 43.4578 300.657 43.9339 299.721 44.4141C298.785 44.8942 297.866 45.1343 296.962 45.1343C294.545 45.1343 292.946 44.1821 292.165 42.2778C291.856 41.521 291.701 40.7357 291.701 39.9219ZM303.811 34.0259C303.811 33.5132 304.242 33.2568 305.104 33.2568H305.385C305.922 33.2568 306.285 33.4725 306.472 33.9038C306.659 34.3351 306.752 35.1408 306.752 36.3208L306.606 40.3979C306.606 42.2941 307.285 43.2422 308.645 43.2422C309.141 43.2422 309.617 43.0672 310.073 42.7173C310.528 42.3674 310.866 41.9482 311.086 41.46C311.566 40.3857 311.806 38.4611 311.806 35.686L311.782 35.1489V34.6729C311.782 34.2415 311.879 33.9282 312.075 33.7329C312.27 33.5376 312.612 33.4399 313.1 33.4399C313.588 33.4399 313.91 33.5579 314.064 33.7939C314.219 34.0299 314.296 34.4124 314.296 34.9414L314.272 35.5884L314.223 38.4692C314.223 38.9331 314.252 39.6452 314.309 40.6055C314.366 41.5658 314.427 42.2697 314.492 42.7173C314.557 43.1567 314.589 43.4172 314.589 43.4985C314.589 44.2228 314.056 44.585 312.99 44.585C312.624 44.585 312.258 44.4507 311.892 44.1821C311.534 43.9054 311.277 43.7671 311.123 43.7671C310.976 43.7671 310.724 43.8566 310.366 44.0356C309.348 44.5483 308.482 44.8047 307.766 44.8047H307.46C306.297 44.8047 305.442 44.4466 304.897 43.7305C304.352 43.0143 304.079 41.7244 304.079 39.8608L304.201 36.1621C304.201 35.6982 304.136 35.2547 304.006 34.8315C303.876 34.4084 303.811 34.1398 303.811 34.0259ZM318.532 38.1885C318.036 37.6839 317.788 36.9759 317.788 36.0645C317.788 35.153 318.194 34.3717 319.008 33.7207C319.822 33.0615 320.831 32.7319 322.036 32.7319H322.353C323.419 32.7319 324.265 32.8825 324.892 33.1836C325.527 33.4847 325.844 33.9364 325.844 34.5386C325.844 35.1326 325.58 35.4297 325.051 35.4297C324.912 35.4297 324.522 35.2669 323.879 34.9414C323.236 34.6077 322.63 34.4409 322.06 34.4409C321.49 34.4409 321.031 34.5711 320.681 34.8315C320.339 35.0838 320.168 35.4338 320.168 35.8813C320.168 36.3289 320.408 36.7196 320.888 37.0532C321.165 37.2485 321.816 37.5578 322.841 37.981C323.875 38.4041 324.611 38.811 325.051 39.2017C325.759 39.8283 326.113 40.6299 326.113 41.6064C326.113 42.583 325.698 43.4212 324.868 44.1211C324.038 44.8128 322.959 45.1587 321.633 45.1587H321.315C319.981 45.1587 318.98 44.9674 318.312 44.585C317.645 44.1943 317.312 43.6898 317.312 43.0713C317.312 42.4447 317.572 42.1313 318.093 42.1313C318.264 42.1313 318.707 42.3511 319.423 42.7905C320.148 43.23 320.856 43.4497 321.547 43.4497C322.247 43.4497 322.772 43.3032 323.122 43.0103C323.472 42.7091 323.647 42.3348 323.647 41.8872C323.647 41.4315 323.427 41.0327 322.988 40.6909C322.752 40.5037 322.076 40.166 320.961 39.6777C319.847 39.1813 319.037 38.6849 318.532 38.1885ZM335.109 43.6938C335.109 44.0194 334.91 44.3123 334.511 44.5728C334.121 44.825 333.588 44.9512 332.912 44.9512C331.651 44.9512 330.764 44.4832 330.251 43.5474C329.934 42.9614 329.775 41.5902 329.775 39.4336C329.775 37.277 329.738 36.0238 329.665 35.6738C329.592 35.3239 329.388 34.9821 329.055 34.6484C328.721 34.3148 328.554 34.0584 328.554 33.8794C328.554 33.8143 328.949 33.387 329.738 32.5977C329.909 32.4268 330.08 32.0483 330.251 31.4624C330.43 30.8765 330.556 30.4899 330.629 30.3027C330.874 29.7168 331.195 29.4238 331.594 29.4238H331.789C332.139 29.4238 332.387 29.5581 332.534 29.8267C332.591 29.9325 332.676 30.3149 332.79 30.9741C332.912 31.6252 333.05 32.0443 333.205 32.2314C333.36 32.4186 333.746 32.6261 334.365 32.854C334.991 33.0737 335.305 33.3097 335.305 33.562V33.6963C335.305 34.0218 334.947 34.2985 334.23 34.5264C333.522 34.7461 333.067 35.1001 332.863 35.5884C332.465 36.5731 332.265 38.1763 332.265 40.3979C332.265 41.4396 332.444 42.1476 332.802 42.522C333.022 42.7498 333.461 42.9085 334.121 42.998C334.78 43.0876 335.109 43.3195 335.109 43.6938ZM339.992 39.8486C339.992 40.9147 340.236 41.8018 340.725 42.5098C341.213 43.2178 341.811 43.5718 342.519 43.5718H342.885C343.723 43.5718 344.431 43.1486 345.009 42.3022C345.595 41.4559 345.888 40.3288 345.888 38.9209V38.1152C345.888 37.0247 345.648 36.1336 345.168 35.4419C344.696 34.742 344.086 34.3921 343.337 34.3921H343.093C342.222 34.3921 341.49 34.8234 340.896 35.686C340.31 36.5487 340.017 37.5781 340.017 38.7744L339.992 39.0552V39.8486ZM342.751 45.2319H342.36C340.936 45.2319 339.777 44.7355 338.881 43.7427C337.986 42.7498 337.539 41.342 337.539 39.519L337.551 39.3115C337.551 37.3096 338.08 35.7308 339.138 34.5752C339.691 33.9648 340.322 33.5173 341.03 33.2324C341.746 32.9395 342.425 32.793 343.068 32.793H343.667C344.383 32.793 345.07 32.9517 345.729 33.269C347.618 34.1805 348.562 35.8976 348.562 38.4204V38.6157C348.553 39.4377 348.419 40.2718 348.159 41.1182C347.638 42.7865 346.637 43.9665 345.156 44.6582C344.334 45.0407 343.532 45.2319 342.751 45.2319ZM356.179 33.7085C356.805 33.4725 357.448 33.3545 358.107 33.3545C358.767 33.3545 359.45 33.5498 360.158 33.9404C360.874 34.3311 361.265 34.5264 361.33 34.5264C361.395 34.5264 361.835 34.327 362.648 33.9282C363.462 33.5295 364.195 33.3301 364.846 33.3301C365.505 33.3301 366.046 33.4684 366.469 33.7451C366.901 34.0137 367.226 34.3351 367.446 34.7095C367.861 35.4256 368.068 37.0166 368.068 39.4824C368.068 40.5892 368.076 41.224 368.093 41.3867C368.117 41.5413 368.174 41.8221 368.264 42.229C368.361 42.6278 368.41 42.9574 368.41 43.2178C368.41 43.4701 368.304 43.7345 368.093 44.0112C367.881 44.2879 367.6 44.4263 367.25 44.4263C366.559 44.4263 366.148 44.1455 366.018 43.584C365.92 43.1771 365.806 41.9889 365.676 40.0195C365.554 38.0501 365.419 36.8945 365.273 36.5527C364.98 35.8366 364.357 35.4785 363.405 35.4785C362.795 35.4785 362.319 35.861 361.977 36.626C361.481 37.7246 361.232 39.2871 361.232 41.3135L361.354 43.0713C361.354 43.6898 361.127 44.1577 360.671 44.4751C360.378 44.6785 359.987 44.7803 359.499 44.7803C359.019 44.7803 358.701 44.7314 358.547 44.6338C358.278 44.471 358.144 44.1252 358.144 43.5962C358.144 43.4985 358.221 43.0998 358.376 42.3999C358.539 41.6919 358.62 40.5444 358.62 38.9575C358.62 37.3625 358.502 36.3493 358.266 35.918C358.03 35.4785 357.619 35.2588 357.033 35.2588C356.447 35.2588 355.926 35.4582 355.471 35.8569C355.023 36.2557 354.694 36.6911 354.482 37.1631C354.278 37.6351 354.095 38.7581 353.933 40.5322C353.778 42.3063 353.668 43.3236 353.603 43.584C353.489 44.0316 353.16 44.2554 352.614 44.2554C352.077 44.2554 351.707 44.0967 351.503 43.7793C351.308 43.4538 351.21 43.0591 351.21 42.5952L351.271 42.168L351.503 41.3257C351.601 40.9351 351.658 40.4793 351.674 39.9585C351.796 36.7277 351.89 34.8844 351.955 34.4287C352.02 33.973 352.313 33.7451 352.834 33.7451L354.653 34.0503C355.043 34.0503 355.552 33.9364 356.179 33.7085ZM373.659 37.5781V37.7734C373.659 38.0176 373.883 38.1396 374.331 38.1396H374.624L374.697 38.1274L375.295 38.0786C375.922 37.9891 376.328 37.9443 376.516 37.9443C377.403 37.9443 378.07 37.7775 378.518 37.4438C378.729 37.2811 378.835 36.9922 378.835 36.5771V36.4429C378.835 35.8325 378.632 35.3483 378.225 34.9902C377.826 34.6322 377.346 34.4531 376.784 34.4531H376.699L376.625 34.4653C375.836 34.4653 375.144 34.799 374.55 35.4663C373.956 36.1336 373.659 36.8376 373.659 37.5781ZM376.32 45.1587H376.052C374.497 45.1587 373.26 44.6663 372.341 43.6816C371.421 42.6888 370.961 41.3664 370.961 39.7144V39.1772C370.961 38.3879 371.116 37.5863 371.425 36.7725C372.052 35.1449 373.073 34.0218 374.489 33.4033C375.238 33.0697 375.999 32.9028 376.772 32.9028H377.297C378.363 32.9028 379.262 33.2609 379.995 33.9771C380.735 34.6851 381.105 35.6006 381.105 36.7236V36.9678C381.105 37.7653 380.788 38.3309 380.153 38.6646C379.714 38.9006 378.688 39.1366 377.077 39.3726C375.466 39.6086 374.587 39.751 374.44 39.7998C373.952 39.9707 373.708 40.2962 373.708 40.7764C373.708 41.4437 373.993 42.0133 374.562 42.4854C375.132 42.9574 375.897 43.1934 376.857 43.1934C377.305 43.1934 377.915 43.0713 378.688 42.8271C379.462 42.583 379.909 42.4609 380.031 42.4609C380.446 42.4609 380.654 42.64 380.654 42.998C380.654 43.4782 380.186 43.9583 379.25 44.4385C378.314 44.9186 377.338 45.1587 376.32 45.1587ZM384.536 38.6523V37.7124C384.536 36.5812 384.475 35.7552 384.353 35.2344C384.23 34.7054 384.169 34.3351 384.169 34.1235C384.169 33.6271 384.532 33.3789 385.256 33.3789C385.98 33.3789 386.505 33.5132 386.831 33.7817C386.92 33.855 387.034 33.9974 387.172 34.209C387.319 34.4206 387.449 34.5264 387.563 34.5264C387.587 34.5264 387.941 34.3188 388.625 33.9038C389.309 33.4888 389.895 33.2812 390.383 33.2812H390.566C390.965 33.2812 391.282 33.3789 391.518 33.5742C391.754 33.7614 391.872 33.9933 391.872 34.27V34.4287C391.872 34.7624 391.754 35.0024 391.518 35.1489C391.29 35.2954 390.924 35.3687 390.419 35.3687C389.272 35.3687 388.434 35.7715 387.905 36.5771C387.384 37.3828 387.124 38.807 387.124 40.8496C387.124 41.1426 387.172 41.5942 387.27 42.2046C387.376 42.8149 387.429 43.2747 387.429 43.584C387.429 43.8932 387.262 44.1903 386.928 44.4751C386.595 44.7599 386.171 44.9023 385.659 44.9023H385.244C384.796 44.9023 384.45 44.7965 384.206 44.585C383.97 44.3652 383.852 44.1007 383.852 43.7915C383.852 43.4741 383.909 43.1527 384.023 42.8271C384.332 41.9482 384.487 40.9798 384.487 39.9219C384.519 39.3359 384.536 38.9128 384.536 38.6523ZM402.932 37.5781V37.7734C402.932 38.0176 403.155 38.1396 403.603 38.1396H403.896L403.969 38.1274L404.567 38.0786C405.194 37.9891 405.601 37.9443 405.788 37.9443C406.675 37.9443 407.342 37.7775 407.79 37.4438C408.002 37.2811 408.107 36.9922 408.107 36.5771V36.4429C408.107 35.8325 407.904 35.3483 407.497 34.9902C407.098 34.6322 406.618 34.4531 406.057 34.4531H405.971L405.898 34.4653C405.109 34.4653 404.417 34.799 403.823 35.4663C403.229 36.1336 402.932 36.8376 402.932 37.5781ZM405.593 45.1587H405.324C403.77 45.1587 402.533 44.6663 401.613 43.6816C400.694 42.6888 400.234 41.3664 400.234 39.7144V39.1772C400.234 38.3879 400.389 37.5863 400.698 36.7725C401.324 35.1449 402.346 34.0218 403.762 33.4033C404.51 33.0697 405.271 32.9028 406.044 32.9028H406.569C407.635 32.9028 408.535 33.2609 409.267 33.9771C410.008 34.6851 410.378 35.6006 410.378 36.7236V36.9678C410.378 37.7653 410.061 38.3309 409.426 38.6646C408.986 38.9006 407.961 39.1366 406.35 39.3726C404.738 39.6086 403.859 39.751 403.713 39.7998C403.225 39.9707 402.98 40.2962 402.98 40.7764C402.98 41.4437 403.265 42.0133 403.835 42.4854C404.405 42.9574 405.17 43.1934 406.13 43.1934C406.577 43.1934 407.188 43.0713 407.961 42.8271C408.734 42.583 409.182 42.4609 409.304 42.4609C409.719 42.4609 409.926 42.64 409.926 42.998C409.926 43.4782 409.458 43.9583 408.522 44.4385C407.587 44.9186 406.61 45.1587 405.593 45.1587ZM423 44.1455C423 44.6094 422.3 44.8413 420.9 44.8413C420.29 44.8413 419.838 44.6338 419.545 44.2188C419.529 44.2025 419.448 44.0356 419.301 43.7183C419.155 43.3927 418.854 42.8434 418.398 42.0703C417.95 41.2891 417.666 40.8984 417.543 40.8984C417.332 40.8984 416.848 41.464 416.091 42.5952C415.839 42.9696 415.619 43.3765 415.432 43.8159C415.253 44.2472 415.053 44.5605 414.833 44.7559C414.614 44.9512 414.227 45.0488 413.674 45.0488C412.787 45.0488 412.343 44.8291 412.343 44.3896C412.343 44.1048 412.563 43.7427 413.002 43.3032C413.45 42.8556 413.865 42.3755 414.248 41.8628C415.468 40.2189 416.079 39.2342 416.079 38.9087C416.079 38.575 415.574 37.6758 414.565 36.2109C414.239 35.7389 413.865 35.2954 413.442 34.8804C413.027 34.4572 412.819 34.0951 412.819 33.7939C412.819 33.3626 413.531 33.147 414.956 33.147C415.468 33.147 415.871 33.3097 416.164 33.6353C416.262 33.7492 416.376 33.9608 416.506 34.27C416.636 34.5793 416.791 34.9048 416.97 35.2466C417.556 36.3615 417.942 36.9189 418.129 36.9189C418.39 36.9189 418.878 36.3411 419.594 35.1855C419.822 34.8193 420.005 34.4572 420.144 34.0991C420.29 33.741 420.424 33.505 420.546 33.3911C420.799 33.147 421.279 33.0249 421.987 33.0249C422.695 33.0249 423.049 33.1795 423.049 33.4888V33.6841C423.049 33.7085 422.459 34.4735 421.279 35.979C420.107 37.4845 419.521 38.4448 419.521 38.8599C419.521 39.2668 420.083 40.2637 421.206 41.8506C421.531 42.3063 421.91 42.7417 422.341 43.1567C422.78 43.5636 423 43.8932 423 44.1455ZM434.157 37.9565C434.157 36.8742 433.929 36.0278 433.474 35.4175C433.026 34.799 432.489 34.4897 431.862 34.4897H431.508C430.629 34.4897 429.934 34.8397 429.421 35.5396C428.908 36.2313 428.652 37.2526 428.652 38.6035L428.627 38.8477L428.579 40.1172V40.9717C428.579 41.8587 428.758 42.4854 429.116 42.8516C429.482 43.2096 429.999 43.3887 430.666 43.3887H430.898C431.818 43.3887 432.587 42.9655 433.205 42.1191C433.824 41.2728 434.133 40.2433 434.133 39.0308L434.157 38.7622V37.9565ZM427.517 33.3667L429.226 33.6597C429.405 33.6597 429.824 33.5417 430.483 33.3057C431.142 33.0697 431.789 32.9517 432.424 32.9517C433.71 32.9517 434.751 33.4033 435.549 34.3066C436.346 35.2018 436.745 36.4103 436.745 37.9321V38.2373C436.745 39.2627 436.574 40.2067 436.232 41.0693C435.533 42.8516 434.365 44.0031 432.729 44.5239C432.265 44.6704 431.643 44.7721 430.861 44.8291C430.088 44.8861 429.539 44.9878 429.213 45.1343C428.717 45.3621 428.469 45.7731 428.469 46.3672C428.469 46.6195 428.514 46.9613 428.603 47.3926C428.701 47.8239 428.75 48.2227 428.75 48.5889C428.75 48.9551 428.542 49.3132 428.127 49.6631C427.712 50.0212 427.195 50.2002 426.577 50.2002H426.32C425.588 50.2002 425.222 49.9316 425.222 49.3945V49.1626C425.222 49.0487 425.299 48.7272 425.454 48.1982C425.616 47.6774 425.73 47.1159 425.795 46.5137C425.861 45.9196 425.966 44.4344 426.113 42.0581C426.259 39.6818 426.333 38.0583 426.333 37.1875C426.333 36.3086 426.276 35.5721 426.162 34.978C426.056 34.384 426.003 34.0625 426.003 34.0137C426.003 33.5824 426.507 33.3667 427.517 33.3667ZM441.506 37.5781V37.7734C441.506 38.0176 441.73 38.1396 442.177 38.1396H442.47L442.543 38.1274L443.142 38.0786C443.768 37.9891 444.175 37.9443 444.362 37.9443C445.249 37.9443 445.917 37.7775 446.364 37.4438C446.576 37.2811 446.682 36.9922 446.682 36.5771V36.4429C446.682 35.8325 446.478 35.3483 446.071 34.9902C445.673 34.6322 445.192 34.4531 444.631 34.4531H444.545L444.472 34.4653C443.683 34.4653 442.991 34.799 442.397 35.4663C441.803 36.1336 441.506 36.8376 441.506 37.5781ZM444.167 45.1587H443.898C442.344 45.1587 441.107 44.6663 440.188 43.6816C439.268 42.6888 438.808 41.3664 438.808 39.7144V39.1772C438.808 38.3879 438.963 37.5863 439.272 36.7725C439.899 35.1449 440.92 34.0218 442.336 33.4033C443.085 33.0697 443.846 32.9028 444.619 32.9028H445.144C446.21 32.9028 447.109 33.2609 447.841 33.9771C448.582 34.6851 448.952 35.6006 448.952 36.7236V36.9678C448.952 37.7653 448.635 38.3309 448 38.6646C447.561 38.9006 446.535 39.1366 444.924 39.3726C443.312 39.6086 442.434 39.751 442.287 39.7998C441.799 39.9707 441.555 40.2962 441.555 40.7764C441.555 41.4437 441.84 42.0133 442.409 42.4854C442.979 42.9574 443.744 43.1934 444.704 43.1934C445.152 43.1934 445.762 43.0713 446.535 42.8271C447.308 42.583 447.756 42.4609 447.878 42.4609C448.293 42.4609 448.5 42.64 448.5 42.998C448.5 43.4782 448.033 43.9583 447.097 44.4385C446.161 44.9186 445.184 45.1587 444.167 45.1587ZM451.223 39.9219V39.3604C451.223 38.335 451.381 37.4276 451.699 36.6382C452.309 35.1082 453.245 34.0503 454.506 33.4644C455.328 33.0737 456.179 32.8784 457.058 32.8784H457.326C458.295 32.8784 459.096 33.0697 459.731 33.4521C460.366 33.8346 460.683 34.3026 460.683 34.856C460.683 35.4989 460.374 35.8203 459.755 35.8203C459.641 35.8203 459.243 35.6413 458.559 35.2832C457.875 34.9333 457.314 34.7583 456.875 34.7583C456.866 34.7583 456.858 34.7583 456.85 34.7583C455.89 34.7583 455.137 35.1733 454.592 36.0034C454.055 36.8335 453.786 37.9159 453.786 39.2505C453.786 40.5851 454.071 41.5739 454.641 42.2168C455.218 42.8597 456.02 43.1812 457.045 43.1812C457.469 43.1812 458.05 43.0632 458.791 42.8271C459.532 42.583 459.983 42.4609 460.146 42.4609C460.48 42.4609 460.646 42.6359 460.646 42.9858C460.646 43.4578 460.179 43.9339 459.243 44.4141C458.307 44.8942 457.387 45.1343 456.484 45.1343C454.067 45.1343 452.468 44.1821 451.687 42.2778C451.377 41.521 451.223 40.7357 451.223 39.9219ZM469.631 43.6938C469.631 44.0194 469.431 44.3123 469.033 44.5728C468.642 44.825 468.109 44.9512 467.434 44.9512C466.172 44.9512 465.285 44.4832 464.772 43.5474C464.455 42.9614 464.296 41.5902 464.296 39.4336C464.296 37.277 464.26 36.0238 464.187 35.6738C464.113 35.3239 463.91 34.9821 463.576 34.6484C463.243 34.3148 463.076 34.0584 463.076 33.8794C463.076 33.8143 463.47 33.387 464.26 32.5977C464.431 32.4268 464.602 32.0483 464.772 31.4624C464.951 30.8765 465.078 30.4899 465.151 30.3027C465.395 29.7168 465.716 29.4238 466.115 29.4238H466.311C466.66 29.4238 466.909 29.5581 467.055 29.8267C467.112 29.9325 467.198 30.3149 467.312 30.9741C467.434 31.6252 467.572 32.0443 467.727 32.2314C467.881 32.4186 468.268 32.6261 468.886 32.854C469.513 33.0737 469.826 33.3097 469.826 33.562V33.6963C469.826 34.0218 469.468 34.2985 468.752 34.5264C468.044 34.7461 467.588 35.1001 467.385 35.5884C466.986 36.5731 466.787 38.1763 466.787 40.3979C466.787 41.4396 466.966 42.1476 467.324 42.522C467.543 42.7498 467.983 42.9085 468.642 42.998C469.301 43.0876 469.631 43.3195 469.631 43.6938ZM476.284 43.4619H476.601C477.268 43.4619 477.854 43.2381 478.359 42.7905C478.872 42.3348 479.128 41.8099 479.128 41.2158L479.152 41.0571V40.8984L479.177 40.52V39.8242C479.177 39.3522 478.937 39.1162 478.457 39.1162H477.907L477.822 39.1284L477.346 39.165C477.118 39.1976 476.955 39.2139 476.857 39.2139C476.198 39.2139 475.588 39.4621 475.026 39.9585C474.636 40.3084 474.44 40.8049 474.44 41.4478V41.6919C474.44 42.2371 474.615 42.6685 474.965 42.9858C475.323 43.3032 475.763 43.4619 476.284 43.4619ZM473.562 35.6616C473.016 35.6616 472.744 35.3117 472.744 34.6118C472.744 34.091 473.183 33.6393 474.062 33.2568C474.949 32.8662 475.869 32.6709 476.821 32.6709H477.431C478.253 32.6709 478.977 32.8255 479.604 33.1348C480.231 33.4359 480.707 33.8468 481.032 34.3677C481.366 34.8885 481.569 35.568 481.643 36.4062C481.659 36.6016 481.667 37.5496 481.667 39.2505C481.667 40.9513 481.687 41.932 481.728 42.1924C481.777 42.4447 481.907 42.7539 482.119 43.1201C482.338 43.4863 482.448 43.7874 482.448 44.0234C482.448 44.2594 482.334 44.4629 482.106 44.6338C481.887 44.7965 481.565 44.8779 481.142 44.8779C480.719 44.8779 480.259 44.7762 479.763 44.5728C479.266 44.3612 478.904 44.2554 478.676 44.2554C478.652 44.2554 478.245 44.4019 477.456 44.6948C476.666 44.9797 475.999 45.1221 475.454 45.1221H475.185C474.274 45.1221 473.496 44.8332 472.854 44.2554C472.219 43.6776 471.901 42.8556 471.901 41.7896C471.901 40.7235 472.251 39.8934 472.951 39.2993C473.651 38.6971 474.501 38.2861 475.502 38.0664C475.804 38.0013 476.304 37.9159 477.004 37.8101C477.704 37.7043 478.18 37.5944 478.432 37.4805C478.872 37.277 479.091 36.8945 479.091 36.333C479.091 35.7633 478.904 35.3198 478.53 35.0024C478.155 34.6769 477.708 34.5142 477.187 34.5142C476.674 34.5142 475.999 34.7054 475.161 35.0879C474.322 35.4704 473.789 35.6616 473.562 35.6616ZM491.628 43.6938C491.628 44.0194 491.429 44.3123 491.03 44.5728C490.639 44.825 490.106 44.9512 489.431 44.9512C488.169 44.9512 487.282 44.4832 486.77 43.5474C486.452 42.9614 486.293 41.5902 486.293 39.4336C486.293 37.277 486.257 36.0238 486.184 35.6738C486.11 35.3239 485.907 34.9821 485.573 34.6484C485.24 34.3148 485.073 34.0584 485.073 33.8794C485.073 33.8143 485.467 33.387 486.257 32.5977C486.428 32.4268 486.599 32.0483 486.77 31.4624C486.949 30.8765 487.075 30.4899 487.148 30.3027C487.392 29.7168 487.714 29.4238 488.112 29.4238H488.308C488.658 29.4238 488.906 29.5581 489.052 29.8267C489.109 29.9325 489.195 30.3149 489.309 30.9741C489.431 31.6252 489.569 32.0443 489.724 32.2314C489.878 32.4186 490.265 32.6261 490.883 32.854C491.51 33.0737 491.823 33.3097 491.823 33.562V33.6963C491.823 34.0218 491.465 34.2985 490.749 34.5264C490.041 34.7461 489.585 35.1001 489.382 35.5884C488.983 36.5731 488.784 38.1763 488.784 40.3979C488.784 41.4396 488.963 42.1476 489.321 42.522C489.541 42.7498 489.98 42.9085 490.639 42.998C491.298 43.0876 491.628 43.3195 491.628 43.6938ZM498.403 29.1309V29.2773C498.403 29.6924 498.281 30.0464 498.037 30.3394C497.801 30.6242 497.434 30.7666 496.938 30.7666H496.743L496.364 30.7178C496.145 30.7178 495.933 30.616 495.729 30.4126C495.526 30.2091 495.424 29.904 495.424 29.4971V29.3506L495.485 28.9111C495.485 28.7402 495.587 28.5286 495.791 28.2764C496.002 28.0241 496.271 27.8979 496.596 27.8979L496.877 27.8613H497.121L497.463 27.9102C497.674 27.9102 497.882 28.016 498.085 28.2275C498.297 28.431 498.403 28.7321 498.403 29.1309ZM497.829 34.2822L497.695 37.5659L497.67 37.8955L497.634 38.8965V39.3726C497.634 40.5444 497.666 41.3135 497.731 41.6797C497.805 42.0459 497.939 42.404 498.134 42.7539C498.33 43.0957 498.427 43.3439 498.427 43.4985V43.6084C498.427 44.0072 498.224 44.3245 497.817 44.5605C497.41 44.7965 496.857 44.9146 496.157 44.9146H495.852C495.445 44.9146 495.135 44.825 494.924 44.646C494.712 44.4588 494.606 44.2594 494.606 44.0479V43.7793C494.606 43.6735 494.7 43.2992 494.887 42.6562C495.074 42.0052 495.168 41.1222 495.168 40.0073C495.192 39.6899 495.205 39.4702 495.205 39.3481L495.241 38.6768L495.266 38.3472C495.306 37.7775 495.327 37.334 495.327 37.0166L495.339 36.5283C495.339 35.918 495.237 35.3768 495.034 34.9048C494.838 34.4328 494.741 34.1398 494.741 34.0259C494.741 33.4399 495.294 33.147 496.401 33.147H496.84C497.255 33.147 497.524 33.2568 497.646 33.4766C497.768 33.6882 497.829 33.9567 497.829 34.2822ZM503.566 39.8486C503.566 40.9147 503.811 41.8018 504.299 42.5098C504.787 43.2178 505.385 43.5718 506.093 43.5718H506.459C507.298 43.5718 508.006 43.1486 508.583 42.3022C509.169 41.4559 509.462 40.3288 509.462 38.9209V38.1152C509.462 37.0247 509.222 36.1336 508.742 35.4419C508.27 34.742 507.66 34.3921 506.911 34.3921H506.667C505.796 34.3921 505.064 34.8234 504.47 35.686C503.884 36.5487 503.591 37.5781 503.591 38.7744L503.566 39.0552V39.8486ZM506.325 45.2319H505.935C504.51 45.2319 503.351 44.7355 502.456 43.7427C501.56 42.7498 501.113 41.342 501.113 39.519L501.125 39.3115C501.125 37.3096 501.654 35.7308 502.712 34.5752C503.265 33.9648 503.896 33.5173 504.604 33.2324C505.32 32.9395 506 32.793 506.643 32.793H507.241C507.957 32.793 508.645 32.9517 509.304 33.269C511.192 34.1805 512.136 35.8976 512.136 38.4204V38.6157C512.128 39.4377 511.993 40.2718 511.733 41.1182C511.212 42.7865 510.211 43.9665 508.73 44.6582C507.908 45.0407 507.106 45.2319 506.325 45.2319ZM525.869 43.5352C525.869 44.1374 525.344 44.4385 524.294 44.4385C523.7 44.4385 523.301 44.2961 523.098 44.0112C523 43.8729 522.951 43.5474 522.951 43.0347L522.915 42.2534C522.858 41.3989 522.829 40.5404 522.829 39.6777C522.829 37.8141 522.666 36.5649 522.341 35.9302C522.023 35.2873 521.486 34.9658 520.729 34.9658C520.225 34.9658 519.757 35.1164 519.326 35.4175C518.903 35.7186 518.577 36.1377 518.349 36.6748C517.877 37.7734 517.641 39.8039 517.641 42.7661C517.641 43.4416 517.511 43.9176 517.25 44.1943C516.998 44.471 516.673 44.6094 516.274 44.6094H516.03C515.118 44.6094 514.663 44.2472 514.663 43.5229V43.23C514.663 43.1405 514.711 42.9451 514.809 42.644L515.004 42.0825C515.2 41.4233 515.297 40.0114 515.297 37.8467L515.358 34.2212C515.358 33.7573 515.611 33.5254 516.115 33.5254C516.62 33.5254 517.116 33.6922 517.604 34.0259C518.101 34.3595 518.414 34.5264 518.544 34.5264C518.683 34.5264 518.923 34.4328 519.265 34.2456C520.412 33.619 521.332 33.3057 522.023 33.3057H522.341C523.586 33.3057 524.461 33.8672 524.965 34.9902C525.209 35.5192 525.332 36.6585 525.332 38.4082V38.4937C525.332 38.6401 525.327 38.7866 525.319 38.9331C525.319 39.3319 525.319 39.5394 525.319 39.5557C525.319 39.7103 525.319 39.8608 525.319 40.0073C525.319 40.1213 525.319 40.2311 525.319 40.3369C525.319 40.9635 525.34 41.3908 525.38 41.6187C525.437 41.9279 525.531 42.2493 525.661 42.583C525.799 42.9492 525.869 43.2666 525.869 43.5352ZM529.616 38.1885C529.12 37.6839 528.872 36.9759 528.872 36.0645C528.872 35.153 529.278 34.3717 530.092 33.7207C530.906 33.0615 531.915 32.7319 533.12 32.7319H533.437C534.503 32.7319 535.349 32.8825 535.976 33.1836C536.611 33.4847 536.928 33.9364 536.928 34.5386C536.928 35.1326 536.664 35.4297 536.135 35.4297C535.996 35.4297 535.606 35.2669 534.963 34.9414C534.32 34.6077 533.714 34.4409 533.144 34.4409C532.574 34.4409 532.115 34.5711 531.765 34.8315C531.423 35.0838 531.252 35.4338 531.252 35.8813C531.252 36.3289 531.492 36.7196 531.972 37.0532C532.249 37.2485 532.9 37.5578 533.925 37.981C534.959 38.4041 535.695 38.811 536.135 39.2017C536.843 39.8283 537.197 40.6299 537.197 41.6064C537.197 42.583 536.782 43.4212 535.952 44.1211C535.122 44.8128 534.043 45.1587 532.717 45.1587H532.399C531.065 45.1587 530.064 44.9674 529.396 44.585C528.729 44.1943 528.396 43.6898 528.396 43.0713C528.396 42.4447 528.656 42.1313 529.177 42.1313C529.348 42.1313 529.791 42.3511 530.507 42.7905C531.232 43.23 531.94 43.4497 532.631 43.4497C533.331 43.4497 533.856 43.3032 534.206 43.0103C534.556 42.7091 534.731 42.3348 534.731 41.8872C534.731 41.4315 534.511 41.0327 534.072 40.6909C533.836 40.5037 533.16 40.166 532.045 39.6777C530.931 39.1813 530.121 38.6849 529.616 38.1885ZM541.53 45.1953H541.152C540.745 45.1953 540.428 45.1017 540.2 44.9146C539.98 44.7274 539.87 44.4792 539.87 44.1699C539.854 44.1048 539.846 44.0519 539.846 44.0112L539.821 43.8037V43.584L539.833 43.5352V43.4253C539.85 43.3602 539.858 43.3073 539.858 43.2666C539.858 42.9004 539.98 42.6156 540.224 42.4121C540.476 42.2005 540.753 42.0947 541.054 42.0947L541.311 42.0581H541.64C542.527 42.0581 542.971 42.522 542.971 43.4497V43.6206L542.922 44.0356C542.922 44.41 542.779 44.6989 542.495 44.9023C542.218 45.0977 541.896 45.1953 541.53 45.1953ZM556.85 32.2559C556.793 33.1104 556.765 33.7451 556.765 34.1602L556.74 34.5508L556.704 35.7104L556.679 36.1011L556.63 37.4561C556.614 37.7165 556.606 37.9118 556.606 38.042L556.582 38.4326C556.565 38.693 556.557 38.8843 556.557 39.0063L556.533 39.3848C556.525 39.515 556.521 39.6452 556.521 39.7754L556.496 40.1538L556.459 41.4844V42.2168C556.459 42.6074 556.606 42.8719 556.899 43.0103C557.192 43.1405 557.619 43.2056 558.181 43.2056H558.73C560.472 43.2056 561.847 42.5586 562.856 41.2646C563.295 40.7031 563.653 39.9626 563.93 39.043C564.207 38.1234 564.345 37.0898 564.345 35.9424V35.7349C564.345 32.7319 563.361 30.7869 561.391 29.8999C560.805 29.6395 560.146 29.5093 559.414 29.5093H558.852C557.941 29.5093 557.379 29.6558 557.167 29.9487C556.956 30.2336 556.85 31.0026 556.85 32.2559ZM553.823 28.8257C553.823 28.4351 554.083 28.1909 554.604 28.0933C555.532 27.9224 556.883 27.8369 558.657 27.8369H559.243C563.035 27.8369 565.501 29.2855 566.64 32.1826C567.039 33.1917 567.238 34.327 567.238 35.5884V35.6616V35.9668C567.238 37.277 567.006 38.571 566.542 39.8486C566.079 41.1182 565.399 42.1354 564.504 42.9004C563.617 43.6654 562.657 44.2065 561.623 44.5239C560.59 44.8332 559.243 44.9878 557.583 44.9878H557.302L557.009 44.9756C555.235 44.9756 554.095 44.8942 553.591 44.7314C553.322 44.6419 553.188 44.4466 553.188 44.1455C553.188 44.056 553.294 43.7793 553.505 43.3154C553.888 42.4772 554.079 40.9676 554.079 38.7866L554.226 35.0879L554.25 34.5264L554.287 32.5854C554.287 31.4299 554.27 30.7218 554.238 30.4614C554.205 30.201 554.128 29.8918 554.006 29.5337C553.884 29.1756 553.823 28.9396 553.823 28.8257ZM572.146 37.5781V37.7734C572.146 38.0176 572.369 38.1396 572.817 38.1396H573.11L573.183 38.1274L573.781 38.0786C574.408 37.9891 574.815 37.9443 575.002 37.9443C575.889 37.9443 576.556 37.7775 577.004 37.4438C577.215 37.2811 577.321 36.9922 577.321 36.5771V36.4429C577.321 35.8325 577.118 35.3483 576.711 34.9902C576.312 34.6322 575.832 34.4531 575.271 34.4531H575.185L575.112 34.4653C574.322 34.4653 573.631 34.799 573.037 35.4663C572.443 36.1336 572.146 36.8376 572.146 37.5781ZM574.807 45.1587H574.538C572.984 45.1587 571.747 44.6663 570.827 43.6816C569.908 42.6888 569.448 41.3664 569.448 39.7144V39.1772C569.448 38.3879 569.602 37.5863 569.912 36.7725C570.538 35.1449 571.56 34.0218 572.976 33.4033C573.724 33.0697 574.485 32.9028 575.258 32.9028H575.783C576.849 32.9028 577.749 33.2609 578.481 33.9771C579.222 34.6851 579.592 35.6006 579.592 36.7236V36.9678C579.592 37.7653 579.274 38.3309 578.64 38.6646C578.2 38.9006 577.175 39.1366 575.563 39.3726C573.952 39.6086 573.073 39.751 572.927 39.7998C572.438 39.9707 572.194 40.2962 572.194 40.7764C572.194 41.4437 572.479 42.0133 573.049 42.4854C573.618 42.9574 574.383 43.1934 575.344 43.1934C575.791 43.1934 576.402 43.0713 577.175 42.8271C577.948 42.583 578.396 42.4609 578.518 42.4609C578.933 42.4609 579.14 42.64 579.14 42.998C579.14 43.4782 578.672 43.9583 577.736 44.4385C576.8 44.9186 575.824 45.1587 574.807 45.1587ZM589.504 37.5659V38.0054C589.504 38.575 589.357 38.8924 589.064 38.9575C588.78 39.0226 587.644 39.0552 585.659 39.0552H585.39L585.109 39.0674H584.572L584.487 39.0796H583.767L583.4 39.0918H582.863C582.416 39.0918 582.192 38.8802 582.192 38.457V38.3716L582.204 38.2861C582.204 37.6595 582.375 37.3055 582.717 37.2241C582.928 37.1753 584.007 37.1509 585.952 37.1509L588.039 37.1143H588.93C589.313 37.1143 589.504 37.2648 589.504 37.5659ZM594.484 37.5781V37.7734C594.484 38.0176 594.708 38.1396 595.156 38.1396H595.449L595.522 38.1274L596.12 38.0786C596.747 37.9891 597.154 37.9443 597.341 37.9443C598.228 37.9443 598.895 37.7775 599.343 37.4438C599.554 37.2811 599.66 36.9922 599.66 36.5771V36.4429C599.66 35.8325 599.457 35.3483 599.05 34.9902C598.651 34.6322 598.171 34.4531 597.609 34.4531H597.524L597.451 34.4653C596.661 34.4653 595.97 34.799 595.375 35.4663C594.781 36.1336 594.484 36.8376 594.484 37.5781ZM597.146 45.1587H596.877C595.323 45.1587 594.086 44.6663 593.166 43.6816C592.246 42.6888 591.787 41.3664 591.787 39.7144V39.1772C591.787 38.3879 591.941 37.5863 592.25 36.7725C592.877 35.1449 593.898 34.0218 595.314 33.4033C596.063 33.0697 596.824 32.9028 597.597 32.9028H598.122C599.188 32.9028 600.087 33.2609 600.82 33.9771C601.56 34.6851 601.931 35.6006 601.931 36.7236V36.9678C601.931 37.7653 601.613 38.3309 600.979 38.6646C600.539 38.9006 599.514 39.1366 597.902 39.3726C596.291 39.6086 595.412 39.751 595.266 39.7998C594.777 39.9707 594.533 40.2962 594.533 40.7764C594.533 41.4437 594.818 42.0133 595.388 42.4854C595.957 42.9574 596.722 43.1934 597.683 43.1934C598.13 43.1934 598.741 43.0713 599.514 42.8271C600.287 42.583 600.734 42.4609 600.856 42.4609C601.271 42.4609 601.479 42.64 601.479 42.998C601.479 43.4782 601.011 43.9583 600.075 44.4385C599.139 44.9186 598.163 45.1587 597.146 45.1587ZM605.446 38.1885C604.95 37.6839 604.702 36.9759 604.702 36.0645C604.702 35.153 605.109 34.3717 605.922 33.7207C606.736 33.0615 607.745 32.7319 608.95 32.7319H609.267C610.333 32.7319 611.18 32.8825 611.806 33.1836C612.441 33.4847 612.758 33.9364 612.758 34.5386C612.758 35.1326 612.494 35.4297 611.965 35.4297C611.826 35.4297 611.436 35.2669 610.793 34.9414C610.15 34.6077 609.544 34.4409 608.974 34.4409C608.404 34.4409 607.945 34.5711 607.595 34.8315C607.253 35.0838 607.082 35.4338 607.082 35.8813C607.082 36.3289 607.322 36.7196 607.802 37.0532C608.079 37.2485 608.73 37.5578 609.755 37.981C610.789 38.4041 611.525 38.811 611.965 39.2017C612.673 39.8283 613.027 40.6299 613.027 41.6064C613.027 42.583 612.612 43.4212 611.782 44.1211C610.952 44.8128 609.873 45.1587 608.547 45.1587H608.229C606.895 45.1587 605.894 44.9674 605.227 44.585C604.559 44.1943 604.226 43.6898 604.226 43.0713C604.226 42.4447 604.486 42.1313 605.007 42.1313C605.178 42.1313 605.621 42.3511 606.337 42.7905C607.062 43.23 607.77 43.4497 608.461 43.4497C609.161 43.4497 609.686 43.3032 610.036 43.0103C610.386 42.7091 610.561 42.3348 610.561 41.8872C610.561 41.4315 610.341 41.0327 609.902 40.6909C609.666 40.5037 608.99 40.166 607.875 39.6777C606.761 39.1813 605.951 38.6849 605.446 38.1885ZM615.261 39.9219V39.3604C615.261 38.335 615.419 37.4276 615.737 36.6382C616.347 35.1082 617.283 34.0503 618.544 33.4644C619.366 33.0737 620.217 32.8784 621.096 32.8784H621.364C622.333 32.8784 623.134 33.0697 623.769 33.4521C624.404 33.8346 624.721 34.3026 624.721 34.856C624.721 35.4989 624.412 35.8203 623.793 35.8203C623.68 35.8203 623.281 35.6413 622.597 35.2832C621.914 34.9333 621.352 34.7583 620.913 34.7583C620.904 34.7583 620.896 34.7583 620.888 34.7583C619.928 34.7583 619.175 35.1733 618.63 36.0034C618.093 36.8335 617.824 37.9159 617.824 39.2505C617.824 40.5851 618.109 41.5739 618.679 42.2168C619.257 42.8597 620.058 43.1812 621.083 43.1812C621.507 43.1812 622.089 43.0632 622.829 42.8271C623.57 42.583 624.021 42.4609 624.184 42.4609C624.518 42.4609 624.685 42.6359 624.685 42.9858C624.685 43.4578 624.217 43.9339 623.281 44.4141C622.345 44.8942 621.425 45.1343 620.522 45.1343C618.105 45.1343 616.506 44.1821 615.725 42.2778C615.415 41.521 615.261 40.7357 615.261 39.9219ZM631.191 43.4619H631.508C632.176 43.4619 632.762 43.2381 633.266 42.7905C633.779 42.3348 634.035 41.8099 634.035 41.2158L634.06 41.0571V40.8984L634.084 40.52V39.8242C634.084 39.3522 633.844 39.1162 633.364 39.1162H632.814L632.729 39.1284L632.253 39.165C632.025 39.1976 631.862 39.2139 631.765 39.2139C631.105 39.2139 630.495 39.4621 629.934 39.9585C629.543 40.3084 629.348 40.8049 629.348 41.4478V41.6919C629.348 42.2371 629.523 42.6685 629.873 42.9858C630.231 43.3032 630.67 43.4619 631.191 43.4619ZM628.469 35.6616C627.924 35.6616 627.651 35.3117 627.651 34.6118C627.651 34.091 628.09 33.6393 628.969 33.2568C629.856 32.8662 630.776 32.6709 631.728 32.6709H632.338C633.16 32.6709 633.885 32.8255 634.511 33.1348C635.138 33.4359 635.614 33.8468 635.939 34.3677C636.273 34.8885 636.477 35.568 636.55 36.4062C636.566 36.6016 636.574 37.5496 636.574 39.2505C636.574 40.9513 636.595 41.932 636.635 42.1924C636.684 42.4447 636.814 42.7539 637.026 43.1201C637.246 43.4863 637.355 43.7874 637.355 44.0234C637.355 44.2594 637.242 44.4629 637.014 44.6338C636.794 44.7965 636.472 44.8779 636.049 44.8779C635.626 44.8779 635.166 44.7762 634.67 44.5728C634.174 44.3612 633.811 44.2554 633.583 44.2554C633.559 44.2554 633.152 44.4019 632.363 44.6948C631.573 44.9797 630.906 45.1221 630.361 45.1221H630.092C629.181 45.1221 628.404 44.8332 627.761 44.2554C627.126 43.6776 626.809 42.8556 626.809 41.7896C626.809 40.7235 627.159 39.8934 627.858 39.2993C628.558 38.6971 629.409 38.2861 630.41 38.0664C630.711 38.0013 631.211 37.9159 631.911 37.8101C632.611 37.7043 633.087 37.5944 633.339 37.4805C633.779 37.277 633.999 36.8945 633.999 36.333C633.999 35.7633 633.811 35.3198 633.437 35.0024C633.063 34.6769 632.615 34.5142 632.094 34.5142C631.582 34.5142 630.906 34.7054 630.068 35.0879C629.23 35.4704 628.697 35.6616 628.469 35.6616ZM640.883 28.0322C640.883 27.4382 641.441 27.1411 642.556 27.1411H642.775C643.239 27.1411 643.557 27.255 643.728 27.4829C643.898 27.7026 643.984 28.134 643.984 28.7769L643.886 30.5957C643.862 30.8805 643.85 31.0352 643.85 31.0596L643.825 31.5234C643.809 31.8245 643.793 32.1297 643.776 32.439L643.74 32.9028L643.703 33.5986C643.573 36.0726 643.508 37.8996 643.508 39.0796C643.508 40.2515 643.561 41.0938 643.667 41.6064C643.772 42.1191 643.939 42.5545 644.167 42.9126C644.395 43.2707 644.509 43.5067 644.509 43.6206V43.7671C644.509 44.1252 644.33 44.41 643.972 44.6216C643.622 44.8332 643.146 44.939 642.543 44.939H641.909C641.534 44.939 641.205 44.8332 640.92 44.6216C640.643 44.4019 640.505 44.1536 640.505 43.877V43.5474L640.578 43.0347C640.676 42.3267 640.733 41.7977 640.749 41.4478C640.773 41.0897 640.81 40.5973 640.859 39.9707C640.908 39.3359 640.985 37.9891 641.091 35.9302C641.205 33.8631 641.262 32.7523 641.262 32.5977L641.311 31.6821L641.335 30.7788C641.335 29.9162 641.258 29.3018 641.103 28.9355C640.957 28.5612 640.883 28.2601 640.883 28.0322ZM651.284 43.4619H651.601C652.268 43.4619 652.854 43.2381 653.359 42.7905C653.872 42.3348 654.128 41.8099 654.128 41.2158L654.152 41.0571V40.8984L654.177 40.52V39.8242C654.177 39.3522 653.937 39.1162 653.457 39.1162H652.907L652.822 39.1284L652.346 39.165C652.118 39.1976 651.955 39.2139 651.857 39.2139C651.198 39.2139 650.588 39.4621 650.026 39.9585C649.636 40.3084 649.44 40.8049 649.44 41.4478V41.6919C649.44 42.2371 649.615 42.6685 649.965 42.9858C650.323 43.3032 650.763 43.4619 651.284 43.4619ZM648.562 35.6616C648.016 35.6616 647.744 35.3117 647.744 34.6118C647.744 34.091 648.183 33.6393 649.062 33.2568C649.949 32.8662 650.869 32.6709 651.821 32.6709H652.431C653.253 32.6709 653.977 32.8255 654.604 33.1348C655.231 33.4359 655.707 33.8468 656.032 34.3677C656.366 34.8885 656.569 35.568 656.643 36.4062C656.659 36.6016 656.667 37.5496 656.667 39.2505C656.667 40.9513 656.687 41.932 656.728 42.1924C656.777 42.4447 656.907 42.7539 657.119 43.1201C657.338 43.4863 657.448 43.7874 657.448 44.0234C657.448 44.2594 657.334 44.4629 657.106 44.6338C656.887 44.7965 656.565 44.8779 656.142 44.8779C655.719 44.8779 655.259 44.7762 654.763 44.5728C654.266 44.3612 653.904 44.2554 653.676 44.2554C653.652 44.2554 653.245 44.4019 652.456 44.6948C651.666 44.9797 650.999 45.1221 650.454 45.1221H650.185C649.274 45.1221 648.496 44.8332 647.854 44.2554C647.219 43.6776 646.901 42.8556 646.901 41.7896C646.901 40.7235 647.251 39.8934 647.951 39.2993C648.651 38.6971 649.501 38.2861 650.502 38.0664C650.804 38.0013 651.304 37.9159 652.004 37.8101C652.704 37.7043 653.18 37.5944 653.432 37.4805C653.872 37.277 654.091 36.8945 654.091 36.333C654.091 35.7633 653.904 35.3198 653.53 35.0024C653.155 34.6769 652.708 34.5142 652.187 34.5142C651.674 34.5142 650.999 34.7054 650.161 35.0879C649.322 35.4704 648.789 35.6616 648.562 35.6616ZM666.628 43.6938C666.628 44.0194 666.429 44.3123 666.03 44.5728C665.639 44.825 665.106 44.9512 664.431 44.9512C663.169 44.9512 662.282 44.4832 661.77 43.5474C661.452 42.9614 661.293 41.5902 661.293 39.4336C661.293 37.277 661.257 36.0238 661.184 35.6738C661.11 35.3239 660.907 34.9821 660.573 34.6484C660.24 34.3148 660.073 34.0584 660.073 33.8794C660.073 33.8143 660.467 33.387 661.257 32.5977C661.428 32.4268 661.599 32.0483 661.77 31.4624C661.949 30.8765 662.075 30.4899 662.148 30.3027C662.392 29.7168 662.714 29.4238 663.112 29.4238H663.308C663.658 29.4238 663.906 29.5581 664.052 29.8267C664.109 29.9325 664.195 30.3149 664.309 30.9741C664.431 31.6252 664.569 32.0443 664.724 32.2314C664.878 32.4186 665.265 32.6261 665.883 32.854C666.51 33.0737 666.823 33.3097 666.823 33.562V33.6963C666.823 34.0218 666.465 34.2985 665.749 34.5264C665.041 34.7461 664.585 35.1001 664.382 35.5884C663.983 36.5731 663.784 38.1763 663.784 40.3979C663.784 41.4396 663.963 42.1476 664.321 42.522C664.541 42.7498 664.98 42.9085 665.639 42.998C666.298 43.0876 666.628 43.3195 666.628 43.6938ZM671.608 37.5781V37.7734C671.608 38.0176 671.832 38.1396 672.28 38.1396H672.573L672.646 38.1274L673.244 38.0786C673.871 37.9891 674.278 37.9443 674.465 37.9443C675.352 37.9443 676.019 37.7775 676.467 37.4438C676.678 37.2811 676.784 36.9922 676.784 36.5771V36.4429C676.784 35.8325 676.581 35.3483 676.174 34.9902C675.775 34.6322 675.295 34.4531 674.733 34.4531H674.648L674.575 34.4653C673.785 34.4653 673.094 34.799 672.5 35.4663C671.905 36.1336 671.608 36.8376 671.608 37.5781ZM674.27 45.1587H674.001C672.447 45.1587 671.21 44.6663 670.29 43.6816C669.37 42.6888 668.911 41.3664 668.911 39.7144V39.1772C668.911 38.3879 669.065 37.5863 669.375 36.7725C670.001 35.1449 671.022 34.0218 672.438 33.4033C673.187 33.0697 673.948 32.9028 674.721 32.9028H675.246C676.312 32.9028 677.211 33.2609 677.944 33.9771C678.684 34.6851 679.055 35.6006 679.055 36.7236V36.9678C679.055 37.7653 678.737 38.3309 678.103 38.6646C677.663 38.9006 676.638 39.1366 675.026 39.3726C673.415 39.6086 672.536 39.751 672.39 39.7998C671.901 39.9707 671.657 40.2962 671.657 40.7764C671.657 41.4437 671.942 42.0133 672.512 42.4854C673.081 42.9574 673.846 43.1934 674.807 43.1934C675.254 43.1934 675.865 43.0713 676.638 42.8271C677.411 42.583 677.858 42.4609 677.98 42.4609C678.396 42.4609 678.603 42.64 678.603 42.998C678.603 43.4782 678.135 43.9583 677.199 44.4385C676.263 44.9186 675.287 45.1587 674.27 45.1587ZM682.57 38.1885C682.074 37.6839 681.826 36.9759 681.826 36.0645C681.826 35.153 682.233 34.3717 683.046 33.7207C683.86 33.0615 684.869 32.7319 686.074 32.7319H686.391C687.457 32.7319 688.304 32.8825 688.93 33.1836C689.565 33.4847 689.882 33.9364 689.882 34.5386C689.882 35.1326 689.618 35.4297 689.089 35.4297C688.951 35.4297 688.56 35.2669 687.917 34.9414C687.274 34.6077 686.668 34.4409 686.098 34.4409C685.528 34.4409 685.069 34.5711 684.719 34.8315C684.377 35.0838 684.206 35.4338 684.206 35.8813C684.206 36.3289 684.446 36.7196 684.926 37.0532C685.203 37.2485 685.854 37.5578 686.879 37.981C687.913 38.4041 688.649 38.811 689.089 39.2017C689.797 39.8283 690.151 40.6299 690.151 41.6064C690.151 42.583 689.736 43.4212 688.906 44.1211C688.076 44.8128 686.997 45.1587 685.671 45.1587H685.354C684.019 45.1587 683.018 44.9674 682.351 44.585C681.683 44.1943 681.35 43.6898 681.35 43.0713C681.35 42.4447 681.61 42.1313 682.131 42.1313C682.302 42.1313 682.745 42.3511 683.461 42.7905C684.186 43.23 684.894 43.4497 685.585 43.4497C686.285 43.4497 686.81 43.3032 687.16 43.0103C687.51 42.7091 687.685 42.3348 687.685 41.8872C687.685 41.4315 687.465 41.0327 687.026 40.6909C686.79 40.5037 686.114 40.166 685 39.6777C683.885 39.1813 683.075 38.6849 682.57 38.1885ZM248.122 69.9219V69.3604C248.122 68.335 248.281 67.4276 248.598 66.6382C249.208 65.1082 250.144 64.0503 251.406 63.4644C252.228 63.0737 253.078 62.8784 253.957 62.8784H254.226C255.194 62.8784 255.996 63.0697 256.63 63.4521C257.265 63.8346 257.583 64.3026 257.583 64.856C257.583 65.4989 257.273 65.8203 256.655 65.8203C256.541 65.8203 256.142 65.6413 255.458 65.2832C254.775 64.9333 254.213 64.7583 253.774 64.7583C253.766 64.7583 253.758 64.7583 253.75 64.7583C252.789 64.7583 252.036 65.1733 251.491 66.0034C250.954 66.8335 250.686 67.9159 250.686 69.2505C250.686 70.5851 250.97 71.5739 251.54 72.2168C252.118 72.8597 252.919 73.1812 253.945 73.1812C254.368 73.1812 254.95 73.0632 255.69 72.8271C256.431 72.583 256.883 72.4609 257.045 72.4609C257.379 72.4609 257.546 72.6359 257.546 72.9858C257.546 73.4578 257.078 73.9339 256.142 74.4141C255.206 74.8942 254.287 75.1343 253.383 75.1343C250.966 75.1343 249.367 74.1821 248.586 72.2778C248.277 71.521 248.122 70.7357 248.122 69.9219ZM262.233 69.8486C262.233 70.9147 262.478 71.8018 262.966 72.5098C263.454 73.2178 264.052 73.5718 264.76 73.5718H265.126C265.965 73.5718 266.673 73.1486 267.25 72.3022C267.836 71.4559 268.129 70.3288 268.129 68.9209V68.1152C268.129 67.0247 267.889 66.1336 267.409 65.4419C266.937 64.742 266.327 64.3921 265.578 64.3921H265.334C264.463 64.3921 263.731 64.8234 263.137 65.686C262.551 66.5487 262.258 67.5781 262.258 68.7744L262.233 69.0552V69.8486ZM264.992 75.2319H264.602C263.177 75.2319 262.018 74.7355 261.123 73.7427C260.227 72.7498 259.78 71.342 259.78 69.519L259.792 69.3115C259.792 67.3096 260.321 65.7308 261.379 64.5752C261.932 63.9648 262.563 63.5173 263.271 63.2324C263.987 62.9395 264.667 62.793 265.31 62.793H265.908C266.624 62.793 267.312 62.9517 267.971 63.269C269.859 64.1805 270.803 65.8976 270.803 68.4204V68.6157C270.795 69.4377 270.66 70.2718 270.4 71.1182C269.879 72.7865 268.878 73.9665 267.397 74.6582C266.575 75.0407 265.773 75.2319 264.992 75.2319ZM284.536 73.5352C284.536 74.1374 284.011 74.4385 282.961 74.4385C282.367 74.4385 281.968 74.2961 281.765 74.0112C281.667 73.8729 281.618 73.5474 281.618 73.0347L281.582 72.2534C281.525 71.3989 281.496 70.5404 281.496 69.6777C281.496 67.8141 281.333 66.5649 281.008 65.9302C280.69 65.2873 280.153 64.9658 279.396 64.9658C278.892 64.9658 278.424 65.1164 277.993 65.4175C277.569 65.7186 277.244 66.1377 277.016 66.6748C276.544 67.7734 276.308 69.8039 276.308 72.7661C276.308 73.4416 276.178 73.9176 275.917 74.1943C275.665 74.471 275.34 74.6094 274.941 74.6094H274.697C273.785 74.6094 273.33 74.2472 273.33 73.5229V73.23C273.33 73.1405 273.378 72.9451 273.476 72.644L273.671 72.0825C273.867 71.4233 273.964 70.0114 273.964 67.8467L274.025 64.2212C274.025 63.7573 274.278 63.5254 274.782 63.5254C275.287 63.5254 275.783 63.6922 276.271 64.0259C276.768 64.3595 277.081 64.5264 277.211 64.5264C277.35 64.5264 277.59 64.4328 277.932 64.2456C279.079 63.619 279.999 63.3057 280.69 63.3057H281.008C282.253 63.3057 283.128 63.8672 283.632 64.9902C283.876 65.5192 283.999 66.6585 283.999 68.4082V68.4937C283.999 68.6401 283.994 68.7866 283.986 68.9331C283.986 69.3319 283.986 69.5394 283.986 69.5557C283.986 69.7103 283.986 69.8608 283.986 70.0073C283.986 70.1213 283.986 70.2311 283.986 70.3369C283.986 70.9635 284.007 71.3908 284.047 71.6187C284.104 71.9279 284.198 72.2493 284.328 72.583C284.466 72.9492 284.536 73.2666 284.536 73.5352ZM289.296 75.8911H289.016C288.609 75.8911 288.263 75.7731 287.978 75.5371C287.701 75.3011 287.563 75.0203 287.563 74.6948C287.563 74.3693 287.661 73.9543 287.856 73.4497C288.059 72.937 288.206 72.3145 288.295 71.582C288.393 70.8415 288.442 69.7591 288.442 68.335C288.442 66.9108 288.373 66.0034 288.234 65.6128C288.21 65.5477 288.096 65.332 287.893 64.9658C287.689 64.5915 287.587 64.2741 287.587 64.0137C287.587 63.7533 287.722 63.4196 287.99 63.0127C288.267 62.6058 288.45 62.3047 288.54 62.1094C289.638 59.79 290.212 58.6019 290.261 58.5449C291.107 57.5602 292.25 57.0679 293.691 57.0679C294.358 57.0679 294.871 57.1818 295.229 57.4097C295.587 57.6375 295.766 57.9346 295.766 58.3008C295.766 58.6589 295.555 58.9193 295.131 59.082C295.017 59.1227 294.867 59.1431 294.68 59.1431C294.541 59.1349 294.383 59.1227 294.204 59.1064C293.78 59.0576 293.471 59.0332 293.276 59.0332C292.747 59.0332 292.316 59.2611 291.982 59.7168C291.656 60.1644 291.494 60.6812 291.494 61.2671C291.494 61.853 291.612 62.2803 291.848 62.5488C291.921 62.6302 292.267 62.8337 292.885 63.1592C293.512 63.4766 293.825 63.798 293.825 64.1235C293.825 64.3026 293.475 64.5793 292.775 64.9536C292.279 65.214 291.913 65.6779 291.677 66.3452C291.164 67.7775 290.908 69.6615 290.908 71.9971L291.14 74.0601C291.14 74.6216 290.973 75.0651 290.639 75.3906C290.314 75.7243 289.866 75.8911 289.296 75.8911ZM297.255 58.0322C297.255 57.4382 297.813 57.1411 298.928 57.1411H299.147C299.611 57.1411 299.929 57.255 300.1 57.4829C300.271 57.7026 300.356 58.134 300.356 58.7769L300.258 60.5957C300.234 60.8805 300.222 61.0352 300.222 61.0596L300.197 61.5234C300.181 61.8245 300.165 62.1297 300.148 62.439L300.112 62.9028L300.075 63.5986C299.945 66.0726 299.88 67.8996 299.88 69.0796C299.88 70.2515 299.933 71.0938 300.039 71.6064C300.144 72.1191 300.311 72.5545 300.539 72.9126C300.767 73.2707 300.881 73.5067 300.881 73.6206V73.7671C300.881 74.1252 300.702 74.41 300.344 74.6216C299.994 74.8332 299.518 74.939 298.916 74.939H298.281C297.906 74.939 297.577 74.8332 297.292 74.6216C297.015 74.4019 296.877 74.1536 296.877 73.877V73.5474L296.95 73.0347C297.048 72.3267 297.105 71.7977 297.121 71.4478C297.146 71.0897 297.182 70.5973 297.231 69.9707C297.28 69.3359 297.357 67.9891 297.463 65.9302C297.577 63.8631 297.634 62.7523 297.634 62.5977L297.683 61.6821L297.707 60.7788C297.707 59.9162 297.63 59.3018 297.475 58.9355C297.329 58.5612 297.255 58.2601 297.255 58.0322ZM307.729 59.1309V59.2773C307.729 59.6924 307.607 60.0464 307.363 60.3394C307.127 60.6242 306.761 60.7666 306.264 60.7666H306.069L305.69 60.7178C305.471 60.7178 305.259 60.616 305.056 60.4126C304.852 60.2091 304.75 59.904 304.75 59.4971V59.3506L304.812 58.9111C304.812 58.7402 304.913 58.5286 305.117 58.2764C305.328 58.0241 305.597 57.8979 305.922 57.8979L306.203 57.8613H306.447L306.789 57.9102C307.001 57.9102 307.208 58.016 307.412 58.2275C307.623 58.431 307.729 58.7321 307.729 59.1309ZM307.155 64.2822L307.021 67.5659L306.997 67.8955L306.96 68.8965V69.3726C306.96 70.5444 306.993 71.3135 307.058 71.6797C307.131 72.0459 307.265 72.404 307.46 72.7539C307.656 73.0957 307.753 73.3439 307.753 73.4985V73.6084C307.753 74.0072 307.55 74.3245 307.143 74.5605C306.736 74.7965 306.183 74.9146 305.483 74.9146H305.178C304.771 74.9146 304.462 74.825 304.25 74.646C304.038 74.4588 303.933 74.2594 303.933 74.0479V73.7793C303.933 73.6735 304.026 73.2992 304.213 72.6562C304.401 72.0052 304.494 71.1222 304.494 70.0073C304.519 69.6899 304.531 69.4702 304.531 69.3481L304.567 68.6768L304.592 68.3472C304.632 67.7775 304.653 67.334 304.653 67.0166L304.665 66.5283C304.665 65.918 304.563 65.3768 304.36 64.9048C304.165 64.4328 304.067 64.1398 304.067 64.0259C304.067 63.4399 304.62 63.147 305.727 63.147H306.167C306.582 63.147 306.85 63.2568 306.972 63.4766C307.094 63.6882 307.155 63.9567 307.155 64.2822ZM310.378 69.9219V69.3604C310.378 68.335 310.537 67.4276 310.854 66.6382C311.464 65.1082 312.4 64.0503 313.662 63.4644C314.484 63.0737 315.334 62.8784 316.213 62.8784H316.481C317.45 62.8784 318.251 63.0697 318.886 63.4521C319.521 63.8346 319.838 64.3026 319.838 64.856C319.838 65.4989 319.529 65.8203 318.911 65.8203C318.797 65.8203 318.398 65.6413 317.714 65.2832C317.031 64.9333 316.469 64.7583 316.03 64.7583C316.022 64.7583 316.014 64.7583 316.005 64.7583C315.045 64.7583 314.292 65.1733 313.747 66.0034C313.21 66.8335 312.941 67.9159 312.941 69.2505C312.941 70.5851 313.226 71.5739 313.796 72.2168C314.374 72.8597 315.175 73.1812 316.201 73.1812C316.624 73.1812 317.206 73.0632 317.946 72.8271C318.687 72.583 319.139 72.4609 319.301 72.4609C319.635 72.4609 319.802 72.6359 319.802 72.9858C319.802 73.4578 319.334 73.9339 318.398 74.4141C317.462 74.8942 316.542 75.1343 315.639 75.1343C313.222 75.1343 311.623 74.1821 310.842 72.2778C310.533 71.521 310.378 70.7357 310.378 69.9219ZM328.786 73.6938C328.786 74.0194 328.587 74.3123 328.188 74.5728C327.797 74.825 327.264 74.9512 326.589 74.9512C325.327 74.9512 324.44 74.4832 323.928 73.5474C323.61 72.9614 323.452 71.5902 323.452 69.4336C323.452 67.277 323.415 66.0238 323.342 65.6738C323.269 65.3239 323.065 64.9821 322.731 64.6484C322.398 64.3148 322.231 64.0584 322.231 63.8794C322.231 63.8143 322.626 63.387 323.415 62.5977C323.586 62.4268 323.757 62.0483 323.928 61.4624C324.107 60.8765 324.233 60.4899 324.306 60.3027C324.55 59.7168 324.872 59.4238 325.271 59.4238H325.466C325.816 59.4238 326.064 59.5581 326.21 59.8267C326.267 59.9325 326.353 60.3149 326.467 60.9741C326.589 61.6252 326.727 62.0443 326.882 62.2314C327.036 62.4186 327.423 62.6261 328.042 62.854C328.668 63.0737 328.981 63.3097 328.981 63.562V63.6963C328.981 64.0218 328.623 64.2985 327.907 64.5264C327.199 64.7461 326.743 65.1001 326.54 65.5884C326.141 66.5731 325.942 68.1763 325.942 70.3979C325.942 71.4396 326.121 72.1476 326.479 72.522C326.699 72.7498 327.138 72.9085 327.797 72.998C328.457 73.0876 328.786 73.3195 328.786 73.6938ZM333.352 75.1953H332.973C332.566 75.1953 332.249 75.1017 332.021 74.9146C331.801 74.7274 331.691 74.4792 331.691 74.1699C331.675 74.1048 331.667 74.0519 331.667 74.0112L331.643 73.8037V73.584L331.655 73.5352V73.4253C331.671 73.3602 331.679 73.3073 331.679 73.2666C331.679 72.9004 331.801 72.6156 332.045 72.4121C332.298 72.2005 332.574 72.0947 332.875 72.0947L333.132 72.0581H333.461C334.348 72.0581 334.792 72.522 334.792 73.4497V73.6206L334.743 74.0356C334.743 74.41 334.601 74.6989 334.316 74.9023C334.039 75.0977 333.718 75.1953 333.352 75.1953ZM354.104 62.1582V61.9385C354.104 61.1165 353.819 60.494 353.249 60.0708C352.688 59.6476 351.943 59.436 351.015 59.436H350.319C349.693 59.436 349.274 59.5093 349.062 59.6558C348.85 59.8022 348.745 60.0911 348.745 60.5225C348.712 60.7829 348.696 60.9456 348.696 61.0107L348.574 63.269V63.4766L348.537 64.0869V64.2944L348.525 64.4897C348.525 64.8071 348.594 65.0146 348.732 65.1123C348.879 65.21 349.16 65.2588 349.575 65.2588H350.075L350.173 65.2466H350.271L350.576 65.2344L351.186 65.1855C352.032 65.1855 352.728 64.8844 353.273 64.2822C353.827 63.68 354.104 62.972 354.104 62.1582ZM348.195 72.3877C348.195 72.7295 348.305 72.9614 348.525 73.0835C348.753 73.2056 349.302 73.2666 350.173 73.2666H350.405C351.805 73.2666 352.826 73.0143 353.469 72.5098C354.274 71.875 354.677 71.0164 354.677 69.9341V69.6899C354.677 68.7785 354.36 68.0583 353.725 67.5293C353.098 66.9922 352.207 66.7236 351.052 66.7236H350.014C349.77 66.748 349.514 66.7603 349.245 66.7603C348.675 66.7603 348.391 67.1794 348.391 68.0176C348.358 68.3268 348.342 68.5181 348.342 68.5913L348.244 70.4468V70.6787L348.195 71.936V72.3877ZM356.606 61.8408C356.606 63.1348 356.122 64.2131 355.153 65.0757C354.681 65.4907 354.445 65.7145 354.445 65.7471C354.445 65.7796 354.726 65.9831 355.288 66.3574C356.614 67.2282 357.277 68.4774 357.277 70.105C357.277 71.7244 356.573 72.994 355.166 73.9136C354.042 74.6541 352.256 75.0244 349.807 75.0244H349.514L349.221 75.0122H348.928C347.105 75.0122 345.986 74.9674 345.571 74.8779C345.156 74.7803 344.948 74.6175 344.948 74.3896V74.1943C344.948 73.999 345.07 73.6572 345.314 73.1689C345.428 72.8434 345.514 72.4121 345.571 71.875C345.799 69.7347 345.913 67.2892 345.913 64.5386L345.974 62.8052L345.998 62.2437L346.01 61.3892C346.01 60.6242 345.953 60.0382 345.839 59.6313L345.717 59.2285C345.66 59.0332 345.632 58.8501 345.632 58.6792C345.632 58.3781 345.852 58.1706 346.291 58.0566C346.73 57.9427 347.581 57.8857 348.842 57.8857L349.123 57.8735C349.318 57.8654 349.514 57.8613 349.709 57.8613L350.893 57.8369C354.702 57.8369 356.606 59.1715 356.606 61.8408ZM360.134 64.0259C360.134 63.5132 360.565 63.2568 361.428 63.2568H361.708C362.246 63.2568 362.608 63.4725 362.795 63.9038C362.982 64.3351 363.076 65.1408 363.076 66.3208L362.929 70.3979C362.929 72.2941 363.609 73.2422 364.968 73.2422C365.464 73.2422 365.94 73.0672 366.396 72.7173C366.852 72.3674 367.189 71.9482 367.409 71.46C367.889 70.3857 368.129 68.4611 368.129 65.686L368.105 65.1489V64.6729C368.105 64.2415 368.203 63.9282 368.398 63.7329C368.593 63.5376 368.935 63.4399 369.423 63.4399C369.912 63.4399 370.233 63.5579 370.388 63.7939C370.542 64.0299 370.62 64.4124 370.62 64.9414L370.595 65.5884L370.546 68.4692C370.546 68.9331 370.575 69.6452 370.632 70.6055C370.689 71.5658 370.75 72.2697 370.815 72.7173C370.88 73.1567 370.913 73.4172 370.913 73.4985C370.913 74.2228 370.38 74.585 369.313 74.585C368.947 74.585 368.581 74.4507 368.215 74.1821C367.857 73.9054 367.6 73.7671 367.446 73.7671C367.299 73.7671 367.047 73.8566 366.689 74.0356C365.672 74.5483 364.805 74.8047 364.089 74.8047H363.784C362.62 74.8047 361.765 74.4466 361.22 73.7305C360.675 73.0143 360.402 71.7244 360.402 69.8608L360.524 66.1621C360.524 65.6982 360.459 65.2547 360.329 64.8315C360.199 64.4084 360.134 64.1398 360.134 64.0259ZM377.919 59.1309V59.2773C377.919 59.6924 377.797 60.0464 377.553 60.3394C377.317 60.6242 376.951 60.7666 376.455 60.7666H376.259L375.881 60.7178C375.661 60.7178 375.45 60.616 375.246 60.4126C375.043 60.2091 374.941 59.904 374.941 59.4971V59.3506L375.002 58.9111C375.002 58.7402 375.104 58.5286 375.307 58.2764C375.519 58.0241 375.787 57.8979 376.113 57.8979L376.394 57.8613H376.638L376.979 57.9102C377.191 57.9102 377.399 58.016 377.602 58.2275C377.814 58.431 377.919 58.7321 377.919 59.1309ZM377.346 64.2822L377.211 67.5659L377.187 67.8955L377.15 68.8965V69.3726C377.15 70.5444 377.183 71.3135 377.248 71.6797C377.321 72.0459 377.456 72.404 377.651 72.7539C377.846 73.0957 377.944 73.3439 377.944 73.4985V73.6084C377.944 74.0072 377.74 74.3245 377.333 74.5605C376.927 74.7965 376.373 74.9146 375.673 74.9146H375.368C374.961 74.9146 374.652 74.825 374.44 74.646C374.229 74.4588 374.123 74.2594 374.123 74.0479V73.7793C374.123 73.6735 374.217 73.2992 374.404 72.6562C374.591 72.0052 374.685 71.1222 374.685 70.0073C374.709 69.6899 374.721 69.4702 374.721 69.3481L374.758 68.6768L374.782 68.3472C374.823 67.7775 374.843 67.334 374.843 67.0166L374.855 66.5283C374.855 65.918 374.754 65.3768 374.55 64.9048C374.355 64.4328 374.257 64.1398 374.257 64.0259C374.257 63.4399 374.811 63.147 375.917 63.147H376.357C376.772 63.147 377.041 63.2568 377.163 63.4766C377.285 63.6882 377.346 63.9567 377.346 64.2822ZM381.63 58.0322C381.63 57.4382 382.188 57.1411 383.303 57.1411H383.522C383.986 57.1411 384.304 57.255 384.475 57.4829C384.646 57.7026 384.731 58.134 384.731 58.7769L384.633 60.5957C384.609 60.8805 384.597 61.0352 384.597 61.0596L384.572 61.5234C384.556 61.8245 384.54 62.1297 384.523 62.439L384.487 62.9028L384.45 63.5986C384.32 66.0726 384.255 67.8996 384.255 69.0796C384.255 70.2515 384.308 71.0938 384.414 71.6064C384.519 72.1191 384.686 72.5545 384.914 72.9126C385.142 73.2707 385.256 73.5067 385.256 73.6206V73.7671C385.256 74.1252 385.077 74.41 384.719 74.6216C384.369 74.8332 383.893 74.939 383.291 74.939H382.656C382.281 74.939 381.952 74.8332 381.667 74.6216C381.39 74.4019 381.252 74.1536 381.252 73.877V73.5474L381.325 73.0347C381.423 72.3267 381.48 71.7977 381.496 71.4478C381.521 71.0897 381.557 70.5973 381.606 69.9707C381.655 69.3359 381.732 67.9891 381.838 65.9302C381.952 63.8631 382.009 62.7523 382.009 62.5977L382.058 61.6821L382.082 60.7788C382.082 59.9162 382.005 59.3018 381.85 58.9355C381.704 58.5612 381.63 58.2601 381.63 58.0322ZM390.236 69.0796V70.0073C390.236 70.9757 390.456 71.7855 390.896 72.4365C391.343 73.0794 391.868 73.4009 392.47 73.4009H392.812C393.74 73.4009 394.456 73.0306 394.96 72.29C395.473 71.5495 395.729 70.4468 395.729 68.9819C395.746 68.8029 395.754 68.6727 395.754 68.5913L395.778 68.3472L395.791 67.8345V66.9678C395.791 65.3076 395.127 64.4775 393.801 64.4775H393.325C392.462 64.4775 391.73 64.9129 391.127 65.7837C390.533 66.6545 390.236 67.7531 390.236 69.0796ZM387.893 69.6411C387.893 68.7948 388.043 67.9321 388.344 67.0532C388.645 66.1743 389.069 65.4256 389.614 64.8071C390.159 64.1805 390.773 63.7288 391.457 63.4521C392.141 63.1673 392.95 63.0249 393.886 63.0249C394.83 63.0249 395.416 62.854 395.644 62.5122C395.872 62.1623 395.986 61.3932 395.986 60.2051C395.986 59.9854 395.949 59.6924 395.876 59.3262C395.803 58.96 395.766 58.7484 395.766 58.6914C395.766 58.3415 395.917 58.0241 396.218 57.7393C396.519 57.4463 396.914 57.2998 397.402 57.2998H397.646C398.028 57.2998 398.313 57.3893 398.5 57.5684C398.688 57.7474 398.781 58.1217 398.781 58.6914V59.8267L398.757 60.4004C398.749 60.5957 398.745 60.8805 398.745 61.2549C398.745 61.6211 398.684 62.8011 398.562 64.7949C398.439 66.7887 398.378 68.16 398.378 68.9087L398.366 69.2017C398.358 69.397 398.354 69.5841 398.354 69.7632L398.342 70.0439C398.342 70.0439 398.342 70.3613 398.342 70.9961C398.342 71.818 398.407 72.4365 398.537 72.8516C398.667 73.2666 398.732 73.5636 398.732 73.7427C398.732 73.9217 398.631 74.1089 398.427 74.3042C398.224 74.4995 397.906 74.5972 397.475 74.5972C397.052 74.5972 396.641 74.528 396.242 74.3896C395.843 74.2432 395.55 74.1699 395.363 74.1699C395.176 74.1699 394.932 74.2269 394.631 74.3408C393.719 74.6745 392.885 74.8413 392.128 74.8413C392.112 74.8413 392.096 74.8413 392.08 74.8413H391.799C390.57 74.8413 389.61 74.3937 388.918 73.4985C388.234 72.5952 387.893 71.4111 387.893 69.9463V69.6411ZM402.81 68.1885C402.313 67.6839 402.065 66.9759 402.065 66.0645C402.065 65.153 402.472 64.3717 403.286 63.7207C404.099 63.0615 405.109 62.7319 406.313 62.7319H406.63C407.696 62.7319 408.543 62.8825 409.169 63.1836C409.804 63.4847 410.122 63.9364 410.122 64.5386C410.122 65.1326 409.857 65.4297 409.328 65.4297C409.19 65.4297 408.799 65.2669 408.156 64.9414C407.513 64.6077 406.907 64.4409 406.337 64.4409C405.768 64.4409 405.308 64.5711 404.958 64.8315C404.616 65.0838 404.445 65.4338 404.445 65.8813C404.445 66.3289 404.685 66.7196 405.166 67.0532C405.442 67.2485 406.093 67.5578 407.119 67.981C408.152 68.4041 408.889 68.811 409.328 69.2017C410.036 69.8283 410.39 70.6299 410.39 71.6064C410.39 72.583 409.975 73.4212 409.145 74.1211C408.315 74.8128 407.237 75.1587 405.91 75.1587H405.593C404.258 75.1587 403.257 74.9674 402.59 74.585C401.923 74.1943 401.589 73.6898 401.589 73.0713C401.589 72.4447 401.849 72.1313 402.37 72.1313C402.541 72.1313 402.985 72.3511 403.701 72.7905C404.425 73.23 405.133 73.4497 405.825 73.4497C406.525 73.4497 407.049 73.3032 407.399 73.0103C407.749 72.7091 407.924 72.3348 407.924 71.8872C407.924 71.4315 407.705 71.0327 407.265 70.6909C407.029 70.5037 406.354 70.166 405.239 69.6777C404.124 69.1813 403.314 68.6849 402.81 68.1885ZM420.546 58.0322C420.546 57.4382 421.104 57.1411 422.219 57.1411H422.438C422.902 57.1411 423.22 57.255 423.391 57.4829C423.562 57.7026 423.647 58.134 423.647 58.7769L423.549 60.5957C423.525 60.8805 423.513 61.0352 423.513 61.0596L423.488 61.5234C423.472 61.8245 423.456 62.1297 423.439 62.439L423.403 62.9028L423.366 63.5986C423.236 66.0726 423.171 67.8996 423.171 69.0796C423.171 70.2515 423.224 71.0938 423.33 71.6064C423.435 72.1191 423.602 72.5545 423.83 72.9126C424.058 73.2707 424.172 73.5067 424.172 73.6206V73.7671C424.172 74.1252 423.993 74.41 423.635 74.6216C423.285 74.8332 422.809 74.939 422.207 74.939H421.572C421.197 74.939 420.868 74.8332 420.583 74.6216C420.306 74.4019 420.168 74.1536 420.168 73.877V73.5474L420.241 73.0347C420.339 72.3267 420.396 71.7977 420.412 71.4478C420.437 71.0897 420.473 70.5973 420.522 69.9707C420.571 69.3359 420.648 67.9891 420.754 65.9302C420.868 63.8631 420.925 62.7523 420.925 62.5977L420.974 61.6821L420.998 60.7788C420.998 59.9162 420.921 59.3018 420.766 58.9355C420.62 58.5612 420.546 58.2601 420.546 58.0322ZM429.128 69.8486C429.128 70.9147 429.372 71.8018 429.86 72.5098C430.349 73.2178 430.947 73.5718 431.655 73.5718H432.021C432.859 73.5718 433.567 73.1486 434.145 72.3022C434.731 71.4559 435.024 70.3288 435.024 68.9209V68.1152C435.024 67.0247 434.784 66.1336 434.304 65.4419C433.832 64.742 433.221 64.3921 432.473 64.3921H432.229C431.358 64.3921 430.625 64.8234 430.031 65.686C429.445 66.5487 429.152 67.5781 429.152 68.7744L429.128 69.0552V69.8486ZM431.887 75.2319H431.496C430.072 75.2319 428.912 74.7355 428.017 73.7427C427.122 72.7498 426.674 71.342 426.674 69.519L426.687 69.3115C426.687 67.3096 427.215 65.7308 428.273 64.5752C428.827 63.9648 429.458 63.5173 430.166 63.2324C430.882 62.9395 431.561 62.793 432.204 62.793H432.802C433.518 62.793 434.206 62.9517 434.865 63.269C436.753 64.1805 437.697 65.8976 437.697 68.4204V68.6157C437.689 69.4377 437.555 70.2718 437.294 71.1182C436.774 72.7865 435.773 73.9665 434.292 74.6582C433.47 75.0407 432.668 75.2319 431.887 75.2319ZM444.228 74.9512C444.228 74.528 443.939 73.7874 443.361 72.7295C442.784 71.6634 442.299 70.6706 441.909 69.751C440.574 66.6178 439.907 64.8071 439.907 64.3188C439.907 64.0991 440.033 63.8997 440.285 63.7207C440.546 63.5417 440.977 63.4521 441.579 63.4521C442.181 63.4521 442.604 63.7085 442.849 64.2212C442.873 64.2782 442.958 64.6322 443.105 65.2832C444.212 69.3278 444.903 71.4478 445.18 71.6431C445.603 71.6431 446.181 70.6543 446.914 68.6768C447.41 67.334 447.715 66.2069 447.829 65.2954C447.951 64.384 448.049 63.859 448.122 63.7207C448.35 63.2975 448.822 63.0859 449.538 63.0859C450.262 63.0859 450.625 63.3667 450.625 63.9282C450.625 64.327 450.478 64.86 450.185 65.5273C449.892 66.1947 449.615 66.9189 449.355 67.7002C447.866 72.1598 446.787 74.9756 446.12 76.1475C445.453 77.3275 444.749 78.2552 444.008 78.9307C443.268 79.6143 442.523 79.9561 441.774 79.9561C441.034 79.9561 440.664 79.7445 440.664 79.3213C440.664 78.9469 441.042 78.6051 441.799 78.2959C442.564 77.9867 443.097 77.6286 443.398 77.2217C443.951 76.4811 444.228 75.7243 444.228 74.9512ZM456.655 73.4619H456.972C457.639 73.4619 458.225 73.2381 458.73 72.7905C459.243 72.3348 459.499 71.8099 459.499 71.2158L459.523 71.0571V70.8984L459.548 70.52V69.8242C459.548 69.3522 459.308 69.1162 458.828 69.1162H458.278L458.193 69.1284L457.717 69.165C457.489 69.1976 457.326 69.2139 457.229 69.2139C456.569 69.2139 455.959 69.4621 455.397 69.9585C455.007 70.3084 454.812 70.8049 454.812 71.4478V71.6919C454.812 72.2371 454.986 72.6685 455.336 72.9858C455.694 73.3032 456.134 73.4619 456.655 73.4619ZM453.933 65.6616C453.387 65.6616 453.115 65.3117 453.115 64.6118C453.115 64.091 453.554 63.6393 454.433 63.2568C455.32 62.8662 456.24 62.6709 457.192 62.6709H457.802C458.624 62.6709 459.348 62.8255 459.975 63.1348C460.602 63.4359 461.078 63.8468 461.403 64.3677C461.737 64.8885 461.94 65.568 462.014 66.4062C462.03 66.6016 462.038 67.5496 462.038 69.2505C462.038 70.9513 462.058 71.932 462.099 72.1924C462.148 72.4447 462.278 72.7539 462.49 73.1201C462.709 73.4863 462.819 73.7874 462.819 74.0234C462.819 74.2594 462.705 74.4629 462.478 74.6338C462.258 74.7965 461.936 74.8779 461.513 74.8779C461.09 74.8779 460.63 74.7762 460.134 74.5728C459.637 74.3612 459.275 74.2554 459.047 74.2554C459.023 74.2554 458.616 74.4019 457.827 74.6948C457.037 74.9797 456.37 75.1221 455.825 75.1221H455.556C454.645 75.1221 453.868 74.8332 453.225 74.2554C452.59 73.6776 452.272 72.8556 452.272 71.7896C452.272 70.7235 452.622 69.8934 453.322 69.2993C454.022 68.6971 454.873 68.2861 455.874 68.0664C456.175 68.0013 456.675 67.9159 457.375 67.8101C458.075 67.7043 458.551 67.5944 458.803 67.4805C459.243 67.277 459.462 66.8945 459.462 66.333C459.462 65.7633 459.275 65.3198 458.901 65.0024C458.527 64.6769 458.079 64.5142 457.558 64.5142C457.045 64.5142 456.37 64.7054 455.532 65.0879C454.694 65.4704 454.16 65.6616 453.933 65.6616ZM466.347 58.0322C466.347 57.4382 466.905 57.1411 468.02 57.1411H468.239C468.703 57.1411 469.021 57.255 469.191 57.4829C469.362 57.7026 469.448 58.134 469.448 58.7769L469.35 60.5957C469.326 60.8805 469.313 61.0352 469.313 61.0596L469.289 61.5234C469.273 61.8245 469.257 62.1297 469.24 62.439L469.204 62.9028L469.167 63.5986C469.037 66.0726 468.972 67.8996 468.972 69.0796C468.972 70.2515 469.025 71.0938 469.13 71.6064C469.236 72.1191 469.403 72.5545 469.631 72.9126C469.859 73.2707 469.973 73.5067 469.973 73.6206V73.7671C469.973 74.1252 469.794 74.41 469.436 74.6216C469.086 74.8332 468.61 74.939 468.007 74.939H467.373C466.998 74.939 466.669 74.8332 466.384 74.6216C466.107 74.4019 465.969 74.1536 465.969 73.877V73.5474L466.042 73.0347C466.14 72.3267 466.197 71.7977 466.213 71.4478C466.237 71.0897 466.274 70.5973 466.323 69.9707C466.372 69.3359 466.449 67.9891 466.555 65.9302C466.669 63.8631 466.726 62.7523 466.726 62.5977L466.774 61.6821L466.799 60.7788C466.799 59.9162 466.722 59.3018 466.567 58.9355C466.42 58.5612 466.347 58.2601 466.347 58.0322ZM479.177 73.6938C479.177 74.0194 478.977 74.3123 478.579 74.5728C478.188 74.825 477.655 74.9512 476.979 74.9512C475.718 74.9512 474.831 74.4832 474.318 73.5474C474.001 72.9614 473.842 71.5902 473.842 69.4336C473.842 67.277 473.806 66.0238 473.732 65.6738C473.659 65.3239 473.456 64.9821 473.122 64.6484C472.788 64.3148 472.622 64.0584 472.622 63.8794C472.622 63.8143 473.016 63.387 473.806 62.5977C473.977 62.4268 474.147 62.0483 474.318 61.4624C474.497 60.8765 474.624 60.4899 474.697 60.3027C474.941 59.7168 475.262 59.4238 475.661 59.4238H475.856C476.206 59.4238 476.455 59.5581 476.601 59.8267C476.658 59.9325 476.743 60.3149 476.857 60.9741C476.979 61.6252 477.118 62.0443 477.272 62.2314C477.427 62.4186 477.814 62.6261 478.432 62.854C479.059 63.0737 479.372 63.3097 479.372 63.562V63.6963C479.372 64.0218 479.014 64.2985 478.298 64.5264C477.59 64.7461 477.134 65.1001 476.931 65.5884C476.532 66.5731 476.333 68.1763 476.333 70.3979C476.333 71.4396 476.512 72.1476 476.87 72.522C477.089 72.7498 477.529 72.9085 478.188 72.998C478.847 73.0876 479.177 73.3195 479.177 73.6938ZM486.123 74.9512C486.123 74.528 485.834 73.7874 485.256 72.7295C484.678 71.6634 484.194 70.6706 483.803 69.751C482.469 66.6178 481.801 64.8071 481.801 64.3188C481.801 64.0991 481.927 63.8997 482.18 63.7207C482.44 63.5417 482.871 63.4521 483.474 63.4521C484.076 63.4521 484.499 63.7085 484.743 64.2212C484.768 64.2782 484.853 64.6322 485 65.2832C486.106 69.3278 486.798 71.4478 487.075 71.6431C487.498 71.6431 488.076 70.6543 488.808 68.6768C489.305 67.334 489.61 66.2069 489.724 65.2954C489.846 64.384 489.943 63.859 490.017 63.7207C490.244 63.2975 490.716 63.0859 491.433 63.0859C492.157 63.0859 492.519 63.3667 492.519 63.9282C492.519 64.327 492.373 64.86 492.08 65.5273C491.787 66.1947 491.51 66.9189 491.25 67.7002C489.76 72.1598 488.682 74.9756 488.015 76.1475C487.347 77.3275 486.643 78.2552 485.903 78.9307C485.162 79.6143 484.418 79.9561 483.669 79.9561C482.928 79.9561 482.558 79.7445 482.558 79.3213C482.558 78.9469 482.937 78.6051 483.693 78.2959C484.458 77.9867 484.991 77.6286 485.292 77.2217C485.846 76.4811 486.123 75.7243 486.123 74.9512ZM495.827 75.1953H495.449C495.042 75.1953 494.724 75.1017 494.497 74.9146C494.277 74.7274 494.167 74.4792 494.167 74.1699C494.151 74.1048 494.143 74.0519 494.143 74.0112L494.118 73.8037V73.584L494.13 73.5352V73.4253C494.147 73.3602 494.155 73.3073 494.155 73.2666C494.155 72.9004 494.277 72.6156 494.521 72.4121C494.773 72.2005 495.05 72.0947 495.351 72.0947L495.607 72.0581H495.937C496.824 72.0581 497.268 72.522 497.268 73.4497V73.6206L497.219 74.0356C497.219 74.41 497.076 74.6989 496.792 74.9023C496.515 75.0977 496.193 75.1953 495.827 75.1953Z" fill="black"/>
</svg>
