<svg width="758" height="87" viewBox="0 0 758 87" fill="none" xmlns="http://www.w3.org/2000/svg">
<rect width="758" height="87" rx="18" fill="#D9D9D9"/>
<path d="M30.407 52C30.057 52 29.882 51.825 29.882 51.475V47.275C29.882 46.925 30.057 46.75 30.407 46.75H39.773V40.807H30.407C30.057 40.807 29.882 40.632 29.882 40.282L29.903 24.532C29.903 24.182 30.078 24.007 30.428 24.007H46.262C46.612 24.007 46.787 24.182 46.787 24.532V28.732C46.787 29.082 46.612 29.257 46.262 29.257H36.917V35.2H46.262C46.612 35.2 46.787 35.375 46.787 35.725V46.645C46.787 46.897 46.703 47.121 46.535 47.317L42.083 51.748C41.929 51.916 41.712 52 41.432 52H30.407Z" fill="#2ECC71"/>
<path d="M69.3535 30.0098C69.3535 30.3923 69.2681 30.6934 69.0972 30.9131C68.9263 31.1328 68.7757 31.2427 68.6455 31.2427C68.5234 31.2427 67.8765 30.8887 66.7046 30.1807C65.9884 29.7493 65.2357 29.5337 64.4463 29.5337C63.665 29.5337 62.9977 29.7331 62.4443 30.1318C61.8991 30.5225 61.6265 31.0718 61.6265 31.7798C61.6265 32.4878 61.9235 33.1144 62.5176 33.6597C62.8187 33.9364 63.7342 34.4409 65.2642 35.1733C66.7941 35.8976 67.8521 36.5568 68.438 37.1509C69.2518 37.981 69.6587 38.929 69.6587 39.9951V40.4102C69.6506 41.0531 69.4919 41.6838 69.1826 42.3022C68.5885 43.4741 67.5835 44.2961 66.1675 44.7681C65.4351 45.0122 64.6213 45.1343 63.7261 45.1343C60.951 45.1343 59.2705 44.5402 58.6846 43.3521C58.4811 42.937 58.3794 42.5586 58.3794 42.2168C58.3794 41.8913 58.4689 41.6227 58.6479 41.4111C58.827 41.1914 59.0304 41.0815 59.2583 41.0815C59.4862 41.0815 59.8564 41.3013 60.3691 41.7407C60.89 42.1802 61.423 42.5342 61.9683 42.8027C62.5135 43.0632 63.2012 43.1934 64.0312 43.1934C64.8613 43.1934 65.5612 42.9736 66.1309 42.5342C66.7087 42.0947 66.9976 41.4681 66.9976 40.6543C66.9976 39.8405 66.5866 39.1203 65.7646 38.4937C65.3984 38.217 64.5236 37.7531 63.1401 37.1021C61.7648 36.4429 60.7923 35.8081 60.2227 35.1978C59.4658 34.3921 59.0874 33.4237 59.0874 32.2925C59.0874 30.8602 59.6164 29.7331 60.6743 28.9111C61.7323 28.0811 63.0343 27.666 64.5806 27.666H65.0078C66.611 27.666 67.734 27.8776 68.377 28.3008C69.028 28.7158 69.3535 29.2855 69.3535 30.0098ZM74.5903 37.5781V37.7734C74.5903 38.0176 74.8141 38.1396 75.2617 38.1396H75.5547L75.6279 38.1274L76.2261 38.0786C76.8527 37.9891 77.2596 37.9443 77.4468 37.9443C78.3338 37.9443 79.0011 37.7775 79.4487 37.4438C79.6603 37.2811 79.7661 36.9922 79.7661 36.5771V36.4429C79.7661 35.8325 79.5627 35.3483 79.1558 34.9902C78.757 34.6322 78.2769 34.4531 77.7153 34.4531H77.6299L77.5566 34.4653C76.7673 34.4653 76.0755 34.799 75.4814 35.4663C74.8874 36.1336 74.5903 36.8376 74.5903 37.5781ZM77.2515 45.1587H76.9829C75.4285 45.1587 74.1916 44.6663 73.272 43.6816C72.3524 42.6888 71.8926 41.3664 71.8926 39.7144V39.1772C71.8926 38.3879 72.0472 37.5863 72.3564 36.7725C72.9831 35.1449 74.0044 34.0218 75.4204 33.4033C76.1691 33.0697 76.93 32.9028 77.7031 32.9028H78.228C79.2941 32.9028 80.1934 33.2609 80.9258 33.9771C81.6663 34.6851 82.0366 35.6006 82.0366 36.7236V36.9678C82.0366 37.7653 81.7192 38.3309 81.0845 38.6646C80.645 38.9006 79.6196 39.1366 78.0083 39.3726C76.397 39.6086 75.5181 39.751 75.3716 39.7998C74.8833 39.9707 74.6392 40.2962 74.6392 40.7764C74.6392 41.4437 74.924 42.0133 75.4937 42.4854C76.0633 42.9574 76.8283 43.1934 77.7886 43.1934C78.2362 43.1934 78.8465 43.0713 79.6196 42.8271C80.3927 42.583 80.8403 42.4609 80.9624 42.4609C81.3774 42.4609 81.585 42.64 81.585 42.998C81.585 43.4782 81.117 43.9583 80.1812 44.4385C79.2453 44.9186 78.2687 45.1587 77.2515 45.1587ZM91.0698 43.6938C91.0698 44.0194 90.8704 44.3123 90.4717 44.5728C90.0811 44.825 89.548 44.9512 88.8726 44.9512C87.6112 44.9512 86.7241 44.4832 86.2114 43.5474C85.894 42.9614 85.7354 41.5902 85.7354 39.4336C85.7354 37.277 85.6987 36.0238 85.6255 35.6738C85.5522 35.3239 85.3488 34.9821 85.0151 34.6484C84.6815 34.3148 84.5146 34.0584 84.5146 33.8794C84.5146 33.8143 84.9093 33.387 85.6987 32.5977C85.8696 32.4268 86.0405 32.0483 86.2114 31.4624C86.3905 30.8765 86.5166 30.4899 86.5898 30.3027C86.834 29.7168 87.1554 29.4238 87.5542 29.4238H87.7495C88.0994 29.4238 88.3477 29.5581 88.4941 29.8267C88.5511 29.9325 88.6366 30.3149 88.7505 30.9741C88.8726 31.6252 89.0109 32.0443 89.1655 32.2314C89.3201 32.4186 89.7067 32.6261 90.3252 32.854C90.9518 33.0737 91.2651 33.3097 91.2651 33.562V33.6963C91.2651 34.0218 90.9071 34.2985 90.1909 34.5264C89.4829 34.7461 89.0272 35.1001 88.8237 35.5884C88.425 36.5731 88.2256 38.1763 88.2256 40.3979C88.2256 41.4396 88.4046 42.1476 88.7627 42.522C88.9824 42.7498 89.4219 42.9085 90.0811 42.998C90.7402 43.0876 91.0698 43.3195 91.0698 43.6938ZM94.7808 38.1885C94.2843 37.6839 94.0361 36.9759 94.0361 36.0645C94.0361 35.153 94.443 34.3717 95.2568 33.7207C96.0706 33.0615 97.0798 32.7319 98.2842 32.7319H98.6016C99.6676 32.7319 100.514 32.8825 101.141 33.1836C101.775 33.4847 102.093 33.9364 102.093 34.5386C102.093 35.1326 101.828 35.4297 101.299 35.4297C101.161 35.4297 100.77 35.2669 100.127 34.9414C99.4845 34.6077 98.8783 34.4409 98.3086 34.4409C97.7389 34.4409 97.2791 34.5711 96.9292 34.8315C96.5874 35.0838 96.4165 35.4338 96.4165 35.8813C96.4165 36.3289 96.6566 36.7196 97.1367 37.0532C97.4134 37.2485 98.0645 37.5578 99.0898 37.981C100.123 38.4041 100.86 38.811 101.299 39.2017C102.007 39.8283 102.361 40.6299 102.361 41.6064C102.361 42.583 101.946 43.4212 101.116 44.1211C100.286 44.8128 99.2078 45.1587 97.8813 45.1587H97.564C96.2293 45.1587 95.2284 44.9674 94.561 44.585C93.8937 44.1943 93.5601 43.6898 93.5601 43.0713C93.5601 42.4447 93.8205 42.1313 94.3413 42.1313C94.5122 42.1313 94.9557 42.3511 95.6719 42.7905C96.3962 43.23 97.1042 43.4497 97.7959 43.4497C98.4958 43.4497 99.0207 43.3032 99.3706 43.0103C99.7205 42.7091 99.8955 42.3348 99.8955 41.8872C99.8955 41.4315 99.6758 41.0327 99.2363 40.6909C99.0003 40.5037 98.3249 40.166 97.21 39.6777C96.0951 39.1813 95.2853 38.6849 94.7808 38.1885ZM114.068 37.5781V37.7734C114.068 38.0176 114.292 38.1396 114.739 38.1396H115.032L115.105 38.1274L115.704 38.0786C116.33 37.9891 116.737 37.9443 116.924 37.9443C117.811 37.9443 118.479 37.7775 118.926 37.4438C119.138 37.2811 119.244 36.9922 119.244 36.5771V36.4429C119.244 35.8325 119.04 35.3483 118.633 34.9902C118.235 34.6322 117.754 34.4531 117.193 34.4531H117.107L117.034 34.4653C116.245 34.4653 115.553 34.799 114.959 35.4663C114.365 36.1336 114.068 36.8376 114.068 37.5781ZM116.729 45.1587H116.46C114.906 45.1587 113.669 44.6663 112.75 43.6816C111.83 42.6888 111.37 41.3664 111.37 39.7144V39.1772C111.37 38.3879 111.525 37.5863 111.834 36.7725C112.461 35.1449 113.482 34.0218 114.898 33.4033C115.647 33.0697 116.408 32.9028 117.181 32.9028H117.706C118.772 32.9028 119.671 33.2609 120.403 33.9771C121.144 34.6851 121.514 35.6006 121.514 36.7236V36.9678C121.514 37.7653 121.197 38.3309 120.562 38.6646C120.123 38.9006 119.097 39.1366 117.486 39.3726C115.875 39.6086 114.996 39.751 114.849 39.7998C114.361 39.9707 114.117 40.2962 114.117 40.7764C114.117 41.4437 114.402 42.0133 114.971 42.4854C115.541 42.9574 116.306 43.1934 117.266 43.1934C117.714 43.1934 118.324 43.0713 119.097 42.8271C119.87 42.583 120.318 42.4609 120.44 42.4609C120.855 42.4609 121.062 42.64 121.062 42.998C121.062 43.4782 120.595 43.9583 119.659 44.4385C118.723 44.9186 117.746 45.1587 116.729 45.1587ZM134.136 44.1455C134.136 44.6094 133.436 44.8413 132.037 44.8413C131.426 44.8413 130.975 44.6338 130.682 44.2188C130.665 44.2025 130.584 44.0356 130.438 43.7183C130.291 43.3927 129.99 42.8434 129.534 42.0703C129.087 41.2891 128.802 40.8984 128.68 40.8984C128.468 40.8984 127.984 41.464 127.227 42.5952C126.975 42.9696 126.755 43.3765 126.568 43.8159C126.389 44.2472 126.189 44.5605 125.97 44.7559C125.75 44.9512 125.363 45.0488 124.81 45.0488C123.923 45.0488 123.479 44.8291 123.479 44.3896C123.479 44.1048 123.699 43.7427 124.139 43.3032C124.586 42.8556 125.001 42.3755 125.384 41.8628C126.604 40.2189 127.215 39.2342 127.215 38.9087C127.215 38.575 126.71 37.6758 125.701 36.2109C125.376 35.7389 125.001 35.2954 124.578 34.8804C124.163 34.4572 123.956 34.0951 123.956 33.7939C123.956 33.3626 124.668 33.147 126.092 33.147C126.604 33.147 127.007 33.3097 127.3 33.6353C127.398 33.7492 127.512 33.9608 127.642 34.27C127.772 34.5793 127.927 34.9048 128.106 35.2466C128.692 36.3615 129.078 36.9189 129.266 36.9189C129.526 36.9189 130.014 36.3411 130.73 35.1855C130.958 34.8193 131.141 34.4572 131.28 34.0991C131.426 33.741 131.561 33.505 131.683 33.3911C131.935 33.147 132.415 33.0249 133.123 33.0249C133.831 33.0249 134.185 33.1795 134.185 33.4888V33.6841C134.185 33.7085 133.595 34.4735 132.415 35.979C131.243 37.4845 130.657 38.4448 130.657 38.8599C130.657 39.2668 131.219 40.2637 132.342 41.8506C132.667 42.3063 133.046 42.7417 133.477 43.1567C133.917 43.5636 134.136 43.8932 134.136 44.1455ZM140.521 43.4619H140.838C141.505 43.4619 142.091 43.2381 142.596 42.7905C143.108 42.3348 143.365 41.8099 143.365 41.2158L143.389 41.0571V40.8984L143.414 40.52V39.8242C143.414 39.3522 143.174 39.1162 142.693 39.1162H142.144L142.059 39.1284L141.583 39.165C141.355 39.1976 141.192 39.2139 141.094 39.2139C140.435 39.2139 139.825 39.4621 139.263 39.9585C138.873 40.3084 138.677 40.8049 138.677 41.4478V41.6919C138.677 42.2371 138.852 42.6685 139.202 42.9858C139.56 43.3032 140 43.4619 140.521 43.4619ZM137.798 35.6616C137.253 35.6616 136.98 35.3117 136.98 34.6118C136.98 34.091 137.42 33.6393 138.299 33.2568C139.186 32.8662 140.105 32.6709 141.058 32.6709H141.668C142.49 32.6709 143.214 32.8255 143.841 33.1348C144.467 33.4359 144.944 33.8468 145.269 34.3677C145.603 34.8885 145.806 35.568 145.879 36.4062C145.896 36.6016 145.904 37.5496 145.904 39.2505C145.904 40.9513 145.924 41.932 145.965 42.1924C146.014 42.4447 146.144 42.7539 146.355 43.1201C146.575 43.4863 146.685 43.7874 146.685 44.0234C146.685 44.2594 146.571 44.4629 146.343 44.6338C146.124 44.7965 145.802 44.8779 145.379 44.8779C144.956 44.8779 144.496 44.7762 144 44.5728C143.503 44.3612 143.141 44.2554 142.913 44.2554C142.889 44.2554 142.482 44.4019 141.692 44.6948C140.903 44.9797 140.236 45.1221 139.69 45.1221H139.422C138.51 45.1221 137.733 44.8332 137.09 44.2554C136.456 43.6776 136.138 42.8556 136.138 41.7896C136.138 40.7235 136.488 39.8934 137.188 39.2993C137.888 38.6971 138.738 38.2861 139.739 38.0664C140.04 38.0013 140.541 37.9159 141.241 37.8101C141.941 37.7043 142.417 37.5944 142.669 37.4805C143.108 37.277 143.328 36.8945 143.328 36.333C143.328 35.7633 143.141 35.3198 142.767 35.0024C142.392 34.6769 141.945 34.5142 141.424 34.5142C140.911 34.5142 140.236 34.7054 139.397 35.0879C138.559 35.4704 138.026 35.6616 137.798 35.6616ZM154.62 33.7085C155.246 33.4725 155.889 33.3545 156.548 33.3545C157.208 33.3545 157.891 33.5498 158.599 33.9404C159.315 34.3311 159.706 34.5264 159.771 34.5264C159.836 34.5264 160.276 34.327 161.089 33.9282C161.903 33.5295 162.636 33.3301 163.287 33.3301C163.946 33.3301 164.487 33.4684 164.91 33.7451C165.341 34.0137 165.667 34.3351 165.887 34.7095C166.302 35.4256 166.509 37.0166 166.509 39.4824C166.509 40.5892 166.517 41.224 166.534 41.3867C166.558 41.5413 166.615 41.8221 166.705 42.229C166.802 42.6278 166.851 42.9574 166.851 43.2178C166.851 43.4701 166.745 43.7345 166.534 44.0112C166.322 44.2879 166.041 44.4263 165.691 44.4263C165 44.4263 164.589 44.1455 164.458 43.584C164.361 43.1771 164.247 41.9889 164.117 40.0195C163.995 38.0501 163.86 36.8945 163.714 36.5527C163.421 35.8366 162.798 35.4785 161.846 35.4785C161.236 35.4785 160.76 35.861 160.418 36.626C159.922 37.7246 159.673 39.2871 159.673 41.3135L159.795 43.0713C159.795 43.6898 159.568 44.1577 159.112 44.4751C158.819 44.6785 158.428 44.7803 157.94 44.7803C157.46 44.7803 157.142 44.7314 156.988 44.6338C156.719 44.471 156.585 44.1252 156.585 43.5962C156.585 43.4985 156.662 43.0998 156.817 42.3999C156.98 41.6919 157.061 40.5444 157.061 38.9575C157.061 37.3625 156.943 36.3493 156.707 35.918C156.471 35.4785 156.06 35.2588 155.474 35.2588C154.888 35.2588 154.367 35.4582 153.912 35.8569C153.464 36.2557 153.134 36.6911 152.923 37.1631C152.719 37.6351 152.536 38.7581 152.374 40.5322C152.219 42.3063 152.109 43.3236 152.044 43.584C151.93 44.0316 151.6 44.2554 151.055 44.2554C150.518 44.2554 150.148 44.0967 149.944 43.7793C149.749 43.4538 149.651 43.0591 149.651 42.5952L149.712 42.168L149.944 41.3257C150.042 40.9351 150.099 40.4793 150.115 39.9585C150.237 36.7277 150.331 34.8844 150.396 34.4287C150.461 33.973 150.754 33.7451 151.275 33.7451L153.094 34.0503C153.484 34.0503 153.993 33.9364 154.62 33.7085ZM178.448 37.9565C178.448 36.8742 178.22 36.0278 177.764 35.4175C177.317 34.799 176.779 34.4897 176.153 34.4897H175.799C174.92 34.4897 174.224 34.8397 173.711 35.5396C173.199 36.2313 172.942 37.2526 172.942 38.6035L172.918 38.8477L172.869 40.1172V40.9717C172.869 41.8587 173.048 42.4854 173.406 42.8516C173.772 43.2096 174.289 43.3887 174.957 43.3887H175.188C176.108 43.3887 176.877 42.9655 177.496 42.1191C178.114 41.2728 178.423 40.2433 178.423 39.0308L178.448 38.7622V37.9565ZM171.807 33.3667L173.516 33.6597C173.695 33.6597 174.114 33.5417 174.773 33.3057C175.433 33.0697 176.08 32.9517 176.714 32.9517C178 32.9517 179.042 33.4033 179.839 34.3066C180.637 35.2018 181.036 36.4103 181.036 37.9321V38.2373C181.036 39.2627 180.865 40.2067 180.523 41.0693C179.823 42.8516 178.655 44.0031 177.02 44.5239C176.556 44.6704 175.933 44.7721 175.152 44.8291C174.379 44.8861 173.829 44.9878 173.504 45.1343C173.007 45.3621 172.759 45.7731 172.759 46.3672C172.759 46.6195 172.804 46.9613 172.894 47.3926C172.991 47.8239 173.04 48.2227 173.04 48.5889C173.04 48.9551 172.833 49.3132 172.417 49.6631C172.002 50.0212 171.486 50.2002 170.867 50.2002H170.611C169.878 50.2002 169.512 49.9316 169.512 49.3945V49.1626C169.512 49.0487 169.59 48.7272 169.744 48.1982C169.907 47.6774 170.021 47.1159 170.086 46.5137C170.151 45.9196 170.257 44.4344 170.403 42.0581C170.55 39.6818 170.623 38.0583 170.623 37.1875C170.623 36.3086 170.566 35.5721 170.452 34.978C170.346 34.384 170.293 34.0625 170.293 34.0137C170.293 33.5824 170.798 33.3667 171.807 33.3667ZM184.246 28.0322C184.246 27.4382 184.804 27.1411 185.918 27.1411H186.138C186.602 27.1411 186.919 27.255 187.09 27.4829C187.261 27.7026 187.347 28.134 187.347 28.7769L187.249 30.5957C187.225 30.8805 187.212 31.0352 187.212 31.0596L187.188 31.5234C187.172 31.8245 187.155 32.1297 187.139 32.439L187.103 32.9028L187.066 33.5986C186.936 36.0726 186.871 37.8996 186.871 39.0796C186.871 40.2515 186.924 41.0938 187.029 41.6064C187.135 42.1191 187.302 42.5545 187.53 42.9126C187.758 43.2707 187.872 43.5067 187.872 43.6206V43.7671C187.872 44.1252 187.693 44.41 187.334 44.6216C186.985 44.8332 186.508 44.939 185.906 44.939H185.271C184.897 44.939 184.568 44.8332 184.283 44.6216C184.006 44.4019 183.868 44.1536 183.868 43.877V43.5474L183.941 43.0347C184.039 42.3267 184.096 41.7977 184.112 41.4478C184.136 41.0897 184.173 40.5973 184.222 39.9707C184.271 39.3359 184.348 37.9891 184.454 35.9302C184.568 33.8631 184.625 32.7523 184.625 32.5977L184.673 31.6821L184.698 30.7788C184.698 29.9162 184.62 29.3018 184.466 28.9355C184.319 28.5612 184.246 28.2601 184.246 28.0322ZM192.925 37.5781V37.7734C192.925 38.0176 193.149 38.1396 193.597 38.1396H193.89L193.963 38.1274L194.561 38.0786C195.188 37.9891 195.595 37.9443 195.782 37.9443C196.669 37.9443 197.336 37.7775 197.784 37.4438C197.995 37.2811 198.101 36.9922 198.101 36.5771V36.4429C198.101 35.8325 197.898 35.3483 197.491 34.9902C197.092 34.6322 196.612 34.4531 196.05 34.4531H195.965L195.892 34.4653C195.102 34.4653 194.41 34.799 193.816 35.4663C193.222 36.1336 192.925 36.8376 192.925 37.5781ZM195.586 45.1587H195.318C193.764 45.1587 192.527 44.6663 191.607 43.6816C190.687 42.6888 190.228 41.3664 190.228 39.7144V39.1772C190.228 38.3879 190.382 37.5863 190.691 36.7725C191.318 35.1449 192.339 34.0218 193.755 33.4033C194.504 33.0697 195.265 32.9028 196.038 32.9028H196.563C197.629 32.9028 198.528 33.2609 199.261 33.9771C200.001 34.6851 200.372 35.6006 200.372 36.7236V36.9678C200.372 37.7653 200.054 38.3309 199.419 38.6646C198.98 38.9006 197.955 39.1366 196.343 39.3726C194.732 39.6086 193.853 39.751 193.707 39.7998C193.218 39.9707 192.974 40.2962 192.974 40.7764C192.974 41.4437 193.259 42.0133 193.829 42.4854C194.398 42.9574 195.163 43.1934 196.124 43.1934C196.571 43.1934 197.181 43.0713 197.955 42.8271C198.728 42.583 199.175 42.4609 199.297 42.4609C199.712 42.4609 199.92 42.64 199.92 42.998C199.92 43.4782 199.452 43.9583 198.516 44.4385C197.58 44.9186 196.604 45.1587 195.586 45.1587ZM204.742 45.1953H204.363C203.956 45.1953 203.639 45.1017 203.411 44.9146C203.191 44.7274 203.082 44.4792 203.082 44.1699C203.065 44.1048 203.057 44.0519 203.057 44.0112L203.033 43.8037V43.584L203.045 43.5352V43.4253C203.061 43.3602 203.069 43.3073 203.069 43.2666C203.069 42.9004 203.191 42.6156 203.436 42.4121C203.688 42.2005 203.965 42.0947 204.266 42.0947L204.522 42.0581H204.852C205.739 42.0581 206.182 42.522 206.182 43.4497V43.6206L206.133 44.0356C206.133 44.41 205.991 44.6989 205.706 44.9023C205.429 45.0977 205.108 45.1953 204.742 45.1953ZM219.244 44.9512H218.548C217.84 44.9512 217.291 44.8617 216.9 44.6826C216.517 44.5036 216.326 44.2839 216.326 44.0234C216.326 43.7549 216.481 43.3805 216.79 42.9004C217.099 42.4121 217.303 41.8709 217.4 41.2769C217.612 40.0073 217.718 38.4896 217.718 36.7236C217.718 36.7155 217.73 36.4714 217.754 35.9912L217.803 35.0391L217.84 33.3789C217.84 32.0931 217.799 31.2834 217.718 30.9497C217.636 30.6079 217.486 30.2661 217.266 29.9243C217.055 29.5744 216.949 29.2977 216.949 29.0942C216.949 28.2804 217.811 27.8735 219.537 27.8735H220C220.513 27.8735 220.912 27.9753 221.197 28.1787C221.49 28.374 221.636 28.5775 221.636 28.7891V28.9722C221.636 29.0861 221.51 29.3547 221.258 29.7778C221.014 30.201 220.859 30.5957 220.794 30.9619C220.534 32.3942 220.403 34.3921 220.403 36.9556L220.318 38.6523C220.31 38.8151 220.306 38.9738 220.306 39.1284L220.269 39.8486L220.245 40.7764C220.245 41.5739 220.289 42.1029 220.379 42.3633C220.477 42.6237 220.599 42.8841 220.745 43.1445C220.892 43.4049 220.965 43.6776 220.965 43.9624C220.965 44.2472 220.79 44.4832 220.44 44.6704C220.098 44.8576 219.699 44.9512 219.244 44.9512ZM235.613 43.5352C235.613 44.1374 235.088 44.4385 234.039 44.4385C233.444 44.4385 233.046 44.2961 232.842 44.0112C232.745 43.8729 232.696 43.5474 232.696 43.0347L232.659 42.2534C232.602 41.3989 232.574 40.5404 232.574 39.6777C232.574 37.8141 232.411 36.5649 232.085 35.9302C231.768 35.2873 231.231 34.9658 230.474 34.9658C229.97 34.9658 229.502 35.1164 229.07 35.4175C228.647 35.7186 228.322 36.1377 228.094 36.6748C227.622 37.7734 227.386 39.8039 227.386 42.7661C227.386 43.4416 227.256 43.9176 226.995 44.1943C226.743 44.471 226.417 44.6094 226.019 44.6094H225.774C224.863 44.6094 224.407 44.2472 224.407 43.5229V43.23C224.407 43.1405 224.456 42.9451 224.554 42.644L224.749 42.0825C224.944 41.4233 225.042 40.0114 225.042 37.8467L225.103 34.2212C225.103 33.7573 225.355 33.5254 225.86 33.5254C226.364 33.5254 226.861 33.6922 227.349 34.0259C227.846 34.3595 228.159 34.5264 228.289 34.5264C228.427 34.5264 228.667 34.4328 229.009 34.2456C230.157 33.619 231.076 33.3057 231.768 33.3057H232.085C233.331 33.3057 234.205 33.8672 234.71 34.9902C234.954 35.5192 235.076 36.6585 235.076 38.4082V38.4937C235.076 38.6401 235.072 38.7866 235.064 38.9331C235.064 39.3319 235.064 39.5394 235.064 39.5557C235.064 39.7103 235.064 39.8608 235.064 40.0073C235.064 40.1213 235.064 40.2311 235.064 40.3369C235.064 40.9635 235.084 41.3908 235.125 41.6187C235.182 41.9279 235.276 42.2493 235.406 42.583C235.544 42.9492 235.613 43.2666 235.613 43.5352ZM240.374 45.8911H240.093C239.686 45.8911 239.34 45.7731 239.056 45.5371C238.779 45.3011 238.641 45.0203 238.641 44.6948C238.641 44.3693 238.738 43.9543 238.934 43.4497C239.137 42.937 239.284 42.3145 239.373 41.582C239.471 40.8415 239.52 39.7591 239.52 38.335C239.52 36.9108 239.45 36.0034 239.312 35.6128C239.288 35.5477 239.174 35.332 238.97 34.9658C238.767 34.5915 238.665 34.2741 238.665 34.0137C238.665 33.7533 238.799 33.4196 239.068 33.0127C239.345 32.6058 239.528 32.3047 239.617 32.1094C240.716 29.79 241.29 28.6019 241.338 28.5449C242.185 27.5602 243.328 27.0679 244.769 27.0679C245.436 27.0679 245.949 27.1818 246.307 27.4097C246.665 27.6375 246.844 27.9346 246.844 28.3008C246.844 28.6589 246.632 28.9193 246.209 29.082C246.095 29.1227 245.944 29.1431 245.757 29.1431C245.619 29.1349 245.46 29.1227 245.281 29.1064C244.858 29.0576 244.549 29.0332 244.354 29.0332C243.825 29.0332 243.393 29.2611 243.06 29.7168C242.734 30.1644 242.571 30.6812 242.571 31.2671C242.571 31.853 242.689 32.2803 242.925 32.5488C242.999 32.6302 243.344 32.8337 243.963 33.1592C244.59 33.4766 244.903 33.798 244.903 34.1235C244.903 34.3026 244.553 34.5793 243.853 34.9536C243.357 35.214 242.99 35.6779 242.754 36.3452C242.242 37.7775 241.985 39.6615 241.985 41.9971L242.217 44.0601C242.217 44.6216 242.05 45.0651 241.717 45.3906C241.391 45.7243 240.944 45.8911 240.374 45.8911ZM248.333 28.0322C248.333 27.4382 248.89 27.1411 250.005 27.1411H250.225C250.689 27.1411 251.006 27.255 251.177 27.4829C251.348 27.7026 251.434 28.134 251.434 28.7769L251.336 30.5957C251.312 30.8805 251.299 31.0352 251.299 31.0596L251.275 31.5234C251.259 31.8245 251.242 32.1297 251.226 32.439L251.189 32.9028L251.153 33.5986C251.023 36.0726 250.958 37.8996 250.958 39.0796C250.958 40.2515 251.01 41.0938 251.116 41.6064C251.222 42.1191 251.389 42.5545 251.617 42.9126C251.845 43.2707 251.958 43.5067 251.958 43.6206V43.7671C251.958 44.1252 251.779 44.41 251.421 44.6216C251.071 44.8332 250.595 44.939 249.993 44.939H249.358C248.984 44.939 248.654 44.8332 248.37 44.6216C248.093 44.4019 247.955 44.1536 247.955 43.877V43.5474L248.028 43.0347C248.125 42.3267 248.182 41.7977 248.199 41.4478C248.223 41.0897 248.26 40.5973 248.309 39.9707C248.357 39.3359 248.435 37.9891 248.541 35.9302C248.654 33.8631 248.711 32.7523 248.711 32.5977L248.76 31.6821L248.785 30.7788C248.785 29.9162 248.707 29.3018 248.553 28.9355C248.406 28.5612 248.333 28.2601 248.333 28.0322ZM254.913 34.0259C254.913 33.5132 255.344 33.2568 256.207 33.2568H256.487C257.024 33.2568 257.387 33.4725 257.574 33.9038C257.761 34.3351 257.854 35.1408 257.854 36.3208L257.708 40.3979C257.708 42.2941 258.388 43.2422 259.747 43.2422C260.243 43.2422 260.719 43.0672 261.175 42.7173C261.631 42.3674 261.968 41.9482 262.188 41.46C262.668 40.3857 262.908 38.4611 262.908 35.686L262.884 35.1489V34.6729C262.884 34.2415 262.981 33.9282 263.177 33.7329C263.372 33.5376 263.714 33.4399 264.202 33.4399C264.69 33.4399 265.012 33.5579 265.167 33.7939C265.321 34.0299 265.398 34.4124 265.398 34.9414L265.374 35.5884L265.325 38.4692C265.325 38.9331 265.354 39.6452 265.411 40.6055C265.468 41.5658 265.529 42.2697 265.594 42.7173C265.659 43.1567 265.691 43.4172 265.691 43.4985C265.691 44.2228 265.158 44.585 264.092 44.585C263.726 44.585 263.36 44.4507 262.994 44.1821C262.636 43.9054 262.379 43.7671 262.225 43.7671C262.078 43.7671 261.826 43.8566 261.468 44.0356C260.451 44.5483 259.584 44.8047 258.868 44.8047H258.562C257.399 44.8047 256.544 44.4466 255.999 43.7305C255.454 43.0143 255.181 41.7244 255.181 39.8608L255.303 36.1621C255.303 35.6982 255.238 35.2547 255.108 34.8315C254.978 34.4084 254.913 34.1398 254.913 34.0259ZM270.953 37.5781V37.7734C270.953 38.0176 271.176 38.1396 271.624 38.1396H271.917L271.99 38.1274L272.588 38.0786C273.215 37.9891 273.622 37.9443 273.809 37.9443C274.696 37.9443 275.363 37.7775 275.811 37.4438C276.023 37.2811 276.128 36.9922 276.128 36.5771V36.4429C276.128 35.8325 275.925 35.3483 275.518 34.9902C275.119 34.6322 274.639 34.4531 274.078 34.4531H273.992L273.919 34.4653C273.13 34.4653 272.438 34.799 271.844 35.4663C271.25 36.1336 270.953 36.8376 270.953 37.5781ZM273.614 45.1587H273.345C271.791 45.1587 270.554 44.6663 269.634 43.6816C268.715 42.6888 268.255 41.3664 268.255 39.7144V39.1772C268.255 38.3879 268.41 37.5863 268.719 36.7725C269.345 35.1449 270.367 34.0218 271.783 33.4033C272.531 33.0697 273.292 32.9028 274.065 32.9028H274.59C275.656 32.9028 276.556 33.2609 277.288 33.9771C278.029 34.6851 278.399 35.6006 278.399 36.7236V36.9678C278.399 37.7653 278.082 38.3309 277.447 38.6646C277.007 38.9006 275.982 39.1366 274.371 39.3726C272.759 39.6086 271.88 39.751 271.734 39.7998C271.246 39.9707 271.001 40.2962 271.001 40.7764C271.001 41.4437 271.286 42.0133 271.856 42.4854C272.426 42.9574 273.191 43.1934 274.151 43.1934C274.598 43.1934 275.209 43.0713 275.982 42.8271C276.755 42.583 277.203 42.4609 277.325 42.4609C277.74 42.4609 277.947 42.64 277.947 42.998C277.947 43.4782 277.479 43.9583 276.543 44.4385C275.608 44.9186 274.631 45.1587 273.614 45.1587ZM292.254 43.5352C292.254 44.1374 291.729 44.4385 290.679 44.4385C290.085 44.4385 289.686 44.2961 289.483 44.0112C289.385 43.8729 289.336 43.5474 289.336 43.0347L289.3 42.2534C289.243 41.3989 289.214 40.5404 289.214 39.6777C289.214 37.8141 289.052 36.5649 288.726 35.9302C288.409 35.2873 287.872 34.9658 287.115 34.9658C286.61 34.9658 286.142 35.1164 285.711 35.4175C285.288 35.7186 284.962 36.1377 284.734 36.6748C284.262 37.7734 284.026 39.8039 284.026 42.7661C284.026 43.4416 283.896 43.9176 283.636 44.1943C283.383 44.471 283.058 44.6094 282.659 44.6094H282.415C281.504 44.6094 281.048 44.2472 281.048 43.5229V43.23C281.048 43.1405 281.097 42.9451 281.194 42.644L281.39 42.0825C281.585 41.4233 281.683 40.0114 281.683 37.8467L281.744 34.2212C281.744 33.7573 281.996 33.5254 282.5 33.5254C283.005 33.5254 283.501 33.6922 283.99 34.0259C284.486 34.3595 284.799 34.5264 284.93 34.5264C285.068 34.5264 285.308 34.4328 285.65 34.2456C286.797 33.619 287.717 33.3057 288.409 33.3057H288.726C289.971 33.3057 290.846 33.8672 291.351 34.9902C291.595 35.5192 291.717 36.6585 291.717 38.4082V38.4937C291.717 38.6401 291.713 38.7866 291.705 38.9331C291.705 39.3319 291.705 39.5394 291.705 39.5557C291.705 39.7103 291.705 39.8608 291.705 40.0073C291.705 40.1213 291.705 40.2311 291.705 40.3369C291.705 40.9635 291.725 41.3908 291.766 41.6187C291.823 41.9279 291.916 42.2493 292.046 42.583C292.185 42.9492 292.254 43.2666 292.254 43.5352ZM294.708 39.9219V39.3604C294.708 38.335 294.866 37.4276 295.184 36.6382C295.794 35.1082 296.73 34.0503 297.991 33.4644C298.813 33.0737 299.664 32.8784 300.542 32.8784H300.811C301.779 32.8784 302.581 33.0697 303.216 33.4521C303.851 33.8346 304.168 34.3026 304.168 34.856C304.168 35.4989 303.859 35.8203 303.24 35.8203C303.126 35.8203 302.728 35.6413 302.044 35.2832C301.36 34.9333 300.799 34.7583 300.359 34.7583C300.351 34.7583 300.343 34.7583 300.335 34.7583C299.375 34.7583 298.622 35.1733 298.077 36.0034C297.54 36.8335 297.271 37.9159 297.271 39.2505C297.271 40.5851 297.556 41.5739 298.125 42.2168C298.703 42.8597 299.505 43.1812 300.53 43.1812C300.953 43.1812 301.535 43.0632 302.276 42.8271C303.016 42.583 303.468 42.4609 303.631 42.4609C303.965 42.4609 304.131 42.6359 304.131 42.9858C304.131 43.4578 303.663 43.9339 302.728 44.4141C301.792 44.8942 300.872 45.1343 299.969 45.1343C297.552 45.1343 295.953 44.1821 295.171 42.2778C294.862 41.521 294.708 40.7357 294.708 39.9219ZM308.917 37.5781V37.7734C308.917 38.0176 309.14 38.1396 309.588 38.1396H309.881L309.954 38.1274L310.552 38.0786C311.179 37.9891 311.586 37.9443 311.773 37.9443C312.66 37.9443 313.327 37.7775 313.775 37.4438C313.986 37.2811 314.092 36.9922 314.092 36.5771V36.4429C314.092 35.8325 313.889 35.3483 313.482 34.9902C313.083 34.6322 312.603 34.4531 312.042 34.4531H311.956L311.883 34.4653C311.093 34.4653 310.402 34.799 309.808 35.4663C309.214 36.1336 308.917 36.8376 308.917 37.5781ZM311.578 45.1587H311.309C309.755 45.1587 308.518 44.6663 307.598 43.6816C306.679 42.6888 306.219 41.3664 306.219 39.7144V39.1772C306.219 38.3879 306.373 37.5863 306.683 36.7725C307.309 35.1449 308.331 34.0218 309.747 33.4033C310.495 33.0697 311.256 32.9028 312.029 32.9028H312.554C313.62 32.9028 314.52 33.2609 315.252 33.9771C315.993 34.6851 316.363 35.6006 316.363 36.7236V36.9678C316.363 37.7653 316.045 38.3309 315.411 38.6646C314.971 38.9006 313.946 39.1366 312.334 39.3726C310.723 39.6086 309.844 39.751 309.698 39.7998C309.209 39.9707 308.965 40.2962 308.965 40.7764C308.965 41.4437 309.25 42.0133 309.82 42.4854C310.389 42.9574 311.154 43.1934 312.115 43.1934C312.562 43.1934 313.173 43.0713 313.946 42.8271C314.719 42.583 315.167 42.4609 315.289 42.4609C315.704 42.4609 315.911 42.64 315.911 42.998C315.911 43.4782 315.443 43.9583 314.507 44.4385C313.571 44.9186 312.595 45.1587 311.578 45.1587ZM319.878 38.1885C319.382 37.6839 319.134 36.9759 319.134 36.0645C319.134 35.153 319.541 34.3717 320.354 33.7207C321.168 33.0615 322.177 32.7319 323.382 32.7319H323.699C324.765 32.7319 325.612 32.8825 326.238 33.1836C326.873 33.4847 327.19 33.9364 327.19 34.5386C327.19 35.1326 326.926 35.4297 326.397 35.4297C326.259 35.4297 325.868 35.2669 325.225 34.9414C324.582 34.6077 323.976 34.4409 323.406 34.4409C322.837 34.4409 322.377 34.5711 322.027 34.8315C321.685 35.0838 321.514 35.4338 321.514 35.8813C321.514 36.3289 321.754 36.7196 322.234 37.0532C322.511 37.2485 323.162 37.5578 324.188 37.981C325.221 38.4041 325.958 38.811 326.397 39.2017C327.105 39.8283 327.459 40.6299 327.459 41.6064C327.459 42.583 327.044 43.4212 326.214 44.1211C325.384 44.8128 324.306 45.1587 322.979 45.1587H322.662C321.327 45.1587 320.326 44.9674 319.659 44.585C318.991 44.1943 318.658 43.6898 318.658 43.0713C318.658 42.4447 318.918 42.1313 319.439 42.1313C319.61 42.1313 320.053 42.3511 320.77 42.7905C321.494 43.23 322.202 43.4497 322.894 43.4497C323.593 43.4497 324.118 43.3032 324.468 43.0103C324.818 42.7091 324.993 42.3348 324.993 41.8872C324.993 41.4315 324.773 41.0327 324.334 40.6909C324.098 40.5037 323.423 40.166 322.308 39.6777C321.193 39.1813 320.383 38.6849 319.878 38.1885ZM339.068 39.8486C339.068 40.9147 339.312 41.8018 339.8 42.5098C340.289 43.2178 340.887 43.5718 341.595 43.5718H341.961C342.799 43.5718 343.507 43.1486 344.085 42.3022C344.671 41.4559 344.964 40.3288 344.964 38.9209V38.1152C344.964 37.0247 344.724 36.1336 344.244 35.4419C343.772 34.742 343.161 34.3921 342.413 34.3921H342.168C341.298 34.3921 340.565 34.8234 339.971 35.686C339.385 36.5487 339.092 37.5781 339.092 38.7744L339.068 39.0552V39.8486ZM341.827 45.2319H341.436C340.012 45.2319 338.852 44.7355 337.957 43.7427C337.062 42.7498 336.614 41.342 336.614 39.519L336.626 39.3115C336.626 37.3096 337.155 35.7308 338.213 34.5752C338.767 33.9648 339.397 33.5173 340.105 33.2324C340.822 32.9395 341.501 32.793 342.144 32.793H342.742C343.458 32.793 344.146 32.9517 344.805 33.269C346.693 34.1805 347.637 35.8976 347.637 38.4204V38.6157C347.629 39.4377 347.495 40.2718 347.234 41.1182C346.714 42.7865 345.713 43.9665 344.231 44.6582C343.41 45.0407 342.608 45.2319 341.827 45.2319ZM356.5 43.6938C356.5 44.0194 356.3 44.3123 355.901 44.5728C355.511 44.825 354.978 44.9512 354.302 44.9512C353.041 44.9512 352.154 44.4832 351.641 43.5474C351.324 42.9614 351.165 41.5902 351.165 39.4336C351.165 37.277 351.128 36.0238 351.055 35.6738C350.982 35.3239 350.778 34.9821 350.445 34.6484C350.111 34.3148 349.944 34.0584 349.944 33.8794C349.944 33.8143 350.339 33.387 351.128 32.5977C351.299 32.4268 351.47 32.0483 351.641 31.4624C351.82 30.8765 351.946 30.4899 352.02 30.3027C352.264 29.7168 352.585 29.4238 352.984 29.4238H353.179C353.529 29.4238 353.777 29.5581 353.924 29.8267C353.981 29.9325 354.066 30.3149 354.18 30.9741C354.302 31.6252 354.441 32.0443 354.595 32.2314C354.75 32.4186 355.136 32.6261 355.755 32.854C356.382 33.0737 356.695 33.3097 356.695 33.562V33.6963C356.695 34.0218 356.337 34.2985 355.621 34.5264C354.913 34.7461 354.457 35.1001 354.253 35.5884C353.855 36.5731 353.655 38.1763 353.655 40.3979C353.655 41.4396 353.834 42.1476 354.192 42.522C354.412 42.7498 354.852 42.9085 355.511 42.998C356.17 43.0876 356.5 43.3195 356.5 43.6938ZM360.784 44.7681C359.824 44.7681 359.344 44.4263 359.344 43.7427C359.344 43.4334 359.417 42.9736 359.563 42.3633C359.718 41.7529 359.82 41.1914 359.869 40.6787C359.917 40.1579 360.003 38.4814 360.125 35.6494C360.255 32.8174 360.32 31.0921 360.32 30.4736V29.0332L360.247 28.0078C360.247 27.6253 360.597 27.4341 361.297 27.4341C362.005 27.4341 362.465 27.7067 362.676 28.252C362.782 28.5286 362.835 29.432 362.835 30.9619C362.835 32.4919 362.863 33.3626 362.92 33.5742C362.986 33.7858 363.152 33.8916 363.421 33.8916C363.453 33.8916 363.608 33.8428 363.885 33.7451L364.153 33.6475C365.024 33.3057 365.777 33.1348 366.412 33.1348C367.746 33.1348 368.694 33.6556 369.256 34.6973C369.63 35.389 369.817 36.8945 369.817 39.2139C369.817 40.3044 369.826 40.9513 369.842 41.1548C369.858 41.3582 369.911 41.7285 370 42.2656C370.09 42.7946 370.135 43.0876 370.135 43.1445C370.135 43.6247 370.025 43.9827 369.805 44.2188C369.594 44.4466 369.207 44.5605 368.646 44.5605C368.092 44.5605 367.73 44.3896 367.559 44.0479C367.47 43.8688 367.425 43.3521 367.425 42.4976L367.388 40.3491L367.425 38.4082C367.425 36.2354 366.79 35.1489 365.521 35.1489C364.397 35.1489 363.596 35.6209 363.116 36.5649C362.636 37.509 362.396 39.2586 362.396 41.814L362.432 43.1445C362.432 43.6003 362.29 43.9868 362.005 44.3042C361.72 44.6134 361.313 44.7681 360.784 44.7681ZM375.469 37.5781V37.7734C375.469 38.0176 375.693 38.1396 376.141 38.1396H376.434L376.507 38.1274L377.105 38.0786C377.732 37.9891 378.139 37.9443 378.326 37.9443C379.213 37.9443 379.88 37.7775 380.328 37.4438C380.539 37.2811 380.645 36.9922 380.645 36.5771V36.4429C380.645 35.8325 380.442 35.3483 380.035 34.9902C379.636 34.6322 379.156 34.4531 378.594 34.4531H378.509L378.436 34.4653C377.646 34.4653 376.954 34.799 376.36 35.4663C375.766 36.1336 375.469 36.8376 375.469 37.5781ZM378.13 45.1587H377.862C376.307 45.1587 375.07 44.6663 374.151 43.6816C373.231 42.6888 372.771 41.3664 372.771 39.7144V39.1772C372.771 38.3879 372.926 37.5863 373.235 36.7725C373.862 35.1449 374.883 34.0218 376.299 33.4033C377.048 33.0697 377.809 32.9028 378.582 32.9028H379.107C380.173 32.9028 381.072 33.2609 381.805 33.9771C382.545 34.6851 382.916 35.6006 382.916 36.7236V36.9678C382.916 37.7653 382.598 38.3309 381.963 38.6646C381.524 38.9006 380.499 39.1366 378.887 39.3726C377.276 39.6086 376.397 39.751 376.25 39.7998C375.762 39.9707 375.518 40.2962 375.518 40.7764C375.518 41.4437 375.803 42.0133 376.373 42.4854C376.942 42.9574 377.707 43.1934 378.667 43.1934C379.115 43.1934 379.725 43.0713 380.499 42.8271C381.272 42.583 381.719 42.4609 381.841 42.4609C382.256 42.4609 382.464 42.64 382.464 42.998C382.464 43.4782 381.996 43.9583 381.06 44.4385C380.124 44.9186 379.148 45.1587 378.13 45.1587ZM386.346 38.6523V37.7124C386.346 36.5812 386.285 35.7552 386.163 35.2344C386.041 34.7054 385.979 34.3351 385.979 34.1235C385.979 33.6271 386.342 33.3789 387.066 33.3789C387.79 33.3789 388.315 33.5132 388.641 33.7817C388.73 33.855 388.844 33.9974 388.982 34.209C389.129 34.4206 389.259 34.5264 389.373 34.5264C389.397 34.5264 389.751 34.3188 390.435 33.9038C391.119 33.4888 391.705 33.2812 392.193 33.2812H392.376C392.775 33.2812 393.092 33.3789 393.328 33.5742C393.564 33.7614 393.682 33.9933 393.682 34.27V34.4287C393.682 34.7624 393.564 35.0024 393.328 35.1489C393.1 35.2954 392.734 35.3687 392.229 35.3687C391.082 35.3687 390.244 35.7715 389.715 36.5771C389.194 37.3828 388.934 38.807 388.934 40.8496C388.934 41.1426 388.982 41.5942 389.08 42.2046C389.186 42.8149 389.239 43.2747 389.239 43.584C389.239 43.8932 389.072 44.1903 388.738 44.4751C388.405 44.7599 387.981 44.9023 387.469 44.9023H387.054C386.606 44.9023 386.26 44.7965 386.016 44.585C385.78 44.3652 385.662 44.1007 385.662 43.7915C385.662 43.4741 385.719 43.1527 385.833 42.8271C386.142 41.9482 386.297 40.9798 386.297 39.9219C386.329 39.3359 386.346 38.9128 386.346 38.6523ZM396.563 38.1885C396.067 37.6839 395.818 36.9759 395.818 36.0645C395.818 35.153 396.225 34.3717 397.039 33.7207C397.853 33.0615 398.862 32.7319 400.066 32.7319H400.384C401.45 32.7319 402.296 32.8825 402.923 33.1836C403.558 33.4847 403.875 33.9364 403.875 34.5386C403.875 35.1326 403.611 35.4297 403.082 35.4297C402.943 35.4297 402.553 35.2669 401.91 34.9414C401.267 34.6077 400.66 34.4409 400.091 34.4409C399.521 34.4409 399.061 34.5711 398.711 34.8315C398.37 35.0838 398.199 35.4338 398.199 35.8813C398.199 36.3289 398.439 36.7196 398.919 37.0532C399.196 37.2485 399.847 37.5578 400.872 37.981C401.906 38.4041 402.642 38.811 403.082 39.2017C403.79 39.8283 404.144 40.6299 404.144 41.6064C404.144 42.583 403.729 43.4212 402.898 44.1211C402.068 44.8128 400.99 45.1587 399.664 45.1587H399.346C398.012 45.1587 397.011 44.9674 396.343 44.585C395.676 44.1943 395.342 43.6898 395.342 43.0713C395.342 42.4447 395.603 42.1313 396.124 42.1313C396.294 42.1313 396.738 42.3511 397.454 42.7905C398.178 43.23 398.886 43.4497 399.578 43.4497C400.278 43.4497 400.803 43.3032 401.153 43.0103C401.503 42.7091 401.678 42.3348 401.678 41.8872C401.678 41.4315 401.458 41.0327 401.019 40.6909C400.783 40.5037 400.107 40.166 398.992 39.6777C397.877 39.1813 397.068 38.6849 396.563 38.1885ZM422.198 37.9565C422.198 36.8742 421.97 36.0278 421.514 35.4175C421.067 34.799 420.529 34.4897 419.903 34.4897H419.549C418.67 34.4897 417.974 34.8397 417.461 35.5396C416.949 36.2313 416.692 37.2526 416.692 38.6035L416.668 38.8477L416.619 40.1172V40.9717C416.619 41.8587 416.798 42.4854 417.156 42.8516C417.522 43.2096 418.039 43.3887 418.707 43.3887H418.938C419.858 43.3887 420.627 42.9655 421.246 42.1191C421.864 41.2728 422.173 40.2433 422.173 39.0308L422.198 38.7622V37.9565ZM415.557 33.3667L417.266 33.6597C417.445 33.6597 417.864 33.5417 418.523 33.3057C419.183 33.0697 419.83 32.9517 420.464 32.9517C421.75 32.9517 422.792 33.4033 423.589 34.3066C424.387 35.2018 424.786 36.4103 424.786 37.9321V38.2373C424.786 39.2627 424.615 40.2067 424.273 41.0693C423.573 42.8516 422.405 44.0031 420.77 44.5239C420.306 44.6704 419.683 44.7721 418.902 44.8291C418.129 44.8861 417.579 44.9878 417.254 45.1343C416.757 45.3621 416.509 45.7731 416.509 46.3672C416.509 46.6195 416.554 46.9613 416.644 47.3926C416.741 47.8239 416.79 48.2227 416.79 48.5889C416.79 48.9551 416.583 49.3132 416.167 49.6631C415.752 50.0212 415.236 50.2002 414.617 50.2002H414.361C413.628 50.2002 413.262 49.9316 413.262 49.3945V49.1626C413.262 49.0487 413.34 48.7272 413.494 48.1982C413.657 47.6774 413.771 47.1159 413.836 46.5137C413.901 45.9196 414.007 44.4344 414.153 42.0581C414.3 39.6818 414.373 38.0583 414.373 37.1875C414.373 36.3086 414.316 35.5721 414.202 34.978C414.096 34.384 414.043 34.0625 414.043 34.0137C414.043 33.5824 414.548 33.3667 415.557 33.3667ZM429.449 39.8486C429.449 40.9147 429.693 41.8018 430.181 42.5098C430.669 43.2178 431.268 43.5718 431.976 43.5718H432.342C433.18 43.5718 433.888 43.1486 434.466 42.3022C435.052 41.4559 435.345 40.3288 435.345 38.9209V38.1152C435.345 37.0247 435.105 36.1336 434.625 35.4419C434.153 34.742 433.542 34.3921 432.793 34.3921H432.549C431.679 34.3921 430.946 34.8234 430.352 35.686C429.766 36.5487 429.473 37.5781 429.473 38.7744L429.449 39.0552V39.8486ZM432.208 45.2319H431.817C430.393 45.2319 429.233 44.7355 428.338 43.7427C427.443 42.7498 426.995 41.342 426.995 39.519L427.007 39.3115C427.007 37.3096 427.536 35.7308 428.594 34.5752C429.148 33.9648 429.778 33.5173 430.486 33.2324C431.202 32.9395 431.882 32.793 432.525 32.793H433.123C433.839 32.793 434.527 32.9517 435.186 33.269C437.074 34.1805 438.018 35.8976 438.018 38.4204V38.6157C438.01 39.4377 437.876 40.2718 437.615 41.1182C437.094 42.7865 436.093 43.9665 434.612 44.6582C433.79 45.0407 432.989 45.2319 432.208 45.2319ZM441.46 38.1885C440.964 37.6839 440.716 36.9759 440.716 36.0645C440.716 35.153 441.123 34.3717 441.937 33.7207C442.75 33.0615 443.759 32.7319 444.964 32.7319H445.281C446.347 32.7319 447.194 32.8825 447.82 33.1836C448.455 33.4847 448.772 33.9364 448.772 34.5386C448.772 35.1326 448.508 35.4297 447.979 35.4297C447.841 35.4297 447.45 35.2669 446.807 34.9414C446.164 34.6077 445.558 34.4409 444.988 34.4409C444.419 34.4409 443.959 34.5711 443.609 34.8315C443.267 35.0838 443.096 35.4338 443.096 35.8813C443.096 36.3289 443.336 36.7196 443.816 37.0532C444.093 37.2485 444.744 37.5578 445.77 37.981C446.803 38.4041 447.54 38.811 447.979 39.2017C448.687 39.8283 449.041 40.6299 449.041 41.6064C449.041 42.583 448.626 43.4212 447.796 44.1211C446.966 44.8128 445.888 45.1587 444.561 45.1587H444.244C442.909 45.1587 441.908 44.9674 441.241 44.585C440.573 44.1943 440.24 43.6898 440.24 43.0713C440.24 42.4447 440.5 42.1313 441.021 42.1313C441.192 42.1313 441.635 42.3511 442.352 42.7905C443.076 43.23 443.784 43.4497 444.476 43.4497C445.175 43.4497 445.7 43.3032 446.05 43.0103C446.4 42.7091 446.575 42.3348 446.575 41.8872C446.575 41.4315 446.355 41.0327 445.916 40.6909C445.68 40.5037 445.005 40.166 443.89 39.6777C442.775 39.1813 441.965 38.6849 441.46 38.1885ZM455.633 29.1309V29.2773C455.633 29.6924 455.511 30.0464 455.267 30.3394C455.031 30.6242 454.664 30.7666 454.168 30.7666H453.973L453.594 30.7178C453.375 30.7178 453.163 30.616 452.959 30.4126C452.756 30.2091 452.654 29.904 452.654 29.4971V29.3506L452.715 28.9111C452.715 28.7402 452.817 28.5286 453.021 28.2764C453.232 28.0241 453.501 27.8979 453.826 27.8979L454.107 27.8613H454.351L454.693 27.9102C454.904 27.9102 455.112 28.016 455.315 28.2275C455.527 28.431 455.633 28.7321 455.633 29.1309ZM455.059 34.2822L454.925 37.5659L454.9 37.8955L454.864 38.8965V39.3726C454.864 40.5444 454.896 41.3135 454.961 41.6797C455.035 42.0459 455.169 42.404 455.364 42.7539C455.56 43.0957 455.657 43.3439 455.657 43.4985V43.6084C455.657 44.0072 455.454 44.3245 455.047 44.5605C454.64 44.7965 454.087 44.9146 453.387 44.9146H453.082C452.675 44.9146 452.365 44.825 452.154 44.646C451.942 44.4588 451.836 44.2594 451.836 44.0479V43.7793C451.836 43.6735 451.93 43.2992 452.117 42.6562C452.304 42.0052 452.398 41.1222 452.398 40.0073C452.422 39.6899 452.435 39.4702 452.435 39.3481L452.471 38.6768L452.496 38.3472C452.536 37.7775 452.557 37.334 452.557 37.0166L452.569 36.5283C452.569 35.918 452.467 35.3768 452.264 34.9048C452.068 34.4328 451.971 34.1398 451.971 34.0259C451.971 33.4399 452.524 33.147 453.631 33.147H454.07C454.485 33.147 454.754 33.2568 454.876 33.4766C454.998 33.6882 455.059 33.9567 455.059 34.2822ZM465.044 43.6938C465.044 44.0194 464.845 44.3123 464.446 44.5728C464.056 44.825 463.523 44.9512 462.847 44.9512C461.586 44.9512 460.699 44.4832 460.186 43.5474C459.869 42.9614 459.71 41.5902 459.71 39.4336C459.71 37.277 459.673 36.0238 459.6 35.6738C459.527 35.3239 459.323 34.9821 458.99 34.6484C458.656 34.3148 458.489 34.0584 458.489 33.8794C458.489 33.8143 458.884 33.387 459.673 32.5977C459.844 32.4268 460.015 32.0483 460.186 31.4624C460.365 30.8765 460.491 30.4899 460.564 30.3027C460.809 29.7168 461.13 29.4238 461.529 29.4238H461.724C462.074 29.4238 462.322 29.5581 462.469 29.8267C462.526 29.9325 462.611 30.3149 462.725 30.9741C462.847 31.6252 462.986 32.0443 463.14 32.2314C463.295 32.4186 463.681 32.6261 464.3 32.854C464.926 33.0737 465.24 33.3097 465.24 33.562V33.6963C465.24 34.0218 464.882 34.2985 464.166 34.5264C463.458 34.7461 463.002 35.1001 462.798 35.5884C462.4 36.5731 462.2 38.1763 462.2 40.3979C462.2 41.4396 462.379 42.1476 462.737 42.522C462.957 42.7498 463.396 42.9085 464.056 42.998C464.715 43.0876 465.044 43.3195 465.044 43.6938ZM471.819 29.1309V29.2773C471.819 29.6924 471.697 30.0464 471.453 30.3394C471.217 30.6242 470.851 30.7666 470.354 30.7666H470.159L469.781 30.7178C469.561 30.7178 469.349 30.616 469.146 30.4126C468.943 30.2091 468.841 29.904 468.841 29.4971V29.3506L468.902 28.9111C468.902 28.7402 469.004 28.5286 469.207 28.2764C469.419 28.0241 469.687 27.8979 470.013 27.8979L470.293 27.8613H470.538L470.879 27.9102C471.091 27.9102 471.299 28.016 471.502 28.2275C471.714 28.431 471.819 28.7321 471.819 29.1309ZM471.246 34.2822L471.111 37.5659L471.087 37.8955L471.05 38.8965V39.3726C471.05 40.5444 471.083 41.3135 471.148 41.6797C471.221 42.0459 471.355 42.404 471.551 42.7539C471.746 43.0957 471.844 43.3439 471.844 43.4985V43.6084C471.844 44.0072 471.64 44.3245 471.233 44.5605C470.826 44.7965 470.273 44.9146 469.573 44.9146H469.268C468.861 44.9146 468.552 44.825 468.34 44.646C468.129 44.4588 468.023 44.2594 468.023 44.0479V43.7793C468.023 43.6735 468.117 43.2992 468.304 42.6562C468.491 42.0052 468.584 41.1222 468.584 40.0073C468.609 39.6899 468.621 39.4702 468.621 39.3481L468.658 38.6768L468.682 38.3472C468.723 37.7775 468.743 37.334 468.743 37.0166L468.755 36.5283C468.755 35.918 468.654 35.3768 468.45 34.9048C468.255 34.4328 468.157 34.1398 468.157 34.0259C468.157 33.4399 468.711 33.147 469.817 33.147H470.257C470.672 33.147 470.94 33.2568 471.062 33.4766C471.185 33.6882 471.246 33.9567 471.246 34.2822ZM479.339 44.9878C478.745 44.9878 478.269 44.6094 477.911 43.8525C477.642 43.2829 477.162 41.9198 476.47 39.7632C475.787 37.5985 475.335 36.3086 475.115 35.8936C474.57 34.86 474.297 34.2008 474.297 33.916C474.297 33.623 474.387 33.4115 474.566 33.2812C474.745 33.1429 475.123 33.0737 475.701 33.0737C476.629 33.0737 477.243 33.4155 477.544 34.0991C477.601 34.2212 477.691 34.5996 477.813 35.2344C477.935 35.861 478.057 36.4144 478.179 36.8945L478.423 37.9688C479.034 40.6543 479.502 41.9971 479.827 41.9971C480.047 41.9971 480.665 40.6258 481.683 37.8833C482.146 36.63 482.444 35.6453 482.574 34.9292C482.712 34.2049 482.802 33.8021 482.842 33.7207C483.078 33.2731 483.575 33.0493 484.332 33.0493H484.576C485.129 33.0493 485.406 33.3301 485.406 33.8916C485.406 34.2904 485.284 34.6973 485.04 35.1123C484.795 35.5273 484.226 36.805 483.331 38.9453C482.444 41.0775 481.788 42.526 481.365 43.291C480.942 44.0479 480.592 44.5199 480.315 44.707C480.047 44.8942 479.721 44.9878 479.339 44.9878ZM489.483 37.5781V37.7734C489.483 38.0176 489.707 38.1396 490.154 38.1396H490.447L490.521 38.1274L491.119 38.0786C491.745 37.9891 492.152 37.9443 492.339 37.9443C493.226 37.9443 493.894 37.7775 494.341 37.4438C494.553 37.2811 494.659 36.9922 494.659 36.5771V36.4429C494.659 35.8325 494.455 35.3483 494.048 34.9902C493.65 34.6322 493.169 34.4531 492.608 34.4531H492.522L492.449 34.4653C491.66 34.4653 490.968 34.799 490.374 35.4663C489.78 36.1336 489.483 36.8376 489.483 37.5781ZM492.144 45.1587H491.875C490.321 45.1587 489.084 44.6663 488.165 43.6816C487.245 42.6888 486.785 41.3664 486.785 39.7144V39.1772C486.785 38.3879 486.94 37.5863 487.249 36.7725C487.876 35.1449 488.897 34.0218 490.313 33.4033C491.062 33.0697 491.823 32.9028 492.596 32.9028H493.121C494.187 32.9028 495.086 33.2609 495.818 33.9771C496.559 34.6851 496.929 35.6006 496.929 36.7236V36.9678C496.929 37.7653 496.612 38.3309 495.977 38.6646C495.538 38.9006 494.512 39.1366 492.901 39.3726C491.29 39.6086 490.411 39.751 490.264 39.7998C489.776 39.9707 489.532 40.2962 489.532 40.7764C489.532 41.4437 489.817 42.0133 490.386 42.4854C490.956 42.9574 491.721 43.1934 492.681 43.1934C493.129 43.1934 493.739 43.0713 494.512 42.8271C495.285 42.583 495.733 42.4609 495.855 42.4609C496.27 42.4609 496.478 42.64 496.478 42.998C496.478 43.4782 496.01 43.9583 495.074 44.4385C494.138 44.9186 493.161 45.1587 492.144 45.1587ZM500.262 28.0322C500.262 27.4382 500.819 27.1411 501.934 27.1411H502.154C502.618 27.1411 502.935 27.255 503.106 27.4829C503.277 27.7026 503.362 28.134 503.362 28.7769L503.265 30.5957C503.24 30.8805 503.228 31.0352 503.228 31.0596L503.204 31.5234C503.187 31.8245 503.171 32.1297 503.155 32.439L503.118 32.9028L503.082 33.5986C502.951 36.0726 502.886 37.8996 502.886 39.0796C502.886 40.2515 502.939 41.0938 503.045 41.6064C503.151 42.1191 503.318 42.5545 503.545 42.9126C503.773 43.2707 503.887 43.5067 503.887 43.6206V43.7671C503.887 44.1252 503.708 44.41 503.35 44.6216C503 44.8332 502.524 44.939 501.922 44.939H501.287C500.913 44.939 500.583 44.8332 500.298 44.6216C500.022 44.4019 499.883 44.1536 499.883 43.877V43.5474L499.957 43.0347C500.054 42.3267 500.111 41.7977 500.127 41.4478C500.152 41.0897 500.188 40.5973 500.237 39.9707C500.286 39.3359 500.363 37.9891 500.469 35.9302C500.583 33.8631 500.64 32.7523 500.64 32.5977L500.689 31.6821L500.713 30.7788C500.713 29.9162 500.636 29.3018 500.481 28.9355C500.335 28.5612 500.262 28.2601 500.262 28.0322ZM510.809 44.9512C510.809 44.528 510.52 43.7874 509.942 42.7295C509.364 41.6634 508.88 40.6706 508.489 39.751C507.155 36.6178 506.487 34.8071 506.487 34.3188C506.487 34.0991 506.613 33.8997 506.866 33.7207C507.126 33.5417 507.557 33.4521 508.16 33.4521C508.762 33.4521 509.185 33.7085 509.429 34.2212C509.454 34.2782 509.539 34.6322 509.686 35.2832C510.792 39.3278 511.484 41.4478 511.761 41.6431C512.184 41.6431 512.762 40.6543 513.494 38.6768C513.991 37.334 514.296 36.2069 514.41 35.2954C514.532 34.384 514.629 33.859 514.703 33.7207C514.931 33.2975 515.403 33.0859 516.119 33.0859C516.843 33.0859 517.205 33.3667 517.205 33.9282C517.205 34.327 517.059 34.86 516.766 35.5273C516.473 36.1947 516.196 36.9189 515.936 37.7002C514.446 42.1598 513.368 44.9756 512.701 46.1475C512.033 47.3275 511.329 48.2552 510.589 48.9307C509.848 49.6143 509.104 49.9561 508.355 49.9561C507.614 49.9561 507.244 49.7445 507.244 49.3213C507.244 48.9469 507.623 48.6051 508.379 48.2959C509.144 47.9867 509.677 47.6286 509.979 47.2217C510.532 46.4811 510.809 45.7243 510.809 44.9512ZM520.513 45.1953H520.135C519.728 45.1953 519.41 45.1017 519.183 44.9146C518.963 44.7274 518.853 44.4792 518.853 44.1699C518.837 44.1048 518.829 44.0519 518.829 44.0112L518.804 43.8037V43.584L518.816 43.5352V43.4253C518.833 43.3602 518.841 43.3073 518.841 43.2666C518.841 42.9004 518.963 42.6156 519.207 42.4121C519.459 42.2005 519.736 42.0947 520.037 42.0947L520.293 42.0581H520.623C521.51 42.0581 521.954 42.522 521.954 43.4497V43.6206L521.905 44.0356C521.905 44.41 521.762 44.6989 521.478 44.9023C521.201 45.0977 520.879 45.1953 520.513 45.1953ZM544.17 29.5825C544.17 28.7443 544.773 28.3252 545.977 28.3252C546.254 28.3252 546.522 28.431 546.783 28.6426C547.043 28.8542 547.173 29.1471 547.173 29.5215C547.173 29.8958 547.055 30.3923 546.819 31.0107C546.583 31.6292 546.437 32.2152 546.38 32.7686C546.323 33.3219 546.197 35.2425 546.001 38.5303C545.806 41.818 545.68 43.584 545.623 43.8281C545.509 44.3164 545.269 44.5605 544.903 44.5605C544.179 44.5605 543.446 44.0845 542.706 43.1323C542.535 42.9126 541.416 41.11 539.349 37.7246C537.29 34.3311 536.081 32.6343 535.723 32.6343L535.564 32.7319C535.499 32.8296 535.442 33.0737 535.394 33.4644C535.133 35.6942 535.003 38.1071 535.003 40.7031C535.003 40.9798 535.019 41.2809 535.052 41.6064L535.101 42.0215C535.149 42.4284 535.174 42.6807 535.174 42.7783C535.174 43.3398 534.983 43.7915 534.6 44.1333C534.226 44.4751 533.786 44.646 533.282 44.646H532.867C532.354 44.646 532.098 44.4548 532.098 44.0723C532.098 43.6816 532.208 43.2463 532.427 42.7661C532.647 42.286 532.793 41.7407 532.867 41.1304C533.217 38.1925 533.392 35.0391 533.392 31.6699C533.392 31.0921 533.351 30.612 533.27 30.2295L533.16 29.8145L533.038 29.436C532.972 29.2082 532.94 28.9844 532.94 28.7646C532.94 28.4635 533.229 28.313 533.807 28.313C534.913 28.313 535.902 28.8013 536.773 29.7778C537.652 30.7463 538.974 32.6628 540.74 35.5273C542.506 38.3919 543.458 39.8242 543.597 39.8242L543.768 39.7754C543.816 39.7021 543.865 39.4417 543.914 38.9941C544.215 36.1702 544.366 33.6922 544.366 31.5601C544.366 31.3729 544.345 31.0881 544.305 30.7056L544.256 30.3149C544.199 29.9162 544.17 29.672 544.17 29.5825ZM551.69 39.8486C551.69 40.9147 551.934 41.8018 552.422 42.5098C552.911 43.2178 553.509 43.5718 554.217 43.5718H554.583C555.421 43.5718 556.129 43.1486 556.707 42.3022C557.293 41.4559 557.586 40.3288 557.586 38.9209V38.1152C557.586 37.0247 557.346 36.1336 556.866 35.4419C556.394 34.742 555.783 34.3921 555.035 34.3921H554.791C553.92 34.3921 553.187 34.8234 552.593 35.686C552.007 36.5487 551.714 37.5781 551.714 38.7744L551.69 39.0552V39.8486ZM554.449 45.2319H554.058C552.634 45.2319 551.474 44.7355 550.579 43.7427C549.684 42.7498 549.236 41.342 549.236 39.519L549.249 39.3115C549.249 37.3096 549.778 35.7308 550.835 34.5752C551.389 33.9648 552.02 33.5173 552.728 33.2324C553.444 32.9395 554.123 32.793 554.766 32.793H555.364C556.08 32.793 556.768 32.9517 557.427 33.269C559.315 34.1805 560.259 35.8976 560.259 38.4204V38.6157C560.251 39.4377 560.117 40.2718 559.856 41.1182C559.336 42.7865 558.335 43.9665 556.854 44.6582C556.032 45.0407 555.23 45.2319 554.449 45.2319ZM574.188 44.9878C573.593 44.9878 573.117 44.6094 572.759 43.8525C572.491 43.2829 572.011 41.9198 571.319 39.7632C570.635 37.5985 570.184 36.3086 569.964 35.8936C569.419 34.86 569.146 34.2008 569.146 33.916C569.146 33.623 569.236 33.4115 569.415 33.2812C569.594 33.1429 569.972 33.0737 570.55 33.0737C571.478 33.0737 572.092 33.4155 572.393 34.0991C572.45 34.2212 572.54 34.5996 572.662 35.2344C572.784 35.861 572.906 36.4144 573.028 36.8945L573.272 37.9688C573.882 40.6543 574.35 41.9971 574.676 41.9971C574.896 41.9971 575.514 40.6258 576.531 37.8833C576.995 36.63 577.292 35.6453 577.422 34.9292C577.561 34.2049 577.65 33.8021 577.691 33.7207C577.927 33.2731 578.423 33.0493 579.18 33.0493H579.424C579.978 33.0493 580.254 33.3301 580.254 33.8916C580.254 34.2904 580.132 34.6973 579.888 35.1123C579.644 35.5273 579.074 36.805 578.179 38.9453C577.292 41.0775 576.637 42.526 576.214 43.291C575.791 44.0479 575.441 44.5199 575.164 44.707C574.896 44.8942 574.57 44.9878 574.188 44.9878ZM586.272 29.1309V29.2773C586.272 29.6924 586.15 30.0464 585.906 30.3394C585.67 30.6242 585.304 30.7666 584.808 30.7666H584.612L584.234 30.7178C584.014 30.7178 583.803 30.616 583.599 30.4126C583.396 30.2091 583.294 29.904 583.294 29.4971V29.3506L583.355 28.9111C583.355 28.7402 583.457 28.5286 583.66 28.2764C583.872 28.0241 584.14 27.8979 584.466 27.8979L584.747 27.8613H584.991L585.333 27.9102C585.544 27.9102 585.752 28.016 585.955 28.2275C586.167 28.431 586.272 28.7321 586.272 29.1309ZM585.699 34.2822L585.564 37.5659L585.54 37.8955L585.503 38.8965V39.3726C585.503 40.5444 585.536 41.3135 585.601 41.6797C585.674 42.0459 585.809 42.404 586.004 42.7539C586.199 43.0957 586.297 43.3439 586.297 43.4985V43.6084C586.297 44.0072 586.093 44.3245 585.687 44.5605C585.28 44.7965 584.726 44.9146 584.026 44.9146H583.721C583.314 44.9146 583.005 44.825 582.793 44.646C582.582 44.4588 582.476 44.2594 582.476 44.0479V43.7793C582.476 43.6735 582.57 43.2992 582.757 42.6562C582.944 42.0052 583.038 41.1222 583.038 40.0073C583.062 39.6899 583.074 39.4702 583.074 39.3481L583.111 38.6768L583.135 38.3472C583.176 37.7775 583.196 37.334 583.196 37.0166L583.208 36.5283C583.208 35.918 583.107 35.3768 582.903 34.9048C582.708 34.4328 582.61 34.1398 582.61 34.0259C582.61 33.4399 583.164 33.147 584.271 33.147H584.71C585.125 33.147 585.394 33.2568 585.516 33.4766C585.638 33.6882 585.699 33.9567 585.699 34.2822ZM591.436 39.8486C591.436 40.9147 591.68 41.8018 592.168 42.5098C592.657 43.2178 593.255 43.5718 593.963 43.5718H594.329C595.167 43.5718 595.875 43.1486 596.453 42.3022C597.039 41.4559 597.332 40.3288 597.332 38.9209V38.1152C597.332 37.0247 597.092 36.1336 596.612 35.4419C596.14 34.742 595.529 34.3921 594.781 34.3921H594.537C593.666 34.3921 592.933 34.8234 592.339 35.686C591.753 36.5487 591.46 37.5781 591.46 38.7744L591.436 39.0552V39.8486ZM594.195 45.2319H593.804C592.38 45.2319 591.22 44.7355 590.325 43.7427C589.43 42.7498 588.982 41.342 588.982 39.519L588.995 39.3115C588.995 37.3096 589.524 35.7308 590.582 34.5752C591.135 33.9648 591.766 33.5173 592.474 33.2324C593.19 32.9395 593.869 32.793 594.512 32.793H595.11C595.826 32.793 596.514 32.9517 597.173 33.269C599.061 34.1805 600.005 35.8976 600.005 38.4204V38.6157C599.997 39.4377 599.863 40.2718 599.603 41.1182C599.082 42.7865 598.081 43.9665 596.6 44.6582C595.778 45.0407 594.976 45.2319 594.195 45.2319ZM603.216 28.0322C603.216 27.4382 603.773 27.1411 604.888 27.1411H605.108C605.572 27.1411 605.889 27.255 606.06 27.4829C606.231 27.7026 606.316 28.134 606.316 28.7769L606.219 30.5957C606.194 30.8805 606.182 31.0352 606.182 31.0596L606.158 31.5234C606.141 31.8245 606.125 32.1297 606.109 32.439L606.072 32.9028L606.036 33.5986C605.905 36.0726 605.84 37.8996 605.84 39.0796C605.84 40.2515 605.893 41.0938 605.999 41.6064C606.105 42.1191 606.272 42.5545 606.5 42.9126C606.727 43.2707 606.841 43.5067 606.841 43.6206V43.7671C606.841 44.1252 606.662 44.41 606.304 44.6216C605.954 44.8332 605.478 44.939 604.876 44.939H604.241C603.867 44.939 603.537 44.8332 603.252 44.6216C602.976 44.4019 602.837 44.1536 602.837 43.877V43.5474L602.911 43.0347C603.008 42.3267 603.065 41.7977 603.082 41.4478C603.106 41.0897 603.143 40.5973 603.191 39.9707C603.24 39.3359 603.318 37.9891 603.423 35.9302C603.537 33.8631 603.594 32.7523 603.594 32.5977L603.643 31.6821L603.667 30.7788C603.667 29.9162 603.59 29.3018 603.436 28.9355C603.289 28.5612 603.216 28.2601 603.216 28.0322ZM613.616 43.4619H613.934C614.601 43.4619 615.187 43.2381 615.691 42.7905C616.204 42.3348 616.46 41.8099 616.46 41.2158L616.485 41.0571V40.8984L616.509 40.52V39.8242C616.509 39.3522 616.269 39.1162 615.789 39.1162H615.24L615.154 39.1284L614.678 39.165C614.45 39.1976 614.288 39.2139 614.19 39.2139C613.531 39.2139 612.92 39.4621 612.359 39.9585C611.968 40.3084 611.773 40.8049 611.773 41.4478V41.6919C611.773 42.2371 611.948 42.6685 612.298 42.9858C612.656 43.3032 613.095 43.4619 613.616 43.4619ZM610.894 35.6616C610.349 35.6616 610.076 35.3117 610.076 34.6118C610.076 34.091 610.516 33.6393 611.395 33.2568C612.282 32.8662 613.201 32.6709 614.153 32.6709H614.764C615.586 32.6709 616.31 32.8255 616.937 33.1348C617.563 33.4359 618.039 33.8468 618.365 34.3677C618.698 34.8885 618.902 35.568 618.975 36.4062C618.991 36.6016 619 37.5496 619 39.2505C619 40.9513 619.02 41.932 619.061 42.1924C619.109 42.4447 619.24 42.7539 619.451 43.1201C619.671 43.4863 619.781 43.7874 619.781 44.0234C619.781 44.2594 619.667 44.4629 619.439 44.6338C619.219 44.7965 618.898 44.8779 618.475 44.8779C618.051 44.8779 617.592 44.7762 617.095 44.5728C616.599 44.3612 616.237 44.2554 616.009 44.2554C615.984 44.2554 615.577 44.4019 614.788 44.6948C613.999 44.9797 613.331 45.1221 612.786 45.1221H612.518C611.606 45.1221 610.829 44.8332 610.186 44.2554C609.551 43.6776 609.234 42.8556 609.234 41.7896C609.234 40.7235 609.584 39.8934 610.284 39.2993C610.984 38.6971 611.834 38.2861 612.835 38.0664C613.136 38.0013 613.637 37.9159 614.336 37.8101C615.036 37.7043 615.512 37.5944 615.765 37.4805C616.204 37.277 616.424 36.8945 616.424 36.333C616.424 35.7633 616.237 35.3198 615.862 35.0024C615.488 34.6769 615.04 34.5142 614.52 34.5142C614.007 34.5142 613.331 34.7054 612.493 35.0879C611.655 35.4704 611.122 35.6616 610.894 35.6616ZM628.96 43.6938C628.96 44.0194 628.761 44.3123 628.362 44.5728C627.972 44.825 627.439 44.9512 626.763 44.9512C625.502 44.9512 624.615 44.4832 624.102 43.5474C623.785 42.9614 623.626 41.5902 623.626 39.4336C623.626 37.277 623.589 36.0238 623.516 35.6738C623.443 35.3239 623.239 34.9821 622.906 34.6484C622.572 34.3148 622.405 34.0584 622.405 33.8794C622.405 33.8143 622.8 33.387 623.589 32.5977C623.76 32.4268 623.931 32.0483 624.102 31.4624C624.281 30.8765 624.407 30.4899 624.48 30.3027C624.725 29.7168 625.046 29.4238 625.445 29.4238H625.64C625.99 29.4238 626.238 29.5581 626.385 29.8267C626.442 29.9325 626.527 30.3149 626.641 30.9741C626.763 31.6252 626.902 32.0443 627.056 32.2314C627.211 32.4186 627.597 32.6261 628.216 32.854C628.842 33.0737 629.156 33.3097 629.156 33.562V33.6963C629.156 34.0218 628.798 34.2985 628.082 34.5264C627.374 34.7461 626.918 35.1001 626.714 35.5884C626.316 36.5731 626.116 38.1763 626.116 40.3979C626.116 41.4396 626.295 42.1476 626.653 42.522C626.873 42.7498 627.312 42.9085 627.972 42.998C628.631 43.0876 628.96 43.3195 628.96 43.6938ZM635.735 29.1309V29.2773C635.735 29.6924 635.613 30.0464 635.369 30.3394C635.133 30.6242 634.767 30.7666 634.271 30.7666H634.075L633.697 30.7178C633.477 30.7178 633.265 30.616 633.062 30.4126C632.859 30.2091 632.757 29.904 632.757 29.4971V29.3506L632.818 28.9111C632.818 28.7402 632.92 28.5286 633.123 28.2764C633.335 28.0241 633.603 27.8979 633.929 27.8979L634.209 27.8613H634.454L634.795 27.9102C635.007 27.9102 635.215 28.016 635.418 28.2275C635.63 28.431 635.735 28.7321 635.735 29.1309ZM635.162 34.2822L635.027 37.5659L635.003 37.8955L634.966 38.8965V39.3726C634.966 40.5444 634.999 41.3135 635.064 41.6797C635.137 42.0459 635.271 42.404 635.467 42.7539C635.662 43.0957 635.76 43.3439 635.76 43.4985V43.6084C635.76 44.0072 635.556 44.3245 635.149 44.5605C634.743 44.7965 634.189 44.9146 633.489 44.9146H633.184C632.777 44.9146 632.468 44.825 632.256 44.646C632.045 44.4588 631.939 44.2594 631.939 44.0479V43.7793C631.939 43.6735 632.033 43.2992 632.22 42.6562C632.407 42.0052 632.5 41.1222 632.5 40.0073C632.525 39.6899 632.537 39.4702 632.537 39.3481L632.574 38.6768L632.598 38.3472C632.639 37.7775 632.659 37.334 632.659 37.0166L632.671 36.5283C632.671 35.918 632.57 35.3768 632.366 34.9048C632.171 34.4328 632.073 34.1398 632.073 34.0259C632.073 33.4399 632.627 33.147 633.733 33.147H634.173C634.588 33.147 634.856 33.2568 634.979 33.4766C635.101 33.6882 635.162 33.9567 635.162 34.2822ZM640.899 39.8486C640.899 40.9147 641.143 41.8018 641.631 42.5098C642.12 43.2178 642.718 43.5718 643.426 43.5718H643.792C644.63 43.5718 645.338 43.1486 645.916 42.3022C646.502 41.4559 646.795 40.3288 646.795 38.9209V38.1152C646.795 37.0247 646.555 36.1336 646.075 35.4419C645.603 34.742 644.992 34.3921 644.244 34.3921H644C643.129 34.3921 642.396 34.8234 641.802 35.686C641.216 36.5487 640.923 37.5781 640.923 38.7744L640.899 39.0552V39.8486ZM643.658 45.2319H643.267C641.843 45.2319 640.683 44.7355 639.788 43.7427C638.893 42.7498 638.445 41.342 638.445 39.519L638.458 39.3115C638.458 37.3096 638.986 35.7308 640.044 34.5752C640.598 33.9648 641.229 33.5173 641.937 33.2324C642.653 32.9395 643.332 32.793 643.975 32.793H644.573C645.289 32.793 645.977 32.9517 646.636 33.269C648.524 34.1805 649.468 35.8976 649.468 38.4204V38.6157C649.46 39.4377 649.326 40.2718 649.065 41.1182C648.545 42.7865 647.544 43.9665 646.062 44.6582C645.241 45.0407 644.439 45.2319 643.658 45.2319ZM663.201 43.5352C663.201 44.1374 662.676 44.4385 661.626 44.4385C661.032 44.4385 660.634 44.2961 660.43 44.0112C660.333 43.8729 660.284 43.5474 660.284 43.0347L660.247 42.2534C660.19 41.3989 660.162 40.5404 660.162 39.6777C660.162 37.8141 659.999 36.5649 659.673 35.9302C659.356 35.2873 658.819 34.9658 658.062 34.9658C657.557 34.9658 657.09 35.1164 656.658 35.4175C656.235 35.7186 655.91 36.1377 655.682 36.6748C655.21 37.7734 654.974 39.8039 654.974 42.7661C654.974 43.4416 654.843 43.9176 654.583 44.1943C654.331 44.471 654.005 44.6094 653.606 44.6094H653.362C652.451 44.6094 651.995 44.2472 651.995 43.5229V43.23C651.995 43.1405 652.044 42.9451 652.142 42.644L652.337 42.0825C652.532 41.4233 652.63 40.0114 652.63 37.8467L652.691 34.2212C652.691 33.7573 652.943 33.5254 653.448 33.5254C653.952 33.5254 654.449 33.6922 654.937 34.0259C655.433 34.3595 655.747 34.5264 655.877 34.5264C656.015 34.5264 656.255 34.4328 656.597 34.2456C657.745 33.619 658.664 33.3057 659.356 33.3057H659.673C660.918 33.3057 661.793 33.8672 662.298 34.9902C662.542 35.5192 662.664 36.6585 662.664 38.4082V38.4937C662.664 38.6401 662.66 38.7866 662.652 38.9331C662.652 39.3319 662.652 39.5394 662.652 39.5557C662.652 39.7103 662.652 39.8608 662.652 40.0073C662.652 40.1213 662.652 40.2311 662.652 40.3369C662.652 40.9635 662.672 41.3908 662.713 41.6187C662.77 41.9279 662.863 42.2493 662.994 42.583C663.132 42.9492 663.201 43.2666 663.201 43.5352ZM666.949 38.1885C666.452 37.6839 666.204 36.9759 666.204 36.0645C666.204 35.153 666.611 34.3717 667.425 33.7207C668.239 33.0615 669.248 32.7319 670.452 32.7319H670.77C671.836 32.7319 672.682 32.8825 673.309 33.1836C673.943 33.4847 674.261 33.9364 674.261 34.5386C674.261 35.1326 673.996 35.4297 673.467 35.4297C673.329 35.4297 672.938 35.2669 672.295 34.9414C671.653 34.6077 671.046 34.4409 670.477 34.4409C669.907 34.4409 669.447 34.5711 669.097 34.8315C668.755 35.0838 668.584 35.4338 668.584 35.8813C668.584 36.3289 668.825 36.7196 669.305 37.0532C669.581 37.2485 670.232 37.5578 671.258 37.981C672.291 38.4041 673.028 38.811 673.467 39.2017C674.175 39.8283 674.529 40.6299 674.529 41.6064C674.529 42.583 674.114 43.4212 673.284 44.1211C672.454 44.8128 671.376 45.1587 670.049 45.1587H669.732C668.397 45.1587 667.396 44.9674 666.729 44.585C666.062 44.1943 665.728 43.6898 665.728 43.0713C665.728 42.4447 665.988 42.1313 666.509 42.1313C666.68 42.1313 667.124 42.3511 667.84 42.7905C668.564 43.23 669.272 43.4497 669.964 43.4497C670.664 43.4497 671.189 43.3032 671.539 43.0103C671.889 42.7091 672.063 42.3348 672.063 41.8872C672.063 41.4315 671.844 41.0327 671.404 40.6909C671.168 40.5037 670.493 40.166 669.378 39.6777C668.263 39.1813 667.453 38.6849 666.949 38.1885ZM678.863 45.1953H678.484C678.077 45.1953 677.76 45.1017 677.532 44.9146C677.312 44.7274 677.203 44.4792 677.203 44.1699C677.186 44.1048 677.178 44.0519 677.178 44.0112L677.154 43.8037V43.584L677.166 43.5352V43.4253C677.182 43.3602 677.19 43.3073 677.19 43.2666C677.19 42.9004 677.312 42.6156 677.557 42.4121C677.809 42.2005 678.086 42.0947 678.387 42.0947L678.643 42.0581H678.973C679.86 42.0581 680.303 42.522 680.303 43.4497V43.6206L680.254 44.0356C680.254 44.41 680.112 44.6989 679.827 44.9023C679.55 45.0977 679.229 45.1953 678.863 45.1953ZM218.487 59.375C218.487 59.8145 218.401 60.1074 218.23 60.2539C218.068 60.3923 217.889 60.4614 217.693 60.4614C217.685 60.4614 217.677 60.4614 217.669 60.4614C217.474 60.4614 217.156 60.376 216.717 60.2051C216.269 60.026 215.74 59.9365 215.13 59.9365C214.528 59.9365 214.084 60.0423 213.799 60.2539C213.523 60.4655 213.331 60.7747 213.226 61.1816C213.128 61.5804 212.998 63.2609 212.835 66.2231C212.68 69.1772 212.603 70.8455 212.603 71.228C212.603 71.6024 212.684 72.0988 212.847 72.7173C213.01 73.3358 213.091 73.6735 213.091 73.7305C213.091 74.1292 212.908 74.4385 212.542 74.6582C212.184 74.8779 211.683 74.9878 211.041 74.9878C210.398 74.9878 209.901 74.882 209.551 74.6704C209.201 74.4507 209.026 74.1496 209.026 73.7671C209.026 73.5962 209.153 73.234 209.405 72.6807C209.665 72.1191 209.832 71.5698 209.905 71.0327C210.215 68.6483 210.369 65.7878 210.369 62.4512C210.369 61.4502 210.255 60.791 210.027 60.4736C209.799 60.1481 209.401 59.9854 208.831 59.9854C208.261 59.9854 207.647 60.1115 206.988 60.3638C206.329 60.6079 205.926 60.73 205.779 60.73C205.381 60.73 205.181 60.3109 205.181 59.4727C205.181 58.6344 205.572 58.1502 206.353 58.02C207.134 57.8817 209.596 57.8125 213.738 57.8125H214.446L215.142 57.8003C216.656 57.8003 217.514 57.8328 217.718 57.8979C218.23 58.0607 218.487 58.4595 218.487 59.0942V59.375ZM222.21 73.4619H222.527C223.195 73.4619 223.781 73.2381 224.285 72.7905C224.798 72.3348 225.054 71.8099 225.054 71.2158L225.079 71.0571V70.8984L225.103 70.52V69.8242C225.103 69.3522 224.863 69.1162 224.383 69.1162H223.833L223.748 69.1284L223.272 69.165C223.044 69.1976 222.881 69.2139 222.784 69.2139C222.125 69.2139 221.514 69.4621 220.953 69.9585C220.562 70.3084 220.367 70.8049 220.367 71.4478V71.6919C220.367 72.2371 220.542 72.6685 220.892 72.9858C221.25 73.3032 221.689 73.4619 222.21 73.4619ZM219.488 65.6616C218.943 65.6616 218.67 65.3117 218.67 64.6118C218.67 64.091 219.109 63.6393 219.988 63.2568C220.875 62.8662 221.795 62.6709 222.747 62.6709H223.357C224.179 62.6709 224.904 62.8255 225.53 63.1348C226.157 63.4359 226.633 63.8468 226.958 64.3677C227.292 64.8885 227.496 65.568 227.569 66.4062C227.585 66.6016 227.593 67.5496 227.593 69.2505C227.593 70.9513 227.614 71.932 227.654 72.1924C227.703 72.4447 227.833 72.7539 228.045 73.1201C228.265 73.4863 228.375 73.7874 228.375 74.0234C228.375 74.2594 228.261 74.4629 228.033 74.6338C227.813 74.7965 227.492 74.8779 227.068 74.8779C226.645 74.8779 226.185 74.7762 225.689 74.5728C225.193 74.3612 224.83 74.2554 224.603 74.2554C224.578 74.2554 224.171 74.4019 223.382 74.6948C222.592 74.9797 221.925 75.1221 221.38 75.1221H221.111C220.2 75.1221 219.423 74.8332 218.78 74.2554C218.145 73.6776 217.828 72.8556 217.828 71.7896C217.828 70.7235 218.178 69.8934 218.877 69.2993C219.577 68.6971 220.428 68.2861 221.429 68.0664C221.73 68.0013 222.23 67.9159 222.93 67.8101C223.63 67.7043 224.106 67.5944 224.358 67.4805C224.798 67.277 225.018 66.8945 225.018 66.333C225.018 65.7633 224.83 65.3198 224.456 65.0024C224.082 64.6769 223.634 64.5142 223.113 64.5142C222.601 64.5142 221.925 64.7054 221.087 65.0879C220.249 65.4704 219.716 65.6616 219.488 65.6616ZM235.552 69.6533C234.828 69.6533 234.466 70.6095 234.466 72.522C234.466 73.3521 234.295 73.9136 233.953 74.2065C233.611 74.4995 233.2 74.646 232.72 74.646C232.24 74.646 231.898 74.5646 231.695 74.4019C231.5 74.2391 231.402 73.9339 231.402 73.4863C231.402 73.4538 231.447 73.1323 231.536 72.522C231.626 71.9116 231.74 70.0155 231.878 66.8335C232.016 63.6434 232.085 61.6943 232.085 60.9863C232.085 60.2783 232.065 59.8185 232.024 59.6069C231.992 59.3872 231.935 59.1227 231.854 58.8135C231.78 58.5042 231.744 58.3089 231.744 58.2275C231.744 57.8695 231.862 57.6253 232.098 57.4951C232.342 57.3568 232.745 57.2876 233.306 57.2876C233.876 57.2876 234.25 57.4341 234.429 57.7271C234.616 58.02 234.71 58.61 234.71 59.4971L234.551 64.6729C234.551 66.154 234.722 66.8945 235.064 66.8945C235.333 66.8945 235.992 66.3411 237.042 65.2344C238.099 64.1276 238.641 63.5661 238.665 63.5498C238.991 63.3219 239.483 63.208 240.142 63.208C240.801 63.208 241.131 63.3708 241.131 63.6963C241.131 63.859 240.606 64.5467 239.556 65.7593C238.506 66.9718 237.981 67.863 237.981 68.4326C237.981 68.7419 238.58 69.7591 239.776 71.4844C240.207 72.1029 240.614 72.64 240.997 73.0957C241.387 73.5433 241.583 73.8647 241.583 74.0601C241.583 74.467 241.204 74.6704 240.447 74.6704C239.699 74.6704 239.121 74.4548 238.714 74.0234C238.616 73.9176 238.388 73.5596 238.03 72.9492C237.672 72.3389 237.42 71.9116 237.273 71.6675C236.435 70.3247 235.861 69.6533 235.552 69.6533ZM246.343 67.5781V67.7734C246.343 68.0176 246.567 68.1396 247.015 68.1396H247.308L247.381 68.1274L247.979 68.0786C248.606 67.9891 249.013 67.9443 249.2 67.9443C250.087 67.9443 250.754 67.7775 251.202 67.4438C251.413 67.2811 251.519 66.9922 251.519 66.5771V66.4429C251.519 65.8325 251.316 65.3483 250.909 64.9902C250.51 64.6322 250.03 64.4531 249.468 64.4531H249.383L249.31 64.4653C248.52 64.4653 247.828 64.799 247.234 65.4663C246.64 66.1336 246.343 66.8376 246.343 67.5781ZM249.004 75.1587H248.736C247.181 75.1587 245.944 74.6663 245.025 73.6816C244.105 72.6888 243.646 71.3664 243.646 69.7144V69.1772C243.646 68.3879 243.8 67.5863 244.109 66.7725C244.736 65.1449 245.757 64.0218 247.173 63.4033C247.922 63.0697 248.683 62.9028 249.456 62.9028H249.981C251.047 62.9028 251.946 63.2609 252.679 63.9771C253.419 64.6851 253.79 65.6006 253.79 66.7236V66.9678C253.79 67.7653 253.472 68.3309 252.837 68.6646C252.398 68.9006 251.373 69.1366 249.761 69.3726C248.15 69.6086 247.271 69.751 247.125 69.7998C246.636 69.9707 246.392 70.2962 246.392 70.7764C246.392 71.4437 246.677 72.0133 247.247 72.4854C247.816 72.9574 248.581 73.1934 249.542 73.1934C249.989 73.1934 250.599 73.0713 251.373 72.8271C252.146 72.583 252.593 72.4609 252.715 72.4609C253.13 72.4609 253.338 72.64 253.338 72.998C253.338 73.4782 252.87 73.9583 251.934 74.4385C250.998 74.9186 250.022 75.1587 249.004 75.1587ZM257.305 68.1885C256.809 67.6839 256.561 66.9759 256.561 66.0645C256.561 65.153 256.967 64.3717 257.781 63.7207C258.595 63.0615 259.604 62.7319 260.809 62.7319H261.126C262.192 62.7319 263.038 62.8825 263.665 63.1836C264.3 63.4847 264.617 63.9364 264.617 64.5386C264.617 65.1326 264.353 65.4297 263.824 65.4297C263.685 65.4297 263.295 65.2669 262.652 64.9414C262.009 64.6077 261.403 64.4409 260.833 64.4409C260.263 64.4409 259.804 64.5711 259.454 64.8315C259.112 65.0838 258.941 65.4338 258.941 65.8813C258.941 66.3289 259.181 66.7196 259.661 67.0532C259.938 67.2485 260.589 67.5578 261.614 67.981C262.648 68.4041 263.384 68.811 263.824 69.2017C264.532 69.8283 264.886 70.6299 264.886 71.6064C264.886 72.583 264.471 73.4212 263.641 74.1211C262.811 74.8128 261.732 75.1587 260.406 75.1587H260.088C258.754 75.1587 257.753 74.9674 257.085 74.585C256.418 74.1943 256.084 73.6898 256.084 73.0713C256.084 72.4447 256.345 72.1313 256.866 72.1313C257.037 72.1313 257.48 72.3511 258.196 72.7905C258.921 73.23 259.629 73.4497 260.32 73.4497C261.02 73.4497 261.545 73.3032 261.895 73.0103C262.245 72.7091 262.42 72.3348 262.42 71.8872C262.42 71.4315 262.2 71.0327 261.761 70.6909C261.525 70.5037 260.849 70.166 259.734 69.6777C258.619 69.1813 257.81 68.6849 257.305 68.1885ZM276.495 69.8486C276.495 70.9147 276.739 71.8018 277.227 72.5098C277.715 73.2178 278.313 73.5718 279.021 73.5718H279.388C280.226 73.5718 280.934 73.1486 281.512 72.3022C282.098 71.4559 282.391 70.3288 282.391 68.9209V68.1152C282.391 67.0247 282.151 66.1336 281.67 65.4419C281.198 64.742 280.588 64.3921 279.839 64.3921H279.595C278.724 64.3921 277.992 64.8234 277.398 65.686C276.812 66.5487 276.519 67.5781 276.519 68.7744L276.495 69.0552V69.8486ZM279.253 75.2319H278.863C277.439 75.2319 276.279 74.7355 275.384 73.7427C274.489 72.7498 274.041 71.342 274.041 69.519L274.053 69.3115C274.053 67.3096 274.582 65.7308 275.64 64.5752C276.194 63.9648 276.824 63.5173 277.532 63.2324C278.248 62.9395 278.928 62.793 279.571 62.793H280.169C280.885 62.793 281.573 62.9517 282.232 63.269C284.12 64.1805 285.064 65.8976 285.064 68.4204V68.6157C285.056 69.4377 284.922 70.2718 284.661 71.1182C284.14 72.7865 283.139 73.9665 281.658 74.6582C280.836 75.0407 280.035 75.2319 279.253 75.2319ZM299.041 74.3774C298.463 74.3774 297.963 74.0153 297.54 73.291C297.263 72.8109 296.823 71.8343 296.221 70.3613C295.627 68.8802 295.289 68.1396 295.208 68.1396C295.184 68.1396 294.846 68.8314 294.195 70.2148C293.544 71.5902 293.06 72.5342 292.742 73.0469C292.238 73.8525 291.753 74.2554 291.29 74.2554C290.997 74.2554 290.687 74.1414 290.362 73.9136C290.044 73.6776 289.788 73.2951 289.593 72.7661C289.568 72.701 289.381 72.0011 289.031 70.6665C288.689 69.3319 288.335 68.0786 287.969 66.9067C287.611 65.7349 287.432 64.9414 287.432 64.5264C287.432 64.1113 287.522 63.8143 287.701 63.6353C287.88 63.4562 288.063 63.3667 288.25 63.3667C289.007 63.3667 289.54 63.68 289.849 64.3066C289.963 64.5345 290.11 65.1042 290.289 66.0156C291.143 69.3604 291.717 71.1344 292.01 71.3379C292.319 71.3379 292.771 70.3044 293.365 68.2373C293.609 67.391 293.768 66.63 293.841 65.9546C293.922 65.2791 293.975 64.8885 294 64.7827L294.109 64.3921C294.354 63.7492 294.838 63.4277 295.562 63.4277C296.294 63.4277 296.803 63.798 297.088 64.5386C297.202 64.8397 297.308 65.3687 297.405 66.1255C297.503 66.8742 297.641 67.627 297.82 68.3838C298.268 70.3206 298.622 71.2891 298.882 71.2891C299.2 71.2891 299.696 70.2759 300.372 68.2495C300.583 67.6147 300.803 66.8376 301.031 65.918C301.267 64.9984 301.43 64.445 301.519 64.2578C301.812 63.68 302.276 63.3911 302.911 63.3911C303.244 63.3911 303.411 63.7166 303.411 64.3677C303.411 64.7502 302.996 66.2069 302.166 68.7378C301.336 71.2606 300.835 72.7051 300.665 73.0713C300.494 73.4294 300.25 73.7386 299.932 73.999C299.615 74.2513 299.318 74.3774 299.041 74.3774ZM317.205 73.5352C317.205 74.1374 316.68 74.4385 315.63 74.4385C315.036 74.4385 314.638 74.2961 314.434 74.0112C314.336 73.8729 314.288 73.5474 314.288 73.0347L314.251 72.2534C314.194 71.3989 314.166 70.5404 314.166 69.6777C314.166 67.8141 314.003 66.5649 313.677 65.9302C313.36 65.2873 312.823 64.9658 312.066 64.9658C311.561 64.9658 311.093 65.1164 310.662 65.4175C310.239 65.7186 309.913 66.1377 309.686 66.6748C309.214 67.7734 308.978 69.8039 308.978 72.7661C308.978 73.4416 308.847 73.9176 308.587 74.1943C308.335 74.471 308.009 74.6094 307.61 74.6094H307.366C306.455 74.6094 305.999 74.2472 305.999 73.5229V73.23C305.999 73.1405 306.048 72.9451 306.146 72.644L306.341 72.0825C306.536 71.4233 306.634 70.0114 306.634 67.8467L306.695 64.2212C306.695 63.7573 306.947 63.5254 307.452 63.5254C307.956 63.5254 308.453 63.6922 308.941 64.0259C309.437 64.3595 309.751 64.5264 309.881 64.5264C310.019 64.5264 310.259 64.4328 310.601 64.2456C311.749 63.619 312.668 63.3057 313.36 63.3057H313.677C314.922 63.3057 315.797 63.8672 316.302 64.9902C316.546 65.5192 316.668 66.6585 316.668 68.4082V68.4937C316.668 68.6401 316.664 68.7866 316.656 68.9331C316.656 69.3319 316.656 69.5394 316.656 69.5557C316.656 69.7103 316.656 69.8608 316.656 70.0073C316.656 70.1213 316.656 70.2311 316.656 70.3369C316.656 70.9635 316.676 71.3908 316.717 71.6187C316.774 71.9279 316.867 72.2493 316.998 72.583C317.136 72.9492 317.205 73.2666 317.205 73.5352ZM322.271 67.5781V67.7734C322.271 68.0176 322.495 68.1396 322.942 68.1396H323.235L323.309 68.1274L323.907 68.0786C324.533 67.9891 324.94 67.9443 325.127 67.9443C326.014 67.9443 326.682 67.7775 327.129 67.4438C327.341 67.2811 327.447 66.9922 327.447 66.5771V66.4429C327.447 65.8325 327.243 65.3483 326.836 64.9902C326.438 64.6322 325.958 64.4531 325.396 64.4531H325.311L325.237 64.4653C324.448 64.4653 323.756 64.799 323.162 65.4663C322.568 66.1336 322.271 66.8376 322.271 67.5781ZM324.932 75.1587H324.664C323.109 75.1587 321.872 74.6663 320.953 73.6816C320.033 72.6888 319.573 71.3664 319.573 69.7144V69.1772C319.573 68.3879 319.728 67.5863 320.037 66.7725C320.664 65.1449 321.685 64.0218 323.101 63.4033C323.85 63.0697 324.611 62.9028 325.384 62.9028H325.909C326.975 62.9028 327.874 63.2609 328.606 63.9771C329.347 64.6851 329.717 65.6006 329.717 66.7236V66.9678C329.717 67.7653 329.4 68.3309 328.765 68.6646C328.326 68.9006 327.3 69.1366 325.689 69.3726C324.078 69.6086 323.199 69.751 323.052 69.7998C322.564 69.9707 322.32 70.2962 322.32 70.7764C322.32 71.4437 322.605 72.0133 323.174 72.4854C323.744 72.9574 324.509 73.1934 325.469 73.1934C325.917 73.1934 326.527 73.0713 327.3 72.8271C328.073 72.583 328.521 72.4609 328.643 72.4609C329.058 72.4609 329.266 72.64 329.266 72.998C329.266 73.4782 328.798 73.9583 327.862 74.4385C326.926 74.9186 325.949 75.1587 324.932 75.1587ZM333.147 68.6523V67.7124C333.147 66.5812 333.086 65.7552 332.964 65.2344C332.842 64.7054 332.781 64.3351 332.781 64.1235C332.781 63.6271 333.143 63.3789 333.868 63.3789C334.592 63.3789 335.117 63.5132 335.442 63.7817C335.532 63.855 335.646 63.9974 335.784 64.209C335.931 64.4206 336.061 64.5264 336.175 64.5264C336.199 64.5264 336.553 64.3188 337.237 63.9038C337.92 63.4888 338.506 63.2812 338.995 63.2812H339.178C339.576 63.2812 339.894 63.3789 340.13 63.5742C340.366 63.7614 340.484 63.9933 340.484 64.27V64.4287C340.484 64.7624 340.366 65.0024 340.13 65.1489C339.902 65.2954 339.536 65.3687 339.031 65.3687C337.884 65.3687 337.046 65.7715 336.517 66.5771C335.996 67.3828 335.735 68.807 335.735 70.8496C335.735 71.1426 335.784 71.5942 335.882 72.2046C335.988 72.8149 336.041 73.2747 336.041 73.584C336.041 73.8932 335.874 74.1903 335.54 74.4751C335.206 74.7599 334.783 74.9023 334.271 74.9023H333.855C333.408 74.9023 333.062 74.7965 332.818 74.585C332.582 74.3652 332.464 74.1007 332.464 73.7915C332.464 73.4741 332.521 73.1527 332.635 72.8271C332.944 71.9482 333.099 70.9798 333.099 69.9219C333.131 69.3359 333.147 68.9128 333.147 68.6523ZM343.365 68.1885C342.868 67.6839 342.62 66.9759 342.62 66.0645C342.62 65.153 343.027 64.3717 343.841 63.7207C344.655 63.0615 345.664 62.7319 346.868 62.7319H347.186C348.252 62.7319 349.098 62.8825 349.725 63.1836C350.359 63.4847 350.677 63.9364 350.677 64.5386C350.677 65.1326 350.412 65.4297 349.883 65.4297C349.745 65.4297 349.354 65.2669 348.711 64.9414C348.069 64.6077 347.462 64.4409 346.893 64.4409C346.323 64.4409 345.863 64.5711 345.513 64.8315C345.171 65.0838 345 65.4338 345 65.8813C345 66.3289 345.241 66.7196 345.721 67.0532C345.997 67.2485 346.648 67.5578 347.674 67.981C348.707 68.4041 349.444 68.811 349.883 69.2017C350.591 69.8283 350.945 70.6299 350.945 71.6064C350.945 72.583 350.53 73.4212 349.7 74.1211C348.87 74.8128 347.792 75.1587 346.465 75.1587H346.148C344.813 75.1587 343.812 74.9674 343.145 74.585C342.478 74.1943 342.144 73.6898 342.144 73.0713C342.144 72.4447 342.404 72.1313 342.925 72.1313C343.096 72.1313 343.54 72.3511 344.256 72.7905C344.98 73.23 345.688 73.4497 346.38 73.4497C347.08 73.4497 347.605 73.3032 347.955 73.0103C348.305 72.7091 348.479 72.3348 348.479 71.8872C348.479 71.4315 348.26 71.0327 347.82 70.6909C347.584 70.5037 346.909 70.166 345.794 69.6777C344.679 69.1813 343.869 68.6849 343.365 68.1885ZM355.047 74.7681C354.087 74.7681 353.606 74.4263 353.606 73.7427C353.606 73.4334 353.68 72.9736 353.826 72.3633C353.981 71.7529 354.083 71.1914 354.131 70.6787C354.18 70.1579 354.266 68.4814 354.388 65.6494C354.518 62.8174 354.583 61.0921 354.583 60.4736V59.0332L354.51 58.0078C354.51 57.6253 354.86 57.4341 355.56 57.4341C356.268 57.4341 356.727 57.7067 356.939 58.252C357.045 58.5286 357.098 59.432 357.098 60.9619C357.098 62.4919 357.126 63.3626 357.183 63.5742C357.248 63.7858 357.415 63.8916 357.684 63.8916C357.716 63.8916 357.871 63.8428 358.147 63.7451L358.416 63.6475C359.287 63.3057 360.04 63.1348 360.674 63.1348C362.009 63.1348 362.957 63.6556 363.519 64.6973C363.893 65.389 364.08 66.8945 364.08 69.2139C364.08 70.3044 364.088 70.9513 364.104 71.1548C364.121 71.3582 364.174 71.7285 364.263 72.2656C364.353 72.7946 364.397 73.0876 364.397 73.1445C364.397 73.6247 364.288 73.9827 364.068 74.2188C363.856 74.4466 363.47 74.5605 362.908 74.5605C362.355 74.5605 361.993 74.3896 361.822 74.0479C361.732 73.8688 361.688 73.3521 361.688 72.4976L361.651 70.3491L361.688 68.4082C361.688 66.2354 361.053 65.1489 359.783 65.1489C358.66 65.1489 357.859 65.6209 357.378 66.5649C356.898 67.509 356.658 69.2586 356.658 71.814L356.695 73.1445C356.695 73.6003 356.552 73.9868 356.268 74.3042C355.983 74.6134 355.576 74.7681 355.047 74.7681ZM371.478 59.1309V59.2773C371.478 59.6924 371.355 60.0464 371.111 60.3394C370.875 60.6242 370.509 60.7666 370.013 60.7666H369.817L369.439 60.7178C369.219 60.7178 369.008 60.616 368.804 60.4126C368.601 60.2091 368.499 59.904 368.499 59.4971V59.3506L368.56 58.9111C368.56 58.7402 368.662 58.5286 368.865 58.2764C369.077 58.0241 369.345 57.8979 369.671 57.8979L369.952 57.8613H370.196L370.538 57.9102C370.749 57.9102 370.957 58.016 371.16 58.2275C371.372 58.431 371.478 58.7321 371.478 59.1309ZM370.904 64.2822L370.77 67.5659L370.745 67.8955L370.708 68.8965V69.3726C370.708 70.5444 370.741 71.3135 370.806 71.6797C370.879 72.0459 371.014 72.404 371.209 72.7539C371.404 73.0957 371.502 73.3439 371.502 73.4985V73.6084C371.502 74.0072 371.299 74.3245 370.892 74.5605C370.485 74.7965 369.931 74.9146 369.231 74.9146H368.926C368.519 74.9146 368.21 74.825 367.999 74.646C367.787 74.4588 367.681 74.2594 367.681 74.0479V73.7793C367.681 73.6735 367.775 73.2992 367.962 72.6562C368.149 72.0052 368.243 71.1222 368.243 70.0073C368.267 69.6899 368.279 69.4702 368.279 69.3481L368.316 68.6768L368.34 68.3472C368.381 67.7775 368.401 67.334 368.401 67.0166L368.414 66.5283C368.414 65.918 368.312 65.3768 368.108 64.9048C367.913 64.4328 367.815 64.1398 367.815 64.0259C367.815 63.4399 368.369 63.147 369.476 63.147H369.915C370.33 63.147 370.599 63.2568 370.721 63.4766C370.843 63.6882 370.904 63.9567 370.904 64.2822ZM383.086 67.9565C383.086 66.8742 382.859 66.0278 382.403 65.4175C381.955 64.799 381.418 64.4897 380.792 64.4897H380.438C379.559 64.4897 378.863 64.8397 378.35 65.5396C377.837 66.2313 377.581 67.2526 377.581 68.6035L377.557 68.8477L377.508 70.1172V70.9717C377.508 71.8587 377.687 72.4854 378.045 72.8516C378.411 73.2096 378.928 73.3887 379.595 73.3887H379.827C380.747 73.3887 381.516 72.9655 382.134 72.1191C382.753 71.2728 383.062 70.2433 383.062 69.0308L383.086 68.7622V67.9565ZM376.446 63.3667L378.155 63.6597C378.334 63.6597 378.753 63.5417 379.412 63.3057C380.071 63.0697 380.718 62.9517 381.353 62.9517C382.639 62.9517 383.681 63.4033 384.478 64.3066C385.276 65.2018 385.674 66.4103 385.674 67.9321V68.2373C385.674 69.2627 385.503 70.2067 385.162 71.0693C384.462 72.8516 383.294 74.0031 381.658 74.5239C381.194 74.6704 380.572 74.7721 379.791 74.8291C379.017 74.8861 378.468 74.9878 378.143 75.1343C377.646 75.3621 377.398 75.7731 377.398 76.3672C377.398 76.6195 377.443 76.9613 377.532 77.3926C377.63 77.8239 377.679 78.2227 377.679 78.5889C377.679 78.9551 377.471 79.3132 377.056 79.6631C376.641 80.0212 376.124 80.2002 375.506 80.2002H375.25C374.517 80.2002 374.151 79.9316 374.151 79.3945V79.1626C374.151 79.0487 374.228 78.7272 374.383 78.1982C374.546 77.6774 374.66 77.1159 374.725 76.5137C374.79 75.9196 374.896 74.4344 375.042 72.0581C375.188 69.6818 375.262 68.0583 375.262 67.1875C375.262 66.3086 375.205 65.5721 375.091 64.978C374.985 64.384 374.932 64.0625 374.932 64.0137C374.932 63.5824 375.437 63.3667 376.446 63.3667ZM406.658 74.3774C406.08 74.3774 405.58 74.0153 405.157 73.291C404.88 72.8109 404.441 71.8343 403.838 70.3613C403.244 68.8802 402.907 68.1396 402.825 68.1396C402.801 68.1396 402.463 68.8314 401.812 70.2148C401.161 71.5902 400.677 72.5342 400.359 73.0469C399.855 73.8525 399.371 74.2554 398.907 74.2554C398.614 74.2554 398.305 74.1414 397.979 73.9136C397.662 73.6776 397.405 73.2951 397.21 72.7661C397.186 72.701 396.998 72.0011 396.648 70.6665C396.307 69.3319 395.953 68.0786 395.586 66.9067C395.228 65.7349 395.049 64.9414 395.049 64.5264C395.049 64.1113 395.139 63.8143 395.318 63.6353C395.497 63.4562 395.68 63.3667 395.867 63.3667C396.624 63.3667 397.157 63.68 397.466 64.3066C397.58 64.5345 397.727 65.1042 397.906 66.0156C398.76 69.3604 399.334 71.1344 399.627 71.3379C399.936 71.3379 400.388 70.3044 400.982 68.2373C401.226 67.391 401.385 66.63 401.458 65.9546C401.539 65.2791 401.592 64.8885 401.617 64.7827L401.727 64.3921C401.971 63.7492 402.455 63.4277 403.179 63.4277C403.912 63.4277 404.42 63.798 404.705 64.5386C404.819 64.8397 404.925 65.3687 405.022 66.1255C405.12 66.8742 405.258 67.627 405.438 68.3838C405.885 70.3206 406.239 71.2891 406.5 71.2891C406.817 71.2891 407.313 70.2759 407.989 68.2495C408.2 67.6147 408.42 66.8376 408.648 65.918C408.884 64.9984 409.047 64.445 409.136 64.2578C409.429 63.68 409.893 63.3911 410.528 63.3911C410.861 63.3911 411.028 63.7166 411.028 64.3677C411.028 64.7502 410.613 66.2069 409.783 68.7378C408.953 71.2606 408.453 72.7051 408.282 73.0713C408.111 73.4294 407.867 73.7386 407.549 73.999C407.232 74.2513 406.935 74.3774 406.658 74.3774ZM415.105 74.7681C414.145 74.7681 413.665 74.4263 413.665 73.7427C413.665 73.4334 413.738 72.9736 413.885 72.3633C414.039 71.7529 414.141 71.1914 414.19 70.6787C414.239 70.1579 414.324 68.4814 414.446 65.6494C414.576 62.8174 414.642 61.0921 414.642 60.4736V59.0332L414.568 58.0078C414.568 57.6253 414.918 57.4341 415.618 57.4341C416.326 57.4341 416.786 57.7067 416.998 58.252C417.103 58.5286 417.156 59.432 417.156 60.9619C417.156 62.4919 417.185 63.3626 417.242 63.5742C417.307 63.7858 417.474 63.8916 417.742 63.8916C417.775 63.8916 417.929 63.8428 418.206 63.7451L418.475 63.6475C419.345 63.3057 420.098 63.1348 420.733 63.1348C422.068 63.1348 423.016 63.6556 423.577 64.6973C423.951 65.389 424.139 66.8945 424.139 69.2139C424.139 70.3044 424.147 70.9513 424.163 71.1548C424.179 71.3582 424.232 71.7285 424.322 72.2656C424.411 72.7946 424.456 73.0876 424.456 73.1445C424.456 73.6247 424.346 73.9827 424.126 74.2188C423.915 74.4466 423.528 74.5605 422.967 74.5605C422.413 74.5605 422.051 74.3896 421.88 74.0479C421.791 73.8688 421.746 73.3521 421.746 72.4976L421.709 70.3491L421.746 68.4082C421.746 66.2354 421.111 65.1489 419.842 65.1489C418.719 65.1489 417.917 65.6209 417.437 66.5649C416.957 67.509 416.717 69.2586 416.717 71.814L416.753 73.1445C416.753 73.6003 416.611 73.9868 416.326 74.3042C416.041 74.6134 415.634 74.7681 415.105 74.7681ZM429.791 67.5781V67.7734C429.791 68.0176 430.014 68.1396 430.462 68.1396H430.755L430.828 68.1274L431.426 68.0786C432.053 67.9891 432.46 67.9443 432.647 67.9443C433.534 67.9443 434.201 67.7775 434.649 67.4438C434.861 67.2811 434.966 66.9922 434.966 66.5771V66.4429C434.966 65.8325 434.763 65.3483 434.356 64.9902C433.957 64.6322 433.477 64.4531 432.916 64.4531H432.83L432.757 64.4653C431.967 64.4653 431.276 64.799 430.682 65.4663C430.088 66.1336 429.791 66.8376 429.791 67.5781ZM432.452 75.1587H432.183C430.629 75.1587 429.392 74.6663 428.472 73.6816C427.553 72.6888 427.093 71.3664 427.093 69.7144V69.1772C427.093 68.3879 427.247 67.5863 427.557 66.7725C428.183 65.1449 429.205 64.0218 430.621 63.4033C431.369 63.0697 432.13 62.9028 432.903 62.9028H433.428C434.494 62.9028 435.394 63.2609 436.126 63.9771C436.867 64.6851 437.237 65.6006 437.237 66.7236V66.9678C437.237 67.7653 436.919 68.3309 436.285 68.6646C435.845 68.9006 434.82 69.1366 433.208 69.3726C431.597 69.6086 430.718 69.751 430.572 69.7998C430.083 69.9707 429.839 70.2962 429.839 70.7764C429.839 71.4437 430.124 72.0133 430.694 72.4854C431.264 72.9574 432.028 73.1934 432.989 73.1934C433.436 73.1934 434.047 73.0713 434.82 72.8271C435.593 72.583 436.041 72.4609 436.163 72.4609C436.578 72.4609 436.785 72.64 436.785 72.998C436.785 73.4782 436.317 73.9583 435.381 74.4385C434.445 74.9186 433.469 75.1587 432.452 75.1587ZM451.092 73.5352C451.092 74.1374 450.567 74.4385 449.517 74.4385C448.923 74.4385 448.524 74.2961 448.321 74.0112C448.223 73.8729 448.174 73.5474 448.174 73.0347L448.138 72.2534C448.081 71.3989 448.052 70.5404 448.052 69.6777C448.052 67.8141 447.889 66.5649 447.564 65.9302C447.247 65.2873 446.709 64.9658 445.953 64.9658C445.448 64.9658 444.98 65.1164 444.549 65.4175C444.126 65.7186 443.8 66.1377 443.572 66.6748C443.1 67.7734 442.864 69.8039 442.864 72.7661C442.864 73.4416 442.734 73.9176 442.474 74.1943C442.221 74.471 441.896 74.6094 441.497 74.6094H441.253C440.341 74.6094 439.886 74.2472 439.886 73.5229V73.23C439.886 73.1405 439.935 72.9451 440.032 72.644L440.228 72.0825C440.423 71.4233 440.521 70.0114 440.521 67.8467L440.582 64.2212C440.582 63.7573 440.834 63.5254 441.338 63.5254C441.843 63.5254 442.339 63.6922 442.828 64.0259C443.324 64.3595 443.637 64.5264 443.768 64.5264C443.906 64.5264 444.146 64.4328 444.488 64.2456C445.635 63.619 446.555 63.3057 447.247 63.3057H447.564C448.809 63.3057 449.684 63.8672 450.188 64.9902C450.433 65.5192 450.555 66.6585 450.555 68.4082V68.4937C450.555 68.6401 450.551 68.7866 450.542 68.9331C450.542 69.3319 450.542 69.5394 450.542 69.5557C450.542 69.7103 450.542 69.8608 450.542 70.0073C450.542 70.1213 450.542 70.2311 450.542 70.3369C450.542 70.9635 450.563 71.3908 450.604 71.6187C450.66 71.9279 450.754 72.2493 450.884 72.583C451.023 72.9492 451.092 73.2666 451.092 73.5352ZM472.381 74.3774C471.803 74.3774 471.303 74.0153 470.879 73.291C470.603 72.8109 470.163 71.8343 469.561 70.3613C468.967 68.8802 468.629 68.1396 468.548 68.1396C468.523 68.1396 468.186 68.8314 467.535 70.2148C466.884 71.5902 466.399 72.5342 466.082 73.0469C465.577 73.8525 465.093 74.2554 464.629 74.2554C464.336 74.2554 464.027 74.1414 463.702 73.9136C463.384 73.6776 463.128 73.2951 462.933 72.7661C462.908 72.701 462.721 72.0011 462.371 70.6665C462.029 69.3319 461.675 68.0786 461.309 66.9067C460.951 65.7349 460.772 64.9414 460.772 64.5264C460.772 64.1113 460.861 63.8143 461.041 63.6353C461.22 63.4562 461.403 63.3667 461.59 63.3667C462.347 63.3667 462.88 63.68 463.189 64.3066C463.303 64.5345 463.449 65.1042 463.628 66.0156C464.483 69.3604 465.057 71.1344 465.35 71.3379C465.659 71.3379 466.111 70.3044 466.705 68.2373C466.949 67.391 467.107 66.63 467.181 65.9546C467.262 65.2791 467.315 64.8885 467.339 64.7827L467.449 64.3921C467.693 63.7492 468.178 63.4277 468.902 63.4277C469.634 63.4277 470.143 63.798 470.428 64.5386C470.542 64.8397 470.647 65.3687 470.745 66.1255C470.843 66.8742 470.981 67.627 471.16 68.3838C471.608 70.3206 471.962 71.2891 472.222 71.2891C472.54 71.2891 473.036 70.2759 473.711 68.2495C473.923 67.6147 474.143 66.8376 474.371 65.918C474.607 64.9984 474.769 64.445 474.859 64.2578C475.152 63.68 475.616 63.3911 476.25 63.3911C476.584 63.3911 476.751 63.7166 476.751 64.3677C476.751 64.7502 476.336 66.2069 475.506 68.7378C474.676 71.2606 474.175 72.7051 474.004 73.0713C473.833 73.4294 473.589 73.7386 473.272 73.999C472.955 74.2513 472.658 74.3774 472.381 74.3774ZM480.12 68.6523V67.7124C480.12 66.5812 480.059 65.7552 479.937 65.2344C479.815 64.7054 479.754 64.3351 479.754 64.1235C479.754 63.6271 480.116 63.3789 480.84 63.3789C481.565 63.3789 482.09 63.5132 482.415 63.7817C482.505 63.855 482.618 63.9974 482.757 64.209C482.903 64.4206 483.034 64.5264 483.147 64.5264C483.172 64.5264 483.526 64.3188 484.209 63.9038C484.893 63.4888 485.479 63.2812 485.967 63.2812H486.15C486.549 63.2812 486.867 63.3789 487.103 63.5742C487.339 63.7614 487.457 63.9933 487.457 64.27V64.4287C487.457 64.7624 487.339 65.0024 487.103 65.1489C486.875 65.2954 486.508 65.3687 486.004 65.3687C484.856 65.3687 484.018 65.7715 483.489 66.5771C482.968 67.3828 482.708 68.807 482.708 70.8496C482.708 71.1426 482.757 71.5942 482.854 72.2046C482.96 72.8149 483.013 73.2747 483.013 73.584C483.013 73.8932 482.846 74.1903 482.513 74.4751C482.179 74.7599 481.756 74.9023 481.243 74.9023H480.828C480.381 74.9023 480.035 74.7965 479.791 74.585C479.555 74.3652 479.437 74.1007 479.437 73.7915C479.437 73.4741 479.493 73.1527 479.607 72.8271C479.917 71.9482 480.071 70.9798 480.071 69.9219C480.104 69.3359 480.12 68.9128 480.12 68.6523ZM491.412 69.8486C491.412 70.9147 491.656 71.8018 492.144 72.5098C492.632 73.2178 493.23 73.5718 493.938 73.5718H494.305C495.143 73.5718 495.851 73.1486 496.429 72.3022C497.015 71.4559 497.308 70.3288 497.308 68.9209V68.1152C497.308 67.0247 497.068 66.1336 496.587 65.4419C496.115 64.742 495.505 64.3921 494.756 64.3921H494.512C493.641 64.3921 492.909 64.8234 492.315 65.686C491.729 66.5487 491.436 67.5781 491.436 68.7744L491.412 69.0552V69.8486ZM494.17 75.2319H493.78C492.356 75.2319 491.196 74.7355 490.301 73.7427C489.406 72.7498 488.958 71.342 488.958 69.519L488.97 69.3115C488.97 67.3096 489.499 65.7308 490.557 64.5752C491.111 63.9648 491.741 63.5173 492.449 63.2324C493.165 62.9395 493.845 62.793 494.488 62.793H495.086C495.802 62.793 496.49 62.9517 497.149 63.269C499.037 64.1805 499.981 65.8976 499.981 68.4204V68.6157C499.973 69.4377 499.839 70.2718 499.578 71.1182C499.057 72.7865 498.056 73.9665 496.575 74.6582C495.753 75.0407 494.952 75.2319 494.17 75.2319ZM513.714 73.5352C513.714 74.1374 513.189 74.4385 512.139 74.4385C511.545 74.4385 511.146 74.2961 510.943 74.0112C510.845 73.8729 510.796 73.5474 510.796 73.0347L510.76 72.2534C510.703 71.3989 510.674 70.5404 510.674 69.6777C510.674 67.8141 510.512 66.5649 510.186 65.9302C509.869 65.2873 509.332 64.9658 508.575 64.9658C508.07 64.9658 507.602 65.1164 507.171 65.4175C506.748 65.7186 506.422 66.1377 506.194 66.6748C505.722 67.7734 505.486 69.8039 505.486 72.7661C505.486 73.4416 505.356 73.9176 505.096 74.1943C504.843 74.471 504.518 74.6094 504.119 74.6094H503.875C502.964 74.6094 502.508 74.2472 502.508 73.5229V73.23C502.508 73.1405 502.557 72.9451 502.654 72.644L502.85 72.0825C503.045 71.4233 503.143 70.0114 503.143 67.8467L503.204 64.2212C503.204 63.7573 503.456 63.5254 503.96 63.5254C504.465 63.5254 504.961 63.6922 505.45 64.0259C505.946 64.3595 506.259 64.5264 506.39 64.5264C506.528 64.5264 506.768 64.4328 507.11 64.2456C508.257 63.619 509.177 63.3057 509.869 63.3057H510.186C511.431 63.3057 512.306 63.8672 512.811 64.9902C513.055 65.5192 513.177 66.6585 513.177 68.4082V68.4937C513.177 68.6401 513.173 68.7866 513.165 68.9331C513.165 69.3319 513.165 69.5394 513.165 69.5557C513.165 69.7103 513.165 69.8608 513.165 70.0073C513.165 70.1213 513.165 70.2311 513.165 70.3369C513.165 70.9635 513.185 71.3908 513.226 71.6187C513.283 71.9279 513.376 72.2493 513.506 72.583C513.645 72.9492 513.714 73.2666 513.714 73.5352ZM518.707 69.3481V69.7266C518.707 70.8171 518.914 71.6715 519.329 72.29C519.744 72.9085 520.265 73.2178 520.892 73.2178H521.319C522.222 73.2178 522.926 72.8394 523.431 72.0825C523.935 71.3175 524.188 70.2474 524.188 68.8721C524.204 68.7093 524.212 68.5832 524.212 68.4937L524.236 67.9932V67.2607C524.22 67.098 524.212 66.9759 524.212 66.8945C524.212 66.2516 524.057 65.7471 523.748 65.3809C523.439 65.0146 522.983 64.8315 522.381 64.8315H522.039C521.079 64.8315 520.281 65.2344 519.646 66.04C519.02 66.8457 518.707 67.9484 518.707 69.3481ZM525.799 63.8306C526.507 63.8306 526.861 64.3433 526.861 65.3687C526.861 65.6372 526.751 66.7603 526.531 68.7378C526.312 70.7153 526.202 72.3958 526.202 73.7793C526.202 75.179 526.108 76.2288 525.921 76.9287C525.522 78.4342 524.598 79.5003 523.15 80.127C522.393 80.4525 521.555 80.6152 520.635 80.6152C519.724 80.6152 518.91 80.4525 518.194 80.127C517.486 79.8014 517.132 79.4108 517.132 78.9551C517.132 78.4342 517.482 78.1738 518.182 78.1738C518.32 78.1738 518.694 78.2267 519.305 78.3325C519.915 78.4383 520.354 78.4912 520.623 78.4912C521.608 78.4912 522.413 78.182 523.04 77.5635C523.675 76.9531 523.992 76.1678 523.992 75.2075C523.992 74.703 523.805 74.4507 523.431 74.4507C523.366 74.4507 523.211 74.4751 522.967 74.5239C522.275 74.6623 521.644 74.7314 521.075 74.7314C519.626 74.7314 518.536 74.292 517.803 73.4131C517.461 73.0062 517.168 72.465 516.924 71.7896C516.688 71.106 516.57 70.3857 516.57 69.6289V69.2871C516.57 68.4896 516.701 67.7043 516.961 66.9312C517.229 66.1499 517.583 65.4948 518.023 64.9658C518.462 64.4287 519.036 64.0096 519.744 63.7085C520.452 63.4074 521.176 63.2568 521.917 63.2568H522.234C522.649 63.2568 523.182 63.3708 523.833 63.5986C524.493 63.8184 524.896 63.9282 525.042 63.9282C525.368 63.8631 525.62 63.8306 525.799 63.8306ZM531.817 75.1953H531.438C531.032 75.1953 530.714 75.1017 530.486 74.9146C530.267 74.7274 530.157 74.4792 530.157 74.1699C530.14 74.1048 530.132 74.0519 530.132 74.0112L530.108 73.8037V73.584L530.12 73.5352V73.4253C530.136 73.3602 530.145 73.3073 530.145 73.2666C530.145 72.9004 530.267 72.6156 530.511 72.4121C530.763 72.2005 531.04 72.0947 531.341 72.0947L531.597 72.0581H531.927C532.814 72.0581 533.257 72.522 533.257 73.4497V73.6206L533.208 74.0356C533.208 74.41 533.066 74.6989 532.781 74.9023C532.505 75.0977 532.183 75.1953 531.817 75.1953Z" fill="black"/>
</svg>
