<svg width="758" height="87" viewBox="0 0 758 87" fill="none" xmlns="http://www.w3.org/2000/svg">
<rect width="758" height="87" rx="18" fill="#D9D9D9"/>
<path d="M21.407 52C21.057 52 20.882 51.825 20.882 51.475V47.275C20.882 46.925 21.057 46.75 21.407 46.75H30.773V40.807H21.407C21.057 40.807 20.882 40.632 20.882 40.282L20.903 24.532C20.903 24.182 21.078 24.007 21.428 24.007H37.262C37.612 24.007 37.787 24.182 37.787 24.532V28.732C37.787 29.082 37.612 29.257 37.262 29.257H27.917V35.2H37.262C37.612 35.2 37.787 35.375 37.787 35.725V46.645C37.787 46.897 37.703 47.121 37.535 47.317L33.083 51.748C32.929 51.916 32.712 52 32.432 52H21.407Z" fill="#2ECC71"/>
<path d="M60.1733 28.375C60.1733 28.8145 60.0879 29.1074 59.917 29.2539C59.7542 29.3923 59.5752 29.4614 59.3799 29.4614C59.3717 29.4614 59.3636 29.4614 59.3555 29.4614C59.1602 29.4614 58.8428 29.376 58.4033 29.2051C57.9557 29.026 57.4268 28.9365 56.8164 28.9365C56.2142 28.9365 55.7707 29.0423 55.4858 29.2539C55.2091 29.4655 55.0179 29.7747 54.9121 30.1816C54.8145 30.5804 54.6842 32.2609 54.5215 35.2231C54.3669 38.1772 54.2896 39.8455 54.2896 40.228C54.2896 40.6024 54.3709 41.0988 54.5337 41.7173C54.6965 42.3358 54.7778 42.6735 54.7778 42.7305C54.7778 43.1292 54.5947 43.4385 54.2285 43.6582C53.8704 43.8779 53.37 43.9878 52.7271 43.9878C52.0841 43.9878 51.5877 43.882 51.2378 43.6704C50.8879 43.4507 50.7129 43.1496 50.7129 42.7671C50.7129 42.5962 50.839 42.234 51.0913 41.6807C51.3517 41.1191 51.5186 40.5698 51.5918 40.0327C51.901 37.6483 52.0557 34.7878 52.0557 31.4512C52.0557 30.4502 51.9417 29.791 51.7139 29.4736C51.486 29.1481 51.0872 28.9854 50.5176 28.9854C49.9479 28.9854 49.3335 29.1115 48.6743 29.3638C48.0151 29.6079 47.6123 29.73 47.4658 29.73C47.0671 29.73 46.8677 29.3109 46.8677 28.4727C46.8677 27.6344 47.2583 27.1502 48.0396 27.02C48.8208 26.8817 51.2826 26.8125 55.4248 26.8125H56.1328L56.8286 26.8003C58.3423 26.8003 59.2008 26.8328 59.4043 26.8979C59.917 27.0607 60.1733 27.4595 60.1733 28.0942V28.375ZM61.0645 37.6523V36.7124C61.0645 35.5812 61.0034 34.7552 60.8813 34.2344C60.7593 33.7054 60.6982 33.3351 60.6982 33.1235C60.6982 32.6271 61.0604 32.3789 61.7847 32.3789C62.509 32.3789 63.0339 32.5132 63.3594 32.7817C63.4489 32.855 63.5628 32.9974 63.7012 33.209C63.8477 33.4206 63.9779 33.5264 64.0918 33.5264C64.1162 33.5264 64.4702 33.3188 65.1538 32.9038C65.8374 32.4888 66.4233 32.2812 66.9116 32.2812H67.0947C67.4935 32.2812 67.8109 32.3789 68.0469 32.5742C68.2829 32.7614 68.4009 32.9933 68.4009 33.27V33.4287C68.4009 33.7624 68.2829 34.0024 68.0469 34.1489C67.819 34.2954 67.4528 34.3687 66.9482 34.3687C65.8008 34.3687 64.9626 34.7715 64.4336 35.5771C63.9128 36.3828 63.6523 37.807 63.6523 39.8496C63.6523 40.1426 63.7012 40.5942 63.7988 41.2046C63.9046 41.8149 63.9575 42.2747 63.9575 42.584C63.9575 42.8932 63.7907 43.1903 63.457 43.4751C63.1234 43.7599 62.7002 43.9023 62.1875 43.9023H61.7725C61.3249 43.9023 60.979 43.7965 60.7349 43.585C60.4989 43.3652 60.3809 43.1007 60.3809 42.7915C60.3809 42.4741 60.4378 42.1527 60.5518 41.8271C60.861 40.9482 61.0156 39.9798 61.0156 38.9219C61.0482 38.3359 61.0645 37.9128 61.0645 37.6523ZM74.126 42.4619H74.4434C75.1107 42.4619 75.6966 42.2381 76.2012 41.7905C76.7139 41.3348 76.9702 40.8099 76.9702 40.2158L76.9946 40.0571V39.8984L77.019 39.52V38.8242C77.019 38.3522 76.779 38.1162 76.2988 38.1162H75.7495L75.6641 38.1284L75.188 38.165C74.9601 38.1976 74.7974 38.2139 74.6997 38.2139C74.0405 38.2139 73.4302 38.4621 72.8687 38.9585C72.478 39.3084 72.2827 39.8049 72.2827 40.4478V40.6919C72.2827 41.2371 72.4577 41.6685 72.8076 41.9858C73.1657 42.3032 73.6051 42.4619 74.126 42.4619ZM71.4038 34.6616C70.8586 34.6616 70.5859 34.3117 70.5859 33.6118C70.5859 33.091 71.0254 32.6393 71.9043 32.2568C72.7913 31.8662 73.7109 31.6709 74.6631 31.6709H75.2734C76.0954 31.6709 76.8197 31.8255 77.4463 32.1348C78.0729 32.4359 78.549 32.8468 78.8745 33.3677C79.2082 33.8885 79.4116 34.568 79.4849 35.4062C79.5011 35.6016 79.5093 36.5496 79.5093 38.2505C79.5093 39.9513 79.5296 40.932 79.5703 41.1924C79.6191 41.4447 79.7493 41.7539 79.9609 42.1201C80.1807 42.4863 80.2905 42.7874 80.2905 43.0234C80.2905 43.2594 80.1766 43.4629 79.9487 43.6338C79.729 43.7965 79.4076 43.8779 78.9844 43.8779C78.5612 43.8779 78.1014 43.7762 77.605 43.5728C77.1086 43.3612 76.7464 43.2554 76.5186 43.2554C76.4941 43.2554 76.0872 43.4019 75.2979 43.6948C74.5085 43.9797 73.8411 44.1221 73.2959 44.1221H73.0273C72.1159 44.1221 71.3387 43.8332 70.6958 43.2554C70.061 42.6776 69.7437 41.8556 69.7437 40.7896C69.7437 39.7235 70.0936 38.8934 70.7935 38.2993C71.4933 37.6971 72.3438 37.2861 73.3447 37.0664C73.6458 37.0013 74.1463 36.9159 74.8462 36.8101C75.5461 36.7043 76.0221 36.5944 76.2744 36.4805C76.7139 36.277 76.9336 35.8945 76.9336 35.333C76.9336 34.7633 76.7464 34.3198 76.3721 34.0024C75.9977 33.6769 75.5501 33.5142 75.0293 33.5142C74.5166 33.5142 73.8411 33.7054 73.0029 34.0879C72.1647 34.4704 71.6317 34.6616 71.4038 34.6616ZM82.7563 38.9219V38.3604C82.7563 37.335 82.915 36.4276 83.2324 35.6382C83.8428 34.1082 84.7786 33.0503 86.04 32.4644C86.862 32.0737 87.7124 31.8784 88.5913 31.8784H88.8599C89.8283 31.8784 90.6299 32.0697 91.2646 32.4521C91.8994 32.8346 92.2168 33.3026 92.2168 33.856C92.2168 34.4989 91.9076 34.8203 91.2891 34.8203C91.1751 34.8203 90.7764 34.6413 90.0928 34.2832C89.4092 33.9333 88.8477 33.7583 88.4082 33.7583C88.4001 33.7583 88.3919 33.7583 88.3838 33.7583C87.4235 33.7583 86.6707 34.1733 86.1255 35.0034C85.5884 35.8335 85.3198 36.9159 85.3198 38.2505C85.3198 39.5851 85.6047 40.5739 86.1743 41.2168C86.7521 41.8597 87.5537 42.1812 88.5791 42.1812C89.0023 42.1812 89.5841 42.0632 90.3247 41.8271C91.0653 41.583 91.5169 41.4609 91.6797 41.4609C92.0133 41.4609 92.1802 41.6359 92.1802 41.9858C92.1802 42.4578 91.7122 42.9339 90.7764 43.4141C89.8405 43.8942 88.9209 44.1343 88.0176 44.1343C85.6006 44.1343 84.0015 43.1821 83.2202 41.2778C82.911 40.521 82.7563 39.7357 82.7563 38.9219ZM99.1138 38.6533C98.3895 38.6533 98.0273 39.6095 98.0273 41.522C98.0273 42.3521 97.8564 42.9136 97.5146 43.2065C97.1729 43.4995 96.7619 43.646 96.2817 43.646C95.8016 43.646 95.4598 43.5646 95.2563 43.4019C95.061 43.2391 94.9634 42.9339 94.9634 42.4863C94.9634 42.4538 95.0081 42.1323 95.0977 41.522C95.1872 40.9116 95.3011 39.0155 95.4395 35.8335C95.5778 32.6434 95.647 30.6943 95.647 29.9863C95.647 29.2783 95.6266 28.8185 95.5859 28.6069C95.5534 28.3872 95.4964 28.1227 95.415 27.8135C95.3418 27.5042 95.3052 27.3089 95.3052 27.2275C95.3052 26.8695 95.4232 26.6253 95.6592 26.4951C95.9033 26.3568 96.3062 26.2876 96.8677 26.2876C97.4373 26.2876 97.8117 26.4341 97.9907 26.7271C98.1779 27.02 98.2715 27.61 98.2715 28.4971L98.1128 33.6729C98.1128 35.154 98.2837 35.8945 98.6255 35.8945C98.894 35.8945 99.5532 35.3411 100.603 34.2344C101.661 33.1276 102.202 32.5661 102.227 32.5498C102.552 32.3219 103.044 32.208 103.704 32.208C104.363 32.208 104.692 32.3708 104.692 32.6963C104.692 32.859 104.167 33.5467 103.118 34.7593C102.068 35.9718 101.543 36.863 101.543 37.4326C101.543 37.7419 102.141 38.7591 103.337 40.4844C103.769 41.1029 104.176 41.64 104.558 42.0957C104.949 42.5433 105.144 42.8647 105.144 43.0601C105.144 43.467 104.766 43.6704 104.009 43.6704C103.26 43.6704 102.682 43.4548 102.275 43.0234C102.178 42.9176 101.95 42.5596 101.592 41.9492C101.234 41.3389 100.981 40.9116 100.835 40.6675C99.9967 39.3247 99.423 38.6533 99.1138 38.6533ZM108.831 37.1885C108.334 36.6839 108.086 35.9759 108.086 35.0645C108.086 34.153 108.493 33.3717 109.307 32.7207C110.12 32.0615 111.13 31.7319 112.334 31.7319H112.651C113.717 31.7319 114.564 31.8825 115.19 32.1836C115.825 32.4847 116.143 32.9364 116.143 33.5386C116.143 34.1326 115.878 34.4297 115.349 34.4297C115.211 34.4297 114.82 34.2669 114.177 33.9414C113.534 33.6077 112.928 33.4409 112.358 33.4409C111.789 33.4409 111.329 33.5711 110.979 33.8315C110.637 34.0838 110.466 34.4338 110.466 34.8813C110.466 35.3289 110.706 35.7196 111.187 36.0532C111.463 36.2485 112.114 36.5578 113.14 36.981C114.173 37.4041 114.91 37.811 115.349 38.2017C116.057 38.8283 116.411 39.6299 116.411 40.6064C116.411 41.583 115.996 42.4212 115.166 43.1211C114.336 43.8128 113.258 44.1587 111.931 44.1587H111.614C110.279 44.1587 109.278 43.9674 108.611 43.585C107.944 43.1943 107.61 42.6898 107.61 42.0713C107.61 41.4447 107.87 41.1313 108.391 41.1313C108.562 41.1313 109.006 41.3511 109.722 41.7905C110.446 42.23 111.154 42.4497 111.846 42.4497C112.546 42.4497 113.07 42.3032 113.42 42.0103C113.77 41.7091 113.945 41.3348 113.945 40.8872C113.945 40.4315 113.726 40.0327 113.286 39.6909C113.05 39.5037 112.375 39.166 111.26 38.6777C110.145 38.1813 109.335 37.6849 108.831 37.1885ZM126.799 37.1885C126.303 36.6839 126.055 35.9759 126.055 35.0645C126.055 34.153 126.462 33.3717 127.275 32.7207C128.089 32.0615 129.098 31.7319 130.303 31.7319H130.62C131.686 31.7319 132.533 31.8825 133.159 32.1836C133.794 32.4847 134.111 32.9364 134.111 33.5386C134.111 34.1326 133.847 34.4297 133.318 34.4297C133.18 34.4297 132.789 34.2669 132.146 33.9414C131.503 33.6077 130.897 33.4409 130.327 33.4409C129.757 33.4409 129.298 33.5711 128.948 33.8315C128.606 34.0838 128.435 34.4338 128.435 34.8813C128.435 35.3289 128.675 35.7196 129.155 36.0532C129.432 36.2485 130.083 36.5578 131.108 36.981C132.142 37.4041 132.878 37.811 133.318 38.2017C134.026 38.8283 134.38 39.6299 134.38 40.6064C134.38 41.583 133.965 42.4212 133.135 43.1211C132.305 43.8128 131.226 44.1587 129.9 44.1587H129.583C128.248 44.1587 127.247 43.9674 126.58 43.585C125.912 43.1943 125.579 42.6898 125.579 42.0713C125.579 41.4447 125.839 41.1313 126.36 41.1313C126.531 41.1313 126.974 41.3511 127.69 41.7905C128.415 42.23 129.123 42.4497 129.814 42.4497C130.514 42.4497 131.039 42.3032 131.389 42.0103C131.739 41.7091 131.914 41.3348 131.914 40.8872C131.914 40.4315 131.694 40.0327 131.255 39.6909C131.019 39.5037 130.343 39.166 129.229 38.6777C128.114 38.1813 127.304 37.6849 126.799 37.1885ZM143.376 42.6938C143.376 43.0194 143.177 43.3123 142.778 43.5728C142.388 43.825 141.855 43.9512 141.179 43.9512C139.918 43.9512 139.031 43.4832 138.518 42.5474C138.201 41.9614 138.042 40.5902 138.042 38.4336C138.042 36.277 138.005 35.0238 137.932 34.6738C137.859 34.3239 137.655 33.9821 137.322 33.6484C136.988 33.3148 136.821 33.0584 136.821 32.8794C136.821 32.8143 137.216 32.387 138.005 31.5977C138.176 31.4268 138.347 31.0483 138.518 30.4624C138.697 29.8765 138.823 29.4899 138.896 29.3027C139.141 28.7168 139.462 28.4238 139.861 28.4238H140.056C140.406 28.4238 140.654 28.5581 140.801 28.8267C140.858 28.9325 140.943 29.3149 141.057 29.9741C141.179 30.6252 141.318 31.0443 141.472 31.2314C141.627 31.4186 142.013 31.6261 142.632 31.854C143.258 32.0737 143.572 32.3097 143.572 32.562V32.6963C143.572 33.0218 143.214 33.2985 142.498 33.5264C141.79 33.7461 141.334 34.1001 141.13 34.5884C140.732 35.5731 140.532 37.1763 140.532 39.3979C140.532 40.4396 140.711 41.1476 141.069 41.522C141.289 41.7498 141.729 41.9085 142.388 41.998C143.047 42.0876 143.376 42.3195 143.376 42.6938ZM148.259 38.8486C148.259 39.9147 148.503 40.8018 148.992 41.5098C149.48 42.2178 150.078 42.5718 150.786 42.5718H151.152C151.991 42.5718 152.699 42.1486 153.276 41.3022C153.862 40.4559 154.155 39.3288 154.155 37.9209V37.1152C154.155 36.0247 153.915 35.1336 153.435 34.4419C152.963 33.742 152.353 33.3921 151.604 33.3921H151.36C150.489 33.3921 149.757 33.8234 149.163 34.686C148.577 35.5487 148.284 36.5781 148.284 37.7744L148.259 38.0552V38.8486ZM151.018 44.2319H150.627C149.203 44.2319 148.044 43.7355 147.148 42.7427C146.253 41.7498 145.806 40.342 145.806 38.519L145.818 38.3115C145.818 36.3096 146.347 34.7308 147.405 33.5752C147.958 32.9648 148.589 32.5173 149.297 32.2324C150.013 31.9395 150.693 31.793 151.335 31.793H151.934C152.65 31.793 153.337 31.9517 153.997 32.269C155.885 33.1805 156.829 34.8976 156.829 37.4204V37.6157C156.82 38.4377 156.686 39.2718 156.426 40.1182C155.905 41.7865 154.904 42.9665 153.423 43.6582C152.601 44.0407 151.799 44.2319 151.018 44.2319ZM158.977 38.9219V38.3604C158.977 37.335 159.136 36.4276 159.453 35.6382C160.063 34.1082 160.999 33.0503 162.261 32.4644C163.083 32.0737 163.933 31.8784 164.812 31.8784H165.081C166.049 31.8784 166.851 32.0697 167.485 32.4521C168.12 32.8346 168.438 33.3026 168.438 33.856C168.438 34.4989 168.128 34.8203 167.51 34.8203C167.396 34.8203 166.997 34.6413 166.313 34.2832C165.63 33.9333 165.068 33.7583 164.629 33.7583C164.621 33.7583 164.613 33.7583 164.604 33.7583C163.644 33.7583 162.891 34.1733 162.346 35.0034C161.809 35.8335 161.541 36.9159 161.541 38.2505C161.541 39.5851 161.825 40.5739 162.395 41.2168C162.973 41.8597 163.774 42.1812 164.8 42.1812C165.223 42.1812 165.805 42.0632 166.545 41.8271C167.286 41.583 167.738 41.4609 167.9 41.4609C168.234 41.4609 168.401 41.6359 168.401 41.9858C168.401 42.4578 167.933 42.9339 166.997 43.4141C166.061 43.8942 165.142 44.1343 164.238 44.1343C161.821 44.1343 160.222 43.1821 159.441 41.2778C159.132 40.521 158.977 39.7357 158.977 38.9219ZM175.334 38.6533C174.61 38.6533 174.248 39.6095 174.248 41.522C174.248 42.3521 174.077 42.9136 173.735 43.2065C173.394 43.4995 172.983 43.646 172.502 43.646C172.022 43.646 171.681 43.5646 171.477 43.4019C171.282 43.2391 171.184 42.9339 171.184 42.4863C171.184 42.4538 171.229 42.1323 171.318 41.522C171.408 40.9116 171.522 39.0155 171.66 35.8335C171.799 32.6434 171.868 30.6943 171.868 29.9863C171.868 29.2783 171.847 28.8185 171.807 28.6069C171.774 28.3872 171.717 28.1227 171.636 27.8135C171.562 27.5042 171.526 27.3089 171.526 27.2275C171.526 26.8695 171.644 26.6253 171.88 26.4951C172.124 26.3568 172.527 26.2876 173.088 26.2876C173.658 26.2876 174.032 26.4341 174.211 26.7271C174.399 27.02 174.492 27.61 174.492 28.4971L174.333 33.6729C174.333 35.154 174.504 35.8945 174.846 35.8945C175.115 35.8945 175.774 35.3411 176.824 34.2344C177.882 33.1276 178.423 32.5661 178.447 32.5498C178.773 32.3219 179.265 32.208 179.924 32.208C180.583 32.208 180.913 32.3708 180.913 32.6963C180.913 32.859 180.388 33.5467 179.338 34.7593C178.289 35.9718 177.764 36.863 177.764 37.4326C177.764 37.7419 178.362 38.7591 179.558 40.4844C179.989 41.1029 180.396 41.64 180.779 42.0957C181.169 42.5433 181.365 42.8647 181.365 43.0601C181.365 43.467 180.986 43.6704 180.229 43.6704C179.481 43.6704 178.903 43.4548 178.496 43.0234C178.398 42.9176 178.171 42.5596 177.812 41.9492C177.454 41.3389 177.202 40.9116 177.056 40.6675C176.217 39.3247 175.644 38.6533 175.334 38.6533ZM199.626 36.9565C199.626 35.8742 199.399 35.0278 198.943 34.4175C198.495 33.799 197.958 33.4897 197.332 33.4897H196.978C196.099 33.4897 195.403 33.8397 194.89 34.5396C194.377 35.2313 194.121 36.2526 194.121 37.6035L194.097 37.8477L194.048 39.1172V39.9717C194.048 40.8587 194.227 41.4854 194.585 41.8516C194.951 42.2096 195.468 42.3887 196.135 42.3887H196.367C197.287 42.3887 198.056 41.9655 198.674 41.1191C199.293 40.2728 199.602 39.2433 199.602 38.0308L199.626 37.7622V36.9565ZM192.986 32.3667L194.695 32.6597C194.874 32.6597 195.293 32.5417 195.952 32.3057C196.611 32.0697 197.258 31.9517 197.893 31.9517C199.179 31.9517 200.221 32.4033 201.018 33.3066C201.816 34.2018 202.214 35.4103 202.214 36.9321V37.2373C202.214 38.2627 202.043 39.2067 201.702 40.0693C201.002 41.8516 199.834 43.0031 198.198 43.5239C197.734 43.6704 197.112 43.7721 196.331 43.8291C195.557 43.8861 195.008 43.9878 194.683 44.1343C194.186 44.3621 193.938 44.7731 193.938 45.3672C193.938 45.6195 193.983 45.9613 194.072 46.3926C194.17 46.8239 194.219 47.2227 194.219 47.5889C194.219 47.9551 194.011 48.3132 193.596 48.6631C193.181 49.0212 192.664 49.2002 192.046 49.2002H191.79C191.057 49.2002 190.691 48.9316 190.691 48.3945V48.1626C190.691 48.0487 190.768 47.7272 190.923 47.1982C191.086 46.6774 191.2 46.1159 191.265 45.5137C191.33 44.9196 191.436 43.4344 191.582 41.0581C191.729 38.6818 191.802 37.0583 191.802 36.1875C191.802 35.3086 191.745 34.5721 191.631 33.978C191.525 33.384 191.472 33.0625 191.472 33.0137C191.472 32.5824 191.977 32.3667 192.986 32.3667ZM205.522 37.6523V36.7124C205.522 35.5812 205.461 34.7552 205.339 34.2344C205.217 33.7054 205.156 33.3351 205.156 33.1235C205.156 32.6271 205.518 32.3789 206.243 32.3789C206.967 32.3789 207.492 32.5132 207.817 32.7817C207.907 32.855 208.021 32.9974 208.159 33.209C208.306 33.4206 208.436 33.5264 208.55 33.5264C208.574 33.5264 208.928 33.3188 209.612 32.9038C210.295 32.4888 210.881 32.2812 211.37 32.2812H211.553C211.951 32.2812 212.269 32.3789 212.505 32.5742C212.741 32.7614 212.859 32.9933 212.859 33.27V33.4287C212.859 33.7624 212.741 34.0024 212.505 34.1489C212.277 34.2954 211.911 34.3687 211.406 34.3687C210.259 34.3687 209.421 34.7715 208.892 35.5771C208.371 36.3828 208.11 37.807 208.11 39.8496C208.11 40.1426 208.159 40.5942 208.257 41.2046C208.363 41.8149 208.416 42.2747 208.416 42.584C208.416 42.8932 208.249 43.1903 207.915 43.4751C207.581 43.7599 207.158 43.9023 206.646 43.9023H206.23C205.783 43.9023 205.437 43.7965 205.193 43.585C204.957 43.3652 204.839 43.1007 204.839 42.7915C204.839 42.4741 204.896 42.1527 205.01 41.8271C205.319 40.9482 205.474 39.9798 205.474 38.9219C205.506 38.3359 205.522 37.9128 205.522 37.6523ZM216.814 38.8486C216.814 39.9147 217.058 40.8018 217.546 41.5098C218.035 42.2178 218.633 42.5718 219.341 42.5718H219.707C220.545 42.5718 221.253 42.1486 221.831 41.3022C222.417 40.4559 222.71 39.3288 222.71 37.9209V37.1152C222.71 36.0247 222.47 35.1336 221.99 34.4419C221.518 33.742 220.907 33.3921 220.159 33.3921H219.915C219.044 33.3921 218.311 33.8234 217.717 34.686C217.131 35.5487 216.838 36.5781 216.838 37.7744L216.814 38.0552V38.8486ZM219.573 44.2319H219.182C217.758 44.2319 216.598 43.7355 215.703 42.7427C214.808 41.7498 214.36 40.342 214.36 38.519L214.373 38.3115C214.373 36.3096 214.902 34.7308 215.959 33.5752C216.513 32.9648 217.144 32.5173 217.852 32.2324C218.568 31.9395 219.247 31.793 219.89 31.793H220.488C221.204 31.793 221.892 31.9517 222.551 32.269C224.439 33.1805 225.383 34.8976 225.383 37.4204V37.6157C225.375 38.4377 225.241 39.2718 224.98 40.1182C224.46 41.7865 223.459 42.9665 221.978 43.6582C221.156 44.0407 220.354 44.2319 219.573 44.2319ZM231.816 42.4619H232.134C232.801 42.4619 233.387 42.2381 233.892 41.7905C234.404 41.3348 234.661 40.8099 234.661 40.2158L234.685 40.0571V39.8984L234.709 39.52V38.8242C234.709 38.3522 234.469 38.1162 233.989 38.1162H233.44L233.354 38.1284L232.878 38.165C232.651 38.1976 232.488 38.2139 232.39 38.2139C231.731 38.2139 231.121 38.4621 230.559 38.9585C230.168 39.3084 229.973 39.8049 229.973 40.4478V40.6919C229.973 41.2371 230.148 41.6685 230.498 41.9858C230.856 42.3032 231.296 42.4619 231.816 42.4619ZM229.094 34.6616C228.549 34.6616 228.276 34.3117 228.276 33.6118C228.276 33.091 228.716 32.6393 229.595 32.2568C230.482 31.8662 231.401 31.6709 232.354 31.6709H232.964C233.786 31.6709 234.51 31.8255 235.137 32.1348C235.763 32.4359 236.239 32.8468 236.565 33.3677C236.899 33.8885 237.102 34.568 237.175 35.4062C237.192 35.6016 237.2 36.5496 237.2 38.2505C237.2 39.9513 237.22 40.932 237.261 41.1924C237.31 41.4447 237.44 41.7539 237.651 42.1201C237.871 42.4863 237.981 42.7874 237.981 43.0234C237.981 43.2594 237.867 43.4629 237.639 43.6338C237.419 43.7965 237.098 43.8779 236.675 43.8779C236.252 43.8779 235.792 43.7762 235.295 43.5728C234.799 43.3612 234.437 43.2554 234.209 43.2554C234.185 43.2554 233.778 43.4019 232.988 43.6948C232.199 43.9797 231.532 44.1221 230.986 44.1221H230.718C229.806 44.1221 229.029 43.8332 228.386 43.2554C227.751 42.6776 227.434 41.8556 227.434 40.7896C227.434 39.7235 227.784 38.8934 228.484 38.2993C229.184 37.6971 230.034 37.2861 231.035 37.0664C231.336 37.0013 231.837 36.9159 232.537 36.8101C233.236 36.7043 233.713 36.5944 233.965 36.4805C234.404 36.277 234.624 35.8945 234.624 35.333C234.624 34.7633 234.437 34.3198 234.062 34.0024C233.688 33.6769 233.241 33.5142 232.72 33.5142C232.207 33.5142 231.532 33.7054 230.693 34.0879C229.855 34.4704 229.322 34.6616 229.094 34.6616ZM240.447 38.9219V38.3604C240.447 37.335 240.605 36.4276 240.923 35.6382C241.533 34.1082 242.469 33.0503 243.73 32.4644C244.552 32.0737 245.403 31.8784 246.282 31.8784H246.55C247.519 31.8784 248.32 32.0697 248.955 32.4521C249.59 32.8346 249.907 33.3026 249.907 33.856C249.907 34.4989 249.598 34.8203 248.979 34.8203C248.866 34.8203 248.467 34.6413 247.783 34.2832C247.1 33.9333 246.538 33.7583 246.099 33.7583C246.09 33.7583 246.082 33.7583 246.074 33.7583C245.114 33.7583 244.361 34.1733 243.816 35.0034C243.279 35.8335 243.01 36.9159 243.01 38.2505C243.01 39.5851 243.295 40.5739 243.865 41.2168C244.443 41.8597 245.244 42.1812 246.27 42.1812C246.693 42.1812 247.275 42.0632 248.015 41.8271C248.756 41.583 249.207 41.4609 249.37 41.4609C249.704 41.4609 249.871 41.6359 249.871 41.9858C249.871 42.4578 249.403 42.9339 248.467 43.4141C247.531 43.8942 246.611 44.1343 245.708 44.1343C243.291 44.1343 241.692 43.1821 240.911 41.2778C240.601 40.521 240.447 39.7357 240.447 38.9219ZM258.855 42.6938C258.855 43.0194 258.656 43.3123 258.257 43.5728C257.866 43.825 257.333 43.9512 256.658 43.9512C255.396 43.9512 254.509 43.4832 253.997 42.5474C253.679 41.9614 253.521 40.5902 253.521 38.4336C253.521 36.277 253.484 35.0238 253.411 34.6738C253.337 34.3239 253.134 33.9821 252.8 33.6484C252.467 33.3148 252.3 33.0584 252.3 32.8794C252.3 32.8143 252.694 32.387 253.484 31.5977C253.655 31.4268 253.826 31.0483 253.997 30.4624C254.176 29.8765 254.302 29.4899 254.375 29.3027C254.619 28.7168 254.941 28.4238 255.339 28.4238H255.535C255.885 28.4238 256.133 28.5581 256.279 28.8267C256.336 28.9325 256.422 29.3149 256.536 29.9741C256.658 30.6252 256.796 31.0443 256.951 31.2314C257.105 31.4186 257.492 31.6261 258.11 31.854C258.737 32.0737 259.05 32.3097 259.05 32.562V32.6963C259.05 33.0218 258.692 33.2985 257.976 33.5264C257.268 33.7461 256.812 34.1001 256.609 34.5884C256.21 35.5731 256.011 37.1763 256.011 39.3979C256.011 40.4396 256.19 41.1476 256.548 41.522C256.768 41.7498 257.207 41.9085 257.866 41.998C258.525 42.0876 258.855 42.3195 258.855 42.6938ZM265.63 28.1309V28.2773C265.63 28.6924 265.508 29.0464 265.264 29.3394C265.028 29.6242 264.661 29.7666 264.165 29.7666H263.97L263.591 29.7178C263.372 29.7178 263.16 29.616 262.957 29.4126C262.753 29.2091 262.651 28.904 262.651 28.4971V28.3506L262.712 27.9111C262.712 27.7402 262.814 27.5286 263.018 27.2764C263.229 27.0241 263.498 26.8979 263.823 26.8979L264.104 26.8613H264.348L264.69 26.9102C264.902 26.9102 265.109 27.016 265.312 27.2275C265.524 27.431 265.63 27.7321 265.63 28.1309ZM265.056 33.2822L264.922 36.5659L264.897 36.8955L264.861 37.8965V38.3726C264.861 39.5444 264.893 40.3135 264.958 40.6797C265.032 41.0459 265.166 41.404 265.361 41.7539C265.557 42.0957 265.654 42.3439 265.654 42.4985V42.6084C265.654 43.0072 265.451 43.3245 265.044 43.5605C264.637 43.7965 264.084 43.9146 263.384 43.9146H263.079C262.672 43.9146 262.362 43.825 262.151 43.646C261.939 43.4588 261.833 43.2594 261.833 43.0479V42.7793C261.833 42.6735 261.927 42.2992 262.114 41.6562C262.301 41.0052 262.395 40.1222 262.395 39.0073C262.419 38.6899 262.432 38.4702 262.432 38.3481L262.468 37.6768L262.493 37.3472C262.533 36.7775 262.554 36.334 262.554 36.0166L262.566 35.5283C262.566 34.918 262.464 34.3768 262.261 33.9048C262.065 33.4328 261.968 33.1398 261.968 33.0259C261.968 32.4399 262.521 32.147 263.628 32.147H264.067C264.482 32.147 264.751 32.2568 264.873 32.4766C264.995 32.6882 265.056 32.9567 265.056 33.2822ZM273.149 43.9878C272.555 43.9878 272.079 43.6094 271.721 42.8525C271.453 42.2829 270.972 40.9198 270.281 38.7632C269.597 36.5985 269.146 35.3086 268.926 34.8936C268.381 33.86 268.108 33.2008 268.108 32.916C268.108 32.623 268.197 32.4115 268.376 32.2812C268.556 32.1429 268.934 32.0737 269.512 32.0737C270.439 32.0737 271.054 32.4155 271.355 33.0991C271.412 33.2212 271.501 33.5996 271.624 34.2344C271.746 34.861 271.868 35.4144 271.99 35.8945L272.234 36.9688C272.844 39.6543 273.312 40.9971 273.638 40.9971C273.857 40.9971 274.476 39.6258 275.493 36.8833C275.957 35.63 276.254 34.6453 276.384 33.9292C276.523 33.2049 276.612 32.8021 276.653 32.7207C276.889 32.2731 277.385 32.0493 278.142 32.0493H278.386C278.94 32.0493 279.216 32.3301 279.216 32.8916C279.216 33.2904 279.094 33.6973 278.85 34.1123C278.606 34.5273 278.036 35.805 277.141 37.9453C276.254 40.0775 275.599 41.526 275.176 42.291C274.753 43.0479 274.403 43.5199 274.126 43.707C273.857 43.8942 273.532 43.9878 273.149 43.9878ZM283.293 36.5781V36.7734C283.293 37.0176 283.517 37.1396 283.965 37.1396H284.258L284.331 37.1274L284.929 37.0786C285.556 36.9891 285.963 36.9443 286.15 36.9443C287.037 36.9443 287.704 36.7775 288.152 36.4438C288.363 36.2811 288.469 35.9922 288.469 35.5771V35.4429C288.469 34.8325 288.266 34.3483 287.859 33.9902C287.46 33.6322 286.98 33.4531 286.418 33.4531H286.333L286.26 33.4653C285.47 33.4653 284.779 33.799 284.185 34.4663C283.59 35.1336 283.293 35.8376 283.293 36.5781ZM285.955 44.1587H285.686C284.132 44.1587 282.895 43.6663 281.975 42.6816C281.056 41.6888 280.596 40.3664 280.596 38.7144V38.1772C280.596 37.3879 280.75 36.5863 281.06 35.7725C281.686 34.1449 282.708 33.0218 284.124 32.4033C284.872 32.0697 285.633 31.9028 286.406 31.9028H286.931C287.997 31.9028 288.896 32.2609 289.629 32.9771C290.369 33.6851 290.74 34.6006 290.74 35.7236V35.9678C290.74 36.7653 290.422 37.3309 289.788 37.6646C289.348 37.9006 288.323 38.1366 286.711 38.3726C285.1 38.6086 284.221 38.751 284.075 38.7998C283.586 38.9707 283.342 39.2962 283.342 39.7764C283.342 40.4437 283.627 41.0133 284.197 41.4854C284.766 41.9574 285.531 42.1934 286.492 42.1934C286.939 42.1934 287.55 42.0713 288.323 41.8271C289.096 41.583 289.543 41.4609 289.666 41.4609C290.081 41.4609 290.288 41.64 290.288 41.998C290.288 42.4782 289.82 42.9583 288.884 43.4385C287.948 43.9186 286.972 44.1587 285.955 44.1587ZM294.072 27.0322C294.072 26.4382 294.63 26.1411 295.745 26.1411H295.964C296.428 26.1411 296.746 26.255 296.917 26.4829C297.087 26.7026 297.173 27.134 297.173 27.7769L297.075 29.5957C297.051 29.8805 297.039 30.0352 297.039 30.0596L297.014 30.5234C296.998 30.8245 296.982 31.1297 296.965 31.439L296.929 31.9028L296.892 32.5986C296.762 35.0726 296.697 36.8996 296.697 38.0796C296.697 39.2515 296.75 40.0938 296.855 40.6064C296.961 41.1191 297.128 41.5545 297.356 41.9126C297.584 42.2707 297.698 42.5067 297.698 42.6206V42.7671C297.698 43.1252 297.519 43.41 297.161 43.6216C296.811 43.8332 296.335 43.939 295.732 43.939H295.098C294.723 43.939 294.394 43.8332 294.109 43.6216C293.832 43.4019 293.694 43.1536 293.694 42.877V42.5474L293.767 42.0347C293.865 41.3267 293.922 40.7977 293.938 40.4478C293.962 40.0897 293.999 39.5973 294.048 38.9707C294.097 38.3359 294.174 36.9891 294.28 34.9302C294.394 32.8631 294.451 31.7523 294.451 31.5977L294.5 30.6821L294.524 29.7788C294.524 28.9162 294.447 28.3018 294.292 27.9355C294.146 27.5612 294.072 27.2601 294.072 27.0322ZM304.619 43.9512C304.619 43.528 304.33 42.7874 303.752 41.7295C303.175 40.6634 302.69 39.6706 302.3 38.751C300.965 35.6178 300.298 33.8071 300.298 33.3188C300.298 33.0991 300.424 32.8997 300.676 32.7207C300.937 32.5417 301.368 32.4521 301.97 32.4521C302.572 32.4521 302.996 32.7085 303.24 33.2212C303.264 33.2782 303.35 33.6322 303.496 34.2832C304.603 38.3278 305.295 40.4478 305.571 40.6431C305.994 40.6431 306.572 39.6543 307.305 37.6768C307.801 36.334 308.106 35.2069 308.22 34.2954C308.342 33.384 308.44 32.859 308.513 32.7207C308.741 32.2975 309.213 32.0859 309.929 32.0859C310.653 32.0859 311.016 32.3667 311.016 32.9282C311.016 33.327 310.869 33.86 310.576 34.5273C310.283 35.1947 310.007 35.9189 309.746 36.7002C308.257 41.1598 307.179 43.9756 306.511 45.1475C305.844 46.3275 305.14 47.2552 304.399 47.9307C303.659 48.6143 302.914 48.9561 302.166 48.9561C301.425 48.9561 301.055 48.7445 301.055 48.3213C301.055 47.9469 301.433 47.6051 302.19 47.2959C302.955 46.9867 303.488 46.6286 303.789 46.2217C304.342 45.4811 304.619 44.7243 304.619 43.9512ZM314.324 44.1953H313.945C313.538 44.1953 313.221 44.1017 312.993 43.9146C312.773 43.7274 312.664 43.4792 312.664 43.1699C312.647 43.1048 312.639 43.0519 312.639 43.0112L312.615 42.8037V42.584L312.627 42.5352V42.4253C312.643 42.3602 312.651 42.3073 312.651 42.2666C312.651 41.9004 312.773 41.6156 313.018 41.4121C313.27 41.2005 313.547 41.0947 313.848 41.0947L314.104 41.0581H314.434C315.321 41.0581 315.764 41.522 315.764 42.4497V42.6206L315.715 43.0356C315.715 43.41 315.573 43.6989 315.288 43.9023C315.011 44.0977 314.69 44.1953 314.324 44.1953ZM329.119 43.3896C328.834 43.5931 328.39 43.6948 327.788 43.6948C327.186 43.6948 326.75 43.5809 326.482 43.353C326.213 43.117 326.079 42.8118 326.079 42.4375V42.1567C326.079 42.0103 326.177 41.6969 326.372 41.2168C326.576 40.7285 326.698 40.2443 326.738 39.7642C327.023 36.4601 327.166 34.0065 327.166 32.4033C327.166 30.8001 327.149 29.8643 327.117 29.5957C327.084 29.3271 327.007 29.0057 326.885 28.6313C326.771 28.257 326.714 28.0617 326.714 28.0454C326.714 27.6141 326.991 27.3496 327.544 27.252C329.204 26.959 331.629 26.8125 334.819 26.8125H335.576C336.178 26.8125 336.61 26.8939 336.87 27.0566C337.139 27.2194 337.273 27.5246 337.273 27.9722V28.2651C337.273 28.8592 336.996 29.1562 336.443 29.1562C336.321 29.1562 336.069 29.1074 335.686 29.0098C335.304 28.9121 334.945 28.8348 334.612 28.7778C334.286 28.7127 333.59 28.6802 332.524 28.6802C331.466 28.6802 330.775 28.9284 330.449 29.4248C330.132 29.9212 329.973 30.8978 329.973 32.3545C329.973 33.1032 330.091 33.6037 330.327 33.856C330.571 34.1001 331.133 34.2222 332.012 34.2222C332.231 34.2222 332.561 34.1774 333 34.0879C333.44 33.9984 333.818 33.9536 334.136 33.9536C334.453 33.9536 334.734 34.092 334.978 34.3687C335.23 34.6453 335.356 35.036 335.356 35.5405C335.356 36.2648 334.982 36.627 334.233 36.627L332.817 36.5049C332.199 36.5049 331.646 36.6107 331.157 36.8223C330.669 37.0257 330.335 37.2739 330.156 37.5669C329.717 38.283 329.497 39.4793 329.497 41.1558L329.558 42.5962C329.558 42.9136 329.412 43.1781 329.119 43.3896ZM340.142 27.0322C340.142 26.4382 340.699 26.1411 341.814 26.1411H342.034C342.498 26.1411 342.815 26.255 342.986 26.4829C343.157 26.7026 343.242 27.134 343.242 27.7769L343.145 29.5957C343.12 29.8805 343.108 30.0352 343.108 30.0596L343.083 30.5234C343.067 30.8245 343.051 31.1297 343.035 31.439L342.998 31.9028L342.961 32.5986C342.831 35.0726 342.766 36.8996 342.766 38.0796C342.766 39.2515 342.819 40.0938 342.925 40.6064C343.031 41.1191 343.197 41.5545 343.425 41.9126C343.653 42.2707 343.767 42.5067 343.767 42.6206V42.7671C343.767 43.1252 343.588 43.41 343.23 43.6216C342.88 43.8332 342.404 43.939 341.802 43.939H341.167C340.793 43.939 340.463 43.8332 340.178 43.6216C339.902 43.4019 339.763 43.1536 339.763 42.877V42.5474L339.836 42.0347C339.934 41.3267 339.991 40.7977 340.007 40.4478C340.032 40.0897 340.068 39.5973 340.117 38.9707C340.166 38.3359 340.243 36.9891 340.349 34.9302C340.463 32.8631 340.52 31.7523 340.52 31.5977L340.569 30.6821L340.593 29.7788C340.593 28.9162 340.516 28.3018 340.361 27.9355C340.215 27.5612 340.142 27.2601 340.142 27.0322ZM350.542 42.4619H350.859C351.527 42.4619 352.113 42.2381 352.617 41.7905C353.13 41.3348 353.386 40.8099 353.386 40.2158L353.411 40.0571V39.8984L353.435 39.52V38.8242C353.435 38.3522 353.195 38.1162 352.715 38.1162H352.166L352.08 38.1284L351.604 38.165C351.376 38.1976 351.213 38.2139 351.116 38.2139C350.457 38.2139 349.846 38.4621 349.285 38.9585C348.894 39.3084 348.699 39.8049 348.699 40.4478V40.6919C348.699 41.2371 348.874 41.6685 349.224 41.9858C349.582 42.3032 350.021 42.4619 350.542 42.4619ZM347.82 34.6616C347.275 34.6616 347.002 34.3117 347.002 33.6118C347.002 33.091 347.441 32.6393 348.32 32.2568C349.207 31.8662 350.127 31.6709 351.079 31.6709H351.689C352.511 31.6709 353.236 31.8255 353.862 32.1348C354.489 32.4359 354.965 32.8468 355.291 33.3677C355.624 33.8885 355.828 34.568 355.901 35.4062C355.917 35.6016 355.925 36.5496 355.925 38.2505C355.925 39.9513 355.946 40.932 355.986 41.1924C356.035 41.4447 356.165 41.7539 356.377 42.1201C356.597 42.4863 356.707 42.7874 356.707 43.0234C356.707 43.2594 356.593 43.4629 356.365 43.6338C356.145 43.7965 355.824 43.8779 355.4 43.8779C354.977 43.8779 354.517 43.7762 354.021 43.5728C353.525 43.3612 353.162 43.2554 352.935 43.2554C352.91 43.2554 352.503 43.4019 351.714 43.6948C350.924 43.9797 350.257 44.1221 349.712 44.1221H349.443C348.532 44.1221 347.755 43.8332 347.112 43.2554C346.477 42.6776 346.16 41.8556 346.16 40.7896C346.16 39.7235 346.51 38.8934 347.209 38.2993C347.909 37.6971 348.76 37.2861 349.761 37.0664C350.062 37.0013 350.562 36.9159 351.262 36.8101C351.962 36.7043 352.438 36.5944 352.69 36.4805C353.13 36.277 353.35 35.8945 353.35 35.333C353.35 34.7633 353.162 34.3198 352.788 34.0024C352.414 33.6769 351.966 33.5142 351.445 33.5142C350.933 33.5142 350.257 33.7054 349.419 34.0879C348.581 34.4704 348.048 34.6616 347.82 34.6616ZM361.711 38.3481V38.7266C361.711 39.8171 361.919 40.6715 362.334 41.29C362.749 41.9085 363.27 42.2178 363.896 42.2178H364.324C365.227 42.2178 365.931 41.8394 366.436 41.0825C366.94 40.3175 367.192 39.2474 367.192 37.8721C367.209 37.7093 367.217 37.5832 367.217 37.4937L367.241 36.9932V36.2607C367.225 36.098 367.217 35.9759 367.217 35.8945C367.217 35.2516 367.062 34.7471 366.753 34.3809C366.444 34.0146 365.988 33.8315 365.386 33.8315H365.044C364.084 33.8315 363.286 34.2344 362.651 35.04C362.025 35.8457 361.711 36.9484 361.711 38.3481ZM368.804 32.8306C369.512 32.8306 369.866 33.3433 369.866 34.3687C369.866 34.6372 369.756 35.7603 369.536 37.7378C369.316 39.7153 369.207 41.3958 369.207 42.7793C369.207 44.179 369.113 45.2288 368.926 45.9287C368.527 47.4342 367.603 48.5003 366.155 49.127C365.398 49.4525 364.56 49.6152 363.64 49.6152C362.729 49.6152 361.915 49.4525 361.199 49.127C360.491 48.8014 360.137 48.4108 360.137 47.9551C360.137 47.4342 360.487 47.1738 361.187 47.1738C361.325 47.1738 361.699 47.2267 362.31 47.3325C362.92 47.4383 363.359 47.4912 363.628 47.4912C364.613 47.4912 365.418 47.182 366.045 46.5635C366.68 45.9531 366.997 45.1678 366.997 44.2075C366.997 43.703 366.81 43.4507 366.436 43.4507C366.37 43.4507 366.216 43.4751 365.972 43.5239C365.28 43.6623 364.649 43.7314 364.08 43.7314C362.631 43.7314 361.541 43.292 360.808 42.4131C360.466 42.0062 360.173 41.465 359.929 40.7896C359.693 40.106 359.575 39.3857 359.575 38.6289V38.2871C359.575 37.4896 359.705 36.7043 359.966 35.9312C360.234 35.1499 360.588 34.4948 361.028 33.9658C361.467 33.4287 362.041 33.0096 362.749 32.7085C363.457 32.4074 364.181 32.2568 364.922 32.2568H365.239C365.654 32.2568 366.187 32.3708 366.838 32.5986C367.498 32.8184 367.9 32.9282 368.047 32.9282C368.372 32.8631 368.625 32.8306 368.804 32.8306ZM373.967 37.1885C373.471 36.6839 373.223 35.9759 373.223 35.0645C373.223 34.153 373.63 33.3717 374.443 32.7207C375.257 32.0615 376.266 31.7319 377.471 31.7319H377.788C378.854 31.7319 379.701 31.8825 380.327 32.1836C380.962 32.4847 381.279 32.9364 381.279 33.5386C381.279 34.1326 381.015 34.4297 380.486 34.4297C380.347 34.4297 379.957 34.2669 379.314 33.9414C378.671 33.6077 378.065 33.4409 377.495 33.4409C376.925 33.4409 376.466 33.5711 376.116 33.8315C375.774 34.0838 375.603 34.4338 375.603 34.8813C375.603 35.3289 375.843 35.7196 376.323 36.0532C376.6 36.2485 377.251 36.5578 378.276 36.981C379.31 37.4041 380.046 37.811 380.486 38.2017C381.194 38.8283 381.548 39.6299 381.548 40.6064C381.548 41.583 381.133 42.4212 380.303 43.1211C379.473 43.8128 378.394 44.1587 377.068 44.1587H376.75C375.416 44.1587 374.415 43.9674 373.748 43.585C373.08 43.1943 372.747 42.6898 372.747 42.0713C372.747 41.4447 373.007 41.1313 373.528 41.1313C373.699 41.1313 374.142 41.3511 374.858 41.7905C375.583 42.23 376.291 42.4497 376.982 42.4497C377.682 42.4497 378.207 42.3032 378.557 42.0103C378.907 41.7091 379.082 41.3348 379.082 40.8872C379.082 40.4315 378.862 40.0327 378.423 39.6909C378.187 39.5037 377.511 39.166 376.396 38.6777C375.282 38.1813 374.472 37.6849 373.967 37.1885ZM391.936 37.1885C391.44 36.6839 391.191 35.9759 391.191 35.0645C391.191 34.153 391.598 33.3717 392.412 32.7207C393.226 32.0615 394.235 31.7319 395.439 31.7319H395.757C396.823 31.7319 397.669 31.8825 398.296 32.1836C398.931 32.4847 399.248 32.9364 399.248 33.5386C399.248 34.1326 398.984 34.4297 398.455 34.4297C398.316 34.4297 397.926 34.2669 397.283 33.9414C396.64 33.6077 396.034 33.4409 395.464 33.4409C394.894 33.4409 394.434 33.5711 394.084 33.8315C393.743 34.0838 393.572 34.4338 393.572 34.8813C393.572 35.3289 393.812 35.7196 394.292 36.0532C394.569 36.2485 395.22 36.5578 396.245 36.981C397.279 37.4041 398.015 37.811 398.455 38.2017C399.163 38.8283 399.517 39.6299 399.517 40.6064C399.517 41.583 399.102 42.4212 398.271 43.1211C397.441 43.8128 396.363 44.1587 395.037 44.1587H394.719C393.385 44.1587 392.384 43.9674 391.716 43.585C391.049 43.1943 390.715 42.6898 390.715 42.0713C390.715 41.4447 390.976 41.1313 391.497 41.1313C391.667 41.1313 392.111 41.3511 392.827 41.7905C393.551 42.23 394.259 42.4497 394.951 42.4497C395.651 42.4497 396.176 42.3032 396.526 42.0103C396.876 41.7091 397.051 41.3348 397.051 40.8872C397.051 40.4315 396.831 40.0327 396.392 39.6909C396.156 39.5037 395.48 39.166 394.365 38.6777C393.25 38.1813 392.441 37.6849 391.936 37.1885ZM403.618 43.7681C402.658 43.7681 402.178 43.4263 402.178 42.7427C402.178 42.4334 402.251 41.9736 402.397 41.3633C402.552 40.7529 402.654 40.1914 402.703 39.6787C402.751 39.1579 402.837 37.4814 402.959 34.6494C403.089 31.8174 403.154 30.0921 403.154 29.4736V28.0332L403.081 27.0078C403.081 26.6253 403.431 26.4341 404.131 26.4341C404.839 26.4341 405.299 26.7067 405.51 27.252C405.616 27.5286 405.669 28.432 405.669 29.9619C405.669 31.4919 405.697 32.3626 405.754 32.5742C405.819 32.7858 405.986 32.8916 406.255 32.8916C406.287 32.8916 406.442 32.8428 406.719 32.7451L406.987 32.6475C407.858 32.3057 408.611 32.1348 409.246 32.1348C410.58 32.1348 411.528 32.6556 412.09 33.6973C412.464 34.389 412.651 35.8945 412.651 38.2139C412.651 39.3044 412.66 39.9513 412.676 40.1548C412.692 40.3582 412.745 40.7285 412.834 41.2656C412.924 41.7946 412.969 42.0876 412.969 42.1445C412.969 42.6247 412.859 42.9827 412.639 43.2188C412.428 43.4466 412.041 43.5605 411.479 43.5605C410.926 43.5605 410.564 43.3896 410.393 43.0479C410.304 42.8688 410.259 42.3521 410.259 41.4976L410.222 39.3491L410.259 37.4082C410.259 35.2354 409.624 34.1489 408.354 34.1489C407.231 34.1489 406.43 34.6209 405.95 35.5649C405.47 36.509 405.229 38.2586 405.229 40.814L405.266 42.1445C405.266 42.6003 405.124 42.9868 404.839 43.3042C404.554 43.6134 404.147 43.7681 403.618 43.7681ZM418.206 38.8486C418.206 39.9147 418.45 40.8018 418.938 41.5098C419.426 42.2178 420.024 42.5718 420.732 42.5718H421.099C421.937 42.5718 422.645 42.1486 423.223 41.3022C423.809 40.4559 424.102 39.3288 424.102 37.9209V37.1152C424.102 36.0247 423.861 35.1336 423.381 34.4419C422.909 33.742 422.299 33.3921 421.55 33.3921H421.306C420.435 33.3921 419.703 33.8234 419.109 34.686C418.523 35.5487 418.23 36.5781 418.23 37.7744L418.206 38.0552V38.8486ZM420.964 44.2319H420.574C419.15 44.2319 417.99 43.7355 417.095 42.7427C416.2 41.7498 415.752 40.342 415.752 38.519L415.764 38.3115C415.764 36.3096 416.293 34.7308 417.351 33.5752C417.904 32.9648 418.535 32.5173 419.243 32.2324C419.959 31.9395 420.639 31.793 421.282 31.793H421.88C422.596 31.793 423.284 31.9517 423.943 32.269C425.831 33.1805 426.775 34.8976 426.775 37.4204V37.6157C426.767 38.4377 426.632 39.2718 426.372 40.1182C425.851 41.7865 424.85 42.9665 423.369 43.6582C422.547 44.0407 421.746 44.2319 420.964 44.2319ZM430.083 37.6523V36.7124C430.083 35.5812 430.022 34.7552 429.9 34.2344C429.778 33.7054 429.717 33.3351 429.717 33.1235C429.717 32.6271 430.079 32.3789 430.803 32.3789C431.528 32.3789 432.052 32.5132 432.378 32.7817C432.467 32.855 432.581 32.9974 432.72 33.209C432.866 33.4206 432.996 33.5264 433.11 33.5264C433.135 33.5264 433.489 33.3188 434.172 32.9038C434.856 32.4888 435.442 32.2812 435.93 32.2812H436.113C436.512 32.2812 436.829 32.3789 437.065 32.5742C437.301 32.7614 437.419 32.9933 437.419 33.27V33.4287C437.419 33.7624 437.301 34.0024 437.065 34.1489C436.838 34.2954 436.471 34.3687 435.967 34.3687C434.819 34.3687 433.981 34.7715 433.452 35.5771C432.931 36.3828 432.671 37.807 432.671 39.8496C432.671 40.1426 432.72 40.5942 432.817 41.2046C432.923 41.8149 432.976 42.2747 432.976 42.584C432.976 42.8932 432.809 43.1903 432.476 43.4751C432.142 43.7599 431.719 43.9023 431.206 43.9023H430.791C430.343 43.9023 429.998 43.7965 429.753 43.585C429.517 43.3652 429.399 43.1007 429.399 42.7915C429.399 42.4741 429.456 42.1527 429.57 41.8271C429.88 40.9482 430.034 39.9798 430.034 38.9219C430.067 38.3359 430.083 37.9128 430.083 37.6523ZM445.818 42.6938C445.818 43.0194 445.618 43.3123 445.22 43.5728C444.829 43.825 444.296 43.9512 443.621 43.9512C442.359 43.9512 441.472 43.4832 440.959 42.5474C440.642 41.9614 440.483 40.5902 440.483 38.4336C440.483 36.277 440.447 35.0238 440.374 34.6738C440.3 34.3239 440.097 33.9821 439.763 33.6484C439.43 33.3148 439.263 33.0584 439.263 32.8794C439.263 32.8143 439.657 32.387 440.447 31.5977C440.618 31.4268 440.789 31.0483 440.959 30.4624C441.139 29.8765 441.265 29.4899 441.338 29.3027C441.582 28.7168 441.903 28.4238 442.302 28.4238H442.498C442.847 28.4238 443.096 28.5581 443.242 28.8267C443.299 28.9325 443.385 29.3149 443.499 29.9741C443.621 30.6252 443.759 31.0443 443.914 31.2314C444.068 31.4186 444.455 31.6261 445.073 31.854C445.7 32.0737 446.013 32.3097 446.013 32.562V32.6963C446.013 33.0218 445.655 33.2985 444.939 33.5264C444.231 33.7461 443.775 34.1001 443.572 34.5884C443.173 35.5731 442.974 37.1763 442.974 39.3979C442.974 40.4396 443.153 41.1476 443.511 41.522C443.73 41.7498 444.17 41.9085 444.829 41.998C445.488 42.0876 445.818 42.3195 445.818 42.6938ZM452.471 42.4619H452.788C453.455 42.4619 454.041 42.2381 454.546 41.7905C455.059 41.3348 455.315 40.8099 455.315 40.2158L455.339 40.0571V39.8984L455.364 39.52V38.8242C455.364 38.3522 455.124 38.1162 454.644 38.1162H454.094L454.009 38.1284L453.533 38.165C453.305 38.1976 453.142 38.2139 453.044 38.2139C452.385 38.2139 451.775 38.4621 451.213 38.9585C450.823 39.3084 450.627 39.8049 450.627 40.4478V40.6919C450.627 41.2371 450.802 41.6685 451.152 41.9858C451.51 42.3032 451.95 42.4619 452.471 42.4619ZM449.749 34.6616C449.203 34.6616 448.931 34.3117 448.931 33.6118C448.931 33.091 449.37 32.6393 450.249 32.2568C451.136 31.8662 452.056 31.6709 453.008 31.6709H453.618C454.44 31.6709 455.164 31.8255 455.791 32.1348C456.418 32.4359 456.894 32.8468 457.219 33.3677C457.553 33.8885 457.756 34.568 457.83 35.4062C457.846 35.6016 457.854 36.5496 457.854 38.2505C457.854 39.9513 457.874 40.932 457.915 41.1924C457.964 41.4447 458.094 41.7539 458.306 42.1201C458.525 42.4863 458.635 42.7874 458.635 43.0234C458.635 43.2594 458.521 43.4629 458.293 43.6338C458.074 43.7965 457.752 43.8779 457.329 43.8779C456.906 43.8779 456.446 43.7762 455.95 43.5728C455.453 43.3612 455.091 43.2554 454.863 43.2554C454.839 43.2554 454.432 43.4019 453.643 43.6948C452.853 43.9797 452.186 44.1221 451.641 44.1221H451.372C450.461 44.1221 449.683 43.8332 449.041 43.2554C448.406 42.6776 448.088 41.8556 448.088 40.7896C448.088 39.7235 448.438 38.8934 449.138 38.2993C449.838 37.6971 450.688 37.2861 451.689 37.0664C451.991 37.0013 452.491 36.9159 453.191 36.8101C453.891 36.7043 454.367 36.5944 454.619 36.4805C455.059 36.277 455.278 35.8945 455.278 35.333C455.278 34.7633 455.091 34.3198 454.717 34.0024C454.342 33.6769 453.895 33.5142 453.374 33.5142C452.861 33.5142 452.186 33.7054 451.348 34.0879C450.509 34.4704 449.976 34.6616 449.749 34.6616ZM463.64 38.3481V38.7266C463.64 39.8171 463.848 40.6715 464.263 41.29C464.678 41.9085 465.199 42.2178 465.825 42.2178H466.252C467.156 42.2178 467.86 41.8394 468.364 41.0825C468.869 40.3175 469.121 39.2474 469.121 37.8721C469.137 37.7093 469.146 37.5832 469.146 37.4937L469.17 36.9932V36.2607C469.154 36.098 469.146 35.9759 469.146 35.8945C469.146 35.2516 468.991 34.7471 468.682 34.3809C468.372 34.0146 467.917 33.8315 467.314 33.8315H466.973C466.012 33.8315 465.215 34.2344 464.58 35.04C463.953 35.8457 463.64 36.9484 463.64 38.3481ZM470.732 32.8306C471.44 32.8306 471.794 33.3433 471.794 34.3687C471.794 34.6372 471.685 35.7603 471.465 37.7378C471.245 39.7153 471.135 41.3958 471.135 42.7793C471.135 44.179 471.042 45.2288 470.854 45.9287C470.456 47.4342 469.532 48.5003 468.083 49.127C467.327 49.4525 466.488 49.6152 465.569 49.6152C464.657 49.6152 463.844 49.4525 463.127 49.127C462.419 48.8014 462.065 48.4108 462.065 47.9551C462.065 47.4342 462.415 47.1738 463.115 47.1738C463.254 47.1738 463.628 47.2267 464.238 47.3325C464.849 47.4383 465.288 47.4912 465.557 47.4912C466.541 47.4912 467.347 47.182 467.974 46.5635C468.608 45.9531 468.926 45.1678 468.926 44.2075C468.926 43.703 468.739 43.4507 468.364 43.4507C468.299 43.4507 468.145 43.4751 467.9 43.5239C467.209 43.6623 466.578 43.7314 466.008 43.7314C464.56 43.7314 463.469 43.292 462.737 42.4131C462.395 42.0062 462.102 41.465 461.858 40.7896C461.622 40.106 461.504 39.3857 461.504 38.6289V38.2871C461.504 37.4896 461.634 36.7043 461.895 35.9312C462.163 35.1499 462.517 34.4948 462.957 33.9658C463.396 33.4287 463.97 33.0096 464.678 32.7085C465.386 32.4074 466.11 32.2568 466.851 32.2568H467.168C467.583 32.2568 468.116 32.3708 468.767 32.5986C469.426 32.8184 469.829 32.9282 469.976 32.9282C470.301 32.8631 470.553 32.8306 470.732 32.8306ZM477.214 36.5781V36.7734C477.214 37.0176 477.438 37.1396 477.886 37.1396H478.179L478.252 37.1274L478.85 37.0786C479.477 36.9891 479.884 36.9443 480.071 36.9443C480.958 36.9443 481.625 36.7775 482.073 36.4438C482.284 36.2811 482.39 35.9922 482.39 35.5771V35.4429C482.39 34.8325 482.187 34.3483 481.78 33.9902C481.381 33.6322 480.901 33.4531 480.339 33.4531H480.254L480.181 33.4653C479.391 33.4653 478.7 33.799 478.105 34.4663C477.511 35.1336 477.214 35.8376 477.214 36.5781ZM479.875 44.1587H479.607C478.053 44.1587 476.816 43.6663 475.896 42.6816C474.976 41.6888 474.517 40.3664 474.517 38.7144V38.1772C474.517 37.3879 474.671 36.5863 474.98 35.7725C475.607 34.1449 476.628 33.0218 478.044 32.4033C478.793 32.0697 479.554 31.9028 480.327 31.9028H480.852C481.918 31.9028 482.817 32.2609 483.55 32.9771C484.29 33.6851 484.661 34.6006 484.661 35.7236V35.9678C484.661 36.7653 484.343 37.3309 483.708 37.6646C483.269 37.9006 482.244 38.1366 480.632 38.3726C479.021 38.6086 478.142 38.751 477.996 38.7998C477.507 38.9707 477.263 39.2962 477.263 39.7764C477.263 40.4437 477.548 41.0133 478.118 41.4854C478.687 41.9574 479.452 42.1934 480.413 42.1934C480.86 42.1934 481.471 42.0713 482.244 41.8271C483.017 41.583 483.464 41.4609 483.586 41.4609C484.001 41.4609 484.209 41.64 484.209 41.998C484.209 42.4782 483.741 42.9583 482.805 43.4385C481.869 43.9186 480.893 44.1587 479.875 44.1587ZM488.176 37.1885C487.68 36.6839 487.432 35.9759 487.432 35.0645C487.432 34.153 487.839 33.3717 488.652 32.7207C489.466 32.0615 490.475 31.7319 491.68 31.7319H491.997C493.063 31.7319 493.91 31.8825 494.536 32.1836C495.171 32.4847 495.488 32.9364 495.488 33.5386C495.488 34.1326 495.224 34.4297 494.695 34.4297C494.556 34.4297 494.166 34.2669 493.523 33.9414C492.88 33.6077 492.274 33.4409 491.704 33.4409C491.134 33.4409 490.675 33.5711 490.325 33.8315C489.983 34.0838 489.812 34.4338 489.812 34.8813C489.812 35.3289 490.052 35.7196 490.532 36.0532C490.809 36.2485 491.46 36.5578 492.485 36.981C493.519 37.4041 494.255 37.811 494.695 38.2017C495.403 38.8283 495.757 39.6299 495.757 40.6064C495.757 41.583 495.342 42.4212 494.512 43.1211C493.682 43.8128 492.603 44.1587 491.277 44.1587H490.959C489.625 44.1587 488.624 43.9674 487.957 43.585C487.289 43.1943 486.956 42.6898 486.956 42.0713C486.956 41.4447 487.216 41.1313 487.737 41.1313C487.908 41.1313 488.351 41.3511 489.067 41.7905C489.792 42.23 490.5 42.4497 491.191 42.4497C491.891 42.4497 492.416 42.3032 492.766 42.0103C493.116 41.7091 493.291 41.3348 493.291 40.8872C493.291 40.4315 493.071 40.0327 492.632 39.6909C492.396 39.5037 491.72 39.166 490.605 38.6777C489.491 38.1813 488.681 37.6849 488.176 37.1885ZM498.577 42.3643C498.577 41.9574 498.703 41.64 498.955 41.4121C499.207 41.1842 499.537 41.0703 499.944 41.0703H500.396C500.811 41.0703 501.116 41.168 501.311 41.3633C501.506 41.5586 501.604 41.937 501.604 42.4985V42.6816C501.604 43.7233 501.323 44.6999 500.762 45.6113C500.037 46.7913 499.386 47.3813 498.809 47.3813H498.723C498.381 47.3813 498.21 47.2349 498.21 46.9419C498.21 46.8361 498.385 46.5187 498.735 45.9897C499.085 45.4689 499.26 45.0783 499.26 44.8179C499.26 44.5656 499.15 44.2197 498.931 43.7803C498.711 43.3408 498.601 43.0112 498.601 42.7915L498.577 42.6206V42.3643ZM512.517 37.1885C512.021 36.6839 511.772 35.9759 511.772 35.0645C511.772 34.153 512.179 33.3717 512.993 32.7207C513.807 32.0615 514.816 31.7319 516.021 31.7319H516.338C517.404 31.7319 518.25 31.8825 518.877 32.1836C519.512 32.4847 519.829 32.9364 519.829 33.5386C519.829 34.1326 519.565 34.4297 519.036 34.4297C518.897 34.4297 518.507 34.2669 517.864 33.9414C517.221 33.6077 516.615 33.4409 516.045 33.4409C515.475 33.4409 515.015 33.5711 514.666 33.8315C514.324 34.0838 514.153 34.4338 514.153 34.8813C514.153 35.3289 514.393 35.7196 514.873 36.0532C515.15 36.2485 515.801 36.5578 516.826 36.981C517.86 37.4041 518.596 37.811 519.036 38.2017C519.744 38.8283 520.098 39.6299 520.098 40.6064C520.098 41.583 519.683 42.4212 518.853 43.1211C518.022 43.8128 516.944 44.1587 515.618 44.1587H515.3C513.966 44.1587 512.965 43.9674 512.297 43.585C511.63 43.1943 511.296 42.6898 511.296 42.0713C511.296 41.4447 511.557 41.1313 512.078 41.1313C512.249 41.1313 512.692 41.3511 513.408 41.7905C514.132 42.23 514.84 42.4497 515.532 42.4497C516.232 42.4497 516.757 42.3032 517.107 42.0103C517.457 41.7091 517.632 41.3348 517.632 40.8872C517.632 40.4315 517.412 40.0327 516.973 39.6909C516.737 39.5037 516.061 39.166 514.946 38.6777C513.831 38.1813 513.022 37.6849 512.517 37.1885ZM522.747 33.0259C522.747 32.5132 523.178 32.2568 524.041 32.2568H524.321C524.858 32.2568 525.221 32.4725 525.408 32.9038C525.595 33.3351 525.688 34.1408 525.688 35.3208L525.542 39.3979C525.542 41.2941 526.222 42.2422 527.581 42.2422C528.077 42.2422 528.553 42.0672 529.009 41.7173C529.465 41.3674 529.802 40.9482 530.022 40.46C530.502 39.3857 530.742 37.4611 530.742 34.686L530.718 34.1489V33.6729C530.718 33.2415 530.815 32.9282 531.011 32.7329C531.206 32.5376 531.548 32.4399 532.036 32.4399C532.524 32.4399 532.846 32.5579 533 32.7939C533.155 33.0299 533.232 33.4124 533.232 33.9414L533.208 34.5884L533.159 37.4692C533.159 37.9331 533.188 38.6452 533.245 39.6055C533.302 40.5658 533.363 41.2697 533.428 41.7173C533.493 42.1567 533.525 42.4172 533.525 42.4985C533.525 43.2228 532.992 43.585 531.926 43.585C531.56 43.585 531.194 43.4507 530.828 43.1821C530.47 42.9054 530.213 42.7671 530.059 42.7671C529.912 42.7671 529.66 42.8566 529.302 43.0356C528.285 43.5483 527.418 43.8047 526.702 43.8047H526.396C525.233 43.8047 524.378 43.4466 523.833 42.7305C523.288 42.0143 523.015 40.7244 523.015 38.8608L523.137 35.1621C523.137 34.6982 523.072 34.2547 522.942 33.8315C522.812 33.4084 522.747 33.1398 522.747 33.0259ZM538.713 38.3481V38.7266C538.713 39.8171 538.921 40.6715 539.336 41.29C539.751 41.9085 540.272 42.2178 540.898 42.2178H541.326C542.229 42.2178 542.933 41.8394 543.438 41.0825C543.942 40.3175 544.194 39.2474 544.194 37.8721C544.211 37.7093 544.219 37.5832 544.219 37.4937L544.243 36.9932V36.2607C544.227 36.098 544.219 35.9759 544.219 35.8945C544.219 35.2516 544.064 34.7471 543.755 34.3809C543.446 34.0146 542.99 33.8315 542.388 33.8315H542.046C541.086 33.8315 540.288 34.2344 539.653 35.04C539.027 35.8457 538.713 36.9484 538.713 38.3481ZM545.806 32.8306C546.514 32.8306 546.868 33.3433 546.868 34.3687C546.868 34.6372 546.758 35.7603 546.538 37.7378C546.318 39.7153 546.208 41.3958 546.208 42.7793C546.208 44.179 546.115 45.2288 545.928 45.9287C545.529 47.4342 544.605 48.5003 543.157 49.127C542.4 49.4525 541.562 49.6152 540.642 49.6152C539.731 49.6152 538.917 49.4525 538.201 49.127C537.493 48.8014 537.139 48.4108 537.139 47.9551C537.139 47.4342 537.489 47.1738 538.188 47.1738C538.327 47.1738 538.701 47.2267 539.312 47.3325C539.922 47.4383 540.361 47.4912 540.63 47.4912C541.615 47.4912 542.42 47.182 543.047 46.5635C543.682 45.9531 543.999 45.1678 543.999 44.2075C543.999 43.703 543.812 43.4507 543.438 43.4507C543.372 43.4507 543.218 43.4751 542.974 43.5239C542.282 43.6623 541.651 43.7314 541.082 43.7314C539.633 43.7314 538.542 43.292 537.81 42.4131C537.468 42.0062 537.175 41.465 536.931 40.7896C536.695 40.106 536.577 39.3857 536.577 38.6289V38.2871C536.577 37.4896 536.707 36.7043 536.968 35.9312C537.236 35.1499 537.59 34.4948 538.03 33.9658C538.469 33.4287 539.043 33.0096 539.751 32.7085C540.459 32.4074 541.183 32.2568 541.924 32.2568H542.241C542.656 32.2568 543.189 32.3708 543.84 32.5986C544.5 32.8184 544.902 32.9282 545.049 32.9282C545.374 32.8631 545.627 32.8306 545.806 32.8306ZM552.263 38.3481V38.7266C552.263 39.8171 552.471 40.6715 552.886 41.29C553.301 41.9085 553.822 42.2178 554.448 42.2178H554.875C555.779 42.2178 556.483 41.8394 556.987 41.0825C557.492 40.3175 557.744 39.2474 557.744 37.8721C557.76 37.7093 557.769 37.5832 557.769 37.4937L557.793 36.9932V36.2607C557.777 36.098 557.769 35.9759 557.769 35.8945C557.769 35.2516 557.614 34.7471 557.305 34.3809C556.995 34.0146 556.54 33.8315 555.938 33.8315H555.596C554.635 33.8315 553.838 34.2344 553.203 35.04C552.576 35.8457 552.263 36.9484 552.263 38.3481ZM559.355 32.8306C560.063 32.8306 560.417 33.3433 560.417 34.3687C560.417 34.6372 560.308 35.7603 560.088 37.7378C559.868 39.7153 559.758 41.3958 559.758 42.7793C559.758 44.179 559.665 45.2288 559.478 45.9287C559.079 47.4342 558.155 48.5003 556.707 49.127C555.95 49.4525 555.111 49.6152 554.192 49.6152C553.28 49.6152 552.467 49.4525 551.75 49.127C551.042 48.8014 550.688 48.4108 550.688 47.9551C550.688 47.4342 551.038 47.1738 551.738 47.1738C551.877 47.1738 552.251 47.2267 552.861 47.3325C553.472 47.4383 553.911 47.4912 554.18 47.4912C555.164 47.4912 555.97 47.182 556.597 46.5635C557.231 45.9531 557.549 45.1678 557.549 44.2075C557.549 43.703 557.362 43.4507 556.987 43.4507C556.922 43.4507 556.768 43.4751 556.523 43.5239C555.832 43.6623 555.201 43.7314 554.631 43.7314C553.183 43.7314 552.092 43.292 551.36 42.4131C551.018 42.0062 550.725 41.465 550.481 40.7896C550.245 40.106 550.127 39.3857 550.127 38.6289V38.2871C550.127 37.4896 550.257 36.7043 550.518 35.9312C550.786 35.1499 551.14 34.4948 551.58 33.9658C552.019 33.4287 552.593 33.0096 553.301 32.7085C554.009 32.4074 554.733 32.2568 555.474 32.2568H555.791C556.206 32.2568 556.739 32.3708 557.39 32.5986C558.049 32.8184 558.452 32.9282 558.599 32.9282C558.924 32.8631 559.176 32.8306 559.355 32.8306ZM565.837 36.5781V36.7734C565.837 37.0176 566.061 37.1396 566.509 37.1396H566.802L566.875 37.1274L567.473 37.0786C568.1 36.9891 568.507 36.9443 568.694 36.9443C569.581 36.9443 570.248 36.7775 570.696 36.4438C570.907 36.2811 571.013 35.9922 571.013 35.5771V35.4429C571.013 34.8325 570.81 34.3483 570.403 33.9902C570.004 33.6322 569.524 33.4531 568.962 33.4531H568.877L568.804 33.4653C568.014 33.4653 567.323 33.799 566.729 34.4663C566.134 35.1336 565.837 35.8376 565.837 36.5781ZM568.499 44.1587H568.23C566.676 44.1587 565.439 43.6663 564.519 42.6816C563.599 41.6888 563.14 40.3664 563.14 38.7144V38.1772C563.14 37.3879 563.294 36.5863 563.604 35.7725C564.23 34.1449 565.251 33.0218 566.667 32.4033C567.416 32.0697 568.177 31.9028 568.95 31.9028H569.475C570.541 31.9028 571.44 32.2609 572.173 32.9771C572.913 33.6851 573.284 34.6006 573.284 35.7236V35.9678C573.284 36.7653 572.966 37.3309 572.332 37.6646C571.892 37.9006 570.867 38.1366 569.255 38.3726C567.644 38.6086 566.765 38.751 566.619 38.7998C566.13 38.9707 565.886 39.2962 565.886 39.7764C565.886 40.4437 566.171 41.0133 566.741 41.4854C567.31 41.9574 568.075 42.1934 569.036 42.1934C569.483 42.1934 570.094 42.0713 570.867 41.8271C571.64 41.583 572.087 41.4609 572.209 41.4609C572.625 41.4609 572.832 41.64 572.832 41.998C572.832 42.4782 572.364 42.9583 571.428 43.4385C570.492 43.9186 569.516 44.1587 568.499 44.1587ZM576.799 37.1885C576.303 36.6839 576.055 35.9759 576.055 35.0645C576.055 34.153 576.462 33.3717 577.275 32.7207C578.089 32.0615 579.098 31.7319 580.303 31.7319H580.62C581.686 31.7319 582.533 31.8825 583.159 32.1836C583.794 32.4847 584.111 32.9364 584.111 33.5386C584.111 34.1326 583.847 34.4297 583.318 34.4297C583.18 34.4297 582.789 34.2669 582.146 33.9414C581.503 33.6077 580.897 33.4409 580.327 33.4409C579.757 33.4409 579.298 33.5711 578.948 33.8315C578.606 34.0838 578.435 34.4338 578.435 34.8813C578.435 35.3289 578.675 35.7196 579.155 36.0532C579.432 36.2485 580.083 36.5578 581.108 36.981C582.142 37.4041 582.878 37.811 583.318 38.2017C584.026 38.8283 584.38 39.6299 584.38 40.6064C584.38 41.583 583.965 42.4212 583.135 43.1211C582.305 43.8128 581.226 44.1587 579.9 44.1587H579.583C578.248 44.1587 577.247 43.9674 576.58 43.585C575.912 43.1943 575.579 42.6898 575.579 42.0713C575.579 41.4447 575.839 41.1313 576.36 41.1313C576.531 41.1313 576.974 41.3511 577.69 41.7905C578.415 42.23 579.123 42.4497 579.814 42.4497C580.514 42.4497 581.039 42.3032 581.389 42.0103C581.739 41.7091 581.914 41.3348 581.914 40.8872C581.914 40.4315 581.694 40.0327 581.255 39.6909C581.019 39.5037 580.343 39.166 579.229 38.6777C578.114 38.1813 577.304 37.6849 576.799 37.1885ZM593.376 42.6938C593.376 43.0194 593.177 43.3123 592.778 43.5728C592.388 43.825 591.855 43.9512 591.179 43.9512C589.918 43.9512 589.031 43.4832 588.518 42.5474C588.201 41.9614 588.042 40.5902 588.042 38.4336C588.042 36.277 588.005 35.0238 587.932 34.6738C587.859 34.3239 587.655 33.9821 587.322 33.6484C586.988 33.3148 586.821 33.0584 586.821 32.8794C586.821 32.8143 587.216 32.387 588.005 31.5977C588.176 31.4268 588.347 31.0483 588.518 30.4624C588.697 29.8765 588.823 29.4899 588.896 29.3027C589.141 28.7168 589.462 28.4238 589.861 28.4238H590.056C590.406 28.4238 590.654 28.5581 590.801 28.8267C590.858 28.9325 590.943 29.3149 591.057 29.9741C591.179 30.6252 591.318 31.0443 591.472 31.2314C591.627 31.4186 592.013 31.6261 592.632 31.854C593.258 32.0737 593.572 32.3097 593.572 32.562V32.6963C593.572 33.0218 593.214 33.2985 592.498 33.5264C591.79 33.7461 591.334 34.1001 591.13 34.5884C590.732 35.5731 590.532 37.1763 590.532 39.3979C590.532 40.4396 590.711 41.1476 591.069 41.522C591.289 41.7498 591.729 41.9085 592.388 41.998C593.047 42.0876 593.376 42.3195 593.376 42.6938ZM597.087 37.1885C596.591 36.6839 596.343 35.9759 596.343 35.0645C596.343 34.153 596.75 33.3717 597.563 32.7207C598.377 32.0615 599.386 31.7319 600.591 31.7319H600.908C601.974 31.7319 602.821 31.8825 603.447 32.1836C604.082 32.4847 604.399 32.9364 604.399 33.5386C604.399 34.1326 604.135 34.4297 603.606 34.4297C603.468 34.4297 603.077 34.2669 602.434 33.9414C601.791 33.6077 601.185 33.4409 600.615 33.4409C600.046 33.4409 599.586 33.5711 599.236 33.8315C598.894 34.0838 598.723 34.4338 598.723 34.8813C598.723 35.3289 598.963 35.7196 599.443 36.0532C599.72 36.2485 600.371 36.5578 601.396 36.981C602.43 37.4041 603.167 37.811 603.606 38.2017C604.314 38.8283 604.668 39.6299 604.668 40.6064C604.668 41.583 604.253 42.4212 603.423 43.1211C602.593 43.8128 601.514 44.1587 600.188 44.1587H599.871C598.536 44.1587 597.535 43.9674 596.868 43.585C596.2 43.1943 595.867 42.6898 595.867 42.0713C595.867 41.4447 596.127 41.1313 596.648 41.1313C596.819 41.1313 597.262 41.3511 597.979 41.7905C598.703 42.23 599.411 42.4497 600.103 42.4497C600.802 42.4497 601.327 42.3032 601.677 42.0103C602.027 41.7091 602.202 41.3348 602.202 40.8872C602.202 40.4315 601.982 40.0327 601.543 39.6909C601.307 39.5037 600.632 39.166 599.517 38.6777C598.402 38.1813 597.592 37.6849 597.087 37.1885ZM614.922 37.6523V36.7124C614.922 35.5812 614.861 34.7552 614.739 34.2344C614.617 33.7054 614.556 33.3351 614.556 33.1235C614.556 32.6271 614.918 32.3789 615.642 32.3789C616.366 32.3789 616.891 32.5132 617.217 32.7817C617.306 32.855 617.42 32.9974 617.559 33.209C617.705 33.4206 617.835 33.5264 617.949 33.5264C617.974 33.5264 618.328 33.3188 619.011 32.9038C619.695 32.4888 620.281 32.2812 620.769 32.2812H620.952C621.351 32.2812 621.668 32.3789 621.904 32.5742C622.14 32.7614 622.258 32.9933 622.258 33.27V33.4287C622.258 33.7624 622.14 34.0024 621.904 34.1489C621.676 34.2954 621.31 34.3687 620.806 34.3687C619.658 34.3687 618.82 34.7715 618.291 35.5771C617.77 36.3828 617.51 37.807 617.51 39.8496C617.51 40.1426 617.559 40.5942 617.656 41.2046C617.762 41.8149 617.815 42.2747 617.815 42.584C617.815 42.8932 617.648 43.1903 617.314 43.4751C616.981 43.7599 616.558 43.9023 616.045 43.9023H615.63C615.182 43.9023 614.836 43.7965 614.592 43.585C614.356 43.3652 614.238 43.1007 614.238 42.7915C614.238 42.4741 614.295 42.1527 614.409 41.8271C614.718 40.9482 614.873 39.9798 614.873 38.9219C614.906 38.3359 614.922 37.9128 614.922 37.6523ZM626.311 36.5781V36.7734C626.311 37.0176 626.535 37.1396 626.982 37.1396H627.275L627.349 37.1274L627.947 37.0786C628.573 36.9891 628.98 36.9443 629.167 36.9443C630.055 36.9443 630.722 36.7775 631.169 36.4438C631.381 36.2811 631.487 35.9922 631.487 35.5771V35.4429C631.487 34.8325 631.283 34.3483 630.876 33.9902C630.478 33.6322 629.998 33.4531 629.436 33.4531H629.351L629.277 33.4653C628.488 33.4653 627.796 33.799 627.202 34.4663C626.608 35.1336 626.311 35.8376 626.311 36.5781ZM628.972 44.1587H628.704C627.149 44.1587 625.912 43.6663 624.993 42.6816C624.073 41.6888 623.613 40.3664 623.613 38.7144V38.1772C623.613 37.3879 623.768 36.5863 624.077 35.7725C624.704 34.1449 625.725 33.0218 627.141 32.4033C627.89 32.0697 628.651 31.9028 629.424 31.9028H629.949C631.015 31.9028 631.914 32.2609 632.646 32.9771C633.387 33.6851 633.757 34.6006 633.757 35.7236V35.9678C633.757 36.7653 633.44 37.3309 632.805 37.6646C632.366 37.9006 631.34 38.1366 629.729 38.3726C628.118 38.6086 627.239 38.751 627.092 38.7998C626.604 38.9707 626.36 39.2962 626.36 39.7764C626.36 40.4437 626.645 41.0133 627.214 41.4854C627.784 41.9574 628.549 42.1934 629.509 42.1934C629.957 42.1934 630.567 42.0713 631.34 41.8271C632.113 41.583 632.561 41.4609 632.683 41.4609C633.098 41.4609 633.306 41.64 633.306 41.998C633.306 42.4782 632.838 42.9583 631.902 43.4385C630.966 43.9186 629.989 44.1587 628.972 44.1587ZM638.542 38.8486C638.542 39.9147 638.787 40.8018 639.275 41.5098C639.763 42.2178 640.361 42.5718 641.069 42.5718H641.436C642.274 42.5718 642.982 42.1486 643.56 41.3022C644.146 40.4559 644.438 39.3288 644.438 37.9209V37.1152C644.438 36.0247 644.198 35.1336 643.718 34.4419C643.246 33.742 642.636 33.3921 641.887 33.3921H641.643C640.772 33.3921 640.04 33.8234 639.446 34.686C638.86 35.5487 638.567 36.5781 638.567 37.7744L638.542 38.0552V38.8486ZM641.301 44.2319H640.911C639.486 44.2319 638.327 43.7355 637.432 42.7427C636.536 41.7498 636.089 40.342 636.089 38.519L636.101 38.3115C636.101 36.3096 636.63 34.7308 637.688 33.5752C638.241 32.9648 638.872 32.5173 639.58 32.2324C640.296 31.9395 640.976 31.793 641.619 31.793H642.217C642.933 31.793 643.621 31.9517 644.28 32.269C646.168 33.1805 647.112 34.8976 647.112 37.4204V37.6157C647.104 38.4377 646.969 39.2718 646.709 40.1182C646.188 41.7865 645.187 42.9665 643.706 43.6582C642.884 44.0407 642.083 44.2319 641.301 44.2319ZM650.42 37.6523V36.7124C650.42 35.5812 650.359 34.7552 650.237 34.2344C650.115 33.7054 650.054 33.3351 650.054 33.1235C650.054 32.6271 650.416 32.3789 651.14 32.3789C651.864 32.3789 652.389 32.5132 652.715 32.7817C652.804 32.855 652.918 32.9974 653.057 33.209C653.203 33.4206 653.333 33.5264 653.447 33.5264C653.472 33.5264 653.826 33.3188 654.509 32.9038C655.193 32.4888 655.779 32.2812 656.267 32.2812H656.45C656.849 32.2812 657.166 32.3789 657.402 32.5742C657.638 32.7614 657.756 32.9933 657.756 33.27V33.4287C657.756 33.7624 657.638 34.0024 657.402 34.1489C657.174 34.2954 656.808 34.3687 656.304 34.3687C655.156 34.3687 654.318 34.7715 653.789 35.5771C653.268 36.3828 653.008 37.807 653.008 39.8496C653.008 40.1426 653.057 40.5942 653.154 41.2046C653.26 41.8149 653.313 42.2747 653.313 42.584C653.313 42.8932 653.146 43.1903 652.812 43.4751C652.479 43.7599 652.056 43.9023 651.543 43.9023H651.128C650.68 43.9023 650.334 43.7965 650.09 43.585C649.854 43.3652 649.736 43.1007 649.736 42.7915C649.736 42.4741 649.793 42.1527 649.907 41.8271C650.216 40.9482 650.371 39.9798 650.371 38.9219C650.404 38.3359 650.42 37.9128 650.42 37.6523ZM661.687 38.0796V39.0073C661.687 39.9757 661.907 40.7855 662.346 41.4365C662.794 42.0794 663.319 42.4009 663.921 42.4009H664.263C665.19 42.4009 665.907 42.0306 666.411 41.29C666.924 40.5495 667.18 39.4468 667.18 37.9819C667.196 37.8029 667.205 37.6727 667.205 37.5913L667.229 37.3472L667.241 36.8345V35.9678C667.241 34.3076 666.578 33.4775 665.251 33.4775H664.775C663.913 33.4775 663.18 33.9129 662.578 34.7837C661.984 35.6545 661.687 36.7531 661.687 38.0796ZM659.343 38.6411C659.343 37.7948 659.494 36.9321 659.795 36.0532C660.096 35.1743 660.519 34.4256 661.064 33.8071C661.61 33.1805 662.224 32.7288 662.908 32.4521C663.591 32.1673 664.401 32.0249 665.337 32.0249C666.281 32.0249 666.867 31.854 667.095 31.5122C667.323 31.1623 667.437 30.3932 667.437 29.2051C667.437 28.9854 667.4 28.6924 667.327 28.3262C667.253 27.96 667.217 27.7484 667.217 27.6914C667.217 27.3415 667.367 27.0241 667.668 26.7393C667.97 26.4463 668.364 26.2998 668.853 26.2998H669.097C669.479 26.2998 669.764 26.3893 669.951 26.5684C670.138 26.7474 670.232 27.1217 670.232 27.6914V28.8267L670.208 29.4004C670.199 29.5957 670.195 29.8805 670.195 30.2549C670.195 30.6211 670.134 31.8011 670.012 33.7949C669.89 35.7887 669.829 37.16 669.829 37.9087L669.817 38.2017C669.809 38.397 669.805 38.5841 669.805 38.7632L669.792 39.0439C669.792 39.0439 669.792 39.3613 669.792 39.9961C669.792 40.818 669.858 41.4365 669.988 41.8516C670.118 42.2666 670.183 42.5636 670.183 42.7427C670.183 42.9217 670.081 43.1089 669.878 43.3042C669.674 43.4995 669.357 43.5972 668.926 43.5972C668.503 43.5972 668.092 43.528 667.693 43.3896C667.294 43.2432 667.001 43.1699 666.814 43.1699C666.627 43.1699 666.383 43.2269 666.082 43.3408C665.17 43.6745 664.336 43.8413 663.579 43.8413C663.563 43.8413 663.547 43.8413 663.53 43.8413H663.25C662.021 43.8413 661.06 43.3937 660.369 42.4985C659.685 41.5952 659.343 40.4111 659.343 38.9463V38.6411ZM675.579 36.5781V36.7734C675.579 37.0176 675.802 37.1396 676.25 37.1396H676.543L676.616 37.1274L677.214 37.0786C677.841 36.9891 678.248 36.9443 678.435 36.9443C679.322 36.9443 679.989 36.7775 680.437 36.4438C680.649 36.2811 680.754 35.9922 680.754 35.5771V35.4429C680.754 34.8325 680.551 34.3483 680.144 33.9902C679.745 33.6322 679.265 33.4531 678.704 33.4531H678.618L678.545 33.4653C677.756 33.4653 677.064 33.799 676.47 34.4663C675.876 35.1336 675.579 35.8376 675.579 36.5781ZM678.24 44.1587H677.971C676.417 44.1587 675.18 43.6663 674.26 42.6816C673.341 41.6888 672.881 40.3664 672.881 38.7144V38.1772C672.881 37.3879 673.035 36.5863 673.345 35.7725C673.971 34.1449 674.993 33.0218 676.409 32.4033C677.157 32.0697 677.918 31.9028 678.691 31.9028H679.216C680.282 31.9028 681.182 32.2609 681.914 32.9771C682.655 33.6851 683.025 34.6006 683.025 35.7236V35.9678C683.025 36.7653 682.708 37.3309 682.073 37.6646C681.633 37.9006 680.608 38.1366 678.997 38.3726C677.385 38.6086 676.506 38.751 676.36 38.7998C675.872 38.9707 675.627 39.2962 675.627 39.7764C675.627 40.4437 675.912 41.0133 676.482 41.4854C677.052 41.9574 677.817 42.1934 678.777 42.1934C679.224 42.1934 679.835 42.0713 680.608 41.8271C681.381 41.583 681.829 41.4609 681.951 41.4609C682.366 41.4609 682.573 41.64 682.573 41.998C682.573 42.4782 682.105 42.9583 681.169 43.4385C680.234 43.9186 679.257 44.1587 678.24 44.1587ZM686.455 37.6523V36.7124C686.455 35.5812 686.394 34.7552 686.272 34.2344C686.15 33.7054 686.089 33.3351 686.089 33.1235C686.089 32.6271 686.451 32.3789 687.175 32.3789C687.9 32.3789 688.424 32.5132 688.75 32.7817C688.84 32.855 688.953 32.9974 689.092 33.209C689.238 33.4206 689.368 33.5264 689.482 33.5264C689.507 33.5264 689.861 33.3188 690.544 32.9038C691.228 32.4888 691.814 32.2812 692.302 32.2812H692.485C692.884 32.2812 693.201 32.3789 693.438 32.5742C693.674 32.7614 693.792 32.9933 693.792 33.27V33.4287C693.792 33.7624 693.674 34.0024 693.438 34.1489C693.21 34.2954 692.843 34.3687 692.339 34.3687C691.191 34.3687 690.353 34.7715 689.824 35.5771C689.303 36.3828 689.043 37.807 689.043 39.8496C689.043 40.1426 689.092 40.5942 689.189 41.2046C689.295 41.8149 689.348 42.2747 689.348 42.584C689.348 42.8932 689.181 43.1903 688.848 43.4751C688.514 43.7599 688.091 43.9023 687.578 43.9023H687.163C686.715 43.9023 686.37 43.7965 686.125 43.585C685.889 43.3652 685.771 43.1007 685.771 42.7915C685.771 42.4741 685.828 42.1527 685.942 41.8271C686.252 40.9482 686.406 39.9798 686.406 38.9219C686.439 38.3359 686.455 37.9128 686.455 37.6523ZM270.671 72.6938C270.671 73.0194 270.472 73.3123 270.073 73.5728C269.683 73.825 269.15 73.9512 268.474 73.9512C267.213 73.9512 266.326 73.4832 265.813 72.5474C265.496 71.9614 265.337 70.5902 265.337 68.4336C265.337 66.277 265.3 65.0238 265.227 64.6738C265.154 64.3239 264.95 63.9821 264.617 63.6484C264.283 63.3148 264.116 63.0584 264.116 62.8794C264.116 62.8143 264.511 62.387 265.3 61.5977C265.471 61.4268 265.642 61.0483 265.813 60.4624C265.992 59.8765 266.118 59.4899 266.191 59.3027C266.436 58.7168 266.757 58.4238 267.156 58.4238H267.351C267.701 58.4238 267.949 58.5581 268.096 58.8267C268.153 58.9325 268.238 59.3149 268.352 59.9741C268.474 60.6252 268.612 61.0443 268.767 61.2314C268.922 61.4186 269.308 61.6261 269.927 61.854C270.553 62.0737 270.867 62.3097 270.867 62.562V62.6963C270.867 63.0218 270.509 63.2985 269.792 63.5264C269.084 63.7461 268.629 64.1001 268.425 64.5884C268.027 65.5731 267.827 67.1763 267.827 69.3979C267.827 70.4396 268.006 71.1476 268.364 71.522C268.584 71.7498 269.023 71.9085 269.683 71.998C270.342 72.0876 270.671 72.3195 270.671 72.6938ZM277.446 58.1309V58.2773C277.446 58.6924 277.324 59.0464 277.08 59.3394C276.844 59.6242 276.478 59.7666 275.981 59.7666H275.786L275.408 59.7178C275.188 59.7178 274.976 59.616 274.773 59.4126C274.569 59.2091 274.468 58.904 274.468 58.4971V58.3506L274.529 57.9111C274.529 57.7402 274.631 57.5286 274.834 57.2764C275.046 57.0241 275.314 56.8979 275.64 56.8979L275.92 56.8613H276.165L276.506 56.9102C276.718 56.9102 276.925 57.016 277.129 57.2275C277.34 57.431 277.446 57.7321 277.446 58.1309ZM276.873 63.2822L276.738 66.5659L276.714 66.8955L276.677 67.8965V68.3726C276.677 69.5444 276.71 70.3135 276.775 70.6797C276.848 71.0459 276.982 71.404 277.178 71.7539C277.373 72.0957 277.471 72.3439 277.471 72.4985V72.6084C277.471 73.0072 277.267 73.3245 276.86 73.5605C276.453 73.7965 275.9 73.9146 275.2 73.9146H274.895C274.488 73.9146 274.179 73.825 273.967 73.646C273.756 73.4588 273.65 73.2594 273.65 73.0479V72.7793C273.65 72.6735 273.743 72.2992 273.931 71.6562C274.118 71.0052 274.211 70.1222 274.211 69.0073C274.236 68.6899 274.248 68.4702 274.248 68.3481L274.285 67.6768L274.309 67.3472C274.35 66.7775 274.37 66.334 274.37 66.0166L274.382 65.5283C274.382 64.918 274.281 64.3768 274.077 63.9048C273.882 63.4328 273.784 63.1398 273.784 63.0259C273.784 62.4399 274.338 62.147 275.444 62.147H275.884C276.299 62.147 276.567 62.2568 276.689 62.4766C276.812 62.6882 276.873 62.9567 276.873 63.2822ZM285.564 62.7085C286.191 62.4725 286.833 62.3545 287.493 62.3545C288.152 62.3545 288.835 62.5498 289.543 62.9404C290.26 63.3311 290.65 63.5264 290.715 63.5264C290.78 63.5264 291.22 63.327 292.034 62.9282C292.847 62.5295 293.58 62.3301 294.231 62.3301C294.89 62.3301 295.431 62.4684 295.854 62.7451C296.286 63.0137 296.611 63.3351 296.831 63.7095C297.246 64.4256 297.454 66.0166 297.454 68.4824C297.454 69.5892 297.462 70.224 297.478 70.3867C297.502 70.5413 297.559 70.8221 297.649 71.229C297.747 71.6278 297.795 71.9574 297.795 72.2178C297.795 72.4701 297.69 72.7345 297.478 73.0112C297.266 73.2879 296.986 73.4263 296.636 73.4263C295.944 73.4263 295.533 73.1455 295.403 72.584C295.305 72.1771 295.191 70.9889 295.061 69.0195C294.939 67.0501 294.805 65.8945 294.658 65.5527C294.365 64.8366 293.743 64.4785 292.791 64.4785C292.18 64.4785 291.704 64.861 291.362 65.626C290.866 66.7246 290.618 68.2871 290.618 70.3135L290.74 72.0713C290.74 72.6898 290.512 73.1577 290.056 73.4751C289.763 73.6785 289.373 73.7803 288.884 73.7803C288.404 73.7803 288.087 73.7314 287.932 73.6338C287.664 73.471 287.529 73.1252 287.529 72.5962C287.529 72.4985 287.607 72.0998 287.761 71.3999C287.924 70.6919 288.005 69.5444 288.005 67.9575C288.005 66.3625 287.887 65.3493 287.651 64.918C287.415 64.4785 287.004 64.2588 286.418 64.2588C285.833 64.2588 285.312 64.4582 284.856 64.8569C284.408 65.2557 284.079 65.6911 283.867 66.1631C283.664 66.6351 283.481 67.7581 283.318 69.5322C283.163 71.3063 283.053 72.3236 282.988 72.584C282.874 73.0316 282.545 73.2554 282 73.2554C281.462 73.2554 281.092 73.0967 280.889 72.7793C280.693 72.4538 280.596 72.0591 280.596 71.5952L280.657 71.168L280.889 70.3257C280.986 69.9351 281.043 69.4793 281.06 68.9585C281.182 65.7277 281.275 63.8844 281.34 63.4287C281.405 62.973 281.698 62.7451 282.219 62.7451L284.038 63.0503C284.429 63.0503 284.937 62.9364 285.564 62.7085ZM304.79 58.1309V58.2773C304.79 58.6924 304.668 59.0464 304.424 59.3394C304.188 59.6242 303.822 59.7666 303.325 59.7666H303.13L302.751 59.7178C302.532 59.7178 302.32 59.616 302.117 59.4126C301.913 59.2091 301.812 58.904 301.812 58.4971V58.3506L301.873 57.9111C301.873 57.7402 301.974 57.5286 302.178 57.2764C302.389 57.0241 302.658 56.8979 302.983 56.8979L303.264 56.8613H303.508L303.85 56.9102C304.062 56.9102 304.269 57.016 304.473 57.2275C304.684 57.431 304.79 57.7321 304.79 58.1309ZM304.216 63.2822L304.082 66.5659L304.058 66.8955L304.021 67.8965V68.3726C304.021 69.5444 304.054 70.3135 304.119 70.6797C304.192 71.0459 304.326 71.404 304.521 71.7539C304.717 72.0957 304.814 72.3439 304.814 72.4985V72.6084C304.814 73.0072 304.611 73.3245 304.204 73.5605C303.797 73.7965 303.244 73.9146 302.544 73.9146H302.239C301.832 73.9146 301.523 73.825 301.311 73.646C301.099 73.4588 300.994 73.2594 300.994 73.0479V72.7793C300.994 72.6735 301.087 72.2992 301.274 71.6562C301.462 71.0052 301.555 70.1222 301.555 69.0073C301.58 68.6899 301.592 68.4702 301.592 68.3481L301.628 67.6768L301.653 67.3472C301.694 66.7775 301.714 66.334 301.714 66.0166L301.726 65.5283C301.726 64.918 301.624 64.3768 301.421 63.9048C301.226 63.4328 301.128 63.1398 301.128 63.0259C301.128 62.4399 301.681 62.147 302.788 62.147H303.228C303.643 62.147 303.911 62.2568 304.033 62.4766C304.155 62.6882 304.216 62.9567 304.216 63.2822ZM319.023 72.5352C319.023 73.1374 318.499 73.4385 317.449 73.4385C316.855 73.4385 316.456 73.2961 316.252 73.0112C316.155 72.8729 316.106 72.5474 316.106 72.0347L316.069 71.2534C316.012 70.3989 315.984 69.5404 315.984 68.6777C315.984 66.8141 315.821 65.5649 315.496 64.9302C315.178 64.2873 314.641 63.9658 313.884 63.9658C313.38 63.9658 312.912 64.1164 312.48 64.4175C312.057 64.7186 311.732 65.1377 311.504 65.6748C311.032 66.7734 310.796 68.8039 310.796 71.7661C310.796 72.4416 310.666 72.9176 310.405 73.1943C310.153 73.471 309.827 73.6094 309.429 73.6094H309.185C308.273 73.6094 307.817 73.2472 307.817 72.5229V72.23C307.817 72.1405 307.866 71.9451 307.964 71.644L308.159 71.0825C308.354 70.4233 308.452 69.0114 308.452 66.8467L308.513 63.2212C308.513 62.7573 308.765 62.5254 309.27 62.5254C309.775 62.5254 310.271 62.6922 310.759 63.0259C311.256 63.3595 311.569 63.5264 311.699 63.5264C311.838 63.5264 312.078 63.4328 312.419 63.2456C313.567 62.619 314.486 62.3057 315.178 62.3057H315.496C316.741 62.3057 317.616 62.8672 318.12 63.9902C318.364 64.5192 318.486 65.6585 318.486 67.4082V67.4937C318.486 67.6401 318.482 67.7866 318.474 67.9331C318.474 68.3319 318.474 68.5394 318.474 68.5557C318.474 68.7103 318.474 68.8608 318.474 69.0073C318.474 69.1213 318.474 69.2311 318.474 69.3369C318.474 69.9635 318.494 70.3908 318.535 70.6187C318.592 70.9279 318.686 71.2493 318.816 71.583C318.954 71.9492 319.023 72.2666 319.023 72.5352ZM324.016 68.3481V68.7266C324.016 69.8171 324.224 70.6715 324.639 71.29C325.054 71.9085 325.575 72.2178 326.201 72.2178H326.628C327.532 72.2178 328.236 71.8394 328.74 71.0825C329.245 70.3175 329.497 69.2474 329.497 67.8721C329.513 67.7093 329.521 67.5832 329.521 67.4937L329.546 66.9932V66.2607C329.53 66.098 329.521 65.9759 329.521 65.8945C329.521 65.2516 329.367 64.7471 329.058 64.3809C328.748 64.0146 328.293 63.8315 327.69 63.8315H327.349C326.388 63.8315 325.591 64.2344 324.956 65.04C324.329 65.8457 324.016 66.9484 324.016 68.3481ZM331.108 62.8306C331.816 62.8306 332.17 63.3433 332.17 64.3687C332.17 64.6372 332.061 65.7603 331.841 67.7378C331.621 69.7153 331.511 71.3958 331.511 72.7793C331.511 74.179 331.418 75.2288 331.23 75.9287C330.832 77.4342 329.908 78.5003 328.459 79.127C327.703 79.4525 326.864 79.6152 325.945 79.6152C325.033 79.6152 324.22 79.4525 323.503 79.127C322.795 78.8014 322.441 78.4108 322.441 77.9551C322.441 77.4342 322.791 77.1738 323.491 77.1738C323.63 77.1738 324.004 77.2267 324.614 77.3325C325.225 77.4383 325.664 77.4912 325.933 77.4912C326.917 77.4912 327.723 77.182 328.35 76.5635C328.984 75.9531 329.302 75.1678 329.302 74.2075C329.302 73.703 329.115 73.4507 328.74 73.4507C328.675 73.4507 328.521 73.4751 328.276 73.5239C327.585 73.6623 326.954 73.7314 326.384 73.7314C324.936 73.7314 323.845 73.292 323.113 72.4131C322.771 72.0062 322.478 71.465 322.234 70.7896C321.998 70.106 321.88 69.3857 321.88 68.6289V68.2871C321.88 67.4896 322.01 66.7043 322.271 65.9312C322.539 65.1499 322.893 64.4948 323.333 63.9658C323.772 63.4287 324.346 63.0096 325.054 62.7085C325.762 62.4074 326.486 62.2568 327.227 62.2568H327.544C327.959 62.2568 328.492 62.3708 329.143 62.5986C329.802 62.8184 330.205 62.9282 330.352 62.9282C330.677 62.8631 330.929 62.8306 331.108 62.8306ZM337.126 74.1953H336.748C336.341 74.1953 336.024 74.1017 335.796 73.9146C335.576 73.7274 335.466 73.4792 335.466 73.1699C335.45 73.1048 335.442 73.0519 335.442 73.0112L335.417 72.8037V72.584L335.43 72.5352V72.4253C335.446 72.3602 335.454 72.3073 335.454 72.2666C335.454 71.9004 335.576 71.6156 335.82 71.4121C336.073 71.2005 336.349 71.0947 336.65 71.0947L336.907 71.0581H337.236C338.123 71.0581 338.567 71.522 338.567 72.4497V72.6206L338.518 73.0356C338.518 73.41 338.376 73.6989 338.091 73.9023C337.814 74.0977 337.493 74.1953 337.126 74.1953ZM360.833 57.6792C360.833 58.2082 360.491 59.0179 359.807 60.1084C359.124 61.1989 357.695 63.2456 355.522 66.2485C353.35 69.2515 352.263 70.9564 352.263 71.3633C352.263 71.6481 352.365 71.8475 352.568 71.9614C352.78 72.0672 353.459 72.1201 354.607 72.1201C355.754 72.1201 356.629 72.0632 357.231 71.9492C357.842 71.8271 358.407 71.6685 358.928 71.4731C359.449 71.2778 359.864 71.1802 360.173 71.1802C360.572 71.1802 360.771 71.4976 360.771 72.1323C360.771 72.7671 360.417 73.2635 359.709 73.6216C359.213 73.8739 358.135 74 356.475 74H353.398C351.152 74 349.753 73.939 349.199 73.8169C348.646 73.6867 348.369 73.3937 348.369 72.938C348.369 72.4823 348.662 71.7865 349.248 70.8506C350.387 69.0358 351.966 66.7694 353.984 64.0513C356.003 61.325 357.012 59.7666 357.012 59.376C357.012 59.1237 356.898 58.9487 356.67 58.8511C356.434 58.7534 355.726 58.7046 354.546 58.7046C353.366 58.7046 352.34 58.8429 351.47 59.1196C350.607 59.3963 350.131 59.5347 350.042 59.5347C349.439 59.5347 349.138 59.2376 349.138 58.6436C349.138 58.1553 349.211 57.8094 349.358 57.606C349.513 57.4025 349.785 57.2194 350.176 57.0566C350.566 56.8939 351.803 56.8125 353.887 56.8125H355.217C357.602 56.8125 359.132 56.8695 359.807 56.9834C360.491 57.0892 360.833 57.3211 360.833 57.6792ZM365.422 66.5781V66.7734C365.422 67.0176 365.646 67.1396 366.094 67.1396H366.387L366.46 67.1274L367.058 67.0786C367.685 66.9891 368.092 66.9443 368.279 66.9443C369.166 66.9443 369.833 66.7775 370.281 66.4438C370.492 66.2811 370.598 65.9922 370.598 65.5771V65.4429C370.598 64.8325 370.395 64.3483 369.988 63.9902C369.589 63.6322 369.109 63.4531 368.547 63.4531H368.462L368.389 63.4653C367.599 63.4653 366.908 63.799 366.313 64.4663C365.719 65.1336 365.422 65.8376 365.422 66.5781ZM368.083 74.1587H367.815C366.261 74.1587 365.024 73.6663 364.104 72.6816C363.184 71.6888 362.725 70.3664 362.725 68.7144V68.1772C362.725 67.3879 362.879 66.5863 363.188 65.7725C363.815 64.1449 364.836 63.0218 366.252 62.4033C367.001 62.0697 367.762 61.9028 368.535 61.9028H369.06C370.126 61.9028 371.025 62.2609 371.758 62.9771C372.498 63.6851 372.869 64.6006 372.869 65.7236V65.9678C372.869 66.7653 372.551 67.3309 371.917 67.6646C371.477 67.9006 370.452 68.1366 368.84 68.3726C367.229 68.6086 366.35 68.751 366.204 68.7998C365.715 68.9707 365.471 69.2962 365.471 69.7764C365.471 70.4437 365.756 71.0133 366.326 71.4854C366.895 71.9574 367.66 72.1934 368.621 72.1934C369.068 72.1934 369.679 72.0713 370.452 71.8271C371.225 71.583 371.672 71.4609 371.794 71.4609C372.209 71.4609 372.417 71.64 372.417 71.998C372.417 72.4782 371.949 72.9583 371.013 73.4385C370.077 73.9186 369.101 74.1587 368.083 74.1587ZM376.299 67.6523V66.7124C376.299 65.5812 376.238 64.7552 376.116 64.2344C375.994 63.7054 375.933 63.3351 375.933 63.1235C375.933 62.6271 376.295 62.3789 377.019 62.3789C377.743 62.3789 378.268 62.5132 378.594 62.7817C378.683 62.855 378.797 62.9974 378.936 63.209C379.082 63.4206 379.212 63.5264 379.326 63.5264C379.351 63.5264 379.705 63.3188 380.388 62.9038C381.072 62.4888 381.658 62.2812 382.146 62.2812H382.329C382.728 62.2812 383.045 62.3789 383.281 62.5742C383.517 62.7614 383.635 62.9933 383.635 63.27V63.4287C383.635 63.7624 383.517 64.0024 383.281 64.1489C383.053 64.2954 382.687 64.3687 382.183 64.3687C381.035 64.3687 380.197 64.7715 379.668 65.5771C379.147 66.3828 378.887 67.807 378.887 69.8496C378.887 70.1426 378.936 70.5942 379.033 71.2046C379.139 71.8149 379.192 72.2747 379.192 72.584C379.192 72.8932 379.025 73.1903 378.691 73.4751C378.358 73.7599 377.935 73.9023 377.422 73.9023H377.007C376.559 73.9023 376.213 73.7965 375.969 73.585C375.733 73.3652 375.615 73.1007 375.615 72.7915C375.615 72.4741 375.672 72.1527 375.786 71.8271C376.095 70.9482 376.25 69.9798 376.25 68.9219C376.283 68.3359 376.299 67.9128 376.299 67.6523ZM387.59 68.8486C387.59 69.9147 387.834 70.8018 388.323 71.5098C388.811 72.2178 389.409 72.5718 390.117 72.5718H390.483C391.322 72.5718 392.03 72.1486 392.607 71.3022C393.193 70.4559 393.486 69.3288 393.486 67.9209V67.1152C393.486 66.0247 393.246 65.1336 392.766 64.4419C392.294 63.742 391.684 63.3921 390.935 63.3921H390.691C389.82 63.3921 389.088 63.8234 388.494 64.686C387.908 65.5487 387.615 66.5781 387.615 67.7744L387.59 68.0552V68.8486ZM390.349 74.2319H389.958C388.534 74.2319 387.375 73.7355 386.479 72.7427C385.584 71.7498 385.137 70.342 385.137 68.519L385.149 68.3115C385.149 66.3096 385.678 64.7308 386.736 63.5752C387.289 62.9648 387.92 62.5173 388.628 62.2324C389.344 61.9395 390.024 61.793 390.667 61.793H391.265C391.981 61.793 392.668 61.9517 393.328 62.269C395.216 63.1805 396.16 64.8976 396.16 67.4204V67.6157C396.152 68.4377 396.017 69.2718 395.757 70.1182C395.236 71.7865 394.235 72.9665 392.754 73.6582C391.932 74.0407 391.13 74.2319 390.349 74.2319ZM407.781 66.5781V66.7734C407.781 67.0176 408.005 67.1396 408.452 67.1396H408.745L408.818 67.1274L409.417 67.0786C410.043 66.9891 410.45 66.9443 410.637 66.9443C411.524 66.9443 412.192 66.7775 412.639 66.4438C412.851 66.2811 412.957 65.9922 412.957 65.5771V65.4429C412.957 64.8325 412.753 64.3483 412.346 63.9902C411.947 63.6322 411.467 63.4531 410.906 63.4531H410.82L410.747 63.4653C409.958 63.4653 409.266 63.799 408.672 64.4663C408.078 65.1336 407.781 65.8376 407.781 66.5781ZM410.442 74.1587H410.173C408.619 74.1587 407.382 73.6663 406.462 72.6816C405.543 71.6888 405.083 70.3664 405.083 68.7144V68.1772C405.083 67.3879 405.238 66.5863 405.547 65.7725C406.174 64.1449 407.195 63.0218 408.611 62.4033C409.36 62.0697 410.12 61.9028 410.894 61.9028H411.418C412.485 61.9028 413.384 62.2609 414.116 62.9771C414.857 63.6851 415.227 64.6006 415.227 65.7236V65.9678C415.227 66.7653 414.91 67.3309 414.275 67.6646C413.835 67.9006 412.81 68.1366 411.199 68.3726C409.587 68.6086 408.708 68.751 408.562 68.7998C408.074 68.9707 407.83 69.2962 407.83 69.7764C407.83 70.4437 408.114 71.0133 408.684 71.4854C409.254 71.9574 410.019 72.1934 410.979 72.1934C411.427 72.1934 412.037 72.0713 412.81 71.8271C413.583 71.583 414.031 71.4609 414.153 71.4609C414.568 71.4609 414.775 71.64 414.775 71.998C414.775 72.4782 414.307 72.9583 413.372 73.4385C412.436 73.9186 411.459 74.1587 410.442 74.1587ZM418.657 67.6523V66.7124C418.657 65.5812 418.596 64.7552 418.474 64.2344C418.352 63.7054 418.291 63.3351 418.291 63.1235C418.291 62.6271 418.653 62.3789 419.377 62.3789C420.102 62.3789 420.627 62.5132 420.952 62.7817C421.042 62.855 421.156 62.9974 421.294 63.209C421.44 63.4206 421.571 63.5264 421.685 63.5264C421.709 63.5264 422.063 63.3188 422.747 62.9038C423.43 62.4888 424.016 62.2812 424.504 62.2812H424.688C425.086 62.2812 425.404 62.3789 425.64 62.5742C425.876 62.7614 425.994 62.9933 425.994 63.27V63.4287C425.994 63.7624 425.876 64.0024 425.64 64.1489C425.412 64.2954 425.046 64.3687 424.541 64.3687C423.394 64.3687 422.555 64.7715 422.026 65.5771C421.506 66.3828 421.245 67.807 421.245 69.8496C421.245 70.1426 421.294 70.5942 421.392 71.2046C421.497 71.8149 421.55 72.2747 421.55 72.584C421.55 72.8932 421.383 73.1903 421.05 73.4751C420.716 73.7599 420.293 73.9023 419.78 73.9023H419.365C418.918 73.9023 418.572 73.7965 418.328 73.585C418.092 73.3652 417.974 73.1007 417.974 72.7915C417.974 72.4741 418.031 72.1527 418.145 71.8271C418.454 70.9482 418.608 69.9798 418.608 68.9219C418.641 68.3359 418.657 67.9128 418.657 67.6523ZM428.74 67.6523V66.7124C428.74 65.5812 428.679 64.7552 428.557 64.2344C428.435 63.7054 428.374 63.3351 428.374 63.1235C428.374 62.6271 428.736 62.3789 429.46 62.3789C430.185 62.3789 430.71 62.5132 431.035 62.7817C431.125 62.855 431.239 62.9974 431.377 63.209C431.523 63.4206 431.654 63.5264 431.768 63.5264C431.792 63.5264 432.146 63.3188 432.83 62.9038C433.513 62.4888 434.099 62.2812 434.587 62.2812H434.771C435.169 62.2812 435.487 62.3789 435.723 62.5742C435.959 62.7614 436.077 62.9933 436.077 63.27V63.4287C436.077 63.7624 435.959 64.0024 435.723 64.1489C435.495 64.2954 435.129 64.3687 434.624 64.3687C433.477 64.3687 432.638 64.7715 432.109 65.5771C431.589 66.3828 431.328 67.807 431.328 69.8496C431.328 70.1426 431.377 70.5942 431.475 71.2046C431.58 71.8149 431.633 72.2747 431.633 72.584C431.633 72.8932 431.466 73.1903 431.133 73.4751C430.799 73.7599 430.376 73.9023 429.863 73.9023H429.448C429.001 73.9023 428.655 73.7965 428.411 73.585C428.175 73.3652 428.057 73.1007 428.057 72.7915C428.057 72.4741 428.114 72.1527 428.228 71.8271C428.537 70.9482 428.691 69.9798 428.691 68.9219C428.724 68.3359 428.74 67.9128 428.74 67.6523ZM440.032 68.8486C440.032 69.9147 440.276 70.8018 440.764 71.5098C441.252 72.2178 441.851 72.5718 442.559 72.5718H442.925C443.763 72.5718 444.471 72.1486 445.049 71.3022C445.635 70.4559 445.928 69.3288 445.928 67.9209V67.1152C445.928 66.0247 445.688 65.1336 445.208 64.4419C444.736 63.742 444.125 63.3921 443.376 63.3921H443.132C442.262 63.3921 441.529 63.8234 440.935 64.686C440.349 65.5487 440.056 66.5781 440.056 67.7744L440.032 68.0552V68.8486ZM442.791 74.2319H442.4C440.976 74.2319 439.816 73.7355 438.921 72.7427C438.026 71.7498 437.578 70.342 437.578 68.519L437.59 68.3115C437.59 66.3096 438.119 64.7308 439.177 63.5752C439.731 62.9648 440.361 62.5173 441.069 62.2324C441.785 61.9395 442.465 61.793 443.108 61.793H443.706C444.422 61.793 445.11 61.9517 445.769 62.269C447.657 63.1805 448.601 64.8976 448.601 67.4204V67.6157C448.593 68.4377 448.459 69.2718 448.198 70.1182C447.677 71.7865 446.676 72.9665 445.195 73.6582C444.373 74.0407 443.572 74.2319 442.791 74.2319ZM451.909 67.6523V66.7124C451.909 65.5812 451.848 64.7552 451.726 64.2344C451.604 63.7054 451.543 63.3351 451.543 63.1235C451.543 62.6271 451.905 62.3789 452.629 62.3789C453.354 62.3789 453.879 62.5132 454.204 62.7817C454.294 62.855 454.408 62.9974 454.546 63.209C454.692 63.4206 454.823 63.5264 454.937 63.5264C454.961 63.5264 455.315 63.3188 455.999 62.9038C456.682 62.4888 457.268 62.2812 457.756 62.2812H457.939C458.338 62.2812 458.656 62.3789 458.892 62.5742C459.128 62.7614 459.246 62.9933 459.246 63.27V63.4287C459.246 63.7624 459.128 64.0024 458.892 64.1489C458.664 64.2954 458.298 64.3687 457.793 64.3687C456.646 64.3687 455.807 64.7715 455.278 65.5771C454.757 66.3828 454.497 67.807 454.497 69.8496C454.497 70.1426 454.546 70.5942 454.644 71.2046C454.749 71.8149 454.802 72.2747 454.802 72.584C454.802 72.8932 454.635 73.1903 454.302 73.4751C453.968 73.7599 453.545 73.9023 453.032 73.9023H452.617C452.17 73.9023 451.824 73.7965 451.58 73.585C451.344 73.3652 451.226 73.1007 451.226 72.7915C451.226 72.4741 451.283 72.1527 451.396 71.8271C451.706 70.9482 451.86 69.9798 451.86 68.9219C451.893 68.3359 451.909 67.9128 451.909 67.6523ZM462.126 67.1885C461.63 66.6839 461.382 65.9759 461.382 65.0645C461.382 64.153 461.789 63.3717 462.603 62.7207C463.416 62.0615 464.425 61.7319 465.63 61.7319H465.947C467.013 61.7319 467.86 61.8825 468.486 62.1836C469.121 62.4847 469.438 62.9364 469.438 63.5386C469.438 64.1326 469.174 64.4297 468.645 64.4297C468.507 64.4297 468.116 64.2669 467.473 63.9414C466.83 63.6077 466.224 63.4409 465.654 63.4409C465.085 63.4409 464.625 63.5711 464.275 63.8315C463.933 64.0838 463.762 64.4338 463.762 64.8813C463.762 65.3289 464.002 65.7196 464.482 66.0532C464.759 66.2485 465.41 66.5578 466.436 66.981C467.469 67.4041 468.206 67.811 468.645 68.2017C469.353 68.8283 469.707 69.6299 469.707 70.6064C469.707 71.583 469.292 72.4212 468.462 73.1211C467.632 73.8128 466.554 74.1587 465.227 74.1587H464.91C463.575 74.1587 462.574 73.9674 461.907 73.585C461.239 73.1943 460.906 72.6898 460.906 72.0713C460.906 71.4447 461.166 71.1313 461.687 71.1313C461.858 71.1313 462.301 71.3511 463.018 71.7905C463.742 72.23 464.45 72.4497 465.142 72.4497C465.841 72.4497 466.366 72.3032 466.716 72.0103C467.066 71.7091 467.241 71.3348 467.241 70.8872C467.241 70.4315 467.021 70.0327 466.582 69.6909C466.346 69.5037 465.671 69.166 464.556 68.6777C463.441 68.1813 462.631 67.6849 462.126 67.1885ZM474.041 74.1953H473.662C473.255 74.1953 472.938 74.1017 472.71 73.9146C472.49 73.7274 472.38 73.4792 472.38 73.1699C472.364 73.1048 472.356 73.0519 472.356 73.0112L472.332 72.8037V72.584L472.344 72.5352V72.4253C472.36 72.3602 472.368 72.3073 472.368 72.2666C472.368 71.9004 472.49 71.6156 472.734 71.4121C472.987 71.2005 473.263 71.0947 473.564 71.0947L473.821 71.0581H474.15C475.037 71.0581 475.481 71.522 475.481 72.4497V72.6206L475.432 73.0356C475.432 73.41 475.29 73.6989 475.005 73.9023C474.728 74.0977 474.407 74.1953 474.041 74.1953Z" fill="black"/>
</svg>
