<svg width="759" height="87" viewBox="0 0 759 87" fill="none" xmlns="http://www.w3.org/2000/svg">
<rect width="758.367" height="87" rx="18" fill="#D9D9D9"/>
<path d="M67.5538 34.981C68.5629 34.981 69.0675 34.8507 69.0675 34.5903V34.5049C69.0675 34.3665 68.7949 33.215 68.2496 31.0503C67.7044 28.8774 67.3382 27.791 67.151 27.791H67.1022C67.0859 27.791 66.9313 28.1084 66.6383 28.7432C65.1246 31.9902 64.3678 33.9678 64.3678 34.6758V34.749C64.3678 34.8711 64.5224 34.9321 64.8317 34.9321L65.027 34.9565L65.9181 34.981H67.5538ZM67.2731 24.8491H67.5538C68.2456 24.8491 68.8641 25.4798 69.4093 26.7412C70.337 28.8652 71.3909 32.2954 72.5709 37.0317C72.7255 37.634 72.9534 38.2362 73.2545 38.8384C73.5638 39.4406 73.7184 39.8231 73.7184 39.9858C73.7184 40.4497 73.5638 40.8566 73.2545 41.2065C72.9453 41.5565 72.5791 41.7314 72.1559 41.7314H71.8873C71.1793 41.7314 70.7358 41.5076 70.5568 41.0601C70.5242 40.9868 70.4876 40.7793 70.4469 40.4375C70.4143 40.0876 70.3655 39.762 70.3004 39.4609C70.0726 38.403 69.7877 37.6787 69.4459 37.2881C69.1123 36.8893 68.1642 36.6899 66.6017 36.6899C65.0392 36.6899 64.0708 36.869 63.6964 37.2271C63.3302 37.5851 62.9477 38.3175 62.549 39.4243C62.4269 39.7661 62.3292 40.1445 62.256 40.5596C62.1909 40.9746 62.1217 41.2432 62.0485 41.3652C61.902 41.6012 61.6009 41.7192 61.1451 41.7192C60.6976 41.7192 60.3395 41.5646 60.0709 41.2554C59.8024 40.9461 59.6681 40.584 59.6681 40.1689C59.6681 39.7458 59.8797 39.2412 60.3029 38.6553C60.7179 38.0693 61.4951 36.279 62.6344 33.2842C64.4248 28.5641 65.6292 25.9111 66.2477 25.3252C66.5895 25.0078 66.9313 24.8491 67.2731 24.8491ZM77.1608 25.0322C77.1608 24.4382 77.7182 24.1411 78.8331 24.1411H79.0529C79.5167 24.1411 79.8341 24.255 80.005 24.4829C80.1759 24.7026 80.2614 25.134 80.2614 25.7769L80.1637 27.5957C80.1393 27.8805 80.1271 28.0352 80.1271 28.0596L80.1027 28.5234C80.0864 28.8245 80.0701 29.1297 80.0538 29.439L80.0172 29.9028L79.9806 30.5986C79.8504 33.0726 79.7853 34.8996 79.7853 36.0796C79.7853 37.2515 79.8382 38.0938 79.944 38.6064C80.0498 39.1191 80.2166 39.5545 80.4445 39.9126C80.6723 40.2707 80.7863 40.5067 80.7863 40.6206V40.7671C80.7863 41.1252 80.6072 41.41 80.2491 41.6216C79.8992 41.8332 79.4231 41.939 78.8209 41.939H78.1862C77.8118 41.939 77.4822 41.8332 77.1974 41.6216C76.9207 41.4019 76.7823 41.1536 76.7823 40.877V40.5474L76.8556 40.0347C76.9532 39.3267 77.0102 38.7977 77.0265 38.4478C77.0509 38.0897 77.0875 37.5973 77.1364 36.9707C77.1852 36.3359 77.2625 34.9891 77.3683 32.9302C77.4822 30.8631 77.5392 29.7523 77.5392 29.5977L77.588 28.6821L77.6124 27.7788C77.6124 26.9162 77.5351 26.3018 77.3805 25.9355C77.234 25.5612 77.1608 25.2601 77.1608 25.0322ZM95.1539 41.3774C94.5761 41.3774 94.0756 41.0153 93.6525 40.291C93.3758 39.8109 92.9363 38.8343 92.3341 37.3613C91.74 35.8802 91.4023 35.1396 91.3209 35.1396C91.2965 35.1396 90.9588 35.8314 90.3077 37.2148C89.6567 38.5902 89.1725 39.5342 88.8551 40.0469C88.3505 40.8525 87.8663 41.2554 87.4025 41.2554C87.1095 41.2554 86.8003 41.1414 86.4747 40.9136C86.1573 40.6776 85.901 40.2951 85.7057 39.7661C85.6813 39.701 85.4941 39.0011 85.1442 37.6665C84.8024 36.3319 84.4484 35.0786 84.0822 33.9067C83.7241 32.7349 83.545 31.9414 83.545 31.5264C83.545 31.1113 83.6346 30.8143 83.8136 30.6353C83.9926 30.4562 84.1757 30.3667 84.3629 30.3667C85.1198 30.3667 85.6528 30.68 85.962 31.3066C86.076 31.5345 86.2225 32.1042 86.4015 33.0156C87.256 36.3604 87.8297 38.1344 88.1227 38.3379C88.4319 38.3379 88.8836 37.3044 89.4777 35.2373C89.7218 34.391 89.8805 33.63 89.9537 32.9546C90.0351 32.2791 90.088 31.8885 90.1124 31.7827L90.2223 31.3921C90.4664 30.7492 90.9506 30.4277 91.6749 30.4277C92.4073 30.4277 92.916 30.798 93.2008 31.5386C93.3147 31.8397 93.4205 32.3687 93.5182 33.1255C93.6158 33.8742 93.7542 34.627 93.9332 35.3838C94.3808 37.3206 94.7348 38.2891 94.9952 38.2891C95.3126 38.2891 95.809 37.2759 96.4845 35.2495C96.6961 34.6147 96.9158 33.8376 97.1437 32.918C97.3797 31.9984 97.5424 31.445 97.632 31.2578C97.9249 30.68 98.3888 30.3911 99.0236 30.3911C99.3572 30.3911 99.524 30.7166 99.524 31.3677C99.524 31.7502 99.109 33.2069 98.2789 35.7378C97.4489 38.2606 96.9484 39.7051 96.7775 40.0713C96.6066 40.4294 96.3624 40.7386 96.045 40.999C95.7277 41.2513 95.4306 41.3774 95.1539 41.3774ZM105.872 40.4619H106.189C106.856 40.4619 107.442 40.2381 107.947 39.7905C108.46 39.3348 108.716 38.8099 108.716 38.2158L108.74 38.0571V37.8984L108.765 37.52V36.8242C108.765 36.3522 108.525 36.1162 108.045 36.1162H107.495L107.41 36.1284L106.934 36.165C106.706 36.1976 106.543 36.2139 106.445 36.2139C105.786 36.2139 105.176 36.4621 104.614 36.9585C104.224 37.3084 104.028 37.8049 104.028 38.4478V38.6919C104.028 39.2371 104.203 39.6685 104.553 39.9858C104.911 40.3032 105.351 40.4619 105.872 40.4619ZM103.15 32.6616C102.604 32.6616 102.332 32.3117 102.332 31.6118C102.332 31.091 102.771 30.6393 103.65 30.2568C104.537 29.8662 105.457 29.6709 106.409 29.6709H107.019C107.841 29.6709 108.565 29.8255 109.192 30.1348C109.819 30.4359 110.295 30.8468 110.62 31.3677C110.954 31.8885 111.157 32.568 111.231 33.4062C111.247 33.6016 111.255 34.5496 111.255 36.2505C111.255 37.9513 111.275 38.932 111.316 39.1924C111.365 39.4447 111.495 39.7539 111.707 40.1201C111.926 40.4863 112.036 40.7874 112.036 41.0234C112.036 41.2594 111.922 41.4629 111.694 41.6338C111.475 41.7965 111.153 41.8779 110.73 41.8779C110.307 41.8779 109.847 41.7762 109.351 41.5728C108.854 41.3612 108.492 41.2554 108.264 41.2554C108.24 41.2554 107.833 41.4019 107.044 41.6948C106.254 41.9797 105.587 42.1221 105.042 42.1221H104.773C103.862 42.1221 103.084 41.8332 102.442 41.2554C101.807 40.6776 101.489 39.8556 101.489 38.7896C101.489 37.7235 101.839 36.8934 102.539 36.2993C103.239 35.6971 104.089 35.2861 105.09 35.0664C105.392 35.0013 105.892 34.9159 106.592 34.8101C107.292 34.7043 107.768 34.5944 108.02 34.4805C108.46 34.277 108.679 33.8945 108.679 33.333C108.679 32.7633 108.492 32.3198 108.118 32.0024C107.743 31.6769 107.296 31.5142 106.775 31.5142C106.262 31.5142 105.587 31.7054 104.749 32.0879C103.91 32.4704 103.377 32.6616 103.15 32.6616ZM118.884 41.9512C118.884 41.528 118.595 40.7874 118.018 39.7295C117.44 38.6634 116.956 37.6706 116.565 36.751C115.23 33.6178 114.563 31.8071 114.563 31.3188C114.563 31.0991 114.689 30.8997 114.942 30.7207C115.202 30.5417 115.633 30.4521 116.235 30.4521C116.838 30.4521 117.261 30.7085 117.505 31.2212C117.529 31.2782 117.615 31.6322 117.761 32.2832C118.868 36.3278 119.56 38.4478 119.837 38.6431C120.26 38.6431 120.838 37.6543 121.57 35.6768C122.066 34.334 122.372 33.2069 122.485 32.2954C122.608 31.384 122.705 30.859 122.778 30.7207C123.006 30.2975 123.478 30.0859 124.194 30.0859C124.919 30.0859 125.281 30.3667 125.281 30.9282C125.281 31.327 125.134 31.86 124.841 32.5273C124.548 33.1947 124.272 33.9189 124.011 34.7002C122.522 39.1598 121.444 41.9756 120.776 43.1475C120.109 44.3275 119.405 45.2552 118.665 45.9307C117.924 46.6143 117.179 46.9561 116.431 46.9561C115.69 46.9561 115.32 46.7445 115.32 46.3213C115.32 45.9469 115.698 45.6051 116.455 45.2959C117.22 44.9867 117.753 44.6286 118.054 44.2217C118.608 43.4811 118.884 42.7243 118.884 41.9512ZM128.418 35.1885C127.922 34.6839 127.673 33.9759 127.673 33.0645C127.673 32.153 128.08 31.3717 128.894 30.7207C129.708 30.0615 130.717 29.7319 131.922 29.7319H132.239C133.305 29.7319 134.151 29.8825 134.778 30.1836C135.413 30.4847 135.73 30.9364 135.73 31.5386C135.73 32.1326 135.466 32.4297 134.937 32.4297C134.798 32.4297 134.408 32.2669 133.765 31.9414C133.122 31.6077 132.516 31.4409 131.946 31.4409C131.376 31.4409 130.916 31.5711 130.567 31.8315C130.225 32.0838 130.054 32.4338 130.054 32.8813C130.054 33.3289 130.294 33.7196 130.774 34.0532C131.051 34.2485 131.702 34.5578 132.727 34.981C133.761 35.4041 134.497 35.811 134.937 36.2017C135.645 36.8283 135.999 37.6299 135.999 38.6064C135.999 39.583 135.584 40.4212 134.754 41.1211C133.923 41.8128 132.845 42.1587 131.519 42.1587H131.201C129.867 42.1587 128.866 41.9674 128.198 41.585C127.531 41.1943 127.197 40.6898 127.197 40.0713C127.197 39.4447 127.458 39.1313 127.979 39.1313C128.15 39.1313 128.593 39.3511 129.309 39.7905C130.033 40.23 130.741 40.4497 131.433 40.4497C132.133 40.4497 132.658 40.3032 133.008 40.0103C133.358 39.7091 133.533 39.3348 133.533 38.8872C133.533 38.4315 133.313 38.0327 132.874 37.6909C132.638 37.5037 131.962 37.166 130.847 36.6777C129.732 36.1813 128.923 35.6849 128.418 35.1885ZM147.705 34.5781V34.7734C147.705 35.0176 147.929 35.1396 148.377 35.1396H148.67L148.743 35.1274L149.341 35.0786C149.968 34.9891 150.374 34.9443 150.562 34.9443C151.449 34.9443 152.116 34.7775 152.564 34.4438C152.775 34.2811 152.881 33.9922 152.881 33.5771V33.4429C152.881 32.8325 152.678 32.3483 152.271 31.9902C151.872 31.6322 151.392 31.4531 150.83 31.4531H150.745L150.672 31.4653C149.882 31.4653 149.19 31.799 148.596 32.4663C148.002 33.1336 147.705 33.8376 147.705 34.5781ZM150.366 42.1587H150.098C148.543 42.1587 147.306 41.6663 146.387 40.6816C145.467 39.6888 145.007 38.3664 145.007 36.7144V36.1772C145.007 35.3879 145.162 34.5863 145.471 33.7725C146.098 32.1449 147.119 31.0218 148.535 30.4033C149.284 30.0697 150.045 29.9028 150.818 29.9028H151.343C152.409 29.9028 153.308 30.2609 154.041 30.9771C154.781 31.6851 155.151 32.6006 155.151 33.7236V33.9678C155.151 34.7653 154.834 35.3309 154.199 35.6646C153.76 35.9006 152.734 36.1366 151.123 36.3726C149.512 36.6086 148.633 36.751 148.486 36.7998C147.998 36.9707 147.754 37.2962 147.754 37.7764C147.754 38.4437 148.039 39.0133 148.609 39.4854C149.178 39.9574 149.943 40.1934 150.903 40.1934C151.351 40.1934 151.961 40.0713 152.734 39.8271C153.508 39.583 153.955 39.4609 154.077 39.4609C154.492 39.4609 154.7 39.64 154.7 39.998C154.7 40.4782 154.232 40.9583 153.296 41.4385C152.36 41.9186 151.384 42.1587 150.366 42.1587ZM161.707 40.4619H162.024C162.691 40.4619 163.277 40.2381 163.782 39.7905C164.295 39.3348 164.551 38.8099 164.551 38.2158L164.575 38.0571V37.8984L164.6 37.52V36.8242C164.6 36.3522 164.36 36.1162 163.88 36.1162H163.33L163.245 36.1284L162.769 36.165C162.541 36.1976 162.378 36.2139 162.28 36.2139C161.621 36.2139 161.011 36.4621 160.449 36.9585C160.059 37.3084 159.863 37.8049 159.863 38.4478V38.6919C159.863 39.2371 160.038 39.6685 160.388 39.9858C160.746 40.3032 161.186 40.4619 161.707 40.4619ZM158.984 32.6616C158.439 32.6616 158.167 32.3117 158.167 31.6118C158.167 31.091 158.606 30.6393 159.485 30.2568C160.372 29.8662 161.292 29.6709 162.244 29.6709H162.854C163.676 29.6709 164.4 29.8255 165.027 30.1348C165.654 30.4359 166.13 30.8468 166.455 31.3677C166.789 31.8885 166.992 32.568 167.066 33.4062C167.082 33.6016 167.09 34.5496 167.09 36.2505C167.09 37.9513 167.11 38.932 167.151 39.1924C167.2 39.4447 167.33 39.7539 167.542 40.1201C167.761 40.4863 167.871 40.7874 167.871 41.0234C167.871 41.2594 167.757 41.4629 167.529 41.6338C167.31 41.7965 166.988 41.8779 166.565 41.8779C166.142 41.8779 165.682 41.7762 165.186 41.5728C164.689 41.3612 164.327 41.2554 164.099 41.2554C164.075 41.2554 163.668 41.4019 162.879 41.6948C162.089 41.9797 161.422 42.1221 160.877 42.1221H160.608C159.697 42.1221 158.919 41.8332 158.276 41.2554C157.642 40.6776 157.324 39.8556 157.324 38.7896C157.324 37.7235 157.674 36.8934 158.374 36.2993C159.074 35.6971 159.924 35.2861 160.925 35.0664C161.227 35.0013 161.727 34.9159 162.427 34.8101C163.127 34.7043 163.603 34.5944 163.855 34.4805C164.295 34.277 164.514 33.8945 164.514 33.333C164.514 32.7633 164.327 32.3198 163.953 32.0024C163.578 31.6769 163.131 31.5142 162.61 31.5142C162.097 31.5142 161.422 31.7054 160.584 32.0879C159.745 32.4704 159.212 32.6616 158.984 32.6616ZM171.497 35.6523V34.7124C171.497 33.5812 171.436 32.7552 171.314 32.2344C171.192 31.7054 171.13 31.3351 171.13 31.1235C171.13 30.6271 171.493 30.3789 172.217 30.3789C172.941 30.3789 173.466 30.5132 173.792 30.7817C173.881 30.855 173.995 30.9974 174.133 31.209C174.28 31.4206 174.41 31.5264 174.524 31.5264C174.548 31.5264 174.902 31.3188 175.586 30.9038C176.27 30.4888 176.856 30.2812 177.344 30.2812H177.527C177.926 30.2812 178.243 30.3789 178.479 30.5742C178.715 30.7614 178.833 30.9933 178.833 31.27V31.4287C178.833 31.7624 178.715 32.0024 178.479 32.1489C178.251 32.2954 177.885 32.3687 177.38 32.3687C176.233 32.3687 175.395 32.7715 174.866 33.5771C174.345 34.3828 174.085 35.807 174.085 37.8496C174.085 38.1426 174.133 38.5942 174.231 39.2046C174.337 39.8149 174.39 40.2747 174.39 40.584C174.39 40.8932 174.223 41.1903 173.889 41.4751C173.556 41.7599 173.132 41.9023 172.62 41.9023H172.205C171.757 41.9023 171.411 41.7965 171.167 41.585C170.931 41.3652 170.813 41.1007 170.813 40.7915C170.813 40.4741 170.87 40.1527 170.984 39.8271C171.293 38.9482 171.448 37.9798 171.448 36.9219C171.48 36.3359 171.497 35.9128 171.497 35.6523ZM181.482 25.0322C181.482 24.4382 182.04 24.1411 183.154 24.1411H183.374C183.838 24.1411 184.155 24.255 184.326 24.4829C184.497 24.7026 184.583 25.134 184.583 25.7769L184.485 27.5957C184.461 27.8805 184.448 28.0352 184.448 28.0596L184.424 28.5234C184.408 28.8245 184.391 29.1297 184.375 29.439L184.339 29.9028L184.302 30.5986C184.172 33.0726 184.107 34.8996 184.107 36.0796C184.107 37.2515 184.159 38.0938 184.265 38.6064C184.371 39.1191 184.538 39.5545 184.766 39.9126C184.994 40.2707 185.108 40.5067 185.108 40.6206V40.7671C185.108 41.1252 184.929 41.41 184.57 41.6216C184.22 41.8332 183.744 41.939 183.142 41.939H182.507C182.133 41.939 181.804 41.8332 181.519 41.6216C181.242 41.4019 181.104 41.1536 181.104 40.877V40.5474L181.177 40.0347C181.275 39.3267 181.332 38.7977 181.348 38.4478C181.372 38.0897 181.409 37.5973 181.458 36.9707C181.506 36.3359 181.584 34.9891 181.69 32.9302C181.804 30.8631 181.86 29.7523 181.86 29.5977L181.909 28.6821L181.934 27.7788C181.934 26.9162 181.856 26.3018 181.702 25.9355C181.555 25.5612 181.482 25.2601 181.482 25.0322ZM192.029 41.9512C192.029 41.528 191.74 40.7874 191.162 39.7295C190.584 38.6634 190.1 37.6706 189.71 36.751C188.375 33.6178 187.708 31.8071 187.708 31.3188C187.708 31.0991 187.834 30.8997 188.086 30.7207C188.346 30.5417 188.778 30.4521 189.38 30.4521C189.982 30.4521 190.405 30.7085 190.65 31.2212C190.674 31.2782 190.759 31.6322 190.906 32.2832C192.013 36.3278 192.704 38.4478 192.981 38.6431C193.404 38.6431 193.982 37.6543 194.714 35.6768C195.211 34.334 195.516 33.2069 195.63 32.2954C195.752 31.384 195.85 30.859 195.923 30.7207C196.151 30.2975 196.623 30.0859 197.339 30.0859C198.063 30.0859 198.425 30.3667 198.425 30.9282C198.425 31.327 198.279 31.86 197.986 32.5273C197.693 33.1947 197.416 33.9189 197.156 34.7002C195.667 39.1598 194.588 41.9756 193.921 43.1475C193.254 44.3275 192.55 45.2552 191.809 45.9307C191.069 46.6143 190.324 46.9561 189.575 46.9561C188.835 46.9561 188.464 46.7445 188.464 46.3213C188.464 45.9469 188.843 45.6051 189.6 45.2959C190.365 44.9867 190.898 44.6286 191.199 44.2217C191.752 43.4811 192.029 42.7243 192.029 41.9512ZM201.734 42.1953H201.355C200.948 42.1953 200.631 42.1017 200.403 41.9146C200.183 41.7274 200.073 41.4792 200.073 41.1699C200.057 41.1048 200.049 41.0519 200.049 41.0112L200.025 40.8037V40.584L200.037 40.5352V40.4253C200.053 40.3602 200.061 40.3073 200.061 40.2666C200.061 39.9004 200.183 39.6156 200.427 39.4121C200.68 39.2005 200.956 39.0947 201.257 39.0947L201.514 39.0581H201.843C202.73 39.0581 203.174 39.522 203.174 40.4497V40.6206L203.125 41.0356C203.125 41.41 202.983 41.6989 202.698 41.9023C202.421 42.0977 202.1 42.1953 201.734 42.1953ZM219.006 33.6626C220.203 33.6626 221.167 33.3208 221.9 32.6372C222.64 31.9536 223.01 31.0422 223.01 29.9028V29.3779C223.01 28.4095 222.693 27.6608 222.058 27.1318C221.432 26.5947 220.606 26.3262 219.58 26.3262H219.238C218.425 26.3262 217.9 26.432 217.664 26.6436C217.436 26.8551 217.322 27.3027 217.322 27.9863C217.306 28.1491 217.297 28.2671 217.297 28.3403L217.249 29.1826C217.249 29.264 217.249 29.3454 217.249 29.4268L217.163 30.9893L217.151 31.1113C217.151 31.1927 217.151 31.2741 217.151 31.3555L217.09 32.4175V32.8691C217.09 33.3818 217.436 33.6382 218.128 33.6382L218.335 33.6626H219.006ZM215.064 41.7437C214.054 41.7437 213.55 41.3571 213.55 40.584C213.55 40.4701 213.66 40.0957 213.88 39.4609C214.107 38.8262 214.278 37.8496 214.392 36.5312C214.506 35.2048 214.563 34.0247 214.563 32.9912L214.6 32.1611C214.624 31.6077 214.636 31.2456 214.636 31.0747L214.649 30.8062V29.2192C214.649 27.7381 214.608 26.79 214.526 26.375C214.453 25.96 214.417 25.6995 214.417 25.5938C214.417 25.252 214.783 25.0282 215.515 24.9224C216.573 24.7677 218.038 24.6904 219.91 24.6904C222.726 24.6904 224.536 25.549 225.342 27.2661C225.643 27.9009 225.794 28.5438 225.794 29.1948V29.5C225.794 31.0544 225.273 32.328 224.231 33.3208C223.751 33.7847 223.234 34.1387 222.681 34.3828C222.136 34.6188 221.387 34.8345 220.435 35.0298C218.164 35.4937 217.029 36.3929 217.029 37.7275C217.029 38.0693 217.074 38.46 217.163 38.8994C217.253 39.3307 217.297 39.6359 217.297 39.8149C217.297 40.3439 217.098 40.7996 216.699 41.1821C216.309 41.5565 215.845 41.7437 215.308 41.7437H215.064ZM228.552 35.6523V34.7124C228.552 33.5812 228.491 32.7552 228.369 32.2344C228.247 31.7054 228.186 31.3351 228.186 31.1235C228.186 30.6271 228.548 30.3789 229.273 30.3789C229.997 30.3789 230.522 30.5132 230.847 30.7817C230.937 30.855 231.051 30.9974 231.189 31.209C231.336 31.4206 231.466 31.5264 231.58 31.5264C231.604 31.5264 231.958 31.3188 232.642 30.9038C233.325 30.4888 233.911 30.2812 234.4 30.2812H234.583C234.981 30.2812 235.299 30.3789 235.535 30.5742C235.771 30.7614 235.889 30.9933 235.889 31.27V31.4287C235.889 31.7624 235.771 32.0024 235.535 32.1489C235.307 32.2954 234.941 32.3687 234.436 32.3687C233.289 32.3687 232.45 32.7715 231.922 33.5771C231.401 34.3828 231.14 35.807 231.14 37.8496C231.14 38.1426 231.189 38.5942 231.287 39.2046C231.393 39.8149 231.445 40.2747 231.445 40.584C231.445 40.8932 231.279 41.1903 230.945 41.4751C230.611 41.7599 230.188 41.9023 229.675 41.9023H229.26C228.813 41.9023 228.467 41.7965 228.223 41.585C227.987 41.3652 227.869 41.1007 227.869 40.7915C227.869 40.4741 227.926 40.1527 228.04 39.8271C228.349 38.9482 228.504 37.9798 228.504 36.9219C228.536 36.3359 228.552 35.9128 228.552 35.6523ZM239.844 36.8486C239.844 37.9147 240.088 38.8018 240.576 39.5098C241.065 40.2178 241.663 40.5718 242.371 40.5718H242.737C243.575 40.5718 244.283 40.1486 244.861 39.3022C245.447 38.4559 245.74 37.3288 245.74 35.9209V35.1152C245.74 34.0247 245.5 33.1336 245.02 32.4419C244.548 31.742 243.937 31.3921 243.189 31.3921H242.944C242.074 31.3921 241.341 31.8234 240.747 32.686C240.161 33.5487 239.868 34.5781 239.868 35.7744L239.844 36.0552V36.8486ZM242.603 42.2319H242.212C240.788 42.2319 239.628 41.7355 238.733 40.7427C237.838 39.7498 237.39 38.342 237.39 36.519L237.402 36.3115C237.402 34.3096 237.931 32.7308 238.989 31.5752C239.543 30.9648 240.173 30.5173 240.881 30.2324C241.598 29.9395 242.277 29.793 242.92 29.793H243.518C244.234 29.793 244.922 29.9517 245.581 30.269C247.469 31.1805 248.413 32.8976 248.413 35.4204V35.6157C248.405 36.4377 248.271 37.2718 248.01 38.1182C247.49 39.7865 246.489 40.9665 245.007 41.6582C244.186 42.0407 243.384 42.2319 242.603 42.2319ZM254.846 40.4619H255.164C255.831 40.4619 256.417 40.2381 256.922 39.7905C257.434 39.3348 257.691 38.8099 257.691 38.2158L257.715 38.0571V37.8984L257.739 37.52V36.8242C257.739 36.3522 257.499 36.1162 257.019 36.1162H256.47L256.384 36.1284L255.908 36.165C255.68 36.1976 255.518 36.2139 255.42 36.2139C254.761 36.2139 254.151 36.4621 253.589 36.9585C253.198 37.3084 253.003 37.8049 253.003 38.4478V38.6919C253.003 39.2371 253.178 39.6685 253.528 39.9858C253.886 40.3032 254.325 40.4619 254.846 40.4619ZM252.124 32.6616C251.579 32.6616 251.306 32.3117 251.306 31.6118C251.306 31.091 251.746 30.6393 252.625 30.2568C253.512 29.8662 254.431 29.6709 255.383 29.6709H255.994C256.816 29.6709 257.54 29.8255 258.167 30.1348C258.793 30.4359 259.269 30.8468 259.595 31.3677C259.929 31.8885 260.132 32.568 260.205 33.4062C260.221 33.6016 260.23 34.5496 260.23 36.2505C260.23 37.9513 260.25 38.932 260.291 39.1924C260.339 39.4447 260.47 39.7539 260.681 40.1201C260.901 40.4863 261.011 40.7874 261.011 41.0234C261.011 41.2594 260.897 41.4629 260.669 41.6338C260.449 41.7965 260.128 41.8779 259.705 41.8779C259.282 41.8779 258.822 41.7762 258.325 41.5728C257.829 41.3612 257.467 41.2554 257.239 41.2554C257.214 41.2554 256.808 41.4019 256.018 41.6948C255.229 41.9797 254.561 42.1221 254.016 42.1221H253.748C252.836 42.1221 252.059 41.8332 251.416 41.2554C250.781 40.6776 250.464 39.8556 250.464 38.7896C250.464 37.7235 250.814 36.8934 251.514 36.2993C252.214 35.6971 253.064 35.2861 254.065 35.0664C254.366 35.0013 254.867 34.9159 255.567 34.8101C256.266 34.7043 256.742 34.5944 256.995 34.4805C257.434 34.277 257.654 33.8945 257.654 33.333C257.654 32.7633 257.467 32.3198 257.092 32.0024C256.718 31.6769 256.27 31.5142 255.75 31.5142C255.237 31.5142 254.561 31.7054 253.723 32.0879C252.885 32.4704 252.352 32.6616 252.124 32.6616ZM263.477 36.9219V36.3604C263.477 35.335 263.635 34.4276 263.953 33.6382C264.563 32.1082 265.499 31.0503 266.76 30.4644C267.582 30.0737 268.433 29.8784 269.312 29.8784H269.58C270.549 29.8784 271.35 30.0697 271.985 30.4521C272.62 30.8346 272.937 31.3026 272.937 31.856C272.937 32.4989 272.628 32.8203 272.009 32.8203C271.895 32.8203 271.497 32.6413 270.813 32.2832C270.13 31.9333 269.568 31.7583 269.129 31.7583C269.12 31.7583 269.112 31.7583 269.104 31.7583C268.144 31.7583 267.391 32.1733 266.846 33.0034C266.309 33.8335 266.04 34.9159 266.04 36.2505C266.04 37.5851 266.325 38.5739 266.895 39.2168C267.472 39.8597 268.274 40.1812 269.299 40.1812C269.723 40.1812 270.304 40.0632 271.045 39.8271C271.786 39.583 272.237 39.4609 272.4 39.4609C272.734 39.4609 272.901 39.6359 272.901 39.9858C272.901 40.4578 272.433 40.9339 271.497 41.4141C270.561 41.8942 269.641 42.1343 268.738 42.1343C266.321 42.1343 264.722 41.1821 263.941 39.2778C263.631 38.521 263.477 37.7357 263.477 36.9219ZM281.885 40.6938C281.885 41.0194 281.686 41.3123 281.287 41.5728C280.896 41.825 280.363 41.9512 279.688 41.9512C278.426 41.9512 277.539 41.4832 277.026 40.5474C276.709 39.9614 276.55 38.5902 276.55 36.4336C276.55 34.277 276.514 33.0238 276.441 32.6738C276.367 32.3239 276.164 31.9821 275.83 31.6484C275.497 31.3148 275.33 31.0584 275.33 30.8794C275.33 30.8143 275.724 30.387 276.514 29.5977C276.685 29.4268 276.856 29.0483 277.026 28.4624C277.206 27.8765 277.332 27.4899 277.405 27.3027C277.649 26.7168 277.97 26.4238 278.369 26.4238H278.565C278.915 26.4238 279.163 26.5581 279.309 26.8267C279.366 26.9325 279.452 27.3149 279.566 27.9741C279.688 28.6252 279.826 29.0443 279.981 29.2314C280.135 29.4186 280.522 29.6261 281.14 29.854C281.767 30.0737 282.08 30.3097 282.08 30.562V30.6963C282.08 31.0218 281.722 31.2985 281.006 31.5264C280.298 31.7461 279.842 32.1001 279.639 32.5884C279.24 33.5731 279.041 35.1763 279.041 37.3979C279.041 38.4396 279.22 39.1476 279.578 39.522C279.797 39.7498 280.237 39.9085 280.896 39.998C281.555 40.0876 281.885 40.3195 281.885 40.6938ZM288.66 26.1309V26.2773C288.66 26.6924 288.538 27.0464 288.294 27.3394C288.058 27.6242 287.691 27.7666 287.195 27.7666H287L286.621 27.7178C286.401 27.7178 286.19 27.616 285.986 27.4126C285.783 27.2091 285.681 26.904 285.681 26.4971V26.3506L285.742 25.9111C285.742 25.7402 285.844 25.5286 286.047 25.2764C286.259 25.0241 286.528 24.8979 286.853 24.8979L287.134 24.8613H287.378L287.72 24.9102C287.931 24.9102 288.139 25.016 288.342 25.2275C288.554 25.431 288.66 25.7321 288.66 26.1309ZM288.086 31.2822L287.952 34.5659L287.927 34.8955L287.891 35.8965V36.3726C287.891 37.5444 287.923 38.3135 287.988 38.6797C288.062 39.0459 288.196 39.404 288.391 39.7539C288.587 40.0957 288.684 40.3439 288.684 40.4985V40.6084C288.684 41.0072 288.481 41.3245 288.074 41.5605C287.667 41.7965 287.114 41.9146 286.414 41.9146H286.109C285.702 41.9146 285.392 41.825 285.181 41.646C284.969 41.4588 284.863 41.2594 284.863 41.0479V40.7793C284.863 40.6735 284.957 40.2992 285.144 39.6562C285.331 39.0052 285.425 38.1222 285.425 37.0073C285.449 36.6899 285.462 36.4702 285.462 36.3481L285.498 35.6768L285.523 35.3472C285.563 34.7775 285.584 34.334 285.584 34.0166L285.596 33.5283C285.596 32.918 285.494 32.3768 285.291 31.9048C285.095 31.4328 284.998 31.1398 284.998 31.0259C284.998 30.4399 285.551 30.147 286.658 30.147H287.097C287.512 30.147 287.781 30.2568 287.903 30.4766C288.025 30.6882 288.086 30.9567 288.086 31.2822ZM296.179 41.9878C295.585 41.9878 295.109 41.6094 294.751 40.8525C294.483 40.2829 294.002 38.9198 293.311 36.7632C292.627 34.5985 292.175 33.3086 291.956 32.8936C291.41 31.86 291.138 31.2008 291.138 30.916C291.138 30.623 291.227 30.4115 291.406 30.2812C291.585 30.1429 291.964 30.0737 292.542 30.0737C293.469 30.0737 294.084 30.4155 294.385 31.0991C294.442 31.2212 294.531 31.5996 294.653 32.2344C294.776 32.861 294.898 33.4144 295.02 33.8945L295.264 34.9688C295.874 37.6543 296.342 38.9971 296.668 38.9971C296.887 38.9971 297.506 37.6258 298.523 34.8833C298.987 33.63 299.284 32.6453 299.414 31.9292C299.553 31.2049 299.642 30.8021 299.683 30.7207C299.919 30.2731 300.415 30.0493 301.172 30.0493H301.416C301.97 30.0493 302.246 30.3301 302.246 30.8916C302.246 31.2904 302.124 31.6973 301.88 32.1123C301.636 32.5273 301.066 33.805 300.171 35.9453C299.284 38.0775 298.629 39.526 298.206 40.291C297.783 41.0479 297.433 41.5199 297.156 41.707C296.887 41.8942 296.562 41.9878 296.179 41.9878ZM306.323 34.5781V34.7734C306.323 35.0176 306.547 35.1396 306.995 35.1396H307.288L307.361 35.1274L307.959 35.0786C308.586 34.9891 308.993 34.9443 309.18 34.9443C310.067 34.9443 310.734 34.7775 311.182 34.4438C311.393 34.2811 311.499 33.9922 311.499 33.5771V33.4429C311.499 32.8325 311.296 32.3483 310.889 31.9902C310.49 31.6322 310.01 31.4531 309.448 31.4531H309.363L309.29 31.4653C308.5 31.4653 307.809 31.799 307.214 32.4663C306.62 33.1336 306.323 33.8376 306.323 34.5781ZM308.984 42.1587H308.716C307.162 42.1587 305.925 41.6663 305.005 40.6816C304.085 39.6888 303.626 38.3664 303.626 36.7144V36.1772C303.626 35.3879 303.78 34.5863 304.089 33.7725C304.716 32.1449 305.737 31.0218 307.153 30.4033C307.902 30.0697 308.663 29.9028 309.436 29.9028H309.961C311.027 29.9028 311.926 30.2609 312.659 30.9771C313.399 31.6851 313.77 32.6006 313.77 33.7236V33.9678C313.77 34.7653 313.452 35.3309 312.818 35.6646C312.378 35.9006 311.353 36.1366 309.741 36.3726C308.13 36.6086 307.251 36.751 307.105 36.7998C306.616 36.9707 306.372 37.2962 306.372 37.7764C306.372 38.4437 306.657 39.0133 307.227 39.4854C307.796 39.9574 308.561 40.1934 309.522 40.1934C309.969 40.1934 310.58 40.0713 311.353 39.8271C312.126 39.583 312.573 39.4609 312.695 39.4609C313.11 39.4609 313.318 39.64 313.318 39.998C313.318 40.4782 312.85 40.9583 311.914 41.4385C310.978 41.9186 310.002 42.1587 308.984 42.1587ZM317.102 25.0322C317.102 24.4382 317.66 24.1411 318.775 24.1411H318.994C319.458 24.1411 319.776 24.255 319.946 24.4829C320.117 24.7026 320.203 25.134 320.203 25.7769L320.105 27.5957C320.081 27.8805 320.068 28.0352 320.068 28.0596L320.044 28.5234C320.028 28.8245 320.012 29.1297 319.995 29.439L319.959 29.9028L319.922 30.5986C319.792 33.0726 319.727 34.8996 319.727 36.0796C319.727 37.2515 319.78 38.0938 319.885 38.6064C319.991 39.1191 320.158 39.5545 320.386 39.9126C320.614 40.2707 320.728 40.5067 320.728 40.6206V40.7671C320.728 41.1252 320.549 41.41 320.191 41.6216C319.841 41.8332 319.365 41.939 318.762 41.939H318.128C317.753 41.939 317.424 41.8332 317.139 41.6216C316.862 41.4019 316.724 41.1536 316.724 40.877V40.5474L316.797 40.0347C316.895 39.3267 316.952 38.7977 316.968 38.4478C316.992 38.0897 317.029 37.5973 317.078 36.9707C317.127 36.3359 317.204 34.9891 317.31 32.9302C317.424 30.8631 317.481 29.7523 317.481 29.5977L317.529 28.6821L317.554 27.7788C317.554 26.9162 317.477 26.3018 317.322 25.9355C317.175 25.5612 317.102 25.2601 317.102 25.0322ZM327.649 41.9512C327.649 41.528 327.36 40.7874 326.782 39.7295C326.205 38.6634 325.72 37.6706 325.33 36.751C323.995 33.6178 323.328 31.8071 323.328 31.3188C323.328 31.0991 323.454 30.8997 323.706 30.7207C323.967 30.5417 324.398 30.4521 325 30.4521C325.602 30.4521 326.026 30.7085 326.27 31.2212C326.294 31.2782 326.38 31.6322 326.526 32.2832C327.633 36.3278 328.325 38.4478 328.601 38.6431C329.024 38.6431 329.602 37.6543 330.335 35.6768C330.831 34.334 331.136 33.2069 331.25 32.2954C331.372 31.384 331.47 30.859 331.543 30.7207C331.771 30.2975 332.243 30.0859 332.959 30.0859C333.683 30.0859 334.046 30.3667 334.046 30.9282C334.046 31.327 333.899 31.86 333.606 32.5273C333.313 33.1947 333.036 33.9189 332.776 34.7002C331.287 39.1598 330.208 41.9756 329.541 43.1475C328.874 44.3275 328.17 45.2552 327.429 45.9307C326.689 46.6143 325.944 46.9561 325.195 46.9561C324.455 46.9561 324.085 46.7445 324.085 46.3213C324.085 45.9469 324.463 45.6051 325.22 45.2959C325.985 44.9867 326.518 44.6286 326.819 44.2217C327.372 43.4811 327.649 42.7243 327.649 41.9512ZM348.267 30.7085C348.893 30.4725 349.536 30.3545 350.195 30.3545C350.855 30.3545 351.538 30.5498 352.246 30.9404C352.962 31.3311 353.353 31.5264 353.418 31.5264C353.483 31.5264 353.923 31.327 354.736 30.9282C355.55 30.5295 356.283 30.3301 356.934 30.3301C357.593 30.3301 358.134 30.4684 358.557 30.7451C358.989 31.0137 359.314 31.3351 359.534 31.7095C359.949 32.4256 360.156 34.0166 360.156 36.4824C360.156 37.5892 360.165 38.224 360.181 38.3867C360.205 38.5413 360.262 38.8221 360.352 39.229C360.449 39.6278 360.498 39.9574 360.498 40.2178C360.498 40.4701 360.392 40.7345 360.181 41.0112C359.969 41.2879 359.688 41.4263 359.339 41.4263C358.647 41.4263 358.236 41.1455 358.106 40.584C358.008 40.1771 357.894 38.9889 357.764 37.0195C357.642 35.0501 357.507 33.8945 357.361 33.5527C357.068 32.8366 356.445 32.4785 355.493 32.4785C354.883 32.4785 354.407 32.861 354.065 33.626C353.569 34.7246 353.32 36.2871 353.32 38.3135L353.443 40.0713C353.443 40.6898 353.215 41.1577 352.759 41.4751C352.466 41.6785 352.075 41.7803 351.587 41.7803C351.107 41.7803 350.79 41.7314 350.635 41.6338C350.366 41.471 350.232 41.1252 350.232 40.5962C350.232 40.4985 350.309 40.0998 350.464 39.3999C350.627 38.6919 350.708 37.5444 350.708 35.9575C350.708 34.3625 350.59 33.3493 350.354 32.918C350.118 32.4785 349.707 32.2588 349.121 32.2588C348.535 32.2588 348.014 32.4582 347.559 32.8569C347.111 33.2557 346.782 33.6911 346.57 34.1631C346.366 34.6351 346.183 35.7581 346.021 37.5322C345.866 39.3063 345.756 40.3236 345.691 40.584C345.577 41.0316 345.248 41.2554 344.702 41.2554C344.165 41.2554 343.795 41.0967 343.591 40.7793C343.396 40.4538 343.298 40.0591 343.298 39.5952L343.359 39.168L343.591 38.3257C343.689 37.9351 343.746 37.4793 343.762 36.9585C343.884 33.7277 343.978 31.8844 344.043 31.4287C344.108 30.973 344.401 30.7451 344.922 30.7451L346.741 31.0503C347.131 31.0503 347.64 30.9364 348.267 30.7085ZM367.42 40.4619H367.737C368.404 40.4619 368.99 40.2381 369.495 39.7905C370.007 39.3348 370.264 38.8099 370.264 38.2158L370.288 38.0571V37.8984L370.313 37.52V36.8242C370.313 36.3522 370.073 36.1162 369.592 36.1162H369.043L368.958 36.1284L368.482 36.165C368.254 36.1976 368.091 36.2139 367.993 36.2139C367.334 36.2139 366.724 36.4621 366.162 36.9585C365.772 37.3084 365.576 37.8049 365.576 38.4478V38.6919C365.576 39.2371 365.751 39.6685 366.101 39.9858C366.459 40.3032 366.899 40.4619 367.42 40.4619ZM364.697 32.6616C364.152 32.6616 363.88 32.3117 363.88 31.6118C363.88 31.091 364.319 30.6393 365.198 30.2568C366.085 29.8662 367.005 29.6709 367.957 29.6709H368.567C369.389 29.6709 370.113 29.8255 370.74 30.1348C371.366 30.4359 371.843 30.8468 372.168 31.3677C372.502 31.8885 372.705 32.568 372.778 33.4062C372.795 33.6016 372.803 34.5496 372.803 36.2505C372.803 37.9513 372.823 38.932 372.864 39.1924C372.913 39.4447 373.043 39.7539 373.255 40.1201C373.474 40.4863 373.584 40.7874 373.584 41.0234C373.584 41.2594 373.47 41.4629 373.242 41.6338C373.023 41.7965 372.701 41.8779 372.278 41.8779C371.855 41.8779 371.395 41.7762 370.899 41.5728C370.402 41.3612 370.04 41.2554 369.812 41.2554C369.788 41.2554 369.381 41.4019 368.591 41.6948C367.802 41.9797 367.135 42.1221 366.589 42.1221H366.321C365.409 42.1221 364.632 41.8332 363.989 41.2554C363.355 40.6776 363.037 39.8556 363.037 38.7896C363.037 37.7235 363.387 36.8934 364.087 36.2993C364.787 35.6971 365.637 35.2861 366.638 35.0664C366.939 35.0013 367.44 34.9159 368.14 34.8101C368.84 34.7043 369.316 34.5944 369.568 34.4805C370.007 34.277 370.227 33.8945 370.227 33.333C370.227 32.7633 370.04 32.3198 369.666 32.0024C369.291 31.6769 368.844 31.5142 368.323 31.5142C367.81 31.5142 367.135 31.7054 366.297 32.0879C365.458 32.4704 364.925 32.6616 364.697 32.6616ZM387.634 40.5352C387.634 41.1374 387.109 41.4385 386.06 41.4385C385.466 41.4385 385.067 41.2961 384.863 41.0112C384.766 40.8729 384.717 40.5474 384.717 40.0347L384.68 39.2534C384.623 38.3989 384.595 37.5404 384.595 36.6777C384.595 34.8141 384.432 33.5649 384.107 32.9302C383.789 32.2873 383.252 31.9658 382.495 31.9658C381.991 31.9658 381.523 32.1164 381.091 32.4175C380.668 32.7186 380.343 33.1377 380.115 33.6748C379.643 34.7734 379.407 36.8039 379.407 39.7661C379.407 40.4416 379.277 40.9176 379.016 41.1943C378.764 41.471 378.438 41.6094 378.04 41.6094H377.796C376.884 41.6094 376.428 41.2472 376.428 40.5229V40.23C376.428 40.1405 376.477 39.9451 376.575 39.644L376.77 39.0825C376.965 38.4233 377.063 37.0114 377.063 34.8467L377.124 31.2212C377.124 30.7573 377.376 30.5254 377.881 30.5254C378.386 30.5254 378.882 30.6922 379.37 31.0259C379.867 31.3595 380.18 31.5264 380.31 31.5264C380.449 31.5264 380.689 31.4328 381.03 31.2456C382.178 30.619 383.097 30.3057 383.789 30.3057H384.107C385.352 30.3057 386.227 30.8672 386.731 31.9902C386.975 32.5192 387.097 33.6585 387.097 35.4082V35.4937C387.097 35.6401 387.093 35.7866 387.085 35.9331C387.085 36.3319 387.085 36.5394 387.085 36.5557C387.085 36.7103 387.085 36.8608 387.085 37.0073C387.085 37.1213 387.085 37.2311 387.085 37.3369C387.085 37.9635 387.105 38.3908 387.146 38.6187C387.203 38.9279 387.297 39.2493 387.427 39.583C387.565 39.9492 387.634 40.2666 387.634 40.5352ZM394.373 40.4619H394.69C395.357 40.4619 395.943 40.2381 396.448 39.7905C396.961 39.3348 397.217 38.8099 397.217 38.2158L397.241 38.0571V37.8984L397.266 37.52V36.8242C397.266 36.3522 397.026 36.1162 396.546 36.1162H395.996L395.911 36.1284L395.435 36.165C395.207 36.1976 395.044 36.2139 394.946 36.2139C394.287 36.2139 393.677 36.4621 393.115 36.9585C392.725 37.3084 392.529 37.8049 392.529 38.4478V38.6919C392.529 39.2371 392.704 39.6685 393.054 39.9858C393.412 40.3032 393.852 40.4619 394.373 40.4619ZM391.651 32.6616C391.105 32.6616 390.833 32.3117 390.833 31.6118C390.833 31.091 391.272 30.6393 392.151 30.2568C393.038 29.8662 393.958 29.6709 394.91 29.6709H395.52C396.342 29.6709 397.066 29.8255 397.693 30.1348C398.32 30.4359 398.796 30.8468 399.121 31.3677C399.455 31.8885 399.658 32.568 399.732 33.4062C399.748 33.6016 399.756 34.5496 399.756 36.2505C399.756 37.9513 399.776 38.932 399.817 39.1924C399.866 39.4447 399.996 39.7539 400.208 40.1201C400.427 40.4863 400.537 40.7874 400.537 41.0234C400.537 41.2594 400.423 41.4629 400.195 41.6338C399.976 41.7965 399.654 41.8779 399.231 41.8779C398.808 41.8779 398.348 41.7762 397.852 41.5728C397.355 41.3612 396.993 41.2554 396.765 41.2554C396.741 41.2554 396.334 41.4019 395.545 41.6948C394.755 41.9797 394.088 42.1221 393.543 42.1221H393.274C392.363 42.1221 391.585 41.8332 390.943 41.2554C390.308 40.6776 389.99 39.8556 389.99 38.7896C389.99 37.7235 390.34 36.8934 391.04 36.2993C391.74 35.6971 392.59 35.2861 393.591 35.0664C393.893 35.0013 394.393 34.9159 395.093 34.8101C395.793 34.7043 396.269 34.5944 396.521 34.4805C396.961 34.277 397.18 33.8945 397.18 33.333C397.18 32.7633 396.993 32.3198 396.619 32.0024C396.244 31.6769 395.797 31.5142 395.276 31.5142C394.763 31.5142 394.088 31.7054 393.25 32.0879C392.411 32.4704 391.878 32.6616 391.651 32.6616ZM405.542 36.3481V36.7266C405.542 37.8171 405.75 38.6715 406.165 39.29C406.58 39.9085 407.101 40.2178 407.727 40.2178H408.154C409.058 40.2178 409.762 39.8394 410.266 39.0825C410.771 38.3175 411.023 37.2474 411.023 35.8721C411.039 35.7093 411.047 35.5832 411.047 35.4937L411.072 34.9932V34.2607C411.056 34.098 411.047 33.9759 411.047 33.8945C411.047 33.2516 410.893 32.7471 410.584 32.3809C410.274 32.0146 409.819 31.8315 409.216 31.8315H408.875C407.914 31.8315 407.117 32.2344 406.482 33.04C405.855 33.8457 405.542 34.9484 405.542 36.3481ZM412.634 30.8306C413.342 30.8306 413.696 31.3433 413.696 32.3687C413.696 32.6372 413.587 33.7603 413.367 35.7378C413.147 37.7153 413.037 39.3958 413.037 40.7793C413.037 42.179 412.944 43.2288 412.756 43.9287C412.358 45.4342 411.434 46.5003 409.985 47.127C409.229 47.4525 408.39 47.6152 407.471 47.6152C406.559 47.6152 405.746 47.4525 405.029 47.127C404.321 46.8014 403.967 46.4108 403.967 45.9551C403.967 45.4342 404.317 45.1738 405.017 45.1738C405.156 45.1738 405.53 45.2267 406.14 45.3325C406.751 45.4383 407.19 45.4912 407.459 45.4912C408.443 45.4912 409.249 45.182 409.876 44.5635C410.51 43.9531 410.828 43.1678 410.828 42.2075C410.828 41.703 410.641 41.4507 410.266 41.4507C410.201 41.4507 410.047 41.4751 409.802 41.5239C409.111 41.6623 408.48 41.7314 407.91 41.7314C406.462 41.7314 405.371 41.292 404.639 40.4131C404.297 40.0062 404.004 39.465 403.76 38.7896C403.524 38.106 403.406 37.3857 403.406 36.6289V36.2871C403.406 35.4896 403.536 34.7043 403.797 33.9312C404.065 33.1499 404.419 32.4948 404.859 31.9658C405.298 31.4287 405.872 31.0096 406.58 30.7085C407.288 30.4074 408.012 30.2568 408.753 30.2568H409.07C409.485 30.2568 410.018 30.3708 410.669 30.5986C411.328 30.8184 411.731 30.9282 411.878 30.9282C412.203 30.8631 412.455 30.8306 412.634 30.8306ZM419.116 34.5781V34.7734C419.116 35.0176 419.34 35.1396 419.788 35.1396H420.081L420.154 35.1274L420.752 35.0786C421.379 34.9891 421.786 34.9443 421.973 34.9443C422.86 34.9443 423.527 34.7775 423.975 34.4438C424.186 34.2811 424.292 33.9922 424.292 33.5771V33.4429C424.292 32.8325 424.089 32.3483 423.682 31.9902C423.283 31.6322 422.803 31.4531 422.241 31.4531H422.156L422.083 31.4653C421.293 31.4653 420.602 31.799 420.007 32.4663C419.413 33.1336 419.116 33.8376 419.116 34.5781ZM421.777 42.1587H421.509C419.955 42.1587 418.718 41.6663 417.798 40.6816C416.878 39.6888 416.419 38.3664 416.419 36.7144V36.1772C416.419 35.3879 416.573 34.5863 416.882 33.7725C417.509 32.1449 418.53 31.0218 419.946 30.4033C420.695 30.0697 421.456 29.9028 422.229 29.9028H422.754C423.82 29.9028 424.719 30.2609 425.452 30.9771C426.192 31.6851 426.563 32.6006 426.563 33.7236V33.9678C426.563 34.7653 426.245 35.3309 425.61 35.6646C425.171 35.9006 424.146 36.1366 422.534 36.3726C420.923 36.6086 420.044 36.751 419.898 36.7998C419.409 36.9707 419.165 37.2962 419.165 37.7764C419.165 38.4437 419.45 39.0133 420.02 39.4854C420.589 39.9574 421.354 40.1934 422.315 40.1934C422.762 40.1934 423.373 40.0713 424.146 39.8271C424.919 39.583 425.366 39.4609 425.488 39.4609C425.903 39.4609 426.111 39.64 426.111 39.998C426.111 40.4782 425.643 40.9583 424.707 41.4385C423.771 41.9186 422.795 42.1587 421.777 42.1587ZM430.078 35.1885C429.582 34.6839 429.334 33.9759 429.334 33.0645C429.334 32.153 429.741 31.3717 430.554 30.7207C431.368 30.0615 432.377 29.7319 433.582 29.7319H433.899C434.965 29.7319 435.811 29.8825 436.438 30.1836C437.073 30.4847 437.39 30.9364 437.39 31.5386C437.39 32.1326 437.126 32.4297 436.597 32.4297C436.458 32.4297 436.068 32.2669 435.425 31.9414C434.782 31.6077 434.176 31.4409 433.606 31.4409C433.036 31.4409 432.577 31.5711 432.227 31.8315C431.885 32.0838 431.714 32.4338 431.714 32.8813C431.714 33.3289 431.954 33.7196 432.434 34.0532C432.711 34.2485 433.362 34.5578 434.387 34.981C435.421 35.4041 436.157 35.811 436.597 36.2017C437.305 36.8283 437.659 37.6299 437.659 38.6064C437.659 39.583 437.244 40.4212 436.414 41.1211C435.584 41.8128 434.505 42.1587 433.179 42.1587H432.861C431.527 42.1587 430.526 41.9674 429.859 41.585C429.191 41.1943 428.858 40.6898 428.858 40.0713C428.858 39.4447 429.118 39.1313 429.639 39.1313C429.81 39.1313 430.253 39.3511 430.969 39.7905C431.694 40.23 432.402 40.4497 433.093 40.4497C433.793 40.4497 434.318 40.3032 434.668 40.0103C435.018 39.7091 435.193 39.3348 435.193 38.8872C435.193 38.4315 434.973 38.0327 434.534 37.6909C434.298 37.5037 433.622 37.166 432.507 36.6777C431.393 36.1813 430.583 35.6849 430.078 35.1885ZM448.047 35.1885C447.551 34.6839 447.302 33.9759 447.302 33.0645C447.302 32.153 447.709 31.3717 448.523 30.7207C449.337 30.0615 450.346 29.7319 451.55 29.7319H451.868C452.934 29.7319 453.78 29.8825 454.407 30.1836C455.042 30.4847 455.359 30.9364 455.359 31.5386C455.359 32.1326 455.095 32.4297 454.566 32.4297C454.427 32.4297 454.037 32.2669 453.394 31.9414C452.751 31.6077 452.144 31.4409 451.575 31.4409C451.005 31.4409 450.545 31.5711 450.195 31.8315C449.854 32.0838 449.683 32.4338 449.683 32.8813C449.683 33.3289 449.923 33.7196 450.403 34.0532C450.68 34.2485 451.331 34.5578 452.356 34.981C453.39 35.4041 454.126 35.811 454.566 36.2017C455.274 36.8283 455.628 37.6299 455.628 38.6064C455.628 39.583 455.213 40.4212 454.382 41.1211C453.552 41.8128 452.474 42.1587 451.148 42.1587H450.83C449.496 42.1587 448.495 41.9674 447.827 41.585C447.16 41.1943 446.826 40.6898 446.826 40.0713C446.826 39.4447 447.087 39.1313 447.608 39.1313C447.778 39.1313 448.222 39.3511 448.938 39.7905C449.662 40.23 450.37 40.4497 451.062 40.4497C451.762 40.4497 452.287 40.3032 452.637 40.0103C452.987 39.7091 453.162 39.3348 453.162 38.8872C453.162 38.4315 452.942 38.0327 452.503 37.6909C452.267 37.5037 451.591 37.166 450.476 36.6777C449.361 36.1813 448.552 35.6849 448.047 35.1885ZM457.861 36.9219V36.3604C457.861 35.335 458.02 34.4276 458.338 33.6382C458.948 32.1082 459.884 31.0503 461.145 30.4644C461.967 30.0737 462.818 29.8784 463.696 29.8784H463.965C464.933 29.8784 465.735 30.0697 466.37 30.4521C467.005 30.8346 467.322 31.3026 467.322 31.856C467.322 32.4989 467.013 32.8203 466.394 32.8203C466.28 32.8203 465.881 32.6413 465.198 32.2832C464.514 31.9333 463.953 31.7583 463.513 31.7583C463.505 31.7583 463.497 31.7583 463.489 31.7583C462.529 31.7583 461.776 32.1733 461.231 33.0034C460.693 33.8335 460.425 34.9159 460.425 36.2505C460.425 37.5851 460.71 38.5739 461.279 39.2168C461.857 39.8597 462.659 40.1812 463.684 40.1812C464.107 40.1812 464.689 40.0632 465.43 39.8271C466.17 39.583 466.622 39.4609 466.785 39.4609C467.118 39.4609 467.285 39.6359 467.285 39.9858C467.285 40.4578 466.817 40.9339 465.881 41.4141C464.946 41.8942 464.026 42.1343 463.123 42.1343C460.706 42.1343 459.107 41.1821 458.325 39.2778C458.016 38.521 457.861 37.7357 457.861 36.9219ZM471.375 41.7681C470.414 41.7681 469.934 41.4263 469.934 40.7427C469.934 40.4334 470.007 39.9736 470.154 39.3633C470.309 38.7529 470.41 38.1914 470.459 37.6787C470.508 37.1579 470.593 35.4814 470.715 32.6494C470.846 29.8174 470.911 28.0921 470.911 27.4736V26.0332L470.838 25.0078C470.838 24.6253 471.187 24.4341 471.887 24.4341C472.595 24.4341 473.055 24.7067 473.267 25.252C473.373 25.5286 473.425 26.432 473.425 27.9619C473.425 29.4919 473.454 30.3626 473.511 30.5742C473.576 30.7858 473.743 30.8916 474.011 30.8916C474.044 30.8916 474.199 30.8428 474.475 30.7451L474.744 30.6475C475.615 30.3057 476.367 30.1348 477.002 30.1348C478.337 30.1348 479.285 30.6556 479.846 31.6973C480.221 32.389 480.408 33.8945 480.408 36.2139C480.408 37.3044 480.416 37.9513 480.432 38.1548C480.449 38.3582 480.501 38.7285 480.591 39.2656C480.68 39.7946 480.725 40.0876 480.725 40.1445C480.725 40.6247 480.615 40.9827 480.396 41.2188C480.184 41.4466 479.797 41.5605 479.236 41.5605C478.683 41.5605 478.32 41.3896 478.15 41.0479C478.06 40.8688 478.015 40.3521 478.015 39.4976L477.979 37.3491L478.015 35.4082C478.015 33.2354 477.38 32.1489 476.111 32.1489C474.988 32.1489 474.186 32.6209 473.706 33.5649C473.226 34.509 472.986 36.2586 472.986 38.814L473.023 40.1445C473.023 40.6003 472.88 40.9868 472.595 41.3042C472.311 41.6134 471.904 41.7681 471.375 41.7681ZM486.06 34.5781V34.7734C486.06 35.0176 486.283 35.1396 486.731 35.1396H487.024L487.097 35.1274L487.695 35.0786C488.322 34.9891 488.729 34.9443 488.916 34.9443C489.803 34.9443 490.47 34.7775 490.918 34.4438C491.13 34.2811 491.235 33.9922 491.235 33.5771V33.4429C491.235 32.8325 491.032 32.3483 490.625 31.9902C490.226 31.6322 489.746 31.4531 489.185 31.4531H489.099L489.026 31.4653C488.237 31.4653 487.545 31.799 486.951 32.4663C486.357 33.1336 486.06 33.8376 486.06 34.5781ZM488.721 42.1587H488.452C486.898 42.1587 485.661 41.6663 484.741 40.6816C483.822 39.6888 483.362 38.3664 483.362 36.7144V36.1772C483.362 35.3879 483.517 34.5863 483.826 33.7725C484.452 32.1449 485.474 31.0218 486.89 30.4033C487.638 30.0697 488.399 29.9028 489.172 29.9028H489.697C490.763 29.9028 491.663 30.2609 492.395 30.9771C493.136 31.6851 493.506 32.6006 493.506 33.7236V33.9678C493.506 34.7653 493.189 35.3309 492.554 35.6646C492.114 35.9006 491.089 36.1366 489.478 36.3726C487.866 36.6086 486.987 36.751 486.841 36.7998C486.353 36.9707 486.109 37.2962 486.109 37.7764C486.109 38.4437 486.393 39.0133 486.963 39.4854C487.533 39.9574 488.298 40.1934 489.258 40.1934C489.706 40.1934 490.316 40.0713 491.089 39.8271C491.862 39.583 492.31 39.4609 492.432 39.4609C492.847 39.4609 493.054 39.64 493.054 39.998C493.054 40.4782 492.586 40.9583 491.651 41.4385C490.715 41.9186 489.738 42.1587 488.721 42.1587ZM498.267 36.0796V37.0073C498.267 37.9757 498.486 38.7855 498.926 39.4365C499.373 40.0794 499.898 40.4009 500.501 40.4009H500.842C501.77 40.4009 502.486 40.0306 502.991 39.29C503.504 38.5495 503.76 37.4468 503.76 35.9819C503.776 35.8029 503.784 35.6727 503.784 35.5913L503.809 35.3472L503.821 34.8345V33.9678C503.821 32.3076 503.158 31.4775 501.831 31.4775H501.355C500.492 31.4775 499.76 31.9129 499.158 32.7837C498.564 33.6545 498.267 34.7531 498.267 36.0796ZM495.923 36.6411C495.923 35.7948 496.074 34.9321 496.375 34.0532C496.676 33.1743 497.099 32.4256 497.644 31.8071C498.189 31.1805 498.804 30.7288 499.487 30.4521C500.171 30.1673 500.981 30.0249 501.917 30.0249C502.861 30.0249 503.447 29.854 503.674 29.5122C503.902 29.1623 504.016 28.3932 504.016 27.2051C504.016 26.9854 503.98 26.6924 503.906 26.3262C503.833 25.96 503.797 25.7484 503.797 25.6914C503.797 25.3415 503.947 25.0241 504.248 24.7393C504.549 24.4463 504.944 24.2998 505.432 24.2998H505.676C506.059 24.2998 506.344 24.3893 506.531 24.5684C506.718 24.7474 506.812 25.1217 506.812 25.6914V26.8267L506.787 27.4004C506.779 27.5957 506.775 27.8805 506.775 28.2549C506.775 28.6211 506.714 29.8011 506.592 31.7949C506.47 33.7887 506.409 35.16 506.409 35.9087L506.397 36.2017C506.388 36.397 506.384 36.5841 506.384 36.7632L506.372 37.0439C506.372 37.0439 506.372 37.3613 506.372 37.9961C506.372 38.818 506.437 39.4365 506.568 39.8516C506.698 40.2666 506.763 40.5636 506.763 40.7427C506.763 40.9217 506.661 41.1089 506.458 41.3042C506.254 41.4995 505.937 41.5972 505.505 41.5972C505.082 41.5972 504.671 41.528 504.273 41.3896C503.874 41.2432 503.581 41.1699 503.394 41.1699C503.207 41.1699 502.962 41.2269 502.661 41.3408C501.75 41.6745 500.916 41.8413 500.159 41.8413C500.143 41.8413 500.126 41.8413 500.11 41.8413H499.829C498.6 41.8413 497.64 41.3937 496.948 40.4985C496.265 39.5952 495.923 38.4111 495.923 36.9463V36.6411ZM510.01 31.0259C510.01 30.5132 510.441 30.2568 511.304 30.2568H511.585C512.122 30.2568 512.484 30.4725 512.671 30.9038C512.858 31.3351 512.952 32.1408 512.952 33.3208L512.805 37.3979C512.805 39.2941 513.485 40.2422 514.844 40.2422C515.34 40.2422 515.816 40.0672 516.272 39.7173C516.728 39.3674 517.066 38.9482 517.285 38.46C517.765 37.3857 518.005 35.4611 518.005 32.686L517.981 32.1489V31.6729C517.981 31.2415 518.079 30.9282 518.274 30.7329C518.469 30.5376 518.811 30.4399 519.299 30.4399C519.788 30.4399 520.109 30.5579 520.264 30.7939C520.418 31.0299 520.496 31.4124 520.496 31.9414L520.471 32.5884L520.422 35.4692C520.422 35.9331 520.451 36.6452 520.508 37.6055C520.565 38.5658 520.626 39.2697 520.691 39.7173C520.756 40.1567 520.789 40.4172 520.789 40.4985C520.789 41.2228 520.256 41.585 519.19 41.585C518.823 41.585 518.457 41.4507 518.091 41.1821C517.733 40.9054 517.477 40.7671 517.322 40.7671C517.175 40.7671 516.923 40.8566 516.565 41.0356C515.548 41.5483 514.681 41.8047 513.965 41.8047H513.66C512.496 41.8047 511.642 41.4466 511.096 40.7305C510.551 40.0143 510.278 38.7244 510.278 36.8608L510.401 33.1621C510.401 32.6982 510.335 32.2547 510.205 31.8315C510.075 31.4084 510.01 31.1398 510.01 31.0259ZM524.5 25.0322C524.5 24.4382 525.057 24.1411 526.172 24.1411H526.392C526.856 24.1411 527.173 24.255 527.344 24.4829C527.515 24.7026 527.6 25.134 527.6 25.7769L527.503 27.5957C527.478 27.8805 527.466 28.0352 527.466 28.0596L527.442 28.5234C527.425 28.8245 527.409 29.1297 527.393 29.439L527.356 29.9028L527.319 30.5986C527.189 33.0726 527.124 34.8996 527.124 36.0796C527.124 37.2515 527.177 38.0938 527.283 38.6064C527.389 39.1191 527.555 39.5545 527.783 39.9126C528.011 40.2707 528.125 40.5067 528.125 40.6206V40.7671C528.125 41.1252 527.946 41.41 527.588 41.6216C527.238 41.8332 526.762 41.939 526.16 41.939H525.525C525.151 41.939 524.821 41.8332 524.536 41.6216C524.26 41.4019 524.121 41.1536 524.121 40.877V40.5474L524.194 40.0347C524.292 39.3267 524.349 38.7977 524.365 38.4478C524.39 38.0897 524.426 37.5973 524.475 36.9707C524.524 36.3359 524.601 34.9891 524.707 32.9302C524.821 30.8631 524.878 29.7523 524.878 29.5977L524.927 28.6821L524.951 27.7788C524.951 26.9162 524.874 26.3018 524.719 25.9355C524.573 25.5612 524.5 25.2601 524.5 25.0322ZM533.179 34.5781V34.7734C533.179 35.0176 533.403 35.1396 533.85 35.1396H534.143L534.216 35.1274L534.815 35.0786C535.441 34.9891 535.848 34.9443 536.035 34.9443C536.922 34.9443 537.59 34.7775 538.037 34.4438C538.249 34.2811 538.355 33.9922 538.355 33.5771V33.4429C538.355 32.8325 538.151 32.3483 537.744 31.9902C537.345 31.6322 536.865 31.4531 536.304 31.4531H536.218L536.145 31.4653C535.356 31.4653 534.664 31.799 534.07 32.4663C533.476 33.1336 533.179 33.8376 533.179 34.5781ZM535.84 42.1587H535.571C534.017 42.1587 532.78 41.6663 531.86 40.6816C530.941 39.6888 530.481 38.3664 530.481 36.7144V36.1772C530.481 35.3879 530.636 34.5863 530.945 33.7725C531.572 32.1449 532.593 31.0218 534.009 30.4033C534.758 30.0697 535.519 29.9028 536.292 29.9028H536.817C537.883 29.9028 538.782 30.2609 539.514 30.9771C540.255 31.6851 540.625 32.6006 540.625 33.7236V33.9678C540.625 34.7653 540.308 35.3309 539.673 35.6646C539.234 35.9006 538.208 36.1366 536.597 36.3726C534.985 36.6086 534.107 36.751 533.96 36.7998C533.472 36.9707 533.228 37.2962 533.228 37.7764C533.228 38.4437 533.512 39.0133 534.082 39.4854C534.652 39.9574 535.417 40.1934 536.377 40.1934C536.825 40.1934 537.435 40.0713 538.208 39.8271C538.981 39.583 539.429 39.4609 539.551 39.4609C539.966 39.4609 540.173 39.64 540.173 39.998C540.173 40.4782 539.706 40.9583 538.77 41.4385C537.834 41.9186 536.857 42.1587 535.84 42.1587ZM544.995 42.1953H544.617C544.21 42.1953 543.893 42.1017 543.665 41.9146C543.445 41.7274 543.335 41.4792 543.335 41.1699C543.319 41.1048 543.311 41.0519 543.311 41.0112L543.286 40.8037V40.584L543.298 40.5352V40.4253C543.315 40.3602 543.323 40.3073 543.323 40.2666C543.323 39.9004 543.445 39.6156 543.689 39.4121C543.941 39.2005 544.218 39.0947 544.519 39.0947L544.776 39.0581H545.105C545.992 39.0581 546.436 39.522 546.436 40.4497V40.6206L546.387 41.0356C546.387 41.41 546.244 41.6989 545.96 41.9023C545.683 42.0977 545.361 42.1953 544.995 42.1953ZM556.311 34.395V34.0044C556.311 32.7104 556.515 31.4613 556.922 30.2568C557.686 28.0026 559.033 26.4198 560.962 25.5083C562.012 25.0119 563.098 24.7637 564.221 24.7637H564.6C566.301 24.7637 567.509 25.0119 568.225 25.5083C568.941 26.0047 569.299 26.6313 569.299 27.3882C569.299 27.8439 569.21 28.1491 569.031 28.3037C568.852 28.4583 568.677 28.5356 568.506 28.5356C568.343 28.5356 567.989 28.3485 567.444 27.9741C566.907 27.5998 566.386 27.3109 565.881 27.1074C565.377 26.8958 564.746 26.79 563.989 26.79C563.233 26.79 562.545 26.9772 561.926 27.3516C560.071 28.4827 559.139 30.8062 559.131 34.3218C559.131 35.2332 559.253 36.0552 559.497 36.7876C560.238 39.0011 561.715 40.1079 563.928 40.1079C565.003 40.1079 566.24 39.7173 567.639 38.936C568.079 38.6919 568.404 38.5698 568.616 38.5698C568.966 38.5698 569.141 38.7692 569.141 39.168C569.141 39.4202 569.027 39.701 568.799 40.0103C568.4 40.5636 567.879 40.999 567.236 41.3164C566.146 41.8617 564.933 42.1343 563.599 42.1343H563.208C561.125 42.1343 559.448 41.4385 558.179 40.0469C557.577 39.3877 557.113 38.5576 556.787 37.5566C556.47 36.5557 556.311 35.5018 556.311 34.395ZM573.95 36.8486C573.95 37.9147 574.194 38.8018 574.683 39.5098C575.171 40.2178 575.769 40.5718 576.477 40.5718H576.843C577.682 40.5718 578.39 40.1486 578.967 39.3022C579.553 38.4559 579.846 37.3288 579.846 35.9209V35.1152C579.846 34.0247 579.606 33.1336 579.126 32.4419C578.654 31.742 578.044 31.3921 577.295 31.3921H577.051C576.18 31.3921 575.448 31.8234 574.854 32.686C574.268 33.5487 573.975 34.5781 573.975 35.7744L573.95 36.0552V36.8486ZM576.709 42.2319H576.318C574.894 42.2319 573.735 41.7355 572.839 40.7427C571.944 39.7498 571.497 38.342 571.497 36.519L571.509 36.3115C571.509 34.3096 572.038 32.7308 573.096 31.5752C573.649 30.9648 574.28 30.5173 574.988 30.2324C575.704 29.9395 576.384 29.793 577.026 29.793H577.625C578.341 29.793 579.028 29.9517 579.688 30.269C581.576 31.1805 582.52 32.8976 582.52 35.4204V35.6157C582.512 36.4377 582.377 37.2718 582.117 38.1182C581.596 39.7865 580.595 40.9665 579.114 41.6582C578.292 42.0407 577.49 42.2319 576.709 42.2319ZM589.441 41.9878C588.847 41.9878 588.371 41.6094 588.013 40.8525C587.744 40.2829 587.264 38.9198 586.572 36.7632C585.889 34.5985 585.437 33.3086 585.217 32.8936C584.672 31.86 584.4 31.2008 584.4 30.916C584.4 30.623 584.489 30.4115 584.668 30.2812C584.847 30.1429 585.226 30.0737 585.803 30.0737C586.731 30.0737 587.345 30.4155 587.647 31.0991C587.704 31.2212 587.793 31.5996 587.915 32.2344C588.037 32.861 588.159 33.4144 588.281 33.8945L588.526 34.9688C589.136 37.6543 589.604 38.9971 589.929 38.9971C590.149 38.9971 590.768 37.6258 591.785 34.8833C592.249 33.63 592.546 32.6453 592.676 31.9292C592.814 31.2049 592.904 30.8021 592.944 30.7207C593.18 30.2731 593.677 30.0493 594.434 30.0493H594.678C595.231 30.0493 595.508 30.3301 595.508 30.8916C595.508 31.2904 595.386 31.6973 595.142 32.1123C594.898 32.5273 594.328 33.805 593.433 35.9453C592.546 38.0775 591.891 39.526 591.467 40.291C591.044 41.0479 590.694 41.5199 590.418 41.707C590.149 41.8942 589.824 41.9878 589.441 41.9878ZM599.585 34.5781V34.7734C599.585 35.0176 599.809 35.1396 600.256 35.1396H600.549L600.623 35.1274L601.221 35.0786C601.847 34.9891 602.254 34.9443 602.442 34.9443C603.329 34.9443 603.996 34.7775 604.443 34.4438C604.655 34.2811 604.761 33.9922 604.761 33.5771V33.4429C604.761 32.8325 604.557 32.3483 604.151 31.9902C603.752 31.6322 603.272 31.4531 602.71 31.4531H602.625L602.551 31.4653C601.762 31.4653 601.07 31.799 600.476 32.4663C599.882 33.1336 599.585 33.8376 599.585 34.5781ZM602.246 42.1587H601.978C600.423 42.1587 599.186 41.6663 598.267 40.6816C597.347 39.6888 596.887 38.3664 596.887 36.7144V36.1772C596.887 35.3879 597.042 34.5863 597.351 33.7725C597.978 32.1449 598.999 31.0218 600.415 30.4033C601.164 30.0697 601.925 29.9028 602.698 29.9028H603.223C604.289 29.9028 605.188 30.2609 605.921 30.9771C606.661 31.6851 607.031 32.6006 607.031 33.7236V33.9678C607.031 34.7653 606.714 35.3309 606.079 35.6646C605.64 35.9006 604.614 36.1366 603.003 36.3726C601.392 36.6086 600.513 36.751 600.366 36.7998C599.878 36.9707 599.634 37.2962 599.634 37.7764C599.634 38.4437 599.919 39.0133 600.488 39.4854C601.058 39.9574 601.823 40.1934 602.783 40.1934C603.231 40.1934 603.841 40.0713 604.614 39.8271C605.387 39.583 605.835 39.4609 605.957 39.4609C606.372 39.4609 606.58 39.64 606.58 39.998C606.58 40.4782 606.112 40.9583 605.176 41.4385C604.24 41.9186 603.263 42.1587 602.246 42.1587ZM610.462 35.6523V34.7124C610.462 33.5812 610.401 32.7552 610.278 32.2344C610.156 31.7054 610.095 31.3351 610.095 31.1235C610.095 30.6271 610.457 30.3789 611.182 30.3789C611.906 30.3789 612.431 30.5132 612.756 30.7817C612.846 30.855 612.96 30.9974 613.098 31.209C613.245 31.4206 613.375 31.5264 613.489 31.5264C613.513 31.5264 613.867 31.3188 614.551 30.9038C615.234 30.4888 615.82 30.2812 616.309 30.2812H616.492C616.891 30.2812 617.208 30.3789 617.444 30.5742C617.68 30.7614 617.798 30.9933 617.798 31.27V31.4287C617.798 31.7624 617.68 32.0024 617.444 32.1489C617.216 32.2954 616.85 32.3687 616.345 32.3687C615.198 32.3687 614.36 32.7715 613.831 33.5771C613.31 34.3828 613.049 35.807 613.049 37.8496C613.049 38.1426 613.098 38.5942 613.196 39.2046C613.302 39.8149 613.355 40.2747 613.355 40.584C613.355 40.8932 613.188 41.1903 612.854 41.4751C612.52 41.7599 612.097 41.9023 611.585 41.9023H611.17C610.722 41.9023 610.376 41.7965 610.132 41.585C609.896 41.3652 609.778 41.1007 609.778 40.7915C609.778 40.4741 609.835 40.1527 609.949 39.8271C610.258 38.9482 610.413 37.9798 610.413 36.9219C610.445 36.3359 610.462 35.9128 610.462 35.6523ZM620.679 35.1885C620.182 34.6839 619.934 33.9759 619.934 33.0645C619.934 32.153 620.341 31.3717 621.155 30.7207C621.969 30.0615 622.978 29.7319 624.182 29.7319H624.5C625.566 29.7319 626.412 29.8825 627.039 30.1836C627.673 30.4847 627.991 30.9364 627.991 31.5386C627.991 32.1326 627.726 32.4297 627.197 32.4297C627.059 32.4297 626.668 32.2669 626.026 31.9414C625.383 31.6077 624.776 31.4409 624.207 31.4409C623.637 31.4409 623.177 31.5711 622.827 31.8315C622.485 32.0838 622.315 32.4338 622.315 32.8813C622.315 33.3289 622.555 33.7196 623.035 34.0532C623.311 34.2485 623.963 34.5578 624.988 34.981C626.021 35.4041 626.758 35.811 627.197 36.2017C627.905 36.8283 628.259 37.6299 628.259 38.6064C628.259 39.583 627.844 40.4212 627.014 41.1211C626.184 41.8128 625.106 42.1587 623.779 42.1587H623.462C622.127 42.1587 621.126 41.9674 620.459 41.585C619.792 41.1943 619.458 40.6898 619.458 40.0713C619.458 39.4447 619.719 39.1313 620.239 39.1313C620.41 39.1313 620.854 39.3511 621.57 39.7905C622.294 40.23 623.002 40.4497 623.694 40.4497C624.394 40.4497 624.919 40.3032 625.269 40.0103C625.619 39.7091 625.794 39.3348 625.794 38.8872C625.794 38.4315 625.574 38.0327 625.134 37.6909C624.898 37.5037 624.223 37.166 623.108 36.6777C621.993 36.1813 621.183 35.6849 620.679 35.1885ZM638.648 35.1885C638.151 34.6839 637.903 33.9759 637.903 33.0645C637.903 32.153 638.31 31.3717 639.124 30.7207C639.937 30.0615 640.947 29.7319 642.151 29.7319H642.468C643.534 29.7319 644.381 29.8825 645.007 30.1836C645.642 30.4847 645.96 30.9364 645.96 31.5386C645.96 32.1326 645.695 32.4297 645.166 32.4297C645.028 32.4297 644.637 32.2669 643.994 31.9414C643.351 31.6077 642.745 31.4409 642.175 31.4409C641.606 31.4409 641.146 31.5711 640.796 31.8315C640.454 32.0838 640.283 32.4338 640.283 32.8813C640.283 33.3289 640.523 33.7196 641.004 34.0532C641.28 34.2485 641.931 34.5578 642.957 34.981C643.99 35.4041 644.727 35.811 645.166 36.2017C645.874 36.8283 646.228 37.6299 646.228 38.6064C646.228 39.583 645.813 40.4212 644.983 41.1211C644.153 41.8128 643.075 42.1587 641.748 42.1587H641.431C640.096 42.1587 639.095 41.9674 638.428 41.585C637.761 41.1943 637.427 40.6898 637.427 40.0713C637.427 39.4447 637.687 39.1313 638.208 39.1313C638.379 39.1313 638.823 39.3511 639.539 39.7905C640.263 40.23 640.971 40.4497 641.663 40.4497C642.363 40.4497 642.887 40.3032 643.237 40.0103C643.587 39.7091 643.762 39.3348 643.762 38.8872C643.762 38.4315 643.543 38.0327 643.103 37.6909C642.867 37.5037 642.192 37.166 641.077 36.6777C639.962 36.1813 639.152 35.6849 638.648 35.1885ZM650.33 41.7681C649.369 41.7681 648.889 41.4263 648.889 40.7427C648.889 40.4334 648.963 39.9736 649.109 39.3633C649.264 38.7529 649.365 38.1914 649.414 37.6787C649.463 37.1579 649.548 35.4814 649.671 32.6494C649.801 29.8174 649.866 28.0921 649.866 27.4736V26.0332L649.793 25.0078C649.793 24.6253 650.143 24.4341 650.842 24.4341C651.55 24.4341 652.01 24.7067 652.222 25.252C652.328 25.5286 652.38 26.432 652.38 27.9619C652.38 29.4919 652.409 30.3626 652.466 30.5742C652.531 30.7858 652.698 30.8916 652.966 30.8916C652.999 30.8916 653.154 30.8428 653.43 30.7451L653.699 30.6475C654.57 30.3057 655.322 30.1348 655.957 30.1348C657.292 30.1348 658.24 30.6556 658.801 31.6973C659.176 32.389 659.363 33.8945 659.363 36.2139C659.363 37.3044 659.371 37.9513 659.387 38.1548C659.404 38.3582 659.457 38.7285 659.546 39.2656C659.636 39.7946 659.68 40.0876 659.68 40.1445C659.68 40.6247 659.57 40.9827 659.351 41.2188C659.139 41.4466 658.753 41.5605 658.191 41.5605C657.638 41.5605 657.276 41.3896 657.105 41.0479C657.015 40.8688 656.97 40.3521 656.97 39.4976L656.934 37.3491L656.97 35.4082C656.97 33.2354 656.336 32.1489 655.066 32.1489C653.943 32.1489 653.141 32.6209 652.661 33.5649C652.181 34.509 651.941 36.2586 651.941 38.814L651.978 40.1445C651.978 40.6003 651.835 40.9868 651.55 41.3042C651.266 41.6134 650.859 41.7681 650.33 41.7681ZM666.76 26.1309V26.2773C666.76 26.6924 666.638 27.0464 666.394 27.3394C666.158 27.6242 665.792 27.7666 665.296 27.7666H665.1L664.722 27.7178C664.502 27.7178 664.29 27.616 664.087 27.4126C663.884 27.2091 663.782 26.904 663.782 26.4971V26.3506L663.843 25.9111C663.843 25.7402 663.945 25.5286 664.148 25.2764C664.36 25.0241 664.628 24.8979 664.954 24.8979L665.234 24.8613H665.479L665.82 24.9102C666.032 24.9102 666.24 25.016 666.443 25.2275C666.655 25.431 666.76 25.7321 666.76 26.1309ZM666.187 31.2822L666.052 34.5659L666.028 34.8955L665.991 35.8965V36.3726C665.991 37.5444 666.024 38.3135 666.089 38.6797C666.162 39.0459 666.297 39.404 666.492 39.7539C666.687 40.0957 666.785 40.3439 666.785 40.4985V40.6084C666.785 41.0072 666.581 41.3245 666.174 41.5605C665.768 41.7965 665.214 41.9146 664.514 41.9146H664.209C663.802 41.9146 663.493 41.825 663.281 41.646C663.07 41.4588 662.964 41.2594 662.964 41.0479V40.7793C662.964 40.6735 663.058 40.2992 663.245 39.6562C663.432 39.0052 663.526 38.1222 663.526 37.0073C663.55 36.6899 663.562 36.4702 663.562 36.3481L663.599 35.6768L663.623 35.3472C663.664 34.7775 663.684 34.334 663.684 34.0166L663.696 33.5283C663.696 32.918 663.595 32.3768 663.391 31.9048C663.196 31.4328 663.098 31.1398 663.098 31.0259C663.098 30.4399 663.652 30.147 664.758 30.147H665.198C665.613 30.147 665.881 30.2568 666.004 30.4766C666.126 30.6882 666.187 30.9567 666.187 31.2822ZM671.716 42.8911H671.436C671.029 42.8911 670.683 42.7731 670.398 42.5371C670.121 42.3011 669.983 42.0203 669.983 41.6948C669.983 41.3693 670.081 40.9543 670.276 40.4497C670.479 39.937 670.626 39.3145 670.715 38.582C670.813 37.8415 670.862 36.7591 670.862 35.335C670.862 33.9108 670.793 33.0034 670.654 32.6128C670.63 32.5477 670.516 32.332 670.313 31.9658C670.109 31.5915 670.007 31.2741 670.007 31.0137C670.007 30.7533 670.142 30.4196 670.41 30.0127C670.687 29.6058 670.87 29.3047 670.96 29.1094C672.058 26.79 672.632 25.6019 672.681 25.5449C673.527 24.5602 674.671 24.0679 676.111 24.0679C676.778 24.0679 677.291 24.1818 677.649 24.4097C678.007 24.6375 678.186 24.9346 678.186 25.3008C678.186 25.6589 677.975 25.9193 677.551 26.082C677.437 26.1227 677.287 26.1431 677.1 26.1431C676.961 26.1349 676.803 26.1227 676.624 26.1064C676.2 26.0576 675.891 26.0332 675.696 26.0332C675.167 26.0332 674.736 26.2611 674.402 26.7168C674.076 27.1644 673.914 27.6812 673.914 28.2671C673.914 28.853 674.032 29.2803 674.268 29.5488C674.341 29.6302 674.687 29.8337 675.305 30.1592C675.932 30.4766 676.245 30.798 676.245 31.1235C676.245 31.3026 675.895 31.5793 675.195 31.9536C674.699 32.214 674.333 32.6779 674.097 33.3452C673.584 34.7775 673.328 36.6615 673.328 38.9971L673.56 41.0601C673.56 41.6216 673.393 42.0651 673.059 42.3906C672.734 42.7243 672.286 42.8911 671.716 42.8911ZM685.278 40.6938C685.278 41.0194 685.079 41.3123 684.68 41.5728C684.29 41.825 683.757 41.9512 683.081 41.9512C681.82 41.9512 680.933 41.4832 680.42 40.5474C680.103 39.9614 679.944 38.5902 679.944 36.4336C679.944 34.277 679.907 33.0238 679.834 32.6738C679.761 32.3239 679.557 31.9821 679.224 31.6484C678.89 31.3148 678.723 31.0584 678.723 30.8794C678.723 30.8143 679.118 30.387 679.907 29.5977C680.078 29.4268 680.249 29.0483 680.42 28.4624C680.599 27.8765 680.725 27.4899 680.798 27.3027C681.043 26.7168 681.364 26.4238 681.763 26.4238H681.958C682.308 26.4238 682.556 26.5581 682.703 26.8267C682.76 26.9325 682.845 27.3149 682.959 27.9741C683.081 28.6252 683.22 29.0443 683.374 29.2314C683.529 29.4186 683.915 29.6261 684.534 29.854C685.16 30.0737 685.474 30.3097 685.474 30.562V30.6963C685.474 31.0218 685.116 31.2985 684.4 31.5264C683.692 31.7461 683.236 32.1001 683.032 32.5884C682.634 33.5731 682.434 35.1763 682.434 37.3979C682.434 38.4396 682.613 39.1476 682.971 39.522C683.191 39.7498 683.63 39.9085 684.29 39.998C684.949 40.0876 685.278 40.3195 685.278 40.6938ZM688.989 35.1885C688.493 34.6839 688.245 33.9759 688.245 33.0645C688.245 32.153 688.652 31.3717 689.465 30.7207C690.279 30.0615 691.288 29.7319 692.493 29.7319H692.81C693.876 29.7319 694.723 29.8825 695.349 30.1836C695.984 30.4847 696.301 30.9364 696.301 31.5386C696.301 32.1326 696.037 32.4297 695.508 32.4297C695.37 32.4297 694.979 32.2669 694.336 31.9414C693.693 31.6077 693.087 31.4409 692.517 31.4409C691.948 31.4409 691.488 31.5711 691.138 31.8315C690.796 32.0838 690.625 32.4338 690.625 32.8813C690.625 33.3289 690.865 33.7196 691.345 34.0532C691.622 34.2485 692.273 34.5578 693.298 34.981C694.332 35.4041 695.068 35.811 695.508 36.2017C696.216 36.8283 696.57 37.6299 696.57 38.6064C696.57 39.583 696.155 40.4212 695.325 41.1211C694.495 41.8128 693.416 42.1587 692.09 42.1587H691.773C690.438 42.1587 689.437 41.9674 688.77 41.585C688.102 41.1943 687.769 40.6898 687.769 40.0713C687.769 39.4447 688.029 39.1313 688.55 39.1313C688.721 39.1313 689.164 39.3511 689.88 39.7905C690.605 40.23 691.313 40.4497 692.005 40.4497C692.704 40.4497 693.229 40.3032 693.579 40.0103C693.929 39.7091 694.104 39.3348 694.104 38.8872C694.104 38.4315 693.884 38.0327 693.445 37.6909C693.209 37.5037 692.533 37.166 691.419 36.6777C690.304 36.1813 689.494 35.6849 688.989 35.1885ZM276.965 71.3774C276.388 71.3774 275.887 71.0153 275.464 70.291C275.187 69.8109 274.748 68.8343 274.146 67.3613C273.552 65.8802 273.214 65.1396 273.132 65.1396C273.108 65.1396 272.77 65.8314 272.119 67.2148C271.468 68.5902 270.984 69.5342 270.667 70.0469C270.162 70.8525 269.678 71.2554 269.214 71.2554C268.921 71.2554 268.612 71.1414 268.286 70.9136C267.969 70.6776 267.713 70.2951 267.517 69.7661C267.493 69.701 267.306 69.0011 266.956 67.6665C266.614 66.3319 266.26 65.0786 265.894 63.9067C265.536 62.7349 265.357 61.9414 265.357 61.5264C265.357 61.1113 265.446 60.8143 265.625 60.6353C265.804 60.4562 265.987 60.3667 266.174 60.3667C266.931 60.3667 267.464 60.68 267.774 61.3066C267.887 61.5345 268.034 62.1042 268.213 63.0156C269.068 66.3604 269.641 68.1344 269.934 68.3379C270.243 68.3379 270.695 67.3044 271.289 65.2373C271.533 64.391 271.692 63.63 271.765 62.9546C271.847 62.2791 271.9 61.8885 271.924 61.7827L272.034 61.3921C272.278 60.7492 272.762 60.4277 273.486 60.4277C274.219 60.4277 274.727 60.798 275.012 61.5386C275.126 61.8397 275.232 62.3687 275.33 63.1255C275.427 63.8742 275.566 64.627 275.745 65.3838C276.192 67.3206 276.546 68.2891 276.807 68.2891C277.124 68.2891 277.621 67.2759 278.296 65.2495C278.508 64.6147 278.727 63.8376 278.955 62.918C279.191 61.9984 279.354 61.445 279.443 61.2578C279.736 60.68 280.2 60.3911 280.835 60.3911C281.169 60.3911 281.336 60.7166 281.336 61.3677C281.336 61.7502 280.921 63.2069 280.09 65.7378C279.26 68.2606 278.76 69.7051 278.589 70.0713C278.418 70.4294 278.174 70.7386 277.857 70.999C277.539 71.2513 277.242 71.3774 276.965 71.3774ZM287.903 56.1309V56.2773C287.903 56.6924 287.781 57.0464 287.537 57.3394C287.301 57.6242 286.935 57.7666 286.438 57.7666H286.243L285.864 57.7178C285.645 57.7178 285.433 57.616 285.23 57.4126C285.026 57.2091 284.924 56.904 284.924 56.4971V56.3506L284.985 55.9111C284.985 55.7402 285.087 55.5286 285.291 55.2764C285.502 55.0241 285.771 54.8979 286.096 54.8979L286.377 54.8613H286.621L286.963 54.9102C287.175 54.9102 287.382 55.016 287.586 55.2275C287.797 55.431 287.903 55.7321 287.903 56.1309ZM287.329 61.2822L287.195 64.5659L287.171 64.8955L287.134 65.8965V66.3726C287.134 67.5444 287.166 68.3135 287.232 68.6797C287.305 69.0459 287.439 69.404 287.634 69.7539C287.83 70.0957 287.927 70.3439 287.927 70.4985V70.6084C287.927 71.0072 287.724 71.3245 287.317 71.5605C286.91 71.7965 286.357 71.9146 285.657 71.9146H285.352C284.945 71.9146 284.636 71.825 284.424 71.646C284.212 71.4588 284.107 71.2594 284.107 71.0479V70.7793C284.107 70.6735 284.2 70.2992 284.387 69.6562C284.575 69.0052 284.668 68.1222 284.668 67.0073C284.693 66.6899 284.705 66.4702 284.705 66.3481L284.741 65.6768L284.766 65.3472C284.806 64.7775 284.827 64.334 284.827 64.0166L284.839 63.5283C284.839 62.918 284.737 62.3768 284.534 61.9048C284.339 61.4328 284.241 61.1398 284.241 61.0259C284.241 60.4399 284.794 60.147 285.901 60.147H286.34C286.755 60.147 287.024 60.2568 287.146 60.4766C287.268 60.6882 287.329 60.9567 287.329 61.2822ZM297.315 70.6938C297.315 71.0194 297.115 71.3123 296.716 71.5728C296.326 71.825 295.793 71.9512 295.117 71.9512C293.856 71.9512 292.969 71.4832 292.456 70.5474C292.139 69.9614 291.98 68.5902 291.98 66.4336C291.98 64.277 291.943 63.0238 291.87 62.6738C291.797 62.3239 291.594 61.9821 291.26 61.6484C290.926 61.3148 290.759 61.0584 290.759 60.8794C290.759 60.8143 291.154 60.387 291.943 59.5977C292.114 59.4268 292.285 59.0483 292.456 58.4624C292.635 57.8765 292.761 57.4899 292.835 57.3027C293.079 56.7168 293.4 56.4238 293.799 56.4238H293.994C294.344 56.4238 294.592 56.5581 294.739 56.8267C294.796 56.9325 294.881 57.3149 294.995 57.9741C295.117 58.6252 295.256 59.0443 295.41 59.2314C295.565 59.4186 295.951 59.6261 296.57 59.854C297.197 60.0737 297.51 60.3097 297.51 60.562V60.6963C297.51 61.0218 297.152 61.2985 296.436 61.5264C295.728 61.7461 295.272 62.1001 295.068 62.5884C294.67 63.5731 294.47 65.1763 294.47 67.3979C294.47 68.4396 294.649 69.1476 295.007 69.522C295.227 69.7498 295.667 69.9085 296.326 69.998C296.985 70.0876 297.315 70.3195 297.315 70.6938ZM301.599 71.7681C300.639 71.7681 300.159 71.4263 300.159 70.7427C300.159 70.4334 300.232 69.9736 300.379 69.3633C300.533 68.7529 300.635 68.1914 300.684 67.6787C300.733 67.1579 300.818 65.4814 300.94 62.6494C301.07 59.8174 301.135 58.0921 301.135 57.4736V56.0332L301.062 55.0078C301.062 54.6253 301.412 54.4341 302.112 54.4341C302.82 54.4341 303.28 54.7067 303.491 55.252C303.597 55.5286 303.65 56.432 303.65 57.9619C303.65 59.4919 303.679 60.3626 303.735 60.5742C303.801 60.7858 303.967 60.8916 304.236 60.8916C304.269 60.8916 304.423 60.8428 304.7 60.7451L304.968 60.6475C305.839 60.3057 306.592 60.1348 307.227 60.1348C308.561 60.1348 309.509 60.6556 310.071 61.6973C310.445 62.389 310.632 63.8945 310.632 66.2139C310.632 67.3044 310.641 67.9513 310.657 68.1548C310.673 68.3582 310.726 68.7285 310.816 69.2656C310.905 69.7946 310.95 70.0876 310.95 70.1445C310.95 70.6247 310.84 70.9827 310.62 71.2188C310.409 71.4466 310.022 71.5605 309.461 71.5605C308.907 71.5605 308.545 71.3896 308.374 71.0479C308.285 70.8688 308.24 70.3521 308.24 69.4976L308.203 67.3491L308.24 65.4082C308.24 63.2354 307.605 62.1489 306.336 62.1489C305.213 62.1489 304.411 62.6209 303.931 63.5649C303.451 64.509 303.211 66.2586 303.211 68.814L303.247 70.1445C303.247 70.6003 303.105 70.9868 302.82 71.3042C302.535 71.6134 302.128 71.7681 301.599 71.7681ZM316.187 66.8486C316.187 67.9147 316.431 68.8018 316.919 69.5098C317.407 70.2178 318.005 70.5718 318.714 70.5718H319.08C319.918 70.5718 320.626 70.1486 321.204 69.3022C321.79 68.4559 322.083 67.3288 322.083 65.9209V65.1152C322.083 64.0247 321.843 63.1336 321.362 62.4419C320.89 61.742 320.28 61.3921 319.531 61.3921H319.287C318.416 61.3921 317.684 61.8234 317.09 62.686C316.504 63.5487 316.211 64.5781 316.211 65.7744L316.187 66.0552V66.8486ZM318.945 72.2319H318.555C317.131 72.2319 315.971 71.7355 315.076 70.7427C314.181 69.7498 313.733 68.342 313.733 66.519L313.745 66.3115C313.745 64.3096 314.274 62.7308 315.332 61.5752C315.886 60.9648 316.516 60.5173 317.224 60.2324C317.94 59.9395 318.62 59.793 319.263 59.793H319.861C320.577 59.793 321.265 59.9517 321.924 60.269C323.812 61.1805 324.756 62.8976 324.756 65.4204V65.6157C324.748 66.4377 324.614 67.2718 324.353 68.1182C323.832 69.7865 322.831 70.9665 321.35 71.6582C320.528 72.0407 319.727 72.2319 318.945 72.2319ZM327.368 61.0259C327.368 60.5132 327.8 60.2568 328.662 60.2568H328.943C329.48 60.2568 329.842 60.4725 330.029 60.9038C330.217 61.3351 330.31 62.1408 330.31 63.3208L330.164 67.3979C330.164 69.2941 330.843 70.2422 332.202 70.2422C332.699 70.2422 333.175 70.0672 333.63 69.7173C334.086 69.3674 334.424 68.9482 334.644 68.46C335.124 67.3857 335.364 65.4611 335.364 62.686L335.339 62.1489V61.6729C335.339 61.2415 335.437 60.9282 335.632 60.7329C335.828 60.5376 336.17 60.4399 336.658 60.4399C337.146 60.4399 337.468 60.5579 337.622 60.7939C337.777 61.0299 337.854 61.4124 337.854 61.9414L337.83 62.5884L337.781 65.4692C337.781 65.9331 337.809 66.6452 337.866 67.6055C337.923 68.5658 337.984 69.2697 338.049 69.7173C338.115 70.1567 338.147 70.4172 338.147 70.4985C338.147 71.2228 337.614 71.585 336.548 71.585C336.182 71.585 335.816 71.4507 335.449 71.1821C335.091 70.9054 334.835 70.7671 334.68 70.7671C334.534 70.7671 334.282 70.8566 333.923 71.0356C332.906 71.5483 332.04 71.8047 331.323 71.8047H331.018C329.854 71.8047 329 71.4466 328.455 70.7305C327.909 70.0143 327.637 68.7244 327.637 66.8608L327.759 63.1621C327.759 62.6982 327.694 62.2547 327.564 61.8315C327.433 61.4084 327.368 61.1398 327.368 61.0259ZM347.559 70.6938C347.559 71.0194 347.359 71.3123 346.961 71.5728C346.57 71.825 346.037 71.9512 345.361 71.9512C344.1 71.9512 343.213 71.4832 342.7 70.5474C342.383 69.9614 342.224 68.5902 342.224 66.4336C342.224 64.277 342.188 63.0238 342.114 62.6738C342.041 62.3239 341.838 61.9821 341.504 61.6484C341.17 61.3148 341.004 61.0584 341.004 60.8794C341.004 60.8143 341.398 60.387 342.188 59.5977C342.359 59.4268 342.529 59.0483 342.7 58.4624C342.879 57.8765 343.005 57.4899 343.079 57.3027C343.323 56.7168 343.644 56.4238 344.043 56.4238H344.238C344.588 56.4238 344.837 56.5581 344.983 56.8267C345.04 56.9325 345.125 57.3149 345.239 57.9741C345.361 58.6252 345.5 59.0443 345.654 59.2314C345.809 59.4186 346.196 59.6261 346.814 59.854C347.441 60.0737 347.754 60.3097 347.754 60.562V60.6963C347.754 61.0218 347.396 61.2985 346.68 61.5264C345.972 61.7461 345.516 62.1001 345.313 62.5884C344.914 63.5731 344.714 65.1763 344.714 67.3979C344.714 68.4396 344.894 69.1476 345.252 69.522C345.471 69.7498 345.911 69.9085 346.57 69.998C347.229 70.0876 347.559 70.3195 347.559 70.6938ZM362.134 70.4497H362.5C363.387 70.4497 364.132 70.0103 364.734 69.1313C365.344 68.2443 365.65 67.0399 365.65 65.5181V65.1274L365.637 64.9932L365.625 64.7368C365.617 64.6473 365.613 64.5618 365.613 64.4805C365.613 63.6911 365.393 62.9993 364.954 62.4053C364.514 61.8031 363.977 61.502 363.342 61.502H362.988C362.59 61.502 362.15 61.6403 361.67 61.917C361.198 62.1937 360.864 62.5192 360.669 62.8936C360.238 63.7074 360.022 64.9932 360.022 66.751V67.874C360.047 68.1182 360.059 68.3216 360.059 68.4844C360.059 69.0703 360.238 69.5464 360.596 69.9126C360.962 70.2707 361.475 70.4497 362.134 70.4497ZM360.535 59.7197C360.535 60.029 360.584 60.2609 360.681 60.4155C360.787 60.5701 361.06 60.6475 361.499 60.6475C361.507 60.6475 361.772 60.5864 362.293 60.4644C362.822 60.3423 363.367 60.2812 363.928 60.2812C365.141 60.2812 366.154 60.7614 366.968 61.7217C367.782 62.682 368.189 63.8538 368.189 65.2373V66.1162C368.189 66.7998 368.054 67.5241 367.786 68.2891C367.509 69.054 367.118 69.7173 366.614 70.2788C365.58 71.4181 364.307 71.9878 362.793 71.9878H362.525C362.101 71.9878 361.556 71.9064 360.889 71.7437C360.221 71.5809 359.786 71.4995 359.583 71.4995L358.765 71.5728C357.927 71.5728 357.507 71.1536 357.507 70.3154V69.8149C357.507 69.3185 357.605 67.5078 357.8 64.3828C358.004 61.2578 358.106 59.264 358.106 58.4014C358.106 57.5387 358.036 56.8226 357.898 56.2529C357.76 55.6833 357.691 55.374 357.691 55.3252C357.691 54.6416 358.077 54.2998 358.85 54.2998H359.094C359.754 54.2998 360.173 54.4585 360.352 54.7759C360.531 55.0851 360.62 55.6629 360.62 56.5093L360.559 58.4502L360.535 58.9995V59.7197ZM372.998 64.5781V64.7734C372.998 65.0176 373.222 65.1396 373.67 65.1396H373.963L374.036 65.1274L374.634 65.0786C375.261 64.9891 375.667 64.9443 375.855 64.9443C376.742 64.9443 377.409 64.7775 377.857 64.4438C378.068 64.2811 378.174 63.9922 378.174 63.5771V63.4429C378.174 62.8325 377.97 62.3483 377.564 61.9902C377.165 61.6322 376.685 61.4531 376.123 61.4531H376.038L375.964 61.4653C375.175 61.4653 374.483 61.799 373.889 62.4663C373.295 63.1336 372.998 63.8376 372.998 64.5781ZM375.659 72.1587H375.391C373.836 72.1587 372.599 71.6663 371.68 70.6816C370.76 69.6888 370.3 68.3664 370.3 66.7144V66.1772C370.3 65.3879 370.455 64.5863 370.764 63.7725C371.391 62.1449 372.412 61.0218 373.828 60.4033C374.577 60.0697 375.338 59.9028 376.111 59.9028H376.636C377.702 59.9028 378.601 60.2609 379.334 60.9771C380.074 61.6851 380.444 62.6006 380.444 63.7236V63.9678C380.444 64.7653 380.127 65.3309 379.492 65.6646C379.053 65.9006 378.027 66.1366 376.416 66.3726C374.805 66.6086 373.926 66.751 373.779 66.7998C373.291 66.9707 373.047 67.2962 373.047 67.7764C373.047 68.4437 373.332 69.0133 373.901 69.4854C374.471 69.9574 375.236 70.1934 376.196 70.1934C376.644 70.1934 377.254 70.0713 378.027 69.8271C378.801 69.583 379.248 69.4609 379.37 69.4609C379.785 69.4609 379.993 69.64 379.993 69.998C379.993 70.4782 379.525 70.9583 378.589 71.4385C377.653 71.9186 376.677 72.1587 375.659 72.1587ZM387.073 56.1309V56.2773C387.073 56.6924 386.951 57.0464 386.707 57.3394C386.471 57.6242 386.104 57.7666 385.608 57.7666H385.413L385.034 57.7178C384.815 57.7178 384.603 57.616 384.4 57.4126C384.196 57.2091 384.094 56.904 384.094 56.4971V56.3506L384.155 55.9111C384.155 55.7402 384.257 55.5286 384.461 55.2764C384.672 55.0241 384.941 54.8979 385.266 54.8979L385.547 54.8613H385.791L386.133 54.9102C386.345 54.9102 386.552 55.016 386.755 55.2275C386.967 55.431 387.073 55.7321 387.073 56.1309ZM386.499 61.2822L386.365 64.5659L386.34 64.8955L386.304 65.8965V66.3726C386.304 67.5444 386.336 68.3135 386.401 68.6797C386.475 69.0459 386.609 69.404 386.804 69.7539C387 70.0957 387.097 70.3439 387.097 70.4985V70.6084C387.097 71.0072 386.894 71.3245 386.487 71.5605C386.08 71.7965 385.527 71.9146 384.827 71.9146H384.522C384.115 71.9146 383.805 71.825 383.594 71.646C383.382 71.4588 383.276 71.2594 383.276 71.0479V70.7793C383.276 70.6735 383.37 70.2992 383.557 69.6562C383.744 69.0052 383.838 68.1222 383.838 67.0073C383.862 66.6899 383.875 66.4702 383.875 66.3481L383.911 65.6768L383.936 65.3472C383.976 64.7775 383.997 64.334 383.997 64.0166L384.009 63.5283C384.009 62.918 383.907 62.3768 383.704 61.9048C383.508 61.4328 383.411 61.1398 383.411 61.0259C383.411 60.4399 383.964 60.147 385.071 60.147H385.51C385.925 60.147 386.194 60.2568 386.316 60.4766C386.438 60.6882 386.499 60.9567 386.499 61.2822ZM401.306 70.5352C401.306 71.1374 400.781 71.4385 399.732 71.4385C399.137 71.4385 398.739 71.2961 398.535 71.0112C398.438 70.8729 398.389 70.5474 398.389 70.0347L398.352 69.2534C398.295 68.3989 398.267 67.5404 398.267 66.6777C398.267 64.8141 398.104 63.5649 397.778 62.9302C397.461 62.2873 396.924 61.9658 396.167 61.9658C395.663 61.9658 395.195 62.1164 394.763 62.4175C394.34 62.7186 394.015 63.1377 393.787 63.6748C393.315 64.7734 393.079 66.8039 393.079 69.7661C393.079 70.4416 392.949 70.9176 392.688 71.1943C392.436 71.471 392.11 71.6094 391.712 71.6094H391.467C390.556 71.6094 390.1 71.2472 390.1 70.5229V70.23C390.1 70.1405 390.149 69.9451 390.247 69.644L390.442 69.0825C390.637 68.4233 390.735 67.0114 390.735 64.8467L390.796 61.2212C390.796 60.7573 391.048 60.5254 391.553 60.5254C392.057 60.5254 392.554 60.6922 393.042 61.0259C393.539 61.3595 393.852 61.5264 393.982 61.5264C394.12 61.5264 394.36 61.4328 394.702 61.2456C395.85 60.619 396.769 60.3057 397.461 60.3057H397.778C399.024 60.3057 399.898 60.8672 400.403 61.9902C400.647 62.5192 400.769 63.6585 400.769 65.4082V65.4937C400.769 65.6401 400.765 65.7866 400.757 65.9331C400.757 66.3319 400.757 66.5394 400.757 66.5557C400.757 66.7103 400.757 66.8608 400.757 67.0073C400.757 67.1213 400.757 67.2311 400.757 67.3369C400.757 67.9635 400.777 68.3908 400.818 68.6187C400.875 68.9279 400.969 69.2493 401.099 69.583C401.237 69.9492 401.306 70.2666 401.306 70.5352ZM406.299 66.3481V66.7266C406.299 67.8171 406.506 68.6715 406.922 69.29C407.337 69.9085 407.857 70.2178 408.484 70.2178H408.911C409.815 70.2178 410.519 69.8394 411.023 69.0825C411.528 68.3175 411.78 67.2474 411.78 65.8721C411.796 65.7093 411.804 65.5832 411.804 65.4937L411.829 64.9932V64.2607C411.812 64.098 411.804 63.9759 411.804 63.8945C411.804 63.2516 411.65 62.7471 411.34 62.3809C411.031 62.0146 410.575 61.8315 409.973 61.8315H409.631C408.671 61.8315 407.874 62.2344 407.239 63.04C406.612 63.8457 406.299 64.9484 406.299 66.3481ZM413.391 60.8306C414.099 60.8306 414.453 61.3433 414.453 62.3687C414.453 62.6372 414.343 63.7603 414.124 65.7378C413.904 67.7153 413.794 69.3958 413.794 70.7793C413.794 72.179 413.7 73.2288 413.513 73.9287C413.115 75.4342 412.191 76.5003 410.742 77.127C409.985 77.4525 409.147 77.6152 408.228 77.6152C407.316 77.6152 406.502 77.4525 405.786 77.127C405.078 76.8014 404.724 76.4108 404.724 75.9551C404.724 75.4342 405.074 75.1738 405.774 75.1738C405.912 75.1738 406.287 75.2267 406.897 75.3325C407.507 75.4383 407.947 75.4912 408.215 75.4912C409.2 75.4912 410.006 75.182 410.632 74.5635C411.267 73.9531 411.585 73.1678 411.585 72.2075C411.585 71.703 411.397 71.4507 411.023 71.4507C410.958 71.4507 410.803 71.4751 410.559 71.5239C409.867 71.6623 409.237 71.7314 408.667 71.7314C407.219 71.7314 406.128 71.292 405.396 70.4131C405.054 70.0062 404.761 69.465 404.517 68.7896C404.281 68.106 404.163 67.3857 404.163 66.6289V66.2871C404.163 65.4896 404.293 64.7043 404.553 63.9312C404.822 63.1499 405.176 62.4948 405.615 61.9658C406.055 61.4287 406.629 61.0096 407.337 60.7085C408.045 60.4074 408.769 60.2568 409.509 60.2568H409.827C410.242 60.2568 410.775 60.3708 411.426 60.5986C412.085 60.8184 412.488 60.9282 412.634 60.9282C412.96 60.8631 413.212 60.8306 413.391 60.8306ZM428.455 70.4619H428.772C429.439 70.4619 430.025 70.2381 430.53 69.7905C431.043 69.3348 431.299 68.8099 431.299 68.2158L431.323 68.0571V67.8984L431.348 67.52V66.8242C431.348 66.3522 431.108 66.1162 430.628 66.1162H430.078L429.993 66.1284L429.517 66.165C429.289 66.1976 429.126 66.2139 429.028 66.2139C428.369 66.2139 427.759 66.4621 427.197 66.9585C426.807 67.3084 426.611 67.8049 426.611 68.4478V68.6919C426.611 69.2371 426.786 69.6685 427.136 69.9858C427.494 70.3032 427.934 70.4619 428.455 70.4619ZM425.733 62.6616C425.187 62.6616 424.915 62.3117 424.915 61.6118C424.915 61.091 425.354 60.6393 426.233 60.2568C427.12 59.8662 428.04 59.6709 428.992 59.6709H429.602C430.424 59.6709 431.148 59.8255 431.775 60.1348C432.402 60.4359 432.878 60.8468 433.203 61.3677C433.537 61.8885 433.74 62.568 433.814 63.4062C433.83 63.6016 433.838 64.5496 433.838 66.2505C433.838 67.9513 433.858 68.932 433.899 69.1924C433.948 69.4447 434.078 69.7539 434.29 70.1201C434.509 70.4863 434.619 70.7874 434.619 71.0234C434.619 71.2594 434.505 71.4629 434.277 71.6338C434.058 71.7965 433.736 71.8779 433.313 71.8779C432.89 71.8779 432.43 71.7762 431.934 71.5728C431.437 71.3612 431.075 71.2554 430.847 71.2554C430.823 71.2554 430.416 71.4019 429.627 71.6948C428.837 71.9797 428.17 72.1221 427.625 72.1221H427.356C426.445 72.1221 425.667 71.8332 425.025 71.2554C424.39 70.6776 424.072 69.8556 424.072 68.7896C424.072 67.7235 424.422 66.8934 425.122 66.2993C425.822 65.6971 426.672 65.2861 427.673 65.0664C427.975 65.0013 428.475 64.9159 429.175 64.8101C429.875 64.7043 430.351 64.5944 430.603 64.4805C431.043 64.277 431.262 63.8945 431.262 63.333C431.262 62.7633 431.075 62.3198 430.701 62.0024C430.326 61.6769 429.879 61.5142 429.358 61.5142C428.845 61.5142 428.17 61.7054 427.332 62.0879C426.493 62.4704 425.96 62.6616 425.733 62.6616ZM438.33 65.1885C437.834 64.6839 437.586 63.9759 437.586 63.0645C437.586 62.153 437.992 61.3717 438.806 60.7207C439.62 60.0615 440.629 59.7319 441.834 59.7319H442.151C443.217 59.7319 444.063 59.8825 444.69 60.1836C445.325 60.4847 445.642 60.9364 445.642 61.5386C445.642 62.1326 445.378 62.4297 444.849 62.4297C444.71 62.4297 444.32 62.2669 443.677 61.9414C443.034 61.6077 442.428 61.4409 441.858 61.4409C441.288 61.4409 440.829 61.5711 440.479 61.8315C440.137 62.0838 439.966 62.4338 439.966 62.8813C439.966 63.3289 440.206 63.7196 440.686 64.0532C440.963 64.2485 441.614 64.5578 442.639 64.981C443.673 65.4041 444.409 65.811 444.849 66.2017C445.557 66.8283 445.911 67.6299 445.911 68.6064C445.911 69.583 445.496 70.4212 444.666 71.1211C443.836 71.8128 442.757 72.1587 441.431 72.1587H441.113C439.779 72.1587 438.778 71.9674 438.11 71.585C437.443 71.1943 437.109 70.6898 437.109 70.0713C437.109 69.4447 437.37 69.1313 437.891 69.1313C438.062 69.1313 438.505 69.3511 439.221 69.7905C439.946 70.23 440.654 70.4497 441.345 70.4497C442.045 70.4497 442.57 70.3032 442.92 70.0103C443.27 69.7091 443.445 69.3348 443.445 68.8872C443.445 68.4315 443.225 68.0327 442.786 67.6909C442.55 67.5037 441.874 67.166 440.759 66.6777C439.644 66.1813 438.835 65.6849 438.33 65.1885ZM452.857 66.6533C452.132 66.6533 451.77 67.6095 451.77 69.522C451.77 70.3521 451.599 70.9136 451.257 71.2065C450.916 71.4995 450.505 71.646 450.025 71.646C449.544 71.646 449.203 71.5646 448.999 71.4019C448.804 71.2391 448.706 70.9339 448.706 70.4863C448.706 70.4538 448.751 70.1323 448.84 69.522C448.93 68.9116 449.044 67.0155 449.182 63.8335C449.321 60.6434 449.39 58.6943 449.39 57.9863C449.39 57.2783 449.369 56.8185 449.329 56.6069C449.296 56.3872 449.239 56.1227 449.158 55.8135C449.085 55.5042 449.048 55.3089 449.048 55.2275C449.048 54.8695 449.166 54.6253 449.402 54.4951C449.646 54.3568 450.049 54.2876 450.61 54.2876C451.18 54.2876 451.554 54.4341 451.734 54.7271C451.921 55.02 452.014 55.61 452.014 56.4971L451.856 61.6729C451.856 63.154 452.026 63.8945 452.368 63.8945C452.637 63.8945 453.296 63.3411 454.346 62.2344C455.404 61.1276 455.945 60.5661 455.969 60.5498C456.295 60.3219 456.787 60.208 457.446 60.208C458.106 60.208 458.435 60.3708 458.435 60.6963C458.435 60.859 457.91 61.5467 456.86 62.7593C455.811 63.9718 455.286 64.863 455.286 65.4326C455.286 65.7419 455.884 66.7591 457.08 68.4844C457.512 69.1029 457.918 69.64 458.301 70.0957C458.692 70.5433 458.887 70.8647 458.887 71.0601C458.887 71.467 458.508 71.6704 457.752 71.6704C457.003 71.6704 456.425 71.4548 456.018 71.0234C455.921 70.9176 455.693 70.5596 455.335 69.9492C454.977 69.3389 454.724 68.9116 454.578 68.6675C453.74 67.3247 453.166 66.6533 452.857 66.6533ZM463.648 64.5781V64.7734C463.648 65.0176 463.871 65.1396 464.319 65.1396H464.612L464.685 65.1274L465.283 65.0786C465.91 64.9891 466.317 64.9443 466.504 64.9443C467.391 64.9443 468.058 64.7775 468.506 64.4438C468.718 64.2811 468.823 63.9922 468.823 63.5771V63.4429C468.823 62.8325 468.62 62.3483 468.213 61.9902C467.814 61.6322 467.334 61.4531 466.773 61.4531H466.687L466.614 61.4653C465.825 61.4653 465.133 61.799 464.539 62.4663C463.945 63.1336 463.648 63.8376 463.648 64.5781ZM466.309 72.1587H466.04C464.486 72.1587 463.249 71.6663 462.329 70.6816C461.41 69.6888 460.95 68.3664 460.95 66.7144V66.1772C460.95 65.3879 461.104 64.5863 461.414 63.7725C462.04 62.1449 463.062 61.0218 464.478 60.4033C465.226 60.0697 465.987 59.9028 466.76 59.9028H467.285C468.351 59.9028 469.251 60.2609 469.983 60.9771C470.724 61.6851 471.094 62.6006 471.094 63.7236V63.9678C471.094 64.7653 470.776 65.3309 470.142 65.6646C469.702 65.9006 468.677 66.1366 467.066 66.3726C465.454 66.6086 464.575 66.751 464.429 66.7998C463.941 66.9707 463.696 67.2962 463.696 67.7764C463.696 68.4437 463.981 69.0133 464.551 69.4854C465.121 69.9574 465.886 70.1934 466.846 70.1934C467.293 70.1934 467.904 70.0713 468.677 69.8271C469.45 69.583 469.898 69.4609 470.02 69.4609C470.435 69.4609 470.642 69.64 470.642 69.998C470.642 70.4782 470.174 70.9583 469.238 71.4385C468.303 71.9186 467.326 72.1587 466.309 72.1587ZM475.855 66.0796V67.0073C475.855 67.9757 476.074 68.7855 476.514 69.4365C476.961 70.0794 477.486 70.4009 478.089 70.4009H478.43C479.358 70.4009 480.074 70.0306 480.579 69.29C481.091 68.5495 481.348 67.4468 481.348 65.9819C481.364 65.8029 481.372 65.6727 481.372 65.5913L481.397 65.3472L481.409 64.8345V63.9678C481.409 62.3076 480.746 61.4775 479.419 61.4775H478.943C478.08 61.4775 477.348 61.9129 476.746 62.7837C476.152 63.6545 475.855 64.7531 475.855 66.0796ZM473.511 66.6411C473.511 65.7948 473.661 64.9321 473.963 64.0532C474.264 63.1743 474.687 62.4256 475.232 61.8071C475.777 61.1805 476.392 60.7288 477.075 60.4521C477.759 60.1673 478.569 60.0249 479.505 60.0249C480.449 60.0249 481.034 59.854 481.262 59.5122C481.49 59.1623 481.604 58.3932 481.604 57.2051C481.604 56.9854 481.568 56.6924 481.494 56.3262C481.421 55.96 481.384 55.7484 481.384 55.6914C481.384 55.3415 481.535 55.0241 481.836 54.7393C482.137 54.4463 482.532 54.2998 483.02 54.2998H483.264C483.647 54.2998 483.932 54.3893 484.119 54.5684C484.306 54.7474 484.4 55.1217 484.4 55.6914V56.8267L484.375 57.4004C484.367 57.5957 484.363 57.8805 484.363 58.2549C484.363 58.6211 484.302 59.8011 484.18 61.7949C484.058 63.7887 483.997 65.16 483.997 65.9087L483.984 66.2017C483.976 66.397 483.972 66.5841 483.972 66.7632L483.96 67.0439C483.96 67.0439 483.96 67.3613 483.96 67.9961C483.96 68.818 484.025 69.4365 484.155 69.8516C484.286 70.2666 484.351 70.5636 484.351 70.7427C484.351 70.9217 484.249 71.1089 484.046 71.3042C483.842 71.4995 483.525 71.5972 483.093 71.5972C482.67 71.5972 482.259 71.528 481.86 71.3896C481.462 71.2432 481.169 71.1699 480.982 71.1699C480.794 71.1699 480.55 71.2269 480.249 71.3408C479.338 71.6745 478.504 71.8413 477.747 71.8413C477.73 71.8413 477.714 71.8413 477.698 71.8413H477.417C476.188 71.8413 475.228 71.3937 474.536 70.4985C473.853 69.5952 473.511 68.4111 473.511 66.9463V66.6411ZM489.282 72.1953H488.904C488.497 72.1953 488.18 72.1017 487.952 71.9146C487.732 71.7274 487.622 71.4792 487.622 71.1699C487.606 71.1048 487.598 71.0519 487.598 71.0112L487.573 70.8037V70.584L487.586 70.5352V70.4253C487.602 70.3602 487.61 70.3073 487.61 70.2666C487.61 69.9004 487.732 69.6156 487.976 69.4121C488.228 69.2005 488.505 69.0947 488.806 69.0947L489.063 69.0581H489.392C490.279 69.0581 490.723 69.522 490.723 70.4497V70.6206L490.674 71.0356C490.674 71.41 490.532 71.6989 490.247 71.9023C489.97 72.0977 489.649 72.1953 489.282 72.1953Z" fill="black"/>
<path d="M22.8702 52C22.5202 52 22.3452 51.825 22.3452 51.475V47.275C22.3452 46.925 22.5202 46.75 22.8702 46.75H32.2362V40.807H22.8702C22.5202 40.807 22.3452 40.632 22.3452 40.282L22.3662 24.532C22.3662 24.182 22.5412 24.007 22.8912 24.007H38.7252C39.0752 24.007 39.2502 24.182 39.2502 24.532V28.732C39.2502 29.082 39.0752 29.257 38.7252 29.257H29.3802V35.2H38.7252C39.0752 35.2 39.2502 35.375 39.2502 35.725V46.645C39.2502 46.897 39.1662 47.121 38.9982 47.317L34.5462 51.748C34.3922 51.916 34.1752 52 33.8952 52H22.8702Z" fill="#2ECC71"/>
</svg>
