<svg width="401" height="175" viewBox="0 0 401 175" fill="none" xmlns="http://www.w3.org/2000/svg">
<path d="M243.958 87.956L238.678 88.22C237.827 88.22 237.402 88.0293 237.402 87.648C237.402 87.2667 237.886 86.9293 238.854 86.636C240.614 86.108 241.875 84.9787 242.638 83.248C245.424 76.824 248.167 69.9307 250.866 62.568C251.247 61.6293 251.438 60.9547 251.438 60.544C251.438 60.192 251.452 60.016 251.482 60.016C252.508 59.664 253.124 59.3707 253.33 59.136C253.418 59.0187 253.491 58.9307 253.55 58.872C253.608 58.784 253.652 58.7107 253.682 58.652C253.828 58.388 253.931 58.256 253.99 58.256C254.136 58.256 254.283 58.4613 254.43 58.872C255.515 62.2747 256.703 65.9413 257.994 69.872C259.314 73.7733 260.736 77.9387 262.262 82.368C262.819 83.9813 263.435 85.0813 264.11 85.668C264.814 86.2253 265.664 86.592 266.662 86.768C267.659 86.944 268.158 87.2813 268.158 87.78C268.158 88.0733 267.732 88.22 266.882 88.22L260.766 87.956L256.146 88C255.295 88 254.87 87.824 254.87 87.472C254.87 87.032 255.354 86.7533 256.322 86.636C258.111 86.3427 259.006 85.6827 259.006 84.656C259.006 83.8347 258.448 81.532 257.334 77.748C257.246 77.4253 256.85 77.264 256.146 77.264H247.742C247.419 77.264 247.17 77.528 246.994 78.056C245.82 81.4 245.234 83.424 245.234 84.128C245.234 84.7733 245.468 85.316 245.938 85.756C246.436 86.1667 247.111 86.4893 247.962 86.724C248.812 86.9587 249.238 87.2373 249.238 87.56C249.238 87.8827 248.812 88.044 247.962 88.044L243.958 87.956ZM248.094 75.064C248.094 75.2693 248.402 75.372 249.018 75.372H255.838C256.248 75.372 256.454 75.2987 256.454 75.152L256.366 74.712L252.89 64.196C252.714 63.668 252.596 63.404 252.538 63.404C252.45 63.404 252.318 63.6533 252.142 64.152L248.182 74.712L248.094 75.064ZM285.168 88.088C283.994 88.5867 283.32 88.836 283.144 88.836C282.909 88.836 282.792 88.7773 282.792 88.66L283.012 85.756V85.492C282.484 86.3133 281.721 87.0467 280.724 87.692C279.726 88.308 278.568 88.616 277.248 88.616C275.664 88.616 274.256 88.1907 273.024 87.34C271.792 86.4893 270.824 85.3747 270.12 83.996C269.445 82.588 269.108 81.048 269.108 79.376C269.108 77.704 269.518 76.1347 270.34 74.668C271.161 73.2013 272.32 72.028 273.816 71.148C275.312 70.2387 277.042 69.784 279.008 69.784C279.418 69.784 279.858 69.8427 280.328 69.96C280.826 70.048 281.281 70.1653 281.692 70.312C282.102 70.4587 282.366 70.6053 282.484 70.752C282.66 70.9867 282.806 71.104 282.924 71.104C283.012 71.104 283.056 70.752 283.056 70.048V63.096C283.056 61.9813 282.88 61.2187 282.528 60.808C282.205 60.368 281.633 60.06 280.812 59.884C280.577 59.8253 280.46 59.6347 280.46 59.312C280.46 58.9893 280.562 58.8133 280.768 58.784C281.354 58.6373 281.926 58.476 282.484 58.3C283.07 58.124 283.642 57.9187 284.2 57.684C285.344 57.244 286.004 57.024 286.18 57.024C286.326 57.024 286.414 57.0827 286.444 57.2C286.444 57.2587 286.444 57.3613 286.444 57.508C286.444 57.6547 286.429 57.8453 286.4 58.08C286.224 59.752 286.136 61.4827 286.136 63.272V83.16C286.136 85.0667 286.444 86.02 287.06 86.02C287.969 86.02 288.644 85.976 289.084 85.888H289.216C289.568 85.888 289.744 86.064 289.744 86.416C289.744 86.856 289.538 87.076 289.128 87.076C288.365 87.1933 287.646 87.34 286.972 87.516C286.326 87.6627 285.725 87.8533 285.168 88.088ZM274.916 85.14C276.265 86.1373 277.57 86.636 278.832 86.636C280.064 86.636 281.076 86.2547 281.868 85.492C282.66 84.7293 283.056 83.8053 283.056 82.72V76.78C283.056 75.8707 282.821 75.0053 282.352 74.184C281.912 73.3627 281.281 72.688 280.46 72.16C279.668 71.6027 278.729 71.324 277.644 71.324C276.588 71.324 275.634 71.6907 274.784 72.424C273.933 73.128 273.317 73.9933 272.936 75.02C272.554 75.988 272.364 77.2347 272.364 78.76C272.364 80.2267 272.598 81.532 273.068 82.676C273.566 83.7907 274.182 84.612 274.916 85.14ZM307.426 88.088C306.252 88.5867 305.578 88.836 305.402 88.836C305.167 88.836 305.05 88.7773 305.05 88.66L305.27 85.756V85.492C304.742 86.3133 303.979 87.0467 302.982 87.692C301.984 88.308 300.826 88.616 299.506 88.616C297.922 88.616 296.514 88.1907 295.282 87.34C294.05 86.4893 293.082 85.3747 292.378 83.996C291.703 82.588 291.366 81.048 291.366 79.376C291.366 77.704 291.776 76.1347 292.598 74.668C293.419 73.2013 294.578 72.028 296.074 71.148C297.57 70.2387 299.3 69.784 301.266 69.784C301.676 69.784 302.116 69.8427 302.586 69.96C303.084 70.048 303.539 70.1653 303.95 70.312C304.36 70.4587 304.624 70.6053 304.742 70.752C304.918 70.9867 305.064 71.104 305.182 71.104C305.27 71.104 305.314 70.752 305.314 70.048V63.096C305.314 61.9813 305.138 61.2187 304.786 60.808C304.463 60.368 303.891 60.06 303.07 59.884C302.835 59.8253 302.718 59.6347 302.718 59.312C302.718 58.9893 302.82 58.8133 303.026 58.784C303.612 58.6373 304.184 58.476 304.742 58.3C305.328 58.124 305.9 57.9187 306.458 57.684C307.602 57.244 308.262 57.024 308.438 57.024C308.584 57.024 308.672 57.0827 308.702 57.2C308.702 57.2587 308.702 57.3613 308.702 57.508C308.702 57.6547 308.687 57.8453 308.658 58.08C308.482 59.752 308.394 61.4827 308.394 63.272V83.16C308.394 85.0667 308.702 86.02 309.318 86.02C310.227 86.02 310.902 85.976 311.342 85.888H311.474C311.826 85.888 312.002 86.064 312.002 86.416C312.002 86.856 311.796 87.076 311.386 87.076C310.623 87.1933 309.904 87.34 309.23 87.516C308.584 87.6627 307.983 87.8533 307.426 88.088ZM297.174 85.14C298.523 86.1373 299.828 86.636 301.09 86.636C302.322 86.636 303.334 86.2547 304.126 85.492C304.918 84.7293 305.314 83.8053 305.314 82.72V76.78C305.314 75.8707 305.079 75.0053 304.61 74.184C304.17 73.3627 303.539 72.688 302.718 72.16C301.926 71.6027 300.987 71.324 299.902 71.324C298.846 71.324 297.892 71.6907 297.042 72.424C296.191 73.128 295.575 73.9933 295.194 75.02C294.812 75.988 294.622 77.2347 294.622 78.76C294.622 80.2267 294.856 81.532 295.326 82.676C295.824 83.7907 296.44 84.612 297.174 85.14ZM335.546 83.336C335.546 86.856 333.434 88.616 329.21 88.616C328.124 88.616 327.112 88.4253 326.174 88.044C325.235 87.692 324.692 87.3547 324.546 87.032C324.194 86.2987 324.003 85.404 323.974 84.348C323.974 84.084 324.208 83.952 324.678 83.952C325.118 83.952 325.352 84.0547 325.382 84.26C325.499 84.7587 325.763 85.2573 326.174 85.756C326.614 86.2547 327.127 86.6653 327.714 86.988C328.33 87.2813 328.96 87.428 329.606 87.428C330.544 87.428 331.263 87.1493 331.762 86.592C332.29 86.0347 332.554 85.3453 332.554 84.524C332.554 83.7027 332.29 83.0133 331.762 82.456C331.234 81.8693 330.354 81.136 329.122 80.256C327.86 79.376 326.848 78.5253 326.086 77.704C325.352 76.8533 324.986 75.8267 324.986 74.624C324.986 73.8027 325.206 73.0253 325.646 72.292C326.086 71.5587 326.716 70.9573 327.538 70.488C328.359 70.0187 329.356 69.784 330.53 69.784C332.29 69.784 333.507 70.1213 334.182 70.796C334.68 71.4413 334.93 72.5853 334.93 74.228C334.93 74.3453 334.827 74.404 334.622 74.404C334.416 74.404 334.123 74.3013 333.742 74.096C333.36 73.8613 333.17 73.656 333.17 73.48C333.14 72.8347 332.847 72.248 332.29 71.72C331.732 71.192 331.072 70.928 330.31 70.928C329.518 70.928 328.872 71.192 328.374 71.72C327.875 72.248 327.626 72.864 327.626 73.568C327.626 74.272 327.875 74.9173 328.374 75.504C328.872 76.0907 329.312 76.5013 329.694 76.736C329.87 76.8533 330.09 77.0147 330.354 77.22C330.647 77.396 330.984 77.6013 331.366 77.836C331.864 78.1293 332.275 78.3933 332.598 78.628C332.95 78.8627 333.287 79.1413 333.61 79.464C333.932 79.7573 334.284 80.1827 334.666 80.74C335.252 81.5907 335.546 82.456 335.546 83.336ZM349.636 86.812C349.167 87.252 348.507 87.6627 347.656 88.044C346.835 88.4253 346.014 88.616 345.192 88.616C343.755 88.616 342.626 88.1907 341.804 87.34C341.012 86.46 340.616 85.14 340.616 83.38V73.172C340.616 72.908 340.514 72.732 340.308 72.644C340.103 72.556 339.648 72.512 338.944 72.512C338.856 72.512 338.739 72.3947 338.592 72.16C338.475 71.9253 338.416 71.7493 338.416 71.632C338.416 71.5147 338.49 71.412 338.636 71.324C339.311 71.1187 340 70.6933 340.704 70.048C341.408 69.4027 341.98 68.8013 342.42 68.244C342.86 67.6867 343.124 67.408 343.212 67.408C343.623 67.408 343.828 67.5547 343.828 67.848L343.74 69.784C343.74 70.1947 344.092 70.4 344.796 70.4H349.812C350.106 70.4 350.252 70.752 350.252 71.456C350.252 72.16 350.106 72.512 349.812 72.512H345.456C344.664 72.512 344.166 72.5707 343.96 72.688C343.784 72.8053 343.696 73.1573 343.696 73.744V82.06C343.696 83.556 343.975 84.6267 344.532 85.272C345.09 85.888 345.779 86.196 346.6 86.196C348.067 86.196 349.167 85.9173 349.9 85.36C349.93 85.3307 349.974 85.316 350.032 85.316C350.238 85.316 350.34 85.5067 350.34 85.888C350.34 86.1227 350.106 86.4307 349.636 86.812ZM360.656 86.9C360.246 87.2813 359.63 87.6627 358.808 88.044C358.016 88.4253 357.136 88.616 356.168 88.616C355.523 88.616 354.892 88.44 354.276 88.088C353.69 87.7653 353.206 87.34 352.824 86.812C352.443 86.2547 352.252 85.6973 352.252 85.14C352.252 83.38 353.323 82.06 355.464 81.18L359.952 79.332C360.51 79.0973 360.847 78.892 360.964 78.716C361.082 78.54 361.155 78.1587 361.184 77.572L361.272 74.844V74.756C361.272 73.9933 361.023 73.3333 360.524 72.776C360.055 72.2187 359.512 71.94 358.896 71.94C358.251 71.94 357.65 72.1013 357.092 72.424C356.535 72.7173 356.183 72.996 356.036 73.26C355.89 73.5533 355.816 73.8613 355.816 74.184L355.86 74.8C355.86 74.976 355.655 75.1813 355.244 75.416C354.834 75.6507 354.394 75.8707 353.924 76.076C353.455 76.252 353.118 76.34 352.912 76.34C352.619 76.34 352.472 76.208 352.472 75.944C352.472 75.2693 352.707 74.624 353.176 74.008C353.646 73.392 354.247 72.8053 354.98 72.248C355.743 71.6907 356.535 71.192 357.356 70.752C358.559 70.1067 359.703 69.784 360.788 69.784C361.815 69.784 362.68 70.1653 363.384 70.928C364.088 71.6907 364.426 72.6147 364.396 73.7L364.176 83.204V83.468C364.176 85.5507 364.704 86.592 365.76 86.592C366.464 86.592 367.051 86.3867 367.52 85.976C367.579 85.9173 367.652 85.888 367.74 85.888C367.858 85.888 367.96 85.932 368.048 86.02C368.166 86.108 368.224 86.2253 368.224 86.372V86.416C368.107 86.6507 367.858 86.944 367.476 87.296C367.095 87.648 366.655 87.956 366.156 88.22C365.658 88.484 365.174 88.616 364.704 88.616C363.971 88.616 363.355 88.4253 362.856 88.044C362.387 87.6627 362.05 87.2813 361.844 86.9C361.639 86.5187 361.507 86.328 361.448 86.328C361.302 86.328 361.038 86.5187 360.656 86.9ZM355.772 84.172C355.772 84.9347 356.007 85.536 356.476 85.976C356.946 86.3867 357.518 86.592 358.192 86.592C358.867 86.592 359.512 86.328 360.128 85.8C360.744 85.272 361.067 84.5533 361.096 83.644L361.184 81.488V81.268C361.184 80.7987 361.052 80.564 360.788 80.564C360.612 80.564 360.407 80.608 360.172 80.696C357.239 81.6933 355.772 82.852 355.772 84.172ZM373.874 87.912L370.222 88.132C369.636 88.132 369.342 87.9853 369.342 87.692C369.342 87.428 369.68 87.1787 370.354 86.944C371.616 86.5627 372.246 85.9173 372.246 85.008V72.6C371.777 72.6 371.352 72.6 370.97 72.6C370.618 72.5707 370.281 72.5413 369.958 72.512C369.87 72.4827 369.738 72.38 369.562 72.204C369.416 72.028 369.342 71.8813 369.342 71.764C369.342 71.676 369.445 71.5733 369.65 71.456C369.885 71.3973 370.208 71.28 370.618 71.104C371.058 70.8987 371.601 70.6347 372.246 70.312C372.246 67.9067 372.554 65.7947 373.17 63.976C373.816 62.1573 374.652 60.764 375.678 59.796C377.673 57.8893 379.756 56.936 381.926 56.936C385.153 56.936 386.766 57.816 386.766 59.576C386.766 60.0453 386.62 60.456 386.327 60.808C386.033 61.16 385.725 61.336 385.403 61.336C385.08 61.336 384.757 61.204 384.434 60.94C384.112 60.676 383.804 60.368 383.51 60.016C383.217 59.6933 382.763 59.4 382.147 59.136C381.53 58.872 380.841 58.74 380.078 58.74C378.641 58.74 377.497 59.4293 376.646 60.808C375.825 62.1573 375.414 64.2547 375.414 67.1V69.432C375.414 70.0773 375.781 70.4 376.514 70.4H381.706C381.824 70.4 381.882 70.5613 381.882 70.884C381.882 71.236 381.824 71.6027 381.706 71.984C381.589 72.336 381.457 72.512 381.31 72.512H377.174C376.441 72.512 375.972 72.5707 375.766 72.688C375.532 72.8347 375.414 73.0253 375.414 73.26V85.008C375.444 85.9173 376.074 86.5627 377.306 86.944C377.981 87.1787 378.318 87.428 378.318 87.692C378.318 87.9853 378.025 88.132 377.438 88.132L373.874 87.912ZM387.281 87.912L383.629 88.132C383.042 88.132 382.749 87.9853 382.749 87.692C382.749 87.428 383.086 87.1787 383.761 86.944C385.022 86.5627 385.653 85.9173 385.653 85.008V72.6C385.183 72.6 384.758 72.6 384.377 72.6C384.025 72.5707 383.687 72.5413 383.365 72.512C383.277 72.4827 383.145 72.38 382.969 72.204C382.822 72.028 382.749 71.8813 382.749 71.764C382.749 71.676 382.851 71.5733 383.057 71.456C383.291 71.3973 383.614 71.28 384.025 71.104C384.465 70.8987 385.007 70.6347 385.653 70.312C385.653 67.9067 385.961 65.7947 386.577 63.976C387.222 62.1573 388.058 60.764 389.085 59.796C391.079 57.8893 393.162 56.936 395.333 56.936C398.559 56.936 400.173 57.816 400.173 59.576C400.173 60.0453 400.026 60.456 399.733 60.808C399.439 61.16 399.131 61.336 398.809 61.336C398.486 61.336 398.163 61.204 397.841 60.94C397.518 60.676 397.21 60.368 396.917 60.016C396.623 59.6933 396.169 59.4 395.553 59.136C394.937 58.872 394.247 58.74 393.485 58.74C392.047 58.74 390.903 59.4293 390.053 60.808C389.231 62.1573 388.821 64.2547 388.821 67.1V69.432C388.821 70.0773 389.187 70.4 389.921 70.4H395.113C395.23 70.4 395.289 70.5613 395.289 70.884C395.289 71.236 395.23 71.6027 395.113 71.984C394.995 72.336 394.863 72.512 394.717 72.512H390.581C389.847 72.512 389.378 72.5707 389.173 72.688C388.938 72.8347 388.821 73.0253 388.821 73.26V85.008C388.85 85.9173 389.481 86.5627 390.713 86.944C391.387 87.1787 391.725 87.428 391.725 87.692C391.725 87.9853 391.431 88.132 390.845 88.132L387.281 87.912Z" fill="#F8F9FA"/>
<rect x="1.19409" y="1" width="194.056" height="173" rx="35" fill="#2ECC71" stroke="black" stroke-width="2"/>
<path d="M93.504 92.5C103.762 92.5 112.076 85.2256 112.076 76.25C112.076 67.2744 103.762 60 93.504 60C83.2458 60 74.9319 67.2744 74.9319 76.25C74.9319 85.2256 83.2458 92.5 93.504 92.5ZM106.504 96.5625H104.081C100.86 97.8574 97.2765 98.5938 93.504 98.5938C89.7316 98.5938 86.1622 97.8574 82.9266 96.5625H80.5035C69.7375 96.5625 61.0028 104.205 61.0028 113.625V118.906C61.0028 122.271 64.1223 125 67.9674 125H119.041C122.886 125 126.005 122.271 126.005 118.906V113.625C126.005 104.205 117.271 96.5625 106.504 96.5625Z" fill="#0D1B2A"/>
<path d="M153.405 30.2632L164.546 42.9828L140.354 70.6029L130.421 71.8548C129.091 72.0227 127.967 70.739 128.115 69.2208L129.221 57.8723L153.405 30.2632ZM171.437 28.3695L166.206 22.3972C164.574 20.5343 161.927 20.5343 160.296 22.3972L155.374 28.0158L166.515 40.7354L171.437 35.1168C173.068 33.2529 173.068 30.2324 171.437 28.3695Z" fill="#032141"/>
</svg>
