<svg width="207" height="300" viewBox="0 0 207 300" fill="none" xmlns="http://www.w3.org/2000/svg">
<path d="M73.1562 232.967L69.1962 233.165C68.5582 233.165 68.2392 233.022 68.2392 232.736C68.2392 232.45 68.6022 232.197 69.3282 231.977C70.6482 231.581 71.5942 230.734 72.1662 229.436C74.2562 224.618 76.3132 219.448 78.3372 213.926C78.6232 213.222 78.7662 212.716 78.7662 212.408C78.7662 212.144 78.7772 212.012 78.7992 212.012C79.5692 211.748 80.0312 211.528 80.1852 211.352C80.2512 211.264 80.3062 211.198 80.3502 211.154C80.3942 211.088 80.4272 211.033 80.4492 210.989C80.5592 210.791 80.6362 210.692 80.6802 210.692C80.7902 210.692 80.9002 210.846 81.0102 211.154C81.8242 213.706 82.7152 216.456 83.6832 219.404C84.6732 222.33 85.7402 225.454 86.8842 228.776C87.3022 229.986 87.7642 230.811 88.2702 231.251C88.7982 231.669 89.4362 231.944 90.1842 232.076C90.9322 232.208 91.3062 232.461 91.3062 232.835C91.3062 233.055 90.9872 233.165 90.3492 233.165L85.7622 232.967L82.2972 233C81.6592 233 81.3402 232.868 81.3402 232.604C81.3402 232.274 81.7032 232.065 82.4292 231.977C83.7712 231.757 84.4422 231.262 84.4422 230.492C84.4422 229.876 84.0242 228.149 83.1882 225.311C83.1222 225.069 82.8252 224.948 82.2972 224.948H75.9942C75.7522 224.948 75.5652 225.146 75.4332 225.542C74.5532 228.05 74.1132 229.568 74.1132 230.096C74.1132 230.58 74.2892 230.987 74.6412 231.317C75.0152 231.625 75.5212 231.867 76.1592 232.043C76.7972 232.219 77.1162 232.428 77.1162 232.67C77.1162 232.912 76.7972 233.033 76.1592 233.033L73.1562 232.967ZM76.2582 223.298C76.2582 223.452 76.4892 223.529 76.9512 223.529H82.0662C82.3742 223.529 82.5282 223.474 82.5282 223.364L82.4622 223.034L79.8552 215.147C79.7232 214.751 79.6352 214.553 79.5912 214.553C79.5252 214.553 79.4262 214.74 79.2942 215.114L76.3242 223.034L76.2582 223.298ZM104.064 233.066C103.184 233.44 102.678 233.627 102.546 233.627C102.37 233.627 102.282 233.583 102.282 233.495L102.447 231.317V231.119C102.051 231.735 101.479 232.285 100.731 232.769C99.9828 233.231 99.1138 233.462 98.1238 233.462C96.9358 233.462 95.8798 233.143 94.9558 232.505C94.0318 231.867 93.3058 231.031 92.7778 229.997C92.2718 228.941 92.0188 227.786 92.0188 226.532C92.0188 225.278 92.3268 224.101 92.9428 223.001C93.5588 221.901 94.4278 221.021 95.5498 220.361C96.6718 219.679 97.9698 219.338 99.4438 219.338C99.7518 219.338 100.082 219.382 100.434 219.47C100.808 219.536 101.149 219.624 101.457 219.734C101.765 219.844 101.963 219.954 102.051 220.064C102.183 220.24 102.293 220.328 102.381 220.328C102.447 220.328 102.48 220.064 102.48 219.536V214.322C102.48 213.486 102.348 212.914 102.084 212.606C101.842 212.276 101.413 212.045 100.797 211.913C100.621 211.869 100.533 211.726 100.533 211.484C100.533 211.242 100.61 211.11 100.764 211.088C101.204 210.978 101.633 210.857 102.051 210.725C102.491 210.593 102.92 210.439 103.338 210.263C104.196 209.933 104.691 209.768 104.823 209.768C104.933 209.768 104.999 209.812 105.021 209.9C105.021 209.944 105.021 210.021 105.021 210.131C105.021 210.241 105.01 210.384 104.988 210.56C104.856 211.814 104.79 213.112 104.79 214.454V229.37C104.79 230.8 105.021 231.515 105.483 231.515C106.165 231.515 106.671 231.482 107.001 231.416H107.1C107.364 231.416 107.496 231.548 107.496 231.812C107.496 232.142 107.342 232.307 107.034 232.307C106.462 232.395 105.923 232.505 105.417 232.637C104.933 232.747 104.482 232.89 104.064 233.066ZM96.3748 230.855C97.3868 231.603 98.3658 231.977 99.3118 231.977C100.236 231.977 100.995 231.691 101.589 231.119C102.183 230.547 102.48 229.854 102.48 229.04V224.585C102.48 223.903 102.304 223.254 101.952 222.638C101.622 222.022 101.149 221.516 100.533 221.12C99.9388 220.702 99.2348 220.493 98.4208 220.493C97.6288 220.493 96.9138 220.768 96.2758 221.318C95.6378 221.846 95.1758 222.495 94.8898 223.265C94.6038 223.991 94.4608 224.926 94.4608 226.07C94.4608 227.17 94.6368 228.149 94.9888 229.007C95.3628 229.843 95.8248 230.459 96.3748 230.855ZM120.757 233.066C119.877 233.44 119.371 233.627 119.239 233.627C119.063 233.627 118.975 233.583 118.975 233.495L119.14 231.317V231.119C118.744 231.735 118.172 232.285 117.424 232.769C116.676 233.231 115.807 233.462 114.817 233.462C113.629 233.462 112.573 233.143 111.649 232.505C110.725 231.867 109.999 231.031 109.471 229.997C108.965 228.941 108.712 227.786 108.712 226.532C108.712 225.278 109.02 224.101 109.636 223.001C110.252 221.901 111.121 221.021 112.243 220.361C113.365 219.679 114.663 219.338 116.137 219.338C116.445 219.338 116.775 219.382 117.127 219.47C117.501 219.536 117.842 219.624 118.15 219.734C118.458 219.844 118.656 219.954 118.744 220.064C118.876 220.24 118.986 220.328 119.074 220.328C119.14 220.328 119.173 220.064 119.173 219.536V214.322C119.173 213.486 119.041 212.914 118.777 212.606C118.535 212.276 118.106 212.045 117.49 211.913C117.314 211.869 117.226 211.726 117.226 211.484C117.226 211.242 117.303 211.11 117.457 211.088C117.897 210.978 118.326 210.857 118.744 210.725C119.184 210.593 119.613 210.439 120.031 210.263C120.889 209.933 121.384 209.768 121.516 209.768C121.626 209.768 121.692 209.812 121.714 209.9C121.714 209.944 121.714 210.021 121.714 210.131C121.714 210.241 121.703 210.384 121.681 210.56C121.549 211.814 121.483 213.112 121.483 214.454V229.37C121.483 230.8 121.714 231.515 122.176 231.515C122.858 231.515 123.364 231.482 123.694 231.416H123.793C124.057 231.416 124.189 231.548 124.189 231.812C124.189 232.142 124.035 232.307 123.727 232.307C123.155 232.395 122.616 232.505 122.11 232.637C121.626 232.747 121.175 232.89 120.757 233.066ZM113.068 230.855C114.08 231.603 115.059 231.977 116.005 231.977C116.929 231.977 117.688 231.691 118.282 231.119C118.876 230.547 119.173 229.854 119.173 229.04V224.585C119.173 223.903 118.997 223.254 118.645 222.638C118.315 222.022 117.842 221.516 117.226 221.12C116.632 220.702 115.928 220.493 115.114 220.493C114.322 220.493 113.607 220.768 112.969 221.318C112.331 221.846 111.869 222.495 111.583 223.265C111.297 223.991 111.154 224.926 111.154 226.07C111.154 227.17 111.33 228.149 111.682 229.007C112.056 229.843 112.518 230.459 113.068 230.855ZM126.957 234.551C126.825 234.881 126.506 235.046 126 235.046C125.472 235.046 125.208 234.914 125.208 234.65L125.241 234.617V234.551L135.042 211.616C135.218 211.242 135.647 211.055 136.329 211.055C136.439 211.055 136.538 211.099 136.626 211.187C136.736 211.275 136.791 211.374 136.791 211.484V211.55L126.957 234.551ZM74.1457 265.538C74.1457 265.956 73.8487 266.253 73.2547 266.429C72.6827 266.605 72.0887 266.693 71.4727 266.693C70.4387 266.693 69.4927 266.462 68.6347 266C67.7987 265.538 67.0507 264.966 66.3907 264.284C65.7307 263.602 65.1587 262.92 64.6747 262.238C64.1907 261.534 63.7947 260.951 63.4867 260.489C63.1787 260.027 62.8927 259.598 62.6287 259.202C62.3867 258.806 62.1777 258.454 62.0017 258.146C61.2317 256.958 59.8567 256.254 57.8767 256.034H57.8107C57.5247 256.034 57.3817 256.254 57.3817 256.694V262.37C57.3817 263.998 58.1187 264.944 59.5927 265.208C60.3187 265.34 60.6817 265.527 60.6817 265.769C60.6817 266.033 60.3627 266.165 59.7247 266.165C59.4167 266.165 59.1087 266.154 58.8007 266.132C58.4927 266.11 58.1957 266.077 57.9097 266.033C57.3597 265.967 56.8867 265.934 56.4907 265.934L52.2007 266.165C51.5627 266.165 51.2437 266.033 51.2437 265.769C51.2437 265.527 51.6397 265.329 52.4317 265.175C53.2237 265.043 53.8067 264.801 54.1807 264.449C54.5547 264.075 54.7417 263.492 54.7417 262.7V248.774C54.7417 247.718 54.6097 246.937 54.3457 246.431C54.0817 245.925 53.5647 245.606 52.7947 245.474C52.0247 245.342 51.6397 245.122 51.6397 244.814C51.6397 244.572 51.9587 244.451 52.5967 244.451L55.8307 244.484L59.6257 244.319C64.5757 244.319 67.0507 246.123 67.0507 249.731C67.0507 252.107 65.7527 253.955 63.1567 255.275C63.0687 255.319 63.0247 255.374 63.0247 255.44C63.0247 255.462 63.0357 255.495 63.0577 255.539C63.1017 255.583 63.1347 255.638 63.1567 255.704C63.6627 256.452 64.0697 257.068 64.3777 257.552C64.6857 258.014 64.9607 258.432 65.2027 258.806C65.4667 259.158 65.7417 259.51 66.0277 259.862C66.3137 260.214 66.6767 260.654 67.1167 261.182C67.5567 261.71 67.9967 262.216 68.4367 262.7C68.8987 263.184 69.3717 263.646 69.8557 264.086C70.3837 264.548 70.9227 264.845 71.4727 264.977C72.0227 265.109 72.7487 265.175 73.6507 265.175C73.9807 265.175 74.1457 265.296 74.1457 265.538ZM57.3817 253.988C57.3817 254.494 57.5137 254.813 57.7777 254.945C58.0417 255.077 58.4927 255.143 59.1307 255.143C60.1207 255.143 60.9787 254.923 61.7047 254.483C62.4527 254.043 63.0357 253.438 63.4537 252.668C63.8717 251.898 64.0807 251.04 64.0807 250.094C64.0807 248.664 63.7617 247.509 63.1237 246.629C62.5077 245.749 61.3417 245.309 59.6257 245.309C58.7897 245.309 58.2287 245.463 57.9427 245.771C57.6787 246.079 57.5357 246.519 57.5137 247.091C57.4697 248.169 57.4367 249.28 57.4147 250.424C57.3927 251.568 57.3817 252.756 57.3817 253.988ZM84.8197 263.657C84.7317 264.031 84.4567 264.438 83.9947 264.878C83.5327 265.318 82.9277 265.692 82.1797 266C81.4317 266.308 80.5737 266.462 79.6057 266.462C78.6377 266.462 77.7357 266.165 76.8997 265.571C76.0857 264.955 75.4257 264.119 74.9197 263.063C74.4357 262.007 74.1937 260.808 74.1937 259.466C74.1937 258.124 74.4797 256.914 75.0517 255.836C75.6457 254.758 76.4377 253.911 77.4277 253.295C78.4177 252.657 79.5287 252.338 80.7607 252.338C82.0807 252.338 83.1147 252.613 83.8627 253.163C84.6327 253.713 85.0177 254.461 85.0177 255.407C85.0177 256.353 84.7757 256.947 84.2917 257.189C83.8297 257.409 83.2247 257.519 82.4767 257.519H77.0647C76.7567 257.519 76.5367 257.596 76.4047 257.75C76.2947 257.882 76.2397 258.212 76.2397 258.74C76.2397 259.752 76.4597 260.698 76.8997 261.578C77.3397 262.458 77.9227 263.162 78.6487 263.69C79.3967 264.218 80.2327 264.482 81.1567 264.482C82.4987 264.482 83.5547 263.998 84.3247 263.03C84.4787 262.876 84.5997 262.799 84.6877 262.799C84.8417 262.799 84.9187 262.909 84.9187 263.129C84.9187 263.283 84.8857 263.459 84.8197 263.657ZM76.8667 256.001C76.8667 256.331 77.0757 256.496 77.4937 256.496H80.1997C80.7057 256.496 81.1567 256.485 81.5527 256.463C81.9707 256.419 82.3227 256.375 82.6087 256.331C82.8287 256.309 82.9387 255.99 82.9387 255.374C82.9387 254.78 82.6637 254.296 82.1137 253.922C81.5637 253.548 80.9037 253.361 80.1337 253.361C79.6057 253.361 79.0887 253.515 78.5827 253.823C78.0987 254.109 77.6917 254.461 77.3617 254.879C77.0317 255.275 76.8667 255.649 76.8667 256.001ZM90.1226 265.934L87.4496 266.099C87.0096 266.099 86.7896 265.989 86.7896 265.769C86.7896 265.637 86.8776 265.527 87.0536 265.439C87.2296 265.329 87.4166 265.241 87.6146 265.175C87.8126 265.109 87.9336 265.076 87.9776 265.076C88.0216 265.076 88.1316 265.032 88.3076 264.944C88.4836 264.856 88.5936 264.779 88.6376 264.713C88.8576 264.493 88.9676 264.24 88.9676 263.954V256.859C88.9676 256.177 88.8796 255.638 88.7036 255.242C88.5276 254.846 88.1866 254.593 87.6806 254.483C87.5046 254.439 87.4166 254.296 87.4166 254.054C87.4166 253.812 87.4936 253.68 87.6476 253.658C88.1536 253.548 88.6596 253.361 89.1656 253.097C89.6936 252.833 90.2326 252.514 90.7826 252.14L91.2776 251.843H91.3106C91.3986 251.843 91.4756 251.909 91.5416 252.041L91.3766 254.153C91.3766 254.373 91.3986 254.505 91.4426 254.549C93.0046 253.075 94.7426 252.338 96.6566 252.338C98.2186 252.338 99.2416 252.998 99.7256 254.318C99.8356 254.56 99.9566 254.681 100.089 254.681C100.199 254.681 100.43 254.472 100.782 254.054C101.134 253.658 101.75 253.273 102.63 252.899C103.51 252.525 104.456 252.338 105.468 252.338C106.128 252.338 106.7 252.547 107.184 252.965C107.69 253.383 108.075 253.944 108.339 254.648C108.603 255.33 108.735 256.089 108.735 256.925V263.954C108.735 264.394 108.867 264.68 109.131 264.812C109.417 264.944 109.791 265.087 110.253 265.241C110.693 265.417 110.913 265.593 110.913 265.769C110.913 265.989 110.693 266.099 110.253 266.099L107.646 265.934L104.907 266.099C104.467 266.099 104.247 265.989 104.247 265.769C104.247 265.571 104.5 265.384 105.006 265.208C105.05 265.208 105.094 265.197 105.138 265.175C105.886 264.933 106.304 264.636 106.392 264.284C106.414 264.24 106.425 264.185 106.425 264.119C106.425 264.053 106.425 263.998 106.425 263.954V257.024C106.425 256.21 106.161 255.484 105.633 254.846C105.105 254.208 104.489 253.889 103.785 253.889C102.619 253.889 101.695 254.153 101.013 254.681C100.331 255.209 99.9896 256.034 99.9896 257.156V263.954C99.9896 264.196 100.023 264.35 100.089 264.416L100.221 264.614C100.265 264.702 100.32 264.757 100.386 264.779C100.496 264.801 100.562 264.834 100.584 264.878C100.628 264.922 100.705 264.955 100.815 264.977C100.925 264.999 100.991 265.032 101.013 265.076C101.189 265.164 101.343 265.208 101.475 265.208C101.981 265.384 102.234 265.571 102.234 265.769C102.234 265.989 102.014 266.099 101.574 266.099L98.8676 265.934L96.1286 266.099C95.6886 266.099 95.4686 265.989 95.4686 265.769C95.4686 265.571 95.7766 265.373 96.3926 265.175C97.0086 264.977 97.3826 264.768 97.5146 264.548C97.6246 264.328 97.6796 264.13 97.6796 263.954V257.024C97.6796 256.21 97.4156 255.484 96.8876 254.846C96.3596 254.208 95.7436 253.889 95.0396 253.889C93.8736 253.889 92.9496 254.153 92.2676 254.681C91.6076 255.187 91.2776 256.012 91.2776 257.156V263.954C91.2776 264.372 91.3986 264.658 91.6406 264.812C91.9046 264.944 92.0806 265.021 92.1686 265.043C93.0266 265.263 93.4556 265.516 93.4556 265.802C93.4556 266 93.2356 266.099 92.7956 266.099L90.1226 265.934ZM126.862 259.169C126.862 260.445 126.565 261.644 125.971 262.766C125.399 263.866 124.552 264.757 123.43 265.439C122.33 266.121 120.988 266.462 119.404 266.462C118.172 266.462 117.05 266.176 116.038 265.604C115.048 265.032 114.267 264.251 113.695 263.261C113.123 262.249 112.837 261.105 112.837 259.829C112.837 258.883 113.024 257.97 113.398 257.09C113.772 256.188 114.289 255.385 114.949 254.681C115.631 253.955 116.401 253.383 117.259 252.965C118.117 252.547 119.03 252.338 119.998 252.338C121.296 252.338 122.462 252.646 123.496 253.262C124.53 253.856 125.344 254.67 125.938 255.704C126.554 256.716 126.862 257.871 126.862 259.169ZM115.543 259.07C115.543 260.192 115.741 261.248 116.137 262.238C116.555 263.206 117.105 263.987 117.787 264.581C118.491 265.175 119.261 265.472 120.097 265.472C121.197 265.472 122.033 265.241 122.605 264.779C123.199 264.295 123.606 263.635 123.826 262.799C124.046 261.941 124.156 260.951 124.156 259.829C124.156 258.685 123.947 257.629 123.529 256.661C123.133 255.671 122.583 254.879 121.879 254.285C121.197 253.669 120.405 253.361 119.503 253.361C116.863 253.361 115.543 255.264 115.543 259.07ZM136.04 265.241C135.556 266.231 135.259 266.726 135.149 266.726C135.017 266.726 134.797 266.297 134.489 265.439L130.463 255.143C130.111 254.263 129.605 253.724 128.945 253.526C128.439 253.35 128.186 253.152 128.186 252.932C128.186 252.734 128.406 252.635 128.846 252.635L131.255 252.8L133.73 252.635C134.17 252.635 134.39 252.734 134.39 252.932C134.39 253.152 134.137 253.35 133.631 253.526C133.191 253.658 132.971 254.109 132.971 254.879C132.971 255.275 133.015 255.572 133.103 255.77L135.545 262.337C135.655 262.579 135.721 262.7 135.743 262.7C135.787 262.7 135.853 262.59 135.941 262.37L138.317 256.265C138.471 255.891 138.548 255.495 138.548 255.077C138.548 254.197 138.273 253.68 137.723 253.526C137.217 253.35 136.964 253.152 136.964 252.932C136.964 252.734 137.184 252.635 137.624 252.635L140.033 252.8C140.473 252.8 140.869 252.767 141.221 252.701C141.397 252.679 141.562 252.668 141.716 252.668C141.892 252.646 142.057 252.635 142.211 252.635C142.497 252.635 142.64 252.734 142.64 252.932C142.64 253.152 142.431 253.328 142.013 253.46C141.595 253.614 141.177 253.9 140.759 254.318C140.363 254.736 140.055 255.209 139.835 255.737L137.261 261.941L136.04 265.241ZM154.107 263.657C154.019 264.031 153.744 264.438 153.282 264.878C152.82 265.318 152.215 265.692 151.467 266C150.719 266.308 149.861 266.462 148.893 266.462C147.925 266.462 147.023 266.165 146.187 265.571C145.373 264.955 144.713 264.119 144.207 263.063C143.723 262.007 143.481 260.808 143.481 259.466C143.481 258.124 143.767 256.914 144.339 255.836C144.933 254.758 145.725 253.911 146.715 253.295C147.705 252.657 148.816 252.338 150.048 252.338C151.368 252.338 152.402 252.613 153.15 253.163C153.92 253.713 154.305 254.461 154.305 255.407C154.305 256.353 154.063 256.947 153.579 257.189C153.117 257.409 152.512 257.519 151.764 257.519H146.352C146.044 257.519 145.824 257.596 145.692 257.75C145.582 257.882 145.527 258.212 145.527 258.74C145.527 259.752 145.747 260.698 146.187 261.578C146.627 262.458 147.21 263.162 147.936 263.69C148.684 264.218 149.52 264.482 150.444 264.482C151.786 264.482 152.842 263.998 153.612 263.03C153.766 262.876 153.887 262.799 153.975 262.799C154.129 262.799 154.206 262.909 154.206 263.129C154.206 263.283 154.173 263.459 154.107 263.657ZM146.154 256.001C146.154 256.331 146.363 256.496 146.781 256.496H149.487C149.993 256.496 150.444 256.485 150.84 256.463C151.258 256.419 151.61 256.375 151.896 256.331C152.116 256.309 152.226 255.99 152.226 255.374C152.226 254.78 151.951 254.296 151.401 253.922C150.851 253.548 150.191 253.361 149.421 253.361C148.893 253.361 148.376 253.515 147.87 253.823C147.386 254.109 146.979 254.461 146.649 254.879C146.319 255.275 146.154 255.649 146.154 256.001ZM85.3702 295.502C85.3702 298.142 83.7862 299.462 80.6182 299.462C79.8042 299.462 79.0452 299.319 78.3412 299.033C77.6372 298.769 77.2302 298.516 77.1202 298.274C76.8562 297.724 76.7132 297.053 76.6912 296.261C76.6912 296.063 76.8672 295.964 77.2192 295.964C77.5492 295.964 77.7252 296.041 77.7472 296.195C77.8352 296.569 78.0332 296.943 78.3412 297.317C78.6712 297.691 79.0562 297.999 79.4962 298.241C79.9582 298.461 80.4312 298.571 80.9152 298.571C81.6192 298.571 82.1582 298.362 82.5322 297.944C82.9282 297.526 83.1262 297.009 83.1262 296.393C83.1262 295.777 82.9282 295.26 82.5322 294.842C82.1362 294.402 81.4762 293.852 80.5522 293.192C79.6062 292.532 78.8472 291.894 78.2752 291.278C77.7252 290.64 77.4502 289.87 77.4502 288.968C77.4502 288.352 77.6152 287.769 77.9452 287.219C78.2752 286.669 78.7482 286.218 79.3642 285.866C79.9802 285.514 80.7282 285.338 81.6082 285.338C82.9282 285.338 83.8412 285.591 84.3472 286.097C84.7212 286.581 84.9082 287.439 84.9082 288.671C84.9082 288.759 84.8312 288.803 84.6772 288.803C84.5232 288.803 84.3032 288.726 84.0172 288.572C83.7312 288.396 83.5882 288.242 83.5882 288.11C83.5662 287.626 83.3462 287.186 82.9282 286.79C82.5102 286.394 82.0152 286.196 81.4432 286.196C80.8492 286.196 80.3652 286.394 79.9912 286.79C79.6172 287.186 79.4302 287.648 79.4302 288.176C79.4302 288.704 79.6172 289.188 79.9912 289.628C80.3652 290.068 80.6952 290.376 80.9812 290.552C81.1132 290.64 81.2782 290.761 81.4762 290.915C81.6962 291.047 81.9492 291.201 82.2352 291.377C82.6092 291.597 82.9172 291.795 83.1592 291.971C83.4232 292.147 83.6762 292.356 83.9182 292.598C84.1602 292.818 84.4242 293.137 84.7102 293.555C85.1502 294.193 85.3702 294.842 85.3702 295.502ZM95.9382 298.109C95.5862 298.439 95.0912 298.747 94.4532 299.033C93.8372 299.319 93.2212 299.462 92.6052 299.462C91.5272 299.462 90.6802 299.143 90.0642 298.505C89.4702 297.845 89.1732 296.855 89.1732 295.535V287.879C89.1732 287.681 89.0962 287.549 88.9422 287.483C88.7882 287.417 88.4472 287.384 87.9192 287.384C87.8532 287.384 87.7652 287.296 87.6552 287.12C87.5672 286.944 87.5232 286.812 87.5232 286.724C87.5232 286.636 87.5782 286.559 87.6882 286.493C88.1942 286.339 88.7112 286.02 89.2392 285.536C89.7672 285.052 90.1962 284.601 90.5262 284.183C90.8562 283.765 91.0542 283.556 91.1202 283.556C91.4282 283.556 91.5822 283.666 91.5822 283.886L91.5162 285.338C91.5162 285.646 91.7802 285.8 92.3082 285.8H96.0702C96.2902 285.8 96.4002 286.064 96.4002 286.592C96.4002 287.12 96.2902 287.384 96.0702 287.384H92.8032C92.2092 287.384 91.8352 287.428 91.6812 287.516C91.5492 287.604 91.4832 287.868 91.4832 288.308V294.545C91.4832 295.667 91.6922 296.47 92.1102 296.954C92.5282 297.416 93.0452 297.647 93.6612 297.647C94.7612 297.647 95.5862 297.438 96.1362 297.02C96.1582 296.998 96.1912 296.987 96.2352 296.987C96.3892 296.987 96.4662 297.13 96.4662 297.416C96.4662 297.592 96.2902 297.823 95.9382 298.109ZM104.203 298.175C103.895 298.461 103.433 298.747 102.817 299.033C102.223 299.319 101.563 299.462 100.837 299.462C100.353 299.462 99.8802 299.33 99.4182 299.066C98.9782 298.824 98.6152 298.505 98.3292 298.109C98.0432 297.691 97.9002 297.273 97.9002 296.855C97.9002 295.535 98.7032 294.545 100.309 293.885L103.675 292.499C104.093 292.323 104.346 292.169 104.434 292.037C104.522 291.905 104.577 291.619 104.599 291.179L104.665 289.133V289.067C104.665 288.495 104.478 288 104.104 287.582C103.752 287.164 103.345 286.955 102.883 286.955C102.399 286.955 101.948 287.076 101.53 287.318C101.112 287.538 100.848 287.747 100.738 287.945C100.628 288.165 100.573 288.396 100.573 288.638L100.606 289.1C100.606 289.232 100.452 289.386 100.144 289.562C99.8362 289.738 99.5062 289.903 99.1542 290.057C98.8022 290.189 98.5492 290.255 98.3952 290.255C98.1752 290.255 98.0652 290.156 98.0652 289.958C98.0652 289.452 98.2412 288.968 98.5932 288.506C98.9452 288.044 99.3962 287.604 99.9462 287.186C100.518 286.768 101.112 286.394 101.728 286.064C102.63 285.58 103.488 285.338 104.302 285.338C105.072 285.338 105.721 285.624 106.249 286.196C106.777 286.768 107.03 287.461 107.008 288.275L106.843 295.403V295.601C106.843 297.163 107.239 297.944 108.031 297.944C108.559 297.944 108.999 297.79 109.351 297.482C109.395 297.438 109.45 297.416 109.516 297.416C109.604 297.416 109.681 297.449 109.747 297.515C109.835 297.581 109.879 297.669 109.879 297.779V297.812C109.791 297.988 109.604 298.208 109.318 298.472C109.032 298.736 108.702 298.967 108.328 299.165C107.954 299.363 107.591 299.462 107.239 299.462C106.689 299.462 106.227 299.319 105.853 299.033C105.501 298.747 105.248 298.461 105.094 298.175C104.94 297.889 104.841 297.746 104.797 297.746C104.687 297.746 104.489 297.889 104.203 298.175ZM100.54 296.129C100.54 296.701 100.716 297.152 101.068 297.482C101.42 297.79 101.849 297.944 102.355 297.944C102.861 297.944 103.345 297.746 103.807 297.35C104.269 296.954 104.511 296.415 104.533 295.733L104.599 294.116V293.951C104.599 293.599 104.5 293.423 104.302 293.423C104.17 293.423 104.016 293.456 103.84 293.522C101.64 294.27 100.54 295.139 100.54 296.129ZM114.117 298.934L111.378 299.099C110.938 299.099 110.718 298.989 110.718 298.769C110.718 298.571 110.971 298.384 111.477 298.208C112.423 297.922 112.896 297.438 112.896 296.756V287.45C112.544 287.45 112.225 287.45 111.939 287.45C111.675 287.428 111.422 287.406 111.18 287.384C111.114 287.362 111.015 287.285 110.883 287.153C110.773 287.021 110.718 286.911 110.718 286.823C110.718 286.757 110.795 286.68 110.949 286.592C111.125 286.548 111.367 286.46 111.675 286.328C112.005 286.174 112.412 285.976 112.896 285.734C112.896 283.93 113.127 282.346 113.589 280.982C114.073 279.618 114.7 278.573 115.47 277.847C116.966 276.417 118.528 275.702 120.156 275.702C122.576 275.702 123.786 276.362 123.786 277.682C123.786 278.034 123.676 278.342 123.456 278.606C123.236 278.87 123.005 279.002 122.763 279.002C122.521 279.002 122.279 278.903 122.037 278.705C121.795 278.507 121.564 278.276 121.344 278.012C121.124 277.77 120.783 277.55 120.321 277.352C119.859 277.154 119.342 277.055 118.77 277.055C117.692 277.055 116.834 277.572 116.196 278.606C115.58 279.618 115.272 281.191 115.272 283.325V285.074C115.272 285.558 115.547 285.8 116.097 285.8H119.991C120.079 285.8 120.123 285.921 120.123 286.163C120.123 286.427 120.079 286.702 119.991 286.988C119.903 287.252 119.804 287.384 119.694 287.384H116.592C116.042 287.384 115.69 287.428 115.536 287.516C115.36 287.626 115.272 287.769 115.272 287.945V296.756C115.294 297.438 115.767 297.922 116.691 298.208C117.197 298.384 117.45 298.571 117.45 298.769C117.45 298.989 117.23 299.099 116.79 299.099L114.117 298.934ZM124.172 298.934L121.433 299.099C120.993 299.099 120.773 298.989 120.773 298.769C120.773 298.571 121.026 298.384 121.532 298.208C122.478 297.922 122.951 297.438 122.951 296.756V287.45C122.599 287.45 122.28 287.45 121.994 287.45C121.73 287.428 121.477 287.406 121.235 287.384C121.169 287.362 121.07 287.285 120.938 287.153C120.828 287.021 120.773 286.911 120.773 286.823C120.773 286.757 120.85 286.68 121.004 286.592C121.18 286.548 121.422 286.46 121.73 286.328C122.06 286.174 122.467 285.976 122.951 285.734C122.951 283.93 123.182 282.346 123.644 280.982C124.128 279.618 124.755 278.573 125.525 277.847C127.021 276.417 128.583 275.702 130.211 275.702C132.631 275.702 133.841 276.362 133.841 277.682C133.841 278.034 133.731 278.342 133.511 278.606C133.291 278.87 133.06 279.002 132.818 279.002C132.576 279.002 132.334 278.903 132.092 278.705C131.85 278.507 131.619 278.276 131.399 278.012C131.179 277.77 130.838 277.55 130.376 277.352C129.914 277.154 129.397 277.055 128.825 277.055C127.747 277.055 126.889 277.572 126.251 278.606C125.635 279.618 125.327 281.191 125.327 283.325V285.074C125.327 285.558 125.602 285.8 126.152 285.8H130.046C130.134 285.8 130.178 285.921 130.178 286.163C130.178 286.427 130.134 286.702 130.046 286.988C129.958 287.252 129.859 287.384 129.749 287.384H126.647C126.097 287.384 125.745 287.428 125.591 287.516C125.415 287.626 125.327 287.769 125.327 287.945V296.756C125.349 297.438 125.822 297.922 126.746 298.208C127.252 298.384 127.505 298.571 127.505 298.769C127.505 298.989 127.285 299.099 126.845 299.099L124.172 298.934Z" fill="white"/>
<rect x="1" y="1" width="204.75" height="198" rx="20" fill="#2ECC71" stroke="black" stroke-width="2"/>
<path d="M97.2941 101.413C113.288 101.413 126.251 87.1806 126.251 69.6196C126.251 52.0587 113.288 37.8262 97.2941 37.8262C81.3001 37.8262 68.3375 52.0587 68.3375 69.6196C68.3375 87.1806 81.3001 101.413 97.2941 101.413ZM117.564 109.361H113.786C108.764 111.895 103.176 113.336 97.2941 113.336C91.4123 113.336 85.8472 111.895 80.8024 109.361H77.0245C60.2387 109.361 46.6201 124.314 46.6201 142.745V153.078C46.6201 159.66 51.4839 165 57.4788 165H137.109C143.104 165 147.968 159.66 147.968 153.078V142.745C147.968 124.314 134.349 109.361 117.564 109.361Z" fill="#0D1B2A"/>
<path d="M159.759 44.2632L170.529 56.9828L147.143 84.6029L137.541 85.8548C136.255 86.0227 135.169 84.739 135.312 83.2208L136.381 71.8723L159.759 44.2632ZM177.19 42.3695L172.133 36.3972C170.555 34.5343 167.997 34.5343 166.42 36.3972L161.663 42.0158L172.432 54.7354L177.19 49.1168C178.767 47.2529 178.767 44.2324 177.19 42.3695Z" fill="#0D1B2A"/>
</svg>
