<svg width="436" height="630" viewBox="0 0 436 630" fill="none" xmlns="http://www.w3.org/2000/svg">
<path d="M268.239 211.956L262.959 212.22C262.108 212.22 261.683 212.029 261.683 211.648C261.683 211.267 262.167 210.929 263.135 210.636C264.895 210.108 266.156 208.979 266.919 207.248C269.706 200.824 272.448 193.931 275.147 186.568C275.528 185.629 275.719 184.955 275.719 184.544C275.719 184.192 275.734 184.016 275.763 184.016C276.79 183.664 277.406 183.371 277.611 183.136C277.699 183.019 277.772 182.931 277.831 182.872C277.89 182.784 277.934 182.711 277.963 182.652C278.11 182.388 278.212 182.256 278.271 182.256C278.418 182.256 278.564 182.461 278.711 182.872C279.796 186.275 280.984 189.941 282.275 193.872C283.595 197.773 285.018 201.939 286.543 206.368C287.1 207.981 287.716 209.081 288.391 209.668C289.095 210.225 289.946 210.592 290.943 210.768C291.94 210.944 292.439 211.281 292.439 211.78C292.439 212.073 292.014 212.22 291.163 212.22L285.047 211.956L280.427 212C279.576 212 279.151 211.824 279.151 211.472C279.151 211.032 279.635 210.753 280.603 210.636C282.392 210.343 283.287 209.683 283.287 208.656C283.287 207.835 282.73 205.532 281.615 201.748C281.527 201.425 281.131 201.264 280.427 201.264H272.023C271.7 201.264 271.451 201.528 271.275 202.056C270.102 205.4 269.515 207.424 269.515 208.128C269.515 208.773 269.75 209.316 270.219 209.756C270.718 210.167 271.392 210.489 272.243 210.724C273.094 210.959 273.519 211.237 273.519 211.56C273.519 211.883 273.094 212.044 272.243 212.044L268.239 211.956ZM272.375 199.064C272.375 199.269 272.683 199.372 273.299 199.372H280.119C280.53 199.372 280.735 199.299 280.735 199.152L280.647 198.712L277.171 188.196C276.995 187.668 276.878 187.404 276.819 187.404C276.731 187.404 276.599 187.653 276.423 188.152L272.463 198.712L272.375 199.064ZM309.449 212.088C308.276 212.587 307.601 212.836 307.425 212.836C307.191 212.836 307.073 212.777 307.073 212.66L307.293 209.756V209.492C306.765 210.313 306.003 211.047 305.005 211.692C304.008 212.308 302.849 212.616 301.529 212.616C299.945 212.616 298.537 212.191 297.305 211.34C296.073 210.489 295.105 209.375 294.401 207.996C293.727 206.588 293.389 205.048 293.389 203.376C293.389 201.704 293.8 200.135 294.621 198.668C295.443 197.201 296.601 196.028 298.097 195.148C299.593 194.239 301.324 193.784 303.289 193.784C303.7 193.784 304.14 193.843 304.609 193.96C305.108 194.048 305.563 194.165 305.973 194.312C306.384 194.459 306.648 194.605 306.765 194.752C306.941 194.987 307.088 195.104 307.205 195.104C307.293 195.104 307.337 194.752 307.337 194.048V187.096C307.337 185.981 307.161 185.219 306.809 184.808C306.487 184.368 305.915 184.06 305.093 183.884C304.859 183.825 304.741 183.635 304.741 183.312C304.741 182.989 304.844 182.813 305.049 182.784C305.636 182.637 306.208 182.476 306.765 182.3C307.352 182.124 307.924 181.919 308.481 181.684C309.625 181.244 310.285 181.024 310.461 181.024C310.608 181.024 310.696 181.083 310.725 181.2C310.725 181.259 310.725 181.361 310.725 181.508C310.725 181.655 310.711 181.845 310.681 182.08C310.505 183.752 310.417 185.483 310.417 187.272V207.16C310.417 209.067 310.725 210.02 311.341 210.02C312.251 210.02 312.925 209.976 313.365 209.888H313.497C313.849 209.888 314.025 210.064 314.025 210.416C314.025 210.856 313.82 211.076 313.409 211.076C312.647 211.193 311.928 211.34 311.253 211.516C310.608 211.663 310.007 211.853 309.449 212.088ZM299.197 209.14C300.547 210.137 301.852 210.636 303.113 210.636C304.345 210.636 305.357 210.255 306.149 209.492C306.941 208.729 307.337 207.805 307.337 206.72V200.78C307.337 199.871 307.103 199.005 306.633 198.184C306.193 197.363 305.563 196.688 304.741 196.16C303.949 195.603 303.011 195.324 301.925 195.324C300.869 195.324 299.916 195.691 299.065 196.424C298.215 197.128 297.599 197.993 297.217 199.02C296.836 199.988 296.645 201.235 296.645 202.76C296.645 204.227 296.88 205.532 297.349 206.676C297.848 207.791 298.464 208.612 299.197 209.14ZM319.607 211.912L316.043 212.132C315.456 212.132 315.163 211.985 315.163 211.692C315.163 211.516 315.28 211.369 315.515 211.252C315.75 211.105 315.999 210.988 316.263 210.9C316.527 210.812 316.688 210.768 316.747 210.768C316.806 210.768 316.952 210.709 317.187 210.592C317.422 210.475 317.568 210.372 317.627 210.284C317.92 209.991 318.067 209.653 318.067 209.272V199.812C318.067 198.903 317.95 198.184 317.715 197.656C317.48 197.128 317.026 196.791 316.351 196.644C316.116 196.585 315.999 196.395 315.999 196.072C315.999 195.749 316.102 195.573 316.307 195.544C316.982 195.397 317.656 195.148 318.331 194.796C319.035 194.444 319.754 194.019 320.487 193.52L321.147 193.124H321.191C321.308 193.124 321.411 193.212 321.499 193.388L321.279 196.204C321.279 196.497 321.308 196.673 321.367 196.732C323.45 194.767 325.767 193.784 328.319 193.784C330.402 193.784 331.766 194.664 332.411 196.424C332.558 196.747 332.719 196.908 332.895 196.908C333.042 196.908 333.35 196.629 333.819 196.072C334.288 195.544 335.11 195.031 336.283 194.532C337.456 194.033 338.718 193.784 340.067 193.784C340.947 193.784 341.71 194.063 342.355 194.62C343.03 195.177 343.543 195.925 343.895 196.864C344.247 197.773 344.423 198.785 344.423 199.9V209.272C344.423 209.859 344.599 210.24 344.951 210.416C345.332 210.592 345.831 210.783 346.447 210.988C347.034 211.223 347.327 211.457 347.327 211.692C347.327 211.985 347.034 212.132 346.447 212.132L342.971 211.912L339.319 212.132C338.732 212.132 338.439 211.985 338.439 211.692C338.439 211.428 338.776 211.179 339.451 210.944C339.51 210.944 339.568 210.929 339.627 210.9C340.624 210.577 341.182 210.181 341.299 209.712C341.328 209.653 341.343 209.58 341.343 209.492C341.343 209.404 341.343 209.331 341.343 209.272V200.032C341.343 198.947 340.991 197.979 340.287 197.128C339.583 196.277 338.762 195.852 337.823 195.852C336.268 195.852 335.036 196.204 334.127 196.908C333.218 197.612 332.763 198.712 332.763 200.208V209.272C332.763 209.595 332.807 209.8 332.895 209.888L333.071 210.152C333.13 210.269 333.203 210.343 333.291 210.372C333.438 210.401 333.526 210.445 333.555 210.504C333.614 210.563 333.716 210.607 333.863 210.636C334.01 210.665 334.098 210.709 334.127 210.768C334.362 210.885 334.567 210.944 334.743 210.944C335.418 211.179 335.755 211.428 335.755 211.692C335.755 211.985 335.462 212.132 334.875 212.132L331.267 211.912L327.615 212.132C327.028 212.132 326.735 211.985 326.735 211.692C326.735 211.428 327.146 211.164 327.967 210.9C328.788 210.636 329.287 210.357 329.463 210.064C329.61 209.771 329.683 209.507 329.683 209.272V200.032C329.683 198.947 329.331 197.979 328.627 197.128C327.923 196.277 327.102 195.852 326.163 195.852C324.608 195.852 323.376 196.204 322.467 196.908C321.587 197.583 321.147 198.683 321.147 200.208V209.272C321.147 209.829 321.308 210.211 321.631 210.416C321.983 210.592 322.218 210.695 322.335 210.724C323.479 211.017 324.051 211.355 324.051 211.736C324.051 212 323.758 212.132 323.171 212.132L319.607 211.912ZM355.789 187.228C355.76 187.844 355.54 188.357 355.129 188.768C354.718 189.179 354.19 189.399 353.545 189.428C352.9 189.399 352.372 189.179 351.961 188.768C351.55 188.357 351.345 187.829 351.345 187.184C351.345 186.539 351.55 186.011 351.961 185.6C352.372 185.189 352.9 184.984 353.545 184.984C354.19 184.984 354.718 185.189 355.129 185.6C355.54 186.011 355.76 186.553 355.789 187.228ZM353.853 211.912L350.289 212.132C349.702 212.132 349.409 211.985 349.409 211.692C349.409 211.428 349.82 211.164 350.641 210.9C351.492 210.636 351.976 210.357 352.093 210.064C352.24 209.771 352.313 209.507 352.313 209.272V199.724C352.313 197.905 351.624 196.835 350.245 196.512C350.01 196.453 349.893 196.263 349.893 195.94C349.893 195.617 349.996 195.441 350.201 195.412C351.609 195.06 353.105 194.371 354.689 193.344C355.158 193.051 355.422 192.904 355.481 192.904C355.686 192.904 355.789 192.977 355.789 193.124C355.525 195.793 355.393 197.773 355.393 199.064V209.272C355.393 209.859 355.569 210.24 355.921 210.416C356.302 210.592 356.801 210.783 357.417 210.988C358.004 211.223 358.297 211.457 358.297 211.692C358.297 211.985 358.004 212.132 357.417 212.132L353.853 211.912ZM364.638 211.912L361.074 212.132C360.488 212.132 360.194 211.985 360.194 211.692C360.194 211.516 360.312 211.369 360.546 211.252C360.781 211.105 361.03 210.988 361.294 210.9C361.558 210.812 361.72 210.768 361.778 210.768C361.837 210.768 361.984 210.709 362.218 210.592C362.453 210.475 362.6 210.372 362.658 210.284C362.952 209.991 363.098 209.653 363.098 209.272V199.812C363.098 197.935 362.497 196.879 361.294 196.644C361.06 196.585 360.942 196.395 360.942 196.072C360.942 195.749 361.045 195.573 361.25 195.544C362.776 195.192 364.389 194.385 366.09 193.124C366.12 193.095 366.178 193.08 366.266 193.08C366.325 193.08 366.398 193.212 366.486 193.476L366.178 196.336C366.178 196.541 366.193 196.659 366.222 196.688C366.78 196.219 367.454 195.764 368.246 195.324C369.068 194.884 369.948 194.517 370.886 194.224C371.825 193.931 372.734 193.784 373.614 193.784C374.494 193.784 375.301 194.063 376.034 194.62C376.768 195.148 377.354 195.867 377.794 196.776C378.234 197.685 378.454 198.727 378.454 199.9V209.272C378.454 209.859 378.63 210.24 378.982 210.416C379.364 210.592 379.862 210.783 380.478 210.988C381.065 211.223 381.358 211.457 381.358 211.692C381.358 211.985 381.065 212.132 380.478 212.132L376.958 211.912L373.35 212.132C372.764 212.132 372.47 211.985 372.47 211.692C372.47 211.428 372.808 211.179 373.482 210.944C373.541 210.944 373.6 210.929 373.658 210.9C374.656 210.577 375.213 210.181 375.33 209.712C375.36 209.653 375.374 209.58 375.374 209.492C375.374 209.404 375.374 209.331 375.374 209.272V200.032C375.374 198.771 375.008 197.773 374.274 197.04C373.541 196.307 372.47 195.94 371.062 195.94C369.625 195.94 368.452 196.248 367.542 196.864C366.633 197.48 366.178 198.595 366.178 200.208V209.272C366.178 209.859 366.354 210.24 366.706 210.416C367.088 210.592 367.586 210.783 368.202 210.988C368.789 211.223 369.082 211.457 369.082 211.692C369.082 211.985 368.789 212.132 368.202 212.132L364.638 211.912Z" fill="#F8F9FA"/>
<path d="M266.237 545.96C266.237 547.309 265.899 548.571 265.225 549.744C264.55 550.917 263.538 551.871 262.189 552.604C260.839 553.337 259.138 553.704 257.085 553.704C254.65 553.704 252.685 553.352 251.189 552.648C250.719 552.443 250.411 552.193 250.265 551.9C249.737 550.785 249.473 549.099 249.473 546.84C249.473 546.605 249.561 546.341 249.737 546.048C249.942 545.725 250.177 545.564 250.441 545.564C250.675 545.564 251.101 546.532 251.717 548.468C252.567 550.991 254.547 552.252 257.657 552.252C259.153 552.252 260.341 551.797 261.221 550.888C262.101 549.979 262.541 548.747 262.541 547.192C262.541 544.728 260.311 542 255.853 539.008C254.063 537.805 252.685 536.588 251.717 535.356C250.749 534.124 250.265 532.613 250.265 530.824C250.265 529.621 250.646 528.492 251.409 527.436C252.171 526.351 253.213 525.471 254.533 524.796C255.882 524.121 257.407 523.784 259.109 523.784C260.634 523.784 261.851 523.931 262.761 524.224C263.67 524.517 264.198 524.664 264.345 524.664C264.638 524.664 264.858 524.943 265.005 525.5C265.181 526.057 265.298 526.703 265.357 527.436C265.445 528.14 265.489 528.756 265.489 529.284C265.489 530.076 265.386 530.472 265.181 530.472C264.33 530.472 263.817 530.061 263.641 529.24C263.435 527.979 262.878 526.996 261.969 526.292C261.059 525.588 259.945 525.236 258.625 525.236C257.275 525.236 256.102 525.676 255.105 526.556C254.137 527.407 253.653 528.551 253.653 529.988C253.653 530.868 253.975 531.719 254.621 532.54C255.266 533.332 256.043 534.065 256.953 534.74C257.862 535.385 258.713 535.972 259.505 536.5C263.993 539.404 266.237 542.557 266.237 545.96ZM286.294 553.088C285.12 553.587 284.446 553.836 284.27 553.836C284.035 553.836 283.918 553.777 283.918 553.66L284.138 550.756V550.492C281.996 552.575 279.576 553.616 276.878 553.616C275.382 553.616 274.164 553.161 273.226 552.252C272.316 551.343 271.862 550.052 271.862 548.38V539.448C271.862 538.245 271.231 537.409 269.97 536.94C269.588 536.823 269.398 536.573 269.398 536.192C269.398 535.84 269.618 535.62 270.058 535.532C270.556 535.503 271.187 535.429 271.95 535.312C272.712 535.195 273.592 535.019 274.59 534.784H274.678C275.088 534.784 275.264 534.989 275.206 535.4C275.03 536.749 274.942 537.879 274.942 538.788V547.368C274.942 548.072 275.118 548.732 275.47 549.348C275.822 549.935 276.276 550.419 276.834 550.8C277.42 551.181 278.022 551.372 278.638 551.372C280.339 551.372 281.703 550.991 282.73 550.228C283.786 549.436 284.314 548.424 284.314 547.192V539.14C284.314 538.348 284.006 537.791 283.39 537.468C282.774 537.145 282.128 536.969 281.454 536.94C280.779 536.94 280.442 536.691 280.442 536.192C280.442 535.957 280.574 535.781 280.838 535.664C280.955 535.605 281.102 535.576 281.278 535.576C281.483 535.547 281.718 535.517 281.982 535.488C283.126 535.488 284.108 535.415 284.93 535.268C285.34 535.209 285.604 535.165 285.722 535.136C285.927 535.136 286.396 535.004 287.13 534.74H287.218C287.599 534.74 287.79 534.916 287.79 535.268C287.79 535.385 287.746 535.532 287.658 535.708C287.482 536.001 287.394 536.984 287.394 538.656V547.984C287.394 550.008 287.658 551.02 288.186 551.02C289.095 551.02 289.77 550.976 290.21 550.888H290.342C290.694 550.888 290.87 551.064 290.87 551.416C290.87 551.856 290.664 552.076 290.254 552.076C289.491 552.193 288.772 552.34 288.098 552.516C287.452 552.663 286.851 552.853 286.294 553.088ZM296.605 565.32L293.085 565.54C292.469 565.54 292.161 565.393 292.161 565.1C292.161 564.836 292.572 564.572 293.393 564.308C294.244 564.044 294.728 563.765 294.845 563.472C294.992 563.179 295.065 562.915 295.065 562.68V540.372C295.065 540.02 294.977 539.624 294.801 539.184C294.654 538.715 294.434 538.289 294.141 537.908C293.848 537.497 293.481 537.248 293.041 537.16C292.806 537.101 292.689 536.911 292.689 536.588C292.689 536.265 292.792 536.089 292.997 536.06C293.613 535.913 294.346 535.693 295.197 535.4C296.048 535.107 297.016 534.74 298.101 534.3L298.145 534.256H298.189C298.365 534.256 298.453 534.388 298.453 534.652L298.233 537.292C298.233 537.527 298.248 537.659 298.277 537.688C298.658 537.307 299.245 536.896 300.037 536.456C300.858 536.016 301.753 535.635 302.721 535.312C303.689 534.96 304.584 534.784 305.405 534.784C306.872 534.784 308.133 535.18 309.189 535.972C310.274 536.735 311.11 537.747 311.697 539.008C312.313 540.269 312.621 541.633 312.621 543.1C312.621 544.449 312.357 545.755 311.829 547.016C311.33 548.277 310.626 549.407 309.717 550.404C308.808 551.372 307.752 552.149 306.549 552.736C305.346 553.323 304.07 553.616 302.721 553.616C302.31 553.616 301.812 553.543 301.225 553.396C300.638 553.279 300.081 553.117 299.553 552.912C299.025 552.677 298.614 552.443 298.321 552.208C298.204 552.208 298.145 552.956 298.145 554.452V562.68C298.145 563.12 298.306 563.428 298.629 563.604C298.981 563.809 299.245 563.941 299.421 564C299.48 564.029 299.568 564.059 299.685 564.088C299.832 564.117 299.978 564.147 300.125 564.176C301.181 564.44 301.709 564.763 301.709 565.144C301.709 565.408 301.386 565.54 300.741 565.54L296.605 565.32ZM299.421 551.24C300.154 551.915 301.474 552.252 303.381 552.252C304.496 552.252 305.508 551.841 306.417 551.02C307.356 550.199 308.045 549.245 308.485 548.16C308.896 547.075 309.101 545.799 309.101 544.332C309.101 542.865 308.881 541.575 308.441 540.46C308.03 539.345 307.488 538.539 306.813 538.04C305.522 537.189 304.246 536.764 302.985 536.764C301.665 536.764 300.55 537.101 299.641 537.776C298.761 538.451 298.277 539.58 298.189 541.164L298.145 543.98V545.344C298.145 546.517 298.204 547.661 298.321 548.776C298.468 549.861 298.834 550.683 299.421 551.24ZM329.629 549.876C329.512 550.375 329.145 550.917 328.529 551.504C327.913 552.091 327.107 552.589 326.109 553C325.112 553.411 323.968 553.616 322.677 553.616C321.387 553.616 320.184 553.22 319.069 552.428C317.984 551.607 317.104 550.492 316.429 549.084C315.784 547.676 315.461 546.077 315.461 544.288C315.461 542.499 315.843 540.885 316.605 539.448C317.397 538.011 318.453 536.881 319.773 536.06C321.093 535.209 322.575 534.784 324.217 534.784C325.977 534.784 327.356 535.151 328.353 535.884C329.38 536.617 329.893 537.615 329.893 538.876C329.893 540.137 329.571 540.929 328.925 541.252C328.309 541.545 327.503 541.692 326.505 541.692H319.289C318.879 541.692 318.585 541.795 318.409 542C318.263 542.176 318.189 542.616 318.189 543.32C318.189 544.669 318.483 545.931 319.069 547.104C319.656 548.277 320.433 549.216 321.401 549.92C322.399 550.624 323.513 550.976 324.745 550.976C326.535 550.976 327.943 550.331 328.969 549.04C329.175 548.835 329.336 548.732 329.453 548.732C329.659 548.732 329.761 548.879 329.761 549.172C329.761 549.377 329.717 549.612 329.629 549.876ZM319.025 539.668C319.025 540.108 319.304 540.328 319.861 540.328H323.469C324.144 540.328 324.745 540.313 325.273 540.284C325.831 540.225 326.3 540.167 326.681 540.108C326.975 540.079 327.121 539.653 327.121 538.832C327.121 538.04 326.755 537.395 326.021 536.896C325.288 536.397 324.408 536.148 323.381 536.148C322.677 536.148 321.988 536.353 321.313 536.764C320.668 537.145 320.125 537.615 319.685 538.172C319.245 538.7 319.025 539.199 319.025 539.668ZM336.92 552.912L333.356 553.132C332.769 553.132 332.476 552.985 332.476 552.692C332.476 552.428 332.74 552.208 333.268 552.032C333.796 551.856 334.148 551.739 334.324 551.68C334.5 551.592 334.691 551.431 334.896 551.196C335.072 550.961 335.16 550.653 335.16 550.272V540.812C335.16 538.964 334.559 537.908 333.356 537.644C333.121 537.585 333.004 537.395 333.004 537.072C333.004 536.749 333.107 536.573 333.312 536.544C334.397 536.339 335.219 536.045 335.776 535.664C336.275 535.341 336.685 535.077 337.008 534.872C337.36 534.667 337.609 534.505 337.756 534.388C338.079 534.212 338.24 534.109 338.24 534.08H338.372C338.46 534.08 338.519 534.183 338.548 534.388C338.548 534.769 338.548 535.151 338.548 535.532C338.548 535.913 338.533 536.295 338.504 536.676C338.475 537.409 338.475 537.776 338.504 537.776C338.504 537.776 338.577 537.703 338.724 537.556C339.135 537.028 339.399 536.735 339.516 536.676C340.895 535.415 342.244 534.784 343.564 534.784C344.18 534.784 344.679 534.916 345.06 535.18C345.471 535.444 345.676 535.796 345.676 536.236C345.676 536.676 345.485 537.16 345.104 537.688C344.752 538.216 344.415 538.48 344.092 538.48C343.769 538.48 343.3 538.348 342.684 538.084C342.068 537.82 341.613 537.688 341.32 537.688C340.469 537.688 339.736 537.967 339.12 538.524C338.533 539.081 338.24 540.035 338.24 541.384V550.052C338.269 550.815 339.061 551.445 340.616 551.944C341.291 552.179 341.628 552.428 341.628 552.692C341.628 552.985 341.335 553.132 340.748 553.132L336.92 552.912ZM356.587 551.988C355.942 553.308 355.546 553.968 355.399 553.968C355.223 553.968 354.93 553.396 354.519 552.252L349.151 538.524C348.682 537.351 348.007 536.632 347.127 536.368C346.453 536.133 346.115 535.869 346.115 535.576C346.115 535.312 346.409 535.18 346.995 535.18L350.207 535.4L353.507 535.18C354.094 535.18 354.387 535.312 354.387 535.576C354.387 535.869 354.05 536.133 353.375 536.368C352.789 536.544 352.495 537.145 352.495 538.172C352.495 538.7 352.554 539.096 352.671 539.36L355.927 548.116C356.074 548.439 356.162 548.6 356.191 548.6C356.25 548.6 356.338 548.453 356.455 548.16L359.623 540.02C359.829 539.521 359.931 538.993 359.931 538.436C359.931 537.263 359.565 536.573 358.831 536.368C358.157 536.133 357.819 535.869 357.819 535.576C357.819 535.312 358.113 535.18 358.699 535.18L361.911 535.4C362.498 535.4 363.026 535.356 363.495 535.268C363.73 535.239 363.95 535.224 364.155 535.224C364.39 535.195 364.61 535.18 364.815 535.18C365.197 535.18 365.387 535.312 365.387 535.576C365.387 535.869 365.109 536.104 364.551 536.28C363.994 536.485 363.437 536.867 362.879 537.424C362.351 537.981 361.941 538.612 361.647 539.316L358.215 547.588L356.587 551.988ZM372.624 528.228C372.595 528.844 372.375 529.357 371.964 529.768C371.554 530.179 371.026 530.399 370.38 530.428C369.735 530.399 369.207 530.179 368.796 529.768C368.386 529.357 368.18 528.829 368.18 528.184C368.18 527.539 368.386 527.011 368.796 526.6C369.207 526.189 369.735 525.984 370.38 525.984C371.026 525.984 371.554 526.189 371.964 526.6C372.375 527.011 372.595 527.553 372.624 528.228ZM370.688 552.912L367.124 553.132C366.538 553.132 366.244 552.985 366.244 552.692C366.244 552.428 366.655 552.164 367.476 551.9C368.327 551.636 368.811 551.357 368.928 551.064C369.075 550.771 369.148 550.507 369.148 550.272V540.724C369.148 538.905 368.459 537.835 367.08 537.512C366.846 537.453 366.728 537.263 366.728 536.94C366.728 536.617 366.831 536.441 367.036 536.412C368.444 536.06 369.94 535.371 371.524 534.344C371.994 534.051 372.258 533.904 372.316 533.904C372.522 533.904 372.624 533.977 372.624 534.124C372.36 536.793 372.228 538.773 372.228 540.064V550.272C372.228 550.859 372.404 551.24 372.756 551.416C373.138 551.592 373.636 551.783 374.252 551.988C374.839 552.223 375.132 552.457 375.132 552.692C375.132 552.985 374.839 553.132 374.252 553.132L370.688 552.912ZM388.865 548.336C388.865 551.856 386.753 553.616 382.529 553.616C381.444 553.616 380.432 553.425 379.493 553.044C378.555 552.692 378.012 552.355 377.865 552.032C377.513 551.299 377.323 550.404 377.293 549.348C377.293 549.084 377.528 548.952 377.997 548.952C378.437 548.952 378.672 549.055 378.701 549.26C378.819 549.759 379.083 550.257 379.493 550.756C379.933 551.255 380.447 551.665 381.033 551.988C381.649 552.281 382.28 552.428 382.925 552.428C383.864 552.428 384.583 552.149 385.081 551.592C385.609 551.035 385.873 550.345 385.873 549.524C385.873 548.703 385.609 548.013 385.081 547.456C384.553 546.869 383.673 546.136 382.441 545.256C381.18 544.376 380.168 543.525 379.405 542.704C378.672 541.853 378.305 540.827 378.305 539.624C378.305 538.803 378.525 538.025 378.965 537.292C379.405 536.559 380.036 535.957 380.857 535.488C381.679 535.019 382.676 534.784 383.849 534.784C385.609 534.784 386.827 535.121 387.501 535.796C388 536.441 388.249 537.585 388.249 539.228C388.249 539.345 388.147 539.404 387.941 539.404C387.736 539.404 387.443 539.301 387.061 539.096C386.68 538.861 386.489 538.656 386.489 538.48C386.46 537.835 386.167 537.248 385.609 536.72C385.052 536.192 384.392 535.928 383.629 535.928C382.837 535.928 382.192 536.192 381.693 536.72C381.195 537.248 380.945 537.864 380.945 538.568C380.945 539.272 381.195 539.917 381.693 540.504C382.192 541.091 382.632 541.501 383.013 541.736C383.189 541.853 383.409 542.015 383.673 542.22C383.967 542.396 384.304 542.601 384.685 542.836C385.184 543.129 385.595 543.393 385.917 543.628C386.269 543.863 386.607 544.141 386.929 544.464C387.252 544.757 387.604 545.183 387.985 545.74C388.572 546.591 388.865 547.456 388.865 548.336ZM410.436 543.892C410.436 545.593 410.04 547.192 409.248 548.688C408.485 550.155 407.356 551.343 405.86 552.252C404.393 553.161 402.604 553.616 400.492 553.616C398.849 553.616 397.353 553.235 396.004 552.472C394.684 551.709 393.643 550.668 392.88 549.348C392.117 547.999 391.736 546.473 391.736 544.772C391.736 543.511 391.985 542.293 392.484 541.12C392.983 539.917 393.672 538.847 394.552 537.908C395.461 536.94 396.488 536.177 397.632 535.62C398.776 535.063 399.993 534.784 401.284 534.784C403.015 534.784 404.569 535.195 405.948 536.016C407.327 536.808 408.412 537.893 409.204 539.272C410.025 540.621 410.436 542.161 410.436 543.892ZM395.344 543.76C395.344 545.256 395.608 546.664 396.136 547.984C396.693 549.275 397.427 550.316 398.336 551.108C399.275 551.9 400.301 552.296 401.416 552.296C402.883 552.296 403.997 551.988 404.76 551.372C405.552 550.727 406.095 549.847 406.388 548.732C406.681 547.588 406.828 546.268 406.828 544.772C406.828 543.247 406.549 541.839 405.992 540.548C405.464 539.228 404.731 538.172 403.792 537.38C402.883 536.559 401.827 536.148 400.624 536.148C397.104 536.148 395.344 538.685 395.344 543.76ZM417.701 552.912L414.137 553.132C413.55 553.132 413.257 552.985 413.257 552.692C413.257 552.428 413.521 552.208 414.049 552.032C414.577 551.856 414.929 551.739 415.105 551.68C415.281 551.592 415.472 551.431 415.677 551.196C415.853 550.961 415.941 550.653 415.941 550.272V540.812C415.941 538.964 415.34 537.908 414.137 537.644C413.902 537.585 413.785 537.395 413.785 537.072C413.785 536.749 413.888 536.573 414.093 536.544C415.178 536.339 416 536.045 416.557 535.664C417.056 535.341 417.466 535.077 417.789 534.872C418.141 534.667 418.39 534.505 418.537 534.388C418.86 534.212 419.021 534.109 419.021 534.08H419.153C419.241 534.08 419.3 534.183 419.329 534.388C419.329 534.769 419.329 535.151 419.329 535.532C419.329 535.913 419.314 536.295 419.285 536.676C419.256 537.409 419.256 537.776 419.285 537.776C419.285 537.776 419.358 537.703 419.505 537.556C419.916 537.028 420.18 536.735 420.297 536.676C421.676 535.415 423.025 534.784 424.345 534.784C424.961 534.784 425.46 534.916 425.841 535.18C426.252 535.444 426.457 535.796 426.457 536.236C426.457 536.676 426.266 537.16 425.885 537.688C425.533 538.216 425.196 538.48 424.873 538.48C424.55 538.48 424.081 538.348 423.465 538.084C422.849 537.82 422.394 537.688 422.101 537.688C421.25 537.688 420.517 537.967 419.901 538.524C419.314 539.081 419.021 540.035 419.021 541.384V550.052C419.05 550.815 419.842 551.445 421.397 551.944C422.072 552.179 422.409 552.428 422.409 552.692C422.409 552.985 422.116 553.132 421.529 553.132L417.701 552.912Z" fill="#F8F9FA"/>
<path d="M40.0869 35.2954C40.0869 35.8286 39.1728 36.0952 37.3447 36.0952H36.4306L35.4975 36.0762C33.7963 36.0762 32.622 36.0127 31.9745 35.8857C31.3271 35.7588 31.0034 35.4858 31.0034 35.0669C31.0034 34.9526 31.2128 34.6479 31.6318 34.1528C32.0634 33.6577 32.3871 32.9976 32.603 32.1724C32.8188 31.3472 32.9267 29.8936 32.9267 27.8115C32.9267 25.7295 32.6982 24.4854 32.2411 24.0791C31.7968 23.6602 29.9877 23.4507 26.8139 23.4507C23.6528 23.4507 21.812 23.6982 21.2914 24.1934C20.9487 24.5107 20.7773 25.7739 20.7773 27.9829C20.7773 30.1919 20.8535 31.6392 21.0058 32.3247C21.1708 33.0103 21.3867 33.5435 21.6533 33.9243L22.0341 34.3623C22.4277 34.8066 22.6245 35.0669 22.6245 35.1431C22.6245 35.6001 22.2245 35.873 21.4247 35.9619C21.0693 36 19.6411 36.019 17.1401 36.019C14.6518 36.019 13.4077 35.7334 13.4077 35.1621C13.4077 34.8574 13.8964 34.3813 14.874 33.7339C15.5214 33.3022 15.9086 32.7246 16.0356 32.001C16.1625 31.2646 16.226 28.2051 16.226 22.8223C16.226 17.4395 16.1308 14.3228 15.9404 13.4722C15.7499 12.6216 15.2739 11.9805 14.5121 11.5488C13.7631 11.1045 13.3886 10.6982 13.3886 10.3301C13.3886 9.83496 14.9755 9.5874 18.1494 9.5874H19.9965C21.7739 9.5874 22.6625 9.88574 22.6625 10.4824C22.6625 10.5332 22.4467 10.8315 22.0151 11.3774C21.5834 11.9106 21.2787 12.5708 21.101 13.3579C20.936 14.1323 20.8535 15.4082 20.8535 17.1855C20.8535 18.9629 21.0629 20.0483 21.4819 20.4419C21.9008 20.8354 23.6782 21.0322 26.8139 21.0322C29.9623 21.0322 31.7587 20.8164 32.2031 20.3848C32.5204 20.0801 32.6791 18.9565 32.6791 17.0142C32.6791 15.0591 32.6093 13.8149 32.4697 13.2817C32.3427 12.7485 32.1396 12.2979 31.8603 11.9297L31.4604 11.4917C31.0668 11.0728 30.8701 10.7935 30.8701 10.6538C30.8701 10.1714 31.2192 9.88574 31.9174 9.79688C32.6157 9.70801 34.1708 9.66357 36.5829 9.66357C38.9951 9.66357 40.2011 9.92383 40.2011 10.4443C40.2011 10.8379 39.9726 11.1934 39.5156 11.5107C38.4872 12.209 37.9286 12.6597 37.8398 12.8628C37.624 13.3579 37.5161 15.7573 37.5161 20.061L37.3828 29.4683C37.3828 31.2329 37.478 32.3691 37.6684 32.877C37.8588 33.3848 38.1762 33.772 38.6205 34.0386C39.5981 34.6353 40.0869 35.0542 40.0869 35.2954ZM55.5307 23.6221V23.0317C55.5307 22.0923 55.1943 21.248 54.5214 20.499C53.8486 19.7373 53.0234 19.3564 52.0458 19.3564H51.684C51.5063 19.3818 51.3857 19.3945 51.3222 19.3945C50.4335 19.3945 49.5893 19.9023 48.7895 20.918C48.0024 21.9336 47.6088 23.019 47.6088 24.1743V24.4219C47.6088 24.8281 47.85 25.0312 48.3325 25.0312C48.5229 25.0693 48.6245 25.0884 48.6371 25.0884L49.0751 25.1074H49.1894L49.3227 25.0884L52.998 24.8789L53.6835 24.8027C54.915 24.8027 55.5307 24.4092 55.5307 23.6221ZM47.6088 28.6685C47.6088 30.1157 48.1547 31.3281 49.2465 32.3057C50.3383 33.2832 51.7221 33.772 53.3979 33.772C54.0707 33.772 54.6801 33.6768 55.226 33.4863C55.7846 33.2832 56.3876 33.042 57.0351 32.7627C57.6953 32.4834 58.1078 32.3438 58.2729 32.3438C58.7807 32.3438 59.0346 32.6167 59.0346 33.1626C59.0346 33.8989 58.0952 34.686 56.2162 35.5239C54.9975 36.0698 53.6899 36.3428 52.2934 36.3428H51.8745C49.4877 36.3428 47.5073 35.6191 45.933 34.1719C45.0825 33.3848 44.4223 32.3818 43.9526 31.1631C43.4828 29.9316 43.248 28.6113 43.248 27.2021L43.267 26.7642V26.3262C43.267 25.1074 43.5463 23.9077 44.1049 22.7271C44.6762 21.5464 45.3554 20.5752 46.1425 19.8135C47.8056 18.2139 49.7797 17.4077 52.0649 17.395C55.518 17.395 57.8159 18.7407 58.9584 21.4321C59.3139 22.2827 59.4916 23.0635 59.4916 23.7744V24.1553C59.4916 25.0312 59.1298 25.6216 58.4062 25.9263C57.6826 26.2183 55.975 26.4595 53.2836 26.6499C50.5922 26.8403 49.1323 26.9673 48.9037 27.0308C48.0405 27.2466 47.6088 27.7925 47.6088 28.6685ZM62.9003 35.3335C62.9003 35.0669 63.186 34.7241 63.7573 34.3052C64.3412 33.8862 64.7348 33.2324 64.9379 32.3438C65.1411 31.4424 65.2426 28.04 65.2426 22.1367C65.2426 16.2334 65.1728 12.8882 65.0331 12.1011C64.9062 11.314 64.5825 10.749 64.062 10.4062C63.2241 9.86035 62.8051 9.52393 62.8051 9.39697V9.16846C62.8051 8.95264 62.9892 8.76221 63.3574 8.59717C64.4999 8.10205 66.0234 7.85449 67.9277 7.85449H68.3085C68.956 7.85449 69.3305 8.29248 69.4321 9.16846C69.4448 9.28271 69.4511 10.2412 69.4511 12.0439V16.1382L69.4321 16.9189V18.1187L69.413 18.8994C69.413 18.8994 69.413 20.9116 69.413 24.936C69.413 28.6938 69.4702 31.0234 69.5844 31.9248C69.7114 32.8135 69.997 33.4609 70.4413 33.8672C70.4921 33.9053 70.7587 34.0703 71.2411 34.3623C71.7236 34.6543 71.9648 34.9526 71.9648 35.2573C71.9648 35.7017 71.1777 35.9238 69.6035 35.9238L68.8227 35.9619H68.0419L64.9189 36.019H64.519C63.4399 36.019 62.9003 35.7905 62.9003 35.3335ZM74.8974 35.3335C74.8974 35.0669 75.183 34.7241 75.7543 34.3052C76.3383 33.8862 76.7319 33.2324 76.935 32.3438C77.1381 31.4424 77.2397 28.04 77.2397 22.1367C77.2397 16.2334 77.1699 12.8882 77.0302 12.1011C76.9033 11.314 76.5795 10.749 76.059 10.4062C75.2211 9.86035 74.8022 9.52393 74.8022 9.39697V9.16846C74.8022 8.95264 74.9863 8.76221 75.3544 8.59717C76.497 8.10205 78.0204 7.85449 79.9247 7.85449H80.3056C80.9531 7.85449 81.3276 8.29248 81.4291 9.16846C81.4418 9.28271 81.4482 10.2412 81.4482 12.0439V16.1382L81.4291 16.9189V18.1187L81.4101 18.8994C81.4101 18.8994 81.4101 20.9116 81.4101 24.936C81.4101 28.6938 81.4672 31.0234 81.5815 31.9248C81.7084 32.8135 81.9941 33.4609 82.4384 33.8672C82.4892 33.9053 82.7558 34.0703 83.2382 34.3623C83.7206 34.6543 83.9619 34.9526 83.9619 35.2573C83.9619 35.7017 83.1747 35.9238 81.6005 35.9238L80.8198 35.9619H80.039L76.916 36.019H76.5161C75.437 36.019 74.8974 35.7905 74.8974 35.3335ZM91.0268 26.1929V26.8975C91.0268 29.0557 91.4457 30.8457 92.2836 32.2676C92.6772 32.9404 93.1786 33.4736 93.788 33.8672C94.3974 34.2607 95.0131 34.4575 95.6352 34.4575H96.0161C97.1713 34.4575 98.1679 33.8989 99.0058 32.7817C99.8564 31.6519 100.282 30.0522 100.282 27.9829V26.6309C100.282 24.5869 99.8564 22.854 99.0058 21.4321C98.1679 19.9976 97.1015 19.2803 95.8066 19.2803H95.2162C94.0483 19.2803 93.058 19.9087 92.2455 21.1655C91.433 22.4224 91.0268 24.0981 91.0268 26.1929ZM104.871 26.269V27.2212C104.871 28.2241 104.668 29.3223 104.262 30.5156C103.411 33.0039 101.716 34.7432 99.1772 35.7334C98.0727 36.165 97.0063 36.3809 95.978 36.3809H95.3495C92.9247 36.3809 90.8998 35.5684 89.2748 33.9434C88.5385 33.207 87.9418 32.2358 87.4848 31.0298C87.0278 29.8237 86.7993 28.5415 86.7993 27.1831V26.8594C86.7993 25.6279 87.0151 24.3838 87.4467 23.127C88.2846 20.6768 89.9286 18.9756 92.3788 18.0234C93.4833 17.5918 94.5434 17.376 95.559 17.376H96.5112C97.6411 17.376 98.7519 17.6299 99.8437 18.1377C101.913 19.1025 103.354 20.6387 104.166 22.7461C104.636 23.9902 104.871 25.1646 104.871 26.269ZM114.373 34.2671V34.8955C114.373 36.292 113.904 37.6694 112.964 39.0278C111.682 40.8813 110.546 41.8081 109.556 41.8081H109.441C108.997 41.8081 108.775 41.5986 108.775 41.1797V41.0654L110.165 39.2563C110.698 38.5581 110.965 37.8281 110.965 37.0664C110.965 36.8506 110.616 36.3936 109.917 35.6953C109.219 34.9971 108.87 34.3179 108.87 33.6577C108.87 32.9976 109.086 32.4263 109.518 31.9438C109.962 31.4614 110.533 31.2202 111.231 31.2202H111.707C112.507 31.2202 113.148 31.4932 113.631 32.0391C114.126 32.5723 114.373 33.3149 114.373 34.2671ZM142.709 24.7075V24.5933C142.709 23.3999 141.687 20.4165 139.643 15.6431C139.288 14.8179 139.104 14.4053 139.091 14.4053L138.539 15.6812C136.432 20.5942 135.378 23.5776 135.378 24.6313C135.378 24.8091 135.486 24.9043 135.702 24.917C135.93 24.9297 136.102 24.936 136.216 24.936L137.701 24.9741H139.053L139.186 24.9551C141.535 24.9551 142.709 24.8726 142.709 24.7075ZM126.828 34.8574C126.828 34.54 127.189 34.1719 127.913 33.7529C128.637 33.334 129.17 32.8008 129.513 32.1533C129.855 31.5059 130.338 30.3379 130.96 28.6494C131.582 26.9482 132.426 24.8091 133.493 22.2319C134.572 19.6548 135.422 17.3442 136.044 15.3003C136.679 13.2437 137.111 11.9424 137.339 11.3965C137.86 10.1523 138.596 9.53027 139.548 9.53027H140.081C140.323 9.53027 140.621 9.66357 140.977 9.93018C141.7 10.4761 142.456 11.644 143.243 13.4341C143.509 14.0435 143.909 15.0908 144.442 16.5762C144.976 18.0488 146.042 20.937 147.642 25.2407C149.241 29.5444 150.136 31.8867 150.327 32.2676C150.644 32.9277 151.184 33.4609 151.945 33.8672C152.707 34.2607 153.088 34.5781 153.088 34.8193C153.088 35.3525 152.77 35.6826 152.136 35.8096C151.704 35.8984 150.612 35.9429 148.86 35.9429L147.756 35.9619C145.407 35.9619 144.233 35.6445 144.233 35.0098C144.233 34.8955 144.379 34.6226 144.671 34.1909C144.976 33.7593 145.128 33.2134 145.128 32.5532C145.128 31.8931 144.887 30.9473 144.404 29.7158C143.935 28.4844 143.535 27.7227 143.205 27.4307C142.887 27.1387 141.51 26.9927 139.072 26.9927C136.635 26.9927 135.213 27.126 134.807 27.3926C134.4 27.6592 133.962 28.3765 133.493 29.5444C133.023 30.7124 132.788 31.6646 132.788 32.4009C132.788 33.1245 133.01 33.7656 133.455 34.3242C133.912 34.8828 134.14 35.1748 134.14 35.2002C134.14 35.6572 133.359 35.8857 131.798 35.8857C130.249 35.8857 129.03 35.8286 128.142 35.7144C127.266 35.5874 126.828 35.3018 126.828 34.8574ZM165.161 35.2573C165.161 35.7524 164.012 36 161.714 36H159.696L158.896 35.9619L157.696 35.9429C156.351 35.9429 155.678 35.7017 155.678 35.2192C155.678 34.8765 155.976 34.5146 156.573 34.1338C157.182 33.7402 157.588 33.2388 157.791 32.6294C158.007 32.0073 158.115 30.1855 158.115 27.1641C158.115 24.1426 158.014 22.3081 157.81 21.6606C157.62 21.0132 157.315 20.5498 156.896 20.2705C156.147 19.7754 155.773 19.4136 155.773 19.1851C155.773 18.9565 155.906 18.7534 156.173 18.5757C156.96 18.0425 158.293 17.7759 160.172 17.7759H160.534C161.257 17.7759 161.771 18.144 162.076 18.8804C162.381 19.604 162.628 19.9658 162.819 19.9658C163.009 19.9658 163.333 19.7881 163.79 19.4326C164.26 19.0771 164.818 18.7217 165.466 18.3662C166.126 18.0107 166.856 17.833 167.656 17.833C168.456 17.833 169.065 18.0425 169.484 18.4614C169.915 18.8677 170.131 19.3945 170.131 20.042C170.119 20.7021 169.947 21.1973 169.617 21.5273C169.287 21.8574 168.932 22.0225 168.551 22.0225C168.17 22.0225 167.668 21.8701 167.046 21.5654C166.424 21.248 165.904 21.0894 165.485 21.0894C165.066 21.0894 164.609 21.2671 164.114 21.6226C163.619 21.9653 163.193 22.5874 162.838 23.4888C162.495 24.3774 162.324 25.9072 162.324 28.0781C162.324 30.2363 162.476 31.6328 162.781 32.2676C163.085 32.8896 163.555 33.4609 164.19 33.9814C164.837 34.502 165.161 34.9272 165.161 35.2573ZM184.452 23.6221V23.0317C184.452 22.0923 184.115 21.248 183.442 20.499C182.769 19.7373 181.944 19.3564 180.967 19.3564H180.605C180.427 19.3818 180.307 19.3945 180.243 19.3945C179.354 19.3945 178.51 19.9023 177.71 20.918C176.923 21.9336 176.53 23.019 176.53 24.1743V24.4219C176.53 24.8281 176.771 25.0312 177.253 25.0312C177.444 25.0693 177.545 25.0884 177.558 25.0884L177.996 25.1074H178.11L178.244 25.0884L181.919 24.8789L182.604 24.8027C183.836 24.8027 184.452 24.4092 184.452 23.6221ZM176.53 28.6685C176.53 30.1157 177.076 31.3281 178.167 32.3057C179.259 33.2832 180.643 33.772 182.319 33.772C182.992 33.772 183.601 33.6768 184.147 33.4863C184.706 33.2832 185.309 33.042 185.956 32.7627C186.616 32.4834 187.029 32.3438 187.194 32.3438C187.702 32.3438 187.956 32.6167 187.956 33.1626C187.956 33.8989 187.016 34.686 185.137 35.5239C183.918 36.0698 182.611 36.3428 181.214 36.3428H180.795C178.409 36.3428 176.428 35.6191 174.854 34.1719C174.003 33.3848 173.343 32.3818 172.873 31.1631C172.404 29.9316 172.169 28.6113 172.169 27.2021L172.188 26.7642V26.3262C172.188 25.1074 172.467 23.9077 173.026 22.7271C173.597 21.5464 174.276 20.5752 175.063 19.8135C176.727 18.2139 178.701 17.4077 180.986 17.395C184.439 17.395 186.737 18.7407 187.879 21.4321C188.235 22.2827 188.413 23.0635 188.413 23.7744V24.1553C188.413 25.0312 188.051 25.6216 187.327 25.9263C186.603 26.2183 184.896 26.4595 182.205 26.6499C179.513 26.8403 178.053 26.9673 177.825 27.0308C176.961 27.2466 176.53 27.7925 176.53 28.6685ZM207.836 20.2324C207.836 21.5908 208.89 24.8154 210.997 29.9062C211.289 30.6172 211.524 30.9727 211.702 30.9727C211.88 30.9727 212.21 30.4585 212.692 29.4302C214.444 25.7231 215.32 22.9238 215.32 21.0322C215.32 20.4863 215.231 20.042 215.054 19.6992L214.844 19.3564C214.539 18.9502 214.387 18.6646 214.387 18.4995C214.387 18.0044 215.193 17.7568 216.806 17.7568H218.024C219.56 17.7568 220.329 18.0488 220.329 18.6328C220.329 18.9629 220.011 19.4707 219.376 20.1562C218.754 20.8291 218.304 21.4829 218.024 22.1177C217.745 22.7524 216.723 25.4058 214.958 30.0776C213.206 34.7368 211.848 37.917 210.883 39.6182C209.918 41.332 209.017 42.5635 208.179 43.3125C207.354 44.0615 206.503 44.436 205.627 44.436H205.132C204.472 44.436 203.907 44.2456 203.437 43.8647C202.98 43.4966 202.752 43.1094 202.752 42.7031C202.752 42.3096 202.911 41.9858 203.228 41.7319C203.558 41.4907 203.99 41.3701 204.523 41.3701L204.961 41.4082C205.151 41.4209 205.443 41.4272 205.837 41.4272C206.726 41.4272 207.544 40.856 208.293 39.7134C209.042 38.5708 209.417 37.4155 209.417 36.2476C209.417 35.0796 207.608 30.668 203.99 23.0127C203.66 22.3145 203.171 21.5908 202.523 20.8418C201.889 20.0928 201.571 19.5723 201.571 19.2803C201.571 18.7979 201.908 18.4614 202.581 18.271C203.253 18.0679 204.332 17.9663 205.818 17.9663C207.316 17.9663 208.065 18.29 208.065 18.9375C207.913 19.5977 207.836 20.0293 207.836 20.2324ZM226.879 26.1929V26.8975C226.879 29.0557 227.298 30.8457 228.136 32.2676C228.53 32.9404 229.031 33.4736 229.641 33.8672C230.25 34.2607 230.866 34.4575 231.488 34.4575H231.869C233.024 34.4575 234.02 33.8989 234.858 32.7817C235.709 31.6519 236.134 30.0522 236.134 27.9829V26.6309C236.134 24.5869 235.709 22.854 234.858 21.4321C234.02 19.9976 232.954 19.2803 231.659 19.2803H231.069C229.901 19.2803 228.911 19.9087 228.098 21.1655C227.286 22.4224 226.879 24.0981 226.879 26.1929ZM240.724 26.269V27.2212C240.724 28.2241 240.52 29.3223 240.114 30.5156C239.264 33.0039 237.569 34.7432 235.03 35.7334C233.925 36.165 232.859 36.3809 231.831 36.3809H231.202C228.777 36.3809 226.752 35.5684 225.127 33.9434C224.391 33.207 223.794 32.2358 223.337 31.0298C222.88 29.8237 222.652 28.5415 222.652 27.1831V26.8594C222.652 25.6279 222.868 24.3838 223.299 23.127C224.137 20.6768 225.781 18.9756 228.231 18.0234C229.336 17.5918 230.396 17.376 231.412 17.376H232.364C233.494 17.376 234.604 17.6299 235.696 18.1377C237.766 19.1025 239.206 20.6387 240.019 22.7461C240.489 23.9902 240.724 25.1646 240.724 26.269ZM263.289 33.9243C263.848 34.356 264.127 34.667 264.127 34.8574C264.127 35.0352 264.032 35.2065 263.842 35.3716C263.296 35.8667 262.128 36.1143 260.338 36.1143C259.754 36.1143 259.297 36.019 258.967 35.8286C258.649 35.6255 258.364 35.2637 258.11 34.7432C257.869 34.2227 257.665 33.9624 257.5 33.9624C257.335 33.9751 256.967 34.1846 256.396 34.5908C254.796 35.7461 253.267 36.3237 251.807 36.3237C251.794 36.3237 251.775 36.3237 251.749 36.3237H251.178C249.083 36.3237 247.566 35.4351 246.627 33.6577C246.144 32.731 245.897 30.4648 245.884 26.8594C245.884 23.2412 245.827 21.2544 245.713 20.8989C245.599 20.5308 245.192 20.188 244.494 19.8706C243.809 19.5405 243.466 19.2866 243.466 19.1089C243.466 18.6392 243.688 18.3345 244.132 18.1948C245.122 17.8774 246.386 17.7188 247.922 17.7188C248.81 17.7188 249.375 18.0806 249.617 18.8042C249.934 19.731 250.093 21.9463 250.093 25.4502C250.093 28.9414 250.245 31.0615 250.55 31.8105C251.07 33.0928 252.016 33.7339 253.387 33.7339C254.098 33.7339 254.803 33.5498 255.501 33.1816C256.212 32.8135 256.764 32.3184 257.158 31.6963C257.551 31.0742 257.748 29.3667 257.748 26.5737C257.748 23.7681 257.653 22.0034 257.462 21.2798C257.285 20.5562 257.005 19.9912 256.624 19.585C256.244 19.166 256.053 18.8359 256.053 18.5947C256.053 18.0361 257.545 17.7568 260.528 17.7568C261.15 17.7568 261.557 17.8965 261.747 18.1758C261.937 18.4424 262.033 18.9375 262.033 19.6611L261.976 20.7847L261.88 25.8501C261.88 29.1509 261.976 31.2139 262.166 32.0391C262.356 32.8516 262.731 33.48 263.289 33.9243ZM287.131 27.1831H286.808C285.144 27.1831 283.754 27.5576 282.637 28.3066C281.533 29.043 280.98 29.9634 280.98 31.0679V31.4487C280.98 32.0962 281.177 32.6802 281.571 33.2007C281.977 33.7085 282.497 33.9624 283.132 33.9624L283.361 34.0005H283.932C285.252 34.0005 286.331 33.4609 287.169 32.3818C287.538 31.9121 287.722 30.9473 287.722 29.4873C287.722 29.373 287.722 29.2588 287.722 29.1445L287.741 28.6875V28.2305C287.741 27.5322 287.538 27.1831 287.131 27.1831ZM277.876 21.0322C277.876 20.0928 278.619 19.2549 280.104 18.5186C281.602 17.7695 283.151 17.395 284.751 17.395C284.802 17.395 284.852 17.395 284.903 17.395C286.427 17.395 287.645 17.5791 288.56 17.9473C290.413 18.6836 291.473 20.2451 291.74 22.6318C291.765 22.873 291.778 24.4727 291.778 27.4307C291.778 30.376 291.854 32.1025 292.006 32.6104C292.171 33.1182 292.603 33.4927 293.301 33.7339C294.012 33.9751 294.368 34.2036 294.368 34.4194C294.368 34.8765 294.139 35.2256 293.682 35.4668C292.768 35.9492 291.867 36.1904 290.978 36.1904C290.102 36.1904 289.448 35.9873 289.017 35.5811C288.242 34.8574 287.83 34.4956 287.779 34.4956C287.728 34.4956 287.011 34.8193 285.627 35.4668C284.243 36.1016 283.031 36.4189 281.99 36.4189C280.428 36.4189 279.203 35.9873 278.314 35.124C277.426 34.2607 276.981 33.2134 276.981 31.9819V31.5059C276.981 30.1855 277.553 29.0239 278.695 28.021C279.838 27.0181 281.894 26.2373 284.865 25.6787C285.944 25.4756 286.623 25.2852 286.903 25.1074C287.461 24.752 287.741 24.0283 287.741 22.9365C287.741 21.8447 287.449 21.0068 286.865 20.4229C286.281 19.8389 285.5 19.5469 284.522 19.5469C283.545 19.5469 282.599 20.1182 281.685 21.2607C280.784 22.3906 279.958 22.9556 279.209 22.9556C278.321 22.9556 277.876 22.3145 277.876 21.0322ZM300.061 35.8477C298.271 35.8477 297.376 35.5938 297.376 35.0859C297.376 34.667 297.611 34.3242 298.081 34.0576C298.932 33.5752 299.427 33.1436 299.566 32.7627C299.706 32.3691 299.776 30.5347 299.776 27.2593C299.776 23.9712 299.674 22.0479 299.471 21.4893C299.281 20.918 298.925 20.4482 298.405 20.0801C297.884 19.7119 297.624 19.4136 297.624 19.1851C297.624 18.9565 297.795 18.7407 298.138 18.5376C298.938 18.0679 300.207 17.833 301.947 17.833C302.467 17.833 302.873 18.0107 303.165 18.3662C303.267 18.4932 303.407 18.7725 303.584 19.2041C303.775 19.623 303.902 19.8325 303.965 19.8325C304.206 19.8198 304.581 19.6484 305.089 19.3184C306.841 18.1377 308.428 17.5474 309.85 17.5474H309.888H310.497C311.525 17.5474 312.452 17.8013 313.277 18.3091C314.102 18.8169 314.737 19.5786 315.182 20.5942C315.639 21.6099 315.867 23.8252 315.867 27.2402C315.867 30.6426 315.937 32.5469 316.077 32.9531C316.229 33.3467 316.642 33.7148 317.314 34.0576C318 34.4004 318.343 34.7368 318.343 35.0669C318.343 35.6382 316.54 35.9238 312.935 35.9238H312.363C311.221 35.9238 310.649 35.6509 310.649 35.105C310.649 34.9907 310.789 34.7178 311.068 34.2861C311.348 33.8418 311.538 33.353 311.64 32.8198C311.741 32.2866 311.792 30.5347 311.792 27.564C311.792 24.5806 311.608 22.6636 311.24 21.813C310.732 20.645 309.888 20.061 308.707 20.061C307.844 20.061 307.006 20.2642 306.193 20.6704C305.393 21.064 304.81 21.6289 304.441 22.3652C304.086 23.0889 303.908 24.8345 303.908 27.6021C303.908 30.3569 303.984 32.0264 304.137 32.6104C304.289 33.1816 304.473 33.645 304.689 34.0005L305.393 35.1431C305.393 35.6382 304.397 35.8857 302.404 35.8857L301.242 35.8477H300.061ZM345.346 15.0337V15.7764C345.346 17.0586 345.009 18.1948 344.336 19.1851C343.664 20.1626 342.686 21.2036 341.404 22.3081C340.122 23.4126 339.334 24.1553 339.042 24.5361C338.763 24.9043 338.598 25.2852 338.547 25.6787C338.497 26.0723 338.452 26.542 338.414 27.0879C338.389 27.6211 338.338 27.9639 338.262 28.1162C338.097 28.459 337.76 28.6304 337.252 28.6304C336.757 28.6304 336.357 28.3257 336.053 27.7163C335.748 27.0942 335.596 26.269 335.596 25.2407C335.596 24.2124 335.875 23.2603 336.434 22.3843C336.56 22.1685 337.183 21.4321 338.3 20.1753C339.43 18.9185 340.147 17.9663 340.452 17.3188C340.769 16.6714 340.928 15.897 340.928 14.9956C340.928 14.0815 340.61 13.3643 339.976 12.8438C339.353 12.3232 338.535 12.063 337.519 12.063C336.516 12.063 335.646 12.4502 334.91 13.2246C333.869 14.3164 333.107 14.8623 332.625 14.8623C331.698 14.8623 331.235 14.3291 331.235 13.2627V12.9199C331.235 11.6758 331.755 10.7363 332.796 10.1016C334.104 9.30176 335.602 8.90186 337.29 8.90186H337.671C339.817 8.90186 341.651 9.50488 343.175 10.7109C343.822 11.2314 344.343 11.9043 344.736 12.7295C345.143 13.542 345.346 14.3101 345.346 15.0337ZM337.214 36.5713H337.043C336.434 36.5713 335.862 36.3491 335.329 35.9048C334.796 35.4604 334.529 34.8828 334.529 34.1719V33.8291C334.529 33.1689 334.802 32.6104 335.348 32.1533C335.894 31.6963 336.427 31.4678 336.948 31.4678H337.462C338.135 31.4678 338.693 31.7344 339.138 32.2676C339.582 32.8008 339.804 33.3276 339.804 33.8481V34.1147C339.804 34.8257 339.525 35.416 338.966 35.8857C338.408 36.3428 337.824 36.5713 337.214 36.5713Z" fill="#F8F9FA"/>
<rect x="6.65753" y="456" width="192.947" height="173" rx="35" fill="#2ECC71" stroke="black" stroke-width="2"/>
<path d="M103.131 540C122.38 540 137.981 526.123 137.981 509C137.981 491.877 122.38 478 103.131 478C83.8825 478 68.282 491.877 68.282 509C68.282 526.123 83.8825 540 103.131 540ZM127.526 547.75H122.979C116.935 550.22 110.21 551.625 103.131 551.625C96.0525 551.625 89.3549 550.22 83.2835 547.75H78.7368C58.5351 547.75 42.145 562.33 42.145 580.3V590.375C42.145 596.793 47.9986 602 55.2135 602H151.049C158.264 602 164.118 596.793 164.118 590.375V580.3C164.118 562.33 147.727 547.75 127.526 547.75Z" fill="#0D1B2A"/>
<rect x="6.65753" y="125" width="192.947" height="173" rx="35" fill="#2ECC71" stroke="black" stroke-width="2"/>
<path d="M103.131 212C122.38 212 137.981 198.123 137.981 181C137.981 163.877 122.38 150 103.131 150C83.8825 150 68.282 163.877 68.282 181C68.282 198.123 83.8825 212 103.131 212ZM127.526 219.75H122.979C116.935 222.22 110.21 223.625 103.131 223.625C96.0525 223.625 89.3549 222.22 83.2835 219.75H78.7368C58.5351 219.75 42.145 234.33 42.145 252.3V262.375C42.145 268.793 47.9986 274 55.2135 274H151.049C158.264 274 164.118 268.793 164.118 262.375V252.3C164.118 234.33 147.727 219.75 127.526 219.75Z" fill="#0D1B2A"/>
<path d="M174.096 149.875H172.309V145.094C172.309 139.529 167.23 135 160.99 135C154.75 135 149.671 139.529 149.671 145.094V149.875H147.884C145.911 149.875 144.31 151.303 144.31 153.062V165.812C144.31 167.572 145.911 169 147.884 169H174.096C176.069 169 177.67 167.572 177.67 165.812V153.062C177.67 151.303 176.069 149.875 174.096 149.875ZM166.351 149.875H155.629V145.094C155.629 142.457 158.034 140.312 160.99 140.312C163.946 140.312 166.351 142.457 166.351 145.094V149.875Z" fill="black"/>
</svg>
