<svg width="401" height="175" viewBox="0 0 401 175" fill="none" xmlns="http://www.w3.org/2000/svg">
<path d="M263.239 87.956L257.959 88.22C257.108 88.22 256.683 88.0293 256.683 87.648C256.683 87.2667 257.167 86.9293 258.135 86.636C259.895 86.108 261.156 84.9787 261.919 83.248C264.706 76.824 267.448 69.9307 270.147 62.568C270.528 61.6293 270.719 60.9547 270.719 60.544C270.719 60.192 270.734 60.016 270.763 60.016C271.79 59.664 272.406 59.3707 272.611 59.136C272.699 59.0187 272.772 58.9307 272.831 58.872C272.89 58.784 272.934 58.7107 272.963 58.652C273.11 58.388 273.212 58.256 273.271 58.256C273.418 58.256 273.564 58.4613 273.711 58.872C274.796 62.2747 275.984 65.9413 277.275 69.872C278.595 73.7733 280.018 77.9387 281.543 82.368C282.1 83.9813 282.716 85.0813 283.391 85.668C284.095 86.2253 284.946 86.592 285.943 86.768C286.94 86.944 287.439 87.2813 287.439 87.78C287.439 88.0733 287.014 88.22 286.163 88.22L280.047 87.956L275.427 88C274.576 88 274.151 87.824 274.151 87.472C274.151 87.032 274.635 86.7533 275.603 86.636C277.392 86.3427 278.287 85.6827 278.287 84.656C278.287 83.8347 277.73 81.532 276.615 77.748C276.527 77.4253 276.131 77.264 275.427 77.264H267.023C266.7 77.264 266.451 77.528 266.275 78.056C265.102 81.4 264.515 83.424 264.515 84.128C264.515 84.7733 264.75 85.316 265.219 85.756C265.718 86.1667 266.392 86.4893 267.243 86.724C268.094 86.9587 268.519 87.2373 268.519 87.56C268.519 87.8827 268.094 88.044 267.243 88.044L263.239 87.956ZM267.375 75.064C267.375 75.2693 267.683 75.372 268.299 75.372H275.119C275.53 75.372 275.735 75.2987 275.735 75.152L275.647 74.712L272.171 64.196C271.995 63.668 271.878 63.404 271.819 63.404C271.731 63.404 271.599 63.6533 271.423 64.152L267.463 74.712L267.375 75.064ZM304.449 88.088C303.276 88.5867 302.601 88.836 302.425 88.836C302.191 88.836 302.073 88.7773 302.073 88.66L302.293 85.756V85.492C301.765 86.3133 301.003 87.0467 300.005 87.692C299.008 88.308 297.849 88.616 296.529 88.616C294.945 88.616 293.537 88.1907 292.305 87.34C291.073 86.4893 290.105 85.3747 289.401 83.996C288.727 82.588 288.389 81.048 288.389 79.376C288.389 77.704 288.8 76.1347 289.621 74.668C290.443 73.2013 291.601 72.028 293.097 71.148C294.593 70.2387 296.324 69.784 298.289 69.784C298.7 69.784 299.14 69.8427 299.609 69.96C300.108 70.048 300.563 70.1653 300.973 70.312C301.384 70.4587 301.648 70.6053 301.765 70.752C301.941 70.9867 302.088 71.104 302.205 71.104C302.293 71.104 302.337 70.752 302.337 70.048V63.096C302.337 61.9813 302.161 61.2187 301.809 60.808C301.487 60.368 300.915 60.06 300.093 59.884C299.859 59.8253 299.741 59.6347 299.741 59.312C299.741 58.9893 299.844 58.8133 300.049 58.784C300.636 58.6373 301.208 58.476 301.765 58.3C302.352 58.124 302.924 57.9187 303.481 57.684C304.625 57.244 305.285 57.024 305.461 57.024C305.608 57.024 305.696 57.0827 305.725 57.2C305.725 57.2587 305.725 57.3613 305.725 57.508C305.725 57.6547 305.711 57.8453 305.681 58.08C305.505 59.752 305.417 61.4827 305.417 63.272V83.16C305.417 85.0667 305.725 86.02 306.341 86.02C307.251 86.02 307.925 85.976 308.365 85.888H308.497C308.849 85.888 309.025 86.064 309.025 86.416C309.025 86.856 308.82 87.076 308.409 87.076C307.647 87.1933 306.928 87.34 306.253 87.516C305.608 87.6627 305.007 87.8533 304.449 88.088ZM294.197 85.14C295.547 86.1373 296.852 86.636 298.113 86.636C299.345 86.636 300.357 86.2547 301.149 85.492C301.941 84.7293 302.337 83.8053 302.337 82.72V76.78C302.337 75.8707 302.103 75.0053 301.633 74.184C301.193 73.3627 300.563 72.688 299.741 72.16C298.949 71.6027 298.011 71.324 296.925 71.324C295.869 71.324 294.916 71.6907 294.065 72.424C293.215 73.128 292.599 73.9933 292.217 75.02C291.836 75.988 291.645 77.2347 291.645 78.76C291.645 80.2267 291.88 81.532 292.349 82.676C292.848 83.7907 293.464 84.612 294.197 85.14ZM314.607 87.912L311.043 88.132C310.456 88.132 310.163 87.9853 310.163 87.692C310.163 87.516 310.28 87.3693 310.515 87.252C310.75 87.1053 310.999 86.988 311.263 86.9C311.527 86.812 311.688 86.768 311.747 86.768C311.806 86.768 311.952 86.7093 312.187 86.592C312.422 86.4747 312.568 86.372 312.627 86.284C312.92 85.9907 313.067 85.6533 313.067 85.272V75.812C313.067 74.9027 312.95 74.184 312.715 73.656C312.48 73.128 312.026 72.7907 311.351 72.644C311.116 72.5853 310.999 72.3947 310.999 72.072C310.999 71.7493 311.102 71.5733 311.307 71.544C311.982 71.3973 312.656 71.148 313.331 70.796C314.035 70.444 314.754 70.0187 315.487 69.52L316.147 69.124H316.191C316.308 69.124 316.411 69.212 316.499 69.388L316.279 72.204C316.279 72.4973 316.308 72.6733 316.367 72.732C318.45 70.7667 320.767 69.784 323.319 69.784C325.402 69.784 326.766 70.664 327.411 72.424C327.558 72.7467 327.719 72.908 327.895 72.908C328.042 72.908 328.35 72.6293 328.819 72.072C329.288 71.544 330.11 71.0307 331.283 70.532C332.456 70.0333 333.718 69.784 335.067 69.784C335.947 69.784 336.71 70.0627 337.355 70.62C338.03 71.1773 338.543 71.9253 338.895 72.864C339.247 73.7733 339.423 74.7853 339.423 75.9V85.272C339.423 85.8587 339.599 86.24 339.951 86.416C340.332 86.592 340.831 86.7827 341.447 86.988C342.034 87.2227 342.327 87.4573 342.327 87.692C342.327 87.9853 342.034 88.132 341.447 88.132L337.971 87.912L334.319 88.132C333.732 88.132 333.439 87.9853 333.439 87.692C333.439 87.428 333.776 87.1787 334.451 86.944C334.51 86.944 334.568 86.9293 334.627 86.9C335.624 86.5773 336.182 86.1813 336.299 85.712C336.328 85.6533 336.343 85.58 336.343 85.492C336.343 85.404 336.343 85.3307 336.343 85.272V76.032C336.343 74.9467 335.991 73.9787 335.287 73.128C334.583 72.2773 333.762 71.852 332.823 71.852C331.268 71.852 330.036 72.204 329.127 72.908C328.218 73.612 327.763 74.712 327.763 76.208V85.272C327.763 85.5947 327.807 85.8 327.895 85.888L328.071 86.152C328.13 86.2693 328.203 86.3427 328.291 86.372C328.438 86.4013 328.526 86.4453 328.555 86.504C328.614 86.5627 328.716 86.6067 328.863 86.636C329.01 86.6653 329.098 86.7093 329.127 86.768C329.362 86.8853 329.567 86.944 329.743 86.944C330.418 87.1787 330.755 87.428 330.755 87.692C330.755 87.9853 330.462 88.132 329.875 88.132L326.267 87.912L322.615 88.132C322.028 88.132 321.735 87.9853 321.735 87.692C321.735 87.428 322.146 87.164 322.967 86.9C323.788 86.636 324.287 86.3573 324.463 86.064C324.61 85.7707 324.683 85.5067 324.683 85.272V76.032C324.683 74.9467 324.331 73.9787 323.627 73.128C322.923 72.2773 322.102 71.852 321.163 71.852C319.608 71.852 318.376 72.204 317.467 72.908C316.587 73.5827 316.147 74.6827 316.147 76.208V85.272C316.147 85.8293 316.308 86.2107 316.631 86.416C316.983 86.592 317.218 86.6947 317.335 86.724C318.479 87.0173 319.051 87.3547 319.051 87.736C319.051 88 318.758 88.132 318.171 88.132L314.607 87.912ZM350.789 63.228C350.76 63.844 350.54 64.3573 350.129 64.768C349.718 65.1787 349.19 65.3987 348.545 65.428C347.9 65.3987 347.372 65.1787 346.961 64.768C346.55 64.3573 346.345 63.8293 346.345 63.184C346.345 62.5387 346.55 62.0107 346.961 61.6C347.372 61.1893 347.9 60.984 348.545 60.984C349.19 60.984 349.718 61.1893 350.129 61.6C350.54 62.0107 350.76 62.5533 350.789 63.228ZM348.853 87.912L345.289 88.132C344.702 88.132 344.409 87.9853 344.409 87.692C344.409 87.428 344.82 87.164 345.641 86.9C346.492 86.636 346.976 86.3573 347.093 86.064C347.24 85.7707 347.313 85.5067 347.313 85.272V75.724C347.313 73.9053 346.624 72.8347 345.245 72.512C345.01 72.4533 344.893 72.2627 344.893 71.94C344.893 71.6173 344.996 71.4413 345.201 71.412C346.609 71.06 348.105 70.3707 349.689 69.344C350.158 69.0507 350.422 68.904 350.481 68.904C350.686 68.904 350.789 68.9773 350.789 69.124C350.525 71.7933 350.393 73.7733 350.393 75.064V85.272C350.393 85.8587 350.569 86.24 350.921 86.416C351.302 86.592 351.801 86.7827 352.417 86.988C353.004 87.2227 353.297 87.4573 353.297 87.692C353.297 87.9853 353.004 88.132 352.417 88.132L348.853 87.912ZM359.638 87.912L356.074 88.132C355.488 88.132 355.194 87.9853 355.194 87.692C355.194 87.516 355.312 87.3693 355.546 87.252C355.781 87.1053 356.03 86.988 356.294 86.9C356.558 86.812 356.72 86.768 356.778 86.768C356.837 86.768 356.984 86.7093 357.218 86.592C357.453 86.4747 357.6 86.372 357.658 86.284C357.952 85.9907 358.098 85.6533 358.098 85.272V75.812C358.098 73.9347 357.497 72.8787 356.294 72.644C356.06 72.5853 355.942 72.3947 355.942 72.072C355.942 71.7493 356.045 71.5733 356.25 71.544C357.776 71.192 359.389 70.3853 361.09 69.124C361.12 69.0947 361.178 69.08 361.266 69.08C361.325 69.08 361.398 69.212 361.486 69.476L361.178 72.336C361.178 72.5413 361.193 72.6587 361.222 72.688C361.78 72.2187 362.454 71.764 363.246 71.324C364.068 70.884 364.948 70.5173 365.886 70.224C366.825 69.9307 367.734 69.784 368.614 69.784C369.494 69.784 370.301 70.0627 371.034 70.62C371.768 71.148 372.354 71.8667 372.794 72.776C373.234 73.6853 373.454 74.7267 373.454 75.9V85.272C373.454 85.8587 373.63 86.24 373.982 86.416C374.364 86.592 374.862 86.7827 375.478 86.988C376.065 87.2227 376.358 87.4573 376.358 87.692C376.358 87.9853 376.065 88.132 375.478 88.132L371.958 87.912L368.35 88.132C367.764 88.132 367.47 87.9853 367.47 87.692C367.47 87.428 367.808 87.1787 368.482 86.944C368.541 86.944 368.6 86.9293 368.658 86.9C369.656 86.5773 370.213 86.1813 370.33 85.712C370.36 85.6533 370.374 85.58 370.374 85.492C370.374 85.404 370.374 85.3307 370.374 85.272V76.032C370.374 74.7707 370.008 73.7733 369.274 73.04C368.541 72.3067 367.47 71.94 366.062 71.94C364.625 71.94 363.452 72.248 362.542 72.864C361.633 73.48 361.178 74.5947 361.178 76.208V85.272C361.178 85.8587 361.354 86.24 361.706 86.416C362.088 86.592 362.586 86.7827 363.202 86.988C363.789 87.2227 364.082 87.4573 364.082 87.692C364.082 87.9853 363.789 88.132 363.202 88.132L359.638 87.912Z" fill="#F8F9FA"/>
<rect x="1.65753" y="1" width="192.947" height="173" rx="35" fill="#2ECC71" stroke="black" stroke-width="2"/>
<path d="M98.1313 88C117.38 88 132.981 74.1227 132.981 57C132.981 39.8773 117.38 26 98.1313 26C78.8825 26 63.282 39.8773 63.282 57C63.282 74.1227 78.8825 88 98.1313 88ZM122.526 95.75H117.979C111.935 98.2203 105.21 99.625 98.1313 99.625C91.0525 99.625 84.3549 98.2203 78.2835 95.75H73.7368C53.5351 95.75 37.145 110.33 37.145 128.3V138.375C37.145 144.793 42.9986 150 50.2135 150H146.049C153.264 150 159.118 144.793 159.118 138.375V128.3C159.118 110.33 142.727 95.75 122.526 95.75Z" fill="#0D1B2A"/>
<path d="M169.096 25.875H167.309V21.0938C167.309 15.5289 162.23 11 155.99 11C149.75 11 144.671 15.5289 144.671 21.0938V25.875H142.884C140.911 25.875 139.31 27.3027 139.31 29.0625V41.8125C139.31 43.5723 140.911 45 142.884 45H169.096C171.069 45 172.67 43.5723 172.67 41.8125V29.0625C172.67 27.3027 171.069 25.875 169.096 25.875ZM161.351 25.875H150.629V21.0938C150.629 18.4574 153.034 16.3125 155.99 16.3125C158.946 16.3125 161.351 18.4574 161.351 21.0938V25.875Z" fill="black"/>
</svg>
