<svg width="207" height="278" viewBox="0 0 207 278" fill="none" xmlns="http://www.w3.org/2000/svg">
<path d="M61.9224 243.967L57.9624 244.165C57.3244 244.165 57.0054 244.022 57.0054 243.736C57.0054 243.45 57.3684 243.197 58.0944 242.977C59.4144 242.581 60.3604 241.734 60.9324 240.436C63.0224 235.618 65.0794 230.448 67.1034 224.926C67.3894 224.222 67.5324 223.716 67.5324 223.408C67.5324 223.144 67.5434 223.012 67.5654 223.012C68.3354 222.748 68.7974 222.528 68.9514 222.352C69.0174 222.264 69.0724 222.198 69.1164 222.154C69.1604 222.088 69.1934 222.033 69.2154 221.989C69.3254 221.791 69.4024 221.692 69.4464 221.692C69.5564 221.692 69.6664 221.846 69.7764 222.154C70.5904 224.706 71.4814 227.456 72.4494 230.404C73.4394 233.33 74.5064 236.454 75.6504 239.776C76.0684 240.986 76.5304 241.811 77.0364 242.251C77.5644 242.669 78.2024 242.944 78.9504 243.076C79.6984 243.208 80.0724 243.461 80.0724 243.835C80.0724 244.055 79.7534 244.165 79.1154 244.165L74.5284 243.967L71.0634 244C70.4254 244 70.1064 243.868 70.1064 243.604C70.1064 243.274 70.4694 243.065 71.1954 242.977C72.5374 242.757 73.2084 242.262 73.2084 241.492C73.2084 240.876 72.7904 239.149 71.9544 236.311C71.8884 236.069 71.5914 235.948 71.0634 235.948H64.7604C64.5184 235.948 64.3314 236.146 64.1994 236.542C63.3194 239.05 62.8794 240.568 62.8794 241.096C62.8794 241.58 63.0554 241.987 63.4074 242.317C63.7814 242.625 64.2874 242.867 64.9254 243.043C65.5634 243.219 65.8824 243.428 65.8824 243.67C65.8824 243.912 65.5634 244.033 64.9254 244.033L61.9224 243.967ZM65.0244 234.298C65.0244 234.452 65.2554 234.529 65.7174 234.529H70.8324C71.1404 234.529 71.2944 234.474 71.2944 234.364L71.2284 234.034L68.6214 226.147C68.4894 225.751 68.4014 225.553 68.3574 225.553C68.2914 225.553 68.1924 225.74 68.0604 226.114L65.0904 234.034L65.0244 234.298ZM83.59 243.934L80.917 244.099C80.477 244.099 80.257 243.989 80.257 243.769C80.257 243.571 80.565 243.373 81.181 243.175C81.819 242.977 82.182 242.768 82.27 242.548C82.38 242.328 82.435 242.13 82.435 241.954V225.322C82.435 223.936 81.929 223.133 80.917 222.913C80.741 222.869 80.653 222.726 80.653 222.484C80.653 222.242 80.73 222.11 80.884 222.088C81.456 221.956 82.732 221.516 84.712 220.768H84.745L84.778 220.735C84.91 220.735 84.976 220.812 84.976 220.966L84.91 221.56C84.866 221.978 84.822 222.517 84.778 223.177C84.756 223.815 84.745 224.574 84.745 225.454V241.954C84.745 242.394 84.877 242.68 85.141 242.812C85.427 242.944 85.801 243.087 86.263 243.241C86.703 243.417 86.923 243.593 86.923 243.769C86.923 243.989 86.703 244.099 86.263 244.099L83.59 243.934ZM99.206 241.657C99.118 242.031 98.843 242.438 98.381 242.878C97.919 243.318 97.314 243.692 96.566 244C95.818 244.308 94.96 244.462 93.992 244.462C93.024 244.462 92.122 244.165 91.286 243.571C90.472 242.955 89.812 242.119 89.306 241.063C88.822 240.007 88.58 238.808 88.58 237.466C88.58 236.124 88.866 234.914 89.438 233.836C90.032 232.758 90.824 231.911 91.814 231.295C92.804 230.657 93.915 230.338 95.147 230.338C96.467 230.338 97.501 230.613 98.249 231.163C99.019 231.713 99.404 232.461 99.404 233.407C99.404 234.353 99.162 234.947 98.678 235.189C98.216 235.409 97.611 235.519 96.863 235.519H91.451C91.143 235.519 90.923 235.596 90.791 235.75C90.681 235.882 90.626 236.212 90.626 236.74C90.626 237.752 90.846 238.698 91.286 239.578C91.726 240.458 92.309 241.162 93.035 241.69C93.783 242.218 94.619 242.482 95.543 242.482C96.885 242.482 97.941 241.998 98.711 241.03C98.865 240.876 98.986 240.799 99.074 240.799C99.228 240.799 99.305 240.909 99.305 241.129C99.305 241.283 99.272 241.459 99.206 241.657ZM91.253 234.001C91.253 234.331 91.462 234.496 91.88 234.496H94.586C95.092 234.496 95.543 234.485 95.939 234.463C96.357 234.419 96.709 234.375 96.995 234.331C97.215 234.309 97.325 233.99 97.325 233.374C97.325 232.78 97.05 232.296 96.5 231.922C95.95 231.548 95.29 231.361 94.52 231.361C93.992 231.361 93.475 231.515 92.969 231.823C92.485 232.109 92.078 232.461 91.748 232.879C91.418 233.275 91.253 233.649 91.253 234.001ZM104.674 243.934L102.001 244.099C101.561 244.099 101.341 243.989 101.341 243.769C101.341 243.571 101.539 243.406 101.935 243.274C102.331 243.142 102.595 243.054 102.727 243.01C102.859 242.944 103.002 242.823 103.156 242.647C103.288 242.471 103.354 242.24 103.354 241.954V234.859C103.354 233.473 102.903 232.681 102.001 232.483C101.825 232.439 101.737 232.296 101.737 232.054C101.737 231.812 101.814 231.68 101.968 231.658C102.782 231.504 103.398 231.284 103.816 230.998C104.19 230.756 104.498 230.558 104.74 230.404C105.004 230.25 105.191 230.129 105.301 230.041C105.543 229.909 105.664 229.832 105.664 229.81H105.763C105.829 229.81 105.873 229.887 105.895 230.041C105.895 230.327 105.895 230.613 105.895 230.899C105.895 231.185 105.884 231.471 105.862 231.757C105.84 232.307 105.84 232.582 105.862 232.582C105.862 232.582 105.917 232.527 106.027 232.417C106.335 232.021 106.533 231.801 106.621 231.757C107.655 230.811 108.667 230.338 109.657 230.338C110.119 230.338 110.493 230.437 110.779 230.635C111.087 230.833 111.241 231.097 111.241 231.427C111.241 231.757 111.098 232.12 110.812 232.516C110.548 232.912 110.295 233.11 110.053 233.11C109.811 233.11 109.459 233.011 108.997 232.813C108.535 232.615 108.194 232.516 107.974 232.516C107.336 232.516 106.786 232.725 106.324 233.143C105.884 233.561 105.664 234.276 105.664 235.288V241.789C105.686 242.361 106.28 242.834 107.446 243.208C107.952 243.384 108.205 243.571 108.205 243.769C108.205 243.989 107.985 244.099 107.545 244.099L104.674 243.934ZM120.975 243.109C120.623 243.439 120.128 243.747 119.49 244.033C118.874 244.319 118.258 244.462 117.642 244.462C116.564 244.462 115.717 244.143 115.101 243.505C114.507 242.845 114.21 241.855 114.21 240.535V232.879C114.21 232.681 114.133 232.549 113.979 232.483C113.825 232.417 113.484 232.384 112.956 232.384C112.89 232.384 112.802 232.296 112.692 232.12C112.604 231.944 112.56 231.812 112.56 231.724C112.56 231.636 112.615 231.559 112.725 231.493C113.231 231.339 113.748 231.02 114.276 230.536C114.804 230.052 115.233 229.601 115.563 229.183C115.893 228.765 116.091 228.556 116.157 228.556C116.465 228.556 116.619 228.666 116.619 228.886L116.553 230.338C116.553 230.646 116.817 230.8 117.345 230.8H121.107C121.327 230.8 121.437 231.064 121.437 231.592C121.437 232.12 121.327 232.384 121.107 232.384H117.84C117.246 232.384 116.872 232.428 116.718 232.516C116.586 232.604 116.52 232.868 116.52 233.308V239.545C116.52 240.667 116.729 241.47 117.147 241.954C117.565 242.416 118.082 242.647 118.698 242.647C119.798 242.647 120.623 242.438 121.173 242.02C121.195 241.998 121.228 241.987 121.272 241.987C121.426 241.987 121.503 242.13 121.503 242.416C121.503 242.592 121.327 242.823 120.975 243.109ZM131.451 240.502C131.451 243.142 129.867 244.462 126.699 244.462C125.885 244.462 125.126 244.319 124.422 244.033C123.718 243.769 123.311 243.516 123.201 243.274C122.937 242.724 122.794 242.053 122.772 241.261C122.772 241.063 122.948 240.964 123.3 240.964C123.63 240.964 123.806 241.041 123.828 241.195C123.916 241.569 124.114 241.943 124.422 242.317C124.752 242.691 125.137 242.999 125.577 243.241C126.039 243.461 126.512 243.571 126.996 243.571C127.7 243.571 128.239 243.362 128.613 242.944C129.009 242.526 129.207 242.009 129.207 241.393C129.207 240.777 129.009 240.26 128.613 239.842C128.217 239.402 127.557 238.852 126.633 238.192C125.687 237.532 124.928 236.894 124.356 236.278C123.806 235.64 123.531 234.87 123.531 233.968C123.531 233.352 123.696 232.769 124.026 232.219C124.356 231.669 124.829 231.218 125.445 230.866C126.061 230.514 126.809 230.338 127.689 230.338C129.009 230.338 129.922 230.591 130.428 231.097C130.802 231.581 130.989 232.439 130.989 233.671C130.989 233.759 130.912 233.803 130.758 233.803C130.604 233.803 130.384 233.726 130.098 233.572C129.812 233.396 129.669 233.242 129.669 233.11C129.647 232.626 129.427 232.186 129.009 231.79C128.591 231.394 128.096 231.196 127.524 231.196C126.93 231.196 126.446 231.394 126.072 231.79C125.698 232.186 125.511 232.648 125.511 233.176C125.511 233.704 125.698 234.188 126.072 234.628C126.446 235.068 126.776 235.376 127.062 235.552C127.194 235.64 127.359 235.761 127.557 235.915C127.777 236.047 128.03 236.201 128.316 236.377C128.69 236.597 128.998 236.795 129.24 236.971C129.504 237.147 129.757 237.356 129.999 237.598C130.241 237.818 130.505 238.137 130.791 238.555C131.231 239.193 131.451 239.842 131.451 240.502ZM38.7038 276.934L35.9648 277.099C35.5248 277.099 35.3048 276.989 35.3048 276.769C35.3048 276.571 35.5578 276.384 36.0638 276.208C37.0098 275.922 37.4828 275.438 37.4828 274.756V265.45C37.1308 265.45 36.8118 265.45 36.5258 265.45C36.2618 265.428 36.0088 265.406 35.7668 265.384C35.7008 265.362 35.6018 265.285 35.4698 265.153C35.3598 265.021 35.3048 264.911 35.3048 264.823C35.3048 264.757 35.3818 264.68 35.5358 264.592C35.7118 264.548 35.9538 264.46 36.2618 264.328C36.5918 264.174 36.9988 263.976 37.4828 263.734C37.4828 261.93 37.7138 260.346 38.1758 258.982C38.6598 257.618 39.2868 256.573 40.0568 255.847C41.5528 254.417 43.1148 253.702 44.7428 253.702C47.1628 253.702 48.3728 254.362 48.3728 255.682C48.3728 256.034 48.2628 256.342 48.0428 256.606C47.8228 256.87 47.5918 257.002 47.3498 257.002C47.1078 257.002 46.8658 256.903 46.6238 256.705C46.3818 256.507 46.1508 256.276 45.9308 256.012C45.7108 255.77 45.3698 255.55 44.9078 255.352C44.4458 255.154 43.9288 255.055 43.3568 255.055C42.2788 255.055 41.4208 255.572 40.7828 256.606C40.1668 257.618 39.8588 259.191 39.8588 261.325V263.074C39.8588 263.558 40.1338 263.8 40.6838 263.8H44.5778C44.6658 263.8 44.7098 263.921 44.7098 264.163C44.7098 264.427 44.6658 264.702 44.5778 264.988C44.4898 265.252 44.3908 265.384 44.2808 265.384H41.1788C40.6288 265.384 40.2768 265.428 40.1228 265.516C39.9468 265.626 39.8588 265.769 39.8588 265.945V274.756C39.8808 275.438 40.3538 275.922 41.2778 276.208C41.7838 276.384 42.0368 276.571 42.0368 276.769C42.0368 276.989 41.8168 277.099 41.3768 277.099L38.7038 276.934ZM48.8575 276.934L46.1845 277.099C45.7445 277.099 45.5245 276.989 45.5245 276.769C45.5245 276.571 45.7225 276.406 46.1185 276.274C46.5145 276.142 46.7785 276.054 46.9105 276.01C47.0425 275.944 47.1855 275.823 47.3395 275.647C47.4715 275.471 47.5375 275.24 47.5375 274.954V267.859C47.5375 266.473 47.0865 265.681 46.1845 265.483C46.0085 265.439 45.9205 265.296 45.9205 265.054C45.9205 264.812 45.9975 264.68 46.1515 264.658C46.9655 264.504 47.5815 264.284 47.9995 263.998C48.3735 263.756 48.6815 263.558 48.9235 263.404C49.1875 263.25 49.3745 263.129 49.4845 263.041C49.7265 262.909 49.8475 262.832 49.8475 262.81H49.9465C50.0125 262.81 50.0565 262.887 50.0785 263.041C50.0785 263.327 50.0785 263.613 50.0785 263.899C50.0785 264.185 50.0675 264.471 50.0455 264.757C50.0235 265.307 50.0235 265.582 50.0455 265.582C50.0455 265.582 50.1005 265.527 50.2105 265.417C50.5185 265.021 50.7165 264.801 50.8045 264.757C51.8385 263.811 52.8505 263.338 53.8405 263.338C54.3025 263.338 54.6765 263.437 54.9625 263.635C55.2705 263.833 55.4245 264.097 55.4245 264.427C55.4245 264.757 55.2815 265.12 54.9955 265.516C54.7315 265.912 54.4785 266.11 54.2365 266.11C53.9945 266.11 53.6425 266.011 53.1805 265.813C52.7185 265.615 52.3775 265.516 52.1575 265.516C51.5195 265.516 50.9695 265.725 50.5075 266.143C50.0675 266.561 49.8475 267.276 49.8475 268.288V274.789C49.8695 275.361 50.4635 275.834 51.6295 276.208C52.1355 276.384 52.3885 276.571 52.3885 276.769C52.3885 276.989 52.1685 277.099 51.7285 277.099L48.8575 276.934ZM70.769 270.169C70.769 271.445 70.472 272.644 69.878 273.766C69.306 274.866 68.459 275.757 67.337 276.439C66.237 277.121 64.895 277.462 63.311 277.462C62.079 277.462 60.957 277.176 59.945 276.604C58.955 276.032 58.174 275.251 57.602 274.261C57.03 273.249 56.744 272.105 56.744 270.829C56.744 269.883 56.931 268.97 57.305 268.09C57.679 267.188 58.196 266.385 58.856 265.681C59.538 264.955 60.308 264.383 61.166 263.965C62.024 263.547 62.937 263.338 63.905 263.338C65.203 263.338 66.369 263.646 67.403 264.262C68.437 264.856 69.251 265.67 69.845 266.704C70.461 267.716 70.769 268.871 70.769 270.169ZM59.45 270.07C59.45 271.192 59.648 272.248 60.044 273.238C60.462 274.206 61.012 274.987 61.694 275.581C62.398 276.175 63.168 276.472 64.004 276.472C65.104 276.472 65.94 276.241 66.512 275.779C67.106 275.295 67.513 274.635 67.733 273.799C67.953 272.941 68.063 271.951 68.063 270.829C68.063 269.685 67.854 268.629 67.436 267.661C67.04 266.671 66.49 265.879 65.786 265.285C65.104 264.669 64.312 264.361 63.41 264.361C60.77 264.361 59.45 266.264 59.45 270.07ZM76.0529 276.934L73.3799 277.099C72.9399 277.099 72.7199 276.989 72.7199 276.769C72.7199 276.637 72.8079 276.527 72.9839 276.439C73.1599 276.329 73.3469 276.241 73.5449 276.175C73.7429 276.109 73.8639 276.076 73.9079 276.076C73.9519 276.076 74.0619 276.032 74.2379 275.944C74.4139 275.856 74.5239 275.779 74.5679 275.713C74.7879 275.493 74.8979 275.24 74.8979 274.954V267.859C74.8979 267.177 74.8099 266.638 74.6339 266.242C74.4579 265.846 74.1169 265.593 73.6109 265.483C73.4349 265.439 73.3469 265.296 73.3469 265.054C73.3469 264.812 73.4239 264.68 73.5779 264.658C74.0839 264.548 74.5899 264.361 75.0959 264.097C75.6239 263.833 76.1629 263.514 76.7129 263.14L77.2079 262.843H77.2409C77.3289 262.843 77.4059 262.909 77.4719 263.041L77.3069 265.153C77.3069 265.373 77.3289 265.505 77.3729 265.549C78.9349 264.075 80.6729 263.338 82.5869 263.338C84.1489 263.338 85.1719 263.998 85.6559 265.318C85.7659 265.56 85.8869 265.681 86.0189 265.681C86.1289 265.681 86.3599 265.472 86.7119 265.054C87.0639 264.658 87.6799 264.273 88.5599 263.899C89.4399 263.525 90.3859 263.338 91.3979 263.338C92.0579 263.338 92.6299 263.547 93.1139 263.965C93.6199 264.383 94.0049 264.944 94.2689 265.648C94.5329 266.33 94.6649 267.089 94.6649 267.925V274.954C94.6649 275.394 94.7969 275.68 95.0609 275.812C95.3469 275.944 95.7209 276.087 96.1829 276.241C96.6229 276.417 96.8429 276.593 96.8429 276.769C96.8429 276.989 96.6229 277.099 96.1829 277.099L93.5759 276.934L90.8369 277.099C90.3969 277.099 90.1769 276.989 90.1769 276.769C90.1769 276.571 90.4299 276.384 90.9359 276.208C90.9799 276.208 91.0239 276.197 91.0679 276.175C91.8159 275.933 92.2339 275.636 92.3219 275.284C92.3439 275.24 92.3549 275.185 92.3549 275.119C92.3549 275.053 92.3549 274.998 92.3549 274.954V268.024C92.3549 267.21 92.0909 266.484 91.5629 265.846C91.0349 265.208 90.4189 264.889 89.7149 264.889C88.5489 264.889 87.6249 265.153 86.9429 265.681C86.2609 266.209 85.9199 267.034 85.9199 268.156V274.954C85.9199 275.196 85.9529 275.35 86.0189 275.416L86.1509 275.614C86.1949 275.702 86.2499 275.757 86.3159 275.779C86.4259 275.801 86.4919 275.834 86.5139 275.878C86.5579 275.922 86.6349 275.955 86.7449 275.977C86.8549 275.999 86.9209 276.032 86.9429 276.076C87.1189 276.164 87.2729 276.208 87.4049 276.208C87.9109 276.384 88.1639 276.571 88.1639 276.769C88.1639 276.989 87.9439 277.099 87.5039 277.099L84.7979 276.934L82.0589 277.099C81.6189 277.099 81.3989 276.989 81.3989 276.769C81.3989 276.571 81.7069 276.373 82.3229 276.175C82.9389 275.977 83.3129 275.768 83.4449 275.548C83.5549 275.328 83.6099 275.13 83.6099 274.954V268.024C83.6099 267.21 83.3459 266.484 82.8179 265.846C82.2899 265.208 81.6739 264.889 80.9699 264.889C79.8039 264.889 78.8799 265.153 78.1979 265.681C77.5379 266.187 77.2079 267.012 77.2079 268.156V274.954C77.2079 275.372 77.3289 275.658 77.5709 275.812C77.8349 275.944 78.0109 276.021 78.0989 276.043C78.9569 276.263 79.3859 276.516 79.3859 276.802C79.3859 277 79.1659 277.099 78.7259 277.099L76.0529 276.934ZM111.348 277L107.718 277.165C107.08 277.165 106.761 277.033 106.761 276.769C106.761 276.549 107.146 276.351 107.916 276.175C108.686 276.043 109.192 275.812 109.434 275.482C109.698 275.13 109.83 274.547 109.83 273.733V258.817C109.83 258.003 109.731 257.442 109.533 257.134C109.335 256.826 108.862 256.606 108.114 256.474C107.366 256.342 106.992 256.122 106.992 255.814C106.992 255.572 107.311 255.451 107.949 255.451L111.348 255.55L114.846 255.451C115.484 255.451 115.803 255.572 115.803 255.814C115.803 256.122 115.44 256.342 114.714 256.474C113.218 256.738 112.47 257.519 112.47 258.817V265.153C112.47 265.351 112.624 265.45 112.932 265.45H125.175C125.329 265.45 125.406 265.318 125.406 265.054V258.784C125.406 257.508 124.68 256.738 123.228 256.474C122.502 256.342 122.139 256.122 122.139 255.814C122.139 255.572 122.458 255.451 123.096 255.451L126.924 255.55L129.927 255.451C130.565 255.451 130.884 255.572 130.884 255.814C130.884 256.122 130.521 256.342 129.795 256.474C129.047 256.606 128.563 256.848 128.343 257.2C128.145 257.53 128.046 258.058 128.046 258.784V273.7C128.046 274.558 128.156 275.163 128.376 275.515C128.596 275.845 129.08 276.076 129.828 276.208C130.576 276.34 130.95 276.527 130.95 276.769C130.95 277.033 130.631 277.165 129.993 277.165L126.561 277L123.03 277.165C122.392 277.165 122.073 277.033 122.073 276.769C122.073 276.527 122.436 276.34 123.162 276.208C124.658 275.9 125.406 275.097 125.406 273.799V267.529C125.406 267.199 125.351 267.034 125.241 267.034H112.635C112.525 267.034 112.47 267.155 112.47 267.397V273.502C112.47 274.184 112.712 274.778 113.196 275.284C113.68 275.768 114.296 276.076 115.044 276.208C115.792 276.34 116.166 276.527 116.166 276.769C116.166 277.033 115.847 277.165 115.209 277.165L111.348 277ZM155.95 276.538C155.95 276.956 155.653 277.253 155.059 277.429C154.487 277.605 153.893 277.693 153.277 277.693C152.243 277.693 151.297 277.462 150.439 277C149.603 276.538 148.855 275.966 148.195 275.284C147.535 274.602 146.963 273.92 146.479 273.238C145.995 272.534 145.599 271.951 145.291 271.489C144.983 271.027 144.697 270.598 144.433 270.202C144.191 269.806 143.982 269.454 143.806 269.146C143.036 267.958 141.661 267.254 139.681 267.034H139.615C139.329 267.034 139.186 267.254 139.186 267.694V273.37C139.186 274.998 139.923 275.944 141.397 276.208C142.123 276.34 142.486 276.527 142.486 276.769C142.486 277.033 142.167 277.165 141.529 277.165C141.221 277.165 140.913 277.154 140.605 277.132C140.297 277.11 140 277.077 139.714 277.033C139.164 276.967 138.691 276.934 138.295 276.934L134.005 277.165C133.367 277.165 133.048 277.033 133.048 276.769C133.048 276.527 133.444 276.329 134.236 276.175C135.028 276.043 135.611 275.801 135.985 275.449C136.359 275.075 136.546 274.492 136.546 273.7V259.774C136.546 258.718 136.414 257.937 136.15 257.431C135.886 256.925 135.369 256.606 134.599 256.474C133.829 256.342 133.444 256.122 133.444 255.814C133.444 255.572 133.763 255.451 134.401 255.451L137.635 255.484L141.43 255.319C146.38 255.319 148.855 257.123 148.855 260.731C148.855 263.107 147.557 264.955 144.961 266.275C144.873 266.319 144.829 266.374 144.829 266.44C144.829 266.462 144.84 266.495 144.862 266.539C144.906 266.583 144.939 266.638 144.961 266.704C145.467 267.452 145.874 268.068 146.182 268.552C146.49 269.014 146.765 269.432 147.007 269.806C147.271 270.158 147.546 270.51 147.832 270.862C148.118 271.214 148.481 271.654 148.921 272.182C149.361 272.71 149.801 273.216 150.241 273.7C150.703 274.184 151.176 274.646 151.66 275.086C152.188 275.548 152.727 275.845 153.277 275.977C153.827 276.109 154.553 276.175 155.455 276.175C155.785 276.175 155.95 276.296 155.95 276.538ZM139.186 264.988C139.186 265.494 139.318 265.813 139.582 265.945C139.846 266.077 140.297 266.143 140.935 266.143C141.925 266.143 142.783 265.923 143.509 265.483C144.257 265.043 144.84 264.438 145.258 263.668C145.676 262.898 145.885 262.04 145.885 261.094C145.885 259.664 145.566 258.509 144.928 257.629C144.312 256.749 143.146 256.309 141.43 256.309C140.594 256.309 140.033 256.463 139.747 256.771C139.483 257.079 139.34 257.519 139.318 258.091C139.274 259.169 139.241 260.28 139.219 261.424C139.197 262.568 139.186 263.756 139.186 264.988Z" fill="white"/>
<rect x="1" y="1" width="204.75" height="198" rx="20" fill="#2ECC71" stroke="#0D1B2A" stroke-width="2"/>
<path d="M164.785 138.425C168.845 146.236 163.749 156 155.641 156H50.0948C41.9709 156 36.8986 146.221 40.9503 138.425L93.7239 36.8557C97.7855 29.041 107.958 29.0552 112.013 36.8557L164.785 138.425ZM102.868 117.426C97.2807 117.426 92.7511 122.454 92.7511 128.656C92.7511 134.859 97.2807 139.887 102.868 139.887C108.456 139.887 112.986 134.859 112.986 128.656C112.986 122.454 108.456 117.426 102.868 117.426ZM93.2629 77.0581L94.8944 110.261C94.9707 111.815 96.128 113.031 97.5297 113.031H108.207C109.609 113.031 110.766 111.815 110.842 110.261L112.474 77.0581C112.556 75.3799 111.352 73.9688 109.838 73.9688H95.898C94.3839 73.9688 93.1804 75.3799 93.2629 77.0581Z" fill="#0D1B2A"/>
</svg>
