<svg width="74" height="65" viewBox="0 0 74 65" fill="none" xmlns="http://www.w3.org/2000/svg">
<path d="M37 63C17.9509 63 2 49.6137 2 32.5C2 15.3863 17.9509 2 37 2C56.0491 2 72 15.3863 72 32.5C72 49.6137 56.0491 63 37 63ZM41.1816 48.5117C41.6857 48.9468 42.5904 48.9375 43.0703 48.5186L43.0781 48.5117L45.3398 46.5576C45.5488 46.3771 45.585 46.2128 45.585 46.1191C45.5849 46.038 45.5579 45.9077 45.416 45.7607L45.3477 45.6963L45.3398 45.6895L31.8203 34.0137L30.0684 32.5L31.8203 30.9863L45.3398 19.3105C45.5488 19.1301 45.5849 18.9658 45.585 18.8721C45.585 18.7909 45.5583 18.6599 45.416 18.5127L45.3477 18.4492L45.3398 18.4424L43.0781 16.4883L42.9785 16.4121C42.4621 16.0562 41.6394 16.0887 41.1895 16.4814L41.1816 16.4883L23.1514 32.0596L23.0811 32.127C22.9343 32.2804 22.9062 32.4162 22.9062 32.5C22.9063 32.5838 22.9343 32.7196 23.0811 32.873L23.1514 32.9404L41.1816 48.5117Z" fill="#2ECC71" stroke="black" stroke-width="4"/>
</svg>
