<svg width="76" height="65" viewBox="0 0 76 65" fill="none" xmlns="http://www.w3.org/2000/svg">
<path d="M37.7283 63C18.3207 63 1.99977 49.651 1.99977 32.5C1.99977 15.349 18.3207 2 37.7283 2C57.1357 2.00017 73.4558 15.3491 73.4558 32.5C73.4558 49.6509 57.1357 62.9998 37.7283 63ZM41.9568 48.4971C42.4939 48.9509 43.4646 48.9418 43.9773 48.5039L43.9851 48.4971L46.2966 46.5439C46.517 46.3577 46.5466 46.1964 46.5466 46.1191C46.5466 46.0524 46.5248 45.9263 46.3767 45.7764L46.3054 45.71L46.2966 45.7031L32.4793 34.0273L30.6716 32.5L32.4793 30.9727L46.2966 19.2969C46.5169 19.1107 46.5466 18.9494 46.5466 18.8721C46.5466 18.8053 46.5253 18.6786 46.3767 18.5283L46.3054 18.4629L46.2966 18.4561L43.9851 16.502L43.8797 16.4229C43.3286 16.0514 42.4454 16.0855 41.9646 16.4961L41.9568 16.5029L23.5281 32.0742C23.3085 32.2599 23.2791 32.4207 23.2791 32.5C23.2791 32.5793 23.3085 32.7401 23.5281 32.9258L41.9568 48.4971Z" fill="#2ECC71" stroke="black" stroke-width="4"/>
</svg>
