<svg width="294" height="81" viewBox="0 0 294 81" fill="none" xmlns="http://www.w3.org/2000/svg">
<rect x="2" y="2" width="289.645" height="77" rx="19" fill="#2ECC71" stroke="black" stroke-width="4"/>
<path d="M48.2451 25.606C47.6738 25.606 47.3247 25.8218 47.1978 26.2534C47.1216 26.52 47.0835 27.7197 47.0835 29.8525V33.5469C47.0835 34.334 47.1533 34.8228 47.293 35.0132C47.4326 35.1909 47.8643 35.2798 48.5879 35.2798H49.3877L49.5591 35.2607L50.7017 35.2036C50.8159 35.1909 50.9238 35.1846 51.0254 35.1846C52.2441 35.1846 53.2661 34.7339 54.0913 33.8325C54.9165 32.9312 55.3291 31.8394 55.3291 30.5571V30.043C55.3291 28.7354 54.8784 27.6753 53.9771 26.8628C53.0884 26.0376 51.9966 25.625 50.7017 25.625L50.3589 25.5869L49.8638 25.5679H48.7212C48.5181 25.5933 48.3594 25.606 48.2451 25.606ZM50.5303 37.2412H48.8926C47.915 37.2412 47.3628 37.3745 47.2358 37.6411C47.1216 37.9077 47.0645 38.7139 47.0645 40.0596V45.5249C47.0645 46.7056 47.2041 47.4292 47.4834 47.6958C47.7754 47.9497 48.5752 48.0767 49.8828 48.0767H51.0063C52.6821 48.0767 54.0405 47.6387 55.0815 46.7627C56.1226 45.874 56.6431 44.7061 56.6431 43.2588V42.2686C56.6431 40.707 56.0718 39.4819 54.9292 38.5933C53.7866 37.6919 52.3203 37.2412 50.5303 37.2412ZM50.0923 23.5303C54.6118 23.5303 57.5127 24.7173 58.7949 27.0913C59.252 27.9292 59.4805 28.894 59.4805 29.9858C59.4805 31.0649 59.2202 32.0171 58.6997 32.8423C58.1919 33.6675 57.7349 34.2451 57.3286 34.5752C56.9351 34.8926 56.5288 35.1782 56.1099 35.4321C55.7036 35.6733 55.5005 35.832 55.5005 35.9082C55.5005 35.9844 56.0083 36.2827 57.0239 36.8032C58.0522 37.311 58.8647 37.9141 59.4614 38.6123C60.5278 39.8818 61.061 41.1895 61.061 42.5352V43.0303C61.061 45.2646 60.147 47.042 58.3188 48.3623C57.6587 48.8447 56.7319 49.27 55.5386 49.6382C54.3579 49.9937 52.9487 50.1714 51.311 50.1714H49.2925L48.7974 50.1523C48.4673 50.1396 48.1309 50.1333 47.7881 50.1333L47.293 50.1143C46.9629 50.1016 46.6328 50.0952 46.3027 50.0952L45.8076 50.0762C45.4775 50.0635 45.1475 50.0571 44.8174 50.0571H43.3511C41.1421 50.0571 40.0376 49.8477 40.0376 49.4287C40.0376 48.9971 40.374 48.5972 41.0469 48.229C41.7324 47.8481 42.1768 47.207 42.3799 46.3057C42.5957 45.3916 42.7036 43.2715 42.7036 39.9453V33.6802L42.6655 31.6997C42.6528 31.3696 42.6465 30.5825 42.6465 29.3384C42.6465 28.0942 42.5259 27.2246 42.2847 26.7295C42.0562 26.2217 41.5928 25.8027 40.8945 25.4727C40.1963 25.1426 39.8472 24.8506 39.8472 24.5967C39.8472 24.2285 40.0249 23.981 40.3804 23.854C40.7358 23.7144 41.8276 23.6445 43.6558 23.6445L48.0737 23.5303H50.0923ZM76.8667 37.6221V37.0317C76.8667 36.0923 76.5303 35.248 75.8574 34.499C75.1846 33.7373 74.3594 33.3564 73.3818 33.3564H73.02C72.8423 33.3818 72.7217 33.3945 72.6582 33.3945C71.7695 33.3945 70.9253 33.9023 70.1255 34.918C69.3384 35.9336 68.9448 37.019 68.9448 38.1743V38.4219C68.9448 38.8281 69.186 39.0312 69.6685 39.0312C69.8589 39.0693 69.9604 39.0884 69.9731 39.0884L70.4111 39.1074H70.5254L70.6587 39.0884L74.334 38.8789L75.0195 38.8027C76.251 38.8027 76.8667 38.4092 76.8667 37.6221ZM68.9448 42.6685C68.9448 44.1157 69.4907 45.3281 70.5825 46.3057C71.6743 47.2832 73.0581 47.772 74.7339 47.772C75.4067 47.772 76.0161 47.6768 76.562 47.4863C77.1206 47.2832 77.7236 47.042 78.3711 46.7627C79.0312 46.4834 79.4438 46.3438 79.6089 46.3438C80.1167 46.3438 80.3706 46.6167 80.3706 47.1626C80.3706 47.8989 79.4312 48.686 77.5522 49.5239C76.3335 50.0698 75.0259 50.3428 73.6294 50.3428H73.2104C70.8237 50.3428 68.8433 49.6191 67.269 48.1719C66.4185 47.3848 65.7583 46.3818 65.2886 45.1631C64.8188 43.9316 64.584 42.6113 64.584 41.2021L64.603 40.7642V40.3262C64.603 39.1074 64.8823 37.9077 65.4409 36.7271C66.0122 35.5464 66.6914 34.5752 67.4785 33.8135C69.1416 32.2139 71.1157 31.4077 73.4009 31.395C76.854 31.395 79.1519 32.7407 80.2944 35.4321C80.6499 36.2827 80.8276 37.0635 80.8276 37.7744V38.1553C80.8276 39.0312 80.4658 39.6216 79.7422 39.9263C79.0186 40.2183 77.311 40.4595 74.6196 40.6499C71.9282 40.8403 70.4683 40.9673 70.2397 41.0308C69.3765 41.2466 68.9448 41.7925 68.9448 42.6685ZM92.2534 32.6138H91.7583C91.0854 32.6138 90.4316 33.001 89.7969 33.7754C89.1621 34.5498 88.8447 35.4512 88.8447 36.4795L88.8066 36.7842L88.7876 37.2603V37.7554L88.8066 37.9077C88.8066 39.228 89.0923 40.2944 89.6636 41.1069C90.2349 41.9194 91.0854 42.3257 92.2153 42.3257H92.3486C93.2246 42.3257 93.9736 41.9829 94.5957 41.2974C95.2178 40.6118 95.5288 39.7041 95.5288 38.5742V37.8315C95.4907 37.5269 95.4717 37.2793 95.4717 37.0889C95.4717 35.8828 95.1353 34.8354 94.4624 33.9468C93.8022 33.0581 93.0659 32.6138 92.2534 32.6138ZM90.5586 49.543C89.6699 49.543 88.9146 49.854 88.2925 50.4761C87.6704 51.0981 87.3594 51.8789 87.3594 52.8184V52.9707C87.3594 54.0498 87.7847 54.9004 88.6353 55.5225C89.4858 56.1445 90.6475 56.4556 92.1201 56.4556H92.6152C94.3926 56.4556 95.8208 56.0493 96.8999 55.2368C97.979 54.4243 98.5186 53.4722 98.5186 52.3804L98.4995 52.228C98.4995 51.5044 98.2012 50.9204 97.6045 50.4761C97.0078 50.0444 96.3032 49.8286 95.4907 49.8286C94.9829 49.7651 94.6147 49.7334 94.3862 49.7334L93.7388 49.6763H93.415L92.2725 49.6001L91.4917 49.543H90.5586ZM102.27 32.4043C102.27 33.1279 101.813 33.5913 100.899 33.7944C99.9849 33.9849 99.5278 34.3594 99.5278 34.918L99.585 35.3179L99.6611 35.7749L99.7563 36.27C99.8198 36.689 99.8516 37.2793 99.8516 38.041C99.8516 38.8027 99.6357 39.5898 99.2041 40.4023C97.998 42.6494 95.6748 43.8809 92.2344 44.0967C91.1299 44.1729 90.4253 44.2681 90.1206 44.3823C89.4604 44.6362 89.1304 45.0615 89.1304 45.6582C89.1304 46.2549 89.6191 46.6738 90.5967 46.915C90.7363 46.9531 91.9995 47.0737 94.3862 47.2769C96.7729 47.4673 98.3662 47.7656 99.166 48.1719C100.854 49.0098 101.699 50.2222 101.699 51.8091C101.699 53.8911 100.766 55.5859 98.8994 56.8936C97.0459 58.2012 94.6147 58.855 91.606 58.855C89.4858 58.855 87.7212 58.4487 86.312 57.6362C85.6646 57.2681 85.1377 56.7856 84.7314 56.189C84.3379 55.605 84.1411 54.9956 84.1411 54.3608C84.1411 53.231 84.4775 52.2915 85.1504 51.5425C86.2295 50.3491 86.769 49.7144 86.769 49.6382C86.769 49.562 86.5342 49.2256 86.0645 48.6289C85.5947 48.0322 85.3599 47.4102 85.3599 46.7627C85.3599 46.1152 85.6646 45.417 86.2739 44.668C86.896 43.9062 87.207 43.481 87.207 43.3921C87.207 43.3032 86.8262 42.6558 86.0645 41.4497C85.3027 40.231 84.9219 39.0757 84.9219 37.9839C84.9219 36.8921 85.1567 35.9209 85.6265 35.0703C86.9595 32.6455 89.4414 31.4331 93.0723 31.4331H93.6245L96.2715 31.6045L97.2427 31.6426C97.5728 31.6553 97.9092 31.6616 98.252 31.6616L100.271 31.5283C101.604 31.5283 102.27 31.8203 102.27 32.4043ZM112.249 25.5488C112.249 26.1074 112.007 26.6279 111.525 27.1104C111.055 27.5801 110.585 27.8149 110.116 27.8149C110.014 27.8403 109.932 27.853 109.868 27.853L109.449 27.8911C108.814 27.8911 108.243 27.6816 107.735 27.2627C107.24 26.8438 106.993 26.3042 106.993 25.644V25.3013C106.993 24.6411 107.253 24.0889 107.773 23.6445C108.307 23.1875 108.916 22.959 109.602 22.959H109.697L110.344 23.0352C110.738 23.0352 111.144 23.251 111.563 23.6826C111.995 24.1016 112.21 24.5269 112.21 24.9585L112.249 25.1299V25.5488ZM106.193 34.042C105.533 33.7246 105.203 33.4263 105.203 33.147C105.203 32.8677 105.336 32.6455 105.603 32.4805C106.529 31.9219 107.996 31.6426 110.001 31.6426H110.554C111.239 31.6426 111.626 31.96 111.715 32.5947C111.766 32.9375 111.792 35.248 111.792 39.5264C111.792 43.792 111.88 46.2422 112.058 46.877C112.236 47.499 112.661 47.9814 113.334 48.3242C114.007 48.6543 114.343 48.9907 114.343 49.3335C114.343 49.8159 112.769 50.0571 109.621 50.0571L109.049 50.0762H106.726C105.799 50.0762 105.336 49.8477 105.336 49.3906C105.336 49.0098 105.615 48.6416 106.174 48.2861C106.745 47.9307 107.139 47.5371 107.354 47.1055C107.596 46.6357 107.716 45.5376 107.716 43.811L107.735 43.2017V42.6113L107.754 41.7163V41.126L107.773 40.5356C107.773 37.5269 107.672 35.7749 107.469 35.2798C107.278 34.772 106.853 34.3594 106.193 34.042ZM120.113 49.8477C118.323 49.8477 117.428 49.5938 117.428 49.0859C117.428 48.667 117.663 48.3242 118.133 48.0576C118.983 47.5752 119.479 47.1436 119.618 46.7627C119.758 46.3691 119.828 44.5347 119.828 41.2593C119.828 37.9712 119.726 36.0479 119.523 35.4893C119.333 34.918 118.977 34.4482 118.457 34.0801C117.936 33.7119 117.676 33.4136 117.676 33.1851C117.676 32.9565 117.847 32.7407 118.19 32.5376C118.99 32.0679 120.259 31.833 121.999 31.833C122.519 31.833 122.925 32.0107 123.217 32.3662C123.319 32.4932 123.458 32.7725 123.636 33.2041C123.827 33.623 123.954 33.8325 124.017 33.8325C124.258 33.8198 124.633 33.6484 125.141 33.3184C126.893 32.1377 128.479 31.5474 129.901 31.5474H129.939H130.549C131.577 31.5474 132.504 31.8013 133.329 32.3091C134.154 32.8169 134.789 33.5786 135.233 34.5942C135.69 35.6099 135.919 37.8252 135.919 41.2402C135.919 44.6426 135.989 46.5469 136.128 46.9531C136.281 47.3467 136.693 47.7148 137.366 48.0576C138.052 48.4004 138.395 48.7368 138.395 49.0669C138.395 49.6382 136.592 49.9238 132.986 49.9238H132.415C131.272 49.9238 130.701 49.6509 130.701 49.105C130.701 48.9907 130.841 48.7178 131.12 48.2861C131.399 47.8418 131.59 47.353 131.691 46.8198C131.793 46.2866 131.844 44.5347 131.844 41.564C131.844 38.5806 131.66 36.6636 131.292 35.813C130.784 34.645 129.939 34.061 128.759 34.061C127.896 34.061 127.058 34.2642 126.245 34.6704C125.445 35.064 124.861 35.6289 124.493 36.3652C124.138 37.0889 123.96 38.8345 123.96 41.6021C123.96 44.3569 124.036 46.0264 124.188 46.6104C124.341 47.1816 124.525 47.645 124.741 48.0005L125.445 49.1431C125.445 49.6382 124.449 49.8857 122.456 49.8857L121.294 49.8477H120.113ZM160.599 49.2573C160.599 49.7524 159.45 50 157.152 50H155.133L154.333 49.9619L153.134 49.9429C151.788 49.9429 151.115 49.7017 151.115 49.2192C151.115 48.8765 151.414 48.5146 152.01 48.1338C152.62 47.7402 153.026 47.2388 153.229 46.6294C153.445 46.0073 153.553 44.1855 153.553 41.1641C153.553 38.1426 153.451 36.3081 153.248 35.6606C153.058 35.0132 152.753 34.5498 152.334 34.2705C151.585 33.7754 151.21 33.4136 151.21 33.1851C151.21 32.9565 151.344 32.7534 151.61 32.5757C152.397 32.0425 153.73 31.7759 155.609 31.7759H155.971C156.695 31.7759 157.209 32.144 157.514 32.8804C157.818 33.604 158.066 33.9658 158.256 33.9658C158.447 33.9658 158.771 33.7881 159.228 33.4326C159.697 33.0771 160.256 32.7217 160.903 32.3662C161.563 32.0107 162.293 31.833 163.093 31.833C163.893 31.833 164.502 32.0425 164.921 32.4614C165.353 32.8677 165.569 33.3945 165.569 34.042C165.556 34.7021 165.385 35.1973 165.055 35.5273C164.725 35.8574 164.369 36.0225 163.988 36.0225C163.607 36.0225 163.106 35.8701 162.484 35.5654C161.862 35.248 161.341 35.0894 160.922 35.0894C160.503 35.0894 160.046 35.2671 159.551 35.6226C159.056 35.9653 158.631 36.5874 158.275 37.4888C157.933 38.3774 157.761 39.9072 157.761 42.0781C157.761 44.2363 157.914 45.6328 158.218 46.2676C158.523 46.8896 158.993 47.4609 159.627 47.9814C160.275 48.502 160.599 48.9272 160.599 49.2573ZM177.947 41.1831H177.623C175.96 41.1831 174.57 41.5576 173.453 42.3066C172.348 43.043 171.796 43.9634 171.796 45.0679V45.4487C171.796 46.0962 171.993 46.6802 172.386 47.2007C172.792 47.7085 173.313 47.9624 173.948 47.9624L174.176 48.0005H174.748C176.068 48.0005 177.147 47.4609 177.985 46.3818C178.353 45.9121 178.537 44.9473 178.537 43.4873C178.537 43.373 178.537 43.2588 178.537 43.1445L178.556 42.6875V42.2305C178.556 41.5322 178.353 41.1831 177.947 41.1831ZM168.692 35.0322C168.692 34.0928 169.435 33.2549 170.92 32.5186C172.418 31.7695 173.967 31.395 175.566 31.395C175.617 31.395 175.668 31.395 175.719 31.395C177.242 31.395 178.461 31.5791 179.375 31.9473C181.229 32.6836 182.289 34.2451 182.555 36.6318C182.581 36.873 182.593 38.4727 182.593 41.4307C182.593 44.376 182.669 46.1025 182.822 46.6104C182.987 47.1182 183.418 47.4927 184.117 47.7339C184.828 47.9751 185.183 48.2036 185.183 48.4194C185.183 48.8765 184.955 49.2256 184.498 49.4668C183.583 49.9492 182.682 50.1904 181.793 50.1904C180.917 50.1904 180.264 49.9873 179.832 49.5811C179.058 48.8574 178.645 48.4956 178.594 48.4956C178.543 48.4956 177.826 48.8193 176.442 49.4668C175.059 50.1016 173.846 50.4189 172.805 50.4189C171.244 50.4189 170.019 49.9873 169.13 49.124C168.241 48.2607 167.797 47.2134 167.797 45.9819V45.5059C167.797 44.1855 168.368 43.0239 169.511 42.021C170.653 41.0181 172.71 40.2373 175.681 39.6787C176.76 39.4756 177.439 39.2852 177.718 39.1074C178.277 38.752 178.556 38.0283 178.556 36.9365C178.556 35.8447 178.264 35.0068 177.68 34.4229C177.096 33.8389 176.315 33.5469 175.338 33.5469C174.36 33.5469 173.415 34.1182 172.5 35.2607C171.599 36.3906 170.774 36.9556 170.025 36.9556C169.136 36.9556 168.692 36.3145 168.692 35.0322ZM196.323 47.4863L199.218 47.0483C199.548 47.0483 199.713 47.3086 199.713 47.8291C199.713 48.3369 199.224 48.8638 198.247 49.4097C197.269 49.9556 196.241 50.2285 195.162 50.2285H194.781C193.93 50.2285 193.162 50.0063 192.477 49.562C191.791 49.1177 191.29 48.5718 190.972 47.9243C190.426 46.7944 190.153 44.6553 190.153 41.5068C190.153 38.3457 190.039 36.3716 189.811 35.5845C189.595 34.7974 189.309 34.2578 188.954 33.9658C188.293 33.4326 187.963 33.1406 187.963 33.0898C187.963 32.7598 188.135 32.4805 188.478 32.252C189.354 31.668 189.83 31.3379 189.906 31.2617C189.995 31.1729 190.483 30.1318 191.372 28.1387C191.816 27.1484 192.318 26.6533 192.876 26.6533C193.448 26.6533 193.829 26.8564 194.019 27.2627C194.07 27.3643 194.178 27.9165 194.343 28.9194C194.521 29.9224 194.768 30.5698 195.085 30.8618C195.403 31.1411 196.107 31.4141 197.199 31.6807C198.291 31.9346 198.837 32.3027 198.837 32.7852C198.837 33.2676 198.234 33.6294 197.028 33.8706C195.822 34.1118 195.092 34.4229 194.838 34.8037C194.394 35.4512 194.171 37.2793 194.171 40.2881C194.171 43.2969 194.311 45.1948 194.59 45.9819C194.946 46.9849 195.523 47.4863 196.323 47.4863ZM209.558 25.5488C209.558 26.1074 209.317 26.6279 208.834 27.1104C208.365 27.5801 207.895 27.8149 207.425 27.8149C207.324 27.8403 207.241 27.853 207.178 27.853L206.759 27.8911C206.124 27.8911 205.553 27.6816 205.045 27.2627C204.55 26.8438 204.302 26.3042 204.302 25.644V25.3013C204.302 24.6411 204.562 24.0889 205.083 23.6445C205.616 23.1875 206.226 22.959 206.911 22.959H207.006L207.654 23.0352C208.047 23.0352 208.454 23.251 208.873 23.6826C209.304 24.1016 209.52 24.5269 209.52 24.9585L209.558 25.1299V25.5488ZM203.502 34.042C202.842 33.7246 202.512 33.4263 202.512 33.147C202.512 32.8677 202.646 32.6455 202.912 32.4805C203.839 31.9219 205.305 31.6426 207.311 31.6426H207.863C208.549 31.6426 208.936 31.96 209.025 32.5947C209.076 32.9375 209.101 35.248 209.101 39.5264C209.101 43.792 209.19 46.2422 209.368 46.877C209.545 47.499 209.971 47.9814 210.644 48.3242C211.316 48.6543 211.653 48.9907 211.653 49.3335C211.653 49.8159 210.079 50.0571 206.93 50.0571L206.359 50.0762H204.036C203.109 50.0762 202.646 49.8477 202.646 49.3906C202.646 49.0098 202.925 48.6416 203.483 48.2861C204.055 47.9307 204.448 47.5371 204.664 47.1055C204.905 46.6357 205.026 45.5376 205.026 43.811L205.045 43.2017V42.6113L205.064 41.7163V41.126L205.083 40.5356C205.083 37.5269 204.981 35.7749 204.778 35.2798C204.588 34.772 204.163 34.3594 203.502 34.042ZM217.423 49.8477C215.633 49.8477 214.738 49.5938 214.738 49.0859C214.738 48.667 214.973 48.3242 215.442 48.0576C216.293 47.5752 216.788 47.1436 216.928 46.7627C217.067 46.3691 217.137 44.5347 217.137 41.2593C217.137 37.9712 217.036 36.0479 216.833 35.4893C216.642 34.918 216.287 34.4482 215.766 34.0801C215.246 33.7119 214.985 33.4136 214.985 33.1851C214.985 32.9565 215.157 32.7407 215.5 32.5376C216.299 32.0679 217.569 31.833 219.308 31.833C219.829 31.833 220.235 32.0107 220.527 32.3662C220.628 32.4932 220.768 32.7725 220.946 33.2041C221.136 33.623 221.263 33.8325 221.327 33.8325C221.568 33.8198 221.942 33.6484 222.45 33.3184C224.202 32.1377 225.789 31.5474 227.211 31.5474H227.249H227.858C228.887 31.5474 229.813 31.8013 230.639 32.3091C231.464 32.8169 232.099 33.5786 232.543 34.5942C233 35.6099 233.229 37.8252 233.229 41.2402C233.229 44.6426 233.298 46.5469 233.438 46.9531C233.59 47.3467 234.003 47.7148 234.676 48.0576C235.361 48.4004 235.704 48.7368 235.704 49.0669C235.704 49.6382 233.901 49.9238 230.296 49.9238H229.725C228.582 49.9238 228.011 49.6509 228.011 49.105C228.011 48.9907 228.15 48.7178 228.43 48.2861C228.709 47.8418 228.899 47.353 229.001 46.8198C229.103 46.2866 229.153 44.5347 229.153 41.564C229.153 38.5806 228.969 36.6636 228.601 35.813C228.093 34.645 227.249 34.061 226.068 34.061C225.205 34.061 224.367 34.2642 223.555 34.6704C222.755 35.064 222.171 35.6289 221.803 36.3652C221.447 37.0889 221.27 38.8345 221.27 41.6021C221.27 44.3569 221.346 46.0264 221.498 46.6104C221.65 47.1816 221.834 47.645 222.05 48.0005L222.755 49.1431C222.755 49.6382 221.758 49.8857 219.765 49.8857L218.604 49.8477H217.423ZM246.425 32.6138H245.93C245.257 32.6138 244.604 33.001 243.969 33.7754C243.334 34.5498 243.017 35.4512 243.017 36.4795L242.979 36.7842L242.959 37.2603V37.7554L242.979 37.9077C242.979 39.228 243.264 40.2944 243.835 41.1069C244.407 41.9194 245.257 42.3257 246.387 42.3257H246.521C247.396 42.3257 248.146 41.9829 248.768 41.2974C249.39 40.6118 249.701 39.7041 249.701 38.5742V37.8315C249.663 37.5269 249.644 37.2793 249.644 37.0889C249.644 35.8828 249.307 34.8354 248.634 33.9468C247.974 33.0581 247.238 32.6138 246.425 32.6138ZM244.73 49.543C243.842 49.543 243.086 49.854 242.464 50.4761C241.842 51.0981 241.531 51.8789 241.531 52.8184V52.9707C241.531 54.0498 241.957 54.9004 242.807 55.5225C243.658 56.1445 244.819 56.4556 246.292 56.4556H246.787C248.564 56.4556 249.993 56.0493 251.072 55.2368C252.151 54.4243 252.69 53.4722 252.69 52.3804L252.671 52.228C252.671 51.5044 252.373 50.9204 251.776 50.4761C251.18 50.0444 250.475 49.8286 249.663 49.8286C249.155 49.7651 248.787 49.7334 248.558 49.7334L247.911 49.6763H247.587L246.444 49.6001L245.664 49.543H244.73ZM256.442 32.4043C256.442 33.1279 255.985 33.5913 255.071 33.7944C254.157 33.9849 253.7 34.3594 253.7 34.918L253.757 35.3179L253.833 35.7749L253.928 36.27C253.992 36.689 254.023 37.2793 254.023 38.041C254.023 38.8027 253.808 39.5898 253.376 40.4023C252.17 42.6494 249.847 43.8809 246.406 44.0967C245.302 44.1729 244.597 44.2681 244.292 44.3823C243.632 44.6362 243.302 45.0615 243.302 45.6582C243.302 46.2549 243.791 46.6738 244.769 46.915C244.908 46.9531 246.171 47.0737 248.558 47.2769C250.945 47.4673 252.538 47.7656 253.338 48.1719C255.026 49.0098 255.871 50.2222 255.871 51.8091C255.871 53.8911 254.938 55.5859 253.071 56.8936C251.218 58.2012 248.787 58.855 245.778 58.855C243.658 58.855 241.893 58.4487 240.484 57.6362C239.836 57.2681 239.31 56.7856 238.903 56.189C238.51 55.605 238.313 54.9956 238.313 54.3608C238.313 53.231 238.649 52.2915 239.322 51.5425C240.401 50.3491 240.941 49.7144 240.941 49.6382C240.941 49.562 240.706 49.2256 240.236 48.6289C239.767 48.0322 239.532 47.4102 239.532 46.7627C239.532 46.1152 239.836 45.417 240.446 44.668C241.068 43.9062 241.379 43.481 241.379 43.3921C241.379 43.3032 240.998 42.6558 240.236 41.4497C239.475 40.231 239.094 39.0757 239.094 37.9839C239.094 36.8921 239.329 35.9209 239.798 35.0703C241.131 32.6455 243.613 31.4331 247.244 31.4331H247.796L250.443 31.6045L251.415 31.6426C251.745 31.6553 252.081 31.6616 252.424 31.6616L254.442 31.5283C255.775 31.5283 256.442 31.8203 256.442 32.4043Z" fill="black"/>
</svg>
