<svg width="143" height="118" viewBox="0 0 143 118" fill="none" xmlns="http://www.w3.org/2000/svg">
<path d="M71.1826 54.8672C75.2292 54.8672 79.0523 57.5849 79.0684 61.5449H79.0693C79.4892 83.2843 74.7758 100.284 71.1387 110.78L71.1377 110.779C70.0802 113.843 66.8167 115.591 63.5742 115.591C60.3281 115.591 58.1184 114.251 56.8838 112.409C55.7136 110.663 55.4716 108.522 56.001 106.986L56.4756 105.585C61.3029 91.0996 63.5845 76.6122 63.2939 61.6035L63.293 61.5889V61.5742C63.293 57.5962 67.1286 54.8672 71.1826 54.8672ZM70.9717 37.1338C86.6309 37.322 100.127 47.6916 100.383 60.8926L100.408 62.9844C100.463 73.4469 99.4396 83.9458 97.3525 94.2236C97.1896 95.0276 96.5299 96.571 95.1348 97.833C93.6678 99.1599 91.4428 100.123 88.3379 99.7012V99.7002C84.3129 99.157 81.0012 95.8958 81.8096 91.9307C83.8642 81.7927 84.8073 71.4276 84.6045 61.1133V61.1123C84.5005 55.6901 78.6162 50.6449 70.748 50.5479C62.157 50.5221 57.6802 55.8174 57.7686 60.376L57.7842 61.4355C57.9011 72.378 56.5959 83.3209 53.8975 93.9746L53.8965 93.9756C52.9334 97.7631 48.649 99.7972 44.6465 99.1299H44.6445C40.634 98.4569 37.4747 95.0694 38.4766 91.1279C40.9258 81.4499 42.1123 71.5051 42.0049 61.5586L41.9902 60.5967C41.7423 47.7566 54.1147 37.1181 70.9551 37.1338H70.9717ZM70.6611 19.3184H70.6602C98.0556 19.6554 121.252 37.7219 121.688 60.2412L121.712 61.8857C121.787 70.1033 121.251 78.3174 120.106 86.4824L120.105 86.4854C119.712 89.2519 116.682 92.8474 111.406 92.3477V92.3486C107.361 91.9728 103.883 88.8644 104.439 84.8799V84.8789L104.645 83.3652C105.566 76.2951 105.997 69.1182 105.932 61.9883L105.91 60.4619C105.625 45.7122 90.0241 32.9723 70.4199 32.7324C67.4401 32.7161 64.5013 32.9606 61.6689 33.5059L61.665 33.5068C57.7091 34.2572 53.3455 32.3317 52.2539 28.584L52.2529 28.5811C51.1212 24.6639 54.1598 21.197 58.1562 20.4238H58.1572L58.9199 20.2812C62.7459 19.5904 66.7043 19.2326 70.6611 19.3184ZM31.7031 33.7832C34.4147 31.3327 38.8201 31.0008 41.998 32.8936L42.3115 33.0898L42.3145 33.0918L42.624 33.3086C44.1353 34.4203 45.0834 35.9688 45.2979 37.6602C45.5277 39.4728 44.8944 41.303 43.4766 42.7256L43.4756 42.7266C38.7299 47.4769 36.3435 53.1695 36.46 59.2061L36.4795 60.8838C36.5141 68.7116 35.7341 76.5525 34.1514 84.2402L33.7998 85.8848C33.6265 86.6684 32.9538 88.1959 31.54 89.4414C30.0561 90.7487 27.8164 91.6882 24.6992 91.2461L24.6914 91.2451C20.6641 90.6514 17.4205 87.3447 18.291 83.3877L18.292 83.3857L18.6074 81.9092C20.029 75.0071 20.73 67.9664 20.6992 60.9336L20.6816 59.4268C20.5027 50.1441 24.357 41.1302 31.4355 34.0371L31.4375 34.0352L31.7031 33.7832ZM129.854 41.7285C133.759 41.0182 137.897 42.8988 139.078 46.4297L139.184 46.7764V46.7773L139.339 47.3682C140.896 53.4289 140.835 58.212 140.788 62.8799V62.8809C140.747 66.8338 136.929 69.5293 132.898 69.5293H132.835C128.781 69.5019 124.969 66.7472 125.009 62.7637V62.7627L125.022 60.8867C125.032 56.6928 124.857 53.6842 123.81 49.8047V49.8057C122.777 45.9963 125.659 42.665 129.48 41.8047L129.854 41.7285ZM70.3164 1.50488H70.3193L71.3936 1.52441C93.9315 2.07655 115.112 11.3192 128.19 26.5059L128.426 26.7949C129.555 28.258 129.947 30.0105 129.587 31.6885C129.206 33.465 128.014 35.0271 126.246 36.04L126.242 36.042C122.796 38.0049 118.01 37.4037 115.466 34.4453V34.4463C105.167 22.4883 88.2208 15.14 70.0967 14.9209V14.9199C55.6298 14.7506 42.1846 19.0504 32.2197 26.9746L31.7471 27.3545C22.1736 35.1612 17.1047 45.4515 17.3154 56.3223L17.3164 56.3438V56.3643L17.2734 61.4932V61.5137L17.2725 61.5352C17.1328 65.4217 13.352 68.036 9.39258 68.0361C9.3503 68.0361 9.26249 68.0338 9.16504 68.0293V68.0312C9.14418 68.0308 9.12338 68.029 9.10254 68.0283C9.09995 68.0281 9.09732 68.0285 9.09473 68.0283V68.0273C5.079 67.9019 1.38975 65.1046 1.50391 61.165H1.50293L1.53516 56.5459L1.52734 55.8545C1.46586 41.359 8.35264 27.8281 20.8076 17.6641V17.6631L21.4248 17.167C34.445 6.81607 51.7303 1.32256 70.3164 1.50488Z" fill="#2ECC71" stroke="black" stroke-width="3"/>
</svg>
