<svg width="207" height="286" viewBox="0 0 207 286" fill="none" xmlns="http://www.w3.org/2000/svg">
<path d="M62.5818 243C62.5818 243 62.2188 243.011 61.4928 243.033C60.7888 243.077 59.7218 243.121 58.2918 243.165C57.6538 243.165 57.3348 243.033 57.3348 242.769C57.3348 242.527 57.7418 242.329 58.5558 242.175C59.3478 242.043 59.9528 241.79 60.3708 241.416C60.7888 241.042 60.9978 240.481 60.9978 239.733V224.883C60.9978 224.091 60.8328 223.508 60.5028 223.134C60.1728 222.76 59.6228 222.54 58.8528 222.474C58.0828 222.408 57.6978 222.188 57.6978 221.814C57.6978 221.572 58.0168 221.451 58.6548 221.451L62.0868 221.484L65.7498 221.319C68.2358 221.319 70.0728 221.704 71.2608 222.474C72.4708 223.222 73.0758 224.476 73.0758 226.236C73.0758 227.138 72.9108 227.897 72.5808 228.513C72.2508 229.107 71.8328 229.591 71.3268 229.965C70.8208 230.317 70.2928 230.603 69.7428 230.823C69.6548 230.845 69.6108 230.9 69.6108 230.988C69.6108 231.076 69.6548 231.131 69.7428 231.153C72.0308 231.857 73.4498 232.891 73.9998 234.255C74.2858 234.893 74.4288 235.663 74.4288 236.565C74.4288 238.281 74.0218 239.568 73.2078 240.426C72.7678 240.866 72.4158 241.174 72.1518 241.35C70.4358 242.538 68.2908 243.132 65.7168 243.132L62.5818 243ZM63.5718 229.536C63.5718 230.35 64.0778 230.757 65.0898 230.757C66.4538 230.757 67.6748 230.438 68.7528 229.8C69.1048 229.602 69.4348 229.239 69.7428 228.711C70.0728 228.183 70.2378 227.413 70.2378 226.401C70.2378 225.719 70.0948 225.07 69.8088 224.454C69.5228 223.838 69.0498 223.332 68.3898 222.936C67.7518 222.518 66.8718 222.309 65.7498 222.309C64.8918 222.309 64.3088 222.43 64.0008 222.672C63.7148 222.892 63.5718 223.266 63.5718 223.794V229.536ZM63.5718 239.436C63.5718 240.316 63.7808 240.932 64.1988 241.284C64.6168 241.614 65.2768 241.779 66.1788 241.779C67.0588 241.779 67.8838 241.559 68.6538 241.119C69.4458 240.657 70.0838 240.052 70.5678 239.304C71.0738 238.534 71.3268 237.687 71.3268 236.763C71.3268 235.465 71.0188 234.453 70.4028 233.727C69.7868 232.979 69.0278 232.451 68.1258 232.143C67.2238 231.835 66.3328 231.681 65.4528 231.681C64.8148 231.681 64.3418 231.813 64.0338 232.077C63.7258 232.319 63.5718 232.583 63.5718 232.869V239.436ZM80.0759 242.934L77.4029 243.099C76.9629 243.099 76.7429 242.989 76.7429 242.769C76.7429 242.571 76.9409 242.406 77.3369 242.274C77.7329 242.142 77.9969 242.054 78.1289 242.01C78.2609 241.944 78.4039 241.823 78.5579 241.647C78.6899 241.471 78.7559 241.24 78.7559 240.954V233.859C78.7559 232.473 78.3049 231.681 77.4029 231.483C77.2269 231.439 77.1389 231.296 77.1389 231.054C77.1389 230.812 77.2159 230.68 77.3699 230.658C78.1839 230.504 78.7999 230.284 79.2179 229.998C79.5919 229.756 79.8999 229.558 80.1419 229.404C80.4059 229.25 80.5929 229.129 80.7029 229.041C80.9449 228.909 81.0659 228.832 81.0659 228.81H81.1649C81.2309 228.81 81.2749 228.887 81.2969 229.041C81.2969 229.327 81.2969 229.613 81.2969 229.899C81.2969 230.185 81.2859 230.471 81.2639 230.757C81.2419 231.307 81.2419 231.582 81.2639 231.582C81.2639 231.582 81.3189 231.527 81.4289 231.417C81.7369 231.021 81.9349 230.801 82.0229 230.757C83.0569 229.811 84.0689 229.338 85.0589 229.338C85.5209 229.338 85.8949 229.437 86.1809 229.635C86.4889 229.833 86.6429 230.097 86.6429 230.427C86.6429 230.757 86.4999 231.12 86.2139 231.516C85.9499 231.912 85.6969 232.11 85.4549 232.11C85.2129 232.11 84.8609 232.011 84.3989 231.813C83.9369 231.615 83.5959 231.516 83.3759 231.516C82.7379 231.516 82.1879 231.725 81.7259 232.143C81.2859 232.561 81.0659 233.276 81.0659 234.288V240.789C81.0879 241.361 81.6819 241.834 82.8479 242.208C83.3539 242.384 83.6069 242.571 83.6069 242.769C83.6069 242.989 83.3869 243.099 82.9469 243.099L80.0759 242.934ZM94.2654 242.175C93.9574 242.461 93.4954 242.747 92.8794 243.033C92.2854 243.319 91.6254 243.462 90.8994 243.462C90.4154 243.462 89.9424 243.33 89.4804 243.066C89.0404 242.824 88.6774 242.505 88.3914 242.109C88.1054 241.691 87.9624 241.273 87.9624 240.855C87.9624 239.535 88.7654 238.545 90.3714 237.885L93.7374 236.499C94.1554 236.323 94.4084 236.169 94.4964 236.037C94.5844 235.905 94.6394 235.619 94.6614 235.179L94.7274 233.133V233.067C94.7274 232.495 94.5404 232 94.1664 231.582C93.8144 231.164 93.4074 230.955 92.9454 230.955C92.4614 230.955 92.0104 231.076 91.5924 231.318C91.1744 231.538 90.9104 231.747 90.8004 231.945C90.6904 232.165 90.6354 232.396 90.6354 232.638L90.6684 233.1C90.6684 233.232 90.5144 233.386 90.2064 233.562C89.8984 233.738 89.5684 233.903 89.2164 234.057C88.8644 234.189 88.6114 234.255 88.4574 234.255C88.2374 234.255 88.1274 234.156 88.1274 233.958C88.1274 233.452 88.3034 232.968 88.6554 232.506C89.0074 232.044 89.4584 231.604 90.0084 231.186C90.5804 230.768 91.1744 230.394 91.7904 230.064C92.6924 229.58 93.5504 229.338 94.3644 229.338C95.1344 229.338 95.7834 229.624 96.3114 230.196C96.8394 230.768 97.0924 231.461 97.0704 232.275L96.9054 239.403V239.601C96.9054 241.163 97.3014 241.944 98.0934 241.944C98.6214 241.944 99.0614 241.79 99.4134 241.482C99.4574 241.438 99.5124 241.416 99.5784 241.416C99.6664 241.416 99.7434 241.449 99.8094 241.515C99.8974 241.581 99.9414 241.669 99.9414 241.779V241.812C99.8534 241.988 99.6664 242.208 99.3804 242.472C99.0944 242.736 98.7644 242.967 98.3904 243.165C98.0164 243.363 97.6534 243.462 97.3014 243.462C96.7514 243.462 96.2894 243.319 95.9154 243.033C95.5634 242.747 95.3104 242.461 95.1564 242.175C95.0024 241.889 94.9034 241.746 94.8594 241.746C94.7494 241.746 94.5514 241.889 94.2654 242.175ZM90.6024 240.129C90.6024 240.701 90.7784 241.152 91.1304 241.482C91.4824 241.79 91.9114 241.944 92.4174 241.944C92.9234 241.944 93.4074 241.746 93.8694 241.35C94.3314 240.954 94.5734 240.415 94.5954 239.733L94.6614 238.116V237.951C94.6614 237.599 94.5624 237.423 94.3644 237.423C94.2324 237.423 94.0784 237.456 93.9024 237.522C91.7024 238.27 90.6024 239.139 90.6024 240.129ZM104.113 242.934L101.44 243.099C101 243.099 100.78 242.989 100.78 242.769C100.78 242.637 100.868 242.527 101.044 242.439C101.22 242.329 101.407 242.241 101.605 242.175C101.803 242.109 101.924 242.076 101.968 242.076C102.012 242.076 102.122 242.032 102.298 241.944C102.474 241.856 102.584 241.779 102.628 241.713C102.848 241.493 102.958 241.24 102.958 240.954V233.859C102.958 232.451 102.507 231.659 101.605 231.483C101.429 231.439 101.341 231.296 101.341 231.054C101.341 230.812 101.418 230.68 101.572 230.658C102.716 230.394 103.926 229.789 105.202 228.843C105.224 228.821 105.268 228.81 105.334 228.81C105.378 228.81 105.433 228.909 105.499 229.107L105.268 231.252C105.268 231.406 105.279 231.494 105.301 231.516C105.719 231.164 106.225 230.823 106.819 230.493C107.435 230.163 108.095 229.888 108.799 229.668C109.503 229.448 110.185 229.338 110.845 229.338C111.505 229.338 112.11 229.547 112.66 229.965C113.21 230.361 113.65 230.9 113.98 231.582C114.31 232.264 114.475 233.045 114.475 233.925V240.954C114.475 241.394 114.607 241.68 114.871 241.812C115.157 241.944 115.531 242.087 115.993 242.241C116.433 242.417 116.653 242.593 116.653 242.769C116.653 242.989 116.433 243.099 115.993 243.099L113.353 242.934L110.647 243.099C110.207 243.099 109.987 242.989 109.987 242.769C109.987 242.571 110.24 242.384 110.746 242.208C110.79 242.208 110.834 242.197 110.878 242.175C111.626 241.933 112.044 241.636 112.132 241.284C112.154 241.24 112.165 241.185 112.165 241.119C112.165 241.053 112.165 240.998 112.165 240.954V234.024C112.165 233.078 111.89 232.33 111.34 231.78C110.79 231.23 109.987 230.955 108.931 230.955C107.853 230.955 106.973 231.186 106.291 231.648C105.609 232.11 105.268 232.946 105.268 234.156V240.954C105.268 241.394 105.4 241.68 105.664 241.812C105.95 241.944 106.324 242.087 106.786 242.241C107.226 242.417 107.446 242.593 107.446 242.769C107.446 242.989 107.226 243.099 106.786 243.099L104.113 242.934ZM129.666 240.393C129.666 240.833 129.402 241.295 128.874 241.779C128.346 242.241 127.642 242.637 126.762 242.967C125.904 243.297 124.98 243.462 123.99 243.462C123 243.462 122.087 243.176 121.251 242.604C120.437 242.01 119.777 241.218 119.271 240.228C118.787 239.216 118.545 238.072 118.545 236.796C118.545 235.52 118.853 234.321 119.469 233.199C120.085 232.055 120.91 231.131 121.944 230.427C122.978 229.723 124.122 229.371 125.376 229.371C127.246 229.371 128.61 229.899 129.468 230.955C129.578 231.131 129.633 231.296 129.633 231.45C129.633 231.648 129.468 231.868 129.138 232.11C128.83 232.352 128.544 232.473 128.28 232.473C128.016 232.473 127.774 232.363 127.554 232.143C127.158 231.703 126.828 231.373 126.564 231.153C126.3 230.933 126.014 230.79 125.706 230.724C125.398 230.636 124.98 230.592 124.452 230.592C123.308 230.592 122.417 231.087 121.779 232.077C121.141 233.045 120.822 234.277 120.822 235.773C120.822 236.763 121.042 237.72 121.482 238.644C121.944 239.546 122.571 240.294 123.363 240.888C124.155 241.46 125.057 241.746 126.069 241.746C126.729 241.746 127.257 241.625 127.653 241.383C128.071 241.119 128.511 240.69 128.973 240.096C129.083 239.986 129.182 239.931 129.27 239.931C129.358 239.931 129.446 239.986 129.534 240.096C129.622 240.184 129.666 240.283 129.666 240.393ZM133.79 242.934L131.117 243.099C130.677 243.099 130.457 242.989 130.457 242.769C130.457 242.571 130.655 242.406 131.051 242.274C131.447 242.142 131.81 241.999 132.14 241.845C132.47 241.691 132.635 241.361 132.635 240.855V224.322C132.635 222.914 132.14 222.111 131.15 221.913C130.974 221.869 130.886 221.726 130.886 221.484C130.886 221.242 130.963 221.11 131.117 221.088C131.689 220.956 132.965 220.516 134.945 219.768L135.011 219.735C135.143 219.735 135.209 219.867 135.209 220.131C135.209 220.263 135.198 220.362 135.176 220.428C135.088 220.912 135.022 221.495 134.978 222.177C134.956 222.837 134.945 223.596 134.945 224.454V230.196C134.945 230.768 135.033 231.175 135.209 231.417C137.101 230.031 138.762 229.338 140.192 229.338C141.27 229.338 142.161 229.767 142.865 230.625C143.591 231.483 143.954 232.55 143.954 233.826V240.756C143.954 241.46 144.405 241.944 145.307 242.208C145.813 242.384 146.066 242.571 146.066 242.769C146.066 242.989 145.846 243.099 145.406 243.099L142.832 242.934L140.258 243.099C139.818 243.099 139.598 242.989 139.598 242.769C139.598 242.571 139.851 242.384 140.357 242.208C141.215 241.944 141.644 241.46 141.644 240.756V234.024C141.644 233.496 141.49 233.012 141.182 232.572C140.874 232.11 140.489 231.747 140.027 231.483C139.565 231.197 139.081 231.054 138.575 231.054C137.365 231.054 136.452 231.296 135.836 231.78C135.484 232.066 135.242 232.374 135.11 232.704C135 233.012 134.945 233.496 134.945 234.156V240.855C134.989 241.537 135.407 241.988 136.199 242.208C136.705 242.384 136.958 242.571 136.958 242.769C136.958 242.989 136.738 243.099 136.298 243.099L133.79 242.934ZM61.4104 275.175C61.1024 275.461 60.6404 275.747 60.0244 276.033C59.4304 276.319 58.7704 276.462 58.0444 276.462C57.5604 276.462 57.0874 276.33 56.6254 276.066C56.1854 275.824 55.8224 275.505 55.5364 275.109C55.2504 274.691 55.1074 274.273 55.1074 273.855C55.1074 272.535 55.9104 271.545 57.5164 270.885L60.8824 269.499C61.3004 269.323 61.5534 269.169 61.6414 269.037C61.7294 268.905 61.7844 268.619 61.8064 268.179L61.8724 266.133V266.067C61.8724 265.495 61.6854 265 61.3114 264.582C60.9594 264.164 60.5524 263.955 60.0904 263.955C59.6064 263.955 59.1554 264.076 58.7374 264.318C58.3194 264.538 58.0554 264.747 57.9454 264.945C57.8354 265.165 57.7804 265.396 57.7804 265.638L57.8134 266.1C57.8134 266.232 57.6594 266.386 57.3514 266.562C57.0434 266.738 56.7134 266.903 56.3614 267.057C56.0094 267.189 55.7564 267.255 55.6024 267.255C55.3824 267.255 55.2724 267.156 55.2724 266.958C55.2724 266.452 55.4484 265.968 55.8004 265.506C56.1524 265.044 56.6034 264.604 57.1534 264.186C57.7254 263.768 58.3194 263.394 58.9354 263.064C59.8374 262.58 60.6954 262.338 61.5094 262.338C62.2794 262.338 62.9284 262.624 63.4564 263.196C63.9844 263.768 64.2374 264.461 64.2154 265.275L64.0504 272.403V272.601C64.0504 274.163 64.4464 274.944 65.2384 274.944C65.7664 274.944 66.2064 274.79 66.5584 274.482C66.6024 274.438 66.6574 274.416 66.7234 274.416C66.8114 274.416 66.8884 274.449 66.9544 274.515C67.0424 274.581 67.0864 274.669 67.0864 274.779V274.812C66.9984 274.988 66.8114 275.208 66.5254 275.472C66.2394 275.736 65.9094 275.967 65.5354 276.165C65.1614 276.363 64.7984 276.462 64.4464 276.462C63.8964 276.462 63.4344 276.319 63.0604 276.033C62.7084 275.747 62.4554 275.461 62.3014 275.175C62.1474 274.889 62.0484 274.746 62.0044 274.746C61.8944 274.746 61.6964 274.889 61.4104 275.175ZM57.7474 273.129C57.7474 273.701 57.9234 274.152 58.2754 274.482C58.6274 274.79 59.0564 274.944 59.5624 274.944C60.0684 274.944 60.5524 274.746 61.0144 274.35C61.4764 273.954 61.7184 273.415 61.7404 272.733L61.8064 271.116V270.951C61.8064 270.599 61.7074 270.423 61.5094 270.423C61.3774 270.423 61.2234 270.456 61.0474 270.522C58.8474 271.27 57.7474 272.139 57.7474 273.129ZM71.2581 275.934L68.5851 276.099C68.1451 276.099 67.9251 275.989 67.9251 275.769C67.9251 275.637 68.0131 275.527 68.1891 275.439C68.3651 275.329 68.5521 275.241 68.7501 275.175C68.9481 275.109 69.0691 275.076 69.1131 275.076C69.1571 275.076 69.2671 275.032 69.4431 274.944C69.6191 274.856 69.7291 274.779 69.7731 274.713C69.9931 274.493 70.1031 274.24 70.1031 273.954V266.859C70.1031 265.451 69.6521 264.659 68.7501 264.483C68.5741 264.439 68.4861 264.296 68.4861 264.054C68.4861 263.812 68.5631 263.68 68.7171 263.658C69.8611 263.394 71.0711 262.789 72.3471 261.843C72.3691 261.821 72.4131 261.81 72.4791 261.81C72.5231 261.81 72.5781 261.909 72.6441 262.107L72.4131 264.252C72.4131 264.406 72.4241 264.494 72.4461 264.516C72.8641 264.164 73.3701 263.823 73.9641 263.493C74.5801 263.163 75.2401 262.888 75.9441 262.668C76.6481 262.448 77.3301 262.338 77.9901 262.338C78.6501 262.338 79.2551 262.547 79.8051 262.965C80.3551 263.361 80.7951 263.9 81.1251 264.582C81.4551 265.264 81.6201 266.045 81.6201 266.925V273.954C81.6201 274.394 81.7521 274.68 82.0161 274.812C82.3021 274.944 82.6761 275.087 83.1381 275.241C83.5781 275.417 83.7981 275.593 83.7981 275.769C83.7981 275.989 83.5781 276.099 83.1381 276.099L80.4981 275.934L77.7921 276.099C77.3521 276.099 77.1321 275.989 77.1321 275.769C77.1321 275.571 77.3851 275.384 77.8911 275.208C77.9351 275.208 77.9791 275.197 78.0231 275.175C78.7711 274.933 79.1891 274.636 79.2771 274.284C79.2991 274.24 79.3101 274.185 79.3101 274.119C79.3101 274.053 79.3101 273.998 79.3101 273.954V267.024C79.3101 266.078 79.0351 265.33 78.4851 264.78C77.9351 264.23 77.1321 263.955 76.0761 263.955C74.9981 263.955 74.1181 264.186 73.4361 264.648C72.7541 265.11 72.4131 265.946 72.4131 267.156V273.954C72.4131 274.394 72.5451 274.68 72.8091 274.812C73.0951 274.944 73.4691 275.087 73.9311 275.241C74.3711 275.417 74.5911 275.593 74.5911 275.769C74.5911 275.989 74.3711 276.099 73.9311 276.099L71.2581 275.934ZM91.9934 275.175C91.6854 275.461 91.2234 275.747 90.6074 276.033C90.0134 276.319 89.3534 276.462 88.6274 276.462C88.1434 276.462 87.6704 276.33 87.2084 276.066C86.7684 275.824 86.4054 275.505 86.1194 275.109C85.8334 274.691 85.6904 274.273 85.6904 273.855C85.6904 272.535 86.4934 271.545 88.0994 270.885L91.4654 269.499C91.8834 269.323 92.1364 269.169 92.2244 269.037C92.3124 268.905 92.3674 268.619 92.3894 268.179L92.4554 266.133V266.067C92.4554 265.495 92.2684 265 91.8944 264.582C91.5424 264.164 91.1354 263.955 90.6734 263.955C90.1894 263.955 89.7384 264.076 89.3204 264.318C88.9024 264.538 88.6384 264.747 88.5284 264.945C88.4184 265.165 88.3634 265.396 88.3634 265.638L88.3964 266.1C88.3964 266.232 88.2424 266.386 87.9344 266.562C87.6264 266.738 87.2964 266.903 86.9444 267.057C86.5924 267.189 86.3394 267.255 86.1854 267.255C85.9654 267.255 85.8554 267.156 85.8554 266.958C85.8554 266.452 86.0314 265.968 86.3834 265.506C86.7354 265.044 87.1864 264.604 87.7364 264.186C88.3084 263.768 88.9024 263.394 89.5184 263.064C90.4204 262.58 91.2784 262.338 92.0924 262.338C92.8624 262.338 93.5114 262.624 94.0394 263.196C94.5674 263.768 94.8204 264.461 94.7984 265.275L94.6334 272.403V272.601C94.6334 274.163 95.0294 274.944 95.8214 274.944C96.3494 274.944 96.7894 274.79 97.1414 274.482C97.1854 274.438 97.2404 274.416 97.3064 274.416C97.3944 274.416 97.4714 274.449 97.5374 274.515C97.6254 274.581 97.6694 274.669 97.6694 274.779V274.812C97.5814 274.988 97.3944 275.208 97.1084 275.472C96.8224 275.736 96.4924 275.967 96.1184 276.165C95.7444 276.363 95.3814 276.462 95.0294 276.462C94.4794 276.462 94.0174 276.319 93.6434 276.033C93.2914 275.747 93.0384 275.461 92.8844 275.175C92.7304 274.889 92.6314 274.746 92.5874 274.746C92.4774 274.746 92.2794 274.889 91.9934 275.175ZM88.3304 273.129C88.3304 273.701 88.5064 274.152 88.8584 274.482C89.2104 274.79 89.6394 274.944 90.1454 274.944C90.6514 274.944 91.1354 274.746 91.5974 274.35C92.0594 273.954 92.3014 273.415 92.3234 272.733L92.3894 271.116V270.951C92.3894 270.599 92.2904 270.423 92.0924 270.423C91.9604 270.423 91.8064 270.456 91.6304 270.522C89.4304 271.27 88.3304 272.139 88.3304 273.129ZM101.676 275.934L99.0031 276.099C98.5631 276.099 98.3431 275.989 98.3431 275.769C98.3431 275.571 98.6511 275.373 99.2671 275.175C99.9051 274.977 100.268 274.768 100.356 274.548C100.466 274.328 100.521 274.13 100.521 273.954V257.322C100.521 255.936 100.015 255.133 99.0031 254.913C98.8271 254.869 98.7391 254.726 98.7391 254.484C98.7391 254.242 98.8161 254.11 98.9701 254.088C99.5421 253.956 100.818 253.516 102.798 252.768H102.831L102.864 252.735C102.996 252.735 103.062 252.812 103.062 252.966L102.996 253.56C102.952 253.978 102.908 254.517 102.864 255.177C102.842 255.815 102.831 256.574 102.831 257.454V273.954C102.831 274.394 102.963 274.68 103.227 274.812C103.513 274.944 103.887 275.087 104.349 275.241C104.789 275.417 105.009 275.593 105.009 275.769C105.009 275.989 104.789 276.099 104.349 276.099L101.676 275.934ZM111.286 280.818C110.956 281.632 110.648 282.391 110.362 283.095C110.098 283.799 109.779 284.36 109.405 284.778C109.031 285.196 108.492 285.405 107.788 285.405C107.37 285.405 106.985 285.295 106.633 285.075C106.281 284.855 106.105 284.569 106.105 284.217C106.105 283.557 106.402 283.227 106.996 283.227L108.316 283.425C108.558 283.425 108.767 283.304 108.943 283.062C109.449 282.182 109.955 281.192 110.461 280.092C110.967 279.014 111.462 277.826 111.946 276.528C112.012 276.33 112.045 276.055 112.045 275.703C112.045 275.307 112.001 275.01 111.913 274.812L108.085 265.143C107.711 264.219 107.216 263.68 106.6 263.526C106.094 263.35 105.841 263.152 105.841 262.932C105.841 262.734 106.061 262.635 106.501 262.635L108.91 262.8L111.418 262.635C111.858 262.635 112.078 262.756 112.078 262.998C112.078 263.306 111.759 263.548 111.121 263.724C110.681 263.856 110.461 264.208 110.461 264.78C110.461 264.934 110.549 265.242 110.725 265.704L113.332 272.172C113.398 272.37 113.475 272.469 113.563 272.469C113.651 272.469 113.739 272.359 113.827 272.139L116.038 266.265C116.214 265.847 116.302 265.374 116.302 264.846C116.302 264.296 116.038 263.911 115.51 263.691C114.96 263.471 114.685 263.24 114.685 262.998C114.685 262.756 114.905 262.635 115.345 262.635L117.688 262.8L119.635 262.635C120.075 262.635 120.295 262.734 120.295 262.932C120.295 263.152 120.086 263.328 119.668 263.46C119.25 263.614 118.854 263.9 118.48 264.318C118.106 264.736 117.809 265.209 117.589 265.737L113.101 276.429L112.573 277.749C112.221 278.563 111.792 279.586 111.286 280.818ZM129.815 272.502C129.815 275.142 128.231 276.462 125.063 276.462C124.249 276.462 123.49 276.319 122.786 276.033C122.082 275.769 121.675 275.516 121.565 275.274C121.301 274.724 121.158 274.053 121.136 273.261C121.136 273.063 121.312 272.964 121.664 272.964C121.994 272.964 122.17 273.041 122.192 273.195C122.28 273.569 122.478 273.943 122.786 274.317C123.116 274.691 123.501 274.999 123.941 275.241C124.403 275.461 124.876 275.571 125.36 275.571C126.064 275.571 126.603 275.362 126.977 274.944C127.373 274.526 127.571 274.009 127.571 273.393C127.571 272.777 127.373 272.26 126.977 271.842C126.581 271.402 125.921 270.852 124.997 270.192C124.051 269.532 123.292 268.894 122.72 268.278C122.17 267.64 121.895 266.87 121.895 265.968C121.895 265.352 122.06 264.769 122.39 264.219C122.72 263.669 123.193 263.218 123.809 262.866C124.425 262.514 125.173 262.338 126.053 262.338C127.373 262.338 128.286 262.591 128.792 263.097C129.166 263.581 129.353 264.439 129.353 265.671C129.353 265.759 129.276 265.803 129.122 265.803C128.968 265.803 128.748 265.726 128.462 265.572C128.176 265.396 128.033 265.242 128.033 265.11C128.011 264.626 127.791 264.186 127.373 263.79C126.955 263.394 126.46 263.196 125.888 263.196C125.294 263.196 124.81 263.394 124.436 263.79C124.062 264.186 123.875 264.648 123.875 265.176C123.875 265.704 124.062 266.188 124.436 266.628C124.81 267.068 125.14 267.376 125.426 267.552C125.558 267.64 125.723 267.761 125.921 267.915C126.141 268.047 126.394 268.201 126.68 268.377C127.054 268.597 127.362 268.795 127.604 268.971C127.868 269.147 128.121 269.356 128.363 269.598C128.605 269.818 128.869 270.137 129.155 270.555C129.595 271.193 129.815 271.842 129.815 272.502ZM136.39 257.421C136.368 257.883 136.203 258.268 135.895 258.576C135.587 258.884 135.191 259.049 134.707 259.071C134.223 259.049 133.827 258.884 133.519 258.576C133.211 258.268 133.057 257.872 133.057 257.388C133.057 256.904 133.211 256.508 133.519 256.2C133.827 255.892 134.223 255.738 134.707 255.738C135.191 255.738 135.587 255.892 135.895 256.2C136.203 256.508 136.368 256.915 136.39 257.421ZM134.938 275.934L132.265 276.099C131.825 276.099 131.605 275.989 131.605 275.769C131.605 275.571 131.913 275.373 132.529 275.175C133.167 274.977 133.53 274.768 133.618 274.548C133.728 274.328 133.783 274.13 133.783 273.954V266.793C133.783 265.429 133.266 264.626 132.232 264.384C132.056 264.34 131.968 264.197 131.968 263.955C131.968 263.713 132.045 263.581 132.199 263.559C133.255 263.295 134.377 262.778 135.565 262.008C135.917 261.788 136.115 261.678 136.159 261.678C136.313 261.678 136.39 261.733 136.39 261.843C136.192 263.845 136.093 265.33 136.093 266.298V273.954C136.093 274.394 136.225 274.68 136.489 274.812C136.775 274.944 137.149 275.087 137.611 275.241C138.051 275.417 138.271 275.593 138.271 275.769C138.271 275.989 138.051 276.099 137.611 276.099L134.938 275.934ZM148.571 272.502C148.571 275.142 146.987 276.462 143.819 276.462C143.005 276.462 142.246 276.319 141.542 276.033C140.838 275.769 140.431 275.516 140.321 275.274C140.057 274.724 139.914 274.053 139.892 273.261C139.892 273.063 140.068 272.964 140.42 272.964C140.75 272.964 140.926 273.041 140.948 273.195C141.036 273.569 141.234 273.943 141.542 274.317C141.872 274.691 142.257 274.999 142.697 275.241C143.159 275.461 143.632 275.571 144.116 275.571C144.82 275.571 145.359 275.362 145.733 274.944C146.129 274.526 146.327 274.009 146.327 273.393C146.327 272.777 146.129 272.26 145.733 271.842C145.337 271.402 144.677 270.852 143.753 270.192C142.807 269.532 142.048 268.894 141.476 268.278C140.926 267.64 140.651 266.87 140.651 265.968C140.651 265.352 140.816 264.769 141.146 264.219C141.476 263.669 141.949 263.218 142.565 262.866C143.181 262.514 143.929 262.338 144.809 262.338C146.129 262.338 147.042 262.591 147.548 263.097C147.922 263.581 148.109 264.439 148.109 265.671C148.109 265.759 148.032 265.803 147.878 265.803C147.724 265.803 147.504 265.726 147.218 265.572C146.932 265.396 146.789 265.242 146.789 265.11C146.767 264.626 146.547 264.186 146.129 263.79C145.711 263.394 145.216 263.196 144.644 263.196C144.05 263.196 143.566 263.394 143.192 263.79C142.818 264.186 142.631 264.648 142.631 265.176C142.631 265.704 142.818 266.188 143.192 266.628C143.566 267.068 143.896 267.376 144.182 267.552C144.314 267.64 144.479 267.761 144.677 267.915C144.897 268.047 145.15 268.201 145.436 268.377C145.81 268.597 146.118 268.795 146.36 268.971C146.624 269.147 146.877 269.356 147.119 269.598C147.361 269.818 147.625 270.137 147.911 270.555C148.351 271.193 148.571 271.842 148.571 272.502Z" fill="white"/>
<rect x="1" y="1" width="204.75" height="198" rx="20" fill="#2ECC71" stroke="#0D1B2A" stroke-width="2"/>
<path fill-rule="evenodd" clip-rule="evenodd" d="M46.7589 38C49.9379 38 52.5179 40.58 52.5179 43.7589V109.263L61.9901 98.6853C59.963 95.2023 59.06 91.0651 59.06 86.6514C59.06 80.5331 60.8015 74.9493 64.8558 70.8858C68.9101 66.8315 74.5031 65.0808 80.6214 65.0808C86.7397 65.0808 92.3236 66.8315 96.3871 70.8858C100.441 74.9401 102.183 80.5331 102.183 86.6422C102.183 87.7786 102.121 88.8843 101.999 89.9593L102.257 90.2358L110.273 99.0538C113.535 97.4321 117.276 96.695 121.256 96.695C123.32 96.6888 125.308 96.8946 127.218 97.3123L132.747 78.6995C131.019 77.8281 129.439 76.69 128.066 75.3271C124.011 71.2728 122.261 65.6797 122.261 59.5614C122.261 53.4431 124.011 47.8593 128.066 43.7958C132.12 39.7415 137.713 38 143.822 38C149.95 38 155.534 39.7415 159.597 43.7958C163.651 47.8501 165.393 53.4431 165.393 59.5614C165.393 65.6797 163.651 71.2636 159.588 75.3271C156.132 78.7916 151.553 80.5608 146.476 81.0123L139.547 104.361C139.461 104.638 139.359 104.914 139.243 105.191C141.731 108.876 142.818 113.4 142.818 118.256C142.818 124.375 141.086 129.959 137.022 134.022C132.968 138.076 127.375 139.827 121.266 139.827C115.138 139.827 109.545 138.076 105.491 134.022C101.436 129.968 99.695 124.375 99.695 118.266C99.695 115.16 100.137 112.203 101.105 109.512L95.4472 103.292C91.4851 106.729 86.279 108.213 80.6214 108.213C77.9247 108.225 75.3693 107.875 72.9551 107.162L53.3932 129C53.1195 129.292 52.8271 129.566 52.5179 129.82V138.205C52.5179 145.208 58.1939 150.875 65.1875 150.875H159.634C161.161 150.875 162.626 151.482 163.706 152.562C164.786 153.642 165.393 155.107 165.393 156.634C165.393 158.161 164.786 159.626 163.706 160.706C162.626 161.786 161.161 162.393 159.634 162.393H65.1875C58.7726 162.393 52.6204 159.845 48.0844 155.308C43.5483 150.772 41 144.62 41 138.205V43.7589C41 40.58 43.58 38 46.7589 38ZM70.5778 86.6514C70.5778 82.6524 71.6836 80.3488 73.0012 79.0312C74.3188 77.7136 76.6224 76.6078 80.6214 76.6078C84.6204 76.6078 86.924 77.7136 88.2416 79.0312C89.5593 80.3488 90.665 82.6524 90.665 86.6514C90.665 90.6504 89.5593 92.954 88.2416 94.2716C86.924 95.5893 84.6204 96.695 80.6214 96.695C76.6224 96.695 74.3188 95.5893 73.0012 94.2716C71.6836 92.954 70.5778 90.6504 70.5778 86.6514ZM136.211 51.9412C134.894 53.2589 133.788 55.5624 133.788 59.5614C133.788 63.5604 134.894 65.864 136.211 67.1816C137.52 68.4993 139.832 69.605 143.831 69.605C147.83 69.605 150.134 68.4993 151.452 67.1816C152.769 65.864 153.875 63.5604 153.875 59.5614C153.875 55.5624 152.769 53.2589 151.452 51.9412C150.134 50.6236 147.83 49.5179 143.831 49.5179C139.832 49.5179 137.52 50.6236 136.211 51.9412ZM111.213 118.256C111.213 114.257 112.319 111.954 113.636 110.636C114.954 109.319 117.257 108.213 121.256 108.213C125.255 108.213 127.559 109.319 128.877 110.636C130.194 111.954 131.3 114.257 131.3 118.256C131.3 122.255 130.194 124.559 128.877 125.877C127.559 127.194 125.255 128.3 121.256 128.3C117.257 128.3 114.954 127.194 113.636 125.877C112.319 124.559 111.213 122.255 111.213 118.256Z" fill="#0D1B2A"/>
</svg>
