<svg width="207" height="277" viewBox="0 0 207 277" fill="none" xmlns="http://www.w3.org/2000/svg">
<path d="M65.3213 243C65.3213 243 64.9583 243.011 64.2323 243.033C63.5283 243.077 62.4613 243.121 61.0313 243.165C60.3933 243.165 60.0743 243.033 60.0743 242.769C60.0743 242.527 60.4813 242.329 61.2953 242.175C62.0873 242.043 62.6923 241.79 63.1103 241.416C63.5283 241.042 63.7373 240.481 63.7373 239.733V224.883C63.7373 224.091 63.5723 223.508 63.2423 223.134C62.9123 222.76 62.3623 222.54 61.5923 222.474C60.8223 222.408 60.4373 222.188 60.4373 221.814C60.4373 221.572 60.7563 221.451 61.3943 221.451L64.8263 221.484L68.4893 221.319C70.9753 221.319 72.8123 221.704 74.0003 222.474C75.2103 223.222 75.8153 224.476 75.8153 226.236C75.8153 227.138 75.6503 227.897 75.3203 228.513C74.9903 229.107 74.5723 229.591 74.0663 229.965C73.5603 230.317 73.0323 230.603 72.4823 230.823C72.3943 230.845 72.3503 230.9 72.3503 230.988C72.3503 231.076 72.3943 231.131 72.4823 231.153C74.7703 231.857 76.1893 232.891 76.7393 234.255C77.0253 234.893 77.1683 235.663 77.1683 236.565C77.1683 238.281 76.7613 239.568 75.9473 240.426C75.5073 240.866 75.1553 241.174 74.8913 241.35C73.1753 242.538 71.0303 243.132 68.4563 243.132L65.3213 243ZM66.3113 229.536C66.3113 230.35 66.8173 230.757 67.8293 230.757C69.1933 230.757 70.4143 230.438 71.4923 229.8C71.8443 229.602 72.1743 229.239 72.4823 228.711C72.8123 228.183 72.9773 227.413 72.9773 226.401C72.9773 225.719 72.8343 225.07 72.5483 224.454C72.2623 223.838 71.7893 223.332 71.1293 222.936C70.4913 222.518 69.6113 222.309 68.4893 222.309C67.6313 222.309 67.0483 222.43 66.7403 222.672C66.4543 222.892 66.3113 223.266 66.3113 223.794V229.536ZM66.3113 239.436C66.3113 240.316 66.5203 240.932 66.9383 241.284C67.3563 241.614 68.0163 241.779 68.9183 241.779C69.7983 241.779 70.6233 241.559 71.3933 241.119C72.1853 240.657 72.8233 240.052 73.3073 239.304C73.8133 238.534 74.0663 237.687 74.0663 236.763C74.0663 235.465 73.7583 234.453 73.1423 233.727C72.5263 232.979 71.7673 232.451 70.8653 232.143C69.9633 231.835 69.0723 231.681 68.1923 231.681C67.5543 231.681 67.0813 231.813 66.7733 232.077C66.4653 232.319 66.3113 232.583 66.3113 232.869V239.436ZM82.8154 242.934L80.1424 243.099C79.7024 243.099 79.4824 242.989 79.4824 242.769C79.4824 242.571 79.6804 242.406 80.0764 242.274C80.4724 242.142 80.7364 242.054 80.8684 242.01C81.0004 241.944 81.1434 241.823 81.2974 241.647C81.4294 241.471 81.4954 241.24 81.4954 240.954V233.859C81.4954 232.473 81.0444 231.681 80.1424 231.483C79.9664 231.439 79.8784 231.296 79.8784 231.054C79.8784 230.812 79.9554 230.68 80.1094 230.658C80.9234 230.504 81.5394 230.284 81.9574 229.998C82.3314 229.756 82.6394 229.558 82.8814 229.404C83.1454 229.25 83.3324 229.129 83.4424 229.041C83.6844 228.909 83.8054 228.832 83.8054 228.81H83.9044C83.9704 228.81 84.0144 228.887 84.0364 229.041C84.0364 229.327 84.0364 229.613 84.0364 229.899C84.0364 230.185 84.0254 230.471 84.0034 230.757C83.9814 231.307 83.9814 231.582 84.0034 231.582C84.0034 231.582 84.0584 231.527 84.1684 231.417C84.4764 231.021 84.6744 230.801 84.7624 230.757C85.7964 229.811 86.8084 229.338 87.7984 229.338C88.2604 229.338 88.6344 229.437 88.9204 229.635C89.2284 229.833 89.3824 230.097 89.3824 230.427C89.3824 230.757 89.2394 231.12 88.9534 231.516C88.6894 231.912 88.4364 232.11 88.1944 232.11C87.9524 232.11 87.6004 232.011 87.1384 231.813C86.6764 231.615 86.3354 231.516 86.1154 231.516C85.4774 231.516 84.9274 231.725 84.4654 232.143C84.0254 232.561 83.8054 233.276 83.8054 234.288V240.789C83.8274 241.361 84.4214 241.834 85.5874 242.208C86.0934 242.384 86.3464 242.571 86.3464 242.769C86.3464 242.989 86.1264 243.099 85.6864 243.099L82.8154 242.934ZM97.0049 242.175C96.6969 242.461 96.2349 242.747 95.6189 243.033C95.0249 243.319 94.3649 243.462 93.6389 243.462C93.1549 243.462 92.6819 243.33 92.2199 243.066C91.7799 242.824 91.4169 242.505 91.1309 242.109C90.8449 241.691 90.7019 241.273 90.7019 240.855C90.7019 239.535 91.5049 238.545 93.1109 237.885L96.4769 236.499C96.8949 236.323 97.1479 236.169 97.2359 236.037C97.3239 235.905 97.3789 235.619 97.4009 235.179L97.4669 233.133V233.067C97.4669 232.495 97.2799 232 96.9059 231.582C96.5539 231.164 96.1469 230.955 95.6849 230.955C95.2009 230.955 94.7499 231.076 94.3319 231.318C93.9139 231.538 93.6499 231.747 93.5399 231.945C93.4299 232.165 93.3749 232.396 93.3749 232.638L93.4079 233.1C93.4079 233.232 93.2539 233.386 92.9459 233.562C92.6379 233.738 92.3079 233.903 91.9559 234.057C91.6039 234.189 91.3509 234.255 91.1969 234.255C90.9769 234.255 90.8669 234.156 90.8669 233.958C90.8669 233.452 91.0429 232.968 91.3949 232.506C91.7469 232.044 92.1979 231.604 92.7479 231.186C93.3199 230.768 93.9139 230.394 94.5299 230.064C95.4319 229.58 96.2899 229.338 97.1039 229.338C97.8739 229.338 98.5229 229.624 99.0509 230.196C99.5789 230.768 99.8319 231.461 99.8099 232.275L99.6449 239.403V239.601C99.6449 241.163 100.041 241.944 100.833 241.944C101.361 241.944 101.801 241.79 102.153 241.482C102.197 241.438 102.252 241.416 102.318 241.416C102.406 241.416 102.483 241.449 102.549 241.515C102.637 241.581 102.681 241.669 102.681 241.779V241.812C102.593 241.988 102.406 242.208 102.12 242.472C101.834 242.736 101.504 242.967 101.13 243.165C100.756 243.363 100.393 243.462 100.041 243.462C99.4909 243.462 99.0289 243.319 98.6549 243.033C98.3029 242.747 98.0499 242.461 97.8959 242.175C97.7419 241.889 97.6429 241.746 97.5989 241.746C97.4889 241.746 97.2909 241.889 97.0049 242.175ZM93.3419 240.129C93.3419 240.701 93.5179 241.152 93.8699 241.482C94.2219 241.79 94.6509 241.944 95.1569 241.944C95.6629 241.944 96.1469 241.746 96.6089 241.35C97.0709 240.954 97.3129 240.415 97.3349 239.733L97.4009 238.116V237.951C97.4009 237.599 97.3019 237.423 97.1039 237.423C96.9719 237.423 96.8179 237.456 96.6419 237.522C94.4419 238.27 93.3419 239.139 93.3419 240.129ZM106.853 242.934L104.18 243.099C103.74 243.099 103.52 242.989 103.52 242.769C103.52 242.637 103.608 242.527 103.784 242.439C103.96 242.329 104.147 242.241 104.345 242.175C104.543 242.109 104.664 242.076 104.708 242.076C104.752 242.076 104.862 242.032 105.038 241.944C105.214 241.856 105.324 241.779 105.368 241.713C105.588 241.493 105.698 241.24 105.698 240.954V233.859C105.698 232.451 105.247 231.659 104.345 231.483C104.169 231.439 104.081 231.296 104.081 231.054C104.081 230.812 104.158 230.68 104.312 230.658C105.456 230.394 106.666 229.789 107.942 228.843C107.964 228.821 108.008 228.81 108.074 228.81C108.118 228.81 108.173 228.909 108.239 229.107L108.008 231.252C108.008 231.406 108.019 231.494 108.041 231.516C108.459 231.164 108.965 230.823 109.559 230.493C110.175 230.163 110.835 229.888 111.539 229.668C112.243 229.448 112.925 229.338 113.585 229.338C114.245 229.338 114.85 229.547 115.4 229.965C115.95 230.361 116.39 230.9 116.72 231.582C117.05 232.264 117.215 233.045 117.215 233.925V240.954C117.215 241.394 117.347 241.68 117.611 241.812C117.897 241.944 118.271 242.087 118.733 242.241C119.173 242.417 119.393 242.593 119.393 242.769C119.393 242.989 119.173 243.099 118.733 243.099L116.093 242.934L113.387 243.099C112.947 243.099 112.727 242.989 112.727 242.769C112.727 242.571 112.98 242.384 113.486 242.208C113.53 242.208 113.574 242.197 113.618 242.175C114.366 241.933 114.784 241.636 114.872 241.284C114.894 241.24 114.905 241.185 114.905 241.119C114.905 241.053 114.905 240.998 114.905 240.954V234.024C114.905 233.078 114.63 232.33 114.08 231.78C113.53 231.23 112.727 230.955 111.671 230.955C110.593 230.955 109.713 231.186 109.031 231.648C108.349 232.11 108.008 232.946 108.008 234.156V240.954C108.008 241.394 108.14 241.68 108.404 241.812C108.69 241.944 109.064 242.087 109.526 242.241C109.966 242.417 110.186 242.593 110.186 242.769C110.186 242.989 109.966 243.099 109.526 243.099L106.853 242.934ZM132.406 240.393C132.406 240.833 132.142 241.295 131.614 241.779C131.086 242.241 130.382 242.637 129.502 242.967C128.644 243.297 127.72 243.462 126.73 243.462C125.74 243.462 124.827 243.176 123.991 242.604C123.177 242.01 122.517 241.218 122.011 240.228C121.527 239.216 121.285 238.072 121.285 236.796C121.285 235.52 121.593 234.321 122.209 233.199C122.825 232.055 123.65 231.131 124.684 230.427C125.718 229.723 126.862 229.371 128.116 229.371C129.986 229.371 131.35 229.899 132.208 230.955C132.318 231.131 132.373 231.296 132.373 231.45C132.373 231.648 132.208 231.868 131.878 232.11C131.57 232.352 131.284 232.473 131.02 232.473C130.756 232.473 130.514 232.363 130.294 232.143C129.898 231.703 129.568 231.373 129.304 231.153C129.04 230.933 128.754 230.79 128.446 230.724C128.138 230.636 127.72 230.592 127.192 230.592C126.048 230.592 125.157 231.087 124.519 232.077C123.881 233.045 123.562 234.277 123.562 235.773C123.562 236.763 123.782 237.72 124.222 238.644C124.684 239.546 125.311 240.294 126.103 240.888C126.895 241.46 127.797 241.746 128.809 241.746C129.469 241.746 129.997 241.625 130.393 241.383C130.811 241.119 131.251 240.69 131.713 240.096C131.823 239.986 131.922 239.931 132.01 239.931C132.098 239.931 132.186 239.986 132.274 240.096C132.362 240.184 132.406 240.283 132.406 240.393ZM136.529 242.934L133.856 243.099C133.416 243.099 133.196 242.989 133.196 242.769C133.196 242.571 133.394 242.406 133.79 242.274C134.186 242.142 134.549 241.999 134.879 241.845C135.209 241.691 135.374 241.361 135.374 240.855V224.322C135.374 222.914 134.879 222.111 133.889 221.913C133.713 221.869 133.625 221.726 133.625 221.484C133.625 221.242 133.702 221.11 133.856 221.088C134.428 220.956 135.704 220.516 137.684 219.768L137.75 219.735C137.882 219.735 137.948 219.867 137.948 220.131C137.948 220.263 137.937 220.362 137.915 220.428C137.827 220.912 137.761 221.495 137.717 222.177C137.695 222.837 137.684 223.596 137.684 224.454V230.196C137.684 230.768 137.772 231.175 137.948 231.417C139.84 230.031 141.501 229.338 142.931 229.338C144.009 229.338 144.9 229.767 145.604 230.625C146.33 231.483 146.693 232.55 146.693 233.826V240.756C146.693 241.46 147.144 241.944 148.046 242.208C148.552 242.384 148.805 242.571 148.805 242.769C148.805 242.989 148.585 243.099 148.145 243.099L145.571 242.934L142.997 243.099C142.557 243.099 142.337 242.989 142.337 242.769C142.337 242.571 142.59 242.384 143.096 242.208C143.954 241.944 144.383 241.46 144.383 240.756V234.024C144.383 233.496 144.229 233.012 143.921 232.572C143.613 232.11 143.228 231.747 142.766 231.483C142.304 231.197 141.82 231.054 141.314 231.054C140.104 231.054 139.191 231.296 138.575 231.78C138.223 232.066 137.981 232.374 137.849 232.704C137.739 233.012 137.684 233.496 137.684 234.156V240.855C137.728 241.537 138.146 241.988 138.938 242.208C139.444 242.384 139.697 242.571 139.697 242.769C139.697 242.989 139.477 243.099 139.037 243.099L136.529 242.934ZM35.58 275.934L31.29 276.165C30.652 276.165 30.333 276.033 30.333 275.769C30.333 275.527 30.729 275.329 31.521 275.175C32.313 275.043 32.896 274.801 33.27 274.449C33.644 274.075 33.831 273.492 33.831 272.7V258.774C33.831 257.718 33.699 256.937 33.435 256.431C33.171 255.925 32.654 255.606 31.884 255.474C31.114 255.342 30.729 255.122 30.729 254.814C30.729 254.572 31.048 254.451 31.686 254.451L34.92 254.484L38.583 254.286C40.255 254.286 41.718 254.528 42.972 255.012C44.248 255.474 45.249 256.145 45.975 257.025C46.701 257.883 47.064 258.906 47.064 260.094C47.064 261.524 46.767 262.811 46.173 263.955C45.601 265.099 44.754 266.001 43.632 266.661C42.532 267.299 41.168 267.618 39.54 267.618C39.1 267.618 38.748 267.552 38.484 267.42C38.198 267.288 38.055 267.145 38.055 266.991C38.055 266.903 38.11 266.826 38.22 266.76C38.352 266.672 38.473 266.628 38.583 266.628L39.078 266.694L40.101 266.793C42.763 266.793 44.094 264.824 44.094 260.886C44.094 258.95 43.599 257.52 42.609 256.596C41.619 255.672 40.277 255.21 38.583 255.21C37.175 255.21 36.471 255.672 36.471 256.596V272.337C36.471 273.987 37.208 274.944 38.682 275.208C39.408 275.34 39.771 275.527 39.771 275.769C39.771 276.033 39.452 276.165 38.814 276.165C38.506 276.165 38.198 276.154 37.89 276.132C37.582 276.11 37.285 276.077 36.999 276.033C36.449 275.967 35.976 275.934 35.58 275.934ZM59.365 273.657C59.277 274.031 59.002 274.438 58.54 274.878C58.078 275.318 57.473 275.692 56.725 276C55.977 276.308 55.119 276.462 54.151 276.462C53.183 276.462 52.281 276.165 51.445 275.571C50.631 274.955 49.971 274.119 49.465 273.063C48.981 272.007 48.739 270.808 48.739 269.466C48.739 268.124 49.025 266.914 49.597 265.836C50.191 264.758 50.983 263.911 51.973 263.295C52.963 262.657 54.074 262.338 55.306 262.338C56.626 262.338 57.66 262.613 58.408 263.163C59.178 263.713 59.563 264.461 59.563 265.407C59.563 266.353 59.321 266.947 58.837 267.189C58.375 267.409 57.77 267.519 57.022 267.519H51.61C51.302 267.519 51.082 267.596 50.95 267.75C50.84 267.882 50.785 268.212 50.785 268.74C50.785 269.752 51.005 270.698 51.445 271.578C51.885 272.458 52.468 273.162 53.194 273.69C53.942 274.218 54.778 274.482 55.702 274.482C57.044 274.482 58.1 273.998 58.87 273.03C59.024 272.876 59.145 272.799 59.233 272.799C59.387 272.799 59.464 272.909 59.464 273.129C59.464 273.283 59.431 273.459 59.365 273.657ZM51.412 266.001C51.412 266.331 51.621 266.496 52.039 266.496H54.745C55.251 266.496 55.702 266.485 56.098 266.463C56.516 266.419 56.868 266.375 57.154 266.331C57.374 266.309 57.484 265.99 57.484 265.374C57.484 264.78 57.209 264.296 56.659 263.922C56.109 263.548 55.449 263.361 54.679 263.361C54.151 263.361 53.634 263.515 53.128 263.823C52.644 264.109 52.237 264.461 51.907 264.879C51.577 265.275 51.412 265.649 51.412 266.001ZM64.833 275.934L62.16 276.099C61.72 276.099 61.5 275.989 61.5 275.769C61.5 275.571 61.698 275.406 62.094 275.274C62.49 275.142 62.754 275.054 62.886 275.01C63.018 274.944 63.161 274.823 63.315 274.647C63.447 274.471 63.513 274.24 63.513 273.954V266.859C63.513 265.473 63.062 264.681 62.16 264.483C61.984 264.439 61.896 264.296 61.896 264.054C61.896 263.812 61.973 263.68 62.127 263.658C62.941 263.504 63.557 263.284 63.975 262.998C64.349 262.756 64.657 262.558 64.899 262.404C65.163 262.25 65.35 262.129 65.46 262.041C65.702 261.909 65.823 261.832 65.823 261.81H65.922C65.988 261.81 66.032 261.887 66.054 262.041C66.054 262.327 66.054 262.613 66.054 262.899C66.054 263.185 66.043 263.471 66.021 263.757C65.999 264.307 65.999 264.582 66.021 264.582C66.021 264.582 66.076 264.527 66.186 264.417C66.494 264.021 66.692 263.801 66.78 263.757C67.814 262.811 68.826 262.338 69.816 262.338C70.278 262.338 70.652 262.437 70.938 262.635C71.246 262.833 71.4 263.097 71.4 263.427C71.4 263.757 71.257 264.12 70.971 264.516C70.707 264.912 70.454 265.11 70.212 265.11C69.97 265.11 69.618 265.011 69.156 264.813C68.694 264.615 68.353 264.516 68.133 264.516C67.495 264.516 66.945 264.725 66.483 265.143C66.043 265.561 65.823 266.276 65.823 267.288V273.789C65.845 274.361 66.439 274.834 67.605 275.208C68.111 275.384 68.364 275.571 68.364 275.769C68.364 275.989 68.144 276.099 67.704 276.099L64.833 275.934ZM75.7555 275.934L73.0165 276.099C72.5765 276.099 72.3565 275.989 72.3565 275.769C72.3565 275.571 72.6095 275.384 73.1155 275.208C74.0615 274.922 74.5345 274.438 74.5345 273.756V264.45C74.1825 264.45 73.8635 264.45 73.5775 264.45C73.3135 264.428 73.0605 264.406 72.8185 264.384C72.7525 264.362 72.6535 264.285 72.5215 264.153C72.4115 264.021 72.3565 263.911 72.3565 263.823C72.3565 263.757 72.4335 263.68 72.5875 263.592C72.7635 263.548 73.0055 263.46 73.3135 263.328C73.6435 263.174 74.0505 262.976 74.5345 262.734C74.5345 260.93 74.7655 259.346 75.2275 257.982C75.7115 256.618 76.3385 255.573 77.1085 254.847C78.6045 253.417 80.1665 252.702 81.7945 252.702C84.2145 252.702 85.4245 253.362 85.4245 254.682C85.4245 255.034 85.3145 255.342 85.0945 255.606C84.8745 255.87 84.6435 256.002 84.4015 256.002C84.1595 256.002 83.9175 255.903 83.6755 255.705C83.4335 255.507 83.2025 255.276 82.9825 255.012C82.7625 254.77 82.4215 254.55 81.9595 254.352C81.4975 254.154 80.9805 254.055 80.4085 254.055C79.3305 254.055 78.4725 254.572 77.8345 255.606C77.2185 256.618 76.9105 258.191 76.9105 260.325V262.074C76.9105 262.558 77.1855 262.8 77.7355 262.8H81.6295C81.7175 262.8 81.7615 262.921 81.7615 263.163C81.7615 263.427 81.7175 263.702 81.6295 263.988C81.5415 264.252 81.4425 264.384 81.3325 264.384H78.2305C77.6805 264.384 77.3285 264.428 77.1745 264.516C76.9985 264.626 76.9105 264.769 76.9105 264.945V273.756C76.9325 274.438 77.4055 274.922 78.3295 275.208C78.8355 275.384 79.0885 275.571 79.0885 275.769C79.0885 275.989 78.8685 276.099 78.4285 276.099L75.7555 275.934ZM96.7991 269.169C96.7991 270.445 96.5021 271.644 95.9081 272.766C95.3361 273.866 94.4891 274.757 93.3671 275.439C92.2671 276.121 90.9251 276.462 89.3411 276.462C88.1091 276.462 86.9871 276.176 85.9751 275.604C84.9851 275.032 84.2041 274.251 83.6321 273.261C83.0601 272.249 82.7741 271.105 82.7741 269.829C82.7741 268.883 82.9611 267.97 83.3351 267.09C83.7091 266.188 84.2261 265.385 84.8861 264.681C85.5681 263.955 86.3381 263.383 87.1961 262.965C88.0541 262.547 88.9671 262.338 89.9351 262.338C91.2331 262.338 92.3991 262.646 93.4331 263.262C94.4671 263.856 95.2811 264.67 95.8751 265.704C96.4911 266.716 96.7991 267.871 96.7991 269.169ZM85.4801 269.07C85.4801 270.192 85.6781 271.248 86.0741 272.238C86.4921 273.206 87.0421 273.987 87.7241 274.581C88.4281 275.175 89.1981 275.472 90.0341 275.472C91.1341 275.472 91.9701 275.241 92.5421 274.779C93.1361 274.295 93.5431 273.635 93.7631 272.799C93.9831 271.941 94.0931 270.951 94.0931 269.829C94.0931 268.685 93.8841 267.629 93.4661 266.661C93.0701 265.671 92.5201 264.879 91.8161 264.285C91.1341 263.669 90.3421 263.361 89.4401 263.361C86.8001 263.361 85.4801 265.264 85.4801 269.07ZM102.083 275.934L99.41 276.099C98.97 276.099 98.75 275.989 98.75 275.769C98.75 275.637 98.838 275.527 99.014 275.439C99.19 275.329 99.377 275.241 99.575 275.175C99.773 275.109 99.894 275.076 99.938 275.076C99.982 275.076 100.092 275.032 100.268 274.944C100.444 274.856 100.554 274.779 100.598 274.713C100.818 274.493 100.928 274.24 100.928 273.954V266.859C100.928 266.177 100.84 265.638 100.664 265.242C100.488 264.846 100.147 264.593 99.641 264.483C99.465 264.439 99.377 264.296 99.377 264.054C99.377 263.812 99.454 263.68 99.608 263.658C100.114 263.548 100.62 263.361 101.126 263.097C101.654 262.833 102.193 262.514 102.743 262.14L103.238 261.843H103.271C103.359 261.843 103.436 261.909 103.502 262.041L103.337 264.153C103.337 264.373 103.359 264.505 103.403 264.549C104.965 263.075 106.703 262.338 108.617 262.338C110.179 262.338 111.202 262.998 111.686 264.318C111.796 264.56 111.917 264.681 112.049 264.681C112.159 264.681 112.39 264.472 112.742 264.054C113.094 263.658 113.71 263.273 114.59 262.899C115.47 262.525 116.416 262.338 117.428 262.338C118.088 262.338 118.66 262.547 119.144 262.965C119.65 263.383 120.035 263.944 120.299 264.648C120.563 265.33 120.695 266.089 120.695 266.925V273.954C120.695 274.394 120.827 274.68 121.091 274.812C121.377 274.944 121.751 275.087 122.213 275.241C122.653 275.417 122.873 275.593 122.873 275.769C122.873 275.989 122.653 276.099 122.213 276.099L119.606 275.934L116.867 276.099C116.427 276.099 116.207 275.989 116.207 275.769C116.207 275.571 116.46 275.384 116.966 275.208C117.01 275.208 117.054 275.197 117.098 275.175C117.846 274.933 118.264 274.636 118.352 274.284C118.374 274.24 118.385 274.185 118.385 274.119C118.385 274.053 118.385 273.998 118.385 273.954V267.024C118.385 266.21 118.121 265.484 117.593 264.846C117.065 264.208 116.449 263.889 115.745 263.889C114.579 263.889 113.655 264.153 112.973 264.681C112.291 265.209 111.95 266.034 111.95 267.156V273.954C111.95 274.196 111.983 274.35 112.049 274.416L112.181 274.614C112.225 274.702 112.28 274.757 112.346 274.779C112.456 274.801 112.522 274.834 112.544 274.878C112.588 274.922 112.665 274.955 112.775 274.977C112.885 274.999 112.951 275.032 112.973 275.076C113.149 275.164 113.303 275.208 113.435 275.208C113.941 275.384 114.194 275.571 114.194 275.769C114.194 275.989 113.974 276.099 113.534 276.099L110.828 275.934L108.089 276.099C107.649 276.099 107.429 275.989 107.429 275.769C107.429 275.571 107.737 275.373 108.353 275.175C108.969 274.977 109.343 274.768 109.475 274.548C109.585 274.328 109.64 274.13 109.64 273.954V267.024C109.64 266.21 109.376 265.484 108.848 264.846C108.32 264.208 107.704 263.889 107 263.889C105.834 263.889 104.91 264.153 104.228 264.681C103.568 265.187 103.238 266.012 103.238 267.156V273.954C103.238 274.372 103.359 274.658 103.601 274.812C103.865 274.944 104.041 275.021 104.129 275.043C104.987 275.263 105.416 275.516 105.416 275.802C105.416 276 105.196 276.099 104.756 276.099L102.083 275.934ZM131.101 275.175C130.793 275.461 130.331 275.747 129.715 276.033C129.121 276.319 128.461 276.462 127.735 276.462C127.251 276.462 126.778 276.33 126.316 276.066C125.876 275.824 125.513 275.505 125.227 275.109C124.941 274.691 124.798 274.273 124.798 273.855C124.798 272.535 125.601 271.545 127.207 270.885L130.573 269.499C130.991 269.323 131.244 269.169 131.332 269.037C131.42 268.905 131.475 268.619 131.497 268.179L131.563 266.133V266.067C131.563 265.495 131.376 265 131.002 264.582C130.65 264.164 130.243 263.955 129.781 263.955C129.297 263.955 128.846 264.076 128.428 264.318C128.01 264.538 127.746 264.747 127.636 264.945C127.526 265.165 127.471 265.396 127.471 265.638L127.504 266.1C127.504 266.232 127.35 266.386 127.042 266.562C126.734 266.738 126.404 266.903 126.052 267.057C125.7 267.189 125.447 267.255 125.293 267.255C125.073 267.255 124.963 267.156 124.963 266.958C124.963 266.452 125.139 265.968 125.491 265.506C125.843 265.044 126.294 264.604 126.844 264.186C127.416 263.768 128.01 263.394 128.626 263.064C129.528 262.58 130.386 262.338 131.2 262.338C131.97 262.338 132.619 262.624 133.147 263.196C133.675 263.768 133.928 264.461 133.906 265.275L133.741 272.403V272.601C133.741 274.163 134.137 274.944 134.929 274.944C135.457 274.944 135.897 274.79 136.249 274.482C136.293 274.438 136.348 274.416 136.414 274.416C136.502 274.416 136.579 274.449 136.645 274.515C136.733 274.581 136.777 274.669 136.777 274.779V274.812C136.689 274.988 136.502 275.208 136.216 275.472C135.93 275.736 135.6 275.967 135.226 276.165C134.852 276.363 134.489 276.462 134.137 276.462C133.587 276.462 133.125 276.319 132.751 276.033C132.399 275.747 132.146 275.461 131.992 275.175C131.838 274.889 131.739 274.746 131.695 274.746C131.585 274.746 131.387 274.889 131.101 275.175ZM127.438 273.129C127.438 273.701 127.614 274.152 127.966 274.482C128.318 274.79 128.747 274.944 129.253 274.944C129.759 274.944 130.243 274.746 130.705 274.35C131.167 273.954 131.409 273.415 131.431 272.733L131.497 271.116V270.951C131.497 270.599 131.398 270.423 131.2 270.423C131.068 270.423 130.914 270.456 130.738 270.522C128.538 271.27 127.438 272.139 127.438 273.129ZM140.948 275.934L138.275 276.099C137.835 276.099 137.615 275.989 137.615 275.769C137.615 275.637 137.703 275.527 137.879 275.439C138.055 275.329 138.242 275.241 138.44 275.175C138.638 275.109 138.759 275.076 138.803 275.076C138.847 275.076 138.957 275.032 139.133 274.944C139.309 274.856 139.419 274.779 139.463 274.713C139.683 274.493 139.793 274.24 139.793 273.954V266.859C139.793 265.451 139.342 264.659 138.44 264.483C138.264 264.439 138.176 264.296 138.176 264.054C138.176 263.812 138.253 263.68 138.407 263.658C139.551 263.394 140.761 262.789 142.037 261.843C142.059 261.821 142.103 261.81 142.169 261.81C142.213 261.81 142.268 261.909 142.334 262.107L142.103 264.252C142.103 264.406 142.114 264.494 142.136 264.516C142.554 264.164 143.06 263.823 143.654 263.493C144.27 263.163 144.93 262.888 145.634 262.668C146.338 262.448 147.02 262.338 147.68 262.338C148.34 262.338 148.945 262.547 149.495 262.965C150.045 263.361 150.485 263.9 150.815 264.582C151.145 265.264 151.31 266.045 151.31 266.925V273.954C151.31 274.394 151.442 274.68 151.706 274.812C151.992 274.944 152.366 275.087 152.828 275.241C153.268 275.417 153.488 275.593 153.488 275.769C153.488 275.989 153.268 276.099 152.828 276.099L150.188 275.934L147.482 276.099C147.042 276.099 146.822 275.989 146.822 275.769C146.822 275.571 147.075 275.384 147.581 275.208C147.625 275.208 147.669 275.197 147.713 275.175C148.461 274.933 148.879 274.636 148.967 274.284C148.989 274.24 149 274.185 149 274.119C149 274.053 149 273.998 149 273.954V267.024C149 266.078 148.725 265.33 148.175 264.78C147.625 264.23 146.822 263.955 145.766 263.955C144.688 263.955 143.808 264.186 143.126 264.648C142.444 265.11 142.103 265.946 142.103 267.156V273.954C142.103 274.394 142.235 274.68 142.499 274.812C142.785 274.944 143.159 275.087 143.621 275.241C144.061 275.417 144.281 275.593 144.281 275.769C144.281 275.989 144.061 276.099 143.621 276.099L140.948 275.934ZM166.502 273.393C166.502 273.833 166.238 274.295 165.71 274.779C165.182 275.241 164.478 275.637 163.598 275.967C162.74 276.297 161.816 276.462 160.826 276.462C159.836 276.462 158.923 276.176 158.087 275.604C157.273 275.01 156.613 274.218 156.107 273.228C155.623 272.216 155.381 271.072 155.381 269.796C155.381 268.52 155.689 267.321 156.305 266.199C156.921 265.055 157.746 264.131 158.78 263.427C159.814 262.723 160.958 262.371 162.212 262.371C164.082 262.371 165.446 262.899 166.304 263.955C166.414 264.131 166.469 264.296 166.469 264.45C166.469 264.648 166.304 264.868 165.974 265.11C165.666 265.352 165.38 265.473 165.116 265.473C164.852 265.473 164.61 265.363 164.39 265.143C163.994 264.703 163.664 264.373 163.4 264.153C163.136 263.933 162.85 263.79 162.542 263.724C162.234 263.636 161.816 263.592 161.288 263.592C160.144 263.592 159.253 264.087 158.615 265.077C157.977 266.045 157.658 267.277 157.658 268.773C157.658 269.763 157.878 270.72 158.318 271.644C158.78 272.546 159.407 273.294 160.199 273.888C160.991 274.46 161.893 274.746 162.905 274.746C163.565 274.746 164.093 274.625 164.489 274.383C164.907 274.119 165.347 273.69 165.809 273.096C165.919 272.986 166.018 272.931 166.106 272.931C166.194 272.931 166.282 272.986 166.37 273.096C166.458 273.184 166.502 273.283 166.502 273.393ZM178.281 273.657C178.193 274.031 177.918 274.438 177.456 274.878C176.994 275.318 176.389 275.692 175.641 276C174.893 276.308 174.035 276.462 173.067 276.462C172.099 276.462 171.197 276.165 170.361 275.571C169.547 274.955 168.887 274.119 168.381 273.063C167.897 272.007 167.655 270.808 167.655 269.466C167.655 268.124 167.941 266.914 168.513 265.836C169.107 264.758 169.899 263.911 170.889 263.295C171.879 262.657 172.99 262.338 174.222 262.338C175.542 262.338 176.576 262.613 177.324 263.163C178.094 263.713 178.479 264.461 178.479 265.407C178.479 266.353 178.237 266.947 177.753 267.189C177.291 267.409 176.686 267.519 175.938 267.519H170.526C170.218 267.519 169.998 267.596 169.866 267.75C169.756 267.882 169.701 268.212 169.701 268.74C169.701 269.752 169.921 270.698 170.361 271.578C170.801 272.458 171.384 273.162 172.11 273.69C172.858 274.218 173.694 274.482 174.618 274.482C175.96 274.482 177.016 273.998 177.786 273.03C177.94 272.876 178.061 272.799 178.149 272.799C178.303 272.799 178.38 272.909 178.38 273.129C178.38 273.283 178.347 273.459 178.281 273.657ZM170.328 266.001C170.328 266.331 170.537 266.496 170.955 266.496H173.661C174.167 266.496 174.618 266.485 175.014 266.463C175.432 266.419 175.784 266.375 176.07 266.331C176.29 266.309 176.4 265.99 176.4 265.374C176.4 264.78 176.125 264.296 175.575 263.922C175.025 263.548 174.365 263.361 173.595 263.361C173.067 263.361 172.55 263.515 172.044 263.823C171.56 264.109 171.153 264.461 170.823 264.879C170.493 265.275 170.328 265.649 170.328 266.001Z" fill="white"/>
<rect x="1" y="1" width="204.75" height="198" rx="20" fill="#2ECC71" stroke="#0D1B2A" stroke-width="2"/>
<path fill-rule="evenodd" clip-rule="evenodd" d="M151.127 72.2591C153.978 72.2591 156.712 71.2885 158.728 69.561C160.744 67.8334 161.876 65.4903 161.876 63.0472C161.876 60.604 160.744 58.261 158.728 56.5334C156.712 54.8058 153.978 53.8353 151.127 53.8353C148.276 53.8353 145.542 54.8058 143.526 56.5334C141.511 58.261 140.378 60.604 140.378 63.0472C140.378 65.4903 141.511 67.8334 143.526 69.561C145.542 71.2885 148.276 72.2591 151.127 72.2591ZM178 63.0472C178 68.1481 176.025 73.1048 172.383 77.1395C168.741 81.1742 163.639 84.0586 157.878 85.3399C155.707 92.1672 150.976 98.1929 144.414 102.488C137.853 106.783 129.824 109.109 121.567 109.107H105.444C100.439 109.106 95.5908 110.602 91.735 113.336C87.8793 116.07 85.2575 119.872 84.3216 124.085C90.4045 125.807 95.5697 129.334 98.887 134.031C102.204 138.728 103.455 144.285 102.415 149.703C101.375 155.12 98.111 160.041 93.2123 163.578C88.3136 167.116 82.1017 169.039 75.6957 168.999C69.2896 168.96 63.1105 166.962 58.2715 163.364C53.4324 159.766 50.2516 154.806 49.3019 149.376C48.3522 143.947 49.6961 138.405 53.0915 133.75C56.487 129.094 61.7107 125.631 67.8217 123.984V85.0175C61.6941 83.3668 56.4587 79.8904 53.0633 75.2177C49.6678 70.5451 48.3368 64.985 49.3112 59.544C50.2856 54.1031 53.5009 49.1409 58.3752 45.5559C63.2494 41.9709 69.4603 40 75.8836 40C82.3068 40 88.5177 41.9709 93.392 45.5559C98.2662 49.1409 101.482 54.1031 102.456 59.544C103.43 64.985 102.099 70.5451 98.7039 75.2177C95.3084 79.8904 90.073 83.3668 83.9454 85.0175V101.065C90.2547 97.3025 97.7573 95.2868 105.444 95.2888H121.567C125.705 95.2891 129.754 94.2663 133.23 92.3431C136.706 90.4198 139.46 87.6779 141.163 84.4464C136.63 82.8955 132.676 80.3161 129.725 76.9851C126.774 73.654 124.937 69.697 124.411 65.5389C123.885 61.3808 124.691 57.1784 126.741 53.383C128.792 49.5875 132.009 46.3423 136.049 43.9955C140.089 41.6487 144.798 40.2891 149.671 40.0625C154.545 39.8359 159.398 40.7509 163.71 42.7094C168.023 44.6678 171.631 47.5956 174.149 51.1787C176.666 54.7617 177.998 58.8647 178 63.0472ZM86.6327 145.954C86.6327 148.397 85.5002 150.74 83.4843 152.468C81.4685 154.195 78.7344 155.166 75.8836 155.166C73.0327 155.166 70.2986 154.195 68.2828 152.468C66.2669 150.74 65.1345 148.397 65.1345 145.954C65.1345 143.511 66.2669 141.168 68.2828 139.44C70.2986 137.713 73.0327 136.742 75.8836 136.742C78.7344 136.742 81.4685 137.713 83.4843 139.44C85.5002 141.168 86.6327 143.511 86.6327 145.954ZM86.6327 63.0472C86.6327 65.4903 85.5002 67.8334 83.4843 69.561C81.4685 71.2885 78.7344 72.2591 75.8836 72.2591C73.0327 72.2591 70.2986 71.2885 68.2828 69.561C66.2669 67.8334 65.1345 65.4903 65.1345 63.0472C65.1345 60.604 66.2669 58.261 68.2828 56.5334C70.2986 54.8058 73.0327 53.8353 75.8836 53.8353C78.7344 53.8353 81.4685 54.8058 83.4843 56.5334C85.5002 58.261 86.6327 60.604 86.6327 63.0472Z" fill="#0D1B2A"/>
</svg>
