<svg width="213" height="279" viewBox="0 0 213 279" fill="none" xmlns="http://www.w3.org/2000/svg">
<path d="M10.8764 236C10.8764 236 10.5134 236.011 9.78744 236.033C9.08344 236.077 8.01644 236.121 6.58644 236.165C5.94844 236.165 5.62944 236.033 5.62944 235.769C5.62944 235.527 6.03644 235.329 6.85044 235.175C7.64244 235.043 8.24744 234.79 8.66544 234.416C9.08344 234.042 9.29244 233.481 9.29244 232.733V217.883C9.29244 217.091 9.12744 216.508 8.79744 216.134C8.46744 215.76 7.91744 215.54 7.14744 215.474C6.37744 215.408 5.99244 215.188 5.99244 214.814C5.99244 214.572 6.31144 214.451 6.94944 214.451L10.3814 214.484L14.0444 214.319C16.5304 214.319 18.3674 214.704 19.5554 215.474C20.7654 216.222 21.3704 217.476 21.3704 219.236C21.3704 220.138 21.2054 220.897 20.8754 221.513C20.5454 222.107 20.1274 222.591 19.6214 222.965C19.1154 223.317 18.5874 223.603 18.0374 223.823C17.9494 223.845 17.9054 223.9 17.9054 223.988C17.9054 224.076 17.9494 224.131 18.0374 224.153C20.3254 224.857 21.7444 225.891 22.2944 227.255C22.5804 227.893 22.7234 228.663 22.7234 229.565C22.7234 231.281 22.3164 232.568 21.5024 233.426C21.0624 233.866 20.7104 234.174 20.4464 234.35C18.7304 235.538 16.5854 236.132 14.0114 236.132L10.8764 236ZM11.8664 222.536C11.8664 223.35 12.3724 223.757 13.3844 223.757C14.7484 223.757 15.9694 223.438 17.0474 222.8C17.3994 222.602 17.7294 222.239 18.0374 221.711C18.3674 221.183 18.5324 220.413 18.5324 219.401C18.5324 218.719 18.3894 218.07 18.1034 217.454C17.8174 216.838 17.3444 216.332 16.6844 215.936C16.0464 215.518 15.1664 215.309 14.0444 215.309C13.1864 215.309 12.6034 215.43 12.2954 215.672C12.0094 215.892 11.8664 216.266 11.8664 216.794V222.536ZM11.8664 232.436C11.8664 233.316 12.0754 233.932 12.4934 234.284C12.9114 234.614 13.5714 234.779 14.4734 234.779C15.3534 234.779 16.1784 234.559 16.9484 234.119C17.7404 233.657 18.3784 233.052 18.8624 232.304C19.3684 231.534 19.6214 230.687 19.6214 229.763C19.6214 228.465 19.3134 227.453 18.6974 226.727C18.0814 225.979 17.3224 225.451 16.4204 225.143C15.5184 224.835 14.6274 224.681 13.7474 224.681C13.1094 224.681 12.6364 224.813 12.3284 225.077C12.0204 225.319 11.8664 225.583 11.8664 225.869V232.436ZM28.3706 235.934L25.6976 236.099C25.2576 236.099 25.0376 235.989 25.0376 235.769C25.0376 235.571 25.2356 235.406 25.6316 235.274C26.0276 235.142 26.2916 235.054 26.4236 235.01C26.5556 234.944 26.6986 234.823 26.8526 234.647C26.9846 234.471 27.0506 234.24 27.0506 233.954V226.859C27.0506 225.473 26.5996 224.681 25.6976 224.483C25.5216 224.439 25.4336 224.296 25.4336 224.054C25.4336 223.812 25.5106 223.68 25.6646 223.658C26.4786 223.504 27.0946 223.284 27.5126 222.998C27.8866 222.756 28.1946 222.558 28.4366 222.404C28.7006 222.25 28.8876 222.129 28.9976 222.041C29.2396 221.909 29.3606 221.832 29.3606 221.81H29.4596C29.5256 221.81 29.5696 221.887 29.5916 222.041C29.5916 222.327 29.5916 222.613 29.5916 222.899C29.5916 223.185 29.5806 223.471 29.5586 223.757C29.5366 224.307 29.5366 224.582 29.5586 224.582C29.5586 224.582 29.6136 224.527 29.7236 224.417C30.0316 224.021 30.2296 223.801 30.3176 223.757C31.3516 222.811 32.3636 222.338 33.3536 222.338C33.8156 222.338 34.1896 222.437 34.4756 222.635C34.7836 222.833 34.9376 223.097 34.9376 223.427C34.9376 223.757 34.7946 224.12 34.5086 224.516C34.2446 224.912 33.9916 225.11 33.7496 225.11C33.5076 225.11 33.1556 225.011 32.6936 224.813C32.2316 224.615 31.8906 224.516 31.6706 224.516C31.0326 224.516 30.4826 224.725 30.0206 225.143C29.5806 225.561 29.3606 226.276 29.3606 227.288V233.789C29.3826 234.361 29.9766 234.834 31.1426 235.208C31.6486 235.384 31.9016 235.571 31.9016 235.769C31.9016 235.989 31.6816 236.099 31.2416 236.099L28.3706 235.934ZM42.5601 235.175C42.2521 235.461 41.7901 235.747 41.1741 236.033C40.5801 236.319 39.9201 236.462 39.1941 236.462C38.7101 236.462 38.2371 236.33 37.7751 236.066C37.3351 235.824 36.9721 235.505 36.6861 235.109C36.4001 234.691 36.2571 234.273 36.2571 233.855C36.2571 232.535 37.0601 231.545 38.6661 230.885L42.0321 229.499C42.4501 229.323 42.7031 229.169 42.7911 229.037C42.8791 228.905 42.9341 228.619 42.9561 228.179L43.0221 226.133V226.067C43.0221 225.495 42.8351 225 42.4611 224.582C42.1091 224.164 41.7021 223.955 41.2401 223.955C40.7561 223.955 40.3051 224.076 39.8871 224.318C39.4691 224.538 39.2051 224.747 39.0951 224.945C38.9851 225.165 38.9301 225.396 38.9301 225.638L38.9631 226.1C38.9631 226.232 38.8091 226.386 38.5011 226.562C38.1931 226.738 37.8631 226.903 37.5111 227.057C37.1591 227.189 36.9061 227.255 36.7521 227.255C36.5321 227.255 36.4221 227.156 36.4221 226.958C36.4221 226.452 36.5981 225.968 36.9501 225.506C37.3021 225.044 37.7531 224.604 38.3031 224.186C38.8751 223.768 39.4691 223.394 40.0851 223.064C40.9871 222.58 41.8451 222.338 42.6591 222.338C43.4291 222.338 44.0781 222.624 44.6061 223.196C45.1341 223.768 45.3871 224.461 45.3651 225.275L45.2001 232.403V232.601C45.2001 234.163 45.5961 234.944 46.3881 234.944C46.9161 234.944 47.3561 234.79 47.7081 234.482C47.7521 234.438 47.8071 234.416 47.8731 234.416C47.9611 234.416 48.0381 234.449 48.1041 234.515C48.1921 234.581 48.2361 234.669 48.2361 234.779V234.812C48.1481 234.988 47.9611 235.208 47.6751 235.472C47.3891 235.736 47.0591 235.967 46.6851 236.165C46.3111 236.363 45.9481 236.462 45.5961 236.462C45.0461 236.462 44.5841 236.319 44.2101 236.033C43.8581 235.747 43.6051 235.461 43.4511 235.175C43.2971 234.889 43.1981 234.746 43.1541 234.746C43.0441 234.746 42.8461 234.889 42.5601 235.175ZM38.8971 233.129C38.8971 233.701 39.0731 234.152 39.4251 234.482C39.7771 234.79 40.2061 234.944 40.7121 234.944C41.2181 234.944 41.7021 234.746 42.1641 234.35C42.6261 233.954 42.8681 233.415 42.8901 232.733L42.9561 231.116V230.951C42.9561 230.599 42.8571 230.423 42.6591 230.423C42.5271 230.423 42.3731 230.456 42.1971 230.522C39.9971 231.27 38.8971 232.139 38.8971 233.129ZM52.4077 235.934L49.7347 236.099C49.2947 236.099 49.0747 235.989 49.0747 235.769C49.0747 235.637 49.1627 235.527 49.3387 235.439C49.5147 235.329 49.7017 235.241 49.8997 235.175C50.0977 235.109 50.2187 235.076 50.2627 235.076C50.3067 235.076 50.4167 235.032 50.5927 234.944C50.7687 234.856 50.8787 234.779 50.9227 234.713C51.1427 234.493 51.2527 234.24 51.2527 233.954V226.859C51.2527 225.451 50.8017 224.659 49.8997 224.483C49.7237 224.439 49.6357 224.296 49.6357 224.054C49.6357 223.812 49.7127 223.68 49.8667 223.658C51.0107 223.394 52.2207 222.789 53.4967 221.843C53.5187 221.821 53.5627 221.81 53.6287 221.81C53.6727 221.81 53.7277 221.909 53.7937 222.107L53.5627 224.252C53.5627 224.406 53.5737 224.494 53.5957 224.516C54.0137 224.164 54.5197 223.823 55.1137 223.493C55.7297 223.163 56.3897 222.888 57.0937 222.668C57.7977 222.448 58.4797 222.338 59.1397 222.338C59.7997 222.338 60.4047 222.547 60.9547 222.965C61.5047 223.361 61.9447 223.9 62.2747 224.582C62.6047 225.264 62.7697 226.045 62.7697 226.925V233.954C62.7697 234.394 62.9017 234.68 63.1657 234.812C63.4517 234.944 63.8257 235.087 64.2877 235.241C64.7277 235.417 64.9477 235.593 64.9477 235.769C64.9477 235.989 64.7277 236.099 64.2877 236.099L61.6477 235.934L58.9417 236.099C58.5017 236.099 58.2817 235.989 58.2817 235.769C58.2817 235.571 58.5347 235.384 59.0407 235.208C59.0847 235.208 59.1287 235.197 59.1727 235.175C59.9207 234.933 60.3387 234.636 60.4267 234.284C60.4487 234.24 60.4597 234.185 60.4597 234.119C60.4597 234.053 60.4597 233.998 60.4597 233.954V227.024C60.4597 226.078 60.1847 225.33 59.6347 224.78C59.0847 224.23 58.2817 223.955 57.2257 223.955C56.1477 223.955 55.2677 224.186 54.5857 224.648C53.9037 225.11 53.5627 225.946 53.5627 227.156V233.954C53.5627 234.394 53.6947 234.68 53.9587 234.812C54.2447 234.944 54.6187 235.087 55.0807 235.241C55.5207 235.417 55.7407 235.593 55.7407 235.769C55.7407 235.989 55.5207 236.099 55.0807 236.099L52.4077 235.934ZM77.9611 233.393C77.9611 233.833 77.6971 234.295 77.1691 234.779C76.6411 235.241 75.9371 235.637 75.0571 235.967C74.1991 236.297 73.2751 236.462 72.2851 236.462C71.2951 236.462 70.3821 236.176 69.5461 235.604C68.7321 235.01 68.0721 234.218 67.5661 233.228C67.0821 232.216 66.8401 231.072 66.8401 229.796C66.8401 228.52 67.1481 227.321 67.7641 226.199C68.3801 225.055 69.2051 224.131 70.2391 223.427C71.2731 222.723 72.4171 222.371 73.6711 222.371C75.5411 222.371 76.9051 222.899 77.7631 223.955C77.8731 224.131 77.9281 224.296 77.9281 224.45C77.9281 224.648 77.7631 224.868 77.4331 225.11C77.1251 225.352 76.8391 225.473 76.5751 225.473C76.3111 225.473 76.0691 225.363 75.8491 225.143C75.4531 224.703 75.1231 224.373 74.8591 224.153C74.5951 223.933 74.3091 223.79 74.0011 223.724C73.6931 223.636 73.2751 223.592 72.7471 223.592C71.6031 223.592 70.7121 224.087 70.0741 225.077C69.4361 226.045 69.1171 227.277 69.1171 228.773C69.1171 229.763 69.3371 230.72 69.7771 231.644C70.2391 232.546 70.8661 233.294 71.6581 233.888C72.4501 234.46 73.3521 234.746 74.3641 234.746C75.0241 234.746 75.5521 234.625 75.9481 234.383C76.3661 234.119 76.8061 233.69 77.2681 233.096C77.3781 232.986 77.4771 232.931 77.5651 232.931C77.6531 232.931 77.7411 232.986 77.8291 233.096C77.9171 233.184 77.9611 233.283 77.9611 233.393ZM82.0845 235.934L79.4115 236.099C78.9715 236.099 78.7515 235.989 78.7515 235.769C78.7515 235.571 78.9495 235.406 79.3455 235.274C79.7415 235.142 80.1045 234.999 80.4345 234.845C80.7645 234.691 80.9295 234.361 80.9295 233.855V217.322C80.9295 215.914 80.4345 215.111 79.4445 214.913C79.2685 214.869 79.1805 214.726 79.1805 214.484C79.1805 214.242 79.2575 214.11 79.4115 214.088C79.9835 213.956 81.2595 213.516 83.2395 212.768L83.3055 212.735C83.4375 212.735 83.5035 212.867 83.5035 213.131C83.5035 213.263 83.4925 213.362 83.4705 213.428C83.3825 213.912 83.3165 214.495 83.2725 215.177C83.2505 215.837 83.2395 216.596 83.2395 217.454V223.196C83.2395 223.768 83.3275 224.175 83.5035 224.417C85.3955 223.031 87.0565 222.338 88.4865 222.338C89.5645 222.338 90.4555 222.767 91.1595 223.625C91.8855 224.483 92.2485 225.55 92.2485 226.826V233.756C92.2485 234.46 92.6995 234.944 93.6015 235.208C94.1075 235.384 94.3605 235.571 94.3605 235.769C94.3605 235.989 94.1405 236.099 93.7005 236.099L91.1265 235.934L88.5525 236.099C88.1125 236.099 87.8925 235.989 87.8925 235.769C87.8925 235.571 88.1455 235.384 88.6515 235.208C89.5095 234.944 89.9385 234.46 89.9385 233.756V227.024C89.9385 226.496 89.7845 226.012 89.4765 225.572C89.1685 225.11 88.7835 224.747 88.3215 224.483C87.8595 224.197 87.3755 224.054 86.8695 224.054C85.6595 224.054 84.7465 224.296 84.1305 224.78C83.7785 225.066 83.5365 225.374 83.4045 225.704C83.2945 226.012 83.2395 226.496 83.2395 227.156V233.855C83.2835 234.537 83.7015 234.988 84.4935 235.208C84.9995 235.384 85.2525 235.571 85.2525 235.769C85.2525 235.989 85.0325 236.099 84.5925 236.099L82.0845 235.934ZM115.312 233.393C115.312 233.833 115.048 234.295 114.52 234.779C113.992 235.241 113.288 235.637 112.408 235.967C111.55 236.297 110.626 236.462 109.636 236.462C108.646 236.462 107.733 236.176 106.897 235.604C106.083 235.01 105.423 234.218 104.917 233.228C104.433 232.216 104.191 231.072 104.191 229.796C104.191 228.52 104.499 227.321 105.115 226.199C105.731 225.055 106.556 224.131 107.59 223.427C108.624 222.723 109.768 222.371 111.022 222.371C112.892 222.371 114.256 222.899 115.114 223.955C115.224 224.131 115.279 224.296 115.279 224.45C115.279 224.648 115.114 224.868 114.784 225.11C114.476 225.352 114.19 225.473 113.926 225.473C113.662 225.473 113.42 225.363 113.2 225.143C112.804 224.703 112.474 224.373 112.21 224.153C111.946 223.933 111.66 223.79 111.352 223.724C111.044 223.636 110.626 223.592 110.098 223.592C108.954 223.592 108.063 224.087 107.425 225.077C106.787 226.045 106.468 227.277 106.468 228.773C106.468 229.763 106.688 230.72 107.128 231.644C107.59 232.546 108.217 233.294 109.009 233.888C109.801 234.46 110.703 234.746 111.715 234.746C112.375 234.746 112.903 234.625 113.299 234.383C113.717 234.119 114.157 233.69 114.619 233.096C114.729 232.986 114.828 232.931 114.916 232.931C115.004 232.931 115.092 232.986 115.18 233.096C115.268 233.184 115.312 233.283 115.312 233.393ZM122.933 235.175C122.625 235.461 122.163 235.747 121.547 236.033C120.953 236.319 120.293 236.462 119.567 236.462C119.083 236.462 118.61 236.33 118.148 236.066C117.708 235.824 117.345 235.505 117.059 235.109C116.773 234.691 116.63 234.273 116.63 233.855C116.63 232.535 117.433 231.545 119.039 230.885L122.405 229.499C122.823 229.323 123.076 229.169 123.164 229.037C123.252 228.905 123.307 228.619 123.329 228.179L123.395 226.133V226.067C123.395 225.495 123.208 225 122.834 224.582C122.482 224.164 122.075 223.955 121.613 223.955C121.129 223.955 120.678 224.076 120.26 224.318C119.842 224.538 119.578 224.747 119.468 224.945C119.358 225.165 119.303 225.396 119.303 225.638L119.336 226.1C119.336 226.232 119.182 226.386 118.874 226.562C118.566 226.738 118.236 226.903 117.884 227.057C117.532 227.189 117.279 227.255 117.125 227.255C116.905 227.255 116.795 227.156 116.795 226.958C116.795 226.452 116.971 225.968 117.323 225.506C117.675 225.044 118.126 224.604 118.676 224.186C119.248 223.768 119.842 223.394 120.458 223.064C121.36 222.58 122.218 222.338 123.032 222.338C123.802 222.338 124.451 222.624 124.979 223.196C125.507 223.768 125.76 224.461 125.738 225.275L125.573 232.403V232.601C125.573 234.163 125.969 234.944 126.761 234.944C127.289 234.944 127.729 234.79 128.081 234.482C128.125 234.438 128.18 234.416 128.246 234.416C128.334 234.416 128.411 234.449 128.477 234.515C128.565 234.581 128.609 234.669 128.609 234.779V234.812C128.521 234.988 128.334 235.208 128.048 235.472C127.762 235.736 127.432 235.967 127.058 236.165C126.684 236.363 126.321 236.462 125.969 236.462C125.419 236.462 124.957 236.319 124.583 236.033C124.231 235.747 123.978 235.461 123.824 235.175C123.67 234.889 123.571 234.746 123.527 234.746C123.417 234.746 123.219 234.889 122.933 235.175ZM119.27 233.129C119.27 233.701 119.446 234.152 119.798 234.482C120.15 234.79 120.579 234.944 121.085 234.944C121.591 234.944 122.075 234.746 122.537 234.35C122.999 233.954 123.241 233.415 123.263 232.733L123.329 231.116V230.951C123.329 230.599 123.23 230.423 123.032 230.423C122.9 230.423 122.746 230.456 122.57 230.522C120.37 231.27 119.27 232.139 119.27 233.129ZM138.226 235.109C137.874 235.439 137.379 235.747 136.741 236.033C136.125 236.319 135.509 236.462 134.893 236.462C133.815 236.462 132.968 236.143 132.352 235.505C131.758 234.845 131.461 233.855 131.461 232.535V224.879C131.461 224.681 131.384 224.549 131.23 224.483C131.076 224.417 130.735 224.384 130.207 224.384C130.141 224.384 130.053 224.296 129.943 224.12C129.855 223.944 129.811 223.812 129.811 223.724C129.811 223.636 129.866 223.559 129.976 223.493C130.482 223.339 130.999 223.02 131.527 222.536C132.055 222.052 132.484 221.601 132.814 221.183C133.144 220.765 133.342 220.556 133.408 220.556C133.716 220.556 133.87 220.666 133.87 220.886L133.804 222.338C133.804 222.646 134.068 222.8 134.596 222.8H138.358C138.578 222.8 138.688 223.064 138.688 223.592C138.688 224.12 138.578 224.384 138.358 224.384H135.091C134.497 224.384 134.123 224.428 133.969 224.516C133.837 224.604 133.771 224.868 133.771 225.308V231.545C133.771 232.667 133.98 233.47 134.398 233.954C134.816 234.416 135.333 234.647 135.949 234.647C137.049 234.647 137.874 234.438 138.424 234.02C138.446 233.998 138.479 233.987 138.523 233.987C138.677 233.987 138.754 234.13 138.754 234.416C138.754 234.592 138.578 234.823 138.226 235.109ZM150.649 233.657C150.561 234.031 150.286 234.438 149.824 234.878C149.362 235.318 148.757 235.692 148.009 236C147.261 236.308 146.403 236.462 145.435 236.462C144.467 236.462 143.565 236.165 142.729 235.571C141.915 234.955 141.255 234.119 140.749 233.063C140.265 232.007 140.023 230.808 140.023 229.466C140.023 228.124 140.309 226.914 140.881 225.836C141.475 224.758 142.267 223.911 143.257 223.295C144.247 222.657 145.358 222.338 146.59 222.338C147.91 222.338 148.944 222.613 149.692 223.163C150.462 223.713 150.847 224.461 150.847 225.407C150.847 226.353 150.605 226.947 150.121 227.189C149.659 227.409 149.054 227.519 148.306 227.519H142.894C142.586 227.519 142.366 227.596 142.234 227.75C142.124 227.882 142.069 228.212 142.069 228.74C142.069 229.752 142.289 230.698 142.729 231.578C143.169 232.458 143.752 233.162 144.478 233.69C145.226 234.218 146.062 234.482 146.986 234.482C148.328 234.482 149.384 233.998 150.154 233.03C150.308 232.876 150.429 232.799 150.517 232.799C150.671 232.799 150.748 232.909 150.748 233.129C150.748 233.283 150.715 233.459 150.649 233.657ZM142.696 226.001C142.696 226.331 142.905 226.496 143.323 226.496H146.029C146.535 226.496 146.986 226.485 147.382 226.463C147.8 226.419 148.152 226.375 148.438 226.331C148.658 226.309 148.768 225.99 148.768 225.374C148.768 224.78 148.493 224.296 147.943 223.922C147.393 223.548 146.733 223.361 145.963 223.361C145.435 223.361 144.918 223.515 144.412 223.823C143.928 224.109 143.521 224.461 143.191 224.879C142.861 225.275 142.696 225.649 142.696 226.001ZM165.621 238.541C165.621 239.421 165.401 240.279 164.961 241.115C164.521 241.951 163.938 242.699 163.212 243.359C162.508 244.041 161.727 244.58 160.869 244.976C160.011 245.372 159.164 245.57 158.328 245.57C157.206 245.57 156.183 245.438 155.259 245.174C154.335 244.91 153.587 244.503 153.015 243.953C152.465 243.403 152.19 242.688 152.19 241.808C152.19 241.126 152.355 240.532 152.685 240.026C153.037 239.542 153.62 239.047 154.434 238.541C155.204 238.057 155.765 237.551 156.117 237.023C155.369 236.869 154.687 236.583 154.071 236.165C153.455 235.769 153.147 235.23 153.147 234.548C153.147 234.13 153.4 233.723 153.906 233.327C154.06 233.195 154.269 233.063 154.533 232.931C155.127 232.579 155.567 232.205 155.853 231.809C155.567 231.743 155.149 231.457 154.599 230.951C153.521 229.939 152.982 228.718 152.982 227.288C152.982 226.32 153.257 225.462 153.807 224.714C154.357 223.966 155.083 223.372 155.985 222.932C156.887 222.492 157.844 222.272 158.856 222.272C159.142 222.272 159.439 222.305 159.747 222.371C160.077 222.437 160.429 222.525 160.803 222.635C162.233 223.075 163.344 223.295 164.136 223.295L165.192 223.262H165.588C165.764 223.262 165.907 223.295 166.017 223.361C166.127 223.427 166.182 223.603 166.182 223.889C166.182 224.285 166.083 224.483 165.885 224.483C165.093 224.483 164.631 224.505 164.499 224.549L164.235 224.648C164.147 224.692 164.07 224.725 164.004 224.747C163.916 224.945 163.872 225.451 163.872 226.265C163.872 227.365 163.63 228.388 163.146 229.334C162.662 230.28 162.002 231.05 161.166 231.644C160.33 232.216 159.384 232.502 158.328 232.502C157.646 232.502 157.052 232.37 156.546 232.106C155.578 232.876 155.094 233.415 155.094 233.723C155.094 234.427 156.15 234.878 158.262 235.076C161.166 235.34 162.849 235.582 163.311 235.802C163.641 235.934 163.982 236.088 164.334 236.264C164.708 236.462 165.016 236.726 165.258 237.056C165.5 237.408 165.621 237.903 165.621 238.541ZM155.556 227.222C155.556 227.882 155.688 228.531 155.952 229.169C156.216 229.785 156.579 230.302 157.041 230.72C157.503 231.138 158.02 231.347 158.592 231.347C159.164 231.347 159.67 231.16 160.11 230.786C160.572 230.412 160.924 229.917 161.166 229.301C161.43 228.663 161.562 227.992 161.562 227.288C161.562 226.584 161.419 225.924 161.133 225.308C160.869 224.692 160.506 224.197 160.044 223.823C159.582 223.449 159.054 223.262 158.46 223.262C157.888 223.262 157.382 223.46 156.942 223.856C156.502 224.23 156.161 224.725 155.919 225.341C155.677 225.935 155.556 226.562 155.556 227.222ZM154.533 240.422C154.533 241.544 154.907 242.457 155.655 243.161C156.425 243.887 157.459 244.25 158.757 244.25C159.637 244.25 160.44 244.041 161.166 243.623C161.892 243.227 162.475 242.677 162.915 241.973C163.377 241.269 163.608 240.477 163.608 239.597C163.608 239.047 163.333 238.585 162.783 238.211C162.255 237.837 161.617 237.573 160.869 237.419C160.099 237.287 159.054 237.188 157.734 237.122H156.975C156.843 237.21 156.634 237.375 156.348 237.617C156.084 237.881 155.743 238.222 155.325 238.64C154.797 239.256 154.533 239.85 154.533 240.422ZM181.347 229.169C181.347 230.445 181.05 231.644 180.456 232.766C179.884 233.866 179.037 234.757 177.915 235.439C176.815 236.121 175.473 236.462 173.889 236.462C172.657 236.462 171.535 236.176 170.523 235.604C169.533 235.032 168.752 234.251 168.18 233.261C167.608 232.249 167.322 231.105 167.322 229.829C167.322 228.883 167.509 227.97 167.883 227.09C168.257 226.188 168.774 225.385 169.434 224.681C170.116 223.955 170.886 223.383 171.744 222.965C172.602 222.547 173.515 222.338 174.483 222.338C175.781 222.338 176.947 222.646 177.981 223.262C179.015 223.856 179.829 224.67 180.423 225.704C181.039 226.716 181.347 227.871 181.347 229.169ZM170.028 229.07C170.028 230.192 170.226 231.248 170.622 232.238C171.04 233.206 171.59 233.987 172.272 234.581C172.976 235.175 173.746 235.472 174.582 235.472C175.682 235.472 176.518 235.241 177.09 234.779C177.684 234.295 178.091 233.635 178.311 232.799C178.531 231.941 178.641 230.951 178.641 229.829C178.641 228.685 178.432 227.629 178.014 226.661C177.618 225.671 177.068 224.879 176.364 224.285C175.682 223.669 174.89 223.361 173.988 223.361C171.348 223.361 170.028 225.264 170.028 229.07ZM186.796 235.934L184.123 236.099C183.683 236.099 183.463 235.989 183.463 235.769C183.463 235.571 183.661 235.406 184.057 235.274C184.453 235.142 184.717 235.054 184.849 235.01C184.981 234.944 185.124 234.823 185.278 234.647C185.41 234.471 185.476 234.24 185.476 233.954V226.859C185.476 225.473 185.025 224.681 184.123 224.483C183.947 224.439 183.859 224.296 183.859 224.054C183.859 223.812 183.936 223.68 184.09 223.658C184.904 223.504 185.52 223.284 185.938 222.998C186.312 222.756 186.62 222.558 186.862 222.404C187.126 222.25 187.313 222.129 187.423 222.041C187.665 221.909 187.786 221.832 187.786 221.81H187.885C187.951 221.81 187.995 221.887 188.017 222.041C188.017 222.327 188.017 222.613 188.017 222.899C188.017 223.185 188.006 223.471 187.984 223.757C187.962 224.307 187.962 224.582 187.984 224.582C187.984 224.582 188.039 224.527 188.149 224.417C188.457 224.021 188.655 223.801 188.743 223.757C189.777 222.811 190.789 222.338 191.779 222.338C192.241 222.338 192.615 222.437 192.901 222.635C193.209 222.833 193.363 223.097 193.363 223.427C193.363 223.757 193.22 224.12 192.934 224.516C192.67 224.912 192.417 225.11 192.175 225.11C191.933 225.11 191.581 225.011 191.119 224.813C190.657 224.615 190.316 224.516 190.096 224.516C189.458 224.516 188.908 224.725 188.446 225.143C188.006 225.561 187.786 226.276 187.786 227.288V233.789C187.808 234.361 188.402 234.834 189.568 235.208C190.074 235.384 190.327 235.571 190.327 235.769C190.327 235.989 190.107 236.099 189.667 236.099L186.796 235.934ZM199.138 240.818C198.808 241.632 198.5 242.391 198.214 243.095C197.95 243.799 197.631 244.36 197.257 244.778C196.883 245.196 196.344 245.405 195.64 245.405C195.222 245.405 194.837 245.295 194.485 245.075C194.133 244.855 193.957 244.569 193.957 244.217C193.957 243.557 194.254 243.227 194.848 243.227L196.168 243.425C196.41 243.425 196.619 243.304 196.795 243.062C197.301 242.182 197.807 241.192 198.313 240.092C198.819 239.014 199.314 237.826 199.798 236.528C199.864 236.33 199.897 236.055 199.897 235.703C199.897 235.307 199.853 235.01 199.765 234.812L195.937 225.143C195.563 224.219 195.068 223.68 194.452 223.526C193.946 223.35 193.693 223.152 193.693 222.932C193.693 222.734 193.913 222.635 194.353 222.635L196.762 222.8L199.27 222.635C199.71 222.635 199.93 222.756 199.93 222.998C199.93 223.306 199.611 223.548 198.973 223.724C198.533 223.856 198.313 224.208 198.313 224.78C198.313 224.934 198.401 225.242 198.577 225.704L201.184 232.172C201.25 232.37 201.327 232.469 201.415 232.469C201.503 232.469 201.591 232.359 201.679 232.139L203.89 226.265C204.066 225.847 204.154 225.374 204.154 224.846C204.154 224.296 203.89 223.911 203.362 223.691C202.812 223.471 202.537 223.24 202.537 222.998C202.537 222.756 202.757 222.635 203.197 222.635L205.54 222.8L207.487 222.635C207.927 222.635 208.147 222.734 208.147 222.932C208.147 223.152 207.938 223.328 207.52 223.46C207.102 223.614 206.706 223.9 206.332 224.318C205.958 224.736 205.661 225.209 205.441 225.737L200.953 236.429L200.425 237.749C200.073 238.563 199.644 239.586 199.138 240.818ZM58.8539 268.967L54.8939 269.165C54.2559 269.165 53.9369 269.022 53.9369 268.736C53.9369 268.45 54.2999 268.197 55.0259 267.977C56.3459 267.581 57.2919 266.734 57.8639 265.436C59.9539 260.618 62.0109 255.448 64.0349 249.926C64.3209 249.222 64.4639 248.716 64.4639 248.408C64.4639 248.144 64.4749 248.012 64.4969 248.012C65.2669 247.748 65.7289 247.528 65.8829 247.352C65.9489 247.264 66.0039 247.198 66.0479 247.154C66.0919 247.088 66.1249 247.033 66.1469 246.989C66.2569 246.791 66.3339 246.692 66.3779 246.692C66.4879 246.692 66.5979 246.846 66.7079 247.154C67.5219 249.706 68.4129 252.456 69.3809 255.404C70.3709 258.33 71.4379 261.454 72.5819 264.776C72.9999 265.986 73.4619 266.811 73.9679 267.251C74.4959 267.669 75.1339 267.944 75.8819 268.076C76.6299 268.208 77.0039 268.461 77.0039 268.835C77.0039 269.055 76.6849 269.165 76.0469 269.165L71.4599 268.967L67.9949 269C67.3569 269 67.0379 268.868 67.0379 268.604C67.0379 268.274 67.4009 268.065 68.1269 267.977C69.4689 267.757 70.1399 267.262 70.1399 266.492C70.1399 265.876 69.7219 264.149 68.8859 261.311C68.8199 261.069 68.5229 260.948 67.9949 260.948H61.6919C61.4499 260.948 61.2629 261.146 61.1309 261.542C60.2509 264.05 59.8109 265.568 59.8109 266.096C59.8109 266.58 59.9869 266.987 60.3389 267.317C60.7129 267.625 61.2189 267.867 61.8569 268.043C62.4949 268.219 62.8139 268.428 62.8139 268.67C62.8139 268.912 62.4949 269.033 61.8569 269.033L58.8539 268.967ZM61.9559 259.298C61.9559 259.452 62.1869 259.529 62.6489 259.529H67.7639C68.0719 259.529 68.2259 259.474 68.2259 259.364L68.1599 259.034L65.5529 251.147C65.4209 250.751 65.3329 250.553 65.2889 250.553C65.2229 250.553 65.1239 250.74 64.9919 251.114L62.0219 259.034L61.9559 259.298ZM80.6865 268.934L78.0135 269.099C77.5735 269.099 77.3535 268.989 77.3535 268.769C77.3535 268.637 77.4415 268.527 77.6175 268.439C77.7935 268.329 77.9805 268.241 78.1785 268.175C78.3765 268.109 78.4975 268.076 78.5415 268.076C78.5855 268.076 78.6955 268.032 78.8715 267.944C79.0475 267.856 79.1575 267.779 79.2015 267.713C79.4215 267.493 79.5315 267.24 79.5315 266.954V259.859C79.5315 258.451 79.0805 257.659 78.1785 257.483C78.0025 257.439 77.9145 257.296 77.9145 257.054C77.9145 256.812 77.9915 256.68 78.1455 256.658C79.2895 256.394 80.4995 255.789 81.7755 254.843C81.7975 254.821 81.8415 254.81 81.9075 254.81C81.9515 254.81 82.0065 254.909 82.0725 255.107L81.8415 257.252C81.8415 257.406 81.8525 257.494 81.8745 257.516C82.2925 257.164 82.7985 256.823 83.3925 256.493C84.0085 256.163 84.6685 255.888 85.3725 255.668C86.0765 255.448 86.7585 255.338 87.4185 255.338C88.0785 255.338 88.6835 255.547 89.2335 255.965C89.7835 256.361 90.2235 256.9 90.5535 257.582C90.8835 258.264 91.0485 259.045 91.0485 259.925V266.954C91.0485 267.394 91.1805 267.68 91.4445 267.812C91.7305 267.944 92.1045 268.087 92.5665 268.241C93.0065 268.417 93.2265 268.593 93.2265 268.769C93.2265 268.989 93.0065 269.099 92.5665 269.099L89.9265 268.934L87.2205 269.099C86.7805 269.099 86.5605 268.989 86.5605 268.769C86.5605 268.571 86.8135 268.384 87.3195 268.208C87.3635 268.208 87.4075 268.197 87.4515 268.175C88.1995 267.933 88.6175 267.636 88.7055 267.284C88.7275 267.24 88.7385 267.185 88.7385 267.119C88.7385 267.053 88.7385 266.998 88.7385 266.954V260.024C88.7385 259.078 88.4635 258.33 87.9135 257.78C87.3635 257.23 86.5605 256.955 85.5045 256.955C84.4265 256.955 83.5465 257.186 82.8645 257.648C82.1825 258.11 81.8415 258.946 81.8415 260.156V266.954C81.8415 267.394 81.9735 267.68 82.2375 267.812C82.5235 267.944 82.8975 268.087 83.3595 268.241C83.7995 268.417 84.0195 268.593 84.0195 268.769C84.0195 268.989 83.7995 269.099 83.3595 269.099L80.6865 268.934ZM101.422 268.175C101.114 268.461 100.652 268.747 100.036 269.033C99.4419 269.319 98.7819 269.462 98.0559 269.462C97.5719 269.462 97.0989 269.33 96.6369 269.066C96.1969 268.824 95.8339 268.505 95.5479 268.109C95.2619 267.691 95.1189 267.273 95.1189 266.855C95.1189 265.535 95.9219 264.545 97.5279 263.885L100.894 262.499C101.312 262.323 101.565 262.169 101.653 262.037C101.741 261.905 101.796 261.619 101.818 261.179L101.884 259.133V259.067C101.884 258.495 101.697 258 101.323 257.582C100.971 257.164 100.564 256.955 100.102 256.955C99.6179 256.955 99.1669 257.076 98.7489 257.318C98.3309 257.538 98.0669 257.747 97.9569 257.945C97.8469 258.165 97.7919 258.396 97.7919 258.638L97.8249 259.1C97.8249 259.232 97.6709 259.386 97.3629 259.562C97.0549 259.738 96.7249 259.903 96.3729 260.057C96.0209 260.189 95.7679 260.255 95.6139 260.255C95.3939 260.255 95.2839 260.156 95.2839 259.958C95.2839 259.452 95.4599 258.968 95.8119 258.506C96.1639 258.044 96.6149 257.604 97.1649 257.186C97.7369 256.768 98.3309 256.394 98.9469 256.064C99.8489 255.58 100.707 255.338 101.521 255.338C102.291 255.338 102.94 255.624 103.468 256.196C103.996 256.768 104.249 257.461 104.227 258.275L104.062 265.403V265.601C104.062 267.163 104.458 267.944 105.25 267.944C105.778 267.944 106.218 267.79 106.57 267.482C106.614 267.438 106.669 267.416 106.735 267.416C106.823 267.416 106.9 267.449 106.966 267.515C107.054 267.581 107.098 267.669 107.098 267.779V267.812C107.01 267.988 106.823 268.208 106.537 268.472C106.251 268.736 105.921 268.967 105.547 269.165C105.173 269.363 104.81 269.462 104.458 269.462C103.908 269.462 103.446 269.319 103.072 269.033C102.72 268.747 102.467 268.461 102.313 268.175C102.159 267.889 102.06 267.746 102.016 267.746C101.906 267.746 101.708 267.889 101.422 268.175ZM97.7589 266.129C97.7589 266.701 97.9349 267.152 98.2869 267.482C98.6389 267.79 99.0679 267.944 99.5739 267.944C100.08 267.944 100.564 267.746 101.026 267.35C101.488 266.954 101.73 266.415 101.752 265.733L101.818 264.116V263.951C101.818 263.599 101.719 263.423 101.521 263.423C101.389 263.423 101.235 263.456 101.059 263.522C98.8589 264.27 97.7589 265.139 97.7589 266.129ZM111.105 268.934L108.432 269.099C107.992 269.099 107.772 268.989 107.772 268.769C107.772 268.571 108.08 268.373 108.696 268.175C109.334 267.977 109.697 267.768 109.785 267.548C109.895 267.328 109.95 267.13 109.95 266.954V250.322C109.95 248.936 109.444 248.133 108.432 247.913C108.256 247.869 108.168 247.726 108.168 247.484C108.168 247.242 108.245 247.11 108.399 247.088C108.971 246.956 110.247 246.516 112.227 245.768H112.26L112.293 245.735C112.425 245.735 112.491 245.812 112.491 245.966L112.425 246.56C112.381 246.978 112.337 247.517 112.293 248.177C112.271 248.815 112.26 249.574 112.26 250.454V266.954C112.26 267.394 112.392 267.68 112.656 267.812C112.942 267.944 113.316 268.087 113.778 268.241C114.218 268.417 114.438 268.593 114.438 268.769C114.438 268.989 114.218 269.099 113.778 269.099L111.105 268.934ZM120.714 273.818C120.384 274.632 120.076 275.391 119.79 276.095C119.526 276.799 119.207 277.36 118.833 277.778C118.459 278.196 117.92 278.405 117.216 278.405C116.798 278.405 116.413 278.295 116.061 278.075C115.709 277.855 115.533 277.569 115.533 277.217C115.533 276.557 115.83 276.227 116.424 276.227L117.744 276.425C117.986 276.425 118.195 276.304 118.371 276.062C118.877 275.182 119.383 274.192 119.889 273.092C120.395 272.014 120.89 270.826 121.374 269.528C121.44 269.33 121.473 269.055 121.473 268.703C121.473 268.307 121.429 268.01 121.341 267.812L117.513 258.143C117.139 257.219 116.644 256.68 116.028 256.526C115.522 256.35 115.269 256.152 115.269 255.932C115.269 255.734 115.489 255.635 115.929 255.635L118.338 255.8L120.846 255.635C121.286 255.635 121.506 255.756 121.506 255.998C121.506 256.306 121.187 256.548 120.549 256.724C120.109 256.856 119.889 257.208 119.889 257.78C119.889 257.934 119.977 258.242 120.153 258.704L122.76 265.172C122.826 265.37 122.903 265.469 122.991 265.469C123.079 265.469 123.167 265.359 123.255 265.139L125.466 259.265C125.642 258.847 125.73 258.374 125.73 257.846C125.73 257.296 125.466 256.911 124.938 256.691C124.388 256.471 124.113 256.24 124.113 255.998C124.113 255.756 124.333 255.635 124.773 255.635L127.116 255.8L129.063 255.635C129.503 255.635 129.723 255.734 129.723 255.932C129.723 256.152 129.514 256.328 129.096 256.46C128.678 256.614 128.282 256.9 127.908 257.318C127.534 257.736 127.237 258.209 127.017 258.737L122.529 269.429L122.001 270.749C121.649 271.563 121.22 272.586 120.714 273.818ZM139.243 265.502C139.243 268.142 137.659 269.462 134.491 269.462C133.677 269.462 132.918 269.319 132.214 269.033C131.51 268.769 131.103 268.516 130.993 268.274C130.729 267.724 130.586 267.053 130.564 266.261C130.564 266.063 130.74 265.964 131.092 265.964C131.422 265.964 131.598 266.041 131.62 266.195C131.708 266.569 131.906 266.943 132.214 267.317C132.544 267.691 132.929 267.999 133.369 268.241C133.831 268.461 134.304 268.571 134.788 268.571C135.492 268.571 136.031 268.362 136.405 267.944C136.801 267.526 136.999 267.009 136.999 266.393C136.999 265.777 136.801 265.26 136.405 264.842C136.009 264.402 135.349 263.852 134.425 263.192C133.479 262.532 132.72 261.894 132.148 261.278C131.598 260.64 131.323 259.87 131.323 258.968C131.323 258.352 131.488 257.769 131.818 257.219C132.148 256.669 132.621 256.218 133.237 255.866C133.853 255.514 134.601 255.338 135.481 255.338C136.801 255.338 137.714 255.591 138.22 256.097C138.594 256.581 138.781 257.439 138.781 258.671C138.781 258.759 138.704 258.803 138.55 258.803C138.396 258.803 138.176 258.726 137.89 258.572C137.604 258.396 137.461 258.242 137.461 258.11C137.439 257.626 137.219 257.186 136.801 256.79C136.383 256.394 135.888 256.196 135.316 256.196C134.722 256.196 134.238 256.394 133.864 256.79C133.49 257.186 133.303 257.648 133.303 258.176C133.303 258.704 133.49 259.188 133.864 259.628C134.238 260.068 134.568 260.376 134.854 260.552C134.986 260.64 135.151 260.761 135.349 260.915C135.569 261.047 135.822 261.201 136.108 261.377C136.482 261.597 136.79 261.795 137.032 261.971C137.296 262.147 137.549 262.356 137.791 262.598C138.033 262.818 138.297 263.137 138.583 263.555C139.023 264.193 139.243 264.842 139.243 265.502ZM145.818 250.421C145.796 250.883 145.631 251.268 145.323 251.576C145.015 251.884 144.619 252.049 144.135 252.071C143.651 252.049 143.255 251.884 142.947 251.576C142.639 251.268 142.485 250.872 142.485 250.388C142.485 249.904 142.639 249.508 142.947 249.2C143.255 248.892 143.651 248.738 144.135 248.738C144.619 248.738 145.015 248.892 145.323 249.2C145.631 249.508 145.796 249.915 145.818 250.421ZM144.366 268.934L141.693 269.099C141.253 269.099 141.033 268.989 141.033 268.769C141.033 268.571 141.341 268.373 141.957 268.175C142.595 267.977 142.958 267.768 143.046 267.548C143.156 267.328 143.211 267.13 143.211 266.954V259.793C143.211 258.429 142.694 257.626 141.66 257.384C141.484 257.34 141.396 257.197 141.396 256.955C141.396 256.713 141.473 256.581 141.627 256.559C142.683 256.295 143.805 255.778 144.993 255.008C145.345 254.788 145.543 254.678 145.587 254.678C145.741 254.678 145.818 254.733 145.818 254.843C145.62 256.845 145.521 258.33 145.521 259.298V266.954C145.521 267.394 145.653 267.68 145.917 267.812C146.203 267.944 146.577 268.087 147.039 268.241C147.479 268.417 147.699 268.593 147.699 268.769C147.699 268.989 147.479 269.099 147.039 269.099L144.366 268.934ZM157.999 265.502C157.999 268.142 156.415 269.462 153.247 269.462C152.433 269.462 151.674 269.319 150.97 269.033C150.266 268.769 149.859 268.516 149.749 268.274C149.485 267.724 149.342 267.053 149.32 266.261C149.32 266.063 149.496 265.964 149.848 265.964C150.178 265.964 150.354 266.041 150.376 266.195C150.464 266.569 150.662 266.943 150.97 267.317C151.3 267.691 151.685 267.999 152.125 268.241C152.587 268.461 153.06 268.571 153.544 268.571C154.248 268.571 154.787 268.362 155.161 267.944C155.557 267.526 155.755 267.009 155.755 266.393C155.755 265.777 155.557 265.26 155.161 264.842C154.765 264.402 154.105 263.852 153.181 263.192C152.235 262.532 151.476 261.894 150.904 261.278C150.354 260.64 150.079 259.87 150.079 258.968C150.079 258.352 150.244 257.769 150.574 257.219C150.904 256.669 151.377 256.218 151.993 255.866C152.609 255.514 153.357 255.338 154.237 255.338C155.557 255.338 156.47 255.591 156.976 256.097C157.35 256.581 157.537 257.439 157.537 258.671C157.537 258.759 157.46 258.803 157.306 258.803C157.152 258.803 156.932 258.726 156.646 258.572C156.36 258.396 156.217 258.242 156.217 258.11C156.195 257.626 155.975 257.186 155.557 256.79C155.139 256.394 154.644 256.196 154.072 256.196C153.478 256.196 152.994 256.394 152.62 256.79C152.246 257.186 152.059 257.648 152.059 258.176C152.059 258.704 152.246 259.188 152.62 259.628C152.994 260.068 153.324 260.376 153.61 260.552C153.742 260.64 153.907 260.761 154.105 260.915C154.325 261.047 154.578 261.201 154.864 261.377C155.238 261.597 155.546 261.795 155.788 261.971C156.052 262.147 156.305 262.356 156.547 262.598C156.789 262.818 157.053 263.137 157.339 263.555C157.779 264.193 157.999 264.842 157.999 265.502Z" fill="white"/>
<rect x="1" y="1" width="204.75" height="198" rx="20" fill="#2ECC71" stroke="#0D1B2A" stroke-width="2"/>
<path d="M65.6053 79.0433L93.0526 35.4116C93.7894 34.2146 94.7105 33.3455 95.8158 32.8045C96.921 32.2634 98.0877 31.9953 99.3158 32.0001C100.544 32.0049 101.711 32.2754 102.816 32.8116C103.921 33.3479 104.842 34.2146 105.579 35.4116L133.026 79.0433C133.763 80.2403 134.132 81.4972 134.132 82.8139C134.132 84.1306 133.825 85.3277 133.21 86.405C132.596 87.4823 131.737 88.3513 130.632 89.0121C129.526 89.6729 128.237 90.0009 126.763 89.9961H71.8684C70.3947 89.9961 69.1052 89.6681 68 89.0121C66.8947 88.3561 66.0351 87.4871 65.421 86.405C64.807 85.3229 64.5 84.1258 64.5 82.8139C64.5 81.502 64.8684 80.2451 65.6053 79.0433ZM139.842 169C130.632 169 122.804 165.859 116.359 159.577C109.914 153.295 106.689 145.663 106.684 136.68C106.679 127.698 109.904 120.068 116.359 113.791C122.814 107.513 130.641 104.37 139.842 104.36C149.043 104.351 156.873 107.494 163.333 113.791C169.792 120.087 173.015 127.717 173 136.68C172.985 145.643 169.763 153.276 163.333 159.577C156.902 165.878 149.072 169.019 139.842 169ZM33 158.227V115.134C33 113.099 33.7074 111.394 35.1221 110.02C36.5368 108.646 38.2856 107.956 40.3684 107.951H84.5789C86.6666 107.951 88.4179 108.641 89.8326 110.02C91.2473 111.399 91.9523 113.103 91.9473 115.134V158.227C91.9473 160.262 91.24 161.969 89.8252 163.348C88.4105 164.727 86.6617 165.414 84.5789 165.409H40.3684C38.2807 165.409 36.5319 164.719 35.1221 163.34C33.7123 161.961 33.0049 160.257 33 158.227ZM139.842 154.636C145 154.636 149.36 152.9 152.921 149.428C156.482 145.957 158.263 141.708 158.263 136.68C158.263 131.653 156.482 127.403 152.921 123.932C149.36 120.46 145 118.725 139.842 118.725C134.684 118.725 130.325 120.46 126.763 123.932C123.202 127.403 121.421 131.653 121.421 136.68C121.421 141.708 123.202 145.957 126.763 149.428C130.325 152.9 134.684 154.636 139.842 154.636ZM47.7368 151.044H77.2105V122.316H47.7368V151.044ZM84.9473 75.6317H113.684L99.3158 53.0079L84.9473 75.6317Z" fill="#0D1B2A"/>
</svg>
