<svg width="207" height="286" viewBox="0 0 207 286" fill="none" xmlns="http://www.w3.org/2000/svg">
<path d="M54.4214 242.538C54.2014 243.066 54.0254 243.33 53.8934 243.33C53.7614 243.33 53.5964 243.044 53.3984 242.472C52.7824 240.624 51.9794 238.446 50.9894 235.938C50.0214 233.43 48.8554 230.603 47.4914 227.457C47.4034 227.215 47.3154 227.094 47.2274 227.094C47.1394 227.094 47.0844 227.215 47.0624 227.457C46.7104 230.053 46.4464 232.374 46.2704 234.42C46.0944 236.444 46.0064 238.182 46.0064 239.634C46.0064 240.162 46.1824 240.69 46.5344 241.218C46.8864 241.746 47.4254 242.076 48.1514 242.208C48.8774 242.34 49.2404 242.527 49.2404 242.769C49.2404 243.033 48.9214 243.165 48.2834 243.165L45.1814 243L42.1784 243.165C41.5404 243.165 41.2214 243.033 41.2214 242.769C41.2214 242.527 41.5844 242.34 42.3104 242.208C43.4544 242.01 44.1364 241.152 44.3564 239.634C44.7964 236.246 45.1264 233.353 45.3464 230.955C45.5884 228.557 45.7094 226.654 45.7094 225.246L45.6764 224.487C45.6764 224.179 45.5664 223.893 45.3464 223.629C45.1264 223.343 44.9284 223.145 44.7524 223.035C44.5984 222.925 44.4004 222.837 44.1584 222.771C43.9164 222.683 43.7184 222.617 43.5644 222.573C43.4764 222.551 43.3774 222.529 43.2674 222.507C43.1794 222.463 43.0694 222.43 42.9374 222.408C42.6734 222.364 42.4424 222.309 42.2444 222.243C42.0684 222.177 41.9804 222.012 41.9804 221.748C41.9804 221.506 42.2334 221.385 42.7394 221.385L48.2174 221.649C48.5034 221.649 48.8004 222.298 49.1084 223.596C49.1744 223.882 49.2294 224.124 49.2734 224.322C49.3394 224.498 49.3834 224.63 49.4054 224.718L54.6194 237.951C54.7514 238.281 54.8834 238.446 55.0154 238.446C55.1254 238.446 55.2464 238.314 55.3784 238.05L61.8794 224.52C61.9454 224.366 62.0004 224.19 62.0444 223.992C62.1104 223.794 62.1654 223.574 62.2094 223.332C62.4074 222.188 62.6054 221.616 62.8034 221.616H63.9914C64.2554 221.616 64.5634 221.605 64.9154 221.583C65.2674 221.561 65.6634 221.528 66.1034 221.484C66.5434 221.44 66.8844 221.407 67.1264 221.385C67.3904 221.363 67.5664 221.352 67.6544 221.352H67.7534C68.2154 221.352 68.4464 221.462 68.4464 221.682C68.4464 221.88 68.3034 222.056 68.0174 222.21C67.7534 222.364 67.4454 222.496 67.0934 222.606C66.7634 222.694 66.5104 222.771 66.3344 222.837C66.0484 222.925 65.7294 223.101 65.3774 223.365C65.0254 223.629 64.8494 223.926 64.8494 224.256C64.8494 225.73 64.8714 227.248 64.9154 228.81C64.9814 230.372 65.0694 231.967 65.1794 233.595C65.3994 236.851 65.5314 238.886 65.5754 239.7C65.6194 240.492 65.8284 241.075 66.2024 241.449C66.5984 241.801 67.1924 242.043 67.9844 242.175C68.7544 242.351 69.1394 242.549 69.1394 242.769C69.1394 243.033 68.8204 243.165 68.1824 243.165L64.3214 243L60.8564 243.165C60.2184 243.165 59.8994 243.044 59.8994 242.802C59.8994 242.494 60.2404 242.296 60.9224 242.208C61.6044 242.12 62.0664 241.9 62.3084 241.548C62.5504 241.196 62.6714 240.624 62.6714 239.832C62.6714 237.676 62.5394 233.628 62.2754 227.688C62.2754 227.336 62.2204 227.16 62.1104 227.16C62.0224 227.16 61.9014 227.336 61.7474 227.688L54.4214 242.538ZM77.7975 242.175C77.4895 242.461 77.0275 242.747 76.4115 243.033C75.8175 243.319 75.1575 243.462 74.4315 243.462C73.9475 243.462 73.4745 243.33 73.0125 243.066C72.5725 242.824 72.2095 242.505 71.9235 242.109C71.6375 241.691 71.4945 241.273 71.4945 240.855C71.4945 239.535 72.2975 238.545 73.9035 237.885L77.2695 236.499C77.6875 236.323 77.9405 236.169 78.0285 236.037C78.1165 235.905 78.1715 235.619 78.1935 235.179L78.2595 233.133V233.067C78.2595 232.495 78.0725 232 77.6985 231.582C77.3465 231.164 76.9395 230.955 76.4775 230.955C75.9935 230.955 75.5425 231.076 75.1245 231.318C74.7065 231.538 74.4425 231.747 74.3325 231.945C74.2225 232.165 74.1675 232.396 74.1675 232.638L74.2005 233.1C74.2005 233.232 74.0465 233.386 73.7385 233.562C73.4305 233.738 73.1005 233.903 72.7485 234.057C72.3965 234.189 72.1435 234.255 71.9895 234.255C71.7695 234.255 71.6595 234.156 71.6595 233.958C71.6595 233.452 71.8355 232.968 72.1875 232.506C72.5395 232.044 72.9905 231.604 73.5405 231.186C74.1125 230.768 74.7065 230.394 75.3225 230.064C76.2245 229.58 77.0825 229.338 77.8965 229.338C78.6665 229.338 79.3155 229.624 79.8435 230.196C80.3715 230.768 80.6245 231.461 80.6025 232.275L80.4375 239.403V239.601C80.4375 241.163 80.8335 241.944 81.6255 241.944C82.1535 241.944 82.5935 241.79 82.9455 241.482C82.9895 241.438 83.0445 241.416 83.1105 241.416C83.1985 241.416 83.2755 241.449 83.3415 241.515C83.4295 241.581 83.4735 241.669 83.4735 241.779V241.812C83.3855 241.988 83.1985 242.208 82.9125 242.472C82.6265 242.736 82.2965 242.967 81.9225 243.165C81.5485 243.363 81.1855 243.462 80.8335 243.462C80.2835 243.462 79.8215 243.319 79.4475 243.033C79.0955 242.747 78.8425 242.461 78.6885 242.175C78.5345 241.889 78.4355 241.746 78.3915 241.746C78.2815 241.746 78.0835 241.889 77.7975 242.175ZM74.1345 240.129C74.1345 240.701 74.3105 241.152 74.6625 241.482C75.0145 241.79 75.4435 241.944 75.9495 241.944C76.4555 241.944 76.9395 241.746 77.4015 241.35C77.8635 240.954 78.1055 240.415 78.1275 239.733L78.1935 238.116V237.951C78.1935 237.599 78.0945 237.423 77.8965 237.423C77.7645 237.423 77.6105 237.456 77.4345 237.522C75.2345 238.27 74.1345 239.139 74.1345 240.129ZM87.6451 242.934L84.9721 243.099C84.5321 243.099 84.3121 242.989 84.3121 242.769C84.3121 242.637 84.4001 242.527 84.5761 242.439C84.7521 242.329 84.9391 242.241 85.1371 242.175C85.3351 242.109 85.4561 242.076 85.5001 242.076C85.5441 242.076 85.6541 242.032 85.8301 241.944C86.0061 241.856 86.1161 241.779 86.1601 241.713C86.3801 241.493 86.4901 241.24 86.4901 240.954V233.859C86.4901 232.451 86.0391 231.659 85.1371 231.483C84.9611 231.439 84.8731 231.296 84.8731 231.054C84.8731 230.812 84.9501 230.68 85.1041 230.658C86.2481 230.394 87.4581 229.789 88.7341 228.843C88.7561 228.821 88.8001 228.81 88.8661 228.81C88.9101 228.81 88.9651 228.909 89.0311 229.107L88.8001 231.252C88.8001 231.406 88.8111 231.494 88.8331 231.516C89.2511 231.164 89.7571 230.823 90.3511 230.493C90.9671 230.163 91.6271 229.888 92.3311 229.668C93.0351 229.448 93.7172 229.338 94.3772 229.338C95.0372 229.338 95.6421 229.547 96.1921 229.965C96.7421 230.361 97.1821 230.9 97.5122 231.582C97.8421 232.264 98.0071 233.045 98.0071 233.925V240.954C98.0071 241.394 98.1391 241.68 98.4032 241.812C98.6891 241.944 99.0631 242.087 99.5251 242.241C99.9651 242.417 100.185 242.593 100.185 242.769C100.185 242.989 99.9651 243.099 99.5251 243.099L96.8852 242.934L94.1791 243.099C93.7391 243.099 93.5191 242.989 93.5191 242.769C93.5191 242.571 93.7721 242.384 94.2781 242.208C94.3221 242.208 94.3661 242.197 94.4101 242.175C95.1581 241.933 95.5762 241.636 95.6642 241.284C95.6861 241.24 95.6971 241.185 95.6971 241.119C95.6971 241.053 95.6971 240.998 95.6971 240.954V234.024C95.6971 233.078 95.4221 232.33 94.8721 231.78C94.3221 231.23 93.5191 230.955 92.4632 230.955C91.3851 230.955 90.5051 231.186 89.8231 231.648C89.1411 232.11 88.8001 232.946 88.8001 234.156V240.954C88.8001 241.394 88.9321 241.68 89.1961 241.812C89.4821 241.944 89.8561 242.087 90.3181 242.241C90.7581 242.417 90.9781 242.593 90.9781 242.769C90.9781 242.989 90.7581 243.099 90.3181 243.099L87.6451 242.934ZM108.38 242.175C108.072 242.461 107.61 242.747 106.994 243.033C106.4 243.319 105.74 243.462 105.014 243.462C104.53 243.462 104.057 243.33 103.595 243.066C103.155 242.824 102.792 242.505 102.506 242.109C102.22 241.691 102.077 241.273 102.077 240.855C102.077 239.535 102.88 238.545 104.486 237.885L107.852 236.499C108.27 236.323 108.523 236.169 108.611 236.037C108.699 235.905 108.754 235.619 108.776 235.179L108.842 233.133V233.067C108.842 232.495 108.655 232 108.281 231.582C107.929 231.164 107.522 230.955 107.06 230.955C106.576 230.955 106.125 231.076 105.707 231.318C105.289 231.538 105.025 231.747 104.915 231.945C104.805 232.165 104.75 232.396 104.75 232.638L104.783 233.1C104.783 233.232 104.629 233.386 104.321 233.562C104.013 233.738 103.683 233.903 103.331 234.057C102.979 234.189 102.726 234.255 102.572 234.255C102.352 234.255 102.242 234.156 102.242 233.958C102.242 233.452 102.418 232.968 102.77 232.506C103.122 232.044 103.573 231.604 104.123 231.186C104.695 230.768 105.289 230.394 105.905 230.064C106.807 229.58 107.665 229.338 108.479 229.338C109.249 229.338 109.898 229.624 110.426 230.196C110.954 230.768 111.207 231.461 111.185 232.275L111.02 239.403V239.601C111.02 241.163 111.416 241.944 112.208 241.944C112.736 241.944 113.176 241.79 113.528 241.482C113.572 241.438 113.627 241.416 113.693 241.416C113.781 241.416 113.858 241.449 113.924 241.515C114.012 241.581 114.056 241.669 114.056 241.779V241.812C113.968 241.988 113.781 242.208 113.495 242.472C113.209 242.736 112.879 242.967 112.505 243.165C112.131 243.363 111.768 243.462 111.416 243.462C110.866 243.462 110.404 243.319 110.03 243.033C109.678 242.747 109.425 242.461 109.271 242.175C109.117 241.889 109.018 241.746 108.974 241.746C108.864 241.746 108.666 241.889 108.38 242.175ZM104.717 240.129C104.717 240.701 104.893 241.152 105.245 241.482C105.597 241.79 106.026 241.944 106.532 241.944C107.038 241.944 107.522 241.746 107.984 241.35C108.446 240.954 108.688 240.415 108.71 239.733L108.776 238.116V237.951C108.776 237.599 108.677 237.423 108.479 237.423C108.347 237.423 108.193 237.456 108.017 237.522C105.817 238.27 104.717 239.139 104.717 240.129ZM127.897 245.541C127.897 246.421 127.677 247.279 127.237 248.115C126.797 248.951 126.214 249.699 125.488 250.359C124.784 251.041 124.003 251.58 123.145 251.976C122.287 252.372 121.44 252.57 120.604 252.57C119.482 252.57 118.459 252.438 117.535 252.174C116.611 251.91 115.863 251.503 115.291 250.953C114.741 250.403 114.466 249.688 114.466 248.808C114.466 248.126 114.631 247.532 114.961 247.026C115.313 246.542 115.896 246.047 116.71 245.541C117.48 245.057 118.041 244.551 118.393 244.023C117.645 243.869 116.963 243.583 116.347 243.165C115.731 242.769 115.423 242.23 115.423 241.548C115.423 241.13 115.676 240.723 116.182 240.327C116.336 240.195 116.545 240.063 116.809 239.931C117.403 239.579 117.843 239.205 118.129 238.809C117.843 238.743 117.425 238.457 116.875 237.951C115.797 236.939 115.258 235.718 115.258 234.288C115.258 233.32 115.533 232.462 116.083 231.714C116.633 230.966 117.359 230.372 118.261 229.932C119.163 229.492 120.12 229.272 121.132 229.272C121.418 229.272 121.715 229.305 122.023 229.371C122.353 229.437 122.705 229.525 123.079 229.635C124.509 230.075 125.62 230.295 126.412 230.295L127.468 230.262H127.864C128.04 230.262 128.183 230.295 128.293 230.361C128.403 230.427 128.458 230.603 128.458 230.889C128.458 231.285 128.359 231.483 128.161 231.483C127.369 231.483 126.907 231.505 126.775 231.549L126.511 231.648C126.423 231.692 126.346 231.725 126.28 231.747C126.192 231.945 126.148 232.451 126.148 233.265C126.148 234.365 125.906 235.388 125.422 236.334C124.938 237.28 124.278 238.05 123.442 238.644C122.606 239.216 121.66 239.502 120.604 239.502C119.922 239.502 119.328 239.37 118.822 239.106C117.854 239.876 117.37 240.415 117.37 240.723C117.37 241.427 118.426 241.878 120.538 242.076C123.442 242.34 125.125 242.582 125.587 242.802C125.917 242.934 126.258 243.088 126.61 243.264C126.984 243.462 127.292 243.726 127.534 244.056C127.776 244.408 127.897 244.903 127.897 245.541ZM117.832 234.222C117.832 234.882 117.964 235.531 118.228 236.169C118.492 236.785 118.855 237.302 119.317 237.72C119.779 238.138 120.296 238.347 120.868 238.347C121.44 238.347 121.946 238.16 122.386 237.786C122.848 237.412 123.2 236.917 123.442 236.301C123.706 235.663 123.838 234.992 123.838 234.288C123.838 233.584 123.695 232.924 123.409 232.308C123.145 231.692 122.782 231.197 122.32 230.823C121.858 230.449 121.33 230.262 120.736 230.262C120.164 230.262 119.658 230.46 119.218 230.856C118.778 231.23 118.437 231.725 118.195 232.341C117.953 232.935 117.832 233.562 117.832 234.222ZM116.809 247.422C116.809 248.544 117.183 249.457 117.931 250.161C118.701 250.887 119.735 251.25 121.033 251.25C121.913 251.25 122.716 251.041 123.442 250.623C124.168 250.227 124.751 249.677 125.191 248.973C125.653 248.269 125.884 247.477 125.884 246.597C125.884 246.047 125.609 245.585 125.059 245.211C124.531 244.837 123.893 244.573 123.145 244.419C122.375 244.287 121.33 244.188 120.01 244.122H119.251C119.119 244.21 118.91 244.375 118.624 244.617C118.36 244.881 118.019 245.222 117.601 245.64C117.073 246.256 116.809 246.85 116.809 247.422ZM140.06 240.657C139.972 241.031 139.697 241.438 139.235 241.878C138.773 242.318 138.168 242.692 137.42 243C136.672 243.308 135.814 243.462 134.846 243.462C133.878 243.462 132.976 243.165 132.14 242.571C131.326 241.955 130.666 241.119 130.16 240.063C129.676 239.007 129.434 237.808 129.434 236.466C129.434 235.124 129.72 233.914 130.292 232.836C130.886 231.758 131.678 230.911 132.668 230.295C133.658 229.657 134.769 229.338 136.001 229.338C137.321 229.338 138.355 229.613 139.103 230.163C139.873 230.713 140.258 231.461 140.258 232.407C140.258 233.353 140.016 233.947 139.532 234.189C139.07 234.409 138.465 234.519 137.717 234.519H132.305C131.997 234.519 131.777 234.596 131.645 234.75C131.535 234.882 131.48 235.212 131.48 235.74C131.48 236.752 131.7 237.698 132.14 238.578C132.58 239.458 133.163 240.162 133.889 240.69C134.637 241.218 135.473 241.482 136.397 241.482C137.739 241.482 138.795 240.998 139.565 240.03C139.719 239.876 139.84 239.799 139.928 239.799C140.082 239.799 140.159 239.909 140.159 240.129C140.159 240.283 140.126 240.459 140.06 240.657ZM132.107 233.001C132.107 233.331 132.316 233.496 132.734 233.496H135.44C135.946 233.496 136.397 233.485 136.793 233.463C137.211 233.419 137.563 233.375 137.849 233.331C138.069 233.309 138.179 232.99 138.179 232.374C138.179 231.78 137.904 231.296 137.354 230.922C136.804 230.548 136.144 230.361 135.374 230.361C134.846 230.361 134.329 230.515 133.823 230.823C133.339 231.109 132.932 231.461 132.602 231.879C132.272 232.275 132.107 232.649 132.107 233.001ZM145.528 242.934L142.855 243.099C142.415 243.099 142.195 242.989 142.195 242.769C142.195 242.571 142.393 242.406 142.789 242.274C143.185 242.142 143.449 242.054 143.581 242.01C143.713 241.944 143.856 241.823 144.01 241.647C144.142 241.471 144.208 241.24 144.208 240.954V233.859C144.208 232.473 143.757 231.681 142.855 231.483C142.679 231.439 142.591 231.296 142.591 231.054C142.591 230.812 142.668 230.68 142.822 230.658C143.636 230.504 144.252 230.284 144.67 229.998C145.044 229.756 145.352 229.558 145.594 229.404C145.858 229.25 146.045 229.129 146.155 229.041C146.397 228.909 146.518 228.832 146.518 228.81H146.617C146.683 228.81 146.727 228.887 146.749 229.041C146.749 229.327 146.749 229.613 146.749 229.899C146.749 230.185 146.738 230.471 146.716 230.757C146.694 231.307 146.694 231.582 146.716 231.582C146.716 231.582 146.771 231.527 146.881 231.417C147.189 231.021 147.387 230.801 147.475 230.757C148.509 229.811 149.521 229.338 150.511 229.338C150.973 229.338 151.347 229.437 151.633 229.635C151.941 229.833 152.095 230.097 152.095 230.427C152.095 230.757 151.952 231.12 151.666 231.516C151.402 231.912 151.149 232.11 150.907 232.11C150.665 232.11 150.313 232.011 149.851 231.813C149.389 231.615 149.048 231.516 148.828 231.516C148.19 231.516 147.64 231.725 147.178 232.143C146.738 232.561 146.518 233.276 146.518 234.288V240.789C146.54 241.361 147.134 241.834 148.3 242.208C148.806 242.384 149.059 242.571 149.059 242.769C149.059 242.989 148.839 243.099 148.399 243.099L145.528 242.934ZM161.928 239.502C161.928 242.142 160.344 243.462 157.176 243.462C156.362 243.462 155.603 243.319 154.899 243.033C154.195 242.769 153.788 242.516 153.678 242.274C153.414 241.724 153.271 241.053 153.249 240.261C153.249 240.063 153.425 239.964 153.777 239.964C154.107 239.964 154.283 240.041 154.305 240.195C154.393 240.569 154.591 240.943 154.899 241.317C155.229 241.691 155.614 241.999 156.054 242.241C156.516 242.461 156.989 242.571 157.473 242.571C158.177 242.571 158.716 242.362 159.09 241.944C159.486 241.526 159.684 241.009 159.684 240.393C159.684 239.777 159.486 239.26 159.09 238.842C158.694 238.402 158.034 237.852 157.11 237.192C156.164 236.532 155.405 235.894 154.833 235.278C154.283 234.64 154.008 233.87 154.008 232.968C154.008 232.352 154.173 231.769 154.503 231.219C154.833 230.669 155.306 230.218 155.922 229.866C156.538 229.514 157.286 229.338 158.166 229.338C159.486 229.338 160.399 229.591 160.905 230.097C161.279 230.581 161.466 231.439 161.466 232.671C161.466 232.759 161.389 232.803 161.235 232.803C161.081 232.803 160.861 232.726 160.575 232.572C160.289 232.396 160.146 232.242 160.146 232.11C160.124 231.626 159.904 231.186 159.486 230.79C159.068 230.394 158.573 230.196 158.001 230.196C157.407 230.196 156.923 230.394 156.549 230.79C156.175 231.186 155.988 231.648 155.988 232.176C155.988 232.704 156.175 233.188 156.549 233.628C156.923 234.068 157.253 234.376 157.539 234.552C157.671 234.64 157.836 234.761 158.034 234.915C158.254 235.047 158.507 235.201 158.793 235.377C159.167 235.597 159.475 235.795 159.717 235.971C159.981 236.147 160.234 236.356 160.476 236.598C160.718 236.818 160.982 237.137 161.268 237.555C161.708 238.193 161.928 238.842 161.928 239.502ZM64.7725 264.747C64.7725 266.309 64.4755 267.783 63.8815 269.169C63.2875 270.555 62.4625 271.776 61.4065 272.832C60.3505 273.888 59.1295 274.724 57.7435 275.34C56.3575 275.934 54.8725 276.231 53.2885 276.231C53.2665 276.231 53.0245 276.22 52.5625 276.198C52.1225 276.176 51.4625 276.143 50.5825 276.099C48.8445 276.033 47.4585 276 46.4245 276L42.9595 276.165C42.3215 276.165 42.0025 276.033 42.0025 275.769C42.0025 275.527 42.3985 275.329 43.1905 275.175C43.9605 275.043 44.4995 274.801 44.8075 274.449C45.1375 274.097 45.3025 273.525 45.3025 272.733V257.883C45.3025 257.113 45.1375 256.563 44.8075 256.233C44.4995 255.881 43.9605 255.628 43.1905 255.474C42.3985 255.342 42.0025 255.122 42.0025 254.814C42.0025 254.572 42.3215 254.451 42.9595 254.451L46.3915 254.517H46.6225L52.2655 254.253C55.1035 254.253 57.4465 254.693 59.2945 255.573C61.1425 256.453 62.5175 257.685 63.4195 259.269C64.3215 260.831 64.7725 262.657 64.7725 264.747ZM47.9425 272.007C47.9425 272.865 48.1625 273.514 48.6025 273.954C49.0645 274.394 49.6695 274.691 50.4175 274.845C51.1875 274.999 52.0125 275.076 52.8925 275.076C54.6085 275.076 56.1265 274.669 57.4465 273.855C58.7665 273.019 59.7895 271.864 60.5155 270.39C61.2635 268.894 61.6375 267.156 61.6375 265.176C61.6375 263.702 61.3845 262.36 60.8785 261.15C60.3945 259.94 59.7125 258.895 58.8325 258.015C57.9745 257.135 56.9955 256.464 55.8955 256.002C54.7955 255.518 53.6405 255.276 52.4305 255.276C50.3625 255.276 49.1085 255.43 48.6685 255.738C48.1845 256.068 47.9425 256.585 47.9425 257.289V272.007ZM71.5014 257.421C71.4794 257.883 71.3144 258.268 71.0064 258.576C70.6984 258.884 70.3024 259.049 69.8184 259.071C69.3344 259.049 68.9384 258.884 68.6304 258.576C68.3224 258.268 68.1684 257.872 68.1684 257.388C68.1684 256.904 68.3224 256.508 68.6304 256.2C68.9384 255.892 69.3344 255.738 69.8184 255.738C70.3024 255.738 70.6984 255.892 71.0064 256.2C71.3144 256.508 71.4794 256.915 71.5014 257.421ZM70.0494 275.934L67.3764 276.099C66.9364 276.099 66.7164 275.989 66.7164 275.769C66.7164 275.571 67.0244 275.373 67.6404 275.175C68.2784 274.977 68.6414 274.768 68.7294 274.548C68.8394 274.328 68.8944 274.13 68.8944 273.954V266.793C68.8944 265.429 68.3774 264.626 67.3434 264.384C67.1674 264.34 67.0794 264.197 67.0794 263.955C67.0794 263.713 67.1564 263.581 67.3104 263.559C68.3664 263.295 69.4884 262.778 70.6764 262.008C71.0284 261.788 71.2264 261.678 71.2704 261.678C71.4244 261.678 71.5014 261.733 71.5014 261.843C71.3034 263.845 71.2044 265.33 71.2044 266.298V273.954C71.2044 274.394 71.3364 274.68 71.6004 274.812C71.8864 274.944 72.2604 275.087 72.7224 275.241C73.1624 275.417 73.3824 275.593 73.3824 275.769C73.3824 275.989 73.1624 276.099 72.7224 276.099L70.0494 275.934ZM78.3033 275.934L75.6303 276.099C75.1903 276.099 74.9703 275.989 74.9703 275.769C74.9703 275.571 75.1683 275.406 75.5643 275.274C75.9603 275.142 76.2243 275.054 76.3563 275.01C76.4883 274.944 76.6313 274.823 76.7853 274.647C76.9173 274.471 76.9833 274.24 76.9833 273.954V266.859C76.9833 265.473 76.5323 264.681 75.6303 264.483C75.4543 264.439 75.3663 264.296 75.3663 264.054C75.3663 263.812 75.4433 263.68 75.5973 263.658C76.4113 263.504 77.0273 263.284 77.4453 262.998C77.8193 262.756 78.1273 262.558 78.3693 262.404C78.6333 262.25 78.8203 262.129 78.9303 262.041C79.1723 261.909 79.2933 261.832 79.2933 261.81H79.3923C79.4583 261.81 79.5023 261.887 79.5243 262.041C79.5243 262.327 79.5243 262.613 79.5243 262.899C79.5243 263.185 79.5133 263.471 79.4913 263.757C79.4693 264.307 79.4693 264.582 79.4913 264.582C79.4913 264.582 79.5463 264.527 79.6563 264.417C79.9643 264.021 80.1623 263.801 80.2503 263.757C81.2843 262.811 82.2963 262.338 83.2863 262.338C83.7483 262.338 84.1223 262.437 84.4083 262.635C84.7163 262.833 84.8703 263.097 84.8703 263.427C84.8703 263.757 84.7273 264.12 84.4413 264.516C84.1773 264.912 83.9243 265.11 83.6823 265.11C83.4403 265.11 83.0883 265.011 82.6263 264.813C82.1643 264.615 81.8233 264.516 81.6033 264.516C80.9653 264.516 80.4153 264.725 79.9533 265.143C79.5133 265.561 79.2933 266.276 79.2933 267.288V273.789C79.3153 274.361 79.9093 274.834 81.0753 275.208C81.5813 275.384 81.8343 275.571 81.8343 275.769C81.8343 275.989 81.6143 276.099 81.1743 276.099L78.3033 275.934ZM96.6508 273.657C96.5628 274.031 96.2878 274.438 95.8258 274.878C95.3638 275.318 94.7588 275.692 94.0108 276C93.2628 276.308 92.4048 276.462 91.4368 276.462C90.4688 276.462 89.5668 276.165 88.7308 275.571C87.9168 274.955 87.2568 274.119 86.7508 273.063C86.2668 272.007 86.0248 270.808 86.0248 269.466C86.0248 268.124 86.3108 266.914 86.8828 265.836C87.4768 264.758 88.2688 263.911 89.2588 263.295C90.2488 262.657 91.3598 262.338 92.5918 262.338C93.9118 262.338 94.9458 262.613 95.6938 263.163C96.4638 263.713 96.8488 264.461 96.8488 265.407C96.8488 266.353 96.6068 266.947 96.1228 267.189C95.6608 267.409 95.0558 267.519 94.3078 267.519H88.8958C88.5878 267.519 88.3678 267.596 88.2358 267.75C88.1258 267.882 88.0708 268.212 88.0708 268.74C88.0708 269.752 88.2908 270.698 88.7308 271.578C89.1708 272.458 89.7538 273.162 90.4798 273.69C91.2278 274.218 92.0638 274.482 92.9878 274.482C94.3298 274.482 95.3858 273.998 96.1558 273.03C96.3098 272.876 96.4308 272.799 96.5188 272.799C96.6728 272.799 96.7498 272.909 96.7498 273.129C96.7498 273.283 96.7168 273.459 96.6508 273.657ZM88.6978 266.001C88.6978 266.331 88.9068 266.496 89.3248 266.496H92.0308C92.5368 266.496 92.9878 266.485 93.3838 266.463C93.8018 266.419 94.1538 266.375 94.4398 266.331C94.6598 266.309 94.7698 265.99 94.7698 265.374C94.7698 264.78 94.4948 264.296 93.9448 263.922C93.3948 263.548 92.7348 263.361 91.9648 263.361C91.4368 263.361 90.9198 263.515 90.4138 263.823C89.9298 264.109 89.5228 264.461 89.1928 264.879C88.8628 265.275 88.6978 265.649 88.6978 266.001ZM110.105 273.393C110.105 273.833 109.841 274.295 109.313 274.779C108.785 275.241 108.081 275.637 107.201 275.967C106.343 276.297 105.419 276.462 104.429 276.462C103.439 276.462 102.526 276.176 101.69 275.604C100.876 275.01 100.216 274.218 99.7097 273.228C99.2257 272.216 98.9837 271.072 98.9837 269.796C98.9837 268.52 99.2917 267.321 99.9077 266.199C100.524 265.055 101.349 264.131 102.383 263.427C103.417 262.723 104.561 262.371 105.815 262.371C107.685 262.371 109.049 262.899 109.907 263.955C110.017 264.131 110.072 264.296 110.072 264.45C110.072 264.648 109.907 264.868 109.577 265.11C109.269 265.352 108.983 265.473 108.719 265.473C108.455 265.473 108.213 265.363 107.993 265.143C107.597 264.703 107.267 264.373 107.003 264.153C106.739 263.933 106.453 263.79 106.145 263.724C105.837 263.636 105.419 263.592 104.891 263.592C103.747 263.592 102.856 264.087 102.218 265.077C101.58 266.045 101.261 267.277 101.261 268.773C101.261 269.763 101.481 270.72 101.921 271.644C102.383 272.546 103.01 273.294 103.802 273.888C104.594 274.46 105.496 274.746 106.508 274.746C107.168 274.746 107.696 274.625 108.092 274.383C108.51 274.119 108.95 273.69 109.412 273.096C109.522 272.986 109.621 272.931 109.709 272.931C109.797 272.931 109.885 272.986 109.973 273.096C110.061 273.184 110.105 273.283 110.105 273.393ZM119.838 275.109C119.486 275.439 118.991 275.747 118.353 276.033C117.737 276.319 117.121 276.462 116.505 276.462C115.427 276.462 114.58 276.143 113.964 275.505C113.37 274.845 113.073 273.855 113.073 272.535V264.879C113.073 264.681 112.996 264.549 112.842 264.483C112.688 264.417 112.347 264.384 111.819 264.384C111.753 264.384 111.665 264.296 111.555 264.12C111.467 263.944 111.423 263.812 111.423 263.724C111.423 263.636 111.478 263.559 111.588 263.493C112.094 263.339 112.611 263.02 113.139 262.536C113.667 262.052 114.096 261.601 114.426 261.183C114.756 260.765 114.954 260.556 115.02 260.556C115.328 260.556 115.482 260.666 115.482 260.886L115.416 262.338C115.416 262.646 115.68 262.8 116.208 262.8H119.97C120.19 262.8 120.3 263.064 120.3 263.592C120.3 264.12 120.19 264.384 119.97 264.384H116.703C116.109 264.384 115.735 264.428 115.581 264.516C115.449 264.604 115.383 264.868 115.383 265.308V271.545C115.383 272.667 115.592 273.47 116.01 273.954C116.428 274.416 116.945 274.647 117.561 274.647C118.661 274.647 119.486 274.438 120.036 274.02C120.058 273.998 120.091 273.987 120.135 273.987C120.289 273.987 120.366 274.13 120.366 274.416C120.366 274.592 120.19 274.823 119.838 275.109ZM135.825 269.169C135.825 270.445 135.528 271.644 134.934 272.766C134.362 273.866 133.515 274.757 132.393 275.439C131.293 276.121 129.951 276.462 128.367 276.462C127.135 276.462 126.013 276.176 125.001 275.604C124.011 275.032 123.23 274.251 122.658 273.261C122.086 272.249 121.8 271.105 121.8 269.829C121.8 268.883 121.987 267.97 122.361 267.09C122.735 266.188 123.252 265.385 123.912 264.681C124.594 263.955 125.364 263.383 126.222 262.965C127.08 262.547 127.993 262.338 128.961 262.338C130.259 262.338 131.425 262.646 132.459 263.262C133.493 263.856 134.307 264.67 134.901 265.704C135.517 266.716 135.825 267.871 135.825 269.169ZM124.506 269.07C124.506 270.192 124.704 271.248 125.1 272.238C125.518 273.206 126.068 273.987 126.75 274.581C127.454 275.175 128.224 275.472 129.06 275.472C130.16 275.472 130.996 275.241 131.568 274.779C132.162 274.295 132.569 273.635 132.789 272.799C133.009 271.941 133.119 270.951 133.119 269.829C133.119 268.685 132.91 267.629 132.492 266.661C132.096 265.671 131.546 264.879 130.842 264.285C130.16 263.669 129.368 263.361 128.466 263.361C125.826 263.361 124.506 265.264 124.506 269.07ZM141.274 275.934L138.601 276.099C138.161 276.099 137.941 275.989 137.941 275.769C137.941 275.571 138.139 275.406 138.535 275.274C138.931 275.142 139.195 275.054 139.327 275.01C139.459 274.944 139.602 274.823 139.756 274.647C139.888 274.471 139.954 274.24 139.954 273.954V266.859C139.954 265.473 139.503 264.681 138.601 264.483C138.425 264.439 138.337 264.296 138.337 264.054C138.337 263.812 138.414 263.68 138.568 263.658C139.382 263.504 139.998 263.284 140.416 262.998C140.79 262.756 141.098 262.558 141.34 262.404C141.604 262.25 141.791 262.129 141.901 262.041C142.143 261.909 142.264 261.832 142.264 261.81H142.363C142.429 261.81 142.473 261.887 142.495 262.041C142.495 262.327 142.495 262.613 142.495 262.899C142.495 263.185 142.484 263.471 142.462 263.757C142.44 264.307 142.44 264.582 142.462 264.582C142.462 264.582 142.517 264.527 142.627 264.417C142.935 264.021 143.133 263.801 143.221 263.757C144.255 262.811 145.267 262.338 146.257 262.338C146.719 262.338 147.093 262.437 147.379 262.635C147.687 262.833 147.841 263.097 147.841 263.427C147.841 263.757 147.698 264.12 147.412 264.516C147.148 264.912 146.895 265.11 146.653 265.11C146.411 265.11 146.059 265.011 145.597 264.813C145.135 264.615 144.794 264.516 144.574 264.516C143.936 264.516 143.386 264.725 142.924 265.143C142.484 265.561 142.264 266.276 142.264 267.288V273.789C142.286 274.361 142.88 274.834 144.046 275.208C144.552 275.384 144.805 275.571 144.805 275.769C144.805 275.989 144.585 276.099 144.145 276.099L141.274 275.934ZM153.616 280.818C153.286 281.632 152.978 282.391 152.692 283.095C152.428 283.799 152.109 284.36 151.735 284.778C151.361 285.196 150.822 285.405 150.118 285.405C149.7 285.405 149.315 285.295 148.963 285.075C148.611 284.855 148.435 284.569 148.435 284.217C148.435 283.557 148.732 283.227 149.326 283.227L150.646 283.425C150.888 283.425 151.097 283.304 151.273 283.062C151.779 282.182 152.285 281.192 152.791 280.092C153.297 279.014 153.792 277.826 154.276 276.528C154.342 276.33 154.375 276.055 154.375 275.703C154.375 275.307 154.331 275.01 154.243 274.812L150.415 265.143C150.041 264.219 149.546 263.68 148.93 263.526C148.424 263.35 148.171 263.152 148.171 262.932C148.171 262.734 148.391 262.635 148.831 262.635L151.24 262.8L153.748 262.635C154.188 262.635 154.408 262.756 154.408 262.998C154.408 263.306 154.089 263.548 153.451 263.724C153.011 263.856 152.791 264.208 152.791 264.78C152.791 264.934 152.879 265.242 153.055 265.704L155.662 272.172C155.728 272.37 155.805 272.469 155.893 272.469C155.981 272.469 156.069 272.359 156.157 272.139L158.368 266.265C158.544 265.847 158.632 265.374 158.632 264.846C158.632 264.296 158.368 263.911 157.84 263.691C157.29 263.471 157.015 263.24 157.015 262.998C157.015 262.756 157.235 262.635 157.675 262.635L160.018 262.8L161.965 262.635C162.405 262.635 162.625 262.734 162.625 262.932C162.625 263.152 162.416 263.328 161.998 263.46C161.58 263.614 161.184 263.9 160.81 264.318C160.436 264.736 160.139 265.209 159.919 265.737L155.431 276.429L154.903 277.749C154.551 278.563 154.122 279.586 153.616 280.818Z" fill="white"/>
<rect x="1" y="1" width="204.75" height="198" rx="20" fill="#2ECC71" stroke="#0D1B2A" stroke-width="2"/>
<path d="M69.2143 54.25C69.2143 62.8032 72.6158 71.0061 78.6705 77.0542C84.7253 83.1022 92.9373 86.5 101.5 86.5C110.063 86.5 118.275 83.1022 124.329 77.0542C130.384 71.0061 133.786 62.8032 133.786 54.25C133.786 45.6968 130.384 37.4939 124.329 31.4458C118.275 25.3978 110.063 22 101.5 22C92.9373 22 84.7253 25.3978 78.6705 31.4458C72.6158 37.4939 69.2143 45.6968 69.2143 54.25ZM93.0502 104.691L97.7417 112.502L89.3424 143.719L80.2621 106.707C79.7576 104.666 77.7902 103.33 75.7471 103.86C58.0908 108.269 45 124.243 45 143.265C45 147.548 48.4808 151 52.7435 151H150.256C154.544 151 158 147.523 158 143.265C158 124.243 144.909 108.269 127.253 103.86C125.21 103.356 123.242 104.691 122.738 106.707L113.658 143.719L105.258 112.502L109.95 104.691C111.564 101.995 109.622 98.5938 106.494 98.5938H96.531C93.4033 98.5938 91.4612 102.02 93.0754 104.691H93.0502Z" fill="#0D1B2A"/>
</svg>
