<svg width="294" height="81" viewBox="0 0 294 81" fill="none" xmlns="http://www.w3.org/2000/svg">
<rect x="2" y="2" width="289.645" height="77" rx="19" fill="#2ECC71" stroke="black" stroke-width="4"/>
<path d="M42.1421 23.0229H42.7231C43.5207 23.0229 44.4378 23.1255 45.4746 23.3306C46.5114 23.5243 47.326 23.6382 47.9185 23.6724C48.5109 23.7065 48.978 23.8205 49.3198 24.0142C49.9806 24.3901 50.311 25.3643 50.311 26.9365C50.311 28.5088 50.0148 29.2949 49.4224 29.2949C49.2287 29.2949 48.7502 28.862 47.9868 27.9961C47.2235 27.1188 46.4943 26.4922 45.7993 26.1162C44.5688 25.4554 43.1903 25.125 41.6636 25.125C40.7863 25.125 39.9033 25.3643 39.0146 25.8428C36.3372 27.2669 34.9985 30.3659 34.9985 35.1396C35.0099 38.1019 35.6992 40.4945 37.0664 42.3174C38.4336 44.1403 40.3363 45.0518 42.7744 45.0518C44.8594 45.0518 46.6253 44.3625 48.0723 42.9839C48.9723 42.1294 49.5477 41.7021 49.7983 41.7021C50.2769 41.7021 50.5161 42.0496 50.5161 42.7446C50.5161 43.0978 50.2939 43.6504 49.8496 44.4023C49.4053 45.1543 48.9097 45.6841 48.3628 45.9917C46.8247 46.8462 44.8252 47.2734 42.3643 47.2734H41.7661C40.3875 47.2734 38.9919 47.0228 37.5791 46.5215C34.7194 45.5075 32.7142 43.5023 31.5635 40.5059C30.971 38.945 30.6748 37.2417 30.6748 35.396C30.6748 33.5389 30.971 31.8356 31.5635 30.2861C32.7598 27.1416 34.7878 25.0054 37.6475 23.8774C39.0944 23.3078 40.5926 23.0229 42.1421 23.0229ZM62.2568 46.3335C62.2568 46.7778 61.2257 47 59.1636 47H57.3521L56.6343 46.9658L55.5576 46.9487C54.3499 46.9487 53.7461 46.7323 53.7461 46.2993C53.7461 45.9917 54.0138 45.667 54.5493 45.3252C55.0962 44.972 55.4608 44.522 55.6431 43.9751C55.8368 43.4168 55.9336 41.7819 55.9336 39.0703C55.9336 36.3587 55.8424 34.7124 55.6602 34.1313C55.4893 33.5503 55.2158 33.1344 54.8398 32.8838C54.1676 32.4395 53.8315 32.1147 53.8315 31.9097C53.8315 31.7046 53.9512 31.5223 54.1904 31.3628C54.8968 30.8843 56.0931 30.645 57.7793 30.645H58.104C58.7534 30.645 59.2148 30.9754 59.4883 31.6362C59.7617 32.2856 59.9839 32.6104 60.1548 32.6104C60.3257 32.6104 60.6162 32.4508 61.0264 32.1318C61.4479 31.8128 61.9492 31.4938 62.5303 31.1748C63.1227 30.8558 63.7778 30.6963 64.4956 30.6963C65.2134 30.6963 65.7603 30.8843 66.1362 31.2603C66.5236 31.6248 66.7173 32.0977 66.7173 32.6787C66.7059 33.2712 66.5521 33.7155 66.2559 34.0117C65.9596 34.3079 65.6406 34.4561 65.2988 34.4561C64.957 34.4561 64.507 34.3193 63.9487 34.0459C63.3905 33.7611 62.9233 33.6187 62.5474 33.6187C62.1714 33.6187 61.7612 33.7782 61.3169 34.0972C60.8726 34.4048 60.4909 34.9631 60.1719 35.772C59.8643 36.5695 59.7104 37.9424 59.7104 39.8906C59.7104 41.8275 59.8472 43.0807 60.1206 43.6504C60.394 44.2087 60.8156 44.7214 61.3853 45.1885C61.9663 45.6556 62.2568 46.0373 62.2568 46.3335ZM79.5688 35.8916V35.3618C79.5688 34.5187 79.2669 33.7611 78.6631 33.0889C78.0592 32.4053 77.3187 32.0635 76.4414 32.0635H76.1167C75.9572 32.0863 75.849 32.0977 75.792 32.0977C74.9945 32.0977 74.2368 32.5534 73.519 33.4648C72.8127 34.3763 72.4595 35.3504 72.4595 36.3872V36.6094C72.4595 36.974 72.6759 37.1562 73.1089 37.1562C73.2798 37.1904 73.3709 37.2075 73.3823 37.2075L73.7754 37.2246H73.8779L73.9976 37.2075L77.2959 37.0195L77.9111 36.9512C79.0163 36.9512 79.5688 36.598 79.5688 35.8916ZM72.4595 40.4204C72.4595 41.7192 72.9494 42.8073 73.9292 43.6846C74.909 44.5618 76.1509 45.0005 77.6548 45.0005C78.2586 45.0005 78.8055 44.915 79.2954 44.7441C79.7967 44.5618 80.3379 44.3454 80.9189 44.0947C81.5114 43.8441 81.8817 43.7188 82.0298 43.7188C82.4855 43.7188 82.7134 43.9637 82.7134 44.4536C82.7134 45.1144 81.8703 45.8208 80.1841 46.5728C79.0903 47.0627 77.9168 47.3076 76.6636 47.3076H76.2876C74.1457 47.3076 72.3683 46.6582 70.9556 45.3594C70.1922 44.653 69.5998 43.7529 69.1782 42.6592C68.7567 41.554 68.5459 40.3691 68.5459 39.1045L68.563 38.7114V38.3184C68.563 37.2246 68.8136 36.1479 69.3149 35.0884C69.8276 34.0288 70.4372 33.1572 71.1436 32.4736C72.6361 31.0381 74.4077 30.3146 76.4585 30.3032C79.5575 30.3032 81.6196 31.5109 82.645 33.9263C82.964 34.6896 83.1235 35.3903 83.1235 36.0283V36.3701C83.1235 37.1562 82.7988 37.686 82.1494 37.9595C81.5 38.2215 79.9676 38.438 77.5522 38.6089C75.1369 38.7798 73.8267 38.8937 73.6216 38.9507C72.8468 39.1444 72.4595 39.6343 72.4595 40.4204ZM95.2231 39.0874H94.9326C93.4401 39.0874 92.1925 39.4235 91.1899 40.0957C90.1987 40.7565 89.7031 41.5825 89.7031 42.5737V42.9155C89.7031 43.4966 89.8797 44.0207 90.2329 44.4878C90.5975 44.9435 91.0646 45.1714 91.6343 45.1714L91.8394 45.2056H92.3521C93.5369 45.2056 94.5054 44.7214 95.2573 43.7529C95.5877 43.3314 95.7529 42.4655 95.7529 41.1553C95.7529 41.0527 95.7529 40.9502 95.7529 40.8477L95.77 40.4375V40.0273C95.77 39.4007 95.5877 39.0874 95.2231 39.0874ZM86.9175 33.5674C86.9175 32.7243 87.584 31.9723 88.917 31.3115C90.2614 30.6393 91.6514 30.3032 93.0869 30.3032C93.1325 30.3032 93.1781 30.3032 93.2236 30.3032C94.5908 30.3032 95.6846 30.4684 96.5049 30.7988C98.1683 31.4596 99.1196 32.861 99.3589 35.0029C99.3817 35.2194 99.3931 36.6549 99.3931 39.3096C99.3931 41.9528 99.4614 43.5023 99.5981 43.958C99.7463 44.4137 100.134 44.7498 100.76 44.9663C101.398 45.1828 101.717 45.3879 101.717 45.5815C101.717 45.9917 101.512 46.305 101.102 46.5215C100.282 46.9544 99.4728 47.1709 98.6753 47.1709C97.8892 47.1709 97.3024 46.9886 96.915 46.624C96.2201 45.9746 95.8498 45.6499 95.8042 45.6499C95.7586 45.6499 95.1149 45.9404 93.873 46.5215C92.6312 47.0911 91.5431 47.376 90.6089 47.376C89.2075 47.376 88.1081 46.9886 87.3105 46.2139C86.513 45.4391 86.1143 44.4992 86.1143 43.394V42.9668C86.1143 41.7819 86.627 40.7394 87.6523 39.8394C88.6777 38.9393 90.5234 38.2386 93.1895 37.7373C94.1579 37.555 94.7674 37.3841 95.0181 37.2246C95.5194 36.9056 95.77 36.2562 95.77 35.2764C95.77 34.2965 95.508 33.5446 94.9839 33.0205C94.4598 32.4964 93.7591 32.2344 92.8818 32.2344C92.0046 32.2344 91.1558 32.7471 90.3354 33.7725C89.5265 34.7865 88.786 35.2935 88.1138 35.2935C87.3162 35.2935 86.9175 34.7181 86.9175 33.5674ZM111.715 44.7441L114.312 44.3511C114.609 44.3511 114.757 44.5846 114.757 45.0518C114.757 45.5075 114.318 45.9803 113.441 46.4702C112.564 46.9601 111.641 47.2051 110.672 47.2051H110.331C109.567 47.2051 108.878 47.0057 108.263 46.6069C107.647 46.2082 107.197 45.7183 106.913 45.1372C106.423 44.1232 106.178 42.2035 106.178 39.3779C106.178 36.541 106.075 34.7694 105.87 34.063C105.676 33.3566 105.42 32.8724 105.101 32.6104C104.509 32.1318 104.212 31.8698 104.212 31.8242C104.212 31.528 104.366 31.2773 104.674 31.0723C105.46 30.5482 105.887 30.252 105.956 30.1836C106.035 30.1038 106.474 29.1696 107.271 27.3809C107.67 26.4922 108.12 26.0479 108.622 26.0479C109.134 26.0479 109.476 26.2301 109.647 26.5947C109.693 26.6859 109.789 27.1815 109.938 28.0815C110.097 28.9816 110.319 29.5627 110.604 29.8247C110.889 30.0754 111.521 30.3203 112.501 30.5596C113.481 30.7874 113.971 31.1178 113.971 31.5508C113.971 31.9837 113.43 32.3084 112.347 32.5249C111.265 32.7414 110.61 33.0205 110.382 33.3623C109.983 33.9434 109.784 35.584 109.784 38.2842C109.784 40.9844 109.909 42.6877 110.16 43.394C110.479 44.2941 110.997 44.7441 111.715 44.7441ZM128.001 35.8916V35.3618C128.001 34.5187 127.7 33.7611 127.096 33.0889C126.492 32.4053 125.751 32.0635 124.874 32.0635H124.549C124.39 32.0863 124.282 32.0977 124.225 32.0977C123.427 32.0977 122.669 32.5534 121.952 33.4648C121.245 34.3763 120.892 35.3504 120.892 36.3872V36.6094C120.892 36.974 121.109 37.1562 121.542 37.1562C121.712 37.1904 121.804 37.2075 121.815 37.2075L122.208 37.2246H122.311L122.43 37.2075L125.729 37.0195L126.344 36.9512C127.449 36.9512 128.001 36.598 128.001 35.8916ZM120.892 40.4204C120.892 41.7192 121.382 42.8073 122.362 43.6846C123.342 44.5618 124.583 45.0005 126.087 45.0005C126.691 45.0005 127.238 44.915 127.728 44.7441C128.229 44.5618 128.771 44.3454 129.352 44.0947C129.944 43.8441 130.314 43.7188 130.462 43.7188C130.918 43.7188 131.146 43.9637 131.146 44.4536C131.146 45.1144 130.303 45.8208 128.617 46.5728C127.523 47.0627 126.349 47.3076 125.096 47.3076H124.72C122.578 47.3076 120.801 46.6582 119.388 45.3594C118.625 44.653 118.032 43.7529 117.611 42.6592C117.189 41.554 116.979 40.3691 116.979 39.1045L116.996 38.7114V38.3184C116.996 37.2246 117.246 36.1479 117.748 35.0884C118.26 34.0288 118.87 33.1572 119.576 32.4736C121.069 31.0381 122.84 30.3146 124.891 30.3032C127.99 30.3032 130.052 31.5109 131.078 33.9263C131.397 34.6896 131.556 35.3903 131.556 36.0283V36.3701C131.556 37.1562 131.231 37.686 130.582 37.9595C129.933 38.2215 128.4 38.438 125.985 38.6089C123.569 38.7798 122.259 38.8937 122.054 38.9507C121.279 39.1444 120.892 39.6343 120.892 40.4204ZM152.542 39.0874H152.252C150.759 39.0874 149.512 39.4235 148.509 40.0957C147.518 40.7565 147.022 41.5825 147.022 42.5737V42.9155C147.022 43.4966 147.199 44.0207 147.552 44.4878C147.917 44.9435 148.384 45.1714 148.954 45.1714L149.159 45.2056H149.671C150.856 45.2056 151.825 44.7214 152.577 43.7529C152.907 43.3314 153.072 42.4655 153.072 41.1553C153.072 41.0527 153.072 40.9502 153.072 40.8477L153.089 40.4375V40.0273C153.089 39.4007 152.907 39.0874 152.542 39.0874ZM144.237 33.5674C144.237 32.7243 144.903 31.9723 146.236 31.3115C147.581 30.6393 148.971 30.3032 150.406 30.3032C150.452 30.3032 150.497 30.3032 150.543 30.3032C151.91 30.3032 153.004 30.4684 153.824 30.7988C155.488 31.4596 156.439 32.861 156.678 35.0029C156.701 35.2194 156.712 36.6549 156.712 39.3096C156.712 41.9528 156.781 43.5023 156.917 43.958C157.066 44.4137 157.453 44.7498 158.08 44.9663C158.718 45.1828 159.037 45.3879 159.037 45.5815C159.037 45.9917 158.832 46.305 158.421 46.5215C157.601 46.9544 156.792 47.1709 155.995 47.1709C155.208 47.1709 154.622 46.9886 154.234 46.624C153.539 45.9746 153.169 45.6499 153.124 45.6499C153.078 45.6499 152.434 45.9404 151.192 46.5215C149.951 47.0911 148.862 47.376 147.928 47.376C146.527 47.376 145.427 46.9886 144.63 46.2139C143.832 45.4391 143.434 44.4992 143.434 43.394V42.9668C143.434 41.7819 143.946 40.7394 144.972 39.8394C145.997 38.9393 147.843 38.2386 150.509 37.7373C151.477 37.555 152.087 37.3841 152.337 37.2246C152.839 36.9056 153.089 36.2562 153.089 35.2764C153.089 34.2965 152.827 33.5446 152.303 33.0205C151.779 32.4964 151.078 32.2344 150.201 32.2344C149.324 32.2344 148.475 32.7471 147.655 33.7725C146.846 34.7865 146.105 35.2935 145.433 35.2935C144.636 35.2935 144.237 34.7181 144.237 33.5674ZM174.195 35.2764C173.717 35.2764 173.05 34.7808 172.196 33.7896C171.353 32.7983 170.373 32.3027 169.256 32.3027C168.151 32.3027 167.223 32.8553 166.471 33.9604C165.719 35.0542 165.343 36.6094 165.343 38.626C165.343 40.6426 165.804 42.2205 166.727 43.3599C167.661 44.4878 168.875 45.0518 170.367 45.0518C171.188 45.0518 171.871 44.9492 172.418 44.7441C172.976 44.5391 173.489 44.3226 173.956 44.0947C174.435 43.8555 174.771 43.7358 174.964 43.7358C175.295 43.7358 175.46 43.9523 175.46 44.3853C175.46 45.0461 174.793 45.7012 173.46 46.3506C172.127 47 170.834 47.3247 169.581 47.3247C167.143 47.3247 165.183 46.5614 163.702 45.0347C163.098 44.408 162.591 43.6048 162.181 42.625C161.771 41.6338 161.566 40.5742 161.566 39.4463V38.6089C161.566 38.5861 161.566 38.5576 161.566 38.5234C161.566 38.5007 161.566 38.4779 161.566 38.4551C161.566 37.4639 161.788 36.4385 162.232 35.3789C163.11 33.3053 164.522 31.8698 166.471 31.0723C167.599 30.6165 168.721 30.3887 169.837 30.3887H170.23C171.769 30.3887 173.073 30.6564 174.144 31.1919C175.01 31.6248 175.443 32.3483 175.443 33.3623C175.443 34.0345 175.306 34.5244 175.033 34.832C174.771 35.1283 174.492 35.2764 174.195 35.2764ZM190.875 35.2764C190.396 35.2764 189.73 34.7808 188.875 33.7896C188.032 32.7983 187.053 32.3027 185.936 32.3027C184.831 32.3027 183.902 32.8553 183.15 33.9604C182.398 35.0542 182.022 36.6094 182.022 38.626C182.022 40.6426 182.484 42.2205 183.407 43.3599C184.341 44.4878 185.554 45.0518 187.047 45.0518C187.867 45.0518 188.551 44.9492 189.098 44.7441C189.656 44.5391 190.169 44.3226 190.636 44.0947C191.114 43.8555 191.45 43.7358 191.644 43.7358C191.974 43.7358 192.14 43.9523 192.14 44.3853C192.14 45.0461 191.473 45.7012 190.14 46.3506C188.807 47 187.514 47.3247 186.261 47.3247C183.823 47.3247 181.863 46.5614 180.382 45.0347C179.778 44.408 179.271 43.6048 178.861 42.625C178.451 41.6338 178.246 40.5742 178.246 39.4463V38.6089C178.246 38.5861 178.246 38.5576 178.246 38.5234C178.246 38.5007 178.246 38.4779 178.246 38.4551C178.246 37.4639 178.468 36.4385 178.912 35.3789C179.789 33.3053 181.202 31.8698 183.15 31.0723C184.278 30.6165 185.401 30.3887 186.517 30.3887H186.91C188.448 30.3887 189.753 30.6564 190.824 31.1919C191.69 31.6248 192.123 32.3483 192.123 33.3623C192.123 34.0345 191.986 34.5244 191.712 34.832C191.45 35.1283 191.171 35.2764 190.875 35.2764ZM198.753 38.1987V38.8311C198.753 40.7679 199.129 42.3743 199.881 43.6504C200.235 44.2542 200.685 44.7327 201.231 45.0859C201.778 45.4391 202.331 45.6157 202.889 45.6157H203.231C204.268 45.6157 205.162 45.1144 205.914 44.1118C206.677 43.0978 207.059 41.6623 207.059 39.8052V38.5918C207.059 36.7575 206.677 35.2023 205.914 33.9263C205.162 32.6388 204.205 31.9951 203.043 31.9951H202.513C201.465 31.9951 200.576 32.5591 199.847 33.687C199.118 34.8149 198.753 36.3188 198.753 38.1987ZM211.178 38.2671V39.1216C211.178 40.0216 210.995 41.0072 210.631 42.0781C209.868 44.3112 208.347 45.8721 206.068 46.7607C205.077 47.1481 204.12 47.3418 203.197 47.3418H202.633C200.457 47.3418 198.639 46.6126 197.181 45.1543C196.52 44.4935 195.985 43.6219 195.575 42.5396C195.165 41.4572 194.959 40.3065 194.959 39.0874V38.7969C194.959 37.6917 195.153 36.5752 195.541 35.4473C196.292 33.2484 197.768 31.7217 199.967 30.8672C200.958 30.4798 201.909 30.2861 202.821 30.2861H203.675C204.689 30.2861 205.686 30.514 206.666 30.9697C208.523 31.8356 209.816 33.2142 210.545 35.1055C210.967 36.222 211.178 37.2759 211.178 38.2671ZM231.429 45.1372C231.931 45.5246 232.181 45.8037 232.181 45.9746C232.181 46.1341 232.096 46.2879 231.925 46.436C231.435 46.8804 230.387 47.1025 228.78 47.1025C228.256 47.1025 227.846 47.0171 227.55 46.8462C227.265 46.6639 227.009 46.3392 226.781 45.8721C226.564 45.4049 226.382 45.1714 226.234 45.1714C226.086 45.1828 225.755 45.3708 225.243 45.7354C223.807 46.7721 222.434 47.2905 221.124 47.2905C221.113 47.2905 221.096 47.2905 221.073 47.2905H220.56C218.68 47.2905 217.319 46.493 216.476 44.8979C216.043 44.0662 215.82 42.0326 215.809 38.7969C215.809 35.5498 215.758 33.7668 215.655 33.4478C215.553 33.1174 215.188 32.8097 214.562 32.5249C213.946 32.2287 213.639 32.0008 213.639 31.8413C213.639 31.4198 213.838 31.1463 214.237 31.021C215.125 30.7362 216.259 30.5938 217.638 30.5938C218.435 30.5938 218.942 30.9185 219.159 31.5679C219.444 32.3996 219.586 34.3877 219.586 37.5322C219.586 40.6654 219.723 42.568 219.996 43.2402C220.463 44.391 221.312 44.9663 222.542 44.9663C223.181 44.9663 223.813 44.8011 224.439 44.4707C225.077 44.1403 225.573 43.696 225.926 43.1377C226.279 42.5794 226.456 41.047 226.456 38.5405C226.456 36.0226 226.371 34.439 226.2 33.7896C226.04 33.1401 225.79 32.6331 225.448 32.2686C225.106 31.8926 224.935 31.5964 224.935 31.3799C224.935 30.8786 226.274 30.6279 228.951 30.6279C229.509 30.6279 229.874 30.7533 230.045 31.0039C230.216 31.2432 230.301 31.6875 230.301 32.3369L230.25 33.3452L230.165 37.8911C230.165 40.8534 230.25 42.7048 230.421 43.4453C230.592 44.1745 230.928 44.7384 231.429 45.1372ZM237.359 46.8633C235.753 46.8633 234.95 46.6354 234.95 46.1797C234.95 45.8037 235.16 45.4961 235.582 45.2568C236.345 44.8239 236.79 44.4365 236.915 44.0947C237.04 43.7415 237.103 42.0952 237.103 39.1558C237.103 36.2049 237.012 34.4788 236.83 33.9775C236.659 33.4648 236.34 33.0433 235.873 32.7129C235.405 32.3825 235.172 32.1147 235.172 31.9097C235.172 31.7046 235.326 31.5109 235.633 31.3286C236.351 30.9071 237.49 30.6963 239.051 30.6963C239.518 30.6963 239.883 30.8558 240.145 31.1748C240.236 31.2887 240.361 31.5394 240.521 31.9268C240.692 32.3027 240.806 32.4907 240.863 32.4907C241.079 32.4793 241.415 32.3255 241.871 32.0293C243.443 30.9697 244.868 30.4399 246.144 30.4399H246.178H246.725C247.647 30.4399 248.479 30.6678 249.22 31.1235C249.96 31.5793 250.53 32.2629 250.929 33.1743C251.339 34.0858 251.544 36.0739 251.544 39.1387C251.544 42.1921 251.607 43.901 251.732 44.2656C251.869 44.6188 252.239 44.9492 252.843 45.2568C253.458 45.5645 253.766 45.8664 253.766 46.1626C253.766 46.6753 252.148 46.9316 248.912 46.9316H248.399C247.374 46.9316 246.861 46.6867 246.861 46.1968C246.861 46.0942 246.987 45.8493 247.237 45.4619C247.488 45.0632 247.659 44.6245 247.75 44.146C247.841 43.6675 247.887 42.0952 247.887 39.4292C247.887 36.7518 247.722 35.0314 247.391 34.2681C246.935 33.2199 246.178 32.6958 245.118 32.6958C244.343 32.6958 243.591 32.8781 242.862 33.2427C242.145 33.5959 241.62 34.1029 241.29 34.7637C240.971 35.4131 240.812 36.9797 240.812 39.4634C240.812 41.9357 240.88 43.4339 241.017 43.958C241.153 44.4707 241.319 44.8866 241.512 45.2056L242.145 46.231C242.145 46.6753 241.25 46.8975 239.461 46.8975L238.419 46.8633H237.359ZM263.541 44.7441L266.139 44.3511C266.435 44.3511 266.583 44.5846 266.583 45.0518C266.583 45.5075 266.144 45.9803 265.267 46.4702C264.39 46.9601 263.467 47.2051 262.499 47.2051H262.157C261.393 47.2051 260.704 47.0057 260.089 46.6069C259.474 46.2082 259.024 45.7183 258.739 45.1372C258.249 44.1232 258.004 42.2035 258.004 39.3779C258.004 36.541 257.901 34.7694 257.696 34.063C257.503 33.3566 257.246 32.8724 256.927 32.6104C256.335 32.1318 256.039 31.8698 256.039 31.8242C256.039 31.528 256.192 31.2773 256.5 31.0723C257.286 30.5482 257.713 30.252 257.782 30.1836C257.861 30.1038 258.3 29.1696 259.098 27.3809C259.496 26.4922 259.946 26.0479 260.448 26.0479C260.96 26.0479 261.302 26.2301 261.473 26.5947C261.519 26.6859 261.616 27.1815 261.764 28.0815C261.923 28.9816 262.145 29.5627 262.43 29.8247C262.715 30.0754 263.347 30.3203 264.327 30.5596C265.307 30.7874 265.797 31.1178 265.797 31.5508C265.797 31.9837 265.256 32.3084 264.173 32.5249C263.091 32.7414 262.436 33.0205 262.208 33.3623C261.809 33.9434 261.61 35.584 261.61 38.2842C261.61 40.9844 261.735 42.6877 261.986 43.394C262.305 44.2941 262.823 44.7441 263.541 44.7441Z" fill="black"/>
</svg>
