<svg width="447" height="175" viewBox="0 0 447 175" fill="none" xmlns="http://www.w3.org/2000/svg">
<path d="M269.847 82.996C269.847 85.0787 269.451 87.044 268.659 88.892C267.867 90.74 266.767 92.368 265.359 93.776C263.951 95.184 262.323 96.2987 260.475 97.12C258.627 97.912 256.647 98.308 254.535 98.308C254.506 98.308 254.183 98.2933 253.567 98.264C252.98 98.2347 252.1 98.1907 250.927 98.132C248.61 98.044 246.762 98 245.383 98L240.763 98.22C239.912 98.22 239.487 98.044 239.487 97.692C239.487 97.3693 240.015 97.1053 241.071 96.9C242.098 96.724 242.816 96.4013 243.227 95.932C243.667 95.4627 243.887 94.7 243.887 93.644V73.844C243.887 72.8173 243.667 72.084 243.227 71.644C242.816 71.1747 242.098 70.8373 241.071 70.632C240.015 70.456 239.487 70.1627 239.487 69.752C239.487 69.4293 239.912 69.268 240.763 69.268L245.339 69.356H245.647L253.171 69.004C256.955 69.004 260.079 69.5907 262.543 70.764C265.007 71.9373 266.84 73.58 268.043 75.692C269.246 77.7747 269.847 80.2093 269.847 82.996ZM247.407 92.676C247.407 93.82 247.7 94.6853 248.287 95.272C248.903 95.8587 249.71 96.2547 250.707 96.46C251.734 96.6653 252.834 96.768 254.007 96.768C256.295 96.768 258.319 96.2253 260.079 95.14C261.839 94.0253 263.203 92.4853 264.171 90.52C265.168 88.5253 265.667 86.208 265.667 83.568C265.667 81.6027 265.33 79.8133 264.655 78.2C264.01 76.5867 263.1 75.1933 261.927 74.02C260.783 72.8467 259.478 71.952 258.011 71.336C256.544 70.6907 255.004 70.368 253.391 70.368C250.634 70.368 248.962 70.5733 248.375 70.984C247.73 71.424 247.407 72.1133 247.407 73.052V92.676ZM286.871 94.876C286.753 95.3747 286.387 95.9173 285.771 96.504C285.155 97.0907 284.348 97.5893 283.351 98C282.353 98.4107 281.209 98.616 279.919 98.616C278.628 98.616 277.425 98.22 276.311 97.428C275.225 96.6067 274.345 95.492 273.671 94.084C273.025 92.676 272.703 91.0773 272.703 89.288C272.703 87.4987 273.084 85.8853 273.847 84.448C274.639 83.0107 275.695 81.8813 277.015 81.06C278.335 80.2093 279.816 79.784 281.459 79.784C283.219 79.784 284.597 80.1507 285.595 80.884C286.621 81.6173 287.135 82.6147 287.135 83.876C287.135 85.1373 286.812 85.9293 286.167 86.252C285.551 86.5453 284.744 86.692 283.747 86.692H276.531C276.12 86.692 275.827 86.7947 275.651 87C275.504 87.176 275.431 87.616 275.431 88.32C275.431 89.6693 275.724 90.9307 276.311 92.104C276.897 93.2773 277.675 94.216 278.643 94.92C279.64 95.624 280.755 95.976 281.987 95.976C283.776 95.976 285.184 95.3307 286.211 94.04C286.416 93.8347 286.577 93.732 286.695 93.732C286.9 93.732 287.003 93.8787 287.003 94.172C287.003 94.3773 286.959 94.612 286.871 94.876ZM276.267 84.668C276.267 85.108 276.545 85.328 277.103 85.328H280.711C281.385 85.328 281.987 85.3133 282.515 85.284C283.072 85.2253 283.541 85.1667 283.923 85.108C284.216 85.0787 284.363 84.6533 284.363 83.832C284.363 83.04 283.996 82.3947 283.263 81.896C282.529 81.3973 281.649 81.148 280.623 81.148C279.919 81.148 279.229 81.3533 278.555 81.764C277.909 82.1453 277.367 82.6147 276.927 83.172C276.487 83.7 276.267 84.1987 276.267 84.668ZM293.721 97.912L290.157 98.132C289.571 98.132 289.277 97.9853 289.277 97.692C289.277 97.428 289.688 97.164 290.509 96.9C291.36 96.636 291.844 96.3573 291.961 96.064C292.108 95.7707 292.181 95.5067 292.181 95.272V73.096C292.181 71.248 291.507 70.1773 290.157 69.884C289.923 69.8253 289.805 69.6347 289.805 69.312C289.805 68.9893 289.908 68.8133 290.113 68.784C290.876 68.608 292.577 68.0213 295.217 67.024H295.261L295.305 66.98C295.481 66.98 295.569 67.0827 295.569 67.288L295.481 68.08C295.423 68.6373 295.364 69.356 295.305 70.236C295.276 71.0867 295.261 72.0987 295.261 73.272V95.272C295.261 95.8587 295.437 96.24 295.789 96.416C296.171 96.592 296.669 96.7827 297.285 96.988C297.872 97.2227 298.165 97.4573 298.165 97.692C298.165 97.9853 297.872 98.132 297.285 98.132L293.721 97.912ZM314.543 94.876C314.425 95.3747 314.059 95.9173 313.443 96.504C312.827 97.0907 312.02 97.5893 311.023 98C310.025 98.4107 308.881 98.616 307.591 98.616C306.3 98.616 305.097 98.22 303.983 97.428C302.897 96.6067 302.017 95.492 301.343 94.084C300.697 92.676 300.375 91.0773 300.375 89.288C300.375 87.4987 300.756 85.8853 301.519 84.448C302.311 83.0107 303.367 81.8813 304.687 81.06C306.007 80.2093 307.488 79.784 309.131 79.784C310.891 79.784 312.269 80.1507 313.267 80.884C314.293 81.6173 314.807 82.6147 314.807 83.876C314.807 85.1373 314.484 85.9293 313.839 86.252C313.223 86.5453 312.416 86.692 311.419 86.692H304.203C303.792 86.692 303.499 86.7947 303.323 87C303.176 87.176 303.103 87.616 303.103 88.32C303.103 89.6693 303.396 90.9307 303.983 92.104C304.569 93.2773 305.347 94.216 306.315 94.92C307.312 95.624 308.427 95.976 309.659 95.976C311.448 95.976 312.856 95.3307 313.883 94.04C314.088 93.8347 314.249 93.732 314.367 93.732C314.572 93.732 314.675 93.8787 314.675 94.172C314.675 94.3773 314.631 94.612 314.543 94.876ZM303.939 84.668C303.939 85.108 304.217 85.328 304.775 85.328H308.383C309.057 85.328 309.659 85.3133 310.187 85.284C310.744 85.2253 311.213 85.1667 311.595 85.108C311.888 85.0787 312.035 84.6533 312.035 83.832C312.035 83.04 311.668 82.3947 310.935 81.896C310.201 81.3973 309.321 81.148 308.295 81.148C307.591 81.148 306.901 81.3533 306.227 81.764C305.581 82.1453 305.039 82.6147 304.599 83.172C304.159 83.7 303.939 84.1987 303.939 84.668ZM328.873 96.812C328.404 97.252 327.744 97.6627 326.893 98.044C326.072 98.4253 325.251 98.616 324.429 98.616C322.992 98.616 321.863 98.1907 321.041 97.34C320.249 96.46 319.853 95.14 319.853 93.38V83.172C319.853 82.908 319.751 82.732 319.545 82.644C319.34 82.556 318.885 82.512 318.181 82.512C318.093 82.512 317.976 82.3947 317.829 82.16C317.712 81.9253 317.653 81.7493 317.653 81.632C317.653 81.5147 317.727 81.412 317.873 81.324C318.548 81.1187 319.237 80.6933 319.941 80.048C320.645 79.4027 321.217 78.8013 321.657 78.244C322.097 77.6867 322.361 77.408 322.449 77.408C322.86 77.408 323.065 77.5547 323.065 77.848L322.977 79.784C322.977 80.1947 323.329 80.4 324.033 80.4H329.049C329.343 80.4 329.489 80.752 329.489 81.456C329.489 82.16 329.343 82.512 329.049 82.512H324.693C323.901 82.512 323.403 82.5707 323.197 82.688C323.021 82.8053 322.933 83.1573 322.933 83.744V92.06C322.933 93.556 323.212 94.6267 323.769 95.272C324.327 95.888 325.016 96.196 325.837 96.196C327.304 96.196 328.404 95.9173 329.137 95.36C329.167 95.3307 329.211 95.316 329.269 95.316C329.475 95.316 329.577 95.5067 329.577 95.888C329.577 96.1227 329.343 96.4307 328.873 96.812ZM345.437 94.876C345.32 95.3747 344.953 95.9173 344.337 96.504C343.721 97.0907 342.914 97.5893 341.917 98C340.92 98.4107 339.776 98.616 338.485 98.616C337.194 98.616 335.992 98.22 334.877 97.428C333.792 96.6067 332.912 95.492 332.237 94.084C331.592 92.676 331.269 91.0773 331.269 89.288C331.269 87.4987 331.65 85.8853 332.413 84.448C333.205 83.0107 334.261 81.8813 335.581 81.06C336.901 80.2093 338.382 79.784 340.025 79.784C341.785 79.784 343.164 80.1507 344.161 80.884C345.188 81.6173 345.701 82.6147 345.701 83.876C345.701 85.1373 345.378 85.9293 344.733 86.252C344.117 86.5453 343.31 86.692 342.313 86.692H335.097C334.686 86.692 334.393 86.7947 334.217 87C334.07 87.176 333.997 87.616 333.997 88.32C333.997 89.6693 334.29 90.9307 334.877 92.104C335.464 93.2773 336.241 94.216 337.209 94.92C338.206 95.624 339.321 95.976 340.553 95.976C342.342 95.976 343.75 95.3307 344.777 94.04C344.982 93.8347 345.144 93.732 345.261 93.732C345.466 93.732 345.569 93.8787 345.569 94.172C345.569 94.3773 345.525 94.612 345.437 94.876ZM334.833 84.668C334.833 85.108 335.112 85.328 335.669 85.328H339.277C339.952 85.328 340.553 85.3133 341.081 85.284C341.638 85.2253 342.108 85.1667 342.489 85.108C342.782 85.0787 342.929 84.6533 342.929 83.832C342.929 83.04 342.562 82.3947 341.829 81.896C341.096 81.3973 340.216 81.148 339.189 81.148C338.485 81.148 337.796 81.3533 337.121 81.764C336.476 82.1453 335.933 82.6147 335.493 83.172C335.053 83.7 334.833 84.1987 334.833 84.668ZM370.47 93.336C370.47 96.856 368.358 98.616 364.134 98.616C363.049 98.616 362.037 98.4253 361.098 98.044C360.159 97.692 359.617 97.3547 359.47 97.032C359.118 96.2987 358.927 95.404 358.898 94.348C358.898 94.084 359.133 93.952 359.602 93.952C360.042 93.952 360.277 94.0547 360.306 94.26C360.423 94.7587 360.687 95.2573 361.098 95.756C361.538 96.2547 362.051 96.6653 362.638 96.988C363.254 97.2813 363.885 97.428 364.53 97.428C365.469 97.428 366.187 97.1493 366.686 96.592C367.214 96.0347 367.478 95.3453 367.478 94.524C367.478 93.7027 367.214 93.0133 366.686 92.456C366.158 91.8693 365.278 91.136 364.046 90.256C362.785 89.376 361.773 88.5253 361.01 87.704C360.277 86.8533 359.91 85.8267 359.91 84.624C359.91 83.8027 360.13 83.0253 360.57 82.292C361.01 81.5587 361.641 80.9573 362.462 80.488C363.283 80.0187 364.281 79.784 365.454 79.784C367.214 79.784 368.431 80.1213 369.106 80.796C369.605 81.4413 369.854 82.5853 369.854 84.228C369.854 84.3453 369.751 84.404 369.546 84.404C369.341 84.404 369.047 84.3013 368.666 84.096C368.285 83.8613 368.094 83.656 368.094 83.48C368.065 82.8347 367.771 82.248 367.214 81.72C366.657 81.192 365.997 80.928 365.234 80.928C364.442 80.928 363.797 81.192 363.298 81.72C362.799 82.248 362.55 82.864 362.55 83.568C362.55 84.272 362.799 84.9173 363.298 85.504C363.797 86.0907 364.237 86.5013 364.618 86.736C364.794 86.8533 365.014 87.0147 365.278 87.22C365.571 87.396 365.909 87.6013 366.29 87.836C366.789 88.1293 367.199 88.3933 367.522 88.628C367.874 88.8627 368.211 89.1413 368.534 89.464C368.857 89.7573 369.209 90.1827 369.59 90.74C370.177 91.5907 370.47 92.456 370.47 93.336ZM384.561 96.812C384.091 97.252 383.431 97.6627 382.581 98.044C381.759 98.4253 380.938 98.616 380.117 98.616C378.679 98.616 377.55 98.1907 376.729 97.34C375.937 96.46 375.541 95.14 375.541 93.38V83.172C375.541 82.908 375.438 82.732 375.233 82.644C375.027 82.556 374.573 82.512 373.869 82.512C373.781 82.512 373.663 82.3947 373.517 82.16C373.399 81.9253 373.341 81.7493 373.341 81.632C373.341 81.5147 373.414 81.412 373.561 81.324C374.235 81.1187 374.925 80.6933 375.629 80.048C376.333 79.4027 376.905 78.8013 377.345 78.244C377.785 77.6867 378.049 77.408 378.137 77.408C378.547 77.408 378.753 77.5547 378.753 77.848L378.665 79.784C378.665 80.1947 379.017 80.4 379.721 80.4H384.737C385.03 80.4 385.177 80.752 385.177 81.456C385.177 82.16 385.03 82.512 384.737 82.512H380.381C379.589 82.512 379.09 82.5707 378.885 82.688C378.709 82.8053 378.621 83.1573 378.621 83.744V92.06C378.621 93.556 378.899 94.6267 379.457 95.272C380.014 95.888 380.703 96.196 381.525 96.196C382.991 96.196 384.091 95.9173 384.825 95.36C384.854 95.3307 384.898 95.316 384.957 95.316C385.162 95.316 385.265 95.5067 385.265 95.888C385.265 96.1227 385.03 96.4307 384.561 96.812ZM395.581 96.9C395.17 97.2813 394.554 97.6627 393.733 98.044C392.941 98.4253 392.061 98.616 391.093 98.616C390.447 98.616 389.817 98.44 389.201 98.088C388.614 97.7653 388.13 97.34 387.749 96.812C387.367 96.2547 387.177 95.6973 387.177 95.14C387.177 93.38 388.247 92.06 390.389 91.18L394.877 89.332C395.434 89.0973 395.771 88.892 395.889 88.716C396.006 88.54 396.079 88.1587 396.109 87.572L396.197 84.844V84.756C396.197 83.9933 395.947 83.3333 395.449 82.776C394.979 82.2187 394.437 81.94 393.821 81.94C393.175 81.94 392.574 82.1013 392.017 82.424C391.459 82.7173 391.107 82.996 390.961 83.26C390.814 83.5533 390.741 83.8613 390.741 84.184L390.785 84.8C390.785 84.976 390.579 85.1813 390.169 85.416C389.758 85.6507 389.318 85.8707 388.849 86.076C388.379 86.252 388.042 86.34 387.837 86.34C387.543 86.34 387.397 86.208 387.397 85.944C387.397 85.2693 387.631 84.624 388.101 84.008C388.57 83.392 389.171 82.8053 389.905 82.248C390.667 81.6907 391.459 81.192 392.281 80.752C393.483 80.1067 394.627 79.784 395.713 79.784C396.739 79.784 397.605 80.1653 398.309 80.928C399.013 81.6907 399.35 82.6147 399.321 83.7L399.101 93.204V93.468C399.101 95.5507 399.629 96.592 400.685 96.592C401.389 96.592 401.975 96.3867 402.445 95.976C402.503 95.9173 402.577 95.888 402.665 95.888C402.782 95.888 402.885 95.932 402.973 96.02C403.09 96.108 403.149 96.2253 403.149 96.372V96.416C403.031 96.6507 402.782 96.944 402.401 97.296C402.019 97.648 401.579 97.956 401.081 98.22C400.582 98.484 400.098 98.616 399.629 98.616C398.895 98.616 398.279 98.4253 397.781 98.044C397.311 97.6627 396.974 97.2813 396.769 96.9C396.563 96.5187 396.431 96.328 396.373 96.328C396.226 96.328 395.962 96.5187 395.581 96.9ZM390.697 94.172C390.697 94.9347 390.931 95.536 391.401 95.976C391.87 96.3867 392.442 96.592 393.117 96.592C393.791 96.592 394.437 96.328 395.053 95.8C395.669 95.272 395.991 94.5533 396.021 93.644L396.109 91.488V91.268C396.109 90.7987 395.977 90.564 395.713 90.564C395.537 90.564 395.331 90.608 395.097 90.696C392.163 91.6933 390.697 92.852 390.697 94.172ZM408.799 97.912L405.147 98.132C404.56 98.132 404.267 97.9853 404.267 97.692C404.267 97.428 404.604 97.1787 405.279 96.944C406.54 96.5627 407.171 95.9173 407.171 95.008V82.6C406.702 82.6 406.276 82.6 405.895 82.6C405.543 82.5707 405.206 82.5413 404.883 82.512C404.795 82.4827 404.663 82.38 404.487 82.204C404.34 82.028 404.267 81.8813 404.267 81.764C404.267 81.676 404.37 81.5733 404.575 81.456C404.81 81.3973 405.132 81.28 405.543 81.104C405.983 80.8987 406.526 80.6347 407.171 80.312C407.171 77.9067 407.479 75.7947 408.095 73.976C408.74 72.1573 409.576 70.764 410.603 69.796C412.598 67.8893 414.68 66.936 416.851 66.936C420.078 66.936 421.691 67.816 421.691 69.576C421.691 70.0453 421.544 70.456 421.251 70.808C420.958 71.16 420.65 71.336 420.327 71.336C420.004 71.336 419.682 71.204 419.359 70.94C419.036 70.676 418.728 70.368 418.435 70.016C418.142 69.6933 417.687 69.4 417.071 69.136C416.455 68.872 415.766 68.74 415.003 68.74C413.566 68.74 412.422 69.4293 411.571 70.808C410.75 72.1573 410.339 74.2547 410.339 77.1V79.432C410.339 80.0773 410.706 80.4 411.439 80.4H416.631C416.748 80.4 416.807 80.5613 416.807 80.884C416.807 81.236 416.748 81.6027 416.631 81.984C416.514 82.336 416.382 82.512 416.235 82.512H412.099C411.366 82.512 410.896 82.5707 410.691 82.688C410.456 82.8347 410.339 83.0253 410.339 83.26V95.008C410.368 95.9173 410.999 96.5627 412.231 96.944C412.906 97.1787 413.243 97.428 413.243 97.692C413.243 97.9853 412.95 98.132 412.363 98.132L408.799 97.912ZM422.205 97.912L418.553 98.132C417.966 98.132 417.673 97.9853 417.673 97.692C417.673 97.428 418.01 97.1787 418.685 96.944C419.946 96.5627 420.577 95.9173 420.577 95.008V82.6C420.108 82.6 419.682 82.6 419.301 82.6C418.949 82.5707 418.612 82.5413 418.289 82.512C418.201 82.4827 418.069 82.38 417.893 82.204C417.746 82.028 417.673 81.8813 417.673 81.764C417.673 81.676 417.776 81.5733 417.981 81.456C418.216 81.3973 418.538 81.28 418.949 81.104C419.389 80.8987 419.932 80.6347 420.577 80.312C420.577 77.9067 420.885 75.7947 421.501 73.976C422.146 72.1573 422.982 70.764 424.009 69.796C426.004 67.8893 428.086 66.936 430.257 66.936C433.484 66.936 435.097 67.816 435.097 69.576C435.097 70.0453 434.95 70.456 434.657 70.808C434.364 71.16 434.056 71.336 433.733 71.336C433.41 71.336 433.088 71.204 432.765 70.94C432.442 70.676 432.134 70.368 431.841 70.016C431.548 69.6933 431.093 69.4 430.477 69.136C429.861 68.872 429.172 68.74 428.409 68.74C426.972 68.74 425.828 69.4293 424.977 70.808C424.156 72.1573 423.745 74.2547 423.745 77.1V79.432C423.745 80.0773 424.112 80.4 424.845 80.4H430.037C430.154 80.4 430.213 80.5613 430.213 80.884C430.213 81.236 430.154 81.6027 430.037 81.984C429.92 82.336 429.788 82.512 429.641 82.512H425.505C424.772 82.512 424.302 82.5707 424.097 82.688C423.862 82.8347 423.745 83.0253 423.745 83.26V95.008C423.774 95.9173 424.405 96.5627 425.637 96.944C426.312 97.1787 426.649 97.428 426.649 97.692C426.649 97.9853 426.356 98.132 425.769 98.132L422.205 97.912Z" fill="#F8F9FA"/>
<rect x="1.19409" y="1" width="194.056" height="173" rx="35" fill="#2ECC71" stroke="black" stroke-width="2"/>
<path d="M93.504 96.5C103.762 96.5 112.076 89.2256 112.076 80.25C112.076 71.2744 103.762 64 93.504 64C83.2458 64 74.9319 71.2744 74.9319 80.25C74.9319 89.2256 83.2458 96.5 93.504 96.5ZM106.504 100.562H104.081C100.86 101.857 97.2765 102.594 93.504 102.594C89.7316 102.594 86.1622 101.857 82.9266 100.562H80.5035C69.7375 100.562 61.0028 108.205 61.0028 117.625V122.906C61.0028 126.271 64.1223 129 67.9674 129H119.041C122.886 129 126.005 126.271 126.005 122.906V117.625C126.005 108.205 117.271 100.562 106.504 100.562Z" fill="#0D1B2A"/>
<path d="M159.18 31.5625H148.509L147.673 30.0651C147.496 29.7449 147.223 29.4756 146.885 29.2875C146.547 29.0993 146.158 28.9998 145.761 29H135.596C135.2 28.9986 134.811 29.0978 134.475 29.2862C134.138 29.4745 133.867 29.7445 133.693 30.0651L132.857 31.5625H122.186C121.808 31.5625 121.447 31.6975 121.18 31.9378C120.913 32.1781 120.763 32.504 120.763 32.8438V35.4063C120.763 35.7461 120.913 36.072 121.18 36.3122C121.447 36.5525 121.808 36.6875 122.186 36.6875H159.18C159.558 36.6875 159.92 36.5525 160.186 36.3122C160.453 36.072 160.603 35.7461 160.603 35.4063V32.8438C160.603 32.504 160.453 32.1781 160.186 31.9378C159.92 31.6975 159.558 31.5625 159.18 31.5625ZM125.494 66.3965C125.562 67.3723 126.04 68.2882 126.832 68.9577C127.623 69.6271 128.668 69.9999 129.754 70H151.612C152.698 69.9999 153.743 69.6271 154.535 68.9577C155.326 68.2882 155.804 67.3723 155.872 66.3965L157.757 39.25H123.609L125.494 66.3965Z" fill="#032141"/>
</svg>
