<svg width="76" height="65" viewBox="0 0 76 65" fill="none" xmlns="http://www.w3.org/2000/svg">
<path d="M37.7275 2C57.1351 2 73.4561 15.349 73.4561 32.5C73.4561 49.651 57.1351 63 37.7275 63C18.3201 62.9998 2 49.6509 2 32.5C2 15.3491 18.3201 2.00017 37.7275 2ZM33.499 16.5029C32.9619 16.0491 31.9913 16.0582 31.4785 16.4961L31.4707 16.5029L29.1592 18.4561C28.9388 18.6423 28.9092 18.8036 28.9092 18.8809C28.9092 18.9476 28.931 19.0737 29.0791 19.2236L29.1504 19.29L29.1592 19.2969L42.9766 30.9727L44.7842 32.5L42.9766 34.0273L29.1592 45.7031C28.9389 45.8893 28.9092 46.0506 28.9092 46.1279C28.9092 46.1947 28.9305 46.3214 29.0791 46.4717L29.1504 46.5371L29.1592 46.5439L31.4707 48.498L31.5762 48.5771C32.1272 48.9486 33.0105 48.9145 33.4912 48.5039L33.499 48.4971L51.9277 32.9258C52.1474 32.7401 52.1768 32.5793 52.1768 32.5C52.1768 32.4207 52.1474 32.2599 51.9277 32.0742L33.499 16.5029Z" fill="#2ECC71" stroke="black" stroke-width="4"/>
</svg>
