<svg width="214" height="297" viewBox="0 0 214 297" fill="none" xmlns="http://www.w3.org/2000/svg">
<rect x="1.36987" y="1" width="210.67" height="198.051" rx="20" fill="#2ECC71" stroke="#0D1B2A" stroke-width="2"/>
<path d="M100.45 101.439C116.902 101.439 130.236 87.203 130.236 69.6375C130.236 52.0721 116.902 37.8359 100.45 37.8359C83.9979 37.8359 70.6642 52.0721 70.6642 69.6375C70.6642 87.203 83.9979 101.439 100.45 101.439ZM121.3 109.39H117.414C112.248 111.924 106.5 113.365 100.45 113.365C94.3997 113.365 88.6752 111.924 83.486 109.39H79.5999C62.3335 109.39 48.3249 124.346 48.3249 142.781V153.117C48.3249 159.701 53.328 165.042 59.4945 165.042H141.405C147.572 165.042 152.575 159.701 152.575 153.117V142.781C152.575 124.346 138.566 109.39 121.3 109.39Z" fill="#0D1B2A"/>
<path d="M164.703 44.2746L175.781 56.9975L151.726 84.6246L141.849 85.8768C140.527 86.0447 139.41 84.7607 139.557 83.2422L140.656 71.8908L164.703 44.2746ZM182.633 42.3804L177.431 36.4066C175.809 34.5432 173.178 34.5432 171.555 36.4066L166.662 42.0266L177.74 54.7495L182.633 49.1294C184.256 47.265 184.256 44.2438 182.633 42.3804Z" fill="#0D1B2A"/>
<path d="M72.4443 229.967L68.4843 230.165C67.8463 230.165 67.5273 230.022 67.5273 229.736C67.5273 229.45 67.8903 229.197 68.6163 228.977C69.9363 228.581 70.8823 227.734 71.4543 226.436C73.5443 221.618 75.6013 216.448 77.6253 210.926C77.9113 210.222 78.0543 209.716 78.0543 209.408C78.0543 209.144 78.0653 209.012 78.0873 209.012C78.8573 208.748 79.3193 208.528 79.4733 208.352C79.5393 208.264 79.5943 208.198 79.6383 208.154C79.6823 208.088 79.7153 208.033 79.7373 207.989C79.8473 207.791 79.9243 207.692 79.9683 207.692C80.0783 207.692 80.1883 207.846 80.2983 208.154C81.1123 210.706 82.0033 213.456 82.9713 216.404C83.9613 219.33 85.0283 222.454 86.1723 225.776C86.5903 226.986 87.0523 227.811 87.5583 228.251C88.0863 228.669 88.7243 228.944 89.4723 229.076C90.2203 229.208 90.5943 229.461 90.5943 229.835C90.5943 230.055 90.2753 230.165 89.6373 230.165L85.0503 229.967L81.5853 230C80.9473 230 80.6283 229.868 80.6283 229.604C80.6283 229.274 80.9913 229.065 81.7173 228.977C83.0593 228.757 83.7303 228.262 83.7303 227.492C83.7303 226.876 83.3123 225.149 82.4763 222.311C82.4103 222.069 82.1133 221.948 81.5853 221.948H75.2823C75.0403 221.948 74.8533 222.146 74.7213 222.542C73.8413 225.05 73.4013 226.568 73.4013 227.096C73.4013 227.58 73.5773 227.987 73.9293 228.317C74.3033 228.625 74.8093 228.867 75.4473 229.043C76.0853 229.219 76.4043 229.428 76.4043 229.67C76.4043 229.912 76.0853 230.033 75.4473 230.033L72.4443 229.967ZM75.5463 220.298C75.5463 220.452 75.7773 220.529 76.2393 220.529H81.3543C81.6623 220.529 81.8163 220.474 81.8163 220.364L81.7503 220.034L79.1433 212.147C79.0113 211.751 78.9233 211.553 78.8793 211.553C78.8133 211.553 78.7143 211.74 78.5823 212.114L75.6123 220.034L75.5463 220.298ZM103.352 230.066C102.472 230.44 101.966 230.627 101.834 230.627C101.658 230.627 101.57 230.583 101.57 230.495L101.735 228.317V228.119C101.339 228.735 100.767 229.285 100.019 229.769C99.2709 230.231 98.4019 230.462 97.4119 230.462C96.2239 230.462 95.1679 230.143 94.2439 229.505C93.3199 228.867 92.5939 228.031 92.0659 226.997C91.5599 225.941 91.3069 224.786 91.3069 223.532C91.3069 222.278 91.6149 221.101 92.2309 220.001C92.8469 218.901 93.7159 218.021 94.8379 217.361C95.9599 216.679 97.2579 216.338 98.7319 216.338C99.0399 216.338 99.3699 216.382 99.7219 216.47C100.096 216.536 100.437 216.624 100.745 216.734C101.053 216.844 101.251 216.954 101.339 217.064C101.471 217.24 101.581 217.328 101.669 217.328C101.735 217.328 101.768 217.064 101.768 216.536V211.322C101.768 210.486 101.636 209.914 101.372 209.606C101.13 209.276 100.701 209.045 100.085 208.913C99.9089 208.869 99.8209 208.726 99.8209 208.484C99.8209 208.242 99.8979 208.11 100.052 208.088C100.492 207.978 100.921 207.857 101.339 207.725C101.779 207.593 102.208 207.439 102.626 207.263C103.484 206.933 103.979 206.768 104.111 206.768C104.221 206.768 104.287 206.812 104.309 206.9C104.309 206.944 104.309 207.021 104.309 207.131C104.309 207.241 104.298 207.384 104.276 207.56C104.144 208.814 104.078 210.112 104.078 211.454V226.37C104.078 227.8 104.309 228.515 104.771 228.515C105.453 228.515 105.959 228.482 106.289 228.416H106.388C106.652 228.416 106.784 228.548 106.784 228.812C106.784 229.142 106.63 229.307 106.322 229.307C105.75 229.395 105.211 229.505 104.705 229.637C104.221 229.747 103.77 229.89 103.352 230.066ZM95.6629 227.855C96.6749 228.603 97.6539 228.977 98.5999 228.977C99.5239 228.977 100.283 228.691 100.877 228.119C101.471 227.547 101.768 226.854 101.768 226.04V221.585C101.768 220.903 101.592 220.254 101.24 219.638C100.91 219.022 100.437 218.516 99.8209 218.12C99.2269 217.702 98.5229 217.493 97.7089 217.493C96.9169 217.493 96.2019 217.768 95.5639 218.318C94.9259 218.846 94.4639 219.495 94.1779 220.265C93.8919 220.991 93.7489 221.926 93.7489 223.07C93.7489 224.17 93.9249 225.149 94.2769 226.007C94.6509 226.843 95.1129 227.459 95.6629 227.855ZM120.045 230.066C119.165 230.44 118.659 230.627 118.527 230.627C118.351 230.627 118.263 230.583 118.263 230.495L118.428 228.317V228.119C118.032 228.735 117.46 229.285 116.712 229.769C115.964 230.231 115.095 230.462 114.105 230.462C112.917 230.462 111.861 230.143 110.937 229.505C110.013 228.867 109.287 228.031 108.759 226.997C108.253 225.941 108 224.786 108 223.532C108 222.278 108.308 221.101 108.924 220.001C109.54 218.901 110.409 218.021 111.531 217.361C112.653 216.679 113.951 216.338 115.425 216.338C115.733 216.338 116.063 216.382 116.415 216.47C116.789 216.536 117.13 216.624 117.438 216.734C117.746 216.844 117.944 216.954 118.032 217.064C118.164 217.24 118.274 217.328 118.362 217.328C118.428 217.328 118.461 217.064 118.461 216.536V211.322C118.461 210.486 118.329 209.914 118.065 209.606C117.823 209.276 117.394 209.045 116.778 208.913C116.602 208.869 116.514 208.726 116.514 208.484C116.514 208.242 116.591 208.11 116.745 208.088C117.185 207.978 117.614 207.857 118.032 207.725C118.472 207.593 118.901 207.439 119.319 207.263C120.177 206.933 120.672 206.768 120.804 206.768C120.914 206.768 120.98 206.812 121.002 206.9C121.002 206.944 121.002 207.021 121.002 207.131C121.002 207.241 120.991 207.384 120.969 207.56C120.837 208.814 120.771 210.112 120.771 211.454V226.37C120.771 227.8 121.002 228.515 121.464 228.515C122.146 228.515 122.652 228.482 122.982 228.416H123.081C123.345 228.416 123.477 228.548 123.477 228.812C123.477 229.142 123.323 229.307 123.015 229.307C122.443 229.395 121.904 229.505 121.398 229.637C120.914 229.747 120.463 229.89 120.045 230.066ZM112.356 227.855C113.368 228.603 114.347 228.977 115.293 228.977C116.217 228.977 116.976 228.691 117.57 228.119C118.164 227.547 118.461 226.854 118.461 226.04V221.585C118.461 220.903 118.285 220.254 117.933 219.638C117.603 219.022 117.13 218.516 116.514 218.12C115.92 217.702 115.216 217.493 114.402 217.493C113.61 217.493 112.895 217.768 112.257 218.318C111.619 218.846 111.157 219.495 110.871 220.265C110.585 220.991 110.442 221.926 110.442 223.07C110.442 224.17 110.618 225.149 110.97 226.007C111.344 226.843 111.806 227.459 112.356 227.855ZM126.245 231.551C126.113 231.881 125.794 232.046 125.288 232.046C124.76 232.046 124.496 231.914 124.496 231.65L124.529 231.617V231.551L134.33 208.616C134.506 208.242 134.935 208.055 135.617 208.055C135.727 208.055 135.826 208.099 135.914 208.187C136.024 208.275 136.079 208.374 136.079 208.484V208.55L126.245 231.551ZM73.4337 262.538C73.4337 262.956 73.1367 263.253 72.5427 263.429C71.9707 263.605 71.3767 263.693 70.7607 263.693C69.7267 263.693 68.7807 263.462 67.9227 263C67.0867 262.538 66.3387 261.966 65.6787 261.284C65.0187 260.602 64.4467 259.92 63.9627 259.238C63.4787 258.534 63.0827 257.951 62.7747 257.489C62.4667 257.027 62.1807 256.598 61.9167 256.202C61.6747 255.806 61.4657 255.454 61.2897 255.146C60.5197 253.958 59.1447 253.254 57.1647 253.034H57.0987C56.8127 253.034 56.6697 253.254 56.6697 253.694V259.37C56.6697 260.998 57.4067 261.944 58.8807 262.208C59.6067 262.34 59.9697 262.527 59.9697 262.769C59.9697 263.033 59.6507 263.165 59.0127 263.165C58.7047 263.165 58.3967 263.154 58.0887 263.132C57.7807 263.11 57.4837 263.077 57.1977 263.033C56.6477 262.967 56.1747 262.934 55.7787 262.934L51.4887 263.165C50.8507 263.165 50.5317 263.033 50.5317 262.769C50.5317 262.527 50.9277 262.329 51.7197 262.175C52.5117 262.043 53.0947 261.801 53.4687 261.449C53.8427 261.075 54.0297 260.492 54.0297 259.7V245.774C54.0297 244.718 53.8977 243.937 53.6337 243.431C53.3697 242.925 52.8527 242.606 52.0827 242.474C51.3127 242.342 50.9277 242.122 50.9277 241.814C50.9277 241.572 51.2467 241.451 51.8847 241.451L55.1187 241.484L58.9137 241.319C63.8637 241.319 66.3387 243.123 66.3387 246.731C66.3387 249.107 65.0407 250.955 62.4447 252.275C62.3567 252.319 62.3127 252.374 62.3127 252.44C62.3127 252.462 62.3237 252.495 62.3457 252.539C62.3897 252.583 62.4227 252.638 62.4447 252.704C62.9507 253.452 63.3577 254.068 63.6657 254.552C63.9737 255.014 64.2487 255.432 64.4907 255.806C64.7547 256.158 65.0297 256.51 65.3157 256.862C65.6017 257.214 65.9647 257.654 66.4047 258.182C66.8447 258.71 67.2847 259.216 67.7247 259.7C68.1867 260.184 68.6597 260.646 69.1437 261.086C69.6717 261.548 70.2107 261.845 70.7607 261.977C71.3107 262.109 72.0367 262.175 72.9387 262.175C73.2687 262.175 73.4337 262.296 73.4337 262.538ZM56.6697 250.988C56.6697 251.494 56.8017 251.813 57.0657 251.945C57.3297 252.077 57.7807 252.143 58.4187 252.143C59.4087 252.143 60.2667 251.923 60.9927 251.483C61.7407 251.043 62.3237 250.438 62.7417 249.668C63.1597 248.898 63.3687 248.04 63.3687 247.094C63.3687 245.664 63.0497 244.509 62.4117 243.629C61.7957 242.749 60.6297 242.309 58.9137 242.309C58.0777 242.309 57.5167 242.463 57.2307 242.771C56.9667 243.079 56.8237 243.519 56.8017 244.091C56.7577 245.169 56.7247 246.28 56.7027 247.424C56.6807 248.568 56.6697 249.756 56.6697 250.988ZM84.1077 260.657C84.0197 261.031 83.7447 261.438 83.2827 261.878C82.8207 262.318 82.2157 262.692 81.4677 263C80.7197 263.308 79.8617 263.462 78.8937 263.462C77.9257 263.462 77.0237 263.165 76.1877 262.571C75.3737 261.955 74.7137 261.119 74.2077 260.063C73.7237 259.007 73.4817 257.808 73.4817 256.466C73.4817 255.124 73.7677 253.914 74.3397 252.836C74.9337 251.758 75.7257 250.911 76.7157 250.295C77.7057 249.657 78.8167 249.338 80.0487 249.338C81.3687 249.338 82.4027 249.613 83.1507 250.163C83.9207 250.713 84.3057 251.461 84.3057 252.407C84.3057 253.353 84.0637 253.947 83.5797 254.189C83.1177 254.409 82.5127 254.519 81.7647 254.519H76.3527C76.0447 254.519 75.8247 254.596 75.6927 254.75C75.5827 254.882 75.5277 255.212 75.5277 255.74C75.5277 256.752 75.7477 257.698 76.1877 258.578C76.6277 259.458 77.2107 260.162 77.9367 260.69C78.6847 261.218 79.5207 261.482 80.4447 261.482C81.7867 261.482 82.8427 260.998 83.6127 260.03C83.7667 259.876 83.8877 259.799 83.9757 259.799C84.1297 259.799 84.2067 259.909 84.2067 260.129C84.2067 260.283 84.1737 260.459 84.1077 260.657ZM76.1547 253.001C76.1547 253.331 76.3637 253.496 76.7817 253.496H79.4877C79.9937 253.496 80.4447 253.485 80.8407 253.463C81.2587 253.419 81.6107 253.375 81.8967 253.331C82.1167 253.309 82.2267 252.99 82.2267 252.374C82.2267 251.78 81.9517 251.296 81.4017 250.922C80.8517 250.548 80.1917 250.361 79.4217 250.361C78.8937 250.361 78.3767 250.515 77.8707 250.823C77.3867 251.109 76.9797 251.461 76.6497 251.879C76.3197 252.275 76.1547 252.649 76.1547 253.001ZM89.4106 262.934L86.7376 263.099C86.2976 263.099 86.0776 262.989 86.0776 262.769C86.0776 262.637 86.1656 262.527 86.3416 262.439C86.5176 262.329 86.7046 262.241 86.9026 262.175C87.1006 262.109 87.2216 262.076 87.2656 262.076C87.3096 262.076 87.4196 262.032 87.5956 261.944C87.7716 261.856 87.8816 261.779 87.9256 261.713C88.1456 261.493 88.2556 261.24 88.2556 260.954V253.859C88.2556 253.177 88.1676 252.638 87.9916 252.242C87.8156 251.846 87.4746 251.593 86.9686 251.483C86.7926 251.439 86.7046 251.296 86.7046 251.054C86.7046 250.812 86.7816 250.68 86.9356 250.658C87.4416 250.548 87.9476 250.361 88.4536 250.097C88.9816 249.833 89.5206 249.514 90.0706 249.14L90.5656 248.843H90.5986C90.6866 248.843 90.7636 248.909 90.8296 249.041L90.6646 251.153C90.6646 251.373 90.6866 251.505 90.7306 251.549C92.2926 250.075 94.0306 249.338 95.9446 249.338C97.5066 249.338 98.5296 249.998 99.0136 251.318C99.1236 251.56 99.2446 251.681 99.3766 251.681C99.4866 251.681 99.7176 251.472 100.07 251.054C100.422 250.658 101.038 250.273 101.918 249.899C102.798 249.525 103.744 249.338 104.756 249.338C105.416 249.338 105.988 249.547 106.472 249.965C106.978 250.383 107.363 250.944 107.627 251.648C107.891 252.33 108.023 253.089 108.023 253.925V260.954C108.023 261.394 108.155 261.68 108.419 261.812C108.705 261.944 109.079 262.087 109.541 262.241C109.981 262.417 110.201 262.593 110.201 262.769C110.201 262.989 109.981 263.099 109.541 263.099L106.934 262.934L104.195 263.099C103.755 263.099 103.535 262.989 103.535 262.769C103.535 262.571 103.788 262.384 104.294 262.208C104.338 262.208 104.382 262.197 104.426 262.175C105.174 261.933 105.592 261.636 105.68 261.284C105.702 261.24 105.713 261.185 105.713 261.119C105.713 261.053 105.713 260.998 105.713 260.954V254.024C105.713 253.21 105.449 252.484 104.921 251.846C104.393 251.208 103.777 250.889 103.073 250.889C101.907 250.889 100.983 251.153 100.301 251.681C99.6186 252.209 99.2776 253.034 99.2776 254.156V260.954C99.2776 261.196 99.3106 261.35 99.3766 261.416L99.5086 261.614C99.5526 261.702 99.6076 261.757 99.6736 261.779C99.7836 261.801 99.8496 261.834 99.8716 261.878C99.9156 261.922 99.9926 261.955 100.103 261.977C100.213 261.999 100.279 262.032 100.301 262.076C100.477 262.164 100.631 262.208 100.763 262.208C101.269 262.384 101.522 262.571 101.522 262.769C101.522 262.989 101.302 263.099 100.862 263.099L98.1556 262.934L95.4166 263.099C94.9766 263.099 94.7566 262.989 94.7566 262.769C94.7566 262.571 95.0646 262.373 95.6806 262.175C96.2966 261.977 96.6706 261.768 96.8026 261.548C96.9126 261.328 96.9676 261.13 96.9676 260.954V254.024C96.9676 253.21 96.7036 252.484 96.1756 251.846C95.6476 251.208 95.0316 250.889 94.3276 250.889C93.1616 250.889 92.2376 251.153 91.5556 251.681C90.8956 252.187 90.5656 253.012 90.5656 254.156V260.954C90.5656 261.372 90.6866 261.658 90.9286 261.812C91.1926 261.944 91.3686 262.021 91.4566 262.043C92.3146 262.263 92.7436 262.516 92.7436 262.802C92.7436 263 92.5236 263.099 92.0836 263.099L89.4106 262.934ZM126.15 256.169C126.15 257.445 125.853 258.644 125.259 259.766C124.687 260.866 123.84 261.757 122.718 262.439C121.618 263.121 120.276 263.462 118.692 263.462C117.46 263.462 116.338 263.176 115.326 262.604C114.336 262.032 113.555 261.251 112.983 260.261C112.411 259.249 112.125 258.105 112.125 256.829C112.125 255.883 112.312 254.97 112.686 254.09C113.06 253.188 113.577 252.385 114.237 251.681C114.919 250.955 115.689 250.383 116.547 249.965C117.405 249.547 118.318 249.338 119.286 249.338C120.584 249.338 121.75 249.646 122.784 250.262C123.818 250.856 124.632 251.67 125.226 252.704C125.842 253.716 126.15 254.871 126.15 256.169ZM114.831 256.07C114.831 257.192 115.029 258.248 115.425 259.238C115.843 260.206 116.393 260.987 117.075 261.581C117.779 262.175 118.549 262.472 119.385 262.472C120.485 262.472 121.321 262.241 121.893 261.779C122.487 261.295 122.894 260.635 123.114 259.799C123.334 258.941 123.444 257.951 123.444 256.829C123.444 255.685 123.235 254.629 122.817 253.661C122.421 252.671 121.871 251.879 121.167 251.285C120.485 250.669 119.693 250.361 118.791 250.361C116.151 250.361 114.831 252.264 114.831 256.07ZM135.328 262.241C134.844 263.231 134.547 263.726 134.437 263.726C134.305 263.726 134.085 263.297 133.777 262.439L129.751 252.143C129.399 251.263 128.893 250.724 128.233 250.526C127.727 250.35 127.474 250.152 127.474 249.932C127.474 249.734 127.694 249.635 128.134 249.635L130.543 249.8L133.018 249.635C133.458 249.635 133.678 249.734 133.678 249.932C133.678 250.152 133.425 250.35 132.919 250.526C132.479 250.658 132.259 251.109 132.259 251.879C132.259 252.275 132.303 252.572 132.391 252.77L134.833 259.337C134.943 259.579 135.009 259.7 135.031 259.7C135.075 259.7 135.141 259.59 135.229 259.37L137.605 253.265C137.759 252.891 137.836 252.495 137.836 252.077C137.836 251.197 137.561 250.68 137.011 250.526C136.505 250.35 136.252 250.152 136.252 249.932C136.252 249.734 136.472 249.635 136.912 249.635L139.321 249.8C139.761 249.8 140.157 249.767 140.509 249.701C140.685 249.679 140.85 249.668 141.004 249.668C141.18 249.646 141.345 249.635 141.499 249.635C141.785 249.635 141.928 249.734 141.928 249.932C141.928 250.152 141.719 250.328 141.301 250.46C140.883 250.614 140.465 250.9 140.047 251.318C139.651 251.736 139.343 252.209 139.123 252.737L136.549 258.941L135.328 262.241ZM153.395 260.657C153.307 261.031 153.032 261.438 152.57 261.878C152.108 262.318 151.503 262.692 150.755 263C150.007 263.308 149.149 263.462 148.181 263.462C147.213 263.462 146.311 263.165 145.475 262.571C144.661 261.955 144.001 261.119 143.495 260.063C143.011 259.007 142.769 257.808 142.769 256.466C142.769 255.124 143.055 253.914 143.627 252.836C144.221 251.758 145.013 250.911 146.003 250.295C146.993 249.657 148.104 249.338 149.336 249.338C150.656 249.338 151.69 249.613 152.438 250.163C153.208 250.713 153.593 251.461 153.593 252.407C153.593 253.353 153.351 253.947 152.867 254.189C152.405 254.409 151.8 254.519 151.052 254.519H145.64C145.332 254.519 145.112 254.596 144.98 254.75C144.87 254.882 144.815 255.212 144.815 255.74C144.815 256.752 145.035 257.698 145.475 258.578C145.915 259.458 146.498 260.162 147.224 260.69C147.972 261.218 148.808 261.482 149.732 261.482C151.074 261.482 152.13 260.998 152.9 260.03C153.054 259.876 153.175 259.799 153.263 259.799C153.417 259.799 153.494 259.909 153.494 260.129C153.494 260.283 153.461 260.459 153.395 260.657ZM145.442 253.001C145.442 253.331 145.651 253.496 146.069 253.496H148.775C149.281 253.496 149.732 253.485 150.128 253.463C150.546 253.419 150.898 253.375 151.184 253.331C151.404 253.309 151.514 252.99 151.514 252.374C151.514 251.78 151.239 251.296 150.689 250.922C150.139 250.548 149.479 250.361 148.709 250.361C148.181 250.361 147.664 250.515 147.158 250.823C146.674 251.109 146.267 251.461 145.937 251.879C145.607 252.275 145.442 252.649 145.442 253.001ZM84.6583 292.502C84.6583 295.142 83.0743 296.462 79.9063 296.462C79.0923 296.462 78.3333 296.319 77.6293 296.033C76.9253 295.769 76.5183 295.516 76.4083 295.274C76.1443 294.724 76.0013 294.053 75.9793 293.261C75.9793 293.063 76.1553 292.964 76.5073 292.964C76.8373 292.964 77.0133 293.041 77.0353 293.195C77.1233 293.569 77.3213 293.943 77.6293 294.317C77.9593 294.691 78.3443 294.999 78.7843 295.241C79.2463 295.461 79.7193 295.571 80.2033 295.571C80.9073 295.571 81.4463 295.362 81.8203 294.944C82.2163 294.526 82.4143 294.009 82.4143 293.393C82.4143 292.777 82.2163 292.26 81.8203 291.842C81.4243 291.402 80.7643 290.852 79.8403 290.192C78.8943 289.532 78.1353 288.894 77.5633 288.278C77.0133 287.64 76.7383 286.87 76.7383 285.968C76.7383 285.352 76.9033 284.769 77.2333 284.219C77.5633 283.669 78.0363 283.218 78.6523 282.866C79.2683 282.514 80.0163 282.338 80.8963 282.338C82.2163 282.338 83.1293 282.591 83.6353 283.097C84.0093 283.581 84.1963 284.439 84.1963 285.671C84.1963 285.759 84.1193 285.803 83.9653 285.803C83.8113 285.803 83.5913 285.726 83.3053 285.572C83.0193 285.396 82.8763 285.242 82.8763 285.11C82.8543 284.626 82.6343 284.186 82.2163 283.79C81.7983 283.394 81.3033 283.196 80.7313 283.196C80.1373 283.196 79.6533 283.394 79.2793 283.79C78.9053 284.186 78.7183 284.648 78.7183 285.176C78.7183 285.704 78.9053 286.188 79.2793 286.628C79.6533 287.068 79.9833 287.376 80.2693 287.552C80.4013 287.64 80.5663 287.761 80.7643 287.915C80.9843 288.047 81.2373 288.201 81.5233 288.377C81.8973 288.597 82.2053 288.795 82.4473 288.971C82.7113 289.147 82.9643 289.356 83.2063 289.598C83.4483 289.818 83.7123 290.137 83.9983 290.555C84.4383 291.193 84.6583 291.842 84.6583 292.502ZM95.2263 295.109C94.8743 295.439 94.3793 295.747 93.7413 296.033C93.1253 296.319 92.5093 296.462 91.8933 296.462C90.8153 296.462 89.9683 296.143 89.3523 295.505C88.7583 294.845 88.4613 293.855 88.4613 292.535V284.879C88.4613 284.681 88.3843 284.549 88.2303 284.483C88.0763 284.417 87.7353 284.384 87.2073 284.384C87.1413 284.384 87.0533 284.296 86.9433 284.12C86.8553 283.944 86.8113 283.812 86.8113 283.724C86.8113 283.636 86.8663 283.559 86.9763 283.493C87.4823 283.339 87.9993 283.02 88.5273 282.536C89.0553 282.052 89.4843 281.601 89.8143 281.183C90.1443 280.765 90.3423 280.556 90.4083 280.556C90.7163 280.556 90.8703 280.666 90.8703 280.886L90.8043 282.338C90.8043 282.646 91.0683 282.8 91.5963 282.8H95.3582C95.5783 282.8 95.6883 283.064 95.6883 283.592C95.6883 284.12 95.5783 284.384 95.3582 284.384H92.0913C91.4973 284.384 91.1233 284.428 90.9693 284.516C90.8373 284.604 90.7713 284.868 90.7713 285.308V291.545C90.7713 292.667 90.9803 293.47 91.3983 293.954C91.8163 294.416 92.3333 294.647 92.9493 294.647C94.0493 294.647 94.8743 294.438 95.4243 294.02C95.4463 293.998 95.4793 293.987 95.5233 293.987C95.6773 293.987 95.7543 294.13 95.7543 294.416C95.7543 294.592 95.5783 294.823 95.2263 295.109ZM103.491 295.175C103.183 295.461 102.721 295.747 102.105 296.033C101.511 296.319 100.851 296.462 100.125 296.462C99.6412 296.462 99.1682 296.33 98.7062 296.066C98.2662 295.824 97.9032 295.505 97.6172 295.109C97.3312 294.691 97.1882 294.273 97.1882 293.855C97.1882 292.535 97.9912 291.545 99.5972 290.885L102.963 289.499C103.381 289.323 103.634 289.169 103.722 289.037C103.81 288.905 103.865 288.619 103.887 288.179L103.953 286.133V286.067C103.953 285.495 103.766 285 103.392 284.582C103.04 284.164 102.633 283.955 102.171 283.955C101.687 283.955 101.236 284.076 100.818 284.318C100.4 284.538 100.136 284.747 100.026 284.945C99.9162 285.165 99.8612 285.396 99.8612 285.638L99.8942 286.1C99.8942 286.232 99.7402 286.386 99.4322 286.562C99.1242 286.738 98.7942 286.903 98.4422 287.057C98.0902 287.189 97.8372 287.255 97.6832 287.255C97.4632 287.255 97.3532 287.156 97.3532 286.958C97.3532 286.452 97.5292 285.968 97.8812 285.506C98.2332 285.044 98.6842 284.604 99.2342 284.186C99.8062 283.768 100.4 283.394 101.016 283.064C101.918 282.58 102.776 282.338 103.59 282.338C104.36 282.338 105.009 282.624 105.537 283.196C106.065 283.768 106.318 284.461 106.296 285.275L106.131 292.403V292.601C106.131 294.163 106.527 294.944 107.319 294.944C107.847 294.944 108.287 294.79 108.639 294.482C108.683 294.438 108.738 294.416 108.804 294.416C108.892 294.416 108.969 294.449 109.035 294.515C109.123 294.581 109.167 294.669 109.167 294.779V294.812C109.079 294.988 108.892 295.208 108.606 295.472C108.32 295.736 107.99 295.967 107.616 296.165C107.242 296.363 106.879 296.462 106.527 296.462C105.977 296.462 105.515 296.319 105.141 296.033C104.789 295.747 104.536 295.461 104.382 295.175C104.228 294.889 104.129 294.746 104.085 294.746C103.975 294.746 103.777 294.889 103.491 295.175ZM99.8282 293.129C99.8282 293.701 100.004 294.152 100.356 294.482C100.708 294.79 101.137 294.944 101.643 294.944C102.149 294.944 102.633 294.746 103.095 294.35C103.557 293.954 103.799 293.415 103.821 292.733L103.887 291.116V290.951C103.887 290.599 103.788 290.423 103.59 290.423C103.458 290.423 103.304 290.456 103.128 290.522C100.928 291.27 99.8282 292.139 99.8282 293.129ZM113.405 295.934L110.666 296.099C110.226 296.099 110.006 295.989 110.006 295.769C110.006 295.571 110.259 295.384 110.765 295.208C111.711 294.922 112.184 294.438 112.184 293.756V284.45C111.832 284.45 111.513 284.45 111.227 284.45C110.963 284.428 110.71 284.406 110.468 284.384C110.402 284.362 110.303 284.285 110.171 284.153C110.061 284.021 110.006 283.911 110.006 283.823C110.006 283.757 110.083 283.68 110.237 283.592C110.413 283.548 110.655 283.46 110.963 283.328C111.293 283.174 111.7 282.976 112.184 282.734C112.184 280.93 112.415 279.346 112.877 277.982C113.361 276.618 113.988 275.573 114.758 274.847C116.254 273.417 117.816 272.702 119.444 272.702C121.864 272.702 123.074 273.362 123.074 274.682C123.074 275.034 122.964 275.342 122.744 275.606C122.524 275.87 122.293 276.002 122.051 276.002C121.809 276.002 121.567 275.903 121.325 275.705C121.083 275.507 120.852 275.276 120.632 275.012C120.412 274.77 120.071 274.55 119.609 274.352C119.147 274.154 118.63 274.055 118.058 274.055C116.98 274.055 116.122 274.572 115.484 275.606C114.868 276.618 114.56 278.191 114.56 280.325V282.074C114.56 282.558 114.835 282.8 115.385 282.8H119.279C119.367 282.8 119.411 282.921 119.411 283.163C119.411 283.427 119.367 283.702 119.279 283.988C119.191 284.252 119.092 284.384 118.982 284.384H115.88C115.33 284.384 114.978 284.428 114.824 284.516C114.648 284.626 114.56 284.769 114.56 284.945V293.756C114.582 294.438 115.055 294.922 115.979 295.208C116.485 295.384 116.738 295.571 116.738 295.769C116.738 295.989 116.518 296.099 116.078 296.099L113.405 295.934ZM123.46 295.934L120.721 296.099C120.281 296.099 120.061 295.989 120.061 295.769C120.061 295.571 120.314 295.384 120.82 295.208C121.766 294.922 122.239 294.438 122.239 293.756V284.45C121.887 284.45 121.568 284.45 121.282 284.45C121.018 284.428 120.765 284.406 120.523 284.384C120.457 284.362 120.358 284.285 120.226 284.153C120.116 284.021 120.061 283.911 120.061 283.823C120.061 283.757 120.138 283.68 120.292 283.592C120.468 283.548 120.71 283.46 121.018 283.328C121.348 283.174 121.755 282.976 122.239 282.734C122.239 280.93 122.47 279.346 122.932 277.982C123.416 276.618 124.043 275.573 124.813 274.847C126.309 273.417 127.871 272.702 129.499 272.702C131.919 272.702 133.129 273.362 133.129 274.682C133.129 275.034 133.019 275.342 132.799 275.606C132.579 275.87 132.348 276.002 132.106 276.002C131.864 276.002 131.622 275.903 131.38 275.705C131.138 275.507 130.907 275.276 130.687 275.012C130.467 274.77 130.126 274.55 129.664 274.352C129.202 274.154 128.685 274.055 128.113 274.055C127.035 274.055 126.177 274.572 125.539 275.606C124.923 276.618 124.615 278.191 124.615 280.325V282.074C124.615 282.558 124.89 282.8 125.44 282.8H129.334C129.422 282.8 129.466 282.921 129.466 283.163C129.466 283.427 129.422 283.702 129.334 283.988C129.246 284.252 129.147 284.384 129.037 284.384H125.935C125.385 284.384 125.033 284.428 124.879 284.516C124.703 284.626 124.615 284.769 124.615 284.945V293.756C124.637 294.438 125.11 294.922 126.034 295.208C126.54 295.384 126.793 295.571 126.793 295.769C126.793 295.989 126.573 296.099 126.133 296.099L123.46 295.934Z" fill="white"/>
</svg>
