<svg width="213" height="245" viewBox="0 0 213 245" fill="none" xmlns="http://www.w3.org/2000/svg">
<path d="M64.8906 244.189L60.9306 244.387C60.2926 244.387 59.9736 244.244 59.9736 243.958C59.9736 243.672 60.3366 243.419 61.0626 243.199C62.3826 242.803 63.3286 241.956 63.9006 240.658C65.9906 235.84 68.0476 230.67 70.0716 225.148C70.3576 224.444 70.5006 223.938 70.5006 223.63C70.5006 223.366 70.5116 223.234 70.5336 223.234C71.3036 222.97 71.7656 222.75 71.9196 222.574C71.9856 222.486 72.0406 222.42 72.0846 222.376C72.1286 222.31 72.1616 222.255 72.1836 222.211C72.2936 222.013 72.3706 221.914 72.4146 221.914C72.5246 221.914 72.6346 222.068 72.7446 222.376C73.5586 224.928 74.4496 227.678 75.4176 230.626C76.4076 233.552 77.4746 236.676 78.6186 239.998C79.0366 241.208 79.4986 242.033 80.0046 242.473C80.5326 242.891 81.1706 243.166 81.9186 243.298C82.6666 243.43 83.0406 243.683 83.0406 244.057C83.0406 244.277 82.7216 244.387 82.0836 244.387L77.4966 244.189L74.0316 244.222C73.3936 244.222 73.0746 244.09 73.0746 243.826C73.0746 243.496 73.4376 243.287 74.1636 243.199C75.5056 242.979 76.1766 242.484 76.1766 241.714C76.1766 241.098 75.7586 239.371 74.9226 236.533C74.8566 236.291 74.5596 236.17 74.0316 236.17H67.7286C67.4866 236.17 67.2996 236.368 67.1676 236.764C66.2876 239.272 65.8476 240.79 65.8476 241.318C65.8476 241.802 66.0236 242.209 66.3756 242.539C66.7496 242.847 67.2556 243.089 67.8936 243.265C68.5316 243.441 68.8506 243.65 68.8506 243.892C68.8506 244.134 68.5316 244.255 67.8936 244.255L64.8906 244.189ZM67.9926 234.52C67.9926 234.674 68.2236 234.751 68.6856 234.751H73.8006C74.1086 234.751 74.2626 234.696 74.2626 234.586L74.1966 234.256L71.5896 226.369C71.4576 225.973 71.3696 225.775 71.3256 225.775C71.2596 225.775 71.1606 225.962 71.0286 226.336L68.0586 234.256L67.9926 234.52ZM86.5581 244.156L83.8851 244.321C83.4451 244.321 83.2251 244.211 83.2251 243.991C83.2251 243.793 83.5331 243.595 84.1491 243.397C84.7871 243.199 85.1501 242.99 85.2381 242.77C85.3481 242.55 85.4031 242.352 85.4031 242.176V225.544C85.4031 224.158 84.8971 223.355 83.8851 223.135C83.7091 223.091 83.6211 222.948 83.6211 222.706C83.6211 222.464 83.6981 222.332 83.8521 222.31C84.4241 222.178 85.7001 221.738 87.6801 220.99H87.7131L87.7461 220.957C87.8781 220.957 87.9441 221.034 87.9441 221.188L87.8781 221.782C87.8341 222.2 87.7901 222.739 87.7461 223.399C87.7241 224.037 87.7131 224.796 87.7131 225.676V242.176C87.7131 242.616 87.8451 242.902 88.1091 243.034C88.3951 243.166 88.7691 243.309 89.2311 243.463C89.6711 243.639 89.8911 243.815 89.8911 243.991C89.8911 244.211 89.6711 244.321 89.2311 244.321L86.5581 244.156ZM102.174 241.879C102.086 242.253 101.811 242.66 101.349 243.1C100.887 243.54 100.282 243.914 99.5341 244.222C98.7861 244.53 97.9281 244.684 96.9601 244.684C95.9921 244.684 95.0901 244.387 94.2541 243.793C93.4401 243.177 92.7801 242.341 92.2741 241.285C91.7901 240.229 91.5481 239.03 91.5481 237.688C91.5481 236.346 91.8341 235.136 92.4061 234.058C93.0001 232.98 93.7921 232.133 94.7821 231.517C95.7721 230.879 96.8831 230.56 98.1151 230.56C99.4351 230.56 100.469 230.835 101.217 231.385C101.987 231.935 102.372 232.683 102.372 233.629C102.372 234.575 102.13 235.169 101.646 235.411C101.184 235.631 100.579 235.741 99.8311 235.741H94.4191C94.1111 235.741 93.8911 235.818 93.7591 235.972C93.6491 236.104 93.5941 236.434 93.5941 236.962C93.5941 237.974 93.8141 238.92 94.2541 239.8C94.6941 240.68 95.2771 241.384 96.0031 241.912C96.7511 242.44 97.5871 242.704 98.5111 242.704C99.8531 242.704 100.909 242.22 101.679 241.252C101.833 241.098 101.954 241.021 102.042 241.021C102.196 241.021 102.273 241.131 102.273 241.351C102.273 241.505 102.24 241.681 102.174 241.879ZM94.2211 234.223C94.2211 234.553 94.4301 234.718 94.8481 234.718H97.5541C98.0601 234.718 98.5111 234.707 98.9071 234.685C99.3251 234.641 99.6771 234.597 99.9631 234.553C100.183 234.531 100.293 234.212 100.293 233.596C100.293 233.002 100.018 232.518 99.4681 232.144C98.9181 231.77 98.2581 231.583 97.4881 231.583C96.9601 231.583 96.4431 231.737 95.9371 232.045C95.4531 232.331 95.0461 232.683 94.7161 233.101C94.3861 233.497 94.2211 233.871 94.2211 234.223ZM107.642 244.156L104.969 244.321C104.529 244.321 104.309 244.211 104.309 243.991C104.309 243.793 104.507 243.628 104.903 243.496C105.299 243.364 105.563 243.276 105.695 243.232C105.827 243.166 105.97 243.045 106.124 242.869C106.256 242.693 106.322 242.462 106.322 242.176V235.081C106.322 233.695 105.871 232.903 104.969 232.705C104.793 232.661 104.705 232.518 104.705 232.276C104.705 232.034 104.782 231.902 104.936 231.88C105.75 231.726 106.366 231.506 106.784 231.22C107.158 230.978 107.466 230.78 107.708 230.626C107.972 230.472 108.159 230.351 108.269 230.263C108.511 230.131 108.632 230.054 108.632 230.032H108.731C108.797 230.032 108.841 230.109 108.863 230.263C108.863 230.549 108.863 230.835 108.863 231.121C108.863 231.407 108.852 231.693 108.83 231.979C108.808 232.529 108.808 232.804 108.83 232.804C108.83 232.804 108.885 232.749 108.995 232.639C109.303 232.243 109.501 232.023 109.589 231.979C110.623 231.033 111.635 230.56 112.625 230.56C113.087 230.56 113.461 230.659 113.747 230.857C114.055 231.055 114.209 231.319 114.209 231.649C114.209 231.979 114.066 232.342 113.78 232.738C113.516 233.134 113.263 233.332 113.021 233.332C112.779 233.332 112.427 233.233 111.965 233.035C111.503 232.837 111.162 232.738 110.942 232.738C110.304 232.738 109.754 232.947 109.292 233.365C108.852 233.783 108.632 234.498 108.632 235.51V242.011C108.654 242.583 109.248 243.056 110.414 243.43C110.92 243.606 111.173 243.793 111.173 243.991C111.173 244.211 110.953 244.321 110.513 244.321L107.642 244.156ZM123.944 243.331C123.592 243.661 123.097 243.969 122.459 244.255C121.843 244.541 121.227 244.684 120.611 244.684C119.533 244.684 118.686 244.365 118.07 243.727C117.476 243.067 117.179 242.077 117.179 240.757V233.101C117.179 232.903 117.102 232.771 116.948 232.705C116.794 232.639 116.453 232.606 115.925 232.606C115.859 232.606 115.771 232.518 115.661 232.342C115.573 232.166 115.529 232.034 115.529 231.946C115.529 231.858 115.584 231.781 115.694 231.715C116.2 231.561 116.717 231.242 117.245 230.758C117.773 230.274 118.202 229.823 118.532 229.405C118.862 228.987 119.06 228.778 119.126 228.778C119.434 228.778 119.588 228.888 119.588 229.108L119.522 230.56C119.522 230.868 119.786 231.022 120.314 231.022H124.076C124.296 231.022 124.406 231.286 124.406 231.814C124.406 232.342 124.296 232.606 124.076 232.606H120.809C120.215 232.606 119.841 232.65 119.687 232.738C119.555 232.826 119.489 233.09 119.489 233.53V239.767C119.489 240.889 119.698 241.692 120.116 242.176C120.534 242.638 121.051 242.869 121.667 242.869C122.767 242.869 123.592 242.66 124.142 242.242C124.164 242.22 124.197 242.209 124.241 242.209C124.395 242.209 124.472 242.352 124.472 242.638C124.472 242.814 124.296 243.045 123.944 243.331ZM134.419 240.724C134.419 243.364 132.835 244.684 129.667 244.684C128.853 244.684 128.094 244.541 127.39 244.255C126.686 243.991 126.279 243.738 126.169 243.496C125.905 242.946 125.762 242.275 125.74 241.483C125.74 241.285 125.916 241.186 126.268 241.186C126.598 241.186 126.774 241.263 126.796 241.417C126.884 241.791 127.082 242.165 127.39 242.539C127.72 242.913 128.105 243.221 128.545 243.463C129.007 243.683 129.48 243.793 129.964 243.793C130.668 243.793 131.207 243.584 131.581 243.166C131.977 242.748 132.175 242.231 132.175 241.615C132.175 240.999 131.977 240.482 131.581 240.064C131.185 239.624 130.525 239.074 129.601 238.414C128.655 237.754 127.896 237.116 127.324 236.5C126.774 235.862 126.499 235.092 126.499 234.19C126.499 233.574 126.664 232.991 126.994 232.441C127.324 231.891 127.797 231.44 128.413 231.088C129.029 230.736 129.777 230.56 130.657 230.56C131.977 230.56 132.89 230.813 133.396 231.319C133.77 231.803 133.957 232.661 133.957 233.893C133.957 233.981 133.88 234.025 133.726 234.025C133.572 234.025 133.352 233.948 133.066 233.794C132.78 233.618 132.637 233.464 132.637 233.332C132.615 232.848 132.395 232.408 131.977 232.012C131.559 231.616 131.064 231.418 130.492 231.418C129.898 231.418 129.414 231.616 129.04 232.012C128.666 232.408 128.479 232.87 128.479 233.398C128.479 233.926 128.666 234.41 129.04 234.85C129.414 235.29 129.744 235.598 130.03 235.774C130.162 235.862 130.327 235.983 130.525 236.137C130.745 236.269 130.998 236.423 131.284 236.599C131.658 236.819 131.966 237.017 132.208 237.193C132.472 237.369 132.725 237.578 132.967 237.82C133.209 238.04 133.473 238.359 133.759 238.777C134.199 239.415 134.419 240.064 134.419 240.724Z" fill="white"/>
<rect x="1.25488" y="1.16479" width="210.67" height="198.051" rx="20" fill="#2ECC71" stroke="#0D1B2A" stroke-width="2"/>
<path d="M169.758 138.625C173.934 146.438 168.692 156.205 160.352 156.205H51.784C43.4275 156.205 38.21 146.423 42.3778 138.625L96.6624 37.0301C100.84 29.2134 111.304 29.2275 115.475 37.0301L169.758 138.625ZM106.069 117.621C100.321 117.621 95.6618 122.65 95.6618 128.854C95.6618 135.058 100.321 140.087 106.069 140.087C111.816 140.087 116.476 135.058 116.476 128.854C116.476 122.65 111.816 117.621 106.069 117.621ZM96.1882 77.2427L97.8664 110.454C97.9449 112.008 99.1354 113.225 100.577 113.225H111.56C113.002 113.225 114.192 112.008 114.271 110.454L115.949 77.2427C116.034 75.5641 114.796 74.1526 113.238 74.1526H98.8987C97.3413 74.1526 96.1034 75.5641 96.1882 77.2427Z" fill="#0D1B2A"/>
</svg>
