<svg width="214" height="285" viewBox="0 0 214 285" fill="none" xmlns="http://www.w3.org/2000/svg">
<path d="M98.2561 230.888C98.2561 232.45 97.9591 233.924 97.3651 235.31C96.7711 236.696 95.9461 237.917 94.8901 238.973C93.8341 240.029 92.6131 240.865 91.2271 241.481C89.8411 242.075 88.3561 242.372 86.7721 242.372C86.7501 242.372 86.5081 242.361 86.0461 242.339C85.6061 242.317 84.9461 242.284 84.0661 242.24C82.3281 242.174 80.9421 242.141 79.9081 242.141L76.4431 242.306C75.8051 242.306 75.4861 242.174 75.4861 241.91C75.4861 241.668 75.8821 241.47 76.6741 241.316C77.4441 241.184 77.9831 240.942 78.2911 240.59C78.6211 240.238 78.7861 239.666 78.7861 238.874V224.024C78.7861 223.254 78.6211 222.704 78.2911 222.374C77.9831 222.022 77.4441 221.769 76.6741 221.615C75.8821 221.483 75.4861 221.263 75.4861 220.955C75.4861 220.713 75.8051 220.592 76.4431 220.592L79.8751 220.658H80.1061L85.7491 220.394C88.5871 220.394 90.9301 220.834 92.7781 221.714C94.6261 222.594 96.0011 223.826 96.9031 225.41C97.8051 226.972 98.2561 228.798 98.2561 230.888ZM81.4261 238.148C81.4261 239.006 81.6461 239.655 82.0861 240.095C82.5481 240.535 83.1531 240.832 83.9011 240.986C84.6711 241.14 85.4961 241.217 86.3761 241.217C88.0921 241.217 89.6101 240.81 90.9301 239.996C92.2501 239.16 93.2731 238.005 93.9991 236.531C94.7471 235.035 95.1211 233.297 95.1211 231.317C95.1211 229.843 94.8681 228.501 94.3621 227.291C93.8781 226.081 93.1961 225.036 92.3161 224.156C91.4581 223.276 90.4791 222.605 89.3791 222.143C88.2791 221.659 87.1241 221.417 85.9141 221.417C83.8461 221.417 82.5921 221.571 82.1521 221.879C81.6681 222.209 81.4261 222.726 81.4261 223.43V238.148ZM111.024 239.798C110.936 240.172 110.661 240.579 110.199 241.019C109.737 241.459 109.132 241.833 108.384 242.141C107.636 242.449 106.778 242.603 105.81 242.603C104.842 242.603 103.94 242.306 103.104 241.712C102.29 241.096 101.63 240.26 101.124 239.204C100.64 238.148 100.398 236.949 100.398 235.607C100.398 234.265 100.684 233.055 101.256 231.977C101.85 230.899 102.642 230.052 103.632 229.436C104.622 228.798 105.733 228.479 106.965 228.479C108.285 228.479 109.319 228.754 110.067 229.304C110.837 229.854 111.222 230.602 111.222 231.548C111.222 232.494 110.98 233.088 110.496 233.33C110.034 233.55 109.429 233.66 108.681 233.66H103.269C102.961 233.66 102.741 233.737 102.609 233.891C102.499 234.023 102.444 234.353 102.444 234.881C102.444 235.893 102.664 236.839 103.104 237.719C103.544 238.599 104.127 239.303 104.853 239.831C105.601 240.359 106.437 240.623 107.361 240.623C108.703 240.623 109.759 240.139 110.529 239.171C110.683 239.017 110.804 238.94 110.892 238.94C111.046 238.94 111.123 239.05 111.123 239.27C111.123 239.424 111.09 239.6 111.024 239.798ZM103.071 232.142C103.071 232.472 103.28 232.637 103.698 232.637H106.404C106.91 232.637 107.361 232.626 107.757 232.604C108.175 232.56 108.527 232.516 108.813 232.472C109.033 232.45 109.143 232.131 109.143 231.515C109.143 230.921 108.868 230.437 108.318 230.063C107.768 229.689 107.108 229.502 106.338 229.502C105.81 229.502 105.293 229.656 104.787 229.964C104.303 230.25 103.896 230.602 103.566 231.02C103.236 231.416 103.071 231.79 103.071 232.142ZM123.818 239.798C123.73 240.172 123.455 240.579 122.993 241.019C122.531 241.459 121.926 241.833 121.178 242.141C120.43 242.449 119.572 242.603 118.604 242.603C117.636 242.603 116.734 242.306 115.898 241.712C115.084 241.096 114.424 240.26 113.918 239.204C113.434 238.148 113.192 236.949 113.192 235.607C113.192 234.265 113.478 233.055 114.05 231.977C114.644 230.899 115.436 230.052 116.426 229.436C117.416 228.798 118.527 228.479 119.759 228.479C121.079 228.479 122.113 228.754 122.861 229.304C123.631 229.854 124.016 230.602 124.016 231.548C124.016 232.494 123.774 233.088 123.29 233.33C122.828 233.55 122.223 233.66 121.475 233.66H116.063C115.755 233.66 115.535 233.737 115.403 233.891C115.293 234.023 115.238 234.353 115.238 234.881C115.238 235.893 115.458 236.839 115.898 237.719C116.338 238.599 116.921 239.303 117.647 239.831C118.395 240.359 119.231 240.623 120.155 240.623C121.497 240.623 122.553 240.139 123.323 239.171C123.477 239.017 123.598 238.94 123.686 238.94C123.84 238.94 123.917 239.05 123.917 239.27C123.917 239.424 123.884 239.6 123.818 239.798ZM115.865 232.142C115.865 232.472 116.074 232.637 116.492 232.637H119.198C119.704 232.637 120.155 232.626 120.551 232.604C120.969 232.56 121.321 232.516 121.607 232.472C121.827 232.45 121.937 232.131 121.937 231.515C121.937 230.921 121.662 230.437 121.112 230.063C120.562 229.689 119.902 229.502 119.132 229.502C118.604 229.502 118.087 229.656 117.581 229.964C117.097 230.25 116.69 230.602 116.36 231.02C116.03 231.416 115.865 231.79 115.865 232.142ZM128.956 251.381L126.316 251.546C125.854 251.546 125.623 251.436 125.623 251.216C125.623 251.018 125.931 250.82 126.547 250.622C127.185 250.424 127.548 250.215 127.636 249.995C127.746 249.775 127.801 249.577 127.801 249.401V232.67C127.801 232.406 127.735 232.109 127.603 231.779C127.493 231.427 127.328 231.108 127.108 230.822C126.888 230.514 126.613 230.327 126.283 230.261C126.107 230.217 126.019 230.074 126.019 229.832C126.019 229.59 126.096 229.458 126.25 229.436C126.712 229.326 127.262 229.161 127.9 228.941C128.538 228.721 129.264 228.446 130.078 228.116L130.111 228.083H130.144C130.276 228.083 130.342 228.182 130.342 228.38L130.177 230.36C130.177 230.536 130.188 230.635 130.21 230.657C130.496 230.371 130.936 230.063 131.53 229.733C132.146 229.403 132.817 229.117 133.543 228.875C134.269 228.611 134.94 228.479 135.556 228.479C136.656 228.479 137.602 228.776 138.394 229.37C139.208 229.942 139.835 230.701 140.275 231.647C140.737 232.593 140.968 233.616 140.968 234.716C140.968 235.728 140.77 236.707 140.374 237.653C140 238.599 139.472 239.446 138.79 240.194C138.108 240.92 137.316 241.503 136.414 241.943C135.512 242.383 134.555 242.603 133.543 242.603C133.235 242.603 132.861 242.548 132.421 242.438C131.981 242.35 131.563 242.229 131.167 242.075C130.771 241.899 130.463 241.723 130.243 241.547C130.155 241.547 130.111 242.108 130.111 243.23V249.401C130.111 249.731 130.232 249.962 130.474 250.094C130.738 250.248 130.936 250.347 131.068 250.391C131.112 250.413 131.178 250.435 131.266 250.457C131.376 250.479 131.486 250.501 131.596 250.523C132.388 250.721 132.784 250.963 132.784 251.249C132.784 251.447 132.542 251.546 132.058 251.546L128.956 251.381ZM131.068 240.821C131.618 241.327 132.608 241.58 134.038 241.58C134.874 241.58 135.633 241.272 136.315 240.656C137.019 240.04 137.536 239.325 137.866 238.511C138.174 237.697 138.328 236.74 138.328 235.64C138.328 234.54 138.163 233.572 137.833 232.736C137.525 231.9 137.118 231.295 136.612 230.921C135.644 230.283 134.687 229.964 133.741 229.964C132.751 229.964 131.915 230.217 131.233 230.723C130.573 231.229 130.21 232.076 130.144 233.264L130.111 235.376V236.399C130.111 237.279 130.155 238.137 130.243 238.973C130.353 239.787 130.628 240.403 131.068 240.821ZM60.6726 275.108L56.7126 275.306C56.0746 275.306 55.7556 275.163 55.7556 274.877C55.7556 274.591 56.1186 274.338 56.8446 274.118C58.1646 273.722 59.1106 272.875 59.6826 271.577C61.7726 266.759 63.8296 261.589 65.8536 256.067C66.1396 255.363 66.2826 254.857 66.2826 254.549C66.2826 254.285 66.2936 254.153 66.3156 254.153C67.0856 253.889 67.5476 253.669 67.7016 253.493C67.7676 253.405 67.8226 253.339 67.8666 253.295C67.9106 253.229 67.9436 253.174 67.9656 253.13C68.0756 252.932 68.1526 252.833 68.1966 252.833C68.3066 252.833 68.4166 252.987 68.5266 253.295C69.3406 255.847 70.2316 258.597 71.1996 261.545C72.1896 264.471 73.2566 267.595 74.4006 270.917C74.8186 272.127 75.2806 272.952 75.7866 273.392C76.3146 273.81 76.9526 274.085 77.7006 274.217C78.4486 274.349 78.8226 274.602 78.8226 274.976C78.8226 275.196 78.5036 275.306 77.8656 275.306L73.2786 275.108L69.8136 275.141C69.1756 275.141 68.8566 275.009 68.8566 274.745C68.8566 274.415 69.2196 274.206 69.9456 274.118C71.2876 273.898 71.9586 273.403 71.9586 272.633C71.9586 272.017 71.5406 270.29 70.7046 267.452C70.6386 267.21 70.3416 267.089 69.8136 267.089H63.5106C63.2686 267.089 63.0816 267.287 62.9496 267.683C62.0696 270.191 61.6296 271.709 61.6296 272.237C61.6296 272.721 61.8056 273.128 62.1576 273.458C62.5316 273.766 63.0376 274.008 63.6756 274.184C64.3136 274.36 64.6326 274.569 64.6326 274.811C64.6326 275.053 64.3136 275.174 63.6756 275.174L60.6726 275.108ZM63.7746 265.439C63.7746 265.593 64.0056 265.67 64.4676 265.67H69.5826C69.8906 265.67 70.0446 265.615 70.0446 265.505L69.9786 265.175L67.3716 257.288C67.2396 256.892 67.1516 256.694 67.1076 256.694C67.0416 256.694 66.9426 256.881 66.8106 257.255L63.8406 265.175L63.7746 265.439ZM82.5052 275.075L79.8322 275.24C79.3922 275.24 79.1722 275.13 79.1722 274.91C79.1722 274.778 79.2602 274.668 79.4362 274.58C79.6122 274.47 79.7992 274.382 79.9972 274.316C80.1952 274.25 80.3162 274.217 80.3602 274.217C80.4042 274.217 80.5142 274.173 80.6902 274.085C80.8662 273.997 80.9762 273.92 81.0202 273.854C81.2402 273.634 81.3502 273.381 81.3502 273.095V266C81.3502 264.592 80.8992 263.8 79.9972 263.624C79.8212 263.58 79.7332 263.437 79.7332 263.195C79.7332 262.953 79.8102 262.821 79.9642 262.799C81.1082 262.535 82.3182 261.93 83.5942 260.984C83.6162 260.962 83.6602 260.951 83.7262 260.951C83.7702 260.951 83.8252 261.05 83.8912 261.248L83.6602 263.393C83.6602 263.547 83.6712 263.635 83.6932 263.657C84.1112 263.305 84.6172 262.964 85.2112 262.634C85.8272 262.304 86.4872 262.029 87.1912 261.809C87.8952 261.589 88.5772 261.479 89.2372 261.479C89.8972 261.479 90.5022 261.688 91.0522 262.106C91.6022 262.502 92.0422 263.041 92.3722 263.723C92.7022 264.405 92.8672 265.186 92.8672 266.066V273.095C92.8672 273.535 92.9992 273.821 93.2632 273.953C93.5492 274.085 93.9232 274.228 94.3852 274.382C94.8252 274.558 95.0452 274.734 95.0452 274.91C95.0452 275.13 94.8252 275.24 94.3852 275.24L91.7452 275.075L89.0392 275.24C88.5992 275.24 88.3792 275.13 88.3792 274.91C88.3792 274.712 88.6322 274.525 89.1382 274.349C89.1822 274.349 89.2262 274.338 89.2702 274.316C90.0182 274.074 90.4362 273.777 90.5242 273.425C90.5462 273.381 90.5572 273.326 90.5572 273.26C90.5572 273.194 90.5572 273.139 90.5572 273.095V266.165C90.5572 265.219 90.2822 264.471 89.7322 263.921C89.1822 263.371 88.3792 263.096 87.3232 263.096C86.2452 263.096 85.3652 263.327 84.6832 263.789C84.0012 264.251 83.6602 265.087 83.6602 266.297V273.095C83.6602 273.535 83.7922 273.821 84.0562 273.953C84.3422 274.085 84.7162 274.228 85.1782 274.382C85.6182 274.558 85.8382 274.734 85.8382 274.91C85.8382 275.13 85.6182 275.24 85.1782 275.24L82.5052 275.075ZM103.241 274.316C102.933 274.602 102.471 274.888 101.855 275.174C101.261 275.46 100.601 275.603 99.8745 275.603C99.3905 275.603 98.9175 275.471 98.4555 275.207C98.0155 274.965 97.6525 274.646 97.3665 274.25C97.0805 273.832 96.9375 273.414 96.9375 272.996C96.9375 271.676 97.7405 270.686 99.3465 270.026L102.713 268.64C103.131 268.464 103.384 268.31 103.472 268.178C103.56 268.046 103.615 267.76 103.637 267.32L103.703 265.274V265.208C103.703 264.636 103.516 264.141 103.142 263.723C102.79 263.305 102.383 263.096 101.921 263.096C101.437 263.096 100.986 263.217 100.568 263.459C100.15 263.679 99.8855 263.888 99.7755 264.086C99.6655 264.306 99.6105 264.537 99.6105 264.779L99.6435 265.241C99.6435 265.373 99.4895 265.527 99.1815 265.703C98.8735 265.879 98.5435 266.044 98.1915 266.198C97.8395 266.33 97.5865 266.396 97.4325 266.396C97.2125 266.396 97.1025 266.297 97.1025 266.099C97.1025 265.593 97.2785 265.109 97.6305 264.647C97.9825 264.185 98.4335 263.745 98.9835 263.327C99.5555 262.909 100.15 262.535 100.766 262.205C101.668 261.721 102.526 261.479 103.34 261.479C104.11 261.479 104.759 261.765 105.287 262.337C105.815 262.909 106.068 263.602 106.046 264.416L105.881 271.544V271.742C105.881 273.304 106.277 274.085 107.069 274.085C107.597 274.085 108.037 273.931 108.389 273.623C108.433 273.579 108.488 273.557 108.554 273.557C108.642 273.557 108.719 273.59 108.785 273.656C108.873 273.722 108.917 273.81 108.917 273.92V273.953C108.829 274.129 108.642 274.349 108.356 274.613C108.07 274.877 107.74 275.108 107.366 275.306C106.992 275.504 106.629 275.603 106.277 275.603C105.727 275.603 105.265 275.46 104.891 275.174C104.539 274.888 104.286 274.602 104.132 274.316C103.978 274.03 103.879 273.887 103.835 273.887C103.725 273.887 103.527 274.03 103.241 274.316ZM99.5775 272.27C99.5775 272.842 99.7535 273.293 100.106 273.623C100.458 273.931 100.887 274.085 101.393 274.085C101.899 274.085 102.383 273.887 102.845 273.491C103.307 273.095 103.549 272.556 103.571 271.874L103.637 270.257V270.092C103.637 269.74 103.538 269.564 103.34 269.564C103.208 269.564 103.054 269.597 102.878 269.663C100.678 270.411 99.5775 271.28 99.5775 272.27ZM112.923 275.075L110.25 275.24C109.81 275.24 109.59 275.13 109.59 274.91C109.59 274.712 109.898 274.514 110.514 274.316C111.152 274.118 111.515 273.909 111.603 273.689C111.713 273.469 111.768 273.271 111.768 273.095V256.463C111.768 255.077 111.262 254.274 110.25 254.054C110.074 254.01 109.986 253.867 109.986 253.625C109.986 253.383 110.063 253.251 110.217 253.229C110.789 253.097 112.065 252.657 114.045 251.909H114.078L114.111 251.876C114.243 251.876 114.309 251.953 114.309 252.107L114.243 252.701C114.199 253.119 114.155 253.658 114.111 254.318C114.089 254.956 114.078 255.715 114.078 256.595V273.095C114.078 273.535 114.21 273.821 114.474 273.953C114.76 274.085 115.134 274.228 115.596 274.382C116.036 274.558 116.256 274.734 116.256 274.91C116.256 275.13 116.036 275.24 115.596 275.24L112.923 275.075ZM122.533 279.959C122.203 280.773 121.895 281.532 121.609 282.236C121.345 282.94 121.026 283.501 120.652 283.919C120.278 284.337 119.739 284.546 119.035 284.546C118.617 284.546 118.232 284.436 117.88 284.216C117.528 283.996 117.352 283.71 117.352 283.358C117.352 282.698 117.649 282.368 118.243 282.368L119.563 282.566C119.805 282.566 120.014 282.445 120.19 282.203C120.696 281.323 121.202 280.333 121.708 279.233C122.214 278.155 122.709 276.967 123.193 275.669C123.259 275.471 123.292 275.196 123.292 274.844C123.292 274.448 123.248 274.151 123.16 273.953L119.332 264.284C118.958 263.36 118.463 262.821 117.847 262.667C117.341 262.491 117.088 262.293 117.088 262.073C117.088 261.875 117.308 261.776 117.748 261.776L120.157 261.941L122.665 261.776C123.105 261.776 123.325 261.897 123.325 262.139C123.325 262.447 123.006 262.689 122.368 262.865C121.928 262.997 121.708 263.349 121.708 263.921C121.708 264.075 121.796 264.383 121.972 264.845L124.579 271.313C124.645 271.511 124.722 271.61 124.81 271.61C124.898 271.61 124.986 271.5 125.074 271.28L127.285 265.406C127.461 264.988 127.549 264.515 127.549 263.987C127.549 263.437 127.285 263.052 126.757 262.832C126.207 262.612 125.932 262.381 125.932 262.139C125.932 261.897 126.152 261.776 126.592 261.776L128.935 261.941L130.882 261.776C131.322 261.776 131.542 261.875 131.542 262.073C131.542 262.293 131.333 262.469 130.915 262.601C130.497 262.755 130.101 263.041 129.727 263.459C129.353 263.877 129.056 264.35 128.836 264.878L124.348 275.57L123.82 276.89C123.468 277.704 123.039 278.727 122.533 279.959ZM141.062 271.643C141.062 274.283 139.478 275.603 136.31 275.603C135.496 275.603 134.737 275.46 134.033 275.174C133.329 274.91 132.922 274.657 132.812 274.415C132.548 273.865 132.405 273.194 132.383 272.402C132.383 272.204 132.559 272.105 132.911 272.105C133.241 272.105 133.417 272.182 133.439 272.336C133.527 272.71 133.725 273.084 134.033 273.458C134.363 273.832 134.748 274.14 135.188 274.382C135.65 274.602 136.123 274.712 136.607 274.712C137.311 274.712 137.85 274.503 138.224 274.085C138.62 273.667 138.818 273.15 138.818 272.534C138.818 271.918 138.62 271.401 138.224 270.983C137.828 270.543 137.168 269.993 136.244 269.333C135.298 268.673 134.539 268.035 133.967 267.419C133.417 266.781 133.142 266.011 133.142 265.109C133.142 264.493 133.307 263.91 133.637 263.36C133.967 262.81 134.44 262.359 135.056 262.007C135.672 261.655 136.42 261.479 137.3 261.479C138.62 261.479 139.533 261.732 140.039 262.238C140.413 262.722 140.6 263.58 140.6 264.812C140.6 264.9 140.523 264.944 140.369 264.944C140.215 264.944 139.995 264.867 139.709 264.713C139.423 264.537 139.28 264.383 139.28 264.251C139.258 263.767 139.038 263.327 138.62 262.931C138.202 262.535 137.707 262.337 137.135 262.337C136.541 262.337 136.057 262.535 135.683 262.931C135.309 263.327 135.122 263.789 135.122 264.317C135.122 264.845 135.309 265.329 135.683 265.769C136.057 266.209 136.387 266.517 136.673 266.693C136.805 266.781 136.97 266.902 137.168 267.056C137.388 267.188 137.641 267.342 137.927 267.518C138.301 267.738 138.609 267.936 138.851 268.112C139.115 268.288 139.368 268.497 139.61 268.739C139.852 268.959 140.116 269.278 140.402 269.696C140.842 270.334 141.062 270.983 141.062 271.643ZM147.637 256.562C147.615 257.024 147.45 257.409 147.142 257.717C146.834 258.025 146.438 258.19 145.954 258.212C145.47 258.19 145.074 258.025 144.766 257.717C144.458 257.409 144.304 257.013 144.304 256.529C144.304 256.045 144.458 255.649 144.766 255.341C145.074 255.033 145.47 254.879 145.954 254.879C146.438 254.879 146.834 255.033 147.142 255.341C147.45 255.649 147.615 256.056 147.637 256.562ZM146.185 275.075L143.512 275.24C143.072 275.24 142.852 275.13 142.852 274.91C142.852 274.712 143.16 274.514 143.776 274.316C144.414 274.118 144.777 273.909 144.865 273.689C144.975 273.469 145.03 273.271 145.03 273.095V265.934C145.03 264.57 144.513 263.767 143.479 263.525C143.303 263.481 143.215 263.338 143.215 263.096C143.215 262.854 143.292 262.722 143.446 262.7C144.502 262.436 145.624 261.919 146.812 261.149C147.164 260.929 147.362 260.819 147.406 260.819C147.56 260.819 147.637 260.874 147.637 260.984C147.439 262.986 147.34 264.471 147.34 265.439V273.095C147.34 273.535 147.472 273.821 147.736 273.953C148.022 274.085 148.396 274.228 148.858 274.382C149.298 274.558 149.518 274.734 149.518 274.91C149.518 275.13 149.298 275.24 148.858 275.24L146.185 275.075ZM159.818 271.643C159.818 274.283 158.234 275.603 155.066 275.603C154.252 275.603 153.493 275.46 152.789 275.174C152.085 274.91 151.678 274.657 151.568 274.415C151.304 273.865 151.161 273.194 151.139 272.402C151.139 272.204 151.315 272.105 151.667 272.105C151.997 272.105 152.173 272.182 152.195 272.336C152.283 272.71 152.481 273.084 152.789 273.458C153.119 273.832 153.504 274.14 153.944 274.382C154.406 274.602 154.879 274.712 155.363 274.712C156.067 274.712 156.606 274.503 156.98 274.085C157.376 273.667 157.574 273.15 157.574 272.534C157.574 271.918 157.376 271.401 156.98 270.983C156.584 270.543 155.924 269.993 155 269.333C154.054 268.673 153.295 268.035 152.723 267.419C152.173 266.781 151.898 266.011 151.898 265.109C151.898 264.493 152.063 263.91 152.393 263.36C152.723 262.81 153.196 262.359 153.812 262.007C154.428 261.655 155.176 261.479 156.056 261.479C157.376 261.479 158.289 261.732 158.795 262.238C159.169 262.722 159.356 263.58 159.356 264.812C159.356 264.9 159.279 264.944 159.125 264.944C158.971 264.944 158.751 264.867 158.465 264.713C158.179 264.537 158.036 264.383 158.036 264.251C158.014 263.767 157.794 263.327 157.376 262.931C156.958 262.535 156.463 262.337 155.891 262.337C155.297 262.337 154.813 262.535 154.439 262.931C154.065 263.327 153.878 263.789 153.878 264.317C153.878 264.845 154.065 265.329 154.439 265.769C154.813 266.209 155.143 266.517 155.429 266.693C155.561 266.781 155.726 266.902 155.924 267.056C156.144 267.188 156.397 267.342 156.683 267.518C157.057 267.738 157.365 267.936 157.607 268.112C157.871 268.288 158.124 268.497 158.366 268.739C158.608 268.959 158.872 269.278 159.158 269.696C159.598 270.334 159.818 270.983 159.818 271.643Z" fill="white"/>
<rect x="1.41992" y="1.08411" width="210.67" height="198.051" rx="20" fill="#2ECC71" stroke="#0D1B2A" stroke-width="2"/>
<path d="M75.7826 60.6157H70.4355V67.1981H75.7826V60.6157Z" fill="#0D1B2A"/>
<path d="M86.4766 60.6157H81.1296V67.1981H86.4766V60.6157Z" fill="#0D1B2A"/>
<path d="M97.1706 60.6157H91.8236V67.1981H97.1706V60.6157Z" fill="#0D1B2A"/>
<path d="M107.865 60.6157H102.518V67.1981H107.865V60.6157Z" fill="#0D1B2A"/>
<path d="M118.559 60.6157H113.212V67.1981H118.559V60.6157Z" fill="#0D1B2A"/>
<path d="M129.253 60.6157H123.906V67.1981H129.253V60.6157Z" fill="#0D1B2A"/>
<path d="M139.947 60.6157H134.6V67.1981H139.947V60.6157Z" fill="#0D1B2A"/>
<path d="M75.7826 133.021H70.4355V139.604H75.7826V133.021Z" fill="#0D1B2A"/>
<path d="M86.4766 133.021H81.1296V139.604H86.4766V133.021Z" fill="#0D1B2A"/>
<path d="M97.1706 133.021H91.8236V139.604H97.1706V133.021Z" fill="#0D1B2A"/>
<path d="M107.865 133.021H102.518V139.604H107.865V133.021Z" fill="#0D1B2A"/>
<path d="M118.559 133.021H113.212V139.604H118.559V133.021Z" fill="#0D1B2A"/>
<path d="M129.253 133.021H123.906V139.604H129.253V133.021Z" fill="#0D1B2A"/>
<path d="M139.947 133.021H134.6V139.604H139.947V133.021Z" fill="#0D1B2A"/>
<path d="M153.314 71.5862H145.294V75.9744H153.314V71.5862Z" fill="#0D1B2A"/>
<path d="M153.314 80.3627H145.294V84.7509H153.314V80.3627Z" fill="#0D1B2A"/>
<path d="M153.314 89.1392H145.294V93.5274H153.314V89.1392Z" fill="#0D1B2A"/>
<path d="M153.314 97.9155H145.294V102.304H153.314V97.9155Z" fill="#0D1B2A"/>
<path d="M153.314 106.692H145.294V111.08H153.314V106.692Z" fill="#0D1B2A"/>
<path d="M153.314 115.468H145.294V119.857H153.314V115.468Z" fill="#0D1B2A"/>
<path d="M153.314 124.245H145.294V128.633H153.314V124.245Z" fill="#0D1B2A"/>
<path d="M65.0885 71.5862H57.068V75.9744H65.0885V71.5862Z" fill="#0D1B2A"/>
<path d="M65.0885 80.3627H57.068V84.7509H65.0885V80.3627Z" fill="#0D1B2A"/>
<path d="M65.0885 89.1392H57.068V93.5274H65.0885V89.1392Z" fill="#0D1B2A"/>
<path d="M65.0885 97.9155H57.068V102.304H65.0885V97.9155Z" fill="#0D1B2A"/>
<path d="M65.0885 106.692H57.068V111.08H65.0885V106.692Z" fill="#0D1B2A"/>
<path d="M65.0885 115.468H57.068V119.857H65.0885V115.468Z" fill="#0D1B2A"/>
<path d="M65.0885 124.245H57.068V128.633H65.0885V124.245Z" fill="#0D1B2A"/>
<path d="M174.702 44.8532V68.2183L168.545 71.5863H158.661V75.9745H170.165L180.049 70.566V44.8532C183.153 43.9449 185.396 41.5313 185.396 38.6746C185.396 35.0456 181.798 32.0923 177.376 32.0923C172.954 32.0923 169.355 35.0456 169.355 38.6746C169.355 41.5313 171.596 43.9449 174.702 44.8532ZM177.376 36.4805C178.852 36.4805 180.049 37.4635 180.049 38.6746C180.049 39.8858 178.852 40.8687 177.376 40.8687C175.9 40.8687 174.702 39.8858 174.702 38.6746C174.702 37.4635 175.9 36.4805 177.376 36.4805Z" fill="#0D1B2A"/>
<path d="M188.07 80.3627H158.661V84.7509H188.07V80.3627Z" fill="#0D1B2A"/>
<path d="M188.07 89.1392H158.661V93.5274H188.07V89.1392Z" fill="#0D1B2A"/>
<path d="M176.133 97.9155H158.661V102.304H173.272L178.619 108.886H188.07V104.498H181.48L176.133 97.9155Z" fill="#0D1B2A"/>
<path d="M169.355 106.692H158.661V111.08H169.355V106.692Z" fill="#0D1B2A"/>
<path d="M188.07 115.468H158.661V119.857H188.07V115.468Z" fill="#0D1B2A"/>
<path d="M167.789 124.245H158.661V128.633H165.575L172.029 133.93V137.813C168.922 138.722 166.682 141.135 166.682 143.992C166.682 147.621 170.28 150.574 174.702 150.574C179.124 150.574 182.723 147.621 182.723 143.992C182.723 141.135 180.48 138.722 177.376 137.813V132.113L167.789 124.245ZM174.702 146.186C173.227 146.186 172.029 145.203 172.029 143.992C172.029 142.781 173.227 141.798 174.702 141.798C176.178 141.798 177.376 142.781 177.376 143.992C177.376 145.203 176.178 146.186 174.702 146.186Z" fill="#0D1B2A"/>
<path d="M139.947 149.666V143.992H134.6V151.483L144.187 159.351H188.07V154.962H146.401L139.947 149.666Z" fill="#0D1B2A"/>
<path d="M129.253 158.442V143.992H123.906V160.259L133.493 168.127H188.07V163.739H135.707L129.253 158.442Z" fill="#0D1B2A"/>
<path d="M118.559 143.992H113.212V168.127H118.559V143.992Z" fill="#0D1B2A"/>
<path d="M102.518 146.186H97.1706V143.992H91.8236V150.574H107.865V143.992H102.518V146.186Z" fill="#0D1B2A"/>
<path d="M99.8441 154.962C96.5343 154.962 93.6897 156.617 92.4653 158.969L86.4766 154.054V143.992H81.1296V155.871L90.7168 163.739H92.3155C93.4224 166.286 96.3632 168.127 99.8441 168.127C104.266 168.127 107.865 165.174 107.865 161.545C107.865 157.916 104.266 154.962 99.8441 154.962ZM99.8441 163.739C98.3684 163.739 97.1706 162.756 97.1706 161.545C97.1706 160.334 98.3684 159.351 99.8441 159.351C101.32 159.351 102.518 160.334 102.518 161.545C102.518 162.756 101.32 163.739 99.8441 163.739Z" fill="#0D1B2A"/>
<path d="M70.4355 154.054L63.9817 159.351H37.8615C37.0541 157.492 35.2709 156.029 33.0064 155.366V125.153L39.4603 119.857H51.721V115.468H37.2466L27.6594 123.336V155.366C24.5528 156.274 22.3124 158.688 22.3124 161.545C22.3124 165.174 25.9109 168.127 30.3329 168.127C33.8138 168.127 36.7547 166.286 37.8615 163.739H66.1953L75.7825 155.871V143.992H70.4355V154.054ZM30.3329 163.739C28.8571 163.739 27.6594 162.756 27.6594 161.545C27.6594 160.334 28.8571 159.351 30.3329 159.351C31.8087 159.351 33.0064 160.334 33.0064 161.545C33.0064 162.756 31.8087 163.739 30.3329 163.739Z" fill="#0D1B2A"/>
<path d="M50.1543 128.633H51.721V124.245H47.9407L38.3535 132.113V138.318L47.9407 146.186H49.5394C50.6462 148.733 53.5871 150.574 57.068 150.574C61.49 150.574 65.0885 147.621 65.0885 143.992C65.0885 140.363 61.49 137.41 57.068 137.41C53.7582 137.41 50.9136 139.064 49.6891 141.416L43.7005 136.501V133.93L50.1543 128.633ZM57.068 141.798C58.5438 141.798 59.7415 142.781 59.7415 143.992C59.7415 145.203 58.5438 146.186 57.068 146.186C55.5922 146.186 54.3945 145.203 54.3945 143.992C54.3945 142.781 55.5922 141.798 57.068 141.798Z" fill="#0D1B2A"/>
<path d="M51.721 106.692H22.3124V111.08H51.721V106.692Z" fill="#0D1B2A"/>
<path d="M27.6594 44.8532V94.4357L37.2466 102.304H51.721V97.9156H39.4603L33.0064 92.619V81.271L37.2466 84.7509H51.721V80.3627H39.4603L33.0064 75.0661V44.8532C36.1104 43.9449 38.3534 41.5313 38.3534 38.6746C38.3534 35.0456 34.7549 32.0923 30.3329 32.0923C25.9109 32.0923 22.3124 35.0456 22.3124 38.6746C22.3124 41.5313 24.5528 43.9449 27.6594 44.8532ZM30.3329 36.4805C31.8087 36.4805 33.0064 37.4635 33.0064 38.6746C33.0064 39.8858 31.8087 40.8687 30.3329 40.8687C28.8571 40.8687 27.6594 39.8858 27.6594 38.6746C27.6594 37.4635 28.8571 36.4805 30.3329 36.4805Z" fill="#0D1B2A"/>
<path d="M51.7209 89.1392H41.0269V93.5274H51.7209V89.1392Z" fill="#0D1B2A"/>
<path d="M38.3535 68.1064L47.9407 75.9745H51.721V71.5863H50.1543L43.7005 66.2897V46.1653L50.1543 40.8687H81.1296V56.2275H86.4766V40.8687H91.8236V56.2275H97.1706V40.8687H102.518V56.2275H107.865V49.6452L113.212 52.9363V56.2275H118.559V50.7422L107.865 44.1599V40.8687H111.03C112.137 43.4161 115.078 45.2569 118.559 45.2569C122.981 45.2569 126.579 42.3037 126.579 38.6746C126.579 35.0456 122.981 32.0923 118.559 32.0923C115.078 32.0923 112.137 33.9331 111.03 36.4805H47.9407L38.3535 44.3486V68.1064ZM118.559 36.4805C120.034 36.4805 121.232 37.4635 121.232 38.6746C121.232 39.8858 120.034 40.8687 118.559 40.8687C117.083 40.8687 115.885 39.8858 115.885 38.6746C115.885 37.4635 117.083 36.4805 118.559 36.4805Z" fill="#0D1B2A"/>
<path d="M75.7826 49.6452H64.5966C63.4898 47.0978 60.5489 45.257 57.068 45.257C52.646 45.257 49.0475 48.2102 49.0475 51.8393C49.0475 55.4683 52.646 58.4216 57.068 58.4216C60.5489 58.4216 63.4898 56.5808 64.5966 54.0334H70.4356V56.2275H75.7826V49.6452ZM57.068 54.0334C55.5922 54.0334 54.3945 53.0504 54.3945 51.8393C54.3945 50.6281 55.5922 49.6452 57.068 49.6452C58.5438 49.6452 59.7415 50.6281 59.7415 51.8393C59.7415 53.0504 58.5438 54.0334 57.068 54.0334Z" fill="#0D1B2A"/>
<path d="M134.6 56.2275H139.947V54.0334H153.806C154.913 56.5808 157.854 58.4216 161.335 58.4216C165.757 58.4216 169.355 55.4683 169.355 51.8393C169.355 48.2102 165.757 45.257 161.335 45.257C157.854 45.257 154.913 47.0978 153.806 49.6452H134.6V56.2275ZM161.335 49.6452C162.811 49.6452 164.008 50.6281 164.008 51.8393C164.008 53.0504 162.811 54.0334 161.335 54.0334C159.859 54.0334 158.661 53.0504 158.661 51.8393C158.661 50.6281 159.859 49.6452 161.335 49.6452Z" fill="#0D1B2A"/>
<path d="M123.906 56.2275H129.253V50.5535L137.273 43.9712V32.0923H131.926V42.1545L123.906 48.7368V56.2275Z" fill="#0D1B2A"/>
<path d="M113.212 106.692C122.058 106.692 129.253 100.788 129.253 93.5273C129.253 86.267 122.058 80.3627 113.212 80.3627C104.365 80.3627 97.1706 86.267 97.1706 93.5273C97.1706 100.788 104.365 106.692 113.212 106.692ZM113.212 84.7509C119.109 84.7509 123.906 88.6871 123.906 93.5273C123.906 98.3675 119.109 102.304 113.212 102.304C107.314 102.304 102.518 98.3675 102.518 93.5273C102.518 88.6871 107.314 84.7509 113.212 84.7509Z" fill="#0D1B2A"/>
<path d="M102.991 113.794C106.143 114.869 109.592 115.468 113.212 115.468C127.953 115.468 139.947 105.626 139.947 93.5273C139.947 81.429 127.953 71.5862 113.212 71.5862C98.47 71.5862 86.4766 81.429 86.4766 93.5273C86.4766 96.4981 87.2065 99.3285 88.5165 101.915L73.4326 114.295C71.4996 115.881 70.4355 117.989 70.4355 120.234C70.4355 124.864 75.0286 128.633 80.6697 128.633C83.4047 128.633 85.974 127.76 87.9069 126.173L102.991 113.794ZM113.212 75.9744C125.005 75.9744 134.6 83.8491 134.6 93.5273C134.6 103.205 125.005 111.08 113.212 111.08C101.419 111.08 91.8236 103.205 91.8236 93.5273C91.8236 83.8491 101.419 75.9744 113.212 75.9744ZM80.6697 124.245C77.9748 124.245 75.7826 122.446 75.7826 120.234C75.7826 119.176 76.3039 118.143 77.2129 117.397L91.182 105.933C93.0454 108.153 95.3901 110.077 98.0957 111.607L84.1266 123.071C83.2176 123.817 81.9584 124.245 80.6697 124.245Z" fill="#0D1B2A"/>
</svg>
