<svg width="214" height="261" viewBox="0 0 214 261" fill="none" xmlns="http://www.w3.org/2000/svg">
<path d="M58.2436 251.224L53.7886 251.389C53.1726 251.389 52.8646 251.257 52.8646 250.993C52.8646 250.751 53.1066 250.564 53.5906 250.432C54.4926 250.256 55.1636 249.992 55.6036 249.64C56.0436 249.288 56.2636 248.76 56.2636 248.056V232.744C56.2636 231.974 56.1426 231.479 55.9006 231.259C55.6586 231.039 55.1416 230.852 54.3496 230.698C53.5576 230.566 53.1616 230.346 53.1616 230.038C53.1616 229.796 53.4806 229.675 54.1186 229.675L57.8146 229.774L61.9726 229.675C62.6106 229.675 62.9296 229.796 62.9296 230.038C62.9296 230.368 62.6216 230.577 62.0056 230.665C61.3896 230.775 60.9386 230.863 60.6526 230.929C60.3886 230.995 60.0916 231.094 59.7616 231.226C59.1896 231.468 58.9036 231.897 58.9036 232.513V248.056C58.9036 248.782 59.0686 249.299 59.3986 249.607C59.7286 249.915 60.4106 250.069 61.4446 250.069H66.2626C66.3506 250.069 66.6256 249.981 67.0876 249.805C68.2316 249.321 69.1446 248.342 69.8266 246.868C70.0686 246.208 70.3216 245.878 70.5856 245.878C70.8276 245.878 70.9486 246.076 70.9486 246.472C70.9266 246.494 70.9156 246.527 70.9156 246.571V246.637C70.4316 248.507 70.1346 249.904 70.0246 250.828C69.9806 251.202 69.8266 251.389 69.5626 251.389L58.2436 251.224ZM86.1029 244.393C86.1029 245.669 85.8059 246.868 85.2119 247.99C84.6399 249.09 83.7929 249.981 82.6709 250.663C81.5709 251.345 80.2289 251.686 78.6449 251.686C77.4129 251.686 76.2909 251.4 75.2789 250.828C74.2889 250.256 73.5079 249.475 72.9359 248.485C72.3639 247.473 72.0779 246.329 72.0779 245.053C72.0779 244.107 72.2649 243.194 72.6389 242.314C73.0129 241.412 73.5299 240.609 74.1899 239.905C74.8719 239.179 75.6419 238.607 76.4999 238.189C77.3579 237.771 78.2709 237.562 79.2389 237.562C80.5369 237.562 81.7029 237.87 82.7369 238.486C83.7709 239.08 84.5849 239.894 85.1789 240.928C85.7949 241.94 86.1029 243.095 86.1029 244.393ZM74.7839 244.294C74.7839 245.416 74.9819 246.472 75.3779 247.462C75.7959 248.43 76.3459 249.211 77.0279 249.805C77.7319 250.399 78.5019 250.696 79.3379 250.696C80.4379 250.696 81.2739 250.465 81.8459 250.003C82.4399 249.519 82.8469 248.859 83.0669 248.023C83.2869 247.165 83.3969 246.175 83.3969 245.053C83.3969 243.909 83.1879 242.853 82.7699 241.885C82.3739 240.895 81.8239 240.103 81.1199 239.509C80.4379 238.893 79.6459 238.585 78.7439 238.585C76.1039 238.585 74.7839 240.488 74.7839 244.294ZM101.056 253.765C101.056 254.645 100.836 255.503 100.396 256.339C99.9557 257.175 99.3727 257.923 98.6467 258.583C97.9427 259.265 97.1617 259.804 96.3037 260.2C95.4457 260.596 94.5987 260.794 93.7627 260.794C92.6407 260.794 91.6177 260.662 90.6937 260.398C89.7697 260.134 89.0217 259.727 88.4497 259.177C87.8997 258.627 87.6247 257.912 87.6247 257.032C87.6247 256.35 87.7897 255.756 88.1197 255.25C88.4717 254.766 89.0547 254.271 89.8687 253.765C90.6387 253.281 91.1997 252.775 91.5517 252.247C90.8037 252.093 90.1217 251.807 89.5057 251.389C88.8897 250.993 88.5817 250.454 88.5817 249.772C88.5817 249.354 88.8347 248.947 89.3407 248.551C89.4947 248.419 89.7037 248.287 89.9677 248.155C90.5617 247.803 91.0017 247.429 91.2877 247.033C91.0017 246.967 90.5837 246.681 90.0337 246.175C88.9557 245.163 88.4167 243.942 88.4167 242.512C88.4167 241.544 88.6917 240.686 89.2417 239.938C89.7917 239.19 90.5177 238.596 91.4197 238.156C92.3217 237.716 93.2787 237.496 94.2907 237.496C94.5767 237.496 94.8737 237.529 95.1817 237.595C95.5117 237.661 95.8637 237.749 96.2377 237.859C97.6677 238.299 98.7787 238.519 99.5707 238.519L100.627 238.486H101.023C101.199 238.486 101.342 238.519 101.452 238.585C101.562 238.651 101.617 238.827 101.617 239.113C101.617 239.509 101.518 239.707 101.32 239.707C100.528 239.707 100.066 239.729 99.9337 239.773L99.6697 239.872C99.5817 239.916 99.5047 239.949 99.4387 239.971C99.3507 240.169 99.3067 240.675 99.3067 241.489C99.3067 242.589 99.0647 243.612 98.5807 244.558C98.0967 245.504 97.4367 246.274 96.6007 246.868C95.7647 247.44 94.8187 247.726 93.7627 247.726C93.0807 247.726 92.4867 247.594 91.9807 247.33C91.0127 248.1 90.5287 248.639 90.5287 248.947C90.5287 249.651 91.5847 250.102 93.6967 250.3C96.6007 250.564 98.2837 250.806 98.7457 251.026C99.0757 251.158 99.4167 251.312 99.7687 251.488C100.143 251.686 100.451 251.95 100.693 252.28C100.935 252.632 101.056 253.127 101.056 253.765ZM90.9907 242.446C90.9907 243.106 91.1227 243.755 91.3867 244.393C91.6507 245.009 92.0137 245.526 92.4757 245.944C92.9377 246.362 93.4547 246.571 94.0267 246.571C94.5987 246.571 95.1047 246.384 95.5447 246.01C96.0067 245.636 96.3587 245.141 96.6007 244.525C96.8647 243.887 96.9967 243.216 96.9967 242.512C96.9967 241.808 96.8537 241.148 96.5677 240.532C96.3037 239.916 95.9407 239.421 95.4787 239.047C95.0167 238.673 94.4887 238.486 93.8947 238.486C93.3227 238.486 92.8167 238.684 92.3767 239.08C91.9367 239.454 91.5957 239.949 91.3537 240.565C91.1117 241.159 90.9907 241.786 90.9907 242.446ZM89.9677 255.646C89.9677 256.768 90.3417 257.681 91.0897 258.385C91.8597 259.111 92.8937 259.474 94.1917 259.474C95.0717 259.474 95.8747 259.265 96.6007 258.847C97.3267 258.451 97.9097 257.901 98.3497 257.197C98.8117 256.493 99.0427 255.701 99.0427 254.821C99.0427 254.271 98.7677 253.809 98.2177 253.435C97.6897 253.061 97.0517 252.797 96.3037 252.643C95.5337 252.511 94.4887 252.412 93.1687 252.346H92.4097C92.2777 252.434 92.0687 252.599 91.7827 252.841C91.5187 253.105 91.1777 253.446 90.7597 253.864C90.2317 254.48 89.9677 255.074 89.9677 255.646ZM130.386 248.155C129.484 249.233 128.318 250.091 126.888 250.729C125.458 251.367 123.874 251.686 122.136 251.686C120.662 251.686 119.254 251.411 117.912 250.861C116.57 250.289 115.382 249.497 114.348 248.485C113.314 247.473 112.5 246.307 111.906 244.987C111.312 243.645 111.015 242.204 111.015 240.664C111.015 238.618 111.433 236.759 112.269 235.087C113.127 233.393 114.436 232.007 116.196 230.929C117.934 229.851 120.002 229.312 122.4 229.312C123.874 229.312 125.26 229.576 126.558 230.104C127.878 230.632 129.033 231.391 130.023 232.381C131.013 233.349 131.794 234.493 132.366 235.813C132.938 237.133 133.224 238.585 133.224 240.169C133.224 243.271 132.278 245.933 130.386 248.155ZM114.216 240.004C114.216 241.346 114.425 242.644 114.843 243.898C115.261 245.13 115.844 246.241 116.592 247.231C117.362 248.199 118.253 248.969 119.265 249.541C120.299 250.113 121.41 250.399 122.598 250.399C124.996 250.399 126.833 249.585 128.109 247.957C129.385 246.307 130.023 243.953 130.023 240.895C130.023 238.871 129.704 237.089 129.066 235.549C128.428 233.987 127.515 232.777 126.327 231.919C125.161 231.039 123.753 230.599 122.103 230.599C120.475 230.599 119.067 231.017 117.879 231.853C116.691 232.667 115.778 233.789 115.14 235.219C114.524 236.627 114.216 238.222 114.216 240.004ZM148.328 251.29C147.448 251.664 146.942 251.851 146.81 251.851C146.634 251.851 146.546 251.807 146.546 251.719L146.711 249.541V249.343C145.105 250.905 143.29 251.686 141.266 251.686C140.144 251.686 139.231 251.345 138.527 250.663C137.845 249.981 137.504 249.013 137.504 247.759V241.06C137.504 240.158 137.031 239.531 136.085 239.179C135.799 239.091 135.656 238.904 135.656 238.618C135.656 238.354 135.821 238.189 136.151 238.123C136.525 238.101 136.998 238.046 137.57 237.958C138.142 237.87 138.802 237.738 139.55 237.562H139.616C139.924 237.562 140.056 237.716 140.012 238.024C139.88 239.036 139.814 239.883 139.814 240.565V247C139.814 247.528 139.946 248.023 140.21 248.485C140.474 248.925 140.815 249.288 141.233 249.574C141.673 249.86 142.124 250.003 142.586 250.003C143.862 250.003 144.885 249.717 145.655 249.145C146.447 248.551 146.843 247.792 146.843 246.868V240.829C146.843 240.235 146.612 239.817 146.15 239.575C145.688 239.333 145.204 239.201 144.698 239.179C144.192 239.179 143.939 238.992 143.939 238.618C143.939 238.442 144.038 238.31 144.236 238.222C144.324 238.178 144.434 238.156 144.566 238.156C144.72 238.134 144.896 238.112 145.094 238.09C145.952 238.09 146.689 238.035 147.305 237.925C147.613 237.881 147.811 237.848 147.899 237.826C148.053 237.826 148.405 237.727 148.955 237.529H149.021C149.307 237.529 149.45 237.661 149.45 237.925C149.45 238.013 149.417 238.123 149.351 238.255C149.219 238.475 149.153 239.212 149.153 240.466V247.462C149.153 248.98 149.351 249.739 149.747 249.739C150.429 249.739 150.935 249.706 151.265 249.64H151.364C151.628 249.64 151.76 249.772 151.76 250.036C151.76 250.366 151.606 250.531 151.298 250.531C150.726 250.619 150.187 250.729 149.681 250.861C149.197 250.971 148.746 251.114 148.328 251.29ZM161.672 250.333C161.32 250.663 160.825 250.971 160.187 251.257C159.571 251.543 158.955 251.686 158.339 251.686C157.261 251.686 156.414 251.367 155.798 250.729C155.204 250.069 154.907 249.079 154.907 247.759V240.103C154.907 239.905 154.83 239.773 154.676 239.707C154.522 239.641 154.181 239.608 153.653 239.608C153.587 239.608 153.499 239.52 153.389 239.344C153.301 239.168 153.257 239.036 153.257 238.948C153.257 238.86 153.312 238.783 153.422 238.717C153.928 238.563 154.445 238.244 154.973 237.76C155.501 237.276 155.93 236.825 156.26 236.407C156.59 235.989 156.788 235.78 156.854 235.78C157.162 235.78 157.316 235.89 157.316 236.11L157.25 237.562C157.25 237.87 157.514 238.024 158.042 238.024H161.804C162.024 238.024 162.134 238.288 162.134 238.816C162.134 239.344 162.024 239.608 161.804 239.608H158.537C157.943 239.608 157.569 239.652 157.415 239.74C157.283 239.828 157.217 240.092 157.217 240.532V246.769C157.217 247.891 157.426 248.694 157.844 249.178C158.262 249.64 158.779 249.871 159.395 249.871C160.495 249.871 161.32 249.662 161.87 249.244C161.892 249.222 161.925 249.211 161.969 249.211C162.123 249.211 162.2 249.354 162.2 249.64C162.2 249.816 162.024 250.047 161.672 250.333Z" fill="white"/>
<rect x="1.36987" y="1.16479" width="210.67" height="198.051" rx="20" fill="#2ECC71" stroke="#0D1B2A" stroke-width="2"/>
<path d="M145.059 50.5954C161.611 61.7589 172.382 80.0176 172.382 100.683C172.382 134.62 143.272 162.132 107.357 162.206C71.4953 162.281 42.1224 134.669 42.0699 100.782C42.0436 80.1168 52.8154 61.8086 69.3409 50.6202C72.4148 48.5611 76.6973 49.4294 78.5363 52.5304L82.6874 59.5014C84.2375 62.1063 83.5019 65.4057 80.9534 67.1919C70.0503 74.8327 63.088 86.939 63.088 100.658C63.0617 123.555 82.6612 142.36 107.226 142.36C131.292 142.36 151.522 123.952 151.364 100.41C151.285 87.5592 144.875 75.1552 133.472 67.1671C130.924 65.3809 130.215 62.0814 131.765 59.5014L135.916 52.5304C137.755 49.4542 142.011 48.5363 145.059 50.5954ZM117.735 102.667V43.1282C117.735 39.8288 114.924 37.1743 111.43 37.1743H103.022C99.5282 37.1743 96.717 39.8288 96.717 43.1282V102.667C96.717 105.967 99.5282 108.621 103.022 108.621H111.43C114.924 108.621 117.735 105.967 117.735 102.667Z" fill="#0D1B2A"/>
</svg>
