<svg width="218" height="262" viewBox="0 0 218 262" fill="none" xmlns="http://www.w3.org/2000/svg">
<path d="M43.5643 240.174L41.2443 240.319C40.8383 240.319 40.6353 240.223 40.6353 240.029C40.6353 239.855 40.9059 239.681 41.4473 239.507C42.0079 239.333 42.3269 239.15 42.4043 238.956C42.5009 238.763 42.5493 238.589 42.5493 238.434V223.731C42.5493 223.499 42.4913 223.238 42.3753 222.948C42.2786 222.639 42.1336 222.359 41.9403 222.107C41.7469 221.837 41.5053 221.672 41.2153 221.614C41.0606 221.576 40.9833 221.45 40.9833 221.237C40.9833 221.025 41.0509 220.909 41.1863 220.889C41.5923 220.793 42.0756 220.648 42.6363 220.454C43.1969 220.261 43.8349 220.019 44.5503 219.729L44.5793 219.7H44.6083C44.7243 219.7 44.7823 219.787 44.7823 219.961L44.6373 221.701C44.6373 221.856 44.6469 221.943 44.6663 221.962C44.9176 221.711 45.3043 221.44 45.8263 221.15C46.3676 220.86 46.9573 220.609 47.5953 220.396C48.2333 220.164 48.8229 220.048 49.3643 220.048C50.3309 220.048 51.1623 220.309 51.8583 220.831C52.5736 221.334 53.1246 222.001 53.5113 222.832C53.9173 223.664 54.1203 224.563 54.1203 225.529C54.1203 226.419 53.9463 227.279 53.5983 228.11C53.2696 228.942 52.8056 229.686 52.2063 230.343C51.6069 230.981 50.9109 231.494 50.1183 231.88C49.3256 232.267 48.4846 232.46 47.5953 232.46C47.3246 232.46 46.9959 232.412 46.6093 232.315C46.2226 232.238 45.8553 232.132 45.5073 231.996C45.1593 231.842 44.8886 231.687 44.6953 231.532C44.6179 231.532 44.5793 232.025 44.5793 233.011V238.434C44.5793 238.724 44.6856 238.927 44.8983 239.043C45.1303 239.179 45.3043 239.266 45.4203 239.304C45.4589 239.324 45.5169 239.343 45.5943 239.362C45.6909 239.382 45.7876 239.401 45.8843 239.42C46.5803 239.594 46.9283 239.807 46.9283 240.058C46.9283 240.232 46.7156 240.319 46.2903 240.319L43.5643 240.174ZM45.4203 230.894C45.9036 231.339 46.7736 231.561 48.0303 231.561C48.7649 231.561 49.4319 231.291 50.0313 230.749C50.6499 230.208 51.1043 229.58 51.3943 228.864C51.6649 228.149 51.8003 227.308 51.8003 226.341C51.8003 225.375 51.6553 224.524 51.3653 223.789C51.0946 223.055 50.7369 222.523 50.2923 222.194C49.4416 221.634 48.6006 221.353 47.7693 221.353C46.8993 221.353 46.1646 221.576 45.5653 222.02C44.9853 222.465 44.6663 223.209 44.6083 224.253L44.5793 226.109V227.008C44.5793 227.782 44.6179 228.536 44.6953 229.27C44.7919 229.986 45.0336 230.527 45.4203 230.894ZM65.3303 229.995C65.253 230.324 65.0113 230.682 64.6053 231.068C64.1993 231.455 63.6677 231.784 63.0103 232.054C62.353 232.325 61.599 232.46 60.7483 232.46C59.8977 232.46 59.105 232.199 58.3703 231.677C57.655 231.136 57.075 230.401 56.6303 229.473C56.205 228.545 55.9923 227.492 55.9923 226.312C55.9923 225.133 56.2437 224.07 56.7463 223.122C57.2683 222.175 57.9643 221.431 58.8343 220.889C59.7043 220.329 60.6807 220.048 61.7633 220.048C62.9233 220.048 63.832 220.29 64.4893 220.773C65.166 221.257 65.5043 221.914 65.5043 222.745C65.5043 223.577 65.2917 224.099 64.8663 224.311C64.4603 224.505 63.9287 224.601 63.2713 224.601H58.5153C58.2447 224.601 58.0513 224.669 57.9353 224.804C57.8387 224.92 57.7903 225.21 57.7903 225.674C57.7903 226.564 57.9837 227.395 58.3703 228.168C58.757 228.942 59.2693 229.56 59.9073 230.024C60.5647 230.488 61.2993 230.72 62.1113 230.72C63.2907 230.72 64.2187 230.295 64.8953 229.444C65.0307 229.309 65.137 229.241 65.2143 229.241C65.3497 229.241 65.4173 229.338 65.4173 229.531C65.4173 229.667 65.3883 229.821 65.3303 229.995ZM58.3413 223.267C58.3413 223.557 58.525 223.702 58.8923 223.702H61.2703C61.715 223.702 62.1113 223.693 62.4593 223.673C62.8267 223.635 63.136 223.596 63.3873 223.557C63.5807 223.538 63.6773 223.258 63.6773 222.716C63.6773 222.194 63.4357 221.769 62.9523 221.44C62.469 221.112 61.889 220.947 61.2123 220.947C60.7483 220.947 60.294 221.083 59.8493 221.353C59.424 221.605 59.0663 221.914 58.7763 222.281C58.4863 222.629 58.3413 222.958 58.3413 223.267ZM70.1355 231.996L67.7865 232.141C67.3998 232.141 67.2065 232.045 67.2065 231.851C67.2065 231.677 67.3805 231.532 67.7285 231.416C68.0765 231.3 68.3085 231.223 68.4245 231.184C68.5405 231.126 68.6662 231.02 68.8015 230.865C68.9175 230.711 68.9755 230.508 68.9755 230.256V224.021C68.9755 222.803 68.5792 222.107 67.7865 221.933C67.6318 221.895 67.5545 221.769 67.5545 221.556C67.5545 221.344 67.6222 221.228 67.7575 221.208C68.4728 221.073 69.0142 220.88 69.3815 220.628C69.7102 220.416 69.9808 220.242 70.1935 220.106C70.4255 219.971 70.5898 219.865 70.6865 219.787C70.8992 219.671 71.0055 219.604 71.0055 219.584H71.0925C71.1505 219.584 71.1892 219.652 71.2085 219.787C71.2085 220.039 71.2085 220.29 71.2085 220.541C71.2085 220.793 71.1988 221.044 71.1795 221.295C71.1602 221.779 71.1602 222.02 71.1795 222.02C71.1795 222.02 71.2278 221.972 71.3245 221.875C71.5952 221.527 71.7692 221.334 71.8465 221.295C72.7552 220.464 73.6445 220.048 74.5145 220.048C74.9205 220.048 75.2492 220.135 75.5005 220.309C75.7712 220.483 75.9065 220.715 75.9065 221.005C75.9065 221.295 75.7808 221.614 75.5295 221.962C75.2975 222.31 75.0752 222.484 74.8625 222.484C74.6498 222.484 74.3405 222.397 73.9345 222.223C73.5285 222.049 73.2288 221.962 73.0355 221.962C72.4748 221.962 71.9915 222.146 71.5855 222.513C71.1988 222.881 71.0055 223.509 71.0055 224.398V230.111C71.0248 230.614 71.5468 231.03 72.5715 231.358C73.0162 231.513 73.2385 231.677 73.2385 231.851C73.2385 232.045 73.0452 232.141 72.6585 232.141L70.1355 231.996ZM79.7341 231.996L77.3271 232.141C76.9404 232.141 76.7471 232.045 76.7471 231.851C76.7471 231.677 76.9694 231.513 77.4141 231.358C78.2454 231.107 78.6611 230.682 78.6611 230.082V221.904C78.3517 221.904 78.0714 221.904 77.8201 221.904C77.5881 221.885 77.3657 221.866 77.1531 221.846C77.0951 221.827 77.0081 221.759 76.8921 221.643C76.7954 221.527 76.7471 221.431 76.7471 221.353C76.7471 221.295 76.8147 221.228 76.9501 221.15C77.1047 221.112 77.3174 221.034 77.5881 220.918C77.8781 220.783 78.2357 220.609 78.6611 220.396C78.6611 218.811 78.8641 217.419 79.2701 216.22C79.6954 215.022 80.2464 214.103 80.9231 213.465C82.2377 212.209 83.6104 211.58 85.0411 211.58C87.1677 211.58 88.2311 212.16 88.2311 213.32C88.2311 213.63 88.1344 213.9 87.9411 214.132C87.7477 214.364 87.5447 214.48 87.3321 214.48C87.1194 214.48 86.9067 214.393 86.6941 214.219C86.4814 214.045 86.2784 213.842 86.0851 213.61C85.8917 213.398 85.5921 213.204 85.1861 213.03C84.7801 212.856 84.3257 212.769 83.8231 212.769C82.8757 212.769 82.1217 213.224 81.5611 214.132C81.0197 215.022 80.7491 216.404 80.7491 218.279V219.816C80.7491 220.242 80.9907 220.454 81.4741 220.454H84.8961C84.9734 220.454 85.0121 220.561 85.0121 220.773C85.0121 221.005 84.9734 221.247 84.8961 221.498C84.8187 221.73 84.7317 221.846 84.6351 221.846H81.9091C81.4257 221.846 81.1164 221.885 80.9811 221.962C80.8264 222.059 80.7491 222.185 80.7491 222.339V230.082C80.7684 230.682 81.1841 231.107 81.9961 231.358C82.4407 231.513 82.6631 231.677 82.6631 231.851C82.6631 232.045 82.4697 232.141 82.0831 232.141L79.7341 231.996ZM98.227 226.051C98.227 227.173 97.966 228.226 97.444 229.212C96.9413 230.179 96.197 230.962 95.211 231.561C94.2443 232.161 93.065 232.46 91.673 232.46C90.5903 232.46 89.6043 232.209 88.715 231.706C87.845 231.204 87.1587 230.517 86.656 229.647C86.1533 228.758 85.902 227.753 85.902 226.631C85.902 225.8 86.0663 224.998 86.395 224.224C86.7237 223.432 87.178 222.726 87.758 222.107C88.3573 221.469 89.034 220.967 89.788 220.599C90.542 220.232 91.3443 220.048 92.195 220.048C93.3357 220.048 94.3603 220.319 95.269 220.86C96.1777 221.382 96.893 222.098 97.415 223.006C97.9563 223.896 98.227 224.911 98.227 226.051ZM88.28 225.964C88.28 226.95 88.454 227.878 88.802 228.748C89.1693 229.599 89.6527 230.285 90.252 230.807C90.8707 231.329 91.5473 231.59 92.282 231.59C93.2487 231.59 93.9833 231.387 94.486 230.981C95.008 230.556 95.3657 229.976 95.559 229.241C95.7523 228.487 95.849 227.617 95.849 226.631C95.849 225.626 95.6653 224.698 95.298 223.847C94.95 222.977 94.4667 222.281 93.848 221.759C93.2487 221.218 92.5527 220.947 91.76 220.947C89.44 220.947 88.28 222.62 88.28 225.964ZM103.015 231.996L100.666 232.141C100.28 232.141 100.086 232.045 100.086 231.851C100.086 231.677 100.26 231.532 100.608 231.416C100.956 231.3 101.188 231.223 101.304 231.184C101.42 231.126 101.546 231.02 101.681 230.865C101.797 230.711 101.855 230.508 101.855 230.256V224.021C101.855 222.803 101.459 222.107 100.666 221.933C100.512 221.895 100.434 221.769 100.434 221.556C100.434 221.344 100.502 221.228 100.637 221.208C101.353 221.073 101.894 220.88 102.261 220.628C102.59 220.416 102.861 220.242 103.073 220.106C103.305 219.971 103.47 219.865 103.566 219.787C103.779 219.671 103.885 219.604 103.885 219.584H103.972C104.03 219.584 104.069 219.652 104.088 219.787C104.088 220.039 104.088 220.29 104.088 220.541C104.088 220.793 104.079 221.044 104.059 221.295C104.04 221.779 104.04 222.02 104.059 222.02C104.059 222.02 104.108 221.972 104.204 221.875C104.475 221.527 104.649 221.334 104.726 221.295C105.635 220.464 106.524 220.048 107.394 220.048C107.8 220.048 108.129 220.135 108.38 220.309C108.651 220.483 108.786 220.715 108.786 221.005C108.786 221.295 108.661 221.614 108.409 221.962C108.177 222.31 107.955 222.484 107.742 222.484C107.53 222.484 107.22 222.397 106.814 222.223C106.408 222.049 106.109 221.962 105.915 221.962C105.355 221.962 104.871 222.146 104.465 222.513C104.079 222.881 103.885 223.509 103.885 224.398V230.111C103.905 230.614 104.427 231.03 105.451 231.358C105.896 231.513 106.118 231.677 106.118 231.851C106.118 232.045 105.925 232.141 105.538 232.141L103.015 231.996ZM112.556 231.996L110.207 232.141C109.82 232.141 109.627 232.045 109.627 231.851C109.627 231.735 109.704 231.639 109.859 231.561C110.014 231.465 110.178 231.387 110.352 231.329C110.526 231.271 110.632 231.242 110.671 231.242C110.71 231.242 110.806 231.204 110.961 231.126C111.116 231.049 111.212 230.981 111.251 230.923C111.444 230.73 111.541 230.508 111.541 230.256V224.021C111.541 223.422 111.464 222.948 111.309 222.6C111.154 222.252 110.855 222.03 110.41 221.933C110.255 221.895 110.178 221.769 110.178 221.556C110.178 221.344 110.246 221.228 110.381 221.208C110.826 221.112 111.27 220.947 111.715 220.715C112.179 220.483 112.653 220.203 113.136 219.874L113.571 219.613H113.6C113.677 219.613 113.745 219.671 113.803 219.787L113.658 221.643C113.658 221.837 113.677 221.953 113.716 221.991C115.089 220.696 116.616 220.048 118.298 220.048C119.671 220.048 120.57 220.628 120.995 221.788C121.092 222.001 121.198 222.107 121.314 222.107C121.411 222.107 121.614 221.924 121.923 221.556C122.232 221.208 122.774 220.87 123.547 220.541C124.32 220.213 125.152 220.048 126.041 220.048C126.621 220.048 127.124 220.232 127.549 220.599C127.994 220.967 128.332 221.46 128.564 222.078C128.796 222.678 128.912 223.345 128.912 224.079V230.256C128.912 230.643 129.028 230.894 129.26 231.01C129.511 231.126 129.84 231.252 130.246 231.387C130.633 231.542 130.826 231.697 130.826 231.851C130.826 232.045 130.633 232.141 130.246 232.141L127.955 231.996L125.548 232.141C125.161 232.141 124.968 232.045 124.968 231.851C124.968 231.677 125.19 231.513 125.635 231.358C125.674 231.358 125.712 231.349 125.751 231.329C126.408 231.117 126.776 230.856 126.853 230.546C126.872 230.508 126.882 230.459 126.882 230.401C126.882 230.343 126.882 230.295 126.882 230.256V224.166C126.882 223.451 126.65 222.813 126.186 222.252C125.722 221.692 125.181 221.411 124.562 221.411C123.537 221.411 122.725 221.643 122.126 222.107C121.527 222.571 121.227 223.296 121.227 224.282V230.256C121.227 230.469 121.256 230.604 121.314 230.662L121.43 230.836C121.469 230.914 121.517 230.962 121.575 230.981C121.672 231.001 121.73 231.03 121.749 231.068C121.788 231.107 121.855 231.136 121.952 231.155C122.049 231.175 122.107 231.204 122.126 231.242C122.281 231.32 122.416 231.358 122.532 231.358C122.977 231.513 123.199 231.677 123.199 231.851C123.199 232.045 123.006 232.141 122.619 232.141L120.241 231.996L117.834 232.141C117.447 232.141 117.254 232.045 117.254 231.851C117.254 231.677 117.525 231.503 118.066 231.329C118.607 231.155 118.936 230.972 119.052 230.778C119.149 230.585 119.197 230.411 119.197 230.256V224.166C119.197 223.451 118.965 222.813 118.501 222.252C118.037 221.692 117.496 221.411 116.877 221.411C115.852 221.411 115.04 221.643 114.441 222.107C113.861 222.552 113.571 223.277 113.571 224.282V230.256C113.571 230.624 113.677 230.875 113.89 231.01C114.122 231.126 114.277 231.194 114.354 231.213C115.108 231.407 115.485 231.629 115.485 231.88C115.485 232.054 115.292 232.141 114.905 232.141L112.556 231.996ZM138.056 231.329C137.786 231.581 137.38 231.832 136.838 232.083C136.316 232.335 135.736 232.46 135.098 232.46C134.673 232.46 134.257 232.344 133.851 232.112C133.465 231.9 133.146 231.619 132.894 231.271C132.643 230.904 132.517 230.537 132.517 230.169C132.517 229.009 133.223 228.139 134.634 227.559L137.592 226.341C137.96 226.187 138.182 226.051 138.259 225.935C138.337 225.819 138.385 225.568 138.404 225.181L138.462 223.383V223.325C138.462 222.823 138.298 222.388 137.969 222.02C137.66 221.653 137.302 221.469 136.896 221.469C136.471 221.469 136.075 221.576 135.707 221.788C135.34 221.982 135.108 222.165 135.011 222.339C134.915 222.533 134.866 222.736 134.866 222.948L134.895 223.354C134.895 223.47 134.76 223.606 134.489 223.76C134.219 223.915 133.929 224.06 133.619 224.195C133.31 224.311 133.088 224.369 132.952 224.369C132.759 224.369 132.662 224.282 132.662 224.108C132.662 223.664 132.817 223.238 133.126 222.832C133.436 222.426 133.832 222.04 134.315 221.672C134.818 221.305 135.34 220.976 135.881 220.686C136.674 220.261 137.428 220.048 138.143 220.048C138.82 220.048 139.39 220.3 139.854 220.802C140.318 221.305 140.541 221.914 140.521 222.629L140.376 228.893V229.067C140.376 230.44 140.724 231.126 141.42 231.126C141.884 231.126 142.271 230.991 142.58 230.72C142.619 230.682 142.667 230.662 142.725 230.662C142.803 230.662 142.87 230.691 142.928 230.749C143.006 230.807 143.044 230.885 143.044 230.981V231.01C142.967 231.165 142.803 231.358 142.551 231.59C142.3 231.822 142.01 232.025 141.681 232.199C141.353 232.373 141.034 232.46 140.724 232.46C140.241 232.46 139.835 232.335 139.506 232.083C139.197 231.832 138.975 231.581 138.839 231.329C138.704 231.078 138.617 230.952 138.578 230.952C138.482 230.952 138.308 231.078 138.056 231.329ZM134.837 229.531C134.837 230.034 134.992 230.43 135.301 230.72C135.611 230.991 135.988 231.126 136.432 231.126C136.877 231.126 137.302 230.952 137.708 230.604C138.114 230.256 138.327 229.783 138.346 229.183L138.404 227.762V227.617C138.404 227.308 138.317 227.153 138.143 227.153C138.027 227.153 137.892 227.182 137.737 227.24C135.804 227.898 134.837 228.661 134.837 229.531ZM146.71 231.996L144.361 232.141C143.975 232.141 143.781 232.045 143.781 231.851C143.781 231.735 143.859 231.639 144.013 231.561C144.168 231.465 144.332 231.387 144.506 231.329C144.68 231.271 144.787 231.242 144.825 231.242C144.864 231.242 144.961 231.204 145.115 231.126C145.27 231.049 145.367 230.981 145.405 230.923C145.599 230.73 145.695 230.508 145.695 230.256V224.021C145.695 222.784 145.299 222.088 144.506 221.933C144.352 221.895 144.274 221.769 144.274 221.556C144.274 221.344 144.342 221.228 144.477 221.208C145.483 220.976 146.546 220.445 147.667 219.613C147.687 219.594 147.725 219.584 147.783 219.584C147.822 219.584 147.87 219.671 147.928 219.845L147.725 221.73C147.725 221.866 147.735 221.943 147.754 221.962C148.122 221.653 148.566 221.353 149.088 221.063C149.63 220.773 150.21 220.532 150.828 220.338C151.447 220.145 152.046 220.048 152.626 220.048C153.206 220.048 153.738 220.232 154.221 220.599C154.705 220.947 155.091 221.421 155.381 222.02C155.671 222.62 155.816 223.306 155.816 224.079V230.256C155.816 230.643 155.932 230.894 156.164 231.01C156.416 231.126 156.744 231.252 157.15 231.387C157.537 231.542 157.73 231.697 157.73 231.851C157.73 232.045 157.537 232.141 157.15 232.141L154.83 231.996L152.452 232.141C152.066 232.141 151.872 232.045 151.872 231.851C151.872 231.677 152.095 231.513 152.539 231.358C152.578 231.358 152.617 231.349 152.655 231.329C153.313 231.117 153.68 230.856 153.757 230.546C153.777 230.508 153.786 230.459 153.786 230.401C153.786 230.343 153.786 230.295 153.786 230.256V224.166C153.786 223.335 153.545 222.678 153.061 222.194C152.578 221.711 151.872 221.469 150.944 221.469C149.997 221.469 149.224 221.672 148.624 222.078C148.025 222.484 147.725 223.219 147.725 224.282V230.256C147.725 230.643 147.841 230.894 148.073 231.01C148.325 231.126 148.653 231.252 149.059 231.387C149.446 231.542 149.639 231.697 149.639 231.851C149.639 232.045 149.446 232.141 149.059 232.141L146.71 231.996ZM169.166 229.763C169.166 230.15 168.934 230.556 168.47 230.981C168.006 231.387 167.388 231.735 166.614 232.025C165.86 232.315 165.048 232.46 164.178 232.46C163.308 232.46 162.506 232.209 161.771 231.706C161.056 231.184 160.476 230.488 160.031 229.618C159.606 228.729 159.393 227.724 159.393 226.602C159.393 225.481 159.664 224.427 160.205 223.441C160.747 222.436 161.472 221.624 162.38 221.005C163.289 220.387 164.294 220.077 165.396 220.077C167.04 220.077 168.238 220.541 168.992 221.469C169.089 221.624 169.137 221.769 169.137 221.904C169.137 222.078 168.992 222.272 168.702 222.484C168.432 222.697 168.18 222.803 167.948 222.803C167.716 222.803 167.504 222.707 167.31 222.513C166.962 222.127 166.672 221.837 166.44 221.643C166.208 221.45 165.957 221.324 165.686 221.266C165.416 221.189 165.048 221.15 164.584 221.15C163.579 221.15 162.796 221.585 162.235 222.455C161.675 223.306 161.394 224.389 161.394 225.703C161.394 226.573 161.588 227.414 161.974 228.226C162.38 229.019 162.931 229.676 163.627 230.198C164.323 230.701 165.116 230.952 166.005 230.952C166.585 230.952 167.049 230.846 167.397 230.633C167.765 230.401 168.151 230.024 168.557 229.502C168.654 229.406 168.741 229.357 168.818 229.357C168.896 229.357 168.973 229.406 169.05 229.502C169.128 229.58 169.166 229.667 169.166 229.763ZM179.518 229.995C179.441 230.324 179.199 230.682 178.793 231.068C178.387 231.455 177.855 231.784 177.198 232.054C176.541 232.325 175.787 232.46 174.936 232.46C174.085 232.46 173.293 232.199 172.558 231.677C171.843 231.136 171.263 230.401 170.818 229.473C170.393 228.545 170.18 227.492 170.18 226.312C170.18 225.133 170.431 224.07 170.934 223.122C171.456 222.175 172.152 221.431 173.022 220.889C173.892 220.329 174.868 220.048 175.951 220.048C177.111 220.048 178.02 220.29 178.677 220.773C179.354 221.257 179.692 221.914 179.692 222.745C179.692 223.577 179.479 224.099 179.054 224.311C178.648 224.505 178.116 224.601 177.459 224.601H172.703C172.432 224.601 172.239 224.669 172.123 224.804C172.026 224.92 171.978 225.21 171.978 225.674C171.978 226.564 172.171 227.395 172.558 228.168C172.945 228.942 173.457 229.56 174.095 230.024C174.752 230.488 175.487 230.72 176.299 230.72C177.478 230.72 178.406 230.295 179.083 229.444C179.218 229.309 179.325 229.241 179.402 229.241C179.537 229.241 179.605 229.338 179.605 229.531C179.605 229.667 179.576 229.821 179.518 229.995ZM172.529 223.267C172.529 223.557 172.713 223.702 173.08 223.702H175.458C175.903 223.702 176.299 223.693 176.647 223.673C177.014 223.635 177.324 223.596 177.575 223.557C177.768 223.538 177.865 223.258 177.865 222.716C177.865 222.194 177.623 221.769 177.14 221.44C176.657 221.112 176.077 220.947 175.4 220.947C174.936 220.947 174.482 221.083 174.037 221.353C173.612 221.605 173.254 221.914 172.964 222.281C172.674 222.629 172.529 222.958 172.529 223.267ZM64.0319 261.112C63.2586 261.441 62.8139 261.605 62.6979 261.605C62.5432 261.605 62.4659 261.567 62.4659 261.489L62.6109 259.575V259.401C62.2629 259.943 61.7602 260.426 61.1029 260.851C60.4456 261.257 59.6819 261.46 58.8119 261.46C57.7679 261.46 56.8399 261.18 56.0279 260.619C55.2159 260.059 54.5779 259.324 54.1139 258.415C53.6692 257.487 53.4469 256.472 53.4469 255.37C53.4469 254.268 53.7176 253.234 54.2589 252.267C54.8002 251.301 55.5639 250.527 56.5499 249.947C57.5359 249.348 58.6766 249.048 59.9719 249.048C60.2426 249.048 60.5326 249.087 60.8419 249.164C61.1706 249.222 61.4702 249.3 61.7409 249.396C62.0116 249.493 62.1856 249.59 62.2629 249.686C62.3789 249.841 62.4756 249.918 62.5529 249.918C62.6109 249.918 62.6399 249.686 62.6399 249.222V244.64C62.6399 243.906 62.5239 243.403 62.2919 243.132C62.0792 242.842 61.7022 242.639 61.1609 242.523C61.0062 242.485 60.9289 242.359 60.9289 242.146C60.9289 241.934 60.9966 241.818 61.1319 241.798C61.5186 241.702 61.8956 241.595 62.2629 241.479C62.6496 241.363 63.0266 241.228 63.3939 241.073C64.1479 240.783 64.5829 240.638 64.6989 240.638C64.7956 240.638 64.8536 240.677 64.8729 240.754C64.8729 240.793 64.8729 240.861 64.8729 240.957C64.8729 241.054 64.8632 241.18 64.8439 241.334C64.7279 242.436 64.6699 243.577 64.6699 244.756V257.864C64.6699 259.121 64.8729 259.749 65.2789 259.749C65.8782 259.749 66.3229 259.72 66.6129 259.662H66.6999C66.9319 259.662 67.0479 259.778 67.0479 260.01C67.0479 260.3 66.9126 260.445 66.6419 260.445C66.1392 260.523 65.6656 260.619 65.2209 260.735C64.7956 260.832 64.3992 260.958 64.0319 261.112ZM57.2749 259.169C58.1642 259.827 59.0246 260.155 59.8559 260.155C60.6679 260.155 61.3349 259.904 61.8569 259.401C62.3789 258.899 62.6399 258.29 62.6399 257.574V253.659C62.6399 253.06 62.4852 252.49 62.1759 251.948C61.8859 251.407 61.4702 250.962 60.9289 250.614C60.4069 250.247 59.7882 250.063 59.0729 250.063C58.3769 250.063 57.7486 250.305 57.1879 250.788C56.6272 251.252 56.2212 251.823 55.9699 252.499C55.7186 253.137 55.5929 253.959 55.5929 254.964C55.5929 255.931 55.7476 256.791 56.0569 257.545C56.3856 258.28 56.7916 258.821 57.2749 259.169ZM73.6558 260.329C73.3852 260.581 72.9792 260.832 72.4378 261.083C71.9158 261.335 71.3358 261.46 70.6978 261.46C70.2725 261.46 69.8568 261.344 69.4508 261.112C69.0642 260.9 68.7452 260.619 68.4938 260.271C68.2425 259.904 68.1168 259.537 68.1168 259.169C68.1168 258.009 68.8225 257.139 70.2338 256.559L73.1918 255.341C73.5592 255.187 73.7815 255.051 73.8588 254.935C73.9362 254.819 73.9845 254.568 74.0038 254.181L74.0618 252.383V252.325C74.0618 251.823 73.8975 251.388 73.5688 251.02C73.2595 250.653 72.9018 250.469 72.4958 250.469C72.0705 250.469 71.6742 250.576 71.3068 250.788C70.9395 250.982 70.7075 251.165 70.6108 251.339C70.5142 251.533 70.4658 251.736 70.4658 251.948L70.4948 252.354C70.4948 252.47 70.3595 252.606 70.0888 252.76C69.8182 252.915 69.5282 253.06 69.2188 253.195C68.9095 253.311 68.6872 253.369 68.5518 253.369C68.3585 253.369 68.2618 253.282 68.2618 253.108C68.2618 252.664 68.4165 252.238 68.7258 251.832C69.0352 251.426 69.4315 251.04 69.9148 250.672C70.4175 250.305 70.9395 249.976 71.4808 249.686C72.2735 249.261 73.0275 249.048 73.7428 249.048C74.4195 249.048 74.9898 249.3 75.4538 249.802C75.9178 250.305 76.1402 250.914 76.1208 251.629L75.9758 257.893V258.067C75.9758 259.44 76.3238 260.126 77.0198 260.126C77.4838 260.126 77.8705 259.991 78.1798 259.72C78.2185 259.682 78.2668 259.662 78.3248 259.662C78.4022 259.662 78.4698 259.691 78.5278 259.749C78.6052 259.807 78.6438 259.885 78.6438 259.981V260.01C78.5665 260.165 78.4022 260.358 78.1508 260.59C77.8995 260.822 77.6095 261.025 77.2808 261.199C76.9522 261.373 76.6332 261.46 76.3238 261.46C75.8405 261.46 75.4345 261.335 75.1058 261.083C74.7965 260.832 74.5742 260.581 74.4388 260.329C74.3035 260.078 74.2165 259.952 74.1778 259.952C74.0812 259.952 73.9072 260.078 73.6558 260.329ZM70.4368 258.531C70.4368 259.034 70.5915 259.43 70.9008 259.72C71.2102 259.991 71.5872 260.126 72.0318 260.126C72.4765 260.126 72.9018 259.952 73.3078 259.604C73.7138 259.256 73.9265 258.783 73.9458 258.183L74.0038 256.762V256.617C74.0038 256.308 73.9168 256.153 73.7428 256.153C73.6268 256.153 73.4915 256.182 73.3368 256.24C71.4035 256.898 70.4368 257.661 70.4368 258.531ZM87.1818 257.98C87.1818 260.3 85.7898 261.46 83.0058 261.46C82.2905 261.46 81.6235 261.335 81.0048 261.083C80.3862 260.851 80.0285 260.629 79.9318 260.416C79.6998 259.933 79.5742 259.343 79.5548 258.647C79.5548 258.473 79.7095 258.386 80.0188 258.386C80.3088 258.386 80.4635 258.454 80.4828 258.589C80.5602 258.918 80.7342 259.247 81.0048 259.575C81.2948 259.904 81.6332 260.175 82.0198 260.387C82.4258 260.581 82.8415 260.677 83.2668 260.677C83.8855 260.677 84.3592 260.494 84.6878 260.126C85.0358 259.759 85.2098 259.305 85.2098 258.763C85.2098 258.222 85.0358 257.768 84.6878 257.4C84.3398 257.014 83.7598 256.53 82.9478 255.95C82.1165 255.37 81.4495 254.81 80.9468 254.268C80.4635 253.708 80.2218 253.031 80.2218 252.238C80.2218 251.697 80.3668 251.185 80.6568 250.701C80.9468 250.218 81.3625 249.822 81.9038 249.512C82.4452 249.203 83.1025 249.048 83.8758 249.048C85.0358 249.048 85.8382 249.271 86.2828 249.715C86.6115 250.141 86.7758 250.895 86.7758 251.977C86.7758 252.055 86.7082 252.093 86.5728 252.093C86.4375 252.093 86.2442 252.026 85.9928 251.89C85.7415 251.736 85.6158 251.6 85.6158 251.484C85.5965 251.059 85.4032 250.672 85.0358 250.324C84.6685 249.976 84.2335 249.802 83.7308 249.802C83.2088 249.802 82.7835 249.976 82.4548 250.324C82.1262 250.672 81.9618 251.078 81.9618 251.542C81.9618 252.006 82.1262 252.432 82.4548 252.818C82.7835 253.205 83.0735 253.476 83.3248 253.63C83.4408 253.708 83.5858 253.814 83.7598 253.949C83.9532 254.065 84.1755 254.201 84.4268 254.355C84.7555 254.549 85.0262 254.723 85.2388 254.877C85.4708 255.032 85.6932 255.216 85.9058 255.428C86.1185 255.622 86.3505 255.902 86.6018 256.269C86.9885 256.83 87.1818 257.4 87.1818 257.98ZM91.5389 260.996L89.1899 261.141C88.8032 261.141 88.6099 261.045 88.6099 260.851C88.6099 260.677 88.7839 260.532 89.1319 260.416C89.4799 260.3 89.7989 260.175 90.0889 260.039C90.3789 259.904 90.5239 259.614 90.5239 259.169V244.64C90.5239 243.403 90.0889 242.697 89.2189 242.523C89.0642 242.485 88.9869 242.359 88.9869 242.146C88.9869 241.934 89.0545 241.818 89.1899 241.798C89.6925 241.682 90.8139 241.296 92.5539 240.638L92.6119 240.609C92.7279 240.609 92.7859 240.725 92.7859 240.957C92.7859 241.073 92.7762 241.16 92.7569 241.218C92.6795 241.644 92.6215 242.156 92.5829 242.755C92.5635 243.335 92.5539 244.002 92.5539 244.756V249.802C92.5539 250.305 92.6312 250.663 92.7859 250.875C94.4485 249.657 95.9082 249.048 97.1649 249.048C98.1122 249.048 98.8952 249.425 99.5139 250.179C100.152 250.933 100.471 251.871 100.471 252.992V259.082C100.471 259.701 100.867 260.126 101.66 260.358C102.105 260.513 102.327 260.677 102.327 260.851C102.327 261.045 102.134 261.141 101.747 261.141L99.4849 260.996L97.2229 261.141C96.8362 261.141 96.6429 261.045 96.6429 260.851C96.6429 260.677 96.8652 260.513 97.3099 260.358C98.0639 260.126 98.4409 259.701 98.4409 259.082V253.166C98.4409 252.702 98.3055 252.277 98.0349 251.89C97.7642 251.484 97.4259 251.165 97.0199 250.933C96.6139 250.682 96.1885 250.556 95.7439 250.556C94.6805 250.556 93.8782 250.769 93.3369 251.194C93.0275 251.446 92.8149 251.716 92.6989 252.006C92.6022 252.277 92.5539 252.702 92.5539 253.282V259.169C92.5925 259.769 92.9599 260.165 93.6559 260.358C94.1005 260.513 94.3229 260.677 94.3229 260.851C94.3229 261.045 94.1295 261.141 93.7429 261.141L91.5389 260.996ZM116.904 254.964C116.904 256.105 116.652 257.178 116.15 258.183C115.666 259.169 114.951 259.962 114.004 260.561C113.056 261.161 111.887 261.46 110.495 261.46C109.779 261.46 108.9 261.315 107.856 261.025C107.334 260.89 106.928 260.793 106.638 260.735C106.367 260.658 106.212 260.619 106.174 260.619C106.116 260.619 105.98 260.706 105.768 260.88C105.574 261.054 105.439 261.141 105.362 261.141C105.284 261.141 105.197 261.112 105.101 261.054C105.004 260.977 104.956 260.89 104.956 260.793V260.648C104.956 260.59 104.956 260.523 104.956 260.445C104.975 260.368 104.994 260.291 105.014 260.213L105.101 259.662C105.12 259.43 105.13 259.179 105.13 258.908C105.149 258.618 105.159 258.319 105.159 258.009V244.64C105.159 243.442 104.704 242.736 103.796 242.523C103.641 242.485 103.564 242.359 103.564 242.146C103.564 241.934 103.631 241.818 103.767 241.798C104.424 241.663 105.101 241.441 105.797 241.131L107.044 240.638L107.102 240.609C107.218 240.609 107.276 240.677 107.276 240.812L107.189 243.857V249.802C107.189 250.402 107.276 250.721 107.45 250.759C108.126 250.199 108.861 249.773 109.654 249.483C110.446 249.193 111.123 249.048 111.684 249.048C112.689 249.048 113.578 249.3 114.352 249.802C115.144 250.305 115.763 251.001 116.208 251.89C116.672 252.78 116.904 253.804 116.904 254.964ZM107.189 257.226C107.189 257.884 107.372 258.464 107.74 258.966C108.107 259.469 108.59 259.865 109.19 260.155C109.808 260.426 110.475 260.561 111.191 260.561C111.906 260.561 112.525 260.339 113.047 259.894C113.588 259.43 114.004 258.821 114.294 258.067C114.584 257.313 114.729 256.472 114.729 255.544C114.729 254.616 114.564 253.756 114.236 252.963C113.926 252.151 113.462 251.494 112.844 250.991C112.244 250.489 111.519 250.237 110.669 250.237C110.205 250.237 109.683 250.324 109.103 250.498C108.523 250.672 108.088 250.924 107.798 251.252C107.392 251.678 107.189 252.499 107.189 253.717V257.226ZM131.248 255.051C131.248 256.173 130.987 257.226 130.465 258.212C129.963 259.179 129.218 259.962 128.232 260.561C127.266 261.161 126.086 261.46 124.694 261.46C123.612 261.46 122.626 261.209 121.736 260.706C120.866 260.204 120.18 259.517 119.677 258.647C119.175 257.758 118.923 256.753 118.923 255.631C118.923 254.8 119.088 253.998 119.416 253.224C119.745 252.432 120.199 251.726 120.779 251.107C121.379 250.469 122.055 249.967 122.809 249.599C123.563 249.232 124.366 249.048 125.216 249.048C126.357 249.048 127.382 249.319 128.29 249.86C129.199 250.382 129.914 251.098 130.436 252.006C130.978 252.896 131.248 253.911 131.248 255.051ZM121.301 254.964C121.301 255.95 121.475 256.878 121.823 257.748C122.191 258.599 122.674 259.285 123.273 259.807C123.892 260.329 124.569 260.59 125.303 260.59C126.27 260.59 127.005 260.387 127.507 259.981C128.029 259.556 128.387 258.976 128.58 258.241C128.774 257.487 128.87 256.617 128.87 255.631C128.87 254.626 128.687 253.698 128.319 252.847C127.971 251.977 127.488 251.281 126.869 250.759C126.27 250.218 125.574 249.947 124.781 249.947C122.461 249.947 121.301 251.62 121.301 254.964ZM138.821 260.329C138.55 260.581 138.144 260.832 137.603 261.083C137.081 261.335 136.501 261.46 135.863 261.46C135.438 261.46 135.022 261.344 134.616 261.112C134.229 260.9 133.91 260.619 133.659 260.271C133.408 259.904 133.282 259.537 133.282 259.169C133.282 258.009 133.988 257.139 135.399 256.559L138.357 255.341C138.724 255.187 138.947 255.051 139.024 254.935C139.101 254.819 139.15 254.568 139.169 254.181L139.227 252.383V252.325C139.227 251.823 139.063 251.388 138.734 251.02C138.425 250.653 138.067 250.469 137.661 250.469C137.236 250.469 136.839 250.576 136.472 250.788C136.105 250.982 135.873 251.165 135.776 251.339C135.679 251.533 135.631 251.736 135.631 251.948L135.66 252.354C135.66 252.47 135.525 252.606 135.254 252.76C134.983 252.915 134.693 253.06 134.384 253.195C134.075 253.311 133.852 253.369 133.717 253.369C133.524 253.369 133.427 253.282 133.427 253.108C133.427 252.664 133.582 252.238 133.891 251.832C134.2 251.426 134.597 251.04 135.08 250.672C135.583 250.305 136.105 249.976 136.646 249.686C137.439 249.261 138.193 249.048 138.908 249.048C139.585 249.048 140.155 249.3 140.619 249.802C141.083 250.305 141.305 250.914 141.286 251.629L141.141 257.893V258.067C141.141 259.44 141.489 260.126 142.185 260.126C142.649 260.126 143.036 259.991 143.345 259.72C143.384 259.682 143.432 259.662 143.49 259.662C143.567 259.662 143.635 259.691 143.693 259.749C143.77 259.807 143.809 259.885 143.809 259.981V260.01C143.732 260.165 143.567 260.358 143.316 260.59C143.065 260.822 142.775 261.025 142.446 261.199C142.117 261.373 141.798 261.46 141.489 261.46C141.006 261.46 140.6 261.335 140.271 261.083C139.962 260.832 139.739 260.581 139.604 260.329C139.469 260.078 139.382 259.952 139.343 259.952C139.246 259.952 139.072 260.078 138.821 260.329ZM135.602 258.531C135.602 259.034 135.757 259.43 136.066 259.72C136.375 259.991 136.752 260.126 137.197 260.126C137.642 260.126 138.067 259.952 138.473 259.604C138.879 259.256 139.092 258.783 139.111 258.183L139.169 256.762V256.617C139.169 256.308 139.082 256.153 138.908 256.153C138.792 256.153 138.657 256.182 138.502 256.24C136.569 256.898 135.602 257.661 135.602 258.531ZM147.62 260.996L145.271 261.141C144.884 261.141 144.691 261.045 144.691 260.851C144.691 260.677 144.865 260.532 145.213 260.416C145.561 260.3 145.793 260.223 145.909 260.184C146.025 260.126 146.151 260.02 146.286 259.865C146.402 259.711 146.46 259.508 146.46 259.256V253.021C146.46 251.803 146.064 251.107 145.271 250.933C145.116 250.895 145.039 250.769 145.039 250.556C145.039 250.344 145.107 250.228 145.242 250.208C145.957 250.073 146.499 249.88 146.866 249.628C147.195 249.416 147.465 249.242 147.678 249.106C147.91 248.971 148.074 248.865 148.171 248.787C148.384 248.671 148.49 248.604 148.49 248.584H148.577C148.635 248.584 148.674 248.652 148.693 248.787C148.693 249.039 148.693 249.29 148.693 249.541C148.693 249.793 148.683 250.044 148.664 250.295C148.645 250.779 148.645 251.02 148.664 251.02C148.664 251.02 148.712 250.972 148.809 250.875C149.08 250.527 149.254 250.334 149.331 250.295C150.24 249.464 151.129 249.048 151.999 249.048C152.405 249.048 152.734 249.135 152.985 249.309C153.256 249.483 153.391 249.715 153.391 250.005C153.391 250.295 153.265 250.614 153.014 250.962C152.782 251.31 152.56 251.484 152.347 251.484C152.134 251.484 151.825 251.397 151.419 251.223C151.013 251.049 150.713 250.962 150.52 250.962C149.959 250.962 149.476 251.146 149.07 251.513C148.683 251.881 148.49 252.509 148.49 253.398V259.111C148.509 259.614 149.031 260.03 150.056 260.358C150.501 260.513 150.723 260.677 150.723 260.851C150.723 261.045 150.53 261.141 150.143 261.141L147.62 260.996ZM165.135 261.112C164.362 261.441 163.917 261.605 163.801 261.605C163.647 261.605 163.569 261.567 163.569 261.489L163.714 259.575V259.401C163.366 259.943 162.864 260.426 162.206 260.851C161.549 261.257 160.785 261.46 159.915 261.46C158.871 261.46 157.943 261.18 157.131 260.619C156.319 260.059 155.681 259.324 155.217 258.415C154.773 257.487 154.55 256.472 154.55 255.37C154.55 254.268 154.821 253.234 155.362 252.267C155.904 251.301 156.667 250.527 157.653 249.947C158.639 249.348 159.78 249.048 161.075 249.048C161.346 249.048 161.636 249.087 161.945 249.164C162.274 249.222 162.574 249.3 162.844 249.396C163.115 249.493 163.289 249.59 163.366 249.686C163.482 249.841 163.579 249.918 163.656 249.918C163.714 249.918 163.743 249.686 163.743 249.222V244.64C163.743 243.906 163.627 243.403 163.395 243.132C163.183 242.842 162.806 242.639 162.264 242.523C162.11 242.485 162.032 242.359 162.032 242.146C162.032 241.934 162.1 241.818 162.235 241.798C162.622 241.702 162.999 241.595 163.366 241.479C163.753 241.363 164.13 241.228 164.497 241.073C165.251 240.783 165.686 240.638 165.802 240.638C165.899 240.638 165.957 240.677 165.976 240.754C165.976 240.793 165.976 240.861 165.976 240.957C165.976 241.054 165.967 241.18 165.947 241.334C165.831 242.436 165.773 243.577 165.773 244.756V257.864C165.773 259.121 165.976 259.749 166.382 259.749C166.982 259.749 167.426 259.72 167.716 259.662H167.803C168.035 259.662 168.151 259.778 168.151 260.01C168.151 260.3 168.016 260.445 167.745 260.445C167.243 260.523 166.769 260.619 166.324 260.735C165.899 260.832 165.503 260.958 165.135 261.112ZM158.378 259.169C159.268 259.827 160.128 260.155 160.959 260.155C161.771 260.155 162.438 259.904 162.96 259.401C163.482 258.899 163.743 258.29 163.743 257.574V253.659C163.743 253.06 163.589 252.49 163.279 251.948C162.989 251.407 162.574 250.962 162.032 250.614C161.51 250.247 160.892 250.063 160.176 250.063C159.48 250.063 158.852 250.305 158.291 250.788C157.731 251.252 157.325 251.823 157.073 252.499C156.822 253.137 156.696 253.959 156.696 254.964C156.696 255.931 156.851 256.791 157.16 257.545C157.489 258.28 157.895 258.821 158.378 259.169Z" fill="white"/>
<path d="M192.304 1.00024C205.377 1.00024 216.09 10.9916 216.09 23.4338V180.617C216.09 193.06 205.377 203.051 192.304 203.051H25.2061C12.1325 203.051 1.41998 193.06 1.41992 180.617V23.4338C1.42018 10.9916 12.1326 1.00024 25.2061 1.00024H192.304ZM55.5879 88.7366C51.8852 88.7366 48.9922 91.5427 48.9922 94.8811V152.038C48.9922 155.377 51.8852 158.183 55.5879 158.183H70.7783C74.4809 158.183 77.373 155.377 77.373 152.038V94.8811C77.373 91.5428 74.4809 88.7367 70.7783 88.7366H55.5879ZM101.159 45.8684C97.4567 45.8686 94.5645 48.6747 94.5645 52.0129V152.038C94.5645 155.377 97.4567 158.183 101.159 158.183H116.351C120.053 158.183 122.945 155.377 122.945 152.038V52.0129C122.945 48.6747 120.053 45.8686 116.351 45.8684H101.159ZM146.731 117.315C143.029 117.315 140.137 120.122 140.137 123.46V152.038C140.137 155.377 143.029 158.183 146.731 158.183H161.923C165.625 158.183 168.518 155.377 168.518 152.038V123.46C168.518 120.122 165.625 117.315 161.923 117.315H146.731Z" fill="#2ECC71" stroke="black" stroke-width="2"/>
</svg>
