<svg width="214" height="246" viewBox="0 0 214 246" fill="none" xmlns="http://www.w3.org/2000/svg">
<path d="M80.3888 235.677C80.3888 236.095 80.0918 236.392 79.4978 236.568C78.9258 236.744 78.3318 236.832 77.7158 236.832C76.6818 236.832 75.7358 236.601 74.8778 236.139C74.0418 235.677 73.2938 235.105 72.6338 234.423C71.9738 233.741 71.4018 233.059 70.9178 232.377C70.4338 231.673 70.0378 231.09 69.7298 230.628C69.4218 230.166 69.1358 229.737 68.8718 229.341C68.6298 228.945 68.4208 228.593 68.2448 228.285C67.4748 227.097 66.0998 226.393 64.1198 226.173H64.0538C63.7678 226.173 63.6248 226.393 63.6248 226.833V232.509C63.6248 234.137 64.3618 235.083 65.8358 235.347C66.5618 235.479 66.9248 235.666 66.9248 235.908C66.9248 236.172 66.6058 236.304 65.9678 236.304C65.6598 236.304 65.3518 236.293 65.0438 236.271C64.7358 236.249 64.4388 236.216 64.1528 236.172C63.6028 236.106 63.1298 236.073 62.7338 236.073L58.4438 236.304C57.8058 236.304 57.4868 236.172 57.4868 235.908C57.4868 235.666 57.8828 235.468 58.6748 235.314C59.4668 235.182 60.0498 234.94 60.4238 234.588C60.7978 234.214 60.9848 233.631 60.9848 232.839V218.913C60.9848 217.857 60.8528 217.076 60.5888 216.57C60.3248 216.064 59.8078 215.745 59.0378 215.613C58.2678 215.481 57.8828 215.261 57.8828 214.953C57.8828 214.711 58.2018 214.59 58.8398 214.59L62.0738 214.623L65.8688 214.458C70.8188 214.458 73.2938 216.262 73.2938 219.87C73.2938 222.246 71.9958 224.094 69.3998 225.414C69.3118 225.458 69.2678 225.513 69.2678 225.579C69.2678 225.601 69.2788 225.634 69.3008 225.678C69.3448 225.722 69.3778 225.777 69.3998 225.843C69.9058 226.591 70.3128 227.207 70.6208 227.691C70.9288 228.153 71.2038 228.571 71.4458 228.945C71.7098 229.297 71.9848 229.649 72.2708 230.001C72.5568 230.353 72.9198 230.793 73.3598 231.321C73.7998 231.849 74.2398 232.355 74.6798 232.839C75.1418 233.323 75.6148 233.785 76.0988 234.225C76.6268 234.687 77.1658 234.984 77.7158 235.116C78.2658 235.248 78.9918 235.314 79.8938 235.314C80.2238 235.314 80.3888 235.435 80.3888 235.677ZM63.6248 224.127C63.6248 224.633 63.7568 224.952 64.0208 225.084C64.2848 225.216 64.7358 225.282 65.3738 225.282C66.3638 225.282 67.2218 225.062 67.9478 224.622C68.6958 224.182 69.2788 223.577 69.6968 222.807C70.1148 222.037 70.3238 221.179 70.3238 220.233C70.3238 218.803 70.0048 217.648 69.3668 216.768C68.7508 215.888 67.5848 215.448 65.8688 215.448C65.0328 215.448 64.4718 215.602 64.1858 215.91C63.9218 216.218 63.7788 216.658 63.7568 217.23C63.7128 218.308 63.6798 219.419 63.6578 220.563C63.6358 221.707 63.6248 222.895 63.6248 224.127ZM91.0628 233.796C90.9748 234.17 90.6998 234.577 90.2378 235.017C89.7758 235.457 89.1708 235.831 88.4228 236.139C87.6748 236.447 86.8168 236.601 85.8488 236.601C84.8808 236.601 83.9788 236.304 83.1428 235.71C82.3288 235.094 81.6688 234.258 81.1628 233.202C80.6788 232.146 80.4368 230.947 80.4368 229.605C80.4368 228.263 80.7228 227.053 81.2948 225.975C81.8888 224.897 82.6808 224.05 83.6708 223.434C84.6608 222.796 85.7718 222.477 87.0038 222.477C88.3238 222.477 89.3578 222.752 90.1058 223.302C90.8758 223.852 91.2608 224.6 91.2608 225.546C91.2608 226.492 91.0188 227.086 90.5348 227.328C90.0728 227.548 89.4678 227.658 88.7198 227.658H83.3078C82.9998 227.658 82.7798 227.735 82.6478 227.889C82.5378 228.021 82.4828 228.351 82.4828 228.879C82.4828 229.891 82.7028 230.837 83.1428 231.717C83.5828 232.597 84.1658 233.301 84.8918 233.829C85.6398 234.357 86.4758 234.621 87.3998 234.621C88.7418 234.621 89.7978 234.137 90.5678 233.169C90.7218 233.015 90.8428 232.938 90.9308 232.938C91.0848 232.938 91.1618 233.048 91.1618 233.268C91.1618 233.422 91.1288 233.598 91.0628 233.796ZM83.1098 226.14C83.1098 226.47 83.3188 226.635 83.7368 226.635H86.4428C86.9488 226.635 87.3998 226.624 87.7958 226.602C88.2138 226.558 88.5658 226.514 88.8518 226.47C89.0718 226.448 89.1818 226.129 89.1818 225.513C89.1818 224.919 88.9068 224.435 88.3568 224.061C87.8068 223.687 87.1468 223.5 86.3768 223.5C85.8488 223.5 85.3318 223.654 84.8258 223.962C84.3418 224.248 83.9348 224.6 83.6048 225.018C83.2748 225.414 83.1098 225.788 83.1098 226.14ZM96.2007 245.379L93.5607 245.544C93.0987 245.544 92.8677 245.434 92.8677 245.214C92.8677 245.016 93.1757 244.818 93.7917 244.62C94.4297 244.422 94.7927 244.213 94.8807 243.993C94.9907 243.773 95.0457 243.575 95.0457 243.399V226.668C95.0457 226.404 94.9797 226.107 94.8477 225.777C94.7377 225.425 94.5727 225.106 94.3527 224.82C94.1327 224.512 93.8577 224.325 93.5277 224.259C93.3517 224.215 93.2637 224.072 93.2637 223.83C93.2637 223.588 93.3407 223.456 93.4947 223.434C93.9567 223.324 94.5067 223.159 95.1447 222.939C95.7827 222.719 96.5087 222.444 97.3227 222.114L97.3557 222.081H97.3887C97.5207 222.081 97.5867 222.18 97.5867 222.378L97.4217 224.358C97.4217 224.534 97.4327 224.633 97.4547 224.655C97.7407 224.369 98.1807 224.061 98.7747 223.731C99.3907 223.401 100.062 223.115 100.788 222.873C101.514 222.609 102.185 222.477 102.801 222.477C103.901 222.477 104.847 222.774 105.639 223.368C106.453 223.94 107.08 224.699 107.52 225.645C107.982 226.591 108.213 227.614 108.213 228.714C108.213 229.726 108.015 230.705 107.619 231.651C107.245 232.597 106.717 233.444 106.035 234.192C105.353 234.918 104.561 235.501 103.659 235.941C102.757 236.381 101.8 236.601 100.788 236.601C100.48 236.601 100.106 236.546 99.6657 236.436C99.2257 236.348 98.8077 236.227 98.4117 236.073C98.0157 235.897 97.7077 235.721 97.4877 235.545C97.3997 235.545 97.3557 236.106 97.3557 237.228V243.399C97.3557 243.729 97.4767 243.96 97.7187 244.092C97.9827 244.246 98.1807 244.345 98.3127 244.389C98.3567 244.411 98.4227 244.433 98.5107 244.455C98.6207 244.477 98.7307 244.499 98.8407 244.521C99.6327 244.719 100.029 244.961 100.029 245.247C100.029 245.445 99.7867 245.544 99.3027 245.544L96.2007 245.379ZM98.3127 234.819C98.8627 235.325 99.8527 235.578 101.283 235.578C102.119 235.578 102.878 235.27 103.56 234.654C104.264 234.038 104.781 233.323 105.111 232.509C105.419 231.695 105.573 230.738 105.573 229.638C105.573 228.538 105.408 227.57 105.078 226.734C104.77 225.898 104.363 225.293 103.857 224.919C102.889 224.281 101.932 223.962 100.986 223.962C99.9957 223.962 99.1597 224.215 98.4777 224.721C97.8177 225.227 97.4547 226.074 97.3887 227.262L97.3557 229.374V230.397C97.3557 231.277 97.3997 232.135 97.4877 232.971C97.5977 233.785 97.8727 234.401 98.3127 234.819ZM124.533 229.308C124.533 230.584 124.236 231.783 123.642 232.905C123.07 234.005 122.223 234.896 121.101 235.578C120.001 236.26 118.659 236.601 117.075 236.601C115.843 236.601 114.721 236.315 113.709 235.743C112.719 235.171 111.938 234.39 111.366 233.4C110.794 232.388 110.508 231.244 110.508 229.968C110.508 229.022 110.695 228.109 111.069 227.229C111.443 226.327 111.96 225.524 112.62 224.82C113.302 224.094 114.072 223.522 114.93 223.104C115.788 222.686 116.701 222.477 117.669 222.477C118.967 222.477 120.133 222.785 121.167 223.401C122.201 223.995 123.015 224.809 123.609 225.843C124.225 226.855 124.533 228.01 124.533 229.308ZM113.214 229.209C113.214 230.331 113.412 231.387 113.808 232.377C114.226 233.345 114.776 234.126 115.458 234.72C116.162 235.314 116.932 235.611 117.768 235.611C118.868 235.611 119.704 235.38 120.276 234.918C120.87 234.434 121.277 233.774 121.497 232.938C121.717 232.08 121.827 231.09 121.827 229.968C121.827 228.824 121.618 227.768 121.2 226.8C120.804 225.81 120.254 225.018 119.55 224.424C118.868 223.808 118.076 223.5 117.174 223.5C114.534 223.5 113.214 225.403 113.214 229.209ZM129.982 236.073L127.309 236.238C126.869 236.238 126.649 236.128 126.649 235.908C126.649 235.71 126.847 235.545 127.243 235.413C127.639 235.281 127.903 235.193 128.035 235.149C128.167 235.083 128.31 234.962 128.464 234.786C128.596 234.61 128.662 234.379 128.662 234.093V226.998C128.662 225.612 128.211 224.82 127.309 224.622C127.133 224.578 127.045 224.435 127.045 224.193C127.045 223.951 127.122 223.819 127.276 223.797C128.09 223.643 128.706 223.423 129.124 223.137C129.498 222.895 129.806 222.697 130.048 222.543C130.312 222.389 130.499 222.268 130.609 222.18C130.851 222.048 130.972 221.971 130.972 221.949H131.071C131.137 221.949 131.181 222.026 131.203 222.18C131.203 222.466 131.203 222.752 131.203 223.038C131.203 223.324 131.192 223.61 131.17 223.896C131.148 224.446 131.148 224.721 131.17 224.721C131.17 224.721 131.225 224.666 131.335 224.556C131.643 224.16 131.841 223.94 131.929 223.896C132.963 222.95 133.975 222.477 134.965 222.477C135.427 222.477 135.801 222.576 136.087 222.774C136.395 222.972 136.549 223.236 136.549 223.566C136.549 223.896 136.406 224.259 136.12 224.655C135.856 225.051 135.603 225.249 135.361 225.249C135.119 225.249 134.767 225.15 134.305 224.952C133.843 224.754 133.502 224.655 133.282 224.655C132.644 224.655 132.094 224.864 131.632 225.282C131.192 225.7 130.972 226.415 130.972 227.427V233.928C130.994 234.5 131.588 234.973 132.754 235.347C133.26 235.523 133.513 235.71 133.513 235.908C133.513 236.128 133.293 236.238 132.853 236.238L129.982 236.073ZM146.283 235.248C145.931 235.578 145.436 235.886 144.798 236.172C144.182 236.458 143.566 236.601 142.95 236.601C141.872 236.601 141.025 236.282 140.409 235.644C139.815 234.984 139.518 233.994 139.518 232.674V225.018C139.518 224.82 139.441 224.688 139.287 224.622C139.133 224.556 138.792 224.523 138.264 224.523C138.198 224.523 138.11 224.435 138 224.259C137.912 224.083 137.868 223.951 137.868 223.863C137.868 223.775 137.923 223.698 138.033 223.632C138.539 223.478 139.056 223.159 139.584 222.675C140.112 222.191 140.541 221.74 140.871 221.322C141.201 220.904 141.399 220.695 141.465 220.695C141.773 220.695 141.927 220.805 141.927 221.025L141.861 222.477C141.861 222.785 142.125 222.939 142.653 222.939H146.415C146.635 222.939 146.745 223.203 146.745 223.731C146.745 224.259 146.635 224.523 146.415 224.523H143.148C142.554 224.523 142.18 224.567 142.026 224.655C141.894 224.743 141.828 225.007 141.828 225.447V231.684C141.828 232.806 142.037 233.609 142.455 234.093C142.873 234.555 143.39 234.786 144.006 234.786C145.106 234.786 145.931 234.577 146.481 234.159C146.503 234.137 146.536 234.126 146.58 234.126C146.734 234.126 146.811 234.269 146.811 234.555C146.811 234.731 146.635 234.962 146.283 235.248ZM156.759 232.641C156.759 235.281 155.175 236.601 152.007 236.601C151.193 236.601 150.434 236.458 149.73 236.172C149.026 235.908 148.619 235.655 148.509 235.413C148.245 234.863 148.102 234.192 148.08 233.4C148.08 233.202 148.256 233.103 148.608 233.103C148.938 233.103 149.114 233.18 149.136 233.334C149.224 233.708 149.422 234.082 149.73 234.456C150.06 234.83 150.445 235.138 150.885 235.38C151.347 235.6 151.82 235.71 152.304 235.71C153.008 235.71 153.547 235.501 153.921 235.083C154.317 234.665 154.515 234.148 154.515 233.532C154.515 232.916 154.317 232.399 153.921 231.981C153.525 231.541 152.865 230.991 151.941 230.331C150.995 229.671 150.236 229.033 149.664 228.417C149.114 227.779 148.839 227.009 148.839 226.107C148.839 225.491 149.004 224.908 149.334 224.358C149.664 223.808 150.137 223.357 150.753 223.005C151.369 222.653 152.117 222.477 152.997 222.477C154.317 222.477 155.23 222.73 155.736 223.236C156.11 223.72 156.297 224.578 156.297 225.81C156.297 225.898 156.22 225.942 156.066 225.942C155.912 225.942 155.692 225.865 155.406 225.711C155.12 225.535 154.977 225.381 154.977 225.249C154.955 224.765 154.735 224.325 154.317 223.929C153.899 223.533 153.404 223.335 152.832 223.335C152.238 223.335 151.754 223.533 151.38 223.929C151.006 224.325 150.819 224.787 150.819 225.315C150.819 225.843 151.006 226.327 151.38 226.767C151.754 227.207 152.084 227.515 152.37 227.691C152.502 227.779 152.667 227.9 152.865 228.054C153.085 228.186 153.338 228.34 153.624 228.516C153.998 228.736 154.306 228.934 154.548 229.11C154.812 229.286 155.065 229.495 155.307 229.737C155.549 229.957 155.813 230.276 156.099 230.694C156.539 231.332 156.759 231.981 156.759 232.641Z" fill="white"/>
<rect x="1.36987" y="1.08411" width="210.67" height="198.051" rx="20" fill="#2ECC71" stroke="#0D1B2A" stroke-width="2"/>
<path d="M143.453 48.8466H123.038C123.038 40.1572 115.713 33.0925 106.705 33.0925C97.6966 33.0925 90.3725 40.1572 90.3725 48.8466H69.9569C63.1942 48.8466 57.7075 54.1389 57.7075 60.6621V147.309C57.7075 153.832 63.1942 159.125 69.9569 159.125H143.453C150.216 159.125 155.703 153.832 155.703 147.309V60.6621C155.703 54.1389 150.216 48.8466 143.453 48.8466ZM82.2063 137.463C78.8122 137.463 76.0816 134.829 76.0816 131.555C76.0816 128.281 78.8122 125.647 82.2063 125.647C85.6004 125.647 88.331 128.281 88.331 131.555C88.331 134.829 85.6004 137.463 82.2063 137.463ZM82.2063 113.832C78.8122 113.832 76.0816 111.198 76.0816 107.924C76.0816 104.65 78.8122 102.016 82.2063 102.016C85.6004 102.016 88.331 104.65 88.331 107.924C88.331 111.198 85.6004 113.832 82.2063 113.832ZM82.2063 90.2009C78.8122 90.2009 76.0816 87.567 76.0816 84.2931C76.0816 81.0192 78.8122 78.3854 82.2063 78.3854C85.6004 78.3854 88.331 81.0192 88.331 84.2931C88.331 87.567 85.6004 90.2009 82.2063 90.2009ZM106.705 42.9388C110.099 42.9388 112.83 45.5727 112.83 48.8466C112.83 52.1204 110.099 54.7543 106.705 54.7543C103.311 54.7543 100.58 52.1204 100.58 48.8466C100.58 45.5727 103.311 42.9388 106.705 42.9388ZM139.37 133.524C139.37 134.608 138.451 135.494 137.328 135.494H100.58C99.4575 135.494 98.5388 134.608 98.5388 133.524V129.586C98.5388 128.503 99.4575 127.617 100.58 127.617H137.328C138.451 127.617 139.37 128.503 139.37 129.586V133.524ZM139.37 109.893C139.37 110.976 138.451 111.863 137.328 111.863H100.58C99.4575 111.863 98.5388 110.976 98.5388 109.893V105.955C98.5388 104.872 99.4575 103.986 100.58 103.986H137.328C138.451 103.986 139.37 104.872 139.37 105.955V109.893ZM139.37 86.2624C139.37 87.3455 138.451 88.2316 137.328 88.2316H100.58C99.4575 88.2316 98.5388 87.3455 98.5388 86.2624V82.3239C98.5388 81.2408 99.4575 80.3546 100.58 80.3546H137.328C138.451 80.3546 139.37 81.2408 139.37 82.3239V86.2624Z" fill="#0D1B2A"/>
</svg>
