<svg width="213" height="275" viewBox="0 0 213 275" fill="none" xmlns="http://www.w3.org/2000/svg">
<rect x="1" y="1.00024" width="210.67" height="198.051" rx="20" fill="#2ECC71" stroke="#0D1B2A" stroke-width="2"/>
<path d="M152.596 37.0098H54.8616C45.8686 37.0098 38.5725 42.2601 38.5725 48.7315V150.32C38.5725 156.791 45.8686 162.042 54.8616 162.042H152.596C161.589 162.042 168.885 156.791 168.885 150.32V48.7315C168.885 42.2601 161.589 37.0098 152.596 37.0098ZM103.729 68.2678C115.708 68.2678 125.448 75.2764 125.448 83.8967C125.448 92.5171 115.708 99.5257 103.729 99.5257C91.7495 99.5257 82.01 92.5171 82.01 83.8967C82.01 75.2764 91.7495 68.2678 103.729 68.2678ZM141.737 126.095C141.737 128.684 138.343 130.784 134.135 130.784H73.3225C69.1145 130.784 65.7209 128.684 65.7209 126.095V121.406C65.7209 113.641 75.9355 107.34 88.5256 107.34H90.2224C94.3965 108.586 98.9438 109.294 103.729 109.294C108.514 109.294 113.095 108.586 117.235 107.34H118.932C131.522 107.34 141.737 113.641 141.737 121.406V126.095Z" fill="#0D1B2A"/>
<path d="M94.4062 226.774C94.4062 227.786 94.1532 228.732 93.6472 229.612C93.1412 230.492 92.3822 231.207 91.3702 231.757C90.3582 232.307 89.0822 232.582 87.5422 232.582C85.7162 232.582 84.2422 232.318 83.1202 231.79C82.7682 231.636 82.5372 231.449 82.4272 231.229C82.0312 230.393 81.8332 229.128 81.8332 227.434C81.8332 227.258 81.8992 227.06 82.0312 226.84C82.1852 226.598 82.3612 226.477 82.5592 226.477C82.7352 226.477 83.0542 227.203 83.5162 228.655C84.1542 230.547 85.6392 231.493 87.9712 231.493C89.0932 231.493 89.9842 231.152 90.6442 230.47C91.3042 229.788 91.6342 228.864 91.6342 227.698C91.6342 225.85 89.9622 223.804 86.6182 221.56C85.2762 220.658 84.2422 219.745 83.5162 218.821C82.7902 217.897 82.4272 216.764 82.4272 215.422C82.4272 214.52 82.7132 213.673 83.2852 212.881C83.8572 212.067 84.6382 211.407 85.6282 210.901C86.6402 210.395 87.7842 210.142 89.0602 210.142C90.2042 210.142 91.1172 210.252 91.7992 210.472C92.4812 210.692 92.8772 210.802 92.9872 210.802C93.2072 210.802 93.3722 211.011 93.4822 211.429C93.6142 211.847 93.7022 212.331 93.7462 212.881C93.8122 213.409 93.8452 213.871 93.8452 214.267C93.8452 214.861 93.7682 215.158 93.6142 215.158C92.9762 215.158 92.5912 214.85 92.4592 214.234C92.3052 213.288 91.8872 212.551 91.2052 212.023C90.5232 211.495 89.6872 211.231 88.6972 211.231C87.6852 211.231 86.8052 211.561 86.0572 212.221C85.3312 212.859 84.9682 213.717 84.9682 214.795C84.9682 215.455 85.2102 216.093 85.6942 216.709C86.1782 217.303 86.7612 217.853 87.4432 218.359C88.1252 218.843 88.7632 219.283 89.3572 219.679C92.7232 221.857 94.4062 224.222 94.4062 226.774ZM105.39 231.163C105.038 231.493 104.543 231.801 103.905 232.087C103.289 232.373 102.673 232.516 102.057 232.516C100.979 232.516 100.132 232.197 99.5161 231.559C98.9221 230.899 98.6251 229.909 98.6251 228.589V220.933C98.6251 220.735 98.5481 220.603 98.3941 220.537C98.2401 220.471 97.8991 220.438 97.3711 220.438C97.3051 220.438 97.2171 220.35 97.1071 220.174C97.0191 219.998 96.9751 219.866 96.9751 219.778C96.9751 219.69 97.0301 219.613 97.1401 219.547C97.6461 219.393 98.1631 219.074 98.6911 218.59C99.2191 218.106 99.6481 217.655 99.9781 217.237C100.308 216.819 100.506 216.61 100.572 216.61C100.88 216.61 101.034 216.72 101.034 216.94L100.968 218.392C100.968 218.7 101.232 218.854 101.76 218.854H105.522C105.742 218.854 105.852 219.118 105.852 219.646C105.852 220.174 105.742 220.438 105.522 220.438H102.255C101.661 220.438 101.287 220.482 101.133 220.57C101.001 220.658 100.935 220.922 100.935 221.362V227.599C100.935 228.721 101.144 229.524 101.562 230.008C101.98 230.47 102.497 230.701 103.113 230.701C104.213 230.701 105.038 230.492 105.588 230.074C105.61 230.052 105.643 230.041 105.687 230.041C105.841 230.041 105.918 230.184 105.918 230.47C105.918 230.646 105.742 230.877 105.39 231.163ZM113.655 231.229C113.347 231.515 112.885 231.801 112.269 232.087C111.675 232.373 111.015 232.516 110.289 232.516C109.805 232.516 109.332 232.384 108.87 232.12C108.43 231.878 108.067 231.559 107.781 231.163C107.495 230.745 107.352 230.327 107.352 229.909C107.352 228.589 108.155 227.599 109.761 226.939L113.127 225.553C113.545 225.377 113.798 225.223 113.886 225.091C113.974 224.959 114.029 224.673 114.051 224.233L114.117 222.187V222.121C114.117 221.549 113.93 221.054 113.556 220.636C113.204 220.218 112.797 220.009 112.335 220.009C111.851 220.009 111.4 220.13 110.982 220.372C110.564 220.592 110.3 220.801 110.19 220.999C110.08 221.219 110.025 221.45 110.025 221.692L110.058 222.154C110.058 222.286 109.904 222.44 109.596 222.616C109.288 222.792 108.958 222.957 108.606 223.111C108.254 223.243 108.001 223.309 107.847 223.309C107.627 223.309 107.517 223.21 107.517 223.012C107.517 222.506 107.693 222.022 108.045 221.56C108.397 221.098 108.848 220.658 109.398 220.24C109.97 219.822 110.564 219.448 111.18 219.118C112.082 218.634 112.94 218.392 113.754 218.392C114.524 218.392 115.173 218.678 115.701 219.25C116.229 219.822 116.482 220.515 116.46 221.329L116.295 228.457V228.655C116.295 230.217 116.691 230.998 117.483 230.998C118.011 230.998 118.451 230.844 118.803 230.536C118.847 230.492 118.902 230.47 118.968 230.47C119.056 230.47 119.133 230.503 119.199 230.569C119.287 230.635 119.331 230.723 119.331 230.833V230.866C119.243 231.042 119.056 231.262 118.77 231.526C118.484 231.79 118.154 232.021 117.78 232.219C117.406 232.417 117.043 232.516 116.691 232.516C116.141 232.516 115.679 232.373 115.305 232.087C114.953 231.801 114.7 231.515 114.546 231.229C114.392 230.943 114.293 230.8 114.249 230.8C114.139 230.8 113.941 230.943 113.655 231.229ZM109.992 229.183C109.992 229.755 110.168 230.206 110.52 230.536C110.872 230.844 111.301 230.998 111.807 230.998C112.313 230.998 112.797 230.8 113.259 230.404C113.721 230.008 113.963 229.469 113.985 228.787L114.051 227.17V227.005C114.051 226.653 113.952 226.477 113.754 226.477C113.622 226.477 113.468 226.51 113.292 226.576C111.092 227.324 109.992 228.193 109.992 229.183ZM123.569 231.988L120.83 232.153C120.39 232.153 120.17 232.043 120.17 231.823C120.17 231.625 120.423 231.438 120.929 231.262C121.875 230.976 122.348 230.492 122.348 229.81V220.504C121.996 220.504 121.677 220.504 121.391 220.504C121.127 220.482 120.874 220.46 120.632 220.438C120.566 220.416 120.467 220.339 120.335 220.207C120.225 220.075 120.17 219.965 120.17 219.877C120.17 219.811 120.247 219.734 120.401 219.646C120.577 219.602 120.819 219.514 121.127 219.382C121.457 219.228 121.864 219.03 122.348 218.788C122.348 216.984 122.579 215.4 123.041 214.036C123.525 212.672 124.152 211.627 124.922 210.901C126.418 209.471 127.98 208.756 129.608 208.756C132.028 208.756 133.238 209.416 133.238 210.736C133.238 211.088 133.128 211.396 132.908 211.66C132.688 211.924 132.457 212.056 132.215 212.056C131.973 212.056 131.731 211.957 131.489 211.759C131.247 211.561 131.016 211.33 130.796 211.066C130.576 210.824 130.235 210.604 129.773 210.406C129.311 210.208 128.794 210.109 128.222 210.109C127.144 210.109 126.286 210.626 125.648 211.66C125.032 212.672 124.724 214.245 124.724 216.379V218.128C124.724 218.612 124.999 218.854 125.549 218.854H129.443C129.531 218.854 129.575 218.975 129.575 219.217C129.575 219.481 129.531 219.756 129.443 220.042C129.355 220.306 129.256 220.438 129.146 220.438H126.044C125.494 220.438 125.142 220.482 124.988 220.57C124.812 220.68 124.724 220.823 124.724 220.999V229.81C124.746 230.492 125.219 230.976 126.143 231.262C126.649 231.438 126.902 231.625 126.902 231.823C126.902 232.043 126.682 232.153 126.242 232.153L123.569 231.988ZM133.623 231.988L130.884 232.153C130.444 232.153 130.224 232.043 130.224 231.823C130.224 231.625 130.477 231.438 130.983 231.262C131.929 230.976 132.402 230.492 132.402 229.81V220.504C132.05 220.504 131.731 220.504 131.445 220.504C131.181 220.482 130.928 220.46 130.686 220.438C130.62 220.416 130.521 220.339 130.389 220.207C130.279 220.075 130.224 219.965 130.224 219.877C130.224 219.811 130.301 219.734 130.455 219.646C130.631 219.602 130.873 219.514 131.181 219.382C131.511 219.228 131.918 219.03 132.402 218.788C132.402 216.984 132.633 215.4 133.095 214.036C133.579 212.672 134.206 211.627 134.976 210.901C136.472 209.471 138.034 208.756 139.662 208.756C142.082 208.756 143.292 209.416 143.292 210.736C143.292 211.088 143.182 211.396 142.962 211.66C142.742 211.924 142.511 212.056 142.269 212.056C142.027 212.056 141.785 211.957 141.543 211.759C141.301 211.561 141.07 211.33 140.85 211.066C140.63 210.824 140.289 210.604 139.827 210.406C139.365 210.208 138.848 210.109 138.276 210.109C137.198 210.109 136.34 210.626 135.702 211.66C135.086 212.672 134.778 214.245 134.778 216.379V218.128C134.778 218.612 135.053 218.854 135.603 218.854H139.497C139.585 218.854 139.629 218.975 139.629 219.217C139.629 219.481 139.585 219.756 139.497 220.042C139.409 220.306 139.31 220.438 139.2 220.438H136.098C135.548 220.438 135.196 220.482 135.042 220.57C134.866 220.68 134.778 220.823 134.778 220.999V229.81C134.8 230.492 135.273 230.976 136.197 231.262C136.703 231.438 136.956 231.625 136.956 231.823C136.956 232.043 136.736 232.153 136.296 232.153L133.623 231.988ZM66.5616 265.12C65.6816 265.494 65.1756 265.681 65.0436 265.681C64.8676 265.681 64.7796 265.637 64.7796 265.549L64.9446 263.371V263.173C64.5486 263.789 63.9766 264.339 63.2286 264.823C62.4806 265.285 61.6116 265.516 60.6216 265.516C59.4336 265.516 58.3776 265.197 57.4536 264.559C56.5296 263.921 55.8036 263.085 55.2756 262.051C54.7696 260.995 54.5166 259.84 54.5166 258.586C54.5166 257.332 54.8246 256.155 55.4406 255.055C56.0566 253.955 56.9256 253.075 58.0476 252.415C59.1696 251.733 60.4676 251.392 61.9416 251.392C62.2496 251.392 62.5796 251.436 62.9316 251.524C63.3056 251.59 63.6466 251.678 63.9546 251.788C64.2626 251.898 64.4606 252.008 64.5486 252.118C64.6806 252.294 64.7906 252.382 64.8786 252.382C64.9446 252.382 64.9776 252.118 64.9776 251.59V246.376C64.9776 245.54 64.8456 244.968 64.5816 244.66C64.3396 244.33 63.9106 244.099 63.2946 243.967C63.1186 243.923 63.0306 243.78 63.0306 243.538C63.0306 243.296 63.1076 243.164 63.2616 243.142C63.7016 243.032 64.1306 242.911 64.5486 242.779C64.9886 242.647 65.4176 242.493 65.8356 242.317C66.6936 241.987 67.1886 241.822 67.3206 241.822C67.4306 241.822 67.4966 241.866 67.5186 241.954C67.5186 241.998 67.5186 242.075 67.5186 242.185C67.5186 242.295 67.5076 242.438 67.4856 242.614C67.3536 243.868 67.2876 245.166 67.2876 246.508V261.424C67.2876 262.854 67.5186 263.569 67.9806 263.569C68.6626 263.569 69.1686 263.536 69.4986 263.47H69.5976C69.8616 263.47 69.9936 263.602 69.9936 263.866C69.9936 264.196 69.8396 264.361 69.5316 264.361C68.9596 264.449 68.4206 264.559 67.9146 264.691C67.4306 264.801 66.9796 264.944 66.5616 265.12ZM58.8726 262.909C59.8846 263.657 60.8636 264.031 61.8096 264.031C62.7336 264.031 63.4926 263.745 64.0866 263.173C64.6806 262.601 64.9776 261.908 64.9776 261.094V256.639C64.9776 255.957 64.8016 255.308 64.4496 254.692C64.1196 254.076 63.6466 253.57 63.0306 253.174C62.4366 252.756 61.7326 252.547 60.9186 252.547C60.1266 252.547 59.4116 252.822 58.7736 253.372C58.1356 253.9 57.6736 254.549 57.3876 255.319C57.1016 256.045 56.9586 256.98 56.9586 258.124C56.9586 259.224 57.1346 260.203 57.4866 261.061C57.8606 261.897 58.3226 262.513 58.8726 262.909ZM75.6319 246.475C75.6099 246.937 75.4449 247.322 75.1369 247.63C74.8289 247.938 74.4329 248.103 73.9489 248.125C73.4649 248.103 73.0689 247.938 72.7609 247.63C72.4529 247.322 72.2989 246.926 72.2989 246.442C72.2989 245.958 72.4529 245.562 72.7609 245.254C73.0689 244.946 73.4649 244.792 73.9489 244.792C74.4329 244.792 74.8289 244.946 75.1369 245.254C75.4449 245.562 75.6099 245.969 75.6319 246.475ZM74.1799 264.988L71.5069 265.153C71.0669 265.153 70.8469 265.043 70.8469 264.823C70.8469 264.625 71.1549 264.427 71.7709 264.229C72.4089 264.031 72.7719 263.822 72.8599 263.602C72.9699 263.382 73.0249 263.184 73.0249 263.008V255.847C73.0249 254.483 72.5079 253.68 71.4739 253.438C71.2979 253.394 71.2099 253.251 71.2099 253.009C71.2099 252.767 71.2869 252.635 71.4409 252.613C72.4969 252.349 73.6189 251.832 74.8069 251.062C75.1589 250.842 75.3569 250.732 75.4009 250.732C75.5549 250.732 75.6319 250.787 75.6319 250.897C75.4339 252.899 75.3349 254.384 75.3349 255.352V263.008C75.3349 263.448 75.4669 263.734 75.7309 263.866C76.0169 263.998 76.3909 264.141 76.8529 264.295C77.2929 264.471 77.5129 264.647 77.5129 264.823C77.5129 265.043 77.2929 265.153 76.8529 265.153L74.1799 264.988ZM82.4338 264.988L79.7608 265.153C79.3208 265.153 79.1008 265.043 79.1008 264.823C79.1008 264.625 79.2988 264.46 79.6948 264.328C80.0908 264.196 80.3548 264.108 80.4868 264.064C80.6188 263.998 80.7618 263.877 80.9158 263.701C81.0478 263.525 81.1138 263.294 81.1138 263.008V255.913C81.1138 254.527 80.6628 253.735 79.7608 253.537C79.5848 253.493 79.4968 253.35 79.4968 253.108C79.4968 252.866 79.5738 252.734 79.7278 252.712C80.5418 252.558 81.1578 252.338 81.5758 252.052C81.9498 251.81 82.2578 251.612 82.4998 251.458C82.7638 251.304 82.9508 251.183 83.0608 251.095C83.3028 250.963 83.4238 250.886 83.4238 250.864H83.5228C83.5888 250.864 83.6328 250.941 83.6548 251.095C83.6548 251.381 83.6548 251.667 83.6548 251.953C83.6548 252.239 83.6438 252.525 83.6218 252.811C83.5998 253.361 83.5998 253.636 83.6218 253.636C83.6218 253.636 83.6768 253.581 83.7868 253.471C84.0948 253.075 84.2928 252.855 84.3808 252.811C85.4148 251.865 86.4268 251.392 87.4168 251.392C87.8788 251.392 88.2528 251.491 88.5388 251.689C88.8468 251.887 89.0008 252.151 89.0008 252.481C89.0008 252.811 88.8578 253.174 88.5718 253.57C88.3078 253.966 88.0548 254.164 87.8128 254.164C87.5708 254.164 87.2188 254.065 86.7568 253.867C86.2948 253.669 85.9538 253.57 85.7338 253.57C85.0958 253.57 84.5458 253.779 84.0838 254.197C83.6438 254.615 83.4238 255.33 83.4238 256.342V262.843C83.4458 263.415 84.0398 263.888 85.2058 264.262C85.7118 264.438 85.9648 264.625 85.9648 264.823C85.9648 265.043 85.7448 265.153 85.3048 265.153L82.4338 264.988ZM100.781 262.711C100.693 263.085 100.418 263.492 99.9563 263.932C99.4943 264.372 98.8893 264.746 98.1413 265.054C97.3933 265.362 96.5353 265.516 95.5673 265.516C94.5993 265.516 93.6973 265.219 92.8613 264.625C92.0473 264.009 91.3873 263.173 90.8813 262.117C90.3973 261.061 90.1553 259.862 90.1553 258.52C90.1553 257.178 90.4413 255.968 91.0133 254.89C91.6073 253.812 92.3993 252.965 93.3893 252.349C94.3793 251.711 95.4903 251.392 96.7223 251.392C98.0423 251.392 99.0763 251.667 99.8243 252.217C100.594 252.767 100.979 253.515 100.979 254.461C100.979 255.407 100.737 256.001 100.253 256.243C99.7913 256.463 99.1863 256.573 98.4383 256.573H93.0263C92.7183 256.573 92.4983 256.65 92.3663 256.804C92.2563 256.936 92.2013 257.266 92.2013 257.794C92.2013 258.806 92.4213 259.752 92.8613 260.632C93.3013 261.512 93.8843 262.216 94.6103 262.744C95.3583 263.272 96.1943 263.536 97.1183 263.536C98.4603 263.536 99.5163 263.052 100.286 262.084C100.44 261.93 100.561 261.853 100.649 261.853C100.803 261.853 100.88 261.963 100.88 262.183C100.88 262.337 100.847 262.513 100.781 262.711ZM92.8283 255.055C92.8283 255.385 93.0373 255.55 93.4553 255.55H96.1613C96.6673 255.55 97.1183 255.539 97.5143 255.517C97.9323 255.473 98.2843 255.429 98.5703 255.385C98.7903 255.363 98.9003 255.044 98.9003 254.428C98.9003 253.834 98.6253 253.35 98.0753 252.976C97.5253 252.602 96.8653 252.415 96.0953 252.415C95.5673 252.415 95.0503 252.569 94.5443 252.877C94.0603 253.163 93.6533 253.515 93.3233 253.933C92.9933 254.329 92.8283 254.703 92.8283 255.055ZM114.235 262.447C114.235 262.887 113.971 263.349 113.443 263.833C112.915 264.295 112.211 264.691 111.331 265.021C110.473 265.351 109.549 265.516 108.559 265.516C107.569 265.516 106.656 265.23 105.82 264.658C105.006 264.064 104.346 263.272 103.84 262.282C103.356 261.27 103.114 260.126 103.114 258.85C103.114 257.574 103.422 256.375 104.038 255.253C104.654 254.109 105.479 253.185 106.513 252.481C107.547 251.777 108.691 251.425 109.945 251.425C111.815 251.425 113.179 251.953 114.037 253.009C114.147 253.185 114.202 253.35 114.202 253.504C114.202 253.702 114.037 253.922 113.707 254.164C113.399 254.406 113.113 254.527 112.849 254.527C112.585 254.527 112.343 254.417 112.123 254.197C111.727 253.757 111.397 253.427 111.133 253.207C110.869 252.987 110.583 252.844 110.275 252.778C109.967 252.69 109.549 252.646 109.021 252.646C107.877 252.646 106.986 253.141 106.348 254.131C105.71 255.099 105.391 256.331 105.391 257.827C105.391 258.817 105.611 259.774 106.051 260.698C106.513 261.6 107.14 262.348 107.932 262.942C108.724 263.514 109.626 263.8 110.638 263.8C111.298 263.8 111.826 263.679 112.222 263.437C112.64 263.173 113.08 262.744 113.542 262.15C113.652 262.04 113.751 261.985 113.839 261.985C113.927 261.985 114.015 262.04 114.103 262.15C114.191 262.238 114.235 262.337 114.235 262.447ZM123.969 264.163C123.617 264.493 123.122 264.801 122.484 265.087C121.868 265.373 121.252 265.516 120.636 265.516C119.558 265.516 118.711 265.197 118.095 264.559C117.501 263.899 117.204 262.909 117.204 261.589V253.933C117.204 253.735 117.127 253.603 116.973 253.537C116.819 253.471 116.478 253.438 115.95 253.438C115.884 253.438 115.796 253.35 115.686 253.174C115.598 252.998 115.554 252.866 115.554 252.778C115.554 252.69 115.609 252.613 115.719 252.547C116.225 252.393 116.742 252.074 117.27 251.59C117.798 251.106 118.227 250.655 118.557 250.237C118.887 249.819 119.085 249.61 119.151 249.61C119.459 249.61 119.613 249.72 119.613 249.94L119.547 251.392C119.547 251.7 119.811 251.854 120.339 251.854H124.101C124.321 251.854 124.431 252.118 124.431 252.646C124.431 253.174 124.321 253.438 124.101 253.438H120.834C120.24 253.438 119.866 253.482 119.712 253.57C119.58 253.658 119.514 253.922 119.514 254.362V260.599C119.514 261.721 119.723 262.524 120.141 263.008C120.559 263.47 121.076 263.701 121.692 263.701C122.792 263.701 123.617 263.492 124.167 263.074C124.189 263.052 124.222 263.041 124.266 263.041C124.42 263.041 124.497 263.184 124.497 263.47C124.497 263.646 124.321 263.877 123.969 264.163ZM139.956 258.223C139.956 259.499 139.659 260.698 139.065 261.82C138.493 262.92 137.646 263.811 136.524 264.493C135.424 265.175 134.082 265.516 132.498 265.516C131.266 265.516 130.144 265.23 129.132 264.658C128.142 264.086 127.361 263.305 126.789 262.315C126.217 261.303 125.931 260.159 125.931 258.883C125.931 257.937 126.118 257.024 126.492 256.144C126.866 255.242 127.383 254.439 128.043 253.735C128.725 253.009 129.495 252.437 130.353 252.019C131.211 251.601 132.124 251.392 133.092 251.392C134.39 251.392 135.556 251.7 136.59 252.316C137.624 252.91 138.438 253.724 139.032 254.758C139.648 255.77 139.956 256.925 139.956 258.223ZM128.637 258.124C128.637 259.246 128.835 260.302 129.231 261.292C129.649 262.26 130.199 263.041 130.881 263.635C131.585 264.229 132.355 264.526 133.191 264.526C134.291 264.526 135.127 264.295 135.699 263.833C136.293 263.349 136.7 262.689 136.92 261.853C137.14 260.995 137.25 260.005 137.25 258.883C137.25 257.739 137.041 256.683 136.623 255.715C136.227 254.725 135.677 253.933 134.973 253.339C134.291 252.723 133.499 252.415 132.597 252.415C129.957 252.415 128.637 254.318 128.637 258.124ZM145.405 264.988L142.732 265.153C142.292 265.153 142.072 265.043 142.072 264.823C142.072 264.625 142.27 264.46 142.666 264.328C143.062 264.196 143.326 264.108 143.458 264.064C143.59 263.998 143.733 263.877 143.887 263.701C144.019 263.525 144.085 263.294 144.085 263.008V255.913C144.085 254.527 143.634 253.735 142.732 253.537C142.556 253.493 142.468 253.35 142.468 253.108C142.468 252.866 142.545 252.734 142.699 252.712C143.513 252.558 144.129 252.338 144.547 252.052C144.921 251.81 145.229 251.612 145.471 251.458C145.735 251.304 145.922 251.183 146.032 251.095C146.274 250.963 146.395 250.886 146.395 250.864H146.494C146.56 250.864 146.604 250.941 146.626 251.095C146.626 251.381 146.626 251.667 146.626 251.953C146.626 252.239 146.615 252.525 146.593 252.811C146.571 253.361 146.571 253.636 146.593 253.636C146.593 253.636 146.648 253.581 146.758 253.471C147.066 253.075 147.264 252.855 147.352 252.811C148.386 251.865 149.398 251.392 150.388 251.392C150.85 251.392 151.224 251.491 151.51 251.689C151.818 251.887 151.972 252.151 151.972 252.481C151.972 252.811 151.829 253.174 151.543 253.57C151.279 253.966 151.026 254.164 150.784 254.164C150.542 254.164 150.19 254.065 149.728 253.867C149.266 253.669 148.925 253.57 148.705 253.57C148.067 253.57 147.517 253.779 147.055 254.197C146.615 254.615 146.395 255.33 146.395 256.342V262.843C146.417 263.415 147.011 263.888 148.177 264.262C148.683 264.438 148.936 264.625 148.936 264.823C148.936 265.043 148.716 265.153 148.276 265.153L145.405 264.988ZM157.746 269.872C157.416 270.686 157.108 271.445 156.822 272.149C156.558 272.853 156.239 273.414 155.865 273.832C155.491 274.25 154.952 274.459 154.248 274.459C153.83 274.459 153.445 274.349 153.093 274.129C152.741 273.909 152.565 273.623 152.565 273.271C152.565 272.611 152.862 272.281 153.456 272.281L154.776 272.479C155.018 272.479 155.227 272.358 155.403 272.116C155.909 271.236 156.415 270.246 156.921 269.146C157.427 268.068 157.922 266.88 158.406 265.582C158.472 265.384 158.505 265.109 158.505 264.757C158.505 264.361 158.461 264.064 158.373 263.866L154.545 254.197C154.171 253.273 153.676 252.734 153.06 252.58C152.554 252.404 152.301 252.206 152.301 251.986C152.301 251.788 152.521 251.689 152.961 251.689L155.37 251.854L157.878 251.689C158.318 251.689 158.538 251.81 158.538 252.052C158.538 252.36 158.219 252.602 157.581 252.778C157.141 252.91 156.921 253.262 156.921 253.834C156.921 253.988 157.009 254.296 157.185 254.758L159.792 261.226C159.858 261.424 159.935 261.523 160.023 261.523C160.111 261.523 160.199 261.413 160.287 261.193L162.498 255.319C162.674 254.901 162.762 254.428 162.762 253.9C162.762 253.35 162.498 252.965 161.97 252.745C161.42 252.525 161.145 252.294 161.145 252.052C161.145 251.81 161.365 251.689 161.805 251.689L164.148 251.854L166.095 251.689C166.535 251.689 166.755 251.788 166.755 251.986C166.755 252.206 166.546 252.382 166.128 252.514C165.71 252.668 165.314 252.954 164.94 253.372C164.566 253.79 164.269 254.263 164.049 254.791L159.561 265.483L159.033 266.803C158.681 267.617 158.252 268.64 157.746 269.872Z" fill="white"/>
</svg>
