<svg width="213" height="288" viewBox="0 0 213 288" fill="none" xmlns="http://www.w3.org/2000/svg">
<path d="M59.0895 245.003L54.8655 245.168C54.2275 245.168 53.9085 245.036 53.9085 244.772C53.9085 244.53 54.3045 244.343 55.0965 244.211C56.7465 243.903 57.5715 243.045 57.5715 241.637V226.622C57.5715 225.918 57.4395 225.489 57.1755 225.335C56.9115 225.159 56.4165 225.071 55.6905 225.071H52.9845C52.4125 225.071 51.8735 225.181 51.3675 225.401C50.8615 225.621 50.5205 225.896 50.3445 226.226C50.1685 226.578 49.9375 226.897 49.6515 227.183C49.3875 227.469 49.1455 227.612 48.9255 227.612C48.7715 227.612 48.6945 227.48 48.6945 227.216C48.6945 227.018 48.7495 226.787 48.8595 226.523C49.3435 225.533 49.6845 224.312 49.8825 222.86C49.9485 222.354 50.1355 222.101 50.4435 222.101C50.6195 222.101 50.8945 222.453 51.2685 223.157C51.5105 223.597 52.2805 223.817 53.5785 223.817H66.1515C66.9875 223.817 67.6255 223.663 68.0655 223.355C68.2415 223.245 68.4395 223.08 68.6595 222.86C68.9015 222.64 69.0995 222.475 69.2535 222.365C69.4075 222.233 69.5615 222.167 69.7155 222.167C69.8695 222.167 69.9465 222.42 69.9465 222.926L69.9135 223.223C69.7375 223.949 69.6055 224.587 69.5175 225.137C69.4295 225.665 69.3855 226.116 69.3855 226.49V226.886C69.3855 227.106 69.3305 227.337 69.2205 227.579C69.1325 227.821 69.0115 227.942 68.8575 227.942C68.6155 227.942 68.4065 227.491 68.2305 226.589C68.0765 225.577 66.9875 225.071 64.9635 225.071C63.9515 225.071 63.0935 225.082 62.3895 225.104C61.6855 225.126 61.1355 225.159 60.7395 225.203C60.3875 225.225 60.2115 225.698 60.2115 226.622V241.637C60.2115 243.067 61.0805 243.925 62.8185 244.211C63.5445 244.343 63.9075 244.53 63.9075 244.772C63.9075 245.036 63.5885 245.168 62.9505 245.168L59.0895 245.003ZM74.2009 244.937L71.5279 245.102C71.0879 245.102 70.8679 244.992 70.8679 244.772C70.8679 244.574 71.0659 244.409 71.4619 244.277C71.8579 244.145 72.1219 244.057 72.2539 244.013C72.3859 243.947 72.5289 243.826 72.6829 243.65C72.8149 243.474 72.8809 243.243 72.8809 242.957V235.862C72.8809 234.476 72.4299 233.684 71.5279 233.486C71.3519 233.442 71.2639 233.299 71.2639 233.057C71.2639 232.815 71.3409 232.683 71.4949 232.661C72.3089 232.507 72.9249 232.287 73.3429 232.001C73.7169 231.759 74.0249 231.561 74.2669 231.407C74.5309 231.253 74.7179 231.132 74.8279 231.044C75.0699 230.912 75.1909 230.835 75.1909 230.813H75.2899C75.3559 230.813 75.3999 230.89 75.4219 231.044C75.4219 231.33 75.4219 231.616 75.4219 231.902C75.4219 232.188 75.4109 232.474 75.3889 232.76C75.3669 233.31 75.3669 233.585 75.3889 233.585C75.3889 233.585 75.4439 233.53 75.5539 233.42C75.8619 233.024 76.0599 232.804 76.1479 232.76C77.1819 231.814 78.1939 231.341 79.1839 231.341C79.6459 231.341 80.0199 231.44 80.3059 231.638C80.6139 231.836 80.7679 232.1 80.7679 232.43C80.7679 232.76 80.6249 233.123 80.3389 233.519C80.0749 233.915 79.8219 234.113 79.5799 234.113C79.3379 234.113 78.9859 234.014 78.5239 233.816C78.0619 233.618 77.7209 233.519 77.5009 233.519C76.8629 233.519 76.3129 233.728 75.8509 234.146C75.4109 234.564 75.1909 235.279 75.1909 236.291V242.792C75.2129 243.364 75.8069 243.837 76.9729 244.211C77.4789 244.387 77.7319 244.574 77.7319 244.772C77.7319 244.992 77.5119 245.102 77.0719 245.102L74.2009 244.937ZM92.5484 242.66C92.4604 243.034 92.1854 243.441 91.7234 243.881C91.2614 244.321 90.6564 244.695 89.9084 245.003C89.1604 245.311 88.3024 245.465 87.3344 245.465C86.3664 245.465 85.4644 245.168 84.6284 244.574C83.8144 243.958 83.1544 243.122 82.6484 242.066C82.1644 241.01 81.9224 239.811 81.9224 238.469C81.9224 237.127 82.2084 235.917 82.7804 234.839C83.3744 233.761 84.1664 232.914 85.1564 232.298C86.1464 231.66 87.2574 231.341 88.4894 231.341C89.8094 231.341 90.8434 231.616 91.5914 232.166C92.3614 232.716 92.7464 233.464 92.7464 234.41C92.7464 235.356 92.5044 235.95 92.0204 236.192C91.5584 236.412 90.9534 236.522 90.2054 236.522H84.7934C84.4854 236.522 84.2654 236.599 84.1334 236.753C84.0234 236.885 83.9684 237.215 83.9684 237.743C83.9684 238.755 84.1884 239.701 84.6284 240.581C85.0684 241.461 85.6514 242.165 86.3774 242.693C87.1254 243.221 87.9614 243.485 88.8854 243.485C90.2274 243.485 91.2834 243.001 92.0534 242.033C92.2074 241.879 92.3284 241.802 92.4164 241.802C92.5704 241.802 92.6474 241.912 92.6474 242.132C92.6474 242.286 92.6144 242.462 92.5484 242.66ZM84.5954 235.004C84.5954 235.334 84.8044 235.499 85.2224 235.499H87.9284C88.4344 235.499 88.8854 235.488 89.2814 235.466C89.6994 235.422 90.0514 235.378 90.3374 235.334C90.5574 235.312 90.6674 234.993 90.6674 234.377C90.6674 233.783 90.3924 233.299 89.8424 232.925C89.2924 232.551 88.6324 232.364 87.8624 232.364C87.3344 232.364 86.8174 232.518 86.3114 232.826C85.8274 233.112 85.4204 233.464 85.0904 233.882C84.7604 234.278 84.5954 234.652 84.5954 235.004ZM97.8513 244.937L95.1783 245.102C94.7383 245.102 94.5183 244.992 94.5183 244.772C94.5183 244.64 94.6063 244.53 94.7823 244.442C94.9583 244.332 95.1453 244.244 95.3433 244.178C95.5413 244.112 95.6623 244.079 95.7063 244.079C95.7503 244.079 95.8603 244.035 96.0363 243.947C96.2123 243.859 96.3223 243.782 96.3663 243.716C96.5863 243.496 96.6963 243.243 96.6963 242.957V235.862C96.6963 234.454 96.2453 233.662 95.3433 233.486C95.1673 233.442 95.0793 233.299 95.0793 233.057C95.0793 232.815 95.1563 232.683 95.3103 232.661C96.4543 232.397 97.6643 231.792 98.9403 230.846C98.9623 230.824 99.0063 230.813 99.0723 230.813C99.1163 230.813 99.1713 230.912 99.2373 231.11L99.0063 233.255C99.0063 233.409 99.0173 233.497 99.0393 233.519C99.4573 233.167 99.9633 232.826 100.557 232.496C101.173 232.166 101.833 231.891 102.537 231.671C103.241 231.451 103.923 231.341 104.583 231.341C105.243 231.341 105.848 231.55 106.398 231.968C106.948 232.364 107.388 232.903 107.718 233.585C108.048 234.267 108.213 235.048 108.213 235.928V242.957C108.213 243.397 108.345 243.683 108.609 243.815C108.895 243.947 109.269 244.09 109.731 244.244C110.171 244.42 110.391 244.596 110.391 244.772C110.391 244.992 110.171 245.102 109.731 245.102L107.091 244.937L104.385 245.102C103.945 245.102 103.725 244.992 103.725 244.772C103.725 244.574 103.978 244.387 104.484 244.211C104.528 244.211 104.572 244.2 104.616 244.178C105.364 243.936 105.782 243.639 105.87 243.287C105.892 243.243 105.903 243.188 105.903 243.122C105.903 243.056 105.903 243.001 105.903 242.957V236.027C105.903 235.081 105.628 234.333 105.078 233.783C104.528 233.233 103.725 232.958 102.669 232.958C101.591 232.958 100.711 233.189 100.029 233.651C99.3473 234.113 99.0063 234.949 99.0063 236.159V242.957C99.0063 243.397 99.1383 243.683 99.4023 243.815C99.6883 243.947 100.062 244.09 100.524 244.244C100.964 244.42 101.184 244.596 101.184 244.772C101.184 244.992 100.964 245.102 100.524 245.102L97.8513 244.937ZM124.329 245.069C123.449 245.443 122.943 245.63 122.811 245.63C122.635 245.63 122.547 245.586 122.547 245.498L122.712 243.32V243.122C122.316 243.738 121.744 244.288 120.996 244.772C120.248 245.234 119.379 245.465 118.389 245.465C117.201 245.465 116.145 245.146 115.221 244.508C114.297 243.87 113.571 243.034 113.043 242C112.537 240.944 112.284 239.789 112.284 238.535C112.284 237.281 112.592 236.104 113.208 235.004C113.824 233.904 114.693 233.024 115.815 232.364C116.937 231.682 118.235 231.341 119.709 231.341C120.017 231.341 120.347 231.385 120.699 231.473C121.073 231.539 121.414 231.627 121.722 231.737C122.03 231.847 122.228 231.957 122.316 232.067C122.448 232.243 122.558 232.331 122.646 232.331C122.712 232.331 122.745 232.067 122.745 231.539V226.325C122.745 225.489 122.613 224.917 122.349 224.609C122.107 224.279 121.678 224.048 121.062 223.916C120.886 223.872 120.798 223.729 120.798 223.487C120.798 223.245 120.875 223.113 121.029 223.091C121.469 222.981 121.898 222.86 122.316 222.728C122.756 222.596 123.185 222.442 123.603 222.266C124.461 221.936 124.956 221.771 125.088 221.771C125.198 221.771 125.264 221.815 125.286 221.903C125.286 221.947 125.286 222.024 125.286 222.134C125.286 222.244 125.275 222.387 125.253 222.563C125.121 223.817 125.055 225.115 125.055 226.457V241.373C125.055 242.803 125.286 243.518 125.748 243.518C126.43 243.518 126.936 243.485 127.266 243.419H127.365C127.629 243.419 127.761 243.551 127.761 243.815C127.761 244.145 127.607 244.31 127.299 244.31C126.727 244.398 126.188 244.508 125.682 244.64C125.198 244.75 124.747 244.893 124.329 245.069ZM116.64 242.858C117.652 243.606 118.631 243.98 119.577 243.98C120.501 243.98 121.26 243.694 121.854 243.122C122.448 242.55 122.745 241.857 122.745 241.043V236.588C122.745 235.906 122.569 235.257 122.217 234.641C121.887 234.025 121.414 233.519 120.798 233.123C120.204 232.705 119.5 232.496 118.686 232.496C117.894 232.496 117.179 232.771 116.541 233.321C115.903 233.849 115.441 234.498 115.155 235.268C114.869 235.994 114.726 236.929 114.726 238.073C114.726 239.173 114.902 240.152 115.254 241.01C115.628 241.846 116.09 242.462 116.64 242.858ZM137.491 241.505C137.491 244.145 135.907 245.465 132.739 245.465C131.925 245.465 131.166 245.322 130.462 245.036C129.758 244.772 129.351 244.519 129.241 244.277C128.977 243.727 128.834 243.056 128.812 242.264C128.812 242.066 128.988 241.967 129.34 241.967C129.67 241.967 129.846 242.044 129.868 242.198C129.956 242.572 130.154 242.946 130.462 243.32C130.792 243.694 131.177 244.002 131.617 244.244C132.079 244.464 132.552 244.574 133.036 244.574C133.74 244.574 134.279 244.365 134.653 243.947C135.049 243.529 135.247 243.012 135.247 242.396C135.247 241.78 135.049 241.263 134.653 240.845C134.257 240.405 133.597 239.855 132.673 239.195C131.727 238.535 130.968 237.897 130.396 237.281C129.846 236.643 129.571 235.873 129.571 234.971C129.571 234.355 129.736 233.772 130.066 233.222C130.396 232.672 130.869 232.221 131.485 231.869C132.101 231.517 132.849 231.341 133.729 231.341C135.049 231.341 135.962 231.594 136.468 232.1C136.842 232.584 137.029 233.442 137.029 234.674C137.029 234.762 136.952 234.806 136.798 234.806C136.644 234.806 136.424 234.729 136.138 234.575C135.852 234.399 135.709 234.245 135.709 234.113C135.687 233.629 135.467 233.189 135.049 232.793C134.631 232.397 134.136 232.199 133.564 232.199C132.97 232.199 132.486 232.397 132.112 232.793C131.738 233.189 131.551 233.651 131.551 234.179C131.551 234.707 131.738 235.191 132.112 235.631C132.486 236.071 132.816 236.379 133.102 236.555C133.234 236.643 133.399 236.764 133.597 236.918C133.817 237.05 134.07 237.204 134.356 237.38C134.73 237.6 135.038 237.798 135.28 237.974C135.544 238.15 135.797 238.359 136.039 238.601C136.281 238.821 136.545 239.14 136.831 239.558C137.271 240.196 137.491 240.845 137.491 241.505ZM155.723 245.003C155.107 245.333 154.337 245.498 153.413 245.498C152.379 245.498 151.422 245.311 150.542 244.937C149.662 244.563 148.958 244.035 148.43 243.353C147.902 242.671 147.638 241.868 147.638 240.944C147.638 237.798 149.486 235.389 153.182 233.717L153.842 233.42L153.347 232.892C151.961 231.506 151.268 230.208 151.268 228.998C151.268 228.206 151.477 227.535 151.895 226.985C152.313 226.413 152.863 225.984 153.545 225.698C154.227 225.39 154.942 225.236 155.69 225.236C156.834 225.236 157.813 225.544 158.627 226.16C159.441 226.776 159.848 227.601 159.848 228.635C159.848 229.647 159.562 230.549 158.99 231.341C158.44 232.133 157.659 232.716 156.647 233.09L156.185 233.255L156.482 233.585C156.614 233.739 156.845 233.992 157.175 234.344C157.505 234.674 157.934 235.103 158.462 235.631C158.968 236.181 159.419 236.687 159.815 237.149C160.211 237.589 160.53 237.996 160.772 238.37L161.168 238.964L161.762 238.337C162.158 237.897 162.565 237.424 162.983 236.918C163.401 236.39 163.797 235.884 164.171 235.4C164.545 234.916 164.842 234.498 165.062 234.146C165.282 233.772 165.392 233.541 165.392 233.453C165.392 233.255 165.304 233.046 165.128 232.826C164.974 232.606 164.809 232.485 164.633 232.463C164.435 232.419 164.303 232.364 164.237 232.298C164.127 232.188 164.072 232.122 164.072 232.1C164.072 231.858 164.314 231.737 164.798 231.737L167.141 231.902C167.317 231.902 167.548 231.88 167.834 231.836C168.12 231.792 168.45 231.726 168.824 231.638C169.528 231.484 169.979 231.407 170.177 231.407C170.529 231.407 170.705 231.517 170.705 231.737C170.705 231.825 170.606 231.946 170.408 232.1C170.21 232.232 170.034 232.309 169.88 232.331C168.956 232.397 168.153 232.738 167.471 233.354L161.564 239.558L162.125 240.35C162.477 240.834 162.741 241.197 162.917 241.439C163.093 241.681 163.258 241.901 163.412 242.099C163.588 242.275 163.808 242.506 164.072 242.792C164.49 243.21 164.919 243.496 165.359 243.65C165.799 243.804 166.195 243.881 166.547 243.881C166.943 243.881 167.174 243.87 167.24 243.848C167.394 243.848 167.57 243.815 167.768 243.749C167.9 243.705 167.966 243.683 167.966 243.683C168.032 243.683 168.109 243.65 168.197 243.584C168.329 243.474 168.516 243.342 168.758 243.188C169 243.034 169.231 242.957 169.451 242.957C169.671 242.957 169.781 243.199 169.781 243.683C169.781 243.771 169.583 243.969 169.187 244.277C168.769 244.563 168.23 244.838 167.57 245.102C166.91 245.366 166.305 245.498 165.755 245.498C165.007 245.498 164.369 245.377 163.841 245.135C163.313 244.915 162.807 244.53 162.323 243.98C161.861 243.43 161.311 242.66 160.673 241.67L160.244 240.977C160.002 241.219 159.661 241.593 159.221 242.099C158.825 242.561 158.528 242.869 158.33 243.023C158.242 243.111 158.132 243.221 158 243.353C157.868 243.463 157.714 243.606 157.538 243.782C157.362 243.958 157.197 244.112 157.043 244.244C156.889 244.376 156.757 244.464 156.647 244.508L155.723 245.003ZM155.129 232.034L155.624 232.595L156.053 232.397C157.263 231.847 157.868 230.626 157.868 228.734C157.868 228.096 157.648 227.513 157.208 226.985C156.768 226.435 156.229 226.16 155.591 226.16C154.953 226.16 154.403 226.347 153.941 226.721C153.479 227.073 153.248 227.524 153.248 228.074C153.248 229.152 153.875 230.472 155.129 232.034ZM150.278 239.69C150.278 240.768 150.652 241.648 151.4 242.33C152.148 243.012 153.061 243.353 154.139 243.353C155.217 243.353 156.174 243.144 157.01 242.726C157.846 242.286 158.693 241.604 159.551 240.68L159.848 240.383L159.452 239.756C159.166 239.316 158.814 238.843 158.396 238.337C157.978 237.809 157.483 237.248 156.911 236.654C156.339 236.082 155.866 235.609 155.492 235.235C155.14 234.839 154.887 234.564 154.733 234.41L154.337 233.981L153.644 234.245C152.676 234.619 151.95 235.103 151.466 235.697C150.982 236.269 150.663 236.896 150.509 237.578C150.355 238.26 150.278 238.964 150.278 239.69ZM66.0509 278.003L61.8269 278.168C61.1889 278.168 60.8699 278.036 60.8699 277.772C60.8699 277.53 61.2769 277.332 62.0909 277.178C62.8829 277.046 63.4879 276.804 63.9059 276.452C64.3239 276.078 64.5329 275.517 64.5329 274.769V259.853C64.5329 259.083 64.3679 258.533 64.0379 258.203C63.7299 257.873 63.1909 257.631 62.4209 257.477C61.6289 257.345 61.2329 257.125 61.2329 256.817C61.2329 256.575 61.5519 256.454 62.1899 256.454L66.0509 256.553L69.6479 256.454C70.2859 256.454 70.6049 256.575 70.6049 256.817C70.6049 257.125 70.2089 257.345 69.4169 257.477C68.6249 257.631 68.0529 257.884 67.7009 258.236C67.3489 258.566 67.1729 259.105 67.1729 259.853V274.769C67.1729 275.517 67.3819 276.078 67.7999 276.452C68.2399 276.804 68.8669 277.046 69.6809 277.178C70.4729 277.332 70.8689 277.53 70.8689 277.772C70.8689 278.036 70.5499 278.168 69.9119 278.168L66.0509 278.003ZM75.5828 277.937L72.9098 278.102C72.4698 278.102 72.2498 277.992 72.2498 277.772C72.2498 277.64 72.3378 277.53 72.5138 277.442C72.6898 277.332 72.8768 277.244 73.0748 277.178C73.2728 277.112 73.3938 277.079 73.4378 277.079C73.4818 277.079 73.5918 277.035 73.7678 276.947C73.9438 276.859 74.0538 276.782 74.0978 276.716C74.3178 276.496 74.4278 276.243 74.4278 275.957V268.862C74.4278 267.454 73.9768 266.662 73.0748 266.486C72.8988 266.442 72.8108 266.299 72.8108 266.057C72.8108 265.815 72.8878 265.683 73.0418 265.661C74.1858 265.397 75.3958 264.792 76.6718 263.846C76.6938 263.824 76.7378 263.813 76.8038 263.813C76.8478 263.813 76.9028 263.912 76.9688 264.11L76.7378 266.255C76.7378 266.409 76.7488 266.497 76.7708 266.519C77.1888 266.167 77.6948 265.826 78.2888 265.496C78.9048 265.166 79.5648 264.891 80.2688 264.671C80.9728 264.451 81.6548 264.341 82.3148 264.341C82.9748 264.341 83.5798 264.55 84.1298 264.968C84.6798 265.364 85.1198 265.903 85.4498 266.585C85.7798 267.267 85.9448 268.048 85.9448 268.928V275.957C85.9448 276.397 86.0768 276.683 86.3408 276.815C86.6268 276.947 87.0008 277.09 87.4628 277.244C87.9028 277.42 88.1228 277.596 88.1228 277.772C88.1228 277.992 87.9028 278.102 87.4628 278.102L84.8228 277.937L82.1168 278.102C81.6768 278.102 81.4568 277.992 81.4568 277.772C81.4568 277.574 81.7098 277.387 82.2158 277.211C82.2598 277.211 82.3038 277.2 82.3478 277.178C83.0958 276.936 83.5138 276.639 83.6018 276.287C83.6238 276.243 83.6348 276.188 83.6348 276.122C83.6348 276.056 83.6348 276.001 83.6348 275.957V269.027C83.6348 268.081 83.3598 267.333 82.8098 266.783C82.2598 266.233 81.4568 265.958 80.4008 265.958C79.3228 265.958 78.4428 266.189 77.7608 266.651C77.0788 267.113 76.7378 267.949 76.7378 269.159V275.957C76.7378 276.397 76.8698 276.683 77.1338 276.815C77.4198 276.947 77.7938 277.09 78.2558 277.244C78.6958 277.42 78.9158 277.596 78.9158 277.772C78.9158 277.992 78.6958 278.102 78.2558 278.102L75.5828 277.937ZM98.5291 274.505C98.5291 277.145 96.9451 278.465 93.7771 278.465C92.9631 278.465 92.2041 278.322 91.5001 278.036C90.7961 277.772 90.3891 277.519 90.2791 277.277C90.0151 276.727 89.8721 276.056 89.8501 275.264C89.8501 275.066 90.0261 274.967 90.3781 274.967C90.7081 274.967 90.8841 275.044 90.9061 275.198C90.9941 275.572 91.1921 275.946 91.5001 276.32C91.8301 276.694 92.2151 277.002 92.6551 277.244C93.1171 277.464 93.5901 277.574 94.0741 277.574C94.7781 277.574 95.3171 277.365 95.6911 276.947C96.0871 276.529 96.2851 276.012 96.2851 275.396C96.2851 274.78 96.0871 274.263 95.6911 273.845C95.2951 273.405 94.6351 272.855 93.7111 272.195C92.7651 271.535 92.0061 270.897 91.4341 270.281C90.8841 269.643 90.6091 268.873 90.6091 267.971C90.6091 267.355 90.7741 266.772 91.1041 266.222C91.4341 265.672 91.9071 265.221 92.5231 264.869C93.1391 264.517 93.8871 264.341 94.7671 264.341C96.0871 264.341 97.0001 264.594 97.5061 265.1C97.8801 265.584 98.0671 266.442 98.0671 267.674C98.0671 267.762 97.9901 267.806 97.8361 267.806C97.6821 267.806 97.4621 267.729 97.1761 267.575C96.8901 267.399 96.7471 267.245 96.7471 267.113C96.7251 266.629 96.5051 266.189 96.0871 265.793C95.6691 265.397 95.1741 265.199 94.6021 265.199C94.0081 265.199 93.5241 265.397 93.1501 265.793C92.7761 266.189 92.5891 266.651 92.5891 267.179C92.5891 267.707 92.7761 268.191 93.1501 268.631C93.5241 269.071 93.8541 269.379 94.1401 269.555C94.2721 269.643 94.4371 269.764 94.6351 269.918C94.8551 270.05 95.1081 270.204 95.3941 270.38C95.7681 270.6 96.0761 270.798 96.3181 270.974C96.5821 271.15 96.8351 271.359 97.0771 271.601C97.3191 271.821 97.5831 272.14 97.8691 272.558C98.3091 273.196 98.5291 273.845 98.5291 274.505ZM105.104 259.424C105.082 259.886 104.917 260.271 104.609 260.579C104.301 260.887 103.905 261.052 103.421 261.074C102.937 261.052 102.541 260.887 102.233 260.579C101.925 260.271 101.771 259.875 101.771 259.391C101.771 258.907 101.925 258.511 102.233 258.203C102.541 257.895 102.937 257.741 103.421 257.741C103.905 257.741 104.301 257.895 104.609 258.203C104.917 258.511 105.082 258.918 105.104 259.424ZM103.652 277.937L100.979 278.102C100.539 278.102 100.319 277.992 100.319 277.772C100.319 277.574 100.627 277.376 101.243 277.178C101.881 276.98 102.244 276.771 102.332 276.551C102.442 276.331 102.497 276.133 102.497 275.957V268.796C102.497 267.432 101.98 266.629 100.946 266.387C100.77 266.343 100.682 266.2 100.682 265.958C100.682 265.716 100.759 265.584 100.913 265.562C101.969 265.298 103.091 264.781 104.279 264.011C104.631 263.791 104.829 263.681 104.873 263.681C105.027 263.681 105.104 263.736 105.104 263.846C104.906 265.848 104.807 267.333 104.807 268.301V275.957C104.807 276.397 104.939 276.683 105.203 276.815C105.489 276.947 105.863 277.09 106.325 277.244C106.765 277.42 106.985 277.596 106.985 277.772C106.985 277.992 106.765 278.102 106.325 278.102L103.652 277.937ZM121.41 280.544C121.41 281.424 121.19 282.282 120.75 283.118C120.31 283.954 119.727 284.702 119.001 285.362C118.297 286.044 117.516 286.583 116.658 286.979C115.8 287.375 114.953 287.573 114.117 287.573C112.995 287.573 111.972 287.441 111.048 287.177C110.124 286.913 109.376 286.506 108.804 285.956C108.254 285.406 107.979 284.691 107.979 283.811C107.979 283.129 108.144 282.535 108.474 282.029C108.826 281.545 109.409 281.05 110.223 280.544C110.993 280.06 111.554 279.554 111.906 279.026C111.158 278.872 110.476 278.586 109.86 278.168C109.244 277.772 108.936 277.233 108.936 276.551C108.936 276.133 109.189 275.726 109.695 275.33C109.849 275.198 110.058 275.066 110.322 274.934C110.916 274.582 111.356 274.208 111.642 273.812C111.356 273.746 110.938 273.46 110.388 272.954C109.31 271.942 108.771 270.721 108.771 269.291C108.771 268.323 109.046 267.465 109.596 266.717C110.146 265.969 110.872 265.375 111.774 264.935C112.676 264.495 113.633 264.275 114.645 264.275C114.931 264.275 115.228 264.308 115.536 264.374C115.866 264.44 116.218 264.528 116.592 264.638C118.022 265.078 119.133 265.298 119.925 265.298L120.981 265.265H121.377C121.553 265.265 121.696 265.298 121.806 265.364C121.916 265.43 121.971 265.606 121.971 265.892C121.971 266.288 121.872 266.486 121.674 266.486C120.882 266.486 120.42 266.508 120.288 266.552L120.024 266.651C119.936 266.695 119.859 266.728 119.793 266.75C119.705 266.948 119.661 267.454 119.661 268.268C119.661 269.368 119.419 270.391 118.935 271.337C118.451 272.283 117.791 273.053 116.955 273.647C116.119 274.219 115.173 274.505 114.117 274.505C113.435 274.505 112.841 274.373 112.335 274.109C111.367 274.879 110.883 275.418 110.883 275.726C110.883 276.43 111.939 276.881 114.051 277.079C116.955 277.343 118.638 277.585 119.1 277.805C119.43 277.937 119.771 278.091 120.123 278.267C120.497 278.465 120.805 278.729 121.047 279.059C121.289 279.411 121.41 279.906 121.41 280.544ZM111.345 269.225C111.345 269.885 111.477 270.534 111.741 271.172C112.005 271.788 112.368 272.305 112.83 272.723C113.292 273.141 113.809 273.35 114.381 273.35C114.953 273.35 115.459 273.163 115.899 272.789C116.361 272.415 116.713 271.92 116.955 271.304C117.219 270.666 117.351 269.995 117.351 269.291C117.351 268.587 117.208 267.927 116.922 267.311C116.658 266.695 116.295 266.2 115.833 265.826C115.371 265.452 114.843 265.265 114.249 265.265C113.677 265.265 113.171 265.463 112.731 265.859C112.291 266.233 111.95 266.728 111.708 267.344C111.466 267.938 111.345 268.565 111.345 269.225ZM110.322 282.425C110.322 283.547 110.696 284.46 111.444 285.164C112.214 285.89 113.248 286.253 114.546 286.253C115.426 286.253 116.229 286.044 116.955 285.626C117.681 285.23 118.264 284.68 118.704 283.976C119.166 283.272 119.397 282.48 119.397 281.6C119.397 281.05 119.122 280.588 118.572 280.214C118.044 279.84 117.406 279.576 116.658 279.422C115.888 279.29 114.843 279.191 113.523 279.125H112.764C112.632 279.213 112.423 279.378 112.137 279.62C111.873 279.884 111.532 280.225 111.114 280.643C110.586 281.259 110.322 281.853 110.322 282.425ZM125.917 277.937L123.244 278.102C122.804 278.102 122.584 277.992 122.584 277.772C122.584 277.574 122.782 277.409 123.178 277.277C123.574 277.145 123.937 277.002 124.267 276.848C124.597 276.694 124.762 276.364 124.762 275.858V259.325C124.762 257.917 124.267 257.114 123.277 256.916C123.101 256.872 123.013 256.729 123.013 256.487C123.013 256.245 123.09 256.113 123.244 256.091C123.816 255.959 125.092 255.519 127.072 254.771L127.138 254.738C127.27 254.738 127.336 254.87 127.336 255.134C127.336 255.266 127.325 255.365 127.303 255.431C127.215 255.915 127.149 256.498 127.105 257.18C127.083 257.84 127.072 258.599 127.072 259.457V265.199C127.072 265.771 127.16 266.178 127.336 266.42C129.228 265.034 130.889 264.341 132.319 264.341C133.397 264.341 134.288 264.77 134.992 265.628C135.718 266.486 136.081 267.553 136.081 268.829V275.759C136.081 276.463 136.532 276.947 137.434 277.211C137.94 277.387 138.193 277.574 138.193 277.772C138.193 277.992 137.973 278.102 137.533 278.102L134.959 277.937L132.385 278.102C131.945 278.102 131.725 277.992 131.725 277.772C131.725 277.574 131.978 277.387 132.484 277.211C133.342 276.947 133.771 276.463 133.771 275.759V269.027C133.771 268.499 133.617 268.015 133.309 267.575C133.001 267.113 132.616 266.75 132.154 266.486C131.692 266.2 131.208 266.057 130.702 266.057C129.492 266.057 128.579 266.299 127.963 266.783C127.611 267.069 127.369 267.377 127.237 267.707C127.127 268.015 127.072 268.499 127.072 269.159V275.858C127.116 276.54 127.534 276.991 128.326 277.211C128.832 277.387 129.085 277.574 129.085 277.772C129.085 277.992 128.865 278.102 128.425 278.102L125.917 277.937ZM148.51 277.112C148.158 277.442 147.663 277.75 147.025 278.036C146.409 278.322 145.793 278.465 145.177 278.465C144.099 278.465 143.252 278.146 142.636 277.508C142.042 276.848 141.745 275.858 141.745 274.538V266.882C141.745 266.684 141.668 266.552 141.514 266.486C141.36 266.42 141.019 266.387 140.491 266.387C140.425 266.387 140.337 266.299 140.227 266.123C140.139 265.947 140.095 265.815 140.095 265.727C140.095 265.639 140.15 265.562 140.26 265.496C140.766 265.342 141.283 265.023 141.811 264.539C142.339 264.055 142.768 263.604 143.098 263.186C143.428 262.768 143.626 262.559 143.692 262.559C144 262.559 144.154 262.669 144.154 262.889L144.088 264.341C144.088 264.649 144.352 264.803 144.88 264.803H148.642C148.862 264.803 148.972 265.067 148.972 265.595C148.972 266.123 148.862 266.387 148.642 266.387H145.375C144.781 266.387 144.407 266.431 144.253 266.519C144.121 266.607 144.055 266.871 144.055 267.311V273.548C144.055 274.67 144.264 275.473 144.682 275.957C145.1 276.419 145.617 276.65 146.233 276.65C147.333 276.65 148.158 276.441 148.708 276.023C148.73 276.001 148.763 275.99 148.807 275.99C148.961 275.99 149.038 276.133 149.038 276.419C149.038 276.595 148.862 276.826 148.51 277.112ZM158.986 274.505C158.986 277.145 157.402 278.465 154.234 278.465C153.42 278.465 152.661 278.322 151.957 278.036C151.253 277.772 150.846 277.519 150.736 277.277C150.472 276.727 150.329 276.056 150.307 275.264C150.307 275.066 150.483 274.967 150.835 274.967C151.165 274.967 151.341 275.044 151.363 275.198C151.451 275.572 151.649 275.946 151.957 276.32C152.287 276.694 152.672 277.002 153.112 277.244C153.574 277.464 154.047 277.574 154.531 277.574C155.235 277.574 155.774 277.365 156.148 276.947C156.544 276.529 156.742 276.012 156.742 275.396C156.742 274.78 156.544 274.263 156.148 273.845C155.752 273.405 155.092 272.855 154.168 272.195C153.222 271.535 152.463 270.897 151.891 270.281C151.341 269.643 151.066 268.873 151.066 267.971C151.066 267.355 151.231 266.772 151.561 266.222C151.891 265.672 152.364 265.221 152.98 264.869C153.596 264.517 154.344 264.341 155.224 264.341C156.544 264.341 157.457 264.594 157.963 265.1C158.337 265.584 158.524 266.442 158.524 267.674C158.524 267.762 158.447 267.806 158.293 267.806C158.139 267.806 157.919 267.729 157.633 267.575C157.347 267.399 157.204 267.245 157.204 267.113C157.182 266.629 156.962 266.189 156.544 265.793C156.126 265.397 155.631 265.199 155.059 265.199C154.465 265.199 153.981 265.397 153.607 265.793C153.233 266.189 153.046 266.651 153.046 267.179C153.046 267.707 153.233 268.191 153.607 268.631C153.981 269.071 154.311 269.379 154.597 269.555C154.729 269.643 154.894 269.764 155.092 269.918C155.312 270.05 155.565 270.204 155.851 270.38C156.225 270.6 156.533 270.798 156.775 270.974C157.039 271.15 157.292 271.359 157.534 271.601C157.776 271.821 158.04 272.14 158.326 272.558C158.766 273.196 158.986 273.845 158.986 274.505Z" fill="white"/>
<rect x="1.12988" y="1.9458" width="210.67" height="198.051" rx="20" fill="#2ECC71" stroke="#0D1B2A" stroke-width="2"/>
<path d="M67.6316 153.266V161.08C67.6316 163.239 69.0895 164.988 70.8894 164.988H116.499C118.299 164.988 119.757 163.239 119.757 161.08V77.3805C120.685 76.8921 121.573 76.3183 122.402 75.6418L151.325 87.2731C153.031 87.9593 154.878 86.8555 155.45 84.8116L157.521 77.4025C158.093 75.3561 157.173 73.1412 155.468 72.455L129.324 61.9421C129.41 61.1314 129.53 60.3304 129.53 59.4928C129.53 48.704 122.237 39.9567 113.241 39.9567C107.196 39.9567 101.981 43.9519 99.1693 49.8151L75.1571 40.1594C73.4509 39.4732 71.6041 40.577 71.0319 42.621L68.9612 50.03C68.389 52.0764 69.3094 54.2913 71.0136 54.9775L97.8906 65.7859C99.3729 70.9751 102.566 75.1974 106.723 77.3781V149.359H70.8894C69.0895 149.359 67.6316 151.107 67.6316 153.266ZM48.0847 114.194C48.0847 124.983 59.7538 133.73 74.1472 133.73C88.5406 133.73 100.21 124.983 100.21 114.194H100.206C100.206 110.367 100.629 112.423 82.8883 69.8689C79.2885 61.234 68.9978 61.2511 65.4041 69.8689C47.8159 112.062 48.0888 110.243 48.0888 114.194H48.0847ZM59.4871 110.287L74.1472 75.1217L88.8074 110.287H59.4871ZM126.276 145.452H126.272C126.272 156.24 137.941 164.988 152.335 164.988C166.728 164.988 178.397 156.24 178.397 145.452H178.393C178.393 141.625 178.817 143.681 161.076 101.127C157.476 92.4917 147.185 92.5088 143.592 101.127C126.003 143.32 126.276 141.5 126.276 145.452ZM137.675 141.544L152.335 106.379L166.995 141.544H137.675Z" fill="#0D1B2A"/>
</svg>
