<svg width="51" height="47" viewBox="0 0 51 47" fill="none" xmlns="http://www.w3.org/2000/svg">
<path d="M25.0936 23.3602C32.9753 23.3602 39.3632 18.1315 39.3632 11.6801C39.3632 5.22867 32.9753 0 25.0936 0C17.2119 0 10.824 5.22867 10.824 11.6801C10.824 18.1315 17.2119 23.3602 25.0936 23.3602ZM35.0823 26.2802H33.2206C30.7457 27.211 27.9921 27.7402 25.0936 27.7402C22.1951 27.7402 19.4526 27.211 16.9666 26.2802H15.1049C6.83295 26.2802 0.121765 31.7735 0.121765 38.5443V42.3404C0.121765 44.7585 2.51862 46.7204 5.47287 46.7204H44.7143C47.6686 46.7204 50.0654 44.7585 50.0654 42.3404V38.5443C50.0654 31.7735 43.3543 26.2802 35.0823 26.2802Z" fill="#2ECC71"/>
</svg>
