<svg width="50" height="38" viewBox="0 0 50 38" fill="none" xmlns="http://www.w3.org/2000/svg">
<path d="M49.9437 13.4732C49.9437 20.3719 42.2572 25.9644 32.7755 25.9644C31.6811 25.9644 30.611 25.889 29.5734 25.7466L27.2311 27.6638C27.0115 27.8436 26.742 27.9875 26.4404 28.086C26.1388 28.1846 25.8119 28.2355 25.4813 28.2355H21.8504V31.0744C21.8504 32.0152 20.8022 32.7778 19.5092 32.7778H15.6074V35.6167C15.6074 36.5574 14.5593 37.32 13.2663 37.32H2.34111C1.04813 37.32 0 36.5574 0 35.6167V30.0766C0 29.6249 0.246694 29.1916 0.685653 28.8721L16.4688 17.3886C15.9106 16.1569 15.6074 14.8409 15.6074 13.4732C15.6074 6.57445 23.2937 0.982005 32.7754 0.981934C42.2851 0.981863 49.9437 6.55409 49.9437 13.4732ZM32.7755 10.0665C32.7755 11.948 34.8718 13.4732 37.4578 13.4732C40.0437 13.4732 42.14 11.948 42.14 10.0665C42.14 8.18497 40.0437 6.65976 37.4578 6.65976C34.8718 6.65976 32.7755 8.18497 32.7755 10.0665Z" fill="#2ECC71"/>
</svg>
