<svg width="207" height="283" viewBox="0 0 207 283" fill="none" xmlns="http://www.w3.org/2000/svg">
<path d="M70.3845 207.673C70.3652 208.079 70.2202 208.417 69.9495 208.688C69.6788 208.959 69.3308 209.104 68.9055 209.123C68.4802 209.104 68.1322 208.959 67.8615 208.688C67.5908 208.417 67.4555 208.069 67.4555 207.644C67.4555 207.219 67.5908 206.871 67.8615 206.6C68.1322 206.329 68.4802 206.194 68.9055 206.194C69.3308 206.194 69.6788 206.329 69.9495 206.6C70.2202 206.871 70.3652 207.228 70.3845 207.673ZM69.1085 223.942L66.7595 224.087C66.3728 224.087 66.1795 223.99 66.1795 223.797C66.1795 223.623 66.4502 223.449 66.9915 223.275C67.5522 223.101 67.8712 222.917 67.9485 222.724C68.0452 222.531 68.0935 222.357 68.0935 222.202V215.909C68.0935 214.71 67.6392 214.005 66.7305 213.792C66.5758 213.753 66.4985 213.628 66.4985 213.415C66.4985 213.202 66.5662 213.086 66.7015 213.067C67.6295 212.835 68.6155 212.381 69.6595 211.704C69.9688 211.511 70.1428 211.414 70.1815 211.414C70.3168 211.414 70.3845 211.462 70.3845 211.559C70.2105 213.318 70.1235 214.623 70.1235 215.474V222.202C70.1235 222.589 70.2395 222.84 70.4715 222.956C70.7228 223.072 71.0515 223.198 71.4575 223.333C71.8442 223.488 72.0375 223.642 72.0375 223.797C72.0375 223.99 71.8442 224.087 71.4575 224.087L69.1085 223.942ZM76.2169 223.942L73.8679 224.087C73.4812 224.087 73.2879 223.99 73.2879 223.797C73.2879 223.681 73.3652 223.584 73.5199 223.507C73.6746 223.41 73.8389 223.333 74.0129 223.275C74.1869 223.217 74.2932 223.188 74.3319 223.188C74.3706 223.188 74.4672 223.149 74.6219 223.072C74.7766 222.995 74.8732 222.927 74.9119 222.869C75.1052 222.676 75.2019 222.453 75.2019 222.202V215.967C75.2019 214.73 74.8056 214.034 74.0129 213.879C73.8582 213.84 73.7809 213.715 73.7809 213.502C73.7809 213.289 73.8486 213.173 73.9839 213.154C74.9892 212.922 76.0526 212.39 77.1739 211.559C77.1932 211.54 77.2319 211.53 77.2899 211.53C77.3286 211.53 77.3769 211.617 77.4349 211.791L77.2319 213.676C77.2319 213.811 77.2416 213.889 77.2609 213.908C77.6282 213.599 78.0729 213.299 78.5949 213.009C79.1362 212.719 79.7162 212.477 80.3349 212.284C80.9536 212.091 81.5529 211.994 82.1329 211.994C82.7129 211.994 83.2446 212.178 83.7279 212.545C84.2112 212.893 84.5979 213.367 84.8879 213.966C85.1779 214.565 85.3229 215.252 85.3229 216.025V222.202C85.3229 222.589 85.4389 222.84 85.6709 222.956C85.9222 223.072 86.2509 223.198 86.6569 223.333C87.0436 223.488 87.2369 223.642 87.2369 223.797C87.2369 223.99 87.0436 224.087 86.6569 224.087L84.3369 223.942L81.9589 224.087C81.5722 224.087 81.3789 223.99 81.3789 223.797C81.3789 223.623 81.6012 223.459 82.0459 223.304C82.0846 223.304 82.1232 223.294 82.1619 223.275C82.8192 223.062 83.1866 222.801 83.2639 222.492C83.2832 222.453 83.2929 222.405 83.2929 222.347C83.2929 222.289 83.2929 222.241 83.2929 222.202V216.112C83.2929 215.281 83.0512 214.623 82.5679 214.14C82.0846 213.657 81.3789 213.415 80.4509 213.415C79.5036 213.415 78.7302 213.618 78.1309 214.024C77.5316 214.43 77.2319 215.165 77.2319 216.228V222.202C77.2319 222.589 77.3479 222.84 77.5799 222.956C77.8312 223.072 78.1599 223.198 78.5659 223.333C78.9526 223.488 79.1459 223.642 79.1459 223.797C79.1459 223.99 78.9526 224.087 78.5659 224.087L76.2169 223.942ZM96.3819 220.926C96.3819 223.246 94.9899 224.406 92.2059 224.406C91.4905 224.406 90.8235 224.28 90.2049 224.029C89.5862 223.797 89.2285 223.575 89.1319 223.362C88.8999 222.879 88.7742 222.289 88.7549 221.593C88.7549 221.419 88.9095 221.332 89.2189 221.332C89.5089 221.332 89.6635 221.4 89.6829 221.535C89.7602 221.864 89.9342 222.192 90.2049 222.521C90.4949 222.85 90.8332 223.12 91.2199 223.333C91.6259 223.526 92.0415 223.623 92.4669 223.623C93.0855 223.623 93.5592 223.439 93.8879 223.072C94.2359 222.705 94.4099 222.25 94.4099 221.709C94.4099 221.168 94.2359 220.713 93.8879 220.346C93.5399 219.959 92.9599 219.476 92.1479 218.896C91.3165 218.316 90.6495 217.755 90.1469 217.214C89.6635 216.653 89.4219 215.977 89.4219 215.184C89.4219 214.643 89.5669 214.13 89.8569 213.647C90.1469 213.164 90.5625 212.767 91.1039 212.458C91.6452 212.149 92.3025 211.994 93.0759 211.994C94.2359 211.994 95.0382 212.216 95.4829 212.661C95.8115 213.086 95.9759 213.84 95.9759 214.923C95.9759 215 95.9082 215.039 95.7729 215.039C95.6375 215.039 95.4442 214.971 95.1929 214.836C94.9415 214.681 94.8159 214.546 94.8159 214.43C94.7965 214.005 94.6032 213.618 94.2359 213.27C93.8685 212.922 93.4335 212.748 92.9309 212.748C92.4089 212.748 91.9835 212.922 91.6549 213.27C91.3262 213.618 91.1619 214.024 91.1619 214.488C91.1619 214.952 91.3262 215.377 91.6549 215.764C91.9835 216.151 92.2735 216.421 92.5249 216.576C92.6409 216.653 92.7859 216.76 92.9599 216.895C93.1532 217.011 93.3755 217.146 93.6269 217.301C93.9555 217.494 94.2262 217.668 94.4389 217.823C94.6709 217.978 94.8932 218.161 95.1059 218.374C95.3185 218.567 95.5505 218.848 95.8019 219.215C96.1885 219.776 96.3819 220.346 96.3819 220.926ZM102.16 207.673C102.141 208.079 101.996 208.417 101.725 208.688C101.454 208.959 101.106 209.104 100.681 209.123C100.256 209.104 99.9076 208.959 99.6369 208.688C99.3662 208.417 99.2309 208.069 99.2309 207.644C99.2309 207.219 99.3662 206.871 99.6369 206.6C99.9076 206.329 100.256 206.194 100.681 206.194C101.106 206.194 101.454 206.329 101.725 206.6C101.996 206.871 102.141 207.228 102.16 207.673ZM100.884 223.942L98.5349 224.087C98.1482 224.087 97.9549 223.99 97.9549 223.797C97.9549 223.623 98.2256 223.449 98.7669 223.275C99.3276 223.101 99.6466 222.917 99.7239 222.724C99.8206 222.531 99.8689 222.357 99.8689 222.202V215.909C99.8689 214.71 99.4146 214.005 98.5059 213.792C98.3512 213.753 98.2739 213.628 98.2739 213.415C98.2739 213.202 98.3416 213.086 98.4769 213.067C99.4049 212.835 100.391 212.381 101.435 211.704C101.744 211.511 101.918 211.414 101.957 211.414C102.092 211.414 102.16 211.462 102.16 211.559C101.986 213.318 101.899 214.623 101.899 215.474V222.202C101.899 222.589 102.015 222.84 102.247 222.956C102.498 223.072 102.827 223.198 103.233 223.333C103.62 223.488 103.813 223.642 103.813 223.797C103.813 223.99 103.62 224.087 103.233 224.087L100.884 223.942ZM116.489 226.233C116.489 227.006 116.296 227.76 115.909 228.495C115.523 229.23 115.01 229.887 114.372 230.467C113.754 231.066 113.067 231.54 112.313 231.888C111.559 232.236 110.815 232.41 110.08 232.41C109.094 232.41 108.195 232.294 107.383 232.062C106.571 231.83 105.914 231.472 105.411 230.989C104.928 230.506 104.686 229.877 104.686 229.104C104.686 228.505 104.831 227.983 105.121 227.538C105.431 227.113 105.943 226.678 106.658 226.233C107.335 225.808 107.828 225.363 108.137 224.899C107.48 224.764 106.881 224.512 106.339 224.145C105.798 223.797 105.527 223.323 105.527 222.724C105.527 222.357 105.75 221.999 106.194 221.651C106.33 221.535 106.513 221.419 106.745 221.303C107.267 220.994 107.654 220.665 107.905 220.317C107.654 220.259 107.287 220.008 106.803 219.563C105.856 218.674 105.382 217.601 105.382 216.344C105.382 215.493 105.624 214.739 106.107 214.082C106.591 213.425 107.229 212.903 108.021 212.516C108.814 212.129 109.655 211.936 110.544 211.936C110.796 211.936 111.057 211.965 111.327 212.023C111.617 212.081 111.927 212.158 112.255 212.255C113.512 212.642 114.488 212.835 115.184 212.835L116.112 212.806H116.46C116.615 212.806 116.741 212.835 116.837 212.893C116.934 212.951 116.982 213.106 116.982 213.357C116.982 213.705 116.895 213.879 116.721 213.879C116.025 213.879 115.619 213.898 115.503 213.937L115.271 214.024C115.194 214.063 115.126 214.092 115.068 214.111C114.991 214.285 114.952 214.73 114.952 215.445C114.952 216.412 114.74 217.311 114.314 218.142C113.889 218.973 113.309 219.65 112.574 220.172C111.84 220.675 111.008 220.926 110.08 220.926C109.481 220.926 108.959 220.81 108.514 220.578C107.664 221.255 107.238 221.728 107.238 221.999C107.238 222.618 108.166 223.014 110.022 223.188C112.574 223.42 114.053 223.633 114.459 223.826C114.749 223.942 115.049 224.077 115.358 224.232C115.687 224.406 115.958 224.638 116.17 224.928C116.383 225.237 116.489 225.672 116.489 226.233ZM107.644 216.286C107.644 216.866 107.76 217.436 107.992 217.997C108.224 218.538 108.543 218.993 108.949 219.36C109.355 219.727 109.81 219.911 110.312 219.911C110.815 219.911 111.26 219.747 111.646 219.418C112.052 219.089 112.362 218.654 112.574 218.113C112.806 217.552 112.922 216.963 112.922 216.344C112.922 215.725 112.797 215.145 112.545 214.604C112.313 214.063 111.994 213.628 111.588 213.299C111.182 212.97 110.718 212.806 110.196 212.806C109.694 212.806 109.249 212.98 108.862 213.328C108.476 213.657 108.176 214.092 107.963 214.633C107.751 215.155 107.644 215.706 107.644 216.286ZM106.745 227.886C106.745 228.872 107.074 229.674 107.731 230.293C108.408 230.931 109.317 231.25 110.457 231.25C111.231 231.25 111.936 231.066 112.574 230.699C113.212 230.351 113.725 229.868 114.111 229.249C114.517 228.63 114.72 227.934 114.72 227.161C114.72 226.678 114.479 226.272 113.995 225.943C113.531 225.614 112.971 225.382 112.313 225.247C111.637 225.131 110.718 225.044 109.558 224.986H108.891C108.775 225.063 108.592 225.208 108.34 225.421C108.108 225.653 107.809 225.953 107.441 226.32C106.977 226.861 106.745 227.383 106.745 227.886ZM120.45 223.942L118.101 224.087C117.714 224.087 117.521 223.99 117.521 223.797C117.521 223.623 117.695 223.478 118.043 223.362C118.391 223.246 118.71 223.12 119 222.985C119.29 222.85 119.435 222.56 119.435 222.115V207.586C119.435 206.349 119 205.643 118.13 205.469C117.975 205.43 117.898 205.305 117.898 205.092C117.898 204.879 117.966 204.763 118.101 204.744C118.604 204.628 119.725 204.241 121.465 203.584L121.523 203.555C121.639 203.555 121.697 203.671 121.697 203.903C121.697 204.019 121.687 204.106 121.668 204.164C121.591 204.589 121.533 205.102 121.494 205.701C121.475 206.281 121.465 206.948 121.465 207.702V212.748C121.465 213.251 121.542 213.608 121.697 213.821C123.36 212.603 124.819 211.994 126.076 211.994C127.023 211.994 127.806 212.371 128.425 213.125C129.063 213.879 129.382 214.817 129.382 215.938V222.028C129.382 222.647 129.778 223.072 130.571 223.304C131.016 223.459 131.238 223.623 131.238 223.797C131.238 223.99 131.045 224.087 130.658 224.087L128.396 223.942L126.134 224.087C125.747 224.087 125.554 223.99 125.554 223.797C125.554 223.623 125.776 223.459 126.221 223.304C126.975 223.072 127.352 222.647 127.352 222.028V216.112C127.352 215.648 127.217 215.223 126.946 214.836C126.675 214.43 126.337 214.111 125.931 213.879C125.525 213.628 125.1 213.502 124.655 213.502C123.592 213.502 122.789 213.715 122.248 214.14C121.939 214.391 121.726 214.662 121.61 214.952C121.513 215.223 121.465 215.648 121.465 216.228V222.115C121.504 222.714 121.871 223.111 122.567 223.304C123.012 223.459 123.234 223.623 123.234 223.797C123.234 223.99 123.041 224.087 122.654 224.087L120.45 223.942ZM140.305 223.217C139.995 223.507 139.56 223.778 139 224.029C138.458 224.28 137.917 224.406 137.376 224.406C136.428 224.406 135.684 224.126 135.143 223.565C134.621 222.985 134.36 222.115 134.36 220.955V214.227C134.36 214.053 134.292 213.937 134.157 213.879C134.021 213.821 133.722 213.792 133.258 213.792C133.2 213.792 133.122 213.715 133.026 213.56C132.948 213.405 132.91 213.289 132.91 213.212C132.91 213.135 132.958 213.067 133.055 213.009C133.499 212.874 133.954 212.593 134.418 212.168C134.882 211.743 135.259 211.346 135.549 210.979C135.839 210.612 136.013 210.428 136.071 210.428C136.341 210.428 136.477 210.525 136.477 210.718L136.419 211.994C136.419 212.265 136.651 212.4 137.115 212.4H140.421C140.614 212.4 140.711 212.632 140.711 213.096C140.711 213.56 140.614 213.792 140.421 213.792H137.55C137.028 213.792 136.699 213.831 136.564 213.908C136.448 213.985 136.39 214.217 136.39 214.604V220.085C136.39 221.071 136.573 221.777 136.941 222.202C137.308 222.608 137.762 222.811 138.304 222.811C139.27 222.811 139.995 222.627 140.479 222.26C140.498 222.241 140.527 222.231 140.566 222.231C140.701 222.231 140.769 222.357 140.769 222.608C140.769 222.763 140.614 222.966 140.305 223.217ZM149.511 220.926C149.511 223.246 148.119 224.406 145.335 224.406C144.619 224.406 143.952 224.28 143.334 224.029C142.715 223.797 142.357 223.575 142.261 223.362C142.029 222.879 141.903 222.289 141.884 221.593C141.884 221.419 142.038 221.332 142.348 221.332C142.638 221.332 142.792 221.4 142.812 221.535C142.889 221.864 143.063 222.192 143.334 222.521C143.624 222.85 143.962 223.12 144.349 223.333C144.755 223.526 145.17 223.623 145.596 223.623C146.214 223.623 146.688 223.439 147.017 223.072C147.365 222.705 147.539 222.25 147.539 221.709C147.539 221.168 147.365 220.713 147.017 220.346C146.669 219.959 146.089 219.476 145.277 218.896C144.445 218.316 143.778 217.755 143.276 217.214C142.792 216.653 142.551 215.977 142.551 215.184C142.551 214.643 142.696 214.13 142.986 213.647C143.276 213.164 143.691 212.767 144.233 212.458C144.774 212.149 145.431 211.994 146.205 211.994C147.365 211.994 148.167 212.216 148.612 212.661C148.94 213.086 149.105 213.84 149.105 214.923C149.105 215 149.037 215.039 148.902 215.039C148.766 215.039 148.573 214.971 148.322 214.836C148.07 214.681 147.945 214.546 147.945 214.43C147.925 214.005 147.732 213.618 147.365 213.27C146.997 212.922 146.562 212.748 146.06 212.748C145.538 212.748 145.112 212.922 144.784 213.27C144.455 213.618 144.291 214.024 144.291 214.488C144.291 214.952 144.455 215.377 144.784 215.764C145.112 216.151 145.402 216.421 145.654 216.576C145.77 216.653 145.915 216.76 146.089 216.895C146.282 217.011 146.504 217.146 146.756 217.301C147.084 217.494 147.355 217.668 147.568 217.823C147.8 217.978 148.022 218.161 148.235 218.374C148.447 218.567 148.679 218.848 148.931 219.215C149.317 219.776 149.511 220.346 149.511 220.926ZM101.203 253C100.662 253.29 99.985 253.435 99.173 253.435C98.2643 253.435 97.4233 253.271 96.65 252.942C95.8767 252.613 95.258 252.149 94.794 251.55C94.33 250.951 94.098 250.245 94.098 249.433C94.098 246.668 95.722 244.551 98.97 243.082L99.55 242.821L99.115 242.357C97.897 241.139 97.288 239.998 97.288 238.935C97.288 238.239 97.4717 237.649 97.839 237.166C98.2063 236.663 98.6897 236.286 99.289 236.035C99.8883 235.764 100.517 235.629 101.174 235.629C102.179 235.629 103.04 235.9 103.755 236.441C104.47 236.982 104.828 237.707 104.828 238.616C104.828 239.505 104.577 240.298 104.074 240.994C103.591 241.69 102.904 242.202 102.015 242.531L101.609 242.676L101.87 242.966C101.986 243.101 102.189 243.324 102.479 243.633C102.769 243.923 103.146 244.3 103.61 244.764C104.055 245.247 104.451 245.692 104.799 246.098C105.147 246.485 105.427 246.842 105.64 247.171L105.988 247.693L106.51 247.142C106.858 246.755 107.216 246.34 107.583 245.895C107.95 245.431 108.298 244.986 108.627 244.561C108.956 244.136 109.217 243.768 109.41 243.459C109.603 243.13 109.7 242.927 109.7 242.85C109.7 242.676 109.623 242.492 109.468 242.299C109.333 242.106 109.188 241.999 109.033 241.98C108.859 241.941 108.743 241.893 108.685 241.835C108.588 241.738 108.54 241.68 108.54 241.661C108.54 241.448 108.753 241.342 109.178 241.342L111.237 241.487C111.392 241.487 111.595 241.468 111.846 241.429C112.097 241.39 112.387 241.332 112.716 241.255C113.335 241.12 113.731 241.052 113.905 241.052C114.214 241.052 114.369 241.149 114.369 241.342C114.369 241.419 114.282 241.526 114.108 241.661C113.934 241.777 113.779 241.845 113.644 241.864C112.832 241.922 112.126 242.222 111.527 242.763L106.336 248.215L106.829 248.911C107.138 249.336 107.37 249.655 107.525 249.868C107.68 250.081 107.825 250.274 107.96 250.448C108.115 250.603 108.308 250.806 108.54 251.057C108.907 251.424 109.284 251.676 109.671 251.811C110.058 251.946 110.406 252.014 110.715 252.014C111.063 252.014 111.266 252.004 111.324 251.985C111.459 251.985 111.614 251.956 111.788 251.898C111.904 251.859 111.962 251.84 111.962 251.84C112.02 251.84 112.088 251.811 112.165 251.753C112.281 251.656 112.445 251.54 112.658 251.405C112.871 251.27 113.074 251.202 113.267 251.202C113.46 251.202 113.557 251.415 113.557 251.84C113.557 251.917 113.383 252.091 113.035 252.362C112.668 252.613 112.194 252.855 111.614 253.087C111.034 253.319 110.502 253.435 110.019 253.435C109.362 253.435 108.801 253.329 108.337 253.116C107.873 252.923 107.428 252.584 107.003 252.101C106.597 251.618 106.114 250.941 105.553 250.071L105.176 249.462C104.963 249.675 104.664 250.003 104.277 250.448C103.929 250.854 103.668 251.125 103.494 251.26C103.417 251.337 103.32 251.434 103.204 251.55C103.088 251.647 102.953 251.772 102.798 251.927C102.643 252.082 102.498 252.217 102.363 252.333C102.228 252.449 102.112 252.526 102.015 252.565L101.203 253ZM100.681 241.603L101.116 242.096L101.493 241.922C102.556 241.439 103.088 240.366 103.088 238.703C103.088 238.142 102.895 237.63 102.508 237.166C102.121 236.683 101.648 236.441 101.087 236.441C100.526 236.441 100.043 236.605 99.637 236.934C99.231 237.243 99.028 237.64 99.028 238.123C99.028 239.07 99.579 240.23 100.681 241.603ZM96.418 248.331C96.418 249.278 96.7467 250.052 97.404 250.651C98.0613 251.25 98.8637 251.55 99.811 251.55C100.758 251.55 101.599 251.366 102.334 250.999C103.069 250.612 103.813 250.013 104.567 249.201L104.828 248.94L104.48 248.389C104.229 248.002 103.919 247.587 103.552 247.142C103.185 246.678 102.75 246.185 102.247 245.663C101.744 245.16 101.329 244.745 101 244.416C100.691 244.068 100.468 243.826 100.333 243.691L99.985 243.314L99.376 243.546C98.5253 243.875 97.8873 244.3 97.462 244.822C97.0367 245.325 96.7563 245.876 96.621 246.475C96.4857 247.074 96.418 247.693 96.418 248.331ZM81.6533 281.217C81.3439 281.507 80.9089 281.778 80.3483 282.029C79.8069 282.28 79.2656 282.406 78.7243 282.406C77.7769 282.406 77.0326 282.126 76.4913 281.565C75.9693 280.985 75.7083 280.115 75.7083 278.955V272.227C75.7083 272.053 75.6406 271.937 75.5053 271.879C75.3699 271.821 75.0703 271.792 74.6063 271.792C74.5483 271.792 74.4709 271.715 74.3743 271.56C74.2969 271.405 74.2583 271.289 74.2583 271.212C74.2583 271.135 74.3066 271.067 74.4033 271.009C74.8479 270.874 75.3023 270.593 75.7663 270.168C76.2303 269.743 76.6073 269.346 76.8973 268.979C77.1873 268.612 77.3613 268.428 77.4193 268.428C77.6899 268.428 77.8253 268.525 77.8253 268.718L77.7673 269.994C77.7673 270.265 77.9993 270.4 78.4633 270.4H81.7693C81.9626 270.4 82.0593 270.632 82.0593 271.096C82.0593 271.56 81.9626 271.792 81.7693 271.792H78.8983C78.3763 271.792 78.0476 271.831 77.9123 271.908C77.7963 271.985 77.7383 272.217 77.7383 272.604V278.085C77.7383 279.071 77.9219 279.777 78.2893 280.202C78.6566 280.608 79.1109 280.811 79.6523 280.811C80.6189 280.811 81.3439 280.627 81.8273 280.26C81.8466 280.241 81.8756 280.231 81.9143 280.231C82.0496 280.231 82.1173 280.357 82.1173 280.608C82.1173 280.763 81.9626 280.966 81.6533 281.217ZM86.1324 281.942L83.7834 282.087C83.3967 282.087 83.2034 281.99 83.2034 281.797C83.2034 281.623 83.3774 281.478 83.7254 281.362C84.0734 281.246 84.3054 281.169 84.4214 281.13C84.5374 281.072 84.6631 280.966 84.7984 280.811C84.9144 280.656 84.9724 280.453 84.9724 280.202V273.967C84.9724 272.749 84.5761 272.053 83.7834 271.879C83.6287 271.84 83.5514 271.715 83.5514 271.502C83.5514 271.289 83.6191 271.173 83.7544 271.154C84.4697 271.019 85.0111 270.825 85.3784 270.574C85.7071 270.361 85.9777 270.187 86.1904 270.052C86.4224 269.917 86.5867 269.81 86.6834 269.733C86.8961 269.617 87.0024 269.549 87.0024 269.53H87.0894C87.1474 269.53 87.1861 269.598 87.2054 269.733C87.2054 269.984 87.2054 270.236 87.2054 270.487C87.2054 270.738 87.1957 270.99 87.1764 271.241C87.1571 271.724 87.1571 271.966 87.1764 271.966C87.1764 271.966 87.2247 271.918 87.3214 271.821C87.5921 271.473 87.7661 271.28 87.8434 271.241C88.7521 270.41 89.6414 269.994 90.5114 269.994C90.9174 269.994 91.2461 270.081 91.4974 270.255C91.7681 270.429 91.9034 270.661 91.9034 270.951C91.9034 271.241 91.7777 271.56 91.5264 271.908C91.2944 272.256 91.0721 272.43 90.8594 272.43C90.6467 272.43 90.3374 272.343 89.9314 272.169C89.5254 271.995 89.2257 271.908 89.0324 271.908C88.4717 271.908 87.9884 272.092 87.5824 272.459C87.1957 272.826 87.0024 273.455 87.0024 274.344V280.057C87.0217 280.56 87.5437 280.975 88.5684 281.304C89.0131 281.459 89.2354 281.623 89.2354 281.797C89.2354 281.99 89.0421 282.087 88.6554 282.087L86.1324 281.942ZM102.256 279.941C102.179 280.27 101.937 280.627 101.531 281.014C101.125 281.401 100.593 281.729 99.936 282C99.2786 282.271 98.5246 282.406 97.674 282.406C96.8233 282.406 96.0306 282.145 95.296 281.623C94.5806 281.082 94.0006 280.347 93.556 279.419C93.1306 278.491 92.918 277.437 92.918 276.258C92.918 275.079 93.1693 274.015 93.672 273.068C94.194 272.121 94.89 271.376 95.76 270.835C96.63 270.274 97.6063 269.994 98.689 269.994C99.849 269.994 100.758 270.236 101.415 270.719C102.092 271.202 102.43 271.86 102.43 272.691C102.43 273.522 102.217 274.044 101.792 274.257C101.386 274.45 100.854 274.547 100.197 274.547H95.441C95.1703 274.547 94.977 274.615 94.861 274.75C94.7643 274.866 94.716 275.156 94.716 275.62C94.716 276.509 94.9093 277.341 95.296 278.114C95.6826 278.887 96.195 279.506 96.833 279.97C97.4903 280.434 98.225 280.666 99.037 280.666C100.216 280.666 101.144 280.241 101.821 279.39C101.956 279.255 102.063 279.187 102.14 279.187C102.275 279.187 102.343 279.284 102.343 279.477C102.343 279.612 102.314 279.767 102.256 279.941ZM95.267 273.213C95.267 273.503 95.4506 273.648 95.818 273.648H98.196C98.6406 273.648 99.037 273.638 99.385 273.619C99.7523 273.58 100.062 273.542 100.313 273.503C100.506 273.484 100.603 273.203 100.603 272.662C100.603 272.14 100.361 271.715 99.878 271.386C99.3946 271.057 98.8146 270.893 98.138 270.893C97.674 270.893 97.2196 271.028 96.775 271.299C96.3496 271.55 95.992 271.86 95.702 272.227C95.412 272.575 95.267 272.904 95.267 273.213ZM106.916 281.942L104.567 282.087C104.18 282.087 103.987 281.99 103.987 281.797C103.987 281.681 104.064 281.584 104.219 281.507C104.374 281.41 104.538 281.333 104.712 281.275C104.886 281.217 104.992 281.188 105.031 281.188C105.07 281.188 105.166 281.149 105.321 281.072C105.476 280.995 105.572 280.927 105.611 280.869C105.804 280.676 105.901 280.453 105.901 280.202V273.967C105.901 272.73 105.505 272.034 104.712 271.879C104.557 271.84 104.48 271.715 104.48 271.502C104.48 271.289 104.548 271.173 104.683 271.154C105.688 270.922 106.752 270.39 107.873 269.559C107.892 269.54 107.931 269.53 107.989 269.53C108.028 269.53 108.076 269.617 108.134 269.791L107.931 271.676C107.931 271.811 107.941 271.889 107.96 271.908C108.327 271.599 108.772 271.299 109.294 271.009C109.835 270.719 110.415 270.477 111.034 270.284C111.653 270.091 112.252 269.994 112.832 269.994C113.412 269.994 113.944 270.178 114.427 270.545C114.91 270.893 115.297 271.367 115.587 271.966C115.877 272.565 116.022 273.252 116.022 274.025V280.202C116.022 280.589 116.138 280.84 116.37 280.956C116.621 281.072 116.95 281.198 117.356 281.333C117.743 281.488 117.936 281.642 117.936 281.797C117.936 281.99 117.743 282.087 117.356 282.087L115.036 281.942L112.658 282.087C112.271 282.087 112.078 281.99 112.078 281.797C112.078 281.623 112.3 281.459 112.745 281.304C112.784 281.304 112.822 281.294 112.861 281.275C113.518 281.062 113.886 280.801 113.963 280.492C113.982 280.453 113.992 280.405 113.992 280.347C113.992 280.289 113.992 280.241 113.992 280.202V274.112C113.992 273.281 113.75 272.623 113.267 272.14C112.784 271.657 112.078 271.415 111.15 271.415C110.203 271.415 109.429 271.618 108.83 272.024C108.231 272.43 107.931 273.165 107.931 274.228V280.202C107.931 280.589 108.047 280.84 108.279 280.956C108.53 281.072 108.859 281.198 109.265 281.333C109.652 281.488 109.845 281.642 109.845 281.797C109.845 281.99 109.652 282.087 109.265 282.087L106.916 281.942ZM130.184 282.058C129.411 282.387 128.966 282.551 128.85 282.551C128.695 282.551 128.618 282.512 128.618 282.435L128.763 280.521V280.347C128.415 280.888 127.912 281.372 127.255 281.797C126.598 282.203 125.834 282.406 124.964 282.406C123.92 282.406 122.992 282.126 122.18 281.565C121.368 281.004 120.73 280.27 120.266 279.361C119.821 278.433 119.599 277.418 119.599 276.316C119.599 275.214 119.87 274.18 120.411 273.213C120.952 272.246 121.716 271.473 122.702 270.893C123.688 270.294 124.829 269.994 126.124 269.994C126.395 269.994 126.685 270.033 126.994 270.11C127.323 270.168 127.622 270.245 127.893 270.342C128.164 270.439 128.338 270.535 128.415 270.632C128.531 270.787 128.628 270.864 128.705 270.864C128.763 270.864 128.792 270.632 128.792 270.168V265.586C128.792 264.851 128.676 264.349 128.444 264.078C128.231 263.788 127.854 263.585 127.313 263.469C127.158 263.43 127.081 263.305 127.081 263.092C127.081 262.879 127.149 262.763 127.284 262.744C127.671 262.647 128.048 262.541 128.415 262.425C128.802 262.309 129.179 262.174 129.546 262.019C130.3 261.729 130.735 261.584 130.851 261.584C130.948 261.584 131.006 261.623 131.025 261.7C131.025 261.739 131.025 261.806 131.025 261.903C131.025 262 131.015 262.125 130.996 262.28C130.88 263.382 130.822 264.523 130.822 265.702V278.81C130.822 280.067 131.025 280.695 131.431 280.695C132.03 280.695 132.475 280.666 132.765 280.608H132.852C133.084 280.608 133.2 280.724 133.2 280.956C133.2 281.246 133.065 281.391 132.794 281.391C132.291 281.468 131.818 281.565 131.373 281.681C130.948 281.778 130.551 281.903 130.184 282.058ZM123.427 280.115C124.316 280.772 125.177 281.101 126.008 281.101C126.82 281.101 127.487 280.85 128.009 280.347C128.531 279.844 128.792 279.235 128.792 278.52V274.605C128.792 274.006 128.637 273.435 128.328 272.894C128.038 272.353 127.622 271.908 127.081 271.56C126.559 271.193 125.94 271.009 125.225 271.009C124.529 271.009 123.901 271.251 123.34 271.734C122.779 272.198 122.373 272.768 122.122 273.445C121.871 274.083 121.745 274.905 121.745 275.91C121.745 276.877 121.9 277.737 122.209 278.491C122.538 279.226 122.944 279.767 123.427 280.115ZM141.751 278.926C141.751 281.246 140.359 282.406 137.575 282.406C136.86 282.406 136.193 282.28 135.574 282.029C134.955 281.797 134.598 281.575 134.501 281.362C134.269 280.879 134.143 280.289 134.124 279.593C134.124 279.419 134.279 279.332 134.588 279.332C134.878 279.332 135.033 279.4 135.052 279.535C135.129 279.864 135.303 280.192 135.574 280.521C135.864 280.85 136.202 281.12 136.589 281.333C136.995 281.526 137.411 281.623 137.836 281.623C138.455 281.623 138.928 281.439 139.257 281.072C139.605 280.705 139.779 280.25 139.779 279.709C139.779 279.168 139.605 278.713 139.257 278.346C138.909 277.959 138.329 277.476 137.517 276.896C136.686 276.316 136.019 275.755 135.516 275.214C135.033 274.653 134.791 273.977 134.791 273.184C134.791 272.643 134.936 272.13 135.226 271.647C135.516 271.164 135.932 270.767 136.473 270.458C137.014 270.149 137.672 269.994 138.445 269.994C139.605 269.994 140.407 270.216 140.852 270.661C141.181 271.086 141.345 271.84 141.345 272.923C141.345 273 141.277 273.039 141.142 273.039C141.007 273.039 140.813 272.971 140.562 272.836C140.311 272.681 140.185 272.546 140.185 272.43C140.166 272.005 139.972 271.618 139.605 271.27C139.238 270.922 138.803 270.748 138.3 270.748C137.778 270.748 137.353 270.922 137.024 271.27C136.695 271.618 136.531 272.024 136.531 272.488C136.531 272.952 136.695 273.377 137.024 273.764C137.353 274.151 137.643 274.421 137.894 274.576C138.01 274.653 138.155 274.76 138.329 274.895C138.522 275.011 138.745 275.146 138.996 275.301C139.325 275.494 139.595 275.668 139.808 275.823C140.04 275.978 140.262 276.161 140.475 276.374C140.688 276.567 140.92 276.848 141.171 277.215C141.558 277.776 141.751 278.346 141.751 278.926Z" fill="white"/>
<rect x="1" y="1" width="204.75" height="198" rx="20" fill="#2ECC71" stroke="black" stroke-width="2"/>
<path d="M63.596 151.281V159.094C63.596 161.252 65.0133 163 66.7631 163H111.103C112.853 163 114.27 161.252 114.27 159.094V75.4153C115.173 74.927 116.036 74.3533 116.841 73.677L144.959 85.3053C146.618 85.9914 148.414 84.8879 148.97 82.8444L150.983 75.4373C151.539 73.3914 150.644 71.177 148.988 70.491L123.571 59.9808C123.655 59.1703 123.771 58.3695 123.771 57.5321C123.771 46.7461 116.681 38.001 107.936 38.001C102.059 38.001 96.9894 41.9951 94.2558 47.8569L70.9121 38.2037C69.2533 37.5176 67.4579 38.6212 66.9017 40.6646L64.8886 48.0718C64.3323 50.1176 65.2271 52.332 66.8839 53.018L93.0127 63.8236C94.4537 69.0115 97.5575 73.2327 101.6 75.4128V147.375H66.7631C65.0133 147.375 63.596 149.123 63.596 151.281ZM44.5932 112.219C44.5932 123.005 55.9375 131.75 69.9302 131.75C83.923 131.75 95.2673 123.005 95.2673 112.219H95.2633C95.2633 108.394 95.675 110.449 78.428 67.9056C74.9284 59.2728 64.9242 59.2899 61.4305 67.9056C44.3319 110.088 44.5972 108.269 44.5972 112.219H44.5932ZM55.6782 108.313L69.9302 73.157L84.1823 108.313H55.6782ZM120.608 143.469H120.604C120.604 154.255 131.949 163 145.941 163C159.934 163 171.278 154.255 171.278 143.469H171.274C171.274 139.643 171.686 141.699 154.439 99.1553C150.939 90.5226 140.935 90.5397 137.442 99.1553C120.343 141.338 120.608 139.519 120.608 143.469ZM131.689 139.563L145.941 104.407L160.193 139.563H131.689Z" fill="#0D1B2A"/>
</svg>
