<svg width="294" height="81" viewBox="0 0 294 81" fill="none" xmlns="http://www.w3.org/2000/svg">
<rect x="2" y="2" width="289.645" height="77" rx="19" fill="#2ECC71" stroke="black" stroke-width="4"/>
<path d="M82.5015 53.0439H81.8423L81.1831 53.022H77.9092C72.709 53.022 69.9038 52.9854 69.4937 52.9121C68.7319 52.7803 68.3511 52.458 68.3511 51.9453C68.3511 51.7256 68.7466 51.3374 69.5376 50.7808C70.3433 50.2241 70.8633 49.4258 71.0977 48.3857C71.3467 47.3311 71.4712 43.4785 71.4712 36.8281C71.4712 30.1777 71.3833 26.5669 71.2075 25.9956C71.0464 25.4097 70.6216 24.9702 69.9331 24.6772C68.8491 24.2085 68.3071 23.7104 68.3071 23.1831C68.3071 22.6558 69.1274 22.3921 70.7681 22.3921H72.0864L72.7236 22.4141L74.7012 22.436C78.2461 22.436 80.0186 22.6997 80.0186 23.2271C80.0186 23.4028 79.4985 23.9961 78.4585 25.0068C77.8726 25.5781 77.4478 26.5596 77.1841 27.9512C76.9351 29.3281 76.8105 33.0122 76.8105 39.0034C76.8105 44.9946 76.8984 48.2686 77.0742 48.8252C77.2646 49.3818 77.6968 49.77 78.3706 49.9897C78.7808 50.1216 79.5864 50.1875 80.7876 50.1875C83.3804 50.1875 85.3213 49.8506 86.6104 49.1768C87.3428 48.7959 88.1338 48.0122 88.9834 46.8257C89.833 45.6392 90.4922 45.0459 90.9609 45.0459C91.4443 45.0459 91.686 45.3535 91.686 45.9688V46.54C91.686 49.7627 91.2905 51.7329 90.4995 52.4507C90.0601 52.8462 87.394 53.0439 82.5015 53.0439ZM99.2446 41.6841V42.4971C99.2446 44.9873 99.728 47.0527 100.695 48.6934C101.149 49.4697 101.728 50.085 102.431 50.5391C103.134 50.9932 103.844 51.2202 104.562 51.2202H105.001C106.334 51.2202 107.484 50.5757 108.451 49.2866C109.433 47.9829 109.923 46.1372 109.923 43.7495V42.1895C109.923 39.8311 109.433 37.8315 108.451 36.1909C107.484 34.5356 106.254 33.708 104.76 33.708H104.079C102.731 33.708 101.588 34.4331 100.651 35.8833C99.7134 37.3335 99.2446 39.2671 99.2446 41.6841ZM115.219 41.772V42.8706C115.219 44.0278 114.984 45.2949 114.516 46.6719C113.534 49.543 111.579 51.5498 108.649 52.6924C107.375 53.1904 106.144 53.4395 104.958 53.4395H104.232C101.435 53.4395 99.0981 52.502 97.2231 50.627C96.3735 49.7773 95.6851 48.6567 95.1577 47.2651C94.6304 45.8735 94.3667 44.394 94.3667 42.8267V42.4531C94.3667 41.0322 94.6157 39.5967 95.1138 38.1465C96.0806 35.3193 97.9775 33.3564 100.805 32.2578C102.079 31.7598 103.302 31.5107 104.474 31.5107H105.573C106.876 31.5107 108.158 31.8037 109.418 32.3896C111.806 33.5029 113.468 35.2754 114.406 37.707C114.948 39.1426 115.219 40.4976 115.219 41.772ZM128.292 32.939H127.721C126.945 32.939 126.19 33.3857 125.458 34.2793C124.726 35.1729 124.359 36.2129 124.359 37.3994L124.315 37.751L124.293 38.3003V38.8716L124.315 39.0474C124.315 40.5708 124.645 41.8013 125.304 42.7388C125.963 43.6763 126.945 44.145 128.249 44.145H128.402C129.413 44.145 130.277 43.7495 130.995 42.9585C131.713 42.1675 132.072 41.1201 132.072 39.8164V38.9595C132.028 38.6079 132.006 38.3223 132.006 38.1025C132.006 36.7109 131.618 35.5024 130.841 34.4771C130.08 33.4517 129.23 32.939 128.292 32.939ZM126.337 52.4727C125.312 52.4727 124.44 52.8315 123.722 53.5493C123.004 54.2671 122.646 55.168 122.646 56.252V56.4277C122.646 57.6729 123.136 58.6543 124.118 59.3721C125.099 60.0898 126.439 60.4487 128.139 60.4487H128.71C130.761 60.4487 132.409 59.98 133.654 59.0425C134.899 58.105 135.521 57.0063 135.521 55.7466L135.5 55.5708C135.5 54.7358 135.155 54.062 134.467 53.5493C133.778 53.0513 132.965 52.8022 132.028 52.8022C131.442 52.729 131.017 52.6924 130.753 52.6924L130.006 52.6265H129.633L128.314 52.5386L127.414 52.4727H126.337ZM139.85 32.6973C139.85 33.5322 139.323 34.0669 138.268 34.3013C137.213 34.521 136.686 34.9531 136.686 35.5977L136.752 36.0591L136.84 36.5864L136.95 37.1577C137.023 37.6411 137.06 38.3223 137.06 39.2012C137.06 40.0801 136.811 40.9883 136.312 41.9258C134.921 44.5186 132.24 45.9395 128.271 46.1885C126.996 46.2764 126.183 46.3862 125.832 46.5181C125.07 46.811 124.689 47.3018 124.689 47.9902C124.689 48.6787 125.253 49.1621 126.381 49.4404C126.542 49.4844 128 49.6235 130.753 49.8579C133.507 50.0776 135.346 50.4219 136.269 50.8906C138.217 51.8574 139.191 53.2563 139.191 55.0874C139.191 57.4897 138.114 59.4453 135.961 60.9541C133.822 62.4629 131.017 63.2173 127.545 63.2173C125.099 63.2173 123.063 62.7485 121.437 61.811C120.69 61.3862 120.082 60.8296 119.613 60.1411C119.159 59.4673 118.932 58.7642 118.932 58.0317C118.932 56.728 119.32 55.644 120.097 54.7798C121.342 53.4028 121.964 52.6704 121.964 52.5825C121.964 52.4946 121.693 52.1064 121.151 51.418C120.609 50.7295 120.338 50.0117 120.338 49.2646C120.338 48.5176 120.69 47.7119 121.393 46.8477C122.111 45.9688 122.47 45.478 122.47 45.3755C122.47 45.2729 122.03 44.5259 121.151 43.1343C120.272 41.728 119.833 40.395 119.833 39.1353C119.833 37.8755 120.104 36.7549 120.646 35.7734C122.184 32.9756 125.048 31.5767 129.237 31.5767H129.875L132.929 31.7744L134.049 31.8184C134.43 31.833 134.818 31.8403 135.214 31.8403L137.543 31.6865C139.081 31.6865 139.85 32.0234 139.85 32.6973ZM160.285 36.7402V37.9268C160.285 41.75 161.127 44.9434 162.812 47.5068C163.573 48.6641 164.518 49.5796 165.646 50.2534C166.789 50.9272 167.96 51.2642 169.162 51.2642H169.513C172.121 51.2642 174.208 50.0483 175.775 47.6167C176.391 46.6792 176.918 45.4268 177.357 43.8594C177.797 42.292 178.017 40.6221 178.017 38.8496V37.6411C178.017 35.6929 177.768 33.8545 177.27 32.126C174.779 27.8779 172.033 25.2778 169.03 24.3257C167.946 24.3403 166.862 24.5967 165.778 25.0947C163.522 26.1494 161.94 28.2734 161.032 31.4668C160.534 33.2393 160.285 34.9971 160.285 36.7402ZM184.037 36.96V37.9927C184.037 39.9849 183.686 41.9697 182.982 43.9473C181.532 48.0195 178.954 50.8467 175.248 52.4287C173.358 53.2344 171.461 53.6372 169.557 53.6372H168.524C166.635 53.6372 164.862 53.2563 163.207 52.4946C161.566 51.7329 160.146 50.7368 158.944 49.5063C157.743 48.2612 156.769 46.6279 156.022 44.6064C155.29 42.585 154.923 40.5781 154.923 38.5859V37.5532C154.923 35.5171 155.275 33.5176 155.978 31.5547C156.681 29.5771 157.67 27.8853 158.944 26.479C160.219 25.0728 161.764 23.9741 163.581 23.1831C165.397 22.3921 167.279 21.9966 169.228 21.9966H169.733C173.908 21.9966 177.262 23.3076 179.796 25.9297C181.056 27.2334 182.074 28.8887 182.851 30.8955C183.642 32.9023 184.037 34.9238 184.037 36.96ZM210.47 50.605C211.115 51.103 211.437 51.4619 211.437 51.6816C211.437 51.8867 211.327 52.0845 211.107 52.2749C210.478 52.8462 209.13 53.1318 207.064 53.1318C206.391 53.1318 205.863 53.022 205.482 52.8022C205.116 52.5679 204.787 52.1504 204.494 51.5498C204.215 50.9492 203.981 50.6489 203.791 50.6489C203.6 50.6636 203.175 50.9053 202.516 51.374C200.67 52.707 198.905 53.3735 197.221 53.3735C197.206 53.3735 197.184 53.3735 197.155 53.3735H196.496C194.079 53.3735 192.328 52.3481 191.244 50.2974C190.688 49.228 190.402 46.6133 190.387 42.4531C190.387 38.2783 190.321 35.9858 190.189 35.5757C190.058 35.1509 189.589 34.7554 188.783 34.3892C187.992 34.0083 187.597 33.7153 187.597 33.5103C187.597 32.9683 187.853 32.6167 188.366 32.4556C189.508 32.0894 190.966 31.9062 192.738 31.9062C193.764 31.9062 194.416 32.3237 194.694 33.1587C195.06 34.228 195.243 36.7842 195.243 40.8271C195.243 44.8555 195.419 47.3018 195.771 48.166C196.371 49.6455 197.462 50.3853 199.044 50.3853C199.865 50.3853 200.678 50.1729 201.483 49.748C202.304 49.3232 202.941 48.752 203.395 48.0342C203.849 47.3164 204.076 45.3462 204.076 42.1235C204.076 38.8862 203.966 36.8501 203.747 36.0151C203.542 35.1802 203.219 34.5283 202.78 34.0596C202.34 33.5762 202.121 33.1953 202.121 32.917C202.121 32.2725 203.842 31.9502 207.284 31.9502C208.002 31.9502 208.471 32.1113 208.69 32.4336C208.91 32.7412 209.02 33.3125 209.02 34.1475L208.954 35.4438L208.844 41.2886C208.844 45.0972 208.954 47.4775 209.174 48.4297C209.394 49.3672 209.826 50.0923 210.47 50.605ZM224.467 50.0996L227.807 49.5942C228.188 49.5942 228.378 49.8945 228.378 50.4951C228.378 51.0811 227.814 51.689 226.686 52.3188C225.558 52.9487 224.372 53.2637 223.126 53.2637H222.687C221.706 53.2637 220.819 53.0073 220.028 52.4946C219.237 51.9819 218.659 51.3521 218.292 50.605C217.663 49.3013 217.348 46.833 217.348 43.2002C217.348 39.5527 217.216 37.2749 216.952 36.3667C216.703 35.4585 216.374 34.8359 215.963 34.499C215.202 33.8838 214.821 33.5469 214.821 33.4883C214.821 33.1074 215.019 32.7852 215.414 32.5215C216.425 31.8477 216.974 31.4668 217.062 31.3789C217.165 31.2764 217.729 30.0752 218.754 27.7754C219.267 26.6328 219.845 26.0615 220.49 26.0615C221.149 26.0615 221.588 26.2959 221.808 26.7646C221.867 26.8818 221.991 27.519 222.182 28.6763C222.387 29.8335 222.672 30.5806 223.039 30.9175C223.405 31.2397 224.218 31.5547 225.478 31.8623C226.737 32.1553 227.367 32.5801 227.367 33.1367C227.367 33.6934 226.671 34.1108 225.28 34.3892C223.888 34.6675 223.046 35.0264 222.753 35.4658C222.24 36.2129 221.984 38.3223 221.984 41.7939C221.984 45.2656 222.145 47.4556 222.467 48.3638C222.877 49.521 223.544 50.0996 224.467 50.0996Z" fill="black"/>
</svg>
