<svg width="207" height="267" viewBox="0 0 207 267" fill="none" xmlns="http://www.w3.org/2000/svg">
<path d="M80.4355 236L76.3855 236.15C75.8255 236.15 75.5455 236.03 75.5455 235.79C75.5455 235.57 75.7655 235.4 76.2055 235.28C77.0255 235.12 77.6355 234.88 78.0355 234.56C78.4355 234.24 78.6355 233.76 78.6355 233.12V219.2C78.6355 218.5 78.5255 218.05 78.3055 217.85C78.0855 217.65 77.6155 217.48 76.8955 217.34C76.1755 217.22 75.8155 217.02 75.8155 216.74C75.8155 216.52 76.1055 216.41 76.6855 216.41L80.0455 216.5L83.8255 216.41C84.4055 216.41 84.6955 216.52 84.6955 216.74C84.6955 217.04 84.4155 217.23 83.8555 217.31C83.2955 217.41 82.8855 217.49 82.6255 217.55C82.3855 217.61 82.1155 217.7 81.8155 217.82C81.2955 218.04 81.0355 218.43 81.0355 218.99V233.12C81.0355 233.78 81.1855 234.25 81.4855 234.53C81.7855 234.81 82.4055 234.95 83.3455 234.95H87.7255C87.8055 234.95 88.0555 234.87 88.4755 234.71C89.5155 234.27 90.3455 233.38 90.9655 232.04C91.1855 231.44 91.4155 231.14 91.6555 231.14C91.8755 231.14 91.9855 231.32 91.9855 231.68C91.9655 231.7 91.9555 231.73 91.9555 231.77V231.83C91.5155 233.53 91.2455 234.8 91.1455 235.64C91.1055 235.98 90.9655 236.15 90.7255 236.15L80.4355 236ZM105.762 229.79C105.762 230.95 105.492 232.04 104.952 233.06C104.432 234.06 103.662 234.87 102.642 235.49C101.642 236.11 100.422 236.42 98.9821 236.42C97.8621 236.42 96.8421 236.16 95.9221 235.64C95.0221 235.12 94.3121 234.41 93.7921 233.51C93.2721 232.59 93.0121 231.55 93.0121 230.39C93.0121 229.53 93.1821 228.7 93.5221 227.9C93.8621 227.08 94.3321 226.35 94.9321 225.71C95.5521 225.05 96.2521 224.53 97.0321 224.15C97.8121 223.77 98.6421 223.58 99.5221 223.58C100.702 223.58 101.762 223.86 102.702 224.42C103.642 224.96 104.382 225.7 104.922 226.64C105.482 227.56 105.762 228.61 105.762 229.79ZM95.4721 229.7C95.4721 230.72 95.6521 231.68 96.0121 232.58C96.3921 233.46 96.8921 234.17 97.5121 234.71C98.1521 235.25 98.8521 235.52 99.6121 235.52C100.612 235.52 101.372 235.31 101.892 234.89C102.432 234.45 102.802 233.85 103.002 233.09C103.202 232.31 103.302 231.41 103.302 230.39C103.302 229.35 103.112 228.39 102.732 227.51C102.372 226.61 101.872 225.89 101.232 225.35C100.612 224.79 99.8921 224.51 99.0721 224.51C96.6721 224.51 95.4721 226.24 95.4721 229.7ZM119.356 238.31C119.356 239.11 119.156 239.89 118.756 240.65C118.356 241.41 117.826 242.09 117.166 242.69C116.526 243.31 115.816 243.8 115.036 244.16C114.256 244.52 113.486 244.7 112.726 244.7C111.706 244.7 110.776 244.58 109.936 244.34C109.096 244.1 108.416 243.73 107.896 243.23C107.396 242.73 107.146 242.08 107.146 241.28C107.146 240.66 107.296 240.12 107.596 239.66C107.916 239.22 108.446 238.77 109.186 238.31C109.886 237.87 110.396 237.41 110.716 236.93C110.036 236.79 109.416 236.53 108.856 236.15C108.296 235.79 108.016 235.3 108.016 234.68C108.016 234.3 108.246 233.93 108.706 233.57C108.846 233.45 109.036 233.33 109.276 233.21C109.816 232.89 110.216 232.55 110.476 232.19C110.216 232.13 109.836 231.87 109.336 231.41C108.356 230.49 107.866 229.38 107.866 228.08C107.866 227.2 108.116 226.42 108.616 225.74C109.116 225.06 109.776 224.52 110.596 224.12C111.416 223.72 112.286 223.52 113.206 223.52C113.466 223.52 113.736 223.55 114.016 223.61C114.316 223.67 114.636 223.75 114.976 223.85C116.276 224.25 117.286 224.45 118.006 224.45L118.966 224.42H119.326C119.486 224.42 119.616 224.45 119.716 224.51C119.816 224.57 119.866 224.73 119.866 224.99C119.866 225.35 119.776 225.53 119.596 225.53C118.876 225.53 118.456 225.55 118.336 225.59L118.096 225.68C118.016 225.72 117.946 225.75 117.886 225.77C117.806 225.95 117.766 226.41 117.766 227.15C117.766 228.15 117.546 229.08 117.106 229.94C116.666 230.8 116.066 231.5 115.306 232.04C114.546 232.56 113.686 232.82 112.726 232.82C112.106 232.82 111.566 232.7 111.106 232.46C110.226 233.16 109.786 233.65 109.786 233.93C109.786 234.57 110.746 234.98 112.666 235.16C115.306 235.4 116.836 235.62 117.256 235.82C117.556 235.94 117.866 236.08 118.186 236.24C118.526 236.42 118.806 236.66 119.026 236.96C119.246 237.28 119.356 237.73 119.356 238.31ZM110.206 228.02C110.206 228.62 110.326 229.21 110.566 229.79C110.806 230.35 111.136 230.82 111.556 231.2C111.976 231.58 112.446 231.77 112.966 231.77C113.486 231.77 113.946 231.6 114.346 231.26C114.766 230.92 115.086 230.47 115.306 229.91C115.546 229.33 115.666 228.72 115.666 228.08C115.666 227.44 115.536 226.84 115.276 226.28C115.036 225.72 114.706 225.27 114.286 224.93C113.866 224.59 113.386 224.42 112.846 224.42C112.326 224.42 111.866 224.6 111.466 224.96C111.066 225.3 110.756 225.75 110.536 226.31C110.316 226.85 110.206 227.42 110.206 228.02ZM109.276 240.02C109.276 241.04 109.616 241.87 110.296 242.51C110.996 243.17 111.936 243.5 113.116 243.5C113.916 243.5 114.646 243.31 115.306 242.93C115.966 242.57 116.496 242.07 116.896 241.43C117.316 240.79 117.526 240.07 117.526 239.27C117.526 238.77 117.276 238.35 116.776 238.01C116.296 237.67 115.716 237.43 115.036 237.29C114.336 237.17 113.386 237.08 112.186 237.02H111.496C111.376 237.1 111.186 237.25 110.926 237.47C110.686 237.71 110.376 238.02 109.996 238.4C109.516 238.96 109.276 239.5 109.276 240.02ZM91.0404 259.79C91.0404 260.95 90.7704 262.04 90.2304 263.06C89.7104 264.06 88.9404 264.87 87.9204 265.49C86.9204 266.11 85.7004 266.42 84.2604 266.42C83.1404 266.42 82.1204 266.16 81.2004 265.64C80.3004 265.12 79.5904 264.41 79.0704 263.51C78.5504 262.59 78.2904 261.55 78.2904 260.39C78.2904 259.53 78.4604 258.7 78.8004 257.9C79.1404 257.08 79.6104 256.35 80.2104 255.71C80.8304 255.05 81.5304 254.53 82.3104 254.15C83.0904 253.77 83.9204 253.58 84.8004 253.58C85.9804 253.58 87.0404 253.86 87.9804 254.42C88.9204 254.96 89.6604 255.7 90.2004 256.64C90.7604 257.56 91.0404 258.61 91.0404 259.79ZM80.7504 259.7C80.7504 260.72 80.9304 261.68 81.2904 262.58C81.6704 263.46 82.1704 264.17 82.7904 264.71C83.4304 265.25 84.1304 265.52 84.8904 265.52C85.8904 265.52 86.6504 265.31 87.1704 264.89C87.7104 264.45 88.0804 263.85 88.2804 263.09C88.4804 262.31 88.5804 261.41 88.5804 260.39C88.5804 259.35 88.3904 258.39 88.0104 257.51C87.6504 256.61 87.1504 255.89 86.5104 255.35C85.8904 254.79 85.1704 254.51 84.3504 254.51C81.9504 254.51 80.7504 256.24 80.7504 259.7ZM104.484 266.06C103.684 266.4 103.224 266.57 103.104 266.57C102.944 266.57 102.864 266.53 102.864 266.45L103.014 264.47V264.29C101.554 265.71 99.9039 266.42 98.0639 266.42C97.0439 266.42 96.2139 266.11 95.5739 265.49C94.9539 264.87 94.6439 263.99 94.6439 262.85V256.76C94.6439 255.94 94.2139 255.37 93.3539 255.05C93.0939 254.97 92.9639 254.8 92.9639 254.54C92.9639 254.3 93.1139 254.15 93.4139 254.09C93.7539 254.07 94.1839 254.02 94.7039 253.94C95.2239 253.86 95.8239 253.74 96.5039 253.58H96.5639C96.8439 253.58 96.9639 253.72 96.9239 254C96.8039 254.92 96.7439 255.69 96.7439 256.31V262.16C96.7439 262.64 96.8639 263.09 97.1039 263.51C97.3439 263.91 97.6539 264.24 98.0339 264.5C98.4339 264.76 98.8439 264.89 99.2639 264.89C100.424 264.89 101.354 264.63 102.054 264.11C102.774 263.57 103.134 262.88 103.134 262.04V256.55C103.134 256.01 102.924 255.63 102.504 255.41C102.084 255.19 101.644 255.07 101.184 255.05C100.724 255.05 100.494 254.88 100.494 254.54C100.494 254.38 100.584 254.26 100.764 254.18C100.844 254.14 100.944 254.12 101.064 254.12C101.204 254.1 101.364 254.08 101.544 254.06C102.324 254.06 102.994 254.01 103.554 253.91C103.834 253.87 104.014 253.84 104.094 253.82C104.234 253.82 104.554 253.73 105.054 253.55H105.114C105.374 253.55 105.504 253.67 105.504 253.91C105.504 253.99 105.474 254.09 105.414 254.21C105.294 254.41 105.234 255.08 105.234 256.22V262.58C105.234 263.96 105.414 264.65 105.774 264.65C106.394 264.65 106.854 264.62 107.154 264.56H107.244C107.484 264.56 107.604 264.68 107.604 264.92C107.604 265.22 107.464 265.37 107.184 265.37C106.664 265.45 106.174 265.55 105.714 265.67C105.274 265.77 104.864 265.9 104.484 266.06ZM116.614 265.19C116.294 265.49 115.844 265.77 115.264 266.03C114.704 266.29 114.144 266.42 113.584 266.42C112.604 266.42 111.834 266.13 111.274 265.55C110.734 264.95 110.464 264.05 110.464 262.85V255.89C110.464 255.71 110.394 255.59 110.254 255.53C110.114 255.47 109.804 255.44 109.324 255.44C109.264 255.44 109.184 255.36 109.084 255.2C109.004 255.04 108.964 254.92 108.964 254.84C108.964 254.76 109.014 254.69 109.114 254.63C109.574 254.49 110.044 254.2 110.524 253.76C111.004 253.32 111.394 252.91 111.694 252.53C111.994 252.15 112.174 251.96 112.234 251.96C112.514 251.96 112.654 252.06 112.654 252.26L112.594 253.58C112.594 253.86 112.834 254 113.314 254H116.734C116.934 254 117.034 254.24 117.034 254.72C117.034 255.2 116.934 255.44 116.734 255.44H113.764C113.224 255.44 112.884 255.48 112.744 255.56C112.624 255.64 112.564 255.88 112.564 256.28V261.95C112.564 262.97 112.754 263.7 113.134 264.14C113.514 264.56 113.984 264.77 114.544 264.77C115.544 264.77 116.294 264.58 116.794 264.2C116.814 264.18 116.844 264.17 116.884 264.17C117.024 264.17 117.094 264.3 117.094 264.56C117.094 264.72 116.934 264.93 116.614 265.19Z" fill="white"/>
<rect x="1" y="1" width="204.75" height="198" rx="20" fill="#2ECC71" stroke="black" stroke-width="2"/>
<path d="M141.675 48.4176C157.766 59.5783 168.238 77.8323 168.238 98.492C168.238 132.421 139.938 159.925 105.023 160C70.159 160.074 41.6038 132.47 41.5527 98.5912C41.5272 77.9315 51.9991 59.6279 68.0646 48.4424C71.053 46.3839 75.2162 47.252 77.0041 50.3522L81.0396 57.3214C82.5466 59.9256 81.8314 63.2242 79.3539 65.0099C68.7542 72.6488 61.9858 84.7519 61.9858 98.4672C61.9602 121.359 81.0141 140.159 104.895 140.159C128.291 140.159 147.958 121.756 147.805 98.2192C147.728 85.372 141.496 72.9712 130.411 64.9851C127.934 63.1994 127.244 59.9008 128.751 57.3214L132.786 50.3522C134.574 47.2768 138.712 46.3591 141.675 48.4176ZM115.112 100.476V40.9524C115.112 37.6538 112.379 35 108.982 35H100.809C97.4116 35 94.6787 37.6538 94.6787 40.9524V100.476C94.6787 103.775 97.4116 106.428 100.809 106.428H108.982C112.379 106.428 115.112 103.775 115.112 100.476Z" fill="#0D1B2A"/>
</svg>
