<svg width="205" height="49" viewBox="0 0 205 49" fill="none" xmlns="http://www.w3.org/2000/svg">
<rect width="204.443" height="49" rx="17" fill="#2ECC71"/>
<path d="M42.8072 31.538C42.5872 32.066 42.4112 32.33 42.2792 32.33C42.1472 32.33 41.9822 32.044 41.7842 31.472C41.1682 29.624 40.3652 27.446 39.3752 24.938C38.4072 22.43 37.2412 19.603 35.8772 16.457C35.7892 16.215 35.7012 16.094 35.6132 16.094C35.5252 16.094 35.4702 16.215 35.4482 16.457C35.0962 19.053 34.8322 21.374 34.6562 23.42C34.4802 25.444 34.3922 27.182 34.3922 28.634C34.3922 29.162 34.5682 29.69 34.9202 30.218C35.2722 30.746 35.8112 31.076 36.5372 31.208C37.2632 31.34 37.6262 31.527 37.6262 31.769C37.6262 32.033 37.3072 32.165 36.6692 32.165L33.5672 32L30.5642 32.165C29.9262 32.165 29.6072 32.033 29.6072 31.769C29.6072 31.527 29.9702 31.34 30.6962 31.208C31.8402 31.01 32.5222 30.152 32.7422 28.634C33.1822 25.246 33.5122 22.353 33.7322 19.955C33.9742 17.557 34.0952 15.654 34.0952 14.246L34.0622 13.487C34.0622 13.179 33.9522 12.893 33.7322 12.629C33.5122 12.343 33.3142 12.145 33.1382 12.035C32.9842 11.925 32.7862 11.837 32.5442 11.771C32.3022 11.683 32.1042 11.617 31.9502 11.573C31.8622 11.551 31.7632 11.529 31.6532 11.507C31.5652 11.463 31.4552 11.43 31.3232 11.408C31.0592 11.364 30.8282 11.309 30.6302 11.243C30.4542 11.177 30.3662 11.012 30.3662 10.748C30.3662 10.506 30.6192 10.385 31.1252 10.385L36.6032 10.649C36.8892 10.649 37.1862 11.298 37.4942 12.596C37.5602 12.882 37.6152 13.124 37.6592 13.322C37.7252 13.498 37.7692 13.63 37.7912 13.718L43.0052 26.951C43.1372 27.281 43.2692 27.446 43.4012 27.446C43.5112 27.446 43.6322 27.314 43.7642 27.05L50.2652 13.52C50.3312 13.366 50.3862 13.19 50.4302 12.992C50.4962 12.794 50.5512 12.574 50.5952 12.332C50.7932 11.188 50.9912 10.616 51.1892 10.616H52.3772C52.6412 10.616 52.9492 10.605 53.3012 10.583C53.6532 10.561 54.0492 10.528 54.4892 10.484C54.9292 10.44 55.2702 10.407 55.5122 10.385C55.7762 10.363 55.9522 10.352 56.0402 10.352H56.1392C56.6012 10.352 56.8322 10.462 56.8322 10.682C56.8322 10.88 56.6892 11.056 56.4032 11.21C56.1392 11.364 55.8312 11.496 55.4792 11.606C55.1492 11.694 54.8962 11.771 54.7202 11.837C54.4342 11.925 54.1152 12.101 53.7632 12.365C53.4112 12.629 53.2352 12.926 53.2352 13.256C53.2352 14.73 53.2572 16.248 53.3012 17.81C53.3672 19.372 53.4552 20.967 53.5652 22.595C53.7852 25.851 53.9172 27.886 53.9612 28.7C54.0052 29.492 54.2142 30.075 54.5882 30.449C54.9842 30.801 55.5782 31.043 56.3702 31.175C57.1402 31.351 57.5252 31.549 57.5252 31.769C57.5252 32.033 57.2062 32.165 56.5682 32.165L52.7072 32L49.2422 32.165C48.6042 32.165 48.2852 32.044 48.2852 31.802C48.2852 31.494 48.6262 31.296 49.3082 31.208C49.9902 31.12 50.4522 30.9 50.6942 30.548C50.9362 30.196 51.0572 29.624 51.0572 28.832C51.0572 26.676 50.9252 22.628 50.6612 16.688C50.6612 16.336 50.6062 16.16 50.4962 16.16C50.4082 16.16 50.2872 16.336 50.1332 16.688L42.8072 31.538ZM66.1833 31.175C65.8753 31.461 65.4133 31.747 64.7973 32.033C64.2033 32.319 63.5433 32.462 62.8173 32.462C62.3333 32.462 61.8603 32.33 61.3983 32.066C60.9583 31.824 60.5953 31.505 60.3093 31.109C60.0233 30.691 59.8803 30.273 59.8803 29.855C59.8803 28.535 60.6833 27.545 62.2893 26.885L65.6553 25.499C66.0733 25.323 66.3263 25.169 66.4143 25.037C66.5023 24.905 66.5573 24.619 66.5793 24.179L66.6453 22.133V22.067C66.6453 21.495 66.4583 21 66.0843 20.582C65.7323 20.164 65.3253 19.955 64.8633 19.955C64.3793 19.955 63.9283 20.076 63.5103 20.318C63.0923 20.538 62.8283 20.747 62.7183 20.945C62.6083 21.165 62.5533 21.396 62.5533 21.638L62.5863 22.1C62.5863 22.232 62.4323 22.386 62.1243 22.562C61.8163 22.738 61.4863 22.903 61.1343 23.057C60.7823 23.189 60.5293 23.255 60.3753 23.255C60.1553 23.255 60.0453 23.156 60.0453 22.958C60.0453 22.452 60.2213 21.968 60.5733 21.506C60.9253 21.044 61.3763 20.604 61.9263 20.186C62.4983 19.768 63.0923 19.394 63.7083 19.064C64.6103 18.58 65.4683 18.338 66.2823 18.338C67.0523 18.338 67.7013 18.624 68.2294 19.196C68.7573 19.768 69.0103 20.461 68.9884 21.275L68.8234 28.403V28.601C68.8234 30.163 69.2194 30.944 70.0113 30.944C70.5394 30.944 70.9794 30.79 71.3314 30.482C71.3753 30.438 71.4303 30.416 71.4964 30.416C71.5844 30.416 71.6614 30.449 71.7274 30.515C71.8154 30.581 71.8594 30.669 71.8594 30.779V30.812C71.7714 30.988 71.5844 31.208 71.2983 31.472C71.0124 31.736 70.6824 31.967 70.3083 32.165C69.9344 32.363 69.5714 32.462 69.2194 32.462C68.6693 32.462 68.2073 32.319 67.8334 32.033C67.4814 31.747 67.2284 31.461 67.0744 31.175C66.9203 30.889 66.8213 30.746 66.7774 30.746C66.6673 30.746 66.4693 30.889 66.1833 31.175ZM62.5203 29.129C62.5203 29.701 62.6963 30.152 63.0483 30.482C63.4003 30.79 63.8293 30.944 64.3353 30.944C64.8413 30.944 65.3253 30.746 65.7873 30.35C66.2493 29.954 66.4913 29.415 66.5133 28.733L66.5793 27.116V26.951C66.5793 26.599 66.4803 26.423 66.2823 26.423C66.1503 26.423 65.9963 26.456 65.8203 26.522C63.6203 27.27 62.5203 28.139 62.5203 29.129ZM77.483 13.421C77.461 13.883 77.296 14.268 76.988 14.576C76.68 14.884 76.284 15.049 75.8 15.071C75.316 15.049 74.92 14.884 74.612 14.576C74.304 14.268 74.15 13.872 74.15 13.388C74.15 12.904 74.304 12.508 74.612 12.2C74.92 11.892 75.316 11.738 75.8 11.738C76.284 11.738 76.68 11.892 76.988 12.2C77.296 12.508 77.461 12.915 77.483 13.421ZM76.031 31.934L73.358 32.099C72.918 32.099 72.698 31.989 72.698 31.769C72.698 31.571 73.006 31.373 73.622 31.175C74.26 30.977 74.623 30.768 74.711 30.548C74.821 30.328 74.876 30.13 74.876 29.954V22.793C74.876 21.429 74.359 20.626 73.325 20.384C73.149 20.34 73.061 20.197 73.061 19.955C73.061 19.713 73.138 19.581 73.292 19.559C74.348 19.295 75.47 18.778 76.658 18.008C77.01 17.788 77.208 17.678 77.252 17.678C77.406 17.678 77.483 17.733 77.483 17.843C77.285 19.845 77.186 21.33 77.186 22.298V29.954C77.186 30.394 77.318 30.68 77.582 30.812C77.868 30.944 78.242 31.087 78.704 31.241C79.144 31.417 79.364 31.593 79.364 31.769C79.364 31.989 79.144 32.099 78.704 32.099L76.031 31.934ZM84.1199 31.934L81.4469 32.099C81.0069 32.099 80.7869 31.989 80.7869 31.769C80.7869 31.637 80.8749 31.527 81.0509 31.439C81.2269 31.329 81.4139 31.241 81.6119 31.175C81.8099 31.109 81.9309 31.076 81.9749 31.076C82.0189 31.076 82.1289 31.032 82.3049 30.944C82.4809 30.856 82.5909 30.779 82.6349 30.713C82.8549 30.493 82.9649 30.24 82.9649 29.954V22.859C82.9649 21.451 82.5139 20.659 81.6119 20.483C81.4359 20.439 81.3479 20.296 81.3479 20.054C81.3479 19.812 81.4249 19.68 81.5789 19.658C82.7229 19.394 83.9329 18.789 85.2089 17.843C85.2309 17.821 85.2749 17.81 85.3409 17.81C85.3849 17.81 85.4399 17.909 85.5059 18.107L85.2749 20.252C85.2749 20.406 85.2859 20.494 85.3079 20.516C85.7259 20.164 86.2319 19.823 86.8259 19.493C87.4419 19.163 88.1019 18.888 88.8059 18.668C89.5099 18.448 90.1919 18.338 90.8519 18.338C91.5119 18.338 92.1169 18.547 92.6669 18.965C93.2169 19.361 93.6569 19.9 93.9869 20.582C94.3169 21.264 94.4819 22.045 94.4819 22.925V29.954C94.4819 30.394 94.6139 30.68 94.8779 30.812C95.1639 30.944 95.5379 31.087 95.9999 31.241C96.4399 31.417 96.6599 31.593 96.6599 31.769C96.6599 31.989 96.4399 32.099 95.9999 32.099L93.3599 31.934L90.6539 32.099C90.2139 32.099 89.9939 31.989 89.9939 31.769C89.9939 31.571 90.2469 31.384 90.7529 31.208C90.7969 31.208 90.8409 31.197 90.8849 31.175C91.6329 30.933 92.0509 30.636 92.1389 30.284C92.1609 30.24 92.1719 30.185 92.1719 30.119C92.1719 30.053 92.1719 29.998 92.1719 29.954V23.024C92.1719 22.078 91.8969 21.33 91.3469 20.78C90.7969 20.23 89.9939 19.955 88.9379 19.955C87.8599 19.955 86.9799 20.186 86.2979 20.648C85.6159 21.11 85.2749 21.946 85.2749 23.156V29.954C85.2749 30.394 85.4069 30.68 85.6709 30.812C85.9569 30.944 86.3309 31.087 86.7929 31.241C87.2329 31.417 87.4529 31.593 87.4529 31.769C87.4529 31.989 87.2329 32.099 86.7929 32.099L84.1199 31.934ZM109.45 31.934L106.777 32.099C106.337 32.099 106.117 31.989 106.117 31.769C106.117 31.637 106.205 31.527 106.381 31.439C106.557 31.329 106.744 31.241 106.942 31.175C107.14 31.109 107.261 31.076 107.305 31.076C107.349 31.076 107.459 31.032 107.635 30.944C107.811 30.856 107.921 30.779 107.965 30.713C108.185 30.493 108.295 30.24 108.295 29.954V22.859C108.295 22.177 108.207 21.638 108.031 21.242C107.855 20.846 107.514 20.593 107.008 20.483C106.832 20.439 106.744 20.296 106.744 20.054C106.744 19.812 106.821 19.68 106.975 19.658C107.481 19.548 107.987 19.361 108.493 19.097C109.021 18.833 109.56 18.514 110.11 18.14L110.605 17.843H110.638C110.726 17.843 110.803 17.909 110.869 18.041L110.704 20.153C110.704 20.373 110.726 20.505 110.77 20.549C112.332 19.075 114.07 18.338 115.984 18.338C117.546 18.338 118.569 18.998 119.053 20.318C119.163 20.56 119.284 20.681 119.416 20.681C119.526 20.681 119.757 20.472 120.109 20.054C120.461 19.658 121.077 19.273 121.957 18.899C122.837 18.525 123.783 18.338 124.795 18.338C125.455 18.338 126.027 18.547 126.511 18.965C127.017 19.383 127.402 19.944 127.666 20.648C127.93 21.33 128.062 22.089 128.062 22.925V29.954C128.062 30.394 128.194 30.68 128.458 30.812C128.744 30.944 129.118 31.087 129.58 31.241C130.02 31.417 130.24 31.593 130.24 31.769C130.24 31.989 130.02 32.099 129.58 32.099L126.973 31.934L124.234 32.099C123.794 32.099 123.574 31.989 123.574 31.769C123.574 31.571 123.827 31.384 124.333 31.208C124.377 31.208 124.421 31.197 124.465 31.175C125.213 30.933 125.631 30.636 125.719 30.284C125.741 30.24 125.752 30.185 125.752 30.119C125.752 30.053 125.752 29.998 125.752 29.954V23.024C125.752 22.21 125.488 21.484 124.96 20.846C124.432 20.208 123.816 19.889 123.112 19.889C121.946 19.889 121.022 20.153 120.34 20.681C119.658 21.209 119.317 22.034 119.317 23.156V29.954C119.317 30.196 119.35 30.35 119.416 30.416L119.548 30.614C119.592 30.702 119.647 30.757 119.713 30.779C119.823 30.801 119.889 30.834 119.911 30.878C119.955 30.922 120.032 30.955 120.142 30.977C120.252 30.999 120.318 31.032 120.34 31.076C120.516 31.164 120.67 31.208 120.802 31.208C121.308 31.384 121.561 31.571 121.561 31.769C121.561 31.989 121.341 32.099 120.901 32.099L118.195 31.934L115.456 32.099C115.016 32.099 114.796 31.989 114.796 31.769C114.796 31.571 115.104 31.373 115.72 31.175C116.336 30.977 116.71 30.768 116.842 30.548C116.952 30.328 117.007 30.13 117.007 29.954V23.024C117.007 22.21 116.743 21.484 116.215 20.846C115.687 20.208 115.071 19.889 114.367 19.889C113.201 19.889 112.277 20.153 111.595 20.681C110.935 21.187 110.605 22.012 110.605 23.156V29.954C110.605 30.372 110.726 30.658 110.968 30.812C111.232 30.944 111.408 31.021 111.496 31.043C112.354 31.263 112.783 31.516 112.783 31.802C112.783 32 112.563 32.099 112.123 32.099L109.45 31.934ZM142.626 29.657C142.538 30.031 142.263 30.438 141.801 30.878C141.339 31.318 140.734 31.692 139.986 32C139.238 32.308 138.38 32.462 137.412 32.462C136.444 32.462 135.542 32.165 134.706 31.571C133.892 30.955 133.232 30.119 132.726 29.063C132.242 28.007 132 26.808 132 25.466C132 24.124 132.286 22.914 132.858 21.836C133.452 20.758 134.244 19.911 135.234 19.295C136.224 18.657 137.335 18.338 138.567 18.338C139.887 18.338 140.921 18.613 141.669 19.163C142.439 19.713 142.824 20.461 142.824 21.407C142.824 22.353 142.582 22.947 142.098 23.189C141.636 23.409 141.031 23.519 140.283 23.519H134.871C134.563 23.519 134.343 23.596 134.211 23.75C134.101 23.882 134.046 24.212 134.046 24.74C134.046 25.752 134.266 26.698 134.706 27.578C135.146 28.458 135.729 29.162 136.455 29.69C137.203 30.218 138.039 30.482 138.963 30.482C140.305 30.482 141.361 29.998 142.131 29.03C142.285 28.876 142.406 28.799 142.494 28.799C142.648 28.799 142.725 28.909 142.725 29.129C142.725 29.283 142.692 29.459 142.626 29.657ZM134.673 22.001C134.673 22.331 134.882 22.496 135.3 22.496H138.006C138.512 22.496 138.963 22.485 139.359 22.463C139.777 22.419 140.129 22.375 140.415 22.331C140.635 22.309 140.745 21.99 140.745 21.374C140.745 20.78 140.47 20.296 139.92 19.922C139.37 19.548 138.71 19.361 137.94 19.361C137.412 19.361 136.895 19.515 136.389 19.823C135.905 20.109 135.498 20.461 135.168 20.879C134.838 21.275 134.673 21.649 134.673 22.001ZM147.928 31.934L145.255 32.099C144.815 32.099 144.595 31.989 144.595 31.769C144.595 31.637 144.683 31.527 144.859 31.439C145.035 31.329 145.222 31.241 145.42 31.175C145.618 31.109 145.739 31.076 145.783 31.076C145.827 31.076 145.937 31.032 146.113 30.944C146.289 30.856 146.399 30.779 146.443 30.713C146.663 30.493 146.773 30.24 146.773 29.954V22.859C146.773 21.451 146.322 20.659 145.42 20.483C145.244 20.439 145.156 20.296 145.156 20.054C145.156 19.812 145.233 19.68 145.387 19.658C146.531 19.394 147.741 18.789 149.017 17.843C149.039 17.821 149.083 17.81 149.149 17.81C149.193 17.81 149.248 17.909 149.314 18.107L149.083 20.252C149.083 20.406 149.094 20.494 149.116 20.516C149.534 20.164 150.04 19.823 150.634 19.493C151.25 19.163 151.91 18.888 152.614 18.668C153.318 18.448 154 18.338 154.66 18.338C155.32 18.338 155.925 18.547 156.475 18.965C157.025 19.361 157.465 19.9 157.795 20.582C158.125 21.264 158.29 22.045 158.29 22.925V29.954C158.29 30.394 158.422 30.68 158.686 30.812C158.972 30.944 159.346 31.087 159.808 31.241C160.248 31.417 160.468 31.593 160.468 31.769C160.468 31.989 160.248 32.099 159.808 32.099L157.168 31.934L154.462 32.099C154.022 32.099 153.802 31.989 153.802 31.769C153.802 31.571 154.055 31.384 154.561 31.208C154.605 31.208 154.649 31.197 154.693 31.175C155.441 30.933 155.859 30.636 155.947 30.284C155.969 30.24 155.98 30.185 155.98 30.119C155.98 30.053 155.98 29.998 155.98 29.954V23.024C155.98 22.078 155.705 21.33 155.155 20.78C154.605 20.23 153.802 19.955 152.746 19.955C151.668 19.955 150.788 20.186 150.106 20.648C149.424 21.11 149.083 21.946 149.083 23.156V29.954C149.083 30.394 149.215 30.68 149.479 30.812C149.765 30.944 150.139 31.087 150.601 31.241C151.041 31.417 151.261 31.593 151.261 31.769C151.261 31.989 151.041 32.099 150.601 32.099L147.928 31.934ZM174.835 32.066C173.955 32.44 173.449 32.627 173.317 32.627C173.141 32.627 173.053 32.583 173.053 32.495L173.218 30.317V30.119C171.612 31.681 169.797 32.462 167.773 32.462C166.651 32.462 165.738 32.121 165.034 31.439C164.352 30.757 164.011 29.789 164.011 28.535V21.836C164.011 20.934 163.538 20.307 162.592 19.955C162.306 19.867 162.163 19.68 162.163 19.394C162.163 19.13 162.328 18.965 162.658 18.899C163.032 18.877 163.505 18.822 164.077 18.734C164.649 18.646 165.309 18.514 166.057 18.338H166.123C166.431 18.338 166.563 18.492 166.519 18.8C166.387 19.812 166.321 20.659 166.321 21.341V27.776C166.321 28.304 166.453 28.799 166.717 29.261C166.981 29.701 167.322 30.064 167.74 30.35C168.18 30.636 168.631 30.779 169.093 30.779C170.369 30.779 171.392 30.493 172.162 29.921C172.954 29.327 173.35 28.568 173.35 27.644V21.605C173.35 21.011 173.119 20.593 172.657 20.351C172.195 20.109 171.711 19.977 171.205 19.955C170.699 19.955 170.446 19.768 170.446 19.394C170.446 19.218 170.545 19.086 170.743 18.998C170.831 18.954 170.941 18.932 171.073 18.932C171.227 18.91 171.403 18.888 171.601 18.866C172.459 18.866 173.196 18.811 173.812 18.701C174.12 18.657 174.318 18.624 174.406 18.602C174.56 18.602 174.912 18.503 175.462 18.305H175.528C175.814 18.305 175.957 18.437 175.957 18.701C175.957 18.789 175.924 18.899 175.858 19.031C175.726 19.251 175.66 19.988 175.66 21.242V28.238C175.66 29.756 175.858 30.515 176.254 30.515C176.936 30.515 177.442 30.482 177.772 30.416H177.871C178.135 30.416 178.267 30.548 178.267 30.812C178.267 31.142 178.113 31.307 177.805 31.307C177.233 31.395 176.694 31.505 176.188 31.637C175.704 31.747 175.253 31.89 174.835 32.066Z" fill="black"/>
</svg>
