<svg width="213" height="275" viewBox="0 0 213 275" fill="none" xmlns="http://www.w3.org/2000/svg">
<path d="M39.5404 213.908C38.3378 215.345 36.7831 216.489 34.8764 217.34C32.9698 218.191 30.8578 218.616 28.5404 218.616C26.5751 218.616 24.6978 218.249 22.9084 217.516C21.1191 216.753 19.5351 215.697 18.1564 214.348C16.7778 212.999 15.6924 211.444 14.9004 209.684C14.1084 207.895 13.7124 205.973 13.7124 203.92C13.7124 201.192 14.2698 198.713 15.3844 196.484C16.5284 194.225 18.2738 192.377 20.6204 190.94C22.9378 189.503 25.6951 188.784 28.8924 188.784C30.8578 188.784 32.7058 189.136 34.4364 189.84C36.1964 190.544 37.7364 191.556 39.0564 192.876C40.3764 194.167 41.4178 195.692 42.1804 197.452C42.9431 199.212 43.3244 201.148 43.3244 203.26C43.3244 207.396 42.0631 210.945 39.5404 213.908ZM17.9804 203.04C17.9804 204.829 18.2591 206.56 18.8164 208.232C19.3738 209.875 20.1511 211.356 21.1484 212.676C22.1751 213.967 23.3631 214.993 24.7124 215.756C26.0911 216.519 27.5724 216.9 29.1564 216.9C32.3538 216.9 34.8031 215.815 36.5044 213.644C38.2058 211.444 39.0564 208.305 39.0564 204.228C39.0564 201.529 38.6311 199.153 37.7804 197.1C36.9298 195.017 35.7124 193.404 34.1284 192.26C32.5738 191.087 30.6964 190.5 28.4964 190.5C26.3258 190.5 24.4484 191.057 22.8644 192.172C21.2804 193.257 20.0631 194.753 19.2124 196.66C18.3911 198.537 17.9804 200.664 17.9804 203.04ZM50.571 230.32L47.051 230.54C46.435 230.54 46.127 230.393 46.127 230.1C46.127 229.836 46.5377 229.572 47.359 229.308C48.2097 229.044 48.6937 228.765 48.811 228.472C48.9577 228.179 49.031 227.915 49.031 227.68V205.372C49.031 205.02 48.943 204.624 48.767 204.184C48.6203 203.715 48.4003 203.289 48.107 202.908C47.8137 202.497 47.447 202.248 47.007 202.16C46.7723 202.101 46.655 201.911 46.655 201.588C46.655 201.265 46.7577 201.089 46.963 201.06C47.579 200.913 48.3123 200.693 49.163 200.4C50.0137 200.107 50.9817 199.74 52.067 199.3L52.111 199.256H52.155C52.331 199.256 52.419 199.388 52.419 199.652L52.199 202.292C52.199 202.527 52.2137 202.659 52.243 202.688C52.6243 202.307 53.211 201.896 54.003 201.456C54.8243 201.016 55.719 200.635 56.687 200.312C57.655 199.96 58.5497 199.784 59.371 199.784C60.8377 199.784 62.099 200.18 63.155 200.972C64.2403 201.735 65.0763 202.747 65.663 204.008C66.279 205.269 66.587 206.633 66.587 208.1C66.587 209.449 66.323 210.755 65.795 212.016C65.2964 213.277 64.5924 214.407 63.683 215.404C62.7737 216.372 61.7177 217.149 60.515 217.736C59.3123 218.323 58.0363 218.616 56.687 218.616C56.2763 218.616 55.7777 218.543 55.191 218.396C54.6043 218.279 54.047 218.117 53.519 217.912C52.991 217.677 52.5803 217.443 52.287 217.208C52.1697 217.208 52.111 217.956 52.111 219.452V227.68C52.111 228.12 52.2723 228.428 52.595 228.604C52.947 228.809 53.211 228.941 53.387 229C53.4457 229.029 53.5337 229.059 53.651 229.088C53.7977 229.117 53.9443 229.147 54.091 229.176C55.147 229.44 55.675 229.763 55.675 230.144C55.675 230.408 55.3523 230.54 54.707 230.54L50.571 230.32ZM53.387 216.24C54.1203 216.915 55.4403 217.252 57.347 217.252C58.4617 217.252 59.4737 216.841 60.383 216.02C61.3217 215.199 62.011 214.245 62.451 213.16C62.8617 212.075 63.067 210.799 63.067 209.332C63.067 207.865 62.847 206.575 62.407 205.46C61.9964 204.345 61.4537 203.539 60.779 203.04C59.4884 202.189 58.2124 201.764 56.951 201.764C55.631 201.764 54.5163 202.101 53.607 202.776C52.727 203.451 52.243 204.58 52.155 206.164L52.111 208.98V210.344C52.111 211.517 52.1697 212.661 52.287 213.776C52.4337 214.861 52.8003 215.683 53.387 216.24ZM83.5954 214.876C83.4781 215.375 83.1114 215.917 82.4954 216.504C81.8794 217.091 81.0728 217.589 80.0754 218C79.0781 218.411 77.9341 218.616 76.6434 218.616C75.3528 218.616 74.1501 218.22 73.0354 217.428C71.9501 216.607 71.0701 215.492 70.3954 214.084C69.7501 212.676 69.4274 211.077 69.4274 209.288C69.4274 207.499 69.8088 205.885 70.5714 204.448C71.3634 203.011 72.4194 201.881 73.7394 201.06C75.0594 200.209 76.5408 199.784 78.1834 199.784C79.9434 199.784 81.3221 200.151 82.3194 200.884C83.3461 201.617 83.8594 202.615 83.8594 203.876C83.8594 205.137 83.5368 205.929 82.8914 206.252C82.2754 206.545 81.4688 206.692 80.4714 206.692H73.2554C72.8448 206.692 72.5514 206.795 72.3754 207C72.2288 207.176 72.1554 207.616 72.1554 208.32C72.1554 209.669 72.4488 210.931 73.0354 212.104C73.6221 213.277 74.3994 214.216 75.3674 214.92C76.3648 215.624 77.4794 215.976 78.7114 215.976C80.5008 215.976 81.9088 215.331 82.9354 214.04C83.1408 213.835 83.3021 213.732 83.4194 213.732C83.6248 213.732 83.7274 213.879 83.7274 214.172C83.7274 214.377 83.6834 214.612 83.5954 214.876ZM72.9914 204.668C72.9914 205.108 73.2701 205.328 73.8274 205.328H77.4354C78.1101 205.328 78.7114 205.313 79.2394 205.284C79.7968 205.225 80.2661 205.167 80.6474 205.108C80.9408 205.079 81.0874 204.653 81.0874 203.832C81.0874 203.04 80.7208 202.395 79.9874 201.896C79.2541 201.397 78.3741 201.148 77.3474 201.148C76.6434 201.148 75.9541 201.353 75.2794 201.764C74.6341 202.145 74.0914 202.615 73.6514 203.172C73.2114 203.7 72.9914 204.199 72.9914 204.668ZM90.886 217.912L87.322 218.132C86.7353 218.132 86.442 217.985 86.442 217.692C86.442 217.428 86.706 217.208 87.234 217.032C87.762 216.856 88.114 216.739 88.29 216.68C88.466 216.592 88.6567 216.431 88.862 216.196C89.038 215.961 89.126 215.653 89.126 215.272V205.812C89.126 203.964 88.5247 202.908 87.322 202.644C87.0873 202.585 86.97 202.395 86.97 202.072C86.97 201.749 87.0727 201.573 87.278 201.544C88.3633 201.339 89.1847 201.045 89.742 200.664C90.2407 200.341 90.6513 200.077 90.974 199.872C91.326 199.667 91.5753 199.505 91.722 199.388C92.0447 199.212 92.206 199.109 92.206 199.08H92.338C92.426 199.08 92.4847 199.183 92.514 199.388C92.514 199.769 92.514 200.151 92.514 200.532C92.514 200.913 92.4993 201.295 92.47 201.676C92.4407 202.409 92.4407 202.776 92.47 202.776C92.47 202.776 92.5433 202.703 92.69 202.556C93.1007 202.028 93.3647 201.735 93.482 201.676C94.8607 200.415 96.21 199.784 97.53 199.784C98.146 199.784 98.6447 199.916 99.026 200.18C99.4367 200.444 99.642 200.796 99.642 201.236C99.642 201.676 99.4513 202.16 99.07 202.688C98.718 203.216 98.3807 203.48 98.058 203.48C97.7353 203.48 97.266 203.348 96.65 203.084C96.034 202.82 95.5793 202.688 95.286 202.688C94.4353 202.688 93.702 202.967 93.086 203.524C92.4993 204.081 92.206 205.035 92.206 206.384V215.052C92.2353 215.815 93.0273 216.445 94.582 216.944C95.2567 217.179 95.594 217.428 95.594 217.692C95.594 217.985 95.3007 218.132 94.714 218.132L90.886 217.912ZM109.805 216.9C109.395 217.281 108.779 217.663 107.957 218.044C107.165 218.425 106.285 218.616 105.317 218.616C104.672 218.616 104.041 218.44 103.425 218.088C102.839 217.765 102.355 217.34 101.973 216.812C101.592 216.255 101.401 215.697 101.401 215.14C101.401 213.38 102.472 212.06 104.613 211.18L109.101 209.332C109.659 209.097 109.996 208.892 110.113 208.716C110.231 208.54 110.304 208.159 110.333 207.572L110.421 204.844V204.756C110.421 203.993 110.172 203.333 109.673 202.776C109.204 202.219 108.661 201.94 108.045 201.94C107.4 201.94 106.799 202.101 106.241 202.424C105.684 202.717 105.332 202.996 105.185 203.26C105.039 203.553 104.965 203.861 104.965 204.184L105.009 204.8C105.009 204.976 104.804 205.181 104.393 205.416C103.983 205.651 103.543 205.871 103.073 206.076C102.604 206.252 102.267 206.34 102.061 206.34C101.768 206.34 101.621 206.208 101.621 205.944C101.621 205.269 101.856 204.624 102.325 204.008C102.795 203.392 103.396 202.805 104.129 202.248C104.892 201.691 105.684 201.192 106.505 200.752C107.708 200.107 108.852 199.784 109.937 199.784C110.964 199.784 111.829 200.165 112.533 200.928C113.237 201.691 113.575 202.615 113.545 203.7L113.325 213.204V213.468C113.325 215.551 113.853 216.592 114.909 216.592C115.613 216.592 116.2 216.387 116.669 215.976C116.728 215.917 116.801 215.888 116.889 215.888C117.007 215.888 117.109 215.932 117.197 216.02C117.315 216.108 117.373 216.225 117.373 216.372V216.416C117.256 216.651 117.007 216.944 116.625 217.296C116.244 217.648 115.804 217.956 115.305 218.22C114.807 218.484 114.323 218.616 113.853 218.616C113.12 218.616 112.504 218.425 112.005 218.044C111.536 217.663 111.199 217.281 110.993 216.9C110.788 216.519 110.656 216.328 110.597 216.328C110.451 216.328 110.187 216.519 109.805 216.9ZM104.921 214.172C104.921 214.935 105.156 215.536 105.625 215.976C106.095 216.387 106.667 216.592 107.341 216.592C108.016 216.592 108.661 216.328 109.277 215.8C109.893 215.272 110.216 214.553 110.245 213.644L110.333 211.488V211.268C110.333 210.799 110.201 210.564 109.937 210.564C109.761 210.564 109.556 210.608 109.321 210.696C106.388 211.693 104.921 212.852 104.921 214.172ZM130.196 216.812C129.726 217.252 129.066 217.663 128.216 218.044C127.394 218.425 126.573 218.616 125.752 218.616C124.314 218.616 123.185 218.191 122.364 217.34C121.572 216.46 121.176 215.14 121.176 213.38V203.172C121.176 202.908 121.073 202.732 120.868 202.644C120.662 202.556 120.208 202.512 119.504 202.512C119.416 202.512 119.298 202.395 119.152 202.16C119.034 201.925 118.976 201.749 118.976 201.632C118.976 201.515 119.049 201.412 119.196 201.324C119.87 201.119 120.56 200.693 121.264 200.048C121.968 199.403 122.54 198.801 122.98 198.244C123.42 197.687 123.684 197.408 123.772 197.408C124.182 197.408 124.388 197.555 124.388 197.848L124.3 199.784C124.3 200.195 124.652 200.4 125.356 200.4H130.372C130.665 200.4 130.812 200.752 130.812 201.456C130.812 202.16 130.665 202.512 130.372 202.512H126.016C125.224 202.512 124.725 202.571 124.52 202.688C124.344 202.805 124.256 203.157 124.256 203.744V212.06C124.256 213.556 124.534 214.627 125.092 215.272C125.649 215.888 126.338 216.196 127.16 216.196C128.626 216.196 129.726 215.917 130.46 215.36C130.489 215.331 130.533 215.316 130.592 215.316C130.797 215.316 130.9 215.507 130.9 215.888C130.9 216.123 130.665 216.431 130.196 216.812ZM138.707 193.228C138.678 193.844 138.458 194.357 138.047 194.768C137.637 195.179 137.109 195.399 136.463 195.428C135.818 195.399 135.29 195.179 134.879 194.768C134.469 194.357 134.263 193.829 134.263 193.184C134.263 192.539 134.469 192.011 134.879 191.6C135.29 191.189 135.818 190.984 136.463 190.984C137.109 190.984 137.637 191.189 138.047 191.6C138.458 192.011 138.678 192.553 138.707 193.228ZM136.771 217.912L133.207 218.132C132.621 218.132 132.327 217.985 132.327 217.692C132.327 217.428 132.738 217.164 133.559 216.9C134.41 216.636 134.894 216.357 135.011 216.064C135.158 215.771 135.231 215.507 135.231 215.272V205.724C135.231 203.905 134.542 202.835 133.163 202.512C132.929 202.453 132.811 202.263 132.811 201.94C132.811 201.617 132.914 201.441 133.119 201.412C134.527 201.06 136.023 200.371 137.607 199.344C138.077 199.051 138.341 198.904 138.399 198.904C138.605 198.904 138.707 198.977 138.707 199.124C138.443 201.793 138.311 203.773 138.311 205.064V215.272C138.311 215.859 138.487 216.24 138.839 216.416C139.221 216.592 139.719 216.783 140.335 216.988C140.922 217.223 141.215 217.457 141.215 217.692C141.215 217.985 140.922 218.132 140.335 218.132L136.771 217.912ZM162.297 208.892C162.297 210.593 161.901 212.192 161.109 213.688C160.346 215.155 159.217 216.343 157.721 217.252C156.254 218.161 154.465 218.616 152.353 218.616C150.71 218.616 149.214 218.235 147.865 217.472C146.545 216.709 145.503 215.668 144.741 214.348C143.978 212.999 143.597 211.473 143.597 209.772C143.597 208.511 143.846 207.293 144.345 206.12C144.843 204.917 145.533 203.847 146.413 202.908C147.322 201.94 148.349 201.177 149.493 200.62C150.637 200.063 151.854 199.784 153.145 199.784C154.875 199.784 156.43 200.195 157.809 201.016C159.187 201.808 160.273 202.893 161.065 204.272C161.886 205.621 162.297 207.161 162.297 208.892ZM147.205 208.76C147.205 210.256 147.469 211.664 147.997 212.984C148.554 214.275 149.287 215.316 150.197 216.108C151.135 216.9 152.162 217.296 153.277 217.296C154.743 217.296 155.858 216.988 156.621 216.372C157.413 215.727 157.955 214.847 158.249 213.732C158.542 212.588 158.689 211.268 158.689 209.772C158.689 208.247 158.41 206.839 157.853 205.548C157.325 204.228 156.591 203.172 155.653 202.38C154.743 201.559 153.687 201.148 152.485 201.148C148.965 201.148 147.205 203.685 147.205 208.76ZM169.342 217.912L165.778 218.132C165.191 218.132 164.898 217.985 164.898 217.692C164.898 217.516 165.015 217.369 165.25 217.252C165.484 217.105 165.734 216.988 165.998 216.9C166.262 216.812 166.423 216.768 166.482 216.768C166.54 216.768 166.687 216.709 166.922 216.592C167.156 216.475 167.303 216.372 167.362 216.284C167.655 215.991 167.802 215.653 167.802 215.272V205.812C167.802 203.935 167.2 202.879 165.998 202.644C165.763 202.585 165.646 202.395 165.646 202.072C165.646 201.749 165.748 201.573 165.954 201.544C167.479 201.192 169.092 200.385 170.794 199.124C170.823 199.095 170.882 199.08 170.97 199.08C171.028 199.08 171.102 199.212 171.19 199.476L170.882 202.336C170.882 202.541 170.896 202.659 170.926 202.688C171.483 202.219 172.158 201.764 172.95 201.324C173.771 200.884 174.651 200.517 175.59 200.224C176.528 199.931 177.438 199.784 178.318 199.784C179.198 199.784 180.004 200.063 180.738 200.62C181.471 201.148 182.058 201.867 182.498 202.776C182.938 203.685 183.158 204.727 183.158 205.9V215.272C183.158 215.859 183.334 216.24 183.686 216.416C184.067 216.592 184.566 216.783 185.182 216.988C185.768 217.223 186.062 217.457 186.062 217.692C186.062 217.985 185.768 218.132 185.182 218.132L181.662 217.912L178.054 218.132C177.467 218.132 177.174 217.985 177.174 217.692C177.174 217.428 177.511 217.179 178.186 216.944C178.244 216.944 178.303 216.929 178.362 216.9C179.359 216.577 179.916 216.181 180.034 215.712C180.063 215.653 180.078 215.58 180.078 215.492C180.078 215.404 180.078 215.331 180.078 215.272V206.032C180.078 204.771 179.711 203.773 178.978 203.04C178.244 202.307 177.174 201.94 175.766 201.94C174.328 201.94 173.155 202.248 172.246 202.864C171.336 203.48 170.882 204.595 170.882 206.208V215.272C170.882 215.859 171.058 216.24 171.41 216.416C171.791 216.592 172.29 216.783 172.906 216.988C173.492 217.223 173.786 217.457 173.786 217.692C173.786 217.985 173.492 218.132 172.906 218.132L169.342 217.912ZM199.937 213.336C199.937 216.856 197.825 218.616 193.601 218.616C192.516 218.616 191.504 218.425 190.565 218.044C189.626 217.692 189.084 217.355 188.937 217.032C188.585 216.299 188.394 215.404 188.365 214.348C188.365 214.084 188.6 213.952 189.069 213.952C189.509 213.952 189.744 214.055 189.773 214.26C189.89 214.759 190.154 215.257 190.565 215.756C191.005 216.255 191.518 216.665 192.105 216.988C192.721 217.281 193.352 217.428 193.997 217.428C194.936 217.428 195.654 217.149 196.153 216.592C196.681 216.035 196.945 215.345 196.945 214.524C196.945 213.703 196.681 213.013 196.153 212.456C195.625 211.869 194.745 211.136 193.513 210.256C192.252 209.376 191.24 208.525 190.477 207.704C189.744 206.853 189.377 205.827 189.377 204.624C189.377 203.803 189.597 203.025 190.037 202.292C190.477 201.559 191.108 200.957 191.929 200.488C192.75 200.019 193.748 199.784 194.921 199.784C196.681 199.784 197.898 200.121 198.573 200.796C199.072 201.441 199.321 202.585 199.321 204.228C199.321 204.345 199.218 204.404 199.013 204.404C198.808 204.404 198.514 204.301 198.133 204.096C197.752 203.861 197.561 203.656 197.561 203.48C197.532 202.835 197.238 202.248 196.681 201.72C196.124 201.192 195.464 200.928 194.701 200.928C193.909 200.928 193.264 201.192 192.765 201.72C192.266 202.248 192.017 202.864 192.017 203.568C192.017 204.272 192.266 204.917 192.765 205.504C193.264 206.091 193.704 206.501 194.085 206.736C194.261 206.853 194.481 207.015 194.745 207.22C195.038 207.396 195.376 207.601 195.757 207.836C196.256 208.129 196.666 208.393 196.989 208.628C197.341 208.863 197.678 209.141 198.001 209.464C198.324 209.757 198.676 210.183 199.057 210.74C199.644 211.591 199.937 212.456 199.937 213.336ZM50.4926 261.384C50.1993 262.088 49.9646 262.44 49.7886 262.44C49.6126 262.44 49.3926 262.059 49.1286 261.296C48.3073 258.832 47.2366 255.928 45.9166 252.584C44.626 249.24 43.0713 245.471 41.2526 241.276C41.1353 240.953 41.018 240.792 40.9006 240.792C40.7833 240.792 40.71 240.953 40.6806 241.276C40.2113 244.737 39.8593 247.832 39.6246 250.56C39.39 253.259 39.2726 255.576 39.2726 257.512C39.2726 258.216 39.5073 258.92 39.9766 259.624C40.446 260.328 41.1646 260.768 42.1326 260.944C43.1006 261.12 43.5846 261.369 43.5846 261.692C43.5846 262.044 43.1593 262.22 42.3086 262.22L38.1726 262L34.1686 262.22C33.318 262.22 32.8926 262.044 32.8926 261.692C32.8926 261.369 33.3766 261.12 34.3446 260.944C35.87 260.68 36.7793 259.536 37.0726 257.512C37.6593 252.995 38.0993 249.137 38.3926 245.94C38.7153 242.743 38.8766 240.205 38.8766 238.328L38.8326 237.316C38.8326 236.905 38.686 236.524 38.3926 236.172C38.0993 235.791 37.8353 235.527 37.6006 235.38C37.3953 235.233 37.1313 235.116 36.8086 235.028C36.486 234.911 36.222 234.823 36.0166 234.764C35.8993 234.735 35.7673 234.705 35.6206 234.676C35.5033 234.617 35.3566 234.573 35.1806 234.544C34.8286 234.485 34.5206 234.412 34.2566 234.324C34.022 234.236 33.9046 234.016 33.9046 233.664C33.9046 233.341 34.242 233.18 34.9166 233.18L42.2206 233.532C42.602 233.532 42.998 234.397 43.4086 236.128C43.4966 236.509 43.57 236.832 43.6286 237.096C43.7166 237.331 43.7753 237.507 43.8046 237.624L50.7566 255.268C50.9326 255.708 51.1086 255.928 51.2846 255.928C51.4313 255.928 51.5926 255.752 51.7686 255.4L60.4366 237.36C60.5246 237.155 60.598 236.92 60.6566 236.656C60.7446 236.392 60.818 236.099 60.8766 235.776C61.1406 234.251 61.4046 233.488 61.6686 233.488H63.2526C63.6046 233.488 64.0153 233.473 64.4846 233.444C64.954 233.415 65.482 233.371 66.0686 233.312C66.6553 233.253 67.11 233.209 67.4326 233.18C67.7846 233.151 68.0193 233.136 68.1366 233.136H68.2686C68.8846 233.136 69.1926 233.283 69.1926 233.576C69.1926 233.84 69.002 234.075 68.6206 234.28C68.2686 234.485 67.858 234.661 67.3886 234.808C66.9486 234.925 66.6113 235.028 66.3766 235.116C65.9953 235.233 65.57 235.468 65.1006 235.82C64.6313 236.172 64.3966 236.568 64.3966 237.008C64.3966 238.973 64.426 240.997 64.4846 243.08C64.5726 245.163 64.69 247.289 64.8366 249.46C65.13 253.801 65.306 256.515 65.3646 257.6C65.4233 258.656 65.702 259.433 66.2006 259.932C66.7286 260.401 67.5206 260.724 68.5766 260.9C69.6033 261.135 70.1166 261.399 70.1166 261.692C70.1166 262.044 69.6913 262.22 68.8406 262.22L63.6926 262L59.0726 262.22C58.222 262.22 57.7966 262.059 57.7966 261.736C57.7966 261.325 58.2513 261.061 59.1606 260.944C60.07 260.827 60.686 260.533 61.0086 260.064C61.3313 259.595 61.4926 258.832 61.4926 257.776C61.4926 254.901 61.3166 249.504 60.9646 241.584C60.9646 241.115 60.8913 240.88 60.7446 240.88C60.6273 240.88 60.466 241.115 60.2606 241.584L50.4926 261.384ZM81.6608 260.9C81.2501 261.281 80.6341 261.663 79.8128 262.044C79.0208 262.425 78.1408 262.616 77.1728 262.616C76.5275 262.616 75.8968 262.44 75.2808 262.088C74.6941 261.765 74.2101 261.34 73.8288 260.812C73.4475 260.255 73.2568 259.697 73.2568 259.14C73.2568 257.38 74.3275 256.06 76.4688 255.18L80.9568 253.332C81.5141 253.097 81.8515 252.892 81.9688 252.716C82.0861 252.54 82.1595 252.159 82.1888 251.572L82.2768 248.844V248.756C82.2768 247.993 82.0275 247.333 81.5288 246.776C81.0595 246.219 80.5168 245.94 79.9008 245.94C79.2555 245.94 78.6541 246.101 78.0968 246.424C77.5395 246.717 77.1875 246.996 77.0408 247.26C76.8941 247.553 76.8208 247.861 76.8208 248.184L76.8648 248.8C76.8648 248.976 76.6595 249.181 76.2488 249.416C75.8381 249.651 75.3981 249.871 74.9288 250.076C74.4595 250.252 74.1221 250.34 73.9168 250.34C73.6235 250.34 73.4768 250.208 73.4768 249.944C73.4768 249.269 73.7115 248.624 74.1808 248.008C74.6501 247.392 75.2515 246.805 75.9848 246.248C76.7475 245.691 77.5395 245.192 78.3608 244.752C79.5635 244.107 80.7075 243.784 81.7928 243.784C82.8195 243.784 83.6848 244.165 84.3888 244.928C85.0928 245.691 85.4301 246.615 85.4008 247.7L85.1808 257.204V257.468C85.1808 259.551 85.7088 260.592 86.7648 260.592C87.4688 260.592 88.0555 260.387 88.5248 259.976C88.5835 259.917 88.6568 259.888 88.7448 259.888C88.8621 259.888 88.9648 259.932 89.0528 260.02C89.1701 260.108 89.2288 260.225 89.2288 260.372V260.416C89.1115 260.651 88.8621 260.944 88.4808 261.296C88.0995 261.648 87.6595 261.956 87.1608 262.22C86.6621 262.484 86.1781 262.616 85.7088 262.616C84.9755 262.616 84.3595 262.425 83.8608 262.044C83.3915 261.663 83.0541 261.281 82.8488 260.9C82.6435 260.519 82.5115 260.328 82.4528 260.328C82.3061 260.328 82.0421 260.519 81.6608 260.9ZM76.7768 258.172C76.7768 258.935 77.0115 259.536 77.4808 259.976C77.9501 260.387 78.5221 260.592 79.1968 260.592C79.8715 260.592 80.5168 260.328 81.1328 259.8C81.7488 259.272 82.0715 258.553 82.1008 257.644L82.1888 255.488V255.268C82.1888 254.799 82.0568 254.564 81.7928 254.564C81.6168 254.564 81.4115 254.608 81.1768 254.696C78.2435 255.693 76.7768 256.852 76.7768 258.172ZM94.791 261.912L91.227 262.132C90.6403 262.132 90.347 261.985 90.347 261.692C90.347 261.516 90.4643 261.369 90.699 261.252C90.9337 261.105 91.183 260.988 91.447 260.9C91.711 260.812 91.8723 260.768 91.931 260.768C91.9897 260.768 92.1363 260.709 92.371 260.592C92.6057 260.475 92.7523 260.372 92.811 260.284C93.1043 259.991 93.251 259.653 93.251 259.272V249.812C93.251 247.935 92.6497 246.879 91.447 246.644C91.2123 246.585 91.095 246.395 91.095 246.072C91.095 245.749 91.1977 245.573 91.403 245.544C92.9283 245.192 94.5417 244.385 96.243 243.124C96.2723 243.095 96.331 243.08 96.419 243.08C96.4777 243.08 96.551 243.212 96.639 243.476L96.331 246.336C96.331 246.541 96.3457 246.659 96.375 246.688C96.9323 246.219 97.607 245.764 98.399 245.324C99.2203 244.884 100.1 244.517 101.039 244.224C101.978 243.931 102.887 243.784 103.767 243.784C104.647 243.784 105.454 244.063 106.187 244.62C106.92 245.148 107.507 245.867 107.947 246.776C108.387 247.685 108.607 248.727 108.607 249.9V259.272C108.607 259.859 108.783 260.24 109.135 260.416C109.516 260.592 110.015 260.783 110.631 260.988C111.218 261.223 111.511 261.457 111.511 261.692C111.511 261.985 111.218 262.132 110.631 262.132L107.111 261.912L103.503 262.132C102.916 262.132 102.623 261.985 102.623 261.692C102.623 261.428 102.96 261.179 103.635 260.944C103.694 260.944 103.752 260.929 103.811 260.9C104.808 260.577 105.366 260.181 105.483 259.712C105.512 259.653 105.527 259.58 105.527 259.492C105.527 259.404 105.527 259.331 105.527 259.272V250.032C105.527 248.771 105.16 247.773 104.427 247.04C103.694 246.307 102.623 245.94 101.215 245.94C99.7777 245.94 98.6043 246.248 97.695 246.864C96.7857 247.48 96.331 248.595 96.331 250.208V259.272C96.331 259.859 96.507 260.24 96.859 260.416C97.2403 260.592 97.739 260.783 98.355 260.988C98.9417 261.223 99.235 261.457 99.235 261.692C99.235 261.985 98.9417 262.132 98.355 262.132L94.791 261.912ZM122.438 260.9C122.027 261.281 121.411 261.663 120.59 262.044C119.798 262.425 118.918 262.616 117.95 262.616C117.305 262.616 116.674 262.44 116.058 262.088C115.471 261.765 114.987 261.34 114.606 260.812C114.225 260.255 114.034 259.697 114.034 259.14C114.034 257.38 115.105 256.06 117.246 255.18L121.734 253.332C122.291 253.097 122.629 252.892 122.746 252.716C122.863 252.54 122.937 252.159 122.966 251.572L123.054 248.844V248.756C123.054 247.993 122.805 247.333 122.306 246.776C121.837 246.219 121.294 245.94 120.678 245.94C120.033 245.94 119.431 246.101 118.874 246.424C118.317 246.717 117.965 246.996 117.818 247.26C117.671 247.553 117.598 247.861 117.598 248.184L117.642 248.8C117.642 248.976 117.437 249.181 117.026 249.416C116.615 249.651 116.175 249.871 115.706 250.076C115.237 250.252 114.899 250.34 114.694 250.34C114.401 250.34 114.254 250.208 114.254 249.944C114.254 249.269 114.489 248.624 114.958 248.008C115.427 247.392 116.029 246.805 116.762 246.248C117.525 245.691 118.317 245.192 119.138 244.752C120.341 244.107 121.485 243.784 122.57 243.784C123.597 243.784 124.462 244.165 125.166 244.928C125.87 245.691 126.207 246.615 126.178 247.7L125.958 257.204V257.468C125.958 259.551 126.486 260.592 127.542 260.592C128.246 260.592 128.833 260.387 129.302 259.976C129.361 259.917 129.434 259.888 129.522 259.888C129.639 259.888 129.742 259.932 129.83 260.02C129.947 260.108 130.006 260.225 130.006 260.372V260.416C129.889 260.651 129.639 260.944 129.258 261.296C128.877 261.648 128.437 261.956 127.938 262.22C127.439 262.484 126.955 262.616 126.486 262.616C125.753 262.616 125.137 262.425 124.638 262.044C124.169 261.663 123.831 261.281 123.626 260.9C123.421 260.519 123.289 260.328 123.23 260.328C123.083 260.328 122.819 260.519 122.438 260.9ZM117.554 258.172C117.554 258.935 117.789 259.536 118.258 259.976C118.727 260.387 119.299 260.592 119.974 260.592C120.649 260.592 121.294 260.328 121.91 259.8C122.526 259.272 122.849 258.553 122.878 257.644L122.966 255.488V255.268C122.966 254.799 122.834 254.564 122.57 254.564C122.394 254.564 122.189 254.608 121.954 254.696C119.021 255.693 117.554 256.852 117.554 258.172ZM148.46 265.388C148.46 266.561 148.167 267.705 147.58 268.82C146.994 269.935 146.216 270.932 145.248 271.812C144.31 272.721 143.268 273.44 142.124 273.968C140.98 274.496 139.851 274.76 138.736 274.76C137.24 274.76 135.876 274.584 134.644 274.232C133.412 273.88 132.415 273.337 131.652 272.604C130.919 271.871 130.552 270.917 130.552 269.744C130.552 268.835 130.772 268.043 131.212 267.368C131.682 266.723 132.459 266.063 133.544 265.388C134.571 264.743 135.319 264.068 135.788 263.364C134.791 263.159 133.882 262.777 133.06 262.22C132.239 261.692 131.828 260.973 131.828 260.064C131.828 259.507 132.166 258.964 132.84 258.436C133.046 258.26 133.324 258.084 133.676 257.908C134.468 257.439 135.055 256.94 135.436 256.412C135.055 256.324 134.498 255.943 133.764 255.268C132.327 253.919 131.608 252.291 131.608 250.384C131.608 249.093 131.975 247.949 132.708 246.952C133.442 245.955 134.41 245.163 135.612 244.576C136.815 243.989 138.091 243.696 139.44 243.696C139.822 243.696 140.218 243.74 140.628 243.828C141.068 243.916 141.538 244.033 142.036 244.18C143.943 244.767 145.424 245.06 146.48 245.06L147.888 245.016H148.416C148.651 245.016 148.842 245.06 148.988 245.148C149.135 245.236 149.208 245.471 149.208 245.852C149.208 246.38 149.076 246.644 148.812 246.644C147.756 246.644 147.14 246.673 146.964 246.732L146.612 246.864C146.495 246.923 146.392 246.967 146.304 246.996C146.187 247.26 146.128 247.935 146.128 249.02C146.128 250.487 145.806 251.851 145.16 253.112C144.515 254.373 143.635 255.4 142.52 256.192C141.406 256.955 140.144 257.336 138.736 257.336C137.827 257.336 137.035 257.16 136.36 256.808C135.07 257.835 134.424 258.553 134.424 258.964C134.424 259.903 135.832 260.504 138.648 260.768C142.52 261.12 144.764 261.443 145.38 261.736C145.82 261.912 146.275 262.117 146.744 262.352C147.243 262.616 147.654 262.968 147.976 263.408C148.299 263.877 148.46 264.537 148.46 265.388ZM135.04 250.296C135.04 251.176 135.216 252.041 135.568 252.892C135.92 253.713 136.404 254.403 137.02 254.96C137.636 255.517 138.326 255.796 139.088 255.796C139.851 255.796 140.526 255.547 141.112 255.048C141.728 254.549 142.198 253.889 142.52 253.068C142.872 252.217 143.048 251.323 143.048 250.384C143.048 249.445 142.858 248.565 142.476 247.744C142.124 246.923 141.64 246.263 141.024 245.764C140.408 245.265 139.704 245.016 138.912 245.016C138.15 245.016 137.475 245.28 136.888 245.808C136.302 246.307 135.847 246.967 135.524 247.788C135.202 248.58 135.04 249.416 135.04 250.296ZM133.676 267.896C133.676 269.392 134.175 270.609 135.172 271.548C136.199 272.516 137.578 273 139.308 273C140.482 273 141.552 272.721 142.52 272.164C143.488 271.636 144.266 270.903 144.852 269.964C145.468 269.025 145.776 267.969 145.776 266.796C145.776 266.063 145.41 265.447 144.676 264.948C143.972 264.449 143.122 264.097 142.124 263.892C141.098 263.716 139.704 263.584 137.944 263.496H136.932C136.756 263.613 136.478 263.833 136.096 264.156C135.744 264.508 135.29 264.963 134.732 265.52C134.028 266.341 133.676 267.133 133.676 267.896ZM164.677 258.876C164.56 259.375 164.193 259.917 163.577 260.504C162.961 261.091 162.155 261.589 161.157 262C160.16 262.411 159.016 262.616 157.725 262.616C156.435 262.616 155.232 262.22 154.117 261.428C153.032 260.607 152.152 259.492 151.477 258.084C150.832 256.676 150.509 255.077 150.509 253.288C150.509 251.499 150.891 249.885 151.653 248.448C152.445 247.011 153.501 245.881 154.821 245.06C156.141 244.209 157.623 243.784 159.265 243.784C161.025 243.784 162.404 244.151 163.401 244.884C164.428 245.617 164.941 246.615 164.941 247.876C164.941 249.137 164.619 249.929 163.973 250.252C163.357 250.545 162.551 250.692 161.553 250.692H154.337C153.927 250.692 153.633 250.795 153.457 251C153.311 251.176 153.237 251.616 153.237 252.32C153.237 253.669 153.531 254.931 154.117 256.104C154.704 257.277 155.481 258.216 156.449 258.92C157.447 259.624 158.561 259.976 159.793 259.976C161.583 259.976 162.991 259.331 164.017 258.04C164.223 257.835 164.384 257.732 164.501 257.732C164.707 257.732 164.809 257.879 164.809 258.172C164.809 258.377 164.765 258.612 164.677 258.876ZM154.073 248.668C154.073 249.108 154.352 249.328 154.909 249.328H158.517C159.192 249.328 159.793 249.313 160.321 249.284C160.879 249.225 161.348 249.167 161.729 249.108C162.023 249.079 162.169 248.653 162.169 247.832C162.169 247.04 161.803 246.395 161.069 245.896C160.336 245.397 159.456 245.148 158.429 245.148C157.725 245.148 157.036 245.353 156.361 245.764C155.716 246.145 155.173 246.615 154.733 247.172C154.293 247.7 154.073 248.199 154.073 248.668ZM171.968 261.912L168.404 262.132C167.817 262.132 167.524 261.985 167.524 261.692C167.524 261.428 167.788 261.208 168.316 261.032C168.844 260.856 169.196 260.739 169.372 260.68C169.548 260.592 169.739 260.431 169.944 260.196C170.12 259.961 170.208 259.653 170.208 259.272V249.812C170.208 247.964 169.607 246.908 168.404 246.644C168.169 246.585 168.052 246.395 168.052 246.072C168.052 245.749 168.155 245.573 168.36 245.544C169.445 245.339 170.267 245.045 170.824 244.664C171.323 244.341 171.733 244.077 172.056 243.872C172.408 243.667 172.657 243.505 172.804 243.388C173.127 243.212 173.288 243.109 173.288 243.08H173.42C173.508 243.08 173.567 243.183 173.596 243.388C173.596 243.769 173.596 244.151 173.596 244.532C173.596 244.913 173.581 245.295 173.552 245.676C173.523 246.409 173.523 246.776 173.552 246.776C173.552 246.776 173.625 246.703 173.772 246.556C174.183 246.028 174.447 245.735 174.564 245.676C175.943 244.415 177.292 243.784 178.612 243.784C179.228 243.784 179.727 243.916 180.108 244.18C180.519 244.444 180.724 244.796 180.724 245.236C180.724 245.676 180.533 246.16 180.152 246.688C179.8 247.216 179.463 247.48 179.14 247.48C178.817 247.48 178.348 247.348 177.732 247.084C177.116 246.82 176.661 246.688 176.368 246.688C175.517 246.688 174.784 246.967 174.168 247.524C173.581 248.081 173.288 249.035 173.288 250.384V259.052C173.317 259.815 174.109 260.445 175.664 260.944C176.339 261.179 176.676 261.428 176.676 261.692C176.676 261.985 176.383 262.132 175.796 262.132L171.968 261.912Z" fill="#F8F9FA"/>
<rect x="7" y="1" width="192.947" height="173" rx="35" fill="#2ECC71" stroke="black" stroke-width="2"/>
<path d="M103 59.1848C99.8889 59.1848 96.9054 60.3451 94.7057 62.4104C92.5059 64.4757 91.2701 67.2768 91.2701 70.1976C91.2701 73.1183 92.5059 75.9195 94.7057 77.9848C96.9054 80.0501 99.8889 81.2103 103 81.2103C106.111 81.2103 109.094 80.0501 111.294 77.9848C113.494 75.9195 114.73 73.1183 114.73 70.1976C114.73 67.2768 113.494 64.4757 111.294 62.4104C109.094 60.3451 106.111 59.1848 103 59.1848Z" fill="#0D1B2A"/>
<path d="M103 23C99.8927 22.9995 96.8404 23.7702 94.1525 25.234L49.8476 49.1474L49.8342 49.16C47.1467 50.6271 44.9163 52.7308 43.3661 55.2608C41.8158 57.7908 41 60.6585 41.0001 63.5773V111.423C40.992 114.344 41.8044 117.216 43.3554 119.748C44.9064 122.28 47.1411 124.384 49.8342 125.847L49.8543 125.859L64.5064 133.77C66.0816 111.713 84.9027 100.782 103 100.782C121.097 100.782 139.918 111.713 141.494 133.77L156.146 125.859L156.166 125.847C158.853 124.38 161.084 122.276 162.634 119.746C164.184 117.216 165 114.348 165 111.429V63.5836C165.001 60.6637 164.186 57.7947 162.636 55.2635C161.085 52.7323 158.854 50.6277 156.166 49.16L111.861 25.2466L111.848 25.234C109.16 23.7702 106.107 22.9995 103 23ZM81.2163 70.1976C81.2163 64.7733 83.5113 59.5712 87.5966 55.7356C91.6818 51.9001 97.2226 49.7453 103 49.7453C108.777 49.7453 114.318 51.9001 118.403 55.7356C122.489 59.5712 124.784 64.7733 124.784 70.1976C124.784 75.6218 122.489 80.8239 118.403 84.6595C114.318 88.495 108.777 90.6498 103 90.6498C97.2226 90.6498 91.6818 88.495 87.5966 84.6595C83.5113 80.8239 81.2163 75.6218 81.2163 70.1976Z" fill="#0D1B2A"/>
<path d="M131.527 139.15L131.493 134.94C130.595 118.528 117.17 110.221 103 110.221C88.8306 110.221 75.4051 118.528 74.5069 134.94C74.5069 135.06 74.4868 136.501 74.4734 139.15L94.1458 149.766H94.1592C96.8462 151.229 99.8972 152 103.003 152C106.11 152 109.161 151.229 111.848 149.766H111.854L131.527 139.15Z" fill="#0D1B2A"/>
</svg>
