<svg width="195" height="231" viewBox="0 0 195 231" fill="none" xmlns="http://www.w3.org/2000/svg">
<path d="M31.0641 210.96C31.0641 212.309 30.7268 213.571 30.0521 214.744C29.3774 215.917 28.3654 216.871 27.0161 217.604C25.6668 218.337 23.9654 218.704 21.9121 218.704C19.4774 218.704 17.5121 218.352 16.0161 217.648C15.5468 217.443 15.2388 217.193 15.0921 216.9C14.5641 215.785 14.3001 214.099 14.3001 211.84C14.3001 211.605 14.3881 211.341 14.5641 211.048C14.7694 210.725 15.0041 210.564 15.2681 210.564C15.5028 210.564 15.9281 211.532 16.5441 213.468C17.3948 215.991 19.3748 217.252 22.4841 217.252C23.9801 217.252 25.1681 216.797 26.0481 215.888C26.9281 214.979 27.3681 213.747 27.3681 212.192C27.3681 209.728 25.1388 207 20.6801 204.008C18.8908 202.805 17.5121 201.588 16.5441 200.356C15.5761 199.124 15.0921 197.613 15.0921 195.824C15.0921 194.621 15.4734 193.492 16.2361 192.436C16.9988 191.351 18.0401 190.471 19.3601 189.796C20.7094 189.121 22.2348 188.784 23.9361 188.784C25.4614 188.784 26.6788 188.931 27.5881 189.224C28.4974 189.517 29.0254 189.664 29.1721 189.664C29.4654 189.664 29.6854 189.943 29.8321 190.5C30.0081 191.057 30.1254 191.703 30.1841 192.436C30.2721 193.14 30.3161 193.756 30.3161 194.284C30.3161 195.076 30.2134 195.472 30.0081 195.472C29.1574 195.472 28.6441 195.061 28.4681 194.24C28.2628 192.979 27.7054 191.996 26.7961 191.292C25.8868 190.588 24.7721 190.236 23.4521 190.236C22.1028 190.236 20.9294 190.676 19.9321 191.556C18.9641 192.407 18.4801 193.551 18.4801 194.988C18.4801 195.868 18.8028 196.719 19.4481 197.54C20.0934 198.332 20.8708 199.065 21.7801 199.74C22.6894 200.385 23.5401 200.972 24.3321 201.5C28.8201 204.404 31.0641 207.557 31.0641 210.96ZM51.1212 218.088C49.9479 218.587 49.2732 218.836 49.0972 218.836C48.8626 218.836 48.7452 218.777 48.7452 218.66L48.9652 215.756V215.492C46.8239 217.575 44.4039 218.616 41.7052 218.616C40.2092 218.616 38.9919 218.161 38.0532 217.252C37.1439 216.343 36.6892 215.052 36.6892 213.38V204.448C36.6892 203.245 36.0586 202.409 34.7972 201.94C34.4159 201.823 34.2252 201.573 34.2252 201.192C34.2252 200.84 34.4452 200.62 34.8852 200.532C35.3839 200.503 36.0146 200.429 36.7772 200.312C37.5399 200.195 38.4199 200.019 39.4172 199.784H39.5052C39.9159 199.784 40.0919 199.989 40.0332 200.4C39.8572 201.749 39.7692 202.879 39.7692 203.788V212.368C39.7692 213.072 39.9452 213.732 40.2972 214.348C40.6492 214.935 41.1039 215.419 41.6612 215.8C42.2479 216.181 42.8492 216.372 43.4652 216.372C45.1666 216.372 46.5306 215.991 47.5572 215.228C48.6132 214.436 49.1412 213.424 49.1412 212.192V204.14C49.1412 203.348 48.8332 202.791 48.2172 202.468C47.6012 202.145 46.9559 201.969 46.2812 201.94C45.6066 201.94 45.2692 201.691 45.2692 201.192C45.2692 200.957 45.4012 200.781 45.6652 200.664C45.7826 200.605 45.9292 200.576 46.1052 200.576C46.3106 200.547 46.5452 200.517 46.8092 200.488C47.9532 200.488 48.9359 200.415 49.7572 200.268C50.1679 200.209 50.4319 200.165 50.5492 200.136C50.7546 200.136 51.2239 200.004 51.9572 199.74H52.0452C52.4266 199.74 52.6172 199.916 52.6172 200.268C52.6172 200.385 52.5732 200.532 52.4852 200.708C52.3092 201.001 52.2212 201.984 52.2212 203.656V212.984C52.2212 215.008 52.4852 216.02 53.0132 216.02C53.9226 216.02 54.5972 215.976 55.0372 215.888H55.1692C55.5212 215.888 55.6972 216.064 55.6972 216.416C55.6972 216.856 55.4919 217.076 55.0812 217.076C54.3186 217.193 53.5999 217.34 52.9252 217.516C52.2799 217.663 51.6786 217.853 51.1212 218.088ZM61.4323 230.32L57.9123 230.54C57.2963 230.54 56.9883 230.393 56.9883 230.1C56.9883 229.836 57.399 229.572 58.2203 229.308C59.071 229.044 59.555 228.765 59.6723 228.472C59.819 228.179 59.8923 227.915 59.8923 227.68V205.372C59.8923 205.02 59.8043 204.624 59.6283 204.184C59.4817 203.715 59.2617 203.289 58.9683 202.908C58.675 202.497 58.3083 202.248 57.8683 202.16C57.6337 202.101 57.5163 201.911 57.5163 201.588C57.5163 201.265 57.619 201.089 57.8243 201.06C58.4403 200.913 59.1737 200.693 60.0243 200.4C60.875 200.107 61.843 199.74 62.9283 199.3L62.9723 199.256H63.0163C63.1923 199.256 63.2803 199.388 63.2803 199.652L63.0603 202.292C63.0603 202.527 63.075 202.659 63.1043 202.688C63.4857 202.307 64.0723 201.896 64.8643 201.456C65.6857 201.016 66.5803 200.635 67.5483 200.312C68.5163 199.96 69.411 199.784 70.2323 199.784C71.699 199.784 72.9603 200.18 74.0163 200.972C75.1017 201.735 75.9377 202.747 76.5243 204.008C77.1403 205.269 77.4483 206.633 77.4483 208.1C77.4483 209.449 77.1843 210.755 76.6563 212.016C76.1577 213.277 75.4537 214.407 74.5443 215.404C73.635 216.372 72.579 217.149 71.3763 217.736C70.1737 218.323 68.8977 218.616 67.5483 218.616C67.1377 218.616 66.639 218.543 66.0523 218.396C65.4657 218.279 64.9083 218.117 64.3803 217.912C63.8523 217.677 63.4417 217.443 63.1483 217.208C63.031 217.208 62.9723 217.956 62.9723 219.452V227.68C62.9723 228.12 63.1337 228.428 63.4563 228.604C63.8083 228.809 64.0723 228.941 64.2483 229C64.307 229.029 64.395 229.059 64.5123 229.088C64.659 229.117 64.8057 229.147 64.9523 229.176C66.0083 229.44 66.5363 229.763 66.5363 230.144C66.5363 230.408 66.2137 230.54 65.5683 230.54L61.4323 230.32ZM64.2483 216.24C64.9817 216.915 66.3017 217.252 68.2083 217.252C69.323 217.252 70.335 216.841 71.2443 216.02C72.183 215.199 72.8723 214.245 73.3123 213.16C73.723 212.075 73.9283 210.799 73.9283 209.332C73.9283 207.865 73.7083 206.575 73.2683 205.46C72.8577 204.345 72.315 203.539 71.6403 203.04C70.3497 202.189 69.0737 201.764 67.8123 201.764C66.4923 201.764 65.3777 202.101 64.4683 202.776C63.5883 203.451 63.1043 204.58 63.0163 206.164L62.9723 208.98V210.344C62.9723 211.517 63.031 212.661 63.1483 213.776C63.295 214.861 63.6617 215.683 64.2483 216.24ZM94.4568 214.876C94.3394 215.375 93.9728 215.917 93.3568 216.504C92.7408 217.091 91.9341 217.589 90.9368 218C89.9394 218.411 88.7954 218.616 87.5048 218.616C86.2141 218.616 85.0114 218.22 83.8968 217.428C82.8114 216.607 81.9314 215.492 81.2568 214.084C80.6114 212.676 80.2888 211.077 80.2888 209.288C80.2888 207.499 80.6701 205.885 81.4328 204.448C82.2248 203.011 83.2808 201.881 84.6008 201.06C85.9208 200.209 87.4021 199.784 89.0448 199.784C90.8048 199.784 92.1834 200.151 93.1808 200.884C94.2074 201.617 94.7208 202.615 94.7208 203.876C94.7208 205.137 94.3981 205.929 93.7528 206.252C93.1368 206.545 92.3301 206.692 91.3328 206.692H84.1168C83.7061 206.692 83.4128 206.795 83.2368 207C83.0901 207.176 83.0168 207.616 83.0168 208.32C83.0168 209.669 83.3101 210.931 83.8968 212.104C84.4834 213.277 85.2608 214.216 86.2288 214.92C87.2261 215.624 88.3408 215.976 89.5728 215.976C91.3621 215.976 92.7701 215.331 93.7968 214.04C94.0021 213.835 94.1634 213.732 94.2808 213.732C94.4861 213.732 94.5888 213.879 94.5888 214.172C94.5888 214.377 94.5448 214.612 94.4568 214.876ZM83.8528 204.668C83.8528 205.108 84.1314 205.328 84.6888 205.328H88.2968C88.9714 205.328 89.5728 205.313 90.1008 205.284C90.6581 205.225 91.1274 205.167 91.5088 205.108C91.8021 205.079 91.9488 204.653 91.9488 203.832C91.9488 203.04 91.5821 202.395 90.8488 201.896C90.1154 201.397 89.2354 201.148 88.2088 201.148C87.5048 201.148 86.8154 201.353 86.1408 201.764C85.4954 202.145 84.9528 202.615 84.5128 203.172C84.0728 203.7 83.8528 204.199 83.8528 204.668ZM101.747 217.912L98.1833 218.132C97.5967 218.132 97.3033 217.985 97.3033 217.692C97.3033 217.428 97.5673 217.208 98.0953 217.032C98.6233 216.856 98.9753 216.739 99.1513 216.68C99.3273 216.592 99.518 216.431 99.7233 216.196C99.8993 215.961 99.9873 215.653 99.9873 215.272V205.812C99.9873 203.964 99.386 202.908 98.1833 202.644C97.9487 202.585 97.8313 202.395 97.8313 202.072C97.8313 201.749 97.934 201.573 98.1393 201.544C99.2247 201.339 100.046 201.045 100.603 200.664C101.102 200.341 101.513 200.077 101.835 199.872C102.187 199.667 102.437 199.505 102.583 199.388C102.906 199.212 103.067 199.109 103.067 199.08H103.199C103.287 199.08 103.346 199.183 103.375 199.388C103.375 199.769 103.375 200.151 103.375 200.532C103.375 200.913 103.361 201.295 103.331 201.676C103.302 202.409 103.302 202.776 103.331 202.776C103.331 202.776 103.405 202.703 103.551 202.556C103.962 202.028 104.226 201.735 104.343 201.676C105.722 200.415 107.071 199.784 108.391 199.784C109.007 199.784 109.506 199.916 109.887 200.18C110.298 200.444 110.503 200.796 110.503 201.236C110.503 201.676 110.313 202.16 109.931 202.688C109.579 203.216 109.242 203.48 108.919 203.48C108.597 203.48 108.127 203.348 107.511 203.084C106.895 202.82 106.441 202.688 106.147 202.688C105.297 202.688 104.563 202.967 103.947 203.524C103.361 204.081 103.067 205.035 103.067 206.384V215.052C103.097 215.815 103.889 216.445 105.443 216.944C106.118 217.179 106.455 217.428 106.455 217.692C106.455 217.985 106.162 218.132 105.575 218.132L101.747 217.912ZM121.415 216.988C120.769 218.308 120.373 218.968 120.227 218.968C120.051 218.968 119.757 218.396 119.347 217.252L113.979 203.524C113.509 202.351 112.835 201.632 111.955 201.368C111.28 201.133 110.943 200.869 110.943 200.576C110.943 200.312 111.236 200.18 111.823 200.18L115.035 200.4L118.335 200.18C118.921 200.18 119.215 200.312 119.215 200.576C119.215 200.869 118.877 201.133 118.203 201.368C117.616 201.544 117.323 202.145 117.323 203.172C117.323 203.7 117.381 204.096 117.499 204.36L120.755 213.116C120.901 213.439 120.989 213.6 121.019 213.6C121.077 213.6 121.165 213.453 121.283 213.16L124.451 205.02C124.656 204.521 124.759 203.993 124.759 203.436C124.759 202.263 124.392 201.573 123.659 201.368C122.984 201.133 122.647 200.869 122.647 200.576C122.647 200.312 122.94 200.18 123.527 200.18L126.739 200.4C127.325 200.4 127.853 200.356 128.323 200.268C128.557 200.239 128.777 200.224 128.983 200.224C129.217 200.195 129.437 200.18 129.643 200.18C130.024 200.18 130.215 200.312 130.215 200.576C130.215 200.869 129.936 201.104 129.379 201.28C128.821 201.485 128.264 201.867 127.707 202.424C127.179 202.981 126.768 203.612 126.475 204.316L123.043 212.588L121.415 216.988ZM137.452 193.228C137.422 193.844 137.202 194.357 136.792 194.768C136.381 195.179 135.853 195.399 135.208 195.428C134.562 195.399 134.034 195.179 133.624 194.768C133.213 194.357 133.008 193.829 133.008 193.184C133.008 192.539 133.213 192.011 133.624 191.6C134.034 191.189 134.562 190.984 135.208 190.984C135.853 190.984 136.381 191.189 136.792 191.6C137.202 192.011 137.422 192.553 137.452 193.228ZM135.516 217.912L131.952 218.132C131.365 218.132 131.072 217.985 131.072 217.692C131.072 217.428 131.482 217.164 132.304 216.9C133.154 216.636 133.638 216.357 133.756 216.064C133.902 215.771 133.976 215.507 133.976 215.272V205.724C133.976 203.905 133.286 202.835 131.908 202.512C131.673 202.453 131.556 202.263 131.556 201.94C131.556 201.617 131.658 201.441 131.864 201.412C133.272 201.06 134.768 200.371 136.352 199.344C136.821 199.051 137.085 198.904 137.144 198.904C137.349 198.904 137.452 198.977 137.452 199.124C137.188 201.793 137.056 203.773 137.056 205.064V215.272C137.056 215.859 137.232 216.24 137.584 216.416C137.965 216.592 138.464 216.783 139.08 216.988C139.666 217.223 139.96 217.457 139.96 217.692C139.96 217.985 139.666 218.132 139.08 218.132L135.516 217.912ZM153.693 213.336C153.693 216.856 151.581 218.616 147.357 218.616C146.271 218.616 145.259 218.425 144.321 218.044C143.382 217.692 142.839 217.355 142.693 217.032C142.341 216.299 142.15 215.404 142.121 214.348C142.121 214.084 142.355 213.952 142.825 213.952C143.265 213.952 143.499 214.055 143.529 214.26C143.646 214.759 143.91 215.257 144.321 215.756C144.761 216.255 145.274 216.665 145.861 216.988C146.477 217.281 147.107 217.428 147.753 217.428C148.691 217.428 149.41 217.149 149.909 216.592C150.437 216.035 150.701 215.345 150.701 214.524C150.701 213.703 150.437 213.013 149.909 212.456C149.381 211.869 148.501 211.136 147.269 210.256C146.007 209.376 144.995 208.525 144.233 207.704C143.499 206.853 143.133 205.827 143.133 204.624C143.133 203.803 143.353 203.025 143.793 202.292C144.233 201.559 144.863 200.957 145.685 200.488C146.506 200.019 147.503 199.784 148.677 199.784C150.437 199.784 151.654 200.121 152.329 200.796C152.827 201.441 153.077 202.585 153.077 204.228C153.077 204.345 152.974 204.404 152.769 204.404C152.563 204.404 152.27 204.301 151.889 204.096C151.507 203.861 151.317 203.656 151.317 203.48C151.287 202.835 150.994 202.248 150.437 201.72C149.879 201.192 149.219 200.928 148.457 200.928C147.665 200.928 147.019 201.192 146.521 201.72C146.022 202.248 145.773 202.864 145.773 203.568C145.773 204.272 146.022 204.917 146.521 205.504C147.019 206.091 147.459 206.501 147.841 206.736C148.017 206.853 148.237 207.015 148.501 207.22C148.794 207.396 149.131 207.601 149.513 207.836C150.011 208.129 150.422 208.393 150.745 208.628C151.097 208.863 151.434 209.141 151.757 209.464C152.079 209.757 152.431 210.183 152.813 210.74C153.399 211.591 153.693 212.456 153.693 213.336ZM175.263 208.892C175.263 210.593 174.867 212.192 174.075 213.688C173.313 215.155 172.183 216.343 170.687 217.252C169.221 218.161 167.431 218.616 165.319 218.616C163.677 218.616 162.181 218.235 160.831 217.472C159.511 216.709 158.47 215.668 157.707 214.348C156.945 212.999 156.563 211.473 156.563 209.772C156.563 208.511 156.813 207.293 157.311 206.12C157.81 204.917 158.499 203.847 159.379 202.908C160.289 201.94 161.315 201.177 162.459 200.62C163.603 200.063 164.821 199.784 166.111 199.784C167.842 199.784 169.397 200.195 170.775 201.016C172.154 201.808 173.239 202.893 174.031 204.272C174.853 205.621 175.263 207.161 175.263 208.892ZM160.171 208.76C160.171 210.256 160.435 211.664 160.963 212.984C161.521 214.275 162.254 215.316 163.163 216.108C164.102 216.9 165.129 217.296 166.243 217.296C167.71 217.296 168.825 216.988 169.587 216.372C170.379 215.727 170.922 214.847 171.215 213.732C171.509 212.588 171.655 211.268 171.655 209.772C171.655 208.247 171.377 206.839 170.819 205.548C170.291 204.228 169.558 203.172 168.619 202.38C167.71 201.559 166.654 201.148 165.451 201.148C161.931 201.148 160.171 203.685 160.171 208.76ZM182.529 217.912L178.965 218.132C178.378 218.132 178.085 217.985 178.085 217.692C178.085 217.428 178.349 217.208 178.877 217.032C179.405 216.856 179.757 216.739 179.933 216.68C180.109 216.592 180.299 216.431 180.505 216.196C180.681 215.961 180.769 215.653 180.769 215.272V205.812C180.769 203.964 180.167 202.908 178.965 202.644C178.73 202.585 178.613 202.395 178.613 202.072C178.613 201.749 178.715 201.573 178.921 201.544C180.006 201.339 180.827 201.045 181.385 200.664C181.883 200.341 182.294 200.077 182.617 199.872C182.969 199.667 183.218 199.505 183.365 199.388C183.687 199.212 183.849 199.109 183.849 199.08H183.981C184.069 199.08 184.127 199.183 184.157 199.388C184.157 199.769 184.157 200.151 184.157 200.532C184.157 200.913 184.142 201.295 184.113 201.676C184.083 202.409 184.083 202.776 184.113 202.776C184.113 202.776 184.186 202.703 184.333 202.556C184.743 202.028 185.007 201.735 185.125 201.676C186.503 200.415 187.853 199.784 189.173 199.784C189.789 199.784 190.287 199.916 190.669 200.18C191.079 200.444 191.285 200.796 191.285 201.236C191.285 201.676 191.094 202.16 190.713 202.688C190.361 203.216 190.023 203.48 189.701 203.48C189.378 203.48 188.909 203.348 188.293 203.084C187.677 202.82 187.222 202.688 186.929 202.688C186.078 202.688 185.345 202.967 184.729 203.524C184.142 204.081 183.849 205.035 183.849 206.384V215.052C183.878 215.815 184.67 216.445 186.225 216.944C186.899 217.179 187.237 217.428 187.237 217.692C187.237 217.985 186.943 218.132 186.357 218.132L182.529 217.912Z" fill="#F8F9FA"/>
<rect x="1" y="1" width="192.947" height="173" rx="35" fill="#2ECC71" stroke="black" stroke-width="2"/>
<path d="M101 87.5C117.728 87.5 131.286 73.0631 131.286 55.25C131.286 37.4369 117.728 23 101 23C84.2719 23 70.7143 37.4369 70.7143 55.25C70.7143 73.0631 84.2719 87.5 101 87.5ZM122.2 95.5625H118.249C112.996 98.1324 107.152 99.5938 101 99.5938C94.8482 99.5938 89.0277 98.1324 83.7513 95.5625H79.8C62.2437 95.5625 48 110.73 48 129.425V139.906C48 146.583 53.0871 152 59.3571 152H142.643C148.913 152 154 146.583 154 139.906V129.425C154 110.73 139.756 95.5625 122.2 95.5625Z" fill="#0D1B2A"/>
</svg>
