<svg width="195" height="263" viewBox="0 0 195 263" fill="none" xmlns="http://www.w3.org/2000/svg">
<path d="M42.8202 218L37.9802 218.22C37.1295 218.22 36.7042 218.044 36.7042 217.692C36.7042 217.399 37.2175 217.135 38.2442 216.9C39.2708 216.724 39.9455 216.416 40.2682 215.976C40.6202 215.507 40.7962 214.729 40.7962 213.644V193.756C40.7962 192.671 40.6642 191.923 40.4002 191.512C40.1362 191.101 39.5055 190.808 38.5082 190.632C37.5108 190.456 37.0122 190.163 37.0122 189.752C37.0122 189.429 37.4375 189.268 38.2882 189.268L42.8202 189.4L47.4842 189.268C48.3348 189.268 48.7602 189.429 48.7602 189.752C48.7602 190.163 48.2762 190.456 47.3082 190.632C45.3135 190.984 44.3162 192.025 44.3162 193.756V202.204C44.3162 202.468 44.5215 202.6 44.9322 202.6H61.2562C61.4615 202.6 61.5642 202.424 61.5642 202.072V193.712C61.5642 192.011 60.5962 190.984 58.6602 190.632C57.6922 190.456 57.2082 190.163 57.2082 189.752C57.2082 189.429 57.6335 189.268 58.4842 189.268L63.5882 189.4L67.5922 189.268C68.4428 189.268 68.8682 189.429 68.8682 189.752C68.8682 190.163 68.3842 190.456 67.4162 190.632C66.4188 190.808 65.7735 191.131 65.4802 191.6C65.2162 192.04 65.0842 192.744 65.0842 193.712V213.6C65.0842 214.744 65.2308 215.551 65.5242 216.02C65.8175 216.46 66.4628 216.768 67.4602 216.944C68.4575 217.12 68.9562 217.369 68.9562 217.692C68.9562 218.044 68.5308 218.22 67.6802 218.22L63.1042 218L58.3962 218.22C57.5455 218.22 57.1202 218.044 57.1202 217.692C57.1202 217.369 57.6042 217.12 58.5722 216.944C60.5668 216.533 61.5642 215.463 61.5642 213.732V205.372C61.5642 204.932 61.4908 204.712 61.3442 204.712H44.5362C44.3895 204.712 44.3162 204.873 44.3162 205.196V213.336C44.3162 214.245 44.6388 215.037 45.2842 215.712C45.9295 216.357 46.7508 216.768 47.7482 216.944C48.7455 217.12 49.2442 217.369 49.2442 217.692C49.2442 218.044 48.8188 218.22 47.9682 218.22L42.8202 218ZM88.8693 218.088C87.6959 218.587 87.0213 218.836 86.8453 218.836C86.6106 218.836 86.4933 218.777 86.4933 218.66L86.7133 215.756V215.492C84.5719 217.575 82.1519 218.616 79.4533 218.616C77.9573 218.616 76.7399 218.161 75.8013 217.252C74.8919 216.343 74.4373 215.052 74.4373 213.38V204.448C74.4373 203.245 73.8066 202.409 72.5453 201.94C72.1639 201.823 71.9733 201.573 71.9733 201.192C71.9733 200.84 72.1933 200.62 72.6333 200.532C73.1319 200.503 73.7626 200.429 74.5253 200.312C75.2879 200.195 76.1679 200.019 77.1653 199.784H77.2533C77.6639 199.784 77.8399 199.989 77.7813 200.4C77.6053 201.749 77.5173 202.879 77.5173 203.788V212.368C77.5173 213.072 77.6933 213.732 78.0453 214.348C78.3973 214.935 78.8519 215.419 79.4093 215.8C79.9959 216.181 80.5973 216.372 81.2133 216.372C82.9146 216.372 84.2786 215.991 85.3053 215.228C86.3613 214.436 86.8893 213.424 86.8893 212.192V204.14C86.8893 203.348 86.5813 202.791 85.9653 202.468C85.3493 202.145 84.7039 201.969 84.0293 201.94C83.3546 201.94 83.0173 201.691 83.0173 201.192C83.0173 200.957 83.1493 200.781 83.4133 200.664C83.5306 200.605 83.6773 200.576 83.8533 200.576C84.0586 200.547 84.2933 200.517 84.5573 200.488C85.7013 200.488 86.6839 200.415 87.5053 200.268C87.9159 200.209 88.1799 200.165 88.2973 200.136C88.5026 200.136 88.9719 200.004 89.7053 199.74H89.7933C90.1746 199.74 90.3653 199.916 90.3653 200.268C90.3653 200.385 90.3213 200.532 90.2333 200.708C90.0573 201.001 89.9693 201.984 89.9693 203.656V212.984C89.9693 215.008 90.2333 216.02 90.7613 216.02C91.6706 216.02 92.3453 215.976 92.7853 215.888H92.9173C93.2693 215.888 93.4453 216.064 93.4453 216.416C93.4453 216.856 93.2399 217.076 92.8293 217.076C92.0666 217.193 91.3479 217.34 90.6733 217.516C90.0279 217.663 89.4266 217.853 88.8693 218.088ZM99.4004 217.912L95.8364 218.132C95.2497 218.132 94.9564 217.985 94.9564 217.692C94.9564 217.516 95.0737 217.369 95.3084 217.252C95.5431 217.105 95.7924 216.988 96.0564 216.9C96.3204 216.812 96.4817 216.768 96.5404 216.768C96.5991 216.768 96.7457 216.709 96.9804 216.592C97.2151 216.475 97.3617 216.372 97.4204 216.284C97.7137 215.991 97.8604 215.653 97.8604 215.272V205.812C97.8604 204.903 97.7431 204.184 97.5084 203.656C97.2737 203.128 96.8191 202.791 96.1444 202.644C95.9097 202.585 95.7924 202.395 95.7924 202.072C95.7924 201.749 95.8951 201.573 96.1004 201.544C96.7751 201.397 97.4497 201.148 98.1244 200.796C98.8284 200.444 99.5471 200.019 100.28 199.52L100.94 199.124H100.984C101.102 199.124 101.204 199.212 101.292 199.388L101.072 202.204C101.072 202.497 101.102 202.673 101.16 202.732C103.243 200.767 105.56 199.784 108.112 199.784C110.195 199.784 111.559 200.664 112.204 202.424C112.351 202.747 112.512 202.908 112.688 202.908C112.835 202.908 113.143 202.629 113.612 202.072C114.082 201.544 114.903 201.031 116.076 200.532C117.25 200.033 118.511 199.784 119.86 199.784C120.74 199.784 121.503 200.063 122.148 200.62C122.823 201.177 123.336 201.925 123.688 202.864C124.04 203.773 124.216 204.785 124.216 205.9V215.272C124.216 215.859 124.392 216.24 124.744 216.416C125.126 216.592 125.624 216.783 126.24 216.988C126.827 217.223 127.12 217.457 127.12 217.692C127.12 217.985 126.827 218.132 126.24 218.132L122.764 217.912L119.112 218.132C118.526 218.132 118.232 217.985 118.232 217.692C118.232 217.428 118.57 217.179 119.244 216.944C119.303 216.944 119.362 216.929 119.42 216.9C120.418 216.577 120.975 216.181 121.092 215.712C121.122 215.653 121.136 215.58 121.136 215.492C121.136 215.404 121.136 215.331 121.136 215.272V206.032C121.136 204.947 120.784 203.979 120.08 203.128C119.376 202.277 118.555 201.852 117.616 201.852C116.062 201.852 114.83 202.204 113.92 202.908C113.011 203.612 112.556 204.712 112.556 206.208V215.272C112.556 215.595 112.6 215.8 112.688 215.888L112.864 216.152C112.923 216.269 112.996 216.343 113.084 216.372C113.231 216.401 113.319 216.445 113.348 216.504C113.407 216.563 113.51 216.607 113.656 216.636C113.803 216.665 113.891 216.709 113.92 216.768C114.155 216.885 114.36 216.944 114.536 216.944C115.211 217.179 115.548 217.428 115.548 217.692C115.548 217.985 115.255 218.132 114.668 218.132L111.06 217.912L107.408 218.132C106.822 218.132 106.528 217.985 106.528 217.692C106.528 217.428 106.939 217.164 107.76 216.9C108.582 216.636 109.08 216.357 109.256 216.064C109.403 215.771 109.476 215.507 109.476 215.272V206.032C109.476 204.947 109.124 203.979 108.42 203.128C107.716 202.277 106.895 201.852 105.956 201.852C104.402 201.852 103.17 202.204 102.26 202.908C101.38 203.583 100.94 204.683 100.94 206.208V215.272C100.94 215.829 101.102 216.211 101.424 216.416C101.776 216.592 102.011 216.695 102.128 216.724C103.272 217.017 103.844 217.355 103.844 217.736C103.844 218 103.551 218.132 102.964 218.132L99.4004 217.912ZM138.09 216.9C137.68 217.281 137.064 217.663 136.242 218.044C135.45 218.425 134.57 218.616 133.602 218.616C132.957 218.616 132.326 218.44 131.71 218.088C131.124 217.765 130.64 217.34 130.258 216.812C129.877 216.255 129.686 215.697 129.686 215.14C129.686 213.38 130.757 212.06 132.898 211.18L137.386 209.332C137.944 209.097 138.281 208.892 138.398 208.716C138.516 208.54 138.589 208.159 138.618 207.572L138.706 204.844V204.756C138.706 203.993 138.457 203.333 137.958 202.776C137.489 202.219 136.946 201.94 136.33 201.94C135.685 201.94 135.084 202.101 134.526 202.424C133.969 202.717 133.617 202.996 133.47 203.26C133.324 203.553 133.25 203.861 133.25 204.184L133.294 204.8C133.294 204.976 133.089 205.181 132.678 205.416C132.268 205.651 131.828 205.871 131.358 206.076C130.889 206.252 130.552 206.34 130.346 206.34C130.053 206.34 129.906 206.208 129.906 205.944C129.906 205.269 130.141 204.624 130.61 204.008C131.08 203.392 131.681 202.805 132.414 202.248C133.177 201.691 133.969 201.192 134.79 200.752C135.993 200.107 137.137 199.784 138.222 199.784C139.249 199.784 140.114 200.165 140.818 200.928C141.522 201.691 141.86 202.615 141.83 203.7L141.61 213.204V213.468C141.61 215.551 142.138 216.592 143.194 216.592C143.898 216.592 144.485 216.387 144.954 215.976C145.013 215.917 145.086 215.888 145.174 215.888C145.292 215.888 145.394 215.932 145.482 216.02C145.6 216.108 145.658 216.225 145.658 216.372V216.416C145.541 216.651 145.292 216.944 144.91 217.296C144.529 217.648 144.089 217.956 143.59 218.22C143.092 218.484 142.608 218.616 142.138 218.616C141.405 218.616 140.789 218.425 140.29 218.044C139.821 217.663 139.484 217.281 139.278 216.9C139.073 216.519 138.941 216.328 138.882 216.328C138.736 216.328 138.472 216.519 138.09 216.9ZM133.206 214.172C133.206 214.935 133.441 215.536 133.91 215.976C134.38 216.387 134.952 216.592 135.626 216.592C136.301 216.592 136.946 216.328 137.562 215.8C138.178 215.272 138.501 214.553 138.53 213.644L138.618 211.488V211.268C138.618 210.799 138.486 210.564 138.222 210.564C138.046 210.564 137.841 210.608 137.606 210.696C134.673 211.693 133.206 212.852 133.206 214.172ZM151.221 217.912L147.657 218.132C147.07 218.132 146.777 217.985 146.777 217.692C146.777 217.516 146.894 217.369 147.129 217.252C147.363 217.105 147.613 216.988 147.877 216.9C148.141 216.812 148.302 216.768 148.361 216.768C148.419 216.768 148.566 216.709 148.801 216.592C149.035 216.475 149.182 216.372 149.241 216.284C149.534 215.991 149.681 215.653 149.681 215.272V205.812C149.681 203.935 149.079 202.879 147.877 202.644C147.642 202.585 147.525 202.395 147.525 202.072C147.525 201.749 147.627 201.573 147.833 201.544C149.358 201.192 150.971 200.385 152.673 199.124C152.702 199.095 152.761 199.08 152.849 199.08C152.907 199.08 152.981 199.212 153.069 199.476L152.761 202.336C152.761 202.541 152.775 202.659 152.805 202.688C153.362 202.219 154.037 201.764 154.829 201.324C155.65 200.884 156.53 200.517 157.469 200.224C158.407 199.931 159.317 199.784 160.197 199.784C161.077 199.784 161.883 200.063 162.617 200.62C163.35 201.148 163.937 201.867 164.377 202.776C164.817 203.685 165.037 204.727 165.037 205.9V215.272C165.037 215.859 165.213 216.24 165.565 216.416C165.946 216.592 166.445 216.783 167.061 216.988C167.647 217.223 167.941 217.457 167.941 217.692C167.941 217.985 167.647 218.132 167.061 218.132L163.541 217.912L159.933 218.132C159.346 218.132 159.053 217.985 159.053 217.692C159.053 217.428 159.39 217.179 160.065 216.944C160.123 216.944 160.182 216.929 160.241 216.9C161.238 216.577 161.795 216.181 161.913 215.712C161.942 215.653 161.957 215.58 161.957 215.492C161.957 215.404 161.957 215.331 161.957 215.272V206.032C161.957 204.771 161.59 203.773 160.857 203.04C160.123 202.307 159.053 201.94 157.645 201.94C156.207 201.94 155.034 202.248 154.125 202.864C153.215 203.48 152.761 204.595 152.761 206.208V215.272C152.761 215.859 152.937 216.24 153.289 216.416C153.67 216.592 154.169 216.783 154.785 216.988C155.371 217.223 155.665 217.457 155.665 217.692C155.665 217.985 155.371 218.132 154.785 218.132L151.221 217.912ZM56.1193 261.384C56.1193 261.941 55.7233 262.337 54.9313 262.572C54.1687 262.807 53.3767 262.924 52.5553 262.924C51.1767 262.924 49.9153 262.616 48.7713 262C47.6567 261.384 46.6593 260.621 45.7793 259.712C44.8993 258.803 44.1367 257.893 43.4913 256.984C42.846 256.045 42.318 255.268 41.9073 254.652C41.4967 254.036 41.1153 253.464 40.7633 252.936C40.4407 252.408 40.162 251.939 39.9273 251.528C38.9007 249.944 37.0673 249.005 34.4273 248.712H34.3393C33.958 248.712 33.7673 249.005 33.7673 249.592V257.16C33.7673 259.331 34.75 260.592 36.7153 260.944C37.6833 261.12 38.1673 261.369 38.1673 261.692C38.1673 262.044 37.742 262.22 36.8913 262.22C36.4807 262.22 36.07 262.205 35.6593 262.176C35.2487 262.147 34.8527 262.103 34.4713 262.044C33.738 261.956 33.1073 261.912 32.5793 261.912L26.8593 262.22C26.0087 262.22 25.5833 262.044 25.5833 261.692C25.5833 261.369 26.1113 261.105 27.1673 260.9C28.2233 260.724 29.0007 260.401 29.4993 259.932C29.998 259.433 30.2473 258.656 30.2473 257.6V239.032C30.2473 237.624 30.0713 236.583 29.7193 235.908C29.3673 235.233 28.678 234.808 27.6513 234.632C26.6247 234.456 26.1113 234.163 26.1113 233.752C26.1113 233.429 26.5367 233.268 27.3873 233.268L31.6993 233.312L36.7593 233.092C43.3593 233.092 46.6593 235.497 46.6593 240.308C46.6593 243.476 44.9287 245.94 41.4673 247.7C41.35 247.759 41.2913 247.832 41.2913 247.92C41.2913 247.949 41.306 247.993 41.3353 248.052C41.394 248.111 41.438 248.184 41.4673 248.272C42.142 249.269 42.6847 250.091 43.0953 250.736C43.506 251.352 43.8727 251.909 44.1953 252.408C44.5473 252.877 44.914 253.347 45.2953 253.816C45.6767 254.285 46.1607 254.872 46.7473 255.576C47.334 256.28 47.9207 256.955 48.5073 257.6C49.1233 258.245 49.754 258.861 50.3993 259.448C51.1033 260.064 51.822 260.46 52.5553 260.636C53.2887 260.812 54.2567 260.9 55.4593 260.9C55.8993 260.9 56.1193 261.061 56.1193 261.384ZM33.7673 245.984C33.7673 246.659 33.9433 247.084 34.2953 247.26C34.6473 247.436 35.2487 247.524 36.0993 247.524C37.4193 247.524 38.5633 247.231 39.5313 246.644C40.5287 246.057 41.306 245.251 41.8633 244.224C42.4207 243.197 42.6993 242.053 42.6993 240.792C42.6993 238.885 42.274 237.345 41.4233 236.172C40.602 234.999 39.0473 234.412 36.7593 234.412C35.6447 234.412 34.8967 234.617 34.5153 235.028C34.1633 235.439 33.9727 236.025 33.9433 236.788C33.8847 238.225 33.8407 239.707 33.8113 241.232C33.782 242.757 33.7673 244.341 33.7673 245.984ZM70.3513 258.876C70.2339 259.375 69.8673 259.917 69.2513 260.504C68.6353 261.091 67.8286 261.589 66.8313 262C65.8339 262.411 64.6899 262.616 63.3993 262.616C62.1086 262.616 60.9059 262.22 59.7913 261.428C58.7059 260.607 57.8259 259.492 57.1513 258.084C56.5059 256.676 56.1833 255.077 56.1833 253.288C56.1833 251.499 56.5646 249.885 57.3273 248.448C58.1193 247.011 59.1753 245.881 60.4953 245.06C61.8153 244.209 63.2966 243.784 64.9393 243.784C66.6993 243.784 68.0779 244.151 69.0753 244.884C70.1019 245.617 70.6153 246.615 70.6153 247.876C70.6153 249.137 70.2926 249.929 69.6473 250.252C69.0313 250.545 68.2246 250.692 67.2273 250.692H60.0113C59.6006 250.692 59.3073 250.795 59.1313 251C58.9846 251.176 58.9113 251.616 58.9113 252.32C58.9113 253.669 59.2046 254.931 59.7913 256.104C60.3779 257.277 61.1553 258.216 62.1233 258.92C63.1206 259.624 64.2353 259.976 65.4673 259.976C67.2566 259.976 68.6646 259.331 69.6913 258.04C69.8966 257.835 70.0579 257.732 70.1753 257.732C70.3806 257.732 70.4833 257.879 70.4833 258.172C70.4833 258.377 70.4393 258.612 70.3513 258.876ZM59.7473 248.668C59.7473 249.108 60.0259 249.328 60.5833 249.328H64.1913C64.8659 249.328 65.4673 249.313 65.9953 249.284C66.5526 249.225 67.0219 249.167 67.4033 249.108C67.6966 249.079 67.8433 248.653 67.8433 247.832C67.8433 247.04 67.4766 246.395 66.7433 245.896C66.0099 245.397 65.1299 245.148 64.1033 245.148C63.3993 245.148 62.7099 245.353 62.0353 245.764C61.3899 246.145 60.8473 246.615 60.4073 247.172C59.9673 247.7 59.7473 248.199 59.7473 248.668ZM84.8139 257.336C84.8139 260.856 82.7019 262.616 78.4779 262.616C77.3925 262.616 76.3805 262.425 75.4419 262.044C74.5032 261.692 73.9605 261.355 73.8139 261.032C73.4619 260.299 73.2712 259.404 73.2419 258.348C73.2419 258.084 73.4765 257.952 73.9459 257.952C74.3859 257.952 74.6205 258.055 74.6499 258.26C74.7672 258.759 75.0312 259.257 75.4419 259.756C75.8819 260.255 76.3952 260.665 76.9819 260.988C77.5979 261.281 78.2285 261.428 78.8739 261.428C79.8125 261.428 80.5312 261.149 81.0299 260.592C81.5579 260.035 81.8219 259.345 81.8219 258.524C81.8219 257.703 81.5579 257.013 81.0299 256.456C80.5019 255.869 79.6219 255.136 78.3899 254.256C77.1285 253.376 76.1165 252.525 75.3539 251.704C74.6205 250.853 74.2539 249.827 74.2539 248.624C74.2539 247.803 74.4739 247.025 74.9139 246.292C75.3539 245.559 75.9845 244.957 76.8059 244.488C77.6272 244.019 78.6245 243.784 79.7979 243.784C81.5579 243.784 82.7752 244.121 83.4499 244.796C83.9485 245.441 84.1979 246.585 84.1979 248.228C84.1979 248.345 84.0952 248.404 83.8899 248.404C83.6845 248.404 83.3912 248.301 83.0099 248.096C82.6285 247.861 82.4379 247.656 82.4379 247.48C82.4085 246.835 82.1152 246.248 81.5579 245.72C81.0005 245.192 80.3405 244.928 79.5779 244.928C78.7859 244.928 78.1405 245.192 77.6419 245.72C77.1432 246.248 76.8939 246.864 76.8939 247.568C76.8939 248.272 77.1432 248.917 77.6419 249.504C78.1405 250.091 78.5805 250.501 78.9619 250.736C79.1379 250.853 79.3579 251.015 79.6219 251.22C79.9152 251.396 80.2525 251.601 80.6339 251.836C81.1325 252.129 81.5432 252.393 81.8659 252.628C82.2179 252.863 82.5552 253.141 82.8779 253.464C83.2005 253.757 83.5525 254.183 83.9339 254.74C84.5205 255.591 84.8139 256.456 84.8139 257.336ZM106.385 252.892C106.385 254.593 105.989 256.192 105.197 257.688C104.434 259.155 103.305 260.343 101.809 261.252C100.342 262.161 98.5525 262.616 96.4405 262.616C94.7979 262.616 93.3019 262.235 91.9525 261.472C90.6325 260.709 89.5912 259.668 88.8285 258.348C88.0659 256.999 87.6845 255.473 87.6845 253.772C87.6845 252.511 87.9339 251.293 88.4325 250.12C88.9312 248.917 89.6205 247.847 90.5005 246.908C91.4099 245.94 92.4365 245.177 93.5805 244.62C94.7245 244.063 95.9419 243.784 97.2325 243.784C98.9632 243.784 100.518 244.195 101.897 245.016C103.275 245.808 104.361 246.893 105.153 248.272C105.974 249.621 106.385 251.161 106.385 252.892ZM91.2925 252.76C91.2925 254.256 91.5565 255.664 92.0845 256.984C92.6419 258.275 93.3752 259.316 94.2845 260.108C95.2232 260.9 96.2499 261.296 97.3645 261.296C98.8312 261.296 99.9459 260.988 100.709 260.372C101.501 259.727 102.043 258.847 102.337 257.732C102.63 256.588 102.777 255.268 102.777 253.772C102.777 252.247 102.498 250.839 101.941 249.548C101.413 248.228 100.679 247.172 99.7405 246.38C98.8312 245.559 97.7752 245.148 96.5725 245.148C93.0525 245.148 91.2925 247.685 91.2925 252.76ZM126.102 262.088C124.928 262.587 124.254 262.836 124.078 262.836C123.843 262.836 123.726 262.777 123.726 262.66L123.946 259.756V259.492C121.804 261.575 119.384 262.616 116.686 262.616C115.19 262.616 113.972 262.161 113.034 261.252C112.124 260.343 111.67 259.052 111.67 257.38V248.448C111.67 247.245 111.039 246.409 109.778 245.94C109.396 245.823 109.206 245.573 109.206 245.192C109.206 244.84 109.426 244.62 109.866 244.532C110.364 244.503 110.995 244.429 111.758 244.312C112.52 244.195 113.4 244.019 114.398 243.784H114.486C114.896 243.784 115.072 243.989 115.014 244.4C114.838 245.749 114.75 246.879 114.75 247.788V256.368C114.75 257.072 114.926 257.732 115.278 258.348C115.63 258.935 116.084 259.419 116.642 259.8C117.228 260.181 117.83 260.372 118.446 260.372C120.147 260.372 121.511 259.991 122.538 259.228C123.594 258.436 124.122 257.424 124.122 256.192V248.14C124.122 247.348 123.814 246.791 123.198 246.468C122.582 246.145 121.936 245.969 121.262 245.94C120.587 245.94 120.25 245.691 120.25 245.192C120.25 244.957 120.382 244.781 120.646 244.664C120.763 244.605 120.91 244.576 121.086 244.576C121.291 244.547 121.526 244.517 121.79 244.488C122.934 244.488 123.916 244.415 124.738 244.268C125.148 244.209 125.412 244.165 125.53 244.136C125.735 244.136 126.204 244.004 126.938 243.74H127.026C127.407 243.74 127.598 243.916 127.598 244.268C127.598 244.385 127.554 244.532 127.466 244.708C127.29 245.001 127.202 245.984 127.202 247.656V256.984C127.202 259.008 127.466 260.02 127.994 260.02C128.903 260.02 129.578 259.976 130.018 259.888H130.15C130.502 259.888 130.678 260.064 130.678 260.416C130.678 260.856 130.472 261.076 130.062 261.076C129.299 261.193 128.58 261.34 127.906 261.516C127.26 261.663 126.659 261.853 126.102 262.088ZM136.853 261.912L133.289 262.132C132.702 262.132 132.409 261.985 132.409 261.692C132.409 261.428 132.673 261.208 133.201 261.032C133.729 260.856 134.081 260.739 134.257 260.68C134.433 260.592 134.623 260.431 134.829 260.196C135.005 259.961 135.093 259.653 135.093 259.272V249.812C135.093 247.964 134.491 246.908 133.289 246.644C133.054 246.585 132.937 246.395 132.937 246.072C132.937 245.749 133.039 245.573 133.245 245.544C134.33 245.339 135.151 245.045 135.709 244.664C136.207 244.341 136.618 244.077 136.941 243.872C137.293 243.667 137.542 243.505 137.689 243.388C138.011 243.212 138.173 243.109 138.173 243.08H138.305C138.393 243.08 138.451 243.183 138.481 243.388C138.481 243.769 138.481 244.151 138.481 244.532C138.481 244.913 138.466 245.295 138.437 245.676C138.407 246.409 138.407 246.776 138.437 246.776C138.437 246.776 138.51 246.703 138.657 246.556C139.067 246.028 139.331 245.735 139.449 245.676C140.827 244.415 142.177 243.784 143.497 243.784C144.113 243.784 144.611 243.916 144.993 244.18C145.403 244.444 145.609 244.796 145.609 245.236C145.609 245.676 145.418 246.16 145.037 246.688C144.685 247.216 144.347 247.48 144.025 247.48C143.702 247.48 143.233 247.348 142.617 247.084C142.001 246.82 141.546 246.688 141.253 246.688C140.402 246.688 139.669 246.967 139.053 247.524C138.466 248.081 138.173 249.035 138.173 250.384V259.052C138.202 259.815 138.994 260.445 140.549 260.944C141.223 261.179 141.561 261.428 141.561 261.692C141.561 261.985 141.267 262.132 140.681 262.132L136.853 261.912ZM162.196 258.524C162.196 259.111 161.844 259.727 161.14 260.372C160.436 260.988 159.497 261.516 158.324 261.956C157.18 262.396 155.948 262.616 154.628 262.616C153.308 262.616 152.091 262.235 150.976 261.472C149.891 260.68 149.011 259.624 148.336 258.304C147.691 256.955 147.368 255.429 147.368 253.728C147.368 252.027 147.779 250.428 148.6 248.932C149.421 247.407 150.521 246.175 151.9 245.236C153.279 244.297 154.804 243.828 156.476 243.828C158.969 243.828 160.788 244.532 161.932 245.94C162.079 246.175 162.152 246.395 162.152 246.6C162.152 246.864 161.932 247.157 161.492 247.48C161.081 247.803 160.7 247.964 160.348 247.964C159.996 247.964 159.673 247.817 159.38 247.524C158.852 246.937 158.412 246.497 158.06 246.204C157.708 245.911 157.327 245.72 156.916 245.632C156.505 245.515 155.948 245.456 155.244 245.456C153.719 245.456 152.531 246.116 151.68 247.436C150.829 248.727 150.404 250.369 150.404 252.364C150.404 253.684 150.697 254.96 151.284 256.192C151.9 257.395 152.736 258.392 153.792 259.184C154.848 259.947 156.051 260.328 157.4 260.328C158.28 260.328 158.984 260.167 159.512 259.844C160.069 259.492 160.656 258.92 161.272 258.128C161.419 257.981 161.551 257.908 161.668 257.908C161.785 257.908 161.903 257.981 162.02 258.128C162.137 258.245 162.196 258.377 162.196 258.524ZM177.902 258.876C177.785 259.375 177.418 259.917 176.802 260.504C176.186 261.091 175.379 261.589 174.382 262C173.385 262.411 172.241 262.616 170.95 262.616C169.659 262.616 168.457 262.22 167.342 261.428C166.257 260.607 165.377 259.492 164.702 258.084C164.057 256.676 163.734 255.077 163.734 253.288C163.734 251.499 164.115 249.885 164.878 248.448C165.67 247.011 166.726 245.881 168.046 245.06C169.366 244.209 170.847 243.784 172.49 243.784C174.25 243.784 175.629 244.151 176.626 244.884C177.653 245.617 178.166 246.615 178.166 247.876C178.166 249.137 177.843 249.929 177.198 250.252C176.582 250.545 175.775 250.692 174.778 250.692H167.562C167.151 250.692 166.858 250.795 166.682 251C166.535 251.176 166.462 251.616 166.462 252.32C166.462 253.669 166.755 254.931 167.342 256.104C167.929 257.277 168.706 258.216 169.674 258.92C170.671 259.624 171.786 259.976 173.018 259.976C174.807 259.976 176.215 259.331 177.242 258.04C177.447 257.835 177.609 257.732 177.726 257.732C177.931 257.732 178.034 257.879 178.034 258.172C178.034 258.377 177.99 258.612 177.902 258.876ZM167.298 248.668C167.298 249.108 167.577 249.328 168.134 249.328H171.742C172.417 249.328 173.018 249.313 173.546 249.284C174.103 249.225 174.573 249.167 174.954 249.108C175.247 249.079 175.394 248.653 175.394 247.832C175.394 247.04 175.027 246.395 174.294 245.896C173.561 245.397 172.681 245.148 171.654 245.148C170.95 245.148 170.261 245.353 169.586 245.764C168.941 246.145 168.398 246.615 167.958 247.172C167.518 247.7 167.298 248.199 167.298 248.668Z" fill="#F8F9FA"/>
<rect x="1" y="1" width="192.947" height="173" rx="35" fill="#2ECC71" stroke="black" stroke-width="2"/>
<path fill-rule="evenodd" clip-rule="evenodd" d="M155.65 102.857V121.286H175V133.571H155.65V152H142.75V133.571H123.4V121.286H142.75V102.857H155.65ZM102.438 78.2857C120.672 78.2857 135.54 92.4037 136.272 110.09L136.3 111.457V115.143H116.95V133.571H46V111.457C46 93.595 60.4121 79.0303 78.4666 78.3134L79.8625 78.2857H102.438ZM91.1499 23C103.618 23 113.725 32.626 113.725 44.5001C113.725 55.9782 104.28 65.3558 92.3886 65.9682L91.1499 65.9999C78.6821 65.9999 68.5751 56.3739 68.5751 44.5001C68.5751 33.0217 78.0197 23.6441 89.9115 23.0317L91.1499 23Z" fill="#0D1B2A"/>
</svg>
