<svg width="195" height="219" viewBox="0 0 195 219" fill="none" xmlns="http://www.w3.org/2000/svg">
<rect x="1" y="1" width="192.947" height="173" rx="35" fill="#2ECC71" stroke="black" stroke-width="2"/>
<path d="M96.5 23L40 46.4545V81.6364C40 114.18 64.1067 144.612 96.5 152C128.893 144.612 153 114.18 153 81.6364V46.4545L96.5 23ZM96.5 45.8682C100.225 45.8682 103.866 46.8999 106.963 48.8328C110.06 50.7657 112.474 53.513 113.9 56.7273C115.325 59.9417 115.698 63.4786 114.971 66.8909C114.245 70.3032 112.451 73.4376 109.817 75.8977C107.183 78.3579 103.828 80.0332 100.174 80.712C96.5209 81.3907 92.7341 81.0424 89.2928 79.711C85.8515 78.3796 82.9101 76.1249 80.8407 73.2321C78.7712 70.3393 77.6667 66.9382 77.6667 63.4591C77.6667 58.7937 79.6509 54.3194 83.1828 51.0204C86.7148 47.7215 91.5051 45.8682 96.5 45.8682ZM96.5 92.1909C109.056 92.1909 134.167 98.5823 134.167 110.251C130.044 116.057 124.446 120.819 117.874 124.114C111.302 127.408 103.959 129.132 96.5 129.132C89.0411 129.132 81.6981 127.408 75.1259 124.114C68.5536 120.819 62.9564 116.057 58.8333 110.251C58.8333 98.5823 83.9444 92.1909 96.5 92.1909Z" fill="#0D1B2A"/>
<path d="M43.1041 217.956L37.8241 218.22C36.9734 218.22 36.5481 218.029 36.5481 217.648C36.5481 217.267 37.0321 216.929 38.0001 216.636C39.7601 216.108 41.0214 214.979 41.7841 213.248C44.5708 206.824 47.3134 199.931 50.0121 192.568C50.3934 191.629 50.5841 190.955 50.5841 190.544C50.5841 190.192 50.5988 190.016 50.6281 190.016C51.6548 189.664 52.2708 189.371 52.4761 189.136C52.5641 189.019 52.6374 188.931 52.6961 188.872C52.7548 188.784 52.7988 188.711 52.8281 188.652C52.9748 188.388 53.0774 188.256 53.1361 188.256C53.2828 188.256 53.4294 188.461 53.5761 188.872C54.6614 192.275 55.8494 195.941 57.1401 199.872C58.4601 203.773 59.8828 207.939 61.4081 212.368C61.9654 213.981 62.5814 215.081 63.2561 215.668C63.9601 216.225 64.8108 216.592 65.8081 216.768C66.8054 216.944 67.3041 217.281 67.3041 217.78C67.3041 218.073 66.8788 218.22 66.0281 218.22L59.9121 217.956L55.2921 218C54.4414 218 54.0161 217.824 54.0161 217.472C54.0161 217.032 54.5001 216.753 55.4681 216.636C57.2574 216.343 58.1521 215.683 58.1521 214.656C58.1521 213.835 57.5948 211.532 56.4801 207.748C56.3921 207.425 55.9961 207.264 55.2921 207.264H46.8881C46.5654 207.264 46.3161 207.528 46.1401 208.056C44.9668 211.4 44.3801 213.424 44.3801 214.128C44.3801 214.773 44.6148 215.316 45.0841 215.756C45.5828 216.167 46.2574 216.489 47.1081 216.724C47.9588 216.959 48.3841 217.237 48.3841 217.56C48.3841 217.883 47.9588 218.044 47.1081 218.044L43.1041 217.956ZM47.2401 205.064C47.2401 205.269 47.5481 205.372 48.1641 205.372H54.9841C55.3948 205.372 55.6001 205.299 55.6001 205.152L55.5121 204.712L52.0361 194.196C51.8601 193.668 51.7428 193.404 51.6841 193.404C51.5961 193.404 51.4641 193.653 51.2881 194.152L47.3281 204.712L47.2401 205.064ZM84.3142 218.088C83.1409 218.587 82.4662 218.836 82.2902 218.836C82.0556 218.836 81.9382 218.777 81.9382 218.66L82.1582 215.756V215.492C81.6302 216.313 80.8676 217.047 79.8702 217.692C78.8729 218.308 77.7142 218.616 76.3942 218.616C74.8102 218.616 73.4022 218.191 72.1702 217.34C70.9382 216.489 69.9702 215.375 69.2662 213.996C68.5916 212.588 68.2542 211.048 68.2542 209.376C68.2542 207.704 68.6649 206.135 69.4862 204.668C70.3076 203.201 71.4662 202.028 72.9622 201.148C74.4582 200.239 76.1889 199.784 78.1542 199.784C78.5649 199.784 79.0049 199.843 79.4742 199.96C79.9729 200.048 80.4276 200.165 80.8382 200.312C81.2489 200.459 81.5129 200.605 81.6302 200.752C81.8062 200.987 81.9529 201.104 82.0702 201.104C82.1582 201.104 82.2022 200.752 82.2022 200.048V193.096C82.2022 191.981 82.0262 191.219 81.6742 190.808C81.3516 190.368 80.7796 190.06 79.9582 189.884C79.7236 189.825 79.6062 189.635 79.6062 189.312C79.6062 188.989 79.7089 188.813 79.9142 188.784C80.5009 188.637 81.0729 188.476 81.6302 188.3C82.2169 188.124 82.7889 187.919 83.3462 187.684C84.4902 187.244 85.1502 187.024 85.3262 187.024C85.4729 187.024 85.5609 187.083 85.5902 187.2C85.5902 187.259 85.5902 187.361 85.5902 187.508C85.5902 187.655 85.5756 187.845 85.5462 188.08C85.3702 189.752 85.2822 191.483 85.2822 193.272V213.16C85.2822 215.067 85.5902 216.02 86.2062 216.02C87.1156 216.02 87.7902 215.976 88.2302 215.888H88.3622C88.7142 215.888 88.8902 216.064 88.8902 216.416C88.8902 216.856 88.6849 217.076 88.2742 217.076C87.5116 217.193 86.7929 217.34 86.1182 217.516C85.4729 217.663 84.8716 217.853 84.3142 218.088ZM74.0622 215.14C75.4116 216.137 76.7169 216.636 77.9782 216.636C79.2102 216.636 80.2222 216.255 81.0142 215.492C81.8062 214.729 82.2022 213.805 82.2022 212.72V206.78C82.2022 205.871 81.9676 205.005 81.4982 204.184C81.0582 203.363 80.4276 202.688 79.6062 202.16C78.8142 201.603 77.8756 201.324 76.7902 201.324C75.7342 201.324 74.7809 201.691 73.9302 202.424C73.0796 203.128 72.4636 203.993 72.0822 205.02C71.7009 205.988 71.5102 207.235 71.5102 208.76C71.5102 210.227 71.7449 211.532 72.2142 212.676C72.7129 213.791 73.3289 214.612 74.0622 215.14ZM94.472 217.912L90.908 218.132C90.3214 218.132 90.028 217.985 90.028 217.692C90.028 217.516 90.1454 217.369 90.38 217.252C90.6147 217.105 90.864 216.988 91.128 216.9C91.392 216.812 91.5534 216.768 91.612 216.768C91.6707 216.768 91.8174 216.709 92.052 216.592C92.2867 216.475 92.4334 216.372 92.492 216.284C92.7854 215.991 92.932 215.653 92.932 215.272V205.812C92.932 204.903 92.8147 204.184 92.58 203.656C92.3454 203.128 91.8907 202.791 91.216 202.644C90.9814 202.585 90.864 202.395 90.864 202.072C90.864 201.749 90.9667 201.573 91.172 201.544C91.8467 201.397 92.5214 201.148 93.196 200.796C93.9 200.444 94.6187 200.019 95.352 199.52L96.012 199.124H96.056C96.1734 199.124 96.276 199.212 96.364 199.388L96.144 202.204C96.144 202.497 96.1734 202.673 96.232 202.732C98.3147 200.767 100.632 199.784 103.184 199.784C105.267 199.784 106.631 200.664 107.276 202.424C107.423 202.747 107.584 202.908 107.76 202.908C107.907 202.908 108.215 202.629 108.684 202.072C109.153 201.544 109.975 201.031 111.148 200.532C112.321 200.033 113.583 199.784 114.932 199.784C115.812 199.784 116.575 200.063 117.22 200.62C117.895 201.177 118.408 201.925 118.76 202.864C119.112 203.773 119.288 204.785 119.288 205.9V215.272C119.288 215.859 119.464 216.24 119.816 216.416C120.197 216.592 120.696 216.783 121.312 216.988C121.899 217.223 122.192 217.457 122.192 217.692C122.192 217.985 121.899 218.132 121.312 218.132L117.836 217.912L114.184 218.132C113.597 218.132 113.304 217.985 113.304 217.692C113.304 217.428 113.641 217.179 114.316 216.944C114.375 216.944 114.433 216.929 114.492 216.9C115.489 216.577 116.047 216.181 116.164 215.712C116.193 215.653 116.208 215.58 116.208 215.492C116.208 215.404 116.208 215.331 116.208 215.272V206.032C116.208 204.947 115.856 203.979 115.152 203.128C114.448 202.277 113.627 201.852 112.688 201.852C111.133 201.852 109.901 202.204 108.992 202.908C108.083 203.612 107.628 204.712 107.628 206.208V215.272C107.628 215.595 107.672 215.8 107.76 215.888L107.936 216.152C107.995 216.269 108.068 216.343 108.156 216.372C108.303 216.401 108.391 216.445 108.42 216.504C108.479 216.563 108.581 216.607 108.728 216.636C108.875 216.665 108.963 216.709 108.992 216.768C109.227 216.885 109.432 216.944 109.608 216.944C110.283 217.179 110.62 217.428 110.62 217.692C110.62 217.985 110.327 218.132 109.74 218.132L106.132 217.912L102.48 218.132C101.893 218.132 101.6 217.985 101.6 217.692C101.6 217.428 102.011 217.164 102.832 216.9C103.653 216.636 104.152 216.357 104.328 216.064C104.475 215.771 104.548 215.507 104.548 215.272V206.032C104.548 204.947 104.196 203.979 103.492 203.128C102.788 202.277 101.967 201.852 101.028 201.852C99.4734 201.852 98.2414 202.204 97.332 202.908C96.452 203.583 96.012 204.683 96.012 206.208V215.272C96.012 215.829 96.1734 216.211 96.496 216.416C96.848 216.592 97.0827 216.695 97.2 216.724C98.344 217.017 98.916 217.355 98.916 217.736C98.916 218 98.6227 218.132 98.036 218.132L94.472 217.912ZM130.654 193.228C130.625 193.844 130.405 194.357 129.994 194.768C129.583 195.179 129.055 195.399 128.41 195.428C127.765 195.399 127.237 195.179 126.826 194.768C126.415 194.357 126.21 193.829 126.21 193.184C126.21 192.539 126.415 192.011 126.826 191.6C127.237 191.189 127.765 190.984 128.41 190.984C129.055 190.984 129.583 191.189 129.994 191.6C130.405 192.011 130.625 192.553 130.654 193.228ZM128.718 217.912L125.154 218.132C124.567 218.132 124.274 217.985 124.274 217.692C124.274 217.428 124.685 217.164 125.506 216.9C126.357 216.636 126.841 216.357 126.958 216.064C127.105 215.771 127.178 215.507 127.178 215.272V205.724C127.178 203.905 126.489 202.835 125.11 202.512C124.875 202.453 124.758 202.263 124.758 201.94C124.758 201.617 124.861 201.441 125.066 201.412C126.474 201.06 127.97 200.371 129.554 199.344C130.023 199.051 130.287 198.904 130.346 198.904C130.551 198.904 130.654 198.977 130.654 199.124C130.39 201.793 130.258 203.773 130.258 205.064V215.272C130.258 215.859 130.434 216.24 130.786 216.416C131.167 216.592 131.666 216.783 132.282 216.988C132.869 217.223 133.162 217.457 133.162 217.692C133.162 217.985 132.869 218.132 132.282 218.132L128.718 217.912ZM139.503 217.912L135.939 218.132C135.353 218.132 135.059 217.985 135.059 217.692C135.059 217.516 135.177 217.369 135.411 217.252C135.646 217.105 135.895 216.988 136.159 216.9C136.423 216.812 136.585 216.768 136.643 216.768C136.702 216.768 136.849 216.709 137.083 216.592C137.318 216.475 137.465 216.372 137.523 216.284C137.817 215.991 137.963 215.653 137.963 215.272V205.812C137.963 203.935 137.362 202.879 136.159 202.644C135.925 202.585 135.807 202.395 135.807 202.072C135.807 201.749 135.91 201.573 136.115 201.544C137.641 201.192 139.254 200.385 140.955 199.124C140.985 199.095 141.043 199.08 141.131 199.08C141.19 199.08 141.263 199.212 141.351 199.476L141.043 202.336C141.043 202.541 141.058 202.659 141.087 202.688C141.645 202.219 142.319 201.764 143.111 201.324C143.933 200.884 144.813 200.517 145.751 200.224C146.69 199.931 147.599 199.784 148.479 199.784C149.359 199.784 150.166 200.063 150.899 200.62C151.633 201.148 152.219 201.867 152.659 202.776C153.099 203.685 153.319 204.727 153.319 205.9V215.272C153.319 215.859 153.495 216.24 153.847 216.416C154.229 216.592 154.727 216.783 155.343 216.988C155.93 217.223 156.223 217.457 156.223 217.692C156.223 217.985 155.93 218.132 155.343 218.132L151.823 217.912L148.215 218.132C147.629 218.132 147.335 217.985 147.335 217.692C147.335 217.428 147.673 217.179 148.347 216.944C148.406 216.944 148.465 216.929 148.523 216.9C149.521 216.577 150.078 216.181 150.195 215.712C150.225 215.653 150.239 215.58 150.239 215.492C150.239 215.404 150.239 215.331 150.239 215.272V206.032C150.239 204.771 149.873 203.773 149.139 203.04C148.406 202.307 147.335 201.94 145.927 201.94C144.49 201.94 143.317 202.248 142.407 202.864C141.498 203.48 141.043 204.595 141.043 206.208V215.272C141.043 215.859 141.219 216.24 141.571 216.416C141.953 216.592 142.451 216.783 143.067 216.988C143.654 217.223 143.947 217.457 143.947 217.692C143.947 217.985 143.654 218.132 143.067 218.132L139.503 217.912Z" fill="#F8F9FA"/>
</svg>
