<svg width="195" height="232" viewBox="0 0 195 232" fill="none" xmlns="http://www.w3.org/2000/svg">
<path d="M40.9139 218.384C40.6206 219.088 40.3859 219.44 40.2099 219.44C40.0339 219.44 39.8139 219.059 39.5499 218.296C38.7286 215.832 37.6579 212.928 36.3379 209.584C35.0472 206.24 33.4926 202.471 31.6739 198.276C31.5566 197.953 31.4392 197.792 31.3219 197.792C31.2046 197.792 31.1312 197.953 31.1019 198.276C30.6326 201.737 30.2806 204.832 30.0459 207.56C29.8112 210.259 29.6939 212.576 29.6939 214.512C29.6939 215.216 29.9286 215.92 30.3979 216.624C30.8672 217.328 31.5859 217.768 32.5539 217.944C33.5219 218.12 34.0059 218.369 34.0059 218.692C34.0059 219.044 33.5806 219.22 32.7299 219.22L28.5939 219L24.5899 219.22C23.7392 219.22 23.3139 219.044 23.3139 218.692C23.3139 218.369 23.7979 218.12 24.7659 217.944C26.2912 217.68 27.2006 216.536 27.4939 214.512C28.0806 209.995 28.5206 206.137 28.8139 202.94C29.1366 199.743 29.2979 197.205 29.2979 195.328L29.2539 194.316C29.2539 193.905 29.1072 193.524 28.8139 193.172C28.5206 192.791 28.2566 192.527 28.0219 192.38C27.8166 192.233 27.5526 192.116 27.2299 192.028C26.9072 191.911 26.6432 191.823 26.4379 191.764C26.3206 191.735 26.1886 191.705 26.0419 191.676C25.9246 191.617 25.7779 191.573 25.6019 191.544C25.2499 191.485 24.9419 191.412 24.6779 191.324C24.4432 191.236 24.3259 191.016 24.3259 190.664C24.3259 190.341 24.6632 190.18 25.3379 190.18L32.6419 190.532C33.0232 190.532 33.4192 191.397 33.8299 193.128C33.9179 193.509 33.9912 193.832 34.0499 194.096C34.1379 194.331 34.1966 194.507 34.2259 194.624L41.1779 212.268C41.3539 212.708 41.5299 212.928 41.7059 212.928C41.8526 212.928 42.0139 212.752 42.1899 212.4L50.8579 194.36C50.9459 194.155 51.0192 193.92 51.0779 193.656C51.1659 193.392 51.2392 193.099 51.2979 192.776C51.5619 191.251 51.8259 190.488 52.0899 190.488H53.6739C54.0259 190.488 54.4366 190.473 54.9059 190.444C55.3752 190.415 55.9032 190.371 56.4899 190.312C57.0766 190.253 57.5312 190.209 57.8539 190.18C58.2059 190.151 58.4406 190.136 58.5579 190.136H58.6899C59.3059 190.136 59.6139 190.283 59.6139 190.576C59.6139 190.84 59.4232 191.075 59.0419 191.28C58.6899 191.485 58.2792 191.661 57.8099 191.808C57.3699 191.925 57.0326 192.028 56.7979 192.116C56.4166 192.233 55.9912 192.468 55.5219 192.82C55.0526 193.172 54.8179 193.568 54.8179 194.008C54.8179 195.973 54.8472 197.997 54.9059 200.08C54.9939 202.163 55.1112 204.289 55.2579 206.46C55.5512 210.801 55.7272 213.515 55.7859 214.6C55.8446 215.656 56.1232 216.433 56.6219 216.932C57.1499 217.401 57.9419 217.724 58.9979 217.9C60.0246 218.135 60.5379 218.399 60.5379 218.692C60.5379 219.044 60.1126 219.22 59.2619 219.22L54.1139 219L49.4939 219.22C48.6432 219.22 48.2179 219.059 48.2179 218.736C48.2179 218.325 48.6726 218.061 49.5819 217.944C50.4912 217.827 51.1072 217.533 51.4299 217.064C51.7526 216.595 51.9139 215.832 51.9139 214.776C51.9139 211.901 51.7379 206.504 51.3859 198.584C51.3859 198.115 51.3126 197.88 51.1659 197.88C51.0486 197.88 50.8872 198.115 50.6819 198.584L40.9139 218.384ZM72.082 217.9C71.6714 218.281 71.0554 218.663 70.234 219.044C69.442 219.425 68.562 219.616 67.594 219.616C66.9487 219.616 66.318 219.44 65.702 219.088C65.1154 218.765 64.6314 218.34 64.25 217.812C63.8687 217.255 63.678 216.697 63.678 216.14C63.678 214.38 64.7487 213.06 66.89 212.18L71.378 210.332C71.9354 210.097 72.2727 209.892 72.39 209.716C72.5074 209.54 72.5807 209.159 72.61 208.572L72.698 205.844V205.756C72.698 204.993 72.4487 204.333 71.95 203.776C71.4807 203.219 70.938 202.94 70.322 202.94C69.6767 202.94 69.0754 203.101 68.518 203.424C67.9607 203.717 67.6087 203.996 67.462 204.26C67.3154 204.553 67.242 204.861 67.242 205.184L67.286 205.8C67.286 205.976 67.0807 206.181 66.67 206.416C66.2594 206.651 65.8194 206.871 65.35 207.076C64.8807 207.252 64.5434 207.34 64.338 207.34C64.0447 207.34 63.898 207.208 63.898 206.944C63.898 206.269 64.1327 205.624 64.602 205.008C65.0714 204.392 65.6727 203.805 66.406 203.248C67.1687 202.691 67.9607 202.192 68.782 201.752C69.9847 201.107 71.1287 200.784 72.214 200.784C73.2407 200.784 74.106 201.165 74.81 201.928C75.514 202.691 75.8514 203.615 75.822 204.7L75.602 214.204V214.468C75.602 216.551 76.13 217.592 77.186 217.592C77.89 217.592 78.4767 217.387 78.946 216.976C79.0047 216.917 79.078 216.888 79.166 216.888C79.2834 216.888 79.386 216.932 79.474 217.02C79.5914 217.108 79.65 217.225 79.65 217.372V217.416C79.5327 217.651 79.2834 217.944 78.902 218.296C78.5207 218.648 78.0807 218.956 77.582 219.22C77.0834 219.484 76.5994 219.616 76.13 219.616C75.3967 219.616 74.7807 219.425 74.282 219.044C73.8127 218.663 73.4754 218.281 73.27 217.9C73.0647 217.519 72.9327 217.328 72.874 217.328C72.7274 217.328 72.4634 217.519 72.082 217.9ZM67.198 215.172C67.198 215.935 67.4327 216.536 67.902 216.976C68.3714 217.387 68.9434 217.592 69.618 217.592C70.2927 217.592 70.938 217.328 71.554 216.8C72.17 216.272 72.4927 215.553 72.522 214.644L72.61 212.488V212.268C72.61 211.799 72.478 211.564 72.214 211.564C72.038 211.564 71.8327 211.608 71.598 211.696C68.6647 212.693 67.198 213.852 67.198 215.172ZM85.2123 218.912L81.6483 219.132C81.0616 219.132 80.7683 218.985 80.7683 218.692C80.7683 218.516 80.8856 218.369 81.1203 218.252C81.3549 218.105 81.6043 217.988 81.8683 217.9C82.1323 217.812 82.2936 217.768 82.3523 217.768C82.4109 217.768 82.5576 217.709 82.7923 217.592C83.0269 217.475 83.1736 217.372 83.2323 217.284C83.5256 216.991 83.6723 216.653 83.6723 216.272V206.812C83.6723 204.935 83.0709 203.879 81.8683 203.644C81.6336 203.585 81.5163 203.395 81.5163 203.072C81.5163 202.749 81.6189 202.573 81.8243 202.544C83.3496 202.192 84.9629 201.385 86.6643 200.124C86.6936 200.095 86.7523 200.08 86.8403 200.08C86.8989 200.08 86.9723 200.212 87.0603 200.476L86.7523 203.336C86.7523 203.541 86.7669 203.659 86.7963 203.688C87.3536 203.219 88.0283 202.764 88.8203 202.324C89.6416 201.884 90.5216 201.517 91.4603 201.224C92.3989 200.931 93.3083 200.784 94.1883 200.784C95.0683 200.784 95.8749 201.063 96.6083 201.62C97.3416 202.148 97.9283 202.867 98.3683 203.776C98.8083 204.685 99.0283 205.727 99.0283 206.9V216.272C99.0283 216.859 99.2043 217.24 99.5563 217.416C99.9376 217.592 100.436 217.783 101.052 217.988C101.639 218.223 101.932 218.457 101.932 218.692C101.932 218.985 101.639 219.132 101.052 219.132L97.5323 218.912L93.9243 219.132C93.3376 219.132 93.0443 218.985 93.0443 218.692C93.0443 218.428 93.3816 218.179 94.0563 217.944C94.1149 217.944 94.1736 217.929 94.2323 217.9C95.2296 217.577 95.7869 217.181 95.9043 216.712C95.9336 216.653 95.9483 216.58 95.9483 216.492C95.9483 216.404 95.9483 216.331 95.9483 216.272V207.032C95.9483 205.771 95.5816 204.773 94.8483 204.04C94.1149 203.307 93.0443 202.94 91.6363 202.94C90.1989 202.94 89.0256 203.248 88.1163 203.864C87.2069 204.48 86.7523 205.595 86.7523 207.208V216.272C86.7523 216.859 86.9283 217.24 87.2803 217.416C87.6616 217.592 88.1603 217.783 88.7763 217.988C89.3629 218.223 89.6563 218.457 89.6563 218.692C89.6563 218.985 89.3629 219.132 88.7763 219.132L85.2123 218.912ZM112.859 217.9C112.449 218.281 111.833 218.663 111.011 219.044C110.219 219.425 109.339 219.616 108.371 219.616C107.726 219.616 107.095 219.44 106.479 219.088C105.893 218.765 105.409 218.34 105.027 217.812C104.646 217.255 104.455 216.697 104.455 216.14C104.455 214.38 105.526 213.06 107.667 212.18L112.155 210.332C112.713 210.097 113.05 209.892 113.167 209.716C113.285 209.54 113.358 209.159 113.387 208.572L113.475 205.844V205.756C113.475 204.993 113.226 204.333 112.727 203.776C112.258 203.219 111.715 202.94 111.099 202.94C110.454 202.94 109.853 203.101 109.295 203.424C108.738 203.717 108.386 203.996 108.239 204.26C108.093 204.553 108.019 204.861 108.019 205.184L108.063 205.8C108.063 205.976 107.858 206.181 107.447 206.416C107.037 206.651 106.597 206.871 106.127 207.076C105.658 207.252 105.321 207.34 105.115 207.34C104.822 207.34 104.675 207.208 104.675 206.944C104.675 206.269 104.91 205.624 105.379 205.008C105.849 204.392 106.45 203.805 107.183 203.248C107.946 202.691 108.738 202.192 109.559 201.752C110.762 201.107 111.906 200.784 112.991 200.784C114.018 200.784 114.883 201.165 115.587 201.928C116.291 202.691 116.629 203.615 116.599 204.7L116.379 214.204V214.468C116.379 216.551 116.907 217.592 117.963 217.592C118.667 217.592 119.254 217.387 119.723 216.976C119.782 216.917 119.855 216.888 119.943 216.888C120.061 216.888 120.163 216.932 120.251 217.02C120.369 217.108 120.427 217.225 120.427 217.372V217.416C120.31 217.651 120.061 217.944 119.679 218.296C119.298 218.648 118.858 218.956 118.359 219.22C117.861 219.484 117.377 219.616 116.907 219.616C116.174 219.616 115.558 219.425 115.059 219.044C114.59 218.663 114.253 218.281 114.047 217.9C113.842 217.519 113.71 217.328 113.651 217.328C113.505 217.328 113.241 217.519 112.859 217.9ZM107.975 215.172C107.975 215.935 108.21 216.536 108.679 216.976C109.149 217.387 109.721 217.592 110.395 217.592C111.07 217.592 111.715 217.328 112.331 216.8C112.947 216.272 113.27 215.553 113.299 214.644L113.387 212.488V212.268C113.387 211.799 113.255 211.564 112.991 211.564C112.815 211.564 112.61 211.608 112.375 211.696C109.442 212.693 107.975 213.852 107.975 215.172ZM138.882 222.388C138.882 223.561 138.588 224.705 138.002 225.82C137.415 226.935 136.638 227.932 135.67 228.812C134.731 229.721 133.69 230.44 132.546 230.968C131.402 231.496 130.272 231.76 129.158 231.76C127.662 231.76 126.298 231.584 125.066 231.232C123.834 230.88 122.836 230.337 122.074 229.604C121.34 228.871 120.974 227.917 120.974 226.744C120.974 225.835 121.194 225.043 121.634 224.368C122.103 223.723 122.88 223.063 123.966 222.388C124.992 221.743 125.74 221.068 126.21 220.364C125.212 220.159 124.303 219.777 123.482 219.22C122.66 218.692 122.25 217.973 122.25 217.064C122.25 216.507 122.587 215.964 123.262 215.436C123.467 215.26 123.746 215.084 124.098 214.908C124.89 214.439 125.476 213.94 125.858 213.412C125.476 213.324 124.919 212.943 124.186 212.268C122.748 210.919 122.03 209.291 122.03 207.384C122.03 206.093 122.396 204.949 123.13 203.952C123.863 202.955 124.831 202.163 126.034 201.576C127.236 200.989 128.512 200.696 129.862 200.696C130.243 200.696 130.639 200.74 131.05 200.828C131.49 200.916 131.959 201.033 132.458 201.18C134.364 201.767 135.846 202.06 136.902 202.06L138.31 202.016H138.838C139.072 202.016 139.263 202.06 139.41 202.148C139.556 202.236 139.63 202.471 139.63 202.852C139.63 203.38 139.498 203.644 139.234 203.644C138.178 203.644 137.562 203.673 137.386 203.732L137.034 203.864C136.916 203.923 136.814 203.967 136.726 203.996C136.608 204.26 136.55 204.935 136.55 206.02C136.55 207.487 136.227 208.851 135.582 210.112C134.936 211.373 134.056 212.4 132.942 213.192C131.827 213.955 130.566 214.336 129.158 214.336C128.248 214.336 127.456 214.16 126.782 213.808C125.491 214.835 124.846 215.553 124.846 215.964C124.846 216.903 126.254 217.504 129.07 217.768C132.942 218.12 135.186 218.443 135.802 218.736C136.242 218.912 136.696 219.117 137.166 219.352C137.664 219.616 138.075 219.968 138.398 220.408C138.72 220.877 138.882 221.537 138.882 222.388ZM125.462 207.296C125.462 208.176 125.638 209.041 125.99 209.892C126.342 210.713 126.826 211.403 127.442 211.96C128.058 212.517 128.747 212.796 129.51 212.796C130.272 212.796 130.947 212.547 131.534 212.048C132.15 211.549 132.619 210.889 132.942 210.068C133.294 209.217 133.47 208.323 133.47 207.384C133.47 206.445 133.279 205.565 132.898 204.744C132.546 203.923 132.062 203.263 131.446 202.764C130.83 202.265 130.126 202.016 129.334 202.016C128.571 202.016 127.896 202.28 127.31 202.808C126.723 203.307 126.268 203.967 125.946 204.788C125.623 205.58 125.462 206.416 125.462 207.296ZM124.098 224.896C124.098 226.392 124.596 227.609 125.594 228.548C126.62 229.516 127.999 230 129.73 230C130.903 230 131.974 229.721 132.942 229.164C133.91 228.636 134.687 227.903 135.274 226.964C135.89 226.025 136.198 224.969 136.198 223.796C136.198 223.063 135.831 222.447 135.098 221.948C134.394 221.449 133.543 221.097 132.546 220.892C131.519 220.716 130.126 220.584 128.366 220.496H127.354C127.178 220.613 126.899 220.833 126.518 221.156C126.166 221.508 125.711 221.963 125.154 222.52C124.45 223.341 124.098 224.133 124.098 224.896ZM155.099 215.876C154.981 216.375 154.615 216.917 153.999 217.504C153.383 218.091 152.576 218.589 151.579 219C150.581 219.411 149.437 219.616 148.147 219.616C146.856 219.616 145.653 219.22 144.539 218.428C143.453 217.607 142.573 216.492 141.899 215.084C141.253 213.676 140.931 212.077 140.931 210.288C140.931 208.499 141.312 206.885 142.075 205.448C142.867 204.011 143.923 202.881 145.243 202.06C146.563 201.209 148.044 200.784 149.687 200.784C151.447 200.784 152.825 201.151 153.823 201.884C154.849 202.617 155.363 203.615 155.363 204.876C155.363 206.137 155.04 206.929 154.395 207.252C153.779 207.545 152.972 207.692 151.975 207.692H144.759C144.348 207.692 144.055 207.795 143.879 208C143.732 208.176 143.659 208.616 143.659 209.32C143.659 210.669 143.952 211.931 144.539 213.104C145.125 214.277 145.903 215.216 146.871 215.92C147.868 216.624 148.983 216.976 150.215 216.976C152.004 216.976 153.412 216.331 154.439 215.04C154.644 214.835 154.805 214.732 154.923 214.732C155.128 214.732 155.231 214.879 155.231 215.172C155.231 215.377 155.187 215.612 155.099 215.876ZM144.495 205.668C144.495 206.108 144.773 206.328 145.331 206.328H148.939C149.613 206.328 150.215 206.313 150.743 206.284C151.3 206.225 151.769 206.167 152.151 206.108C152.444 206.079 152.591 205.653 152.591 204.832C152.591 204.04 152.224 203.395 151.491 202.896C150.757 202.397 149.877 202.148 148.851 202.148C148.147 202.148 147.457 202.353 146.783 202.764C146.137 203.145 145.595 203.615 145.155 204.172C144.715 204.7 144.495 205.199 144.495 205.668ZM162.389 218.912L158.825 219.132C158.239 219.132 157.945 218.985 157.945 218.692C157.945 218.428 158.209 218.208 158.737 218.032C159.265 217.856 159.617 217.739 159.793 217.68C159.969 217.592 160.16 217.431 160.365 217.196C160.541 216.961 160.629 216.653 160.629 216.272V206.812C160.629 204.964 160.028 203.908 158.825 203.644C158.591 203.585 158.473 203.395 158.473 203.072C158.473 202.749 158.576 202.573 158.781 202.544C159.867 202.339 160.688 202.045 161.245 201.664C161.744 201.341 162.155 201.077 162.477 200.872C162.829 200.667 163.079 200.505 163.225 200.388C163.548 200.212 163.709 200.109 163.709 200.08H163.841C163.929 200.08 163.988 200.183 164.017 200.388C164.017 200.769 164.017 201.151 164.017 201.532C164.017 201.913 164.003 202.295 163.973 202.676C163.944 203.409 163.944 203.776 163.973 203.776C163.973 203.776 164.047 203.703 164.193 203.556C164.604 203.028 164.868 202.735 164.985 202.676C166.364 201.415 167.713 200.784 169.033 200.784C169.649 200.784 170.148 200.916 170.529 201.18C170.94 201.444 171.145 201.796 171.145 202.236C171.145 202.676 170.955 203.16 170.573 203.688C170.221 204.216 169.884 204.48 169.561 204.48C169.239 204.48 168.769 204.348 168.153 204.084C167.537 203.82 167.083 203.688 166.789 203.688C165.939 203.688 165.205 203.967 164.589 204.524C164.003 205.081 163.709 206.035 163.709 207.384V216.052C163.739 216.815 164.531 217.445 166.085 217.944C166.76 218.179 167.097 218.428 167.097 218.692C167.097 218.985 166.804 219.132 166.217 219.132L162.389 218.912Z" fill="#F8F9FA"/>
<rect x="1" y="1" width="192.947" height="173" rx="35" fill="#2ECC71" stroke="black" stroke-width="2"/>
<path d="M65.2143 50.25C65.2143 58.8032 68.6158 67.0061 74.6705 73.0542C80.7253 79.1022 88.9373 82.5 97.5 82.5C106.063 82.5 114.275 79.1022 120.329 73.0542C126.384 67.0061 129.786 58.8032 129.786 50.25C129.786 41.6968 126.384 33.4939 120.329 27.4458C114.275 21.3978 106.063 18 97.5 18C88.9373 18 80.7253 21.3978 74.6705 27.4458C68.6158 33.4939 65.2143 41.6968 65.2143 50.25ZM89.0502 100.691L93.7417 108.502L85.3424 139.719L76.2621 102.707C75.7576 100.666 73.7902 99.3305 71.7471 99.8596C54.0908 104.269 41 120.243 41 139.265C41 143.548 44.4808 147 48.7435 147H146.256C150.544 147 154 143.523 154 139.265C154 120.243 140.909 104.269 123.253 99.8596C121.21 99.3557 119.242 100.691 118.738 102.707L109.658 139.719L101.258 108.502L105.95 100.691C107.564 97.9951 105.622 94.5938 102.494 94.5938H92.531C89.4033 94.5938 87.4612 98.0203 89.0754 100.691H89.0502Z" fill="#0D1B2A"/>
</svg>
