<svg width="211" height="260" viewBox="0 0 211 260" fill="none" xmlns="http://www.w3.org/2000/svg">
<path d="M42.1677 238.12L39.8477 238.265C39.4417 238.265 39.2387 238.168 39.2387 237.975C39.2387 237.801 39.5094 237.627 40.0507 237.453C40.6114 237.279 40.9304 237.095 41.0077 236.902C41.1044 236.709 41.1527 236.535 41.1527 236.38V221.677C41.1527 221.445 41.0947 221.184 40.9787 220.894C40.882 220.585 40.737 220.304 40.5437 220.053C40.3504 219.782 40.1087 219.618 39.8187 219.56C39.664 219.521 39.5867 219.396 39.5867 219.183C39.5867 218.97 39.6544 218.854 39.7897 218.835C40.1957 218.738 40.679 218.593 41.2397 218.4C41.8004 218.207 42.4384 217.965 43.1537 217.675L43.1827 217.646H43.2117C43.3277 217.646 43.3857 217.733 43.3857 217.907L43.2407 219.647C43.2407 219.802 43.2504 219.889 43.2697 219.908C43.521 219.657 43.9077 219.386 44.4297 219.096C44.971 218.806 45.5607 218.555 46.1987 218.342C46.8367 218.11 47.4264 217.994 47.9677 217.994C48.9344 217.994 49.7657 218.255 50.4617 218.777C51.177 219.28 51.728 219.947 52.1147 220.778C52.5207 221.609 52.7237 222.508 52.7237 223.475C52.7237 224.364 52.5497 225.225 52.2017 226.056C51.873 226.887 51.409 227.632 50.8097 228.289C50.2104 228.927 49.5144 229.439 48.7217 229.826C47.929 230.213 47.088 230.406 46.1987 230.406C45.928 230.406 45.5994 230.358 45.2127 230.261C44.826 230.184 44.4587 230.077 44.1107 229.942C43.7627 229.787 43.492 229.633 43.2987 229.478C43.2214 229.478 43.1827 229.971 43.1827 230.957V236.38C43.1827 236.67 43.289 236.873 43.5017 236.989C43.7337 237.124 43.9077 237.211 44.0237 237.25C44.0624 237.269 44.1204 237.289 44.1977 237.308C44.2944 237.327 44.391 237.347 44.4877 237.366C45.1837 237.54 45.5317 237.753 45.5317 238.004C45.5317 238.178 45.319 238.265 44.8937 238.265L42.1677 238.12ZM44.0237 228.84C44.507 229.285 45.377 229.507 46.6337 229.507C47.3684 229.507 48.0354 229.236 48.6347 228.695C49.2534 228.154 49.7077 227.525 49.9977 226.81C50.2684 226.095 50.4037 225.254 50.4037 224.287C50.4037 223.32 50.2587 222.47 49.9687 221.735C49.698 221 49.3404 220.469 48.8957 220.14C48.045 219.579 47.204 219.299 46.3727 219.299C45.5027 219.299 44.768 219.521 44.1687 219.966C43.5887 220.411 43.2697 221.155 43.2117 222.199L43.1827 224.055V224.954C43.1827 225.727 43.2214 226.481 43.2987 227.216C43.3954 227.931 43.637 228.473 44.0237 228.84ZM63.9338 227.941C63.8565 228.27 63.6148 228.627 63.2088 229.014C62.8028 229.401 62.2711 229.729 61.6138 230C60.9565 230.271 60.2025 230.406 59.3518 230.406C58.5011 230.406 57.7085 230.145 56.9738 229.623C56.2585 229.082 55.6785 228.347 55.2338 227.419C54.8085 226.491 54.5958 225.437 54.5958 224.258C54.5958 223.079 54.8471 222.015 55.3498 221.068C55.8718 220.121 56.5678 219.376 57.4378 218.835C58.3078 218.274 59.2841 217.994 60.3668 217.994C61.5268 217.994 62.4355 218.236 63.0928 218.719C63.7695 219.202 64.1078 219.86 64.1078 220.691C64.1078 221.522 63.8951 222.044 63.4698 222.257C63.0638 222.45 62.5321 222.547 61.8748 222.547H57.1188C56.8481 222.547 56.6548 222.615 56.5388 222.75C56.4421 222.866 56.3938 223.156 56.3938 223.62C56.3938 224.509 56.5871 225.341 56.9738 226.114C57.3605 226.887 57.8728 227.506 58.5108 227.97C59.1681 228.434 59.9028 228.666 60.7148 228.666C61.8941 228.666 62.8221 228.241 63.4988 227.39C63.6341 227.255 63.7405 227.187 63.8178 227.187C63.9531 227.187 64.0208 227.284 64.0208 227.477C64.0208 227.612 63.9918 227.767 63.9338 227.941ZM56.9448 221.213C56.9448 221.503 57.1285 221.648 57.4958 221.648H59.8738C60.3185 221.648 60.7148 221.638 61.0628 221.619C61.4301 221.58 61.7395 221.542 61.9908 221.503C62.1841 221.484 62.2808 221.203 62.2808 220.662C62.2808 220.14 62.0391 219.715 61.5558 219.386C61.0725 219.057 60.4925 218.893 59.8158 218.893C59.3518 218.893 58.8975 219.028 58.4528 219.299C58.0275 219.55 57.6698 219.86 57.3798 220.227C57.0898 220.575 56.9448 220.904 56.9448 221.213ZM68.739 229.942L66.39 230.087C66.0033 230.087 65.81 229.99 65.81 229.797C65.81 229.623 65.984 229.478 66.332 229.362C66.68 229.246 66.912 229.169 67.028 229.13C67.144 229.072 67.2696 228.966 67.405 228.811C67.521 228.656 67.579 228.453 67.579 228.202V221.967C67.579 220.749 67.1826 220.053 66.39 219.879C66.2353 219.84 66.158 219.715 66.158 219.502C66.158 219.289 66.2256 219.173 66.361 219.154C67.0763 219.019 67.6176 218.825 67.985 218.574C68.3136 218.361 68.5843 218.187 68.797 218.052C69.029 217.917 69.1933 217.81 69.29 217.733C69.5026 217.617 69.609 217.549 69.609 217.53H69.696C69.754 217.53 69.7926 217.598 69.812 217.733C69.812 217.984 69.812 218.236 69.812 218.487C69.812 218.738 69.8023 218.99 69.783 219.241C69.7636 219.724 69.7636 219.966 69.783 219.966C69.783 219.966 69.8313 219.918 69.928 219.821C70.1986 219.473 70.3726 219.28 70.45 219.241C71.3586 218.41 72.248 217.994 73.118 217.994C73.524 217.994 73.8526 218.081 74.104 218.255C74.3746 218.429 74.51 218.661 74.51 218.951C74.51 219.241 74.3843 219.56 74.133 219.908C73.901 220.256 73.6786 220.43 73.466 220.43C73.2533 220.43 72.944 220.343 72.538 220.169C72.132 219.995 71.8323 219.908 71.639 219.908C71.0783 219.908 70.595 220.092 70.189 220.459C69.8023 220.826 69.609 221.455 69.609 222.344V228.057C69.6283 228.56 70.1503 228.975 71.175 229.304C71.6196 229.459 71.842 229.623 71.842 229.797C71.842 229.99 71.6486 230.087 71.262 230.087L68.739 229.942ZM78.3375 229.942L75.9305 230.087C75.5438 230.087 75.3505 229.99 75.3505 229.797C75.3505 229.623 75.5728 229.459 76.0175 229.304C76.8488 229.053 77.2645 228.627 77.2645 228.028V219.85C76.9552 219.85 76.6748 219.85 76.4235 219.85C76.1915 219.831 75.9692 219.811 75.7565 219.792C75.6985 219.773 75.6115 219.705 75.4955 219.589C75.3988 219.473 75.3505 219.376 75.3505 219.299C75.3505 219.241 75.4182 219.173 75.5535 219.096C75.7082 219.057 75.9208 218.98 76.1915 218.864C76.4815 218.729 76.8392 218.555 77.2645 218.342C77.2645 216.757 77.4675 215.365 77.8735 214.166C78.2988 212.967 78.8498 212.049 79.5265 211.411C80.8412 210.154 82.2138 209.526 83.6445 209.526C85.7712 209.526 86.8345 210.106 86.8345 211.266C86.8345 211.575 86.7378 211.846 86.5445 212.078C86.3512 212.31 86.1482 212.426 85.9355 212.426C85.7228 212.426 85.5102 212.339 85.2975 212.165C85.0848 211.991 84.8818 211.788 84.6885 211.556C84.4952 211.343 84.1955 211.15 83.7895 210.976C83.3835 210.802 82.9292 210.715 82.4265 210.715C81.4792 210.715 80.7252 211.169 80.1645 212.078C79.6232 212.967 79.3525 214.35 79.3525 216.225V217.762C79.3525 218.187 79.5942 218.4 80.0775 218.4H83.4995C83.5768 218.4 83.6155 218.506 83.6155 218.719C83.6155 218.951 83.5768 219.193 83.4995 219.444C83.4222 219.676 83.3352 219.792 83.2385 219.792H80.5125C80.0292 219.792 79.7198 219.831 79.5845 219.908C79.4298 220.005 79.3525 220.13 79.3525 220.285V228.028C79.3718 228.627 79.7875 229.053 80.5995 229.304C81.0442 229.459 81.2665 229.623 81.2665 229.797C81.2665 229.99 81.0732 230.087 80.6865 230.087L78.3375 229.942ZM96.8304 223.997C96.8304 225.118 96.5694 226.172 96.0474 227.158C95.5448 228.125 94.8004 228.908 93.8144 229.507C92.8478 230.106 91.6684 230.406 90.2764 230.406C89.1938 230.406 88.2078 230.155 87.3184 229.652C86.4484 229.149 85.7621 228.463 85.2594 227.593C84.7568 226.704 84.5054 225.698 84.5054 224.577C84.5054 223.746 84.6698 222.943 84.9984 222.17C85.3271 221.377 85.7814 220.672 86.3614 220.053C86.9608 219.415 87.6374 218.912 88.3914 218.545C89.1454 218.178 89.9478 217.994 90.7984 217.994C91.9391 217.994 92.9638 218.265 93.8724 218.806C94.7811 219.328 95.4964 220.043 96.0184 220.952C96.5598 221.841 96.8304 222.856 96.8304 223.997ZM86.8834 223.91C86.8834 224.896 87.0574 225.824 87.4054 226.694C87.7728 227.545 88.2561 228.231 88.8554 228.753C89.4741 229.275 90.1508 229.536 90.8854 229.536C91.8521 229.536 92.5868 229.333 93.0894 228.927C93.6114 228.502 93.9691 227.922 94.1624 227.187C94.3558 226.433 94.4524 225.563 94.4524 224.577C94.4524 223.572 94.2688 222.644 93.9014 221.793C93.5534 220.923 93.0701 220.227 92.4514 219.705C91.8521 219.164 91.1561 218.893 90.3634 218.893C88.0434 218.893 86.8834 220.565 86.8834 223.91ZM101.619 229.942L99.2698 230.087C98.8832 230.087 98.6898 229.99 98.6898 229.797C98.6898 229.623 98.8638 229.478 99.2118 229.362C99.5598 229.246 99.7918 229.169 99.9078 229.13C100.024 229.072 100.15 228.966 100.285 228.811C100.401 228.656 100.459 228.453 100.459 228.202V221.967C100.459 220.749 100.063 220.053 99.2698 219.879C99.1152 219.84 99.0378 219.715 99.0378 219.502C99.0378 219.289 99.1055 219.173 99.2408 219.154C99.9562 219.019 100.498 218.825 100.865 218.574C101.194 218.361 101.464 218.187 101.677 218.052C101.909 217.917 102.073 217.81 102.17 217.733C102.383 217.617 102.489 217.549 102.489 217.53H102.576C102.634 217.53 102.673 217.598 102.692 217.733C102.692 217.984 102.692 218.236 102.692 218.487C102.692 218.738 102.682 218.99 102.663 219.241C102.644 219.724 102.644 219.966 102.663 219.966C102.663 219.966 102.711 219.918 102.808 219.821C103.079 219.473 103.253 219.28 103.33 219.241C104.239 218.41 105.128 217.994 105.998 217.994C106.404 217.994 106.733 218.081 106.984 218.255C107.255 218.429 107.39 218.661 107.39 218.951C107.39 219.241 107.264 219.56 107.013 219.908C106.781 220.256 106.559 220.43 106.346 220.43C106.133 220.43 105.824 220.343 105.418 220.169C105.012 219.995 104.712 219.908 104.519 219.908C103.958 219.908 103.475 220.092 103.069 220.459C102.682 220.826 102.489 221.455 102.489 222.344V228.057C102.508 228.56 103.03 228.975 104.055 229.304C104.5 229.459 104.722 229.623 104.722 229.797C104.722 229.99 104.529 230.087 104.142 230.087L101.619 229.942ZM111.159 229.942L108.81 230.087C108.424 230.087 108.23 229.99 108.23 229.797C108.23 229.681 108.308 229.584 108.462 229.507C108.617 229.41 108.781 229.333 108.955 229.275C109.129 229.217 109.236 229.188 109.274 229.188C109.313 229.188 109.41 229.149 109.564 229.072C109.719 228.995 109.816 228.927 109.854 228.869C110.048 228.676 110.144 228.453 110.144 228.202V221.967C110.144 221.368 110.067 220.894 109.912 220.546C109.758 220.198 109.458 219.976 109.013 219.879C108.859 219.84 108.781 219.715 108.781 219.502C108.781 219.289 108.849 219.173 108.984 219.154C109.429 219.057 109.874 218.893 110.318 218.661C110.782 218.429 111.256 218.149 111.739 217.82L112.174 217.559H112.203C112.281 217.559 112.348 217.617 112.406 217.733L112.261 219.589C112.261 219.782 112.281 219.898 112.319 219.937C113.692 218.642 115.219 217.994 116.901 217.994C118.274 217.994 119.173 218.574 119.598 219.734C119.695 219.947 119.801 220.053 119.917 220.053C120.014 220.053 120.217 219.869 120.526 219.502C120.836 219.154 121.377 218.816 122.15 218.487C122.924 218.158 123.755 217.994 124.644 217.994C125.224 217.994 125.727 218.178 126.152 218.545C126.597 218.912 126.935 219.405 127.167 220.024C127.399 220.623 127.515 221.29 127.515 222.025V228.202C127.515 228.589 127.631 228.84 127.863 228.956C128.115 229.072 128.443 229.198 128.849 229.333C129.236 229.488 129.429 229.642 129.429 229.797C129.429 229.99 129.236 230.087 128.849 230.087L126.558 229.942L124.151 230.087C123.765 230.087 123.571 229.99 123.571 229.797C123.571 229.623 123.794 229.459 124.238 229.304C124.277 229.304 124.316 229.294 124.354 229.275C125.012 229.062 125.379 228.801 125.456 228.492C125.476 228.453 125.485 228.405 125.485 228.347C125.485 228.289 125.485 228.241 125.485 228.202V222.112C125.485 221.397 125.253 220.759 124.789 220.198C124.325 219.637 123.784 219.357 123.165 219.357C122.141 219.357 121.329 219.589 120.729 220.053C120.13 220.517 119.83 221.242 119.83 222.228V228.202C119.83 228.415 119.859 228.55 119.917 228.608L120.033 228.782C120.072 228.859 120.12 228.908 120.178 228.927C120.275 228.946 120.333 228.975 120.352 229.014C120.391 229.053 120.459 229.082 120.555 229.101C120.652 229.12 120.71 229.149 120.729 229.188C120.884 229.265 121.019 229.304 121.135 229.304C121.58 229.459 121.802 229.623 121.802 229.797C121.802 229.99 121.609 230.087 121.222 230.087L118.844 229.942L116.437 230.087C116.051 230.087 115.857 229.99 115.857 229.797C115.857 229.623 116.128 229.449 116.669 229.275C117.211 229.101 117.539 228.917 117.655 228.724C117.752 228.531 117.8 228.357 117.8 228.202V222.112C117.8 221.397 117.568 220.759 117.104 220.198C116.64 219.637 116.099 219.357 115.48 219.357C114.456 219.357 113.644 219.589 113.044 220.053C112.464 220.498 112.174 221.223 112.174 222.228V228.202C112.174 228.569 112.281 228.821 112.493 228.956C112.725 229.072 112.88 229.14 112.957 229.159C113.711 229.352 114.088 229.575 114.088 229.826C114.088 230 113.895 230.087 113.508 230.087L111.159 229.942ZM136.66 229.275C136.389 229.526 135.983 229.778 135.442 230.029C134.92 230.28 134.34 230.406 133.702 230.406C133.276 230.406 132.861 230.29 132.455 230.058C132.068 229.845 131.749 229.565 131.498 229.217C131.246 228.85 131.121 228.482 131.121 228.115C131.121 226.955 131.826 226.085 133.238 225.505L136.196 224.287C136.563 224.132 136.785 223.997 136.863 223.881C136.94 223.765 136.988 223.514 137.008 223.127L137.066 221.329V221.271C137.066 220.768 136.901 220.333 136.573 219.966C136.263 219.599 135.906 219.415 135.5 219.415C135.074 219.415 134.678 219.521 134.311 219.734C133.943 219.927 133.711 220.111 133.615 220.285C133.518 220.478 133.47 220.681 133.47 220.894L133.499 221.3C133.499 221.416 133.363 221.551 133.093 221.706C132.822 221.861 132.532 222.006 132.223 222.141C131.913 222.257 131.691 222.315 131.556 222.315C131.362 222.315 131.266 222.228 131.266 222.054C131.266 221.609 131.42 221.184 131.73 220.778C132.039 220.372 132.435 219.985 132.919 219.618C133.421 219.251 133.943 218.922 134.485 218.632C135.277 218.207 136.031 217.994 136.747 217.994C137.423 217.994 137.994 218.245 138.458 218.748C138.922 219.251 139.144 219.86 139.125 220.575L138.98 226.839V227.013C138.98 228.386 139.328 229.072 140.024 229.072C140.488 229.072 140.874 228.937 141.184 228.666C141.222 228.627 141.271 228.608 141.329 228.608C141.406 228.608 141.474 228.637 141.532 228.695C141.609 228.753 141.648 228.83 141.648 228.927V228.956C141.57 229.111 141.406 229.304 141.155 229.536C140.903 229.768 140.613 229.971 140.285 230.145C139.956 230.319 139.637 230.406 139.328 230.406C138.844 230.406 138.438 230.28 138.11 230.029C137.8 229.778 137.578 229.526 137.443 229.275C137.307 229.024 137.22 228.898 137.182 228.898C137.085 228.898 136.911 229.024 136.66 229.275ZM133.441 227.477C133.441 227.98 133.595 228.376 133.905 228.666C134.214 228.937 134.591 229.072 135.036 229.072C135.48 229.072 135.906 228.898 136.312 228.55C136.718 228.202 136.93 227.728 136.95 227.129L137.008 225.708V225.563C137.008 225.254 136.921 225.099 136.747 225.099C136.631 225.099 136.495 225.128 136.341 225.186C134.407 225.843 133.441 226.607 133.441 227.477ZM145.314 229.942L142.965 230.087C142.578 230.087 142.385 229.99 142.385 229.797C142.385 229.681 142.462 229.584 142.617 229.507C142.771 229.41 142.936 229.333 143.11 229.275C143.284 229.217 143.39 229.188 143.429 229.188C143.467 229.188 143.564 229.149 143.719 229.072C143.873 228.995 143.97 228.927 144.009 228.869C144.202 228.676 144.299 228.453 144.299 228.202V221.967C144.299 220.73 143.902 220.034 143.11 219.879C142.955 219.84 142.878 219.715 142.878 219.502C142.878 219.289 142.945 219.173 143.081 219.154C144.086 218.922 145.149 218.39 146.271 217.559C146.29 217.54 146.329 217.53 146.387 217.53C146.425 217.53 146.474 217.617 146.532 217.791L146.329 219.676C146.329 219.811 146.338 219.889 146.358 219.908C146.725 219.599 147.17 219.299 147.692 219.009C148.233 218.719 148.813 218.477 149.432 218.284C150.05 218.091 150.65 217.994 151.23 217.994C151.81 217.994 152.341 218.178 152.825 218.545C153.308 218.893 153.695 219.367 153.985 219.966C154.275 220.565 154.42 221.252 154.42 222.025V228.202C154.42 228.589 154.536 228.84 154.768 228.956C155.019 229.072 155.348 229.198 155.754 229.333C156.14 229.488 156.334 229.642 156.334 229.797C156.334 229.99 156.14 230.087 155.754 230.087L153.434 229.942L151.056 230.087C150.669 230.087 150.476 229.99 150.476 229.797C150.476 229.623 150.698 229.459 151.143 229.304C151.181 229.304 151.22 229.294 151.259 229.275C151.916 229.062 152.283 228.801 152.361 228.492C152.38 228.453 152.39 228.405 152.39 228.347C152.39 228.289 152.39 228.241 152.39 228.202V222.112C152.39 221.281 152.148 220.623 151.665 220.14C151.181 219.657 150.476 219.415 149.548 219.415C148.6 219.415 147.827 219.618 147.228 220.024C146.628 220.43 146.329 221.165 146.329 222.228V228.202C146.329 228.589 146.445 228.84 146.677 228.956C146.928 229.072 147.257 229.198 147.663 229.333C148.049 229.488 148.243 229.642 148.243 229.797C148.243 229.99 148.049 230.087 147.663 230.087L145.314 229.942ZM167.77 227.709C167.77 228.096 167.538 228.502 167.074 228.927C166.61 229.333 165.991 229.681 165.218 229.971C164.464 230.261 163.652 230.406 162.782 230.406C161.912 230.406 161.109 230.155 160.375 229.652C159.659 229.13 159.079 228.434 158.635 227.564C158.209 226.675 157.997 225.669 157.997 224.548C157.997 223.427 158.267 222.373 158.809 221.387C159.35 220.382 160.075 219.57 160.984 218.951C161.892 218.332 162.898 218.023 164 218.023C165.643 218.023 166.842 218.487 167.596 219.415C167.692 219.57 167.741 219.715 167.741 219.85C167.741 220.024 167.596 220.217 167.306 220.43C167.035 220.643 166.784 220.749 166.552 220.749C166.32 220.749 166.107 220.652 165.914 220.459C165.566 220.072 165.276 219.782 165.044 219.589C164.812 219.396 164.56 219.27 164.29 219.212C164.019 219.135 163.652 219.096 163.188 219.096C162.182 219.096 161.399 219.531 160.839 220.401C160.278 221.252 159.998 222.334 159.998 223.649C159.998 224.519 160.191 225.36 160.578 226.172C160.984 226.965 161.535 227.622 162.231 228.144C162.927 228.647 163.719 228.898 164.609 228.898C165.189 228.898 165.653 228.792 166.001 228.579C166.368 228.347 166.755 227.97 167.161 227.448C167.257 227.351 167.344 227.303 167.422 227.303C167.499 227.303 167.576 227.351 167.654 227.448C167.731 227.525 167.77 227.612 167.77 227.709ZM178.121 227.941C178.044 228.27 177.802 228.627 177.396 229.014C176.99 229.401 176.459 229.729 175.801 230C175.144 230.271 174.39 230.406 173.539 230.406C172.689 230.406 171.896 230.145 171.161 229.623C170.446 229.082 169.866 228.347 169.421 227.419C168.996 226.491 168.783 225.437 168.783 224.258C168.783 223.079 169.035 222.015 169.537 221.068C170.059 220.121 170.755 219.376 171.625 218.835C172.495 218.274 173.472 217.994 174.554 217.994C175.714 217.994 176.623 218.236 177.28 218.719C177.957 219.202 178.295 219.86 178.295 220.691C178.295 221.522 178.083 222.044 177.657 222.257C177.251 222.45 176.72 222.547 176.062 222.547H171.306C171.036 222.547 170.842 222.615 170.726 222.75C170.63 222.866 170.581 223.156 170.581 223.62C170.581 224.509 170.775 225.341 171.161 226.114C171.548 226.887 172.06 227.506 172.698 227.97C173.356 228.434 174.09 228.666 174.902 228.666C176.082 228.666 177.01 228.241 177.686 227.39C177.822 227.255 177.928 227.187 178.005 227.187C178.141 227.187 178.208 227.284 178.208 227.477C178.208 227.612 178.179 227.767 178.121 227.941ZM171.132 221.213C171.132 221.503 171.316 221.648 171.683 221.648H174.061C174.506 221.648 174.902 221.638 175.25 221.619C175.618 221.58 175.927 221.542 176.178 221.503C176.372 221.484 176.468 221.203 176.468 220.662C176.468 220.14 176.227 219.715 175.743 219.386C175.26 219.057 174.68 218.893 174.003 218.893C173.539 218.893 173.085 219.028 172.64 219.299C172.215 219.55 171.857 219.86 171.567 220.227C171.277 220.575 171.132 220.904 171.132 221.213ZM62.6354 259.058C61.862 259.387 61.4174 259.551 61.3014 259.551C61.1467 259.551 61.0694 259.512 61.0694 259.435L61.2144 257.521V257.347C60.8664 257.888 60.3637 258.372 59.7064 258.797C59.049 259.203 58.2854 259.406 57.4154 259.406C56.3714 259.406 55.4434 259.126 54.6314 258.565C53.8194 258.004 53.1814 257.27 52.7174 256.361C52.2727 255.433 52.0504 254.418 52.0504 253.316C52.0504 252.214 52.321 251.18 52.8624 250.213C53.4037 249.246 54.1674 248.473 55.1534 247.893C56.1394 247.294 57.28 246.994 58.5754 246.994C58.846 246.994 59.136 247.033 59.4454 247.11C59.774 247.168 60.0737 247.245 60.3444 247.342C60.615 247.439 60.789 247.535 60.8664 247.632C60.9824 247.787 61.079 247.864 61.1564 247.864C61.2144 247.864 61.2434 247.632 61.2434 247.168V242.586C61.2434 241.851 61.1274 241.349 60.8954 241.078C60.6827 240.788 60.3057 240.585 59.7644 240.469C59.6097 240.43 59.5324 240.305 59.5324 240.092C59.5324 239.879 59.6 239.763 59.7354 239.744C60.122 239.647 60.499 239.541 60.8664 239.425C61.253 239.309 61.63 239.174 61.9974 239.019C62.7514 238.729 63.1864 238.584 63.3024 238.584C63.399 238.584 63.457 238.623 63.4764 238.7C63.4764 238.739 63.4764 238.806 63.4764 238.903C63.4764 239 63.4667 239.125 63.4474 239.28C63.3314 240.382 63.2734 241.523 63.2734 242.702V255.81C63.2734 257.067 63.4764 257.695 63.8824 257.695C64.4817 257.695 64.9264 257.666 65.2164 257.608H65.3034C65.5354 257.608 65.6514 257.724 65.6514 257.956C65.6514 258.246 65.516 258.391 65.2454 258.391C64.7427 258.468 64.269 258.565 63.8244 258.681C63.399 258.778 63.0027 258.903 62.6354 259.058ZM55.8784 257.115C56.7677 257.772 57.628 258.101 58.4594 258.101C59.2714 258.101 59.9384 257.85 60.4604 257.347C60.9824 256.844 61.2434 256.235 61.2434 255.52V251.605C61.2434 251.006 61.0887 250.435 60.7794 249.894C60.4894 249.353 60.0737 248.908 59.5324 248.56C59.0104 248.193 58.3917 248.009 57.6764 248.009C56.9804 248.009 56.352 248.251 55.7914 248.734C55.2307 249.198 54.8247 249.768 54.5734 250.445C54.322 251.083 54.1964 251.905 54.1964 252.91C54.1964 253.877 54.351 254.737 54.6604 255.491C54.989 256.226 55.395 256.767 55.8784 257.115ZM72.2593 258.275C71.9886 258.526 71.5826 258.778 71.0413 259.029C70.5193 259.28 69.9393 259.406 69.3013 259.406C68.876 259.406 68.4603 259.29 68.0543 259.058C67.6676 258.845 67.3486 258.565 67.0973 258.217C66.846 257.85 66.7203 257.482 66.7203 257.115C66.7203 255.955 67.426 255.085 68.8373 254.505L71.7953 253.287C72.1626 253.132 72.385 252.997 72.4623 252.881C72.5396 252.765 72.588 252.514 72.6073 252.127L72.6653 250.329V250.271C72.6653 249.768 72.501 249.333 72.1723 248.966C71.863 248.599 71.5053 248.415 71.0993 248.415C70.674 248.415 70.2776 248.521 69.9103 248.734C69.543 248.927 69.311 249.111 69.2143 249.285C69.1176 249.478 69.0693 249.681 69.0693 249.894L69.0983 250.3C69.0983 250.416 68.963 250.551 68.6923 250.706C68.4216 250.861 68.1316 251.006 67.8223 251.141C67.513 251.257 67.2906 251.315 67.1553 251.315C66.962 251.315 66.8653 251.228 66.8653 251.054C66.8653 250.609 67.02 250.184 67.3293 249.778C67.6386 249.372 68.035 248.985 68.5183 248.618C69.021 248.251 69.543 247.922 70.0843 247.632C70.877 247.207 71.631 246.994 72.3463 246.994C73.023 246.994 73.5933 247.245 74.0573 247.748C74.5213 248.251 74.7436 248.86 74.7243 249.575L74.5793 255.839V256.013C74.5793 257.386 74.9273 258.072 75.6233 258.072C76.0873 258.072 76.474 257.937 76.7833 257.666C76.822 257.627 76.8703 257.608 76.9283 257.608C77.0056 257.608 77.0733 257.637 77.1313 257.695C77.2086 257.753 77.2473 257.83 77.2473 257.927V257.956C77.17 258.111 77.0056 258.304 76.7543 258.536C76.503 258.768 76.213 258.971 75.8843 259.145C75.5556 259.319 75.2366 259.406 74.9273 259.406C74.444 259.406 74.038 259.28 73.7093 259.029C73.4 258.778 73.1776 258.526 73.0423 258.275C72.907 258.024 72.82 257.898 72.7813 257.898C72.6846 257.898 72.5106 258.024 72.2593 258.275ZM69.0403 256.477C69.0403 256.98 69.195 257.376 69.5043 257.666C69.8136 257.937 70.1906 258.072 70.6353 258.072C71.08 258.072 71.5053 257.898 71.9113 257.55C72.3173 257.202 72.53 256.728 72.5493 256.129L72.6073 254.708V254.563C72.6073 254.254 72.5203 254.099 72.3463 254.099C72.2303 254.099 72.095 254.128 71.9403 254.186C70.007 254.843 69.0403 255.607 69.0403 256.477ZM85.7853 255.926C85.7853 258.246 84.3933 259.406 81.6093 259.406C80.894 259.406 80.227 259.28 79.6083 259.029C78.9896 258.797 78.632 258.575 78.5353 258.362C78.3033 257.879 78.1776 257.289 78.1583 256.593C78.1583 256.419 78.313 256.332 78.6223 256.332C78.9123 256.332 79.067 256.4 79.0863 256.535C79.1636 256.864 79.3376 257.192 79.6083 257.521C79.8983 257.85 80.2366 258.12 80.6233 258.333C81.0293 258.526 81.445 258.623 81.8703 258.623C82.489 258.623 82.9626 258.439 83.2913 258.072C83.6393 257.705 83.8133 257.25 83.8133 256.709C83.8133 256.168 83.6393 255.713 83.2913 255.346C82.9433 254.959 82.3633 254.476 81.5513 253.896C80.72 253.316 80.053 252.755 79.5503 252.214C79.067 251.653 78.8253 250.977 78.8253 250.184C78.8253 249.643 78.9703 249.13 79.2603 248.647C79.5503 248.164 79.966 247.767 80.5073 247.458C81.0486 247.149 81.706 246.994 82.4793 246.994C83.6393 246.994 84.4416 247.216 84.8863 247.661C85.215 248.086 85.3793 248.84 85.3793 249.923C85.3793 250 85.3116 250.039 85.1763 250.039C85.041 250.039 84.8476 249.971 84.5963 249.836C84.345 249.681 84.2193 249.546 84.2193 249.43C84.2 249.005 84.0066 248.618 83.6393 248.27C83.272 247.922 82.837 247.748 82.3343 247.748C81.8123 247.748 81.387 247.922 81.0583 248.27C80.7296 248.618 80.5653 249.024 80.5653 249.488C80.5653 249.952 80.7296 250.377 81.0583 250.764C81.387 251.151 81.677 251.421 81.9283 251.576C82.0443 251.653 82.1893 251.76 82.3633 251.895C82.5566 252.011 82.779 252.146 83.0303 252.301C83.359 252.494 83.6296 252.668 83.8423 252.823C84.0743 252.978 84.2966 253.161 84.5093 253.374C84.722 253.567 84.954 253.848 85.2053 254.215C85.592 254.776 85.7853 255.346 85.7853 255.926ZM90.1423 258.942L87.7933 259.087C87.4067 259.087 87.2133 258.99 87.2133 258.797C87.2133 258.623 87.3873 258.478 87.7353 258.362C88.0833 258.246 88.4023 258.12 88.6923 257.985C88.9823 257.85 89.1273 257.56 89.1273 257.115V242.586C89.1273 241.349 88.6923 240.643 87.8223 240.469C87.6677 240.43 87.5903 240.305 87.5903 240.092C87.5903 239.879 87.658 239.763 87.7933 239.744C88.296 239.628 89.4173 239.241 91.1573 238.584L91.2153 238.555C91.3313 238.555 91.3893 238.671 91.3893 238.903C91.3893 239.019 91.3797 239.106 91.3603 239.164C91.283 239.589 91.225 240.102 91.1863 240.701C91.167 241.281 91.1573 241.948 91.1573 242.702V247.748C91.1573 248.251 91.2347 248.608 91.3893 248.821C93.052 247.603 94.5117 246.994 95.7683 246.994C96.7157 246.994 97.4987 247.371 98.1173 248.125C98.7553 248.879 99.0743 249.817 99.0743 250.938V257.028C99.0743 257.647 99.4707 258.072 100.263 258.304C100.708 258.459 100.93 258.623 100.93 258.797C100.93 258.99 100.737 259.087 100.35 259.087L98.0883 258.942L95.8263 259.087C95.4397 259.087 95.2463 258.99 95.2463 258.797C95.2463 258.623 95.4687 258.459 95.9133 258.304C96.6673 258.072 97.0443 257.647 97.0443 257.028V251.112C97.0443 250.648 96.909 250.223 96.6383 249.836C96.3677 249.43 96.0293 249.111 95.6233 248.879C95.2173 248.628 94.792 248.502 94.3473 248.502C93.284 248.502 92.4817 248.715 91.9403 249.14C91.631 249.391 91.4183 249.662 91.3023 249.952C91.2057 250.223 91.1573 250.648 91.1573 251.228V257.115C91.196 257.714 91.5633 258.111 92.2593 258.304C92.704 258.459 92.9263 258.623 92.9263 258.797C92.9263 258.99 92.733 259.087 92.3463 259.087L90.1423 258.942ZM115.507 252.91C115.507 254.051 115.256 255.124 114.753 256.129C114.27 257.115 113.554 257.908 112.607 258.507C111.66 259.106 110.49 259.406 109.098 259.406C108.383 259.406 107.503 259.261 106.459 258.971C105.937 258.836 105.531 258.739 105.241 258.681C104.97 258.604 104.816 258.565 104.777 258.565C104.719 258.565 104.584 258.652 104.371 258.826C104.178 259 104.042 259.087 103.965 259.087C103.888 259.087 103.801 259.058 103.704 259C103.607 258.923 103.559 258.836 103.559 258.739V258.594C103.559 258.536 103.559 258.468 103.559 258.391C103.578 258.314 103.598 258.236 103.617 258.159L103.704 257.608C103.723 257.376 103.733 257.125 103.733 256.854C103.752 256.564 103.762 256.264 103.762 255.955V242.586C103.762 241.387 103.308 240.682 102.399 240.469C102.244 240.43 102.167 240.305 102.167 240.092C102.167 239.879 102.235 239.763 102.37 239.744C103.027 239.609 103.704 239.386 104.4 239.077L105.647 238.584L105.705 238.555C105.821 238.555 105.879 238.623 105.879 238.758L105.792 241.803V247.748C105.792 248.347 105.879 248.666 106.053 248.705C106.73 248.144 107.464 247.719 108.257 247.429C109.05 247.139 109.726 246.994 110.287 246.994C111.292 246.994 112.182 247.245 112.955 247.748C113.748 248.251 114.366 248.947 114.811 249.836C115.275 250.725 115.507 251.75 115.507 252.91ZM105.792 255.172C105.792 255.829 105.976 256.409 106.343 256.912C106.71 257.415 107.194 257.811 107.793 258.101C108.412 258.372 109.079 258.507 109.794 258.507C110.509 258.507 111.128 258.285 111.65 257.84C112.191 257.376 112.607 256.767 112.897 256.013C113.187 255.259 113.332 254.418 113.332 253.49C113.332 252.562 113.168 251.702 112.839 250.909C112.53 250.097 112.066 249.44 111.447 248.937C110.848 248.434 110.123 248.183 109.272 248.183C108.808 248.183 108.286 248.27 107.706 248.444C107.126 248.618 106.691 248.869 106.401 249.198C105.995 249.623 105.792 250.445 105.792 251.663V255.172ZM129.852 252.997C129.852 254.118 129.591 255.172 129.069 256.158C128.566 257.125 127.822 257.908 126.836 258.507C125.869 259.106 124.69 259.406 123.298 259.406C122.215 259.406 121.229 259.155 120.34 258.652C119.47 258.149 118.784 257.463 118.281 256.593C117.778 255.704 117.527 254.698 117.527 253.577C117.527 252.746 117.691 251.943 118.02 251.17C118.349 250.377 118.803 249.672 119.383 249.053C119.982 248.415 120.659 247.912 121.413 247.545C122.167 247.178 122.969 246.994 123.82 246.994C124.961 246.994 125.985 247.265 126.894 247.806C127.803 248.328 128.518 249.043 129.04 249.952C129.581 250.841 129.852 251.856 129.852 252.997ZM119.905 252.91C119.905 253.896 120.079 254.824 120.427 255.694C120.794 256.545 121.278 257.231 121.877 257.753C122.496 258.275 123.172 258.536 123.907 258.536C124.874 258.536 125.608 258.333 126.111 257.927C126.633 257.502 126.991 256.922 127.184 256.187C127.377 255.433 127.474 254.563 127.474 253.577C127.474 252.572 127.29 251.644 126.923 250.793C126.575 249.923 126.092 249.227 125.473 248.705C124.874 248.164 124.178 247.893 123.385 247.893C121.065 247.893 119.905 249.565 119.905 252.91ZM137.424 258.275C137.154 258.526 136.748 258.778 136.206 259.029C135.684 259.28 135.104 259.406 134.466 259.406C134.041 259.406 133.625 259.29 133.219 259.058C132.833 258.845 132.514 258.565 132.262 258.217C132.011 257.85 131.885 257.482 131.885 257.115C131.885 255.955 132.591 255.085 134.002 254.505L136.96 253.287C137.328 253.132 137.55 252.997 137.627 252.881C137.705 252.765 137.753 252.514 137.772 252.127L137.83 250.329V250.271C137.83 249.768 137.666 249.333 137.337 248.966C137.028 248.599 136.67 248.415 136.264 248.415C135.839 248.415 135.443 248.521 135.075 248.734C134.708 248.927 134.476 249.111 134.379 249.285C134.283 249.478 134.234 249.681 134.234 249.894L134.263 250.3C134.263 250.416 134.128 250.551 133.857 250.706C133.587 250.861 133.297 251.006 132.987 251.141C132.678 251.257 132.456 251.315 132.32 251.315C132.127 251.315 132.03 251.228 132.03 251.054C132.03 250.609 132.185 250.184 132.494 249.778C132.804 249.372 133.2 248.985 133.683 248.618C134.186 248.251 134.708 247.922 135.249 247.632C136.042 247.207 136.796 246.994 137.511 246.994C138.188 246.994 138.758 247.245 139.222 247.748C139.686 248.251 139.909 248.86 139.889 249.575L139.744 255.839V256.013C139.744 257.386 140.092 258.072 140.788 258.072C141.252 258.072 141.639 257.937 141.948 257.666C141.987 257.627 142.035 257.608 142.093 257.608C142.171 257.608 142.238 257.637 142.296 257.695C142.374 257.753 142.412 257.83 142.412 257.927V257.956C142.335 258.111 142.171 258.304 141.919 258.536C141.668 258.768 141.378 258.971 141.049 259.145C140.721 259.319 140.402 259.406 140.092 259.406C139.609 259.406 139.203 259.28 138.874 259.029C138.565 258.778 138.343 258.526 138.207 258.275C138.072 258.024 137.985 257.898 137.946 257.898C137.85 257.898 137.676 258.024 137.424 258.275ZM134.205 256.477C134.205 256.98 134.36 257.376 134.669 257.666C134.979 257.937 135.356 258.072 135.8 258.072C136.245 258.072 136.67 257.898 137.076 257.55C137.482 257.202 137.695 256.728 137.714 256.129L137.772 254.708V254.563C137.772 254.254 137.685 254.099 137.511 254.099C137.395 254.099 137.26 254.128 137.105 254.186C135.172 254.843 134.205 255.607 134.205 256.477ZM146.223 258.942L143.874 259.087C143.488 259.087 143.294 258.99 143.294 258.797C143.294 258.623 143.468 258.478 143.816 258.362C144.164 258.246 144.396 258.169 144.512 258.13C144.628 258.072 144.754 257.966 144.889 257.811C145.005 257.656 145.063 257.453 145.063 257.202V250.967C145.063 249.749 144.667 249.053 143.874 248.879C143.72 248.84 143.642 248.715 143.642 248.502C143.642 248.289 143.71 248.173 143.845 248.154C144.561 248.019 145.102 247.825 145.469 247.574C145.798 247.361 146.069 247.187 146.281 247.052C146.513 246.917 146.678 246.81 146.774 246.733C146.987 246.617 147.093 246.549 147.093 246.53H147.18C147.238 246.53 147.277 246.598 147.296 246.733C147.296 246.984 147.296 247.236 147.296 247.487C147.296 247.738 147.287 247.99 147.267 248.241C147.248 248.724 147.248 248.966 147.267 248.966C147.267 248.966 147.316 248.918 147.412 248.821C147.683 248.473 147.857 248.28 147.934 248.241C148.843 247.41 149.732 246.994 150.602 246.994C151.008 246.994 151.337 247.081 151.588 247.255C151.859 247.429 151.994 247.661 151.994 247.951C151.994 248.241 151.869 248.56 151.617 248.908C151.385 249.256 151.163 249.43 150.95 249.43C150.738 249.43 150.428 249.343 150.022 249.169C149.616 248.995 149.317 248.908 149.123 248.908C148.563 248.908 148.079 249.092 147.673 249.459C147.287 249.826 147.093 250.455 147.093 251.344V257.057C147.113 257.56 147.635 257.975 148.659 258.304C149.104 258.459 149.326 258.623 149.326 258.797C149.326 258.99 149.133 259.087 148.746 259.087L146.223 258.942ZM163.739 259.058C162.966 259.387 162.521 259.551 162.405 259.551C162.25 259.551 162.173 259.512 162.173 259.435L162.318 257.521V257.347C161.97 257.888 161.467 258.372 160.81 258.797C160.153 259.203 159.389 259.406 158.519 259.406C157.475 259.406 156.547 259.126 155.735 258.565C154.923 258.004 154.285 257.27 153.821 256.361C153.376 255.433 153.154 254.418 153.154 253.316C153.154 252.214 153.425 251.18 153.966 250.213C154.507 249.246 155.271 248.473 156.257 247.893C157.243 247.294 158.384 246.994 159.679 246.994C159.95 246.994 160.24 247.033 160.549 247.11C160.878 247.168 161.177 247.245 161.448 247.342C161.719 247.439 161.893 247.535 161.97 247.632C162.086 247.787 162.183 247.864 162.26 247.864C162.318 247.864 162.347 247.632 162.347 247.168V242.586C162.347 241.851 162.231 241.349 161.999 241.078C161.786 240.788 161.409 240.585 160.868 240.469C160.713 240.43 160.636 240.305 160.636 240.092C160.636 239.879 160.704 239.763 160.839 239.744C161.226 239.647 161.603 239.541 161.97 239.425C162.357 239.309 162.734 239.174 163.101 239.019C163.855 238.729 164.29 238.584 164.406 238.584C164.503 238.584 164.561 238.623 164.58 238.7C164.58 238.739 164.58 238.806 164.58 238.903C164.58 239 164.57 239.125 164.551 239.28C164.435 240.382 164.377 241.523 164.377 242.702V255.81C164.377 257.067 164.58 257.695 164.986 257.695C165.585 257.695 166.03 257.666 166.32 257.608H166.407C166.639 257.608 166.755 257.724 166.755 257.956C166.755 258.246 166.62 258.391 166.349 258.391C165.846 258.468 165.373 258.565 164.928 258.681C164.503 258.778 164.106 258.903 163.739 259.058ZM156.982 257.115C157.871 257.772 158.732 258.101 159.563 258.101C160.375 258.101 161.042 257.85 161.564 257.347C162.086 256.844 162.347 256.235 162.347 255.52V251.605C162.347 251.006 162.192 250.435 161.883 249.894C161.593 249.353 161.177 248.908 160.636 248.56C160.114 248.193 159.495 248.009 158.78 248.009C158.084 248.009 157.456 248.251 156.895 248.734C156.334 249.198 155.928 249.768 155.677 250.445C155.426 251.083 155.3 251.905 155.3 252.91C155.3 253.877 155.455 254.737 155.764 255.491C156.093 256.226 156.499 256.767 156.982 257.115Z" fill="white"/>
<path d="M186.599 1C199.349 1.00022 209.75 11.0152 209.75 23.4287V180.571C209.75 192.985 199.349 203 186.599 203H24.1514C11.4012 203 1 192.985 1 180.571V23.4287C1 11.0152 11.4012 1.00022 24.1514 1H186.599ZM53.6875 88.7139C50.1286 88.7139 47.3037 91.4943 47.3037 94.8574V152C47.3037 155.363 50.1286 158.143 53.6875 158.143H68.4551C72.014 158.143 74.8389 155.363 74.8389 152V94.8574C74.8389 91.4943 72.014 88.7139 68.4551 88.7139H53.6875ZM97.9912 45.8574C94.4323 45.8574 91.6074 48.6369 91.6074 52V152C91.6074 155.363 94.4323 158.143 97.9912 158.143H112.759C116.318 158.143 119.143 155.363 119.143 152V52C119.143 48.6369 116.318 45.8574 112.759 45.8574H97.9912ZM142.295 117.286C138.736 117.286 135.911 120.066 135.911 123.429V152C135.911 155.363 138.736 158.143 142.295 158.143H157.062C160.621 158.143 163.446 155.363 163.446 152V123.429C163.446 120.066 160.621 117.286 157.062 117.286H142.295Z" fill="#2ECC71" stroke="black" stroke-width="2"/>
</svg>
