<svg width="242" height="232" viewBox="0 0 242 232" fill="none" xmlns="http://www.w3.org/2000/svg">
<path d="M120.633 3.5C185.184 3.50016 237.765 53.7322 237.765 116C237.765 178.268 185.184 228.5 120.633 228.5C56.081 228.5 3.5 178.268 3.5 116C3.5 53.7321 56.081 3.5 120.633 3.5Z" fill="#D9D9D9" stroke="black" stroke-width="7"/>
<path d="M194.765 168C179.728 168 167.545 179.686 167.545 194.11C167.545 208.534 179.728 220.22 194.765 220.22C209.802 220.22 221.985 208.534 221.985 194.11C221.985 179.686 209.802 168 194.765 168Z" fill="#2ECC71"/>
<path d="M196.657 182.514L204.525 190.601L187.44 208.162L180.424 208.958C179.485 209.065 178.692 208.249 178.796 207.283L179.577 200.068L196.657 182.514ZM209.392 181.31L205.698 177.513C204.545 176.329 202.676 176.329 201.524 177.513L198.048 181.085L205.916 189.172L209.392 185.6C210.544 184.415 210.544 182.495 209.392 181.31Z" fill="black"/>
<path d="M172.758 75.75V126.536C172.758 131.209 168.511 135 163.277 135H81.1152C75.8814 135 71.635 131.209 71.635 126.536V75.75C71.635 71.077 75.8814 67.2857 81.1152 67.2857H98.4957L100.925 61.4842C102.308 58.1866 105.843 56 109.793 56H134.58C138.53 56 142.065 58.1866 143.448 61.4842L145.897 67.2857H163.277C168.511 67.2857 172.758 71.077 172.758 75.75ZM145.897 101.143C145.897 89.4692 135.271 79.9821 122.196 79.9821C109.121 79.9821 98.4957 89.4692 98.4957 101.143C98.4957 112.817 109.121 122.304 122.196 122.304C135.271 122.304 145.897 112.817 145.897 101.143ZM139.577 101.143C139.577 109.695 131.775 116.661 122.196 116.661C112.617 116.661 104.816 109.695 104.816 101.143C104.816 92.5904 112.617 85.625 122.196 85.625C131.775 85.625 139.577 92.5904 139.577 101.143Z" fill="#032141"/>
<path d="M59.5826 160.21C59.0016 160.203 58.4591 160.123 57.9551 159.968C57.4511 159.807 57.0066 159.573 56.6216 159.265C56.2436 158.95 55.9461 158.561 55.7291 158.099C55.5191 157.63 55.4141 157.088 55.4141 156.472V149.143H57.0521V156.325C57.0521 157.088 57.2831 157.707 57.7451 158.183C58.2071 158.652 58.9176 158.887 59.8766 158.887C60.7306 158.887 61.4166 158.666 61.9346 158.225C62.4526 157.777 62.7116 157.102 62.7116 156.199V149.143H64.3391V160H63.0161L62.8481 157.942C62.7221 158.46 62.5016 158.887 62.1866 159.223C61.8786 159.559 61.5006 159.811 61.0526 159.979C60.6116 160.14 60.1216 160.217 59.5826 160.21ZM67.8358 163.381V149.143H69.4633L69.4948 151.127C69.5998 150.91 69.7468 150.676 69.9358 150.424C70.1318 150.172 70.3768 149.934 70.6708 149.71C70.9648 149.479 71.3113 149.293 71.7103 149.154C72.1163 149.006 72.5818 148.933 73.1068 148.933C73.9888 148.933 74.7658 149.129 75.4378 149.521C76.1098 149.913 76.6313 150.515 77.0023 151.327C77.3803 152.139 77.5693 153.168 77.5693 154.414C77.5693 155.632 77.3908 156.675 77.0338 157.543C76.6838 158.404 76.1693 159.065 75.4903 159.527C74.8113 159.983 73.9818 160.21 73.0018 160.21C72.4768 160.21 72.0183 160.137 71.6263 159.989C71.2343 159.842 70.8983 159.65 70.6183 159.412C70.3383 159.174 70.1073 158.929 69.9253 158.677C69.7433 158.418 69.5963 158.173 69.4843 157.942V163.381H67.8358ZM72.7288 158.897C73.6878 158.897 74.4648 158.537 75.0598 157.816C75.6618 157.095 75.9628 155.982 75.9628 154.477C75.9628 153.189 75.6898 152.163 75.1438 151.4C74.6048 150.63 73.7998 150.245 72.7288 150.245C71.6648 150.245 70.8528 150.634 70.2928 151.411C69.7398 152.188 69.4633 153.21 69.4633 154.477C69.4633 155.303 69.5858 156.052 69.8308 156.724C70.0828 157.389 70.4503 157.917 70.9333 158.309C71.4163 158.701 72.0148 158.897 72.7288 158.897ZM82.825 160.116C82.307 160.116 81.88 160.042 81.544 159.895C81.215 159.741 80.956 159.531 80.767 159.265C80.585 158.999 80.459 158.694 80.389 158.351C80.319 158.008 80.284 157.648 80.284 157.27V144.397H81.901V157.133C81.901 157.728 82.013 158.166 82.237 158.446C82.461 158.719 82.755 158.866 83.119 158.887L83.728 158.897V159.968C83.574 160.018 83.4165 160.053 83.2555 160.074C83.0945 160.102 82.951 160.116 82.825 160.116ZM90.2582 160.21C89.2712 160.21 88.4102 160 87.6752 159.58C86.9402 159.153 86.3697 158.523 85.9637 157.69C85.5577 156.857 85.3547 155.831 85.3547 154.613C85.3547 153.479 85.5402 152.485 85.9112 151.631C86.2822 150.777 86.8317 150.116 87.5597 149.647C88.2947 149.171 89.1942 148.933 90.2582 148.933C91.2382 148.933 92.0922 149.15 92.8202 149.584C93.5482 150.011 94.1117 150.648 94.5107 151.495C94.9167 152.335 95.1197 153.374 95.1197 154.613C95.1197 155.719 94.9342 156.692 94.5632 157.532C94.1992 158.372 93.6567 159.03 92.9357 159.506C92.2217 159.976 91.3292 160.21 90.2582 160.21ZM90.2582 158.887C90.9372 158.887 91.5182 158.719 92.0012 158.383C92.4842 158.047 92.8517 157.557 93.1037 156.913C93.3557 156.269 93.4817 155.488 93.4817 154.571C93.4817 153.745 93.3697 153.007 93.1457 152.356C92.9287 151.705 92.5822 151.194 92.1062 150.823C91.6302 150.445 91.0142 150.256 90.2582 150.256C89.5722 150.256 88.9842 150.424 88.4942 150.76C88.0042 151.089 87.6297 151.575 87.3707 152.219C87.1187 152.863 86.9927 153.647 86.9927 154.571C86.9927 155.397 87.1047 156.136 87.3287 156.787C87.5527 157.431 87.9062 157.942 88.3892 158.32C88.8722 158.698 89.4952 158.887 90.2582 158.887ZM100.678 160.21C99.9706 160.21 99.3476 160.088 98.8086 159.842C98.2766 159.59 97.8601 159.233 97.5591 158.771C97.2651 158.309 97.1181 157.753 97.1181 157.102C97.1181 155.898 97.5311 155.005 98.3571 154.424C99.1831 153.843 100.517 153.528 102.358 153.479L104.447 153.416V152.513C104.447 151.806 104.234 151.243 103.807 150.823C103.38 150.396 102.718 150.186 101.822 150.193C101.15 150.193 100.566 150.35 100.069 150.665C99.5786 150.973 99.2671 151.47 99.1341 152.156H97.6431C97.6851 151.477 97.8741 150.9 98.2101 150.424C98.5531 149.941 99.0361 149.573 99.6591 149.321C100.282 149.062 101.028 148.933 101.896 148.933C102.799 148.933 103.555 149.066 104.164 149.332C104.78 149.591 105.245 149.983 105.56 150.508C105.875 151.026 106.033 151.67 106.033 152.44V160H104.626L104.51 157.91C104.076 158.771 103.523 159.37 102.851 159.706C102.186 160.042 101.462 160.21 100.678 160.21ZM101.14 158.981C101.525 158.981 101.913 158.911 102.305 158.771C102.697 158.631 103.054 158.439 103.376 158.194C103.698 157.949 103.957 157.676 104.153 157.375C104.349 157.074 104.447 156.766 104.447 156.451V154.519L102.704 154.55C101.787 154.564 101.035 154.655 100.447 154.823C99.8586 154.991 99.4246 155.25 99.1446 155.6C98.8646 155.943 98.7246 156.395 98.7246 156.955C98.7246 157.592 98.9486 158.089 99.3966 158.446C99.8446 158.803 100.426 158.981 101.14 158.981ZM113.137 160.21C111.744 160.21 110.635 159.734 109.809 158.782C108.983 157.823 108.57 156.405 108.57 154.529C108.57 153.402 108.734 152.422 109.063 151.589C109.392 150.749 109.886 150.098 110.544 149.636C111.209 149.167 112.038 148.933 113.032 148.933C113.585 148.933 114.072 149.006 114.492 149.154C114.912 149.293 115.269 149.472 115.563 149.689C115.864 149.906 116.102 150.126 116.277 150.35C116.459 150.574 116.592 150.767 116.676 150.928V144.397H118.324V160H117.033L116.865 157.774C116.802 157.963 116.697 158.194 116.55 158.467C116.403 158.74 116.189 159.009 115.909 159.275C115.629 159.541 115.262 159.765 114.807 159.947C114.359 160.123 113.802 160.21 113.137 160.21ZM113.4 158.908C114.583 158.908 115.423 158.558 115.92 157.858C116.424 157.151 116.676 156.006 116.676 154.424C116.662 153.549 116.546 152.8 116.329 152.177C116.119 151.554 115.78 151.078 115.311 150.749C114.849 150.413 114.226 150.245 113.442 150.245C112.49 150.245 111.716 150.581 111.121 151.253C110.526 151.925 110.229 152.982 110.229 154.424C110.229 155.824 110.495 156.923 111.027 157.721C111.559 158.512 112.35 158.908 113.4 158.908ZM126.878 163.381V149.143H128.505L128.537 151.127C128.642 150.91 128.789 150.676 128.978 150.424C129.174 150.172 129.419 149.934 129.713 149.71C130.007 149.479 130.353 149.293 130.752 149.154C131.158 149.006 131.624 148.933 132.149 148.933C133.031 148.933 133.808 149.129 134.48 149.521C135.152 149.913 135.673 150.515 136.044 151.327C136.422 152.139 136.611 153.168 136.611 154.414C136.611 155.632 136.433 156.675 136.076 157.543C135.726 158.404 135.211 159.065 134.532 159.527C133.853 159.983 133.024 160.21 132.044 160.21C131.519 160.21 131.06 160.137 130.668 159.989C130.276 159.842 129.94 159.65 129.66 159.412C129.38 159.174 129.149 158.929 128.967 158.677C128.785 158.418 128.638 158.173 128.526 157.942V163.381H126.878ZM131.771 158.897C132.73 158.897 133.507 158.537 134.102 157.816C134.704 157.095 135.005 155.982 135.005 154.477C135.005 153.189 134.732 152.163 134.186 151.4C133.647 150.63 132.842 150.245 131.771 150.245C130.707 150.245 129.895 150.634 129.335 151.411C128.782 152.188 128.505 153.21 128.505 154.477C128.505 155.303 128.628 156.052 128.873 156.724C129.125 157.389 129.492 157.917 129.975 158.309C130.458 158.701 131.057 158.897 131.771 158.897ZM139.326 160V144.397H140.911V150.739C141.1 150.431 141.352 150.144 141.667 149.878C141.989 149.612 142.374 149.398 142.822 149.237C143.277 149.069 143.795 148.985 144.376 148.985C145.09 148.985 145.731 149.115 146.298 149.374C146.872 149.633 147.327 150 147.663 150.476C147.999 150.952 148.167 151.512 148.167 152.156V160H146.529V152.524C146.529 151.838 146.294 151.306 145.825 150.928C145.356 150.543 144.737 150.35 143.967 150.35C143.442 150.35 142.948 150.438 142.486 150.613C142.031 150.781 141.664 151.036 141.384 151.379C141.104 151.715 140.964 152.146 140.964 152.671V160H139.326ZM155.596 160.21C154.609 160.21 153.748 160 153.013 159.58C152.278 159.153 151.708 158.523 151.302 157.69C150.896 156.857 150.693 155.831 150.693 154.613C150.693 153.479 150.878 152.485 151.249 151.631C151.62 150.777 152.17 150.116 152.898 149.647C153.633 149.171 154.532 148.933 155.596 148.933C156.576 148.933 157.43 149.15 158.158 149.584C158.886 150.011 159.45 150.648 159.849 151.495C160.255 152.335 160.458 153.374 160.458 154.613C160.458 155.719 160.272 156.692 159.901 157.532C159.537 158.372 158.995 159.03 158.274 159.506C157.56 159.976 156.667 160.21 155.596 160.21ZM155.596 158.887C156.275 158.887 156.856 158.719 157.339 158.383C157.822 158.047 158.19 157.557 158.442 156.913C158.694 156.269 158.82 155.488 158.82 154.571C158.82 153.745 158.708 153.007 158.484 152.356C158.267 151.705 157.92 151.194 157.444 150.823C156.968 150.445 156.352 150.256 155.596 150.256C154.91 150.256 154.322 150.424 153.832 150.76C153.342 151.089 152.968 151.575 152.709 152.219C152.457 152.863 152.331 153.647 152.331 154.571C152.331 155.397 152.443 156.136 152.667 156.787C152.891 157.431 153.244 157.942 153.727 158.32C154.21 158.698 154.833 158.887 155.596 158.887ZM166.413 160.042C165.72 160.042 165.181 159.944 164.796 159.748C164.418 159.552 164.152 159.261 163.998 158.876C163.844 158.491 163.767 158.008 163.767 157.427V150.371H162.003V149.143H163.809L164.198 146.014H165.416V149.132H167.873V150.371H165.416V157.375C165.416 157.795 165.454 158.103 165.531 158.299C165.615 158.488 165.759 158.61 165.962 158.666C166.172 158.715 166.462 158.74 166.833 158.74H167.946V159.874C167.813 159.923 167.614 159.965 167.348 160C167.089 160.028 166.777 160.042 166.413 160.042ZM174.627 160.21C173.64 160.21 172.779 160 172.044 159.58C171.309 159.153 170.739 158.523 170.333 157.69C169.927 156.857 169.724 155.831 169.724 154.613C169.724 153.479 169.909 152.485 170.28 151.631C170.651 150.777 171.201 150.116 171.929 149.647C172.664 149.171 173.563 148.933 174.627 148.933C175.607 148.933 176.461 149.15 177.189 149.584C177.917 150.011 178.481 150.648 178.88 151.495C179.286 152.335 179.489 153.374 179.489 154.613C179.489 155.719 179.303 156.692 178.932 157.532C178.568 158.372 178.026 159.03 177.305 159.506C176.591 159.976 175.698 160.21 174.627 160.21ZM174.627 158.887C175.306 158.887 175.887 158.719 176.37 158.383C176.853 158.047 177.221 157.557 177.473 156.913C177.725 156.269 177.851 155.488 177.851 154.571C177.851 153.745 177.739 153.007 177.515 152.356C177.298 151.705 176.951 151.194 176.475 150.823C175.999 150.445 175.383 150.256 174.627 150.256C173.941 150.256 173.353 150.424 172.863 150.76C172.373 151.089 171.999 151.575 171.74 152.219C171.488 152.863 171.362 153.647 171.362 154.571C171.362 155.397 171.474 156.136 171.698 156.787C171.922 157.431 172.275 157.942 172.758 158.32C173.241 158.698 173.864 158.887 174.627 158.887Z" fill="black"/>
</svg>
