<svg width="197" height="264" viewBox="0 0 197 264" fill="none" xmlns="http://www.w3.org/2000/svg">
<path d="M90.1509 229.424C90.1509 229.842 89.8539 230.139 89.2599 230.315C88.6879 230.491 88.0939 230.579 87.4779 230.579C86.4439 230.579 85.4979 230.348 84.6399 229.886C83.8039 229.424 83.0559 228.852 82.3959 228.17C81.7359 227.488 81.1639 226.806 80.6799 226.124C80.1959 225.42 79.7999 224.837 79.4919 224.375C79.1839 223.913 78.8979 223.484 78.6339 223.088C78.3919 222.692 78.1829 222.34 78.0069 222.032C77.2369 220.844 75.8619 220.14 73.8819 219.92H73.8159C73.5299 219.92 73.3869 220.14 73.3869 220.58V226.256C73.3869 227.884 74.1239 228.83 75.5979 229.094C76.3239 229.226 76.6869 229.413 76.6869 229.655C76.6869 229.919 76.3679 230.051 75.7299 230.051C75.4219 230.051 75.1139 230.04 74.8059 230.018C74.4979 229.996 74.2009 229.963 73.9149 229.919C73.3649 229.853 72.8919 229.82 72.4959 229.82L68.2059 230.051C67.5679 230.051 67.2489 229.919 67.2489 229.655C67.2489 229.413 67.6449 229.215 68.4369 229.061C69.2289 228.929 69.8119 228.687 70.1859 228.335C70.5599 227.961 70.7469 227.378 70.7469 226.586V212.66C70.7469 211.604 70.6149 210.823 70.3509 210.317C70.0869 209.811 69.5699 209.492 68.7999 209.36C68.0299 209.228 67.6449 209.008 67.6449 208.7C67.6449 208.458 67.9639 208.337 68.6019 208.337L71.8359 208.37L75.6309 208.205C80.5809 208.205 83.0559 210.009 83.0559 213.617C83.0559 215.993 81.7579 217.841 79.1619 219.161C79.0739 219.205 79.0299 219.26 79.0299 219.326C79.0299 219.348 79.0409 219.381 79.0629 219.425C79.1069 219.469 79.1399 219.524 79.1619 219.59C79.6679 220.338 80.0749 220.954 80.3829 221.438C80.6909 221.9 80.9659 222.318 81.2079 222.692C81.4719 223.044 81.7469 223.396 82.0329 223.748C82.3189 224.1 82.6819 224.54 83.1219 225.068C83.5619 225.596 84.0019 226.102 84.4419 226.586C84.9039 227.07 85.3769 227.532 85.8609 227.972C86.3889 228.434 86.9279 228.731 87.4779 228.863C88.0279 228.995 88.7539 229.061 89.6559 229.061C89.9859 229.061 90.1509 229.182 90.1509 229.424ZM73.3869 217.874C73.3869 218.38 73.5189 218.699 73.7829 218.831C74.0469 218.963 74.4979 219.029 75.1359 219.029C76.1259 219.029 76.9839 218.809 77.7099 218.369C78.4579 217.929 79.0409 217.324 79.4589 216.554C79.8769 215.784 80.0859 214.926 80.0859 213.98C80.0859 212.55 79.7669 211.395 79.1289 210.515C78.5129 209.635 77.3469 209.195 75.6309 209.195C74.7949 209.195 74.2339 209.349 73.9479 209.657C73.6839 209.965 73.5409 210.405 73.5189 210.977C73.4749 212.055 73.4419 213.166 73.4199 214.31C73.3979 215.454 73.3869 216.642 73.3869 217.874ZM96.6669 229.061C96.3589 229.347 95.8969 229.633 95.2809 229.919C94.6869 230.205 94.0269 230.348 93.3009 230.348C92.8169 230.348 92.3439 230.216 91.8819 229.952C91.4419 229.71 91.0789 229.391 90.7929 228.995C90.5069 228.577 90.3639 228.159 90.3639 227.741C90.3639 226.421 91.1669 225.431 92.7729 224.771L96.1389 223.385C96.5569 223.209 96.8099 223.055 96.8979 222.923C96.9859 222.791 97.0409 222.505 97.0629 222.065L97.1289 220.019V219.953C97.1289 219.381 96.9419 218.886 96.5679 218.468C96.2159 218.05 95.8089 217.841 95.3469 217.841C94.8629 217.841 94.4119 217.962 93.9939 218.204C93.5759 218.424 93.3119 218.633 93.2019 218.831C93.0919 219.051 93.0369 219.282 93.0369 219.524L93.0699 219.986C93.0699 220.118 92.9159 220.272 92.6079 220.448C92.2999 220.624 91.9699 220.789 91.6179 220.943C91.2659 221.075 91.0129 221.141 90.8589 221.141C90.6389 221.141 90.5289 221.042 90.5289 220.844C90.5289 220.338 90.7049 219.854 91.0569 219.392C91.4089 218.93 91.8599 218.49 92.4099 218.072C92.9819 217.654 93.5759 217.28 94.1919 216.95C95.0939 216.466 95.9519 216.224 96.7659 216.224C97.5359 216.224 98.1849 216.51 98.7129 217.082C99.2409 217.654 99.4939 218.347 99.4719 219.161L99.3069 226.289V226.487C99.3069 228.049 99.7029 228.83 100.495 228.83C101.023 228.83 101.463 228.676 101.815 228.368C101.859 228.324 101.914 228.302 101.98 228.302C102.068 228.302 102.145 228.335 102.211 228.401C102.299 228.467 102.343 228.555 102.343 228.665V228.698C102.255 228.874 102.068 229.094 101.782 229.358C101.496 229.622 101.166 229.853 100.792 230.051C100.418 230.249 100.055 230.348 99.7029 230.348C99.1529 230.348 98.6909 230.205 98.3169 229.919C97.9649 229.633 97.7119 229.347 97.5579 229.061C97.4039 228.775 97.3049 228.632 97.2609 228.632C97.1509 228.632 96.9529 228.775 96.6669 229.061ZM93.0039 227.015C93.0039 227.587 93.1799 228.038 93.5319 228.368C93.8839 228.676 94.3129 228.83 94.8189 228.83C95.3249 228.83 95.8089 228.632 96.2709 228.236C96.7329 227.84 96.9749 227.301 96.9969 226.619L97.0629 225.002V224.837C97.0629 224.485 96.9639 224.309 96.7659 224.309C96.6339 224.309 96.4799 224.342 96.3039 224.408C94.1039 225.156 93.0039 226.025 93.0039 227.015ZM111.96 228.995C111.608 229.325 111.113 229.633 110.475 229.919C109.859 230.205 109.243 230.348 108.627 230.348C107.549 230.348 106.702 230.029 106.086 229.391C105.492 228.731 105.195 227.741 105.195 226.421V218.765C105.195 218.567 105.118 218.435 104.964 218.369C104.81 218.303 104.469 218.27 103.941 218.27C103.875 218.27 103.787 218.182 103.677 218.006C103.589 217.83 103.545 217.698 103.545 217.61C103.545 217.522 103.6 217.445 103.71 217.379C104.216 217.225 104.733 216.906 105.261 216.422C105.789 215.938 106.218 215.487 106.548 215.069C106.878 214.651 107.076 214.442 107.142 214.442C107.45 214.442 107.604 214.552 107.604 214.772L107.538 216.224C107.538 216.532 107.802 216.686 108.33 216.686H112.092C112.312 216.686 112.422 216.95 112.422 217.478C112.422 218.006 112.312 218.27 112.092 218.27H108.825C108.231 218.27 107.857 218.314 107.703 218.402C107.571 218.49 107.505 218.754 107.505 219.194V225.431C107.505 226.553 107.714 227.356 108.132 227.84C108.55 228.302 109.067 228.533 109.683 228.533C110.783 228.533 111.608 228.324 112.158 227.906C112.18 227.884 112.213 227.873 112.257 227.873C112.411 227.873 112.488 228.016 112.488 228.302C112.488 228.478 112.312 228.709 111.96 228.995ZM124.382 227.543C124.294 227.917 124.019 228.324 123.557 228.764C123.095 229.204 122.49 229.578 121.742 229.886C120.994 230.194 120.136 230.348 119.168 230.348C118.2 230.348 117.298 230.051 116.462 229.457C115.648 228.841 114.988 228.005 114.482 226.949C113.998 225.893 113.756 224.694 113.756 223.352C113.756 222.01 114.042 220.8 114.614 219.722C115.208 218.644 116 217.797 116.99 217.181C117.98 216.543 119.091 216.224 120.323 216.224C121.643 216.224 122.677 216.499 123.425 217.049C124.195 217.599 124.58 218.347 124.58 219.293C124.58 220.239 124.338 220.833 123.854 221.075C123.392 221.295 122.787 221.405 122.039 221.405H116.627C116.319 221.405 116.099 221.482 115.967 221.636C115.857 221.768 115.802 222.098 115.802 222.626C115.802 223.638 116.022 224.584 116.462 225.464C116.902 226.344 117.485 227.048 118.211 227.576C118.959 228.104 119.795 228.368 120.719 228.368C122.061 228.368 123.117 227.884 123.887 226.916C124.041 226.762 124.162 226.685 124.25 226.685C124.404 226.685 124.481 226.795 124.481 227.015C124.481 227.169 124.448 227.345 124.382 227.543ZM116.429 219.887C116.429 220.217 116.638 220.382 117.056 220.382H119.762C120.268 220.382 120.719 220.371 121.115 220.349C121.533 220.305 121.885 220.261 122.171 220.217C122.391 220.195 122.501 219.876 122.501 219.26C122.501 218.666 122.226 218.182 121.676 217.808C121.126 217.434 120.466 217.247 119.696 217.247C119.168 217.247 118.651 217.401 118.145 217.709C117.661 217.995 117.254 218.347 116.924 218.765C116.594 219.161 116.429 219.535 116.429 219.887ZM80.4312 257.606C80.4312 258.618 80.1782 259.564 79.6722 260.444C79.1662 261.324 78.4072 262.039 77.3952 262.589C76.3832 263.139 75.1072 263.414 73.5672 263.414C71.7412 263.414 70.2672 263.15 69.1452 262.622C68.7932 262.468 68.5622 262.281 68.4522 262.061C68.0562 261.225 67.8582 259.96 67.8582 258.266C67.8582 258.09 67.9242 257.892 68.0562 257.672C68.2102 257.43 68.3862 257.309 68.5842 257.309C68.7602 257.309 69.0792 258.035 69.5412 259.487C70.1792 261.379 71.6642 262.325 73.9962 262.325C75.1182 262.325 76.0092 261.984 76.6692 261.302C77.3292 260.62 77.6592 259.696 77.6592 258.53C77.6592 256.682 75.9872 254.636 72.6432 252.392C71.3012 251.49 70.2672 250.577 69.5412 249.653C68.8152 248.729 68.4522 247.596 68.4522 246.254C68.4522 245.352 68.7382 244.505 69.3102 243.713C69.8822 242.899 70.6632 242.239 71.6532 241.733C72.6652 241.227 73.8092 240.974 75.0852 240.974C76.2292 240.974 77.1422 241.084 77.8242 241.304C78.5062 241.524 78.9022 241.634 79.0122 241.634C79.2322 241.634 79.3972 241.843 79.5072 242.261C79.6392 242.679 79.7272 243.163 79.7712 243.713C79.8372 244.241 79.8702 244.703 79.8702 245.099C79.8702 245.693 79.7932 245.99 79.6392 245.99C79.0012 245.99 78.6162 245.682 78.4842 245.066C78.3302 244.12 77.9122 243.383 77.2302 242.855C76.5482 242.327 75.7122 242.063 74.7222 242.063C73.7102 242.063 72.8302 242.393 72.0822 243.053C71.3562 243.691 70.9932 244.549 70.9932 245.627C70.9932 246.287 71.2352 246.925 71.7192 247.541C72.2032 248.135 72.7862 248.685 73.4682 249.191C74.1502 249.675 74.7882 250.115 75.3822 250.511C78.7482 252.689 80.4312 255.054 80.4312 257.606ZM91.4151 261.995C91.0631 262.325 90.5681 262.633 89.9301 262.919C89.3141 263.205 88.6981 263.348 88.0821 263.348C87.0041 263.348 86.1571 263.029 85.5411 262.391C84.9471 261.731 84.6501 260.741 84.6501 259.421V251.765C84.6501 251.567 84.5731 251.435 84.4191 251.369C84.2651 251.303 83.9241 251.27 83.3961 251.27C83.3301 251.27 83.2421 251.182 83.1321 251.006C83.0441 250.83 83.0001 250.698 83.0001 250.61C83.0001 250.522 83.0551 250.445 83.1651 250.379C83.6711 250.225 84.1881 249.906 84.7161 249.422C85.2441 248.938 85.6731 248.487 86.0031 248.069C86.3331 247.651 86.5311 247.442 86.5971 247.442C86.9051 247.442 87.0591 247.552 87.0591 247.772L86.9931 249.224C86.9931 249.532 87.2571 249.686 87.7851 249.686H91.5471C91.7671 249.686 91.8771 249.95 91.8771 250.478C91.8771 251.006 91.7671 251.27 91.5471 251.27H88.2801C87.6861 251.27 87.3121 251.314 87.1581 251.402C87.0261 251.49 86.9601 251.754 86.9601 252.194V258.431C86.9601 259.553 87.1691 260.356 87.5871 260.84C88.0051 261.302 88.5221 261.533 89.1381 261.533C90.2381 261.533 91.0631 261.324 91.6131 260.906C91.6351 260.884 91.6681 260.873 91.7121 260.873C91.8661 260.873 91.9431 261.016 91.9431 261.302C91.9431 261.478 91.7671 261.709 91.4151 261.995ZM99.68 262.061C99.372 262.347 98.91 262.633 98.294 262.919C97.7 263.205 97.04 263.348 96.314 263.348C95.83 263.348 95.357 263.216 94.895 262.952C94.455 262.71 94.092 262.391 93.806 261.995C93.52 261.577 93.377 261.159 93.377 260.741C93.377 259.421 94.18 258.431 95.786 257.771L99.152 256.385C99.57 256.209 99.823 256.055 99.911 255.923C99.999 255.791 100.054 255.505 100.076 255.065L100.142 253.019V252.953C100.142 252.381 99.955 251.886 99.581 251.468C99.229 251.05 98.822 250.841 98.36 250.841C97.876 250.841 97.425 250.962 97.007 251.204C96.589 251.424 96.325 251.633 96.215 251.831C96.105 252.051 96.05 252.282 96.05 252.524L96.083 252.986C96.083 253.118 95.929 253.272 95.621 253.448C95.313 253.624 94.983 253.789 94.631 253.943C94.279 254.075 94.026 254.141 93.872 254.141C93.652 254.141 93.542 254.042 93.542 253.844C93.542 253.338 93.718 252.854 94.07 252.392C94.422 251.93 94.873 251.49 95.423 251.072C95.995 250.654 96.589 250.28 97.205 249.95C98.107 249.466 98.965 249.224 99.779 249.224C100.549 249.224 101.198 249.51 101.726 250.082C102.254 250.654 102.507 251.347 102.485 252.161L102.32 259.289V259.487C102.32 261.049 102.716 261.83 103.508 261.83C104.036 261.83 104.476 261.676 104.828 261.368C104.872 261.324 104.927 261.302 104.993 261.302C105.081 261.302 105.158 261.335 105.224 261.401C105.312 261.467 105.356 261.555 105.356 261.665V261.698C105.268 261.874 105.081 262.094 104.795 262.358C104.509 262.622 104.179 262.853 103.805 263.051C103.431 263.249 103.068 263.348 102.716 263.348C102.166 263.348 101.704 263.205 101.33 262.919C100.978 262.633 100.725 262.347 100.571 262.061C100.417 261.775 100.318 261.632 100.274 261.632C100.164 261.632 99.966 261.775 99.68 262.061ZM96.017 260.015C96.017 260.587 96.193 261.038 96.545 261.368C96.897 261.676 97.326 261.83 97.832 261.83C98.338 261.83 98.822 261.632 99.284 261.236C99.746 260.84 99.988 260.301 100.01 259.619L100.076 258.002V257.837C100.076 257.485 99.977 257.309 99.779 257.309C99.647 257.309 99.493 257.342 99.317 257.408C97.117 258.156 96.017 259.025 96.017 260.015ZM109.594 262.82L106.855 262.985C106.415 262.985 106.195 262.875 106.195 262.655C106.195 262.457 106.448 262.27 106.954 262.094C107.9 261.808 108.373 261.324 108.373 260.642V251.336C108.021 251.336 107.702 251.336 107.416 251.336C107.152 251.314 106.899 251.292 106.657 251.27C106.591 251.248 106.492 251.171 106.36 251.039C106.25 250.907 106.195 250.797 106.195 250.709C106.195 250.643 106.272 250.566 106.426 250.478C106.602 250.434 106.844 250.346 107.152 250.214C107.482 250.06 107.889 249.862 108.373 249.62C108.373 247.816 108.604 246.232 109.066 244.868C109.55 243.504 110.177 242.459 110.947 241.733C112.443 240.303 114.005 239.588 115.633 239.588C118.053 239.588 119.263 240.248 119.263 241.568C119.263 241.92 119.153 242.228 118.933 242.492C118.713 242.756 118.482 242.888 118.24 242.888C117.998 242.888 117.756 242.789 117.514 242.591C117.272 242.393 117.041 242.162 116.821 241.898C116.601 241.656 116.26 241.436 115.798 241.238C115.336 241.04 114.819 240.941 114.247 240.941C113.169 240.941 112.311 241.458 111.673 242.492C111.057 243.504 110.749 245.077 110.749 247.211V248.96C110.749 249.444 111.024 249.686 111.574 249.686H115.468C115.556 249.686 115.6 249.807 115.6 250.049C115.6 250.313 115.556 250.588 115.468 250.874C115.38 251.138 115.281 251.27 115.171 251.27H112.069C111.519 251.27 111.167 251.314 111.013 251.402C110.837 251.512 110.749 251.655 110.749 251.831V260.642C110.771 261.324 111.244 261.808 112.168 262.094C112.674 262.27 112.927 262.457 112.927 262.655C112.927 262.875 112.707 262.985 112.267 262.985L109.594 262.82ZM119.648 262.82L116.909 262.985C116.469 262.985 116.249 262.875 116.249 262.655C116.249 262.457 116.502 262.27 117.008 262.094C117.954 261.808 118.427 261.324 118.427 260.642V251.336C118.075 251.336 117.756 251.336 117.47 251.336C117.206 251.314 116.953 251.292 116.711 251.27C116.645 251.248 116.546 251.171 116.414 251.039C116.304 250.907 116.249 250.797 116.249 250.709C116.249 250.643 116.326 250.566 116.48 250.478C116.656 250.434 116.898 250.346 117.206 250.214C117.536 250.06 117.943 249.862 118.427 249.62C118.427 247.816 118.658 246.232 119.12 244.868C119.604 243.504 120.231 242.459 121.001 241.733C122.497 240.303 124.059 239.588 125.687 239.588C128.107 239.588 129.317 240.248 129.317 241.568C129.317 241.92 129.207 242.228 128.987 242.492C128.767 242.756 128.536 242.888 128.294 242.888C128.052 242.888 127.81 242.789 127.568 242.591C127.326 242.393 127.095 242.162 126.875 241.898C126.655 241.656 126.314 241.436 125.852 241.238C125.39 241.04 124.873 240.941 124.301 240.941C123.223 240.941 122.365 241.458 121.727 242.492C121.111 243.504 120.803 245.077 120.803 247.211V248.96C120.803 249.444 121.078 249.686 121.628 249.686H125.522C125.61 249.686 125.654 249.807 125.654 250.049C125.654 250.313 125.61 250.588 125.522 250.874C125.434 251.138 125.335 251.27 125.225 251.27H122.123C121.573 251.27 121.221 251.314 121.067 251.402C120.891 251.512 120.803 251.655 120.803 251.831V260.642C120.825 261.324 121.298 261.808 122.222 262.094C122.728 262.27 122.981 262.457 122.981 262.655C122.981 262.875 122.761 262.985 122.321 262.985L119.648 262.82Z" fill="white"/>
<rect x="1" y="1" width="195" height="185.342" rx="20" fill="#2ECC71" stroke="#0D1B2A" stroke-width="2"/>
<path d="M48.2451 125.421L51.9252 121.334C52.6576 120.546 53.0405 119.513 52.9914 118.456V117.785C52.9914 116.294 52.1839 115.483 50.6067 115.483H38.6198C38.1737 115.483 37.7457 115.654 37.4302 115.958C37.1147 116.262 36.9375 116.675 36.9375 117.105V120.35C36.9375 120.781 37.1147 121.193 37.4302 121.498C37.7457 121.802 38.1737 121.973 38.6198 121.973H43.4209C42.6051 122.765 41.8329 123.599 41.1076 124.47L39.9279 125.889C39.0867 126.917 38.8238 127.944 39.3391 128.907L39.5599 129.299C40.1908 130.467 40.8826 130.897 42.136 130.897H43.1307C45.303 130.897 46.4828 131.392 46.4828 132.74C46.4828 133.698 45.5995 134.407 43.4629 134.407C42.3466 134.399 41.2422 134.184 40.2097 133.775C38.8449 132.988 37.7408 133.065 36.9291 134.407L35.7535 136.296C34.9712 137.539 35.0827 138.673 36.3066 139.528C37.928 140.48 40.5924 141.443 44.0875 141.443C51.2712 141.443 54.2868 136.829 54.2868 132.495C54.2805 129.578 52.3689 126.459 48.2451 125.421ZM139.562 89.5226H72.2671C71.3747 89.5226 70.5189 89.8645 69.8878 90.473C69.2568 91.0816 68.9023 91.907 68.9023 92.7676V99.2577C68.9023 100.118 69.2568 100.944 69.8878 101.552C70.5189 102.161 71.3747 102.503 72.2671 102.503H139.562C140.454 102.503 141.31 102.161 141.941 101.552C142.572 100.944 142.926 100.118 142.926 99.2577V92.7676C142.926 91.907 142.572 91.0816 141.941 90.473C141.31 89.8645 140.454 89.5226 139.562 89.5226ZM139.562 57.0723H72.2671C71.3747 57.0723 70.5189 57.4142 69.8878 58.0228C69.2568 58.6313 68.9023 59.4567 68.9023 60.3174V66.8074C68.9023 67.668 69.2568 68.4934 69.8878 69.102C70.5189 69.7106 71.3747 70.0524 72.2671 70.0524H139.562C140.454 70.0524 141.31 69.7106 141.941 69.102C142.572 68.4934 142.926 67.668 142.926 66.8074V60.3174C142.926 59.4567 142.572 58.6313 141.941 58.0228C141.31 57.4142 140.454 57.0723 139.562 57.0723ZM139.562 121.973H72.2671C71.3747 121.973 70.5189 122.315 69.8878 122.923C69.2568 123.532 68.9023 124.357 68.9023 125.218V131.708C68.9023 132.569 69.2568 133.394 69.8878 134.003C70.5189 134.611 71.3747 134.953 72.2671 134.953H139.562C140.454 134.953 141.31 134.611 141.941 134.003C142.572 133.394 142.926 132.569 142.926 131.708V125.218C142.926 124.357 142.572 123.532 141.941 122.923C141.31 122.315 140.454 121.973 139.562 121.973ZM38.6198 76.5425H52.0787C52.5249 76.5425 52.9528 76.3716 53.2683 76.0673C53.5838 75.763 53.7611 75.3503 53.7611 74.92V71.675C53.7611 71.2446 53.5838 70.8319 53.2683 70.5277C52.9528 70.2234 52.5249 70.0524 52.0787 70.0524H48.714V52.2048C48.714 51.7745 48.5368 51.3618 48.2213 51.0575C47.9058 50.7532 47.4778 50.5823 47.0317 50.5823H41.9846C41.6727 50.5828 41.3672 50.6669 41.1021 50.8252C40.8369 50.9835 40.6226 51.2098 40.4831 51.4787L38.8007 54.7237C38.6725 54.9709 38.6118 55.2455 38.6245 55.5216C38.6372 55.7977 38.7228 56.0661 38.8732 56.3014C39.0236 56.5366 39.2338 56.7309 39.4839 56.8658C39.734 57.0008 40.0156 57.0718 40.3022 57.0723H41.9846V70.0524H38.6198C38.1737 70.0524 37.7457 70.2234 37.4302 70.5277C37.1147 70.8319 36.9375 71.2446 36.9375 71.675V74.92C36.9375 75.3503 37.1147 75.763 37.4302 76.0673C37.7457 76.3716 38.1737 76.5425 38.6198 76.5425ZM37.7976 108.993H52.0787C52.5249 108.993 52.9528 108.822 53.2683 108.518C53.5838 108.213 53.7611 107.801 53.7611 107.37V104.125C53.7611 103.695 53.5838 103.282 53.2683 102.978C52.9528 102.674 52.5249 102.503 52.0787 102.503H43.9445C44.6364 100.416 54.1102 98.7141 54.1102 91.0559C54.1102 85.1621 48.8528 83.0325 44.7584 83.0325C40.2665 83.0325 37.6504 85.0607 36.2498 86.8353C35.3308 87.969 35.6189 89.0338 36.8386 89.9526L38.643 91.3479C39.8227 92.2728 40.9562 91.8489 42.0329 90.8531C42.564 90.3512 43.2788 90.0714 44.0223 90.0743C44.7226 90.0743 45.9739 90.3906 45.9739 91.8489C45.9802 94.4287 35.2551 96.2783 35.2551 105.867V106.679C35.2551 108.182 36.3234 108.993 37.7976 108.993Z" fill="#0D1B2A"/>
<path d="M160.991 66.8857V145.8C160.991 147.532 161.572 148.937 162.289 148.937H168.347C169.064 148.937 169.645 147.532 169.645 145.8V66.8857H174.627C176.94 66.8857 178.098 60.1293 176.463 56.1776L167.154 33.6854C166.14 31.2357 164.496 31.2357 163.482 33.6854L154.173 56.1776C152.538 60.129 153.696 66.8857 156.009 66.8857H160.991Z" fill="#0D1B2A"/>
</svg>
