<svg width="294" height="49" viewBox="0 0 294 49" fill="none" xmlns="http://www.w3.org/2000/svg">
<rect width="293.985" height="49" rx="17" fill="#2ECC71"/>
<path d="M91.2776 28.608C91.2776 28.9627 91.0256 29.2147 90.5216 29.364C90.0363 29.5133 89.5323 29.588 89.0096 29.588C88.1323 29.588 87.3296 29.392 86.6016 29C85.8923 28.608 85.2576 28.1227 84.6976 27.544C84.1376 26.9653 83.6523 26.3867 83.2416 25.808C82.8309 25.2107 82.4949 24.716 82.2336 24.324C81.9723 23.932 81.7296 23.568 81.5056 23.232C81.3003 22.896 81.1229 22.5973 80.9736 22.336C80.3203 21.328 79.1536 20.7307 77.4736 20.544H77.4176C77.1749 20.544 77.0536 20.7307 77.0536 21.104V25.92C77.0536 27.3013 77.6789 28.104 78.9296 28.328C79.5456 28.44 79.8536 28.5987 79.8536 28.804C79.8536 29.028 79.5829 29.14 79.0416 29.14C78.7803 29.14 78.5189 29.1307 78.2576 29.112C77.9963 29.0933 77.7443 29.0653 77.5016 29.028C77.0349 28.972 76.6336 28.944 76.2976 28.944L72.6576 29.14C72.1163 29.14 71.8456 29.028 71.8456 28.804C71.8456 28.5987 72.1816 28.4307 72.8536 28.3C73.5256 28.188 74.0203 27.9827 74.3376 27.684C74.6549 27.3667 74.8136 26.872 74.8136 26.2V14.384C74.8136 13.488 74.7016 12.8253 74.4776 12.396C74.2536 11.9667 73.8149 11.696 73.1616 11.584C72.5083 11.472 72.1816 11.2853 72.1816 11.024C72.1816 10.8187 72.4523 10.716 72.9936 10.716L75.7376 10.744L78.9576 10.604C83.1576 10.604 85.2576 12.1347 85.2576 15.196C85.2576 17.212 84.1563 18.78 81.9536 19.9C81.8789 19.9373 81.8416 19.984 81.8416 20.04C81.8416 20.0587 81.8509 20.0867 81.8696 20.124C81.9069 20.1613 81.9349 20.208 81.9536 20.264C82.3829 20.8987 82.7283 21.4213 82.9896 21.832C83.2509 22.224 83.4843 22.5787 83.6896 22.896C83.9136 23.1947 84.1469 23.4933 84.3896 23.792C84.6323 24.0907 84.9403 24.464 85.3136 24.912C85.6869 25.36 86.0603 25.7893 86.4336 26.2C86.8256 26.6107 87.2269 27.0027 87.6376 27.376C88.0856 27.768 88.5429 28.02 89.0096 28.132C89.4763 28.244 90.0923 28.3 90.8576 28.3C91.1376 28.3 91.2776 28.4027 91.2776 28.608ZM77.0536 18.808C77.0536 19.2373 77.1656 19.508 77.3896 19.62C77.6136 19.732 77.9963 19.788 78.5376 19.788C79.3776 19.788 80.1056 19.6013 80.7216 19.228C81.3563 18.8547 81.8509 18.3413 82.2056 17.688C82.5603 17.0347 82.7376 16.3067 82.7376 15.504C82.7376 14.2907 82.4669 13.3107 81.9256 12.564C81.4029 11.8173 80.4136 11.444 78.9576 11.444C78.2483 11.444 77.7723 11.5747 77.5296 11.836C77.3056 12.0973 77.1843 12.4707 77.1656 12.956C77.1283 13.8707 77.1003 14.8133 77.0816 15.784C77.0629 16.7547 77.0536 17.7627 77.0536 18.808ZM96.8063 28.3C96.545 28.5427 96.153 28.7853 95.6303 29.028C95.1263 29.2707 94.5663 29.392 93.9503 29.392C93.5396 29.392 93.1383 29.28 92.7463 29.056C92.373 28.8507 92.065 28.58 91.8223 28.244C91.5796 27.8893 91.4583 27.5347 91.4583 27.18C91.4583 26.06 92.1396 25.22 93.5023 24.66L96.3583 23.484C96.713 23.3347 96.9276 23.204 97.0023 23.092C97.077 22.98 97.1236 22.7373 97.1423 22.364L97.1983 20.628V20.572C97.1983 20.0867 97.0396 19.6667 96.7223 19.312C96.4236 18.9573 96.0783 18.78 95.6863 18.78C95.2756 18.78 94.893 18.8827 94.5383 19.088C94.1836 19.2747 93.9596 19.452 93.8663 19.62C93.773 19.8067 93.7263 20.0027 93.7263 20.208L93.7543 20.6C93.7543 20.712 93.6236 20.8427 93.3623 20.992C93.101 21.1413 92.821 21.2813 92.5223 21.412C92.2236 21.524 92.009 21.58 91.8783 21.58C91.6916 21.58 91.5983 21.496 91.5983 21.328C91.5983 20.8987 91.7476 20.488 92.0463 20.096C92.345 19.704 92.7276 19.3307 93.1943 18.976C93.6796 18.6213 94.1836 18.304 94.7063 18.024C95.4716 17.6133 96.1996 17.408 96.8903 17.408C97.5436 17.408 98.0943 17.6507 98.5423 18.136C98.9903 18.6213 99.205 19.2093 99.1863 19.9L99.0463 25.948V26.116C99.0463 27.4413 99.3823 28.104 100.054 28.104C100.502 28.104 100.876 27.9733 101.174 27.712C101.212 27.6747 101.258 27.656 101.314 27.656C101.389 27.656 101.454 27.684 101.51 27.74C101.585 27.796 101.622 27.8707 101.622 27.964V27.992C101.548 28.1413 101.389 28.328 101.146 28.552C100.904 28.776 100.624 28.972 100.306 29.14C99.989 29.308 99.681 29.392 99.3823 29.392C98.9156 29.392 98.5236 29.2707 98.2063 29.028C97.9076 28.7853 97.693 28.5427 97.5623 28.3C97.4316 28.0573 97.3476 27.936 97.3103 27.936C97.217 27.936 97.049 28.0573 96.8063 28.3ZM93.6983 26.564C93.6983 27.0493 93.8476 27.432 94.1463 27.712C94.445 27.9733 94.809 28.104 95.2383 28.104C95.6676 28.104 96.0783 27.936 96.4703 27.6C96.8623 27.264 97.0676 26.8067 97.0863 26.228L97.1423 24.856V24.716C97.1423 24.4173 97.0583 24.268 96.8903 24.268C96.7783 24.268 96.6476 24.296 96.4983 24.352C94.6316 24.9867 93.6983 25.724 93.6983 26.564ZM109.782 28.244C109.483 28.524 109.063 28.7853 108.522 29.028C107.999 29.2707 107.477 29.392 106.954 29.392C106.039 29.392 105.321 29.1213 104.798 28.58C104.294 28.02 104.042 27.18 104.042 26.06V19.564C104.042 19.396 103.977 19.284 103.846 19.228C103.715 19.172 103.426 19.144 102.978 19.144C102.922 19.144 102.847 19.0693 102.754 18.92C102.679 18.7707 102.642 18.6587 102.642 18.584C102.642 18.5093 102.689 18.444 102.782 18.388C103.211 18.2573 103.65 17.9867 104.098 17.576C104.546 17.1653 104.91 16.7827 105.19 16.428C105.47 16.0733 105.638 15.896 105.694 15.896C105.955 15.896 106.086 15.9893 106.086 16.176L106.03 17.408C106.03 17.6693 106.254 17.8 106.702 17.8H109.894C110.081 17.8 110.174 18.024 110.174 18.472C110.174 18.92 110.081 19.144 109.894 19.144H107.122C106.618 19.144 106.301 19.1813 106.17 19.256C106.058 19.3307 106.002 19.5547 106.002 19.928V25.22C106.002 26.172 106.179 26.8533 106.534 27.264C106.889 27.656 107.327 27.852 107.85 27.852C108.783 27.852 109.483 27.6747 109.95 27.32C109.969 27.3013 109.997 27.292 110.034 27.292C110.165 27.292 110.23 27.4133 110.23 27.656C110.23 27.8053 110.081 28.0013 109.782 28.244ZM120.323 27.012C120.248 27.3293 120.015 27.6747 119.623 28.048C119.231 28.4213 118.717 28.7387 118.083 29C117.448 29.2613 116.72 29.392 115.899 29.392C115.077 29.392 114.312 29.14 113.603 28.636C112.912 28.1133 112.352 27.404 111.923 26.508C111.512 25.612 111.307 24.5947 111.307 23.456C111.307 22.3173 111.549 21.2907 112.035 20.376C112.539 19.4613 113.211 18.7427 114.051 18.22C114.891 17.6787 115.833 17.408 116.879 17.408C117.999 17.408 118.876 17.6413 119.511 18.108C120.164 18.5747 120.491 19.2093 120.491 20.012C120.491 20.8147 120.285 21.3187 119.875 21.524C119.483 21.7107 118.969 21.804 118.335 21.804H113.743C113.481 21.804 113.295 21.8693 113.183 22C113.089 22.112 113.043 22.392 113.043 22.84C113.043 23.6987 113.229 24.5013 113.603 25.248C113.976 25.9947 114.471 26.592 115.087 27.04C115.721 27.488 116.431 27.712 117.215 27.712C118.353 27.712 119.249 27.3013 119.903 26.48C120.033 26.3493 120.136 26.284 120.211 26.284C120.341 26.284 120.407 26.3773 120.407 26.564C120.407 26.6947 120.379 26.844 120.323 27.012ZM113.575 20.516C113.575 20.796 113.752 20.936 114.107 20.936H116.403C116.832 20.936 117.215 20.9267 117.551 20.908C117.905 20.8707 118.204 20.8333 118.447 20.796C118.633 20.7773 118.727 20.5067 118.727 19.984C118.727 19.48 118.493 19.0693 118.027 18.752C117.56 18.4347 117 18.276 116.347 18.276C115.899 18.276 115.46 18.4067 115.031 18.668C114.62 18.9107 114.275 19.2093 113.995 19.564C113.715 19.9 113.575 20.2173 113.575 20.516ZM131.549 28.944L129.281 29.084C128.907 29.084 128.721 28.9907 128.721 28.804C128.721 28.692 128.795 28.5987 128.945 28.524C129.094 28.4307 129.253 28.356 129.421 28.3C129.589 28.244 129.691 28.216 129.729 28.216C129.766 28.216 129.859 28.1787 130.009 28.104C130.158 28.0293 130.251 27.964 130.289 27.908C130.475 27.7213 130.569 27.5067 130.569 27.264V21.244C130.569 20.0493 130.186 19.3773 129.421 19.228C129.271 19.1907 129.197 19.0693 129.197 18.864C129.197 18.6587 129.262 18.5467 129.393 18.528C130.363 18.304 131.39 17.7907 132.473 16.988C132.491 16.9693 132.529 16.96 132.585 16.96C132.622 16.96 132.669 17.044 132.725 17.212L132.529 19.032C132.529 19.1627 132.538 19.2373 132.557 19.256C132.911 18.9573 133.341 18.668 133.845 18.388C134.367 18.108 134.927 17.8747 135.525 17.688C136.122 17.5013 136.701 17.408 137.261 17.408C137.821 17.408 138.334 17.5853 138.801 17.94C139.267 18.276 139.641 18.7333 139.921 19.312C140.201 19.8907 140.341 20.5533 140.341 21.3V27.264C140.341 27.6373 140.453 27.88 140.677 27.992C140.919 28.104 141.237 28.2253 141.629 28.356C142.002 28.5053 142.189 28.6547 142.189 28.804C142.189 28.9907 142.002 29.084 141.629 29.084L139.389 28.944L137.093 29.084C136.719 29.084 136.533 28.9907 136.533 28.804C136.533 28.636 136.747 28.4773 137.177 28.328C137.214 28.328 137.251 28.3187 137.289 28.3C137.923 28.0947 138.278 27.8427 138.353 27.544C138.371 27.5067 138.381 27.46 138.381 27.404C138.381 27.348 138.381 27.3013 138.381 27.264V21.384C138.381 20.5813 138.147 19.9467 137.681 19.48C137.214 19.0133 136.533 18.78 135.637 18.78C134.722 18.78 133.975 18.976 133.397 19.368C132.818 19.76 132.529 20.4693 132.529 21.496V27.264C132.529 27.6373 132.641 27.88 132.865 27.992C133.107 28.104 133.425 28.2253 133.817 28.356C134.19 28.5053 134.377 28.6547 134.377 28.804C134.377 28.9907 134.19 29.084 133.817 29.084L131.549 28.944ZM152.67 27.012C152.596 27.3293 152.362 27.6747 151.97 28.048C151.578 28.4213 151.065 28.7387 150.43 29C149.796 29.2613 149.068 29.392 148.246 29.392C147.425 29.392 146.66 29.14 145.95 28.636C145.26 28.1133 144.7 27.404 144.27 26.508C143.86 25.612 143.654 24.5947 143.654 23.456C143.654 22.3173 143.897 21.2907 144.382 20.376C144.886 19.4613 145.558 18.7427 146.398 18.22C147.238 17.6787 148.181 17.408 149.226 17.408C150.346 17.408 151.224 17.6413 151.858 18.108C152.512 18.5747 152.838 19.2093 152.838 20.012C152.838 20.8147 152.633 21.3187 152.222 21.524C151.83 21.7107 151.317 21.804 150.682 21.804H146.09C145.829 21.804 145.642 21.8693 145.53 22C145.437 22.112 145.39 22.392 145.39 22.84C145.39 23.6987 145.577 24.5013 145.95 25.248C146.324 25.9947 146.818 26.592 147.434 27.04C148.069 27.488 148.778 27.712 149.562 27.712C150.701 27.712 151.597 27.3013 152.25 26.48C152.381 26.3493 152.484 26.284 152.558 26.284C152.689 26.284 152.754 26.3773 152.754 26.564C152.754 26.6947 152.726 26.844 152.67 27.012ZM145.922 20.516C145.922 20.796 146.1 20.936 146.454 20.936H148.75C149.18 20.936 149.562 20.9267 149.898 20.908C150.253 20.8707 150.552 20.8333 150.794 20.796C150.981 20.7773 151.074 20.5067 151.074 19.984C151.074 19.48 150.841 19.0693 150.374 18.752C149.908 18.4347 149.348 18.276 148.694 18.276C148.246 18.276 147.808 18.4067 147.378 18.668C146.968 18.9107 146.622 19.2093 146.342 19.564C146.062 19.9 145.922 20.2173 145.922 20.516ZM156.386 28.972L154.51 29.112C154.136 29.112 153.95 29.028 153.95 28.86C153.95 28.636 154.183 28.4587 154.65 28.328C155.135 28.1787 155.742 27.656 156.47 26.76L158.85 23.792C158.943 23.6613 158.99 23.54 158.99 23.428C158.99 23.316 158.962 23.2227 158.906 23.148L156.638 19.62C156.246 18.9667 155.826 18.5747 155.378 18.444C154.93 18.332 154.706 18.164 154.706 17.94C154.706 17.772 154.92 17.688 155.35 17.688L157.562 17.8L158.99 17.744C159.419 17.744 159.634 17.8187 159.634 17.968C159.634 18.136 159.456 18.276 159.102 18.388C158.728 18.5373 158.542 18.696 158.542 18.864C158.542 19.088 158.663 19.3867 158.906 19.76L160.026 21.496C160.119 21.6827 160.194 21.7293 160.25 21.636L161.622 19.536C161.771 19.3307 161.846 19.116 161.846 18.892C161.846 18.6867 161.678 18.528 161.342 18.416C161.006 18.304 160.838 18.1547 160.838 17.968C160.838 17.8 161.052 17.716 161.482 17.716L162.882 17.8C163.274 17.8 163.638 17.772 163.974 17.716C164.142 17.6973 164.291 17.688 164.422 17.688C164.571 17.6693 164.711 17.66 164.842 17.66C165.084 17.66 165.206 17.744 165.206 17.912C165.206 18.0987 164.991 18.2667 164.562 18.416C163.666 18.6773 163.003 19.116 162.574 19.732L160.754 22.308C160.716 22.3827 160.698 22.4293 160.698 22.448C160.698 22.504 160.726 22.5787 160.782 22.672L163.498 27.18C163.89 27.8333 164.31 28.216 164.758 28.328C165.206 28.4587 165.43 28.636 165.43 28.86C165.43 29.028 165.243 29.112 164.87 29.112L162.518 29L160.474 29.028C160.044 29.028 159.83 28.944 159.83 28.776C159.83 28.552 160.091 28.356 160.614 28.188C161.136 28.02 161.398 27.8053 161.398 27.544C161.398 27.3947 161.342 27.2267 161.23 27.04L159.718 24.464C159.624 24.3147 159.55 24.2867 159.494 24.38L157.618 27.124C157.524 27.2733 157.478 27.4787 157.478 27.74C157.478 28.0013 157.608 28.1787 157.87 28.272C158.299 28.4213 158.514 28.58 158.514 28.748C158.514 28.9347 158.299 29.028 157.87 29.028L156.386 28.972ZM173.821 28.244C173.522 28.524 173.102 28.7853 172.561 29.028C172.038 29.2707 171.516 29.392 170.993 29.392C170.078 29.392 169.36 29.1213 168.837 28.58C168.333 28.02 168.081 27.18 168.081 26.06V19.564C168.081 19.396 168.016 19.284 167.885 19.228C167.754 19.172 167.465 19.144 167.017 19.144C166.961 19.144 166.886 19.0693 166.793 18.92C166.718 18.7707 166.681 18.6587 166.681 18.584C166.681 18.5093 166.728 18.444 166.821 18.388C167.25 18.2573 167.689 17.9867 168.137 17.576C168.585 17.1653 168.949 16.7827 169.229 16.428C169.509 16.0733 169.677 15.896 169.733 15.896C169.994 15.896 170.125 15.9893 170.125 16.176L170.069 17.408C170.069 17.6693 170.293 17.8 170.741 17.8H173.933C174.12 17.8 174.213 18.024 174.213 18.472C174.213 18.92 174.12 19.144 173.933 19.144H171.161C170.657 19.144 170.34 19.1813 170.209 19.256C170.097 19.3307 170.041 19.5547 170.041 19.928V25.22C170.041 26.172 170.218 26.8533 170.573 27.264C170.928 27.656 171.366 27.852 171.889 27.852C172.822 27.852 173.522 27.6747 173.989 27.32C174.008 27.3013 174.036 27.292 174.073 27.292C174.204 27.292 174.269 27.4133 174.269 27.656C174.269 27.8053 174.12 28.0013 173.821 28.244ZM189.436 26.032C189.436 28.272 188.092 29.392 185.404 29.392C184.714 29.392 184.07 29.2707 183.472 29.028C182.875 28.804 182.53 28.5893 182.436 28.384C182.212 27.9173 182.091 27.348 182.072 26.676C182.072 26.508 182.222 26.424 182.52 26.424C182.8 26.424 182.95 26.4893 182.968 26.62C183.043 26.9373 183.211 27.2547 183.472 27.572C183.752 27.8893 184.079 28.1507 184.452 28.356C184.844 28.5427 185.246 28.636 185.656 28.636C186.254 28.636 186.711 28.4587 187.028 28.104C187.364 27.7493 187.532 27.3107 187.532 26.788C187.532 26.2653 187.364 25.8267 187.028 25.472C186.692 25.0987 186.132 24.632 185.348 24.072C184.546 23.512 183.902 22.9707 183.416 22.448C182.95 21.9067 182.716 21.2533 182.716 20.488C182.716 19.9653 182.856 19.4707 183.136 19.004C183.416 18.5373 183.818 18.1547 184.34 17.856C184.863 17.5573 185.498 17.408 186.244 17.408C187.364 17.408 188.139 17.6227 188.568 18.052C188.886 18.4627 189.044 19.1907 189.044 20.236C189.044 20.3107 188.979 20.348 188.848 20.348C188.718 20.348 188.531 20.2827 188.288 20.152C188.046 20.0027 187.924 19.872 187.924 19.76C187.906 19.3493 187.719 18.976 187.364 18.64C187.01 18.304 186.59 18.136 186.104 18.136C185.6 18.136 185.19 18.304 184.872 18.64C184.555 18.976 184.396 19.368 184.396 19.816C184.396 20.264 184.555 20.6747 184.872 21.048C185.19 21.4213 185.47 21.6827 185.712 21.832C185.824 21.9067 185.964 22.0093 186.132 22.14C186.319 22.252 186.534 22.3827 186.776 22.532C187.094 22.7187 187.355 22.8867 187.56 23.036C187.784 23.1853 187.999 23.3627 188.204 23.568C188.41 23.7547 188.634 24.0253 188.876 24.38C189.25 24.9213 189.436 25.472 189.436 26.032ZM198.403 28.244C198.104 28.524 197.684 28.7853 197.143 29.028C196.62 29.2707 196.098 29.392 195.575 29.392C194.66 29.392 193.942 29.1213 193.419 28.58C192.915 28.02 192.663 27.18 192.663 26.06V19.564C192.663 19.396 192.598 19.284 192.467 19.228C192.336 19.172 192.047 19.144 191.599 19.144C191.543 19.144 191.468 19.0693 191.375 18.92C191.3 18.7707 191.263 18.6587 191.263 18.584C191.263 18.5093 191.31 18.444 191.403 18.388C191.832 18.2573 192.271 17.9867 192.719 17.576C193.167 17.1653 193.531 16.7827 193.811 16.428C194.091 16.0733 194.259 15.896 194.315 15.896C194.576 15.896 194.707 15.9893 194.707 16.176L194.651 17.408C194.651 17.6693 194.875 17.8 195.323 17.8H198.515C198.702 17.8 198.795 18.024 198.795 18.472C198.795 18.92 198.702 19.144 198.515 19.144H195.743C195.239 19.144 194.922 19.1813 194.791 19.256C194.679 19.3307 194.623 19.5547 194.623 19.928V25.22C194.623 26.172 194.8 26.8533 195.155 27.264C195.51 27.656 195.948 27.852 196.471 27.852C197.404 27.852 198.104 27.6747 198.571 27.32C198.59 27.3013 198.618 27.292 198.655 27.292C198.786 27.292 198.851 27.4133 198.851 27.656C198.851 27.8053 198.702 28.0013 198.403 28.244ZM205.416 28.3C205.154 28.5427 204.762 28.7853 204.24 29.028C203.736 29.2707 203.176 29.392 202.56 29.392C202.149 29.392 201.748 29.28 201.356 29.056C200.982 28.8507 200.674 28.58 200.432 28.244C200.189 27.8893 200.068 27.5347 200.068 27.18C200.068 26.06 200.749 25.22 202.112 24.66L204.968 23.484C205.322 23.3347 205.537 23.204 205.612 23.092C205.686 22.98 205.733 22.7373 205.752 22.364L205.808 20.628V20.572C205.808 20.0867 205.649 19.6667 205.332 19.312C205.033 18.9573 204.688 18.78 204.296 18.78C203.885 18.78 203.502 18.8827 203.148 19.088C202.793 19.2747 202.569 19.452 202.476 19.62C202.382 19.8067 202.336 20.0027 202.336 20.208L202.364 20.6C202.364 20.712 202.233 20.8427 201.972 20.992C201.71 21.1413 201.43 21.2813 201.132 21.412C200.833 21.524 200.618 21.58 200.488 21.58C200.301 21.58 200.208 21.496 200.208 21.328C200.208 20.8987 200.357 20.488 200.656 20.096C200.954 19.704 201.337 19.3307 201.804 18.976C202.289 18.6213 202.793 18.304 203.316 18.024C204.081 17.6133 204.809 17.408 205.5 17.408C206.153 17.408 206.704 17.6507 207.152 18.136C207.6 18.6213 207.814 19.2093 207.796 19.9L207.656 25.948V26.116C207.656 27.4413 207.992 28.104 208.664 28.104C209.112 28.104 209.485 27.9733 209.784 27.712C209.821 27.6747 209.868 27.656 209.924 27.656C209.998 27.656 210.064 27.684 210.12 27.74C210.194 27.796 210.232 27.8707 210.232 27.964V27.992C210.157 28.1413 209.998 28.328 209.756 28.552C209.513 28.776 209.233 28.972 208.916 29.14C208.598 29.308 208.29 29.392 207.992 29.392C207.525 29.392 207.133 29.2707 206.816 29.028C206.517 28.7853 206.302 28.5427 206.172 28.3C206.041 28.0573 205.957 27.936 205.92 27.936C205.826 27.936 205.658 28.0573 205.416 28.3ZM202.308 26.564C202.308 27.0493 202.457 27.432 202.756 27.712C203.054 27.9733 203.418 28.104 203.848 28.104C204.277 28.104 204.688 27.936 205.08 27.6C205.472 27.264 205.677 26.8067 205.696 26.228L205.752 24.856V24.716C205.752 24.4173 205.668 24.268 205.5 24.268C205.388 24.268 205.257 24.296 205.108 24.352C203.241 24.9867 202.308 25.724 202.308 26.564ZM213.827 28.944L211.503 29.084C211.13 29.084 210.943 28.9907 210.943 28.804C210.943 28.636 211.158 28.4773 211.587 28.328C212.39 28.0853 212.791 27.6747 212.791 27.096V19.2C212.493 19.2 212.222 19.2 211.979 19.2C211.755 19.1813 211.541 19.1627 211.335 19.144C211.279 19.1253 211.195 19.06 211.083 18.948C210.99 18.836 210.943 18.7427 210.943 18.668C210.943 18.612 211.009 18.5467 211.139 18.472C211.289 18.4347 211.494 18.36 211.755 18.248C212.035 18.1173 212.381 17.9493 212.791 17.744C212.791 16.2133 212.987 14.8693 213.379 13.712C213.79 12.5547 214.322 11.668 214.975 11.052C216.245 9.83867 217.57 9.232 218.951 9.232C221.005 9.232 222.031 9.792 222.031 10.912C222.031 11.2107 221.938 11.472 221.751 11.696C221.565 11.92 221.369 12.032 221.163 12.032C220.958 12.032 220.753 11.948 220.547 11.78C220.342 11.612 220.146 11.416 219.959 11.192C219.773 10.9867 219.483 10.8 219.091 10.632C218.699 10.464 218.261 10.38 217.775 10.38C216.861 10.38 216.133 10.8187 215.591 11.696C215.069 12.5547 214.807 13.8893 214.807 15.7V17.184C214.807 17.5947 215.041 17.8 215.507 17.8H218.811C218.886 17.8 218.923 17.9027 218.923 18.108C218.923 18.332 218.886 18.5653 218.811 18.808C218.737 19.032 218.653 19.144 218.559 19.144H215.927C215.461 19.144 215.162 19.1813 215.031 19.256C214.882 19.3493 214.807 19.4707 214.807 19.62V27.096C214.826 27.6747 215.227 28.0853 216.011 28.328C216.441 28.4773 216.655 28.636 216.655 28.804C216.655 28.9907 216.469 29.084 216.095 29.084L213.827 28.944ZM222.359 28.944L220.035 29.084C219.661 29.084 219.475 28.9907 219.475 28.804C219.475 28.636 219.689 28.4773 220.119 28.328C220.921 28.0853 221.323 27.6747 221.323 27.096V19.2C221.024 19.2 220.753 19.2 220.511 19.2C220.287 19.1813 220.072 19.1627 219.867 19.144C219.811 19.1253 219.727 19.06 219.615 18.948C219.521 18.836 219.475 18.7427 219.475 18.668C219.475 18.612 219.54 18.5467 219.671 18.472C219.82 18.4347 220.025 18.36 220.287 18.248C220.567 18.1173 220.912 17.9493 221.323 17.744C221.323 16.2133 221.519 14.8693 221.911 13.712C222.321 12.5547 222.853 11.668 223.507 11.052C224.776 9.83867 226.101 9.232 227.483 9.232C229.536 9.232 230.563 9.792 230.563 10.912C230.563 11.2107 230.469 11.472 230.283 11.696C230.096 11.92 229.9 12.032 229.695 12.032C229.489 12.032 229.284 11.948 229.079 11.78C228.873 11.612 228.677 11.416 228.491 11.192C228.304 10.9867 228.015 10.8 227.623 10.632C227.231 10.464 226.792 10.38 226.307 10.38C225.392 10.38 224.664 10.8187 224.123 11.696C223.6 12.5547 223.339 13.8893 223.339 15.7V17.184C223.339 17.5947 223.572 17.8 224.039 17.8H227.343C227.417 17.8 227.455 17.9027 227.455 18.108C227.455 18.332 227.417 18.5653 227.343 18.808C227.268 19.032 227.184 19.144 227.091 19.144H224.459C223.992 19.144 223.693 19.1813 223.563 19.256C223.413 19.3493 223.339 19.4707 223.339 19.62V27.096C223.357 27.6747 223.759 28.0853 224.543 28.328C224.972 28.4773 225.187 28.636 225.187 28.804C225.187 28.9907 225 29.084 224.627 29.084L222.359 28.944Z" fill="black"/>
</svg>
