<svg width="207" height="247" viewBox="0 0 207 247" fill="none" xmlns="http://www.w3.org/2000/svg">
<path d="M75.4302 237.58C75.4302 237.96 75.1602 238.23 74.6202 238.39C74.1002 238.55 73.5602 238.63 73.0002 238.63C72.0602 238.63 71.2002 238.42 70.4202 238C69.6602 237.58 68.9802 237.06 68.3802 236.44C67.7802 235.82 67.2602 235.2 66.8202 234.58C66.3802 233.94 66.0202 233.41 65.7402 232.99C65.4602 232.57 65.2002 232.18 64.9602 231.82C64.7402 231.46 64.5502 231.14 64.3902 230.86C63.6902 229.78 62.4402 229.14 60.6402 228.94H60.5802C60.3202 228.94 60.1902 229.14 60.1902 229.54V234.7C60.1902 236.18 60.8602 237.04 62.2002 237.28C62.8602 237.4 63.1902 237.57 63.1902 237.79C63.1902 238.03 62.9002 238.15 62.3202 238.15C62.0402 238.15 61.7602 238.14 61.4802 238.12C61.2002 238.1 60.9302 238.07 60.6702 238.03C60.1702 237.97 59.7402 237.94 59.3802 237.94L55.4802 238.15C54.9002 238.15 54.6102 238.03 54.6102 237.79C54.6102 237.57 54.9702 237.39 55.6902 237.25C56.4102 237.13 56.9402 236.91 57.2802 236.59C57.6202 236.25 57.7902 235.72 57.7902 235V222.34C57.7902 221.38 57.6702 220.67 57.4302 220.21C57.1902 219.75 56.7202 219.46 56.0202 219.34C55.3202 219.22 54.9702 219.02 54.9702 218.74C54.9702 218.52 55.2602 218.41 55.8402 218.41L58.7802 218.44L62.2302 218.29C66.7302 218.29 68.9802 219.93 68.9802 223.21C68.9802 225.37 67.8002 227.05 65.4402 228.25C65.3602 228.29 65.3202 228.34 65.3202 228.4C65.3202 228.42 65.3302 228.45 65.3502 228.49C65.3902 228.53 65.4202 228.58 65.4402 228.64C65.9002 229.32 66.2702 229.88 66.5502 230.32C66.8302 230.74 67.0802 231.12 67.3002 231.46C67.5402 231.78 67.7902 232.1 68.0502 232.42C68.3102 232.74 68.6402 233.14 69.0402 233.62C69.4402 234.1 69.8402 234.56 70.2402 235C70.6602 235.44 71.0902 235.86 71.5302 236.26C72.0102 236.68 72.5002 236.95 73.0002 237.07C73.5002 237.19 74.1602 237.25 74.9802 237.25C75.2802 237.25 75.4302 237.36 75.4302 237.58ZM60.1902 227.08C60.1902 227.54 60.3102 227.83 60.5502 227.95C60.7902 228.07 61.2002 228.13 61.7802 228.13C62.6802 228.13 63.4602 227.93 64.1202 227.53C64.8002 227.13 65.3302 226.58 65.7102 225.88C66.0902 225.18 66.2802 224.4 66.2802 223.54C66.2802 222.24 65.9902 221.19 65.4102 220.39C64.8502 219.59 63.7902 219.19 62.2302 219.19C61.4702 219.19 60.9602 219.33 60.7002 219.61C60.4602 219.89 60.3302 220.29 60.3102 220.81C60.2702 221.79 60.2402 222.8 60.2202 223.84C60.2002 224.88 60.1902 225.96 60.1902 227.08ZM85.1338 235.87C85.0538 236.21 84.8038 236.58 84.3838 236.98C83.9638 237.38 83.4138 237.72 82.7338 238C82.0538 238.28 81.2738 238.42 80.3938 238.42C79.5138 238.42 78.6938 238.15 77.9338 237.61C77.1938 237.05 76.5938 236.29 76.1338 235.33C75.6938 234.37 75.4738 233.28 75.4738 232.06C75.4738 230.84 75.7338 229.74 76.2538 228.76C76.7938 227.78 77.5138 227.01 78.4138 226.45C79.3138 225.87 80.3238 225.58 81.4438 225.58C82.6438 225.58 83.5838 225.83 84.2638 226.33C84.9638 226.83 85.3138 227.51 85.3138 228.37C85.3138 229.23 85.0938 229.77 84.6538 229.99C84.2338 230.19 83.6838 230.29 83.0038 230.29H78.0838C77.8038 230.29 77.6038 230.36 77.4838 230.5C77.3838 230.62 77.3338 230.92 77.3338 231.4C77.3338 232.32 77.5338 233.18 77.9338 233.98C78.3338 234.78 78.8638 235.42 79.5238 235.9C80.2038 236.38 80.9638 236.62 81.8038 236.62C83.0238 236.62 83.9838 236.18 84.6838 235.3C84.8238 235.16 84.9338 235.09 85.0138 235.09C85.1538 235.09 85.2238 235.19 85.2238 235.39C85.2238 235.53 85.1938 235.69 85.1338 235.87ZM77.9038 228.91C77.9038 229.21 78.0938 229.36 78.4738 229.36H80.9338C81.3938 229.36 81.8038 229.35 82.1638 229.33C82.5438 229.29 82.8638 229.25 83.1238 229.21C83.3238 229.19 83.4238 228.9 83.4238 228.34C83.4238 227.8 83.1738 227.36 82.6738 227.02C82.1738 226.68 81.5738 226.51 80.8738 226.51C80.3938 226.51 79.9238 226.65 79.4638 226.93C79.0238 227.19 78.6538 227.51 78.3538 227.89C78.0538 228.25 77.9038 228.59 77.9038 228.91ZM89.8047 246.4L87.4047 246.55C86.9847 246.55 86.7747 246.45 86.7747 246.25C86.7747 246.07 87.0547 245.89 87.6147 245.71C88.1947 245.53 88.5247 245.34 88.6047 245.14C88.7047 244.94 88.7547 244.76 88.7547 244.6V229.39C88.7547 229.15 88.6947 228.88 88.5747 228.58C88.4747 228.26 88.3247 227.97 88.1247 227.71C87.9247 227.43 87.6747 227.26 87.3747 227.2C87.2147 227.16 87.1347 227.03 87.1347 226.81C87.1347 226.59 87.2047 226.47 87.3447 226.45C87.7647 226.35 88.2647 226.2 88.8447 226C89.4247 225.8 90.0847 225.55 90.8247 225.25L90.8547 225.22H90.8847C91.0047 225.22 91.0647 225.31 91.0647 225.49L90.9147 227.29C90.9147 227.45 90.9247 227.54 90.9447 227.56C91.2047 227.3 91.6047 227.02 92.1447 226.72C92.7047 226.42 93.3147 226.16 93.9747 225.94C94.6347 225.7 95.2447 225.58 95.8047 225.58C96.8047 225.58 97.6647 225.85 98.3847 226.39C99.1247 226.91 99.6947 227.6 100.095 228.46C100.515 229.32 100.725 230.25 100.725 231.25C100.725 232.17 100.545 233.06 100.185 233.92C99.8447 234.78 99.3647 235.55 98.7447 236.23C98.1247 236.89 97.4047 237.42 96.5847 237.82C95.7647 238.22 94.8947 238.42 93.9747 238.42C93.6947 238.42 93.3547 238.37 92.9547 238.27C92.5547 238.19 92.1747 238.08 91.8147 237.94C91.4547 237.78 91.1747 237.62 90.9747 237.46C90.8947 237.46 90.8547 237.97 90.8547 238.99V244.6C90.8547 244.9 90.9647 245.11 91.1847 245.23C91.4247 245.37 91.6047 245.46 91.7247 245.5C91.7647 245.52 91.8247 245.54 91.9047 245.56C92.0047 245.58 92.1047 245.6 92.2047 245.62C92.9247 245.8 93.2847 246.02 93.2847 246.28C93.2847 246.46 93.0647 246.55 92.6247 246.55L89.8047 246.4ZM91.7247 236.8C92.2247 237.26 93.1247 237.49 94.4247 237.49C95.1847 237.49 95.8747 237.21 96.4947 236.65C97.1347 236.09 97.6047 235.44 97.9047 234.7C98.1847 233.96 98.3247 233.09 98.3247 232.09C98.3247 231.09 98.1747 230.21 97.8747 229.45C97.5947 228.69 97.2247 228.14 96.7647 227.8C95.8847 227.22 95.0147 226.93 94.1547 226.93C93.2547 226.93 92.4947 227.16 91.8747 227.62C91.2747 228.08 90.9447 228.85 90.8847 229.93L90.8547 231.85V232.78C90.8547 233.58 90.8947 234.36 90.9747 235.12C91.0747 235.86 91.3247 236.42 91.7247 236.8ZM115.561 231.79C115.561 232.95 115.291 234.04 114.751 235.06C114.231 236.06 113.461 236.87 112.441 237.49C111.441 238.11 110.221 238.42 108.781 238.42C107.661 238.42 106.641 238.16 105.721 237.64C104.821 237.12 104.111 236.41 103.591 235.51C103.071 234.59 102.811 233.55 102.811 232.39C102.811 231.53 102.981 230.7 103.321 229.9C103.661 229.08 104.131 228.35 104.731 227.71C105.351 227.05 106.051 226.53 106.831 226.15C107.611 225.77 108.441 225.58 109.321 225.58C110.501 225.58 111.561 225.86 112.501 226.42C113.441 226.96 114.181 227.7 114.721 228.64C115.281 229.56 115.561 230.61 115.561 231.79ZM105.271 231.7C105.271 232.72 105.451 233.68 105.811 234.58C106.191 235.46 106.691 236.17 107.311 236.71C107.951 237.25 108.651 237.52 109.411 237.52C110.411 237.52 111.171 237.31 111.691 236.89C112.231 236.45 112.601 235.85 112.801 235.09C113.001 234.31 113.101 233.41 113.101 232.39C113.101 231.35 112.911 230.39 112.531 229.51C112.171 228.61 111.671 227.89 111.031 227.35C110.411 226.79 109.691 226.51 108.871 226.51C106.471 226.51 105.271 228.24 105.271 231.7ZM120.515 237.94L118.085 238.09C117.685 238.09 117.485 237.99 117.485 237.79C117.485 237.61 117.665 237.46 118.025 237.34C118.385 237.22 118.625 237.14 118.745 237.1C118.865 237.04 118.995 236.93 119.135 236.77C119.255 236.61 119.315 236.4 119.315 236.14V229.69C119.315 228.43 118.905 227.71 118.085 227.53C117.925 227.49 117.845 227.36 117.845 227.14C117.845 226.92 117.915 226.8 118.055 226.78C118.795 226.64 119.355 226.44 119.735 226.18C120.075 225.96 120.355 225.78 120.575 225.64C120.815 225.5 120.985 225.39 121.085 225.31C121.305 225.19 121.415 225.12 121.415 225.1H121.505C121.565 225.1 121.605 225.17 121.625 225.31C121.625 225.57 121.625 225.83 121.625 226.09C121.625 226.35 121.615 226.61 121.595 226.87C121.575 227.37 121.575 227.62 121.595 227.62C121.595 227.62 121.645 227.57 121.745 227.47C122.025 227.11 122.205 226.91 122.285 226.87C123.225 226.01 124.145 225.58 125.045 225.58C125.465 225.58 125.805 225.67 126.065 225.85C126.345 226.03 126.485 226.27 126.485 226.57C126.485 226.87 126.355 227.2 126.095 227.56C125.855 227.92 125.625 228.1 125.405 228.1C125.185 228.1 124.865 228.01 124.445 227.83C124.025 227.65 123.715 227.56 123.515 227.56C122.935 227.56 122.435 227.75 122.015 228.13C121.615 228.51 121.415 229.16 121.415 230.08V235.99C121.435 236.51 121.975 236.94 123.035 237.28C123.495 237.44 123.725 237.61 123.725 237.79C123.725 237.99 123.525 238.09 123.125 238.09L120.515 237.94ZM135.334 237.19C135.014 237.49 134.564 237.77 133.984 238.03C133.424 238.29 132.864 238.42 132.304 238.42C131.324 238.42 130.554 238.13 129.994 237.55C129.454 236.95 129.184 236.05 129.184 234.85V227.89C129.184 227.71 129.114 227.59 128.974 227.53C128.834 227.47 128.524 227.44 128.044 227.44C127.984 227.44 127.904 227.36 127.804 227.2C127.724 227.04 127.684 226.92 127.684 226.84C127.684 226.76 127.734 226.69 127.834 226.63C128.294 226.49 128.764 226.2 129.244 225.76C129.724 225.32 130.114 224.91 130.414 224.53C130.714 224.15 130.894 223.96 130.954 223.96C131.234 223.96 131.374 224.06 131.374 224.26L131.314 225.58C131.314 225.86 131.554 226 132.034 226H135.454C135.654 226 135.754 226.24 135.754 226.72C135.754 227.2 135.654 227.44 135.454 227.44H132.484C131.944 227.44 131.604 227.48 131.464 227.56C131.344 227.64 131.284 227.88 131.284 228.28V233.95C131.284 234.97 131.474 235.7 131.854 236.14C132.234 236.56 132.704 236.77 133.264 236.77C134.264 236.77 135.014 236.58 135.514 236.2C135.534 236.18 135.564 236.17 135.604 236.17C135.744 236.17 135.814 236.3 135.814 236.56C135.814 236.72 135.654 236.93 135.334 237.19ZM144.858 234.82C144.858 237.22 143.418 238.42 140.538 238.42C139.798 238.42 139.108 238.29 138.468 238.03C137.828 237.79 137.458 237.56 137.358 237.34C137.118 236.84 136.988 236.23 136.968 235.51C136.968 235.33 137.128 235.24 137.448 235.24C137.748 235.24 137.908 235.31 137.928 235.45C138.008 235.79 138.188 236.13 138.468 236.47C138.768 236.81 139.118 237.09 139.518 237.31C139.938 237.51 140.368 237.61 140.808 237.61C141.448 237.61 141.938 237.42 142.278 237.04C142.638 236.66 142.818 236.19 142.818 235.63C142.818 235.07 142.638 234.6 142.278 234.22C141.918 233.82 141.318 233.32 140.478 232.72C139.618 232.12 138.928 231.54 138.408 230.98C137.908 230.4 137.658 229.7 137.658 228.88C137.658 228.32 137.808 227.79 138.108 227.29C138.408 226.79 138.838 226.38 139.398 226.06C139.958 225.74 140.638 225.58 141.438 225.58C142.638 225.58 143.468 225.81 143.928 226.27C144.268 226.71 144.438 227.49 144.438 228.61C144.438 228.69 144.368 228.73 144.228 228.73C144.088 228.73 143.888 228.66 143.628 228.52C143.368 228.36 143.238 228.22 143.238 228.1C143.218 227.66 143.018 227.26 142.638 226.9C142.258 226.54 141.808 226.36 141.288 226.36C140.748 226.36 140.308 226.54 139.968 226.9C139.628 227.26 139.458 227.68 139.458 228.16C139.458 228.64 139.628 229.08 139.968 229.48C140.308 229.88 140.608 230.16 140.868 230.32C140.988 230.4 141.138 230.51 141.318 230.65C141.518 230.77 141.748 230.91 142.008 231.07C142.348 231.27 142.628 231.45 142.848 231.61C143.088 231.77 143.318 231.96 143.538 232.18C143.758 232.38 143.998 232.67 144.258 233.05C144.658 233.63 144.858 234.22 144.858 234.82Z" fill="white"/>
<rect x="1" y="1" width="204.75" height="198" rx="20" fill="#2ECC71" stroke="black" stroke-width="2"/>
<path d="M141.127 50.75H121.28C121.28 42.0629 114.16 35 105.402 35C96.6444 35 89.5242 42.0629 89.5242 50.75H69.6769C63.1025 50.75 57.7685 56.041 57.7685 62.5625V149.188C57.7685 155.709 63.1025 161 69.6769 161H141.127C147.702 161 153.036 155.709 153.036 149.188V62.5625C153.036 56.041 147.702 50.75 141.127 50.75ZM81.5853 139.344C78.2857 139.344 75.6311 136.711 75.6311 133.438C75.6311 130.164 78.2857 127.531 81.5853 127.531C84.8849 127.531 87.5395 130.164 87.5395 133.438C87.5395 136.711 84.8849 139.344 81.5853 139.344ZM81.5853 115.719C78.2857 115.719 75.6311 113.086 75.6311 109.812C75.6311 106.539 78.2857 103.906 81.5853 103.906C84.8849 103.906 87.5395 106.539 87.5395 109.812C87.5395 113.086 84.8849 115.719 81.5853 115.719ZM81.5853 92.0938C78.2857 92.0938 75.6311 89.4605 75.6311 86.1875C75.6311 82.9145 78.2857 80.2812 81.5853 80.2812C84.8849 80.2812 87.5395 82.9145 87.5395 86.1875C87.5395 89.4605 84.8849 92.0938 81.5853 92.0938ZM105.402 44.8438C108.702 44.8438 111.356 47.477 111.356 50.75C111.356 54.023 108.702 56.6562 105.402 56.6562C102.102 56.6562 99.4479 54.023 99.4479 50.75C99.4479 47.477 102.102 44.8438 105.402 44.8438ZM137.158 135.406C137.158 136.489 136.265 137.375 135.173 137.375H99.4479C98.3563 137.375 97.4631 136.489 97.4631 135.406V131.469C97.4631 130.386 98.3563 129.5 99.4479 129.5H135.173C136.265 129.5 137.158 130.386 137.158 131.469V135.406ZM137.158 111.781C137.158 112.864 136.265 113.75 135.173 113.75H99.4479C98.3563 113.75 97.4631 112.864 97.4631 111.781V107.844C97.4631 106.761 98.3563 105.875 99.4479 105.875H135.173C136.265 105.875 137.158 106.761 137.158 107.844V111.781ZM137.158 88.1562C137.158 89.2391 136.265 90.125 135.173 90.125H99.4479C98.3563 90.125 97.4631 89.2391 97.4631 88.1562V84.2188C97.4631 83.1359 98.3563 82.25 99.4479 82.25H135.173C136.265 82.25 137.158 83.1359 137.158 84.2188V88.1562Z" fill="#0D1B2A"/>
</svg>
