<svg width="207" height="266" viewBox="0 0 207 266" fill="none" xmlns="http://www.w3.org/2000/svg">
<path d="M86.9845 224.926C86.9845 227.246 85.5924 228.406 82.8084 228.406C82.0931 228.406 81.4261 228.28 80.8074 228.029C80.1888 227.797 79.8311 227.575 79.7344 227.362C79.5024 226.879 79.3768 226.289 79.3574 225.593C79.3574 225.419 79.5121 225.332 79.8214 225.332C80.1114 225.332 80.2661 225.4 80.2854 225.535C80.3628 225.864 80.5368 226.192 80.8074 226.521C81.0974 226.85 81.4358 227.12 81.8224 227.333C82.2284 227.526 82.6441 227.623 83.0694 227.623C83.6881 227.623 84.1618 227.439 84.4905 227.072C84.8384 226.705 85.0124 226.25 85.0124 225.709C85.0124 225.168 84.8384 224.713 84.4905 224.346C84.1425 223.959 83.5624 223.476 82.7504 222.896C81.9191 222.316 81.2521 221.755 80.7494 221.214C80.2661 220.653 80.0244 219.977 80.0244 219.184C80.0244 218.643 80.1694 218.13 80.4594 217.647C80.7494 217.164 81.1651 216.767 81.7064 216.458C82.2478 216.149 82.9051 215.994 83.6784 215.994C84.8384 215.994 85.6408 216.216 86.0855 216.661C86.4141 217.086 86.5785 217.84 86.5785 218.923C86.5785 219 86.5108 219.039 86.3755 219.039C86.2401 219.039 86.0468 218.971 85.7954 218.836C85.5441 218.681 85.4184 218.546 85.4184 218.43C85.3991 218.005 85.2058 217.618 84.8384 217.27C84.4711 216.922 84.0361 216.748 83.5334 216.748C83.0114 216.748 82.5861 216.922 82.2574 217.27C81.9288 217.618 81.7644 218.024 81.7644 218.488C81.7644 218.952 81.9288 219.377 82.2574 219.764C82.5861 220.151 82.8761 220.421 83.1274 220.576C83.2434 220.653 83.3884 220.76 83.5624 220.895C83.7558 221.011 83.9781 221.146 84.2295 221.301C84.5581 221.494 84.8288 221.668 85.0414 221.823C85.2734 221.978 85.4958 222.161 85.7085 222.374C85.9211 222.567 86.1531 222.848 86.4044 223.215C86.7911 223.776 86.9845 224.346 86.9845 224.926ZM96.2715 227.217C95.9621 227.507 95.5271 227.778 94.9665 228.029C94.4251 228.28 93.8838 228.406 93.3425 228.406C92.3951 228.406 91.6508 228.126 91.1095 227.565C90.5875 226.985 90.3265 226.115 90.3265 224.955V218.227C90.3265 218.053 90.2588 217.937 90.1235 217.879C89.9881 217.821 89.6885 217.792 89.2245 217.792C89.1665 217.792 89.0891 217.715 88.9925 217.56C88.9151 217.405 88.8765 217.289 88.8765 217.212C88.8765 217.135 88.9248 217.067 89.0215 217.009C89.4661 216.874 89.9205 216.593 90.3845 216.168C90.8485 215.743 91.2255 215.346 91.5155 214.979C91.8055 214.612 91.9795 214.428 92.0375 214.428C92.3081 214.428 92.4435 214.525 92.4435 214.718L92.3855 215.994C92.3855 216.265 92.6175 216.4 93.0815 216.4H96.3875C96.5808 216.4 96.6775 216.632 96.6775 217.096C96.6775 217.56 96.5808 217.792 96.3875 217.792H93.5165C92.9945 217.792 92.6658 217.831 92.5305 217.908C92.4145 217.985 92.3565 218.217 92.3565 218.604V224.085C92.3565 225.071 92.5401 225.777 92.9075 226.202C93.2748 226.608 93.7291 226.811 94.2705 226.811C95.2371 226.811 95.9621 226.627 96.4455 226.26C96.4648 226.241 96.4938 226.231 96.5325 226.231C96.6678 226.231 96.7355 226.357 96.7355 226.608C96.7355 226.763 96.5808 226.966 96.2715 227.217ZM103.535 227.275C103.264 227.526 102.858 227.778 102.317 228.029C101.795 228.28 101.215 228.406 100.577 228.406C100.151 228.406 99.7356 228.29 99.3296 228.058C98.9429 227.845 98.6239 227.565 98.3726 227.217C98.1213 226.85 97.9956 226.482 97.9956 226.115C97.9956 224.955 98.7013 224.085 100.113 223.505L103.071 222.287C103.438 222.132 103.66 221.997 103.738 221.881C103.815 221.765 103.863 221.514 103.883 221.127L103.941 219.329V219.271C103.941 218.768 103.776 218.333 103.448 217.966C103.138 217.599 102.781 217.415 102.375 217.415C101.949 217.415 101.553 217.521 101.186 217.734C100.818 217.927 100.586 218.111 100.49 218.285C100.393 218.478 100.345 218.681 100.345 218.894L100.374 219.3C100.374 219.416 100.238 219.551 99.9676 219.706C99.6969 219.861 99.4069 220.006 99.0976 220.141C98.7883 220.257 98.5659 220.315 98.4306 220.315C98.2373 220.315 98.1406 220.228 98.1406 220.054C98.1406 219.609 98.2953 219.184 98.6046 218.778C98.9139 218.372 99.3103 217.985 99.7936 217.618C100.296 217.251 100.818 216.922 101.36 216.632C102.152 216.207 102.906 215.994 103.622 215.994C104.298 215.994 104.869 216.245 105.333 216.748C105.797 217.251 106.019 217.86 106 218.575L105.855 224.839V225.013C105.855 226.386 106.203 227.072 106.899 227.072C107.363 227.072 107.749 226.937 108.059 226.666C108.097 226.627 108.146 226.608 108.204 226.608C108.281 226.608 108.349 226.637 108.407 226.695C108.484 226.753 108.523 226.83 108.523 226.927V226.956C108.445 227.111 108.281 227.304 108.03 227.536C107.778 227.768 107.488 227.971 107.16 228.145C106.831 228.319 106.512 228.406 106.203 228.406C105.719 228.406 105.313 228.28 104.985 228.029C104.675 227.778 104.453 227.526 104.318 227.275C104.182 227.024 104.095 226.898 104.057 226.898C103.96 226.898 103.786 227.024 103.535 227.275ZM100.316 225.477C100.316 225.98 100.47 226.376 100.78 226.666C101.089 226.937 101.466 227.072 101.911 227.072C102.355 227.072 102.781 226.898 103.187 226.55C103.593 226.202 103.805 225.728 103.825 225.129L103.883 223.708V223.563C103.883 223.254 103.796 223.099 103.622 223.099C103.506 223.099 103.37 223.128 103.216 223.186C101.282 223.843 100.316 224.607 100.316 225.477ZM112.247 227.942L109.84 228.087C109.453 228.087 109.26 227.99 109.26 227.797C109.26 227.623 109.482 227.459 109.927 227.304C110.758 227.053 111.174 226.627 111.174 226.028V217.85C110.864 217.85 110.584 217.85 110.333 217.85C110.101 217.831 109.878 217.811 109.666 217.792C109.608 217.773 109.521 217.705 109.405 217.589C109.308 217.473 109.26 217.376 109.26 217.299C109.26 217.241 109.327 217.173 109.463 217.096C109.617 217.057 109.83 216.98 110.101 216.864C110.391 216.729 110.748 216.555 111.174 216.342C111.174 214.757 111.377 213.365 111.783 212.166C112.208 210.967 112.759 210.049 113.436 209.411C114.75 208.154 116.123 207.526 117.554 207.526C119.68 207.526 120.744 208.106 120.744 209.266C120.744 209.575 120.647 209.846 120.454 210.078C120.26 210.31 120.057 210.426 119.845 210.426C119.632 210.426 119.419 210.339 119.207 210.165C118.994 209.991 118.791 209.788 118.598 209.556C118.404 209.343 118.105 209.15 117.699 208.976C117.293 208.802 116.838 208.715 116.336 208.715C115.388 208.715 114.634 209.169 114.074 210.078C113.532 210.967 113.262 212.35 113.262 214.225V215.762C113.262 216.187 113.503 216.4 113.987 216.4H117.409C117.486 216.4 117.525 216.506 117.525 216.719C117.525 216.951 117.486 217.193 117.409 217.444C117.331 217.676 117.244 217.792 117.148 217.792H114.422C113.938 217.792 113.629 217.831 113.494 217.908C113.339 218.005 113.262 218.13 113.262 218.285V226.028C113.281 226.627 113.697 227.053 114.509 227.304C114.953 227.459 115.176 227.623 115.176 227.797C115.176 227.99 114.982 228.087 114.596 228.087L112.247 227.942ZM121.083 227.942L118.676 228.087C118.289 228.087 118.096 227.99 118.096 227.797C118.096 227.623 118.318 227.459 118.763 227.304C119.594 227.053 120.01 226.627 120.01 226.028V217.85C119.7 217.85 119.42 217.85 119.169 217.85C118.937 217.831 118.714 217.811 118.502 217.792C118.444 217.773 118.357 217.705 118.241 217.589C118.144 217.473 118.096 217.376 118.096 217.299C118.096 217.241 118.163 217.173 118.299 217.096C118.453 217.057 118.666 216.98 118.937 216.864C119.227 216.729 119.584 216.555 120.01 216.342C120.01 214.757 120.213 213.365 120.619 212.166C121.044 210.967 121.595 210.049 122.272 209.411C123.586 208.154 124.959 207.526 126.39 207.526C128.516 207.526 129.58 208.106 129.58 209.266C129.58 209.575 129.483 209.846 129.29 210.078C129.096 210.31 128.893 210.426 128.681 210.426C128.468 210.426 128.255 210.339 128.043 210.165C127.83 209.991 127.627 209.788 127.434 209.556C127.24 209.343 126.941 209.15 126.535 208.976C126.129 208.802 125.674 208.715 125.172 208.715C124.224 208.715 123.47 209.169 122.91 210.078C122.368 210.967 122.098 212.35 122.098 214.225V215.762C122.098 216.187 122.339 216.4 122.823 216.4H126.245C126.322 216.4 126.361 216.506 126.361 216.719C126.361 216.951 126.322 217.193 126.245 217.444C126.167 217.676 126.08 217.792 125.984 217.792H123.258C122.774 217.792 122.465 217.831 122.33 217.908C122.175 218.005 122.098 218.13 122.098 218.285V226.028C122.117 226.627 122.533 227.053 123.345 227.304C123.789 227.459 124.012 227.623 124.012 227.797C124.012 227.99 123.818 228.087 123.432 228.087L121.083 227.942ZM64.2027 257.058C63.4294 257.387 62.9847 257.551 62.8687 257.551C62.714 257.551 62.6367 257.512 62.6367 257.435L62.7817 255.521V255.347C62.4337 255.888 61.931 256.372 61.2737 256.797C60.6164 257.203 59.8527 257.406 58.9827 257.406C57.9387 257.406 57.0107 257.126 56.1987 256.565C55.3867 256.004 54.7487 255.27 54.2847 254.361C53.84 253.433 53.6177 252.418 53.6177 251.316C53.6177 250.214 53.8884 249.18 54.4297 248.213C54.971 247.246 55.7347 246.473 56.7207 245.893C57.7067 245.294 58.8474 244.994 60.1427 244.994C60.4134 244.994 60.7034 245.033 61.0127 245.11C61.3414 245.168 61.641 245.245 61.9117 245.342C62.1824 245.439 62.3564 245.535 62.4337 245.632C62.5497 245.787 62.6464 245.864 62.7237 245.864C62.7817 245.864 62.8107 245.632 62.8107 245.168V240.586C62.8107 239.851 62.6947 239.349 62.4627 239.078C62.25 238.788 61.873 238.585 61.3317 238.469C61.177 238.43 61.0997 238.305 61.0997 238.092C61.0997 237.879 61.1674 237.763 61.3027 237.744C61.6894 237.647 62.0664 237.541 62.4337 237.425C62.8204 237.309 63.1974 237.174 63.5647 237.019C64.3187 236.729 64.7537 236.584 64.8697 236.584C64.9664 236.584 65.0244 236.623 65.0437 236.7C65.0437 236.739 65.0437 236.806 65.0437 236.903C65.0437 237 65.034 237.125 65.0147 237.28C64.8987 238.382 64.8407 239.523 64.8407 240.702V253.81C64.8407 255.067 65.0437 255.695 65.4497 255.695C66.049 255.695 66.4937 255.666 66.7837 255.608H66.8707C67.1027 255.608 67.2187 255.724 67.2187 255.956C67.2187 256.246 67.0834 256.391 66.8127 256.391C66.31 256.468 65.8364 256.565 65.3917 256.681C64.9664 256.778 64.57 256.903 64.2027 257.058ZM57.4457 255.115C58.335 255.772 59.1954 256.101 60.0267 256.101C60.8387 256.101 61.5057 255.85 62.0277 255.347C62.5497 254.844 62.8107 254.235 62.8107 253.52V249.605C62.8107 249.006 62.656 248.435 62.3467 247.894C62.0567 247.353 61.641 246.908 61.0997 246.56C60.5777 246.193 59.959 246.009 59.2437 246.009C58.5477 246.009 57.9194 246.251 57.3587 246.734C56.798 247.198 56.392 247.768 56.1407 248.445C55.8894 249.083 55.7637 249.905 55.7637 250.91C55.7637 251.877 55.9184 252.737 56.2277 253.491C56.5564 254.226 56.9624 254.767 57.4457 255.115ZM72.1736 240.673C72.1543 241.079 72.0093 241.417 71.7386 241.688C71.4679 241.959 71.1199 242.104 70.6946 242.123C70.2693 242.104 69.9213 241.959 69.6506 241.688C69.3799 241.417 69.2446 241.069 69.2446 240.644C69.2446 240.219 69.3799 239.871 69.6506 239.6C69.9213 239.329 70.2693 239.194 70.6946 239.194C71.1199 239.194 71.4679 239.329 71.7386 239.6C72.0093 239.871 72.1543 240.228 72.1736 240.673ZM70.8976 256.942L68.5486 257.087C68.1619 257.087 67.9686 256.99 67.9686 256.797C67.9686 256.623 68.2393 256.449 68.7806 256.275C69.3413 256.101 69.6603 255.917 69.7376 255.724C69.8343 255.531 69.8826 255.357 69.8826 255.202V248.909C69.8826 247.71 69.4283 247.005 68.5196 246.792C68.3649 246.753 68.2876 246.628 68.2876 246.415C68.2876 246.202 68.3553 246.086 68.4906 246.067C69.4186 245.835 70.4046 245.381 71.4486 244.704C71.7579 244.511 71.9319 244.414 71.9706 244.414C72.1059 244.414 72.1736 244.462 72.1736 244.559C71.9996 246.318 71.9126 247.623 71.9126 248.474V255.202C71.9126 255.589 72.0286 255.84 72.2606 255.956C72.5119 256.072 72.8406 256.198 73.2466 256.333C73.6333 256.488 73.8266 256.642 73.8266 256.797C73.8266 256.99 73.6333 257.087 73.2466 257.087L70.8976 256.942ZM78.151 256.942L75.802 257.087C75.4153 257.087 75.222 256.99 75.222 256.797C75.222 256.623 75.396 256.478 75.744 256.362C76.092 256.246 76.324 256.169 76.44 256.13C76.556 256.072 76.6817 255.966 76.817 255.811C76.933 255.656 76.991 255.453 76.991 255.202V248.967C76.991 247.749 76.5947 247.053 75.802 246.879C75.6473 246.84 75.57 246.715 75.57 246.502C75.57 246.289 75.6377 246.173 75.773 246.154C76.4883 246.019 77.0297 245.825 77.397 245.574C77.7257 245.361 77.9963 245.187 78.209 245.052C78.441 244.917 78.6053 244.81 78.702 244.733C78.9147 244.617 79.021 244.549 79.021 244.53H79.108C79.166 244.53 79.2047 244.598 79.224 244.733C79.224 244.984 79.224 245.236 79.224 245.487C79.224 245.738 79.2143 245.99 79.195 246.241C79.1757 246.724 79.1757 246.966 79.195 246.966C79.195 246.966 79.2433 246.918 79.34 246.821C79.6107 246.473 79.7847 246.28 79.862 246.241C80.7707 245.41 81.66 244.994 82.53 244.994C82.936 244.994 83.2647 245.081 83.516 245.255C83.7867 245.429 83.922 245.661 83.922 245.951C83.922 246.241 83.7963 246.56 83.545 246.908C83.313 247.256 83.0907 247.43 82.878 247.43C82.6653 247.43 82.356 247.343 81.95 247.169C81.544 246.995 81.2443 246.908 81.051 246.908C80.4903 246.908 80.007 247.092 79.601 247.459C79.2143 247.826 79.021 248.455 79.021 249.344V255.057C79.0403 255.56 79.5623 255.975 80.587 256.304C81.0317 256.459 81.254 256.623 81.254 256.797C81.254 256.99 81.0607 257.087 80.674 257.087L78.151 256.942ZM94.2746 254.941C94.1972 255.27 93.9556 255.627 93.5496 256.014C93.1436 256.401 92.6119 256.729 91.9546 257C91.2972 257.271 90.5432 257.406 89.6926 257.406C88.8419 257.406 88.0492 257.145 87.3146 256.623C86.5992 256.082 86.0192 255.347 85.5746 254.419C85.1492 253.491 84.9366 252.437 84.9366 251.258C84.9366 250.079 85.1879 249.015 85.6906 248.068C86.2126 247.121 86.9086 246.376 87.7786 245.835C88.6486 245.274 89.6249 244.994 90.7076 244.994C91.8676 244.994 92.7762 245.236 93.4336 245.719C94.1102 246.202 94.4486 246.86 94.4486 247.691C94.4486 248.522 94.2359 249.044 93.8106 249.257C93.4046 249.45 92.8729 249.547 92.2156 249.547H87.4596C87.1889 249.547 86.9956 249.615 86.8796 249.75C86.7829 249.866 86.7346 250.156 86.7346 250.62C86.7346 251.509 86.9279 252.341 87.3146 253.114C87.7012 253.887 88.2136 254.506 88.8516 254.97C89.5089 255.434 90.2436 255.666 91.0556 255.666C92.2349 255.666 93.1629 255.241 93.8396 254.39C93.9749 254.255 94.0812 254.187 94.1586 254.187C94.2939 254.187 94.3616 254.284 94.3616 254.477C94.3616 254.612 94.3326 254.767 94.2746 254.941ZM87.2856 248.213C87.2856 248.503 87.4692 248.648 87.8366 248.648H90.2146C90.6592 248.648 91.0556 248.638 91.4036 248.619C91.7709 248.58 92.0802 248.542 92.3316 248.503C92.5249 248.484 92.6216 248.203 92.6216 247.662C92.6216 247.14 92.3799 246.715 91.8966 246.386C91.4132 246.057 90.8332 245.893 90.1566 245.893C89.6926 245.893 89.2382 246.028 88.7936 246.299C88.3682 246.55 88.0106 246.86 87.7206 247.227C87.4306 247.575 87.2856 247.904 87.2856 248.213ZM106.098 254.709C106.098 255.096 105.866 255.502 105.402 255.927C104.938 256.333 104.319 256.681 103.546 256.971C102.792 257.261 101.98 257.406 101.11 257.406C100.24 257.406 99.4374 257.155 98.7027 256.652C97.9874 256.13 97.4074 255.434 96.9627 254.564C96.5374 253.675 96.3247 252.669 96.3247 251.548C96.3247 250.427 96.5954 249.373 97.1367 248.387C97.678 247.382 98.403 246.57 99.3117 245.951C100.22 245.332 101.226 245.023 102.328 245.023C103.971 245.023 105.17 245.487 105.924 246.415C106.02 246.57 106.069 246.715 106.069 246.85C106.069 247.024 105.924 247.217 105.634 247.43C105.363 247.643 105.112 247.749 104.88 247.749C104.648 247.749 104.435 247.652 104.242 247.459C103.894 247.072 103.604 246.782 103.372 246.589C103.14 246.396 102.888 246.27 102.618 246.212C102.347 246.135 101.98 246.096 101.516 246.096C100.51 246.096 99.7274 246.531 99.1667 247.401C98.606 248.252 98.3257 249.334 98.3257 250.649C98.3257 251.519 98.519 252.36 98.9057 253.172C99.3117 253.965 99.8627 254.622 100.559 255.144C101.255 255.647 102.047 255.898 102.937 255.898C103.517 255.898 103.981 255.792 104.329 255.579C104.696 255.347 105.083 254.97 105.489 254.448C105.585 254.351 105.672 254.303 105.75 254.303C105.827 254.303 105.904 254.351 105.982 254.448C106.059 254.525 106.098 254.612 106.098 254.709ZM114.651 256.217C114.342 256.507 113.907 256.778 113.346 257.029C112.805 257.28 112.264 257.406 111.722 257.406C110.775 257.406 110.031 257.126 109.489 256.565C108.967 255.985 108.706 255.115 108.706 253.955V247.227C108.706 247.053 108.639 246.937 108.503 246.879C108.368 246.821 108.068 246.792 107.604 246.792C107.546 246.792 107.469 246.715 107.372 246.56C107.295 246.405 107.256 246.289 107.256 246.212C107.256 246.135 107.305 246.067 107.401 246.009C107.846 245.874 108.3 245.593 108.764 245.168C109.228 244.743 109.605 244.346 109.895 243.979C110.185 243.612 110.359 243.428 110.417 243.428C110.688 243.428 110.823 243.525 110.823 243.718L110.765 244.994C110.765 245.265 110.997 245.4 111.461 245.4H114.767C114.961 245.4 115.057 245.632 115.057 246.096C115.057 246.56 114.961 246.792 114.767 246.792H111.896C111.374 246.792 111.046 246.831 110.91 246.908C110.794 246.985 110.736 247.217 110.736 247.604V253.085C110.736 254.071 110.92 254.777 111.287 255.202C111.655 255.608 112.109 255.811 112.65 255.811C113.617 255.811 114.342 255.627 114.825 255.26C114.845 255.241 114.874 255.231 114.912 255.231C115.048 255.231 115.115 255.357 115.115 255.608C115.115 255.763 114.961 255.966 114.651 256.217ZM128.7 250.997C128.7 252.118 128.439 253.172 127.917 254.158C127.415 255.125 126.67 255.908 125.684 256.507C124.718 257.106 123.538 257.406 122.146 257.406C121.064 257.406 120.078 257.155 119.188 256.652C118.318 256.149 117.632 255.463 117.129 254.593C116.627 253.704 116.375 252.698 116.375 251.577C116.375 250.746 116.54 249.943 116.868 249.17C117.197 248.377 117.651 247.672 118.231 247.053C118.831 246.415 119.507 245.912 120.261 245.545C121.015 245.178 121.818 244.994 122.668 244.994C123.809 244.994 124.834 245.265 125.742 245.806C126.651 246.328 127.366 247.043 127.888 247.952C128.43 248.841 128.7 249.856 128.7 250.997ZM118.753 250.91C118.753 251.896 118.927 252.824 119.275 253.694C119.643 254.545 120.126 255.231 120.725 255.753C121.344 256.275 122.021 256.536 122.755 256.536C123.722 256.536 124.457 256.333 124.959 255.927C125.481 255.502 125.839 254.922 126.032 254.187C126.226 253.433 126.322 252.563 126.322 251.577C126.322 250.572 126.139 249.644 125.771 248.793C125.423 247.923 124.94 247.227 124.321 246.705C123.722 246.164 123.026 245.893 122.233 245.893C119.913 245.893 118.753 247.565 118.753 250.91ZM133.489 256.942L131.14 257.087C130.753 257.087 130.56 256.99 130.56 256.797C130.56 256.623 130.734 256.478 131.082 256.362C131.43 256.246 131.662 256.169 131.778 256.13C131.894 256.072 132.02 255.966 132.155 255.811C132.271 255.656 132.329 255.453 132.329 255.202V248.967C132.329 247.749 131.933 247.053 131.14 246.879C130.985 246.84 130.908 246.715 130.908 246.502C130.908 246.289 130.976 246.173 131.111 246.154C131.826 246.019 132.368 245.825 132.735 245.574C133.064 245.361 133.334 245.187 133.547 245.052C133.779 244.917 133.943 244.81 134.04 244.733C134.253 244.617 134.359 244.549 134.359 244.53H134.446C134.504 244.53 134.543 244.598 134.562 244.733C134.562 244.984 134.562 245.236 134.562 245.487C134.562 245.738 134.552 245.99 134.533 246.241C134.514 246.724 134.514 246.966 134.533 246.966C134.533 246.966 134.581 246.918 134.678 246.821C134.949 246.473 135.123 246.28 135.2 246.241C136.109 245.41 136.998 244.994 137.868 244.994C138.274 244.994 138.603 245.081 138.854 245.255C139.125 245.429 139.26 245.661 139.26 245.951C139.26 246.241 139.134 246.56 138.883 246.908C138.651 247.256 138.429 247.43 138.216 247.43C138.003 247.43 137.694 247.343 137.288 247.169C136.882 246.995 136.582 246.908 136.389 246.908C135.828 246.908 135.345 247.092 134.939 247.459C134.552 247.826 134.359 248.455 134.359 249.344V255.057C134.378 255.56 134.9 255.975 135.925 256.304C136.37 256.459 136.592 256.623 136.592 256.797C136.592 256.99 136.399 257.087 136.012 257.087L133.489 256.942ZM144.334 261.234C144.044 261.949 143.774 262.616 143.522 263.235C143.29 263.854 143.01 264.347 142.681 264.714C142.353 265.081 141.879 265.265 141.26 265.265C140.893 265.265 140.555 265.168 140.245 264.975C139.936 264.782 139.781 264.53 139.781 264.221C139.781 263.641 140.042 263.351 140.564 263.351L141.724 263.525C141.937 263.525 142.121 263.419 142.275 263.206C142.72 262.433 143.165 261.563 143.609 260.596C144.054 259.649 144.489 258.605 144.914 257.464C144.972 257.29 145.001 257.048 145.001 256.739C145.001 256.391 144.963 256.13 144.885 255.956L141.521 247.459C141.193 246.647 140.758 246.173 140.216 246.038C139.772 245.883 139.549 245.709 139.549 245.516C139.549 245.342 139.743 245.255 140.129 245.255L142.246 245.4L144.45 245.255C144.837 245.255 145.03 245.361 145.03 245.574C145.03 245.845 144.75 246.057 144.189 246.212C143.803 246.328 143.609 246.637 143.609 247.14C143.609 247.275 143.687 247.546 143.841 247.952L146.132 253.636C146.19 253.81 146.258 253.897 146.335 253.897C146.413 253.897 146.49 253.8 146.567 253.607L148.51 248.445C148.665 248.078 148.742 247.662 148.742 247.198C148.742 246.715 148.51 246.376 148.046 246.183C147.563 245.99 147.321 245.787 147.321 245.574C147.321 245.361 147.515 245.255 147.901 245.255L149.96 245.4L151.671 245.255C152.058 245.255 152.251 245.342 152.251 245.516C152.251 245.709 152.068 245.864 151.7 245.98C151.333 246.115 150.985 246.367 150.656 246.734C150.328 247.101 150.067 247.517 149.873 247.981L145.929 257.377L145.465 258.537C145.156 259.252 144.779 260.151 144.334 261.234Z" fill="white"/>
<rect x="1" y="1" width="204.75" height="198" rx="20" fill="#2ECC71" stroke="black" stroke-width="2"/>
<path d="M151.389 41H56.3748C47.6322 41 40.5392 46.249 40.5392 52.7188V154.281C40.5392 160.751 47.6322 166 56.3748 166H151.389C160.131 166 167.224 160.751 167.224 154.281V52.7188C167.224 46.249 160.131 41 151.389 41ZM103.882 72.25C115.528 72.25 124.996 79.2568 124.996 87.875C124.996 96.4932 115.528 103.5 103.882 103.5C92.2359 103.5 82.7675 96.4932 82.7675 87.875C82.7675 79.2568 92.2359 72.25 103.882 72.25ZM140.832 130.062C140.832 132.65 137.532 134.75 133.442 134.75H74.3219C70.231 134.75 66.9319 132.65 66.9319 130.062V125.375C66.9319 117.611 76.8622 111.312 89.1018 111.312H90.7513C94.8092 112.558 99.23 113.266 103.882 113.266C108.533 113.266 112.987 112.558 117.012 111.312H118.662C130.901 111.312 140.832 117.611 140.832 125.375V130.062Z" fill="#0D1B2A"/>
</svg>
