<svg width="431" height="175" viewBox="0 0 431 175" fill="none" xmlns="http://www.w3.org/2000/svg">
<path d="M261.237 90.96C261.237 92.3093 260.899 93.5707 260.225 94.744C259.55 95.9173 258.538 96.8707 257.189 97.604C255.839 98.3373 254.138 98.704 252.085 98.704C249.65 98.704 247.685 98.352 246.189 97.648C245.719 97.4427 245.411 97.1933 245.265 96.9C244.737 95.7853 244.473 94.0987 244.473 91.84C244.473 91.6053 244.561 91.3413 244.737 91.048C244.942 90.7253 245.177 90.564 245.441 90.564C245.675 90.564 246.101 91.532 246.717 93.468C247.567 95.9907 249.547 97.252 252.657 97.252C254.153 97.252 255.341 96.7973 256.221 95.888C257.101 94.9787 257.541 93.7467 257.541 92.192C257.541 89.728 255.311 87 250.853 84.008C249.063 82.8053 247.685 81.588 246.717 80.356C245.749 79.124 245.265 77.6133 245.265 75.824C245.265 74.6213 245.646 73.492 246.409 72.436C247.171 71.3507 248.213 70.4707 249.533 69.796C250.882 69.1213 252.407 68.784 254.109 68.784C255.634 68.784 256.851 68.9307 257.761 69.224C258.67 69.5173 259.198 69.664 259.345 69.664C259.638 69.664 259.858 69.9427 260.005 70.5C260.181 71.0573 260.298 71.7027 260.357 72.436C260.445 73.14 260.489 73.756 260.489 74.284C260.489 75.076 260.386 75.472 260.181 75.472C259.33 75.472 258.817 75.0613 258.641 74.24C258.435 72.9787 257.878 71.996 256.969 71.292C256.059 70.588 254.945 70.236 253.625 70.236C252.275 70.236 251.102 70.676 250.105 71.556C249.137 72.4067 248.653 73.5507 248.653 74.988C248.653 75.868 248.975 76.7187 249.621 77.54C250.266 78.332 251.043 79.0653 251.953 79.74C252.862 80.3853 253.713 80.972 254.505 81.5C258.993 84.404 261.237 87.5573 261.237 90.96ZM281.294 98.088C280.12 98.5867 279.446 98.836 279.27 98.836C279.035 98.836 278.918 98.7773 278.918 98.66L279.138 95.756V95.492C276.996 97.5747 274.576 98.616 271.878 98.616C270.382 98.616 269.164 98.1613 268.226 97.252C267.316 96.3427 266.862 95.052 266.862 93.38V84.448C266.862 83.2453 266.231 82.4093 264.97 81.94C264.588 81.8227 264.398 81.5733 264.398 81.192C264.398 80.84 264.618 80.62 265.058 80.532C265.556 80.5027 266.187 80.4293 266.95 80.312C267.712 80.1947 268.592 80.0187 269.59 79.784H269.678C270.088 79.784 270.264 79.9893 270.206 80.4C270.03 81.7493 269.942 82.8787 269.942 83.788V92.368C269.942 93.072 270.118 93.732 270.47 94.348C270.822 94.9347 271.276 95.4187 271.834 95.8C272.42 96.1813 273.022 96.372 273.638 96.372C275.339 96.372 276.703 95.9907 277.73 95.228C278.786 94.436 279.314 93.424 279.314 92.192V84.14C279.314 83.348 279.006 82.7907 278.39 82.468C277.774 82.1453 277.128 81.9693 276.454 81.94C275.779 81.94 275.442 81.6907 275.442 81.192C275.442 80.9573 275.574 80.7813 275.838 80.664C275.955 80.6053 276.102 80.576 276.278 80.576C276.483 80.5467 276.718 80.5173 276.982 80.488C278.126 80.488 279.108 80.4147 279.93 80.268C280.34 80.2093 280.604 80.1653 280.722 80.136C280.927 80.136 281.396 80.004 282.13 79.74H282.218C282.599 79.74 282.79 79.916 282.79 80.268C282.79 80.3853 282.746 80.532 282.658 80.708C282.482 81.0013 282.394 81.984 282.394 83.656V92.984C282.394 95.008 282.658 96.02 283.186 96.02C284.095 96.02 284.77 95.976 285.21 95.888H285.342C285.694 95.888 285.87 96.064 285.87 96.416C285.87 96.856 285.664 97.076 285.254 97.076C284.491 97.1933 283.772 97.34 283.098 97.516C282.452 97.6627 281.851 97.8533 281.294 98.088ZM291.605 110.32L288.085 110.54C287.469 110.54 287.161 110.393 287.161 110.1C287.161 109.836 287.572 109.572 288.393 109.308C289.244 109.044 289.728 108.765 289.845 108.472C289.992 108.179 290.065 107.915 290.065 107.68V85.372C290.065 85.02 289.977 84.624 289.801 84.184C289.654 83.7147 289.434 83.2893 289.141 82.908C288.848 82.4973 288.481 82.248 288.041 82.16C287.806 82.1013 287.689 81.9107 287.689 81.588C287.689 81.2653 287.792 81.0893 287.997 81.06C288.613 80.9133 289.346 80.6933 290.197 80.4C291.048 80.1067 292.016 79.74 293.101 79.3L293.145 79.256H293.189C293.365 79.256 293.453 79.388 293.453 79.652L293.233 82.292C293.233 82.5267 293.248 82.6587 293.277 82.688C293.658 82.3067 294.245 81.896 295.037 81.456C295.858 81.016 296.753 80.6347 297.721 80.312C298.689 79.96 299.584 79.784 300.405 79.784C301.872 79.784 303.133 80.18 304.189 80.972C305.274 81.7347 306.11 82.7467 306.697 84.008C307.313 85.2693 307.621 86.6333 307.621 88.1C307.621 89.4493 307.357 90.7547 306.829 92.016C306.33 93.2773 305.626 94.4067 304.717 95.404C303.808 96.372 302.752 97.1493 301.549 97.736C300.346 98.3227 299.07 98.616 297.721 98.616C297.31 98.616 296.812 98.5427 296.225 98.396C295.638 98.2787 295.081 98.1173 294.553 97.912C294.025 97.6773 293.614 97.4427 293.321 97.208C293.204 97.208 293.145 97.956 293.145 99.452V107.68C293.145 108.12 293.306 108.428 293.629 108.604C293.981 108.809 294.245 108.941 294.421 109C294.48 109.029 294.568 109.059 294.685 109.088C294.832 109.117 294.978 109.147 295.125 109.176C296.181 109.44 296.709 109.763 296.709 110.144C296.709 110.408 296.386 110.54 295.741 110.54L291.605 110.32ZM294.421 96.24C295.154 96.9147 296.474 97.252 298.381 97.252C299.496 97.252 300.508 96.8413 301.417 96.02C302.356 95.1987 303.045 94.2453 303.485 93.16C303.896 92.0747 304.101 90.7987 304.101 89.332C304.101 87.8653 303.881 86.5747 303.441 85.46C303.03 84.3453 302.488 83.5387 301.813 83.04C300.522 82.1893 299.246 81.764 297.985 81.764C296.665 81.764 295.55 82.1013 294.641 82.776C293.761 83.4507 293.277 84.58 293.189 86.164L293.145 88.98V90.344C293.145 91.5173 293.204 92.6613 293.321 93.776C293.468 94.8613 293.834 95.6827 294.421 96.24ZM324.629 94.876C324.512 95.3747 324.145 95.9173 323.529 96.504C322.913 97.0907 322.107 97.5893 321.109 98C320.112 98.4107 318.968 98.616 317.677 98.616C316.387 98.616 315.184 98.22 314.069 97.428C312.984 96.6067 312.104 95.492 311.429 94.084C310.784 92.676 310.461 91.0773 310.461 89.288C310.461 87.4987 310.843 85.8853 311.605 84.448C312.397 83.0107 313.453 81.8813 314.773 81.06C316.093 80.2093 317.575 79.784 319.217 79.784C320.977 79.784 322.356 80.1507 323.353 80.884C324.38 81.6173 324.893 82.6147 324.893 83.876C324.893 85.1373 324.571 85.9293 323.925 86.252C323.309 86.5453 322.503 86.692 321.505 86.692H314.289C313.879 86.692 313.585 86.7947 313.409 87C313.263 87.176 313.189 87.616 313.189 88.32C313.189 89.6693 313.483 90.9307 314.069 92.104C314.656 93.2773 315.433 94.216 316.401 94.92C317.399 95.624 318.513 95.976 319.745 95.976C321.535 95.976 322.943 95.3307 323.969 94.04C324.175 93.8347 324.336 93.732 324.453 93.732C324.659 93.732 324.761 93.8787 324.761 94.172C324.761 94.3773 324.717 94.612 324.629 94.876ZM314.025 84.668C314.025 85.108 314.304 85.328 314.861 85.328H318.469C319.144 85.328 319.745 85.3133 320.273 85.284C320.831 85.2253 321.3 85.1667 321.681 85.108C321.975 85.0787 322.121 84.6533 322.121 83.832C322.121 83.04 321.755 82.3947 321.021 81.896C320.288 81.3973 319.408 81.148 318.381 81.148C317.677 81.148 316.988 81.3533 316.313 81.764C315.668 82.1453 315.125 82.6147 314.685 83.172C314.245 83.7 314.025 84.1987 314.025 84.668ZM331.92 97.912L328.356 98.132C327.769 98.132 327.476 97.9853 327.476 97.692C327.476 97.428 327.74 97.208 328.268 97.032C328.796 96.856 329.148 96.7387 329.324 96.68C329.5 96.592 329.691 96.4307 329.896 96.196C330.072 95.9613 330.16 95.6533 330.16 95.272V85.812C330.16 83.964 329.559 82.908 328.356 82.644C328.121 82.5853 328.004 82.3947 328.004 82.072C328.004 81.7493 328.107 81.5733 328.312 81.544C329.397 81.3387 330.219 81.0453 330.776 80.664C331.275 80.3413 331.685 80.0773 332.008 79.872C332.36 79.6667 332.609 79.5053 332.756 79.388C333.079 79.212 333.24 79.1093 333.24 79.08H333.372C333.46 79.08 333.519 79.1827 333.548 79.388C333.548 79.7693 333.548 80.1507 333.548 80.532C333.548 80.9133 333.533 81.2947 333.504 81.676C333.475 82.4093 333.475 82.776 333.504 82.776C333.504 82.776 333.577 82.7027 333.724 82.556C334.135 82.028 334.399 81.7347 334.516 81.676C335.895 80.4147 337.244 79.784 338.564 79.784C339.18 79.784 339.679 79.916 340.06 80.18C340.471 80.444 340.676 80.796 340.676 81.236C340.676 81.676 340.485 82.16 340.104 82.688C339.752 83.216 339.415 83.48 339.092 83.48C338.769 83.48 338.3 83.348 337.684 83.084C337.068 82.82 336.613 82.688 336.32 82.688C335.469 82.688 334.736 82.9667 334.12 83.524C333.533 84.0813 333.24 85.0347 333.24 86.384V95.052C333.269 95.8147 334.061 96.4453 335.616 96.944C336.291 97.1787 336.628 97.428 336.628 97.692C336.628 97.9853 336.335 98.132 335.748 98.132L331.92 97.912ZM351.587 96.988C350.942 98.308 350.546 98.968 350.399 98.968C350.223 98.968 349.93 98.396 349.519 97.252L344.151 83.524C343.682 82.3507 343.007 81.632 342.127 81.368C341.453 81.1333 341.115 80.8693 341.115 80.576C341.115 80.312 341.409 80.18 341.995 80.18L345.207 80.4L348.507 80.18C349.094 80.18 349.387 80.312 349.387 80.576C349.387 80.8693 349.05 81.1333 348.375 81.368C347.789 81.544 347.495 82.1453 347.495 83.172C347.495 83.7 347.554 84.096 347.671 84.36L350.927 93.116C351.074 93.4387 351.162 93.6 351.191 93.6C351.25 93.6 351.338 93.4533 351.455 93.16L354.623 85.02C354.829 84.5213 354.931 83.9933 354.931 83.436C354.931 82.2627 354.565 81.5733 353.831 81.368C353.157 81.1333 352.819 80.8693 352.819 80.576C352.819 80.312 353.113 80.18 353.699 80.18L356.911 80.4C357.498 80.4 358.026 80.356 358.495 80.268C358.73 80.2387 358.95 80.224 359.155 80.224C359.39 80.1947 359.61 80.18 359.815 80.18C360.197 80.18 360.387 80.312 360.387 80.576C360.387 80.8693 360.109 81.104 359.551 81.28C358.994 81.4853 358.437 81.8667 357.879 82.424C357.351 82.9813 356.941 83.612 356.647 84.316L353.215 92.588L351.587 96.988ZM367.624 73.228C367.595 73.844 367.375 74.3573 366.964 74.768C366.554 75.1787 366.026 75.3987 365.38 75.428C364.735 75.3987 364.207 75.1787 363.796 74.768C363.386 74.3573 363.18 73.8293 363.18 73.184C363.18 72.5387 363.386 72.0107 363.796 71.6C364.207 71.1893 364.735 70.984 365.38 70.984C366.026 70.984 366.554 71.1893 366.964 71.6C367.375 72.0107 367.595 72.5533 367.624 73.228ZM365.688 97.912L362.124 98.132C361.538 98.132 361.244 97.9853 361.244 97.692C361.244 97.428 361.655 97.164 362.476 96.9C363.327 96.636 363.811 96.3573 363.928 96.064C364.075 95.7707 364.148 95.5067 364.148 95.272V85.724C364.148 83.9053 363.459 82.8347 362.08 82.512C361.846 82.4533 361.728 82.2627 361.728 81.94C361.728 81.6173 361.831 81.4413 362.036 81.412C363.444 81.06 364.94 80.3707 366.524 79.344C366.994 79.0507 367.258 78.904 367.316 78.904C367.522 78.904 367.624 78.9773 367.624 79.124C367.36 81.7933 367.228 83.7733 367.228 85.064V95.272C367.228 95.8587 367.404 96.24 367.756 96.416C368.138 96.592 368.636 96.7827 369.252 96.988C369.839 97.2227 370.132 97.4573 370.132 97.692C370.132 97.9853 369.839 98.132 369.252 98.132L365.688 97.912ZM383.865 93.336C383.865 96.856 381.753 98.616 377.529 98.616C376.444 98.616 375.432 98.4253 374.493 98.044C373.555 97.692 373.012 97.3547 372.865 97.032C372.513 96.2987 372.323 95.404 372.293 94.348C372.293 94.084 372.528 93.952 372.997 93.952C373.437 93.952 373.672 94.0547 373.701 94.26C373.819 94.7587 374.083 95.2573 374.493 95.756C374.933 96.2547 375.447 96.6653 376.033 96.988C376.649 97.2813 377.28 97.428 377.925 97.428C378.864 97.428 379.583 97.1493 380.081 96.592C380.609 96.0347 380.873 95.3453 380.873 94.524C380.873 93.7027 380.609 93.0133 380.081 92.456C379.553 91.8693 378.673 91.136 377.441 90.256C376.18 89.376 375.168 88.5253 374.405 87.704C373.672 86.8533 373.305 85.8267 373.305 84.624C373.305 83.8027 373.525 83.0253 373.965 82.292C374.405 81.5587 375.036 80.9573 375.857 80.488C376.679 80.0187 377.676 79.784 378.849 79.784C380.609 79.784 381.827 80.1213 382.501 80.796C383 81.4413 383.249 82.5853 383.249 84.228C383.249 84.3453 383.147 84.404 382.941 84.404C382.736 84.404 382.443 84.3013 382.061 84.096C381.68 83.8613 381.489 83.656 381.489 83.48C381.46 82.8347 381.167 82.248 380.609 81.72C380.052 81.192 379.392 80.928 378.629 80.928C377.837 80.928 377.192 81.192 376.693 81.72C376.195 82.248 375.945 82.864 375.945 83.568C375.945 84.272 376.195 84.9173 376.693 85.504C377.192 86.0907 377.632 86.5013 378.013 86.736C378.189 86.8533 378.409 87.0147 378.673 87.22C378.967 87.396 379.304 87.6013 379.685 87.836C380.184 88.1293 380.595 88.3933 380.917 88.628C381.269 88.8627 381.607 89.1413 381.929 89.464C382.252 89.7573 382.604 90.1827 382.985 90.74C383.572 91.5907 383.865 92.456 383.865 93.336ZM405.436 88.892C405.436 90.5933 405.04 92.192 404.248 93.688C403.485 95.1547 402.356 96.3427 400.86 97.252C399.393 98.1613 397.604 98.616 395.492 98.616C393.849 98.616 392.353 98.2347 391.004 97.472C389.684 96.7093 388.643 95.668 387.88 94.348C387.117 92.9987 386.736 91.4733 386.736 89.772C386.736 88.5107 386.985 87.2933 387.484 86.12C387.983 84.9173 388.672 83.8467 389.552 82.908C390.461 81.94 391.488 81.1773 392.632 80.62C393.776 80.0627 394.993 79.784 396.284 79.784C398.015 79.784 399.569 80.1947 400.948 81.016C402.327 81.808 403.412 82.8933 404.204 84.272C405.025 85.6213 405.436 87.1613 405.436 88.892ZM390.344 88.76C390.344 90.256 390.608 91.664 391.136 92.984C391.693 94.2747 392.427 95.316 393.336 96.108C394.275 96.9 395.301 97.296 396.416 97.296C397.883 97.296 398.997 96.988 399.76 96.372C400.552 95.7267 401.095 94.8467 401.388 93.732C401.681 92.588 401.828 91.268 401.828 89.772C401.828 88.2467 401.549 86.8387 400.992 85.548C400.464 84.228 399.731 83.172 398.792 82.38C397.883 81.5587 396.827 81.148 395.624 81.148C392.104 81.148 390.344 83.6853 390.344 88.76ZM412.701 97.912L409.137 98.132C408.55 98.132 408.257 97.9853 408.257 97.692C408.257 97.428 408.521 97.208 409.049 97.032C409.577 96.856 409.929 96.7387 410.105 96.68C410.281 96.592 410.472 96.4307 410.677 96.196C410.853 95.9613 410.941 95.6533 410.941 95.272V85.812C410.941 83.964 410.34 82.908 409.137 82.644C408.902 82.5853 408.785 82.3947 408.785 82.072C408.785 81.7493 408.888 81.5733 409.093 81.544C410.178 81.3387 411 81.0453 411.557 80.664C412.056 80.3413 412.466 80.0773 412.789 79.872C413.141 79.6667 413.39 79.5053 413.537 79.388C413.86 79.212 414.021 79.1093 414.021 79.08H414.153C414.241 79.08 414.3 79.1827 414.329 79.388C414.329 79.7693 414.329 80.1507 414.329 80.532C414.329 80.9133 414.314 81.2947 414.285 81.676C414.256 82.4093 414.256 82.776 414.285 82.776C414.285 82.776 414.358 82.7027 414.505 82.556C414.916 82.028 415.18 81.7347 415.297 81.676C416.676 80.4147 418.025 79.784 419.345 79.784C419.961 79.784 420.46 79.916 420.841 80.18C421.252 80.444 421.457 80.796 421.457 81.236C421.457 81.676 421.266 82.16 420.885 82.688C420.533 83.216 420.196 83.48 419.873 83.48C419.55 83.48 419.081 83.348 418.465 83.084C417.849 82.82 417.394 82.688 417.101 82.688C416.25 82.688 415.517 82.9667 414.901 83.524C414.314 84.0813 414.021 85.0347 414.021 86.384V95.052C414.05 95.8147 414.842 96.4453 416.397 96.944C417.072 97.1787 417.409 97.428 417.409 97.692C417.409 97.9853 417.116 98.132 416.529 98.132L412.701 97.912Z" fill="#F8F9FA"/>
<rect x="1.65753" y="1" width="192.947" height="173" rx="35" fill="#2ECC71" stroke="black" stroke-width="2"/>
<path d="M98.1313 85C117.38 85 132.981 71.1227 132.981 54C132.981 36.8773 117.38 23 98.1313 23C78.8825 23 63.282 36.8773 63.282 54C63.282 71.1227 78.8825 85 98.1313 85ZM122.526 92.75H117.979C111.935 95.2203 105.21 96.625 98.1313 96.625C91.0525 96.625 84.3549 95.2203 78.2835 92.75H73.7368C53.5351 92.75 37.145 107.33 37.145 125.3V135.375C37.145 141.793 42.9986 147 50.2135 147H146.049C153.264 147 159.118 141.793 159.118 135.375V125.3C159.118 107.33 142.727 92.75 122.526 92.75Z" fill="#0D1B2A"/>
</svg>
