<svg width="420" height="886" viewBox="0 0 420 886" fill="none" xmlns="http://www.w3.org/2000/svg">
<path d="M74.6636 41.88C74.6636 44.3947 74.0349 46.7453 72.7776 48.932C71.5202 51.1187 69.6342 52.8953 67.1196 54.262C64.6049 55.6287 61.4342 56.312 57.6076 56.312C53.0702 56.312 49.4076 55.656 46.6196 54.344C45.7449 53.9613 45.1709 53.4967 44.8976 52.95C43.9136 50.8727 43.4216 47.7293 43.4216 43.52C43.4216 43.0827 43.5856 42.5907 43.9136 42.044C44.2962 41.4427 44.7336 41.142 45.2256 41.142C45.6629 41.142 46.4556 42.946 47.6036 46.554C49.1889 51.2553 52.8789 53.606 58.6736 53.606C61.4616 53.606 63.6756 52.7587 65.3156 51.064C66.9556 49.3693 67.7756 47.0733 67.7756 44.176C67.7756 39.584 63.6209 34.5 55.3116 28.924C51.9769 26.6827 49.4076 24.414 47.6036 22.118C45.7996 19.822 44.8976 17.0067 44.8976 13.672C44.8976 11.4307 45.6082 9.326 47.0296 7.358C48.4509 5.33533 50.3916 3.69533 52.8516 2.438C55.3662 1.18066 58.2089 0.551997 61.3796 0.551997C64.2222 0.551997 66.4909 0.82533 68.1856 1.372C69.8802 1.91866 70.8642 2.192 71.1376 2.192C71.6842 2.192 72.0942 2.71133 72.3676 3.75C72.6956 4.78867 72.9142 5.99133 73.0236 7.358C73.1876 8.67 73.2696 9.818 73.2696 10.802C73.2696 12.278 73.0782 13.016 72.6956 13.016C71.1102 13.016 70.1536 12.2507 69.8256 10.72C69.4429 8.36933 68.4042 6.538 66.7096 5.226C65.0149 3.914 62.9376 3.258 60.4776 3.258C57.9629 3.258 55.7762 4.078 53.9176 5.718C52.1136 7.30333 51.2116 9.43533 51.2116 12.114C51.2116 13.754 51.8129 15.3393 53.0156 16.87C54.2182 18.346 55.6669 19.7127 57.3616 20.97C59.0562 22.1727 60.6416 23.266 62.1176 24.25C70.4816 29.662 74.6636 35.5387 74.6636 41.88ZM112.043 55.164C109.856 56.0933 108.599 56.558 108.271 56.558C107.833 56.558 107.615 56.4487 107.615 56.23L108.025 50.818V50.326C104.034 54.2073 99.5241 56.148 94.4947 56.148C91.7067 56.148 89.4381 55.3007 87.6887 53.606C85.9941 51.9113 85.1467 49.506 85.1467 46.39V29.744C85.1467 27.5027 83.9714 25.9447 81.6207 25.07C80.9101 24.8513 80.5547 24.3867 80.5547 23.676C80.5547 23.02 80.9647 22.61 81.7847 22.446C82.7141 22.3913 83.8894 22.2547 85.3107 22.036C86.7321 21.8173 88.3721 21.4893 90.2307 21.052H90.3947C91.1601 21.052 91.4881 21.4347 91.3787 22.2C91.0507 24.7147 90.8867 26.8193 90.8867 28.514V44.504C90.8867 45.816 91.2147 47.046 91.8707 48.194C92.5267 49.2873 93.3741 50.1893 94.4127 50.9C95.5061 51.6107 96.6267 51.966 97.7747 51.966C100.945 51.966 103.487 51.2553 105.401 49.834C107.369 48.358 108.353 46.472 108.353 44.176V29.17C108.353 27.694 107.779 26.6553 106.631 26.054C105.483 25.4527 104.28 25.1247 103.023 25.07C101.765 25.07 101.137 24.6053 101.137 23.676C101.137 23.2387 101.383 22.9107 101.875 22.692C102.093 22.5827 102.367 22.528 102.695 22.528C103.077 22.4733 103.515 22.4187 104.007 22.364C106.139 22.364 107.97 22.2273 109.501 21.954C110.266 21.8447 110.758 21.7627 110.977 21.708C111.359 21.708 112.234 21.462 113.601 20.97H113.765C114.475 20.97 114.831 21.298 114.831 21.954C114.831 22.1727 114.749 22.446 114.585 22.774C114.257 23.3207 114.093 25.152 114.093 28.268V45.652C114.093 49.424 114.585 51.31 115.569 51.31C117.263 51.31 118.521 51.228 119.341 51.064H119.587C120.243 51.064 120.571 51.392 120.571 52.048C120.571 52.868 120.188 53.278 119.423 53.278C118.001 53.4967 116.662 53.77 115.405 54.098C114.202 54.3713 113.081 54.7267 112.043 55.164ZM131.259 77.96L124.699 78.37C123.551 78.37 122.977 78.0967 122.977 77.55C122.977 77.058 123.742 76.566 125.273 76.074C126.858 75.582 127.76 75.0627 127.979 74.516C128.252 73.9693 128.389 73.4773 128.389 73.04V31.466C128.389 30.81 128.225 30.072 127.897 29.252C127.624 28.3773 127.214 27.5847 126.667 26.874C126.12 26.1087 125.437 25.644 124.617 25.48C124.18 25.3707 123.961 25.0153 123.961 24.414C123.961 23.8127 124.152 23.4847 124.535 23.43C125.683 23.1567 127.05 22.7467 128.635 22.2C130.22 21.6533 132.024 20.97 134.047 20.15L134.129 20.068H134.211C134.539 20.068 134.703 20.314 134.703 20.806L134.293 25.726C134.293 26.1633 134.32 26.4093 134.375 26.464C135.086 25.7533 136.179 24.988 137.655 24.168C139.186 23.348 140.853 22.6373 142.657 22.036C144.461 21.38 146.128 21.052 147.659 21.052C150.392 21.052 152.743 21.79 154.711 23.266C156.734 24.6873 158.292 26.5733 159.385 28.924C160.533 31.2747 161.107 33.8167 161.107 36.55C161.107 39.0647 160.615 41.4973 159.631 43.848C158.702 46.1987 157.39 48.3033 155.695 50.162C154 51.966 152.032 53.4147 149.791 54.508C147.55 55.6013 145.172 56.148 142.657 56.148C141.892 56.148 140.962 56.0113 139.869 55.738C138.776 55.5193 137.737 55.2187 136.753 54.836C135.769 54.3987 135.004 53.9613 134.457 53.524C134.238 53.524 134.129 54.918 134.129 57.706V73.04C134.129 73.86 134.43 74.434 135.031 74.762C135.687 75.1447 136.179 75.3907 136.507 75.5C136.616 75.5547 136.78 75.6093 136.999 75.664C137.272 75.7187 137.546 75.7733 137.819 75.828C139.787 76.32 140.771 76.9213 140.771 77.632C140.771 78.124 140.17 78.37 138.967 78.37L131.259 77.96ZM136.507 51.72C137.874 52.9773 140.334 53.606 143.887 53.606C145.964 53.606 147.85 52.8407 149.545 51.31C151.294 49.7793 152.579 48.0027 153.399 45.98C154.164 43.9573 154.547 41.5793 154.547 38.846C154.547 36.1127 154.137 33.7073 153.317 31.63C152.552 29.5527 151.54 28.0493 150.283 27.12C147.878 25.5347 145.5 24.742 143.149 24.742C140.689 24.742 138.612 25.3707 136.917 26.628C135.277 27.8853 134.375 29.99 134.211 32.942L134.129 38.19V40.732C134.129 42.9187 134.238 45.0507 134.457 47.128C134.73 49.1507 135.414 50.6813 136.507 51.72ZM192.804 49.178C192.586 50.1073 191.902 51.1187 190.754 52.212C189.606 53.3053 188.103 54.2347 186.244 55C184.386 55.7653 182.254 56.148 179.848 56.148C177.443 56.148 175.202 55.41 173.124 53.934C171.102 52.4033 169.462 50.326 168.204 47.702C167.002 45.078 166.4 42.0987 166.4 38.764C166.4 35.4293 167.111 32.4227 168.532 29.744C170.008 27.0653 171.976 24.9607 174.436 23.43C176.896 21.8447 179.657 21.052 182.718 21.052C185.998 21.052 188.568 21.7353 190.426 23.102C192.34 24.4687 193.296 26.3273 193.296 28.678C193.296 31.0287 192.695 32.5047 191.492 33.106C190.344 33.6527 188.841 33.926 186.982 33.926H173.534C172.769 33.926 172.222 34.1173 171.894 34.5C171.621 34.828 171.484 35.648 171.484 36.96C171.484 39.4747 172.031 41.8253 173.124 44.012C174.218 46.1987 175.666 47.948 177.47 49.26C179.329 50.572 181.406 51.228 183.702 51.228C187.037 51.228 189.661 50.0253 191.574 47.62C191.957 47.2373 192.258 47.046 192.476 47.046C192.859 47.046 193.05 47.3193 193.05 47.866C193.05 48.2487 192.968 48.686 192.804 49.178ZM173.042 30.154C173.042 30.974 173.562 31.384 174.6 31.384H181.324C182.582 31.384 183.702 31.3567 184.686 31.302C185.725 31.1927 186.6 31.0833 187.31 30.974C187.857 30.9193 188.13 30.1267 188.13 28.596C188.13 27.12 187.447 25.9173 186.08 24.988C184.714 24.0587 183.074 23.594 181.16 23.594C179.848 23.594 178.564 23.9767 177.306 24.742C176.104 25.4527 175.092 26.3273 174.272 27.366C173.452 28.35 173.042 29.2793 173.042 30.154ZM206.391 54.836L199.749 55.246C198.656 55.246 198.109 54.9727 198.109 54.426C198.109 53.934 198.601 53.524 199.585 53.196C200.569 52.868 201.225 52.6493 201.553 52.54C201.881 52.376 202.237 52.0753 202.619 51.638C202.947 51.2007 203.111 50.6267 203.111 49.916V32.286C203.111 28.842 201.991 26.874 199.749 26.382C199.312 26.2727 199.093 25.9173 199.093 25.316C199.093 24.7147 199.285 24.3867 199.667 24.332C201.69 23.9493 203.221 23.4027 204.259 22.692C205.189 22.0907 205.954 21.5987 206.555 21.216C207.211 20.8333 207.676 20.5327 207.949 20.314C208.551 19.986 208.851 19.7947 208.851 19.74H209.097C209.261 19.74 209.371 19.9313 209.425 20.314C209.425 21.0247 209.425 21.7353 209.425 22.446C209.425 23.1567 209.398 23.8673 209.343 24.578C209.289 25.9447 209.289 26.628 209.343 26.628C209.343 26.628 209.48 26.4913 209.753 26.218C210.519 25.234 211.011 24.6873 211.229 24.578C213.799 22.2273 216.313 21.052 218.773 21.052C219.921 21.052 220.851 21.298 221.561 21.79C222.327 22.282 222.709 22.938 222.709 23.758C222.709 24.578 222.354 25.48 221.643 26.464C220.987 27.448 220.359 27.94 219.757 27.94C219.156 27.94 218.281 27.694 217.133 27.202C215.985 26.71 215.138 26.464 214.591 26.464C213.006 26.464 211.639 26.9833 210.491 28.022C209.398 29.0607 208.851 30.8373 208.851 33.352V49.506C208.906 50.9273 210.382 52.1027 213.279 53.032C214.537 53.4693 215.165 53.934 215.165 54.426C215.165 54.9727 214.619 55.246 213.525 55.246L206.391 54.836ZM243.044 53.114C241.841 55.574 241.103 56.804 240.83 56.804C240.502 56.804 239.955 55.738 239.19 53.606L229.186 28.022C228.311 25.8353 227.054 24.496 225.414 24.004C224.157 23.5667 223.528 23.0747 223.528 22.528C223.528 22.036 224.075 21.79 225.168 21.79L231.154 22.2L237.304 21.79C238.397 21.79 238.944 22.036 238.944 22.528C238.944 23.0747 238.315 23.5667 237.058 24.004C235.965 24.332 235.418 25.4527 235.418 27.366C235.418 28.35 235.527 29.088 235.746 29.58L241.814 45.898C242.087 46.4993 242.251 46.8 242.306 46.8C242.415 46.8 242.579 46.5267 242.798 45.98L248.702 30.81C249.085 29.8807 249.276 28.8967 249.276 27.858C249.276 25.6713 248.593 24.3867 247.226 24.004C245.969 23.5667 245.34 23.0747 245.34 22.528C245.34 22.036 245.887 21.79 246.98 21.79L252.966 22.2C254.059 22.2 255.043 22.118 255.918 21.954C256.355 21.8993 256.765 21.872 257.148 21.872C257.585 21.8173 257.995 21.79 258.378 21.79C259.089 21.79 259.444 22.036 259.444 22.528C259.444 23.0747 258.925 23.512 257.886 23.84C256.847 24.2227 255.809 24.9333 254.77 25.972C253.786 27.0107 253.021 28.186 252.474 29.498L246.078 44.914L243.044 53.114ZM272.931 8.834C272.877 9.982 272.467 10.9387 271.701 11.704C270.936 12.4693 269.952 12.8793 268.749 12.934C267.547 12.8793 266.563 12.4693 265.797 11.704C265.032 10.9387 264.649 9.95466 264.649 8.752C264.649 7.54933 265.032 6.56533 265.797 5.8C266.563 5.03466 267.547 4.652 268.749 4.652C269.952 4.652 270.936 5.03466 271.701 5.8C272.467 6.56533 272.877 7.57666 272.931 8.834ZM269.323 54.836L262.681 55.246C261.588 55.246 261.041 54.9727 261.041 54.426C261.041 53.934 261.807 53.442 263.337 52.95C264.923 52.458 265.825 51.9387 266.043 51.392C266.317 50.8453 266.453 50.3533 266.453 49.916V32.122C266.453 28.7327 265.169 26.7373 262.599 26.136C262.162 26.0267 261.943 25.6713 261.943 25.07C261.943 24.4687 262.135 24.1407 262.517 24.086C265.141 23.43 267.929 22.1453 270.881 20.232C271.756 19.6853 272.248 19.412 272.357 19.412C272.74 19.412 272.931 19.5487 272.931 19.822C272.439 24.7967 272.193 28.4867 272.193 30.892V49.916C272.193 51.0093 272.521 51.72 273.177 52.048C273.888 52.376 274.817 52.7313 275.965 53.114C277.059 53.5513 277.605 53.9887 277.605 54.426C277.605 54.9727 277.059 55.246 275.965 55.246L269.323 54.836ZM303.199 46.308C303.199 52.868 299.263 56.148 291.391 56.148C289.368 56.148 287.482 55.7927 285.733 55.082C283.984 54.426 282.972 53.7973 282.699 53.196C282.043 51.8293 281.688 50.162 281.633 48.194C281.633 47.702 282.07 47.456 282.945 47.456C283.765 47.456 284.202 47.6473 284.257 48.03C284.476 48.9593 284.968 49.8887 285.733 50.818C286.553 51.7473 287.51 52.5127 288.603 53.114C289.751 53.6607 290.926 53.934 292.129 53.934C293.878 53.934 295.218 53.4147 296.147 52.376C297.131 51.3373 297.623 50.0527 297.623 48.522C297.623 46.9913 297.131 45.7067 296.147 44.668C295.163 43.5747 293.523 42.208 291.227 40.568C288.876 38.928 286.99 37.3427 285.569 35.812C284.202 34.2267 283.519 32.3133 283.519 30.072C283.519 28.5413 283.929 27.0927 284.749 25.726C285.569 24.3593 286.744 23.2387 288.275 22.364C289.806 21.4893 291.664 21.052 293.851 21.052C297.131 21.052 299.4 21.6807 300.657 22.938C301.586 24.1407 302.051 26.2727 302.051 29.334C302.051 29.5527 301.86 29.662 301.477 29.662C301.094 29.662 300.548 29.4707 299.837 29.088C299.126 28.6507 298.771 28.268 298.771 27.94C298.716 26.7373 298.17 25.644 297.131 24.66C296.092 23.676 294.862 23.184 293.441 23.184C291.965 23.184 290.762 23.676 289.833 24.66C288.904 25.644 288.439 26.792 288.439 28.104C288.439 29.416 288.904 30.6187 289.833 31.712C290.762 32.8053 291.582 33.5707 292.293 34.008C292.621 34.2267 293.031 34.5273 293.523 34.91C294.07 35.238 294.698 35.6207 295.409 36.058C296.338 36.6047 297.104 37.0967 297.705 37.534C298.361 37.9713 298.99 38.4907 299.591 39.092C300.192 39.6387 300.848 40.4313 301.559 41.47C302.652 43.0553 303.199 44.668 303.199 46.308ZM343.399 38.026C343.399 41.1967 342.661 44.176 341.185 46.964C339.763 49.6973 337.659 51.9113 334.871 53.606C332.137 55.3007 328.803 56.148 324.867 56.148C321.805 56.148 319.017 55.4373 316.503 54.016C314.043 52.5947 312.102 50.654 310.681 48.194C309.259 45.6793 308.549 42.8367 308.549 39.666C308.549 37.3153 309.013 35.0467 309.943 32.86C310.872 30.6187 312.157 28.6233 313.797 26.874C315.491 25.07 317.405 23.6487 319.537 22.61C321.669 21.5713 323.937 21.052 326.343 21.052C329.568 21.052 332.465 21.8173 335.035 23.348C337.604 24.824 339.627 26.8467 341.103 29.416C342.633 31.9307 343.399 34.8007 343.399 38.026ZM315.273 37.78C315.273 40.568 315.765 43.192 316.749 45.652C317.787 48.0573 319.154 49.998 320.849 51.474C322.598 52.95 324.511 53.688 326.589 53.688C329.322 53.688 331.399 53.114 332.821 51.966C334.297 50.7633 335.308 49.1233 335.855 47.046C336.401 44.914 336.675 42.454 336.675 39.666C336.675 36.8233 336.155 34.1993 335.117 31.794C334.133 29.334 332.766 27.366 331.017 25.89C329.322 24.3593 327.354 23.594 325.113 23.594C318.553 23.594 315.273 28.3227 315.273 37.78ZM356.938 54.836L350.296 55.246C349.203 55.246 348.656 54.9727 348.656 54.426C348.656 53.934 349.148 53.524 350.132 53.196C351.116 52.868 351.772 52.6493 352.1 52.54C352.428 52.376 352.784 52.0753 353.166 51.638C353.494 51.2007 353.658 50.6267 353.658 49.916V32.286C353.658 28.842 352.538 26.874 350.296 26.382C349.859 26.2727 349.64 25.9173 349.64 25.316C349.64 24.7147 349.832 24.3867 350.214 24.332C352.237 23.9493 353.768 23.4027 354.806 22.692C355.736 22.0907 356.501 21.5987 357.102 21.216C357.758 20.8333 358.223 20.5327 358.496 20.314C359.098 19.986 359.398 19.7947 359.398 19.74H359.644C359.808 19.74 359.918 19.9313 359.972 20.314C359.972 21.0247 359.972 21.7353 359.972 22.446C359.972 23.1567 359.945 23.8673 359.89 24.578C359.836 25.9447 359.836 26.628 359.89 26.628C359.89 26.628 360.027 26.4913 360.3 26.218C361.066 25.234 361.558 24.6873 361.776 24.578C364.346 22.2273 366.86 21.052 369.32 21.052C370.468 21.052 371.398 21.298 372.108 21.79C372.874 22.282 373.256 22.938 373.256 23.758C373.256 24.578 372.901 25.48 372.19 26.464C371.534 27.448 370.906 27.94 370.304 27.94C369.703 27.94 368.828 27.694 367.68 27.202C366.532 26.71 365.685 26.464 365.138 26.464C363.553 26.464 362.186 26.9833 361.038 28.022C359.945 29.0607 359.398 30.8373 359.398 33.352V49.506C359.453 50.9273 360.929 52.1027 363.826 53.032C365.084 53.4693 365.712 53.934 365.712 54.426C365.712 54.9727 365.166 55.246 364.072 55.246L356.938 54.836ZM137.025 136.836L130.383 137.246C129.289 137.246 128.743 136.973 128.743 136.426C128.743 135.934 129.508 135.442 131.039 134.95C132.624 134.458 133.526 133.939 133.745 133.392C134.018 132.845 134.155 132.353 134.155 131.916V90.588C134.155 87.144 132.897 85.1487 130.383 84.602C129.945 84.4927 129.727 84.1373 129.727 83.536C129.727 82.9347 129.918 82.6067 130.301 82.552C131.722 82.224 134.893 81.1307 139.813 79.272H139.895L139.977 79.19C140.305 79.19 140.469 79.3813 140.469 79.764L140.305 81.24C140.195 82.2787 140.086 83.618 139.977 85.258C139.922 86.8433 139.895 88.7293 139.895 90.916V131.916C139.895 133.009 140.223 133.72 140.879 134.048C141.589 134.376 142.519 134.731 143.667 135.114C144.76 135.551 145.307 135.989 145.307 136.426C145.307 136.973 144.76 137.246 143.667 137.246L137.025 136.836ZM184.684 120.026C184.684 123.197 183.946 126.176 182.47 128.964C181.049 131.697 178.944 133.911 176.156 135.606C173.423 137.301 170.088 138.148 166.152 138.148C163.091 138.148 160.303 137.437 157.788 136.016C155.328 134.595 153.387 132.654 151.966 130.194C150.545 127.679 149.834 124.837 149.834 121.666C149.834 119.315 150.299 117.047 151.228 114.86C152.157 112.619 153.442 110.623 155.082 108.874C156.777 107.07 158.69 105.649 160.822 104.61C162.954 103.571 165.223 103.052 167.628 103.052C170.853 103.052 173.751 103.817 176.32 105.348C178.889 106.824 180.912 108.847 182.388 111.416C183.919 113.931 184.684 116.801 184.684 120.026ZM156.558 119.78C156.558 122.568 157.05 125.192 158.034 127.652C159.073 130.057 160.439 131.998 162.134 133.474C163.883 134.95 165.797 135.688 167.874 135.688C170.607 135.688 172.685 135.114 174.106 133.966C175.582 132.763 176.593 131.123 177.14 129.046C177.687 126.914 177.96 124.454 177.96 121.666C177.96 118.823 177.441 116.199 176.402 113.794C175.418 111.334 174.051 109.366 172.302 107.89C170.607 106.359 168.639 105.594 166.398 105.594C159.838 105.594 156.558 110.323 156.558 119.78ZM221.839 143.314C221.839 145.501 221.293 147.633 220.199 149.71C219.106 151.787 217.657 153.646 215.853 155.286C214.104 156.981 212.163 158.32 210.031 159.304C207.899 160.288 205.795 160.78 203.717 160.78C200.929 160.78 198.387 160.452 196.091 159.796C193.795 159.14 191.937 158.129 190.515 156.762C189.149 155.395 188.465 153.619 188.465 151.432C188.465 149.737 188.875 148.261 189.695 147.004C190.57 145.801 192.019 144.571 194.041 143.314C195.955 142.111 197.349 140.854 198.223 139.542C196.365 139.159 194.67 138.449 193.139 137.41C191.609 136.426 190.843 135.087 190.843 133.392C190.843 132.353 191.472 131.342 192.729 130.358C193.112 130.03 193.631 129.702 194.287 129.374C195.763 128.499 196.857 127.57 197.567 126.586C196.857 126.422 195.818 125.711 194.451 124.454C191.773 121.939 190.433 118.905 190.433 115.352C190.433 112.947 191.117 110.815 192.483 108.956C193.85 107.097 195.654 105.621 197.895 104.528C200.137 103.435 202.515 102.888 205.029 102.888C205.74 102.888 206.478 102.97 207.243 103.134C208.063 103.298 208.938 103.517 209.867 103.79C213.421 104.883 216.181 105.43 218.149 105.43L220.773 105.348H221.757C222.195 105.348 222.55 105.43 222.823 105.594C223.097 105.758 223.233 106.195 223.233 106.906C223.233 107.89 222.987 108.382 222.495 108.382C220.527 108.382 219.379 108.437 219.051 108.546L218.395 108.792C218.177 108.901 217.985 108.983 217.821 109.038C217.603 109.53 217.493 110.787 217.493 112.81C217.493 115.543 216.892 118.085 215.689 120.436C214.487 122.787 212.847 124.7 210.769 126.176C208.692 127.597 206.341 128.308 203.717 128.308C202.023 128.308 200.547 127.98 199.289 127.324C196.884 129.237 195.681 130.577 195.681 131.342C195.681 133.091 198.305 134.212 203.553 134.704C210.769 135.36 214.951 135.961 216.099 136.508C216.919 136.836 217.767 137.219 218.641 137.656C219.571 138.148 220.336 138.804 220.937 139.624C221.539 140.499 221.839 141.729 221.839 143.314ZM196.829 115.188C196.829 116.828 197.157 118.441 197.813 120.026C198.469 121.557 199.371 122.841 200.519 123.88C201.667 124.919 202.952 125.438 204.373 125.438C205.795 125.438 207.052 124.973 208.145 124.044C209.293 123.115 210.168 121.885 210.769 120.354C211.425 118.769 211.753 117.101 211.753 115.352C211.753 113.603 211.398 111.963 210.687 110.432C210.031 108.901 209.129 107.671 207.981 106.742C206.833 105.813 205.521 105.348 204.045 105.348C202.624 105.348 201.367 105.84 200.273 106.824C199.18 107.753 198.333 108.983 197.731 110.514C197.13 111.99 196.829 113.548 196.829 115.188ZM194.287 147.988C194.287 150.776 195.217 153.045 197.075 154.794C198.989 156.598 201.558 157.5 204.783 157.5C206.97 157.5 208.965 156.981 210.769 155.942C212.573 154.958 214.022 153.591 215.115 151.842C216.263 150.093 216.837 148.125 216.837 145.938C216.837 144.571 216.154 143.423 214.787 142.494C213.475 141.565 211.89 140.909 210.031 140.526C208.118 140.198 205.521 139.952 202.241 139.788H200.355C200.027 140.007 199.508 140.417 198.797 141.018C198.141 141.674 197.294 142.521 196.255 143.56C194.943 145.091 194.287 146.567 194.287 147.988ZM237.056 90.834C237.002 91.982 236.592 92.9387 235.826 93.704C235.061 94.4693 234.077 94.8793 232.874 94.934C231.672 94.8793 230.688 94.4693 229.922 93.704C229.157 92.9387 228.774 91.9547 228.774 90.752C228.774 89.5493 229.157 88.5653 229.922 87.8C230.688 87.0347 231.672 86.652 232.874 86.652C234.077 86.652 235.061 87.0347 235.826 87.8C236.592 88.5653 237.002 89.5767 237.056 90.834ZM233.448 136.836L226.806 137.246C225.713 137.246 225.166 136.973 225.166 136.426C225.166 135.934 225.932 135.442 227.462 134.95C229.048 134.458 229.95 133.939 230.168 133.392C230.442 132.845 230.578 132.353 230.578 131.916V114.122C230.578 110.733 229.294 108.737 226.724 108.136C226.287 108.027 226.068 107.671 226.068 107.07C226.068 106.469 226.26 106.141 226.642 106.086C229.266 105.43 232.054 104.145 235.006 102.232C235.881 101.685 236.373 101.412 236.482 101.412C236.865 101.412 237.056 101.549 237.056 101.822C236.564 106.797 236.318 110.487 236.318 112.892V131.916C236.318 133.009 236.646 133.72 237.302 134.048C238.013 134.376 238.942 134.731 240.09 135.114C241.184 135.551 241.73 135.989 241.73 136.426C241.73 136.973 241.184 137.246 240.09 137.246L233.448 136.836ZM253.548 136.836L246.906 137.246C245.813 137.246 245.266 136.973 245.266 136.426C245.266 136.098 245.485 135.825 245.922 135.606C246.359 135.333 246.824 135.114 247.316 134.95C247.808 134.786 248.109 134.704 248.218 134.704C248.327 134.704 248.601 134.595 249.038 134.376C249.475 134.157 249.749 133.966 249.858 133.802C250.405 133.255 250.678 132.627 250.678 131.916V114.286C250.678 110.787 249.557 108.819 247.316 108.382C246.879 108.273 246.66 107.917 246.66 107.316C246.66 106.715 246.851 106.387 247.234 106.332C250.077 105.676 253.083 104.173 256.254 101.822C256.309 101.767 256.418 101.74 256.582 101.74C256.691 101.74 256.828 101.986 256.992 102.478L256.418 107.808C256.418 108.191 256.445 108.409 256.5 108.464C257.539 107.589 258.796 106.742 260.272 105.922C261.803 105.102 263.443 104.419 265.192 103.872C266.941 103.325 268.636 103.052 270.276 103.052C271.916 103.052 273.419 103.571 274.786 104.61C276.153 105.594 277.246 106.933 278.066 108.628C278.886 110.323 279.296 112.263 279.296 114.45V131.916C279.296 133.009 279.624 133.72 280.28 134.048C280.991 134.376 281.92 134.731 283.068 135.114C284.161 135.551 284.708 135.989 284.708 136.426C284.708 136.973 284.161 137.246 283.068 137.246L276.508 136.836L269.784 137.246C268.691 137.246 268.144 136.973 268.144 136.426C268.144 135.934 268.773 135.469 270.03 135.032C270.139 135.032 270.249 135.005 270.358 134.95C272.217 134.349 273.255 133.611 273.474 132.736C273.529 132.627 273.556 132.49 273.556 132.326C273.556 132.162 273.556 132.025 273.556 131.916V114.696C273.556 112.345 272.873 110.487 271.506 109.12C270.139 107.753 268.144 107.07 265.52 107.07C262.841 107.07 260.655 107.644 258.96 108.792C257.265 109.94 256.418 112.017 256.418 115.024V131.916C256.418 133.009 256.746 133.72 257.402 134.048C258.113 134.376 259.042 134.731 260.19 135.114C261.283 135.551 261.83 135.989 261.83 136.426C261.83 136.973 261.283 137.246 260.19 137.246L253.548 136.836Z" fill="#F8F9FA"/>
<rect y="236.601" width="419.319" height="387.26" rx="19" fill="#2ECC71" fill-opacity="0.2"/>
<path d="M355.849 329.523C363.731 329.523 370.119 324.294 370.119 317.843C370.119 311.391 363.731 306.163 355.849 306.163C347.967 306.163 341.58 311.391 341.58 317.843C341.58 324.294 347.967 329.523 355.849 329.523ZM365.838 332.443H363.976C361.501 333.374 358.748 333.903 355.849 333.903C352.951 333.903 350.208 333.374 347.722 332.443H345.86C337.589 332.443 330.877 337.936 330.877 344.707V348.503C330.877 350.921 333.274 352.883 336.228 352.883H375.47C378.424 352.883 380.821 350.921 380.821 348.503V344.707C380.821 337.936 374.11 332.443 365.838 332.443Z" fill="#2ECC71"/>
<path d="M377.699 399.636C377.699 406.535 370.013 412.127 360.531 412.127C359.437 412.127 358.367 412.052 357.329 411.909L354.987 413.827C354.767 414.006 354.498 414.15 354.196 414.249C353.894 414.347 353.568 414.398 353.237 414.398H349.606V417.237C349.606 418.178 348.558 418.941 347.265 418.941H343.363V421.779C343.363 422.72 342.315 423.483 341.022 423.483H330.097C328.804 423.483 327.756 422.72 327.756 421.779V416.239C327.756 415.788 328.002 415.354 328.441 415.035L344.224 403.551C343.666 402.32 343.363 401.004 343.363 399.636C343.363 392.737 351.049 387.145 360.531 387.145C370.041 387.145 377.699 392.717 377.699 399.636ZM360.531 396.229C360.531 398.111 362.627 399.636 365.213 399.636C367.799 399.636 369.896 398.111 369.896 396.229C369.896 394.348 367.799 392.823 365.213 392.823C362.627 392.823 360.531 394.348 360.531 396.229Z" fill="#2ECC71"/>
<rect x="44.7412" y="305.124" width="262.205" height="51.9114" rx="25.9557" fill="#D9D9D9"/>
<rect x="45.7819" y="377.801" width="262.205" height="51.9114" rx="25.9557" fill="#D9D9D9"/>
<path d="M199.285 823.158C203.331 823.158 207.154 825.875 207.17 829.835H207.171C207.591 851.575 202.878 868.574 199.241 879.071L199.24 879.07C198.182 882.133 194.919 883.881 191.676 883.881C188.43 883.881 186.22 882.542 184.986 880.7C183.816 878.954 183.574 876.813 184.103 875.277L184.578 873.875C189.405 859.39 191.687 844.903 191.396 829.894L191.395 829.879V829.865C191.395 825.887 195.231 823.158 199.285 823.158ZM199.074 805.424C214.733 805.613 228.229 815.982 228.485 829.183L228.51 831.275C228.565 841.737 227.542 852.236 225.455 862.514C225.292 863.318 224.632 864.862 223.237 866.124C221.77 867.45 219.545 868.414 216.44 867.992V867.991C212.415 867.448 209.103 864.186 209.912 860.221C211.966 850.083 212.909 839.718 212.707 829.404V829.403C212.603 823.981 206.718 818.935 198.85 818.838C190.259 818.813 185.782 824.108 185.871 828.667L185.886 829.726C186.003 840.669 184.698 851.611 182 862.265L181.999 862.266C181.035 866.054 176.751 868.088 172.749 867.42H172.747C168.736 866.747 165.577 863.36 166.579 859.418C169.028 849.74 170.214 839.796 170.107 829.849L170.092 828.887C169.844 816.047 182.217 805.409 199.057 805.424H199.074ZM198.763 787.609H198.762C226.158 787.946 249.354 806.012 249.791 828.532L249.814 830.176C249.889 838.394 249.353 846.608 248.208 854.773L248.208 854.776C247.814 857.542 244.784 861.138 239.508 860.638V860.639C235.463 860.263 231.985 857.155 232.542 853.17V853.169L232.747 851.656C233.668 844.586 234.099 837.409 234.034 830.279L234.012 828.752C233.727 814.003 218.126 801.263 198.522 801.023C195.542 801.007 192.603 801.251 189.771 801.796L189.767 801.797C185.811 802.548 181.448 800.622 180.356 796.875L180.355 796.872C179.223 792.954 182.262 789.488 186.258 788.714H186.259L187.022 788.572C190.848 787.881 194.806 787.523 198.763 787.609ZM159.805 802.074C162.517 799.623 166.922 799.291 170.1 801.184L170.414 801.38L170.417 801.382L170.726 801.599C172.237 802.711 173.185 804.259 173.4 805.951C173.63 807.763 172.996 809.593 171.579 811.016L171.578 811.017C166.832 815.767 164.446 821.46 164.562 827.497L164.582 829.174C164.616 837.002 163.836 844.843 162.253 852.531L161.902 854.175C161.729 854.959 161.056 856.486 159.642 857.732C158.158 859.039 155.918 859.979 152.801 859.537L152.793 859.536C148.766 858.942 145.523 855.635 146.393 851.678L146.394 851.676L146.709 850.2C148.131 843.298 148.832 836.257 148.801 829.224L148.784 827.717C148.605 818.435 152.459 809.421 159.538 802.328L159.54 802.326L159.805 802.074ZM257.956 810.019C261.861 809.309 265.999 811.189 267.18 814.72L267.286 815.067V815.068L267.441 815.659C268.998 821.719 268.937 826.503 268.89 831.17V831.171C268.85 835.124 265.031 837.82 261 837.82H260.937C256.883 837.792 253.071 835.038 253.111 831.054V831.053L253.125 829.177C253.134 824.983 252.959 821.975 251.912 818.095V818.096C250.879 814.287 253.761 810.956 257.583 810.095L257.956 810.019ZM198.418 769.795H198.421L199.496 769.815C222.034 770.367 243.214 779.61 256.292 794.796L256.528 795.085C257.657 796.548 258.049 798.301 257.689 799.979C257.308 801.755 256.116 803.318 254.348 804.331L254.344 804.333C250.898 806.295 246.112 805.694 243.568 802.736V802.737C233.269 790.779 216.323 783.43 198.199 783.211V783.21C183.732 783.041 170.287 787.341 160.322 795.265L159.849 795.645C150.276 803.452 145.207 813.742 145.417 824.613L145.418 824.634V824.655L145.375 829.784V829.804L145.375 829.826C145.235 833.712 141.454 836.326 137.495 836.327C137.452 836.327 137.365 836.324 137.267 836.32V836.322C137.246 836.321 137.225 836.319 137.205 836.319C137.202 836.319 137.199 836.319 137.197 836.319V836.318C133.181 836.192 129.492 833.395 129.606 829.456H129.605L129.637 824.836L129.629 824.145C129.568 809.65 136.455 796.119 148.91 785.955V785.954L149.527 785.458C162.547 775.107 179.832 769.613 198.418 769.795Z" fill="#2ECC71" stroke="black" stroke-width="3"/>
<rect x="154.614" y="518.577" width="96.5636" height="79.7525" rx="21.5" fill="#2ECC71" stroke="black" stroke-width="5"/>
<path d="M217.981 527.306C210.242 527.337 204.024 534.634 204.024 543.492V550.926H183.387C180.946 550.926 178.965 553.193 178.965 555.987V576.232C178.965 579.027 180.946 581.294 183.387 581.294H215.816C218.257 581.294 220.238 579.027 220.238 576.232V555.987C220.238 553.193 218.257 550.926 215.816 550.926H211.394V543.428C211.394 539.253 214.314 535.784 217.963 535.741C221.648 535.699 224.66 539.126 224.66 543.334V551.769C224.66 553.172 225.646 554.3 226.871 554.3H229.819C231.045 554.3 232.03 553.172 232.03 551.769V543.334C232.03 534.476 225.72 527.274 217.981 527.306Z" fill="#0D1B2A"/>
<path d="M103.932 466.342L100.278 466.545C99.717 466.545 99.4367 466.429 99.4367 466.197C99.4367 465.984 99.7847 465.81 100.481 465.675C101.157 465.559 101.631 465.346 101.902 465.037C102.192 464.708 102.337 464.196 102.337 463.5V451.262C102.337 450.334 102.221 449.647 101.989 449.203C101.757 448.758 101.302 448.478 100.626 448.362C99.949 448.246 99.6107 448.052 99.6107 447.782C99.6107 447.569 99.891 447.463 100.452 447.463L105.44 447.55L110.399 447.492H111.53L111.965 447.463C112.293 447.463 112.467 447.55 112.487 447.724C112.525 447.994 112.554 448.381 112.574 448.884C112.612 449.367 112.632 449.947 112.632 450.624C112.632 451.03 112.545 451.233 112.371 451.233C112.139 451.233 111.994 451.117 111.936 450.885C111.704 450.189 111.414 449.647 111.066 449.261C110.737 448.874 110.157 448.681 109.326 448.681H105.643C105.353 448.681 105.14 448.758 105.005 448.913C104.869 449.067 104.782 449.232 104.744 449.406C104.724 449.58 104.695 449.86 104.657 450.247C104.637 450.44 104.628 450.759 104.628 451.204C104.628 451.629 104.628 452.18 104.628 452.857C104.628 453.514 104.628 454.075 104.628 454.539C104.628 454.983 104.637 455.312 104.657 455.525C104.657 455.969 104.753 456.192 104.947 456.192L108.311 456.105C109.181 456.105 109.77 455.728 110.08 454.974C110.118 454.896 110.196 454.8 110.312 454.684C110.447 454.548 110.553 454.481 110.631 454.481C110.689 454.481 110.766 454.529 110.863 454.626C110.921 454.684 110.95 454.838 110.95 455.09C110.95 455.341 110.94 455.592 110.921 455.844C110.901 456.076 110.892 456.327 110.892 456.598C110.892 457.023 110.921 457.661 110.979 458.512C110.979 458.84 110.892 459.005 110.718 459.005C110.428 459.005 110.205 458.782 110.051 458.338C109.799 457.584 109.345 457.207 108.688 457.207C108.688 457.207 108.562 457.207 108.311 457.207C108.079 457.207 107.721 457.197 107.238 457.178C107.025 457.178 106.754 457.187 106.426 457.207C106.116 457.207 105.759 457.216 105.353 457.236C104.889 457.255 104.657 457.497 104.657 457.961C104.657 460.358 104.686 462.195 104.744 463.471C104.782 464.128 104.937 464.64 105.208 465.008C105.498 465.356 105.971 465.588 106.629 465.704C107.286 465.82 107.615 465.984 107.615 466.197C107.615 466.429 107.334 466.545 106.774 466.545C106.503 466.545 106.232 466.535 105.962 466.516C105.691 466.496 105.43 466.467 105.179 466.429C104.695 466.371 104.28 466.342 103.932 466.342ZM126.747 460.397C126.747 461.518 126.486 462.572 125.964 463.558C125.461 464.524 124.717 465.307 123.731 465.907C122.764 466.506 121.585 466.806 120.193 466.806C119.11 466.806 118.124 466.554 117.235 466.052C116.365 465.549 115.678 464.863 115.176 463.993C114.673 463.103 114.422 462.098 114.422 460.977C114.422 460.145 114.586 459.343 114.915 458.57C115.243 457.777 115.698 457.071 116.278 456.453C116.877 455.815 117.554 455.312 118.308 454.945C119.062 454.577 119.864 454.394 120.715 454.394C121.855 454.394 122.88 454.664 123.789 455.206C124.697 455.728 125.413 456.443 125.935 457.352C126.476 458.241 126.747 459.256 126.747 460.397ZM116.8 460.31C116.8 461.296 116.974 462.224 117.322 463.094C117.689 463.944 118.172 464.631 118.772 465.153C119.39 465.675 120.067 465.936 120.802 465.936C121.768 465.936 122.503 465.733 123.006 465.327C123.528 464.901 123.885 464.321 124.079 463.587C124.272 462.833 124.369 461.963 124.369 460.977C124.369 459.971 124.185 459.043 123.818 458.193C123.47 457.323 122.986 456.627 122.368 456.105C121.768 455.563 121.072 455.293 120.28 455.293C117.96 455.293 116.8 456.965 116.8 460.31ZM131.535 466.342L129.186 466.487C128.799 466.487 128.606 466.39 128.606 466.197C128.606 466.023 128.78 465.878 129.128 465.762C129.476 465.646 129.708 465.568 129.824 465.53C129.94 465.472 130.066 465.365 130.201 465.211C130.317 465.056 130.375 464.853 130.375 464.602V458.367C130.375 457.149 129.979 456.453 129.186 456.279C129.031 456.24 128.954 456.114 128.954 455.902C128.954 455.689 129.022 455.573 129.157 455.554C129.872 455.418 130.414 455.225 130.781 454.974C131.11 454.761 131.38 454.587 131.593 454.452C131.825 454.316 131.989 454.21 132.086 454.133C132.299 454.017 132.405 453.949 132.405 453.93H132.492C132.55 453.93 132.589 453.997 132.608 454.133C132.608 454.384 132.608 454.635 132.608 454.887C132.608 455.138 132.598 455.389 132.579 455.641C132.56 456.124 132.56 456.366 132.579 456.366C132.579 456.366 132.627 456.317 132.724 456.221C132.995 455.873 133.169 455.679 133.246 455.641C134.155 454.809 135.044 454.394 135.914 454.394C136.32 454.394 136.649 454.481 136.9 454.655C137.171 454.829 137.306 455.061 137.306 455.351C137.306 455.641 137.18 455.96 136.929 456.308C136.697 456.656 136.475 456.83 136.262 456.83C136.049 456.83 135.74 456.743 135.334 456.569C134.928 456.395 134.628 456.308 134.435 456.308C133.874 456.308 133.391 456.491 132.985 456.859C132.598 457.226 132.405 457.854 132.405 458.744V464.457C132.424 464.959 132.946 465.375 133.971 465.704C134.416 465.858 134.638 466.023 134.638 466.197C134.638 466.39 134.445 466.487 134.058 466.487L131.535 466.342ZM149.572 468.633C149.572 469.406 149.379 470.16 148.992 470.895C148.606 471.629 148.093 472.287 147.455 472.867C146.837 473.466 146.15 473.94 145.396 474.288C144.642 474.636 143.898 474.81 143.163 474.81C142.177 474.81 141.278 474.694 140.466 474.462C139.654 474.23 138.997 473.872 138.494 473.389C138.011 472.905 137.769 472.277 137.769 471.504C137.769 470.904 137.914 470.382 138.204 469.938C138.514 469.512 139.026 469.077 139.741 468.633C140.418 468.207 140.911 467.763 141.22 467.299C140.563 467.163 139.964 466.912 139.422 466.545C138.881 466.197 138.61 465.723 138.61 465.124C138.61 464.756 138.833 464.399 139.277 464.051C139.413 463.935 139.596 463.819 139.828 463.703C140.35 463.393 140.737 463.065 140.988 462.717C140.737 462.659 140.37 462.407 139.886 461.963C138.939 461.073 138.465 460 138.465 458.744C138.465 457.893 138.707 457.139 139.19 456.482C139.674 455.824 140.312 455.302 141.104 454.916C141.897 454.529 142.738 454.336 143.627 454.336C143.879 454.336 144.14 454.365 144.41 454.423C144.7 454.481 145.01 454.558 145.338 454.655C146.595 455.041 147.571 455.235 148.267 455.235L149.195 455.206H149.543C149.698 455.206 149.824 455.235 149.92 455.293C150.017 455.351 150.065 455.505 150.065 455.757C150.065 456.105 149.978 456.279 149.804 456.279C149.108 456.279 148.702 456.298 148.586 456.337L148.354 456.424C148.277 456.462 148.209 456.491 148.151 456.511C148.074 456.685 148.035 457.129 148.035 457.845C148.035 458.811 147.823 459.71 147.397 460.542C146.972 461.373 146.392 462.05 145.657 462.572C144.923 463.074 144.091 463.326 143.163 463.326C142.564 463.326 142.042 463.21 141.597 462.978C140.747 463.654 140.321 464.128 140.321 464.399C140.321 465.017 141.249 465.414 143.105 465.588C145.657 465.82 147.136 466.032 147.542 466.226C147.832 466.342 148.132 466.477 148.441 466.632C148.77 466.806 149.041 467.038 149.253 467.328C149.466 467.637 149.572 468.072 149.572 468.633ZM140.727 458.686C140.727 459.266 140.843 459.836 141.075 460.397C141.307 460.938 141.626 461.392 142.032 461.76C142.438 462.127 142.893 462.311 143.395 462.311C143.898 462.311 144.343 462.146 144.729 461.818C145.135 461.489 145.445 461.054 145.657 460.513C145.889 459.952 146.005 459.362 146.005 458.744C146.005 458.125 145.88 457.545 145.628 457.004C145.396 456.462 145.077 456.027 144.671 455.699C144.265 455.37 143.801 455.206 143.279 455.206C142.777 455.206 142.332 455.38 141.945 455.728C141.559 456.056 141.259 456.491 141.046 457.033C140.834 457.555 140.727 458.106 140.727 458.686ZM139.828 470.286C139.828 471.272 140.157 472.074 140.814 472.693C141.491 473.331 142.4 473.65 143.54 473.65C144.314 473.65 145.019 473.466 145.657 473.099C146.295 472.751 146.808 472.267 147.194 471.649C147.6 471.03 147.803 470.334 147.803 469.561C147.803 469.077 147.562 468.671 147.078 468.343C146.614 468.014 146.054 467.782 145.396 467.647C144.72 467.531 143.801 467.444 142.641 467.386H141.974C141.858 467.463 141.675 467.608 141.423 467.821C141.191 468.053 140.892 468.352 140.524 468.72C140.06 469.261 139.828 469.783 139.828 470.286ZM163.393 460.397C163.393 461.518 163.132 462.572 162.61 463.558C162.107 464.524 161.363 465.307 160.377 465.907C159.41 466.506 158.231 466.806 156.839 466.806C155.756 466.806 154.77 466.554 153.881 466.052C153.011 465.549 152.325 464.863 151.822 463.993C151.319 463.103 151.068 462.098 151.068 460.977C151.068 460.145 151.232 459.343 151.561 458.57C151.89 457.777 152.344 457.071 152.924 456.453C153.523 455.815 154.2 455.312 154.954 454.945C155.708 454.577 156.51 454.394 157.361 454.394C158.502 454.394 159.526 454.664 160.435 455.206C161.344 455.728 162.059 456.443 162.581 457.352C163.122 458.241 163.393 459.256 163.393 460.397ZM153.446 460.31C153.446 461.296 153.62 462.224 153.968 463.094C154.335 463.944 154.819 464.631 155.418 465.153C156.037 465.675 156.713 465.936 157.448 465.936C158.415 465.936 159.149 465.733 159.652 465.327C160.174 464.901 160.532 464.321 160.725 463.587C160.918 462.833 161.015 461.963 161.015 460.977C161.015 459.971 160.831 459.043 160.464 458.193C160.116 457.323 159.633 456.627 159.014 456.105C158.415 455.563 157.719 455.293 156.926 455.293C154.606 455.293 153.446 456.965 153.446 460.31ZM172.821 465.617C172.512 465.907 172.077 466.177 171.516 466.429C170.975 466.68 170.434 466.806 169.892 466.806C168.945 466.806 168.201 466.525 167.659 465.965C167.137 465.385 166.876 464.515 166.876 463.355V456.627C166.876 456.453 166.809 456.337 166.673 456.279C166.538 456.221 166.238 456.192 165.774 456.192C165.716 456.192 165.639 456.114 165.542 455.96C165.465 455.805 165.426 455.689 165.426 455.612C165.426 455.534 165.475 455.467 165.571 455.409C166.016 455.273 166.47 454.993 166.934 454.568C167.398 454.142 167.775 453.746 168.065 453.379C168.355 453.011 168.529 452.828 168.587 452.828C168.858 452.828 168.993 452.924 168.993 453.118L168.935 454.394C168.935 454.664 169.167 454.8 169.631 454.8H172.937C173.131 454.8 173.227 455.032 173.227 455.496C173.227 455.96 173.131 456.192 172.937 456.192H170.066C169.544 456.192 169.216 456.23 169.08 456.308C168.964 456.385 168.906 456.617 168.906 457.004V462.485C168.906 463.471 169.09 464.176 169.457 464.602C169.825 465.008 170.279 465.211 170.82 465.211C171.787 465.211 172.512 465.027 172.995 464.66C173.015 464.64 173.044 464.631 173.082 464.631C173.218 464.631 173.285 464.756 173.285 465.008C173.285 465.162 173.131 465.365 172.821 465.617ZM183.977 474.52L181.657 474.665C181.251 474.665 181.048 474.568 181.048 474.375C181.048 474.201 181.319 474.027 181.86 473.853C182.421 473.679 182.74 473.495 182.817 473.302C182.914 473.108 182.962 472.934 182.962 472.78V458.077C182.962 457.845 182.904 457.584 182.788 457.294C182.692 456.984 182.547 456.704 182.353 456.453C182.16 456.182 181.918 456.018 181.628 455.96C181.474 455.921 181.396 455.795 181.396 455.583C181.396 455.37 181.464 455.254 181.599 455.235C182.005 455.138 182.489 454.993 183.049 454.8C183.61 454.606 184.248 454.365 184.963 454.075L184.992 454.046H185.021C185.137 454.046 185.195 454.133 185.195 454.307L185.05 456.047C185.05 456.201 185.06 456.288 185.079 456.308C185.331 456.056 185.717 455.786 186.239 455.496C186.781 455.206 187.37 454.954 188.008 454.742C188.646 454.51 189.236 454.394 189.777 454.394C190.744 454.394 191.575 454.655 192.271 455.177C192.987 455.679 193.538 456.346 193.924 457.178C194.33 458.009 194.533 458.908 194.533 459.875C194.533 460.764 194.359 461.624 194.011 462.456C193.683 463.287 193.219 464.031 192.619 464.689C192.02 465.327 191.324 465.839 190.531 466.226C189.739 466.612 188.898 466.806 188.008 466.806C187.738 466.806 187.409 466.757 187.022 466.661C186.636 466.583 186.268 466.477 185.92 466.342C185.572 466.187 185.302 466.032 185.108 465.878C185.031 465.878 184.992 466.371 184.992 467.357V472.78C184.992 473.07 185.099 473.273 185.311 473.389C185.543 473.524 185.717 473.611 185.833 473.65C185.872 473.669 185.93 473.688 186.007 473.708C186.104 473.727 186.201 473.746 186.297 473.766C186.993 473.94 187.341 474.152 187.341 474.404C187.341 474.578 187.129 474.665 186.703 474.665L183.977 474.52ZM185.833 465.24C186.317 465.684 187.187 465.907 188.443 465.907C189.178 465.907 189.845 465.636 190.444 465.095C191.063 464.553 191.517 463.925 191.807 463.21C192.078 462.494 192.213 461.653 192.213 460.687C192.213 459.72 192.068 458.869 191.778 458.135C191.508 457.4 191.15 456.868 190.705 456.54C189.855 455.979 189.014 455.699 188.182 455.699C187.312 455.699 186.578 455.921 185.978 456.366C185.398 456.81 185.079 457.555 185.021 458.599L184.992 460.455V461.354C184.992 462.127 185.031 462.881 185.108 463.616C185.205 464.331 185.447 464.872 185.833 465.24ZM202.089 465.675C201.819 465.926 201.413 466.177 200.871 466.429C200.349 466.68 199.769 466.806 199.131 466.806C198.706 466.806 198.29 466.69 197.884 466.458C197.498 466.245 197.179 465.965 196.927 465.617C196.676 465.249 196.55 464.882 196.55 464.515C196.55 463.355 197.256 462.485 198.667 461.905L201.625 460.687C201.993 460.532 202.215 460.397 202.292 460.281C202.37 460.165 202.418 459.913 202.437 459.527L202.495 457.729V457.671C202.495 457.168 202.331 456.733 202.002 456.366C201.693 455.998 201.335 455.815 200.929 455.815C200.504 455.815 200.108 455.921 199.74 456.134C199.373 456.327 199.141 456.511 199.044 456.685C198.948 456.878 198.899 457.081 198.899 457.294L198.928 457.7C198.928 457.816 198.793 457.951 198.522 458.106C198.252 458.26 197.962 458.405 197.652 458.541C197.343 458.657 197.121 458.715 196.985 458.715C196.792 458.715 196.695 458.628 196.695 458.454C196.695 458.009 196.85 457.584 197.159 457.178C197.469 456.772 197.865 456.385 198.348 456.018C198.851 455.65 199.373 455.322 199.914 455.032C200.707 454.606 201.461 454.394 202.176 454.394C202.853 454.394 203.423 454.645 203.887 455.148C204.351 455.65 204.574 456.259 204.554 456.975L204.409 463.239V463.413C204.409 464.785 204.757 465.472 205.453 465.472C205.917 465.472 206.304 465.336 206.613 465.066C206.652 465.027 206.7 465.008 206.758 465.008C206.836 465.008 206.903 465.037 206.961 465.095C207.039 465.153 207.077 465.23 207.077 465.327V465.356C207 465.51 206.836 465.704 206.584 465.936C206.333 466.168 206.043 466.371 205.714 466.545C205.386 466.719 205.067 466.806 204.757 466.806C204.274 466.806 203.868 466.68 203.539 466.429C203.23 466.177 203.008 465.926 202.872 465.675C202.737 465.423 202.65 465.298 202.611 465.298C202.515 465.298 202.341 465.423 202.089 465.675ZM198.87 463.877C198.87 464.379 199.025 464.776 199.334 465.066C199.644 465.336 200.021 465.472 200.465 465.472C200.91 465.472 201.335 465.298 201.741 464.95C202.147 464.602 202.36 464.128 202.379 463.529L202.437 462.108V461.963C202.437 461.653 202.35 461.499 202.176 461.499C202.06 461.499 201.925 461.528 201.77 461.586C199.837 462.243 198.87 463.007 198.87 463.877ZM215.615 463.326C215.615 465.646 214.223 466.806 211.439 466.806C210.724 466.806 210.057 466.68 209.438 466.429C208.82 466.197 208.462 465.974 208.365 465.762C208.133 465.278 208.008 464.689 207.988 463.993C207.988 463.819 208.143 463.732 208.452 463.732C208.742 463.732 208.897 463.799 208.916 463.935C208.994 464.263 209.168 464.592 209.438 464.921C209.728 465.249 210.067 465.52 210.453 465.733C210.859 465.926 211.275 466.023 211.7 466.023C212.319 466.023 212.793 465.839 213.121 465.472C213.469 465.104 213.643 464.65 213.643 464.109C213.643 463.567 213.469 463.113 213.121 462.746C212.773 462.359 212.193 461.876 211.381 461.296C210.55 460.716 209.883 460.155 209.38 459.614C208.897 459.053 208.655 458.376 208.655 457.584C208.655 457.042 208.8 456.53 209.09 456.047C209.38 455.563 209.796 455.167 210.337 454.858C210.879 454.548 211.536 454.394 212.309 454.394C213.469 454.394 214.272 454.616 214.716 455.061C215.045 455.486 215.209 456.24 215.209 457.323C215.209 457.4 215.142 457.439 215.006 457.439C214.871 457.439 214.678 457.371 214.426 457.236C214.175 457.081 214.049 456.946 214.049 456.83C214.03 456.404 213.837 456.018 213.469 455.67C213.102 455.322 212.667 455.148 212.164 455.148C211.642 455.148 211.217 455.322 210.888 455.67C210.56 456.018 210.395 456.424 210.395 456.888C210.395 457.352 210.56 457.777 210.888 458.164C211.217 458.55 211.507 458.821 211.758 458.976C211.874 459.053 212.019 459.159 212.193 459.295C212.387 459.411 212.609 459.546 212.86 459.701C213.189 459.894 213.46 460.068 213.672 460.223C213.904 460.377 214.127 460.561 214.339 460.774C214.552 460.967 214.784 461.247 215.035 461.615C215.422 462.175 215.615 462.746 215.615 463.326ZM224.989 463.326C224.989 465.646 223.597 466.806 220.813 466.806C220.098 466.806 219.431 466.68 218.812 466.429C218.194 466.197 217.836 465.974 217.739 465.762C217.507 465.278 217.382 464.689 217.362 463.993C217.362 463.819 217.517 463.732 217.826 463.732C218.116 463.732 218.271 463.799 218.29 463.935C218.368 464.263 218.542 464.592 218.812 464.921C219.102 465.249 219.441 465.52 219.827 465.733C220.233 465.926 220.649 466.023 221.074 466.023C221.693 466.023 222.167 465.839 222.495 465.472C222.843 465.104 223.017 464.65 223.017 464.109C223.017 463.567 222.843 463.113 222.495 462.746C222.147 462.359 221.567 461.876 220.755 461.296C219.924 460.716 219.257 460.155 218.754 459.614C218.271 459.053 218.029 458.376 218.029 457.584C218.029 457.042 218.174 456.53 218.464 456.047C218.754 455.563 219.17 455.167 219.711 454.858C220.253 454.548 220.91 454.394 221.683 454.394C222.843 454.394 223.646 454.616 224.09 455.061C224.419 455.486 224.583 456.24 224.583 457.323C224.583 457.4 224.516 457.439 224.38 457.439C224.245 457.439 224.052 457.371 223.8 457.236C223.549 457.081 223.423 456.946 223.423 456.83C223.404 456.404 223.211 456.018 222.843 455.67C222.476 455.322 222.041 455.148 221.538 455.148C221.016 455.148 220.591 455.322 220.262 455.67C219.934 456.018 219.769 456.424 219.769 456.888C219.769 457.352 219.934 457.777 220.262 458.164C220.591 458.55 220.881 458.821 221.132 458.976C221.248 459.053 221.393 459.159 221.567 459.295C221.761 459.411 221.983 459.546 222.234 459.701C222.563 459.894 222.834 460.068 223.046 460.223C223.278 460.377 223.501 460.561 223.713 460.774C223.926 460.967 224.158 461.247 224.409 461.615C224.796 462.175 224.989 462.746 224.989 463.326ZM232.652 466.864C232.575 466.999 232.498 467.067 232.42 467.067C232.304 467.067 232.237 466.999 232.217 466.864L228.186 456.859C227.877 456.105 227.374 455.631 226.678 455.438C226.234 455.283 226.011 455.109 226.011 454.916C226.011 454.742 226.205 454.655 226.591 454.655L228.708 454.8C229.443 454.761 230.023 454.732 230.448 454.713C230.893 454.674 231.183 454.655 231.318 454.655C231.57 454.655 231.695 454.742 231.695 454.916C231.695 455.109 231.473 455.283 231.028 455.438C230.622 455.554 230.419 455.94 230.419 456.598C230.419 456.733 230.429 456.859 230.448 456.975C230.487 457.091 230.526 457.216 230.564 457.352L232.768 463.036C232.826 463.21 232.894 463.297 232.971 463.297C233.049 463.297 233.126 463.2 233.203 463.007L235.117 458.338C235.233 458.009 235.291 457.661 235.291 457.294C235.291 456.907 235.137 456.53 234.827 456.163C234.518 455.776 234.17 455.525 233.783 455.409C233.377 455.312 233.174 455.148 233.174 454.916C233.174 454.742 233.368 454.655 233.754 454.655L235.929 454.8L238.365 454.655C238.752 454.655 238.945 454.742 238.945 454.916C238.945 455.109 238.723 455.283 238.278 455.438C237.621 455.631 237.292 455.979 237.292 456.482C237.292 456.772 237.36 457.062 237.495 457.352L239.67 462.949C239.748 463.142 239.825 463.239 239.902 463.239C239.999 463.239 240.076 463.152 240.134 462.978L242.338 457.845C242.474 457.574 242.541 457.255 242.541 456.888C242.541 456.54 242.435 456.23 242.222 455.96C242.01 455.689 241.729 455.496 241.381 455.38C241.033 455.264 240.859 455.109 240.859 454.916C240.859 454.742 241.053 454.655 241.439 454.655L243.614 454.8L245.296 454.655C245.683 454.655 245.876 454.742 245.876 454.916C245.876 455.109 245.654 455.283 245.209 455.438C244.687 455.573 244.175 456.211 243.672 457.352L239.699 466.864C239.641 466.999 239.564 467.067 239.467 467.067C239.371 467.067 239.284 466.999 239.206 466.864L236.19 459.382C236.132 459.246 236.074 459.179 236.016 459.179C235.958 459.179 235.891 459.256 235.813 459.411L232.652 466.864ZM259.059 460.397C259.059 461.518 258.798 462.572 258.276 463.558C257.773 464.524 257.029 465.307 256.043 465.907C255.076 466.506 253.897 466.806 252.505 466.806C251.422 466.806 250.436 466.554 249.547 466.052C248.677 465.549 247.991 464.863 247.488 463.993C246.985 463.103 246.734 462.098 246.734 460.977C246.734 460.145 246.898 459.343 247.227 458.57C247.556 457.777 248.01 457.071 248.59 456.453C249.189 455.815 249.866 455.312 250.62 454.945C251.374 454.577 252.176 454.394 253.027 454.394C254.168 454.394 255.192 454.664 256.101 455.206C257.01 455.728 257.725 456.443 258.247 457.352C258.788 458.241 259.059 459.256 259.059 460.397ZM249.112 460.31C249.112 461.296 249.286 462.224 249.634 463.094C250.001 463.944 250.485 464.631 251.084 465.153C251.703 465.675 252.379 465.936 253.114 465.936C254.081 465.936 254.815 465.733 255.318 465.327C255.84 464.901 256.198 464.321 256.391 463.587C256.584 462.833 256.681 461.963 256.681 460.977C256.681 459.971 256.497 459.043 256.13 458.193C255.782 457.323 255.299 456.627 254.68 456.105C254.081 455.563 253.385 455.293 252.592 455.293C250.272 455.293 249.112 456.965 249.112 460.31ZM263.847 466.342L261.498 466.487C261.112 466.487 260.918 466.39 260.918 466.197C260.918 466.023 261.092 465.878 261.44 465.762C261.788 465.646 262.02 465.568 262.136 465.53C262.252 465.472 262.378 465.365 262.513 465.211C262.629 465.056 262.687 464.853 262.687 464.602V458.367C262.687 457.149 262.291 456.453 261.498 456.279C261.344 456.24 261.266 456.114 261.266 455.902C261.266 455.689 261.334 455.573 261.469 455.554C262.185 455.418 262.726 455.225 263.093 454.974C263.422 454.761 263.693 454.587 263.905 454.452C264.137 454.316 264.302 454.21 264.398 454.133C264.611 454.017 264.717 453.949 264.717 453.93H264.804C264.862 453.93 264.901 453.997 264.92 454.133C264.92 454.384 264.92 454.635 264.92 454.887C264.92 455.138 264.911 455.389 264.891 455.641C264.872 456.124 264.872 456.366 264.891 456.366C264.891 456.366 264.94 456.317 265.036 456.221C265.307 455.873 265.481 455.679 265.558 455.641C266.467 454.809 267.356 454.394 268.226 454.394C268.632 454.394 268.961 454.481 269.212 454.655C269.483 454.829 269.618 455.061 269.618 455.351C269.618 455.641 269.493 455.96 269.241 456.308C269.009 456.656 268.787 456.83 268.574 456.83C268.362 456.83 268.052 456.743 267.646 456.569C267.24 456.395 266.941 456.308 266.747 456.308C266.187 456.308 265.703 456.491 265.297 456.859C264.911 457.226 264.717 457.854 264.717 458.744V464.457C264.737 464.959 265.259 465.375 266.283 465.704C266.728 465.858 266.95 466.023 266.95 466.197C266.95 466.39 266.757 466.487 266.37 466.487L263.847 466.342ZM281.363 466.458C280.59 466.786 280.145 466.951 280.029 466.951C279.874 466.951 279.797 466.912 279.797 466.835L279.942 464.921V464.747C279.594 465.288 279.091 465.771 278.434 466.197C277.777 466.603 277.013 466.806 276.143 466.806C275.099 466.806 274.171 466.525 273.359 465.965C272.547 465.404 271.909 464.669 271.445 463.761C271 462.833 270.778 461.818 270.778 460.716C270.778 459.614 271.049 458.579 271.59 457.613C272.131 456.646 272.895 455.873 273.881 455.293C274.867 454.693 276.008 454.394 277.303 454.394C277.574 454.394 277.864 454.432 278.173 454.51C278.502 454.568 278.801 454.645 279.072 454.742C279.343 454.838 279.517 454.935 279.594 455.032C279.71 455.186 279.807 455.264 279.884 455.264C279.942 455.264 279.971 455.032 279.971 454.568V449.986C279.971 449.251 279.855 448.748 279.623 448.478C279.41 448.188 279.033 447.985 278.492 447.869C278.337 447.83 278.26 447.704 278.26 447.492C278.26 447.279 278.328 447.163 278.463 447.144C278.85 447.047 279.227 446.941 279.594 446.825C279.981 446.709 280.358 446.573 280.725 446.419C281.479 446.129 281.914 445.984 282.03 445.984C282.127 445.984 282.185 446.022 282.204 446.1C282.204 446.138 282.204 446.206 282.204 446.303C282.204 446.399 282.194 446.525 282.175 446.68C282.059 447.782 282.001 448.922 282.001 450.102V463.21C282.001 464.466 282.204 465.095 282.61 465.095C283.209 465.095 283.654 465.066 283.944 465.008H284.031C284.263 465.008 284.379 465.124 284.379 465.356C284.379 465.646 284.244 465.791 283.973 465.791C283.47 465.868 282.997 465.965 282.552 466.081C282.127 466.177 281.73 466.303 281.363 466.458ZM274.606 464.515C275.495 465.172 276.356 465.501 277.187 465.501C277.999 465.501 278.666 465.249 279.188 464.747C279.71 464.244 279.971 463.635 279.971 462.92V459.005C279.971 458.405 279.816 457.835 279.507 457.294C279.217 456.752 278.801 456.308 278.26 455.96C277.738 455.592 277.119 455.409 276.404 455.409C275.708 455.409 275.08 455.65 274.519 456.134C273.958 456.598 273.552 457.168 273.301 457.845C273.05 458.483 272.924 459.304 272.924 460.31C272.924 461.276 273.079 462.137 273.388 462.891C273.717 463.625 274.123 464.167 274.606 464.515ZM288.754 460.484C288.754 460.928 288.609 461.151 288.319 461.151C288.242 461.151 288.126 461.064 287.971 460.89C287.894 460.774 287.787 460.551 287.652 460.223C287.536 459.875 287.43 459.488 287.333 459.063C287.256 458.618 287.217 458.222 287.217 457.874C287.217 457.352 287.449 456.907 287.913 456.54C288.377 456.153 288.976 455.766 289.711 455.38C291.18 454.664 291.915 453.91 291.915 453.118C291.915 452.132 291.664 451.339 291.161 450.74C290.658 450.121 289.933 449.802 288.986 449.783L287.623 449.899C287.314 449.899 287.033 449.725 286.782 449.377C286.531 449.029 286.405 448.69 286.405 448.362C286.405 448.033 286.531 447.762 286.782 447.55C287.053 447.337 287.314 447.231 287.565 447.231C288.319 447.231 289.015 447.434 289.653 447.84C290.291 448.246 290.861 448.777 291.364 449.435C291.886 450.073 292.311 450.759 292.64 451.494C293.143 452.596 293.394 453.524 293.394 454.278C293.394 455.438 292.959 456.269 292.089 456.772C291.509 457.081 290.968 457.371 290.465 457.642C289.962 457.912 289.556 458.26 289.247 458.686C288.957 459.111 288.793 459.71 288.754 460.484ZM290.465 465.066C290.465 465.549 290.291 465.965 289.943 466.313C289.614 466.641 289.208 466.806 288.725 466.806C288.242 466.806 287.826 466.641 287.478 466.313C287.149 465.965 286.985 465.549 286.985 465.066C286.985 464.582 287.159 464.167 287.507 463.819C287.836 463.49 288.242 463.326 288.725 463.326C289.208 463.326 289.614 463.5 289.943 463.848C290.291 464.176 290.465 464.582 290.465 465.066Z" fill="white"/>
</svg>
