<svg width="165" height="69" viewBox="0 0 165 69" fill="none" xmlns="http://www.w3.org/2000/svg">
<path d="M39.8277 47C39.8277 50.7333 38.9944 54.1667 37.3277 57.3C35.7277 60.3667 33.3944 62.8333 30.3277 64.7C27.3277 66.5 23.6611 67.4 19.3277 67.4C12.8611 67.4 8.02774 65.5333 4.82773 61.8C1.62773 58 0.0277345 52.9667 0.0277345 46.7C0.0277345 36.7 3.86107 27.2333 11.5277 18.3C13.3944 16.1667 15.7277 14.0333 18.5277 11.9C21.3277 9.76667 24.4277 7.83333 27.8277 6.1C31.2944 4.36667 34.8944 3.03333 38.6277 2.09999H39.1277C39.7277 2.09999 40.0277 2.19999 40.0277 2.4C40.0277 2.93333 39.7611 3.36666 39.2277 3.7L37.4277 4.6C31.6277 7.13333 26.5277 10.5667 22.1277 14.9C17.7944 19.1667 14.3944 24.0667 11.9277 29.6C9.52774 35.0667 8.32773 40.8667 8.32773 47C8.32773 51.6667 9.46107 55.3667 11.7277 58.1C12.7944 59.4333 14.2944 60.7333 16.2277 62C18.2277 63.2 20.3611 63.8 22.6277 63.8C24.1611 63.8 25.7277 63.4333 27.3277 62.7C28.9277 61.9 30.2611 60.6333 31.3277 58.9C32.3944 57.1 32.9277 54.7333 32.9277 51.8C32.9277 48.6667 31.9944 45.9333 30.1277 43.6C28.3277 41.2 25.9277 40 22.9277 40C19.9277 40 17.4611 40.5 15.5277 41.5C14.9277 41.8333 14.5611 41.8 14.4277 41.4C14.2944 41 14.5611 40.4667 15.2277 39.8C15.9611 39.1333 16.9277 38.4333 18.1277 37.7C19.3277 36.9 20.5944 36.2667 21.9277 35.8C23.9277 35.0667 25.7277 34.7 27.3277 34.7C29.6611 34.7 31.7611 35.2333 33.6277 36.3C35.4944 37.3667 36.9944 38.8333 38.1277 40.7C39.2611 42.5 39.8277 44.6 39.8277 47ZM91.5535 45.8C91.5535 49.7333 90.5869 53.3667 88.6535 56.7C86.7869 59.9667 84.2202 62.6 80.9535 64.6C77.7535 66.5333 74.1869 67.5 70.2535 67.5C66.3202 67.5 62.7202 66.5 59.4535 64.5C56.2535 62.5 53.6868 59.8667 51.7535 56.6C49.8202 53.2667 48.8535 49.6333 48.8535 45.7C48.8535 41.7667 49.8202 38.2333 51.7535 35.1C53.6868 31.9 56.2535 29.3667 59.4535 27.5C62.7202 25.6333 66.2869 24.7 70.1535 24.7C74.0869 24.7 77.6535 25.6333 80.8535 27.5C84.1202 29.3667 86.7202 31.9 88.6535 35.1C90.5869 38.3 91.5535 41.8667 91.5535 45.8ZM56.6535 45.4C56.6535 48.5333 57.1868 51.5 58.2535 54.3C59.3202 57.0333 60.8535 59.2333 62.8535 60.9C64.8535 62.5667 67.2202 63.4 69.9535 63.4C74.0869 63.4 77.4202 61.9667 79.9535 59.1C82.4869 56.1667 83.7535 52.0667 83.7535 46.8C83.7535 41.6 82.5869 37.3 80.2535 33.9C77.9202 30.5 74.7535 28.8 70.7535 28.8C68.0868 28.8 65.6868 29.5333 63.5535 31C61.4202 32.4 59.7202 34.3667 58.4535 36.9C57.2535 39.3667 56.6535 42.2 56.6535 45.4ZM114.337 67.1C113.737 68.1 112.537 68.6 110.737 68.6C110.337 68.6 109.937 68.4667 109.537 68.2C109.204 67.9333 109.037 67.7 109.037 67.5C109.037 67.3 109.07 67.1667 109.137 67.1L150.337 2.2C151.07 1.06666 152.37 0.499997 154.237 0.499997C154.57 0.499997 154.87 0.633331 155.137 0.899998C155.47 1.16666 155.637 1.43333 155.637 1.7C155.637 1.96666 155.604 2.13333 155.537 2.2L114.337 67.1ZM127.437 20.5C127.437 23.7 126.837 26.7333 125.637 29.6C124.504 32.4667 122.904 34.8 120.837 36.6C118.77 38.3333 116.304 39.2 113.437 39.2C110.637 39.2 108.27 38.4 106.337 36.8C104.404 35.1333 102.937 32.9667 101.937 30.3C100.937 27.5667 100.437 24.6 100.437 21.4C100.437 18.2 101.037 15.2 102.237 12.4C103.437 9.6 105.104 7.33333 107.237 5.6C109.437 3.86666 111.904 2.99999 114.637 2.99999C117.437 2.99999 119.77 3.8 121.637 5.4C123.57 6.93333 125.004 9.03333 125.937 11.7C126.937 14.3 127.437 17.2333 127.437 20.5ZM107.437 20.2C107.437 22.6667 107.704 25.2 108.237 27.8C108.837 30.3333 109.637 32.4667 110.637 34.2C111.704 35.9333 112.904 36.8 114.237 36.8C115.57 36.8 116.704 36.0667 117.637 34.6C118.57 33.1333 119.27 31.2667 119.737 29C120.204 26.6667 120.437 24.2667 120.437 21.8V21.3C120.437 18.8333 120.137 16.4333 119.537 14.1C118.937 11.7 118.137 9.7 117.137 8.09999C116.204 6.5 115.137 5.7 113.937 5.7C112.737 5.7 111.637 6.4 110.637 7.8C109.637 9.2 108.837 11 108.237 13.2C107.704 15.4 107.437 17.7333 107.437 20.2ZM164.137 48.7C164.137 51.9667 163.537 55.0333 162.337 57.9C161.204 60.7 159.604 63 157.537 64.8C155.47 66.5333 153.004 67.4 150.137 67.4C147.27 67.4 144.87 66.6 142.937 65C141.07 63.3333 139.637 61.1667 138.637 58.5C137.637 55.8333 137.137 52.8667 137.137 49.6C137.137 46.4 137.737 43.4 138.937 40.6C140.137 37.8 141.804 35.5333 143.937 33.8C146.137 32.0667 148.604 31.2 151.337 31.2C154.137 31.2 156.47 32 158.337 33.6C160.27 35.1333 161.704 37.2333 162.637 39.9C163.637 42.5 164.137 45.4333 164.137 48.7ZM144.137 48.4C144.137 50.8667 144.404 53.4 144.937 56C145.537 58.5333 146.337 60.6667 147.337 62.4C148.404 64.1333 149.604 65 150.937 65C152.27 65 153.404 64.2667 154.337 62.8C155.27 61.3333 155.97 59.4667 156.437 57.2C156.904 54.8667 157.137 52.4667 157.137 50V49.5C157.137 47.0333 156.837 44.6333 156.237 42.3C155.637 39.9 154.837 37.9 153.837 36.3C152.904 34.7 151.837 33.9 150.637 33.9C149.437 33.9 148.337 34.6 147.337 36C146.337 37.4 145.537 39.2 144.937 41.4C144.404 43.6 144.137 45.9333 144.137 48.4Z" fill="white"/>
</svg>
