<svg width="214" height="247" viewBox="0 0 214 247" fill="none" xmlns="http://www.w3.org/2000/svg">
<path d="M16.9973 235V234C17.5473 233.983 17.989 233.942 18.3223 233.875C18.6723 233.792 18.939 233.65 19.1223 233.45C19.3223 233.233 19.4556 232.95 19.5223 232.6C19.589 232.233 19.6223 231.75 19.6223 231.15V219.6C19.6223 219.017 19.5973 218.55 19.5473 218.2C19.4973 217.833 19.389 217.55 19.2223 217.35C19.0556 217.133 18.8223 216.992 18.5223 216.925C18.239 216.842 17.864 216.783 17.3973 216.75V215.75H26.8973C28.4973 215.75 29.9723 216 31.3223 216.5C32.6723 217 33.839 217.692 34.8223 218.575C35.8056 219.458 36.5723 220.508 37.1223 221.725C37.6723 222.942 37.9473 224.267 37.9473 225.7C37.9473 227.067 37.689 228.325 37.1723 229.475C36.6556 230.608 35.9306 231.583 34.9973 232.4C34.0806 233.217 32.9723 233.858 31.6723 234.325C30.389 234.775 28.9723 235 27.4223 235H16.9973ZM23.7223 217.275C23.439 217.275 23.2973 217.417 23.2973 217.7V230.625C23.2973 231.592 23.5973 232.308 24.1973 232.775C24.7973 233.242 25.7223 233.475 26.9723 233.475C29.1556 233.475 30.8306 232.817 31.9973 231.5C33.1806 230.183 33.7723 228.267 33.7723 225.75C33.7723 224.417 33.614 223.225 33.2973 222.175C32.9806 221.125 32.5223 220.242 31.9223 219.525C31.3223 218.792 30.589 218.233 29.7223 217.85C28.8723 217.467 27.914 217.275 26.8473 217.275H23.7223ZM48.628 235H39.703V234C40.2696 233.983 40.7196 233.933 41.053 233.85C41.403 233.75 41.6696 233.575 41.853 233.325C42.0363 233.075 42.1613 232.725 42.228 232.275C42.2946 231.808 42.328 231.183 42.328 230.4V220.35C42.328 219.65 42.2946 219.075 42.228 218.625C42.178 218.158 42.0696 217.792 41.903 217.525C41.7363 217.258 41.4946 217.075 41.178 216.975C40.878 216.858 40.4696 216.783 39.953 216.75V215.75H48.378V216.75C47.8613 216.783 47.4446 216.858 47.128 216.975C46.828 217.075 46.5946 217.258 46.428 217.525C46.2613 217.792 46.1446 218.158 46.078 218.625C46.028 219.075 46.003 219.65 46.003 220.35V230.4C46.003 231.183 46.028 231.808 46.078 232.275C46.1446 232.725 46.2696 233.075 46.453 233.325C46.653 233.575 46.9196 233.75 47.253 233.85C47.603 233.933 48.0613 233.983 48.628 234V235ZM50.8708 228.625H51.8458C52.0791 230.208 52.7124 231.458 53.7458 232.375C54.7791 233.275 56.0541 233.725 57.5708 233.725C58.1874 233.725 58.7541 233.65 59.2708 233.5C59.7874 233.35 60.2291 233.142 60.5958 232.875C60.9624 232.592 61.2458 232.267 61.4458 231.9C61.6458 231.517 61.7458 231.092 61.7458 230.625C61.7458 230.225 61.6791 229.883 61.5458 229.6C61.4291 229.3 61.1958 229.017 60.8458 228.75C60.4958 228.467 60.0124 228.183 59.3958 227.9C58.7958 227.617 58.0124 227.292 57.0458 226.925C55.0958 226.175 53.6541 225.308 52.7208 224.325C51.7874 223.325 51.3208 222.15 51.3208 220.8C51.3208 220.017 51.4708 219.3 51.7708 218.65C52.0708 218 52.4874 217.442 53.0208 216.975C53.5708 216.508 54.2208 216.15 54.9708 215.9C55.7374 215.633 56.5791 215.5 57.4958 215.5C58.3458 215.5 59.1458 215.633 59.8958 215.9C60.6458 216.167 61.3874 216.567 62.1208 217.1L62.5708 215.85H63.1708L63.4458 221.25H62.4708C62.0708 219.883 61.4458 218.842 60.5958 218.125C59.7458 217.392 58.7624 217.025 57.6458 217.025C56.6124 217.025 55.7708 217.283 55.1208 217.8C54.4874 218.3 54.1708 218.95 54.1708 219.75C54.1708 220.1 54.2291 220.417 54.3458 220.7C54.4624 220.967 54.6791 221.225 54.9958 221.475C55.3124 221.725 55.7458 221.983 56.2958 222.25C56.8458 222.5 57.5541 222.783 58.4208 223.1C59.5874 223.55 60.5791 224.008 61.3958 224.475C62.2291 224.925 62.9041 225.417 63.4208 225.95C63.9541 226.467 64.3458 227.017 64.5958 227.6C64.8458 228.183 64.9708 228.825 64.9708 229.525C64.9708 230.375 64.7874 231.15 64.4208 231.85C64.0541 232.55 63.5374 233.15 62.8708 233.65C62.2208 234.15 61.4374 234.542 60.5208 234.825C59.6208 235.108 58.6208 235.25 57.5208 235.25C56.5208 235.25 55.6208 235.117 54.8208 234.85C54.0208 234.567 53.1958 234.117 52.3458 233.5L51.8458 235H51.2458L50.8708 228.625ZM83.7729 215.75H84.9979L84.4979 222.075H83.4979C83.1479 220.542 82.4646 219.333 81.4479 218.45C80.4479 217.567 79.2312 217.125 77.7979 217.125C76.8146 217.125 75.9396 217.325 75.1729 217.725C74.4062 218.108 73.7562 218.667 73.2229 219.4C72.7062 220.117 72.3062 221 72.0229 222.05C71.7562 223.083 71.6229 224.25 71.6229 225.55C71.6229 228.133 72.1479 230.125 73.1979 231.525C74.2646 232.908 75.8312 233.6 77.8979 233.6C79.5646 233.6 80.9396 233.15 82.0229 232.25C83.1229 231.35 83.9062 230.008 84.3729 228.225H85.4729V235H84.2979L83.9479 233.025C82.1146 234.508 79.8896 235.25 77.2729 235.25C75.7562 235.25 74.3812 235.025 73.1479 234.575C71.9146 234.125 70.8646 233.492 69.9979 232.675C69.1312 231.842 68.4562 230.833 67.9729 229.65C67.5062 228.467 67.2729 227.15 67.2729 225.7C67.2729 224.183 67.5229 222.8 68.0229 221.55C68.5229 220.3 69.2229 219.225 70.1229 218.325C71.0396 217.425 72.1229 216.733 73.3729 216.25C74.6396 215.75 76.0396 215.5 77.5729 215.5C78.5896 215.5 79.5396 215.642 80.4229 215.925C81.3062 216.208 82.2646 216.667 83.2979 217.3L83.7729 215.75ZM96.504 235H87.579V234C88.1456 233.983 88.5956 233.933 88.929 233.85C89.279 233.75 89.5456 233.575 89.729 233.325C89.9123 233.075 90.0373 232.725 90.104 232.275C90.1706 231.808 90.204 231.183 90.204 230.4V220.35C90.204 219.65 90.1706 219.075 90.104 218.625C90.054 218.158 89.9456 217.792 89.779 217.525C89.6123 217.258 89.3706 217.075 89.054 216.975C88.754 216.858 88.3456 216.783 87.829 216.75V215.75H96.254V216.75C95.7373 216.783 95.3206 216.858 95.004 216.975C94.704 217.075 94.4706 217.258 94.304 217.525C94.1373 217.792 94.0206 218.158 93.954 218.625C93.904 219.075 93.879 219.65 93.879 220.35V230.4C93.879 231.183 93.904 231.808 93.954 232.275C94.0206 232.725 94.1456 233.075 94.329 233.325C94.529 233.575 94.7956 233.75 95.129 233.85C95.479 233.933 95.9373 233.983 96.504 234V235ZM114.897 221.1C114.897 222.9 114.197 224.275 112.797 225.225C111.397 226.158 109.363 226.625 106.697 226.625H104.572V231.025C104.572 231.658 104.613 232.175 104.697 232.575C104.78 232.958 104.955 233.258 105.222 233.475C105.488 233.692 105.855 233.833 106.322 233.9C106.788 233.967 107.413 234 108.197 234V235H98.2717V234C98.8217 233.983 99.2717 233.933 99.6217 233.85C99.9717 233.767 100.238 233.625 100.422 233.425C100.605 233.225 100.73 232.942 100.797 232.575C100.863 232.208 100.897 231.733 100.897 231.15V219.6C100.897 219.017 100.863 218.55 100.797 218.2C100.747 217.833 100.638 217.55 100.472 217.35C100.305 217.133 100.063 216.992 99.7467 216.925C99.4467 216.842 99.0467 216.783 98.5467 216.75V215.75H107.197C109.73 215.75 111.647 216.2 112.947 217.1C114.247 218 114.897 219.333 114.897 221.1ZM104.572 225.125H106.197C107.813 225.125 108.997 224.8 109.747 224.15C110.497 223.5 110.872 222.475 110.872 221.075C110.872 219.825 110.555 218.858 109.922 218.175C109.288 217.492 108.297 217.15 106.947 217.15H105.022C104.722 217.15 104.572 217.292 104.572 217.575V225.125ZM133.417 235H116.192V234C116.742 233.983 117.192 233.933 117.542 233.85C117.892 233.767 118.158 233.625 118.342 233.425C118.525 233.225 118.65 232.942 118.717 232.575C118.783 232.208 118.817 231.733 118.817 231.15V219.6C118.817 219.017 118.783 218.55 118.717 218.2C118.667 217.833 118.558 217.55 118.392 217.35C118.225 217.133 117.983 216.992 117.667 216.925C117.367 216.842 116.967 216.783 116.467 216.75V215.75H125.092V216.75C124.525 216.767 124.067 216.817 123.717 216.9C123.383 216.983 123.125 217.133 122.942 217.35C122.758 217.567 122.633 217.867 122.567 218.25C122.517 218.633 122.492 219.142 122.492 219.775V230.25C122.492 230.95 122.558 231.525 122.692 231.975C122.842 232.408 123.092 232.75 123.442 233C123.792 233.233 124.258 233.4 124.842 233.5C125.425 233.583 126.15 233.625 127.017 233.625C127.983 233.625 128.792 233.567 129.442 233.45C130.092 233.333 130.633 233.117 131.067 232.8C131.517 232.467 131.875 232.025 132.142 231.475C132.408 230.925 132.633 230.208 132.817 229.325H133.817L133.417 235ZM144.014 235H135.089V234C135.655 233.983 136.105 233.933 136.439 233.85C136.789 233.75 137.055 233.575 137.239 233.325C137.422 233.075 137.547 232.725 137.614 232.275C137.68 231.808 137.714 231.183 137.714 230.4V220.35C137.714 219.65 137.68 219.075 137.614 218.625C137.564 218.158 137.455 217.792 137.289 217.525C137.122 217.258 136.88 217.075 136.564 216.975C136.264 216.858 135.855 216.783 135.339 216.75V215.75H143.764V216.75C143.247 216.783 142.83 216.858 142.514 216.975C142.214 217.075 141.98 217.258 141.814 217.525C141.647 217.792 141.53 218.158 141.464 218.625C141.414 219.075 141.389 219.65 141.389 220.35V230.4C141.389 231.183 141.414 231.808 141.464 232.275C141.53 232.725 141.655 233.075 141.839 233.325C142.039 233.575 142.305 233.75 142.639 233.85C142.989 233.933 143.447 233.983 144.014 234V235ZM161.656 235.25L150.581 219.475H150.481V230.225C150.481 231.058 150.506 231.717 150.556 232.2C150.623 232.683 150.748 233.058 150.931 233.325C151.131 233.592 151.398 233.767 151.731 233.85C152.081 233.933 152.531 233.983 153.081 234V235H145.656V234C146.273 233.983 146.765 233.933 147.131 233.85C147.515 233.75 147.806 233.575 148.006 233.325C148.223 233.075 148.365 232.725 148.431 232.275C148.498 231.808 148.531 231.183 148.531 230.4V220.35C148.531 219.65 148.498 219.075 148.431 218.625C148.365 218.158 148.24 217.792 148.056 217.525C147.873 217.258 147.606 217.075 147.256 216.975C146.923 216.858 146.473 216.783 145.906 216.75V215.75H152.881L162.956 230.2H163.056V220.525C163.056 219.708 163.023 219.058 162.956 218.575C162.906 218.075 162.781 217.692 162.581 217.425C162.398 217.158 162.131 216.983 161.781 216.9C161.448 216.817 161.006 216.767 160.456 216.75V215.75H167.881V216.75C167.265 216.767 166.765 216.825 166.381 216.925C166.015 217.008 165.723 217.175 165.506 217.425C165.306 217.675 165.173 218.033 165.106 218.5C165.04 218.967 165.006 219.583 165.006 220.35V235.25H161.656ZM175.592 224.35C176.659 224.35 177.517 224.317 178.167 224.25C178.817 224.183 179.317 224.05 179.667 223.85C180.034 223.633 180.292 223.325 180.442 222.925C180.592 222.525 180.709 221.983 180.792 221.3H181.717V228.625H180.792C180.692 227.958 180.559 227.425 180.392 227.025C180.226 226.625 179.959 226.325 179.592 226.125C179.226 225.908 178.726 225.775 178.092 225.725C177.476 225.658 176.642 225.625 175.592 225.625V230.775C175.592 231.308 175.659 231.758 175.792 232.125C175.942 232.492 176.184 232.792 176.517 233.025C176.851 233.242 177.292 233.4 177.842 233.5C178.392 233.583 179.067 233.625 179.867 233.625C180.817 233.625 181.617 233.558 182.267 233.425C182.934 233.292 183.484 233.058 183.917 232.725C184.351 232.392 184.701 231.95 184.967 231.4C185.234 230.833 185.459 230.125 185.642 229.275H186.642L186.242 235H169.292V234C169.842 233.983 170.292 233.933 170.642 233.85C170.992 233.767 171.259 233.625 171.442 233.425C171.626 233.225 171.751 232.942 171.817 232.575C171.884 232.208 171.917 231.733 171.917 231.15V219.6C171.917 219.017 171.884 218.55 171.817 218.2C171.767 217.833 171.659 217.55 171.492 217.35C171.326 217.133 171.084 216.992 170.767 216.925C170.467 216.842 170.067 216.783 169.567 216.75V215.75H185.367L185.542 220.65H184.467C184.367 219.95 184.209 219.375 183.992 218.925C183.776 218.458 183.476 218.092 183.092 217.825C182.709 217.542 182.209 217.35 181.592 217.25C180.992 217.133 180.251 217.075 179.367 217.075H176.542C176.109 217.075 175.842 217.133 175.742 217.25C175.642 217.35 175.592 217.6 175.592 218V224.35Z" fill="white"/>
<rect x="0.985107" y="0.5" width="211.67" height="199" rx="20.5" fill="#2ECC71" fill-opacity="0.39" stroke="#FFFEFE"/>
<path d="M53.6526 145.84H165.653V33.84H53.6526V145.84Z" fill="white"/>
</svg>
