<svg width="222" height="247" viewBox="0 0 222 247" fill="none" xmlns="http://www.w3.org/2000/svg">
<path d="M20.0825 215.75H21.3075L20.8075 222.075H19.8075C19.4575 220.542 18.7741 219.333 17.7575 218.45C16.7575 217.567 15.5408 217.125 14.1075 217.125C13.1241 217.125 12.2491 217.325 11.4825 217.725C10.7158 218.108 10.0658 218.667 9.53247 219.4C9.0158 220.117 8.6158 221 8.33247 222.05C8.0658 223.083 7.93247 224.25 7.93247 225.55C7.93247 228.133 8.45747 230.125 9.50747 231.525C10.5741 232.908 12.1408 233.6 14.2075 233.6C15.8741 233.6 17.2491 233.15 18.3325 232.25C19.4325 231.35 20.2158 230.008 20.6825 228.225H21.7825V235H20.6075L20.2575 233.025C18.4241 234.508 16.1991 235.25 13.5825 235.25C12.0658 235.25 10.6908 235.025 9.45747 234.575C8.22414 234.125 7.17414 233.492 6.30747 232.675C5.4408 231.842 4.7658 230.833 4.28247 229.65C3.8158 228.467 3.58247 227.15 3.58247 225.7C3.58247 224.183 3.83247 222.8 4.33247 221.55C4.83247 220.3 5.53247 219.225 6.43247 218.325C7.34914 217.425 8.43247 216.733 9.68247 216.25C10.9491 215.75 12.3491 215.5 13.8825 215.5C14.8991 215.5 15.8491 215.642 16.7325 215.925C17.6158 216.208 18.5741 216.667 19.6075 217.3L20.0825 215.75ZM41.9135 227.25C41.9135 228.667 41.7552 229.883 41.4385 230.9C41.1385 231.9 40.6635 232.725 40.0135 233.375C39.3635 234.025 38.5219 234.5 37.4885 234.8C36.4719 235.1 35.2469 235.25 33.8135 235.25C31.1302 235.25 29.1635 234.692 27.9135 233.575C26.6802 232.442 26.0635 230.642 26.0635 228.175V221.325C26.0635 220.675 26.0552 220.133 26.0385 219.7C26.0219 219.25 25.9969 218.875 25.9635 218.575C25.9302 218.275 25.8802 218.033 25.8135 217.85C25.7635 217.65 25.6969 217.483 25.6135 217.35C25.4635 217.117 25.2469 216.958 24.9635 216.875C24.6802 216.792 24.2469 216.75 23.6635 216.75V215.75H32.6385V216.75C31.9385 216.75 31.4219 216.792 31.0885 216.875C30.7552 216.942 30.4969 217.083 30.3135 217.3C30.1969 217.433 30.0969 217.6 30.0135 217.8C29.9469 217.983 29.8885 218.233 29.8385 218.55C29.8052 218.85 29.7802 219.225 29.7635 219.675C29.7469 220.125 29.7385 220.675 29.7385 221.325V227.875C29.7385 229.775 30.1385 231.183 30.9385 232.1C31.7552 233 33.0052 233.45 34.6885 233.45C38.1219 233.45 39.8385 231.542 39.8385 227.725V221.95C39.8385 221.25 39.8219 220.65 39.7885 220.15C39.7719 219.65 39.7302 219.225 39.6635 218.875C39.6135 218.525 39.5385 218.233 39.4385 218C39.3552 217.767 39.2469 217.575 39.1135 217.425C38.8802 217.192 38.5802 217.025 38.2135 216.925C37.8469 216.808 37.3385 216.75 36.6885 216.75V215.75H44.7885V216.75C44.1719 216.75 43.6969 216.8 43.3635 216.9C43.0302 216.983 42.7719 217.142 42.5885 217.375C42.4552 217.525 42.3469 217.725 42.2635 217.975C42.1802 218.208 42.1135 218.508 42.0635 218.875C42.0135 219.225 41.9719 219.65 41.9385 220.15C41.9219 220.65 41.9135 221.25 41.9135 221.95V227.25ZM46.3356 228.625H47.3106C47.5439 230.208 48.1773 231.458 49.2106 232.375C50.2439 233.275 51.5189 233.725 53.0356 233.725C53.6523 233.725 54.2189 233.65 54.7356 233.5C55.2523 233.35 55.6939 233.142 56.0606 232.875C56.4273 232.592 56.7106 232.267 56.9106 231.9C57.1106 231.517 57.2106 231.092 57.2106 230.625C57.2106 230.225 57.1439 229.883 57.0106 229.6C56.8939 229.3 56.6606 229.017 56.3106 228.75C55.9606 228.467 55.4773 228.183 54.8606 227.9C54.2606 227.617 53.4773 227.292 52.5106 226.925C50.5606 226.175 49.1189 225.308 48.1856 224.325C47.2523 223.325 46.7856 222.15 46.7856 220.8C46.7856 220.017 46.9356 219.3 47.2356 218.65C47.5356 218 47.9523 217.442 48.4856 216.975C49.0356 216.508 49.6856 216.15 50.4356 215.9C51.2023 215.633 52.0439 215.5 52.9606 215.5C53.8106 215.5 54.6106 215.633 55.3606 215.9C56.1106 216.167 56.8523 216.567 57.5856 217.1L58.0356 215.85H58.6356L58.9106 221.25H57.9356C57.5356 219.883 56.9106 218.842 56.0606 218.125C55.2106 217.392 54.2273 217.025 53.1106 217.025C52.0773 217.025 51.2356 217.283 50.5856 217.8C49.9523 218.3 49.6356 218.95 49.6356 219.75C49.6356 220.1 49.6939 220.417 49.8106 220.7C49.9273 220.967 50.1439 221.225 50.4606 221.475C50.7773 221.725 51.2106 221.983 51.7606 222.25C52.3106 222.5 53.0189 222.783 53.8856 223.1C55.0523 223.55 56.0439 224.008 56.8606 224.475C57.6939 224.925 58.3689 225.417 58.8856 225.95C59.4189 226.467 59.8106 227.017 60.0606 227.6C60.3106 228.183 60.4356 228.825 60.4356 229.525C60.4356 230.375 60.2523 231.15 59.8856 231.85C59.5189 232.55 59.0023 233.15 58.3356 233.65C57.6856 234.15 56.9023 234.542 55.9856 234.825C55.0856 235.108 54.0856 235.25 52.9856 235.25C51.9856 235.25 51.0856 235.117 50.2856 234.85C49.4856 234.567 48.6606 234.117 47.8106 233.5L47.3106 235H46.7106L46.3356 228.625ZM81.7424 221.25H80.6674C80.6174 220.433 80.4924 219.758 80.2924 219.225C80.1091 218.675 79.8424 218.242 79.4924 217.925C79.1424 217.592 78.7174 217.367 78.2174 217.25C77.7174 217.117 77.1341 217.05 76.4674 217.05C75.8174 217.05 75.2924 217.067 74.8924 217.1C74.5091 217.117 74.2091 217.158 73.9924 217.225C73.7924 217.275 73.6591 217.35 73.5924 217.45C73.5258 217.55 73.4924 217.675 73.4924 217.825V230.925C73.4924 231.458 73.5258 231.917 73.5924 232.3C73.6758 232.683 73.8341 233 74.0674 233.25C74.3008 233.483 74.6424 233.667 75.0924 233.8C75.5424 233.917 76.1341 233.983 76.8674 234V235H66.3924V234C67.1424 233.983 67.7424 233.917 68.1924 233.8C68.6424 233.667 68.9841 233.483 69.2174 233.25C69.4674 233 69.6258 232.683 69.6924 232.3C69.7758 231.917 69.8174 231.458 69.8174 230.925V217.825C69.8174 217.675 69.7841 217.55 69.7174 217.45C69.6674 217.35 69.5508 217.275 69.3674 217.225C69.1841 217.158 68.9174 217.117 68.5674 217.1C68.2341 217.067 67.7924 217.05 67.2424 217.05C66.6424 217.05 66.0674 217.083 65.5174 217.15C64.9674 217.2 64.4841 217.367 64.0674 217.65C63.6508 217.917 63.3091 218.333 63.0424 218.9C62.7924 219.45 62.6591 220.233 62.6424 221.25H61.6674L61.9174 215.75H81.4924L81.7424 221.25ZM93.7241 215.5C95.2241 215.5 96.6241 215.758 97.9241 216.275C99.2241 216.792 100.349 217.5 101.299 218.4C102.266 219.3 103.024 220.358 103.574 221.575C104.124 222.792 104.399 224.108 104.399 225.525C104.399 226.875 104.116 228.142 103.549 229.325C102.999 230.508 102.241 231.542 101.274 232.425C100.324 233.292 99.1991 233.983 97.8991 234.5C96.5991 235 95.2074 235.25 93.7241 235.25C92.2407 235.25 90.8491 235 89.5491 234.5C88.2491 233.983 87.1157 233.292 86.1491 232.425C85.1824 231.542 84.4241 230.508 83.8741 229.325C83.3241 228.142 83.0491 226.875 83.0491 225.525C83.0491 224.108 83.3241 222.792 83.8741 221.575C84.4241 220.358 85.1741 219.3 86.1241 218.4C87.0907 217.5 88.2241 216.792 89.5241 216.275C90.8241 215.758 92.2241 215.5 93.7241 215.5ZM93.7241 233.625C94.6907 233.625 95.5657 233.442 96.3491 233.075C97.1324 232.692 97.7991 232.158 98.3491 231.475C98.8991 230.775 99.3157 229.933 99.5991 228.95C99.8991 227.95 100.049 226.833 100.049 225.6C100.049 224.3 99.8991 223.133 99.5991 222.1C99.3157 221.05 98.8991 220.158 98.3491 219.425C97.7991 218.675 97.1324 218.108 96.3491 217.725C95.5657 217.325 94.6907 217.125 93.7241 217.125C92.7407 217.125 91.8574 217.325 91.0741 217.725C90.3074 218.108 89.6491 218.675 89.0991 219.425C88.5491 220.158 88.1241 221.05 87.8241 222.1C87.5407 223.133 87.3991 224.3 87.3991 225.6C87.3991 226.833 87.5407 227.95 87.8241 228.95C88.1241 229.933 88.5491 230.775 89.0991 231.475C89.6491 232.158 90.3074 232.692 91.0741 233.075C91.8574 233.442 92.7407 233.625 93.7241 233.625ZM119.716 230.325L125.491 215.75H132.791V216.75C132.241 216.75 131.791 216.808 131.441 216.925C131.107 217.025 130.849 217.217 130.666 217.5C130.482 217.783 130.357 218.175 130.291 218.675C130.241 219.158 130.216 219.775 130.216 220.525V230.225C130.216 231.058 130.249 231.717 130.316 232.2C130.382 232.683 130.516 233.058 130.716 233.325C130.916 233.592 131.199 233.767 131.566 233.85C131.949 233.933 132.449 233.983 133.066 234V235H123.666V234C124.282 233.983 124.774 233.933 125.141 233.85C125.524 233.75 125.816 233.575 126.016 233.325C126.232 233.075 126.374 232.725 126.441 232.275C126.507 231.808 126.541 231.183 126.541 230.4V218.7H126.416L119.691 235.25H117.841L110.891 218.7H110.791V230.225C110.791 231.058 110.824 231.717 110.891 232.2C110.957 232.683 111.091 233.058 111.291 233.325C111.491 233.592 111.774 233.767 112.141 233.85C112.524 233.933 113.024 233.983 113.641 234V235H105.941V234C106.557 233.983 107.057 233.933 107.441 233.85C107.824 233.75 108.116 233.575 108.316 233.325C108.532 233.075 108.674 232.725 108.741 232.275C108.807 231.808 108.841 231.183 108.841 230.4V220.35C108.841 219.65 108.807 219.067 108.741 218.6C108.674 218.133 108.549 217.767 108.366 217.5C108.182 217.217 107.916 217.025 107.566 216.925C107.232 216.808 106.782 216.75 106.216 216.75V215.75H113.791L119.616 230.325H119.716ZM140.979 224.35C142.046 224.35 142.904 224.317 143.554 224.25C144.204 224.183 144.704 224.05 145.054 223.85C145.421 223.633 145.679 223.325 145.829 222.925C145.979 222.525 146.096 221.983 146.179 221.3H147.104V228.625H146.179C146.079 227.958 145.946 227.425 145.779 227.025C145.612 226.625 145.346 226.325 144.979 226.125C144.612 225.908 144.112 225.775 143.479 225.725C142.862 225.658 142.029 225.625 140.979 225.625V230.775C140.979 231.308 141.046 231.758 141.179 232.125C141.329 232.492 141.571 232.792 141.904 233.025C142.237 233.242 142.679 233.4 143.229 233.5C143.779 233.583 144.454 233.625 145.254 233.625C146.204 233.625 147.004 233.558 147.654 233.425C148.321 233.292 148.871 233.058 149.304 232.725C149.737 232.392 150.087 231.95 150.354 231.4C150.621 230.833 150.846 230.125 151.029 229.275H152.029L151.629 235H134.679V234C135.229 233.983 135.679 233.933 136.029 233.85C136.379 233.767 136.646 233.625 136.829 233.425C137.012 233.225 137.137 232.942 137.204 232.575C137.271 232.208 137.304 231.733 137.304 231.15V219.6C137.304 219.017 137.271 218.55 137.204 218.2C137.154 217.833 137.046 217.55 136.879 217.35C136.712 217.133 136.471 216.992 136.154 216.925C135.854 216.842 135.454 216.783 134.954 216.75V215.75H150.754L150.929 220.65H149.854C149.754 219.95 149.596 219.375 149.379 218.925C149.162 218.458 148.862 218.092 148.479 217.825C148.096 217.542 147.596 217.35 146.979 217.25C146.379 217.133 145.637 217.075 144.754 217.075H141.929C141.496 217.075 141.229 217.133 141.129 217.25C141.029 217.35 140.979 217.6 140.979 218V224.35ZM170.271 220.575C170.271 221.958 169.871 223.117 169.071 224.05C168.271 224.983 166.996 225.608 165.246 225.925L171.046 232.575C171.446 233.042 171.921 233.4 172.471 233.65C173.021 233.883 173.579 234 174.146 234V235H168.221L162.021 227.4C161.604 226.9 161.237 226.567 160.921 226.4C160.621 226.217 160.337 226.125 160.071 226.125V231.025C160.071 231.642 160.112 232.15 160.196 232.55C160.279 232.933 160.446 233.233 160.696 233.45C160.946 233.667 161.304 233.817 161.771 233.9C162.254 233.967 162.896 234 163.696 234V235H153.771V234C154.321 234 154.762 233.967 155.096 233.9C155.446 233.817 155.712 233.675 155.896 233.475C156.096 233.258 156.229 232.967 156.296 232.6C156.362 232.217 156.396 231.733 156.396 231.15V219.6C156.396 219.017 156.371 218.55 156.321 218.2C156.271 217.833 156.162 217.55 155.996 217.35C155.829 217.133 155.587 216.992 155.271 216.925C154.971 216.842 154.562 216.783 154.046 216.75V215.75H162.696C165.112 215.75 166.979 216.175 168.296 217.025C169.612 217.875 170.271 219.058 170.271 220.575ZM160.071 224.625H161.696C163.262 224.625 164.429 224.325 165.196 223.725C165.979 223.108 166.371 222.1 166.371 220.7C166.371 219.633 166.046 218.775 165.396 218.125C164.746 217.475 163.846 217.15 162.696 217.15H160.521C160.221 217.15 160.071 217.292 160.071 217.575V224.625ZM174.9 233.4C174.9 232.867 175.075 232.417 175.425 232.05C175.792 231.667 176.242 231.475 176.775 231.475C177.325 231.475 177.783 231.667 178.15 232.05C178.517 232.417 178.7 232.867 178.7 233.4C178.7 233.917 178.517 234.358 178.15 234.725C177.783 235.075 177.325 235.25 176.775 235.25C176.242 235.25 175.792 235.075 175.425 234.725C175.075 234.358 174.9 233.917 174.9 233.4ZM188.035 228.625H189.01C189.243 230.208 189.876 231.458 190.91 232.375C191.943 233.275 193.218 233.725 194.735 233.725C195.351 233.725 195.918 233.65 196.435 233.5C196.951 233.35 197.393 233.142 197.76 232.875C198.126 232.592 198.41 232.267 198.61 231.9C198.81 231.517 198.91 231.092 198.91 230.625C198.91 230.225 198.843 229.883 198.71 229.6C198.593 229.3 198.36 229.017 198.01 228.75C197.66 228.467 197.176 228.183 196.56 227.9C195.96 227.617 195.176 227.292 194.21 226.925C192.26 226.175 190.818 225.308 189.885 224.325C188.951 223.325 188.485 222.15 188.485 220.8C188.485 220.017 188.635 219.3 188.935 218.65C189.235 218 189.651 217.442 190.185 216.975C190.735 216.508 191.385 216.15 192.135 215.9C192.901 215.633 193.743 215.5 194.66 215.5C195.51 215.5 196.31 215.633 197.06 215.9C197.81 216.167 198.551 216.567 199.285 217.1L199.735 215.85H200.335L200.61 221.25H199.635C199.235 219.883 198.61 218.842 197.76 218.125C196.91 217.392 195.926 217.025 194.81 217.025C193.776 217.025 192.935 217.283 192.285 217.8C191.651 218.3 191.335 218.95 191.335 219.75C191.335 220.1 191.393 220.417 191.51 220.7C191.626 220.967 191.843 221.225 192.16 221.475C192.476 221.725 192.91 221.983 193.46 222.25C194.01 222.5 194.718 222.783 195.585 223.1C196.751 223.55 197.743 224.008 198.56 224.475C199.393 224.925 200.068 225.417 200.585 225.95C201.118 226.467 201.51 227.017 201.76 227.6C202.01 228.183 202.135 228.825 202.135 229.525C202.135 230.375 201.951 231.15 201.585 231.85C201.218 232.55 200.701 233.15 200.035 233.65C199.385 234.15 198.601 234.542 197.685 234.825C196.785 235.108 195.785 235.25 194.685 235.25C193.685 235.25 192.785 235.117 191.985 234.85C191.185 234.567 190.36 234.117 189.51 233.5L189.01 235H188.41L188.035 228.625Z" fill="white"/>
<rect x="0.82251" y="0.5" width="211.67" height="199" rx="20.5" fill="#2ECC71" fill-opacity="0.28" stroke="white"/>
<path d="M55.5752 144.84H167.575V32.84H55.5752V144.84Z" fill="white"/>
</svg>
