<svg width="213" height="241" viewBox="0 0 213 241" fill="none" xmlns="http://www.w3.org/2000/svg">
<path d="M77.3657 215.25H76.2907C76.2407 214.433 76.1157 213.758 75.9157 213.225C75.7324 212.675 75.4657 212.242 75.1157 211.925C74.7657 211.592 74.3407 211.367 73.8407 211.25C73.3407 211.117 72.7574 211.05 72.0907 211.05C71.4407 211.05 70.9157 211.067 70.5157 211.1C70.1324 211.117 69.8324 211.158 69.6157 211.225C69.4157 211.275 69.2824 211.35 69.2157 211.45C69.1491 211.55 69.1157 211.675 69.1157 211.825V224.925C69.1157 225.458 69.1491 225.917 69.2157 226.3C69.2991 226.683 69.4574 227 69.6907 227.25C69.9241 227.483 70.2657 227.667 70.7157 227.8C71.1657 227.917 71.7574 227.983 72.4907 228V229H62.0157V228C62.7657 227.983 63.3657 227.917 63.8157 227.8C64.2657 227.667 64.6074 227.483 64.8407 227.25C65.0907 227 65.2491 226.683 65.3157 226.3C65.3991 225.917 65.4407 225.458 65.4407 224.925V211.825C65.4407 211.675 65.4074 211.55 65.3407 211.45C65.2907 211.35 65.1741 211.275 64.9907 211.225C64.8074 211.158 64.5407 211.117 64.1907 211.1C63.8574 211.067 63.4157 211.05 62.8657 211.05C62.2657 211.05 61.6907 211.083 61.1407 211.15C60.5907 211.2 60.1074 211.367 59.6907 211.65C59.2741 211.917 58.9324 212.333 58.6657 212.9C58.4157 213.45 58.2824 214.233 58.2657 215.25H57.2907L57.5407 209.75H77.1157L77.3657 215.25ZM87.4944 229H78.5694V228C79.1361 227.983 79.5861 227.933 79.9194 227.85C80.2694 227.75 80.5361 227.575 80.7194 227.325C80.9028 227.075 81.0278 226.725 81.0944 226.275C81.1611 225.808 81.1944 225.183 81.1944 224.4V214.35C81.1944 213.65 81.1611 213.075 81.0944 212.625C81.0444 212.158 80.9361 211.792 80.7694 211.525C80.6028 211.258 80.3611 211.075 80.0444 210.975C79.7444 210.858 79.3361 210.783 78.8194 210.75V209.75H87.2444V210.75C86.7278 210.783 86.3111 210.858 85.9944 210.975C85.6944 211.075 85.4611 211.258 85.2944 211.525C85.1278 211.792 85.0111 212.158 84.9444 212.625C84.8944 213.075 84.8694 213.65 84.8694 214.35V224.4C84.8694 225.183 84.8944 225.808 84.9444 226.275C85.0111 226.725 85.1361 227.075 85.3194 227.325C85.5194 227.575 85.7861 227.75 86.1194 227.85C86.4694 227.933 86.9278 227.983 87.4944 228V229ZM102.912 224.325L108.687 209.75H115.987V210.75C115.437 210.75 114.987 210.808 114.637 210.925C114.304 211.025 114.046 211.217 113.862 211.5C113.679 211.783 113.554 212.175 113.487 212.675C113.437 213.158 113.412 213.775 113.412 214.525V224.225C113.412 225.058 113.446 225.717 113.512 226.2C113.579 226.683 113.712 227.058 113.912 227.325C114.112 227.592 114.396 227.767 114.762 227.85C115.146 227.933 115.646 227.983 116.262 228V229H106.862V228C107.479 227.983 107.971 227.933 108.337 227.85C108.721 227.75 109.012 227.575 109.212 227.325C109.429 227.075 109.571 226.725 109.637 226.275C109.704 225.808 109.737 225.183 109.737 224.4V212.7H109.612L102.887 229.25H101.037L94.0872 212.7H93.9872V224.225C93.9872 225.058 94.0205 225.717 94.0872 226.2C94.1539 226.683 94.2872 227.058 94.4872 227.325C94.6872 227.592 94.9705 227.767 95.3372 227.85C95.7205 227.933 96.2205 227.983 96.8372 228V229H89.1372V228C89.7539 227.983 90.2539 227.933 90.6372 227.85C91.0205 227.75 91.3122 227.575 91.5122 227.325C91.7289 227.075 91.8705 226.725 91.9372 226.275C92.0039 225.808 92.0372 225.183 92.0372 224.4V214.35C92.0372 213.65 92.0039 213.067 91.9372 212.6C91.8705 212.133 91.7455 211.767 91.5622 211.5C91.3789 211.217 91.1122 211.025 90.7622 210.925C90.4289 210.808 89.9789 210.75 89.4122 210.75V209.75H96.9872L102.812 224.325H102.912ZM124.175 218.35C125.242 218.35 126.1 218.317 126.75 218.25C127.4 218.183 127.9 218.05 128.25 217.85C128.617 217.633 128.875 217.325 129.025 216.925C129.175 216.525 129.292 215.983 129.375 215.3H130.3V222.625H129.375C129.275 221.958 129.142 221.425 128.975 221.025C128.809 220.625 128.542 220.325 128.175 220.125C127.809 219.908 127.309 219.775 126.675 219.725C126.059 219.658 125.225 219.625 124.175 219.625V224.775C124.175 225.308 124.242 225.758 124.375 226.125C124.525 226.492 124.767 226.792 125.1 227.025C125.434 227.242 125.875 227.4 126.425 227.5C126.975 227.583 127.65 227.625 128.45 227.625C129.4 227.625 130.2 227.558 130.85 227.425C131.517 227.292 132.067 227.058 132.5 226.725C132.934 226.392 133.284 225.95 133.55 225.4C133.817 224.833 134.042 224.125 134.225 223.275H135.225L134.825 229H117.875V228C118.425 227.983 118.875 227.933 119.225 227.85C119.575 227.767 119.842 227.625 120.025 227.425C120.209 227.225 120.334 226.942 120.4 226.575C120.467 226.208 120.5 225.733 120.5 225.15V213.6C120.5 213.017 120.467 212.55 120.4 212.2C120.35 211.833 120.242 211.55 120.075 211.35C119.909 211.133 119.667 210.992 119.35 210.925C119.05 210.842 118.65 210.783 118.15 210.75V209.75H133.95L134.125 214.65H133.05C132.95 213.95 132.792 213.375 132.575 212.925C132.359 212.458 132.059 212.092 131.675 211.825C131.292 211.542 130.792 211.35 130.175 211.25C129.575 211.133 128.834 211.075 127.95 211.075H125.125C124.692 211.075 124.425 211.133 124.325 211.25C124.225 211.35 124.175 211.6 124.175 212V218.35Z" fill="white"/>
<rect x="0.5" y="0.5" width="211.67" height="199" rx="20.5" fill="#2ECC71" fill-opacity="0.39" stroke="white"/>
<path d="M45.8701 150.84H157.87V38.84H45.8701V150.84Z" fill="white"/>
</svg>
