<svg width="213" height="247" viewBox="0 0 213 247" fill="none" xmlns="http://www.w3.org/2000/svg">
<path d="M36.7951 228.625H37.7701C38.0034 230.208 38.6367 231.458 39.6701 232.375C40.7034 233.275 41.9784 233.725 43.4951 233.725C44.1117 233.725 44.6784 233.65 45.1951 233.5C45.7117 233.35 46.1534 233.142 46.5201 232.875C46.8867 232.592 47.1701 232.267 47.3701 231.9C47.5701 231.517 47.6701 231.092 47.6701 230.625C47.6701 230.225 47.6034 229.883 47.4701 229.6C47.3534 229.3 47.1201 229.017 46.7701 228.75C46.4201 228.467 45.9367 228.183 45.3201 227.9C44.7201 227.617 43.9367 227.292 42.9701 226.925C41.0201 226.175 39.5784 225.308 38.6451 224.325C37.7117 223.325 37.2451 222.15 37.2451 220.8C37.2451 220.017 37.3951 219.3 37.6951 218.65C37.9951 218 38.4117 217.442 38.9451 216.975C39.4951 216.508 40.1451 216.15 40.8951 215.9C41.6617 215.633 42.5034 215.5 43.4201 215.5C44.2701 215.5 45.0701 215.633 45.8201 215.9C46.5701 216.167 47.3117 216.567 48.0451 217.1L48.4951 215.85H49.0951L49.3701 221.25H48.3951C47.9951 219.883 47.3701 218.842 46.5201 218.125C45.6701 217.392 44.6867 217.025 43.5701 217.025C42.5367 217.025 41.6951 217.283 41.0451 217.8C40.4117 218.3 40.0951 218.95 40.0951 219.75C40.0951 220.1 40.1534 220.417 40.2701 220.7C40.3867 220.967 40.6034 221.225 40.9201 221.475C41.2367 221.725 41.6701 221.983 42.2201 222.25C42.7701 222.5 43.4784 222.783 44.3451 223.1C45.5117 223.55 46.5034 224.008 47.3201 224.475C48.1534 224.925 48.8284 225.417 49.3451 225.95C49.8784 226.467 50.2701 227.017 50.5201 227.6C50.7701 228.183 50.8951 228.825 50.8951 229.525C50.8951 230.375 50.7117 231.15 50.3451 231.85C49.9784 232.55 49.4617 233.15 48.7951 233.65C48.1451 234.15 47.3617 234.542 46.4451 234.825C45.5451 235.108 44.5451 235.25 43.4451 235.25C42.4451 235.25 41.5451 235.117 40.7451 234.85C39.9451 234.567 39.1201 234.117 38.2701 233.5L37.7701 235H37.1701L36.7951 228.625ZM72.2019 221.25H71.1269C71.0769 220.433 70.9519 219.758 70.7519 219.225C70.5686 218.675 70.3019 218.242 69.9519 217.925C69.6019 217.592 69.1769 217.367 68.6769 217.25C68.1769 217.117 67.5936 217.05 66.9269 217.05C66.2769 217.05 65.7519 217.067 65.3519 217.1C64.9686 217.117 64.6686 217.158 64.4519 217.225C64.2519 217.275 64.1186 217.35 64.0519 217.45C63.9852 217.55 63.9519 217.675 63.9519 217.825V230.925C63.9519 231.458 63.9852 231.917 64.0519 232.3C64.1352 232.683 64.2936 233 64.5269 233.25C64.7602 233.483 65.1019 233.667 65.5519 233.8C66.0019 233.917 66.5936 233.983 67.3269 234V235H56.8519V234C57.6019 233.983 58.2019 233.917 58.6519 233.8C59.1019 233.667 59.4436 233.483 59.6769 233.25C59.9269 233 60.0852 232.683 60.1519 232.3C60.2352 231.917 60.2769 231.458 60.2769 230.925V217.825C60.2769 217.675 60.2436 217.55 60.1769 217.45C60.1269 217.35 60.0102 217.275 59.8269 217.225C59.6436 217.158 59.3769 217.117 59.0269 217.1C58.6936 217.067 58.2519 217.05 57.7019 217.05C57.1019 217.05 56.5269 217.083 55.9769 217.15C55.4269 217.2 54.9436 217.367 54.5269 217.65C54.1102 217.917 53.7686 218.333 53.5019 218.9C53.2519 219.45 53.1186 220.233 53.1019 221.25H52.1269L52.3769 215.75H71.9519L72.2019 221.25ZM84.1835 215.5C85.6835 215.5 87.0835 215.758 88.3835 216.275C89.6835 216.792 90.8085 217.5 91.7585 218.4C92.7252 219.3 93.4835 220.358 94.0335 221.575C94.5835 222.792 94.8585 224.108 94.8585 225.525C94.8585 226.875 94.5752 228.142 94.0085 229.325C93.4585 230.508 92.7002 231.542 91.7335 232.425C90.7835 233.292 89.6585 233.983 88.3585 234.5C87.0585 235 85.6669 235.25 84.1835 235.25C82.7002 235.25 81.3085 235 80.0085 234.5C78.7085 233.983 77.5752 233.292 76.6085 232.425C75.6419 231.542 74.8835 230.508 74.3335 229.325C73.7835 228.142 73.5085 226.875 73.5085 225.525C73.5085 224.108 73.7835 222.792 74.3335 221.575C74.8835 220.358 75.6335 219.3 76.5835 218.4C77.5502 217.5 78.6835 216.792 79.9835 216.275C81.2835 215.758 82.6835 215.5 84.1835 215.5ZM84.1835 233.625C85.1502 233.625 86.0252 233.442 86.8085 233.075C87.5919 232.692 88.2585 232.158 88.8085 231.475C89.3585 230.775 89.7752 229.933 90.0585 228.95C90.3585 227.95 90.5085 226.833 90.5085 225.6C90.5085 224.3 90.3585 223.133 90.0585 222.1C89.7752 221.05 89.3585 220.158 88.8085 219.425C88.2585 218.675 87.5919 218.108 86.8085 217.725C86.0252 217.325 85.1502 217.125 84.1835 217.125C83.2002 217.125 82.3169 217.325 81.5335 217.725C80.7669 218.108 80.1085 218.675 79.5585 219.425C79.0085 220.158 78.5835 221.05 78.2835 222.1C78.0002 223.133 77.8585 224.3 77.8585 225.6C77.8585 226.833 78.0002 227.95 78.2835 228.95C78.5835 229.933 79.0085 230.775 79.5585 231.475C80.1085 232.158 80.7669 232.692 81.5335 233.075C82.3169 233.442 83.2002 233.625 84.1835 233.625ZM113.643 215.75H114.868L114.368 222.075H113.368C113.018 220.542 112.334 219.333 111.318 218.45C110.318 217.567 109.101 217.125 107.668 217.125C106.684 217.125 105.809 217.325 105.043 217.725C104.276 218.108 103.626 218.667 103.093 219.4C102.576 220.117 102.176 221 101.893 222.05C101.626 223.083 101.493 224.25 101.493 225.55C101.493 228.133 102.018 230.125 103.068 231.525C104.134 232.908 105.701 233.6 107.768 233.6C109.434 233.6 110.809 233.15 111.893 232.25C112.993 231.35 113.776 230.008 114.243 228.225H115.343V235H114.168L113.818 233.025C111.984 234.508 109.759 235.25 107.143 235.25C105.626 235.25 104.251 235.025 103.018 234.575C101.784 234.125 100.734 233.492 99.8675 232.675C99.0009 231.842 98.3259 230.833 97.8425 229.65C97.3759 228.467 97.1425 227.15 97.1425 225.7C97.1425 224.183 97.3925 222.8 97.8925 221.55C98.3925 220.3 99.0925 219.225 99.9925 218.325C100.909 217.425 101.993 216.733 103.243 216.25C104.509 215.75 105.909 215.5 107.443 215.5C108.459 215.5 109.409 215.642 110.293 215.925C111.176 216.208 112.134 216.667 113.168 217.3L113.643 215.75ZM123.724 230.975C123.724 231.608 123.749 232.117 123.799 232.5C123.865 232.883 123.982 233.183 124.149 233.4C124.315 233.617 124.549 233.767 124.849 233.85C125.165 233.933 125.582 233.983 126.099 234V235H117.424V234C117.974 233.983 118.424 233.933 118.774 233.85C119.124 233.767 119.39 233.625 119.574 233.425C119.757 233.225 119.882 232.942 119.949 232.575C120.015 232.208 120.049 231.733 120.049 231.15V219.6C120.049 219.033 120.015 218.567 119.949 218.2C119.899 217.833 119.79 217.55 119.624 217.35C119.457 217.15 119.215 217.008 118.899 216.925C118.599 216.842 118.199 216.783 117.699 216.75V215.75H126.324V216.75C125.757 216.767 125.299 216.817 124.949 216.9C124.615 216.983 124.357 217.133 124.174 217.35C123.99 217.567 123.865 217.867 123.799 218.25C123.749 218.633 123.724 219.142 123.724 219.775V225.325L130.199 218.375C130.582 217.958 130.774 217.608 130.774 217.325C130.774 217.142 130.649 217 130.399 216.9C130.165 216.8 129.724 216.75 129.074 216.75V215.75H135.899V216.725C135.532 216.742 135.207 216.775 134.924 216.825C134.657 216.875 134.382 216.983 134.099 217.15C133.832 217.317 133.524 217.558 133.174 217.875C132.84 218.175 132.424 218.583 131.924 219.1L127.474 223.75L134.824 232.7C135.174 233.133 135.557 233.45 135.974 233.65C136.407 233.85 136.957 233.967 137.624 234V235H128.374V234C129.057 233.983 129.549 233.925 129.849 233.825C130.149 233.725 130.299 233.558 130.299 233.325C130.299 233.242 130.282 233.167 130.249 233.1C130.232 233.017 130.19 232.925 130.124 232.825C130.074 232.708 129.99 232.575 129.874 232.425C129.757 232.258 129.599 232.058 129.399 231.825L124.974 226.375L123.724 227.675V230.975ZM138.455 233.4C138.455 232.867 138.63 232.417 138.98 232.05C139.347 231.667 139.797 231.475 140.33 231.475C140.88 231.475 141.339 231.667 141.705 232.05C142.072 232.417 142.255 232.867 142.255 233.4C142.255 233.917 142.072 234.358 141.705 234.725C141.339 235.075 140.88 235.25 140.33 235.25C139.797 235.25 139.347 235.075 138.98 234.725C138.63 234.358 138.455 233.917 138.455 233.4ZM164.765 230.325L170.54 215.75H177.84V216.75C177.29 216.75 176.84 216.808 176.49 216.925C176.157 217.025 175.898 217.217 175.715 217.5C175.532 217.783 175.407 218.175 175.34 218.675C175.29 219.158 175.265 219.775 175.265 220.525V230.225C175.265 231.058 175.298 231.717 175.365 232.2C175.432 232.683 175.565 233.058 175.765 233.325C175.965 233.592 176.248 233.767 176.615 233.85C176.998 233.933 177.498 233.983 178.115 234V235H168.715V234C169.332 233.983 169.823 233.933 170.19 233.85C170.573 233.75 170.865 233.575 171.065 233.325C171.282 233.075 171.423 232.725 171.49 232.275C171.557 231.808 171.59 231.183 171.59 230.4V218.7H171.465L164.74 235.25H162.89L155.94 218.7H155.84V230.225C155.84 231.058 155.873 231.717 155.94 232.2C156.007 232.683 156.14 233.058 156.34 233.325C156.54 233.592 156.823 233.767 157.19 233.85C157.573 233.933 158.073 233.983 158.69 234V235H150.99V234C151.607 233.983 152.107 233.933 152.49 233.85C152.873 233.75 153.165 233.575 153.365 233.325C153.582 233.075 153.723 232.725 153.79 232.275C153.857 231.808 153.89 231.183 153.89 230.4V220.35C153.89 219.65 153.857 219.067 153.79 218.6C153.723 218.133 153.598 217.767 153.415 217.5C153.232 217.217 152.965 217.025 152.615 216.925C152.282 216.808 151.832 216.75 151.265 216.75V215.75H158.84L164.665 230.325H164.765Z" fill="white"/>
<rect x="0.5" y="0.5" width="211.67" height="199" rx="20.5" fill="#2ECC71" fill-opacity="0.39" stroke="white"/>
<path d="M45.8701 149.84H157.87V37.84H45.8701V149.84Z" fill="white"/>
</svg>
