<svg width="253" height="244" viewBox="0 0 253 244" fill="none" xmlns="http://www.w3.org/2000/svg">
<path d="M2.28237 225.625H3.25737C3.49071 227.208 4.12404 228.458 5.15737 229.375C6.19071 230.275 7.46571 230.725 8.98237 230.725C9.59904 230.725 10.1657 230.65 10.6824 230.5C11.199 230.35 11.6407 230.142 12.0074 229.875C12.374 229.592 12.6574 229.267 12.8574 228.9C13.0574 228.517 13.1574 228.092 13.1574 227.625C13.1574 227.225 13.0907 226.883 12.9574 226.6C12.8407 226.3 12.6074 226.017 12.2574 225.75C11.9074 225.467 11.424 225.183 10.8074 224.9C10.2074 224.617 9.42404 224.292 8.45737 223.925C6.50737 223.175 5.06571 222.308 4.13237 221.325C3.19904 220.325 2.73237 219.15 2.73237 217.8C2.73237 217.017 2.88237 216.3 3.18237 215.65C3.48237 215 3.89904 214.442 4.43237 213.975C4.98237 213.508 5.63237 213.15 6.38237 212.9C7.14904 212.633 7.99071 212.5 8.90737 212.5C9.75737 212.5 10.5574 212.633 11.3074 212.9C12.0574 213.167 12.799 213.567 13.5324 214.1L13.9824 212.85H14.5824L14.8574 218.25H13.8824C13.4824 216.883 12.8574 215.842 12.0074 215.125C11.1574 214.392 10.174 214.025 9.05737 214.025C8.02404 214.025 7.18237 214.283 6.53237 214.8C5.89904 215.3 5.58237 215.95 5.58237 216.75C5.58237 217.1 5.64071 217.417 5.75737 217.7C5.87404 217.967 6.09071 218.225 6.40737 218.475C6.72404 218.725 7.15737 218.983 7.70737 219.25C8.25737 219.5 8.96571 219.783 9.83237 220.1C10.999 220.55 11.9907 221.008 12.8074 221.475C13.6407 221.925 14.3157 222.417 14.8324 222.95C15.3657 223.467 15.7574 224.017 16.0074 224.6C16.2574 225.183 16.3824 225.825 16.3824 226.525C16.3824 227.375 16.199 228.15 15.8324 228.85C15.4657 229.55 14.949 230.15 14.2824 230.65C13.6324 231.15 12.849 231.542 11.9324 231.825C11.0324 232.108 10.0324 232.25 8.93237 232.25C7.93237 232.25 7.03237 232.117 6.23237 231.85C5.43237 231.567 4.60737 231.117 3.75737 230.5L3.25737 232H2.65737L2.28237 225.625ZM18.8595 230.4C18.8595 229.867 19.0345 229.417 19.3845 229.05C19.7512 228.667 20.2012 228.475 20.7345 228.475C21.2845 228.475 21.7429 228.667 22.1095 229.05C22.4762 229.417 22.6595 229.867 22.6595 230.4C22.6595 230.917 22.4762 231.358 22.1095 231.725C21.7429 232.075 21.2845 232.25 20.7345 232.25C20.2012 232.25 19.7512 232.075 19.3845 231.725C19.0345 231.358 18.8595 230.917 18.8595 230.4ZM48.3193 212.75H49.5443L49.0443 219.075H48.0443C47.6943 217.542 47.011 216.333 45.9943 215.45C44.9943 214.567 43.7776 214.125 42.3443 214.125C41.361 214.125 40.486 214.325 39.7193 214.725C38.9526 215.108 38.3026 215.667 37.7693 216.4C37.2526 217.117 36.8526 218 36.5693 219.05C36.3026 220.083 36.1693 221.25 36.1693 222.55C36.1693 225.133 36.6943 227.125 37.7443 228.525C38.811 229.908 40.3776 230.6 42.4443 230.6C44.111 230.6 45.486 230.15 46.5693 229.25C47.6693 228.35 48.4526 227.008 48.9193 225.225H50.0193V232H48.8443L48.4943 230.025C46.661 231.508 44.436 232.25 41.8193 232.25C40.3026 232.25 38.9276 232.025 37.6943 231.575C36.461 231.125 35.411 230.492 34.5443 229.675C33.6776 228.842 33.0026 227.833 32.5193 226.65C32.0526 225.467 31.8193 224.15 31.8193 222.7C31.8193 221.183 32.0693 219.8 32.5693 218.55C33.0693 217.3 33.7693 216.225 34.6693 215.325C35.586 214.425 36.6693 213.733 37.9193 213.25C39.186 212.75 40.586 212.5 42.1193 212.5C43.136 212.5 44.086 212.642 44.9693 212.925C45.8526 213.208 46.811 213.667 47.8443 214.3L48.3193 212.75ZM69.3253 232H52.1003V231C52.6503 230.983 53.1003 230.933 53.4503 230.85C53.8003 230.767 54.067 230.625 54.2503 230.425C54.4337 230.225 54.5587 229.942 54.6253 229.575C54.692 229.208 54.7253 228.733 54.7253 228.15V216.6C54.7253 216.017 54.692 215.55 54.6253 215.2C54.5753 214.833 54.467 214.55 54.3003 214.35C54.1337 214.133 53.892 213.992 53.5753 213.925C53.2753 213.842 52.8753 213.783 52.3753 213.75V212.75H61.0003V213.75C60.4337 213.767 59.9753 213.817 59.6253 213.9C59.292 213.983 59.0337 214.133 58.8503 214.35C58.667 214.567 58.542 214.867 58.4753 215.25C58.4253 215.633 58.4003 216.142 58.4003 216.775V227.25C58.4003 227.95 58.467 228.525 58.6003 228.975C58.7503 229.408 59.0003 229.75 59.3503 230C59.7003 230.233 60.167 230.4 60.7503 230.5C61.3337 230.583 62.0587 230.625 62.9253 230.625C63.892 230.625 64.7003 230.567 65.3503 230.45C66.0003 230.333 66.542 230.117 66.9753 229.8C67.4253 229.467 67.7837 229.025 68.0503 228.475C68.317 227.925 68.542 227.208 68.7253 226.325H69.7253L69.3253 232ZM77.2724 221.35C78.3391 221.35 79.1974 221.317 79.8474 221.25C80.4974 221.183 80.9974 221.05 81.3474 220.85C81.7141 220.633 81.9724 220.325 82.1224 219.925C82.2724 219.525 82.3891 218.983 82.4724 218.3H83.3974V225.625H82.4724C82.3724 224.958 82.2391 224.425 82.0724 224.025C81.9057 223.625 81.6391 223.325 81.2724 223.125C80.9057 222.908 80.4057 222.775 79.7724 222.725C79.1557 222.658 78.3224 222.625 77.2724 222.625V227.775C77.2724 228.308 77.3391 228.758 77.4724 229.125C77.6224 229.492 77.8641 229.792 78.1974 230.025C78.5307 230.242 78.9724 230.4 79.5224 230.5C80.0724 230.583 80.7474 230.625 81.5474 230.625C82.4974 230.625 83.2974 230.558 83.9474 230.425C84.6141 230.292 85.1641 230.058 85.5974 229.725C86.0307 229.392 86.3807 228.95 86.6474 228.4C86.9141 227.833 87.1391 227.125 87.3224 226.275H88.3224L87.9224 232H70.9724V231C71.5224 230.983 71.9724 230.933 72.3224 230.85C72.6724 230.767 72.9391 230.625 73.1224 230.425C73.3057 230.225 73.4307 229.942 73.4974 229.575C73.5641 229.208 73.5974 228.733 73.5974 228.15V216.6C73.5974 216.017 73.5641 215.55 73.4974 215.2C73.4474 214.833 73.3391 214.55 73.1724 214.35C73.0057 214.133 72.7641 213.992 72.4474 213.925C72.1474 213.842 71.7474 213.783 71.2474 213.75V212.75H87.0474L87.2224 217.65H86.1474C86.0474 216.95 85.8891 216.375 85.6724 215.925C85.4557 215.458 85.1557 215.092 84.7724 214.825C84.3891 214.542 83.8891 214.35 83.2724 214.25C82.6724 214.133 81.9307 214.075 81.0474 214.075H78.2224C77.7891 214.075 77.5224 214.133 77.4224 214.25C77.3224 214.35 77.2724 214.6 77.2724 215V221.35ZM101.714 226.175H94.6392C93.8559 227.942 93.4642 229.167 93.4642 229.85C93.4642 230.35 93.6475 230.667 94.0142 230.8C94.3975 230.933 94.9642 231 95.7142 231V232H88.8642V231C89.2642 230.95 89.6059 230.883 89.8892 230.8C90.1892 230.717 90.4475 230.6 90.6642 230.45C90.8975 230.3 91.0975 230.108 91.2642 229.875C91.4309 229.625 91.5892 229.325 91.7392 228.975L98.3142 212.5H100.164L106.139 227.1C106.489 227.95 106.781 228.617 107.014 229.1C107.264 229.583 107.523 229.958 107.789 230.225C108.073 230.475 108.389 230.65 108.739 230.75C109.106 230.85 109.573 230.925 110.139 230.975V232H100.689V230.975C101.489 230.942 102.064 230.858 102.414 230.725C102.764 230.592 102.939 230.325 102.939 229.925C102.939 229.692 102.881 229.392 102.764 229.025C102.648 228.658 102.489 228.208 102.289 227.675L101.714 226.175ZM95.2142 224.675H101.164L98.2892 217.1H98.1892L95.2142 224.675ZM126.154 232.25L115.079 216.475H114.979V227.225C114.979 228.058 115.004 228.717 115.054 229.2C115.121 229.683 115.246 230.058 115.429 230.325C115.629 230.592 115.896 230.767 116.229 230.85C116.579 230.933 117.029 230.983 117.579 231V232H110.154V231C110.771 230.983 111.262 230.933 111.629 230.85C112.012 230.75 112.304 230.575 112.504 230.325C112.721 230.075 112.862 229.725 112.929 229.275C112.996 228.808 113.029 228.183 113.029 227.4V217.35C113.029 216.65 112.996 216.075 112.929 215.625C112.862 215.158 112.737 214.792 112.554 214.525C112.371 214.258 112.104 214.075 111.754 213.975C111.421 213.858 110.971 213.783 110.404 213.75V212.75H117.379L127.454 227.2H127.554V217.525C127.554 216.708 127.521 216.058 127.454 215.575C127.404 215.075 127.279 214.692 127.079 214.425C126.896 214.158 126.629 213.983 126.279 213.9C125.946 213.817 125.504 213.767 124.954 213.75V212.75H132.379V213.75C131.762 213.767 131.262 213.825 130.879 213.925C130.512 214.008 130.221 214.175 130.004 214.425C129.804 214.675 129.671 215.033 129.604 215.5C129.537 215.967 129.504 216.583 129.504 217.35V232.25H126.154ZM151.015 232H133.79V231C134.34 230.983 134.79 230.933 135.14 230.85C135.49 230.767 135.756 230.625 135.94 230.425C136.123 230.225 136.248 229.942 136.315 229.575C136.381 229.208 136.415 228.733 136.415 228.15V216.6C136.415 216.017 136.381 215.55 136.315 215.2C136.265 214.833 136.156 214.55 135.99 214.35C135.823 214.133 135.581 213.992 135.265 213.925C134.965 213.842 134.565 213.783 134.065 213.75V212.75H142.69V213.75C142.123 213.767 141.665 213.817 141.315 213.9C140.981 213.983 140.723 214.133 140.54 214.35C140.356 214.567 140.231 214.867 140.165 215.25C140.115 215.633 140.09 216.142 140.09 216.775V227.25C140.09 227.95 140.156 228.525 140.29 228.975C140.44 229.408 140.69 229.75 141.04 230C141.39 230.233 141.856 230.4 142.44 230.5C143.023 230.583 143.748 230.625 144.615 230.625C145.581 230.625 146.39 230.567 147.04 230.45C147.69 230.333 148.231 230.117 148.665 229.8C149.115 229.467 149.473 229.025 149.74 228.475C150.006 227.925 150.231 227.208 150.415 226.325H151.415L151.015 232ZM161.612 232H152.687V231C153.254 230.983 153.704 230.933 154.037 230.85C154.387 230.75 154.654 230.575 154.837 230.325C155.02 230.075 155.145 229.725 155.212 229.275C155.279 228.808 155.312 228.183 155.312 227.4V217.35C155.312 216.65 155.279 216.075 155.212 215.625C155.162 215.158 155.054 214.792 154.887 214.525C154.72 214.258 154.479 214.075 154.162 213.975C153.862 213.858 153.454 213.783 152.937 213.75V212.75H161.362V213.75C160.845 213.783 160.429 213.858 160.112 213.975C159.812 214.075 159.579 214.258 159.412 214.525C159.245 214.792 159.129 215.158 159.062 215.625C159.012 216.075 158.987 216.65 158.987 217.35V227.4C158.987 228.183 159.012 228.808 159.062 229.275C159.129 229.725 159.254 230.075 159.437 230.325C159.637 230.575 159.904 230.75 160.237 230.85C160.587 230.933 161.045 230.983 161.612 231V232ZM179.255 232.25L168.18 216.475H168.08V227.225C168.08 228.058 168.105 228.717 168.155 229.2C168.221 229.683 168.346 230.058 168.53 230.325C168.73 230.592 168.996 230.767 169.33 230.85C169.68 230.933 170.13 230.983 170.68 231V232H163.255V231C163.871 230.983 164.363 230.933 164.73 230.85C165.113 230.75 165.405 230.575 165.605 230.325C165.821 230.075 165.963 229.725 166.03 229.275C166.096 228.808 166.13 228.183 166.13 227.4V217.35C166.13 216.65 166.096 216.075 166.03 215.625C165.963 215.158 165.838 214.792 165.655 214.525C165.471 214.258 165.205 214.075 164.855 213.975C164.521 213.858 164.071 213.783 163.505 213.75V212.75H170.48L180.555 227.2H180.655V217.525C180.655 216.708 180.621 216.058 180.555 215.575C180.505 215.075 180.38 214.692 180.18 214.425C179.996 214.158 179.73 213.983 179.38 213.9C179.046 213.817 178.605 213.767 178.055 213.75V212.75H185.48V213.75C184.863 213.767 184.363 213.825 183.98 213.925C183.613 214.008 183.321 214.175 183.105 214.425C182.905 214.675 182.771 215.033 182.705 215.5C182.638 215.967 182.605 216.583 182.605 217.35V232.25H179.255ZM193.19 221.35C194.257 221.35 195.115 221.317 195.765 221.25C196.415 221.183 196.915 221.05 197.265 220.85C197.632 220.633 197.89 220.325 198.04 219.925C198.19 219.525 198.307 218.983 198.39 218.3H199.315V225.625H198.39C198.29 224.958 198.157 224.425 197.99 224.025C197.824 223.625 197.557 223.325 197.19 223.125C196.824 222.908 196.324 222.775 195.69 222.725C195.074 222.658 194.24 222.625 193.19 222.625V227.775C193.19 228.308 193.257 228.758 193.39 229.125C193.54 229.492 193.782 229.792 194.115 230.025C194.449 230.242 194.89 230.4 195.44 230.5C195.99 230.583 196.665 230.625 197.465 230.625C198.415 230.625 199.215 230.558 199.865 230.425C200.532 230.292 201.082 230.058 201.515 229.725C201.949 229.392 202.299 228.95 202.565 228.4C202.832 227.833 203.057 227.125 203.24 226.275H204.24L203.84 232H186.89V231C187.44 230.983 187.89 230.933 188.24 230.85C188.59 230.767 188.857 230.625 189.04 230.425C189.224 230.225 189.349 229.942 189.415 229.575C189.482 229.208 189.515 228.733 189.515 228.15V216.6C189.515 216.017 189.482 215.55 189.415 215.2C189.365 214.833 189.257 214.55 189.09 214.35C188.924 214.133 188.682 213.992 188.365 213.925C188.065 213.842 187.665 213.783 187.165 213.75V212.75H202.965L203.14 217.65H202.065C201.965 216.95 201.807 216.375 201.59 215.925C201.374 215.458 201.074 215.092 200.69 214.825C200.307 214.542 199.807 214.35 199.19 214.25C198.59 214.133 197.849 214.075 196.965 214.075H194.14C193.707 214.075 193.44 214.133 193.34 214.25C193.24 214.35 193.19 214.6 193.19 215V221.35ZM206.457 225.625H207.432C207.666 227.208 208.299 228.458 209.332 229.375C210.366 230.275 211.641 230.725 213.157 230.725C213.774 230.725 214.341 230.65 214.857 230.5C215.374 230.35 215.816 230.142 216.182 229.875C216.549 229.592 216.832 229.267 217.032 228.9C217.232 228.517 217.332 228.092 217.332 227.625C217.332 227.225 217.266 226.883 217.132 226.6C217.016 226.3 216.782 226.017 216.432 225.75C216.082 225.467 215.599 225.183 214.982 224.9C214.382 224.617 213.599 224.292 212.632 223.925C210.682 223.175 209.241 222.308 208.307 221.325C207.374 220.325 206.907 219.15 206.907 217.8C206.907 217.017 207.057 216.3 207.357 215.65C207.657 215 208.074 214.442 208.607 213.975C209.157 213.508 209.807 213.15 210.557 212.9C211.324 212.633 212.166 212.5 213.082 212.5C213.932 212.5 214.732 212.633 215.482 212.9C216.232 213.167 216.974 213.567 217.707 214.1L218.157 212.85H218.757L219.032 218.25H218.057C217.657 216.883 217.032 215.842 216.182 215.125C215.332 214.392 214.349 214.025 213.232 214.025C212.199 214.025 211.357 214.283 210.707 214.8C210.074 215.3 209.757 215.95 209.757 216.75C209.757 217.1 209.816 217.417 209.932 217.7C210.049 217.967 210.266 218.225 210.582 218.475C210.899 218.725 211.332 218.983 211.882 219.25C212.432 219.5 213.141 219.783 214.007 220.1C215.174 220.55 216.166 221.008 216.982 221.475C217.816 221.925 218.491 222.417 219.007 222.95C219.541 223.467 219.932 224.017 220.182 224.6C220.432 225.183 220.557 225.825 220.557 226.525C220.557 227.375 220.374 228.15 220.007 228.85C219.641 229.55 219.124 230.15 218.457 230.65C217.807 231.15 217.024 231.542 216.107 231.825C215.207 232.108 214.207 232.25 213.107 232.25C212.107 232.25 211.207 232.117 210.407 231.85C209.607 231.567 208.782 231.117 207.932 230.5L207.432 232H206.832L206.457 225.625ZM223.034 225.625H224.009C224.243 227.208 224.876 228.458 225.909 229.375C226.943 230.275 228.218 230.725 229.734 230.725C230.351 230.725 230.918 230.65 231.434 230.5C231.951 230.35 232.393 230.142 232.759 229.875C233.126 229.592 233.409 229.267 233.609 228.9C233.809 228.517 233.909 228.092 233.909 227.625C233.909 227.225 233.843 226.883 233.709 226.6C233.593 226.3 233.359 226.017 233.009 225.75C232.659 225.467 232.176 225.183 231.559 224.9C230.959 224.617 230.176 224.292 229.209 223.925C227.259 223.175 225.818 222.308 224.884 221.325C223.951 220.325 223.484 219.15 223.484 217.8C223.484 217.017 223.634 216.3 223.934 215.65C224.234 215 224.651 214.442 225.184 213.975C225.734 213.508 226.384 213.15 227.134 212.9C227.901 212.633 228.743 212.5 229.659 212.5C230.509 212.5 231.309 212.633 232.059 212.9C232.809 213.167 233.551 213.567 234.284 214.1L234.734 212.85H235.334L235.609 218.25H234.634C234.234 216.883 233.609 215.842 232.759 215.125C231.909 214.392 230.926 214.025 229.809 214.025C228.776 214.025 227.934 214.283 227.284 214.8C226.651 215.3 226.334 215.95 226.334 216.75C226.334 217.1 226.393 217.417 226.509 217.7C226.626 217.967 226.843 218.225 227.159 218.475C227.476 218.725 227.909 218.983 228.459 219.25C229.009 219.5 229.718 219.783 230.584 220.1C231.751 220.55 232.743 221.008 233.559 221.475C234.393 221.925 235.068 222.417 235.584 222.95C236.118 223.467 236.509 224.017 236.759 224.6C237.009 225.183 237.134 225.825 237.134 226.525C237.134 227.375 236.951 228.15 236.584 228.85C236.218 229.55 235.701 230.15 235.034 230.65C234.384 231.15 233.601 231.542 232.684 231.825C231.784 232.108 230.784 232.25 229.684 232.25C228.684 232.25 227.784 232.117 226.984 231.85C226.184 231.567 225.359 231.117 224.509 230.5L224.009 232H223.409L223.034 225.625Z" fill="white"/>
<rect x="14.9851" y="0.5" width="211.67" height="199" rx="20.5" fill="#2ECC71" fill-opacity="0.39" stroke="#FFFEFE"/>
<path d="M70.78 151.84H182.78V39.84H70.78V151.84Z" fill="white"/>
</svg>
