<svg width="213" height="244" viewBox="0 0 213 244" fill="none" xmlns="http://www.w3.org/2000/svg">
<path d="M26.3 212.75H27.525L27.025 219.075H26.025C25.675 217.542 24.9917 216.333 23.975 215.45C22.975 214.567 21.7583 214.125 20.325 214.125C19.3417 214.125 18.4667 214.325 17.7 214.725C16.9333 215.108 16.2833 215.667 15.75 216.4C15.2333 217.117 14.8333 218 14.55 219.05C14.2833 220.083 14.15 221.25 14.15 222.55C14.15 225.133 14.675 227.125 15.725 228.525C16.7917 229.908 18.3583 230.6 20.425 230.6C22.0917 230.6 23.4667 230.15 24.55 229.25C25.65 228.35 26.4333 227.008 26.9 225.225H28V232H26.825L26.475 230.025C24.6417 231.508 22.4167 232.25 19.8 232.25C18.2833 232.25 16.9083 232.025 15.675 231.575C14.4417 231.125 13.3917 230.492 12.525 229.675C11.6583 228.842 10.9833 227.833 10.5 226.65C10.0333 225.467 9.8 224.15 9.8 222.7C9.8 221.183 10.05 219.8 10.55 218.55C11.05 217.3 11.75 216.225 12.65 215.325C13.5667 214.425 14.65 213.733 15.9 213.25C17.1667 212.75 18.5667 212.5 20.1 212.5C21.1167 212.5 22.0667 212.642 22.95 212.925C23.8333 213.208 24.7917 213.667 25.825 214.3L26.3 212.75ZM46.5811 217.575C46.5811 218.958 46.1811 220.117 45.3811 221.05C44.5811 221.983 43.3061 222.608 41.5561 222.925L47.3561 229.575C47.7561 230.042 48.2311 230.4 48.7811 230.65C49.3311 230.883 49.8894 231 50.4561 231V232H44.5311L38.3311 224.4C37.9144 223.9 37.5477 223.567 37.2311 223.4C36.9311 223.217 36.6477 223.125 36.3811 223.125V228.025C36.3811 228.642 36.4227 229.15 36.5061 229.55C36.5894 229.933 36.7561 230.233 37.0061 230.45C37.2561 230.667 37.6144 230.817 38.0811 230.9C38.5644 230.967 39.2061 231 40.0061 231V232H30.0811V231C30.6311 231 31.0727 230.967 31.4061 230.9C31.7561 230.817 32.0227 230.675 32.2061 230.475C32.4061 230.258 32.5394 229.967 32.6061 229.6C32.6727 229.217 32.7061 228.733 32.7061 228.15V216.6C32.7061 216.017 32.6811 215.55 32.6311 215.2C32.5811 214.833 32.4727 214.55 32.3061 214.35C32.1394 214.133 31.8977 213.992 31.5811 213.925C31.2811 213.842 30.8727 213.783 30.3561 213.75V212.75H39.0061C41.4227 212.75 43.2894 213.175 44.6061 214.025C45.9227 214.875 46.5811 216.058 46.5811 217.575ZM36.3811 221.625H38.0061C39.5727 221.625 40.7394 221.325 41.5061 220.725C42.2894 220.108 42.6811 219.1 42.6811 217.7C42.6811 216.633 42.3561 215.775 41.7061 215.125C41.0561 214.475 40.1561 214.15 39.0061 214.15H36.8311C36.5311 214.15 36.3811 214.292 36.3811 214.575V221.625ZM56.7668 221.35C57.8335 221.35 58.6918 221.317 59.3418 221.25C59.9918 221.183 60.4918 221.05 60.8418 220.85C61.2085 220.633 61.4668 220.325 61.6168 219.925C61.7668 219.525 61.8835 218.983 61.9668 218.3H62.8918V225.625H61.9668C61.8668 224.958 61.7335 224.425 61.5668 224.025C61.4001 223.625 61.1335 223.325 60.7668 223.125C60.4001 222.908 59.9001 222.775 59.2668 222.725C58.6501 222.658 57.8168 222.625 56.7668 222.625V227.775C56.7668 228.308 56.8335 228.758 56.9668 229.125C57.1168 229.492 57.3585 229.792 57.6918 230.025C58.0251 230.242 58.4668 230.4 59.0168 230.5C59.5668 230.583 60.2418 230.625 61.0418 230.625C61.9918 230.625 62.7918 230.558 63.4418 230.425C64.1085 230.292 64.6585 230.058 65.0918 229.725C65.5251 229.392 65.8751 228.95 66.1418 228.4C66.4085 227.833 66.6335 227.125 66.8168 226.275H67.8168L67.4168 232H50.4668V231C51.0168 230.983 51.4668 230.933 51.8168 230.85C52.1668 230.767 52.4335 230.625 52.6168 230.425C52.8001 230.225 52.9251 229.942 52.9918 229.575C53.0585 229.208 53.0918 228.733 53.0918 228.15V216.6C53.0918 216.017 53.0585 215.55 52.9918 215.2C52.9418 214.833 52.8335 214.55 52.6668 214.35C52.5001 214.133 52.2585 213.992 51.9418 213.925C51.6418 213.842 51.2418 213.783 50.7418 213.75V212.75H66.5418L66.7168 217.65H65.6418C65.5418 216.95 65.3835 216.375 65.1668 215.925C64.9501 215.458 64.6501 215.092 64.2668 214.825C63.8835 214.542 63.3835 214.35 62.7668 214.25C62.1668 214.133 61.4251 214.075 60.5418 214.075H57.7168C57.2835 214.075 57.0168 214.133 56.9168 214.25C56.8168 214.35 56.7668 214.6 56.7668 215V221.35ZM81.2086 226.175H74.1336C73.3503 227.942 72.9586 229.167 72.9586 229.85C72.9586 230.35 73.1419 230.667 73.5086 230.8C73.8919 230.933 74.4586 231 75.2086 231V232H68.3586V231C68.7586 230.95 69.1003 230.883 69.3836 230.8C69.6836 230.717 69.9419 230.6 70.1586 230.45C70.3919 230.3 70.5919 230.108 70.7586 229.875C70.9253 229.625 71.0836 229.325 71.2336 228.975L77.8086 212.5H79.6586L85.6336 227.1C85.9836 227.95 86.2753 228.617 86.5086 229.1C86.7586 229.583 87.0169 229.958 87.2836 230.225C87.5669 230.475 87.8836 230.65 88.2336 230.75C88.6003 230.85 89.0669 230.925 89.6336 230.975V232H80.1836V230.975C80.9836 230.942 81.5586 230.858 81.9086 230.725C82.2586 230.592 82.4336 230.325 82.4336 229.925C82.4336 229.692 82.3753 229.392 82.2586 229.025C82.1419 228.658 81.9836 228.208 81.7836 227.675L81.2086 226.175ZM74.7086 224.675H80.6586L77.7836 217.1H77.6836L74.7086 224.675ZM107.394 218.25H106.319C106.269 217.433 106.144 216.758 105.944 216.225C105.76 215.675 105.494 215.242 105.144 214.925C104.794 214.592 104.369 214.367 103.869 214.25C103.369 214.117 102.785 214.05 102.119 214.05C101.469 214.05 100.944 214.067 100.544 214.1C100.16 214.117 99.8602 214.158 99.6436 214.225C99.4436 214.275 99.3102 214.35 99.2436 214.45C99.1769 214.55 99.1436 214.675 99.1436 214.825V227.925C99.1436 228.458 99.1769 228.917 99.2436 229.3C99.3269 229.683 99.4852 230 99.7186 230.25C99.9519 230.483 100.294 230.667 100.744 230.8C101.194 230.917 101.785 230.983 102.519 231V232H92.0436V231C92.7936 230.983 93.3936 230.917 93.8436 230.8C94.2936 230.667 94.6352 230.483 94.8686 230.25C95.1186 230 95.2769 229.683 95.3436 229.3C95.4269 228.917 95.4686 228.458 95.4686 227.925V214.825C95.4686 214.675 95.4352 214.55 95.3686 214.45C95.3186 214.35 95.2019 214.275 95.0186 214.225C94.8352 214.158 94.5686 214.117 94.2186 214.1C93.8852 214.067 93.4436 214.05 92.8936 214.05C92.2936 214.05 91.7186 214.083 91.1686 214.15C90.6186 214.2 90.1352 214.367 89.7186 214.65C89.3019 214.917 88.9602 215.333 88.6936 215.9C88.4436 216.45 88.3102 217.233 88.2936 218.25H87.3186L87.5686 212.75H107.144L107.394 218.25ZM117.522 232H108.597V231C109.164 230.983 109.614 230.933 109.947 230.85C110.297 230.75 110.564 230.575 110.747 230.325C110.931 230.075 111.056 229.725 111.122 229.275C111.189 228.808 111.222 228.183 111.222 227.4V217.35C111.222 216.65 111.189 216.075 111.122 215.625C111.072 215.158 110.964 214.792 110.797 214.525C110.631 214.258 110.389 214.075 110.072 213.975C109.772 213.858 109.364 213.783 108.847 213.75V212.75H117.272V213.75C116.756 213.783 116.339 213.858 116.022 213.975C115.722 214.075 115.489 214.258 115.322 214.525C115.156 214.792 115.039 215.158 114.972 215.625C114.922 216.075 114.897 216.65 114.897 217.35V227.4C114.897 228.183 114.922 228.808 114.972 229.275C115.039 229.725 115.164 230.075 115.347 230.325C115.547 230.575 115.814 230.75 116.147 230.85C116.497 230.933 116.956 230.983 117.522 231V232ZM129.365 227.7L132.615 219.375C132.932 218.558 133.182 217.892 133.365 217.375C133.565 216.858 133.715 216.433 133.815 216.1C133.915 215.767 133.982 215.5 134.015 215.3C134.048 215.1 134.065 214.908 134.065 214.725C134.065 214.325 133.915 214.067 133.615 213.95C133.315 213.817 132.715 213.75 131.815 213.75V212.75H138.915V213.75C137.532 213.75 136.573 214.425 136.04 215.775L129.465 232.25H127.615L121.64 217.65C121.307 216.867 121.007 216.225 120.74 215.725C120.473 215.225 120.19 214.833 119.89 214.55C119.59 214.25 119.257 214.05 118.89 213.95C118.54 213.833 118.123 213.775 117.64 213.775V212.75H127.09V213.775C126.657 213.792 126.29 213.817 125.99 213.85C125.707 213.883 125.482 213.942 125.315 214.025C125.148 214.092 125.032 214.192 124.965 214.325C124.898 214.442 124.865 214.592 124.865 214.775C124.865 215.008 124.907 215.283 124.99 215.6C125.073 215.917 125.198 216.3 125.365 216.75L129.365 227.7ZM148.357 232H139.432V231C139.999 230.983 140.449 230.933 140.782 230.85C141.132 230.75 141.399 230.575 141.582 230.325C141.766 230.075 141.891 229.725 141.957 229.275C142.024 228.808 142.057 228.183 142.057 227.4V217.35C142.057 216.65 142.024 216.075 141.957 215.625C141.907 215.158 141.799 214.792 141.632 214.525C141.466 214.258 141.224 214.075 140.907 213.975C140.607 213.858 140.199 213.783 139.682 213.75V212.75H148.107V213.75C147.591 213.783 147.174 213.858 146.857 213.975C146.557 214.075 146.324 214.258 146.157 214.525C145.991 214.792 145.874 215.158 145.807 215.625C145.757 216.075 145.732 216.65 145.732 217.35V227.4C145.732 228.183 145.757 228.808 145.807 229.275C145.874 229.725 145.999 230.075 146.182 230.325C146.382 230.575 146.649 230.75 146.982 230.85C147.332 230.933 147.791 230.983 148.357 231V232ZM169.625 218.25H168.55C168.5 217.433 168.375 216.758 168.175 216.225C167.992 215.675 167.725 215.242 167.375 214.925C167.025 214.592 166.6 214.367 166.1 214.25C165.6 214.117 165.017 214.05 164.35 214.05C163.7 214.05 163.175 214.067 162.775 214.1C162.392 214.117 162.092 214.158 161.875 214.225C161.675 214.275 161.542 214.35 161.475 214.45C161.408 214.55 161.375 214.675 161.375 214.825V227.925C161.375 228.458 161.408 228.917 161.475 229.3C161.558 229.683 161.717 230 161.95 230.25C162.183 230.483 162.525 230.667 162.975 230.8C163.425 230.917 164.017 230.983 164.75 231V232H154.275V231C155.025 230.983 155.625 230.917 156.075 230.8C156.525 230.667 156.867 230.483 157.1 230.25C157.35 230 157.508 229.683 157.575 229.3C157.658 228.917 157.7 228.458 157.7 227.925V214.825C157.7 214.675 157.667 214.55 157.6 214.45C157.55 214.35 157.433 214.275 157.25 214.225C157.067 214.158 156.8 214.117 156.45 214.1C156.117 214.067 155.675 214.05 155.125 214.05C154.525 214.05 153.95 214.083 153.4 214.15C152.85 214.2 152.367 214.367 151.95 214.65C151.533 214.917 151.192 215.333 150.925 215.9C150.675 216.45 150.542 217.233 150.525 218.25H149.55L149.8 212.75H169.375L169.625 218.25ZM172.454 215.9C172.204 215.467 171.97 215.108 171.754 214.825C171.554 214.542 171.345 214.325 171.129 214.175C170.912 214.008 170.679 213.9 170.429 213.85C170.179 213.783 169.895 213.75 169.579 213.75V212.75H177.979V213.75C177.279 213.75 176.787 213.817 176.504 213.95C176.22 214.083 176.079 214.283 176.079 214.55C176.079 214.717 176.129 214.917 176.229 215.15C176.329 215.383 176.487 215.7 176.704 216.1L180.279 222.925H180.379L183.529 217.675C184.079 216.742 184.462 216.05 184.679 215.6C184.895 215.133 185.004 214.767 185.004 214.5C185.004 214.217 184.87 214.025 184.604 213.925C184.354 213.808 183.879 213.75 183.179 213.75V212.75H189.454V213.75C189.087 213.75 188.754 213.808 188.454 213.925C188.154 214.042 187.837 214.275 187.504 214.625C187.187 214.958 186.82 215.433 186.404 216.05C186.004 216.65 185.52 217.442 184.954 218.425L181.304 224.675V227.225C181.304 228.058 181.337 228.725 181.404 229.225C181.487 229.725 181.62 230.108 181.804 230.375C182.004 230.625 182.27 230.792 182.604 230.875C182.937 230.958 183.37 231 183.904 231V232H175.004V231C175.52 231 175.945 230.958 176.279 230.875C176.629 230.792 176.904 230.625 177.104 230.375C177.304 230.125 177.437 229.767 177.504 229.3C177.587 228.817 177.629 228.183 177.629 227.4V225.1L172.454 215.9Z" fill="white"/>
<rect x="0.784912" y="0.5" width="211.67" height="199" rx="20.5" fill="#2ECC71" fill-opacity="0.28" stroke="white"/>
<path d="M43.0276 150.84H155.028V38.84H43.0276V150.84Z" fill="white"/>
</svg>
