<svg width="219" height="261" viewBox="0 0 219 261" fill="none" xmlns="http://www.w3.org/2000/svg">
<rect x="0.5" y="0.5" width="211.67" height="199" rx="20.5" fill="#2ECC71" fill-opacity="0.39" stroke="white"/>
<path d="M45.8701 151.84H157.87V39.84H45.8701V151.84Z" fill="white"/>
<path d="M17.5 235.1C17.5 236.9 16.8 238.275 15.4 239.225C14 240.158 11.9667 240.625 9.3 240.625H7.175V245.025C7.175 245.658 7.21667 246.175 7.3 246.575C7.38333 246.958 7.55833 247.258 7.825 247.475C8.09167 247.692 8.45833 247.833 8.925 247.9C9.39167 247.967 10.0167 248 10.8 248V249H0.875V248C1.425 247.983 1.875 247.933 2.225 247.85C2.575 247.767 2.84167 247.625 3.025 247.425C3.20833 247.225 3.33333 246.942 3.4 246.575C3.46667 246.208 3.5 245.733 3.5 245.15V233.6C3.5 233.017 3.46667 232.55 3.4 232.2C3.35 231.833 3.24167 231.55 3.075 231.35C2.90833 231.133 2.66667 230.992 2.35 230.925C2.05 230.842 1.65 230.783 1.15 230.75V229.75H9.8C12.3333 229.75 14.25 230.2 15.55 231.1C16.85 232 17.5 233.333 17.5 235.1ZM7.175 239.125H8.8C10.4167 239.125 11.6 238.8 12.35 238.15C13.1 237.5 13.475 236.475 13.475 235.075C13.475 233.825 13.1583 232.858 12.525 232.175C11.8917 231.492 10.9 231.15 9.55 231.15H7.625C7.325 231.15 7.175 231.292 7.175 231.575V239.125ZM17.3168 247.4C17.3168 246.867 17.4918 246.417 17.8418 246.05C18.2085 245.667 18.6585 245.475 19.1918 245.475C19.7418 245.475 20.2001 245.667 20.5668 246.05C20.9335 246.417 21.1168 246.867 21.1168 247.4C21.1168 247.917 20.9335 248.358 20.5668 248.725C20.2001 249.075 19.7418 249.25 19.1918 249.25C18.6585 249.25 18.2085 249.075 17.8418 248.725C17.4918 248.358 17.3168 247.917 17.3168 247.4ZM40.0516 249.25C38.5516 249.25 37.1932 249.033 35.9766 248.6C34.7766 248.15 33.7516 247.517 32.9016 246.7C32.0682 245.867 31.4182 244.867 30.9516 243.7C30.5016 242.517 30.2766 241.192 30.2766 239.725C30.2766 238.208 30.5182 236.825 31.0016 235.575C31.5016 234.308 32.1932 233.225 33.0766 232.325C33.9599 231.425 35.0182 230.733 36.2516 230.25C37.4849 229.75 38.8516 229.5 40.3516 229.5C41.3849 229.5 42.3682 229.642 43.3016 229.925C44.2349 230.208 45.2432 230.667 46.3266 231.3L46.8016 229.75H47.7016V236.075H46.4516C46.1182 234.508 45.4432 233.292 44.4266 232.425C43.4266 231.558 42.1682 231.125 40.6516 231.125C38.7349 231.125 37.2432 231.867 36.1766 233.35C35.1266 234.817 34.6016 236.875 34.6016 239.525C34.6016 242.125 35.1182 244.117 36.1516 245.5C37.1849 246.883 38.6849 247.575 40.6516 247.575C42.0682 247.575 43.1682 247.217 43.9516 246.5C44.7516 245.767 45.1516 244.758 45.1516 243.475C45.1516 242.708 44.9516 242.15 44.5516 241.8C44.1516 241.433 43.4766 241.208 42.5266 241.125V240.125H50.6266V241.125C49.8099 241.125 49.2432 241.308 48.9266 241.675C48.6099 242.025 48.4516 242.667 48.4516 243.6V246.925C48.0849 246.925 47.7766 246.942 47.5266 246.975C47.2766 246.992 47.0266 247.042 46.7766 247.125C46.5432 247.192 46.2766 247.308 45.9766 247.475C45.6766 247.642 45.3016 247.858 44.8516 248.125C43.5682 248.875 41.9682 249.25 40.0516 249.25ZM68.376 234.575C68.376 235.958 67.976 237.117 67.176 238.05C66.376 238.983 65.101 239.608 63.351 239.925L69.151 246.575C69.551 247.042 70.026 247.4 70.576 247.65C71.126 247.883 71.6843 248 72.251 248V249H66.326L60.126 241.4C59.7093 240.9 59.3426 240.567 59.026 240.4C58.726 240.217 58.4426 240.125 58.176 240.125V245.025C58.176 245.642 58.2176 246.15 58.301 246.55C58.3843 246.933 58.551 247.233 58.801 247.45C59.051 247.667 59.4093 247.817 59.876 247.9C60.3593 247.967 61.001 248 61.801 248V249H51.876V248C52.426 248 52.8676 247.967 53.201 247.9C53.551 247.817 53.8176 247.675 54.001 247.475C54.201 247.258 54.3343 246.967 54.401 246.6C54.4676 246.217 54.501 245.733 54.501 245.15V233.6C54.501 233.017 54.476 232.55 54.426 232.2C54.376 231.833 54.2676 231.55 54.101 231.35C53.9343 231.133 53.6926 230.992 53.376 230.925C53.076 230.842 52.6676 230.783 52.151 230.75V229.75H60.801C63.2176 229.75 65.0843 230.175 66.401 231.025C67.7176 231.875 68.376 233.058 68.376 234.575ZM58.176 238.625H59.801C61.3676 238.625 62.5343 238.325 63.301 237.725C64.0843 237.108 64.476 236.1 64.476 234.7C64.476 233.633 64.151 232.775 63.501 232.125C62.851 231.475 61.951 231.15 60.801 231.15H58.626C58.326 231.15 58.176 231.292 58.176 231.575V238.625ZM82.7229 229.5C84.2229 229.5 85.6229 229.758 86.9229 230.275C88.2229 230.792 89.3479 231.5 90.2979 232.4C91.2645 233.3 92.0229 234.358 92.5729 235.575C93.1229 236.792 93.3979 238.108 93.3979 239.525C93.3979 240.875 93.1145 242.142 92.5479 243.325C91.9979 244.508 91.2395 245.542 90.2729 246.425C89.3229 247.292 88.1979 247.983 86.8979 248.5C85.5979 249 84.2062 249.25 82.7229 249.25C81.2395 249.25 79.8479 249 78.5479 248.5C77.2479 247.983 76.1145 247.292 75.1479 246.425C74.1812 245.542 73.4229 244.508 72.8729 243.325C72.3229 242.142 72.0479 240.875 72.0479 239.525C72.0479 238.108 72.3229 236.792 72.8729 235.575C73.4229 234.358 74.1729 233.3 75.1229 232.4C76.0895 231.5 77.2229 230.792 78.5229 230.275C79.8229 229.758 81.2229 229.5 82.7229 229.5ZM82.7229 247.625C83.6895 247.625 84.5645 247.442 85.3479 247.075C86.1312 246.692 86.7979 246.158 87.3479 245.475C87.8979 244.775 88.3145 243.933 88.5979 242.95C88.8979 241.95 89.0479 240.833 89.0479 239.6C89.0479 238.3 88.8979 237.133 88.5979 236.1C88.3145 235.05 87.8979 234.158 87.3479 233.425C86.7979 232.675 86.1312 232.108 85.3479 231.725C84.5645 231.325 83.6895 231.125 82.7229 231.125C81.7395 231.125 80.8562 231.325 80.0729 231.725C79.3062 232.108 78.6479 232.675 78.0979 233.425C77.5479 234.158 77.1229 235.05 76.8229 236.1C76.5395 237.133 76.3979 238.3 76.3979 239.6C76.3979 240.833 76.5395 241.95 76.8229 242.95C77.1229 243.933 77.5479 244.775 78.0979 245.475C78.6479 246.158 79.3062 246.692 80.0729 247.075C80.8562 247.442 81.7395 247.625 82.7229 247.625ZM106.307 229.5C107.807 229.5 109.207 229.758 110.507 230.275C111.807 230.792 112.932 231.5 113.882 232.4C114.849 233.3 115.607 234.358 116.157 235.575C116.707 236.792 116.982 238.108 116.982 239.525C116.982 240.875 116.699 242.142 116.132 243.325C115.582 244.508 114.824 245.542 113.857 246.425C112.907 247.292 111.782 247.983 110.482 248.5C109.182 249 107.79 249.25 106.307 249.25C104.824 249.25 103.432 249 102.132 248.5C100.832 247.983 99.6985 247.292 98.7318 246.425C97.7652 245.542 97.0068 244.508 96.4568 243.325C95.9068 242.142 95.6318 240.875 95.6318 239.525C95.6318 238.108 95.9068 236.792 96.4568 235.575C97.0068 234.358 97.7568 233.3 98.7068 232.4C99.6735 231.5 100.807 230.792 102.107 230.275C103.407 229.758 104.807 229.5 106.307 229.5ZM106.307 247.625C107.274 247.625 108.149 247.442 108.932 247.075C109.715 246.692 110.382 246.158 110.932 245.475C111.482 244.775 111.899 243.933 112.182 242.95C112.482 241.95 112.632 240.833 112.632 239.6C112.632 238.3 112.482 237.133 112.182 236.1C111.899 235.05 111.482 234.158 110.932 233.425C110.382 232.675 109.715 232.108 108.932 231.725C108.149 231.325 107.274 231.125 106.307 231.125C105.324 231.125 104.44 231.325 103.657 231.725C102.89 232.108 102.232 232.675 101.682 233.425C101.132 234.158 100.707 235.05 100.407 236.1C100.124 237.133 99.9818 238.3 99.9818 239.6C99.9818 240.833 100.124 241.95 100.407 242.95C100.707 243.933 101.132 244.775 101.682 245.475C102.232 246.158 102.89 246.692 103.657 247.075C104.44 247.442 105.324 247.625 106.307 247.625ZM132.298 244.325L138.073 229.75H145.373V230.75C144.823 230.75 144.373 230.808 144.023 230.925C143.69 231.025 143.432 231.217 143.248 231.5C143.065 231.783 142.94 232.175 142.873 232.675C142.823 233.158 142.798 233.775 142.798 234.525V244.225C142.798 245.058 142.832 245.717 142.898 246.2C142.965 246.683 143.098 247.058 143.298 247.325C143.498 247.592 143.782 247.767 144.148 247.85C144.532 247.933 145.032 247.983 145.648 248V249H136.248V248C136.865 247.983 137.357 247.933 137.723 247.85C138.107 247.75 138.398 247.575 138.598 247.325C138.815 247.075 138.957 246.725 139.023 246.275C139.09 245.808 139.123 245.183 139.123 244.4V232.7H138.998L132.273 249.25H130.423L123.473 232.7H123.373V244.225C123.373 245.058 123.407 245.717 123.473 246.2C123.54 246.683 123.673 247.058 123.873 247.325C124.073 247.592 124.357 247.767 124.723 247.85C125.107 247.933 125.607 247.983 126.223 248V249H118.523V248C119.14 247.983 119.64 247.933 120.023 247.85C120.407 247.75 120.698 247.575 120.898 247.325C121.115 247.075 121.257 246.725 121.323 246.275C121.39 245.808 121.423 245.183 121.423 244.4V234.35C121.423 233.65 121.39 233.067 121.323 232.6C121.257 232.133 121.132 231.767 120.948 231.5C120.765 231.217 120.498 231.025 120.148 230.925C119.815 230.808 119.365 230.75 118.798 230.75V229.75H126.373L132.198 244.325H132.298ZM156.212 249H147.287V248C147.853 247.983 148.303 247.933 148.637 247.85C148.987 247.75 149.253 247.575 149.437 247.325C149.62 247.075 149.745 246.725 149.812 246.275C149.878 245.808 149.912 245.183 149.912 244.4V234.35C149.912 233.65 149.878 233.075 149.812 232.625C149.762 232.158 149.653 231.792 149.487 231.525C149.32 231.258 149.078 231.075 148.762 230.975C148.462 230.858 148.053 230.783 147.537 230.75V229.75H155.962V230.75C155.445 230.783 155.028 230.858 154.712 230.975C154.412 231.075 154.178 231.258 154.012 231.525C153.845 231.792 153.728 232.158 153.662 232.625C153.612 233.075 153.587 233.65 153.587 234.35V244.4C153.587 245.183 153.612 245.808 153.662 246.275C153.728 246.725 153.853 247.075 154.037 247.325C154.237 247.575 154.503 247.75 154.837 247.85C155.187 247.933 155.645 247.983 156.212 248V249ZM173.854 249.25L162.779 233.475H162.679V244.225C162.679 245.058 162.704 245.717 162.754 246.2C162.821 246.683 162.946 247.058 163.129 247.325C163.329 247.592 163.596 247.767 163.929 247.85C164.279 247.933 164.729 247.983 165.279 248V249H157.854V248C158.471 247.983 158.963 247.933 159.329 247.85C159.713 247.75 160.004 247.575 160.204 247.325C160.421 247.075 160.563 246.725 160.629 246.275C160.696 245.808 160.729 245.183 160.729 244.4V234.35C160.729 233.65 160.696 233.075 160.629 232.625C160.563 232.158 160.438 231.792 160.254 231.525C160.071 231.258 159.804 231.075 159.454 230.975C159.121 230.858 158.671 230.783 158.104 230.75V229.75H165.079L175.154 244.2H175.254V234.525C175.254 233.708 175.221 233.058 175.154 232.575C175.104 232.075 174.979 231.692 174.779 231.425C174.596 231.158 174.329 230.983 173.979 230.9C173.646 230.817 173.204 230.767 172.654 230.75V229.75H180.079V230.75C179.463 230.767 178.963 230.825 178.579 230.925C178.213 231.008 177.921 231.175 177.704 231.425C177.504 231.675 177.371 232.033 177.304 232.5C177.238 232.967 177.204 233.583 177.204 234.35V249.25H173.854ZM191.272 249.25C189.772 249.25 188.414 249.033 187.197 248.6C185.997 248.15 184.972 247.517 184.122 246.7C183.289 245.867 182.639 244.867 182.172 243.7C181.722 242.517 181.497 241.192 181.497 239.725C181.497 238.208 181.739 236.825 182.222 235.575C182.722 234.308 183.414 233.225 184.297 232.325C185.181 231.425 186.239 230.733 187.472 230.25C188.706 229.75 190.072 229.5 191.572 229.5C192.606 229.5 193.589 229.642 194.522 229.925C195.456 230.208 196.464 230.667 197.547 231.3L198.022 229.75H198.922V236.075H197.672C197.339 234.508 196.664 233.292 195.647 232.425C194.647 231.558 193.389 231.125 191.872 231.125C189.956 231.125 188.464 231.867 187.397 233.35C186.347 234.817 185.822 236.875 185.822 239.525C185.822 242.125 186.339 244.117 187.372 245.5C188.406 246.883 189.906 247.575 191.872 247.575C193.289 247.575 194.389 247.217 195.172 246.5C195.972 245.767 196.372 244.758 196.372 243.475C196.372 242.708 196.172 242.15 195.772 241.8C195.372 241.433 194.697 241.208 193.747 241.125V240.125H201.847V241.125C201.031 241.125 200.464 241.308 200.147 241.675C199.831 242.025 199.672 242.667 199.672 243.6V246.925C199.306 246.925 198.997 246.942 198.747 246.975C198.497 246.992 198.247 247.042 197.997 247.125C197.764 247.192 197.497 247.308 197.197 247.475C196.897 247.642 196.522 247.858 196.072 248.125C194.789 248.875 193.189 249.25 191.272 249.25Z" fill="white"/>
</svg>
