<svg width="102" height="85" viewBox="0 0 102 85" fill="none" xmlns="http://www.w3.org/2000/svg">
<rect x="2.5" y="2.5" width="96.5636" height="79.7525" rx="21.5" fill="#2ECC71" stroke="black" stroke-width="5"/>
<path d="M65.8666 11.2291C58.1279 11.2607 51.9093 18.5576 51.9093 27.415V34.8489H31.2729C28.8315 34.8489 26.8508 37.1159 26.8508 39.9102V60.1557C26.8508 62.95 28.8315 65.2171 31.2729 65.2171H63.7016C66.143 65.2171 68.1237 62.95 68.1237 60.1557V39.9102C68.1237 37.1159 66.143 34.8489 63.7016 34.8489H59.2795V27.3517C59.2795 23.1761 62.1999 19.7069 65.8482 19.6647C69.5332 19.6226 72.5458 23.0495 72.5458 27.2568V35.6924C72.5458 37.0948 73.5316 38.2231 74.7568 38.2231H77.7049C78.9302 38.2231 79.916 37.0948 79.916 35.6924V27.2568C79.916 18.3994 73.6053 11.1975 65.8666 11.2291Z" fill="#0D1B2A"/>
</svg>
