<svg width="98" height="94" viewBox="0 0 98 94" fill="none" xmlns="http://www.w3.org/2000/svg">
<path d="M97.1819 46.61C97.1819 72.3521 75.427 93.22 48.5909 93.22C21.7548 93.22 0 72.3521 0 46.61C0 20.8679 21.7548 0 48.5909 0C75.427 0 97.1819 20.8679 97.1819 46.61ZM42.9704 71.2896L79.0218 36.708C80.246 35.5337 80.246 33.6297 79.0218 32.4554L74.5884 28.2028C73.3643 27.0283 71.3793 27.0283 70.1549 28.2028L40.7537 56.4052L27.0269 43.2381C25.8028 42.0638 23.8178 42.0638 22.5934 43.2381L18.1601 47.4907C16.9359 48.665 16.9359 50.569 18.1601 51.7433L38.5369 71.2894C39.7613 72.4639 41.7461 72.4639 42.9704 71.2896Z" fill="#2ECC71"/>
</svg>
